# Part3
# Autodesk dbId: 5
# Units: mm
o 005_Part3
v -18.490001 -12.303324 40.109340
v -15.690001 -12.725663 40.283504
v -15.690001 -12.303324 40.109340
v -18.490001 -12.725663 40.283504
v -15.690001 -13.088537 40.561044
v -18.490001 -13.088537 40.561044
v -15.690001 -13.367211 40.923044
v -18.490001 -13.367210 40.923044
v -15.690001 -13.542698 41.344836
v -18.490001 -13.542698 41.344836
v -15.690001 -13.603036 41.797675
v -18.490001 -13.603036 41.797675
v -15.690001 -13.544120 42.250702
v -18.490001 -13.544120 42.250702
v -15.690001 -13.369952 42.673041
v -18.490001 -13.369952 42.673041
v -15.690001 -13.092415 43.035914
v -18.490001 -13.092415 43.035914
v -15.690001 -12.730414 43.314589
v -18.490001 -12.730413 43.314589
v -15.690001 -12.308623 43.490076
v -18.490001 -12.308623 43.490076
v -15.690001 -11.855782 43.550415
v -18.490001 -11.855782 43.550415
v -15.690001 -11.402757 43.491496
v -18.490001 -11.402757 43.491496
v -15.690001 -10.980416 43.317331
v -18.490001 -10.980416 43.317331
v -15.690001 -10.617544 43.039793
v -18.490001 -10.617544 43.039793
v -15.690001 -10.338868 42.677792
v -18.490001 -10.338868 42.677792
v -15.690001 -10.163383 42.256000
v -18.490001 -10.163383 42.256000
v -15.690001 -10.103040 41.803160
v -18.490001 -10.103040 41.803160
v -15.690001 -10.161962 41.350134
v -18.490001 -10.161961 41.350134
v -15.690001 -10.336124 40.927794
v -18.490001 -10.336124 40.927794
v -15.690001 -10.613667 40.564922
v -18.490001 -10.613667 40.564922
v -15.690001 -10.975665 40.286247
v -18.490001 -10.975665 40.286247
v -15.690001 -11.397458 40.110760
v -18.490001 -11.397458 40.110760
v -15.690001 -11.850297 40.050420
v -18.490001 -11.850296 40.050420
v -15.690001 -12.303324 40.109340
v -18.489999 65.003089 19.524952
v -15.689999 64.580750 19.699115
v -15.689999 65.003089 19.524952
v -18.489999 64.580750 19.699115
v -15.689999 64.217876 19.976655
v -18.489999 64.217876 19.976655
v -15.689999 63.939203 20.338655
v -18.489999 63.939203 20.338655
v -15.689999 63.763718 20.760447
v -18.489999 63.763718 20.760447
v -15.689999 63.703378 21.213286
v -18.489999 63.703378 21.213286
v -15.689999 63.762299 21.666312
v -18.489999 63.762299 21.666312
v -15.689999 63.936462 22.088652
v -18.489999 63.936462 22.088652
v -15.689999 64.214001 22.451524
v -18.489999 64.214001 22.451524
v -15.689999 64.576000 22.730200
v -18.489999 64.576000 22.730200
v -15.689999 64.997790 22.905688
v -18.489999 64.997790 22.905688
v -15.689999 65.450631 22.966027
v -18.489999 65.450631 22.966027
v -15.689999 65.903656 22.907107
v -18.489999 65.903656 22.907107
v -15.689999 66.325998 22.732943
v -18.489999 66.325998 22.732943
v -15.689999 66.688870 22.455404
v -18.489999 66.688870 22.455404
v -15.689999 66.967543 22.093404
v -18.489999 66.967543 22.093404
v -15.689999 67.143033 21.671611
v -18.489999 67.143033 21.671611
v -15.689999 67.203371 21.218772
v -18.489999 67.203371 21.218772
v -15.689999 67.144452 20.765745
v -18.489999 67.144452 20.765745
v -15.689999 66.970287 20.343406
v -18.489999 66.970287 20.343406
v -15.689999 66.692750 19.980533
v -18.489999 66.692750 19.980533
v -15.689999 66.330746 19.701859
v -18.489999 66.330746 19.701859
v -15.689999 65.908956 19.526371
v -18.489999 65.908956 19.526371
v -15.689999 65.456117 19.466031
v -18.489999 65.456117 19.466031
v -15.689999 65.003089 19.524952
v -15.690001 -8.560698 36.784394
v -18.489999 64.424154 17.350709
v -15.689999 64.424153 17.350709
v -18.490001 -8.560698 36.784394
v -18.490001 -6.502259 44.515036
v -18.489999 64.997790 22.905688
v -18.489999 64.576000 22.730200
v -18.490001 -15.606462 46.481422
v -18.490001 -14.310455 47.274089
v -18.490001 -7.355587 45.771931
v -18.489999 66.482592 25.081350
v -18.489999 68.277363 24.048886
v -18.489999 65.450631 22.966027
v -18.489999 67.447941 24.683261
v -18.489999 68.914336 23.221456
v -18.489999 65.903656 22.907107
v -18.489999 69.315449 22.257359
v -18.489999 66.688870 22.455404
v -18.489999 66.325998 22.732943
v -18.489999 69.453367 21.222298
v -18.489999 67.203371 21.218772
v -18.489999 67.143033 21.671611
v -18.489999 66.967543 22.093404
v -18.489999 69.318695 20.186810
v -18.489999 66.970287 20.343406
v -18.489999 67.144452 20.765745
v -18.489999 68.920604 19.221461
v -18.489999 65.908956 19.526371
v -18.489999 66.330746 19.701859
v -18.489999 66.692750 19.980533
v -18.489999 68.286230 18.392039
v -18.490001 -9.926068 36.118272
v -18.490001 -16.707028 38.273554
v -18.490001 -8.560698 36.784394
v -18.490001 -14.379788 36.358402
v -18.490001 -11.414977 35.816431
v -18.490001 -12.931967 35.898222
v -18.490001 -15.665624 37.167471
v -18.490001 -16.661838 45.388655
v -18.490001 -8.497247 46.774214
v -18.490001 -12.856908 47.715842
v -18.490001 -11.338995 47.778356
v -18.490001 -9.854043 47.457626
v -15.690001 -6.502259 44.515036
v -15.689999 66.482592 25.081350
v -18.490001 -6.502259 44.515036
v -15.690001 -11.338995 47.778356
v -15.690001 -8.497247 46.774214
v -15.690001 -9.854043 47.457626
v -15.690001 -12.856908 47.715842
v -15.690001 -7.355587 45.771931
v -15.690001 -14.310455 47.274089
v -15.690001 -6.502259 44.515036
v -15.690001 -15.606462 46.481422
v -15.690001 -16.661838 45.388655
v -15.690001 -12.730414 43.314589
v -15.690001 -12.308623 43.490076
v -15.690001 -11.855782 43.550415
v -15.690001 -11.402757 43.491496
v -15.690001 -17.408922 44.065847
v -15.690001 -13.544120 42.250702
v -15.690001 -13.369952 42.673041
v -15.690001 -13.092415 43.035914
v -15.690001 -17.799818 42.597803
v -15.690001 -13.367211 40.923044
v -15.690001 -13.542698 41.344836
v -15.690001 -13.603036 41.797675
v -15.690001 -17.809467 41.078638
v -15.690001 -13.088537 40.561044
v -15.690001 -17.437249 39.605746
v -15.690001 -8.560698 36.784394
v -15.690001 -11.414977 35.816431
v -15.690001 -15.665624 37.167471
v -15.690001 -14.379788 36.358402
v -15.690001 -12.931967 35.898222
v -15.690001 -9.926068 36.118272
v -15.690001 -16.707028 38.273554
v -18.490001 -12.303324 40.109340
v -18.489999 65.003089 19.524952
v -18.490001 -11.850296 40.050420
v -18.490001 -12.303324 40.109340
v -18.490001 -11.397458 40.110760
v -18.490001 -10.975665 40.286247
v -18.489999 63.939203 20.338655
v -18.489999 64.217876 19.976655
v -18.489999 64.424154 17.350709
v -18.490001 -17.437249 39.605746
v -18.490001 -17.809467 41.078638
v -18.490001 -12.725663 40.283504
v -18.490001 -13.088537 40.561044
v -18.490001 -13.367210 40.923044
v -18.490001 -17.799818 42.597803
v -18.490001 -13.542698 41.344836
v -18.490001 -13.603036 41.797675
v -18.490001 -13.544120 42.250702
v -18.490001 -17.408922 44.065847
v -18.490001 -13.369952 42.673041
v -18.490001 -13.092415 43.035914
v -18.490001 -12.730413 43.314589
v -18.490001 -12.308623 43.490076
v -18.490001 -11.855782 43.550415
v -18.490001 -11.402757 43.491496
v -18.490001 -10.980416 43.317331
v -18.490001 -10.617544 43.039793
v -18.490001 -10.338868 42.677792
v -18.489999 64.214001 22.451524
v -18.490001 -10.163383 42.256000
v -18.490001 -10.613667 40.564922
v -18.489999 63.763718 20.760447
v -18.490001 -10.336124 40.927794
v -18.489999 63.703378 21.213286
v -18.490001 -10.161961 41.350134
v -18.489999 63.762299 21.666312
v -18.490001 -10.103040 41.803160
v -18.489999 63.936462 22.088652
v -18.489999 65.456117 19.466031
v -18.489999 65.003089 19.524952
v -18.489999 67.458799 17.755067
v -18.489999 64.580750 19.699115
v -18.489999 66.494703 17.353954
v -18.489999 65.459642 17.216035
v -18.489999 66.482592 25.081350
v -18.489999 66.482592 25.081350
v -15.689999 66.482592 25.081350
v -18.489999 67.447941 24.683261
v -15.689999 67.447941 24.683261
v -18.489999 68.277363 24.048886
v -15.689999 68.277363 24.048886
v -18.489999 68.914336 23.221456
v -15.689999 68.914335 23.221456
v -18.489999 69.315449 22.257359
v -15.689999 69.315449 22.257359
v -18.489999 69.453367 21.222298
v -15.689999 69.453367 21.222298
v -18.489999 69.318695 20.186810
v -15.689999 69.318695 20.186810
v -18.489999 68.920604 19.221461
v -15.689999 68.920604 19.221461
v -18.489999 68.286230 18.392039
v -15.689999 68.286230 18.392039
v -18.489999 67.458799 17.755067
v -15.689999 67.458799 17.755067
v -18.489999 66.494703 17.353954
v -15.689999 66.494703 17.353954
v -18.489999 65.459642 17.216035
v -15.689999 65.459642 17.216035
v -18.489999 64.424154 17.350709
v -15.689999 64.424153 17.350709
v -15.690001 -12.725663 40.283504
v -15.690001 -12.303324 40.109340
v -15.690001 -11.850297 40.050420
v -15.689999 64.217876 19.976655
v -15.689999 63.939203 20.338655
v -15.690001 -11.397458 40.110760
v -15.690001 -10.975665 40.286247
v -15.689999 63.763718 20.760447
v -15.690001 -10.613667 40.564922
v -15.690001 -10.980416 43.317331
v -15.690001 -10.617544 43.039793
v -15.690001 -10.338868 42.677792
v -15.689999 64.576000 22.730200
v -15.689999 64.997790 22.905688
v -15.689999 66.482592 25.081350
v -15.690001 -10.163383 42.256000
v -15.689999 64.214001 22.451524
v -15.690001 -10.103040 41.803160
v -15.689999 63.936462 22.088652
v -15.690001 -10.161962 41.350134
v -15.689999 63.762299 21.666312
v -15.690001 -10.336124 40.927794
v -15.689999 63.703378 21.213286
v -15.689999 64.580750 19.699115
v -15.689999 67.458799 17.755067
v -15.689999 65.003089 19.524952
v -15.689999 64.424153 17.350709
v -15.689999 66.494703 17.353954
v -15.689999 68.286230 18.392039
v -15.689999 65.456117 19.466031
v -15.689999 65.908956 19.526371
v -15.689999 68.920604 19.221461
v -15.689999 66.330746 19.701859
v -15.689999 66.692750 19.980533
v -15.689999 66.970287 20.343406
v -15.689999 69.318695 20.186810
v -15.689999 67.144452 20.765745
v -15.689999 67.203371 21.218772
v -15.689999 69.453367 21.222298
v -15.689999 67.143033 21.671611
v -15.689999 66.967543 22.093404
v -15.689999 66.688870 22.455404
v -15.689999 69.315449 22.257359
v -15.689999 66.325998 22.732943
v -15.689999 65.903656 22.907107
v -15.689999 68.914335 23.221456
v -15.689999 65.450631 22.966027
v -15.689999 68.277363 24.048886
v -15.689999 67.447941 24.683261
v -15.689999 65.459642 17.216035
v -18.490001 -8.560698 36.784394
v -15.690001 -8.560698 36.784394
v -18.490001 -9.926068 36.118272
v -15.690001 -9.926068 36.118272
v -18.490001 -11.414977 35.816431
v -15.690001 -11.414977 35.816431
v -18.490001 -12.931967 35.898222
v -15.690001 -12.931967 35.898222
v -18.490001 -14.379788 36.358402
v -15.690001 -14.379788 36.358402
v -18.490001 -15.665624 37.167471
v -15.690001 -15.665624 37.167471
v -18.490001 -16.707028 38.273554
v -15.690001 -16.707028 38.273554
v -18.490001 -17.437249 39.605746
v -15.690001 -17.437249 39.605746
v -18.490001 -17.809467 41.078638
v -15.690001 -17.809467 41.078638
v -18.490001 -17.799818 42.597803
v -15.690001 -17.799818 42.597803
v -18.490001 -17.408922 44.065847
v -15.690001 -17.408922 44.065847
v -18.490001 -16.661838 45.388655
v -15.690001 -16.661838 45.388655
v -18.490001 -15.606462 46.481422
v -15.690001 -15.606462 46.481422
v -18.490001 -14.310455 47.274089
v -15.690001 -14.310455 47.274089
v -18.490001 -12.856908 47.715842
v -15.690001 -12.856908 47.715842
v -18.490001 -11.338995 47.778356
v -15.690001 -11.338995 47.778356
v -18.490001 -9.854043 47.457626
v -15.690001 -9.854043 47.457626
v -18.490001 -8.497247 46.774214
v -15.690001 -8.497247 46.774214
v -18.490001 -7.355587 45.771931
v -15.690001 -7.355587 45.771931
v -18.490001 -6.502259 44.515036
v -15.690001 -6.502259 44.515036
f 1 2 3
f 1 4 2
f 2 4 5
f 4 6 5
f 5 6 7
f 6 8 7
f 7 8 9
f 8 10 9
f 9 10 11
f 10 12 11
f 11 12 13
f 12 14 13
f 13 14 15
f 14 16 15
f 15 16 17
f 16 18 17
f 17 18 19
f 18 20 19
f 19 20 21
f 20 22 21
f 21 22 23
f 22 24 23
f 23 24 25
f 24 26 25
f 25 26 27
f 26 28 27
f 27 28 29
f 28 30 29
f 29 30 31
f 30 32 31
f 31 32 33
f 32 34 33
f 33 34 35
f 34 36 35
f 35 36 37
f 36 38 37
f 37 38 39
f 38 40 39
f 39 40 41
f 40 42 41
f 41 42 43
f 42 44 43
f 43 44 45
f 44 46 45
f 45 46 47
f 46 48 47
f 47 48 49
f 48 176 49
f 50 51 52
f 50 53 51
f 51 53 54
f 53 55 54
f 54 55 56
f 55 57 56
f 56 57 58
f 57 59 58
f 58 59 60
f 59 61 60
f 60 61 62
f 61 63 62
f 62 63 64
f 63 65 64
f 64 65 66
f 65 67 66
f 66 67 68
f 67 69 68
f 68 69 70
f 69 71 70
f 70 71 72
f 71 73 72
f 72 73 74
f 73 75 74
f 74 75 76
f 75 77 76
f 76 77 78
f 77 79 78
f 78 79 80
f 79 81 80
f 80 81 82
f 81 83 82
f 82 83 84
f 83 85 84
f 84 85 86
f 85 87 86
f 86 87 88
f 87 89 88
f 88 89 90
f 89 91 90
f 90 91 92
f 91 93 92
f 92 93 94
f 93 95 94
f 94 95 96
f 95 97 96
f 96 97 98
f 97 177 98
f 99 100 101
f 99 102 100
f 103 104 105
f 103 106 107
f 103 107 108
f 103 109 104
f 103 137 106
f 103 200 137
f 103 201 200
f 103 202 201
f 103 203 202
f 103 105 203
f 104 109 111
f 105 204 203
f 107 139 108
f 108 139 138
f 109 110 111
f 109 112 110
f 110 113 111
f 111 113 114
f 113 115 114
f 114 115 117
f 115 116 117
f 115 118 116
f 116 118 121
f 118 119 120
f 118 120 121
f 118 122 119
f 119 122 124
f 122 123 124
f 122 125 123
f 123 125 128
f 125 126 127
f 125 127 128
f 125 129 126
f 126 129 214
f 129 215 214
f 129 216 215
f 130 131 132
f 130 134 136
f 130 136 131
f 131 185 132
f 132 179 178
f 132 178 180
f 132 180 181
f 132 181 182
f 132 183 184
f 132 185 186
f 132 186 179
f 132 182 183
f 133 134 135
f 133 136 134
f 137 197 194
f 137 198 197
f 137 199 198
f 137 200 199
f 138 139 140
f 138 140 141
f 142 143 144
f 143 220 144
f 145 146 147
f 145 148 146
f 146 148 149
f 148 150 149
f 149 150 151
f 150 152 151
f 151 153 157
f 151 152 153
f 151 157 256
f 151 256 257
f 151 257 258
f 151 258 259
f 151 260 261
f 151 259 260
f 153 154 155
f 153 155 156
f 153 158 154
f 153 156 157
f 154 158 161
f 158 159 160
f 158 160 161
f 158 162 159
f 159 162 165
f 162 163 164
f 162 164 165
f 162 166 163
f 163 166 167
f 166 168 169
f 166 248 247
f 166 247 167
f 166 169 248
f 168 175 169
f 169 249 248
f 169 250 251
f 169 175 174
f 169 252 249
f 169 253 252
f 169 251 253
f 169 273 250
f 170 171 172
f 170 172 173
f 170 174 171
f 171 174 175
f 179 186 187
f 181 206 182
f 182 206 207
f 183 217 184
f 184 217 218
f 184 218 219
f 186 188 187
f 186 189 188
f 186 190 189
f 189 190 191
f 190 192 191
f 190 193 192
f 190 194 193
f 193 194 195
f 194 196 195
f 194 197 196
f 203 204 205
f 204 213 205
f 205 213 212
f 206 208 207
f 207 208 209
f 208 210 209
f 209 210 211
f 210 212 211
f 211 212 213
f 215 216 217
f 216 218 217
f 221 222 223
f 222 224 223
f 223 224 225
f 224 226 225
f 225 226 227
f 226 228 227
f 227 228 229
f 228 230 229
f 229 230 231
f 230 232 231
f 231 232 233
f 232 234 233
f 233 234 235
f 234 236 235
f 235 236 237
f 236 238 237
f 237 238 239
f 238 240 239
f 239 240 241
f 240 242 241
f 241 242 243
f 242 244 243
f 243 244 245
f 244 246 245
f 250 273 270
f 251 254 253
f 253 254 255
f 254 269 255
f 255 269 268
f 258 262 259
f 259 262 263
f 260 293 261
f 261 293 294
f 261 294 295
f 262 264 263
f 263 264 265
f 264 266 265
f 265 266 267
f 266 268 267
f 267 268 269
f 270 271 272
f 270 273 274
f 270 274 271
f 271 275 272
f 272 275 276
f 273 296 274
f 275 277 276
f 275 278 277
f 277 278 279
f 278 280 279
f 278 281 280
f 278 282 281
f 281 282 283
f 282 284 283
f 282 285 284
f 284 285 286
f 285 287 286
f 285 288 287
f 285 289 288
f 288 289 290
f 289 291 290
f 289 292 291
f 291 292 293
f 292 294 293
f 297 298 299
f 298 300 299
f 299 300 301
f 300 302 301
f 301 302 303
f 302 304 303
f 303 304 305
f 304 306 305
f 305 306 307
f 306 308 307
f 307 308 309
f 308 310 309
f 309 310 311
f 310 312 311
f 311 312 313
f 312 314 313
f 313 314 315
f 314 316 315
f 315 316 317
f 316 318 317
f 317 318 319
f 318 320 319
f 319 320 321
f 320 322 321
f 321 322 323
f 322 324 323
f 323 324 325
f 324 326 325
f 325 326 327
f 326 328 327
f 327 328 329
f 328 330 329
f 329 330 331
f 330 332 331
f 331 332 333
f 332 334 333
f 333 334 335
f 334 336 335