# Part8
# Autodesk dbId: 8
# Units: mm
o 008_Part8
v -20.999999 -66.301492 48.170938
v -22.035277 -69.101492 48.034642
v -20.999999 -69.101492 48.170938
v -22.035277 -66.301492 48.034642
v -22.999999 -69.101492 47.635041
v -22.999999 -66.301492 47.635041
v -23.828427 -69.101492 46.999366
v -23.828427 -66.301492 46.999366
v -24.464102 -69.101492 46.170937
v -24.464102 -66.301492 46.170937
v -24.863704 -69.101492 45.206215
v -24.863704 -66.301492 45.206215
v -25.000000 -69.101492 44.170938
v -25.000000 -66.301492 44.170938
v -10.750000 -69.101492 23.170938
v -25.000000 -69.101492 44.170938
v -25.000000 -69.101492 2.170939
v -10.707407 -69.101492 22.847415
v -10.707407 -69.101492 23.494462
v -10.383884 -69.101492 24.054822
v -10.125001 -69.101492 24.253470
v -6.250000 -69.101492 34.795939
v -9.500000 -69.101492 24.420939
v -9.176476 -69.101492 24.378346
v -8.616117 -69.101492 24.054822
v -8.417468 -69.101492 23.795939
v -8.417468 -69.101492 22.545938
v -8.616117 -69.101492 22.287055
v -6.250000 -69.101492 11.545938
v -9.176476 -69.101492 21.963531
v -9.500000 -69.101492 21.920938
v -10.125001 -69.101492 22.088407
v -10.383884 -69.101492 22.287055
v -21.920308 -69.101492 2.500629
v -21.596786 -69.101492 2.458035
v -10.582532 -69.101492 22.545938
v -22.243834 -69.101492 2.458035
v 21.036427 -69.101492 45.975132
v 21.295309 -69.101492 46.173781
v 20.999999 -69.101492 48.170938
v 22.804193 -69.101492 44.207365
v 22.545309 -69.101492 44.008718
v 25.000000 -69.101492 44.170938
v 21.036427 -69.101492 44.207365
v 20.837779 -69.101492 44.466248
v 6.250000 -69.101492 34.795939
v 20.712903 -69.101492 44.767725
v 20.670310 -69.101492 45.091247
v -22.804193 -69.101492 2.134512
v -22.545309 -69.101492 2.333159
v -21.036427 -69.101492 2.134512
v -20.837779 -69.101492 1.875629
v -20.670310 -69.101492 1.250630
v -20.712903 -69.101492 0.927105
v -20.837779 -69.101492 0.625629
v -20.999999 -69.101492 -1.829062
v -21.295309 -69.101492 0.168096
v -21.596786 -69.101492 0.043220
v -23.127718 -69.101492 0.927105
v -23.170309 -69.101492 1.250630
v -24.863704 -69.101492 1.135662
v 20.837779 -69.101492 1.875629
v 21.036427 -69.101492 2.134512
v 6.250000 -69.101492 11.545938
v 22.243834 -69.101492 2.458035
v 25.000000 -69.101492 2.170939
v 10.707407 -69.101492 22.847415
v 10.582532 -69.101492 22.545938
v 22.545309 -69.101492 2.333159
v 22.804193 -69.101492 2.134512
v 23.002842 -69.101492 1.875629
v 23.127718 -69.101492 1.574152
v 24.863704 -69.101492 1.135662
v 23.170309 -69.101492 1.250630
v 23.127718 -69.101492 0.927105
v 24.464102 -69.101492 0.170940
v 23.002842 -69.101492 0.625629
v 23.828427 -69.101492 -0.657489
v 22.804193 -69.101492 0.366745
v 22.545309 -69.101492 0.168096
v 22.999999 -69.101492 -1.293164
v 22.243834 -69.101492 0.043220
v 22.035277 -69.101492 -1.692765
v 21.920308 -69.101492 0.000630
v 21.596786 -69.101492 0.043220
v 20.999999 -69.101492 -1.829062
v 21.295309 -69.101492 0.168096
v 21.036427 -69.101492 0.366745
v 20.837779 -69.101492 0.625629
v 20.712903 -69.101492 0.927105
v 20.670310 -69.101492 1.250630
v -23.170309 -69.101492 45.091247
v -24.863704 -69.101492 45.206215
v -23.127718 -69.101492 44.767725
v -23.127718 -69.101492 45.414772
v -24.464102 -69.101492 46.170937
v -23.002842 -69.101492 45.716248
v -23.828427 -69.101492 46.999366
v -22.804193 -69.101492 45.975132
v -22.545309 -69.101492 46.173781
v -22.999999 -69.101492 47.635041
v -22.243834 -69.101492 46.298657
v -22.035277 -69.101492 48.034642
v -21.920308 -69.101492 46.341247
v -21.596786 -69.101492 46.298657
v -20.999999 -69.101492 48.170938
v -21.295309 -69.101492 46.173781
v -21.036427 -69.101492 45.975132
v -20.837779 -69.101492 45.716248
v -20.712903 -69.101492 45.414772
v -20.670310 -69.101492 45.091247
v -20.712903 -69.101492 44.767725
v -20.837779 -69.101492 44.466248
v -21.036427 -69.101492 44.207365
v -21.295309 -69.101492 44.008718
v -21.596786 -69.101492 43.883842
v -21.920308 -69.101492 43.841248
v -10.582532 -69.101492 23.795939
v -22.243834 -69.101492 43.883842
v -22.545309 -69.101492 44.008718
v -22.804193 -69.101492 44.207365
v -23.002842 -69.101492 44.466248
v 8.250000 -69.101492 23.170938
v 8.292593 -69.101492 22.847415
v 8.292593 -69.101492 23.494462
v 8.417468 -69.101492 23.795939
v 8.875000 -69.101492 24.253470
v 9.176476 -69.101492 24.378346
v 9.823523 -69.101492 24.378346
v 10.125001 -69.101492 24.253470
v 10.383884 -69.101492 24.054822
v 21.920308 -69.101492 43.841248
v 21.596786 -69.101492 43.883842
v 10.582532 -69.101492 23.795939
v 22.243834 -69.101492 43.883842
v 10.707407 -69.101492 23.494462
v 10.750000 -69.101492 23.170938
v 21.920308 -69.101492 2.500629
v 10.383884 -69.101492 22.287055
v 21.596786 -69.101492 2.458035
v 10.125001 -69.101492 22.088407
v 9.823523 -69.101492 21.963531
v 9.500000 -69.101492 21.920938
v 9.176476 -69.101492 21.963531
v 8.875000 -69.101492 22.088407
v 8.616117 -69.101492 22.287055
v 8.417468 -69.101492 22.545938
v 20.712903 -69.101492 45.414772
v 21.295309 -69.101492 44.008718
v 8.616117 -69.101492 24.054822
v 9.500000 -69.101492 24.420939
v 20.712903 -69.101492 1.574152
v 21.295309 -69.101492 2.333159
v -21.295309 -69.101492 2.333159
v -8.250000 -69.101492 23.170938
v -8.292593 -69.101492 22.847415
v -8.875000 -69.101492 22.088407
v -9.823523 -69.101492 21.963531
v -20.712903 -69.101492 1.574152
v -9.823523 -69.101492 24.378346
v -8.875000 -69.101492 24.253470
v -8.292593 -69.101492 23.494462
v -23.127718 -69.101492 1.574152
v -23.002842 -69.101492 1.875629
v -24.464102 -69.101492 0.170940
v -23.002842 -69.101492 0.625629
v -23.828427 -69.101492 -0.657489
v -22.545309 -69.101492 0.168096
v -22.804193 -69.101492 0.366745
v -22.999999 -69.101492 -1.293164
v -22.243834 -69.101492 0.043220
v -22.035277 -69.101492 -1.692765
v -21.920308 -69.101492 0.000630
v -21.036427 -69.101492 0.366745
v 23.127718 -69.101492 44.767725
v 23.002842 -69.101492 44.466248
v 24.863704 -69.101492 45.206215
v 23.127718 -69.101492 45.414772
v 23.170309 -69.101492 45.091247
v 24.464102 -69.101492 46.170937
v 23.002842 -69.101492 45.716248
v 23.828427 -69.101492 46.999366
v 22.545309 -69.101492 46.173781
v 22.804193 -69.101492 45.975132
v 22.999999 -69.101492 47.635041
v 22.243834 -69.101492 46.298657
v 22.035277 -69.101492 48.034642
v 21.596786 -69.101492 46.298657
v 21.920308 -69.101492 46.341247
v 20.999999 -66.301492 -1.829062
v 22.035277 -69.101492 -1.692765
v 20.999999 -69.101492 -1.829062
v 22.035277 -66.301492 -1.692765
v 22.999999 -69.101492 -1.293164
v 22.999999 -66.301492 -1.293164
v 23.828427 -69.101492 -0.657489
v 23.828427 -66.301492 -0.657489
v 24.464102 -69.101492 0.170940
v 24.464102 -66.301492 0.170940
v 24.863704 -69.101492 1.135662
v 24.863704 -66.301492 1.135662
v 25.000000 -69.101492 2.170939
v -25.000000 -66.301492 2.170939
v -24.863704 -69.101492 1.135662
v -25.000000 -69.101492 2.170939
v -24.863704 -66.301492 1.135662
v -24.464102 -69.101492 0.170940
v -24.464102 -66.301492 0.170940
v -23.828427 -69.101492 -0.657489
v -23.828427 -66.301492 -0.657489
v -22.999999 -69.101492 -1.293164
v -22.999999 -66.301492 -1.293164
v -22.035277 -69.101492 -1.692765
v -22.035277 -66.301492 -1.692765
v -20.999999 -69.101492 -1.829062
v -6.250000 -66.301492 34.795939
v -6.250000 -69.101492 11.545938
v -6.250000 -66.301492 11.545938
v 6.250000 -66.301492 34.795939
v -6.250000 -69.101492 34.795939
v -6.250000 -66.301492 34.795939
v 6.250000 -66.301492 11.545938
v 6.250000 -69.101492 34.795939
v 6.250000 -66.301492 34.795939
v -20.999999 -69.101492 48.170938
v 20.999999 -69.101492 48.170938
v -20.999999 -66.301492 48.170938
v 20.999999 -66.301492 48.170938
v 20.837779 -69.101492 45.716248
v 25.000000 -69.101492 44.170938
v 25.000000 -66.301492 44.170938
v 24.863704 -69.101492 45.206215
v 24.863704 -66.301492 45.206215
v 24.464102 -69.101492 46.170937
v 24.464102 -66.301492 46.170937
v 23.828427 -69.101492 46.999366
v 23.828427 -66.301492 46.999366
v 22.999999 -69.101492 47.635041
v 22.999999 -66.301492 47.635041
v 22.035277 -69.101492 48.034642
v 22.035277 -66.301492 48.034642
v 20.999999 -69.101492 48.170938
v 20.999999 -66.301492 48.170938
v 25.000000 -69.101492 44.170938
v 25.000000 -69.101492 2.170939
v 25.000000 -66.301492 44.170938
v 25.000000 -66.301492 2.170939
v 25.000000 -66.301492 2.170939
v 20.999999 -69.101492 -1.829062
v -20.999999 -69.101492 -1.829062
v 20.999999 -66.301492 -1.829062
v -20.999999 -66.301492 -1.829062
v -20.999999 -66.301492 -1.829062
v -25.000000 -66.301492 44.170938
v -25.000000 -66.301492 2.170939
v -25.000000 -69.101492 44.170938
v -25.000000 -69.101492 2.170939
v -10.707407 -69.101492 22.847415
v -10.707407 -66.301492 22.847415
v -10.750000 -69.101492 23.170938
v -10.582532 -66.301492 22.545938
v -10.750000 -66.301492 23.170938
v -10.750000 -69.101492 23.170938
v -10.750000 -66.301492 23.170938
v -10.707407 -69.101492 23.494462
v -10.707407 -66.301492 23.494462
v -10.582532 -69.101492 23.795939
v -10.582532 -66.301492 23.795939
v -10.383884 -69.101492 24.054822
v -10.383884 -66.301492 24.054822
v -10.125001 -69.101492 24.253470
v -10.125001 -66.301492 24.253470
v -9.823523 -69.101492 24.378346
v -9.823523 -66.301492 24.378346
v -9.500000 -69.101492 24.420939
v -9.500000 -66.301492 24.420939
v -9.176476 -69.101492 24.378346
v -9.176476 -66.301492 24.378346
v -8.875000 -69.101492 24.253470
v -8.875000 -66.301492 24.253470
v -8.616117 -69.101492 24.054822
v -8.616117 -66.301492 24.054822
v -8.417468 -69.101492 23.795939
v -8.417468 -66.301492 23.795939
v -8.292593 -69.101492 23.494462
v -8.292593 -66.301492 23.494462
v -8.250000 -69.101492 23.170938
v -8.250000 -66.301492 23.170938
v -8.292593 -69.101492 22.847415
v -8.292593 -66.301492 22.847415
v -8.417468 -69.101492 22.545938
v -8.417468 -66.301492 22.545938
v -8.616117 -69.101492 22.287055
v -8.616117 -66.301492 22.287055
v -8.875000 -69.101492 22.088407
v -8.875000 -66.301492 22.088407
v -9.176476 -69.101492 21.963531
v -9.176476 -66.301492 21.963531
v -9.500000 -69.101492 21.920938
v -9.500000 -66.301492 21.920938
v -9.823523 -69.101492 21.963531
v -9.823523 -66.301492 21.963531
v -10.125001 -69.101492 22.088407
v -10.125001 -66.301492 22.088407
v -10.383884 -69.101492 22.287055
v -10.383884 -66.301492 22.287055
v -10.582532 -69.101492 22.545938
v 20.712903 -69.101492 44.767725
v 20.712903 -66.301492 44.767725
v 20.670310 -69.101492 45.091247
v 20.837779 -66.301492 44.466248
v 20.670310 -66.301492 45.091247
v 20.670310 -69.101492 45.091247
v 20.670310 -66.301492 45.091247
v 20.712903 -69.101492 45.414772
v 20.712903 -66.301492 45.414772
v 20.837779 -69.101492 45.716248
v 20.837779 -66.301492 45.716248
v 21.036427 -69.101492 45.975132
v 21.036427 -66.301492 45.975132
v 21.295309 -69.101492 46.173781
v 21.295309 -66.301492 46.173781
v 21.596786 -69.101492 46.298657
v 21.596786 -66.301492 46.298657
v 21.920308 -69.101492 46.341247
v 21.920308 -66.301492 46.341247
v 22.243834 -69.101492 46.298657
v 22.243834 -66.301492 46.298657
v 22.545309 -69.101492 46.173781
v 22.545309 -66.301492 46.173781
v 22.804193 -69.101492 45.975132
v 22.804193 -66.301492 45.975132
v 23.002842 -69.101492 45.716248
v 23.002842 -66.301492 45.716248
v 23.127718 -69.101492 45.414772
v 23.127718 -66.301492 45.414772
v 23.170309 -69.101492 45.091247
v 23.170309 -66.301492 45.091247
v 23.127718 -69.101492 44.767725
v 23.127718 -66.301492 44.767725
v 23.002842 -69.101492 44.466248
v 23.002842 -66.301492 44.466248
v 22.804193 -69.101492 44.207365
v 22.804193 -66.301492 44.207365
v 22.545309 -69.101492 44.008718
v 22.545309 -66.301492 44.008718
v 22.243834 -69.101492 43.883842
v 22.243834 -66.301492 43.883842
v 21.920308 -69.101492 43.841248
v 21.920308 -66.301492 43.841248
v 21.596786 -69.101492 43.883842
v 21.596786 -66.301492 43.883842
v 21.295309 -69.101492 44.008718
v 21.295309 -66.301492 44.008718
v 21.036427 -69.101492 44.207365
v 21.036427 -66.301492 44.207365
v 20.837779 -69.101492 44.466248
v -23.127718 -69.101492 0.927105
v -23.127718 -66.301492 0.927105
v -23.170309 -69.101492 1.250630
v -23.002842 -66.301492 0.625629
v -23.170309 -66.301492 1.250630
v -23.170309 -69.101492 1.250630
v -23.170309 -66.301492 1.250630
v -23.127718 -69.101492 1.574152
v -23.127718 -66.301492 1.574152
v -23.002842 -69.101492 1.875629
v -23.002842 -66.301492 1.875629
v -22.804193 -69.101492 2.134512
v -22.804193 -66.301492 2.134512
v -22.545309 -69.101492 2.333159
v -22.545309 -66.301492 2.333159
v -22.243834 -69.101492 2.458035
v -22.243834 -66.301492 2.458035
v -21.920308 -69.101492 2.500629
v -21.920308 -66.301492 2.500629
v -21.596786 -69.101492 2.458035
v -21.596786 -66.301492 2.458035
v -21.295309 -69.101492 2.333159
v -21.295309 -66.301492 2.333159
v -21.036427 -69.101492 2.134512
v -21.036427 -66.301492 2.134512
v -20.837779 -69.101492 1.875629
v -20.837779 -66.301492 1.875629
v -20.712903 -69.101492 1.574152
v -20.712903 -66.301492 1.574152
v -20.670310 -69.101492 1.250630
v -20.670310 -66.301492 1.250630
v -20.712903 -69.101492 0.927105
v -20.712903 -66.301492 0.927105
v -20.837779 -69.101492 0.625629
v -20.837779 -66.301492 0.625629
v -21.036427 -69.101492 0.366745
v -21.036427 -66.301492 0.366745
v -21.295309 -69.101492 0.168096
v -21.295309 -66.301492 0.168096
v -21.596786 -69.101492 0.043220
v -21.596786 -66.301492 0.043220
v -21.920308 -69.101492 0.000630
v -21.920308 -66.301492 0.000630
v -22.243834 -69.101492 0.043220
v -22.243834 -66.301492 0.043220
v -22.545309 -69.101492 0.168096
v -22.545309 -66.301492 0.168096
v -22.804193 -69.101492 0.366745
v -22.804193 -66.301492 0.366745
v -23.002842 -69.101492 0.625629
v 20.712903 -69.101492 0.927105
v 20.712903 -66.301492 0.927105
v 20.670310 -69.101492 1.250630
v 20.837779 -66.301492 0.625629
v 20.670310 -66.301492 1.250630
v 20.670310 -69.101492 1.250630
v 20.670310 -66.301492 1.250630
v 20.712903 -69.101492 1.574152
v 20.712903 -66.301492 1.574152
v 20.837779 -69.101492 1.875629
v 20.837779 -66.301492 1.875629
v 21.036427 -69.101492 2.134512
v 21.036427 -66.301492 2.134512
v 21.295309 -69.101492 2.333159
v 21.295309 -66.301492 2.333159
v 21.596786 -69.101492 2.458035
v 21.596786 -66.301492 2.458035
v 21.920308 -69.101492 2.500629
v 21.920308 -66.301492 2.500629
v 22.243834 -69.101492 2.458035
v 22.243834 -66.301492 2.458035
v 22.545309 -69.101492 2.333159
v 22.545309 -66.301492 2.333159
v 22.804193 -69.101492 2.134512
v 22.804193 -66.301492 2.134512
v 23.002842 -69.101492 1.875629
v 23.002842 -66.301492 1.875629
v 23.127718 -69.101492 1.574152
v 23.127718 -66.301492 1.574152
v 23.170309 -69.101492 1.250630
v 23.170309 -66.301492 1.250630
v 23.127718 -69.101492 0.927105
v 23.127718 -66.301492 0.927105
v 23.002842 -69.101492 0.625629
v 23.002842 -66.301492 0.625629
v 22.804193 -69.101492 0.366745
v 22.804193 -66.301492 0.366745
v 22.545309 -69.101492 0.168096
v 22.545309 -66.301492 0.168096
v 22.243834 -69.101492 0.043220
v 22.243834 -66.301492 0.043220
v 21.920308 -69.101492 0.000630
v 21.920308 -66.301492 0.000630
v 21.596786 -69.101492 0.043220
v 21.596786 -66.301492 0.043220
v 21.295309 -69.101492 0.168096
v 21.295309 -66.301492 0.168096
v 21.036427 -69.101492 0.366745
v 21.036427 -66.301492 0.366745
v 20.837779 -69.101492 0.625629
v -23.127718 -69.101492 44.767725
v -23.127718 -66.301492 44.767725
v -23.170309 -69.101492 45.091247
v -23.002842 -66.301492 44.466248
v -23.170309 -66.301492 45.091247
v -23.170309 -69.101492 45.091247
v -23.170309 -66.301492 45.091247
v -23.127718 -69.101492 45.414772
v -23.127718 -66.301492 45.414772
v -23.002842 -69.101492 45.716248
v -23.002842 -66.301492 45.716248
v -22.804193 -69.101492 45.975132
v -22.804193 -66.301492 45.975132
v -22.545309 -69.101492 46.173781
v -22.545309 -66.301492 46.173781
v -22.243834 -69.101492 46.298657
v -22.243834 -66.301492 46.298657
v -21.920308 -69.101492 46.341247
v -21.920308 -66.301492 46.341247
v -21.596786 -69.101492 46.298657
v -21.596786 -66.301492 46.298657
v -21.295309 -69.101492 46.173781
v -21.295309 -66.301492 46.173781
v -21.036427 -69.101492 45.975132
v -21.036427 -66.301492 45.975132
v -20.837779 -69.101492 45.716248
v -20.837779 -66.301492 45.716248
v -20.712903 -69.101492 45.414772
v -20.712903 -66.301492 45.414772
v -20.670310 -69.101492 45.091247
v -20.670310 -66.301492 45.091247
v -20.712903 -69.101492 44.767725
v -20.712903 -66.301492 44.767725
v -20.837779 -69.101492 44.466248
v -20.837779 -66.301492 44.466248
v -21.036427 -69.101492 44.207365
v -21.036427 -66.301492 44.207365
v -21.295309 -69.101492 44.008718
v -21.295309 -66.301492 44.008718
v -21.596786 -69.101492 43.883842
v -21.596786 -66.301492 43.883842
v -21.920308 -69.101492 43.841248
v -21.920308 -66.301492 43.841248
v -22.243834 -69.101492 43.883842
v -22.243834 -66.301492 43.883842
v -22.545309 -69.101492 44.008718
v -22.545309 -66.301492 44.008718
v -22.804193 -69.101492 44.207365
v -22.804193 -66.301492 44.207365
v -23.002842 -69.101492 44.466248
v 8.292593 -69.101492 22.847415
v 8.292593 -66.301492 22.847415
v 8.250000 -69.101492 23.170938
v 8.417468 -66.301492 22.545938
v 8.250000 -66.301492 23.170938
v 8.250000 -69.101492 23.170938
v 8.250000 -66.301492 23.170938
v 8.292593 -69.101492 23.494462
v 8.292593 -66.301492 23.494462
v 8.417468 -69.101492 23.795939
v 8.417468 -66.301492 23.795939
v 8.616117 -69.101492 24.054822
v 8.616117 -66.301492 24.054822
v 8.875000 -69.101492 24.253470
v 8.875000 -66.301492 24.253470
v 9.176476 -69.101492 24.378346
v 9.176476 -66.301492 24.378346
v 9.500000 -69.101492 24.420939
v 9.500000 -66.301492 24.420939
v 9.823523 -69.101492 24.378346
v 9.823523 -66.301492 24.378346
v 10.125001 -69.101492 24.253470
v 10.125001 -66.301492 24.253470
v 10.383884 -69.101492 24.054822
v 10.383884 -66.301492 24.054822
v 10.582532 -69.101492 23.795939
v 10.582532 -66.301492 23.795939
v 10.707407 -69.101492 23.494462
v 10.707407 -66.301492 23.494462
v 10.750000 -69.101492 23.170938
v 10.750000 -66.301492 23.170938
v 10.707407 -69.101492 22.847415
v 10.707407 -66.301492 22.847415
v 10.582532 -69.101492 22.545938
v 10.582532 -66.301492 22.545938
v 10.383884 -69.101492 22.287055
v 10.383884 -66.301492 22.287055
v 10.125001 -69.101492 22.088407
v 10.125001 -66.301492 22.088407
v 9.823523 -69.101492 21.963531
v 9.823523 -66.301492 21.963531
v 9.500000 -69.101492 21.920938
v 9.500000 -66.301492 21.920938
v 9.176476 -69.101492 21.963531
v 9.176476 -66.301492 21.963531
v 8.875000 -69.101492 22.088407
v 8.875000 -66.301492 22.088407
v 8.616117 -69.101492 22.287055
v 8.616117 -66.301492 22.287055
v 8.417468 -69.101492 22.545938
v -6.250000 -69.101492 34.795939
v 6.250000 -69.101492 34.795939
v 6.250000 -69.101492 11.545938
v -6.250000 -69.101492 11.545938
v 6.250000 -69.101492 11.545938
v -6.250000 -66.301492 11.545938
v 6.250000 -66.301492 11.545938
v -24.863704 -66.301492 45.206215
v -23.127718 -66.301492 44.767725
v -25.000000 -66.301492 44.170938
v -23.127718 -66.301492 45.414772
v -23.170309 -66.301492 45.091247
v -23.002842 -66.301492 44.466248
v -22.804193 -66.301492 44.207365
v -10.707407 -66.301492 23.494462
v -10.750000 -66.301492 23.170938
v -25.000000 -66.301492 2.170939
v -22.545309 -66.301492 44.008718
v -22.243834 -66.301492 43.883842
v -24.464102 -66.301492 46.170937
v -23.002842 -66.301492 45.716248
v -23.828427 -66.301492 46.999366
v -22.804193 -66.301492 45.975132
v -22.545309 -66.301492 46.173781
v -22.999999 -66.301492 47.635041
v -22.243834 -66.301492 46.298657
v -22.035277 -66.301492 48.034642
v -21.920308 -66.301492 46.341247
v -21.596786 -66.301492 46.298657
v -20.999999 -66.301492 48.170938
v -21.295309 -66.301492 46.173781
v -21.036427 -66.301492 45.975132
v -20.837779 -66.301492 45.716248
v -20.712903 -66.301492 45.414772
v -6.250000 -66.301492 34.795939
v -20.670310 -66.301492 45.091247
v 6.250000 -66.301492 34.795939
v -8.417468 -66.301492 23.795939
v -8.616117 -66.301492 24.054822
v -8.875000 -66.301492 24.253470
v -9.176476 -66.301492 24.378346
v -9.500000 -66.301492 24.420939
v -9.823523 -66.301492 24.378346
v -10.125001 -66.301492 24.253470
v -10.383884 -66.301492 24.054822
v -20.712903 -66.301492 44.767725
v -20.837779 -66.301492 44.466248
v -21.036427 -66.301492 44.207365
v -21.295309 -66.301492 44.008718
v -21.596786 -66.301492 43.883842
v -21.920308 -66.301492 43.841248
v -10.582532 -66.301492 23.795939
v -10.707407 -66.301492 22.847415
v -22.243834 -66.301492 2.458035
v -10.582532 -66.301492 22.545938
v -21.920308 -66.301492 2.500629
v -10.383884 -66.301492 22.287055
v -21.596786 -66.301492 2.458035
v -6.250000 -66.301492 11.545938
v -21.295309 -66.301492 2.333159
v -21.036427 -66.301492 2.134512
v -20.837779 -66.301492 1.875629
v -20.712903 -66.301492 1.574152
v -20.670310 -66.301492 1.250630
v -20.712903 -66.301492 0.927105
v -20.999999 -66.301492 -1.829062
v -20.837779 -66.301492 0.625629
v -21.036427 -66.301492 0.366745
v -21.295309 -66.301492 0.168096
v -21.596786 -66.301492 0.043220
v -22.035277 -66.301492 -1.692765
v -21.920308 -66.301492 0.000630
v -22.243834 -66.301492 0.043220
v -22.999999 -66.301492 -1.293164
v -22.545309 -66.301492 0.168096
v -23.828427 -66.301492 -0.657489
v -22.804193 -66.301492 0.366745
v -23.002842 -66.301492 0.625629
v -24.464102 -66.301492 0.170940
v -23.127718 -66.301492 0.927105
v -24.863704 -66.301492 1.135662
v -23.170309 -66.301492 1.250630
v -23.127718 -66.301492 1.574152
v -23.002842 -66.301492 1.875629
v -22.804193 -66.301492 2.134512
v -22.545309 -66.301492 2.333159
v 20.999999 -66.301492 48.170938
v 20.712903 -66.301492 45.414772
v 20.670310 -66.301492 45.091247
v 20.712903 -66.301492 44.767725
v 20.837779 -66.301492 44.466248
v 21.036427 -66.301492 44.207365
v 21.295309 -66.301492 44.008718
v 21.596786 -66.301492 43.883842
v 10.383884 -66.301492 24.054822
v 10.125001 -66.301492 24.253470
v 9.823523 -66.301492 24.378346
v 9.500000 -66.301492 24.420939
v 9.176476 -66.301492 24.378346
v 8.875000 -66.301492 24.253470
v 8.616117 -66.301492 24.054822
v 8.417468 -66.301492 23.795939
v 8.292593 -66.301492 23.494462
v 8.250000 -66.301492 23.170938
v 6.250000 -66.301492 11.545938
v 20.837779 -66.301492 45.716248
v 21.036427 -66.301492 45.975132
v 21.295309 -66.301492 46.173781
v 21.596786 -66.301492 46.298657
v 22.035277 -66.301492 48.034642
v 21.920308 -66.301492 46.341247
v 22.243834 -66.301492 46.298657
v 22.999999 -66.301492 47.635041
v 22.545309 -66.301492 46.173781
v 23.828427 -66.301492 46.999366
v 22.804193 -66.301492 45.975132
v 23.002842 -66.301492 45.716248
v 24.464102 -66.301492 46.170937
v 23.127718 -66.301492 45.414772
v 24.863704 -66.301492 45.206215
v 23.170309 -66.301492 45.091247
v 23.127718 -66.301492 44.767725
v 25.000000 -66.301492 44.170938
v 23.002842 -66.301492 44.466248
v 22.804193 -66.301492 44.207365
v 22.545309 -66.301492 44.008718
v 22.243834 -66.301492 43.883842
v 10.707407 -66.301492 23.494462
v 10.582532 -66.301492 23.795939
v 10.750000 -66.301492 23.170938
v 21.920308 -66.301492 43.841248
v 25.000000 -66.301492 2.170939
v 10.707407 -66.301492 22.847415
v 23.127718 -66.301492 1.574152
v 23.002842 -66.301492 1.875629
v 22.804193 -66.301492 2.134512
v 22.545309 -66.301492 2.333159
v 22.243834 -66.301492 2.458035
v 10.582532 -66.301492 22.545938
v 21.920308 -66.301492 2.500629
v 10.383884 -66.301492 22.287055
v 21.596786 -66.301492 2.458035
v 21.295309 -66.301492 2.333159
v 21.036427 -66.301492 2.134512
v 8.292593 -66.301492 22.847415
v 8.417468 -66.301492 22.545938
v 8.616117 -66.301492 22.287055
v 8.875000 -66.301492 22.088407
v 9.176476 -66.301492 21.963531
v 9.500000 -66.301492 21.920938
v 9.823523 -66.301492 21.963531
v 10.125001 -66.301492 22.088407
v 24.863704 -66.301492 1.135662
v 23.127718 -66.301492 0.927105
v 23.170309 -66.301492 1.250630
v 24.464102 -66.301492 0.170940
v 23.002842 -66.301492 0.625629
v 23.828427 -66.301492 -0.657489
v 22.804193 -66.301492 0.366745
v 22.545309 -66.301492 0.168096
v 22.999999 -66.301492 -1.293164
v 22.243834 -66.301492 0.043220
v 22.035277 -66.301492 -1.692765
v 21.920308 -66.301492 0.000630
v 21.596786 -66.301492 0.043220
v 20.999999 -66.301492 -1.829062
v 21.295309 -66.301492 0.168096
v 21.036427 -66.301492 0.366745
v 20.837779 -66.301492 0.625629
v 20.712903 -66.301492 0.927105
v 20.670310 -66.301492 1.250630
v 20.712903 -66.301492 1.574152
v 20.837779 -66.301492 1.875629
v -8.292593 -66.301492 23.494462
v -8.250000 -66.301492 23.170938
v -8.292593 -66.301492 22.847415
v -8.417468 -66.301492 22.545938
v -8.616117 -66.301492 22.287055
v -8.875000 -66.301492 22.088407
v -9.176476 -66.301492 21.963531
v -9.500000 -66.301492 21.920938
v -9.823523 -66.301492 21.963531
v -10.125001 -66.301492 22.088407
f 1 2 3
f 1 4 2
f 2 4 5
f 4 6 5
f 5 6 7
f 6 8 7
f 7 8 9
f 8 10 9
f 9 10 11
f 10 12 11
f 11 12 13
f 12 14 13
f 15 16 17
f 15 17 18
f 15 19 16
f 16 119 120
f 16 120 121
f 16 121 122
f 16 94 93
f 16 122 94
f 16 19 119
f 17 37 18
f 17 49 50
f 17 163 164
f 17 164 49
f 17 50 37
f 17 61 163
f 18 37 36
f 19 118 119
f 20 21 22
f 20 22 116
f 20 117 118
f 20 116 117
f 21 160 22
f 22 23 24
f 22 25 26
f 22 106 110
f 22 110 111
f 22 111 112
f 22 112 113
f 22 113 114
f 22 114 115
f 22 115 116
f 22 160 23
f 22 24 161
f 22 161 25
f 22 26 162
f 22 162 155
f 22 155 29
f 22 46 106
f 27 28 29
f 27 29 156
f 28 157 29
f 29 30 31
f 29 32 33
f 29 33 35
f 29 51 52
f 29 53 54
f 29 35 154
f 29 154 51
f 29 155 156
f 29 157 30
f 29 31 158
f 29 158 32
f 29 52 159
f 29 159 53
f 29 54 56
f 29 56 64
f 33 34 35
f 33 36 34
f 34 36 37
f 38 39 40
f 38 40 229
f 39 188 40
f 40 46 148
f 40 106 46
f 40 148 229
f 40 188 187
f 41 42 43
f 41 43 176
f 42 135 43
f 43 136 137
f 43 175 176
f 43 135 136
f 43 137 66
f 43 177 175
f 44 45 46
f 44 46 149
f 45 47 46
f 46 47 48
f 46 64 123
f 46 123 125
f 46 125 126
f 46 127 128
f 46 129 130
f 46 131 133
f 46 48 148
f 46 133 149
f 46 126 150
f 46 150 127
f 46 128 151
f 46 151 129
f 46 130 131
f 54 55 56
f 55 174 56
f 56 57 58
f 56 86 64
f 56 174 57
f 56 58 172
f 58 173 172
f 59 60 61
f 59 165 166
f 59 61 165
f 60 163 61
f 62 63 64
f 62 64 152
f 63 153 64
f 64 90 91
f 64 124 123
f 64 139 141
f 64 141 142
f 64 142 143
f 64 143 144
f 64 144 145
f 64 145 146
f 64 146 147
f 64 147 124
f 64 86 90
f 64 91 152
f 64 153 140
f 64 140 139
f 65 66 67
f 65 67 68
f 65 69 66
f 65 68 138
f 66 69 70
f 66 70 71
f 66 72 73
f 66 71 72
f 66 137 67
f 68 139 138
f 72 74 73
f 73 75 76
f 73 74 75
f 75 77 76
f 76 77 78
f 77 79 78
f 78 80 81
f 78 79 80
f 80 82 81
f 81 82 83
f 82 84 83
f 83 85 86
f 83 84 85
f 85 87 86
f 86 87 88
f 86 88 89
f 86 89 90
f 92 93 94
f 92 95 93
f 93 95 96
f 95 97 96
f 96 97 98
f 97 99 98
f 98 100 101
f 98 99 100
f 100 102 101
f 101 102 103
f 102 104 103
f 103 105 106
f 103 104 105
f 105 107 106
f 106 107 108
f 106 108 109
f 106 109 110
f 117 119 118
f 131 132 133
f 131 134 132
f 132 134 135
f 134 136 135
f 138 139 140
f 165 167 166
f 166 167 169
f 167 168 169
f 167 170 168
f 168 170 171
f 170 172 171
f 171 172 173
f 175 177 179
f 177 178 179
f 177 180 178
f 178 180 181
f 180 182 181
f 181 182 184
f 182 183 184
f 182 185 183
f 183 185 186
f 185 187 186
f 186 187 189
f 187 188 189
f 190 191 192
f 190 193 191
f 191 193 194
f 193 195 194
f 194 195 196
f 195 197 196
f 196 197 198
f 197 199 198
f 198 199 200
f 199 201 200
f 200 201 202
f 201 248 202
f 203 204 205
f 203 206 204
f 204 206 207
f 206 208 207
f 207 208 209
f 208 210 209
f 209 210 211
f 210 212 211
f 211 212 213
f 212 214 213
f 213 214 215
f 214 253 215
f 216 217 218
f 216 558 217
f 219 220 221
f 219 559 220
f 222 223 224
f 222 560 223
f 225 226 227
f 226 228 227
f 230 231 232
f 231 233 232
f 232 233 234
f 233 235 234
f 234 235 236
f 235 237 236
f 236 237 238
f 237 239 238
f 238 239 240
f 239 241 240
f 240 241 242
f 241 243 242
f 244 245 246
f 245 247 246
f 249 250 251
f 250 252 251
f 254 255 256
f 255 257 256
f 258 259 260
f 258 261 259
f 258 307 261
f 259 262 260
f 261 307 306
f 263 264 265
f 264 266 265
f 265 266 267
f 266 268 267
f 267 268 269
f 268 270 269
f 269 270 271
f 270 272 271
f 271 272 273
f 272 274 273
f 273 274 275
f 274 276 275
f 275 276 277
f 276 278 277
f 277 278 279
f 278 280 279
f 279 280 281
f 280 282 281
f 281 282 283
f 282 284 283
f 283 284 285
f 284 286 285
f 285 286 287
f 286 288 287
f 287 288 289
f 288 290 289
f 289 290 291
f 290 292 291
f 291 292 293
f 292 294 293
f 293 294 295
f 294 296 295
f 295 296 297
f 296 298 297
f 297 298 299
f 298 300 299
f 299 300 301
f 300 302 301
f 301 302 303
f 302 304 303
f 303 304 305
f 304 306 305
f 305 306 307
f 308 309 310
f 308 311 309
f 308 357 311
f 309 312 310
f 311 357 356
f 313 314 315
f 314 316 315
f 315 316 317
f 316 318 317
f 317 318 319
f 318 320 319
f 319 320 321
f 320 322 321
f 321 322 323
f 322 324 323
f 323 324 325
f 324 326 325
f 325 326 327
f 326 328 327
f 327 328 329
f 328 330 329
f 329 330 331
f 330 332 331
f 331 332 333
f 332 334 333
f 333 334 335
f 334 336 335
f 335 336 337
f 336 338 337
f 337 338 339
f 338 340 339
f 339 340 341
f 340 342 341
f 341 342 343
f 342 344 343
f 343 344 345
f 344 346 345
f 345 346 347
f 346 348 347
f 347 348 349
f 348 350 349
f 349 350 351
f 350 352 351
f 351 352 353
f 352 354 353
f 353 354 355
f 354 356 355
f 355 356 357
f 358 359 360
f 358 361 359
f 358 407 361
f 359 362 360
f 361 407 406
f 363 364 365
f 364 366 365
f 365 366 367
f 366 368 367
f 367 368 369
f 368 370 369
f 369 370 371
f 370 372 371
f 371 372 373
f 372 374 373
f 373 374 375
f 374 376 375
f 375 376 377
f 376 378 377
f 377 378 379
f 378 380 379
f 379 380 381
f 380 382 381
f 381 382 383
f 382 384 383
f 383 384 385
f 384 386 385
f 385 386 387
f 386 388 387
f 387 388 389
f 388 390 389
f 389 390 391
f 390 392 391
f 391 392 393
f 392 394 393
f 393 394 395
f 394 396 395
f 395 396 397
f 396 398 397
f 397 398 399
f 398 400 399
f 399 400 401
f 400 402 401
f 401 402 403
f 402 404 403
f 403 404 405
f 404 406 405
f 405 406 407
f 408 409 410
f 408 411 409
f 408 457 411
f 409 412 410
f 411 457 456
f 413 414 415
f 414 416 415
f 415 416 417
f 416 418 417
f 417 418 419
f 418 420 419
f 419 420 421
f 420 422 421
f 421 422 423
f 422 424 423
f 423 424 425
f 424 426 425
f 425 426 427
f 426 428 427
f 427 428 429
f 428 430 429
f 429 430 431
f 430 432 431
f 431 432 433
f 432 434 433
f 433 434 435
f 434 436 435
f 435 436 437
f 436 438 437
f 437 438 439
f 438 440 439
f 439 440 441
f 440 442 441
f 441 442 443
f 442 444 443
f 443 444 445
f 444 446 445
f 445 446 447
f 446 448 447
f 447 448 449
f 448 450 449
f 449 450 451
f 450 452 451
f 451 452 453
f 452 454 453
f 453 454 455
f 454 456 455
f 455 456 457
f 458 459 460
f 458 461 459
f 458 507 461
f 459 462 460
f 461 507 506
f 463 464 465
f 464 466 465
f 465 466 467
f 466 468 467
f 467 468 469
f 468 470 469
f 469 470 471
f 470 472 471
f 471 472 473
f 472 474 473
f 473 474 475
f 474 476 475
f 475 476 477
f 476 478 477
f 477 478 479
f 478 480 479
f 479 480 481
f 480 482 481
f 481 482 483
f 482 484 483
f 483 484 485
f 484 486 485
f 485 486 487
f 486 488 487
f 487 488 489
f 488 490 489
f 489 490 491
f 490 492 491
f 491 492 493
f 492 494 493
f 493 494 495
f 494 496 495
f 495 496 497
f 496 498 497
f 497 498 499
f 498 500 499
f 499 500 501
f 500 502 501
f 501 502 503
f 502 504 503
f 503 504 505
f 504 506 505
f 505 506 507
f 508 509 510
f 508 511 509
f 508 557 511
f 509 512 510
f 511 557 556
f 513 514 515
f 514 516 515
f 515 516 517
f 516 518 517
f 517 518 519
f 518 520 519
f 519 520 521
f 520 522 521
f 521 522 523
f 522 524 523
f 523 524 525
f 524 526 525
f 525 526 527
f 526 528 527
f 527 528 529
f 528 530 529
f 529 530 531
f 530 532 531
f 531 532 533
f 532 534 533
f 533 534 535
f 534 536 535
f 535 536 537
f 536 538 537
f 537 538 539
f 538 540 539
f 539 540 541
f 540 542 541
f 541 542 543
f 542 544 543
f 543 544 545
f 544 546 545
f 545 546 547
f 546 548 547
f 547 548 549
f 548 550 549
f 549 550 551
f 550 552 551
f 551 552 553
f 552 554 553
f 553 554 555
f 554 556 555
f 555 556 557
f 561 562 563
f 562 564 563
f 565 566 567
f 565 568 569
f 565 569 566
f 565 577 568
f 566 570 567
f 567 570 571
f 567 572 573
f 567 573 574
f 567 575 576
f 567 571 575
f 567 576 572
f 568 577 578
f 572 576 609
f 573 610 574
f 574 610 611
f 574 640 638
f 574 641 640
f 574 642 641
f 574 643 642
f 574 611 643
f 576 608 609
f 577 579 578
f 578 579 580
f 579 581 580
f 579 582 581
f 581 582 583
f 582 584 583
f 583 584 585
f 584 586 585
f 584 587 586
f 586 587 588
f 587 589 588
f 587 590 589
f 587 591 590
f 587 592 591
f 587 594 592
f 587 644 594
f 591 592 593
f 592 595 596
f 592 596 597
f 592 598 599
f 592 599 600
f 592 601 602
f 592 603 593
f 592 604 603
f 592 605 604
f 592 606 605
f 592 607 606
f 592 602 607
f 592 732 731
f 592 731 595
f 592 616 732
f 592 597 598
f 592 600 601
f 594 644 645
f 594 646 647
f 594 647 648
f 594 649 650
f 594 650 651
f 594 651 652
f 594 653 654
f 594 654 655
f 594 656 657
f 594 657 658
f 594 659 660
f 594 660 661
f 594 661 662
f 594 645 646
f 594 648 649
f 594 652 653
f 594 655 656
f 594 658 659
f 602 608 607
f 602 609 608
f 610 612 611
f 611 612 613
f 612 614 613
f 613 614 615
f 614 616 615
f 614 740 616
f 615 616 617
f 616 618 617
f 616 619 618
f 616 620 619
f 616 621 620
f 616 622 621
f 616 623 622
f 616 662 623
f 616 733 732
f 616 734 733
f 616 735 734
f 616 736 735
f 616 737 736
f 616 738 737
f 616 739 738
f 616 740 739
f 622 623 624
f 623 625 624
f 623 626 625
f 623 627 626
f 623 628 627
f 623 662 723
f 627 628 629
f 628 630 629
f 628 631 630
f 630 631 632
f 631 633 632
f 632 633 634
f 633 635 634
f 633 636 635
f 635 636 637
f 636 638 637
f 637 638 639
f 638 640 639
f 644 663 645
f 644 664 663
f 644 665 664
f 644 666 665
f 644 667 666
f 651 688 652
f 652 688 686
f 661 702 662
f 662 698 699
f 662 699 700
f 662 700 701
f 662 702 703
f 662 704 705
f 662 705 706
f 662 707 708
f 662 708 709
f 662 727 723
f 662 728 727
f 662 729 728
f 662 730 729
f 662 701 730
f 662 703 704
f 662 706 707
f 662 709 698
f 666 667 668
f 667 669 668
f 667 670 669
f 669 670 671
f 670 672 671
f 671 672 673
f 672 674 673
f 672 675 674
f 674 675 676
f 675 677 676
f 676 677 678
f 677 679 678
f 677 680 679
f 679 680 681
f 680 682 681
f 680 683 682
f 680 684 683
f 680 685 684
f 680 687 685
f 680 689 687
f 684 685 686
f 684 686 688
f 687 689 690
f 689 691 692
f 689 692 693
f 689 694 695
f 689 695 690
f 689 710 691
f 689 693 694
f 690 695 696
f 691 710 712
f 695 697 696
f 696 697 698
f 697 699 698
f 710 711 712
f 710 713 711
f 711 713 714
f 713 715 714
f 714 715 716
f 715 717 716
f 715 718 717
f 717 718 719
f 718 720 719
f 719 720 721
f 720 722 721
f 720 723 722
f 722 723 724
f 723 725 724
f 723 726 725
f 723 727 726