# Part26
# Autodesk dbId: 13
# Units: mm
o 013_Part26
v -12.310001 1.798461 -74.575996
v -9.510001 2.093534 -74.227229
v -9.510001 1.798461 -74.575997
v -12.310001 2.093533 -74.227228
v -9.510001 2.468818 -73.966717
v -12.310001 2.468817 -73.966716
v -9.510001 2.898738 -73.812215
v -12.310001 2.898737 -73.812215
v -9.510001 3.354001 -73.774244
v -12.310001 3.354000 -73.774243
v -9.510001 3.803573 -73.855404
v -12.310001 3.803573 -73.855404
v -9.510002 4.216827 -74.050151
v -12.310001 4.216826 -74.050150
v -9.510002 4.565590 -74.345225
v -12.310001 4.565590 -74.345224
v -9.510002 4.826105 -74.720504
v -12.310001 4.826104 -74.720503
v -9.510002 4.980607 -75.150429
v -12.310002 4.980606 -75.150429
v -9.510002 5.018577 -75.605687
v -12.310002 5.018576 -75.605687
v -9.510002 4.937420 -76.055263
v -12.310002 4.937420 -76.055263
v -9.510002 4.742670 -76.468517
v -12.310002 4.742669 -76.468516
v -9.510002 4.447599 -76.817281
v -12.310002 4.447599 -76.817281
v -9.510002 4.072316 -77.077793
v -12.310002 4.072315 -77.077793
v -9.510002 3.642396 -77.232295
v -12.310002 3.642395 -77.232295
v -9.510002 3.187132 -77.270267
v -12.310002 3.187132 -77.270266
v -9.510002 2.737558 -77.189109
v -12.310001 2.737557 -77.189108
v -9.510002 2.324304 -76.994362
v -12.310001 2.324304 -76.994362
v -9.510001 1.975541 -76.699289
v -12.310001 1.975540 -76.699288
v -9.510001 1.715028 -76.324006
v -12.310001 1.715027 -76.324006
v -9.510001 1.560526 -75.894081
v -12.310001 1.560525 -75.894081
v -9.510001 1.522556 -75.438823
v -12.310001 1.522556 -75.438822
v -9.510001 1.603713 -74.989247
v -12.310001 1.603712 -74.989247
v -9.510001 1.798461 -74.575997
v -12.310000 45.056066 -7.279803
v -9.510000 45.351137 -6.931039
v -9.510000 45.056067 -7.279804
v -12.310000 45.351137 -6.931039
v -9.510000 45.726421 -6.670527
v -12.310000 45.726420 -6.670527
v -9.510000 46.156343 -6.516022
v -12.310000 46.156342 -6.516022
v -9.510000 46.611603 -6.478055
v -12.310000 46.611603 -6.478055
v -9.510001 47.061180 -6.559210
v -12.310000 47.061179 -6.559210
v -9.510001 47.474430 -6.753961
v -12.310000 47.474430 -6.753961
v -9.510001 47.823197 -7.049030
v -12.310001 47.823196 -7.049030
v -9.510001 48.083708 -7.424316
v -12.310001 48.083707 -7.424315
v -9.510001 48.238213 -7.854236
v -12.310001 48.238212 -7.854236
v -9.510001 48.276180 -8.309498
v -12.310001 48.276180 -8.309497
v -9.510001 48.195024 -8.759073
v -12.310001 48.195023 -8.759073
v -9.510001 48.000275 -9.172324
v -12.310001 48.000274 -9.172324
v -9.510001 47.705204 -9.521090
v -12.310001 47.705203 -9.521090
v -9.510001 47.329920 -9.781602
v -12.310001 47.329919 -9.781602
v -9.510001 46.899998 -9.936107
v -12.310001 46.899997 -9.936106
v -9.510001 46.444738 -9.974074
v -12.310001 46.444737 -9.974073
v -9.510001 45.995161 -9.892919
v -12.310001 45.995161 -9.892919
v -9.510001 45.581911 -9.698168
v -12.310000 45.581910 -9.698168
v -9.510001 45.233144 -9.403099
v -12.310000 45.233144 -9.403099
v -9.510000 44.972634 -9.027814
v -12.310000 44.972633 -9.027813
v -9.510000 44.818129 -8.597893
v -12.310000 44.818128 -8.597893
v -9.510000 44.780161 -8.142631
v -12.310000 44.780160 -8.142631
v -9.510000 44.861317 -7.693056
v -12.310000 44.861317 -7.693056
v -9.510000 45.056067 -7.279804
v -12.310000 63.981268 22.162280
v -9.510000 64.276339 22.511045
v -9.510000 63.981269 22.162280
v -12.310000 64.276339 22.511045
v -9.510000 64.651623 22.771557
v -12.310000 64.651622 22.771557
v -9.510000 65.081543 22.926058
v -12.310000 65.081542 22.926059
v -9.510000 65.536806 22.964030
v -12.310000 65.536806 22.964030
v -9.510000 65.986381 22.882872
v -12.310000 65.986380 22.882873
v -9.510000 66.399634 22.688126
v -12.310000 66.399634 22.688126
v -9.510000 66.748398 22.393052
v -12.310000 66.748397 22.393052
v -9.510001 67.008911 22.017770
v -12.310000 67.008910 22.017770
v -9.510001 67.163413 21.587844
v -12.310000 67.163412 21.587845
v -9.510001 67.201382 21.132586
v -12.310001 67.201382 21.132586
v -9.510001 67.120226 20.683010
v -12.310001 67.120225 20.683011
v -9.510001 66.925477 20.269760
v -12.310001 66.925476 20.269760
v -9.510001 66.630405 19.920992
v -12.310001 66.630404 19.920993
v -9.510001 66.255121 19.660480
v -12.310001 66.255120 19.660481
v -9.510001 65.825201 19.505978
v -12.310000 65.825200 19.505979
v -9.510001 65.369938 19.468007
v -12.310000 65.369937 19.468007
v -9.510001 64.920365 19.549168
v -12.310000 64.920365 19.549168
v -9.510000 64.507112 19.743914
v -12.310000 64.507111 19.743914
v -9.510000 64.158348 20.038988
v -12.310000 64.158348 20.038988
v -9.510000 63.897834 20.414267
v -12.310000 63.897833 20.414267
v -9.510000 63.743332 20.844192
v -12.310000 63.743331 20.844193
v -9.510000 63.705362 21.299451
v -12.310000 63.705361 21.299451
v -9.510000 63.786518 21.749026
v -12.310000 63.786518 21.749027
v -9.510000 63.981269 22.162280
v -9.510000 40.745188 -9.825155
v -12.310000 -0.094245 -73.359376
v -9.510000 -0.094244 -73.359376
v -12.309999 40.745187 -9.825155
v -12.310002 47.474806 -14.150916
v -9.510003 6.635375 -77.685137
v -12.310002 6.635375 -77.685137
v -9.510002 47.474807 -14.150916
v -9.510002 52.311154 -6.626974
v -12.310001 68.818182 19.053140
v -9.510002 68.818183 19.053140
v -12.310002 52.311153 -6.626973
v -12.309999 45.581534 -2.301213
v -12.309999 63.620801 24.771533
v -12.309999 64.603479 25.124685
v -12.310000 63.786518 21.749027
v -12.309999 40.530776 -8.402861
v -12.309999 44.198625 -2.696761
v -12.309999 62.088563 23.378901
v -12.309999 62.763009 24.176077
v -12.310001 69.362038 22.065911
v -12.310001 69.448822 21.025314
v -12.310002 52.311153 -6.626973
v -12.310002 50.106745 -13.042057
v -12.310002 52.395308 -9.481722
v -12.310002 51.927872 -10.842016
v -12.310002 51.150119 -12.051973
v -12.310002 48.857714 -13.755369
v -12.310002 52.525562 -8.049269
v -12.310002 5.103136 -79.077769
v -12.310002 4.937420 -76.055263
v -12.310002 6.635375 -77.685137
v -12.310002 5.960928 -78.482313
v -12.310002 4.120459 -79.430921
v -12.310002 4.742669 -76.468516
v -12.310002 3.079860 -79.517708
v -12.310002 4.072315 -77.077793
v -12.310002 4.447599 -76.817281
v -12.310002 2.052260 -79.332207
v -12.310001 2.737557 -77.189108
v -12.310002 3.187132 -77.270266
v -12.310002 3.642395 -77.232295
v -12.310001 1.107685 -78.887066
v -12.310001 1.975540 -76.699288
v -12.310001 2.324304 -76.994362
v -12.310001 0.310507 -78.212617
v -12.310001 1.522556 -75.438822
v -12.310001 1.560525 -75.894081
v -12.310001 1.715027 -76.324006
v -12.310001 -0.284949 -77.354827
v -12.309999 41.906221 -4.400156
v -12.309999 40.661032 -6.970406
v -12.309999 41.128468 -5.610112
v -12.309999 42.949594 -3.410071
v -9.509999 45.581534 -2.301213
v -9.509999 62.088563 23.378900
v -12.309999 45.581534 -2.301213
v -9.509999 40.661032 -6.970407
v -9.509999 42.949595 -3.410072
v -9.509999 41.906221 -4.400156
v -9.509999 41.128468 -5.610113
v -9.509999 40.530777 -8.402862
v -9.509999 44.198626 -2.696761
v -9.510002 51.927873 -10.842016
v -9.510002 50.106746 -13.042058
v -9.510003 51.150120 -12.051973
v -9.510002 52.395309 -9.481723
v -9.510002 52.525563 -8.049269
v -9.510002 48.857715 -13.755370
v -12.310001 1.798461 -74.575996
v -12.310000 45.056066 -7.279803
v -12.310000 63.981268 22.162280
v -12.310001 1.603712 -74.989247
v -12.310001 1.798461 -74.575996
v -12.310000 -0.638101 -76.372146
v -12.310001 2.093533 -74.227228
v -12.310000 -0.724885 -75.331550
v -12.310000 -0.094245 -73.359376
v -12.310000 -0.539385 -74.303949
v -12.310002 47.474806 -14.150916
v -12.310002 5.018576 -75.605687
v -12.310001 47.329919 -9.781602
v -12.310001 47.705203 -9.521090
v -12.310001 48.000274 -9.172324
v -12.310002 4.980606 -75.150429
v -12.310001 46.899997 -9.936106
v -12.310001 4.826104 -74.720503
v -12.310001 46.444737 -9.974073
v -12.310001 4.565590 -74.345224
v -12.310001 45.995161 -9.892919
v -12.310001 4.216826 -74.050150
v -12.310000 45.581910 -9.698168
v -12.310001 3.803573 -73.855404
v -12.310000 45.233144 -9.403099
v -12.310001 3.354000 -73.774243
v -12.310000 44.972633 -9.027813
v -12.310001 2.898737 -73.812215
v -12.310000 44.818128 -8.597893
v -12.310001 2.468817 -73.966716
v -12.310000 44.780160 -8.142631
v -12.309999 40.745187 -9.825155
v -12.310000 44.861317 -7.693056
v -12.310000 45.056066 -7.279803
v -12.310000 45.351137 -6.931039
v -12.310000 63.705361 21.299451
v -12.310000 63.981268 22.162280
v -12.310000 45.726420 -6.670527
v -12.310001 48.195023 -8.759073
v -12.310001 66.630404 19.920993
v -12.310001 68.818182 19.053140
v -12.310001 48.276180 -8.309497
v -12.310001 66.255120 19.660481
v -12.310001 48.238212 -7.854236
v -12.310000 65.825200 19.505979
v -12.310001 48.083707 -7.424315
v -12.310000 65.369937 19.468007
v -12.310001 47.823196 -7.049030
v -12.310000 64.920365 19.549168
v -12.310000 47.474430 -6.753961
v -12.310000 64.507111 19.743914
v -12.310000 47.061179 -6.559210
v -12.310000 64.158348 20.038988
v -12.310000 46.611603 -6.478055
v -12.310000 63.897833 20.414267
v -12.310000 46.156342 -6.516022
v -12.310000 63.743331 20.844193
v -12.309999 65.644077 25.211472
v -12.310000 64.276339 22.511045
v -12.310000 64.651622 22.771557
v -12.310000 66.671677 25.025971
v -12.310000 65.081542 22.926059
v -12.310000 65.536806 22.964030
v -12.310000 65.986380 22.882873
v -12.310000 67.616253 24.580830
v -12.310000 66.399634 22.688126
v -12.310000 66.748397 22.393052
v -12.310000 68.413431 23.906381
v -12.310000 67.008910 22.017770
v -12.310000 67.163412 21.587845
v -12.310001 67.201382 21.132586
v -12.310001 69.008887 23.048591
v -12.310001 67.120225 20.683011
v -12.310001 66.925476 20.269760
v -12.310001 69.263322 19.997713
v -12.309999 62.088563 23.378901
v -9.509999 62.088563 23.378900
v -12.309999 62.763009 24.176077
v -9.509999 62.763010 24.176077
v -12.309999 63.620801 24.771533
v -9.509999 63.620802 24.771532
v -12.309999 64.603479 25.124685
v -9.509999 64.603479 25.124685
v -12.309999 65.644077 25.211472
v -9.510000 65.644078 25.211471
v -12.310000 66.671677 25.025971
v -9.510000 66.671678 25.025970
v -12.310000 67.616253 24.580830
v -9.510000 67.616253 24.580829
v -12.310000 68.413431 23.906381
v -9.510001 68.413431 23.906381
v -12.310001 69.008887 23.048591
v -9.510001 69.008887 23.048591
v -12.310001 69.362038 22.065911
v -9.510001 69.362039 22.065910
v -12.310001 69.448822 21.025314
v -9.510001 69.448823 21.025314
v -12.310001 69.263322 19.997713
v -9.510002 69.263323 19.997713
v -12.310001 68.818182 19.053140
v -9.510002 68.818183 19.053140
v -12.310002 6.635375 -77.685137
v -9.510003 6.635375 -77.685137
v -12.310002 5.960928 -78.482313
v -9.510003 5.960929 -78.482314
v -12.310002 5.103136 -79.077769
v -9.510003 5.103137 -79.077769
v -12.310002 4.120459 -79.430921
v -9.510002 4.120459 -79.430922
v -12.310002 3.079860 -79.517708
v -9.510002 3.079861 -79.517708
v -12.310002 2.052260 -79.332207
v -9.510002 2.052261 -79.332207
v -12.310001 1.107685 -78.887066
v -9.510002 1.107685 -78.887066
v -12.310001 0.310507 -78.212617
v -9.510001 0.310507 -78.212618
v -12.310001 -0.284949 -77.354827
v -9.510001 -0.284949 -77.354828
v -12.310000 -0.638101 -76.372146
v -9.510001 -0.638100 -76.372147
v -12.310000 -0.724885 -75.331550
v -9.510001 -0.724884 -75.331551
v -12.310000 -0.539385 -74.303949
v -9.510000 -0.539384 -74.303950
v -12.310000 -0.094245 -73.359376
v -9.510000 -0.094244 -73.359376
v -12.309999 62.088563 23.378901
v -9.510001 2.093534 -74.227229
v -9.510001 -0.638100 -76.372147
v -9.510001 1.798461 -74.575997
v -9.510000 40.745188 -9.825155
v -9.510000 -0.094244 -73.359376
v -9.510001 -0.724884 -75.331551
v -9.510001 -0.284949 -77.354828
v -9.510001 1.603713 -74.989247
v -9.510001 1.522556 -75.438823
v -9.510001 0.310507 -78.212618
v -9.510001 1.560526 -75.894081
v -9.510001 1.715028 -76.324006
v -9.510001 1.975541 -76.699289
v -9.510002 1.107685 -78.887066
v -9.510002 2.324304 -76.994362
v -9.510002 2.737558 -77.189109
v -9.510002 2.052261 -79.332207
v -9.510002 3.187132 -77.270267
v -9.510002 3.642396 -77.232295
v -9.510002 4.072316 -77.077793
v -9.510002 3.079861 -79.517708
v -9.510002 4.447599 -76.817281
v -9.510002 4.742670 -76.468517
v -9.510002 4.120459 -79.430922
v -9.510002 4.937420 -76.055263
v -9.510003 5.103137 -79.077769
v -9.510003 6.635375 -77.685137
v -9.510003 5.960929 -78.482314
v -9.510001 2.468818 -73.966717
v -9.510000 44.780161 -8.142631
v -9.510000 -0.539384 -74.303950
v -9.510001 2.898738 -73.812215
v -9.510000 44.818129 -8.597893
v -9.510001 3.354001 -73.774244
v -9.510000 44.972634 -9.027814
v -9.510001 3.803573 -73.855404
v -9.510001 45.233144 -9.403099
v -9.510002 4.216827 -74.050151
v -9.510001 45.581911 -9.698168
v -9.510002 4.565590 -74.345225
v -9.510001 45.995161 -9.892919
v -9.510002 4.826105 -74.720504
v -9.510001 46.444738 -9.974074
v -9.510002 4.980607 -75.150429
v -9.510001 46.899998 -9.936107
v -9.510002 5.018577 -75.605687
v -9.510001 47.329920 -9.781602
v -9.510002 47.474807 -14.150916
v -9.510001 47.705204 -9.521090
v -9.510002 52.311154 -6.626974
v -9.510001 48.000275 -9.172324
v -9.510001 48.195024 -8.759073
v -9.510001 66.630405 19.920992
v -9.510001 66.255121 19.660480
v -9.510001 48.276180 -8.309498
v -9.510000 45.351137 -6.931039
v -9.509999 45.581534 -2.301213
v -9.510000 45.056067 -7.279804
v -9.510000 63.786518 21.749026
v -9.509999 63.620802 24.771532
v -9.509999 62.088563 23.378900
v -9.510000 44.861317 -7.693056
v -9.510000 45.726421 -6.670527
v -9.510000 63.705362 21.299451
v -9.509999 64.603479 25.124685
v -9.510000 46.156343 -6.516022
v -9.510000 63.743332 20.844192
v -9.510000 46.611603 -6.478055
v -9.510000 63.897834 20.414267
v -9.510001 47.061180 -6.559210
v -9.510000 64.158348 20.038988
v -9.510001 47.474430 -6.753961
v -9.510000 64.507112 19.743914
v -9.510001 47.823197 -7.049030
v -9.510001 64.920365 19.549168
v -9.510001 48.083708 -7.424316
v -9.510001 65.369938 19.468007
v -9.510001 48.238213 -7.854236
v -9.510001 65.825201 19.505978
v -9.510000 64.276339 22.511045
v -9.510000 65.644078 25.211471
v -9.510000 63.981269 22.162280
v -9.510000 64.651623 22.771557
v -9.510000 66.671678 25.025970
v -9.510000 65.081543 22.926058
v -9.510000 65.536806 22.964030
v -9.510000 65.986381 22.882872
v -9.510000 67.616253 24.580829
v -9.510000 66.399634 22.688126
v -9.510000 66.748398 22.393052
v -9.510001 68.413431 23.906381
v -9.510001 67.008911 22.017770
v -9.510001 67.163413 21.587844
v -9.510001 67.201382 21.132586
v -9.510001 69.008887 23.048591
v -9.510001 67.120226 20.683010
v -9.510001 66.925477 20.269760
v -9.510001 69.362039 22.065910
v -9.510001 69.448823 21.025314
v -9.510002 68.818183 19.053140
v -9.510002 69.263323 19.997713
v -9.509999 62.763010 24.176077
v -9.509999 45.581534 -2.301213
v -12.309999 45.581534 -2.301213
v -9.509999 44.198626 -2.696761
v -12.309999 44.198625 -2.696761
v -9.509999 42.949595 -3.410072
v -12.309999 42.949594 -3.410071
v -9.509999 41.906221 -4.400156
v -12.309999 41.906221 -4.400156
v -9.509999 41.128468 -5.610113
v -12.309999 41.128468 -5.610112
v -9.509999 40.661032 -6.970407
v -12.309999 40.661032 -6.970406
v -9.509999 40.530777 -8.402862
v -12.309999 40.530776 -8.402861
v -9.510000 40.745188 -9.825155
v -12.309999 40.745187 -9.825155
v -12.310002 52.311153 -6.626973
v -9.510002 52.311154 -6.626974
v -12.310002 52.525562 -8.049269
v -9.510002 52.525563 -8.049269
v -12.310002 52.395308 -9.481722
v -9.510002 52.395309 -9.481723
v -12.310002 51.927872 -10.842016
v -9.510002 51.927873 -10.842016
v -12.310002 51.150119 -12.051973
v -9.510003 51.150120 -12.051973
v -12.310002 50.106745 -13.042057
v -9.510002 50.106746 -13.042058
v -12.310002 48.857714 -13.755369
v -9.510002 48.857715 -13.755370
v -12.310002 47.474806 -14.150916
v -9.510002 47.474807 -14.150916
f 1 2 3
f 1 4 2
f 2 4 5
f 4 6 5
f 5 6 7
f 6 8 7
f 7 8 9
f 8 10 9
f 9 10 11
f 10 12 11
f 11 12 13
f 12 14 13
f 13 14 15
f 14 16 15
f 15 16 17
f 16 18 17
f 17 18 19
f 18 20 19
f 19 20 21
f 20 22 21
f 21 22 23
f 22 24 23
f 23 24 25
f 24 26 25
f 25 26 27
f 26 28 27
f 27 28 29
f 28 30 29
f 29 30 31
f 30 32 31
f 31 32 33
f 32 34 33
f 33 34 35
f 34 36 35
f 35 36 37
f 36 38 37
f 37 38 39
f 38 40 39
f 39 40 41
f 40 42 41
f 41 42 43
f 42 44 43
f 43 44 45
f 44 46 45
f 45 46 47
f 46 48 47
f 47 48 49
f 48 217 49
f 50 51 52
f 50 53 51
f 51 53 54
f 53 55 54
f 54 55 56
f 55 57 56
f 56 57 58
f 57 59 58
f 58 59 60
f 59 61 60
f 60 61 62
f 61 63 62
f 62 63 64
f 63 65 64
f 64 65 66
f 65 67 66
f 66 67 68
f 67 69 68
f 68 69 70
f 69 71 70
f 70 71 72
f 71 73 72
f 72 73 74
f 73 75 74
f 74 75 76
f 75 77 76
f 76 77 78
f 77 79 78
f 78 79 80
f 79 81 80
f 80 81 82
f 81 83 82
f 82 83 84
f 83 85 84
f 84 85 86
f 85 87 86
f 86 87 88
f 87 89 88
f 88 89 90
f 89 91 90
f 90 91 92
f 91 93 92
f 92 93 94
f 93 95 94
f 94 95 96
f 95 97 96
f 96 97 98
f 97 218 98
f 99 100 101
f 99 102 100
f 100 102 103
f 102 104 103
f 103 104 105
f 104 106 105
f 105 106 107
f 106 108 107
f 107 108 109
f 108 110 109
f 109 110 111
f 110 112 111
f 111 112 113
f 112 114 113
f 113 114 115
f 114 116 115
f 115 116 117
f 116 118 117
f 117 118 119
f 118 120 119
f 119 120 121
f 120 122 121
f 121 122 123
f 122 124 123
f 123 124 125
f 124 126 125
f 125 126 127
f 126 128 127
f 127 128 129
f 128 130 129
f 129 130 131
f 130 132 131
f 131 132 133
f 132 134 133
f 133 134 135
f 134 136 135
f 135 136 137
f 136 138 137
f 137 138 139
f 138 140 139
f 139 140 141
f 140 142 141
f 141 142 143
f 142 144 143
f 143 144 145
f 144 146 145
f 145 146 147
f 146 219 147
f 148 149 150
f 148 151 149
f 152 153 154
f 152 155 153
f 156 157 158
f 156 159 157
f 160 161 162
f 160 162 163
f 160 164 165
f 160 166 161
f 160 248 164
f 160 250 248
f 160 251 250
f 160 163 251
f 161 166 167
f 162 253 163
f 162 274 253
f 163 252 251
f 164 199 165
f 165 199 201
f 168 169 170
f 168 170 256
f 168 290 288
f 168 256 290
f 169 257 170
f 169 291 257
f 170 227 231
f 170 231 255
f 170 255 256
f 170 176 227
f 171 172 173
f 171 173 174
f 171 175 172
f 172 175 176
f 175 227 176
f 177 178 179
f 177 179 180
f 177 181 178
f 178 181 182
f 178 227 179
f 178 228 227
f 181 183 182
f 182 183 185
f 183 184 185
f 183 186 184
f 184 186 189
f 186 187 188
f 186 188 189
f 186 190 187
f 187 190 192
f 190 191 192
f 190 193 191
f 191 193 196
f 193 194 195
f 193 195 196
f 193 197 194
f 194 197 220
f 197 221 220
f 197 222 221
f 198 199 200
f 198 201 199
f 202 203 204
f 203 344 204
f 205 206 207
f 205 207 208
f 205 209 206
f 206 209 210
f 209 348 210
f 210 348 401
f 211 212 213
f 211 214 212
f 212 215 216
f 212 214 215
f 215 394 216
f 216 394 392
f 221 222 223
f 222 224 223
f 223 224 225
f 223 248 246
f 223 225 248
f 224 226 225
f 227 228 229
f 227 230 231
f 227 229 230
f 228 232 229
f 229 232 233
f 232 234 233
f 233 234 235
f 234 236 235
f 235 236 237
f 236 238 237
f 237 238 239
f 238 240 239
f 239 240 241
f 240 242 241
f 241 242 243
f 242 244 243
f 243 244 245
f 244 246 245
f 245 246 247
f 246 248 247
f 247 248 249
f 248 250 249
f 251 252 254
f 252 273 254
f 253 274 275
f 254 273 272
f 255 258 256
f 256 258 259
f 258 260 259
f 259 260 261
f 260 262 261
f 261 262 263
f 262 264 263
f 263 264 265
f 264 266 265
f 265 266 267
f 266 268 267
f 267 268 269
f 268 270 269
f 269 270 271
f 270 272 271
f 271 272 273
f 274 276 275
f 274 277 276
f 276 277 278
f 277 279 278
f 277 280 279
f 277 281 280
f 280 281 282
f 281 283 282
f 281 284 283
f 283 284 285
f 284 286 285
f 284 287 286
f 284 288 287
f 287 288 289
f 288 290 289
f 292 293 294
f 293 295 294
f 294 295 296
f 295 297 296
f 296 297 298
f 297 299 298
f 298 299 300
f 299 301 300
f 300 301 302
f 301 303 302
f 302 303 304
f 303 305 304
f 304 305 306
f 305 307 306
f 306 307 308
f 307 309 308
f 308 309 310
f 309 311 310
f 310 311 312
f 311 313 312
f 312 313 314
f 313 315 314
f 314 315 316
f 315 317 316
f 318 319 320
f 319 321 320
f 320 321 322
f 321 323 322
f 322 323 324
f 323 325 324
f 324 325 326
f 325 327 326
f 326 327 328
f 327 329 328
f 328 329 330
f 329 331 330
f 330 331 332
f 331 333 332
f 332 333 334
f 333 335 334
f 334 335 336
f 335 337 336
f 336 337 338
f 337 339 338
f 338 339 340
f 339 341 340
f 340 341 342
f 341 343 342
f 345 346 347
f 345 348 349
f 345 349 350
f 345 373 348
f 345 350 346
f 346 351 347
f 347 351 352
f 348 373 374
f 348 402 401
f 348 406 402
f 348 374 406
f 349 375 350
f 351 353 352
f 351 354 353
f 353 354 355
f 354 356 355
f 354 357 356
f 354 358 357
f 357 358 359
f 358 360 359
f 358 361 360
f 360 361 362
f 361 363 362
f 361 364 363
f 361 365 364
f 364 365 366
f 365 367 366
f 365 368 367
f 367 368 369
f 368 370 369
f 369 370 371
f 369 392 390
f 369 371 392
f 370 372 371
f 373 376 374
f 374 376 377
f 376 378 377
f 377 378 379
f 378 380 379
f 379 380 381
f 380 382 381
f 381 382 383
f 382 384 383
f 383 384 385
f 384 386 385
f 385 386 387
f 386 388 387
f 387 388 389
f 388 390 389
f 389 390 391
f 390 392 391
f 391 392 393
f 392 395 393
f 392 394 395
f 394 396 395
f 394 397 396
f 394 442 397
f 394 443 442
f 394 444 443
f 396 397 398
f 396 398 399
f 397 442 441
f 398 423 399
f 399 423 422
f 400 401 402
f 400 403 401
f 400 407 403
f 401 404 405
f 401 403 409
f 401 409 404
f 403 407 408
f 403 426 409
f 404 446 405
f 407 410 408
f 408 410 411
f 409 426 425
f 410 412 411
f 411 412 413
f 412 414 413
f 413 414 415
f 414 416 415
f 415 416 417
f 416 418 417
f 417 418 419
f 418 420 419
f 419 420 421
f 420 422 421
f 421 422 423
f 424 425 426
f 424 427 425
f 425 427 428
f 427 429 428
f 428 429 430
f 428 431 432
f 428 430 431
f 431 433 432
f 432 433 434
f 432 434 435
f 434 436 435
f 435 436 437
f 435 438 439
f 435 437 438
f 438 440 439
f 439 440 441
f 439 441 442
f 443 444 445
f 447 448 449
f 448 450 449
f 449 450 451
f 450 452 451
f 451 452 453
f 452 454 453
f 453 454 455
f 454 456 455
f 455 456 457
f 456 458 457
f 457 458 459
f 458 460 459
f 459 460 461
f 460 462 461
f 463 464 465
f 464 466 465
f 465 466 467
f 466 468 467
f 467 468 469
f 468 470 469
f 469 470 471
f 470 472 471
f 471 472 473
f 472 474 473
f 473 474 475
f 474 476 475
f 475 476 477
f 476 478 477