# ANSI B18.3.4M - M3 x 0.5 x 8(1)
# Autodesk dbId: 15
# Units: mm
o 015_ANSI_B18.3.4M_-_M3_x_0.5_x_8(1)
v 8.114359 -74.261492 22.370939
v 8.090043 -74.258084 22.471030
v 8.308400 -74.258084 22.142378
v 8.368629 -74.261492 22.039568
v 7.954518 -74.261491 22.756828
v 8.700000 -74.261492 24.556579
v 9.076688 -74.258085 24.687070
v 8.712941 -74.258085 24.534165
v 9.085889 -74.261492 24.716420
v 9.467034 -74.258085 24.744711
v 9.500000 -74.261492 24.770939
v 9.859451 -74.258085 24.703467
v 9.914110 -74.261492 24.716420
v 10.229282 -74.258085 24.565928
v 10.300000 -74.261492 24.556579
v 10.553290 -74.258085 24.340736
v 10.631371 -74.261492 24.302309
v 10.811116 -74.258085 24.042042
v 10.885640 -74.261493 23.970939
v 10.986560 -74.258085 23.688614
v 11.045481 -74.261493 23.585049
v 11.068597 -74.258085 23.302657
v 11.100000 -74.261492 23.170939
v 11.052074 -74.258085 22.908425
v 11.045481 -74.261492 22.756828
v 10.938028 -74.258085 22.530687
v 10.885640 -74.261492 22.370939
v 10.733626 -74.258085 22.193179
v 10.631370 -74.261492 22.039568
v 10.451710 -74.258085 21.917106
v 10.299999 -74.261492 21.785298
v 10.109995 -74.258085 21.719817
v 9.914110 -74.261492 21.625457
v 9.729951 -74.258085 21.613707
v 9.499999 -74.261492 21.570939
v 9.335459 -74.258085 21.605444
v 9.085889 -74.261492 21.625457
v 8.951306 -74.258084 21.695546
v 8.699999 -74.261492 21.785298
v 8.601629 -74.258084 21.878353
v 8.200961 -74.161492 22.420939
v 8.361927 -74.187373 22.188581
v 8.153380 -74.187373 22.502471
v 8.051111 -74.161492 22.782710
v 8.439339 -74.161492 22.110279
v 8.439340 -74.161492 24.231599
v 8.214039 -74.187374 23.949744
v 8.448121 -74.187374 24.245082
v 8.200962 -74.161492 23.920939
v 8.060758 -74.187373 23.605471
v 8.051111 -74.161492 23.559167
v 7.997911 -74.187373 23.233895
v 8.000000 -74.161492 23.170939
v 8.029445 -74.187373 22.858363
v 7.960280 -74.258084 22.843661
v 8.111646 -74.248094 22.481754
v 7.983871 -74.248094 22.848676
v 8.130197 -74.232203 22.490963
v 8.326657 -74.248094 22.158137
v 8.004129 -74.232203 22.852982
v 8.144432 -74.211492 22.498029
v 8.342335 -74.232202 22.171670
v 8.019673 -74.211492 22.856286
v 8.354365 -74.211492 22.182054
v 8.641984 -74.187374 21.936417
v 8.627213 -74.232203 21.915164
v 8.636283 -74.211492 21.928214
v 8.615393 -74.248095 21.898157
v 7.900000 -74.261492 23.170939
v 7.927262 -74.258084 23.236856
v 7.951359 -74.248094 23.235846
v 7.972052 -74.232202 23.234979
v 7.987930 -74.211492 23.234313
v 7.954518 -74.261492 23.585049
v 7.993066 -74.258085 23.625909
v 8.016154 -74.248094 23.618938
v 8.035981 -74.232203 23.612952
v 8.051195 -74.211492 23.608359
v 8.114359 -74.261492 23.970939
v 8.153555 -74.258085 23.986374
v 8.174185 -74.248095 23.973881
v 8.191900 -74.232203 23.963152
v 8.205494 -74.211492 23.954919
v 8.368629 -74.261492 24.302310
v 8.398647 -74.258085 24.295603
v 8.415522 -74.248095 24.278371
v 8.430012 -74.232203 24.263574
v 8.441131 -74.211492 24.252220
v 8.712941 -74.258085 24.534165
v 8.725000 -74.248095 24.513278
v 8.700000 -74.261492 24.556579
v 8.735355 -74.232203 24.495342
v 8.743301 -74.211492 24.481579
v 8.748296 -74.187374 24.472928
v 8.750000 -74.161492 24.469977
v 9.083174 -74.248095 24.663841
v 9.467539 -74.248095 24.720599
v 9.088744 -74.232203 24.643893
v 8.725000 -74.248095 24.513278
v 9.467973 -74.232203 24.699893
v 9.093017 -74.211492 24.628586
v 8.735355 -74.232203 24.495342
v 9.468306 -74.211492 24.684004
v 9.468515 -74.187374 24.674016
v 9.095704 -74.187374 24.618964
v 8.743301 -74.211492 24.481579
v 9.111771 -74.161492 24.619827
v 8.750000 -74.161492 24.469977
v 8.748296 -74.187374 24.472928
v 9.853944 -74.248095 24.679986
v 9.849214 -74.232203 24.659822
v 9.845585 -74.211492 24.644350
v 9.843304 -74.187374 24.634624
v 9.500000 -74.161492 24.670939
v 10.218109 -74.248095 24.544554
v 10.208513 -74.232203 24.526200
v 10.201151 -74.211493 24.512117
v 10.196522 -74.187374 24.503264
v 9.888228 -74.161493 24.619827
v 10.537152 -74.248095 24.322813
v 10.523294 -74.232203 24.307422
v 10.512660 -74.211492 24.295612
v 10.505976 -74.187374 24.288188
v 10.250000 -74.161493 24.469977
v 10.791028 -74.248095 24.028696
v 10.773777 -74.232204 24.017234
v 10.760541 -74.211493 24.008440
v 10.752220 -74.187374 24.002912
v 10.560660 -74.161493 24.231599
v 10.963783 -74.248095 23.680682
v 10.944224 -74.232203 23.673871
v 10.929217 -74.211493 23.668645
v 10.919782 -74.187374 23.665359
v 10.799038 -74.161493 23.920939
v 11.044564 -74.248095 23.300639
v 11.023926 -74.232203 23.298906
v 11.008089 -74.211493 23.297576
v 10.998134 -74.187374 23.296741
v 10.948888 -74.161493 23.559167
v 11.028293 -74.248095 22.912447
v 11.007873 -74.232203 22.915901
v 10.992203 -74.211492 22.918551
v 10.982353 -74.187374 22.920217
v 11.000000 -74.161492 23.170939
v 10.915995 -74.248095 22.540497
v 10.897075 -74.232203 22.548921
v 10.882557 -74.211492 22.555384
v 10.873431 -74.187374 22.559448
v 10.948888 -74.161492 22.782710
v 10.714724 -74.248095 22.208160
v 10.698494 -74.232203 22.221024
v 10.686039 -74.211492 22.230895
v 10.678210 -74.187374 22.237100
v 10.799038 -74.161492 22.420939
v 10.437128 -74.248095 21.936317
v 10.424606 -74.232203 21.952814
v 10.414998 -74.211492 21.965472
v 10.408958 -74.187374 21.973430
v 10.560660 -74.161492 22.110278
v 10.100649 -74.248095 21.742051
v 10.092623 -74.232203 21.761143
v 10.086465 -74.211492 21.775793
v 10.082593 -74.187374 21.785003
v 10.250000 -74.161492 21.871900
v 9.726428 -74.248094 21.637567
v 9.723403 -74.232203 21.658055
v 9.721081 -74.211492 21.673776
v 9.719622 -74.187374 21.683659
v 9.888228 -74.161492 21.722050
v 9.337980 -74.248094 21.629430
v 9.340145 -74.232203 21.650027
v 9.341806 -74.211492 21.665832
v 9.342851 -74.187374 21.675767
v 9.499999 -74.161492 21.670939
v 8.959713 -74.248094 21.718152
v 8.966932 -74.232203 21.737563
v 8.972471 -74.211492 21.752459
v 8.975954 -74.187373 21.761822
v 9.111771 -74.161492 21.722050
v 8.750000 -74.161492 21.871901
v 8.200964 -64.568217 22.420940
v 8.439339 -74.161492 22.110279
v 8.200961 -74.161492 22.420939
v 8.051113 -64.568217 22.782712
v 8.439342 -64.568216 22.110280
v 8.750000 -74.161492 21.871901
v 8.750002 -64.568217 21.871902
v 9.111771 -74.161492 21.722050
v 9.111773 -64.568217 21.722052
v 9.499999 -74.161492 21.670939
v 9.500002 -64.568217 21.670940
v 9.888228 -74.161492 21.722050
v 9.888231 -64.568217 21.722052
v 10.250000 -74.161492 21.871900
v 10.250002 -64.568217 21.871902
v 10.560660 -74.161492 22.110278
v 10.560662 -64.568218 22.110280
v 10.799038 -74.161492 22.420939
v 10.799040 -64.568218 22.420940
v 10.948888 -74.161492 22.782710
v 10.948891 -64.568217 22.782712
v 11.000000 -74.161492 23.170939
v 11.000002 -64.568218 23.170940
v 10.948888 -74.161493 23.559167
v 10.948891 -64.568217 23.559169
v 10.799038 -74.161493 23.920939
v 10.799040 -64.568218 23.920940
v 10.560660 -74.161493 24.231599
v 10.799038 -74.161493 23.920939
v 10.560662 -64.568218 24.231600
v 10.250000 -74.161493 24.469977
v 10.250002 -64.568217 24.469978
v 9.888228 -74.161493 24.619827
v 9.888231 -64.568217 24.619829
v 9.500000 -74.161492 24.670939
v 9.500002 -64.568217 24.670940
v 9.111771 -74.161492 24.619827
v 9.111774 -64.568218 24.619829
v 8.750000 -74.161492 24.469977
v 8.750002 -64.568217 24.469979
v 8.439340 -74.161492 24.231599
v 8.439342 -64.568217 24.231601
v 8.200962 -74.161492 23.920939
v 8.200964 -64.568217 23.920940
v 8.051111 -74.161492 23.559167
v 8.051113 -64.568216 23.559169
v 8.000000 -74.161492 23.170939
v 8.000002 -64.568217 23.170941
v 8.051111 -74.161492 22.782710
v 7.357256 -74.261491 21.291803
v 7.031827 -74.261491 21.745939
v 8.114359 -74.261492 22.370939
v 8.131679 -75.911491 22.380938
v 7.692593 -75.868217 22.557407
v 7.847016 -75.868217 22.216588
v 8.064962 -75.868217 21.912445
v 7.973836 -75.911492 22.762004
v 7.973836 -75.911492 23.579873
v 8.131679 -75.911492 23.960938
v 7.788138 -75.868218 24.015135
v 8.382771 -75.911492 24.288167
v 7.985726 -75.868218 24.332882
v 8.709999 -75.911492 24.539259
v 8.241506 -75.868218 24.605975
v 9.908933 -75.911492 24.697101
v 10.289999 -75.911493 24.539258
v 10.344196 -75.868219 24.882800
v 10.617228 -75.911493 24.288167
v 10.661942 -75.868218 24.685212
v 10.868320 -75.911492 23.960938
v 10.935036 -75.868218 24.429432
v 11.026162 -75.911493 22.762004
v 10.868319 -75.911492 22.380938
v 11.211860 -75.868218 22.326742
v 10.617228 -75.911492 22.053710
v 11.014273 -75.868218 22.008995
v 10.289999 -75.911492 21.802618
v 10.758492 -75.868218 21.735902
v 9.091065 -75.911492 21.644776
v 8.709999 -75.911492 21.802618
v 8.655802 -75.868217 21.459077
v 8.382770 -75.911492 22.053710
v 8.338056 -75.868217 21.656665
v 7.357256 -74.641492 21.291803
v 7.791373 -74.970192 20.944213
v 7.389791 -74.970191 21.320336
v 7.765029 -74.641492 20.909882
v 8.258616 -74.970192 20.653663
v 8.239476 -74.641491 20.614851
v 8.773565 -74.970192 20.459850
v 8.762365 -74.641492 20.418050
v 9.316430 -74.970192 20.370222
v 9.313600 -74.641492 20.327041
v 9.866350 -74.970192 20.388225
v 9.871999 -74.641492 20.345321
v 10.402191 -74.970192 20.513166
v 10.416102 -74.641492 20.472188
v 10.903362 -74.970192 20.740243
v 10.924999 -74.641492 20.702766
v 11.350602 -74.970193 21.060731
v 11.379135 -74.641492 21.028195
v 11.726725 -74.970193 21.462312
v 11.761056 -74.641493 21.435968
v 12.017275 -74.970193 21.929555
v 12.056087 -74.641493 21.910416
v 12.211088 -74.970193 22.444504
v 12.252888 -74.641493 22.433304
v 12.300716 -74.970193 22.987370
v 12.343897 -74.641493 22.984540
v 12.282713 -74.970193 23.537290
v 12.325617 -74.641493 23.542938
v 12.157773 -74.970193 24.073131
v 12.198751 -74.641493 24.087041
v 11.930695 -74.970193 24.574301
v 11.968172 -74.641493 24.595938
v 11.610208 -74.970194 25.021541
v 11.642743 -74.641493 25.050074
v 11.208626 -74.970194 25.397664
v 11.234970 -74.641493 25.431996
v 10.741383 -74.970194 25.688214
v 10.760523 -74.641493 25.727026
v 10.226434 -74.970193 25.882027
v 10.237634 -74.641493 25.923827
v 9.683568 -74.970193 25.971655
v 9.686399 -74.641493 26.014837
v 9.133648 -74.970193 25.953652
v 9.128000 -74.641493 25.996556
v 8.597807 -74.970193 25.828712
v 8.583897 -74.641493 25.869690
v 8.075000 -74.641492 25.639111
v 8.096637 -74.970193 25.601634
v 7.620864 -74.641492 25.313682
v 7.238943 -74.641492 24.905909
v 7.273274 -74.970192 24.879565
v 6.943912 -74.641492 24.431462
v 6.982724 -74.970192 24.412322
v 6.747111 -74.641492 23.908573
v 6.788911 -74.970192 23.897373
v 6.656101 -74.641492 23.357338
v 6.699283 -74.970192 23.354507
v 6.674382 -74.641491 22.798939
v 6.717285 -74.970192 22.804587
v 6.801248 -74.641491 22.254836
v 6.842226 -74.970192 22.268746
v 7.031827 -74.641491 21.745939
v 7.069303 -74.970192 21.767576
v 8.096637 -74.970193 25.601634
v 8.075000 -74.641492 25.639111
v 7.649397 -74.970192 25.281147
v 7.733050 -75.276492 25.185758
v 7.607628 -75.868217 22.921803
v 7.402549 -75.741344 22.458950
v 7.153482 -75.539517 22.374403
v 7.581753 -75.741344 22.063439
v 6.962366 -75.276491 22.309528
v 7.353966 -75.539517 21.931926
v 7.179179 -75.276491 21.831013
v 7.919999 -75.911492 23.170938
v 7.595386 -75.868218 23.295773
v 7.303949 -75.741344 22.881823
v 7.043174 -75.539517 22.847491
v 6.843073 -75.276491 22.821148
v 7.656336 -75.868218 23.664946
v 7.289742 -75.741344 23.315806
v 7.027279 -75.539517 23.333009
v 6.825885 -75.276492 23.346209
v 7.742722 -75.741344 24.519345
v 7.513426 -75.741344 24.150608
v 7.534050 -75.539518 24.679465
v 7.277526 -75.539517 24.266941
v 7.360473 -75.741344 23.744223
v 7.096513 -75.276492 24.356207
v 7.106410 -75.539518 23.812299
v 6.911461 -75.276492 23.864535
v 8.039548 -75.741345 24.836264
v 7.866124 -75.539518 25.034017
v 7.373930 -75.276492 24.802329
v 8.545649 -75.868218 24.823921
v 8.392499 -75.741345 25.089185
v 8.260987 -75.539518 25.316971
v 8.160074 -75.276492 25.491759
v 8.886468 -75.868218 24.978344
v 8.709999 -75.911492 24.539259
v 9.091065 -75.911492 24.697101
v 9.250864 -75.868218 25.063309
v 8.788011 -75.741345 25.268389
v 8.545649 -75.868218 24.823921
v 9.210884 -75.741345 25.366989
v 9.176552 -75.539518 25.627764
v 8.703464 -75.539518 25.517455
v 9.150209 -75.276493 25.827864
v 8.638589 -75.276492 25.708571
v 9.499999 -75.911492 24.750938
v 9.624834 -75.868218 25.075552
v 9.644867 -75.741345 25.381196
v 9.662070 -75.539518 25.643658
v 9.675270 -75.276493 25.845053
v 9.994007 -75.868218 25.014601
v 10.073284 -75.741345 25.310464
v 10.141360 -75.539519 25.564527
v 10.193596 -75.276493 25.759477
v 10.848406 -75.741345 24.928216
v 10.479669 -75.741345 25.157511
v 11.008526 -75.539519 25.136888
v 10.596002 -75.539519 25.393412
v 10.685268 -75.276493 25.574425
v 11.131390 -75.276493 25.297008
v 11.165325 -75.741345 24.631389
v 11.363078 -75.539519 24.804814
v 11.514819 -75.276493 24.937888
v 11.152982 -75.868219 24.125288
v 11.418246 -75.741345 24.278438
v 11.646032 -75.539519 24.409951
v 11.820820 -75.276493 24.510864
v 11.307405 -75.868219 23.784470
v 11.026162 -75.911493 23.579872
v 11.392370 -75.868218 23.420074
v 11.696050 -75.741345 23.460054
v 11.597449 -75.741345 23.882927
v 11.956825 -75.539519 23.494386
v 11.846516 -75.539519 23.967474
v 12.156925 -75.276493 23.520729
v 12.037632 -75.276493 24.032349
v 11.079999 -75.911492 23.170938
v 11.404613 -75.868218 23.046103
v 11.710257 -75.741345 23.026070
v 11.972719 -75.539518 23.008868
v 12.174114 -75.276493 22.995668
v 11.343662 -75.868218 22.676930
v 11.639525 -75.741345 22.597654
v 11.893588 -75.539518 22.529578
v 12.088538 -75.276493 22.477341
v 11.257277 -75.741345 21.822532
v 11.486572 -75.741345 22.191269
v 11.465949 -75.539518 21.662412
v 11.903486 -75.276493 21.985670
v 11.722473 -75.539518 22.074936
v 11.626069 -75.276493 21.539548
v 10.960450 -75.741345 21.505613
v 11.133875 -75.539518 21.307860
v 11.266949 -75.276492 21.156119
v 10.454349 -75.868218 21.517955
v 10.607499 -75.741345 21.252692
v 10.739012 -75.539518 21.024905
v 10.839925 -75.276492 20.850118
v 10.113530 -75.868218 21.363533
v 9.908933 -75.911492 21.644776
v 9.749134 -75.868218 21.278567
v 9.789114 -75.741344 20.974888
v 10.211987 -75.741344 21.073488
v 9.823446 -75.539518 20.714113
v 10.296534 -75.539518 20.824421
v 9.849790 -75.276492 20.514013
v 10.361409 -75.276492 20.633306
v 9.499999 -75.911492 21.590938
v 9.375164 -75.868217 21.266325
v 9.355131 -75.741344 20.960681
v 9.337928 -75.539517 20.698219
v 9.324728 -75.276492 20.496824
v 9.005991 -75.868217 21.327276
v 8.926715 -75.741344 21.031413
v 8.858639 -75.539517 20.777350
v 8.806402 -75.276492 20.582400
v 8.151592 -75.741344 21.413661
v 8.520330 -75.741344 21.184365
v 7.991473 -75.539517 21.204989
v 8.314731 -75.276491 20.767452
v 8.403996 -75.539517 20.948465
v 7.868608 -75.276491 21.044869
v 7.834674 -75.741344 21.710488
v 7.636921 -75.539517 21.537063
v 7.485179 -75.276491 21.403989
v 8.922649 -75.911492 22.170938
v 8.131679 -75.911491 22.380938
v 8.382770 -75.911492 22.053710
v 8.709999 -75.911492 21.802618
v 9.499999 -75.911492 21.590938
v 10.077349 -75.911492 22.170938
v 9.091065 -75.911492 21.644776
v 8.345299 -75.911492 23.170938
v 8.131679 -75.911492 23.960938
v 7.973836 -75.911492 23.579873
v 7.919999 -75.911492 23.170938
v 7.973836 -75.911492 22.762004
v 8.922649 -75.911492 24.170938
v 9.499999 -75.911492 24.750938
v 9.091065 -75.911492 24.697101
v 8.709999 -75.911492 24.539259
v 8.382771 -75.911492 24.288167
v 10.077350 -75.911492 24.170938
v 10.868320 -75.911492 23.960938
v 10.617228 -75.911493 24.288167
v 10.289999 -75.911493 24.539258
v 9.908933 -75.911492 24.697101
v 10.654700 -75.911492 23.170938
v 10.868319 -75.911492 22.380938
v 11.026162 -75.911493 22.762004
v 11.079999 -75.911492 23.170938
v 11.026162 -75.911493 23.579872
v 9.908933 -75.911492 21.644776
v 10.289999 -75.911492 21.802618
v 10.617228 -75.911492 22.053710
v 10.654700 -74.871493 23.170939
v 10.502448 -74.803281 22.907231
v 10.654700 -75.911492 23.170938
v 10.077350 -74.871493 24.170938
v 10.229602 -74.803281 23.907231
v 10.077350 -75.911492 24.170938
v 10.799040 -64.568218 23.920940
v 6.801248 -74.261491 22.254836
v 7.954518 -74.261491 22.756828
v 6.674382 -74.261491 22.798939
v 7.900000 -74.261492 23.170939
v 6.656102 -74.261491 23.357338
v 7.954518 -74.261492 23.585049
v 6.747111 -74.261492 23.908573
v 6.943912 -74.261492 24.431462
v 8.114359 -74.261492 23.970939
v 7.238943 -74.261492 24.905909
v 8.368629 -74.261492 24.302310
v 7.620864 -74.261492 25.313682
v 8.700000 -74.261492 24.556579
v 8.075000 -74.261492 25.639111
v 8.583897 -74.261492 25.869690
v 9.085889 -74.261492 24.716420
v 9.128000 -74.261492 25.996557
v 9.500000 -74.261492 24.770939
v 9.686399 -74.261493 26.014837
v 9.914110 -74.261492 24.716420
v 10.237634 -74.261493 25.923827
v 10.760523 -74.261493 25.727026
v 10.300000 -74.261492 24.556579
v 11.234970 -74.261493 25.431996
v 10.631371 -74.261492 24.302309
v 11.642743 -74.261493 25.050074
v 10.885640 -74.261493 23.970939
v 11.968172 -74.261493 24.595939
v 12.198751 -74.261493 24.087041
v 11.045481 -74.261493 23.585049
v 12.325618 -74.261493 23.542938
v 11.100000 -74.261492 23.170939
v 12.343898 -74.261493 22.984540
v 11.045481 -74.261492 22.756828
v 12.252888 -74.261493 22.433304
v 12.056087 -74.261493 21.910416
v 10.885640 -74.261492 22.370939
v 11.761057 -74.261492 21.435968
v 10.631370 -74.261492 22.039568
v 11.379135 -74.261492 21.028195
v 10.299999 -74.261492 21.785298
v 10.924999 -74.261492 20.702766
v 10.416102 -74.261492 20.472188
v 9.914110 -74.261492 21.625457
v 9.871999 -74.261492 20.345321
v 9.499999 -74.261492 21.570939
v 9.313600 -74.261492 20.327041
v 9.085889 -74.261492 21.625457
v 8.762365 -74.261491 20.418050
v 8.239476 -74.261491 20.614851
v 8.699999 -74.261492 21.785298
v 7.765029 -74.261491 20.909882
v 8.368629 -74.261492 22.039568
v 8.051113 -64.568217 22.782712
v 8.347387 -64.261492 22.862098
v 8.200964 -64.568217 22.420940
v 8.306727 -64.261492 23.170941
v 8.466596 -64.261492 22.574303
v 8.200964 -64.568217 22.420940
v 8.466596 -64.261492 22.574303
v 8.439342 -64.568216 22.110280
v 8.656229 -64.261492 22.327168
v 8.750002 -64.568217 21.871902
v 8.903365 -64.261492 22.137534
v 9.111773 -64.568217 21.722052
v 9.191160 -64.261492 22.018325
v 9.500002 -64.568217 21.670940
v 9.500002 -64.261492 21.977665
v 9.888231 -64.568217 21.722052
v 9.808844 -64.261492 22.018325
v 10.250002 -64.568217 21.871902
v 10.096640 -64.261492 22.137534
v 10.560662 -64.568218 22.110280
v 10.343775 -64.261492 22.327168
v 10.799040 -64.568218 22.420940
v 10.533409 -64.261492 22.574303
v 10.948891 -64.568217 22.782712
v 10.652617 -64.261492 22.862098
v 11.000002 -64.568218 23.170940
v 10.693277 -64.261492 23.170940
v 10.948891 -64.568217 23.559169
v 10.652617 -64.261492 23.479783
v 10.799040 -64.568218 23.920940
v 10.533409 -64.261493 23.767578
v 10.560662 -64.568218 24.231600
v 10.343775 -64.261492 24.014713
v 10.250002 -64.568217 24.469978
v 10.096640 -64.261493 24.204347
v 9.888231 -64.568217 24.619829
v 9.808845 -64.261492 24.323556
v 9.500002 -64.568217 24.670940
v 9.500002 -64.261492 24.364215
v 9.111774 -64.568218 24.619829
v 9.191160 -64.261492 24.323556
v 8.750002 -64.568217 24.469979
v 8.903365 -64.261492 24.204347
v 8.439342 -64.568217 24.231601
v 8.656229 -64.261492 24.014713
v 8.200964 -64.568217 23.920940
v 8.466596 -64.261492 23.767578
v 8.051113 -64.568216 23.559169
v 8.347387 -64.261492 23.479783
v 8.000002 -64.568217 23.170941
v 8.466596 -64.261492 22.574303
v 8.347387 -64.261492 22.862098
v 8.656229 -64.261492 22.327168
v 8.903365 -64.261492 22.137534
v 8.306727 -64.261492 23.170941
v 9.191160 -64.261492 22.018325
v 8.347387 -64.261492 23.479783
v 9.500002 -64.261492 21.977665
v 8.466596 -64.261492 23.767578
v 9.808844 -64.261492 22.018325
v 8.656229 -64.261492 24.014713
v 10.096640 -64.261492 22.137534
v 8.903365 -64.261492 24.204347
v 10.343775 -64.261492 22.327168
v 9.191160 -64.261492 24.323556
v 10.533409 -64.261492 22.574303
v 9.500002 -64.261492 24.364215
v 10.652617 -64.261492 22.862098
v 9.808845 -64.261492 24.323556
v 10.693277 -64.261492 23.170940
v 10.096640 -64.261493 24.204347
v 10.652617 -64.261492 23.479783
v 10.343775 -64.261492 24.014713
v 10.533409 -64.261493 23.767578
v 8.160074 -75.276492 25.491759
v 8.260987 -75.539518 25.316971
v 8.392499 -75.741345 25.089185
v 7.357256 -74.261491 21.291803
v 7.357256 -74.641492 21.291803
v 7.031827 -74.261491 21.745939
v 7.765029 -74.641492 20.909882
v 7.031827 -74.641491 21.745939
v 6.801248 -74.261491 22.254836
v 6.801248 -74.641491 22.254836
v 6.674382 -74.261491 22.798939
v 6.674382 -74.641491 22.798939
v 6.656102 -74.261491 23.357338
v 6.656101 -74.641492 23.357338
v 6.747111 -74.261492 23.908573
v 6.747111 -74.641492 23.908573
v 6.943912 -74.261492 24.431462
v 6.943912 -74.641492 24.431462
v 7.238943 -74.261492 24.905909
v 7.238943 -74.641492 24.905909
v 7.620864 -74.261492 25.313682
v 7.620864 -74.641492 25.313682
v 8.075000 -74.261492 25.639111
v 8.075000 -74.641492 25.639111
v 8.583897 -74.261492 25.869690
v 8.583897 -74.641493 25.869690
v 9.128000 -74.261492 25.996557
v 9.128000 -74.641493 25.996556
v 9.686399 -74.261493 26.014837
v 9.686399 -74.641493 26.014837
v 10.237634 -74.261493 25.923827
v 10.237634 -74.641493 25.923827
v 10.760523 -74.261493 25.727026
v 10.760523 -74.641493 25.727026
v 11.234970 -74.261493 25.431996
v 11.234970 -74.641493 25.431996
v 11.642743 -74.261493 25.050074
v 11.642743 -74.641493 25.050074
v 11.968172 -74.261493 24.595939
v 11.968172 -74.641493 24.595938
v 11.968172 -74.261493 24.595939
v 11.968172 -74.641493 24.595938
v 12.198751 -74.261493 24.087041
v 12.198751 -74.641493 24.087041
v 12.325618 -74.261493 23.542938
v 12.325617 -74.641493 23.542938
v 12.343898 -74.261493 22.984540
v 12.343897 -74.641493 22.984540
v 12.252888 -74.261493 22.433304
v 12.252888 -74.641493 22.433304
v 12.056087 -74.261493 21.910416
v 12.056087 -74.641493 21.910416
v 11.761057 -74.261492 21.435968
v 11.761056 -74.641493 21.435968
v 11.379135 -74.261492 21.028195
v 11.379135 -74.641492 21.028195
v 10.924999 -74.261492 20.702766
v 10.924999 -74.641492 20.702766
v 10.416102 -74.261492 20.472188
v 10.416102 -74.641492 20.472188
v 9.871999 -74.261492 20.345321
v 9.871999 -74.641492 20.345321
v 9.313600 -74.261492 20.327041
v 9.313600 -74.641492 20.327041
v 8.762365 -74.261491 20.418050
v 8.762365 -74.641492 20.418050
v 8.239476 -74.261491 20.614851
v 8.239476 -74.641491 20.614851
v 7.765029 -74.261491 20.909882
v 10.366025 -74.782176 22.670939
v 10.077349 -75.911492 22.170938
v 10.229601 -74.803281 22.434647
v 10.077350 -74.871492 22.170939
v 10.077350 -74.871492 22.170939
v 9.772846 -74.803281 22.170939
v 10.077349 -75.911492 22.170938
v 9.499999 -74.782176 22.170939
v 8.922649 -75.911492 22.170938
v 9.227153 -74.803280 22.170939
v 8.922649 -74.871492 22.170939
v 8.922649 -74.871492 22.170939
v 8.770397 -74.803280 22.434647
v 8.922649 -75.911492 22.170938
v 8.633974 -74.782175 22.670939
v 8.345299 -75.911492 23.170938
v 8.497551 -74.803280 22.907231
v 8.345299 -74.871492 23.170939
v 8.345299 -74.871492 23.170939
v 8.497551 -74.803280 23.434647
v 8.345299 -75.911492 23.170938
v 8.633974 -74.782176 23.670939
v 8.922649 -75.911492 24.170938
v 8.770397 -74.803281 23.907231
v 8.922649 -74.871492 24.170939
v 10.366025 -74.782176 23.670939
v 10.654700 -75.911492 23.170938
v 10.502448 -74.803281 23.434646
v 10.654700 -74.871493 23.170939
v 8.922649 -74.871492 24.170939
v 9.227153 -74.803281 24.170939
v 8.922649 -75.911492 24.170938
v 9.500000 -74.782176 24.170939
v 10.077350 -75.911492 24.170938
v 9.772846 -74.803280 24.170939
v 10.077350 -74.871493 24.170938
v 8.770397 -74.803281 23.907231
v 9.500000 -74.204826 23.170939
v 8.922649 -74.871492 24.170939
v 8.633974 -74.782176 23.670939
v 9.500000 -74.204826 23.170939
v 9.227153 -74.803281 24.170939
v 8.345299 -74.871492 23.170939
v 9.500000 -74.204826 23.170939
v 8.497551 -74.803280 23.434647
v 8.497551 -74.803280 22.907231
v 9.500000 -74.204826 23.170939
v 9.500000 -74.204826 23.170939
v 8.633974 -74.782175 22.670939
v 8.922649 -74.871492 22.170939
v 9.500000 -74.204826 23.170939
v 8.770397 -74.803280 22.434647
v 9.227153 -74.803280 22.170939
v 9.500000 -74.204826 23.170939
v 9.500000 -74.204826 23.170939
v 9.499999 -74.782176 22.170939
v 10.077350 -74.871492 22.170939
v 9.500000 -74.204826 23.170939
v 9.772846 -74.803281 22.170939
v 10.229601 -74.803281 22.434647
v 9.500000 -74.204826 23.170939
v 9.500000 -74.204826 23.170939
v 10.366025 -74.782176 22.670939
v 10.654700 -74.871493 23.170939
v 9.500000 -74.204826 23.170939
v 10.502448 -74.803281 22.907231
v 10.502448 -74.803281 23.434646
v 9.500000 -74.204826 23.170939
v 9.500000 -74.204826 23.170939
v 10.366025 -74.782176 23.670939
v 10.077350 -74.871493 24.170938
v 9.500000 -74.204826 23.170939
v 10.229602 -74.803281 23.907231
v 9.772846 -74.803280 24.170939
v 9.500000 -74.204826 23.170939
v 9.500000 -74.204826 23.170939
v 10.366025 -74.782176 23.670939
v 9.500000 -74.782176 24.170939
v 9.500000 -74.204826 23.170939
f 1 2 3
f 1 3 4
f 1 5 2
f 2 5 55
f 2 56 3
f 2 57 56
f 2 55 57
f 3 40 4
f 3 59 40
f 3 56 59
f 4 40 39
f 5 69 55
f 6 7 8
f 6 9 7
f 7 9 10
f 7 96 8
f 7 97 96
f 7 10 97
f 8 96 99
f 9 11 10
f 10 11 12
f 10 110 97
f 10 12 110
f 11 13 12
f 12 13 14
f 12 115 110
f 12 14 115
f 13 15 14
f 14 15 16
f 14 120 115
f 14 16 120
f 15 17 16
f 16 17 18
f 16 125 120
f 16 18 125
f 17 19 18
f 18 19 20
f 18 130 125
f 18 20 130
f 19 21 20
f 20 21 22
f 20 135 130
f 20 22 135
f 21 23 22
f 22 23 24
f 22 140 135
f 22 24 140
f 23 25 24
f 24 25 26
f 24 145 140
f 24 26 145
f 25 27 26
f 26 27 28
f 26 150 145
f 26 28 150
f 27 29 28
f 28 29 30
f 28 155 150
f 28 30 155
f 29 31 30
f 30 31 32
f 30 160 155
f 30 32 160
f 31 33 32
f 32 33 34
f 32 165 160
f 32 34 165
f 33 35 34
f 34 35 36
f 34 170 165
f 34 36 170
f 35 37 36
f 36 37 38
f 36 175 170
f 36 38 175
f 37 39 38
f 38 39 40
f 38 68 175
f 38 40 68
f 40 59 68
f 41 42 43
f 41 43 44
f 41 45 42
f 42 45 65
f 42 64 43
f 42 67 64
f 42 65 67
f 43 54 44
f 43 64 61
f 43 61 54
f 44 54 53
f 45 180 65
f 46 47 48
f 46 49 47
f 46 48 95
f 47 49 50
f 47 50 78
f 47 78 83
f 47 83 48
f 48 88 94
f 48 94 95
f 48 83 88
f 49 51 50
f 50 51 52
f 50 52 73
f 50 73 78
f 51 53 52
f 52 53 54
f 52 54 63
f 52 63 73
f 54 61 63
f 55 69 70
f 55 71 57
f 55 70 71
f 56 58 59
f 56 60 58
f 56 57 60
f 57 72 60
f 57 71 72
f 58 61 62
f 58 63 61
f 58 62 59
f 58 60 63
f 59 62 68
f 60 73 63
f 60 72 73
f 61 64 62
f 62 64 66
f 62 66 68
f 64 67 66
f 65 178 177
f 65 177 67
f 65 180 178
f 66 176 175
f 66 175 68
f 66 67 176
f 67 177 176
f 69 74 70
f 70 74 75
f 70 76 71
f 70 75 76
f 71 77 72
f 71 76 77
f 72 78 73
f 72 77 78
f 74 79 75
f 75 79 80
f 75 81 76
f 75 80 81
f 76 82 77
f 76 81 82
f 77 83 78
f 77 82 83
f 79 84 80
f 80 84 85
f 80 86 81
f 80 85 86
f 81 87 82
f 81 86 87
f 82 88 83
f 82 87 88
f 84 91 85
f 85 89 90
f 85 90 86
f 85 91 89
f 86 90 92
f 86 92 87
f 87 92 93
f 87 93 88
f 88 93 94
f 96 98 99
f 96 100 98
f 96 97 100
f 97 111 100
f 97 110 111
f 98 101 102
f 98 103 101
f 98 100 103
f 98 102 99
f 100 112 103
f 100 111 112
f 101 104 105
f 101 105 106
f 101 103 104
f 101 106 102
f 103 113 104
f 103 112 113
f 104 114 107
f 104 107 105
f 104 113 114
f 105 107 108
f 105 108 109
f 105 109 106
f 110 116 111
f 110 115 116
f 111 117 112
f 111 116 117
f 112 118 113
f 112 117 118
f 113 119 114
f 113 118 119
f 115 121 116
f 115 120 121
f 116 122 117
f 116 121 122
f 117 123 118
f 117 122 123
f 118 124 119
f 118 123 124
f 120 126 121
f 120 125 126
f 121 127 122
f 121 126 127
f 122 128 123
f 122 127 128
f 123 129 124
f 123 128 129
f 125 131 126
f 125 130 131
f 126 132 127
f 126 131 132
f 127 133 128
f 127 132 133
f 128 134 129
f 128 133 134
f 130 136 131
f 130 135 136
f 131 137 132
f 131 136 137
f 132 138 133
f 132 137 138
f 133 139 134
f 133 138 139
f 135 141 136
f 135 140 141
f 136 142 137
f 136 141 142
f 137 143 138
f 137 142 143
f 138 144 139
f 138 143 144
f 140 146 141
f 140 145 146
f 141 147 142
f 141 146 147
f 142 148 143
f 142 147 148
f 143 149 144
f 143 148 149
f 145 151 146
f 145 150 151
f 146 152 147
f 146 151 152
f 147 153 148
f 147 152 153
f 148 154 149
f 148 153 154
f 150 156 151
f 150 155 156
f 151 157 152
f 151 156 157
f 152 158 153
f 152 157 158
f 153 159 154
f 153 158 159
f 155 161 156
f 155 160 161
f 156 162 157
f 156 161 162
f 157 163 158
f 157 162 163
f 158 164 159
f 158 163 164
f 160 166 161
f 160 165 166
f 161 167 162
f 161 166 167
f 162 168 163
f 162 167 168
f 163 169 164
f 163 168 169
f 165 171 166
f 165 170 171
f 166 172 167
f 166 171 172
f 167 173 168
f 167 172 173
f 168 174 169
f 168 173 174
f 170 176 171
f 170 175 176
f 171 177 172
f 171 176 177
f 172 178 173
f 172 177 178
f 173 179 174
f 173 178 179
f 178 180 179
f 181 182 183
f 181 183 184
f 181 185 182
f 182 185 186
f 183 229 184
f 184 229 228
f 185 187 186
f 186 187 188
f 187 189 188
f 188 189 190
f 189 191 190
f 190 191 192
f 191 193 192
f 192 193 194
f 193 195 194
f 194 195 196
f 195 197 196
f 196 197 198
f 197 199 198
f 198 199 200
f 199 201 200
f 200 201 202
f 201 203 202
f 202 203 204
f 203 205 204
f 204 205 206
f 205 489 206
f 207 208 209
f 207 210 208
f 208 210 211
f 210 212 211
f 211 212 213
f 212 214 213
f 213 214 215
f 214 216 215
f 215 216 217
f 216 218 217
f 217 218 219
f 218 220 219
f 219 220 221
f 220 222 221
f 221 222 223
f 222 224 223
f 223 224 225
f 224 226 225
f 225 226 227
f 226 228 227
f 227 228 229
f 230 231 232
f 230 542 541
f 230 232 542
f 231 490 232
f 232 490 491
f 233 234 235
f 233 235 236
f 233 237 234
f 233 236 262
f 234 237 331
f 234 332 235
f 234 331 340
f 234 340 332
f 235 332 334
f 235 334 236
f 236 263 262
f 236 450 263
f 236 334 450
f 237 338 331
f 238 239 240
f 238 339 338
f 238 343 339
f 238 240 343
f 239 241 242
f 239 242 240
f 240 242 347
f 240 347 348
f 240 348 343
f 241 243 244
f 241 244 242
f 242 244 355
f 242 355 347
f 243 358 244
f 244 358 359
f 244 359 355
f 245 246 247
f 245 374 373
f 245 378 374
f 245 247 378
f 246 248 249
f 246 249 247
f 247 249 382
f 247 382 383
f 247 383 378
f 248 250 251
f 248 251 249
f 249 251 388
f 249 388 382
f 250 391 251
f 250 396 395
f 250 395 391
f 251 391 392
f 251 392 388
f 252 253 254
f 252 405 404
f 252 409 405
f 252 254 409
f 253 255 256
f 253 256 254
f 254 256 413
f 254 413 414
f 254 414 409
f 255 257 258
f 255 258 256
f 256 258 419
f 256 419 413
f 257 422 258
f 257 427 426
f 257 426 422
f 258 422 423
f 258 423 419
f 259 260 261
f 259 436 435
f 259 440 436
f 259 261 440
f 260 262 263
f 260 263 261
f 261 263 444
f 261 444 445
f 261 445 440
f 263 450 444
f 264 265 266
f 264 267 265
f 264 266 325
f 265 267 268
f 265 447 449
f 265 268 447
f 265 449 266
f 266 452 326
f 266 326 325
f 266 449 452
f 267 269 268
f 268 269 270
f 268 270 443
f 268 443 447
f 269 271 270
f 270 271 272
f 270 439 443
f 270 272 439
f 271 273 272
f 272 273 274
f 272 433 439
f 272 274 433
f 273 275 274
f 274 275 276
f 274 434 433
f 274 276 434
f 275 277 276
f 276 277 278
f 276 278 425
f 276 425 434
f 277 279 278
f 278 279 280
f 278 421 425
f 278 280 421
f 279 281 280
f 280 281 282
f 280 282 418
f 280 418 421
f 281 283 282
f 282 283 284
f 282 416 418
f 282 284 416
f 283 285 284
f 284 285 286
f 284 286 412
f 284 412 416
f 285 287 286
f 286 287 288
f 286 408 412
f 286 288 408
f 287 289 288
f 288 289 290
f 288 402 408
f 288 290 402
f 289 291 290
f 290 291 292
f 290 403 402
f 290 292 403
f 291 293 292
f 292 293 294
f 292 294 394
f 292 394 403
f 293 295 294
f 294 295 296
f 294 390 394
f 294 296 390
f 295 297 296
f 296 297 298
f 296 298 387
f 296 387 390
f 297 299 298
f 298 299 300
f 298 386 387
f 298 300 386
f 299 301 300
f 300 301 302
f 300 381 386
f 300 302 381
f 301 303 302
f 302 303 304
f 302 377 381
f 302 304 377
f 303 305 304
f 304 305 306
f 304 371 377
f 304 306 371
f 305 307 306
f 306 307 308
f 306 372 371
f 306 308 372
f 307 309 308
f 308 311 617
f 308 309 311
f 308 617 372
f 309 310 311
f 312 313 314
f 312 314 329
f 312 329 328
f 313 315 316
f 313 316 314
f 314 352 357
f 314 316 352
f 314 357 329
f 315 317 318
f 315 318 316
f 316 354 352
f 316 318 354
f 317 319 320
f 317 320 318
f 318 320 346
f 318 346 354
f 319 321 322
f 319 322 320
f 320 342 346
f 320 322 342
f 321 323 324
f 321 324 322
f 322 335 342
f 322 324 335
f 323 325 326
f 323 326 324
f 324 337 335
f 324 326 337
f 326 452 337
f 327 328 329
f 327 329 330
f 327 330 361
f 329 357 330
f 330 349 356
f 330 356 361
f 330 357 349
f 331 338 339
f 331 339 344
f 331 344 340
f 332 333 334
f 332 340 341
f 332 341 333
f 333 335 336
f 333 336 334
f 333 341 342
f 333 342 335
f 334 336 450
f 335 337 336
f 336 451 450
f 336 337 451
f 337 452 451
f 339 351 344
f 339 343 351
f 340 344 345
f 340 345 341
f 341 345 346
f 341 346 342
f 343 348 351
f 344 353 345
f 344 351 353
f 345 354 346
f 345 353 354
f 347 349 348
f 347 355 356
f 347 356 349
f 348 350 351
f 348 349 350
f 349 357 350
f 350 352 353
f 350 353 351
f 350 357 352
f 352 354 353
f 355 359 360
f 355 360 356
f 356 360 361
f 362 363 364
f 362 364 365
f 362 366 367
f 362 368 366
f 362 365 368
f 362 367 363
f 364 373 365
f 365 373 374
f 365 375 368
f 365 374 375
f 366 368 369
f 366 369 370
f 366 619 367
f 366 370 619
f 368 376 369
f 368 375 376
f 369 371 370
f 369 376 377
f 369 377 371
f 370 371 372
f 370 618 619
f 370 372 618
f 372 617 618
f 374 379 375
f 374 378 379
f 375 380 376
f 375 379 380
f 376 381 377
f 376 380 381
f 378 383 379
f 379 383 385
f 379 385 380
f 380 385 386
f 380 386 381
f 382 384 383
f 382 388 389
f 382 389 384
f 383 384 385
f 384 389 390
f 384 387 385
f 384 390 387
f 385 387 386
f 388 392 393
f 388 393 389
f 389 393 394
f 389 394 390
f 391 399 392
f 391 395 399
f 392 401 393
f 392 399 401
f 393 403 394
f 393 401 403
f 395 396 397
f 395 397 398
f 395 398 399
f 396 404 397
f 397 404 405
f 397 405 406
f 397 406 398
f 398 400 399
f 398 406 407
f 398 407 400
f 399 400 401
f 400 402 401
f 400 407 408
f 400 408 402
f 401 402 403
f 405 409 410
f 405 410 406
f 406 410 411
f 406 411 407
f 407 411 412
f 407 412 408
f 409 414 410
f 410 417 411
f 410 414 417
f 411 416 412
f 411 417 416
f 413 415 414
f 413 419 420
f 413 420 415
f 414 415 417
f 415 420 421
f 415 418 417
f 415 421 418
f 416 417 418
f 419 423 424
f 419 424 420
f 420 424 425
f 420 425 421
f 422 430 423
f 422 426 430
f 423 432 424
f 423 430 432
f 424 434 425
f 424 432 434
f 426 427 428
f 426 428 429
f 426 429 430
f 427 435 428
f 428 435 436
f 428 436 437
f 428 437 429
f 429 431 430
f 429 437 438
f 429 438 431
f 430 431 432
f 431 433 432
f 431 438 439
f 431 439 433
f 432 433 434
f 436 440 441
f 436 441 437
f 437 441 442
f 437 442 438
f 438 442 443
f 438 443 439
f 440 445 441
f 441 448 442
f 441 445 448
f 442 447 443
f 442 448 447
f 444 446 445
f 444 450 451
f 444 451 446
f 445 446 448
f 446 451 452
f 446 449 448
f 446 452 449
f 447 448 449
f 453 454 455
f 453 455 456
f 453 457 458
f 453 459 457
f 453 460 454
f 453 456 459
f 454 460 464
f 457 480 458
f 458 476 475
f 458 480 481
f 458 482 476
f 458 481 482
f 460 461 462
f 460 462 463
f 460 465 461
f 460 463 464
f 461 465 469
f 465 466 467
f 465 467 468
f 465 470 466
f 465 468 469
f 466 470 474
f 470 471 472
f 470 472 473
f 470 475 471
f 470 473 474
f 471 475 479
f 475 476 477
f 475 477 478
f 475 478 479
f 483 484 485
f 484 686 485
f 485 686 687
f 486 487 488
f 487 711 488
f 488 711 712
f 490 492 491
f 491 492 493
f 492 494 493
f 493 494 495
f 494 496 495
f 495 496 497
f 495 497 498
f 497 499 498
f 498 499 500
f 499 501 500
f 500 501 502
f 501 503 502
f 502 503 504
f 502 504 505
f 504 506 505
f 505 506 507
f 506 508 507
f 507 508 509
f 508 510 509
f 509 510 511
f 509 511 512
f 511 513 512
f 512 513 514
f 513 515 514
f 514 515 516
f 515 517 516
f 516 517 518
f 516 518 519
f 518 520 519
f 519 520 521
f 520 522 521
f 521 522 523
f 522 524 523
f 523 524 525
f 523 525 526
f 525 527 526
f 526 527 528
f 527 529 528
f 528 529 530
f 529 531 530
f 530 531 532
f 530 532 533
f 532 534 533
f 533 534 535
f 534 536 535
f 535 536 537
f 536 538 537
f 537 538 539
f 537 539 540
f 539 541 540
f 540 541 542
f 543 544 545
f 543 546 544
f 543 592 546
f 544 547 545
f 546 592 591
f 548 549 550
f 549 551 550
f 550 551 552
f 551 553 552
f 552 553 554
f 553 555 554
f 554 555 556
f 555 557 556
f 556 557 558
f 557 559 558
f 558 559 560
f 559 561 560
f 560 561 562
f 561 563 562
f 562 563 564
f 563 565 564
f 564 565 566
f 565 567 566
f 566 567 568
f 567 569 568
f 568 569 570
f 569 571 570
f 570 571 572
f 571 573 572
f 572 573 574
f 573 575 574
f 574 575 576
f 575 577 576
f 576 577 578
f 577 579 578
f 578 579 580
f 579 581 580
f 580 581 582
f 581 583 582
f 582 583 584
f 583 585 584
f 584 585 586
f 585 587 586
f 586 587 588
f 587 589 588
f 588 589 590
f 589 591 590
f 590 591 592
f 593 594 595
f 594 596 595
f 594 597 596
f 596 597 598
f 597 599 598
f 598 599 600
f 599 601 600
f 600 601 602
f 601 603 602
f 602 603 604
f 603 605 604
f 604 605 606
f 605 607 606
f 606 607 608
f 607 609 608
f 608 609 610
f 609 611 610
f 610 611 612
f 611 613 612
f 612 613 614
f 613 615 614
f 614 615 616
f 620 621 622
f 620 623 621
f 620 685 623
f 621 624 622
f 622 624 625
f 623 685 684
f 624 626 625
f 625 626 627
f 626 628 627
f 627 628 629
f 628 630 629
f 629 630 631
f 630 632 631
f 631 632 633
f 632 634 633
f 633 634 635
f 634 636 635
f 635 636 637
f 636 638 637
f 637 638 639
f 638 640 639
f 639 640 641
f 640 642 641
f 641 642 643
f 642 644 643
f 643 644 645
f 644 646 645
f 645 646 647
f 646 648 647
f 647 648 649
f 648 650 649
f 649 650 651
f 650 652 651
f 651 652 653
f 652 654 653
f 653 654 655
f 654 656 655
f 657 658 659
f 658 660 659
f 659 660 661
f 660 662 661
f 661 662 663
f 662 664 663
f 663 664 665
f 664 666 665
f 665 666 667
f 666 668 667
f 667 668 669
f 668 670 669
f 669 670 671
f 670 672 671
f 671 672 673
f 672 674 673
f 673 674 675
f 674 676 675
f 675 676 677
f 676 678 677
f 677 678 679
f 678 680 679
f 679 680 681
f 680 682 681
f 681 682 683
f 682 684 683
f 683 684 685
f 686 688 687
f 687 688 689
f 690 691 692
f 691 693 692
f 692 693 694
f 693 695 694
f 694 695 696
f 697 698 699
f 698 700 699
f 699 700 701
f 700 702 701
f 701 702 703
f 704 705 706
f 705 707 706
f 706 707 708
f 707 709 708
f 708 709 710
f 711 713 712
f 712 713 714
f 715 716 717
f 716 718 717
f 717 718 719
f 718 720 719
f 719 720 721
f 722 723 724
f 722 725 723
f 724 726 727
f 725 730 733
f 727 764 763
f 728 729 730
f 728 731 732
f 731 734 732
f 734 737 740
f 735 736 737
f 735 738 739
f 738 741 739
f 741 744 747
f 742 743 744
f 742 745 746
f 745 748 746
f 748 751 754
f 749 750 751
f 749 752 753
f 752 755 753
f 756 757 758
f 756 759 760
f 758 761 762
f 759 763 760