# ANSI B 18.2.4.1 M - M3 x 0.5Style 1
# Autodesk dbId: 17
# Units: mm
o 017_ANSI_B_18.2.4.1_M_-_M3_x_0.5Style_1
v 21.050921 -82.417744 2.120016
v 20.662192 -82.261494 2.067659
v 20.859555 -82.261494 2.311382
v 20.873861 -82.417744 1.896087
v 21.103278 -82.261494 2.508746
v 21.274850 -82.417744 2.297076
v 21.050921 -82.417744 2.120016
v 21.382709 -82.261494 2.651123
v 21.533576 -82.417744 2.417722
v 21.685636 -82.261494 2.732292
v 21.813151 -82.417744 2.475450
v 21.998820 -82.261494 2.748705
v 22.098503 -82.417744 2.467147
v 22.308572 -82.261494 2.699646
v 22.374248 -82.417744 2.393261
v 22.601355 -82.261494 2.587257
v 22.625521 -82.417744 2.257776
v 22.864373 -82.261494 2.416451
v 22.838776 -82.417744 2.067995
v 23.086131 -82.261494 2.194693
v 23.002517 -82.417744 1.834150
v 23.256937 -82.261495 1.931675
v 23.107915 -82.417744 1.568846
v 23.369327 -82.261495 1.638891
v 23.418386 -82.261495 1.329139
v 23.149289 -82.417744 1.286388
v 23.401973 -82.261494 1.015956
v 23.124409 -82.417744 1.002002
v 23.320804 -82.261494 0.713029
v 23.034615 -82.417744 0.731019
v 23.178427 -82.261494 0.433597
v 22.884749 -82.417744 0.488049
v 22.981064 -82.261494 0.189874
v 22.682889 -82.417744 0.286189
v 22.737341 -82.261494 -0.007489
v 22.439919 -82.417744 0.136323
v 22.457909 -82.261494 -0.149867
v 22.168936 -82.417744 0.046529
v 22.154982 -82.261494 -0.231036
v 21.884550 -82.417744 0.021648
v 21.841799 -82.261494 -0.247449
v 21.602091 -82.417744 0.063022
v 21.532047 -82.261494 -0.198389
v 21.239263 -82.261494 -0.086000
v 21.336788 -82.417744 0.168420
v 20.976245 -82.261494 0.084806
v 21.102943 -82.417744 0.332161
v 20.754487 -82.261494 0.306564
v 20.913162 -82.417744 0.545416
v 20.583681 -82.261494 0.569582
v 20.777676 -82.417744 0.796689
v 20.471292 -82.261494 0.862365
v 20.703791 -82.417744 1.072434
v 20.422232 -82.261494 1.172117
v 20.695488 -82.417744 1.357786
v 20.438645 -82.261494 1.485300
v 20.753215 -82.417744 1.637361
v 20.519814 -82.261494 1.788228
v 22.789697 -84.505245 0.381240
v 22.884749 -82.417744 0.488049
v 22.682889 -82.417744 0.286189
v 22.565768 -84.505245 0.204180
v 22.966757 -84.505245 0.605169
v 23.034615 -82.417744 0.731019
v 23.087403 -84.505245 0.863895
v 23.124409 -82.417744 1.002002
v 23.145130 -84.505245 1.143470
v 23.149289 -82.417744 1.286388
v 23.136828 -84.505245 1.428822
v 23.107915 -82.417744 1.568846
v 23.062942 -84.505245 1.704567
v 23.002517 -82.417744 1.834150
v 22.927456 -84.505245 1.955840
v 22.838776 -82.417744 2.067995
v 22.737675 -84.505245 2.169096
v 22.625521 -82.417744 2.257776
v 22.503830 -84.505245 2.332836
v 22.374248 -82.417744 2.393261
v 22.238527 -84.505245 2.438234
v 22.098503 -82.417744 2.467147
v 21.956068 -84.505245 2.479608
v 21.813151 -82.417744 2.475450
v 21.671682 -84.505245 2.454727
v 21.533576 -82.417744 2.417722
v 21.400699 -84.505245 2.364933
v 21.274850 -82.417744 2.297076
v 20.955870 -84.505245 2.013208
v 20.873861 -82.417744 1.896087
v 21.050921 -82.417744 2.120016
v 21.157729 -84.505245 2.215067
v 20.806003 -84.505244 1.770237
v 20.753215 -82.417744 1.637361
v 20.716209 -84.505244 1.499254
v 20.695488 -82.417744 1.357786
v 20.691329 -84.505244 1.214868
v 20.703791 -82.417744 1.072434
v 20.732703 -84.505244 0.932410
v 20.777676 -82.417744 0.796689
v 20.838101 -84.505244 0.667107
v 20.913162 -82.417744 0.545416
v 21.001842 -84.505244 0.433261
v 21.102943 -82.417744 0.332161
v 21.215097 -84.505244 0.243480
v 21.336788 -82.417744 0.168420
v 21.466370 -84.505244 0.107995
v 21.602091 -82.417744 0.063022
v 21.742115 -84.505245 0.034109
v 21.884550 -82.417744 0.021648
v 22.027467 -84.505245 0.025807
v 22.168936 -82.417744 0.046529
v 22.307042 -84.505245 0.083534
v 22.439919 -82.417744 0.136323
v 21.612407 -82.261494 -1.482081
v 21.208557 -82.261494 -1.405668
v 21.532047 -82.261494 -0.198389
v 23.178427 -84.661495 0.433597
v 22.966757 -84.505245 0.605169
v 22.789697 -84.505245 0.381240
v 23.320804 -84.661495 0.713029
v 23.087403 -84.505245 0.863895
v 23.401973 -84.661495 1.015956
v 23.145130 -84.505245 1.143470
v 23.418386 -84.661495 1.329139
v 23.136828 -84.505245 1.428822
v 23.369326 -84.661495 1.638891
v 23.062942 -84.505245 1.704567
v 23.256937 -84.661495 1.931674
v 22.927456 -84.505245 1.955840
v 23.086131 -84.661495 2.194692
v 22.737675 -84.505245 2.169096
v 22.864373 -84.661495 2.416450
v 22.503830 -84.505245 2.332836
v 22.601355 -84.661495 2.587256
v 22.238527 -84.505245 2.438234
v 22.308572 -84.661495 2.699645
v 21.998820 -84.661495 2.748705
v 21.956068 -84.505245 2.479608
v 21.685636 -84.661495 2.732292
v 21.671682 -84.505245 2.454727
v 21.382709 -84.661495 2.651123
v 21.400699 -84.505245 2.364933
v 21.103278 -84.661495 2.508745
v 21.157729 -84.505245 2.215067
v 20.859554 -84.661495 2.311382
v 20.955870 -84.505245 2.013208
v 20.662191 -84.661494 2.067659
v 20.806003 -84.505244 1.770237
v 20.519814 -84.661494 1.788227
v 20.716209 -84.505244 1.499254
v 20.438645 -84.661494 1.485300
v 20.691329 -84.505244 1.214868
v 20.422232 -84.661494 1.172117
v 20.732703 -84.505244 0.932410
v 20.471292 -84.661494 0.862365
v 20.583681 -84.661494 0.569582
v 20.838101 -84.505244 0.667107
v 20.754487 -84.661494 0.306564
v 21.001842 -84.505244 0.433261
v 20.976245 -84.661494 0.084806
v 21.215097 -84.505244 0.243480
v 21.239263 -84.661494 -0.086000
v 21.466370 -84.505244 0.107995
v 21.532046 -84.661494 -0.198389
v 21.742115 -84.505245 0.034109
v 21.841798 -84.661495 -0.247449
v 22.027467 -84.505245 0.025807
v 22.154982 -84.661495 -0.231036
v 22.307042 -84.505245 0.083534
v 22.457909 -84.661495 -0.149867
v 22.565768 -84.505245 0.204180
v 22.737340 -84.661495 -0.007489
v 20.820606 -84.661494 -1.269918
v 21.208557 -84.661494 -1.405668
v 21.532046 -84.661494 -0.198389
v 19.674944 -82.459873 -0.994738
v 19.835887 -82.261494 -0.543163
v 20.126519 -82.261494 -0.833794
v 20.084856 -82.371516 -1.104573
v 19.565108 -82.371516 -0.584826
v 20.840902 -82.273719 -1.307155
v 20.820607 -82.261494 -1.269918
v 21.208557 -82.261494 -1.405668
v 20.469790 -82.310165 -1.207716
v 20.457221 -82.261494 -1.077864
v 18.853082 -82.459874 2.072489
v 19.324630 -82.261494 2.158895
v 19.218251 -82.261494 1.761885
v 18.962918 -82.371516 1.662577
v 19.153159 -82.371517 2.372565
v 19.165500 -82.273719 0.906531
v 19.187600 -82.261494 0.942725
v 19.264013 -82.261494 0.538875
v 19.066061 -82.310165 1.277642
v 19.172232 -82.261494 1.353454
v 21.098448 -82.459874 4.317855
v 21.409052 -82.261494 3.952686
v 21.012041 -82.261494 3.846307
v 20.798371 -82.371517 4.017778
v 21.508360 -82.371517 4.208019
v 20.244907 -82.273719 3.464314
v 20.287303 -82.261494 3.463272
v 19.975765 -82.261494 3.195172
v 20.516580 -82.310165 3.735987
v 20.635320 -82.261494 3.681946
v 24.165675 -82.459874 3.495994
v 24.004731 -82.261495 3.044419
v 23.714099 -82.261495 3.335051
v 23.755763 -82.371517 3.605830
v 24.275510 -82.371517 3.086082
v 22.999717 -82.273719 3.808412
v 23.020012 -82.261495 3.771175
v 22.632061 -82.261495 3.906925
v 23.370828 -82.310166 3.708973
v 23.383397 -82.261495 3.579120
v 22.742171 -84.463115 -1.816599
v 22.828577 -84.661495 -1.345051
v 22.431566 -84.661495 -1.451430
v 22.332258 -84.551472 -1.706763
v 23.042247 -84.551472 -1.516522
v 21.576213 -84.649270 -1.504181
v 21.612407 -84.661494 -1.482081
v 21.208557 -84.661494 -1.405668
v 21.947324 -84.612823 -1.603620
v 22.023135 -84.661494 -1.497449
v 24.987536 -84.463115 0.428767
v 24.622367 -84.661495 0.739371
v 24.515989 -84.661495 0.342361
v 24.687460 -84.551472 0.128691
v 24.877700 -84.551472 0.838679
v 24.133996 -84.649270 -0.424773
v 24.132954 -84.661495 -0.382377
v 23.864853 -84.661495 -0.693916
v 24.405668 -84.612824 -0.153101
v 24.351627 -84.661495 -0.034360
v 24.165674 -84.463115 3.495994
v 23.714099 -84.661495 3.335051
v 24.004731 -84.661495 3.044419
v 24.275510 -84.551472 3.086082
v 23.755762 -84.551472 3.605830
v 24.478092 -84.649270 2.330036
v 24.440855 -84.661495 2.350331
v 24.576605 -84.661495 1.962381
v 24.378653 -84.612824 2.701148
v 24.248800 -84.661495 2.713717
v 20.859555 -82.261494 2.311382
v 21.157729 -84.505245 2.215067
v 21.050921 -82.417744 2.120016
v 20.820607 -82.261494 -1.269918
v 21.239263 -82.261494 -0.086000
v 20.457221 -82.261494 -1.077864
v 20.976245 -82.261494 0.084806
v 20.126519 -82.261494 -0.833794
v 19.835887 -82.261494 -0.543163
v 20.754487 -82.261494 0.306564
v 19.591818 -82.261494 -0.212461
v 20.583681 -82.261494 0.569582
v 19.399763 -82.261494 0.150925
v 20.471292 -82.261494 0.862365
v 19.264013 -82.261494 0.538875
v 19.187600 -82.261494 0.942725
v 20.422232 -82.261494 1.172117
v 19.172232 -82.261494 1.353454
v 20.438645 -82.261494 1.485300
v 19.218251 -82.261494 1.761885
v 19.324630 -82.261494 2.158895
v 20.519814 -82.261494 1.788228
v 19.488991 -82.261494 2.535617
v 20.662192 -82.261494 2.067659
v 19.707665 -82.261494 2.883634
v 20.859555 -82.261494 2.311382
v 19.975765 -82.261494 3.195172
v 20.287303 -82.261494 3.463272
v 21.103278 -82.261494 2.508746
v 20.635320 -82.261494 3.681946
v 21.382709 -82.261494 2.651123
v 21.012041 -82.261494 3.846307
v 21.685636 -82.261494 2.732292
v 21.409052 -82.261494 3.952686
v 21.817483 -82.261494 3.998705
v 21.998820 -82.261494 2.748705
v 22.228211 -82.261494 3.983337
v 22.308572 -82.261494 2.699646
v 22.632061 -82.261495 3.906925
v 23.020012 -82.261495 3.771175
v 22.601355 -82.261494 2.587257
v 23.383397 -82.261495 3.579120
v 22.864373 -82.261494 2.416451
v 23.714099 -82.261495 3.335051
v 24.004731 -82.261495 3.044419
v 23.086131 -82.261494 2.194693
v 24.248801 -82.261495 2.713717
v 23.256937 -82.261495 1.931675
v 24.440855 -82.261495 2.350332
v 23.369327 -82.261495 1.638891
v 24.576605 -82.261495 1.962381
v 24.653018 -82.261495 1.558531
v 23.418386 -82.261495 1.329139
v 24.668387 -82.261495 1.147803
v 23.401973 -82.261494 1.015956
v 24.622367 -82.261495 0.739372
v 24.515989 -82.261495 0.342361
v 23.320804 -82.261494 0.713029
v 24.351627 -82.261495 -0.034360
v 23.178427 -82.261494 0.433597
v 24.132954 -82.261495 -0.382377
v 22.981064 -82.261494 0.189874
v 23.864854 -82.261494 -0.693915
v 23.553315 -82.261494 -0.962016
v 22.737341 -82.261494 -0.007489
v 23.205299 -82.261494 -1.180689
v 22.457909 -82.261494 -0.149867
v 22.828577 -82.261494 -1.345051
v 22.154982 -82.261494 -0.231036
v 22.431567 -82.261494 -1.451430
v 22.023136 -82.261494 -1.497449
v 21.841799 -82.261494 -0.247449
v 22.789697 -84.505245 0.381240
v 22.981063 -84.661495 0.189874
v 22.981063 -84.661495 0.189874
v 21.612407 -84.661494 -1.482081
v 21.841798 -84.661495 -0.247449
v 22.023135 -84.661494 -1.497449
v 22.154982 -84.661495 -0.231036
v 22.431566 -84.661495 -1.451430
v 22.828577 -84.661495 -1.345051
v 22.457909 -84.661495 -0.149867
v 23.205298 -84.661495 -1.180689
v 22.737340 -84.661495 -0.007489
v 23.553315 -84.661495 -0.962016
v 22.981063 -84.661495 0.189874
v 23.864853 -84.661495 -0.693916
v 24.132954 -84.661495 -0.382377
v 23.178427 -84.661495 0.433597
v 24.351627 -84.661495 -0.034360
v 23.320804 -84.661495 0.713029
v 24.515989 -84.661495 0.342361
v 23.401973 -84.661495 1.015956
v 24.622367 -84.661495 0.739371
v 24.668386 -84.661495 1.147802
v 23.418386 -84.661495 1.329139
v 24.653018 -84.661495 1.558531
v 23.369326 -84.661495 1.638891
v 24.576605 -84.661495 1.962381
v 24.440855 -84.661495 2.350331
v 23.256937 -84.661495 1.931674
v 24.248800 -84.661495 2.713717
v 23.086131 -84.661495 2.194692
v 24.004731 -84.661495 3.044419
v 23.714099 -84.661495 3.335051
v 22.864373 -84.661495 2.416450
v 23.383397 -84.661495 3.579120
v 22.601355 -84.661495 2.587256
v 23.020011 -84.661495 3.771175
v 22.308572 -84.661495 2.699645
v 22.632061 -84.661495 3.906924
v 22.228211 -84.661495 3.983337
v 21.998820 -84.661495 2.748705
v 21.817482 -84.661495 3.998705
v 21.685636 -84.661495 2.732292
v 21.409051 -84.661495 3.952686
v 21.012041 -84.661495 3.846307
v 21.382709 -84.661495 2.651123
v 20.635320 -84.661495 3.681945
v 21.103278 -84.661495 2.508745
v 20.287303 -84.661494 3.463272
v 20.859554 -84.661495 2.311382
v 19.975765 -84.661494 3.195172
v 19.707664 -84.661494 2.883633
v 20.662191 -84.661494 2.067659
v 19.488991 -84.661494 2.535617
v 20.519814 -84.661494 1.788227
v 19.324629 -84.661494 2.158895
v 20.438645 -84.661494 1.485300
v 19.218251 -84.661494 1.761885
v 19.172232 -84.661494 1.353454
v 20.422232 -84.661494 1.172117
v 19.187600 -84.661494 0.942725
v 20.471292 -84.661494 0.862365
v 19.264013 -84.661494 0.538875
v 19.399763 -84.661494 0.150925
v 20.583681 -84.661494 0.569582
v 19.591817 -84.661494 -0.212461
v 20.754487 -84.661494 0.306564
v 19.835887 -84.661494 -0.543163
v 20.126519 -84.661494 -0.833795
v 20.976245 -84.661494 0.084806
v 20.457221 -84.661494 -1.077864
v 21.239263 -84.661494 -0.086000
v 19.591818 -82.261494 -0.212461
v 19.461965 -82.310165 -0.199891
v 19.399763 -82.261494 0.150925
v 19.362526 -82.273719 0.171220
v 19.264013 -82.261494 0.538875
v 23.864854 -82.261494 -0.693915
v 23.595711 -82.273719 -0.963058
v 23.553315 -82.261494 -0.962016
v 23.324039 -82.310166 -1.234730
v 23.205299 -82.261494 -1.180689
v 23.042247 -82.371517 -1.516522
v 22.828577 -82.261494 -1.345051
v 22.742171 -82.459874 -1.816598
v 22.431567 -82.261494 -1.451430
v 22.332259 -82.371517 -1.706763
v 22.023136 -82.261494 -1.497449
v 21.947324 -82.310165 -1.603620
v 21.612407 -82.261494 -1.482081
v 21.576213 -82.273719 -1.504181
v 21.208557 -82.261494 -1.405668
v 19.488991 -82.261494 2.535617
v 19.434950 -82.310165 2.654357
v 19.707665 -82.261494 2.883634
v 19.706622 -82.273719 2.926029
v 19.975765 -82.261494 3.195172
v 24.576605 -82.261495 1.962381
v 24.675119 -82.273719 1.594725
v 24.653018 -82.261495 1.558531
v 24.774558 -82.310166 1.223614
v 24.668387 -82.261495 1.147803
v 24.877701 -82.371517 0.838680
v 24.622367 -82.261495 0.739372
v 24.987536 -82.459874 0.428768
v 24.515989 -82.261495 0.342361
v 24.687460 -82.371517 0.128691
v 24.351627 -82.261495 -0.034360
v 24.405668 -82.310166 -0.153100
v 24.132954 -82.261495 -0.382377
v 24.133996 -82.273719 -0.424773
v 23.864854 -82.261494 -0.693915
v 21.817483 -82.261494 3.998705
v 21.893294 -82.310166 4.104877
v 22.228211 -82.261494 3.983337
v 22.264406 -82.273719 4.005438
v 22.632061 -82.261495 3.906925
v 24.248801 -82.261495 2.713717
v 24.378653 -82.310166 2.701148
v 24.440855 -82.261495 2.350332
v 24.478092 -82.273719 2.330037
v 24.576605 -82.261495 1.962381
v 19.264013 -84.661494 0.538875
v 19.362526 -84.649270 0.171220
v 19.399763 -84.661494 0.150925
v 19.461965 -84.612823 -0.199892
v 19.591817 -84.661494 -0.212461
v 19.565108 -84.551472 -0.584826
v 19.835887 -84.661494 -0.543163
v 19.674944 -84.463115 -0.994738
v 20.126519 -84.661494 -0.833795
v 20.084856 -84.551472 -1.104574
v 20.457221 -84.661494 -1.077864
v 20.469790 -84.612823 -1.207716
v 20.820606 -84.661494 -1.269918
v 20.840901 -84.649270 -1.307155
v 21.208557 -84.661494 -1.405668
v 23.205298 -84.661495 -1.180689
v 23.324038 -84.612823 -1.234731
v 23.553315 -84.661495 -0.962016
v 23.595711 -84.649270 -0.963058
v 23.864853 -84.661495 -0.693916
v 19.975765 -84.661494 3.195172
v 19.706622 -84.649270 2.926029
v 19.707664 -84.661494 2.883633
v 19.434950 -84.612823 2.654357
v 19.488991 -84.661494 2.535617
v 19.153158 -84.551472 2.372565
v 19.324629 -84.661494 2.158895
v 18.853082 -84.463115 2.072489
v 19.218251 -84.661494 1.761885
v 18.962918 -84.551472 1.662577
v 19.172232 -84.661494 1.353454
v 19.066060 -84.612823 1.277642
v 19.187600 -84.661494 0.942725
v 19.165500 -84.649270 0.906531
v 19.264013 -84.661494 0.538875
v 22.632061 -84.661495 3.906924
v 22.264405 -84.649270 4.005437
v 22.228211 -84.661495 3.983337
v 21.893294 -84.612824 4.104876
v 21.817482 -84.661495 3.998705
v 21.508359 -84.551472 4.208019
v 21.409051 -84.661495 3.952686
v 21.098447 -84.463115 4.317855
v 21.012041 -84.661495 3.846307
v 20.798371 -84.551472 4.017778
v 20.635320 -84.661495 3.681945
v 20.516579 -84.612823 3.735987
v 20.287303 -84.661494 3.463272
v 20.244907 -84.649270 3.464314
v 19.975765 -84.661494 3.195172
v 24.668386 -84.661495 1.147802
v 24.774557 -84.612824 1.223614
v 24.653018 -84.661495 1.558531
v 24.675118 -84.649270 1.594725
v 24.576605 -84.661495 1.962381
v 23.383397 -84.661495 3.579120
v 23.370828 -84.612824 3.708972
v 23.020011 -84.661495 3.771175
v 22.999716 -84.649270 3.808411
v 22.632061 -84.661495 3.906924
v 24.165674 -84.463115 3.495994
v 24.165675 -82.459874 3.495994
v 23.755762 -84.551472 3.605830
v 23.755763 -82.371517 3.605830
v 23.370828 -84.612824 3.708972
v 23.370828 -82.310166 3.708973
v 22.999716 -84.649270 3.808411
v 22.999717 -82.273719 3.808412
v 22.632061 -84.661495 3.906924
v 22.632061 -82.261495 3.906925
v 22.264405 -84.649270 4.005437
v 22.264406 -82.273719 4.005438
v 21.893294 -84.612824 4.104876
v 21.893294 -82.310166 4.104877
v 21.508359 -84.551472 4.208019
v 21.508360 -82.371517 4.208019
v 21.098447 -84.463115 4.317855
v 21.098448 -82.459874 4.317855
v 21.098447 -84.463115 4.317855
v 21.098448 -82.459874 4.317855
v 20.798371 -84.551472 4.017778
v 20.798371 -82.371517 4.017778
v 20.516579 -84.612823 3.735987
v 20.516580 -82.310165 3.735987
v 20.244907 -84.649270 3.464314
v 20.244907 -82.273719 3.464314
v 19.975765 -84.661494 3.195172
v 19.975765 -82.261494 3.195172
v 19.706622 -84.649270 2.926029
v 19.706622 -82.273719 2.926029
v 19.434950 -84.612823 2.654357
v 19.434950 -82.310165 2.654357
v 19.153158 -84.551472 2.372565
v 19.153159 -82.371517 2.372565
v 18.853082 -84.463115 2.072489
v 18.853082 -82.459874 2.072489
v 18.853082 -84.463115 2.072489
v 18.853082 -82.459874 2.072489
v 18.962918 -84.551472 1.662577
v 18.962918 -82.371516 1.662577
v 19.066060 -84.612823 1.277642
v 19.066061 -82.310165 1.277642
v 19.165500 -84.649270 0.906531
v 19.165500 -82.273719 0.906531
v 19.264013 -84.661494 0.538875
v 19.264013 -82.261494 0.538875
v 19.362526 -82.273719 0.171220
v 19.362526 -84.649270 0.171220
v 19.461965 -82.310165 -0.199891
v 19.461965 -84.612823 -0.199892
v 19.565108 -82.371516 -0.584826
v 19.565108 -84.551472 -0.584826
v 19.674944 -82.459873 -0.994738
v 19.674944 -84.463115 -0.994738
v 24.675119 -82.273719 1.594725
v 24.576605 -82.261495 1.962381
v 24.576605 -84.661495 1.962381
v 24.675118 -84.649270 1.594725
v 24.774558 -82.310166 1.223614
v 24.478092 -82.273719 2.330037
v 24.478092 -84.649270 2.330036
v 24.378653 -82.310166 2.701148
v 24.378653 -84.612824 2.701148
v 24.275510 -82.371517 3.086082
v 24.275510 -84.551472 3.086082
v 24.165675 -82.459874 3.495994
v 24.165674 -84.463115 3.495994
v 24.774557 -84.612824 1.223614
v 24.877701 -82.371517 0.838680
v 24.877700 -84.551472 0.838679
v 24.987536 -82.459874 0.428768
v 24.987536 -84.463115 0.428767
v 24.133996 -82.273719 -0.424773
v 24.133996 -84.649270 -0.424773
v 23.864854 -82.261494 -0.693915
v 24.405668 -84.612824 -0.153101
v 23.864853 -84.661495 -0.693916
v 23.595711 -82.273719 -0.963058
v 23.595711 -84.649270 -0.963058
v 23.324039 -82.310166 -1.234730
v 23.324038 -84.612823 -1.234731
v 23.042247 -82.371517 -1.516522
v 23.042247 -84.551472 -1.516522
v 22.742171 -82.459874 -1.816598
v 22.742171 -84.463115 -1.816599
v 24.405668 -82.310166 -0.153100
v 24.687460 -84.551472 0.128691
v 24.687460 -82.371517 0.128691
v 24.987536 -84.463115 0.428767
v 24.987536 -82.459874 0.428768
v 21.576213 -82.273719 -1.504181
v 21.576213 -84.649270 -1.504181
v 21.208557 -82.261494 -1.405668
v 21.947324 -84.612823 -1.603620
v 21.208557 -84.661494 -1.405668
v 20.840902 -82.273719 -1.307155
v 20.840901 -84.649270 -1.307155
v 20.469790 -82.310165 -1.207716
v 20.469790 -84.612823 -1.207716
v 20.084856 -82.371516 -1.104573
v 20.084856 -84.551472 -1.104574
v 19.674944 -82.459873 -0.994738
v 19.674944 -84.463115 -0.994738
v 21.947324 -82.310165 -1.603620
v 22.332258 -84.551472 -1.706763
v 22.332259 -82.371517 -1.706763
v 22.742171 -84.463115 -1.816599
v 22.742171 -82.459874 -1.816598
f 1 2 3
f 1 4 2
f 2 4 58
f 4 57 58
f 5 6 7
f 5 8 6
f 5 7 245
f 6 8 9
f 8 10 9
f 9 10 11
f 10 12 11
f 11 12 13
f 12 14 13
f 13 14 15
f 14 16 15
f 15 16 17
f 16 18 17
f 17 18 19
f 18 20 19
f 19 20 21
f 20 22 21
f 21 22 23
f 22 24 23
f 23 25 26
f 23 24 25
f 25 27 26
f 26 27 28
f 27 29 28
f 28 29 30
f 29 31 30
f 30 31 32
f 31 33 32
f 32 33 34
f 33 35 34
f 34 35 36
f 35 37 36
f 36 37 38
f 37 39 38
f 38 39 40
f 39 41 40
f 40 41 42
f 41 43 42
f 42 44 45
f 42 43 44
f 44 46 45
f 45 46 47
f 46 48 47
f 47 48 49
f 48 50 49
f 49 50 51
f 50 52 51
f 51 52 53
f 52 54 53
f 53 54 55
f 54 56 55
f 55 56 57
f 56 58 57
f 59 60 61
f 59 61 62
f 59 63 60
f 60 63 64
f 61 112 62
f 62 112 111
f 63 65 64
f 64 65 66
f 65 67 66
f 66 67 68
f 67 69 68
f 68 69 70
f 69 71 70
f 70 71 72
f 71 73 72
f 72 73 74
f 73 75 74
f 74 75 76
f 75 77 76
f 76 77 78
f 77 79 78
f 78 79 80
f 79 81 80
f 80 81 82
f 81 83 82
f 82 83 84
f 83 85 84
f 84 85 86
f 85 246 86
f 86 246 247
f 87 88 89
f 87 89 90
f 87 91 88
f 88 91 92
f 91 93 92
f 92 93 94
f 93 95 94
f 94 95 96
f 95 97 96
f 96 97 98
f 97 99 98
f 98 99 100
f 99 101 100
f 100 101 102
f 101 103 102
f 102 103 104
f 103 105 104
f 104 105 106
f 105 107 106
f 106 107 108
f 107 109 108
f 108 109 110
f 109 111 110
f 110 111 112
f 113 114 115
f 113 316 315
f 113 115 316
f 114 248 115
f 115 248 249
f 116 117 118
f 116 119 117
f 116 118 319
f 117 119 120
f 119 121 120
f 120 121 122
f 121 123 122
f 122 123 124
f 123 125 124
f 124 125 126
f 125 127 126
f 126 127 128
f 127 129 128
f 128 129 130
f 129 131 130
f 130 131 132
f 131 133 132
f 132 133 134
f 133 135 134
f 134 136 137
f 134 135 136
f 136 138 137
f 137 138 139
f 138 140 139
f 139 140 141
f 140 142 141
f 141 142 143
f 142 144 143
f 143 144 145
f 144 146 145
f 145 146 147
f 146 148 147
f 147 148 149
f 148 150 149
f 149 150 151
f 150 152 151
f 151 152 153
f 152 154 153
f 153 155 156
f 153 154 155
f 155 157 156
f 156 157 158
f 157 159 158
f 158 159 160
f 159 161 160
f 160 161 162
f 161 163 162
f 162 163 164
f 163 165 164
f 164 165 166
f 165 167 166
f 166 167 168
f 167 169 168
f 168 169 170
f 169 171 170
f 170 171 317
f 171 318 317
f 172 173 174
f 172 388 387
f 172 174 388
f 173 320 174
f 174 320 321
f 175 176 177
f 175 177 178
f 175 179 176
f 176 179 389
f 177 184 178
f 178 184 183
f 179 390 389
f 180 181 182
f 180 183 181
f 181 183 184
f 185 186 187
f 185 187 188
f 185 189 186
f 186 189 409
f 187 194 188
f 188 194 193
f 189 410 409
f 190 191 192
f 190 193 191
f 191 193 194
f 195 196 197
f 195 197 198
f 195 199 196
f 196 199 429
f 197 204 198
f 198 204 203
f 199 430 429
f 200 201 202
f 200 203 201
f 201 203 204
f 205 206 207
f 205 207 208
f 205 209 206
f 206 209 434
f 207 214 208
f 208 214 213
f 209 435 434
f 210 211 212
f 210 213 211
f 211 213 214
f 215 216 217
f 215 217 218
f 215 219 216
f 216 219 454
f 217 224 218
f 218 224 223
f 219 455 454
f 220 221 222
f 220 223 221
f 221 223 224
f 225 226 227
f 225 227 228
f 225 229 226
f 226 229 489
f 227 234 228
f 228 234 233
f 229 490 489
f 230 231 232
f 230 233 231
f 231 233 234
f 235 236 237
f 235 237 238
f 235 239 236
f 236 239 494
f 237 244 238
f 238 244 243
f 239 495 494
f 240 241 242
f 240 243 241
f 241 243 244
f 248 250 249
f 249 250 251
f 250 252 251
f 251 252 253
f 251 253 254
f 253 255 254
f 254 255 256
f 255 257 256
f 256 257 258
f 257 259 258
f 258 259 260
f 258 260 261
f 260 262 261
f 261 262 263
f 262 264 263
f 263 264 265
f 263 265 266
f 265 267 266
f 266 267 268
f 267 269 268
f 268 269 270
f 269 271 270
f 270 271 272
f 270 272 273
f 272 274 273
f 273 274 275
f 274 276 275
f 275 276 277
f 276 278 277
f 277 278 279
f 277 279 280
f 279 281 280
f 280 281 282
f 281 283 282
f 282 283 284
f 282 284 285
f 284 286 285
f 285 286 287
f 286 288 287
f 287 288 289
f 287 289 290
f 289 291 290
f 290 291 292
f 291 293 292
f 292 293 294
f 293 295 294
f 294 295 296
f 294 296 297
f 296 298 297
f 297 298 299
f 298 300 299
f 299 300 301
f 299 301 302
f 301 303 302
f 302 303 304
f 303 305 304
f 304 305 306
f 305 307 306
f 306 307 308
f 306 308 309
f 308 310 309
f 309 310 311
f 310 312 311
f 311 312 313
f 312 314 313
f 313 314 315
f 313 315 316
f 320 322 321
f 321 322 323
f 322 324 323
f 323 324 325
f 323 325 326
f 325 327 326
f 326 327 328
f 327 329 328
f 328 329 330
f 329 331 330
f 330 331 332
f 330 332 333
f 332 334 333
f 333 334 335
f 334 336 335
f 335 336 337
f 336 338 337
f 337 338 339
f 337 339 340
f 339 341 340
f 340 341 342
f 341 343 342
f 342 343 344
f 342 344 345
f 344 346 345
f 345 346 347
f 346 348 347
f 347 348 349
f 347 349 350
f 349 351 350
f 350 351 352
f 351 353 352
f 352 353 354
f 353 355 354
f 354 355 356
f 354 356 357
f 356 358 357
f 357 358 359
f 358 360 359
f 359 360 361
f 359 361 362
f 361 363 362
f 362 363 364
f 363 365 364
f 364 365 366
f 365 367 366
f 366 367 368
f 366 368 369
f 368 370 369
f 369 370 371
f 370 372 371
f 371 372 373
f 372 374 373
f 373 374 375
f 373 375 376
f 375 377 376
f 376 377 378
f 377 379 378
f 378 379 380
f 378 380 381
f 380 382 381
f 381 382 383
f 382 384 383
f 383 384 385
f 383 385 386
f 385 387 386
f 386 387 388
f 389 390 391
f 390 392 391
f 391 392 393
f 394 395 396
f 395 397 396
f 396 397 398
f 397 399 398
f 398 399 400
f 399 401 400
f 400 401 402
f 401 403 402
f 402 403 404
f 403 405 404
f 404 405 406
f 405 407 406
f 406 407 408
f 409 410 411
f 410 412 411
f 411 412 413
f 414 415 416
f 415 417 416
f 416 417 418
f 417 419 418
f 418 419 420
f 419 421 420
f 420 421 422
f 421 423 422
f 422 423 424
f 423 425 424
f 424 425 426
f 425 427 426
f 426 427 428
f 429 430 431
f 430 432 431
f 431 432 433
f 434 435 436
f 435 437 436
f 436 437 438
f 439 440 441
f 440 442 441
f 441 442 443
f 442 444 443
f 443 444 445
f 444 446 445
f 445 446 447
f 446 448 447
f 447 448 449
f 448 450 449
f 449 450 451
f 450 452 451
f 451 452 453
f 454 455 456
f 455 457 456
f 456 457 458
f 459 460 461
f 460 462 461
f 461 462 463
f 462 464 463
f 463 464 465
f 464 466 465
f 465 466 467
f 466 468 467
f 467 468 469
f 468 470 469
f 469 470 471
f 470 472 471
f 471 472 473
f 474 475 476
f 475 477 476
f 476 477 478
f 477 479 478
f 478 479 480
f 479 481 480
f 480 481 482
f 481 483 482
f 482 483 484
f 483 485 484
f 484 485 486
f 485 487 486
f 486 487 488
f 489 490 491
f 490 492 491
f 491 492 493
f 494 495 496
f 495 497 496
f 496 497 498
f 499 500 501
f 500 502 501
f 501 502 503
f 502 504 503
f 503 504 505
f 504 506 505
f 505 506 507
f 506 508 507
f 507 508 509
f 508 510 509
f 509 510 511
f 510 512 511
f 511 512 513
f 512 514 513
f 513 514 515
f 514 516 515
f 517 518 519
f 518 520 519
f 519 520 521
f 520 522 521
f 521 522 523
f 522 524 523
f 523 524 525
f 524 526 525
f 525 526 527
f 526 528 527
f 527 528 529
f 528 530 529
f 529 530 531
f 530 532 531
f 531 532 533
f 532 534 533
f 535 536 537
f 536 538 537
f 537 538 539
f 538 540 539
f 539 540 541
f 540 542 541
f 541 542 543
f 542 544 543
f 543 544 545
f 543 545 546
f 545 547 546
f 546 547 548
f 547 549 548
f 548 549 550
f 549 551 550
f 550 551 552
f 553 554 555
f 553 556 557
f 553 555 556
f 554 558 555
f 555 558 559
f 556 566 557
f 557 566 567
f 558 560 559
f 559 560 561
f 560 562 561
f 561 562 563
f 562 564 563
f 563 564 565
f 566 568 567
f 567 568 569
f 568 570 569
f 571 572 573
f 571 574 572
f 571 584 574
f 572 575 573
f 573 575 576
f 574 584 585
f 575 577 576
f 576 577 578
f 577 579 578
f 578 579 580
f 579 581 580
f 580 581 582
f 581 583 582
f 584 586 585
f 585 586 587
f 586 588 587
f 589 590 591
f 589 592 590
f 589 602 592
f 590 593 591
f 591 593 594
f 592 602 603
f 593 595 594
f 594 595 596
f 595 597 596
f 596 597 598
f 597 599 598
f 598 599 600
f 599 601 600
f 602 604 603
f 603 604 605
f 604 606 605