# Part24
# Autodesk dbId: 23
# Units: mm
o 023_Part24
v 19.599999 -11.547425 48.922629
v 22.100000 -11.700016 48.511357
v 22.100000 -11.547424 48.922628
v 19.599999 -11.700017 48.511358
v 22.100000 -11.950093 48.150955
v 19.599999 -11.950094 48.150955
v 22.100000 -12.281942 47.864067
v 19.599999 -12.281943 47.864068
v 22.100000 -12.674711 47.668720
v 19.600000 -12.674712 47.668721
v 22.100000 -13.103722 47.577188
v 19.600000 -13.103723 47.577188
v 22.100000 -13.542017 47.595222
v 19.600000 -13.542018 47.595222
v 22.100001 -13.962058 47.721689
v 19.600000 -13.962059 47.721689
v 22.100001 -14.337452 47.948642
v 19.600000 -14.337452 47.948643
v 22.100001 -14.644610 48.261823
v 19.600001 -14.644611 48.261823
v 22.100001 -14.864234 48.641551
v 19.600001 -14.864235 48.641551
v 22.100001 -14.982524 49.063967
v 19.600001 -14.982525 49.063968
v 22.100001 -14.992046 49.502530
v 19.600001 -14.992047 49.502531
v 22.100001 -14.892203 49.929683
v 19.600001 -14.892204 49.929684
v 22.100001 -14.689269 50.318586
v 19.600001 -14.689269 50.318587
v 22.100001 -14.395993 50.644804
v 19.600001 -14.395994 50.644804
v 22.100001 -14.030804 50.887838
v 19.600001 -14.030805 50.887838
v 22.100001 -13.616649 51.032417
v 19.600001 -13.616650 51.032418
v 22.100001 -13.179549 51.069459
v 19.600000 -13.179550 51.069459
v 22.100001 -12.746970 50.996634
v 19.600000 -12.746971 50.996634
v 22.100000 -12.346092 50.818519
v 19.600000 -12.346093 50.818520
v 22.100000 -12.002103 50.546305
v 19.600000 -12.002104 50.546306
v 22.100000 -11.736619 50.197098
v 19.600000 -11.736619 50.197098
v 22.100000 -11.566319 49.792838
v 19.600000 -11.566320 49.792838
v 22.100000 -11.501905 49.358926
v 19.599999 -11.501906 49.358927
v 22.100000 -11.547424 48.922628
v 19.599998 -8.606721 47.469969
v 19.599999 -11.700017 48.511358
v 19.599999 -11.547425 48.922629
v 19.599998 -8.934471 46.798375
v 19.599998 -9.358658 46.183131
v 19.599999 -11.950094 48.150955
v 19.599998 -9.869803 45.637981
v 19.599999 -12.281943 47.864068
v 19.599998 -10.456490 45.175101
v 19.599998 -11.105613 44.804833
v 19.600000 -12.674712 47.668721
v 19.599999 -11.802671 44.535448
v 19.599999 -12.532093 44.372962
v 19.600000 -13.103723 47.577188
v 19.599999 -13.277586 44.321006
v 19.600000 -13.542018 47.595222
v 19.600000 -14.022496 44.380739
v 19.600000 -14.750183 44.550829
v 19.600000 -13.962059 47.721689
v 19.600000 -15.444392 44.827476
v 19.600001 -16.089615 45.204498
v 19.600000 -14.337452 47.948643
v 19.600001 -16.671439 45.673476
v 19.600001 -14.644611 48.261823
v 19.600001 -17.176867 46.223931
v 19.600002 -17.594609 46.843569
v 19.600001 -14.864235 48.641551
v 19.600002 -17.915332 47.518547
v 19.600002 -18.131874 48.233787
v 19.600001 -14.982525 49.063968
v 19.600002 -18.239395 48.973313
v 19.600001 -14.992047 49.502531
v 19.600002 -18.235496 49.720604
v 19.600002 -18.120262 50.458967
v 19.600001 -14.892204 49.929684
v 19.600002 -17.896267 51.171908
v 19.600002 -17.568516 51.843502
v 19.600001 -14.689269 50.318587
v 19.600002 -17.144330 52.458746
v 19.600001 -14.395994 50.644804
v 19.600002 -16.633185 53.003896
v 19.600002 -16.046498 53.466775
v 19.600001 -14.030805 50.887838
v 19.600002 -15.397375 53.837043
v 19.600002 -14.700317 54.106429
v 19.600001 -13.616650 51.032418
v 19.600001 -13.970894 54.268915
v 19.600000 -13.179550 51.069459
v 19.600001 -13.225402 54.320871
v 19.600001 -12.480492 54.261137
v 19.600000 -12.746971 50.996634
v 19.600000 -11.752805 54.091048
v 19.600000 -11.058596 53.814401
v 19.600000 -12.346093 50.818520
v 19.600000 -10.413373 53.437378
v 19.600000 -12.002104 50.546306
v 19.599999 -9.831549 52.968401
v 19.599999 -9.326121 52.417946
v 19.600000 -11.736619 50.197098
v 19.599999 -8.908379 51.798308
v 19.599998 -8.587655 51.123330
v 19.600000 -11.566320 49.792838
v 19.599998 -8.371114 50.408090
v 19.599999 -11.547425 48.922629
v 19.599999 -11.501906 49.358927
v 19.599998 -8.267492 48.921273
v 19.599998 -8.263592 49.668564
v 19.599998 -8.382726 48.182910
v 19.599998 -8.267492 48.921273
v 22.099998 -8.267491 48.921273
v 19.599998 -8.382726 48.182910
v 22.099999 -8.263592 49.668564
v 22.099998 -8.382725 48.182910
v 19.599998 -8.382726 48.182910
v 22.099998 -8.382725 48.182910
v 19.599998 -8.606721 47.469969
v 22.099998 -8.606720 47.469968
v 19.599998 -8.934471 46.798375
v 22.099998 -8.934471 46.798375
v 19.599998 -9.358658 46.183131
v 22.099998 -9.358657 46.183131
v 19.599998 -9.869803 45.637981
v 22.099998 -9.869802 45.637980
v 19.599998 -10.456490 45.175101
v 22.099999 -10.456489 45.175101
v 19.599998 -11.105613 44.804833
v 22.099999 -11.105612 44.804833
v 19.599999 -11.802671 44.535448
v 22.099999 -11.802670 44.535447
v 19.599999 -12.532093 44.372962
v 22.099999 -12.532093 44.372961
v 19.599999 -13.277586 44.321006
v 22.100000 -13.277585 44.321005
v 19.600000 -14.022496 44.380739
v 22.100000 -14.022495 44.380739
v 19.600000 -14.750183 44.550829
v 22.100000 -14.750182 44.550829
v 19.600000 -15.444392 44.827476
v 22.100001 -15.444391 44.827475
v 19.600001 -16.089615 45.204498
v 22.100001 -16.089614 45.204498
v 19.600001 -16.671439 45.673476
v 22.100001 -16.671438 45.673475
v 19.600001 -17.176867 46.223931
v 22.100002 -17.176866 46.223931
v 19.600002 -17.594609 46.843569
v 22.100002 -17.594608 46.843568
v 19.600002 -17.915332 47.518547
v 22.100002 -17.915331 47.518546
v 19.600002 -18.131874 48.233787
v 22.100003 -18.131873 48.233786
v 19.600002 -18.239395 48.973313
v 22.100003 -18.239395 48.973312
v 19.600002 -18.235496 49.720604
v 22.100003 -18.235495 49.720603
v 19.600002 -18.120262 50.458967
v 22.100003 -18.120261 50.458966
v 19.600002 -17.896267 51.171908
v 22.100003 -17.896266 51.171907
v 19.600002 -17.568516 51.843502
v 22.100003 -17.568515 51.843501
v 19.600002 -17.144330 52.458746
v 22.100003 -17.144329 52.458745
v 19.600002 -16.633185 53.003896
v 22.100003 -16.633184 53.003895
v 19.600002 -16.046498 53.466775
v 22.100003 -16.046497 53.466775
v 19.600002 -15.397375 53.837043
v 22.100002 -15.397374 53.837043
v 19.600002 -14.700317 54.106429
v 22.100002 -14.700316 54.106429
v 19.600001 -13.970894 54.268915
v 22.100002 -13.970894 54.268915
v 19.600001 -13.225402 54.320871
v 22.100002 -13.225401 54.320871
v 19.600001 -12.480492 54.261137
v 22.100001 -12.480491 54.261137
v 19.600000 -11.752805 54.091048
v 22.100001 -11.752804 54.091047
v 19.600000 -11.058596 53.814401
v 22.100000 -11.058595 53.814400
v 19.600000 -10.413373 53.437378
v 22.100000 -10.413372 53.437378
v 19.599999 -9.831549 52.968401
v 22.100000 -9.831548 52.968400
v 19.599999 -9.326121 52.417946
v 22.099999 -9.326120 52.417945
v 19.599999 -8.908379 51.798308
v 22.099999 -8.908378 51.798307
v 19.599998 -8.587655 51.123330
v 22.099999 -8.587655 51.123330
v 19.599998 -8.371114 50.408090
v 22.099999 -8.371113 50.408089
v 19.599998 -8.263592 49.668564
v 22.100000 -11.700016 48.511357
v 22.099998 -8.606720 47.469968
v 22.100000 -11.547424 48.922628
v 22.099998 -9.358657 46.183131
v 22.099998 -8.934471 46.798375
v 22.099998 -8.382725 48.182910
v 22.099998 -8.267491 48.921273
v 22.100000 -11.501905 49.358926
v 22.100000 -11.950093 48.150955
v 22.099998 -9.869802 45.637980
v 22.100000 -12.281942 47.864067
v 22.099999 -10.456489 45.175101
v 22.099999 -11.105612 44.804833
v 22.100000 -12.674711 47.668720
v 22.099999 -11.802670 44.535447
v 22.099999 -12.532093 44.372961
v 22.100000 -13.103722 47.577188
v 22.100000 -13.277585 44.321005
v 22.100000 -13.542017 47.595222
v 22.100000 -14.022495 44.380739
v 22.100000 -14.750182 44.550829
v 22.100001 -13.962058 47.721689
v 22.100001 -15.444391 44.827475
v 22.100001 -16.089614 45.204498
v 22.100001 -14.337452 47.948642
v 22.100001 -16.671438 45.673475
v 22.100001 -14.644610 48.261823
v 22.100002 -17.176866 46.223931
v 22.100002 -17.594608 46.843568
v 22.100001 -14.864234 48.641551
v 22.100002 -17.915331 47.518546
v 22.100003 -18.131873 48.233786
v 22.100001 -14.982524 49.063967
v 22.100003 -18.239395 48.973312
v 22.100001 -14.992046 49.502530
v 22.100003 -18.235495 49.720603
v 22.100003 -18.120261 50.458966
v 22.100001 -14.892203 49.929683
v 22.100003 -17.896266 51.171907
v 22.100003 -17.568515 51.843501
v 22.100001 -14.689269 50.318586
v 22.100003 -17.144329 52.458745
v 22.100001 -14.395993 50.644804
v 22.100003 -16.633184 53.003895
v 22.100003 -16.046497 53.466775
v 22.100001 -14.030804 50.887838
v 22.100002 -15.397374 53.837043
v 22.100002 -14.700316 54.106429
v 22.100001 -13.616649 51.032417
v 22.100002 -13.970894 54.268915
v 22.100001 -13.179549 51.069459
v 22.100002 -13.225401 54.320871
v 22.100001 -12.480491 54.261137
v 22.100001 -12.746970 50.996634
v 22.100001 -11.752804 54.091047
v 22.100000 -11.058595 53.814400
v 22.100000 -12.346092 50.818519
v 22.100000 -10.413372 53.437378
v 22.100000 -12.002103 50.546305
v 22.100000 -9.831548 52.968400
v 22.099999 -9.326120 52.417945
v 22.100000 -11.736619 50.197098
v 22.099999 -8.908378 51.798307
v 22.099999 -8.587655 51.123330
v 22.100000 -11.566319 49.792838
v 22.099999 -8.371113 50.408089
v 22.099999 -8.263592 49.668564
f 1 2 3
f 1 4 2
f 2 4 5
f 4 6 5
f 5 6 7
f 6 8 7
f 7 8 9
f 8 10 9
f 9 10 11
f 10 12 11
f 11 12 13
f 12 14 13
f 13 14 15
f 14 16 15
f 15 16 17
f 16 18 17
f 17 18 19
f 18 20 19
f 19 20 21
f 20 22 21
f 21 22 23
f 22 24 23
f 23 24 25
f 24 26 25
f 25 26 27
f 26 28 27
f 27 28 29
f 28 30 29
f 29 30 31
f 30 32 31
f 31 32 33
f 32 34 33
f 33 34 35
f 34 36 35
f 35 36 37
f 36 38 37
f 37 38 39
f 38 40 39
f 39 40 41
f 40 42 41
f 41 42 43
f 42 44 43
f 43 44 45
f 44 46 45
f 45 46 47
f 46 48 47
f 47 48 49
f 48 50 49
f 49 50 51
f 50 115 51
f 52 53 54
f 52 55 53
f 52 54 119
f 53 56 57
f 53 55 56
f 54 116 117
f 54 117 119
f 56 58 57
f 57 58 59
f 58 60 59
f 59 61 62
f 59 60 61
f 61 63 62
f 62 64 65
f 62 63 64
f 64 66 65
f 65 66 67
f 66 68 67
f 67 69 70
f 67 68 69
f 69 71 70
f 70 72 73
f 70 71 72
f 72 74 73
f 73 74 75
f 74 76 75
f 75 77 78
f 75 76 77
f 77 79 78
f 78 80 81
f 78 79 80
f 80 82 81
f 81 82 83
f 82 84 83
f 83 85 86
f 83 84 85
f 85 87 86
f 86 88 89
f 86 87 88
f 88 90 89
f 89 90 91
f 90 92 91
f 91 93 94
f 91 92 93
f 93 95 94
f 94 96 97
f 94 95 96
f 96 98 97
f 97 98 99
f 98 100 99
f 99 101 102
f 99 100 101
f 101 103 102
f 102 104 105
f 102 103 104
f 104 106 105
f 105 106 107
f 106 108 107
f 107 109 110
f 107 108 109
f 109 111 110
f 110 112 113
f 110 111 112
f 112 114 113
f 113 114 116
f 114 118 116
f 116 118 117
f 120 121 122
f 120 123 121
f 120 205 123
f 121 124 122
f 123 205 204
f 125 126 127
f 126 128 127
f 127 128 129
f 128 130 129
f 129 130 131
f 130 132 131
f 131 132 133
f 132 134 133
f 133 134 135
f 134 136 135
f 135 136 137
f 136 138 137
f 137 138 139
f 138 140 139
f 139 140 141
f 140 142 141
f 141 142 143
f 142 144 143
f 143 144 145
f 144 146 145
f 145 146 147
f 146 148 147
f 147 148 149
f 148 150 149
f 149 150 151
f 150 152 151
f 151 152 153
f 152 154 153
f 153 154 155
f 154 156 155
f 155 156 157
f 156 158 157
f 157 158 159
f 158 160 159
f 159 160 161
f 160 162 161
f 161 162 163
f 162 164 163
f 163 164 165
f 164 166 165
f 165 166 167
f 166 168 167
f 167 168 169
f 168 170 169
f 169 170 171
f 170 172 171
f 171 172 173
f 172 174 173
f 173 174 175
f 174 176 175
f 175 176 177
f 176 178 177
f 177 178 179
f 178 180 179
f 179 180 181
f 180 182 181
f 181 182 183
f 182 184 183
f 183 184 185
f 184 186 185
f 185 186 187
f 186 188 187
f 187 188 189
f 188 190 189
f 189 190 191
f 190 192 191
f 191 192 193
f 192 194 193
f 193 194 195
f 194 196 195
f 195 196 197
f 196 198 197
f 197 198 199
f 198 200 199
f 199 200 201
f 200 202 201
f 201 202 203
f 202 204 203
f 203 204 205
f 206 207 208
f 206 209 210
f 206 210 207
f 206 214 209
f 207 211 208
f 208 211 212
f 208 212 213
f 209 214 215
f 212 272 213
f 213 271 270
f 213 272 271
f 214 216 215
f 215 216 217
f 216 218 217
f 216 219 218
f 218 219 220
f 219 221 220
f 219 222 221
f 221 222 223
f 222 224 223
f 223 224 225
f 224 226 225
f 224 227 226
f 226 227 228
f 227 229 228
f 227 230 229
f 229 230 231
f 230 232 231
f 231 232 233
f 232 234 233
f 232 235 234
f 234 235 236
f 235 237 236
f 235 238 237
f 237 238 239
f 238 240 239
f 239 240 241
f 240 242 241
f 240 243 242
f 242 243 244
f 243 245 244
f 243 246 245
f 245 246 247
f 246 248 247
f 247 248 249
f 248 250 249
f 248 251 250
f 250 251 252
f 251 253 252
f 251 254 253
f 253 254 255
f 254 256 255
f 255 256 257
f 256 258 257
f 256 259 258
f 258 259 260
f 259 261 260
f 259 262 261
f 261 262 263
f 262 264 263
f 263 264 265
f 264 266 265
f 264 267 266
f 266 267 268
f 267 269 268
f 267 270 269
f 269 270 271