# Part24
# Autodesk dbId: 24
# Units: mm
o 024_Part24
v -14.910000 63.992148 22.178995
v -12.410000 64.277535 22.512135
v -12.410000 63.992147 22.178995
v -14.910000 64.277536 22.512135
v -12.410000 64.636806 22.763835
v -14.910000 64.636806 22.763835
v -12.410000 65.047384 22.918281
v -14.910000 65.047384 22.918281
v -12.410000 65.483472 22.965767
v -14.910000 65.483473 22.965767
v -12.410000 65.917670 22.903312
v -14.910000 65.917670 22.903311
v -12.410000 66.322694 22.734837
v -14.910000 66.322694 22.734837
v -12.410000 66.673096 22.470931
v -14.910000 66.673096 22.470930
v -12.410000 66.946858 22.128174
v -14.910000 66.946858 22.128173
v -12.410000 67.126779 21.728103
v -14.910000 67.126780 21.728103
v -12.410000 67.201555 21.295857
v -14.910000 67.201555 21.295857
v -12.410000 67.166486 20.858595
v -14.910000 67.166486 20.858595
v -12.410000 67.023776 20.443791
v -14.910000 67.023776 20.443791
v -12.410000 66.782392 20.077510
v -14.910000 66.782392 20.077510
v -12.410000 66.457501 19.782766
v -14.910000 66.457501 19.782766
v -12.410000 66.069517 19.578079
v -14.910000 66.069517 19.578079
v -12.410000 65.642819 19.476311
v -14.910000 65.642819 19.476310
v -12.410000 65.204218 19.483855
v -14.910000 65.204218 19.483854
v -12.410000 64.781272 19.600237
v -14.910000 64.781272 19.600237
v -12.410000 64.400557 19.818146
v -14.910000 64.400557 19.818146
v -12.410000 64.085994 20.123889
v -14.910000 64.085994 20.123889
v -12.410000 63.857349 20.498255
v -14.910000 63.857350 20.498254
v -12.410000 63.728989 20.917720
v -14.910000 63.728989 20.917720
v -12.410000 63.708978 21.355930
v -14.910000 63.708978 21.355930
v -12.410000 63.798574 21.785349
v -14.910000 63.798574 21.785349
v -12.410000 63.992147 22.178995
v -14.910000 61.735133 24.558878
v -14.910000 64.277536 22.512135
v -14.910000 63.992148 22.178995
v -14.910000 62.274889 25.075717
v -14.910000 62.885647 25.506336
v -14.910000 64.636806 22.763835
v -14.910000 63.553764 25.841117
v -14.910000 65.047384 22.918281
v -14.910000 64.264315 26.072582
v -14.910000 65.001428 26.195558
v -14.910000 65.483473 22.965767
v -14.910000 65.748637 26.207300
v -14.910000 66.489250 26.107546
v -14.910000 65.917670 22.903311
v -14.910000 67.206723 25.898522
v -14.910000 66.322694 22.734837
v -14.910000 67.885030 25.584900
v -14.910000 68.509017 25.173685
v -14.910000 66.673096 22.470930
v -14.910000 69.064746 24.674061
v -14.910000 69.539804 24.097191
v -14.910000 66.946858 22.128173
v -14.910000 69.923577 23.455960
v -14.910000 67.126780 21.728103
v -14.910000 70.207494 22.764693
v -14.910000 70.385211 22.038832
v -14.910000 67.201555 21.295857
v -14.910000 70.452759 21.294590
v -14.910000 70.408630 20.548593
v -14.910000 67.166486 20.858595
v -14.910000 70.253808 19.817506
v -14.910000 67.023776 20.443791
v -14.909999 69.991753 19.117659
v -14.909999 69.628317 18.464686
v -14.910000 66.782392 20.077510
v -14.909999 69.171621 17.873174
v -14.910000 68.631865 17.356336
v -14.910000 66.457501 19.782766
v -14.910000 68.021107 16.925716
v -14.910000 66.069517 19.578079
v -14.910000 67.352990 16.590935
v -14.910000 66.642439 16.359471
v -14.910000 65.642819 19.476310
v -14.910000 65.905326 16.236494
v -14.910000 65.158117 16.224752
v -14.910000 65.204218 19.483854
v -14.910000 64.417504 16.324507
v -14.910000 64.781272 19.600237
v -14.910000 63.700031 16.533530
v -14.910000 63.021724 16.847152
v -14.910000 64.400557 19.818146
v -14.910000 62.397737 17.258368
v -14.910000 61.842007 17.757991
v -14.910000 64.085994 20.123889
v -14.910000 61.366950 18.334861
v -14.910000 63.857350 20.498254
v -14.910000 60.983177 18.976092
v -14.910000 60.699260 19.667359
v -14.910000 63.728989 20.917720
v -14.910000 60.521543 20.393221
v -14.910000 60.453994 21.137462
v -14.910000 63.708978 21.355930
v -14.910000 60.498124 21.883459
v -14.910000 63.992148 22.178995
v -14.910000 63.798574 21.785349
v -14.910000 60.915001 23.314393
v -14.910000 60.652946 22.614547
v -14.910000 61.278436 23.967366
v -14.910000 60.915001 23.314393
v -12.410000 60.915001 23.314394
v -14.910000 61.278436 23.967366
v -12.410000 60.652945 22.614547
v -12.410000 61.278436 23.967366
v -14.910000 61.278436 23.967366
v -12.410000 61.278436 23.967366
v -14.910000 61.735133 24.558878
v -12.410000 61.735133 24.558879
v -14.910000 62.274889 25.075717
v -12.410000 62.274889 25.075717
v -14.910000 62.885647 25.506336
v -12.410000 62.885647 25.506337
v -14.910000 63.553764 25.841117
v -12.410000 63.553764 25.841118
v -14.910000 64.264315 26.072582
v -12.410000 64.264315 26.072582
v -14.910000 65.001428 26.195558
v -12.410000 65.001428 26.195558
v -14.910000 65.748637 26.207300
v -12.410000 65.748636 26.207300
v -14.910000 66.489250 26.107546
v -12.410000 66.489249 26.107546
v -14.910000 67.206723 25.898522
v -12.410000 67.206723 25.898523
v -14.910000 67.885030 25.584900
v -12.410000 67.885029 25.584900
v -14.910000 68.509017 25.173685
v -12.410000 68.509017 25.173685
v -14.910000 69.064746 24.674061
v -12.410000 69.064746 24.674061
v -14.910000 69.539804 24.097191
v -12.410000 69.539804 24.097191
v -14.910000 69.923577 23.455960
v -12.410000 69.923577 23.455961
v -14.910000 70.207494 22.764693
v -12.410000 70.207493 22.764694
v -14.910000 70.385211 22.038832
v -12.410000 70.385211 22.038832
v -14.910000 70.452759 21.294590
v -12.410000 70.452759 21.294590
v -14.910000 70.408630 20.548593
v -12.410000 70.408630 20.548593
v -14.910000 70.253808 19.817506
v -12.410000 70.253808 19.817506
v -14.909999 69.991753 19.117659
v -12.409999 69.991752 19.117659
v -14.909999 69.628317 18.464686
v -12.409999 69.628317 18.464686
v -14.909999 69.171621 17.873174
v -12.409999 69.171621 17.873174
v -14.910000 68.631865 17.356336
v -12.410000 68.631865 17.356336
v -14.910000 68.021107 16.925716
v -12.410000 68.021107 16.925716
v -14.910000 67.352990 16.590935
v -12.410000 67.352990 16.590935
v -14.910000 66.642439 16.359471
v -12.410000 66.642439 16.359471
v -14.910000 65.905326 16.236494
v -12.410000 65.905326 16.236494
v -14.910000 65.158117 16.224752
v -12.410000 65.158117 16.224752
v -14.910000 64.417504 16.324507
v -12.410000 64.417504 16.324507
v -14.910000 63.700031 16.533530
v -12.410000 63.700031 16.533530
v -14.910000 63.021724 16.847152
v -12.410000 63.021724 16.847152
v -14.910000 62.397737 17.258368
v -12.410000 62.397737 17.258368
v -14.910000 61.842007 17.757991
v -12.410000 61.842007 17.757992
v -14.910000 61.366950 18.334861
v -12.410000 61.366950 18.334862
v -14.910000 60.983177 18.976092
v -12.410000 60.983176 18.976092
v -14.910000 60.699260 19.667359
v -12.410000 60.699260 19.667359
v -14.910000 60.521543 20.393221
v -12.410000 60.521542 20.393221
v -14.910000 60.453994 21.137462
v -12.410000 60.453994 21.137463
v -14.910000 60.498124 21.883459
v -12.410000 60.498124 21.883459
v -14.910000 60.652946 22.614547
v -12.410000 64.277535 22.512135
v -12.410000 61.735133 24.558879
v -12.410000 63.992147 22.178995
v -12.410000 62.885647 25.506337
v -12.410000 62.274889 25.075717
v -12.410000 61.278436 23.967366
v -12.410000 60.915001 23.314394
v -12.410000 63.798574 21.785349
v -12.410000 64.636806 22.763835
v -12.410000 63.553764 25.841118
v -12.410000 65.047384 22.918281
v -12.410000 64.264315 26.072582
v -12.410000 65.001428 26.195558
v -12.410000 65.483472 22.965767
v -12.410000 65.748636 26.207300
v -12.410000 66.489249 26.107546
v -12.410000 65.917670 22.903312
v -12.410000 67.206723 25.898523
v -12.410000 66.322694 22.734837
v -12.410000 67.885029 25.584900
v -12.410000 68.509017 25.173685
v -12.410000 66.673096 22.470931
v -12.410000 69.064746 24.674061
v -12.410000 69.539804 24.097191
v -12.410000 66.946858 22.128174
v -12.410000 69.923577 23.455961
v -12.410000 67.126779 21.728103
v -12.410000 70.207493 22.764694
v -12.410000 70.385211 22.038832
v -12.410000 67.201555 21.295857
v -12.410000 70.452759 21.294590
v -12.410000 70.408630 20.548593
v -12.410000 67.166486 20.858595
v -12.410000 70.253808 19.817506
v -12.410000 67.023776 20.443791
v -12.409999 69.991752 19.117659
v -12.409999 69.628317 18.464686
v -12.410000 66.782392 20.077510
v -12.409999 69.171621 17.873174
v -12.410000 68.631865 17.356336
v -12.410000 66.457501 19.782766
v -12.410000 68.021107 16.925716
v -12.410000 66.069517 19.578079
v -12.410000 67.352990 16.590935
v -12.410000 66.642439 16.359471
v -12.410000 65.642819 19.476311
v -12.410000 65.905326 16.236494
v -12.410000 65.158117 16.224752
v -12.410000 65.204218 19.483855
v -12.410000 64.417504 16.324507
v -12.410000 64.781272 19.600237
v -12.410000 63.700031 16.533530
v -12.410000 63.021724 16.847152
v -12.410000 64.400557 19.818146
v -12.410000 62.397737 17.258368
v -12.410000 61.842007 17.757992
v -12.410000 64.085994 20.123889
v -12.410000 61.366950 18.334862
v -12.410000 63.857349 20.498255
v -12.410000 60.983176 18.976092
v -12.410000 60.699260 19.667359
v -12.410000 63.728989 20.917720
v -12.410000 60.521542 20.393221
v -12.410000 60.453994 21.137463
v -12.410000 63.708978 21.355930
v -12.410000 60.498124 21.883459
v -12.410000 60.652945 22.614547
f 1 2 3
f 1 4 2
f 2 4 5
f 4 6 5
f 5 6 7
f 6 8 7
f 7 8 9
f 8 10 9
f 9 10 11
f 10 12 11
f 11 12 13
f 12 14 13
f 13 14 15
f 14 16 15
f 15 16 17
f 16 18 17
f 17 18 19
f 18 20 19
f 19 20 21
f 20 22 21
f 21 22 23
f 22 24 23
f 23 24 25
f 24 26 25
f 25 26 27
f 26 28 27
f 27 28 29
f 28 30 29
f 29 30 31
f 30 32 31
f 31 32 33
f 32 34 33
f 33 34 35
f 34 36 35
f 35 36 37
f 36 38 37
f 37 38 39
f 38 40 39
f 39 40 41
f 40 42 41
f 41 42 43
f 42 44 43
f 43 44 45
f 44 46 45
f 45 46 47
f 46 48 47
f 47 48 49
f 48 50 49
f 49 50 51
f 50 115 51
f 52 53 54
f 52 55 53
f 52 54 119
f 53 56 57
f 53 55 56
f 54 116 117
f 54 117 119
f 56 58 57
f 57 58 59
f 58 60 59
f 59 61 62
f 59 60 61
f 61 63 62
f 62 64 65
f 62 63 64
f 64 66 65
f 65 66 67
f 66 68 67
f 67 69 70
f 67 68 69
f 69 71 70
f 70 72 73
f 70 71 72
f 72 74 73
f 73 74 75
f 74 76 75
f 75 77 78
f 75 76 77
f 77 79 78
f 78 80 81
f 78 79 80
f 80 82 81
f 81 82 83
f 82 84 83
f 83 85 86
f 83 84 85
f 85 87 86
f 86 88 89
f 86 87 88
f 88 90 89
f 89 90 91
f 90 92 91
f 91 93 94
f 91 92 93
f 93 95 94
f 94 96 97
f 94 95 96
f 96 98 97
f 97 98 99
f 98 100 99
f 99 101 102
f 99 100 101
f 101 103 102
f 102 104 105
f 102 103 104
f 104 106 105
f 105 106 107
f 106 108 107
f 107 109 110
f 107 108 109
f 109 111 110
f 110 112 113
f 110 111 112
f 112 114 113
f 113 114 116
f 114 118 116
f 116 118 117
f 120 121 122
f 120 123 121
f 120 205 123
f 121 124 122
f 123 205 204
f 125 126 127
f 126 128 127
f 127 128 129
f 128 130 129
f 129 130 131
f 130 132 131
f 131 132 133
f 132 134 133
f 133 134 135
f 134 136 135
f 135 136 137
f 136 138 137
f 137 138 139
f 138 140 139
f 139 140 141
f 140 142 141
f 141 142 143
f 142 144 143
f 143 144 145
f 144 146 145
f 145 146 147
f 146 148 147
f 147 148 149
f 148 150 149
f 149 150 151
f 150 152 151
f 151 152 153
f 152 154 153
f 153 154 155
f 154 156 155
f 155 156 157
f 156 158 157
f 157 158 159
f 158 160 159
f 159 160 161
f 160 162 161
f 161 162 163
f 162 164 163
f 163 164 165
f 164 166 165
f 165 166 167
f 166 168 167
f 167 168 169
f 168 170 169
f 169 170 171
f 170 172 171
f 171 172 173
f 172 174 173
f 173 174 175
f 174 176 175
f 175 176 177
f 176 178 177
f 177 178 179
f 178 180 179
f 179 180 181
f 180 182 181
f 181 182 183
f 182 184 183
f 183 184 185
f 184 186 185
f 185 186 187
f 186 188 187
f 187 188 189
f 188 190 189
f 189 190 191
f 190 192 191
f 191 192 193
f 192 194 193
f 193 194 195
f 194 196 195
f 195 196 197
f 196 198 197
f 197 198 199
f 198 200 199
f 199 200 201
f 200 202 201
f 201 202 203
f 202 204 203
f 203 204 205
f 206 207 208
f 206 209 210
f 206 210 207
f 206 214 209
f 207 211 208
f 208 211 212
f 208 212 213
f 209 214 215
f 212 272 213
f 213 271 270
f 213 272 271
f 214 216 215
f 215 216 217
f 216 218 217
f 216 219 218
f 218 219 220
f 219 221 220
f 219 222 221
f 221 222 223
f 222 224 223
f 223 224 225
f 224 226 225
f 224 227 226
f 226 227 228
f 227 229 228
f 227 230 229
f 229 230 231
f 230 232 231
f 231 232 233
f 232 234 233
f 232 235 234
f 234 235 236
f 235 237 236
f 235 238 237
f 237 238 239
f 238 240 239
f 239 240 241
f 240 242 241
f 240 243 242
f 242 243 244
f 243 245 244
f 243 246 245
f 245 246 247
f 246 248 247
f 247 248 249
f 248 250 249
f 248 251 250
f 250 251 252
f 251 253 252
f 251 254 253
f 253 254 255
f 254 256 255
f 255 256 257
f 256 258 257
f 256 259 258
f 258 259 260
f 259 261 260
f 259 262 261
f 261 262 263
f 262 264 263
f 263 264 265
f 264 266 265
f 264 267 266
f 266 267 268
f 267 269 268
f 267 270 269
f 269 270 271