# ANSI B18.3.4M - M3 x 0.5 x 8(1)
# Autodesk dbId: 25
# Units: mm
o 025_ANSI_B18.3.4M_-_M3_x_0.5_x_8(1)
v 15.690000 -13.859353 50.800972
v 15.693408 -13.939769 50.736607
v 15.693407 -13.566083 50.863299
v 15.690000 -13.455580 50.907867
v 15.690000 -14.221703 50.593216
v 15.690000 -14.731528 48.713076
v 15.693408 -14.513118 48.379581
v 15.693408 -14.707587 48.722909
v 15.690000 -14.523772 48.350727
v 15.693408 -14.239376 48.095402
v 15.690000 -14.229311 48.054496
v 15.693407 -13.903562 47.888228
v 15.690000 -13.868214 47.844571
v 15.693407 -13.526776 47.771077
v 15.690000 -13.465088 47.735258
v 15.693408 -13.132693 47.751308
v 15.690000 -13.047406 47.734006
v 15.693408 -12.746074 47.830165
v 15.690000 -12.643632 47.840901
v 15.693407 -12.391213 48.002693
v 15.690000 -12.281283 48.048658
v 15.693408 -12.090406 48.258051
v 15.690000 -11.985052 48.343119
v 15.693408 -11.862555 48.580194
v 15.690000 -11.775127 48.704216
v 15.693407 -11.721976 48.948881
v 15.690000 -11.665814 49.107342
v 15.693407 -11.677502 49.340945
v 15.690000 -11.664562 49.525024
v 15.693408 -11.731928 49.731752
v 15.690000 -11.771457 49.928797
v 15.693408 -11.881833 50.096746
v 15.690000 -11.979214 50.291146
v 15.693408 -12.117799 50.412993
v 15.690000 -12.273675 50.587377
v 15.693407 -12.425000 50.660622
v 15.690000 -12.634772 50.797302
v 15.693408 -12.784132 50.824074
v 15.690000 -13.037898 50.906616
v 15.693408 -13.172630 50.893078
v 15.790000 -13.821362 50.708470
v 15.764119 -13.551951 50.794015
v 15.764118 -13.908852 50.673014
v 15.790000 -14.161064 50.513698
v 15.790000 -13.442824 50.808684
v 15.790000 -14.739240 49.129605
v 15.764118 -14.745320 49.490390
v 15.764119 -14.740530 49.113567
v 15.790000 -14.738067 49.521182
v 15.764119 -14.656247 49.856566
v 15.790000 -14.635586 49.899113
v 15.764119 -14.478909 50.189086
v 15.790000 -14.438781 50.237641
v 15.764118 -14.224447 50.467058
v 15.693408 -14.270209 50.520964
v 15.703398 -13.929224 50.714917
v 15.703398 -14.254601 50.502578
v 15.719289 -13.920168 50.696291
v 15.703398 -13.561263 50.839667
v 15.719289 -14.241197 50.486789
v 15.740000 -13.913220 50.681999
v 15.719289 -13.557124 50.819375
v 15.740000 -14.230913 50.474674
v 15.740000 -13.553948 50.803803
v 15.764118 -13.176172 50.822456
v 15.719289 -13.174876 50.848306
v 15.740000 -13.175672 50.832434
v 15.703397 -13.173838 50.868990
v 15.690000 -14.517933 50.298755
v 15.693408 -14.536639 50.229919
v 15.703398 -14.516948 50.215992
v 15.719290 -14.500039 50.204032
v 15.740000 -14.487065 50.194855
v 15.690000 -14.727858 49.937658
v 15.693408 -14.722318 49.881758
v 15.703398 -14.699783 49.873166
v 15.719289 -14.680431 49.865787
v 15.740000 -14.665582 49.860125
v 15.690000 -14.837172 49.534532
v 15.693408 -14.815580 49.498360
v 15.703398 -14.791616 49.495642
v 15.719289 -14.771037 49.493307
v 15.740000 -14.755246 49.491516
v 15.690000 -14.838423 49.116850
v 15.693408 -14.810565 49.103813
v 15.703398 -14.786677 49.107140
v 15.719289 -14.766164 49.109997
v 15.740000 -14.750425 49.112189
v 15.693408 -14.707587 48.722909
v 15.703398 -14.685277 48.732072
v 15.690000 -14.731528 48.713076
v 15.719290 -14.666120 48.739940
v 15.740000 -14.651419 48.745978
v 15.764118 -14.642178 48.749773
v 15.790000 -14.639026 48.751068
v 15.703398 -14.493788 48.394005
v 15.703398 -14.224240 48.114180
v 15.719289 -14.477188 48.406390
v 15.703398 -14.685277 48.732072
v 15.719289 -14.211242 48.130304
v 15.740000 -14.464451 48.415894
v 15.719290 -14.666120 48.739940
v 15.740000 -14.201269 48.142677
v 15.764118 -14.194999 48.150454
v 15.764119 -14.456445 48.421868
v 15.740000 -14.651419 48.745978
v 15.790000 -14.444254 48.411365
v 15.790000 -14.639026 48.751068
v 15.764118 -14.642178 48.749773
v 15.703397 -13.893571 47.910180
v 15.719289 -13.884992 47.929030
v 15.740000 -13.878409 47.943494
v 15.764119 -13.874270 47.952587
v 15.790000 -14.168197 48.133649
v 15.703398 -13.522558 47.794823
v 15.719289 -13.518936 47.815214
v 15.740000 -13.516157 47.830861
v 15.764118 -13.514410 47.840697
v 15.790000 -13.829669 47.936844
v 15.703397 -13.134513 47.775357
v 15.719289 -13.136076 47.796009
v 15.740000 -13.137275 47.811856
v 15.764118 -13.138029 47.821817
v 15.790000 -13.451738 47.834363
v 15.703398 -12.753818 47.853006
v 15.719289 -12.760468 47.872621
v 15.740000 -12.765570 47.887671
v 15.764118 -12.768778 47.897132
v 15.790000 -13.060162 47.833189
v 15.703398 -12.404394 48.022891
v 15.719289 -12.415713 48.040235
v 15.740000 -12.424398 48.053544
v 15.764119 -12.429857 48.061910
v 15.790000 -12.681624 47.933403
v 15.703397 -12.108196 48.274336
v 15.719289 -12.123473 48.288321
v 15.740000 -12.135195 48.299051
v 15.764118 -12.142563 48.305797
v 15.790000 -12.341921 48.128175
v 15.703398 -11.883836 48.591543
v 15.719289 -11.902110 48.601289
v 15.740000 -11.916133 48.608768
v 15.764118 -11.924947 48.613469
v 15.790000 -12.064205 48.404232
v 15.703398 -11.745411 48.954581
v 15.719289 -11.765535 48.959476
v 15.740000 -11.780976 48.963232
v 15.764118 -11.790683 48.965594
v 15.790000 -11.867400 48.742761
v 15.703398 -11.701618 49.340638
v 15.719289 -11.722327 49.340375
v 15.740000 -11.738218 49.340173
v 15.764118 -11.748207 49.340046
v 15.790000 -11.764919 49.120691
v 15.703398 -11.755210 49.725457
v 15.719289 -11.775203 49.720052
v 15.740000 -11.790544 49.715905
v 15.764118 -11.800188 49.713298
v 15.790000 -11.763745 49.512268
v 15.703398 -11.902819 50.084859
v 15.719289 -11.920839 50.074652
v 15.740000 -11.934667 50.066820
v 15.764118 -11.943359 50.061896
v 15.790000 -11.863959 49.890806
v 15.703398 -12.135169 50.396261
v 15.719289 -12.150085 50.381893
v 15.740000 -12.161531 50.370868
v 15.764118 -12.168726 50.363937
v 15.790000 -12.058731 50.230508
v 15.703398 -12.437663 50.640096
v 15.719289 -12.448537 50.622470
v 15.740000 -12.456881 50.608945
v 15.764118 -12.462126 50.600442
v 15.790000 -12.334788 50.508225
v 15.703398 -12.791293 50.801043
v 15.719289 -12.797442 50.781267
v 15.740000 -12.802160 50.766091
v 15.764119 -12.805126 50.756552
v 15.790000 -12.673317 50.705030
v 15.790000 -13.051247 50.807511
v 25.383275 -13.821362 50.708470
v 15.790000 -13.442824 50.808684
v 15.790000 -13.821362 50.708470
v 25.383275 -14.161064 50.513698
v 25.383276 -13.442824 50.808684
v 15.790000 -13.051247 50.807511
v 25.383275 -13.051247 50.807510
v 15.790000 -12.673317 50.705030
v 25.383275 -12.673317 50.705029
v 15.790000 -12.334788 50.508225
v 25.383275 -12.334788 50.508224
v 15.790000 -12.058731 50.230508
v 25.383275 -12.058731 50.230508
v 15.790000 -11.863959 49.890806
v 25.383276 -11.863959 49.890806
v 15.790000 -11.763745 49.512268
v 25.383275 -11.763745 49.512268
v 15.790000 -11.764919 49.120691
v 25.383275 -11.764919 49.120691
v 15.790000 -11.867400 48.742761
v 25.383275 -11.867400 48.742761
v 15.790000 -12.064205 48.404232
v 25.383275 -12.064205 48.404232
v 15.790000 -12.341921 48.128175
v 25.383275 -12.341921 48.128175
v 15.790000 -12.681624 47.933403
v 25.383275 -12.681623 47.933403
v 15.790000 -13.060162 47.833189
v 15.790000 -12.681624 47.933403
v 25.383275 -13.060161 47.833189
v 15.790000 -13.451738 47.834363
v 25.383275 -13.451738 47.834363
v 15.790000 -13.829669 47.936844
v 25.383276 -13.829668 47.936844
v 15.790000 -14.168197 48.133649
v 25.383275 -14.168197 48.133649
v 15.790000 -14.444254 48.411365
v 25.383275 -14.444254 48.411365
v 15.790000 -14.639026 48.751068
v 25.383275 -14.639026 48.751067
v 15.790000 -14.739240 49.129605
v 25.383275 -14.739240 49.129605
v 15.790000 -14.738067 49.521182
v 25.383276 -14.738066 49.521182
v 15.790000 -14.635586 49.899113
v 25.383276 -14.635585 49.899112
v 15.790000 -14.438781 50.237641
v 25.383275 -14.438781 50.237641
v 15.790000 -14.161064 50.513698
v 15.690000 -13.799121 52.117829
v 15.690000 -14.334245 51.957250
v 15.690000 -13.859353 50.800972
v 14.040000 -13.851755 50.782472
v 14.083275 -14.307149 50.911134
v 14.083274 -13.976633 51.086527
v 14.083274 -13.618250 51.194069
v 14.040000 -14.209575 50.577312
v 14.040000 -14.709404 49.929949
v 14.040000 -14.817351 49.531862
v 14.083274 -15.122394 49.698915
v 14.040000 -14.818587 49.119401
v 14.083274 -15.160185 49.326657
v 14.040000 -14.713028 48.720675
v 14.083274 -15.124625 48.954180
v 14.040000 -13.860505 47.863026
v 14.040000 -13.462418 47.755079
v 14.083274 -13.629471 47.450036
v 14.040000 -13.049957 47.753843
v 14.083274 -13.257213 47.412245
v 14.040000 -12.651231 47.859402
v 14.083274 -12.884736 47.447804
v 14.040000 -11.793582 48.711925
v 14.040000 -11.685635 49.110012
v 14.083275 -11.380592 48.942959
v 14.040000 -11.684399 49.522473
v 14.083274 -11.342801 49.315216
v 14.040000 -11.789958 49.921199
v 14.083274 -11.378360 49.687694
v 14.040000 -12.642481 50.778848
v 14.040000 -13.040568 50.886795
v 14.083275 -12.873515 51.191838
v 14.040000 -13.453029 50.888031
v 14.083274 -13.245773 51.229628
v 15.310000 -13.799121 52.117829
v 14.981300 -13.243081 52.127650
v 14.981300 -13.790805 52.075361
v 15.310000 -13.242952 52.170924
v 14.981300 -12.695680 52.072079
v 15.310000 -12.687111 52.114496
v 14.981300 -12.169639 51.910783
v 15.310000 -12.152959 51.950713
v 14.981300 -11.685173 51.649960
v 15.310000 -11.661023 51.685869
v 14.981300 -11.260899 51.299635
v 15.310000 -11.230208 51.330142
v 14.981300 -10.913123 50.873269
v 15.310000 -10.877070 50.897203
v 14.981300 -10.655209 50.387248
v 15.310000 -10.615179 50.403688
v 14.981300 -10.497069 49.860249
v 15.310000 -10.454601 49.868565
v 14.981300 -10.444780 49.312525
v 15.310000 -10.401506 49.312395
v 14.981300 -10.500351 48.765124
v 15.310000 -10.457934 48.756555
v 14.981299 -10.661647 48.239083
v 15.310000 -10.621717 48.222403
v 14.981300 -10.922469 47.754616
v 15.310000 -10.886561 47.730467
v 14.981300 -11.272795 47.330343
v 15.310000 -11.242287 47.299652
v 14.981300 -11.699161 46.982567
v 15.310000 -11.675227 46.946514
v 14.981300 -12.185182 46.724653
v 15.310000 -12.168741 46.684623
v 14.981299 -12.712180 46.566513
v 15.310000 -12.703865 46.524045
v 14.981299 -13.259905 46.514224
v 15.310000 -13.260034 46.470950
v 14.981299 -13.807306 46.569795
v 15.310000 -13.815875 46.527378
v 14.981300 -14.333347 46.731091
v 15.310000 -14.350027 46.691161
v 14.981300 -14.817813 46.991913
v 15.310000 -14.841963 46.956004
v 14.981300 -15.242087 47.342239
v 15.310000 -15.272778 47.311731
v 14.981300 -15.589863 47.768605
v 15.310000 -15.625916 47.744671
v 15.310000 -15.887806 48.238185
v 14.981300 -15.847777 48.254626
v 15.310000 -16.048385 48.773309
v 15.310000 -16.101480 49.329478
v 14.981300 -16.058206 49.329349
v 15.310000 -16.045052 49.885319
v 14.981300 -16.002635 49.876750
v 15.310000 -15.881269 50.419471
v 14.981300 -15.841339 50.402791
v 15.310000 -15.616425 50.911407
v 14.981300 -15.580516 50.887257
v 15.310000 -15.260698 51.342222
v 14.981300 -15.230191 51.311531
v 15.310000 -14.827759 51.695360
v 14.981300 -14.803825 51.659307
v 15.310000 -14.334245 51.957250
v 14.981300 -14.317804 51.917221
v 14.981300 -15.847777 48.254626
v 15.310000 -15.887806 48.238185
v 14.981300 -16.005917 48.781624
v 14.675000 -15.881408 48.806003
v 14.083274 -14.597097 50.674631
v 14.210148 -14.476556 51.166322
v 14.411975 -14.622029 51.385457
v 14.210148 -14.093000 51.369861
v 14.675000 -14.733654 51.553605
v 14.411975 -14.192927 51.613166
v 14.675000 -14.269603 51.799860
v 14.040000 -14.502103 50.286532
v 14.083274 -14.835334 50.386105
v 14.210148 -14.813033 50.891865
v 14.411974 -14.998462 51.078409
v 14.675000 -15.140747 51.221549
v 14.083274 -15.012705 50.056646
v 14.210148 -15.089502 50.557039
v 14.411975 -15.307761 50.703823
v 14.675000 -15.475237 50.816454
v 14.210148 -15.466483 49.327575
v 14.210148 -15.422627 49.759571
v 14.411974 -15.729507 49.328364
v 14.411975 -15.680444 49.811658
v 14.210148 -15.295337 50.174710
v 14.675000 -15.878274 49.851625
v 14.411974 -15.538038 50.276093
v 14.675000 -15.724269 50.353887
v 14.210148 -15.425218 48.895325
v 14.411974 -15.683342 48.844784
v 14.675000 -15.931333 49.328968
v 14.083274 -15.017083 48.595797
v 14.210147 -15.300417 48.479430
v 14.411974 -15.543722 48.379503
v 14.675000 -15.730416 48.302827
v 14.083274 -14.841690 48.265281
v 14.040000 -14.713028 48.720675
v 14.040000 -14.507868 48.362855
v 14.083274 -14.605187 47.975333
v 14.210148 -15.096878 48.095874
v 14.083274 -15.017083 48.595797
v 14.210148 -14.822421 47.759396
v 14.411974 -15.008965 47.573968
v 14.411974 -15.316013 47.950401
v 14.675000 -15.152105 47.431683
v 14.675000 -15.484161 47.838775
v 14.040000 -14.217088 48.070327
v 14.083274 -14.316662 47.737096
v 14.210148 -14.487595 47.482928
v 14.411975 -14.634379 47.264669
v 14.675000 -14.747010 47.097193
v 14.083274 -13.987202 47.559725
v 14.210148 -14.105266 47.277093
v 14.411974 -14.206649 47.034392
v 14.675000 -14.284443 46.848161
v 14.210147 -13.258131 47.105947
v 14.210148 -13.690127 47.149802
v 14.411974 -13.258920 46.842922
v 14.411974 -13.742213 46.891986
v 14.675000 -13.782181 46.694156
v 14.675000 -13.259524 46.641097
v 14.210148 -12.825881 47.147212
v 14.411974 -12.775340 46.889088
v 14.675000 -12.736559 46.691022
v 14.083274 -12.526353 47.555347
v 14.210147 -12.409986 47.272013
v 14.411974 -12.310059 47.028708
v 14.675000 -12.233383 46.842014
v 14.083274 -12.195837 47.730740
v 14.040000 -12.293411 48.064562
v 14.083274 -11.905889 47.967243
v 14.210148 -11.689952 47.750008
v 14.210148 -12.026430 47.475552
v 14.411974 -11.504524 47.563465
v 14.411974 -11.880957 47.256417
v 14.675000 -11.362239 47.420324
v 14.675000 -11.769331 47.088269
v 14.040000 -12.000883 48.355341
v 14.083274 -11.667652 48.255768
v 14.210148 -11.413484 48.084835
v 14.411974 -11.195225 47.938051
v 14.675000 -11.027749 47.825419
v 14.083274 -11.490281 48.585227
v 14.210148 -11.207649 48.467164
v 14.411974 -10.964948 48.365781
v 14.675000 -10.778717 48.287986
v 14.210148 -11.036503 49.314298
v 14.210148 -11.080359 48.882303
v 14.411974 -10.773479 49.313510
v 14.675000 -10.624712 48.790249
v 14.411974 -10.822542 48.830216
v 14.675000 -10.571653 49.312905
v 14.210148 -11.077768 49.746549
v 14.411974 -10.819644 49.797090
v 14.675000 -10.621578 49.835871
v 14.083274 -11.485903 50.046077
v 14.210148 -11.202569 50.162444
v 14.411974 -10.959264 50.262371
v 14.675000 -10.772570 50.339047
v 14.083274 -11.661296 50.376593
v 14.040000 -11.995118 50.279019
v 14.083275 -11.897799 50.666541
v 14.210148 -11.680565 50.882477
v 14.210148 -11.406108 50.546000
v 14.411974 -11.494021 51.067906
v 14.411974 -11.186973 50.691473
v 14.675000 -11.350881 51.210191
v 14.675000 -11.018825 50.803098
v 14.040000 -12.285898 50.571547
v 14.083275 -12.186324 50.904778
v 14.210148 -12.015391 51.158946
v 14.411974 -11.868607 51.377204
v 14.675000 -11.755976 51.544680
v 14.083274 -12.515783 51.082149
v 14.210148 -12.397720 51.364780
v 14.411974 -12.296336 51.607482
v 14.675000 -12.218542 51.793713
v 14.210148 -13.244855 51.535927
v 14.210148 -12.812859 51.492071
v 14.411974 -13.244066 51.798951
v 14.675000 -12.720805 51.947718
v 14.411975 -12.760772 51.749888
v 14.675000 -13.243462 52.000777
v 14.210148 -13.677105 51.494661
v 14.411974 -13.727646 51.752786
v 14.675001 -13.766427 51.950852
v 14.040000 -13.097344 50.465302
v 14.040000 -13.851755 50.782472
v 14.040000 -13.453029 50.888031
v 14.040000 -13.040568 50.886795
v 14.040000 -12.285898 50.571547
v 14.040000 -12.183369 49.759622
v 14.040000 -12.642481 50.778848
v 14.040000 -14.165468 50.026616
v 14.040000 -14.817351 49.531862
v 14.040000 -14.709404 49.929949
v 14.040000 -14.502103 50.286532
v 14.040000 -14.209575 50.577312
v 14.040000 -14.319617 48.882251
v 14.040000 -14.217088 48.070327
v 14.040000 -14.507868 48.362855
v 14.040000 -14.713028 48.720675
v 14.040000 -14.818587 49.119401
v 14.040000 -13.405642 48.176572
v 14.040000 -12.651231 47.859402
v 14.040000 -13.049957 47.753843
v 14.040000 -13.462418 47.755079
v 14.040000 -13.860505 47.863026
v 14.040000 -12.337518 48.615257
v 14.040000 -11.685635 49.110012
v 14.040000 -11.793582 48.711925
v 14.040000 -12.000883 48.355341
v 14.040000 -12.293411 48.064562
v 14.040000 -11.995118 50.279019
v 14.040000 -11.789958 49.921199
v 14.040000 -11.684399 49.522473
v 15.080000 -12.337518 48.615257
v 15.148212 -12.296868 48.917035
v 14.040000 -12.337518 48.615257
v 15.080000 -13.405642 48.176572
v 15.148212 -13.123969 48.292257
v 14.040000 -13.405642 48.176572
v 25.383275 -12.681623 47.933403
v 15.690001 -14.827759 51.695360
v 15.690000 -14.221703 50.593216
v 15.690001 -15.260698 51.342222
v 15.690000 -14.517933 50.298755
v 15.690000 -15.616425 50.911407
v 15.690000 -14.727858 49.937658
v 15.690000 -15.881269 50.419471
v 15.690000 -16.045052 49.885319
v 15.690000 -14.837172 49.534532
v 15.690000 -16.101480 49.329478
v 15.690000 -14.838423 49.116850
v 15.690000 -16.048385 48.773309
v 15.690000 -14.731528 48.713076
v 15.690000 -15.887806 48.238185
v 15.690000 -15.625916 47.744671
v 15.690000 -14.523772 48.350727
v 15.690000 -15.272778 47.311731
v 15.690000 -14.229311 48.054496
v 15.690000 -14.841963 46.956004
v 15.690000 -13.868214 47.844571
v 15.690000 -14.350027 46.691161
v 15.690000 -13.815875 46.527378
v 15.690000 -13.465088 47.735258
v 15.690000 -13.260034 46.470950
v 15.690000 -13.047406 47.734006
v 15.690000 -12.703865 46.524045
v 15.690000 -12.643632 47.840901
v 15.690000 -12.168741 46.684623
v 15.690000 -11.675227 46.946514
v 15.690000 -12.281283 48.048658
v 15.690000 -11.242287 47.299652
v 15.690000 -11.985052 48.343119
v 15.690000 -10.886561 47.730467
v 15.690000 -11.775127 48.704216
v 15.690000 -10.621717 48.222403
v 15.690000 -10.457934 48.756555
v 15.690000 -11.665814 49.107342
v 15.690000 -10.401506 49.312395
v 15.690000 -11.664562 49.525024
v 15.690000 -10.454601 49.868564
v 15.690000 -11.771457 49.928797
v 15.690000 -10.615179 50.403688
v 15.690000 -10.877070 50.897203
v 15.690000 -11.979214 50.291146
v 15.690000 -11.230208 51.330142
v 15.690000 -12.273675 50.587377
v 15.690000 -11.661023 51.685869
v 15.690000 -12.634772 50.797302
v 15.690000 -12.152959 51.950713
v 15.690000 -12.687111 52.114496
v 15.690000 -13.037898 50.906616
v 15.690000 -13.242951 52.170924
v 15.690000 -13.455580 50.907867
v 25.383275 -14.161064 50.513698
v 25.690000 -13.975072 50.269798
v 25.383275 -13.821362 50.708470
v 25.690000 -14.196000 50.050190
v 25.690000 -13.704833 50.424742
v 25.383275 -13.821362 50.708470
v 25.690000 -13.704833 50.424742
v 25.383276 -13.442824 50.808684
v 25.690000 -13.403700 50.504464
v 25.383275 -13.051247 50.807510
v 25.690000 -13.092194 50.503531
v 25.383275 -12.673317 50.705029
v 25.690000 -12.791544 50.422005
v 25.383275 -12.334788 50.508224
v 25.690000 -12.522239 50.265444
v 25.383275 -12.058731 50.230508
v 25.690000 -12.302631 50.044516
v 25.383276 -11.863959 49.890806
v 25.690000 -12.147687 49.774277
v 25.383275 -11.763745 49.512268
v 25.690000 -12.067965 49.473144
v 25.383275 -11.764919 49.120691
v 25.690000 -12.068898 49.161638
v 25.383275 -11.867400 48.742761
v 25.690000 -12.150424 48.860988
v 25.383275 -12.064205 48.404232
v 25.690000 -12.306985 48.591683
v 25.383275 -12.341921 48.128175
v 25.690000 -12.527913 48.372075
v 25.383275 -12.681623 47.933403
v 25.690000 -12.798152 48.217131
v 25.383275 -13.060161 47.833189
v 25.690000 -13.099285 48.137409
v 25.383275 -13.451738 47.834363
v 25.690000 -13.410791 48.138342
v 25.383276 -13.829668 47.936844
v 25.690000 -13.711441 48.219868
v 25.383275 -14.168197 48.133649
v 25.690000 -13.980746 48.376429
v 25.383275 -14.444254 48.411365
v 25.690001 -14.200354 48.597357
v 25.383275 -14.639026 48.751067
v 25.690000 -14.355299 48.867596
v 25.383275 -14.739240 49.129605
v 25.690001 -14.435021 49.168729
v 25.383276 -14.738066 49.521182
v 25.690000 -14.434087 49.480235
v 25.383276 -14.635585 49.899112
v 25.690000 -14.352561 49.780885
v 25.383275 -14.438781 50.237641
v 25.690000 -13.704833 50.424742
v 25.690000 -13.975072 50.269798
v 25.690000 -13.403700 50.504464
v 25.690000 -13.092194 50.503531
v 25.690000 -14.196000 50.050190
v 25.690000 -12.791544 50.422005
v 25.690000 -14.352561 49.780885
v 25.690000 -12.522239 50.265444
v 25.690000 -14.434087 49.480235
v 25.690000 -12.302631 50.044516
v 25.690001 -14.435021 49.168729
v 25.690000 -12.147687 49.774277
v 25.690000 -14.355299 48.867596
v 25.690000 -12.067965 49.473144
v 25.690001 -14.200354 48.597357
v 25.690000 -12.068898 49.161638
v 25.690000 -13.980746 48.376429
v 25.690000 -12.150424 48.860988
v 25.690000 -13.711441 48.219868
v 25.690000 -12.306985 48.591683
v 25.690000 -13.410791 48.138342
v 25.690000 -12.527913 48.372075
v 25.690000 -13.099285 48.137409
v 25.690000 -12.798152 48.217131
v 14.675000 -15.730416 48.302827
v 14.411974 -15.543722 48.379503
v 14.210147 -15.300417 48.479430
v 15.690000 -13.799121 52.117829
v 15.310000 -13.799121 52.117829
v 15.690000 -14.334245 51.957250
v 15.310000 -13.242952 52.170924
v 15.310000 -14.334245 51.957250
v 15.690001 -14.827759 51.695360
v 15.310000 -14.827759 51.695360
v 15.690001 -15.260698 51.342222
v 15.310000 -15.260698 51.342222
v 15.690000 -15.616425 50.911407
v 15.310000 -15.616425 50.911407
v 15.690000 -15.881269 50.419471
v 15.310000 -15.881269 50.419471
v 15.690000 -16.045052 49.885319
v 15.310000 -16.045052 49.885319
v 15.690000 -16.101480 49.329478
v 15.310000 -16.101480 49.329478
v 15.690000 -16.048385 48.773309
v 15.310000 -16.048385 48.773309
v 15.690000 -15.887806 48.238185
v 15.310000 -15.887806 48.238185
v 15.690000 -15.625916 47.744671
v 15.310000 -15.625916 47.744671
v 15.690000 -15.272778 47.311731
v 15.310000 -15.272778 47.311731
v 15.690000 -14.841963 46.956004
v 15.310000 -14.841963 46.956004
v 15.690000 -14.350027 46.691161
v 15.310000 -14.350027 46.691161
v 15.690000 -13.815875 46.527378
v 15.310000 -13.815875 46.527378
v 15.690000 -13.260034 46.470950
v 15.310000 -13.260034 46.470950
v 15.690000 -12.703865 46.524045
v 15.310000 -12.703865 46.524045
v 15.690000 -12.168741 46.684623
v 15.310000 -12.168741 46.684623
v 15.690000 -12.168741 46.684623
v 15.310000 -12.168741 46.684623
v 15.690000 -11.675227 46.946514
v 15.310000 -11.675227 46.946514
v 15.690000 -11.242287 47.299652
v 15.310000 -11.242287 47.299652
v 15.690000 -10.886561 47.730467
v 15.310000 -10.886561 47.730467
v 15.690000 -10.621717 48.222403
v 15.310000 -10.621717 48.222403
v 15.690000 -10.457934 48.756555
v 15.310000 -10.457934 48.756555
v 15.690000 -10.401506 49.312395
v 15.310000 -10.401506 49.312395
v 15.690000 -10.454601 49.868564
v 15.310000 -10.454601 49.868565
v 15.690000 -10.615179 50.403688
v 15.310000 -10.615179 50.403688
v 15.690000 -10.877070 50.897203
v 15.310000 -10.877070 50.897203
v 15.690000 -11.230208 51.330142
v 15.310000 -11.230208 51.330142
v 15.690000 -11.661023 51.685869
v 15.310000 -11.661023 51.685869
v 15.690000 -12.152959 51.950713
v 15.310000 -12.152959 51.950713
v 15.690000 -12.687111 52.114496
v 15.310000 -12.687111 52.114496
v 15.690000 -13.242951 52.170924
v 15.169316 -12.260444 49.187440
v 14.040000 -12.183369 49.759622
v 15.148212 -12.224020 49.457844
v 15.080000 -12.183369 49.759622
v 15.080000 -12.183369 49.759622
v 15.148212 -12.424392 49.945716
v 14.040000 -12.183369 49.759622
v 15.169316 -12.640357 50.112462
v 14.040000 -13.097344 50.465302
v 15.148212 -12.856322 50.279209
v 15.080000 -13.097344 50.465302
v 15.080000 -13.097344 50.465302
v 15.148212 -13.379017 50.349617
v 14.040000 -13.097344 50.465302
v 15.169317 -13.631406 50.245959
v 14.040000 -14.165468 50.026616
v 15.148212 -13.883795 50.142301
v 15.080000 -14.165468 50.026616
v 15.080000 -14.165468 50.026616
v 15.148212 -14.206118 49.724838
v 14.040000 -14.165468 50.026616
v 15.169317 -14.242542 49.454434
v 14.040000 -14.319617 48.882251
v 15.148212 -14.278966 49.184029
v 15.080000 -14.319617 48.882251
v 15.169317 -12.871580 48.395915
v 14.040000 -12.337518 48.615257
v 15.148212 -12.619191 48.499572
v 15.080000 -12.337518 48.615257
v 15.080000 -14.319617 48.882251
v 15.148212 -14.078594 48.696158
v 14.040000 -14.319617 48.882251
v 15.169316 -13.862629 48.529412
v 14.040000 -13.405642 48.176572
v 15.148212 -13.646664 48.362665
v 15.080000 -13.405642 48.176572
v 15.148212 -14.278966 49.184029
v 15.746667 -13.251493 49.320937
v 15.080000 -14.319617 48.882251
v 15.169317 -14.242542 49.454434
v 15.746667 -13.251493 49.320937
v 15.148212 -14.078594 48.696158
v 15.080000 -14.165468 50.026616
v 15.746667 -13.251493 49.320937
v 15.148212 -14.206118 49.724838
v 15.148212 -13.883795 50.142301
v 15.746667 -13.251493 49.320937
v 15.746667 -13.251493 49.320937
v 15.169317 -13.631406 50.245959
v 15.080000 -13.097344 50.465302
v 15.746667 -13.251493 49.320937
v 15.148212 -13.379017 50.349617
v 15.148212 -12.856322 50.279209
v 15.746667 -13.251493 49.320937
v 15.746667 -13.251493 49.320937
v 15.169316 -12.640357 50.112462
v 15.080000 -12.183369 49.759622
v 15.746667 -13.251493 49.320937
v 15.148212 -12.424392 49.945716
v 15.148212 -12.224020 49.457844
v 15.746667 -13.251493 49.320937
v 15.746667 -13.251493 49.320937
v 15.169316 -12.260444 49.187440
v 15.080000 -12.337518 48.615257
v 15.746667 -13.251493 49.320937
v 15.148212 -12.296868 48.917035
v 15.148212 -12.619191 48.499572
v 15.746667 -13.251493 49.320937
v 15.746667 -13.251493 49.320937
v 15.169317 -12.871580 48.395915
v 15.080000 -13.405642 48.176572
v 15.746667 -13.251493 49.320937
v 15.148212 -13.123969 48.292257
v 15.148212 -13.646664 48.362665
v 15.746667 -13.251493 49.320937
v 15.746667 -13.251493 49.320937
v 15.169317 -12.871580 48.395915
v 15.169316 -13.862629 48.529412
v 15.746667 -13.251493 49.320937
f 1 2 3
f 1 3 4
f 1 5 2
f 2 5 55
f 2 56 3
f 2 57 56
f 2 55 57
f 3 40 4
f 3 59 40
f 3 56 59
f 4 40 39
f 5 69 55
f 6 7 8
f 6 9 7
f 7 9 10
f 7 96 8
f 7 97 96
f 7 10 97
f 8 96 99
f 9 11 10
f 10 11 12
f 10 110 97
f 10 12 110
f 11 13 12
f 12 13 14
f 12 115 110
f 12 14 115
f 13 15 14
f 14 15 16
f 14 120 115
f 14 16 120
f 15 17 16
f 16 17 18
f 16 125 120
f 16 18 125
f 17 19 18
f 18 19 20
f 18 130 125
f 18 20 130
f 19 21 20
f 20 21 22
f 20 135 130
f 20 22 135
f 21 23 22
f 22 23 24
f 22 140 135
f 22 24 140
f 23 25 24
f 24 25 26
f 24 145 140
f 24 26 145
f 25 27 26
f 26 27 28
f 26 150 145
f 26 28 150
f 27 29 28
f 28 29 30
f 28 155 150
f 28 30 155
f 29 31 30
f 30 31 32
f 30 160 155
f 30 32 160
f 31 33 32
f 32 33 34
f 32 165 160
f 32 34 165
f 33 35 34
f 34 35 36
f 34 170 165
f 34 36 170
f 35 37 36
f 36 37 38
f 36 175 170
f 36 38 175
f 37 39 38
f 38 39 40
f 38 68 175
f 38 40 68
f 40 59 68
f 41 42 43
f 41 43 44
f 41 45 42
f 42 45 65
f 42 64 43
f 42 67 64
f 42 65 67
f 43 54 44
f 43 64 61
f 43 61 54
f 44 54 53
f 45 180 65
f 46 47 48
f 46 49 47
f 46 48 95
f 47 49 50
f 47 50 78
f 47 78 83
f 47 83 48
f 48 88 94
f 48 94 95
f 48 83 88
f 49 51 50
f 50 51 52
f 50 52 73
f 50 73 78
f 51 53 52
f 52 53 54
f 52 54 63
f 52 63 73
f 54 61 63
f 55 69 70
f 55 71 57
f 55 70 71
f 56 58 59
f 56 60 58
f 56 57 60
f 57 72 60
f 57 71 72
f 58 61 62
f 58 63 61
f 58 62 59
f 58 60 63
f 59 62 68
f 60 73 63
f 60 72 73
f 61 64 62
f 62 64 66
f 62 66 68
f 64 67 66
f 65 178 177
f 65 177 67
f 65 180 178
f 66 176 175
f 66 175 68
f 66 67 176
f 67 177 176
f 69 74 70
f 70 74 75
f 70 76 71
f 70 75 76
f 71 77 72
f 71 76 77
f 72 78 73
f 72 77 78
f 74 79 75
f 75 79 80
f 75 81 76
f 75 80 81
f 76 82 77
f 76 81 82
f 77 83 78
f 77 82 83
f 79 84 80
f 80 84 85
f 80 86 81
f 80 85 86
f 81 87 82
f 81 86 87
f 82 88 83
f 82 87 88
f 84 91 85
f 85 89 90
f 85 90 86
f 85 91 89
f 86 90 92
f 86 92 87
f 87 92 93
f 87 93 88
f 88 93 94
f 96 98 99
f 96 100 98
f 96 97 100
f 97 111 100
f 97 110 111
f 98 101 102
f 98 103 101
f 98 100 103
f 98 102 99
f 100 112 103
f 100 111 112
f 101 104 105
f 101 105 106
f 101 103 104
f 101 106 102
f 103 113 104
f 103 112 113
f 104 114 107
f 104 107 105
f 104 113 114
f 105 107 108
f 105 108 109
f 105 109 106
f 110 116 111
f 110 115 116
f 111 117 112
f 111 116 117
f 112 118 113
f 112 117 118
f 113 119 114
f 113 118 119
f 115 121 116
f 115 120 121
f 116 122 117
f 116 121 122
f 117 123 118
f 117 122 123
f 118 124 119
f 118 123 124
f 120 126 121
f 120 125 126
f 121 127 122
f 121 126 127
f 122 128 123
f 122 127 128
f 123 129 124
f 123 128 129
f 125 131 126
f 125 130 131
f 126 132 127
f 126 131 132
f 127 133 128
f 127 132 133
f 128 134 129
f 128 133 134
f 130 136 131
f 130 135 136
f 131 137 132
f 131 136 137
f 132 138 133
f 132 137 138
f 133 139 134
f 133 138 139
f 135 141 136
f 135 140 141
f 136 142 137
f 136 141 142
f 137 143 138
f 137 142 143
f 138 144 139
f 138 143 144
f 140 146 141
f 140 145 146
f 141 147 142
f 141 146 147
f 142 148 143
f 142 147 148
f 143 149 144
f 143 148 149
f 145 151 146
f 145 150 151
f 146 152 147
f 146 151 152
f 147 153 148
f 147 152 153
f 148 154 149
f 148 153 154
f 150 156 151
f 150 155 156
f 151 157 152
f 151 156 157
f 152 158 153
f 152 157 158
f 153 159 154
f 153 158 159
f 155 161 156
f 155 160 161
f 156 162 157
f 156 161 162
f 157 163 158
f 157 162 163
f 158 164 159
f 158 163 164
f 160 166 161
f 160 165 166
f 161 167 162
f 161 166 167
f 162 168 163
f 162 167 168
f 163 169 164
f 163 168 169
f 165 171 166
f 165 170 171
f 166 172 167
f 166 171 172
f 167 173 168
f 167 172 173
f 168 174 169
f 168 173 174
f 170 176 171
f 170 175 176
f 171 177 172
f 171 176 177
f 172 178 173
f 172 177 178
f 173 179 174
f 173 178 179
f 178 180 179
f 181 182 183
f 181 183 184
f 181 185 182
f 182 185 186
f 183 229 184
f 184 229 228
f 185 187 186
f 186 187 188
f 187 189 188
f 188 189 190
f 189 191 190
f 190 191 192
f 191 193 192
f 192 193 194
f 193 195 194
f 194 195 196
f 195 197 196
f 196 197 198
f 197 199 198
f 198 199 200
f 199 201 200
f 200 201 202
f 201 203 202
f 202 203 204
f 203 205 204
f 204 205 206
f 205 489 206
f 207 208 209
f 207 210 208
f 208 210 211
f 210 212 211
f 211 212 213
f 212 214 213
f 213 214 215
f 214 216 215
f 215 216 217
f 216 218 217
f 217 218 219
f 218 220 219
f 219 220 221
f 220 222 221
f 221 222 223
f 222 224 223
f 223 224 225
f 224 226 225
f 225 226 227
f 226 228 227
f 227 228 229
f 230 231 232
f 230 542 541
f 230 232 542
f 231 490 232
f 232 490 491
f 233 234 235
f 233 235 236
f 233 237 234
f 233 236 262
f 234 237 331
f 234 332 235
f 234 331 340
f 234 340 332
f 235 332 334
f 235 334 236
f 236 263 262
f 236 450 263
f 236 334 450
f 237 338 331
f 238 239 240
f 238 339 338
f 238 343 339
f 238 240 343
f 239 241 242
f 239 242 240
f 240 242 347
f 240 347 348
f 240 348 343
f 241 243 244
f 241 244 242
f 242 244 355
f 242 355 347
f 243 358 244
f 244 358 359
f 244 359 355
f 245 246 247
f 245 374 373
f 245 378 374
f 245 247 378
f 246 248 249
f 246 249 247
f 247 249 382
f 247 382 383
f 247 383 378
f 248 250 251
f 248 251 249
f 249 251 388
f 249 388 382
f 250 391 251
f 250 396 395
f 250 395 391
f 251 391 392
f 251 392 388
f 252 253 254
f 252 405 404
f 252 409 405
f 252 254 409
f 253 255 256
f 253 256 254
f 254 256 413
f 254 413 414
f 254 414 409
f 255 257 258
f 255 258 256
f 256 258 419
f 256 419 413
f 257 422 258
f 257 427 426
f 257 426 422
f 258 422 423
f 258 423 419
f 259 260 261
f 259 436 435
f 259 440 436
f 259 261 440
f 260 262 263
f 260 263 261
f 261 263 444
f 261 444 445
f 261 445 440
f 263 450 444
f 264 265 266
f 264 267 265
f 264 266 325
f 265 267 268
f 265 447 449
f 265 268 447
f 265 449 266
f 266 452 326
f 266 326 325
f 266 449 452
f 267 269 268
f 268 269 270
f 268 270 443
f 268 443 447
f 269 271 270
f 270 271 272
f 270 439 443
f 270 272 439
f 271 273 272
f 272 273 274
f 272 433 439
f 272 274 433
f 273 275 274
f 274 275 276
f 274 434 433
f 274 276 434
f 275 277 276
f 276 277 278
f 276 278 425
f 276 425 434
f 277 279 278
f 278 279 280
f 278 421 425
f 278 280 421
f 279 281 280
f 280 281 282
f 280 282 418
f 280 418 421
f 281 283 282
f 282 283 284
f 282 416 418
f 282 284 416
f 283 285 284
f 284 285 286
f 284 286 412
f 284 412 416
f 285 287 286
f 286 287 288
f 286 408 412
f 286 288 408
f 287 289 288
f 288 289 290
f 288 402 408
f 288 290 402
f 289 291 290
f 290 291 292
f 290 403 402
f 290 292 403
f 291 293 292
f 292 293 294
f 292 294 394
f 292 394 403
f 293 295 294
f 294 295 296
f 294 390 394
f 294 296 390
f 295 297 296
f 296 297 298
f 296 298 387
f 296 387 390
f 297 299 298
f 298 299 300
f 298 386 387
f 298 300 386
f 299 301 300
f 300 301 302
f 300 381 386
f 300 302 381
f 301 303 302
f 302 303 304
f 302 377 381
f 302 304 377
f 303 305 304
f 304 305 306
f 304 371 377
f 304 306 371
f 305 307 306
f 306 307 308
f 306 372 371
f 306 308 372
f 307 309 308
f 308 311 617
f 308 309 311
f 308 617 372
f 309 310 311
f 312 313 314
f 312 314 329
f 312 329 328
f 313 315 316
f 313 316 314
f 314 352 357
f 314 316 352
f 314 357 329
f 315 317 318
f 315 318 316
f 316 354 352
f 316 318 354
f 317 319 320
f 317 320 318
f 318 320 346
f 318 346 354
f 319 321 322
f 319 322 320
f 320 342 346
f 320 322 342
f 321 323 324
f 321 324 322
f 322 335 342
f 322 324 335
f 323 325 326
f 323 326 324
f 324 337 335
f 324 326 337
f 326 452 337
f 327 328 329
f 327 329 330
f 327 330 361
f 329 357 330
f 330 349 356
f 330 356 361
f 330 357 349
f 331 338 339
f 331 339 344
f 331 344 340
f 332 333 334
f 332 340 341
f 332 341 333
f 333 335 336
f 333 336 334
f 333 341 342
f 333 342 335
f 334 336 450
f 335 337 336
f 336 451 450
f 336 337 451
f 337 452 451
f 339 351 344
f 339 343 351
f 340 344 345
f 340 345 341
f 341 345 346
f 341 346 342
f 343 348 351
f 344 353 345
f 344 351 353
f 345 354 346
f 345 353 354
f 347 349 348
f 347 355 356
f 347 356 349
f 348 350 351
f 348 349 350
f 349 357 350
f 350 352 353
f 350 353 351
f 350 357 352
f 352 354 353
f 355 359 360
f 355 360 356
f 356 360 361
f 362 363 364
f 362 364 365
f 362 366 367
f 362 368 366
f 362 365 368
f 362 367 363
f 364 373 365
f 365 373 374
f 365 375 368
f 365 374 375
f 366 368 369
f 366 369 370
f 366 619 367
f 366 370 619
f 368 376 369
f 368 375 376
f 369 371 370
f 369 376 377
f 369 377 371
f 370 371 372
f 370 618 619
f 370 372 618
f 372 617 618
f 374 379 375
f 374 378 379
f 375 380 376
f 375 379 380
f 376 381 377
f 376 380 381
f 378 383 379
f 379 383 385
f 379 385 380
f 380 385 386
f 380 386 381
f 382 384 383
f 382 388 389
f 382 389 384
f 383 384 385
f 384 389 390
f 384 387 385
f 384 390 387
f 385 387 386
f 388 392 393
f 388 393 389
f 389 393 394
f 389 394 390
f 391 399 392
f 391 395 399
f 392 401 393
f 392 399 401
f 393 403 394
f 393 401 403
f 395 396 397
f 395 397 398
f 395 398 399
f 396 404 397
f 397 404 405
f 397 405 406
f 397 406 398
f 398 400 399
f 398 406 407
f 398 407 400
f 399 400 401
f 400 402 401
f 400 407 408
f 400 408 402
f 401 402 403
f 405 409 410
f 405 410 406
f 406 410 411
f 406 411 407
f 407 411 412
f 407 412 408
f 409 414 410
f 410 417 411
f 410 414 417
f 411 416 412
f 411 417 416
f 413 415 414
f 413 419 420
f 413 420 415
f 414 415 417
f 415 420 421
f 415 418 417
f 415 421 418
f 416 417 418
f 419 423 424
f 419 424 420
f 420 424 425
f 420 425 421
f 422 430 423
f 422 426 430
f 423 432 424
f 423 430 432
f 424 434 425
f 424 432 434
f 426 427 428
f 426 428 429
f 426 429 430
f 427 435 428
f 428 435 436
f 428 436 437
f 428 437 429
f 429 431 430
f 429 437 438
f 429 438 431
f 430 431 432
f 431 433 432
f 431 438 439
f 431 439 433
f 432 433 434
f 436 440 441
f 436 441 437
f 437 441 442
f 437 442 438
f 438 442 443
f 438 443 439
f 440 445 441
f 441 448 442
f 441 445 448
f 442 447 443
f 442 448 447
f 444 446 445
f 444 450 451
f 444 451 446
f 445 446 448
f 446 451 452
f 446 449 448
f 446 452 449
f 447 448 449
f 453 454 455
f 453 455 456
f 453 457 458
f 453 459 457
f 453 460 454
f 453 456 459
f 454 460 464
f 457 480 458
f 458 476 475
f 458 480 481
f 458 482 476
f 458 481 482
f 460 461 462
f 460 462 463
f 460 465 461
f 460 463 464
f 461 465 469
f 465 466 467
f 465 467 468
f 465 470 466
f 465 468 469
f 466 470 474
f 470 471 472
f 470 472 473
f 470 475 471
f 470 473 474
f 471 475 479
f 475 476 477
f 475 477 478
f 475 478 479
f 483 484 485
f 484 686 485
f 485 686 687
f 486 487 488
f 487 711 488
f 488 711 712
f 490 492 491
f 491 492 493
f 492 494 493
f 493 494 495
f 494 496 495
f 495 496 497
f 495 497 498
f 497 499 498
f 498 499 500
f 499 501 500
f 500 501 502
f 501 503 502
f 502 503 504
f 502 504 505
f 504 506 505
f 505 506 507
f 506 508 507
f 507 508 509
f 508 510 509
f 509 510 511
f 509 511 512
f 511 513 512
f 512 513 514
f 513 515 514
f 514 515 516
f 515 517 516
f 516 517 518
f 516 518 519
f 518 520 519
f 519 520 521
f 520 522 521
f 521 522 523
f 522 524 523
f 523 524 525
f 523 525 526
f 525 527 526
f 526 527 528
f 527 529 528
f 528 529 530
f 529 531 530
f 530 531 532
f 530 532 533
f 532 534 533
f 533 534 535
f 534 536 535
f 535 536 537
f 536 538 537
f 537 538 539
f 537 539 540
f 539 541 540
f 540 541 542
f 543 544 545
f 543 546 544
f 543 592 546
f 544 547 545
f 546 592 591
f 548 549 550
f 549 551 550
f 550 551 552
f 551 553 552
f 552 553 554
f 553 555 554
f 554 555 556
f 555 557 556
f 556 557 558
f 557 559 558
f 558 559 560
f 559 561 560
f 560 561 562
f 561 563 562
f 562 563 564
f 563 565 564
f 564 565 566
f 565 567 566
f 566 567 568
f 567 569 568
f 568 569 570
f 569 571 570
f 570 571 572
f 571 573 572
f 572 573 574
f 573 575 574
f 574 575 576
f 575 577 576
f 576 577 578
f 577 579 578
f 578 579 580
f 579 581 580
f 580 581 582
f 581 583 582
f 582 583 584
f 583 585 584
f 584 585 586
f 585 587 586
f 586 587 588
f 587 589 588
f 588 589 590
f 589 591 590
f 590 591 592
f 593 594 595
f 594 596 595
f 594 597 596
f 596 597 598
f 597 599 598
f 598 599 600
f 599 601 600
f 600 601 602
f 601 603 602
f 602 603 604
f 603 605 604
f 604 605 606
f 605 607 606
f 606 607 608
f 607 609 608
f 608 609 610
f 609 611 610
f 610 611 612
f 611 613 612
f 612 613 614
f 613 615 614
f 614 615 616
f 620 621 622
f 620 623 621
f 620 685 623
f 621 624 622
f 622 624 625
f 623 685 684
f 624 626 625
f 625 626 627
f 626 628 627
f 627 628 629
f 628 630 629
f 629 630 631
f 630 632 631
f 631 632 633
f 632 634 633
f 633 634 635
f 634 636 635
f 635 636 637
f 636 638 637
f 637 638 639
f 638 640 639
f 639 640 641
f 640 642 641
f 641 642 643
f 642 644 643
f 643 644 645
f 644 646 645
f 645 646 647
f 646 648 647
f 647 648 649
f 648 650 649
f 649 650 651
f 650 652 651
f 651 652 653
f 652 654 653
f 653 654 655
f 654 656 655
f 657 658 659
f 658 660 659
f 659 660 661
f 660 662 661
f 661 662 663
f 662 664 663
f 663 664 665
f 664 666 665
f 665 666 667
f 666 668 667
f 667 668 669
f 668 670 669
f 669 670 671
f 670 672 671
f 671 672 673
f 672 674 673
f 673 674 675
f 674 676 675
f 675 676 677
f 676 678 677
f 677 678 679
f 678 680 679
f 679 680 681
f 680 682 681
f 681 682 683
f 682 684 683
f 683 684 685
f 686 688 687
f 687 688 689
f 690 691 692
f 691 693 692
f 692 693 694
f 693 695 694
f 694 695 696
f 697 698 699
f 698 700 699
f 699 700 701
f 700 702 701
f 701 702 703
f 704 705 706
f 705 707 706
f 706 707 708
f 707 709 708
f 708 709 710
f 711 713 712
f 712 713 714
f 715 716 717
f 716 718 717
f 717 718 719
f 718 720 719
f 719 720 721
f 722 723 724
f 722 725 723
f 724 726 727
f 725 730 733
f 727 764 763
f 728 729 730
f 728 731 732
f 731 734 732
f 734 737 740
f 735 736 737
f 735 738 739
f 738 741 739
f 741 744 747
f 742 743 744
f 742 745 746
f 745 748 746
f 748 751 754
f 749 750 751
f 749 752 753
f 752 755 753
f 756 757 758
f 756 759 760
f 758 761 762
f 759 763 760