# ANSI B18.3.4M - M3 x 0.5 x 8(1)
# Autodesk dbId: 26
# Units: mm
o 026_ANSI_B18.3.4M_-_M3_x_0.5_x_8(1)
v 12.790001 44.964197 -7.888467
v 12.793408 44.971677 -7.991198
v 12.793408 45.078986 -7.611491
v 12.790001 45.104864 -7.495183
v 12.790001 44.930112 -8.304758
v 12.790001 46.190580 -9.790041
v 12.793408 46.589130 -9.798999
v 12.793408 46.196041 -9.764741
v 12.790000 46.606871 -9.824125
v 12.793408 46.978389 -9.734424
v 12.790001 47.017799 -9.749305
v 12.793408 47.339359 -9.575072
v 12.790001 47.395359 -9.570678
v 12.793408 47.649359 -9.330958
v 12.790001 47.713823 -9.300417
v 12.793408 47.888911 -9.017418
v 12.790001 47.951487 -8.956941
v 12.793408 48.042964 -8.654155
v 12.790000 48.092154 -8.563657
v 12.793408 48.101836 -8.263993
v 12.790001 48.126239 -8.147366
v 12.793408 48.061830 -7.871448
v 12.790001 48.051418 -7.736439
v 12.793408 47.925458 -7.501185
v 12.790001 47.872791 -7.358878
v 12.793408 47.701290 -7.176468
v 12.790000 47.602530 -7.040414
v 12.793408 47.403411 -6.917701
v 12.790000 47.259054 -6.802751
v 12.793408 47.050538 -6.741143
v 12.790001 46.865770 -6.662083
v 12.793408 46.664843 -6.657888
v 12.790001 46.449480 -6.627999
v 12.793408 46.270560 -6.673167
v 12.790000 46.038552 -6.702819
v 12.793408 45.892464 -6.786021
v 12.790001 45.660991 -6.881447
v 12.793408 45.554313 -6.989357
v 12.790001 45.342528 -7.151707
v 12.793408 45.277352 -7.270400
v 12.890001 45.061945 -7.909567
v 12.864119 45.144085 -7.639098
v 12.864119 45.041596 -8.001748
v 12.890001 45.029991 -8.299839
v 12.890001 45.193821 -7.540863
v 12.890001 45.842976 -9.560416
v 12.864119 45.542232 -9.361029
v 12.864119 45.855462 -9.570566
v 12.890001 45.520967 -9.337607
v 12.864119 45.290953 -9.080178
v 12.890000 45.267598 -9.039047
v 12.864119 45.117412 -8.745659
v 12.890000 45.100135 -8.685084
v 12.864119 45.032515 -8.378493
v 12.793408 44.962169 -8.385662
v 12.803398 44.995525 -7.994797
v 12.803398 44.986163 -8.383217
v 12.819290 45.016004 -7.997887
v 12.803398 45.101190 -7.620908
v 12.819290 45.006767 -8.381117
v 12.840001 45.031718 -8.000258
v 12.819290 45.120257 -7.628994
v 12.840001 45.022577 -8.379506
v 12.840001 45.134887 -7.635198
v 12.864119 45.333540 -7.313330
v 12.819290 45.312974 -7.297616
v 12.840001 45.325602 -7.307265
v 12.803398 45.296517 -7.285043
v 12.790001 45.004933 -8.715686
v 12.793408 45.051059 -8.770098
v 12.803398 45.073691 -8.761762
v 12.819290 45.093125 -8.754604
v 12.840001 45.108038 -8.749112
v 12.790001 45.183560 -9.093246
v 12.793408 45.232762 -9.120350
v 12.803398 45.252609 -9.106648
v 12.819290 45.269653 -9.094882
v 12.840001 45.282731 -9.085853
v 12.790001 45.453820 -9.411710
v 12.793408 45.495860 -9.414410
v 12.803398 45.511676 -9.396203
v 12.819290 45.525259 -9.380568
v 12.840001 45.535681 -9.368571
v 12.790001 45.797296 -9.649373
v 12.793408 45.823822 -9.633803
v 12.803398 45.834614 -9.612234
v 12.819290 45.843881 -9.593712
v 12.840001 45.850992 -9.579500
v 12.793408 46.196041 -9.764741
v 12.803398 46.201130 -9.741166
v 12.790001 46.190580 -9.790041
v 12.819290 46.205500 -9.720922
v 12.840000 46.208853 -9.705388
v 12.864119 46.210961 -9.695623
v 12.890001 46.211680 -9.692292
v 12.803398 46.588196 -9.774899
v 12.803398 46.971491 -9.711313
v 12.819290 46.587394 -9.754204
v 12.803398 46.201130 -9.741166
v 12.819290 46.965567 -9.691468
v 12.840001 46.586779 -9.738324
v 12.819290 46.205500 -9.720922
v 12.840001 46.961022 -9.676240
v 12.864119 46.958165 -9.666667
v 12.864119 46.586392 -9.728342
v 12.840000 46.208853 -9.705388
v 12.890001 46.601953 -9.724246
v 12.890001 46.211680 -9.692292
v 12.864119 46.210961 -9.695623
v 12.803398 47.326930 -9.554403
v 12.819290 47.316257 -9.536654
v 12.840001 47.308068 -9.523035
v 12.864119 47.302920 -9.514474
v 12.890001 46.987197 -9.654102
v 12.803398 47.632181 -9.314029
v 12.819290 47.617429 -9.299492
v 12.840000 47.606110 -9.288337
v 12.864119 47.598994 -9.281325
v 12.890000 47.341161 -9.486639
v 12.803398 47.868063 -9.005293
v 12.819290 47.850159 -8.994882
v 12.840001 47.836422 -8.986892
v 12.864119 47.827786 -8.981870
v 12.890000 47.639720 -9.233270
v 12.803398 48.019755 -8.647596
v 12.819290 47.999824 -8.641964
v 12.840001 47.984532 -8.637642
v 12.864119 47.974918 -8.634925
v 12.890000 47.862530 -8.911261
v 12.803398 48.077725 -8.263412
v 12.819290 48.057020 -8.262913
v 12.840000 48.041133 -8.262530
v 12.864119 48.031146 -8.262289
v 12.890000 47.994405 -8.542557
v 12.803398 48.038332 -7.876881
v 12.819290 48.018153 -7.881547
v 12.840000 48.002670 -7.885127
v 12.864119 47.992937 -7.887378
v 12.890000 48.026360 -8.152285
v 12.803398 47.904050 -7.512291
v 12.819289 47.885666 -7.521828
v 12.840001 47.871559 -7.529146
v 12.864119 47.862691 -7.533747
v 12.890001 47.956215 -7.767040
v 12.803398 47.683316 -7.192549
v 12.819290 47.667882 -7.206359
v 12.840001 47.656038 -7.216955
v 12.864118 47.648593 -7.223616
v 12.890001 47.788752 -7.413077
v 12.803398 47.390001 -6.937747
v 12.819290 47.378486 -6.954961
v 12.840000 47.369650 -6.968170
v 12.864119 47.364095 -6.976473
v 12.890000 47.535383 -7.114517
v 12.803398 47.042535 -6.763894
v 12.819290 47.035662 -6.783432
v 12.840000 47.030388 -6.798423
v 12.864119 47.027073 -6.807847
v 12.890001 47.213375 -6.891708
v 12.803398 46.662749 -6.681915
v 12.819290 46.660951 -6.702548
v 12.840000 46.659571 -6.718379
v 12.864119 46.658703 -6.728332
v 12.890000 46.844671 -6.759832
v 12.803398 46.274507 -6.696960
v 12.819290 46.277897 -6.717392
v 12.840001 46.280497 -6.733069
v 12.864119 46.282132 -6.742925
v 12.890001 46.454398 -6.727878
v 12.803398 45.902204 -6.808085
v 12.819290 45.910568 -6.827031
v 12.840001 45.916986 -6.841570
v 12.864119 45.921021 -6.850709
v 12.890000 46.069153 -6.798022
v 12.803398 45.569234 -7.008306
v 12.819290 45.582047 -7.024577
v 12.840001 45.591879 -7.037062
v 12.864119 45.598059 -7.044911
v 12.890001 45.715190 -6.965485
v 12.890001 45.416631 -7.218854
v 22.483276 45.061946 -7.909567
v 12.890001 45.193821 -7.540863
v 12.890001 45.061945 -7.909567
v 22.483275 45.029991 -8.299839
v 22.483276 45.193821 -7.540863
v 12.890001 45.416631 -7.218854
v 22.483276 45.416631 -7.218854
v 12.890001 45.715190 -6.965485
v 22.483276 45.715190 -6.965485
v 12.890000 46.069153 -6.798022
v 22.483275 46.069154 -6.798022
v 12.890001 46.454398 -6.727878
v 22.483275 46.454398 -6.727878
v 12.890000 46.844671 -6.759832
v 22.483276 46.844671 -6.759832
v 12.890001 47.213375 -6.891708
v 22.483275 47.213375 -6.891708
v 12.890000 47.535383 -7.114517
v 22.483275 47.535384 -7.114517
v 12.890001 47.788752 -7.413077
v 22.483275 47.788753 -7.413077
v 12.890001 47.956215 -7.767040
v 22.483275 47.956216 -7.767040
v 12.890000 48.026360 -8.152285
v 22.483276 48.026360 -8.152285
v 12.890000 47.994405 -8.542557
v 22.483275 47.994406 -8.542557
v 12.890000 47.862530 -8.911261
v 12.890000 47.994405 -8.542557
v 22.483275 47.862530 -8.911261
v 12.890000 47.639720 -9.233270
v 22.483276 47.639720 -9.233270
v 12.890000 47.341161 -9.486639
v 22.483276 47.341161 -9.486639
v 12.890001 46.987197 -9.654102
v 22.483276 46.987198 -9.654102
v 12.890001 46.601953 -9.724246
v 22.483275 46.601953 -9.724246
v 12.890001 46.211680 -9.692292
v 22.483276 46.211680 -9.692292
v 12.890001 45.842976 -9.560416
v 22.483275 45.842976 -9.560416
v 12.890001 45.520967 -9.337607
v 22.483276 45.520968 -9.337607
v 12.890000 45.267598 -9.039047
v 22.483276 45.267598 -9.039047
v 12.890000 45.100135 -8.685084
v 22.483276 45.100136 -8.685084
v 12.890001 45.029991 -8.299839
v 12.790001 43.913183 -7.092786
v 12.790001 43.742338 -7.624721
v 12.790001 44.964197 -7.888467
v 11.140001 44.983746 -7.892687
v 11.183275 44.619727 -8.195056
v 11.183275 44.662446 -7.823332
v 11.183275 44.776865 -7.467085
v 11.140001 44.950088 -8.303774
v 11.140001 45.200367 -9.082407
v 11.140001 45.467249 -9.396889
v 11.183275 45.156774 -9.553615
v 11.140001 45.806432 -9.631582
v 11.183275 45.442118 -9.795653
v 11.140001 46.194800 -9.770491
v 11.183275 45.769198 -9.977373
v 11.140001 47.384520 -9.553870
v 11.140000 47.699002 -9.286988
v 11.183275 47.855728 -9.597463
v 11.140000 47.933695 -8.947805
v 11.183275 48.097766 -9.312119
v 11.140001 48.072604 -8.559437
v 11.183275 48.279486 -8.985039
v 11.140000 47.855983 -7.369718
v 11.140001 47.589101 -7.055235
v 11.183275 47.899576 -6.898510
v 11.140001 47.249918 -6.820542
v 11.183275 47.614233 -6.656471
v 11.140001 46.861550 -6.681633
v 11.183275 47.287152 -6.474751
v 11.140001 45.671831 -6.898254
v 11.140001 45.357348 -7.165136
v 11.183275 45.200623 -6.854661
v 11.140001 45.122655 -7.504319
v 11.183275 44.958584 -7.140005
v 12.410000 43.913183 -7.092786
v 12.081300 44.220107 -6.629025
v 12.081300 43.952889 -7.109993
v 12.410000 44.184521 -6.604402
v 12.081300 44.576022 -6.209430
v 12.410001 44.545924 -6.178337
v 12.081300 45.006958 -5.867332
v 12.410000 44.983503 -5.830966
v 12.081300 45.496353 -5.615880
v 12.410001 45.480444 -5.575636
v 12.081300 46.025400 -5.464735
v 12.410000 46.017648 -5.422161
v 12.081300 46.573769 -5.419707
v 12.410000 46.574472 -5.376438
v 12.081300 47.120386 -5.482525
v 12.410000 47.129516 -5.440225
v 12.081300 47.644244 -5.650776
v 12.410000 47.661452 -5.611070
v 12.081300 48.125212 -5.917993
v 12.410000 48.149836 -5.882407
v 12.081300 48.544808 -6.273909
v 12.410000 48.575900 -6.243810
v 12.081300 48.886905 -6.704844
v 12.410000 48.923272 -6.681390
v 12.081300 49.138357 -7.194239
v 12.410000 49.178601 -7.178331
v 12.081300 49.289502 -7.723287
v 12.410000 49.332076 -7.715535
v 12.081300 49.334530 -8.271656
v 12.410000 49.377799 -8.272359
v 12.081300 49.271712 -8.818272
v 12.410000 49.314012 -8.827403
v 12.081300 49.103461 -9.342131
v 12.410000 49.143168 -9.359338
v 12.081300 48.836244 -9.823099
v 12.410000 48.871830 -9.847722
v 12.081300 48.480329 -10.242695
v 12.410000 48.510427 -10.273787
v 12.081300 48.049393 -10.584791
v 12.410000 48.072847 -10.621159
v 12.081300 47.559998 -10.836244
v 12.410001 47.575907 -10.876488
v 12.081300 47.030950 -10.987389
v 12.410000 47.038702 -11.029963
v 12.081300 46.482582 -11.032417
v 12.410000 46.481879 -11.075686
v 12.410000 45.926834 -11.011899
v 12.081300 45.935965 -10.969599
v 12.410000 45.394899 -10.841054
v 12.410000 44.906515 -10.569717
v 12.081300 44.931138 -10.534131
v 12.410001 44.480450 -10.208314
v 12.081300 44.511543 -10.178215
v 12.410001 44.133079 -9.770734
v 12.081300 44.169446 -9.747280
v 12.410000 43.877749 -9.273793
v 12.081300 43.917993 -9.257885
v 12.410001 43.724274 -8.736589
v 12.081300 43.766848 -8.728837
v 12.410001 43.678551 -8.179765
v 12.081300 43.721820 -8.180469
v 12.410001 43.742338 -7.624721
v 12.081300 43.784638 -7.633852
v 12.081300 45.935965 -10.969599
v 12.410000 45.926834 -11.011899
v 12.081300 45.412107 -10.801348
v 11.775000 45.462557 -10.684937
v 11.183275 44.650348 -8.567972
v 11.310148 44.313468 -8.190081
v 11.511975 44.050477 -8.185808
v 11.310148 44.363042 -7.758704
v 11.775001 43.848677 -8.182529
v 11.511975 44.105938 -7.703207
v 11.775001 43.908655 -7.660622
v 11.140000 45.023973 -8.709565
v 11.183275 44.753134 -8.927748
v 11.310148 44.349003 -8.622840
v 11.511975 44.090232 -8.669957
v 11.775001 43.891670 -8.706110
v 11.183275 44.924133 -9.260559
v 11.310148 44.468283 -9.040352
v 11.511975 44.223676 -9.137046
v 11.775000 44.035982 -9.211243
v 11.310148 45.267832 -10.047534
v 11.310148 44.936698 -9.766654
v 11.511975 45.118170 -10.263829
v 11.511975 44.747714 -9.949595
v 11.310148 44.666723 -9.426570
v 11.775001 44.602701 -10.089971
v 11.511975 44.445680 -9.569128
v 11.775001 44.276068 -9.678516
v 11.310148 45.647401 -10.258416
v 11.511975 45.542811 -10.499752
v 11.775000 45.003330 -10.429798
v 11.183275 46.125446 -10.091791
v 11.310148 46.060817 -10.391195
v 11.511975 46.005320 -10.648299
v 11.775000 45.962735 -10.845582
v 11.183275 46.497170 -10.134510
v 11.140001 46.194800 -9.770491
v 11.140001 46.605887 -9.804150
v 11.183275 46.870085 -10.103889
v 11.310148 46.492194 -10.440770
v 11.183275 46.125446 -10.091791
v 11.310148 46.924953 -10.405234
v 11.511975 46.972070 -10.664005
v 11.511975 46.487921 -10.703760
v 11.775000 47.008223 -10.862568
v 11.775000 46.484643 -10.905561
v 11.140001 47.011679 -9.730264
v 11.183275 47.229861 -10.001104
v 11.310148 47.342465 -10.285955
v 11.511975 47.439159 -10.530561
v 11.775001 47.513356 -10.718255
v 11.183275 47.562672 -9.830105
v 11.310148 47.728683 -10.087514
v 11.511975 47.871241 -10.308557
v 11.775000 47.980629 -10.478169
v 11.310148 48.349647 -9.486405
v 11.310148 48.068767 -9.817539
v 11.511975 48.565942 -9.636068
v 11.511975 48.251709 -10.006523
v 11.775000 48.392085 -10.151536
v 11.775000 48.731911 -9.750908
v 11.310148 48.560529 -9.106836
v 11.511975 48.801866 -9.211426
v 11.775000 48.987050 -9.291681
v 11.183275 48.393904 -8.628792
v 11.310148 48.693308 -8.693420
v 11.511975 48.950412 -8.748918
v 11.775000 49.147695 -8.791502
v 11.183275 48.436623 -8.257068
v 11.140000 48.106263 -8.148350
v 11.183275 48.406002 -7.884152
v 11.310148 48.707348 -7.829284
v 11.310148 48.742883 -8.262043
v 11.511974 48.966119 -7.782168
v 11.511975 49.005874 -8.266316
v 11.775000 49.164681 -7.746014
v 11.775001 49.207674 -8.269595
v 11.140001 48.032377 -7.742559
v 11.183275 48.303217 -7.524376
v 11.310148 48.588068 -7.411773
v 11.511975 48.832675 -7.315078
v 11.775001 49.020368 -7.240881
v 11.183275 48.132218 -7.191565
v 11.310148 48.389628 -7.025554
v 11.511975 48.610670 -6.882996
v 11.775000 48.780282 -6.773608
v 11.310148 47.788518 -6.404590
v 11.310148 48.119653 -6.685470
v 11.511975 47.938181 -6.188295
v 11.775000 48.453649 -6.362153
v 11.511975 48.308637 -6.502529
v 11.775000 48.053021 -6.022326
v 11.310148 47.408950 -6.193709
v 11.511975 47.513539 -5.952372
v 11.775000 47.593794 -5.767187
v 11.183275 46.930905 -6.360333
v 11.310148 46.995533 -6.060929
v 11.511975 47.051031 -5.803825
v 11.775001 47.093616 -5.606542
v 11.183275 46.559181 -6.317614
v 11.140001 46.450463 -6.647974
v 11.183275 46.186265 -6.348235
v 11.310148 46.131397 -6.046890
v 11.310148 46.564157 -6.011354
v 11.511975 46.084281 -5.788119
v 11.511975 46.568429 -5.748364
v 11.775000 46.048127 -5.589557
v 11.775000 46.571708 -5.546563
v 11.140001 46.044672 -6.721860
v 11.183275 45.826489 -6.451020
v 11.310148 45.713886 -6.166170
v 11.511975 45.617191 -5.921563
v 11.775001 45.542995 -5.733869
v 11.183275 45.493679 -6.622020
v 11.310148 45.327667 -6.364610
v 11.511975 45.185110 -6.143567
v 11.775001 45.075722 -5.973955
v 11.310148 44.706703 -6.965719
v 11.310148 44.987583 -6.634585
v 11.511975 44.490408 -6.816057
v 11.775001 44.664266 -6.300588
v 11.511975 44.804642 -6.445601
v 11.775001 44.324439 -6.701216
v 11.310148 44.495822 -7.345288
v 11.511975 44.254485 -7.240698
v 11.775001 44.069301 -7.160443
v 11.140001 45.672508 -7.450713
v 11.140001 44.983746 -7.892687
v 11.140001 45.122655 -7.504319
v 11.140001 45.357348 -7.165136
v 11.140001 46.044672 -6.721860
v 11.140001 46.771813 -7.097358
v 11.140001 45.671831 -6.898254
v 11.140001 45.428870 -8.579417
v 11.140001 45.467249 -9.396889
v 11.140001 45.200367 -9.082407
v 11.140000 45.023973 -8.709565
v 11.140001 44.950088 -8.303774
v 11.140001 46.284537 -9.354766
v 11.140001 47.011679 -9.730264
v 11.140001 46.605887 -9.804150
v 11.140001 46.194800 -9.770491
v 11.140001 45.806432 -9.631582
v 11.140001 47.383843 -9.001411
v 11.140001 48.072604 -8.559437
v 11.140000 47.933695 -8.947805
v 11.140000 47.699002 -9.286988
v 11.140001 47.384520 -9.553870
v 11.140000 47.627481 -7.872707
v 11.140001 47.589101 -7.055235
v 11.140000 47.855983 -7.369718
v 11.140001 48.032377 -7.742559
v 11.140000 48.106263 -8.148350
v 11.140001 46.450463 -6.647974
v 11.140001 46.861550 -6.681633
v 11.140001 47.249918 -6.820542
v 12.180000 47.627481 -7.872707
v 12.248212 47.401835 -7.668241
v 11.140000 47.627481 -7.872707
v 12.180000 47.383843 -9.001411
v 12.248212 47.448092 -8.703763
v 11.140001 47.383843 -9.001411
v 22.483275 47.994406 -8.542557
v 12.790001 43.678551 -8.179765
v 12.790001 44.930112 -8.304758
v 12.790001 43.724274 -8.736589
v 12.790001 45.004933 -8.715686
v 12.790001 43.877749 -9.273793
v 12.790001 45.183560 -9.093246
v 12.790000 44.133079 -9.770734
v 12.790001 44.480450 -10.208314
v 12.790001 45.453820 -9.411710
v 12.790001 44.906515 -10.569717
v 12.790001 45.797296 -9.649373
v 12.790001 45.394899 -10.841054
v 12.790001 46.190580 -9.790041
v 12.790001 45.926834 -11.011899
v 12.790001 46.481879 -11.075686
v 12.790000 46.606871 -9.824125
v 12.790001 47.038702 -11.029963
v 12.790001 47.017799 -9.749305
v 12.790001 47.575907 -10.876488
v 12.790001 47.395359 -9.570678
v 12.790000 48.072847 -10.621159
v 12.790000 48.510427 -10.273787
v 12.790001 47.713823 -9.300417
v 12.790001 48.871830 -9.847722
v 12.790001 47.951487 -8.956941
v 12.790001 49.143168 -9.359338
v 12.790000 48.092154 -8.563657
v 12.790000 49.314012 -8.827403
v 12.790000 49.377799 -8.272359
v 12.790001 48.126239 -8.147366
v 12.790000 49.332076 -7.715535
v 12.790001 48.051418 -7.736439
v 12.790001 49.178601 -7.178331
v 12.790001 47.872791 -7.358878
v 12.790001 48.923272 -6.681390
v 12.790000 48.575900 -6.243810
v 12.790000 47.602530 -7.040414
v 12.790001 48.149836 -5.882407
v 12.790000 47.259054 -6.802751
v 12.790001 47.661452 -5.611070
v 12.790001 46.865770 -6.662083
v 12.790001 47.129516 -5.440225
v 12.790001 46.574472 -5.376438
v 12.790001 46.449480 -6.627999
v 12.790001 46.017648 -5.422161
v 12.790000 46.038552 -6.702819
v 12.790000 45.480444 -5.575636
v 12.790001 45.660991 -6.881447
v 12.790001 44.983504 -5.830965
v 12.790001 44.545924 -6.178337
v 12.790001 45.342528 -7.151707
v 12.790001 44.184521 -6.604402
v 12.790001 45.104864 -7.495183
v 22.483275 45.029991 -8.299839
v 22.790001 45.336345 -8.284753
v 22.483276 45.061946 -7.909567
v 22.790000 45.392146 -8.591222
v 22.790000 45.361765 -7.974285
v 22.483276 45.061946 -7.909567
v 22.790000 45.361765 -7.974285
v 22.483276 45.193821 -7.540863
v 22.790001 45.466674 -7.680975
v 22.483276 45.416631 -7.218854
v 22.790001 45.643923 -7.424811
v 22.483276 45.715190 -6.965485
v 22.790001 45.881432 -7.223252
v 22.483275 46.069154 -6.798022
v 22.790001 46.163016 -7.090032
v 22.483275 46.454398 -6.727878
v 22.790000 46.469485 -7.034231
v 22.483276 46.844671 -6.759832
v 22.790000 46.779953 -7.059652
v 22.483275 47.213375 -6.891708
v 22.790000 47.073263 -7.164561
v 22.483275 47.535384 -7.114517
v 22.790001 47.329426 -7.341810
v 22.483275 47.788753 -7.413077
v 22.790001 47.530986 -7.579319
v 22.483275 47.956216 -7.767040
v 22.790001 47.664205 -7.860902
v 22.483276 48.026360 -8.152285
v 22.790001 47.720006 -8.167371
v 22.483275 47.994406 -8.542557
v 22.790000 47.694586 -8.477839
v 22.483275 47.862530 -8.911261
v 22.790001 47.589677 -8.771149
v 22.483276 47.639720 -9.233270
v 22.790000 47.412428 -9.027313
v 22.483276 47.341161 -9.486639
v 22.790001 47.174919 -9.228872
v 22.483276 46.987198 -9.654102
v 22.790001 46.893335 -9.362092
v 22.483275 46.601953 -9.724246
v 22.790001 46.586867 -9.417893
v 22.483276 46.211680 -9.692292
v 22.790001 46.276398 -9.392473
v 22.483275 45.842976 -9.560416
v 22.790001 45.983088 -9.287563
v 22.483276 45.520968 -9.337607
v 22.790001 45.726925 -9.110315
v 22.483276 45.267598 -9.039047
v 22.790001 45.525365 -8.872805
v 22.483276 45.100136 -8.685084
v 22.790000 45.361765 -7.974285
v 22.790001 45.336345 -8.284753
v 22.790001 45.466674 -7.680975
v 22.790001 45.643923 -7.424811
v 22.790000 45.392146 -8.591222
v 22.790001 45.881432 -7.223252
v 22.790001 45.525365 -8.872805
v 22.790001 46.163016 -7.090032
v 22.790001 45.726925 -9.110315
v 22.790000 46.469485 -7.034231
v 22.790001 45.983088 -9.287563
v 22.790000 46.779953 -7.059652
v 22.790001 46.276398 -9.392473
v 22.790000 47.073263 -7.164561
v 22.790001 46.586867 -9.417893
v 22.790001 47.329426 -7.341810
v 22.790001 46.893335 -9.362092
v 22.790001 47.530986 -7.579319
v 22.790001 47.174919 -9.228872
v 22.790001 47.664205 -7.860902
v 22.790000 47.412428 -9.027313
v 22.790001 47.720006 -8.167371
v 22.790001 47.589677 -8.771149
v 22.790000 47.694586 -8.477839
v 11.775000 45.962735 -10.845582
v 11.511975 46.005320 -10.648299
v 11.310148 46.060817 -10.391195
v 12.790001 43.913183 -7.092786
v 12.410000 43.913183 -7.092786
v 12.790001 43.742338 -7.624721
v 12.410000 44.184521 -6.604402
v 12.410001 43.742338 -7.624721
v 12.790001 43.678551 -8.179765
v 12.410001 43.678551 -8.179765
v 12.790001 43.724274 -8.736589
v 12.410001 43.724274 -8.736589
v 12.790001 43.877749 -9.273793
v 12.410000 43.877749 -9.273793
v 12.790000 44.133079 -9.770734
v 12.410001 44.133079 -9.770734
v 12.790001 44.480450 -10.208314
v 12.410001 44.480450 -10.208314
v 12.790001 44.906515 -10.569717
v 12.410000 44.906515 -10.569717
v 12.790001 45.394899 -10.841054
v 12.410000 45.394899 -10.841054
v 12.790001 45.926834 -11.011899
v 12.410000 45.926834 -11.011899
v 12.790001 46.481879 -11.075686
v 12.410000 46.481879 -11.075686
v 12.790001 47.038702 -11.029963
v 12.410000 47.038702 -11.029963
v 12.790001 47.575907 -10.876488
v 12.410001 47.575907 -10.876488
v 12.790000 48.072847 -10.621159
v 12.410000 48.072847 -10.621159
v 12.790000 48.510427 -10.273787
v 12.410000 48.510427 -10.273787
v 12.790001 48.871830 -9.847722
v 12.410000 48.871830 -9.847722
v 12.790001 49.143168 -9.359338
v 12.410000 49.143168 -9.359338
v 12.790000 49.314012 -8.827403
v 12.410000 49.314012 -8.827403
v 12.790000 49.314012 -8.827403
v 12.410000 49.314012 -8.827403
v 12.790000 49.377799 -8.272359
v 12.410000 49.377799 -8.272359
v 12.790000 49.332076 -7.715535
v 12.410000 49.332076 -7.715535
v 12.790001 49.178601 -7.178331
v 12.410000 49.178601 -7.178331
v 12.790001 48.923272 -6.681390
v 12.410000 48.923272 -6.681390
v 12.790000 48.575900 -6.243810
v 12.410000 48.575900 -6.243810
v 12.790001 48.149836 -5.882407
v 12.410000 48.149836 -5.882407
v 12.790001 47.661452 -5.611070
v 12.410000 47.661452 -5.611070
v 12.790001 47.129516 -5.440225
v 12.410000 47.129516 -5.440225
v 12.790001 46.574472 -5.376438
v 12.410000 46.574472 -5.376438
v 12.790001 46.017648 -5.422161
v 12.410000 46.017648 -5.422161
v 12.790000 45.480444 -5.575636
v 12.410001 45.480444 -5.575636
v 12.790001 44.983504 -5.830965
v 12.410000 44.983503 -5.830966
v 12.790001 44.545924 -6.178337
v 12.410001 44.545924 -6.178337
v 12.790001 44.184521 -6.604402
v 12.269317 47.199647 -7.485032
v 11.140001 46.771813 -7.097358
v 12.248212 46.997460 -7.301823
v 12.180001 46.771813 -7.097358
v 12.180001 46.771813 -7.097358
v 12.248212 46.481918 -7.190540
v 11.140001 46.771813 -7.097358
v 12.269317 46.222161 -7.274035
v 11.140001 45.672508 -7.450713
v 12.248212 45.962403 -7.357530
v 12.180000 45.672508 -7.450713
v 12.180000 45.672508 -7.450713
v 12.248212 45.608258 -7.748361
v 11.140001 45.672508 -7.450713
v 12.269317 45.550689 -8.015065
v 11.140001 45.428870 -8.579417
v 12.248212 45.493119 -8.281769
v 12.180000 45.428870 -8.579417
v 12.180000 45.428870 -8.579417
v 12.248213 45.654516 -8.783883
v 11.140001 45.428870 -8.579417
v 12.269317 45.856703 -8.967092
v 11.140001 46.284537 -9.354766
v 12.248212 46.058891 -9.150301
v 12.180000 46.284537 -9.354766
v 12.269317 47.505662 -8.437059
v 11.140000 47.627481 -7.872707
v 12.248212 47.563232 -8.170355
v 12.180000 47.627481 -7.872707
v 12.180000 46.284537 -9.354766
v 12.248212 46.574433 -9.261584
v 11.140001 46.284537 -9.354766
v 12.269317 46.834190 -9.178089
v 11.140001 47.383843 -9.001411
v 12.248212 47.093947 -9.094594
v 12.180000 47.383843 -9.001411
v 12.248212 46.058891 -9.150301
v 12.846667 46.528175 -8.226062
v 12.180000 46.284537 -9.354766
v 12.269317 45.856703 -8.967092
v 12.846667 46.528175 -8.226062
v 12.248212 46.574433 -9.261584
v 12.180000 45.428870 -8.579417
v 12.846667 46.528175 -8.226062
v 12.248213 45.654516 -8.783883
v 12.248212 45.493119 -8.281769
v 12.846667 46.528175 -8.226062
v 12.846667 46.528175 -8.226062
v 12.269317 45.550689 -8.015065
v 12.180000 45.672508 -7.450713
v 12.846667 46.528175 -8.226062
v 12.248212 45.608258 -7.748361
v 12.248212 45.962403 -7.357530
v 12.846667 46.528175 -8.226062
v 12.846667 46.528175 -8.226062
v 12.269317 46.222161 -7.274035
v 12.180001 46.771813 -7.097358
v 12.846667 46.528175 -8.226062
v 12.248212 46.481918 -7.190540
v 12.248212 46.997460 -7.301823
v 12.846667 46.528175 -8.226062
v 12.846667 46.528175 -8.226062
v 12.269317 47.199647 -7.485032
v 12.180000 47.627481 -7.872707
v 12.846667 46.528175 -8.226062
v 12.248212 47.401835 -7.668241
v 12.248212 47.563232 -8.170355
v 12.846667 46.528175 -8.226062
v 12.846667 46.528175 -8.226062
v 12.269317 47.505662 -8.437059
v 12.180000 47.383843 -9.001411
v 12.846667 46.528175 -8.226062
v 12.248212 47.448092 -8.703763
v 12.248212 47.093947 -9.094594
v 12.846667 46.528175 -8.226062
v 12.846667 46.528175 -8.226062
v 12.269317 47.505662 -8.437059
v 12.269317 46.834190 -9.178089
v 12.846667 46.528175 -8.226062
f 1 2 3
f 1 3 4
f 1 5 2
f 2 5 55
f 2 56 3
f 2 57 56
f 2 55 57
f 3 40 4
f 3 59 40
f 3 56 59
f 4 40 39
f 5 69 55
f 6 7 8
f 6 9 7
f 7 9 10
f 7 96 8
f 7 97 96
f 7 10 97
f 8 96 99
f 9 11 10
f 10 11 12
f 10 110 97
f 10 12 110
f 11 13 12
f 12 13 14
f 12 115 110
f 12 14 115
f 13 15 14
f 14 15 16
f 14 120 115
f 14 16 120
f 15 17 16
f 16 17 18
f 16 125 120
f 16 18 125
f 17 19 18
f 18 19 20
f 18 130 125
f 18 20 130
f 19 21 20
f 20 21 22
f 20 135 130
f 20 22 135
f 21 23 22
f 22 23 24
f 22 140 135
f 22 24 140
f 23 25 24
f 24 25 26
f 24 145 140
f 24 26 145
f 25 27 26
f 26 27 28
f 26 150 145
f 26 28 150
f 27 29 28
f 28 29 30
f 28 155 150
f 28 30 155
f 29 31 30
f 30 31 32
f 30 160 155
f 30 32 160
f 31 33 32
f 32 33 34
f 32 165 160
f 32 34 165
f 33 35 34
f 34 35 36
f 34 170 165
f 34 36 170
f 35 37 36
f 36 37 38
f 36 175 170
f 36 38 175
f 37 39 38
f 38 39 40
f 38 68 175
f 38 40 68
f 40 59 68
f 41 42 43
f 41 43 44
f 41 45 42
f 42 45 65
f 42 64 43
f 42 67 64
f 42 65 67
f 43 54 44
f 43 64 61
f 43 61 54
f 44 54 53
f 45 180 65
f 46 47 48
f 46 49 47
f 46 48 95
f 47 49 50
f 47 50 78
f 47 78 83
f 47 83 48
f 48 88 94
f 48 94 95
f 48 83 88
f 49 51 50
f 50 51 52
f 50 52 73
f 50 73 78
f 51 53 52
f 52 53 54
f 52 54 63
f 52 63 73
f 54 61 63
f 55 69 70
f 55 71 57
f 55 70 71
f 56 58 59
f 56 60 58
f 56 57 60
f 57 72 60
f 57 71 72
f 58 61 62
f 58 63 61
f 58 62 59
f 58 60 63
f 59 62 68
f 60 73 63
f 60 72 73
f 61 64 62
f 62 64 66
f 62 66 68
f 64 67 66
f 65 178 177
f 65 177 67
f 65 180 178
f 66 176 175
f 66 175 68
f 66 67 176
f 67 177 176
f 69 74 70
f 70 74 75
f 70 76 71
f 70 75 76
f 71 77 72
f 71 76 77
f 72 78 73
f 72 77 78
f 74 79 75
f 75 79 80
f 75 81 76
f 75 80 81
f 76 82 77
f 76 81 82
f 77 83 78
f 77 82 83
f 79 84 80
f 80 84 85
f 80 86 81
f 80 85 86
f 81 87 82
f 81 86 87
f 82 88 83
f 82 87 88
f 84 91 85
f 85 89 90
f 85 90 86
f 85 91 89
f 86 90 92
f 86 92 87
f 87 92 93
f 87 93 88
f 88 93 94
f 96 98 99
f 96 100 98
f 96 97 100
f 97 111 100
f 97 110 111
f 98 101 102
f 98 103 101
f 98 100 103
f 98 102 99
f 100 112 103
f 100 111 112
f 101 104 105
f 101 105 106
f 101 103 104
f 101 106 102
f 103 113 104
f 103 112 113
f 104 114 107
f 104 107 105
f 104 113 114
f 105 107 108
f 105 108 109
f 105 109 106
f 110 116 111
f 110 115 116
f 111 117 112
f 111 116 117
f 112 118 113
f 112 117 118
f 113 119 114
f 113 118 119
f 115 121 116
f 115 120 121
f 116 122 117
f 116 121 122
f 117 123 118
f 117 122 123
f 118 124 119
f 118 123 124
f 120 126 121
f 120 125 126
f 121 127 122
f 121 126 127
f 122 128 123
f 122 127 128
f 123 129 124
f 123 128 129
f 125 131 126
f 125 130 131
f 126 132 127
f 126 131 132
f 127 133 128
f 127 132 133
f 128 134 129
f 128 133 134
f 130 136 131
f 130 135 136
f 131 137 132
f 131 136 137
f 132 138 133
f 132 137 138
f 133 139 134
f 133 138 139
f 135 141 136
f 135 140 141
f 136 142 137
f 136 141 142
f 137 143 138
f 137 142 143
f 138 144 139
f 138 143 144
f 140 146 141
f 140 145 146
f 141 147 142
f 141 146 147
f 142 148 143
f 142 147 148
f 143 149 144
f 143 148 149
f 145 151 146
f 145 150 151
f 146 152 147
f 146 151 152
f 147 153 148
f 147 152 153
f 148 154 149
f 148 153 154
f 150 156 151
f 150 155 156
f 151 157 152
f 151 156 157
f 152 158 153
f 152 157 158
f 153 159 154
f 153 158 159
f 155 161 156
f 155 160 161
f 156 162 157
f 156 161 162
f 157 163 158
f 157 162 163
f 158 164 159
f 158 163 164
f 160 166 161
f 160 165 166
f 161 167 162
f 161 166 167
f 162 168 163
f 162 167 168
f 163 169 164
f 163 168 169
f 165 171 166
f 165 170 171
f 166 172 167
f 166 171 172
f 167 173 168
f 167 172 173
f 168 174 169
f 168 173 174
f 170 176 171
f 170 175 176
f 171 177 172
f 171 176 177
f 172 178 173
f 172 177 178
f 173 179 174
f 173 178 179
f 178 180 179
f 181 182 183
f 181 183 184
f 181 185 182
f 182 185 186
f 183 229 184
f 184 229 228
f 185 187 186
f 186 187 188
f 187 189 188
f 188 189 190
f 189 191 190
f 190 191 192
f 191 193 192
f 192 193 194
f 193 195 194
f 194 195 196
f 195 197 196
f 196 197 198
f 197 199 198
f 198 199 200
f 199 201 200
f 200 201 202
f 201 203 202
f 202 203 204
f 203 205 204
f 204 205 206
f 205 489 206
f 207 208 209
f 207 210 208
f 208 210 211
f 210 212 211
f 211 212 213
f 212 214 213
f 213 214 215
f 214 216 215
f 215 216 217
f 216 218 217
f 217 218 219
f 218 220 219
f 219 220 221
f 220 222 221
f 221 222 223
f 222 224 223
f 223 224 225
f 224 226 225
f 225 226 227
f 226 228 227
f 227 228 229
f 230 231 232
f 230 542 541
f 230 232 542
f 231 490 232
f 232 490 491
f 233 234 235
f 233 235 236
f 233 237 234
f 233 236 262
f 234 237 331
f 234 332 235
f 234 331 340
f 234 340 332
f 235 332 334
f 235 334 236
f 236 263 262
f 236 450 263
f 236 334 450
f 237 338 331
f 238 239 240
f 238 339 338
f 238 343 339
f 238 240 343
f 239 241 242
f 239 242 240
f 240 242 347
f 240 347 348
f 240 348 343
f 241 243 244
f 241 244 242
f 242 244 355
f 242 355 347
f 243 358 244
f 244 358 359
f 244 359 355
f 245 246 247
f 245 374 373
f 245 378 374
f 245 247 378
f 246 248 249
f 246 249 247
f 247 249 382
f 247 382 383
f 247 383 378
f 248 250 251
f 248 251 249
f 249 251 388
f 249 388 382
f 250 391 251
f 250 396 395
f 250 395 391
f 251 391 392
f 251 392 388
f 252 253 254
f 252 405 404
f 252 409 405
f 252 254 409
f 253 255 256
f 253 256 254
f 254 256 413
f 254 413 414
f 254 414 409
f 255 257 258
f 255 258 256
f 256 258 419
f 256 419 413
f 257 422 258
f 257 427 426
f 257 426 422
f 258 422 423
f 258 423 419
f 259 260 261
f 259 436 435
f 259 440 436
f 259 261 440
f 260 262 263
f 260 263 261
f 261 263 444
f 261 444 445
f 261 445 440
f 263 450 444
f 264 265 266
f 264 267 265
f 264 266 325
f 265 267 268
f 265 447 449
f 265 268 447
f 265 449 266
f 266 452 326
f 266 326 325
f 266 449 452
f 267 269 268
f 268 269 270
f 268 270 443
f 268 443 447
f 269 271 270
f 270 271 272
f 270 439 443
f 270 272 439
f 271 273 272
f 272 273 274
f 272 433 439
f 272 274 433
f 273 275 274
f 274 275 276
f 274 434 433
f 274 276 434
f 275 277 276
f 276 277 278
f 276 278 425
f 276 425 434
f 277 279 278
f 278 279 280
f 278 421 425
f 278 280 421
f 279 281 280
f 280 281 282
f 280 282 418
f 280 418 421
f 281 283 282
f 282 283 284
f 282 416 418
f 282 284 416
f 283 285 284
f 284 285 286
f 284 286 412
f 284 412 416
f 285 287 286
f 286 287 288
f 286 408 412
f 286 288 408
f 287 289 288
f 288 289 290
f 288 402 408
f 288 290 402
f 289 291 290
f 290 291 292
f 290 403 402
f 290 292 403
f 291 293 292
f 292 293 294
f 292 294 394
f 292 394 403
f 293 295 294
f 294 295 296
f 294 390 394
f 294 296 390
f 295 297 296
f 296 297 298
f 296 298 387
f 296 387 390
f 297 299 298
f 298 299 300
f 298 386 387
f 298 300 386
f 299 301 300
f 300 301 302
f 300 381 386
f 300 302 381
f 301 303 302
f 302 303 304
f 302 377 381
f 302 304 377
f 303 305 304
f 304 305 306
f 304 371 377
f 304 306 371
f 305 307 306
f 306 307 308
f 306 372 371
f 306 308 372
f 307 309 308
f 308 311 617
f 308 309 311
f 308 617 372
f 309 310 311
f 312 313 314
f 312 314 329
f 312 329 328
f 313 315 316
f 313 316 314
f 314 352 357
f 314 316 352
f 314 357 329
f 315 317 318
f 315 318 316
f 316 354 352
f 316 318 354
f 317 319 320
f 317 320 318
f 318 320 346
f 318 346 354
f 319 321 322
f 319 322 320
f 320 342 346
f 320 322 342
f 321 323 324
f 321 324 322
f 322 335 342
f 322 324 335
f 323 325 326
f 323 326 324
f 324 337 335
f 324 326 337
f 326 452 337
f 327 328 329
f 327 329 330
f 327 330 361
f 329 357 330
f 330 349 356
f 330 356 361
f 330 357 349
f 331 338 339
f 331 339 344
f 331 344 340
f 332 333 334
f 332 340 341
f 332 341 333
f 333 335 336
f 333 336 334
f 333 341 342
f 333 342 335
f 334 336 450
f 335 337 336
f 336 451 450
f 336 337 451
f 337 452 451
f 339 351 344
f 339 343 351
f 340 344 345
f 340 345 341
f 341 345 346
f 341 346 342
f 343 348 351
f 344 353 345
f 344 351 353
f 345 354 346
f 345 353 354
f 347 349 348
f 347 355 356
f 347 356 349
f 348 350 351
f 348 349 350
f 349 357 350
f 350 352 353
f 350 353 351
f 350 357 352
f 352 354 353
f 355 359 360
f 355 360 356
f 356 360 361
f 362 363 364
f 362 364 365
f 362 366 367
f 362 368 366
f 362 365 368
f 362 367 363
f 364 373 365
f 365 373 374
f 365 375 368
f 365 374 375
f 366 368 369
f 366 369 370
f 366 619 367
f 366 370 619
f 368 376 369
f 368 375 376
f 369 371 370
f 369 376 377
f 369 377 371
f 370 371 372
f 370 618 619
f 370 372 618
f 372 617 618
f 374 379 375
f 374 378 379
f 375 380 376
f 375 379 380
f 376 381 377
f 376 380 381
f 378 383 379
f 379 383 385
f 379 385 380
f 380 385 386
f 380 386 381
f 382 384 383
f 382 388 389
f 382 389 384
f 383 384 385
f 384 389 390
f 384 387 385
f 384 390 387
f 385 387 386
f 388 392 393
f 388 393 389
f 389 393 394
f 389 394 390
f 391 399 392
f 391 395 399
f 392 401 393
f 392 399 401
f 393 403 394
f 393 401 403
f 395 396 397
f 395 397 398
f 395 398 399
f 396 404 397
f 397 404 405
f 397 405 406
f 397 406 398
f 398 400 399
f 398 406 407
f 398 407 400
f 399 400 401
f 400 402 401
f 400 407 408
f 400 408 402
f 401 402 403
f 405 409 410
f 405 410 406
f 406 410 411
f 406 411 407
f 407 411 412
f 407 412 408
f 409 414 410
f 410 417 411
f 410 414 417
f 411 416 412
f 411 417 416
f 413 415 414
f 413 419 420
f 413 420 415
f 414 415 417
f 415 420 421
f 415 418 417
f 415 421 418
f 416 417 418
f 419 423 424
f 419 424 420
f 420 424 425
f 420 425 421
f 422 430 423
f 422 426 430
f 423 432 424
f 423 430 432
f 424 434 425
f 424 432 434
f 426 427 428
f 426 428 429
f 426 429 430
f 427 435 428
f 428 435 436
f 428 436 437
f 428 437 429
f 429 431 430
f 429 437 438
f 429 438 431
f 430 431 432
f 431 433 432
f 431 438 439
f 431 439 433
f 432 433 434
f 436 440 441
f 436 441 437
f 437 441 442
f 437 442 438
f 438 442 443
f 438 443 439
f 440 445 441
f 441 448 442
f 441 445 448
f 442 447 443
f 442 448 447
f 444 446 445
f 444 450 451
f 444 451 446
f 445 446 448
f 446 451 452
f 446 449 448
f 446 452 449
f 447 448 449
f 453 454 455
f 453 455 456
f 453 457 458
f 453 459 457
f 453 460 454
f 453 456 459
f 454 460 464
f 457 480 458
f 458 476 475
f 458 480 481
f 458 482 476
f 458 481 482
f 460 461 462
f 460 462 463
f 460 465 461
f 460 463 464
f 461 465 469
f 465 466 467
f 465 467 468
f 465 470 466
f 465 468 469
f 466 470 474
f 470 471 472
f 470 472 473
f 470 475 471
f 470 473 474
f 471 475 479
f 475 476 477
f 475 477 478
f 475 478 479
f 483 484 485
f 484 686 485
f 485 686 687
f 486 487 488
f 487 711 488
f 488 711 712
f 490 492 491
f 491 492 493
f 492 494 493
f 493 494 495
f 494 496 495
f 495 496 497
f 495 497 498
f 497 499 498
f 498 499 500
f 499 501 500
f 500 501 502
f 501 503 502
f 502 503 504
f 502 504 505
f 504 506 505
f 505 506 507
f 506 508 507
f 507 508 509
f 508 510 509
f 509 510 511
f 509 511 512
f 511 513 512
f 512 513 514
f 513 515 514
f 514 515 516
f 515 517 516
f 516 517 518
f 516 518 519
f 518 520 519
f 519 520 521
f 520 522 521
f 521 522 523
f 522 524 523
f 523 524 525
f 523 525 526
f 525 527 526
f 526 527 528
f 527 529 528
f 528 529 530
f 529 531 530
f 530 531 532
f 530 532 533
f 532 534 533
f 533 534 535
f 534 536 535
f 535 536 537
f 536 538 537
f 537 538 539
f 537 539 540
f 539 541 540
f 540 541 542
f 543 544 545
f 543 546 544
f 543 592 546
f 544 547 545
f 546 592 591
f 548 549 550
f 549 551 550
f 550 551 552
f 551 553 552
f 552 553 554
f 553 555 554
f 554 555 556
f 555 557 556
f 556 557 558
f 557 559 558
f 558 559 560
f 559 561 560
f 560 561 562
f 561 563 562
f 562 563 564
f 563 565 564
f 564 565 566
f 565 567 566
f 566 567 568
f 567 569 568
f 568 569 570
f 569 571 570
f 570 571 572
f 571 573 572
f 572 573 574
f 573 575 574
f 574 575 576
f 575 577 576
f 576 577 578
f 577 579 578
f 578 579 580
f 579 581 580
f 580 581 582
f 581 583 582
f 582 583 584
f 583 585 584
f 584 585 586
f 585 587 586
f 586 587 588
f 587 589 588
f 588 589 590
f 589 591 590
f 590 591 592
f 593 594 595
f 594 596 595
f 594 597 596
f 596 597 598
f 597 599 598
f 598 599 600
f 599 601 600
f 600 601 602
f 601 603 602
f 602 603 604
f 603 605 604
f 604 605 606
f 605 607 606
f 606 607 608
f 607 609 608
f 608 609 610
f 609 611 610
f 610 611 612
f 611 613 612
f 612 613 614
f 613 615 614
f 614 615 616
f 620 621 622
f 620 623 621
f 620 685 623
f 621 624 622
f 622 624 625
f 623 685 684
f 624 626 625
f 625 626 627
f 626 628 627
f 627 628 629
f 628 630 629
f 629 630 631
f 630 632 631
f 631 632 633
f 632 634 633
f 633 634 635
f 634 636 635
f 635 636 637
f 636 638 637
f 637 638 639
f 638 640 639
f 639 640 641
f 640 642 641
f 641 642 643
f 642 644 643
f 643 644 645
f 644 646 645
f 645 646 647
f 646 648 647
f 647 648 649
f 648 650 649
f 649 650 651
f 650 652 651
f 651 652 653
f 652 654 653
f 653 654 655
f 654 656 655
f 657 658 659
f 658 660 659
f 659 660 661
f 660 662 661
f 661 662 663
f 662 664 663
f 663 664 665
f 664 666 665
f 665 666 667
f 666 668 667
f 667 668 669
f 668 670 669
f 669 670 671
f 670 672 671
f 671 672 673
f 672 674 673
f 673 674 675
f 674 676 675
f 675 676 677
f 676 678 677
f 677 678 679
f 678 680 679
f 679 680 681
f 680 682 681
f 681 682 683
f 682 684 683
f 683 684 685
f 686 688 687
f 687 688 689
f 690 691 692
f 691 693 692
f 692 693 694
f 693 695 694
f 694 695 696
f 697 698 699
f 698 700 699
f 699 700 701
f 700 702 701
f 701 702 703
f 704 705 706
f 705 707 706
f 706 707 708
f 707 709 708
f 708 709 710
f 711 713 712
f 712 713 714
f 715 716 717
f 716 718 717
f 717 718 719
f 718 720 719
f 719 720 721
f 722 723 724
f 722 725 723
f 724 726 727
f 725 730 733
f 727 764 763
f 728 729 730
f 728 731 732
f 731 734 732
f 734 737 740
f 735 736 737
f 735 738 739
f 738 741 739
f 741 744 747
f 742 743 744
f 742 745 746
f 745 748 746
f 748 751 754
f 749 750 751
f 749 752 753
f 752 755 753
f 756 757 758
f 756 759 760
f 758 761 762
f 759 763 760