# ANSI B18.3.4M - M3 x 0.5 x 8(1)
# Autodesk dbId: 28
# Units: mm
o 028_ANSI_B18.3.4M_-_M3_x_0.5_x_8(1)
v -12.310000 4.692768 -74.789240
v -12.306592 4.621719 -74.714664
v -12.306593 4.780113 -75.076055
v -12.310000 4.834030 -75.182311
v -12.310000 4.454586 -74.446123
v -12.310000 2.537534 -74.100062
v -12.306592 2.224082 -74.346375
v -12.306592 2.549392 -74.123068
v -12.310000 2.194418 -74.338245
v -12.306592 1.964526 -74.643567
v -12.310000 1.924638 -74.657116
v -12.306592 1.787033 -74.995971
v -12.310000 1.746582 -75.034946
v -12.306592 1.702756 -75.381444
v -12.310000 1.672382 -75.445986
v -12.306592 1.716990 -75.775766
v -12.310000 1.707095 -75.862225
v -12.306592 1.828841 -76.154159
v -12.310000 1.848357 -76.255297
v -12.306593 2.031280 -76.492849
v -12.310000 2.086539 -76.598413
v -12.306592 2.311588 -76.770553
v -12.310000 2.405410 -76.868192
v -12.306592 2.652152 -76.969823
v -12.310000 2.783241 -77.046249
v -12.306593 3.031573 -77.078138
v -12.310000 3.194281 -77.120449
v -12.306592 3.426010 -77.088692
v -12.310000 3.610520 -77.085735
v -12.306592 3.810680 -77.000822
v -12.310000 4.003591 -76.944474
v -12.306592 4.161413 -76.820048
v -12.310000 4.346708 -76.706292
v -12.306593 4.456170 -76.557731
v -12.310000 4.616487 -76.387420
v -12.306593 4.676431 -76.230351
v -12.310000 4.794543 -76.009590
v -12.306592 4.808356 -75.858480
v -12.310000 4.868743 -75.598550
v -12.306593 4.843656 -75.465484
v -12.210000 4.603880 -74.835054
v -12.235882 4.712302 -75.096099
v -12.235882 4.561024 -74.750942
v -12.210000 4.380585 -74.513382
v -12.210000 4.736313 -75.203558
v -12.210000 2.951853 -74.056518
v -12.235882 3.310774 -74.019399
v -12.235882 2.935762 -74.056614
v -12.210000 3.342077 -74.023974
v -12.235881 3.683259 -74.076614
v -12.210000 3.727427 -74.093536
v -12.235882 4.029813 -74.224666
v -12.210000 4.081643 -74.260464
v -12.235882 4.328660 -74.454250
v -12.306592 4.378427 -74.404017
v -12.296602 4.601017 -74.727038
v -12.296603 4.361452 -74.421151
v -12.280711 4.583240 -74.737663
v -12.296602 4.756984 -75.082892
v -12.280711 4.346876 -74.435864
v -12.260000 4.569599 -74.745817
v -12.280711 4.737123 -75.088763
v -12.260000 4.335692 -74.447153
v -12.260000 4.721883 -75.093267
v -12.235882 4.772991 -75.468034
v -12.280711 4.798856 -75.467101
v -12.260000 4.782975 -75.467674
v -12.296603 4.819554 -75.466354
v -12.310000 4.135715 -74.176344
v -12.306593 4.065523 -74.163635
v -12.296602 4.053343 -74.184451
v -12.280711 4.042884 -74.202327
v -12.260000 4.034858 -74.216043
v -12.310000 3.757884 -73.998287
v -12.306593 3.702670 -74.008620
v -12.296603 3.696049 -74.031811
v -12.280711 3.690364 -74.051727
v -12.260000 3.686002 -74.067008
v -12.310000 3.346844 -73.924088
v -12.306592 3.312665 -73.948713
v -12.296602 3.312020 -73.972823
v -12.280711 3.311466 -73.993526
v -12.260000 3.311041 -74.009412
v -12.310000 2.930605 -73.958801
v -12.306592 2.920015 -73.987679
v -12.296602 2.925386 -74.011191
v -12.280711 2.929999 -74.031382
v -12.260000 2.933538 -74.046875
v -12.306592 2.549392 -74.123068
v -12.296602 2.560441 -74.144506
v -12.310000 2.537534 -74.100062
v -12.280710 2.569930 -74.162915
v -12.260000 2.577210 -74.177042
v -12.235882 2.581787 -74.185921
v -12.210000 2.583348 -74.188950
v -12.296602 2.240116 -74.364391
v -12.296602 1.984537 -74.657030
v -12.280711 2.253884 -74.379862
v -12.296602 2.560441 -74.144506
v -12.280711 2.001720 -74.668591
v -12.260000 2.264449 -74.391734
v -12.280710 2.569930 -74.162915
v -12.260000 2.014906 -74.677462
v -12.235882 2.023194 -74.683039
v -12.235881 2.271091 -74.399197
v -12.260000 2.577210 -74.177042
v -12.210000 2.261677 -74.412246
v -12.210000 2.583348 -74.188950
v -12.235882 2.581787 -74.185921
v -12.296602 1.809763 -75.004034
v -12.280711 1.829282 -75.010959
v -12.260000 1.844260 -75.016272
v -12.235881 1.853675 -75.019612
v -12.210000 2.008759 -74.711188
v -12.296602 1.726778 -75.383602
v -12.280710 1.747405 -75.385454
v -12.260000 1.763233 -75.386876
v -12.235881 1.773183 -75.387770
v -12.210000 1.841831 -75.065404
v -12.296602 1.740794 -75.771882
v -12.280711 1.761234 -75.768546
v -12.260000 1.776918 -75.765987
v -12.235882 1.786778 -75.764378
v -12.210000 1.772268 -75.450754
v -12.296602 1.850930 -76.144478
v -12.280711 1.869899 -76.136164
v -12.260000 1.884454 -76.129785
v -12.235882 1.893604 -76.125774
v -12.210000 1.804812 -75.840978
v -12.296602 2.050268 -76.477978
v -12.280711 2.066573 -76.465208
v -12.260000 2.079085 -76.455409
v -12.235881 2.086950 -76.449250
v -12.210000 1.937245 -76.209482
v -12.296603 2.326281 -76.751427
v -12.280711 2.338898 -76.735004
v -12.260000 2.348580 -76.722401
v -12.235882 2.354666 -76.714479
v -12.210000 2.160540 -76.531154
v -12.296602 2.661627 -76.947644
v -12.280711 2.669764 -76.928599
v -12.260000 2.676007 -76.913985
v -12.235881 2.679932 -76.904798
v -12.210000 2.459482 -76.784072
v -12.296602 3.035235 -77.054300
v -12.280711 3.038379 -77.033829
v -12.260000 3.040792 -77.018121
v -12.235882 3.042308 -77.008247
v -12.210000 2.813698 -76.951000
v -12.296602 3.423629 -77.064692
v -12.280711 3.421583 -77.044082
v -12.260000 3.420014 -77.028268
v -12.235882 3.419028 -77.018327
v -12.210000 3.199048 -77.020562
v -12.296602 3.802405 -76.978168
v -12.280711 3.795299 -76.958714
v -12.260000 3.789846 -76.943787
v -12.235882 3.786418 -76.934404
v -12.210000 3.589272 -76.988018
v -12.296602 4.147764 -76.800164
v -12.280711 4.136043 -76.783089
v -12.260000 4.127049 -76.769987
v -12.235882 4.121395 -76.761751
v -12.210000 3.957777 -76.855586
v -12.296602 4.438005 -76.541866
v -12.280711 4.422405 -76.528242
v -12.260000 4.410436 -76.517788
v -12.235882 4.402912 -76.511217
v -12.210000 4.279448 -76.632290
v -12.296602 4.654891 -76.219502
v -12.280711 4.636394 -76.210186
v -12.260000 4.622200 -76.203037
v -12.235882 4.613278 -76.198543
v -12.210000 4.532366 -76.333348
v -12.296602 4.784794 -75.853329
v -12.280711 4.764562 -75.848905
v -12.260000 4.749037 -75.845511
v -12.235882 4.739277 -75.843377
v -12.210000 4.699294 -75.979132
v -12.210000 4.768857 -75.593782
v -2.616725 4.603881 -74.835054
v -12.210000 4.736313 -75.203558
v -12.210000 4.603880 -74.835054
v -2.616725 4.380585 -74.513382
v -2.616725 4.736313 -75.203558
v -12.210000 4.768857 -75.593782
v -2.616725 4.768857 -75.593782
v -12.210000 4.699294 -75.979132
v -2.616725 4.699295 -75.979132
v -12.210000 4.532366 -76.333348
v -2.616725 4.532367 -76.333348
v -12.210000 4.279448 -76.632290
v -2.616725 4.279449 -76.632290
v -12.210000 3.957777 -76.855586
v -2.616724 3.957777 -76.855586
v -12.210000 3.589272 -76.988018
v -2.616725 3.589273 -76.988018
v -12.210000 3.199048 -77.020562
v -2.616725 3.199049 -77.020562
v -12.210000 2.813698 -76.951000
v -2.616725 2.813699 -76.951000
v -12.210000 2.459482 -76.784072
v -2.616725 2.459483 -76.784072
v -12.210000 2.160540 -76.531154
v -2.616724 2.160541 -76.531154
v -12.210000 1.937245 -76.209482
v -2.616725 1.937245 -76.209482
v -12.210000 1.804812 -75.840978
v -12.210000 1.937245 -76.209482
v -2.616725 1.804813 -75.840978
v -12.210000 1.772268 -75.450754
v -2.616725 1.772269 -75.450754
v -12.210000 1.841831 -75.065404
v -2.616724 1.841831 -75.065404
v -12.210000 2.008759 -74.711188
v -2.616724 2.008759 -74.711188
v -12.210000 2.261677 -74.412246
v -2.616725 2.261677 -74.412246
v -12.210000 2.583348 -74.188950
v -2.616725 2.583349 -74.188950
v -12.210000 2.951853 -74.056518
v -2.616725 2.951853 -74.056518
v -12.210000 3.342077 -74.023974
v -2.616725 3.342077 -74.023974
v -12.210000 3.727427 -74.093536
v -2.616724 3.727427 -74.093536
v -12.210000 4.081643 -74.260464
v -2.616725 4.081643 -74.260464
v -12.210000 4.380585 -74.513382
v -12.310000 6.009921 -74.735873
v -12.310000 5.803866 -74.216561
v -12.310000 4.692768 -74.789240
v -13.960000 4.674991 -74.798402
v -13.916726 4.763967 -74.333623
v -13.916726 4.967165 -74.647811
v -13.916726 5.105163 -74.995604
v -13.960000 4.439786 -74.459575
v -13.960000 3.751793 -74.017337
v -13.960000 3.345891 -73.944065
v -13.916726 3.486060 -73.625772
v -13.960000 2.934855 -73.978344
v -13.916726 3.111931 -73.620171
v -13.960000 2.546697 -74.117840
v -13.916726 2.743899 -73.687667
v -13.960000 1.765631 -75.041038
v -13.960000 1.692359 -75.446940
v -13.916726 1.374066 -75.306771
v -13.960000 1.726639 -75.857976
v -13.916726 1.368466 -75.680899
v -13.960000 1.866134 -76.246134
v -13.916725 1.435961 -76.048932
v -13.960000 2.789332 -77.027199
v -13.960000 3.195234 -77.100471
v -13.916725 3.055065 -77.418764
v -13.960000 3.606270 -77.066192
v -13.916725 3.429194 -77.424365
v -13.960000 3.994428 -76.926696
v -13.916726 3.797226 -77.356869
v -13.960000 4.775493 -76.003499
v -13.960000 4.848766 -75.597596
v -13.916726 5.167058 -75.737765
v -13.960000 4.814486 -75.186560
v -13.916726 5.172659 -75.363637
v -12.690000 6.009921 -74.735873
v -13.018700 6.067578 -75.289002
v -13.018700 5.968326 -74.747814
v -12.690000 6.110703 -75.285406
v -13.018700 6.059342 -75.839155
v -12.690000 6.102340 -75.844041
v -13.018701 5.943935 -76.377130
v -12.690000 5.985153 -76.390310
v -13.018700 5.725792 -76.882253
v -12.690000 5.763646 -76.903222
v -13.018700 5.413295 -77.335113
v -12.690000 5.446332 -77.363064
v -13.018700 5.018454 -77.718306
v -12.690000 5.045404 -77.752165
v -13.018700 4.556444 -78.017107
v -12.690000 4.576269 -78.055572
v -13.018700 4.045017 -78.220032
v -12.690000 4.056958 -78.261626
v -13.018700 3.503828 -78.319284
v -12.690000 3.507425 -78.362408
v -13.018700 2.953676 -78.311048
v -12.690000 2.948790 -78.354045
v -13.018700 2.415701 -78.195641
v -12.690000 2.402520 -78.236859
v -13.018700 1.910577 -77.977497
v -12.690000 1.889609 -78.015352
v -13.018700 1.457718 -77.665001
v -12.690000 1.429767 -77.698038
v -13.018700 1.074525 -77.270160
v -12.690000 1.040666 -77.297109
v -13.018700 0.775724 -76.808149
v -12.690000 0.737259 -76.827975
v -13.018700 0.572799 -76.296722
v -12.690000 0.531204 -76.308663
v -13.018700 0.473547 -75.755534
v -12.690000 0.430422 -75.759130
v -13.018700 0.481783 -75.205381
v -12.690000 0.438785 -75.200495
v -13.018700 0.597190 -74.667406
v -12.690000 0.555972 -74.654226
v -13.018700 0.815333 -74.162283
v -12.690000 0.777479 -74.141315
v -13.018700 1.127830 -73.709423
v -12.690000 1.094793 -73.681473
v -13.018700 1.522670 -73.326230
v -12.690000 1.495721 -73.292371
v -12.690000 1.964856 -72.988964
v -13.018700 1.984681 -73.027430
v -12.690000 2.484167 -72.782910
v -12.690000 3.033700 -72.682128
v -13.018700 3.037297 -72.725252
v -12.690000 3.592335 -72.690491
v -13.018700 3.587450 -72.733488
v -12.690000 4.138605 -72.807677
v -13.018700 4.125424 -72.848896
v -12.690000 4.651516 -73.029184
v -13.018701 4.630548 -73.067039
v -12.690000 5.111358 -73.346499
v -13.018701 5.083407 -73.379535
v -12.690000 5.500459 -73.747427
v -13.018701 5.466600 -73.774376
v -12.690000 5.803866 -74.216561
v -13.018700 5.765401 -74.236387
v -13.018700 1.984681 -73.027430
v -12.690000 1.964856 -72.988964
v -13.018700 2.496108 -72.824504
v -13.325000 2.531116 -72.946452
v -13.916726 4.503379 -74.065113
v -13.789852 5.003622 -74.142874
v -13.588026 5.209419 -73.979074
v -13.789853 5.239428 -74.507482
v -13.325000 5.367332 -73.853387
v -13.588026 5.473226 -74.386979
v -13.325000 5.652626 -74.294513
v -13.960000 4.124900 -74.193168
v -13.916726 4.195414 -73.852602
v -13.789853 4.701216 -73.831275
v -13.588026 4.871102 -73.630474
v -13.325000 5.001461 -73.476394
v -13.916726 3.851907 -73.704254
v -13.789852 4.343830 -73.584661
v -13.588026 4.471278 -73.354575
v -13.325000 4.569072 -73.178024
v -13.789852 3.086475 -73.314931
v -13.789852 3.520642 -73.321431
v -13.588026 3.064615 -73.052816
v -13.588026 3.550338 -73.060087
v -13.789852 3.945199 -73.412507
v -13.325000 3.573125 -72.859551
v -13.588026 4.025310 -73.161979
v -13.325000 4.086782 -72.969741
v -13.789852 2.659382 -73.393258
v -13.588026 2.586806 -73.140444
v -13.325000 3.047841 -72.851687
v -13.916726 2.396105 -73.825665
v -13.789853 2.255776 -73.553402
v -13.588026 2.135273 -73.319604
v -13.325000 2.042808 -73.140205
v -13.916726 2.081917 -74.028863
v -13.960000 2.546697 -74.117840
v -13.960000 2.207869 -74.353045
v -13.916726 1.813408 -74.289452
v -13.789852 1.891168 -73.789208
v -13.916726 2.396105 -73.825665
v -13.789852 1.579570 -74.091615
v -13.588026 1.378769 -73.921729
v -13.588026 1.727369 -73.583412
v -13.325000 1.224689 -73.791370
v -13.325000 1.601681 -73.425498
v -13.960000 1.941462 -74.667930
v -13.916726 1.600896 -74.597417
v -13.789852 1.332955 -74.449001
v -13.588025 1.102869 -74.321553
v -13.325000 0.926318 -74.223759
v -13.916726 1.452549 -74.940923
v -13.789852 1.160802 -74.847632
v -13.588026 0.910273 -74.767520
v -13.325000 0.718035 -74.706049
v -13.789852 1.063225 -75.706356
v -13.789852 1.069725 -75.272189
v -13.588026 0.801110 -75.728216
v -13.588025 0.808381 -75.242492
v -13.325000 0.607845 -75.219706
v -13.325000 0.599981 -75.744990
v -13.789852 1.141553 -76.133449
v -13.588025 0.888738 -76.206025
v -13.325000 0.694747 -76.261715
v -13.916725 1.573960 -76.396725
v -13.789852 1.301696 -76.537054
v -13.588025 1.067899 -76.657558
v -13.325000 0.888499 -76.750023
v -13.916726 1.777158 -76.710914
v -13.960000 2.101339 -76.584961
v -13.916725 2.037746 -76.979423
v -13.789852 1.839909 -77.213261
v -13.789852 1.537503 -76.901662
v -13.588026 1.670023 -77.414062
v -13.588025 1.331706 -77.065462
v -13.325000 1.539664 -77.568142
v -13.324999 1.173793 -77.191150
v -13.960000 2.416225 -76.851368
v -13.916725 2.345711 -77.191935
v -13.789852 2.197295 -77.459875
v -13.588025 2.069847 -77.689961
v -13.325000 1.972053 -77.866513
v -13.916726 2.689218 -77.340282
v -13.789852 2.595926 -77.632029
v -13.588026 2.515815 -77.882558
v -13.325000 2.454343 -78.074795
v -13.789852 3.454650 -77.729605
v -13.789852 3.020483 -77.723105
v -13.588026 3.476510 -77.991721
v -13.325000 2.968000 -78.184986
v -13.588026 2.990787 -77.984449
v -13.325000 3.493284 -78.192849
v -13.789852 3.881743 -77.651278
v -13.588026 3.954319 -77.904093
v -13.325000 4.010009 -78.098084
v -13.916726 4.145020 -77.218871
v -13.789852 4.285349 -77.491134
v -13.588026 4.405852 -77.724932
v -13.325000 4.498317 -77.904332
v -13.916726 4.459208 -77.015673
v -13.960000 4.333256 -76.691491
v -13.916726 4.727717 -76.755084
v -13.789852 4.961555 -76.952921
v -13.789852 4.649957 -77.255328
v -13.588026 5.162356 -77.122808
v -13.588026 4.813756 -77.461125
v -13.325000 5.316436 -77.253166
v -13.325000 4.939444 -77.619038
v -13.960000 4.599663 -76.376606
v -13.916725 4.940229 -76.447119
v -13.789852 5.208170 -76.595535
v -13.588026 5.438256 -76.722983
v -13.325000 5.614807 -76.820777
v -13.916726 5.088576 -76.103613
v -13.789852 5.380323 -76.196904
v -13.588026 5.630852 -76.277016
v -13.325000 5.823089 -76.338488
v -13.789852 5.477899 -75.338180
v -13.789853 5.471400 -75.772348
v -13.588026 5.740015 -75.316320
v -13.325000 5.933280 -75.824831
v -13.588026 5.732744 -75.802044
v -13.325000 5.941144 -75.299547
v -13.789852 5.399572 -74.911087
v -13.588026 5.652387 -74.838511
v -13.325000 5.846378 -74.782822
v -13.960000 4.423950 -75.577320
v -13.960000 4.674991 -74.798402
v -13.960000 4.814486 -75.186560
v -13.960000 4.848766 -75.597596
v -13.960000 4.599663 -76.376606
v -13.960000 3.799580 -76.548657
v -13.960000 4.775493 -76.003499
v -13.960000 3.894932 -74.550931
v -13.960000 3.345891 -73.944065
v -13.960000 3.751793 -74.017337
v -13.960000 4.124900 -74.193168
v -13.960000 4.439786 -74.459575
v -13.960000 2.741545 -74.495879
v -13.960000 1.941462 -74.667930
v -13.960000 2.207869 -74.353045
v -13.960000 2.546697 -74.117840
v -13.960000 2.934855 -73.978344
v -13.960000 2.117175 -75.467217
v -13.960000 1.866134 -76.246134
v -13.960000 1.726639 -75.857976
v -13.960000 1.692359 -75.446940
v -13.960000 1.765631 -75.041038
v -13.960000 2.646193 -76.493605
v -13.960000 3.195234 -77.100471
v -13.960000 2.789332 -77.027199
v -13.960000 2.416225 -76.851368
v -13.960000 2.101339 -76.584961
v -13.960000 4.333256 -76.691491
v -13.960000 3.994428 -76.926696
v -13.960000 3.606270 -77.066192
v -12.920000 2.646193 -76.493605
v -12.851788 2.950350 -76.508123
v -13.960000 2.646193 -76.493605
v -12.920000 2.117175 -75.467217
v -12.851788 2.256681 -75.737883
v -13.960000 2.117175 -75.467217
v -2.616725 1.937245 -76.209482
v -12.310000 5.500459 -73.747427
v -12.310000 4.454586 -74.446123
v -12.310000 5.111358 -73.346499
v -12.310000 4.135715 -74.176344
v -12.310000 4.651516 -73.029184
v -12.310000 3.757884 -73.998287
v -12.310000 4.138605 -72.807677
v -12.310000 3.592335 -72.690491
v -12.310000 3.346844 -73.924088
v -12.310000 3.033700 -72.682128
v -12.310000 2.930605 -73.958801
v -12.310000 2.484167 -72.782910
v -12.310000 2.537534 -74.100062
v -12.310000 1.964856 -72.988964
v -12.310000 1.495721 -73.292371
v -12.310000 2.194418 -74.338245
v -12.310000 1.094793 -73.681473
v -12.310000 1.924638 -74.657116
v -12.310000 0.777479 -74.141315
v -12.310000 1.746582 -75.034946
v -12.310000 0.555972 -74.654226
v -12.310000 0.438785 -75.200495
v -12.310000 1.672382 -75.445986
v -12.309999 0.430422 -75.759130
v -12.310000 1.707095 -75.862225
v -12.309999 0.531204 -76.308663
v -12.310000 1.848357 -76.255297
v -12.310000 0.737259 -76.827975
v -12.310000 1.040666 -77.297109
v -12.310000 2.086539 -76.598413
v -12.310000 1.429767 -77.698038
v -12.310000 2.405410 -76.868192
v -12.309999 1.889609 -78.015352
v -12.310000 2.783241 -77.046249
v -12.310000 2.402520 -78.236859
v -12.310000 2.948790 -78.354045
v -12.310000 3.194281 -77.120449
v -12.310000 3.507425 -78.362408
v -12.310000 3.610520 -77.085735
v -12.310000 4.056958 -78.261626
v -12.310000 4.003591 -76.944474
v -12.310000 4.576269 -78.055572
v -12.310000 5.045404 -77.752165
v -12.310000 4.346708 -76.706292
v -12.310000 5.446332 -77.363063
v -12.310000 4.616487 -76.387420
v -12.310000 5.763646 -76.903222
v -12.310000 4.794543 -76.009590
v -12.310000 5.985153 -76.390311
v -12.310000 6.102340 -75.844041
v -12.310000 4.868743 -75.598550
v -12.310000 6.110703 -75.285406
v -12.310000 4.834030 -75.182311
v -2.616725 4.380585 -74.513382
v -2.310000 4.153604 -74.719682
v -2.616725 4.603881 -74.835054
v -2.310000 3.915791 -74.518482
v -2.310000 4.331240 -74.975578
v -2.616725 4.603881 -74.835054
v -2.310000 4.331240 -74.975578
v -2.616725 4.736313 -75.203558
v -2.310000 4.436592 -75.268729
v -2.616725 4.768857 -75.593782
v -2.310000 4.462481 -75.579159
v -2.616725 4.699295 -75.979132
v -2.310000 4.407143 -75.885711
v -2.616725 4.532367 -76.333348
v -2.310000 4.274349 -76.167496
v -2.616725 4.279449 -76.632290
v -2.310000 4.073149 -76.405309
v -2.616724 3.957777 -76.855586
v -2.310000 3.817253 -76.582945
v -2.616725 3.589273 -76.988018
v -2.310000 3.524102 -76.688297
v -2.616725 3.199049 -77.020562
v -2.310000 3.213672 -76.714186
v -2.616725 2.813699 -76.951000
v -2.310000 2.907120 -76.658848
v -2.616725 2.459483 -76.784072
v -2.310000 2.625335 -76.526054
v -2.616724 2.160541 -76.531154
v -2.310000 2.387522 -76.324854
v -2.616725 1.937245 -76.209482
v -2.310000 2.209886 -76.068958
v -2.616725 1.804813 -75.840978
v -2.310000 2.104534 -75.775807
v -2.616725 1.772269 -75.450754
v -2.310000 2.078645 -75.465377
v -2.616724 1.841831 -75.065404
v -2.310000 2.133983 -75.158825
v -2.616724 2.008759 -74.711188
v -2.310000 2.266777 -74.877040
v -2.616725 2.261677 -74.412246
v -2.309999 2.467977 -74.639227
v -2.616725 2.583349 -74.188950
v -2.310000 2.723873 -74.461591
v -2.616725 2.951853 -74.056518
v -2.309999 3.017024 -74.356239
v -2.616725 3.342077 -74.023974
v -2.310000 3.327454 -74.330350
v -2.616724 3.727427 -74.093536
v -2.310000 3.634006 -74.385688
v -2.616725 4.081643 -74.260464
v -2.310000 4.331240 -74.975578
v -2.310000 4.153604 -74.719682
v -2.310000 4.436592 -75.268729
v -2.310000 4.462481 -75.579159
v -2.310000 3.915791 -74.518482
v -2.310000 4.407143 -75.885711
v -2.310000 3.634006 -74.385688
v -2.310000 4.274349 -76.167496
v -2.310000 3.327454 -74.330350
v -2.310000 4.073149 -76.405309
v -2.309999 3.017024 -74.356239
v -2.310000 3.817253 -76.582945
v -2.310000 2.723873 -74.461591
v -2.310000 3.524102 -76.688297
v -2.309999 2.467977 -74.639227
v -2.310000 3.213672 -76.714186
v -2.310000 2.266777 -74.877040
v -2.310000 2.907120 -76.658848
v -2.310000 2.133983 -75.158825
v -2.310000 2.625335 -76.526054
v -2.310000 2.078645 -75.465377
v -2.310000 2.387522 -76.324854
v -2.310000 2.104534 -75.775807
v -2.310000 2.209886 -76.068958
v -13.325000 2.042808 -73.140205
v -13.588026 2.135273 -73.319604
v -13.789853 2.255776 -73.553402
v -12.310000 6.009921 -74.735873
v -12.690000 6.009921 -74.735873
v -12.310000 5.803866 -74.216561
v -12.690000 6.110703 -75.285406
v -12.690000 5.803866 -74.216561
v -12.310000 5.500459 -73.747427
v -12.690000 5.500459 -73.747427
v -12.310000 5.111358 -73.346499
v -12.690000 5.111358 -73.346499
v -12.310000 4.651516 -73.029184
v -12.690000 4.651516 -73.029184
v -12.310000 4.138605 -72.807677
v -12.690000 4.138605 -72.807677
v -12.310000 3.592335 -72.690491
v -12.690000 3.592335 -72.690491
v -12.310000 3.033700 -72.682128
v -12.690000 3.033700 -72.682128
v -12.310000 2.484167 -72.782910
v -12.690000 2.484167 -72.782910
v -12.310000 1.964856 -72.988964
v -12.690000 1.964856 -72.988964
v -12.310000 1.495721 -73.292371
v -12.690000 1.495721 -73.292371
v -12.310000 1.094793 -73.681473
v -12.690000 1.094793 -73.681473
v -12.310000 0.777479 -74.141315
v -12.690000 0.777479 -74.141315
v -12.310000 0.555972 -74.654226
v -12.690000 0.555972 -74.654226
v -12.310000 0.438785 -75.200495
v -12.690000 0.438785 -75.200495
v -12.309999 0.430422 -75.759130
v -12.690000 0.430422 -75.759130
v -12.309999 0.531204 -76.308663
v -12.690000 0.531204 -76.308663
v -12.310000 0.737259 -76.827975
v -12.690000 0.737259 -76.827975
v -12.310000 0.737259 -76.827975
v -12.690000 0.737259 -76.827975
v -12.310000 1.040666 -77.297109
v -12.690000 1.040666 -77.297109
v -12.310000 1.429767 -77.698038
v -12.690000 1.429767 -77.698038
v -12.309999 1.889609 -78.015352
v -12.690000 1.889609 -78.015352
v -12.310000 2.402520 -78.236859
v -12.690000 2.402520 -78.236859
v -12.310000 2.948790 -78.354045
v -12.690000 2.948790 -78.354045
v -12.310000 3.507425 -78.362408
v -12.690000 3.507425 -78.362408
v -12.310000 4.056958 -78.261626
v -12.690000 4.056958 -78.261626
v -12.310000 4.576269 -78.055572
v -12.690000 4.576269 -78.055572
v -12.310000 5.045404 -77.752165
v -12.690000 5.045404 -77.752165
v -12.310000 5.446332 -77.363063
v -12.690000 5.446332 -77.363064
v -12.310000 5.763646 -76.903222
v -12.690000 5.763646 -76.903222
v -12.310000 5.985153 -76.390311
v -12.690000 5.985153 -76.390310
v -12.310000 6.102340 -75.844041
v -12.690000 6.102340 -75.844041
v -12.310000 6.110703 -75.285406
v -12.830684 3.222886 -76.521131
v -13.960000 3.799580 -76.548657
v -12.851788 3.495423 -76.534139
v -12.920000 3.799580 -76.548657
v -12.920000 3.799580 -76.548657
v -12.851788 3.964231 -76.292507
v -13.960000 3.799580 -76.548657
v -12.830684 4.111765 -76.062988
v -13.960000 4.423950 -75.577320
v -12.851788 4.259299 -75.833469
v -12.920000 4.423950 -75.577320
v -12.920000 4.423950 -75.577320
v -12.851788 4.284444 -75.306653
v -13.960000 4.423950 -75.577320
v -12.830684 4.159441 -75.064125
v -13.960000 3.894932 -74.550931
v -12.851788 4.034438 -74.821598
v -12.920000 3.894932 -74.550931
v -12.920000 3.894932 -74.550931
v -12.851788 3.590775 -74.536413
v -13.960000 3.894932 -74.550931
v -12.830684 3.318239 -74.523405
v -13.960000 2.741545 -74.495879
v -12.851788 3.045702 -74.510397
v -12.920000 2.741545 -74.495880
v -12.830683 2.381684 -75.980411
v -13.960000 2.646193 -76.493605
v -12.851788 2.506687 -76.222938
v -12.920000 2.646193 -76.493605
v -12.920000 2.741545 -74.495880
v -12.851788 2.576893 -74.752029
v -13.960000 2.741545 -74.495879
v -12.830683 2.429360 -74.981548
v -13.960000 2.117175 -75.467217
v -12.851788 2.281826 -75.211067
v -12.920000 2.117175 -75.467217
v -12.851788 3.045702 -74.510397
v -12.253333 3.270563 -75.522268
v -12.920000 2.741545 -74.495880
v -12.830684 3.318239 -74.523405
v -12.253333 3.270563 -75.522268
v -12.851788 2.576893 -74.752029
v -12.920000 3.894932 -74.550931
v -12.253333 3.270563 -75.522268
v -12.851788 3.590775 -74.536413
v -12.851788 4.034438 -74.821598
v -12.253333 3.270563 -75.522268
v -12.253333 3.270563 -75.522268
v -12.830684 4.159441 -75.064125
v -12.920000 4.423950 -75.577320
v -12.253333 3.270563 -75.522268
v -12.851788 4.284444 -75.306653
v -12.851788 4.259299 -75.833469
v -12.253333 3.270563 -75.522268
v -12.253333 3.270563 -75.522268
v -12.830684 4.111765 -76.062988
v -12.920000 3.799580 -76.548657
v -12.253333 3.270563 -75.522268
v -12.851788 3.964231 -76.292507
v -12.851788 3.495423 -76.534139
v -12.253333 3.270563 -75.522268
v -12.253333 3.270563 -75.522268
v -12.830684 3.222886 -76.521131
v -12.920000 2.646193 -76.493605
v -12.253333 3.270563 -75.522268
v -12.851788 2.950350 -76.508123
v -12.851788 2.506687 -76.222938
v -12.253333 3.270563 -75.522268
v -12.253333 3.270563 -75.522268
v -12.830683 2.381684 -75.980411
v -12.920000 2.117175 -75.467217
v -12.253333 3.270563 -75.522268
v -12.851788 2.256681 -75.737883
v -12.851788 2.281826 -75.211067
v -12.253333 3.270563 -75.522268
v -12.253333 3.270563 -75.522268
v -12.830683 2.381684 -75.980411
v -12.830683 2.429360 -74.981548
v -12.253333 3.270563 -75.522268
f 1 2 3
f 1 3 4
f 1 5 2
f 2 5 55
f 2 56 3
f 2 57 56
f 2 55 57
f 3 40 4
f 3 59 40
f 3 56 59
f 4 40 39
f 5 69 55
f 6 7 8
f 6 9 7
f 7 9 10
f 7 96 8
f 7 97 96
f 7 10 97
f 8 96 99
f 9 11 10
f 10 11 12
f 10 110 97
f 10 12 110
f 11 13 12
f 12 13 14
f 12 115 110
f 12 14 115
f 13 15 14
f 14 15 16
f 14 120 115
f 14 16 120
f 15 17 16
f 16 17 18
f 16 125 120
f 16 18 125
f 17 19 18
f 18 19 20
f 18 130 125
f 18 20 130
f 19 21 20
f 20 21 22
f 20 135 130
f 20 22 135
f 21 23 22
f 22 23 24
f 22 140 135
f 22 24 140
f 23 25 24
f 24 25 26
f 24 145 140
f 24 26 145
f 25 27 26
f 26 27 28
f 26 150 145
f 26 28 150
f 27 29 28
f 28 29 30
f 28 155 150
f 28 30 155
f 29 31 30
f 30 31 32
f 30 160 155
f 30 32 160
f 31 33 32
f 32 33 34
f 32 165 160
f 32 34 165
f 33 35 34
f 34 35 36
f 34 170 165
f 34 36 170
f 35 37 36
f 36 37 38
f 36 175 170
f 36 38 175
f 37 39 38
f 38 39 40
f 38 68 175
f 38 40 68
f 40 59 68
f 41 42 43
f 41 43 44
f 41 45 42
f 42 45 65
f 42 64 43
f 42 67 64
f 42 65 67
f 43 54 44
f 43 64 61
f 43 61 54
f 44 54 53
f 45 180 65
f 46 47 48
f 46 49 47
f 46 48 95
f 47 49 50
f 47 50 78
f 47 78 83
f 47 83 48
f 48 88 94
f 48 94 95
f 48 83 88
f 49 51 50
f 50 51 52
f 50 52 73
f 50 73 78
f 51 53 52
f 52 53 54
f 52 54 63
f 52 63 73
f 54 61 63
f 55 69 70
f 55 71 57
f 55 70 71
f 56 58 59
f 56 60 58
f 56 57 60
f 57 72 60
f 57 71 72
f 58 61 62
f 58 63 61
f 58 62 59
f 58 60 63
f 59 62 68
f 60 73 63
f 60 72 73
f 61 64 62
f 62 64 66
f 62 66 68
f 64 67 66
f 65 178 177
f 65 177 67
f 65 180 178
f 66 176 175
f 66 175 68
f 66 67 176
f 67 177 176
f 69 74 70
f 70 74 75
f 70 76 71
f 70 75 76
f 71 77 72
f 71 76 77
f 72 78 73
f 72 77 78
f 74 79 75
f 75 79 80
f 75 81 76
f 75 80 81
f 76 82 77
f 76 81 82
f 77 83 78
f 77 82 83
f 79 84 80
f 80 84 85
f 80 86 81
f 80 85 86
f 81 87 82
f 81 86 87
f 82 88 83
f 82 87 88
f 84 91 85
f 85 89 90
f 85 90 86
f 85 91 89
f 86 90 92
f 86 92 87
f 87 92 93
f 87 93 88
f 88 93 94
f 96 98 99
f 96 100 98
f 96 97 100
f 97 111 100
f 97 110 111
f 98 101 102
f 98 103 101
f 98 100 103
f 98 102 99
f 100 112 103
f 100 111 112
f 101 104 105
f 101 105 106
f 101 103 104
f 101 106 102
f 103 113 104
f 103 112 113
f 104 114 107
f 104 107 105
f 104 113 114
f 105 107 108
f 105 108 109
f 105 109 106
f 110 116 111
f 110 115 116
f 111 117 112
f 111 116 117
f 112 118 113
f 112 117 118
f 113 119 114
f 113 118 119
f 115 121 116
f 115 120 121
f 116 122 117
f 116 121 122
f 117 123 118
f 117 122 123
f 118 124 119
f 118 123 124
f 120 126 121
f 120 125 126
f 121 127 122
f 121 126 127
f 122 128 123
f 122 127 128
f 123 129 124
f 123 128 129
f 125 131 126
f 125 130 131
f 126 132 127
f 126 131 132
f 127 133 128
f 127 132 133
f 128 134 129
f 128 133 134
f 130 136 131
f 130 135 136
f 131 137 132
f 131 136 137
f 132 138 133
f 132 137 138
f 133 139 134
f 133 138 139
f 135 141 136
f 135 140 141
f 136 142 137
f 136 141 142
f 137 143 138
f 137 142 143
f 138 144 139
f 138 143 144
f 140 146 141
f 140 145 146
f 141 147 142
f 141 146 147
f 142 148 143
f 142 147 148
f 143 149 144
f 143 148 149
f 145 151 146
f 145 150 151
f 146 152 147
f 146 151 152
f 147 153 148
f 147 152 153
f 148 154 149
f 148 153 154
f 150 156 151
f 150 155 156
f 151 157 152
f 151 156 157
f 152 158 153
f 152 157 158
f 153 159 154
f 153 158 159
f 155 161 156
f 155 160 161
f 156 162 157
f 156 161 162
f 157 163 158
f 157 162 163
f 158 164 159
f 158 163 164
f 160 166 161
f 160 165 166
f 161 167 162
f 161 166 167
f 162 168 163
f 162 167 168
f 163 169 164
f 163 168 169
f 165 171 166
f 165 170 171
f 166 172 167
f 166 171 172
f 167 173 168
f 167 172 173
f 168 174 169
f 168 173 174
f 170 176 171
f 170 175 176
f 171 177 172
f 171 176 177
f 172 178 173
f 172 177 178
f 173 179 174
f 173 178 179
f 178 180 179
f 181 182 183
f 181 183 184
f 181 185 182
f 182 185 186
f 183 229 184
f 184 229 228
f 185 187 186
f 186 187 188
f 187 189 188
f 188 189 190
f 189 191 190
f 190 191 192
f 191 193 192
f 192 193 194
f 193 195 194
f 194 195 196
f 195 197 196
f 196 197 198
f 197 199 198
f 198 199 200
f 199 201 200
f 200 201 202
f 201 203 202
f 202 203 204
f 203 205 204
f 204 205 206
f 205 489 206
f 207 208 209
f 207 210 208
f 208 210 211
f 210 212 211
f 211 212 213
f 212 214 213
f 213 214 215
f 214 216 215
f 215 216 217
f 216 218 217
f 217 218 219
f 218 220 219
f 219 220 221
f 220 222 221
f 221 222 223
f 222 224 223
f 223 224 225
f 224 226 225
f 225 226 227
f 226 228 227
f 227 228 229
f 230 231 232
f 230 542 541
f 230 232 542
f 231 490 232
f 232 490 491
f 233 234 235
f 233 235 236
f 233 237 234
f 233 236 262
f 234 237 331
f 234 332 235
f 234 331 340
f 234 340 332
f 235 332 334
f 235 334 236
f 236 263 262
f 236 450 263
f 236 334 450
f 237 338 331
f 238 239 240
f 238 339 338
f 238 343 339
f 238 240 343
f 239 241 242
f 239 242 240
f 240 242 347
f 240 347 348
f 240 348 343
f 241 243 244
f 241 244 242
f 242 244 355
f 242 355 347
f 243 358 244
f 244 358 359
f 244 359 355
f 245 246 247
f 245 374 373
f 245 378 374
f 245 247 378
f 246 248 249
f 246 249 247
f 247 249 382
f 247 382 383
f 247 383 378
f 248 250 251
f 248 251 249
f 249 251 388
f 249 388 382
f 250 391 251
f 250 396 395
f 250 395 391
f 251 391 392
f 251 392 388
f 252 253 254
f 252 405 404
f 252 409 405
f 252 254 409
f 253 255 256
f 253 256 254
f 254 256 413
f 254 413 414
f 254 414 409
f 255 257 258
f 255 258 256
f 256 258 419
f 256 419 413
f 257 422 258
f 257 427 426
f 257 426 422
f 258 422 423
f 258 423 419
f 259 260 261
f 259 436 435
f 259 440 436
f 259 261 440
f 260 262 263
f 260 263 261
f 261 263 444
f 261 444 445
f 261 445 440
f 263 450 444
f 264 265 266
f 264 267 265
f 264 266 325
f 265 267 268
f 265 447 449
f 265 268 447
f 265 449 266
f 266 452 326
f 266 326 325
f 266 449 452
f 267 269 268
f 268 269 270
f 268 270 443
f 268 443 447
f 269 271 270
f 270 271 272
f 270 439 443
f 270 272 439
f 271 273 272
f 272 273 274
f 272 433 439
f 272 274 433
f 273 275 274
f 274 275 276
f 274 434 433
f 274 276 434
f 275 277 276
f 276 277 278
f 276 278 425
f 276 425 434
f 277 279 278
f 278 279 280
f 278 421 425
f 278 280 421
f 279 281 280
f 280 281 282
f 280 282 418
f 280 418 421
f 281 283 282
f 282 283 284
f 282 416 418
f 282 284 416
f 283 285 284
f 284 285 286
f 284 286 412
f 284 412 416
f 285 287 286
f 286 287 288
f 286 408 412
f 286 288 408
f 287 289 288
f 288 289 290
f 288 402 408
f 288 290 402
f 289 291 290
f 290 291 292
f 290 403 402
f 290 292 403
f 291 293 292
f 292 293 294
f 292 294 394
f 292 394 403
f 293 295 294
f 294 295 296
f 294 390 394
f 294 296 390
f 295 297 296
f 296 297 298
f 296 298 387
f 296 387 390
f 297 299 298
f 298 299 300
f 298 386 387
f 298 300 386
f 299 301 300
f 300 301 302
f 300 381 386
f 300 302 381
f 301 303 302
f 302 303 304
f 302 377 381
f 302 304 377
f 303 305 304
f 304 305 306
f 304 371 377
f 304 306 371
f 305 307 306
f 306 307 308
f 306 372 371
f 306 308 372
f 307 309 308
f 308 311 617
f 308 309 311
f 308 617 372
f 309 310 311
f 312 313 314
f 312 314 329
f 312 329 328
f 313 315 316
f 313 316 314
f 314 352 357
f 314 316 352
f 314 357 329
f 315 317 318
f 315 318 316
f 316 354 352
f 316 318 354
f 317 319 320
f 317 320 318
f 318 320 346
f 318 346 354
f 319 321 322
f 319 322 320
f 320 342 346
f 320 322 342
f 321 323 324
f 321 324 322
f 322 335 342
f 322 324 335
f 323 325 326
f 323 326 324
f 324 337 335
f 324 326 337
f 326 452 337
f 327 328 329
f 327 329 330
f 327 330 361
f 329 357 330
f 330 349 356
f 330 356 361
f 330 357 349
f 331 338 339
f 331 339 344
f 331 344 340
f 332 333 334
f 332 340 341
f 332 341 333
f 333 335 336
f 333 336 334
f 333 341 342
f 333 342 335
f 334 336 450
f 335 337 336
f 336 451 450
f 336 337 451
f 337 452 451
f 339 351 344
f 339 343 351
f 340 344 345
f 340 345 341
f 341 345 346
f 341 346 342
f 343 348 351
f 344 353 345
f 344 351 353
f 345 354 346
f 345 353 354
f 347 349 348
f 347 355 356
f 347 356 349
f 348 350 351
f 348 349 350
f 349 357 350
f 350 352 353
f 350 353 351
f 350 357 352
f 352 354 353
f 355 359 360
f 355 360 356
f 356 360 361
f 362 363 364
f 362 364 365
f 362 366 367
f 362 368 366
f 362 365 368
f 362 367 363
f 364 373 365
f 365 373 374
f 365 375 368
f 365 374 375
f 366 368 369
f 366 369 370
f 366 619 367
f 366 370 619
f 368 376 369
f 368 375 376
f 369 371 370
f 369 376 377
f 369 377 371
f 370 371 372
f 370 618 619
f 370 372 618
f 372 617 618
f 374 379 375
f 374 378 379
f 375 380 376
f 375 379 380
f 376 381 377
f 376 380 381
f 378 383 379
f 379 383 385
f 379 385 380
f 380 385 386
f 380 386 381
f 382 384 383
f 382 388 389
f 382 389 384
f 383 384 385
f 384 389 390
f 384 387 385
f 384 390 387
f 385 387 386
f 388 392 393
f 388 393 389
f 389 393 394
f 389 394 390
f 391 399 392
f 391 395 399
f 392 401 393
f 392 399 401
f 393 403 394
f 393 401 403
f 395 396 397
f 395 397 398
f 395 398 399
f 396 404 397
f 397 404 405
f 397 405 406
f 397 406 398
f 398 400 399
f 398 406 407
f 398 407 400
f 399 400 401
f 400 402 401
f 400 407 408
f 400 408 402
f 401 402 403
f 405 409 410
f 405 410 406
f 406 410 411
f 406 411 407
f 407 411 412
f 407 412 408
f 409 414 410
f 410 417 411
f 410 414 417
f 411 416 412
f 411 417 416
f 413 415 414
f 413 419 420
f 413 420 415
f 414 415 417
f 415 420 421
f 415 418 417
f 415 421 418
f 416 417 418
f 419 423 424
f 419 424 420
f 420 424 425
f 420 425 421
f 422 430 423
f 422 426 430
f 423 432 424
f 423 430 432
f 424 434 425
f 424 432 434
f 426 427 428
f 426 428 429
f 426 429 430
f 427 435 428
f 428 435 436
f 428 436 437
f 428 437 429
f 429 431 430
f 429 437 438
f 429 438 431
f 430 431 432
f 431 433 432
f 431 438 439
f 431 439 433
f 432 433 434
f 436 440 441
f 436 441 437
f 437 441 442
f 437 442 438
f 438 442 443
f 438 443 439
f 440 445 441
f 441 448 442
f 441 445 448
f 442 447 443
f 442 448 447
f 444 446 445
f 444 450 451
f 444 451 446
f 445 446 448
f 446 451 452
f 446 449 448
f 446 452 449
f 447 448 449
f 453 454 455
f 453 455 456
f 453 457 458
f 453 459 457
f 453 460 454
f 453 456 459
f 454 460 464
f 457 480 458
f 458 476 475
f 458 480 481
f 458 482 476
f 458 481 482
f 460 461 462
f 460 462 463
f 460 465 461
f 460 463 464
f 461 465 469
f 465 466 467
f 465 467 468
f 465 470 466
f 465 468 469
f 466 470 474
f 470 471 472
f 470 472 473
f 470 475 471
f 470 473 474
f 471 475 479
f 475 476 477
f 475 477 478
f 475 478 479
f 483 484 485
f 484 686 485
f 485 686 687
f 486 487 488
f 487 711 488
f 488 711 712
f 490 492 491
f 491 492 493
f 492 494 493
f 493 494 495
f 494 496 495
f 495 496 497
f 495 497 498
f 497 499 498
f 498 499 500
f 499 501 500
f 500 501 502
f 501 503 502
f 502 503 504
f 502 504 505
f 504 506 505
f 505 506 507
f 506 508 507
f 507 508 509
f 508 510 509
f 509 510 511
f 509 511 512
f 511 513 512
f 512 513 514
f 513 515 514
f 514 515 516
f 515 517 516
f 516 517 518
f 516 518 519
f 518 520 519
f 519 520 521
f 520 522 521
f 521 522 523
f 522 524 523
f 523 524 525
f 523 525 526
f 525 527 526
f 526 527 528
f 527 529 528
f 528 529 530
f 529 531 530
f 530 531 532
f 530 532 533
f 532 534 533
f 533 534 535
f 534 536 535
f 535 536 537
f 536 538 537
f 537 538 539
f 537 539 540
f 539 541 540
f 540 541 542
f 543 544 545
f 543 546 544
f 543 592 546
f 544 547 545
f 546 592 591
f 548 549 550
f 549 551 550
f 550 551 552
f 551 553 552
f 552 553 554
f 553 555 554
f 554 555 556
f 555 557 556
f 556 557 558
f 557 559 558
f 558 559 560
f 559 561 560
f 560 561 562
f 561 563 562
f 562 563 564
f 563 565 564
f 564 565 566
f 565 567 566
f 566 567 568
f 567 569 568
f 568 569 570
f 569 571 570
f 570 571 572
f 571 573 572
f 572 573 574
f 573 575 574
f 574 575 576
f 575 577 576
f 576 577 578
f 577 579 578
f 578 579 580
f 579 581 580
f 580 581 582
f 581 583 582
f 582 583 584
f 583 585 584
f 584 585 586
f 585 587 586
f 586 587 588
f 587 589 588
f 588 589 590
f 589 591 590
f 590 591 592
f 593 594 595
f 594 596 595
f 594 597 596
f 596 597 598
f 597 599 598
f 598 599 600
f 599 601 600
f 600 601 602
f 601 603 602
f 602 603 604
f 603 605 604
f 604 605 606
f 605 607 606
f 606 607 608
f 607 609 608
f 608 609 610
f 609 611 610
f 610 611 612
f 611 613 612
f 612 613 614
f 613 615 614
f 614 615 616
f 620 621 622
f 620 623 621
f 620 685 623
f 621 624 622
f 622 624 625
f 623 685 684
f 624 626 625
f 625 626 627
f 626 628 627
f 627 628 629
f 628 630 629
f 629 630 631
f 630 632 631
f 631 632 633
f 632 634 633
f 633 634 635
f 634 636 635
f 635 636 637
f 636 638 637
f 637 638 639
f 638 640 639
f 639 640 641
f 640 642 641
f 641 642 643
f 642 644 643
f 643 644 645
f 644 646 645
f 645 646 647
f 646 648 647
f 647 648 649
f 648 650 649
f 649 650 651
f 650 652 651
f 651 652 653
f 652 654 653
f 653 654 655
f 654 656 655
f 657 658 659
f 658 660 659
f 659 660 661
f 660 662 661
f 661 662 663
f 662 664 663
f 663 664 665
f 664 666 665
f 665 666 667
f 666 668 667
f 667 668 669
f 668 670 669
f 669 670 671
f 670 672 671
f 671 672 673
f 672 674 673
f 673 674 675
f 674 676 675
f 675 676 677
f 676 678 677
f 677 678 679
f 678 680 679
f 679 680 681
f 680 682 681
f 681 682 683
f 682 684 683
f 683 684 685
f 686 688 687
f 687 688 689
f 690 691 692
f 691 693 692
f 692 693 694
f 693 695 694
f 694 695 696
f 697 698 699
f 698 700 699
f 699 700 701
f 700 702 701
f 701 702 703
f 704 705 706
f 705 707 706
f 706 707 708
f 707 709 708
f 708 709 710
f 711 713 712
f 712 713 714
f 715 716 717
f 716 718 717
f 717 718 719
f 718 720 719
f 719 720 721
f 722 723 724
f 722 725 723
f 724 726 727
f 725 730 733
f 727 764 763
f 728 729 730
f 728 731 732
f 731 734 732
f 734 737 740
f 735 736 737
f 735 738 739
f 738 741 739
f 741 744 747
f 742 743 744
f 742 745 746
f 745 748 746
f 748 751 754
f 749 750 751
f 749 752 753
f 752 755 753
f 756 757 758
f 756 759 760
f 758 761 762
f 759 763 760