# ANSI B18.3.4M - M3 x 0.5 x 8(1)
# Autodesk dbId: 29
# Units: mm
o 029_ANSI_B18.3.4M_-_M3_x_0.5_x_8(1)
v 18.490000 3.194281 -77.120448
v 18.486592 3.096935 -77.086781
v 18.486593 3.491469 -77.080808
v 18.490000 3.610519 -77.085735
v 18.490000 2.783240 -77.046248
v 18.489999 1.672382 -75.445986
v 18.486592 1.766296 -75.058556
v 18.486592 1.698235 -75.447220
v 18.490000 1.746582 -75.034946
v 18.486592 1.928876 -74.699028
v 18.490000 1.924638 -74.657115
v 18.486592 2.175758 -74.391228
v 18.490000 2.194418 -74.338244
v 18.486592 2.491432 -74.154495
v 18.490000 2.537534 -74.100062
v 18.486592 2.856061 -74.003704
v 18.490000 2.930606 -73.958801
v 18.486592 3.246735 -73.948330
v 18.490000 3.346844 -73.924087
v 18.486593 3.638906 -73.991852
v 18.490000 3.757885 -73.998287
v 18.486592 4.007933 -74.131537
v 18.490000 4.135715 -74.176344
v 18.486592 4.330628 -74.358605
v 18.490000 4.454586 -74.446123
v 18.486593 4.586715 -74.658791
v 18.490000 4.692768 -74.789239
v 18.486593 4.760103 -75.013233
v 18.490000 4.834030 -75.182311
v 18.486592 4.839898 -75.399659
v 18.490000 4.868743 -75.598550
v 18.486592 4.821086 -75.793789
v 18.490000 4.794543 -76.009590
v 18.486593 4.704849 -76.170858
v 18.490000 4.616487 -76.387420
v 18.486593 4.498491 -76.507174
v 18.490000 4.346707 -76.706291
v 18.486592 4.214977 -76.781605
v 18.490000 4.003591 -76.944474
v 18.486592 3.872122 -76.976907
v 18.390000 3.199048 -77.020562
v 18.415881 3.481546 -77.010797
v 18.415882 3.104735 -77.016502
v 18.390000 2.813698 -76.951000
v 18.390000 3.589272 -76.988018
v 18.390000 1.804812 -75.840977
v 18.415882 1.920084 -76.182905
v 18.415881 1.798218 -75.826300
v 18.390000 1.937245 -76.209482
v 18.415881 2.126806 -76.498001
v 18.390000 2.160540 -76.531154
v 18.415881 2.405394 -76.751787
v 18.390000 2.459482 -76.784071
v 18.415881 2.738344 -76.928318
v 18.486592 2.713312 -76.994450
v 18.476602 3.099596 -77.062810
v 18.476602 2.721850 -76.971893
v 18.460711 3.101880 -77.042226
v 18.476602 3.488084 -77.056929
v 18.460711 2.729181 -76.952524
v 18.440000 3.103633 -77.026431
v 18.460711 3.485178 -77.036423
v 18.440000 2.734807 -76.937661
v 18.440000 3.482948 -77.020688
v 18.415882 3.845099 -76.911563
v 18.460711 3.854990 -76.935480
v 18.440000 3.848917 -76.920795
v 18.476603 3.862905 -76.954619
v 18.490000 2.405410 -76.868192
v 18.486592 2.364702 -76.809616
v 18.476602 2.378581 -76.789891
v 18.460710 2.390500 -76.772954
v 18.440000 2.399645 -76.759957
v 18.490000 2.086539 -76.598413
v 18.486592 2.073011 -76.543893
v 18.476602 2.091359 -76.528240
v 18.460711 2.107116 -76.514798
v 18.440000 2.119206 -76.504484
v 18.490000 1.848357 -76.255296
v 18.486592 1.856566 -76.213978
v 18.476602 1.878231 -76.203379
v 18.460711 1.896835 -76.194279
v 18.440000 1.911110 -76.187295
v 18.490000 1.707095 -75.862225
v 18.486592 1.728968 -75.840600
v 18.476602 1.752588 -75.835722
v 18.460711 1.772871 -75.831534
v 18.440000 1.788434 -75.828320
v 18.486592 1.698235 -75.447220
v 18.476602 1.722325 -75.448370
v 18.489999 1.672382 -75.445986
v 18.460710 1.743012 -75.449357
v 18.440000 1.758886 -75.450115
v 18.415881 1.768865 -75.450591
v 18.390000 1.772268 -75.450754
v 18.476602 1.789344 -75.065660
v 18.476602 1.949432 -74.711641
v 18.460711 1.809135 -75.071761
v 18.476602 1.722325 -75.448370
v 18.460711 1.967085 -74.722473
v 18.440000 1.824322 -75.076443
v 18.460710 1.743012 -75.449357
v 18.440000 1.980630 -74.730784
v 18.415882 1.989145 -74.736009
v 18.415881 1.833869 -75.079386
v 18.440000 1.758886 -75.450115
v 18.390000 1.841831 -75.065403
v 18.390000 1.772268 -75.450754
v 18.415881 1.768865 -75.450591
v 18.476602 2.192533 -74.408557
v 18.460711 2.206937 -74.423438
v 18.440000 2.217990 -74.434857
v 18.415881 2.224938 -74.442035
v 18.390000 2.008759 -74.711187
v 18.476602 2.503369 -74.175451
v 18.460710 2.513621 -74.193447
v 18.440000 2.521487 -74.207255
v 18.415881 2.526431 -74.215936
v 18.390000 2.261677 -74.412245
v 18.476602 2.862412 -74.026971
v 18.460711 2.867866 -74.046950
v 18.440000 2.872050 -74.062281
v 18.415882 2.874681 -74.071919
v 18.390000 2.583348 -74.188950
v 18.476602 3.247100 -73.972445
v 18.460711 3.247414 -73.993154
v 18.440000 3.247654 -74.009044
v 18.415882 3.247805 -74.019032
v 18.390000 2.951853 -74.056517
v 18.476602 3.633262 -74.015301
v 18.460711 3.628416 -74.035437
v 18.440000 3.624697 -74.050887
v 18.415881 3.622360 -74.060600
v 18.390000 3.342077 -74.023973
v 18.476603 3.996635 -74.152845
v 18.460711 3.986933 -74.171143
v 18.440000 3.979489 -74.185183
v 18.415882 3.974809 -74.194009
v 18.390000 3.727427 -74.093536
v 18.476602 4.314386 -74.376435
v 18.460711 4.300438 -74.391745
v 18.440000 4.289736 -74.403493
v 18.415882 4.283009 -74.410878
v 18.390000 4.081643 -74.260464
v 18.476602 4.566549 -74.672021
v 18.460711 4.549232 -74.683382
v 18.440000 4.535945 -74.692100
v 18.415882 4.527592 -74.697580
v 18.390000 4.380585 -74.513382
v 18.476602 4.737281 -75.021032
v 18.460711 4.717683 -75.027730
v 18.440000 4.702645 -75.032869
v 18.415882 4.693192 -75.036099
v 18.390000 4.603881 -74.835054
v 18.476603 4.815853 -75.401537
v 18.460711 4.795206 -75.403151
v 18.440000 4.779362 -75.404388
v 18.415882 4.769402 -75.405167
v 18.390000 4.736313 -75.203558
v 18.476603 4.797330 -75.789629
v 18.460711 4.776929 -75.786056
v 18.440000 4.761276 -75.783315
v 18.415882 4.751435 -75.781592
v 18.390000 4.768857 -75.593782
v 18.476602 4.682874 -76.160921
v 18.460711 4.664003 -76.152387
v 18.440000 4.649523 -76.145839
v 18.415882 4.640420 -76.141723
v 18.390000 4.699295 -75.979132
v 18.476602 4.479677 -76.492084
v 18.460711 4.463521 -76.479125
v 18.440000 4.451124 -76.469182
v 18.415882 4.443331 -76.462931
v 18.390000 4.532366 -76.333348
v 18.476602 4.200507 -76.762309
v 18.460711 4.188081 -76.745740
v 18.440000 4.178547 -76.733027
v 18.415881 4.172553 -76.725034
v 18.390000 4.279448 -76.632290
v 18.390000 3.957777 -76.855586
v 8.796726 3.199049 -77.020562
v 18.390000 3.589272 -76.988018
v 18.390000 3.199048 -77.020562
v 8.796726 2.813699 -76.950999
v 8.796725 3.589273 -76.988018
v 18.390000 3.957777 -76.855586
v 8.796726 3.957777 -76.855585
v 18.390000 4.279448 -76.632290
v 8.796726 4.279449 -76.632290
v 18.390000 4.532366 -76.333348
v 8.796726 4.532367 -76.333348
v 18.390000 4.699295 -75.979132
v 8.796726 4.699295 -75.979132
v 18.390000 4.768857 -75.593782
v 8.796725 4.768858 -75.593782
v 18.390000 4.736313 -75.203558
v 8.796726 4.736314 -75.203558
v 18.390000 4.603881 -74.835054
v 8.796726 4.603881 -74.835053
v 18.390000 4.380585 -74.513382
v 8.796726 4.380586 -74.513382
v 18.390000 4.081643 -74.260464
v 8.796726 4.081644 -74.260464
v 18.390000 3.727427 -74.093536
v 8.796725 3.727428 -74.093536
v 18.390000 3.342077 -74.023973
v 8.796726 3.342078 -74.023973
v 18.390000 2.951853 -74.056517
v 18.390000 3.342077 -74.023973
v 8.796726 2.951854 -74.056517
v 18.390000 2.583348 -74.188950
v 8.796725 2.583349 -74.188950
v 18.390000 2.261677 -74.412245
v 8.796725 2.261678 -74.412245
v 18.390000 2.008759 -74.711187
v 8.796725 2.008760 -74.711187
v 18.390000 1.841831 -75.065403
v 8.796726 1.841832 -75.065403
v 18.390000 1.772268 -75.450754
v 8.796725 1.772269 -75.450753
v 18.390000 1.804812 -75.840977
v 8.796726 1.804813 -75.840977
v 18.390000 1.937245 -76.209482
v 8.796725 1.937245 -76.209482
v 18.390000 2.160540 -76.531154
v 8.796725 2.160541 -76.531153
v 18.390000 2.459482 -76.784071
v 8.796725 2.459483 -76.784071
v 18.390000 2.813698 -76.951000
v 18.490000 3.692671 -78.340836
v 18.490000 3.134686 -78.369027
v 18.490000 3.194281 -77.120448
v 20.139999 3.195234 -77.100471
v 20.096725 2.809366 -77.374411
v 20.096725 3.179563 -77.428797
v 20.096725 3.553257 -77.409917
v 20.140000 2.789332 -77.027199
v 20.139999 2.101339 -76.584961
v 20.139999 1.866134 -76.246133
v 20.096725 1.634784 -76.505816
v 20.139999 1.726639 -75.857975
v 20.096725 1.474335 -76.167793
v 20.139999 1.692359 -75.446939
v 20.096725 1.382913 -75.804962
v 20.140000 2.207869 -74.353044
v 20.140000 2.546697 -74.117839
v 20.096725 2.287015 -73.886490
v 20.140000 2.934855 -73.978344
v 20.096725 2.625038 -73.726040
v 20.140000 3.345891 -73.944064
v 20.096725 2.987868 -73.634618
v 20.140000 4.439786 -74.459575
v 20.140000 4.674991 -74.798402
v 20.096725 4.906341 -74.538720
v 20.140000 4.814486 -75.186560
v 20.096725 5.066790 -74.876743
v 20.140000 4.848766 -75.597596
v 20.096726 5.158212 -75.239573
v 20.140000 4.333255 -76.691491
v 20.140000 3.994428 -76.926696
v 20.096725 4.254110 -77.158046
v 20.140000 3.606270 -77.066191
v 20.096725 3.916087 -77.318496
v 18.870000 3.692671 -78.340836
v 19.198700 4.219801 -78.163604
v 19.198700 3.686262 -78.298038
v 18.870000 4.234436 -78.204328
v 19.198700 4.716861 -77.927664
v 18.870000 4.739159 -77.964751
v 19.198700 5.158340 -77.599286
v 18.870000 5.187446 -77.631310
v 19.198700 5.527273 -77.191090
v 18.870000 5.562067 -77.216820
v 19.198700 5.809482 -76.718762
v 18.870000 5.848627 -76.737209
v 19.198700 5.994121 -76.200453
v 18.870000 6.036114 -76.210909
v 19.198700 6.074096 -75.656082
v 18.870000 6.117322 -75.658145
v 19.198700 6.046333 -75.106568
v 18.870000 6.089130 -75.100159
v 19.198700 5.911899 -74.573030
v 18.870000 5.952623 -74.558394
v 19.198700 5.675959 -74.075970
v 18.870000 5.713045 -74.053671
v 19.198701 5.347581 -73.634490
v 18.870000 5.379605 -73.605385
v 19.198700 4.939385 -73.265557
v 18.870000 4.965115 -73.230763
v 19.198700 4.467056 -72.983348
v 18.870000 4.485504 -72.944203
v 19.198700 3.948747 -72.798709
v 18.870000 3.959204 -72.756716
v 19.198700 3.404376 -72.718734
v 18.870000 3.406440 -72.675509
v 19.198700 2.854863 -72.746497
v 18.870000 2.848454 -72.703700
v 19.198700 2.321324 -72.880932
v 18.870000 2.306689 -72.840207
v 19.198700 1.824264 -73.116871
v 18.870000 1.801965 -73.079785
v 19.198700 1.382785 -73.445249
v 18.870000 1.353679 -73.413226
v 19.198700 1.013852 -73.853445
v 18.870000 0.979058 -73.827715
v 19.198700 0.731643 -74.325774
v 18.870000 0.692498 -74.307326
v 19.198700 0.547003 -74.844083
v 18.870000 0.505011 -74.833626
v 18.870000 0.423803 -75.386391
v 19.198700 0.467028 -75.388454
v 18.870000 0.451995 -75.944377
v 18.870000 0.588502 -76.486141
v 19.198700 0.629226 -76.471506
v 18.869999 0.828079 -76.990865
v 19.198700 0.865166 -76.968566
v 18.870000 1.161520 -77.439151
v 19.198700 1.193544 -77.410045
v 18.870000 1.576010 -77.813772
v 19.198700 1.601740 -77.778978
v 18.870000 2.055621 -78.100332
v 19.198700 2.074068 -78.061187
v 18.870000 2.581921 -78.287819
v 19.198700 2.592377 -78.245827
v 18.870000 3.134685 -78.369027
v 19.198700 3.136749 -78.325802
v 19.198700 0.467028 -75.388454
v 18.870000 0.423803 -75.386391
v 19.198700 0.494792 -75.937967
v 19.505000 0.620266 -75.919176
v 20.096725 2.456893 -77.248848
v 19.969852 2.735355 -77.671635
v 19.768025 2.671801 -77.926867
v 19.969852 3.164960 -77.734749
v 19.505000 2.623034 -78.122713
v 19.768025 3.152420 -77.997475
v 19.505000 3.142797 -78.199073
v 20.140000 2.416224 -76.851368
v 20.096725 2.135688 -77.056933
v 19.969852 2.326318 -77.525922
v 19.768025 2.214192 -77.763850
v 19.505000 2.128154 -77.946420
v 20.096725 1.858096 -76.806041
v 19.969852 1.953568 -77.303209
v 19.768025 1.797179 -77.514691
v 19.505000 1.677177 -77.676967
v 19.969852 1.186084 -76.271384
v 19.969852 1.372282 -76.663651
v 19.768025 0.938557 -76.360339
v 19.768025 1.146866 -76.799187
v 19.969852 1.631429 -77.012056
v 19.504999 0.973898 -76.903188
v 19.768025 1.436787 -77.188964
v 19.505000 1.287432 -77.324711
v 19.969852 1.079991 -75.850328
v 19.768025 0.819867 -75.889284
v 19.505000 0.748624 -76.428597
v 20.096725 1.364033 -75.431268
v 19.969852 1.058081 -75.416665
v 19.768026 0.795355 -75.404125
v 19.505000 0.593758 -75.394503
v 20.096725 1.418419 -75.061071
v 20.139999 1.692359 -75.446939
v 20.139999 1.765631 -75.041037
v 20.096725 1.543983 -74.708598
v 19.969852 1.121195 -74.987061
v 20.096725 1.364033 -75.431268
v 19.969852 1.266909 -74.578024
v 19.768025 1.028980 -74.465897
v 19.768025 0.865964 -74.923506
v 19.505000 0.846411 -74.379859
v 19.505000 0.670117 -74.874739
v 20.140000 1.941462 -74.667930
v 20.096726 1.735897 -74.387393
v 19.969852 1.489621 -74.205274
v 19.768025 1.278139 -74.048884
v 19.504999 1.115863 -73.928882
v 20.096725 1.986789 -74.109801
v 19.969852 1.780774 -73.883135
v 19.768026 1.603866 -73.688492
v 19.505000 1.468119 -73.539137
v 19.969852 2.521447 -73.437789
v 19.969852 2.129179 -73.623987
v 19.768025 2.432491 -73.190263
v 19.768025 1.993643 -73.398571
v 19.505000 1.889642 -73.225603
v 19.505000 2.364233 -73.000329
v 19.969852 2.942502 -73.331697
v 19.768025 2.903546 -73.071572
v 19.505000 2.873654 -72.871971
v 20.096725 3.361562 -73.615738
v 19.969852 3.376165 -73.309787
v 19.768025 3.388705 -73.047060
v 19.505000 3.398327 -72.845463
v 20.096726 3.731759 -73.670125
v 20.140000 3.751793 -74.017337
v 20.096726 4.084232 -73.795688
v 19.969852 4.214807 -73.518614
v 19.969852 3.805770 -73.372901
v 19.768026 4.326933 -73.280685
v 19.768026 3.869324 -73.117669
v 19.505000 4.412971 -73.098116
v 19.505000 3.918091 -72.921823
v 20.140000 4.124900 -74.193168
v 20.096725 4.405437 -73.987603
v 19.969852 4.587557 -73.741327
v 19.768026 4.743946 -73.529844
v 19.505000 4.863948 -73.367568
v 20.096726 4.683029 -74.238494
v 19.969852 4.909695 -74.032480
v 19.768026 5.104338 -73.855571
v 19.505000 5.253693 -73.719824
v 19.969852 5.355041 -74.773152
v 19.969852 5.168843 -74.380884
v 19.768026 5.602567 -74.684196
v 19.505000 5.567227 -74.141347
v 19.768026 5.394259 -74.245348
v 19.505000 5.792501 -74.615938
v 19.969852 5.461133 -75.194208
v 19.768026 5.721258 -75.155251
v 19.505000 5.920859 -75.125359
v 20.096726 5.177092 -75.613267
v 19.969852 5.483043 -75.627870
v 19.768026 5.745770 -75.640410
v 19.505000 5.947367 -75.650033
v 20.096726 5.122705 -75.983464
v 20.140000 4.775493 -76.003498
v 20.096725 4.997142 -76.335938
v 19.969852 5.274216 -76.466512
v 19.969852 5.419929 -76.057475
v 19.768026 5.512145 -76.578638
v 19.768026 5.675161 -76.121029
v 19.505000 5.694714 -76.664676
v 19.505000 5.871008 -76.169797
v 20.139999 4.599662 -76.376606
v 20.096725 4.805227 -76.657142
v 19.969852 5.051503 -76.839262
v 19.768026 5.262986 -76.995652
v 19.505000 5.425262 -77.115654
v 20.096726 4.554336 -76.934734
v 19.969852 4.760350 -77.161401
v 19.768026 4.937259 -77.356043
v 19.505000 5.073006 -77.505398
v 19.969852 4.019678 -77.606746
v 19.969852 4.411946 -77.420548
v 19.768026 4.108634 -77.854273
v 19.505000 4.651483 -77.818932
v 19.768025 4.547482 -77.645964
v 19.505000 4.176892 -78.044207
v 19.969852 3.598623 -77.712839
v 19.768025 3.637579 -77.972964
v 19.504999 3.667471 -78.172564
v 20.140000 3.799580 -76.548656
v 20.139999 3.195234 -77.100471
v 20.140000 3.606270 -77.066191
v 20.140000 3.994428 -76.926696
v 20.139999 4.599662 -76.376606
v 20.140000 4.423950 -75.577319
v 20.140000 4.333255 -76.691491
v 20.140000 2.646193 -76.493605
v 20.139999 1.866134 -76.246133
v 20.139999 2.101339 -76.584961
v 20.140000 2.416224 -76.851368
v 20.140000 2.789332 -77.027199
v 20.139999 2.117175 -75.467216
v 20.140000 1.941462 -74.667930
v 20.139999 1.765631 -75.041037
v 20.139999 1.692359 -75.446939
v 20.139999 1.726639 -75.857975
v 20.140000 2.741545 -74.495879
v 20.140000 3.345891 -73.944064
v 20.140000 2.934855 -73.978344
v 20.140000 2.546697 -74.117839
v 20.140000 2.207869 -74.353044
v 20.140000 3.894932 -74.550931
v 20.140000 4.674991 -74.798402
v 20.140000 4.439786 -74.459575
v 20.140000 4.124900 -74.193168
v 20.140000 3.751793 -74.017337
v 20.140000 4.775493 -76.003498
v 20.140000 4.848766 -75.597596
v 20.140000 4.814486 -75.186560
v 19.100000 3.894932 -74.550931
v 19.031788 4.034439 -74.821598
v 20.140000 3.894932 -74.550931
v 19.100000 2.741545 -74.495879
v 19.031788 3.045702 -74.510397
v 20.140000 2.741545 -74.495879
v 8.796726 3.342078 -74.023973
v 18.489999 2.581921 -78.287819
v 18.490000 2.783240 -77.046248
v 18.489999 2.055621 -78.100332
v 18.490000 2.405410 -76.868192
v 18.490000 1.576010 -77.813772
v 18.490000 2.086539 -76.598413
v 18.490000 1.161520 -77.439151
v 18.490000 0.828080 -76.990865
v 18.490000 1.848357 -76.255296
v 18.489999 0.588502 -76.486141
v 18.490000 1.707095 -75.862225
v 18.489999 0.451995 -75.944377
v 18.489999 1.672382 -75.445986
v 18.489999 0.423803 -75.386391
v 18.489999 0.505011 -74.833626
v 18.490000 1.746582 -75.034946
v 18.489999 0.692498 -74.307326
v 18.490000 1.924638 -74.657115
v 18.490000 0.979058 -73.827715
v 18.490000 2.194418 -74.338244
v 18.490000 1.353679 -73.413226
v 18.490000 1.801966 -73.079785
v 18.490000 2.537534 -74.100062
v 18.490000 2.306689 -72.840207
v 18.490000 2.930606 -73.958801
v 18.490000 2.848454 -72.703700
v 18.490000 3.346844 -73.924087
v 18.490000 3.406440 -72.675509
v 18.490000 3.959204 -72.756716
v 18.490000 3.757885 -73.998287
v 18.490000 4.485504 -72.944203
v 18.490000 4.135715 -74.176344
v 18.490000 4.965115 -73.230763
v 18.490000 4.454586 -74.446123
v 18.490000 5.379605 -73.605385
v 18.490000 5.713046 -74.053671
v 18.490000 4.692768 -74.789239
v 18.490000 5.952623 -74.558394
v 18.490000 4.834030 -75.182311
v 18.490000 6.089130 -75.100159
v 18.490000 4.868743 -75.598550
v 18.490000 6.117322 -75.658145
v 18.490000 6.036114 -76.210909
v 18.490000 4.794543 -76.009590
v 18.490000 5.848627 -76.737209
v 18.490000 4.616487 -76.387420
v 18.490000 5.562067 -77.216820
v 18.490000 4.346707 -76.706291
v 18.490000 5.187446 -77.631310
v 18.490000 4.739160 -77.964751
v 18.490000 4.003591 -76.944474
v 18.490000 4.234436 -78.204328
v 18.490000 3.610519 -77.085735
v 8.796726 2.813699 -76.950999
v 8.490000 2.907120 -76.658848
v 8.796726 3.199049 -77.020562
v 8.490001 2.625336 -76.526053
v 8.490001 3.213673 -76.714186
v 8.796726 3.199049 -77.020562
v 8.490001 3.213673 -76.714186
v 8.796725 3.589273 -76.988018
v 8.490001 3.524102 -76.688296
v 8.796726 3.957777 -76.855585
v 8.490001 3.817254 -76.582944
v 8.796726 4.279449 -76.632290
v 8.490001 4.073149 -76.405309
v 8.796726 4.532367 -76.333348
v 8.490001 4.274349 -76.167495
v 8.796726 4.699295 -75.979132
v 8.490001 4.407144 -75.885711
v 8.796725 4.768858 -75.593782
v 8.490001 4.462481 -75.579158
v 8.796726 4.736314 -75.203558
v 8.490001 4.436592 -75.268729
v 8.796726 4.603881 -74.835053
v 8.490001 4.331240 -74.975577
v 8.796726 4.380586 -74.513382
v 8.490001 4.153605 -74.719682
v 8.796726 4.081644 -74.260464
v 8.490001 3.915791 -74.518482
v 8.796725 3.727428 -74.093536
v 8.490001 3.634007 -74.385687
v 8.796726 3.342078 -74.023973
v 8.490001 3.327454 -74.330349
v 8.796726 2.951854 -74.056517
v 8.490001 3.017025 -74.356239
v 8.796725 2.583349 -74.188950
v 8.490001 2.723873 -74.461591
v 8.796725 2.261678 -74.412245
v 8.490000 2.467978 -74.639226
v 8.796725 2.008760 -74.711187
v 8.490001 2.266777 -74.877040
v 8.796726 1.841832 -75.065403
v 8.490000 2.133983 -75.158824
v 8.796725 1.772269 -75.450753
v 8.490000 2.078645 -75.465377
v 8.796726 1.804813 -75.840977
v 8.490000 2.104534 -75.775806
v 8.796725 1.937245 -76.209482
v 8.490001 2.209887 -76.068958
v 8.796725 2.160541 -76.531153
v 8.490000 2.387522 -76.324853
v 8.796725 2.459483 -76.784071
v 8.490001 3.213673 -76.714186
v 8.490000 2.907120 -76.658848
v 8.490001 3.524102 -76.688296
v 8.490001 3.817254 -76.582944
v 8.490001 2.625336 -76.526053
v 8.490001 4.073149 -76.405309
v 8.490000 2.387522 -76.324853
v 8.490001 4.274349 -76.167495
v 8.490001 2.209887 -76.068958
v 8.490001 4.407144 -75.885711
v 8.490000 2.104534 -75.775806
v 8.490001 4.462481 -75.579158
v 8.490000 2.078645 -75.465377
v 8.490001 4.436592 -75.268729
v 8.490000 2.133983 -75.158824
v 8.490001 4.331240 -74.975577
v 8.490001 2.266777 -74.877040
v 8.490001 4.153605 -74.719682
v 8.490000 2.467978 -74.639226
v 8.490001 3.915791 -74.518482
v 8.490001 2.723873 -74.461591
v 8.490001 3.634007 -74.385687
v 8.490001 3.017025 -74.356239
v 8.490001 3.327454 -74.330349
v 19.505000 0.593758 -75.394503
v 19.768026 0.795355 -75.404125
v 19.969852 1.058081 -75.416665
v 18.490000 3.692671 -78.340836
v 18.870000 3.692671 -78.340836
v 18.490000 3.134686 -78.369027
v 18.870000 4.234436 -78.204328
v 18.870000 3.134685 -78.369027
v 18.489999 2.581921 -78.287819
v 18.870000 2.581921 -78.287819
v 18.489999 2.055621 -78.100332
v 18.870000 2.055621 -78.100332
v 18.490000 1.576010 -77.813772
v 18.870000 1.576010 -77.813772
v 18.490000 1.161520 -77.439151
v 18.870000 1.161520 -77.439151
v 18.490000 0.828080 -76.990865
v 18.869999 0.828079 -76.990865
v 18.489999 0.588502 -76.486141
v 18.870000 0.588502 -76.486141
v 18.489999 0.451995 -75.944377
v 18.870000 0.451995 -75.944377
v 18.489999 0.423803 -75.386391
v 18.870000 0.423803 -75.386391
v 18.489999 0.505011 -74.833626
v 18.870000 0.505011 -74.833626
v 18.489999 0.692498 -74.307326
v 18.870000 0.692498 -74.307326
v 18.490000 0.979058 -73.827715
v 18.870000 0.979058 -73.827715
v 18.490000 1.353679 -73.413226
v 18.870000 1.353679 -73.413226
v 18.490000 1.801966 -73.079785
v 18.870000 1.801965 -73.079785
v 18.490000 2.306689 -72.840207
v 18.870000 2.306689 -72.840207
v 18.490000 2.848454 -72.703700
v 18.870000 2.848454 -72.703700
v 18.490000 3.406440 -72.675509
v 18.870000 3.406440 -72.675509
v 18.490000 3.406440 -72.675509
v 18.870000 3.406440 -72.675509
v 18.490000 3.959204 -72.756716
v 18.870000 3.959204 -72.756716
v 18.490000 4.485504 -72.944203
v 18.870000 4.485504 -72.944203
v 18.490000 4.965115 -73.230763
v 18.870000 4.965115 -73.230763
v 18.490000 5.379605 -73.605385
v 18.870000 5.379605 -73.605385
v 18.490000 5.713046 -74.053671
v 18.870000 5.713045 -74.053671
v 18.490000 5.952623 -74.558394
v 18.870000 5.952623 -74.558394
v 18.490000 6.089130 -75.100159
v 18.870000 6.089130 -75.100159
v 18.490000 6.117322 -75.658145
v 18.870000 6.117322 -75.658145
v 18.490000 6.036114 -76.210909
v 18.870000 6.036114 -76.210909
v 18.490000 5.848627 -76.737209
v 18.870000 5.848627 -76.737209
v 18.490000 5.562067 -77.216820
v 18.870000 5.562067 -77.216820
v 18.490000 5.187446 -77.631310
v 18.870000 5.187446 -77.631310
v 18.490000 4.739160 -77.964751
v 18.870000 4.739159 -77.964751
v 18.490000 4.234436 -78.204328
v 19.010684 4.159441 -75.064125
v 20.140000 4.423950 -75.577319
v 19.031788 4.284444 -75.306653
v 19.100000 4.423950 -75.577319
v 19.100000 4.423950 -75.577319
v 19.031788 4.259299 -75.833469
v 20.140000 4.423950 -75.577319
v 19.010684 4.111765 -76.062988
v 20.140000 3.799580 -76.548656
v 19.031788 3.964231 -76.292507
v 19.100000 3.799580 -76.548656
v 19.100000 3.799580 -76.548656
v 19.031788 3.495423 -76.534139
v 20.140000 3.799580 -76.548656
v 19.010683 3.222886 -76.521131
v 20.140000 2.646193 -76.493605
v 19.031788 2.950350 -76.508122
v 19.100000 2.646193 -76.493605
v 19.100000 2.646193 -76.493605
v 19.031788 2.506686 -76.222938
v 20.140000 2.646193 -76.493605
v 19.010683 2.381684 -75.980410
v 20.139999 2.117175 -75.467216
v 19.031788 2.256681 -75.737883
v 19.100000 2.117175 -75.467216
v 19.010683 3.318239 -74.523405
v 20.140000 3.894932 -74.550931
v 19.031788 3.590775 -74.536413
v 19.100000 3.894932 -74.550931
v 19.100000 2.117175 -75.467216
v 19.031788 2.281826 -75.211067
v 20.139999 2.117175 -75.467216
v 19.010683 2.429360 -74.981548
v 20.140000 2.741545 -74.495879
v 19.031788 2.576894 -74.752028
v 19.100000 2.741545 -74.495879
v 19.031788 2.256681 -75.737883
v 18.433333 3.270563 -75.522268
v 19.100000 2.117175 -75.467216
v 19.010683 2.381684 -75.980410
v 18.433333 3.270563 -75.522268
v 19.031788 2.281826 -75.211067
v 19.100000 2.646193 -76.493605
v 18.433333 3.270563 -75.522268
v 19.031788 2.506686 -76.222938
v 19.031788 2.950350 -76.508122
v 18.433333 3.270563 -75.522268
v 18.433333 3.270563 -75.522268
v 19.010683 3.222886 -76.521131
v 19.100000 3.799580 -76.548656
v 18.433333 3.270563 -75.522268
v 19.031788 3.495423 -76.534139
v 19.031788 3.964231 -76.292507
v 18.433333 3.270563 -75.522268
v 18.433333 3.270563 -75.522268
v 19.010684 4.111765 -76.062988
v 19.100000 4.423950 -75.577319
v 18.433333 3.270563 -75.522268
v 19.031788 4.259299 -75.833469
v 19.031788 4.284444 -75.306653
v 18.433333 3.270563 -75.522268
v 18.433333 3.270563 -75.522268
v 19.010684 4.159441 -75.064125
v 19.100000 3.894932 -74.550931
v 18.433333 3.270563 -75.522268
v 19.031788 4.034439 -74.821598
v 19.031788 3.590775 -74.536413
v 18.433333 3.270563 -75.522268
v 18.433333 3.270563 -75.522268
v 19.010683 3.318239 -74.523405
v 19.100000 2.741545 -74.495879
v 18.433333 3.270563 -75.522268
v 19.031788 3.045702 -74.510397
v 19.031788 2.576894 -74.752028
v 18.433333 3.270563 -75.522268
v 18.433333 3.270563 -75.522268
v 19.010683 3.318239 -74.523405
v 19.010683 2.429360 -74.981548
v 18.433333 3.270563 -75.522268
f 1 2 3
f 1 3 4
f 1 5 2
f 2 5 55
f 2 56 3
f 2 57 56
f 2 55 57
f 3 40 4
f 3 59 40
f 3 56 59
f 4 40 39
f 5 69 55
f 6 7 8
f 6 9 7
f 7 9 10
f 7 96 8
f 7 97 96
f 7 10 97
f 8 96 99
f 9 11 10
f 10 11 12
f 10 110 97
f 10 12 110
f 11 13 12
f 12 13 14
f 12 115 110
f 12 14 115
f 13 15 14
f 14 15 16
f 14 120 115
f 14 16 120
f 15 17 16
f 16 17 18
f 16 125 120
f 16 18 125
f 17 19 18
f 18 19 20
f 18 130 125
f 18 20 130
f 19 21 20
f 20 21 22
f 20 135 130
f 20 22 135
f 21 23 22
f 22 23 24
f 22 140 135
f 22 24 140
f 23 25 24
f 24 25 26
f 24 145 140
f 24 26 145
f 25 27 26
f 26 27 28
f 26 150 145
f 26 28 150
f 27 29 28
f 28 29 30
f 28 155 150
f 28 30 155
f 29 31 30
f 30 31 32
f 30 160 155
f 30 32 160
f 31 33 32
f 32 33 34
f 32 165 160
f 32 34 165
f 33 35 34
f 34 35 36
f 34 170 165
f 34 36 170
f 35 37 36
f 36 37 38
f 36 175 170
f 36 38 175
f 37 39 38
f 38 39 40
f 38 68 175
f 38 40 68
f 40 59 68
f 41 42 43
f 41 43 44
f 41 45 42
f 42 45 65
f 42 64 43
f 42 67 64
f 42 65 67
f 43 54 44
f 43 64 61
f 43 61 54
f 44 54 53
f 45 180 65
f 46 47 48
f 46 49 47
f 46 48 95
f 47 49 50
f 47 50 78
f 47 78 83
f 47 83 48
f 48 88 94
f 48 94 95
f 48 83 88
f 49 51 50
f 50 51 52
f 50 52 73
f 50 73 78
f 51 53 52
f 52 53 54
f 52 54 63
f 52 63 73
f 54 61 63
f 55 69 70
f 55 71 57
f 55 70 71
f 56 58 59
f 56 60 58
f 56 57 60
f 57 72 60
f 57 71 72
f 58 61 62
f 58 63 61
f 58 62 59
f 58 60 63
f 59 62 68
f 60 73 63
f 60 72 73
f 61 64 62
f 62 64 66
f 62 66 68
f 64 67 66
f 65 178 177
f 65 177 67
f 65 180 178
f 66 176 175
f 66 175 68
f 66 67 176
f 67 177 176
f 69 74 70
f 70 74 75
f 70 76 71
f 70 75 76
f 71 77 72
f 71 76 77
f 72 78 73
f 72 77 78
f 74 79 75
f 75 79 80
f 75 81 76
f 75 80 81
f 76 82 77
f 76 81 82
f 77 83 78
f 77 82 83
f 79 84 80
f 80 84 85
f 80 86 81
f 80 85 86
f 81 87 82
f 81 86 87
f 82 88 83
f 82 87 88
f 84 91 85
f 85 89 90
f 85 90 86
f 85 91 89
f 86 90 92
f 86 92 87
f 87 92 93
f 87 93 88
f 88 93 94
f 96 98 99
f 96 100 98
f 96 97 100
f 97 111 100
f 97 110 111
f 98 101 102
f 98 103 101
f 98 100 103
f 98 102 99
f 100 112 103
f 100 111 112
f 101 104 105
f 101 105 106
f 101 103 104
f 101 106 102
f 103 113 104
f 103 112 113
f 104 114 107
f 104 107 105
f 104 113 114
f 105 107 108
f 105 108 109
f 105 109 106
f 110 116 111
f 110 115 116
f 111 117 112
f 111 116 117
f 112 118 113
f 112 117 118
f 113 119 114
f 113 118 119
f 115 121 116
f 115 120 121
f 116 122 117
f 116 121 122
f 117 123 118
f 117 122 123
f 118 124 119
f 118 123 124
f 120 126 121
f 120 125 126
f 121 127 122
f 121 126 127
f 122 128 123
f 122 127 128
f 123 129 124
f 123 128 129
f 125 131 126
f 125 130 131
f 126 132 127
f 126 131 132
f 127 133 128
f 127 132 133
f 128 134 129
f 128 133 134
f 130 136 131
f 130 135 136
f 131 137 132
f 131 136 137
f 132 138 133
f 132 137 138
f 133 139 134
f 133 138 139
f 135 141 136
f 135 140 141
f 136 142 137
f 136 141 142
f 137 143 138
f 137 142 143
f 138 144 139
f 138 143 144
f 140 146 141
f 140 145 146
f 141 147 142
f 141 146 147
f 142 148 143
f 142 147 148
f 143 149 144
f 143 148 149
f 145 151 146
f 145 150 151
f 146 152 147
f 146 151 152
f 147 153 148
f 147 152 153
f 148 154 149
f 148 153 154
f 150 156 151
f 150 155 156
f 151 157 152
f 151 156 157
f 152 158 153
f 152 157 158
f 153 159 154
f 153 158 159
f 155 161 156
f 155 160 161
f 156 162 157
f 156 161 162
f 157 163 158
f 157 162 163
f 158 164 159
f 158 163 164
f 160 166 161
f 160 165 166
f 161 167 162
f 161 166 167
f 162 168 163
f 162 167 168
f 163 169 164
f 163 168 169
f 165 171 166
f 165 170 171
f 166 172 167
f 166 171 172
f 167 173 168
f 167 172 173
f 168 174 169
f 168 173 174
f 170 176 171
f 170 175 176
f 171 177 172
f 171 176 177
f 172 178 173
f 172 177 178
f 173 179 174
f 173 178 179
f 178 180 179
f 181 182 183
f 181 183 184
f 181 185 182
f 182 185 186
f 183 229 184
f 184 229 228
f 185 187 186
f 186 187 188
f 187 189 188
f 188 189 190
f 189 191 190
f 190 191 192
f 191 193 192
f 192 193 194
f 193 195 194
f 194 195 196
f 195 197 196
f 196 197 198
f 197 199 198
f 198 199 200
f 199 201 200
f 200 201 202
f 201 203 202
f 202 203 204
f 203 205 204
f 204 205 206
f 205 489 206
f 207 208 209
f 207 210 208
f 208 210 211
f 210 212 211
f 211 212 213
f 212 214 213
f 213 214 215
f 214 216 215
f 215 216 217
f 216 218 217
f 217 218 219
f 218 220 219
f 219 220 221
f 220 222 221
f 221 222 223
f 222 224 223
f 223 224 225
f 224 226 225
f 225 226 227
f 226 228 227
f 227 228 229
f 230 231 232
f 230 542 541
f 230 232 542
f 231 490 232
f 232 490 491
f 233 234 235
f 233 235 236
f 233 237 234
f 233 236 262
f 234 237 331
f 234 332 235
f 234 331 340
f 234 340 332
f 235 332 334
f 235 334 236
f 236 263 262
f 236 450 263
f 236 334 450
f 237 338 331
f 238 239 240
f 238 339 338
f 238 343 339
f 238 240 343
f 239 241 242
f 239 242 240
f 240 242 347
f 240 347 348
f 240 348 343
f 241 243 244
f 241 244 242
f 242 244 355
f 242 355 347
f 243 358 244
f 244 358 359
f 244 359 355
f 245 246 247
f 245 374 373
f 245 378 374
f 245 247 378
f 246 248 249
f 246 249 247
f 247 249 382
f 247 382 383
f 247 383 378
f 248 250 251
f 248 251 249
f 249 251 388
f 249 388 382
f 250 391 251
f 250 396 395
f 250 395 391
f 251 391 392
f 251 392 388
f 252 253 254
f 252 405 404
f 252 409 405
f 252 254 409
f 253 255 256
f 253 256 254
f 254 256 413
f 254 413 414
f 254 414 409
f 255 257 258
f 255 258 256
f 256 258 419
f 256 419 413
f 257 422 258
f 257 427 426
f 257 426 422
f 258 422 423
f 258 423 419
f 259 260 261
f 259 436 435
f 259 440 436
f 259 261 440
f 260 262 263
f 260 263 261
f 261 263 444
f 261 444 445
f 261 445 440
f 263 450 444
f 264 265 266
f 264 267 265
f 264 266 325
f 265 267 268
f 265 447 449
f 265 268 447
f 265 449 266
f 266 452 326
f 266 326 325
f 266 449 452
f 267 269 268
f 268 269 270
f 268 270 443
f 268 443 447
f 269 271 270
f 270 271 272
f 270 439 443
f 270 272 439
f 271 273 272
f 272 273 274
f 272 433 439
f 272 274 433
f 273 275 274
f 274 275 276
f 274 434 433
f 274 276 434
f 275 277 276
f 276 277 278
f 276 278 425
f 276 425 434
f 277 279 278
f 278 279 280
f 278 421 425
f 278 280 421
f 279 281 280
f 280 281 282
f 280 282 418
f 280 418 421
f 281 283 282
f 282 283 284
f 282 416 418
f 282 284 416
f 283 285 284
f 284 285 286
f 284 286 412
f 284 412 416
f 285 287 286
f 286 287 288
f 286 408 412
f 286 288 408
f 287 289 288
f 288 289 290
f 288 402 408
f 288 290 402
f 289 291 290
f 290 291 292
f 290 403 402
f 290 292 403
f 291 293 292
f 292 293 294
f 292 294 394
f 292 394 403
f 293 295 294
f 294 295 296
f 294 390 394
f 294 296 390
f 295 297 296
f 296 297 298
f 296 298 387
f 296 387 390
f 297 299 298
f 298 299 300
f 298 386 387
f 298 300 386
f 299 301 300
f 300 301 302
f 300 381 386
f 300 302 381
f 301 303 302
f 302 303 304
f 302 377 381
f 302 304 377
f 303 305 304
f 304 305 306
f 304 371 377
f 304 306 371
f 305 307 306
f 306 307 308
f 306 372 371
f 306 308 372
f 307 309 308
f 308 311 617
f 308 309 311
f 308 617 372
f 309 310 311
f 312 313 314
f 312 314 329
f 312 329 328
f 313 315 316
f 313 316 314
f 314 352 357
f 314 316 352
f 314 357 329
f 315 317 318
f 315 318 316
f 316 354 352
f 316 318 354
f 317 319 320
f 317 320 318
f 318 320 346
f 318 346 354
f 319 321 322
f 319 322 320
f 320 342 346
f 320 322 342
f 321 323 324
f 321 324 322
f 322 335 342
f 322 324 335
f 323 325 326
f 323 326 324
f 324 337 335
f 324 326 337
f 326 452 337
f 327 328 329
f 327 329 330
f 327 330 361
f 329 357 330
f 330 349 356
f 330 356 361
f 330 357 349
f 331 338 339
f 331 339 344
f 331 344 340
f 332 333 334
f 332 340 341
f 332 341 333
f 333 335 336
f 333 336 334
f 333 341 342
f 333 342 335
f 334 336 450
f 335 337 336
f 336 451 450
f 336 337 451
f 337 452 451
f 339 351 344
f 339 343 351
f 340 344 345
f 340 345 341
f 341 345 346
f 341 346 342
f 343 348 351
f 344 353 345
f 344 351 353
f 345 354 346
f 345 353 354
f 347 349 348
f 347 355 356
f 347 356 349
f 348 350 351
f 348 349 350
f 349 357 350
f 350 352 353
f 350 353 351
f 350 357 352
f 352 354 353
f 355 359 360
f 355 360 356
f 356 360 361
f 362 363 364
f 362 364 365
f 362 366 367
f 362 368 366
f 362 365 368
f 362 367 363
f 364 373 365
f 365 373 374
f 365 375 368
f 365 374 375
f 366 368 369
f 366 369 370
f 366 619 367
f 366 370 619
f 368 376 369
f 368 375 376
f 369 371 370
f 369 376 377
f 369 377 371
f 370 371 372
f 370 618 619
f 370 372 618
f 372 617 618
f 374 379 375
f 374 378 379
f 375 380 376
f 375 379 380
f 376 381 377
f 376 380 381
f 378 383 379
f 379 383 385
f 379 385 380
f 380 385 386
f 380 386 381
f 382 384 383
f 382 388 389
f 382 389 384
f 383 384 385
f 384 389 390
f 384 387 385
f 384 390 387
f 385 387 386
f 388 392 393
f 388 393 389
f 389 393 394
f 389 394 390
f 391 399 392
f 391 395 399
f 392 401 393
f 392 399 401
f 393 403 394
f 393 401 403
f 395 396 397
f 395 397 398
f 395 398 399
f 396 404 397
f 397 404 405
f 397 405 406
f 397 406 398
f 398 400 399
f 398 406 407
f 398 407 400
f 399 400 401
f 400 402 401
f 400 407 408
f 400 408 402
f 401 402 403
f 405 409 410
f 405 410 406
f 406 410 411
f 406 411 407
f 407 411 412
f 407 412 408
f 409 414 410
f 410 417 411
f 410 414 417
f 411 416 412
f 411 417 416
f 413 415 414
f 413 419 420
f 413 420 415
f 414 415 417
f 415 420 421
f 415 418 417
f 415 421 418
f 416 417 418
f 419 423 424
f 419 424 420
f 420 424 425
f 420 425 421
f 422 430 423
f 422 426 430
f 423 432 424
f 423 430 432
f 424 434 425
f 424 432 434
f 426 427 428
f 426 428 429
f 426 429 430
f 427 435 428
f 428 435 436
f 428 436 437
f 428 437 429
f 429 431 430
f 429 437 438
f 429 438 431
f 430 431 432
f 431 433 432
f 431 438 439
f 431 439 433
f 432 433 434
f 436 440 441
f 436 441 437
f 437 441 442
f 437 442 438
f 438 442 443
f 438 443 439
f 440 445 441
f 441 448 442
f 441 445 448
f 442 447 443
f 442 448 447
f 444 446 445
f 444 450 451
f 444 451 446
f 445 446 448
f 446 451 452
f 446 449 448
f 446 452 449
f 447 448 449
f 453 454 455
f 453 455 456
f 453 457 458
f 453 459 457
f 453 460 454
f 453 456 459
f 454 460 464
f 457 480 458
f 458 476 475
f 458 480 481
f 458 482 476
f 458 481 482
f 460 461 462
f 460 462 463
f 460 465 461
f 460 463 464
f 461 465 469
f 465 466 467
f 465 467 468
f 465 470 466
f 465 468 469
f 466 470 474
f 470 471 472
f 470 472 473
f 470 475 471
f 470 473 474
f 471 475 479
f 475 476 477
f 475 477 478
f 475 478 479
f 483 484 485
f 484 686 485
f 485 686 687
f 486 487 488
f 487 711 488
f 488 711 712
f 490 492 491
f 491 492 493
f 492 494 493
f 493 494 495
f 494 496 495
f 495 496 497
f 495 497 498
f 497 499 498
f 498 499 500
f 499 501 500
f 500 501 502
f 501 503 502
f 502 503 504
f 502 504 505
f 504 506 505
f 505 506 507
f 506 508 507
f 507 508 509
f 508 510 509
f 509 510 511
f 509 511 512
f 511 513 512
f 512 513 514
f 513 515 514
f 514 515 516
f 515 517 516
f 516 517 518
f 516 518 519
f 518 520 519
f 519 520 521
f 520 522 521
f 521 522 523
f 522 524 523
f 523 524 525
f 523 525 526
f 525 527 526
f 526 527 528
f 527 529 528
f 528 529 530
f 529 531 530
f 530 531 532
f 530 532 533
f 532 534 533
f 533 534 535
f 534 536 535
f 535 536 537
f 536 538 537
f 537 538 539
f 537 539 540
f 539 541 540
f 540 541 542
f 543 544 545
f 543 546 544
f 543 592 546
f 544 547 545
f 546 592 591
f 548 549 550
f 549 551 550
f 550 551 552
f 551 553 552
f 552 553 554
f 553 555 554
f 554 555 556
f 555 557 556
f 556 557 558
f 557 559 558
f 558 559 560
f 559 561 560
f 560 561 562
f 561 563 562
f 562 563 564
f 563 565 564
f 564 565 566
f 565 567 566
f 566 567 568
f 567 569 568
f 568 569 570
f 569 571 570
f 570 571 572
f 571 573 572
f 572 573 574
f 573 575 574
f 574 575 576
f 575 577 576
f 576 577 578
f 577 579 578
f 578 579 580
f 579 581 580
f 580 581 582
f 581 583 582
f 582 583 584
f 583 585 584
f 584 585 586
f 585 587 586
f 586 587 588
f 587 589 588
f 588 589 590
f 589 591 590
f 590 591 592
f 593 594 595
f 594 596 595
f 594 597 596
f 596 597 598
f 597 599 598
f 598 599 600
f 599 601 600
f 600 601 602
f 601 603 602
f 602 603 604
f 603 605 604
f 604 605 606
f 605 607 606
f 606 607 608
f 607 609 608
f 608 609 610
f 609 611 610
f 610 611 612
f 611 613 612
f 612 613 614
f 613 615 614
f 614 615 616
f 620 621 622
f 620 623 621
f 620 685 623
f 621 624 622
f 622 624 625
f 623 685 684
f 624 626 625
f 625 626 627
f 626 628 627
f 627 628 629
f 628 630 629
f 629 630 631
f 630 632 631
f 631 632 633
f 632 634 633
f 633 634 635
f 634 636 635
f 635 636 637
f 636 638 637
f 637 638 639
f 638 640 639
f 639 640 641
f 640 642 641
f 641 642 643
f 642 644 643
f 643 644 645
f 644 646 645
f 645 646 647
f 646 648 647
f 647 648 649
f 648 650 649
f 649 650 651
f 650 652 651
f 651 652 653
f 652 654 653
f 653 654 655
f 654 656 655
f 657 658 659
f 658 660 659
f 659 660 661
f 660 662 661
f 661 662 663
f 662 664 663
f 663 664 665
f 664 666 665
f 665 666 667
f 666 668 667
f 667 668 669
f 668 670 669
f 669 670 671
f 670 672 671
f 671 672 673
f 672 674 673
f 673 674 675
f 674 676 675
f 675 676 677
f 676 678 677
f 677 678 679
f 678 680 679
f 679 680 681
f 680 682 681
f 681 682 683
f 682 684 683
f 683 684 685
f 686 688 687
f 687 688 689
f 690 691 692
f 691 693 692
f 692 693 694
f 693 695 694
f 694 695 696
f 697 698 699
f 698 700 699
f 699 700 701
f 700 702 701
f 701 702 703
f 704 705 706
f 705 707 706
f 706 707 708
f 707 709 708
f 708 709 710
f 711 713 712
f 712 713 714
f 715 716 717
f 716 718 717
f 717 718 719
f 718 720 719
f 719 720 721
f 722 723 724
f 722 725 723
f 724 726 727
f 725 730 733
f 727 764 763
f 728 729 730
f 728 731 732
f 731 734 732
f 734 737 740
f 735 736 737
f 735 738 739
f 738 741 739
f 741 744 747
f 742 743 744
f 742 745 746
f 745 748 746
f 748 751 754
f 749 750 751
f 749 752 753
f 752 755 753
f 756 757 758
f 756 759 760
f 758 761 762
f 759 763 760