# Forged Hexagon Socket Button Head Cap Screw - Metric M3 x 0.5 x 6
# Autodesk dbId: 31
# Units: mm
o 031_Forged_Hexagon_Socket_Button_Head_Cap_Screw_-_Metric_M3_x_0.5_x_6
v -12.790000 -11.761971 43.397826
v -12.793408 -11.415984 43.312645
v -12.793408 -11.763444 43.371986
v -12.793408 -12.115397 43.352521
v -12.790000 -11.396038 43.333765
v -12.890000 -11.938424 40.302851
v -12.890000 -11.577552 40.325935
v -12.864118 -11.602475 40.318040
v -12.890000 -11.232690 40.434710
v -12.864118 -11.278897 40.410963
v -12.890000 -10.923880 40.622856
v -12.864118 -10.984109 40.573559
v -12.890000 -10.669071 40.879437
v -12.864118 -10.732893 40.797675
v -12.890000 -10.483069 41.189542
v -12.864118 -10.537846 41.072073
v -12.890000 -10.376686 41.535149
v -12.864118 -10.408748 41.382993
v -12.890000 -10.356103 41.896173
v -12.890000 -10.422516 42.251632
v -12.864118 -10.370664 42.050988
v -12.890000 -10.572067 42.580868
v -12.864118 -10.463587 42.374566
v -12.890000 -10.796064 42.864748
v -12.864118 -10.626183 42.669354
v -12.890000 -11.081488 43.086772
v -12.864118 -10.850299 42.920570
v -12.890000 -11.411752 43.234038
v -12.864118 -11.124697 43.115617
v -12.890000 -11.767663 43.297988
v -12.864118 -11.435617 43.244715
v -12.793407 -10.281477 41.710820
v -12.803397 -10.305556 41.712193
v -12.793408 -10.300942 42.062773
v -12.793408 -11.090440 43.177476
v -12.803398 -11.422681 43.289476
v -12.819289 -11.428431 43.269579
v -12.803398 -11.764817 43.347907
v -12.840000 -11.432843 43.254312
v -12.819289 -11.765996 43.327230
v -12.840000 -11.766900 43.311364
v -12.864118 -11.767469 43.301390
v -12.790000 -11.054743 43.187040
v -12.793407 -10.803136 42.973255
v -12.803397 -11.102124 43.156377
v -12.819289 -11.112158 43.138259
v -12.840000 -11.119857 43.124357
v -12.790000 -10.756485 42.965563
v -12.793408 -10.568479 42.710223
v -12.803398 -10.819223 42.955285
v -12.819290 -10.833036 42.939854
v -12.840000 -10.843636 42.928014
v -12.790000 -10.517342 42.681273
v -12.793407 -10.398235 42.401570
v -12.803398 -10.588161 42.696284
v -12.819289 -10.605062 42.684313
v -12.840000 -10.618030 42.675128
v -12.790000 -10.350207 42.349495
v -12.803397 -10.420526 42.392360
v -12.819289 -10.439666 42.384450
v -12.840000 -10.454354 42.378381
v -12.790000 -10.264091 41.988117
v -12.803398 -10.324723 42.058753
v -12.819289 -10.345144 42.055301
v -12.840000 -10.360813 42.052653
v -12.793408 -10.340818 41.363360
v -12.790000 -10.263635 41.616620
v -12.790000 -10.348865 41.255032
v -12.793407 -10.475987 41.037816
v -12.803398 -10.363987 41.370057
v -12.793407 -10.281477 41.710820
v -12.819289 -10.383884 41.375807
v -12.803397 -10.305556 41.712193
v -12.840000 -10.399151 41.380219
v -12.819289 -10.326233 41.713372
v -12.840000 -10.342100 41.714276
v -12.864118 -10.352073 41.714845
v -12.790000 -10.515186 40.922845
v -12.793408 -10.680208 40.750512
v -12.803398 -10.497086 41.049500
v -12.819289 -10.515204 41.059534
v -12.840000 -10.529106 41.067233
v -12.790000 -10.753630 40.637969
v -12.793408 -10.943240 40.515855
v -12.803398 -10.698178 40.766599
v -12.803398 -10.957179 40.535537
v -12.819289 -10.713609 40.780412
v -12.840000 -10.725449 40.791012
v -12.790000 -11.051345 40.415761
v -12.793407 -11.251893 40.345611
v -12.803398 -11.261104 40.367902
v -12.819289 -10.969150 40.552438
v -12.819290 -11.269013 40.387042
v -12.840000 -10.978335 40.565407
v -12.790000 -11.392279 40.268200
v -12.793407 -11.590690 40.248318
v -12.803398 -11.594710 40.272099
v -12.819290 -11.598162 40.292520
v -12.840000 -11.275082 40.401730
v -12.840000 -11.600810 40.308189
v -12.790000 -11.758053 40.203242
v -12.793408 -11.942643 40.228853
v -12.803398 -11.941270 40.252932
v -12.819290 -11.940091 40.273609
v -12.840000 -11.939187 40.289476
v -12.864118 -11.938618 40.299450
v -12.790000 -12.128948 40.224387
v -12.793407 -12.290103 40.288194
v -12.803398 -12.283407 40.311363
v -12.819290 -12.277656 40.331260
v -12.840000 -12.273244 40.346527
v -12.864118 -12.270470 40.356124
v -12.790000 -12.484969 40.330498
v -12.793407 -12.615647 40.423363
v -12.803398 -12.603963 40.444462
v -12.819290 -12.593929 40.462580
v -12.840000 -12.586230 40.476482
v -12.864118 -12.581390 40.485222
v -12.890000 -12.294335 40.366801
v -12.790000 -12.806923 40.515852
v -12.793408 -12.902951 40.627584
v -12.803398 -12.886864 40.645554
v -12.819289 -12.873051 40.660985
v -12.840000 -12.862451 40.672826
v -12.864118 -12.855788 40.680269
v -12.890000 -12.624599 40.514067
v -12.790000 -13.077452 40.770457
v -12.793408 -13.137608 40.890616
v -12.803398 -13.117926 40.904556
v -12.819289 -13.101025 40.916526
v -12.840000 -13.088057 40.925711
v -12.864118 -13.079904 40.931485
v -12.890000 -12.910023 40.736092
v -12.790000 -13.281974 41.080588
v -12.793407 -13.307852 41.199269
v -12.803398 -13.285561 41.208480
v -12.819289 -13.266421 41.216389
v -12.840000 -13.251733 41.222458
v -12.864118 -13.242500 41.226273
v -12.890000 -13.134020 41.019971
v -12.790000 -13.409462 41.429525
v -12.793408 -13.405145 41.538066
v -12.803398 -13.381364 41.542086
v -12.819289 -13.360943 41.545538
v -12.840000 -13.345274 41.548187
v -12.864118 -13.335423 41.549852
v -12.890000 -13.283571 41.349207
v -12.790000 -13.453042 41.798458
v -12.793407 -13.424610 41.890019
v -12.803397 -13.400531 41.888646
v -12.819289 -13.379854 41.887468
v -12.840000 -13.363987 41.886563
v -12.864118 -13.354014 41.885994
v -12.890000 -13.349984 41.704666
v -12.790000 -13.410367 42.167496
v -12.793408 -13.365269 42.237479
v -12.803398 -13.342100 42.230783
v -12.819289 -13.322203 42.225032
v -12.840000 -13.306936 42.220620
v -12.864118 -13.297339 42.217846
v -12.890000 -13.329401 42.065690
v -12.790000 -13.283735 42.516744
v -12.793407 -13.230100 42.563023
v -12.803397 -13.209001 42.551339
v -12.819289 -13.190883 42.541305
v -12.840000 -13.176981 42.533606
v -12.864118 -13.168241 42.528766
v -12.890000 -13.223018 42.411297
v -12.790000 -13.079975 42.827376
v -12.793408 -13.025879 42.850327
v -12.803398 -13.007909 42.834241
v -12.819289 -12.992478 42.820427
v -12.840000 -12.980638 42.809827
v -12.864118 -12.973194 42.803164
v -12.890000 -13.037016 42.721402
v -12.790000 -12.810071 43.082644
v -12.793407 -12.762847 43.084984
v -12.803398 -12.748908 43.065302
v -12.819290 -12.736937 43.048401
v -12.840000 -12.727752 43.035433
v -12.864118 -12.721978 43.027280
v -12.890000 -12.782207 42.977983
v -12.790000 -12.488573 43.268787
v -12.793408 -12.454194 43.255228
v -12.803397 -12.444984 43.232938
v -12.819289 -12.437074 43.213797
v -12.840000 -12.431005 43.199109
v -12.864118 -12.427190 43.189876
v -12.890000 -12.473397 43.166129
v -12.790000 -12.132813 43.375770
v -12.803398 -12.111377 43.328740
v -12.819289 -12.107925 43.308319
v -12.840000 -12.105277 43.292650
v -12.864118 -12.103612 43.282799
v -12.890000 -12.128535 43.274904
v -18.483275 -11.767663 43.297988
v -12.890000 -12.128535 43.274904
v -12.890000 -11.767663 43.297988
v -18.483275 -11.411752 43.234038
v -18.483275 -12.128535 43.274904
v -12.890000 -12.473397 43.166129
v -18.483275 -12.473397 43.166129
v -12.890000 -12.782207 42.977983
v -18.483275 -12.782207 42.977983
v -12.890000 -13.037016 42.721402
v -18.483275 -13.037016 42.721402
v -12.890000 -13.223018 42.411297
v -18.483275 -13.223018 42.411297
v -12.890000 -13.329401 42.065690
v -18.483275 -13.329401 42.065690
v -12.890000 -13.349984 41.704666
v -18.483275 -13.349984 41.704666
v -12.890000 -13.283571 41.349207
v -18.483275 -13.283571 41.349207
v -12.890000 -13.134020 41.019971
v -18.483275 -13.134020 41.019971
v -12.890000 -12.910023 40.736092
v -18.483275 -12.910023 40.736092
v -12.890000 -12.624599 40.514067
v -18.483275 -12.624599 40.514067
v -12.890000 -12.294335 40.366801
v -18.483275 -12.294335 40.366801
v -12.890000 -11.938424 40.302851
v -18.483275 -11.938424 40.302851
v -12.890000 -11.577552 40.325935
v -12.890000 -11.938424 40.302851
v -18.483275 -11.577552 40.325935
v -12.890000 -11.232690 40.434710
v -18.483275 -11.232690 40.434710
v -12.890000 -10.923880 40.622856
v -18.483275 -10.923880 40.622856
v -12.890000 -10.669071 40.879437
v -18.483275 -10.669071 40.879437
v -12.890000 -10.483069 41.189542
v -18.483275 -10.483069 41.189542
v -12.890000 -10.376686 41.535149
v -18.483275 -10.376686 41.535149
v -12.890000 -10.356103 41.896173
v -18.483275 -10.356103 41.896173
v -12.890000 -10.422516 42.251632
v -18.483275 -10.422516 42.251632
v -12.890000 -10.572067 42.580868
v -18.483275 -10.572067 42.580868
v -12.890000 -10.796064 42.864748
v -18.483275 -10.796064 42.864748
v -12.890000 -11.081488 43.086772
v -18.483275 -11.081488 43.086772
v -12.890000 -11.411752 43.234038
v -12.790000 -12.187380 44.630741
v -12.790000 -11.690820 44.645799
v -12.790000 -11.761971 43.397826
v -18.790000 -12.095778 42.968746
v -18.483275 -12.473397 43.166129
v -18.483275 -12.128535 43.274904
v -18.790000 -11.785122 42.991760
v -18.790000 -12.389892 42.866112
v -18.483275 -12.782207 42.977983
v -18.790000 -12.647420 42.690853
v -18.483275 -13.037016 42.721402
v -18.790000 -12.850814 42.454912
v -18.483275 -13.223018 42.411297
v -18.790001 -12.986211 42.174369
v -18.483275 -13.329401 42.065690
v -18.790000 -13.044384 41.868341
v -18.483275 -13.349984 41.704666
v -18.790000 -13.021370 41.557685
v -18.483275 -13.283571 41.349207
v -18.790000 -12.918736 41.263571
v -18.483275 -13.134020 41.019971
v -18.790000 -12.743476 41.006043
v -18.483275 -12.910023 40.736092
v -18.790000 -12.507536 40.802649
v -18.483275 -12.624599 40.514067
v -18.790000 -12.226993 40.667253
v -18.483275 -12.294335 40.366801
v -18.790000 -11.920965 40.609079
v -18.483275 -11.577552 40.325935
v -18.483275 -11.938424 40.302851
v -18.790000 -11.610309 40.632094
v -18.483275 -11.232690 40.434710
v -18.790000 -11.316195 40.734728
v -18.483275 -10.923880 40.622856
v -18.790000 -11.058667 40.909987
v -18.483275 -10.669071 40.879437
v -18.790000 -10.855273 41.145927
v -18.483275 -10.483069 41.189542
v -18.790000 -10.719876 41.426471
v -18.483275 -10.376686 41.535149
v -18.790000 -10.661703 41.732498
v -18.483275 -10.356103 41.896173
v -18.790001 -10.684717 42.043154
v -18.483275 -10.422516 42.251632
v -18.790000 -10.787351 42.337268
v -18.483275 -10.572067 42.580868
v -18.790000 -10.962611 42.594797
v -18.483275 -10.796064 42.864748
v -18.790000 -11.198551 42.798190
v -18.483275 -11.081488 43.086772
v -18.790000 -11.479094 42.933587
v -18.483275 -11.411752 43.234038
v -11.140000 -11.763109 43.377858
v -11.183274 -11.415145 43.658209
v -11.183274 -11.744399 43.706026
v -11.183274 -12.076955 43.695941
v -11.140000 -11.401751 43.314598
v -11.140000 -10.770192 42.950999
v -11.140000 -10.534038 42.670262
v -11.183274 -10.323430 42.942093
v -11.140000 -10.368993 42.342632
v -11.183274 -10.148418 42.659134
v -11.140000 -10.283953 41.985771
v -11.183274 -10.025201 42.350083
v -11.140000 -10.531909 40.933815
v -11.140000 -10.767373 40.652500
v -11.183274 -10.463100 40.492293
v -11.140000 -11.061366 40.433069
v -11.183274 -10.711370 40.270806
v -11.140000 -11.398038 40.287353
v -11.183274 -10.994329 40.095795
v -11.140000 -12.477070 40.348872
v -11.140000 -12.794999 40.531909
v -11.183274 -12.899935 40.204439
v -11.140000 -13.062147 40.783332
v -11.183274 -13.161170 40.410476
v -11.140000 -13.264113 41.089586
v -11.183274 -13.382657 40.658746
v -11.140000 -13.390900 42.162907
v -11.140000 -13.265852 42.507790
v -11.183274 -13.606569 42.554267
v -11.140000 -13.064638 42.814539
v -11.183274 -13.449024 42.847311
v -11.140000 -12.798108 43.066616
v -11.183274 -13.242987 43.108546
v -12.410000 -12.187380 44.630741
v -12.081300 -12.661319 44.488245
v -12.081300 -12.182303 44.587766
v -12.410000 -12.673780 44.529686
v -12.081300 -13.115775 44.307055
v -12.410000 -13.135244 44.345702
v -12.081300 -13.531864 44.049703
v -12.410000 -13.557748 44.084382
v -12.081300 -13.896943 43.724007
v -12.410000 -13.928456 43.753665
v -12.081300 -14.199919 43.339864
v -12.410000 -14.236103 43.363599
v -12.081300 -14.431586 42.908946
v -12.410000 -14.471342 42.926037
v -12.081300 -14.584906 42.444346
v -12.410000 -14.627026 42.454274
v -12.081300 -14.655219 41.960180
v -12.410000 -14.698423 41.962643
v -12.081300 -14.640390 41.471160
v -12.410000 -14.683365 41.466084
v -12.081300 -14.540869 40.992145
v -12.410000 -14.582310 40.979683
v -12.081300 -14.359679 40.537688
v -12.410000 -14.398326 40.518219
v -12.081300 -14.102326 40.121600
v -12.410000 -14.137006 40.095715
v -12.081300 -13.776631 39.756521
v -12.410000 -13.806289 39.725008
v -12.081300 -13.392488 39.453545
v -12.410000 -13.416223 39.417360
v -12.081300 -12.961570 39.221877
v -12.410000 -12.978661 39.182121
v -12.081300 -12.496969 39.068557
v -12.410000 -12.506897 39.026438
v -12.081300 -12.012804 38.998244
v -12.410000 -12.015267 38.955040
v -12.081300 -11.523784 39.013073
v -12.410000 -11.518707 38.970098
v -12.081300 -11.044768 39.112594
v -12.410000 -11.032307 39.071154
v -12.081300 -10.590312 39.293784
v -12.410000 -10.570843 39.255137
v -12.081300 -10.174223 39.551137
v -12.410000 -10.148339 39.516457
v -12.081300 -9.809144 39.876832
v -12.410000 -9.777631 39.847174
v -12.081300 -9.506168 40.260975
v -12.410000 -9.469984 40.237240
v -12.081300 -9.274501 40.691893
v -12.410000 -9.234745 40.674802
v -12.081300 -9.121181 41.156494
v -12.410000 -9.079061 41.146566
v -12.081300 -9.050868 41.640659
v -12.410000 -9.007664 41.638196
v -12.410000 -9.022722 42.134756
v -12.081300 -9.065697 42.129679
v -12.410000 -9.123777 42.621156
v -12.081300 -9.165218 42.608694
v -12.410000 -9.307761 43.082620
v -12.081300 -9.346408 43.063151
v -12.410000 -9.569081 43.505124
v -12.081300 -9.603761 43.479240
v -12.410000 -9.899798 43.875831
v -12.081300 -9.929456 43.844319
v -12.410000 -10.289864 44.183479
v -12.081300 -10.313599 44.147295
v -12.410000 -10.727426 44.418718
v -12.081300 -10.744518 44.378962
v -12.410000 -11.199190 44.574402
v -12.081300 -11.209118 44.532282
v -12.410000 -11.690820 44.645799
v -12.081300 -11.693283 44.602595
v -11.183274 -11.099196 43.553945
v -11.310148 -11.344873 43.956339
v -11.511974 -11.284529 44.212349
v -11.310148 -11.726965 44.011829
v -11.775000 -11.238225 44.408792
v -11.511974 -11.711993 44.274428
v -11.775000 -11.700505 44.475927
v -11.140000 -11.064722 43.169708
v -11.183274 -10.806152 43.396401
v -11.310148 -10.978222 43.835343
v -11.511975 -10.874339 44.076985
v -11.775000 -10.794627 44.262403
v -11.183274 -10.544917 43.190363
v -11.310148 -10.638152 43.652517
v -11.511975 -10.493886 43.872448
v -11.775000 -10.383187 44.041208
v -11.310148 -9.874868 42.796937
v -11.310148 -10.077964 43.125304
v -11.511974 -9.639964 42.915270
v -11.511974 -9.867178 43.282630
v -11.310148 -10.334995 43.413415
v -11.775000 -9.705436 43.403352
v -11.511974 -10.154731 43.604954
v -11.775000 -10.016409 43.751927
v -11.310148 -9.731877 42.438291
v -11.511975 -9.479994 42.514036
v -11.775000 -9.286717 42.572158
v -11.775000 -9.459717 43.006071
v -11.183275 -9.957522 42.024331
v -11.310148 -9.653337 42.060263
v -11.511974 -9.392128 42.091119
v -11.775000 -9.191695 42.114795
v -12.081300 -9.050868 41.640659
v -11.775000 -9.177536 41.647881
v -11.511974 -9.379035 41.659369
v -11.310148 -9.641635 41.674341
v -11.183274 -9.947438 41.691775
v -11.183274 -9.995254 41.362521
v -11.140000 -10.283503 41.618917
v -11.140000 -10.367667 41.261849
v -11.183274 -10.099518 41.046572
v -11.310148 -9.818120 40.925598
v -11.310148 -9.697124 41.292249
v -11.511974 -9.576478 40.821715
v -11.511975 -9.441114 41.231905
v -11.775000 -9.391060 40.742003
v -11.775000 -9.244671 41.185601
v -11.183274 -10.257063 40.753528
v -11.310148 -10.000946 40.585527
v -11.511975 -9.781015 40.441262
v -11.775000 -9.612255 40.330563
v -11.310148 -10.528159 40.025340
v -11.310148 -10.240048 40.282371
v -11.511975 -10.370833 39.814554
v -11.775000 -9.901536 39.963785
v -11.511975 -10.048509 40.102107
v -11.775000 -10.250111 39.652812
v -11.310148 -10.856527 39.822244
v -11.511974 -10.738193 39.587340
v -11.775000 -10.647392 39.407093
v -11.183274 -11.303380 39.972577
v -11.310148 -11.215172 39.679253
v -11.511974 -11.139427 39.427370
v -11.775000 -11.081305 39.234093
v -11.183274 -11.629132 39.904898
v -11.140000 -11.759240 40.223207
v -11.183274 -11.961688 39.894814
v -11.310148 -11.979122 39.589011
v -11.310148 -11.593200 39.600714
v -11.511975 -11.994094 39.326411
v -11.511974 -11.562344 39.339504
v -11.775000 -12.005582 39.124912
v -11.775000 -11.538668 39.139071
v -11.140000 -12.125499 40.244088
v -11.183274 -12.290942 39.942630
v -11.310148 -12.361214 39.644500
v -11.511974 -12.421558 39.388490
v -11.775000 -12.467862 39.192047
v -11.183274 -12.606891 40.046894
v -11.310148 -12.727865 39.765496
v -11.511974 -12.831748 39.523854
v -11.775000 -12.911460 39.338436
v -11.310148 -13.371092 40.187424
v -11.310148 -13.067935 39.948323
v -11.511975 -13.551356 39.995885
v -11.775000 -13.322900 39.559631
v -11.511974 -13.212201 39.728391
v -11.775000 -13.689678 39.848912
v -11.310148 -13.628123 40.475535
v -11.511975 -13.838909 40.318209
v -11.775000 -14.000651 40.197488
v -11.183274 -13.557669 40.941705
v -11.310148 -13.831219 40.803903
v -11.511975 -14.066123 40.685569
v -11.775000 -14.246370 40.594768
v -11.183274 -13.680886 41.250756
v -11.140000 -13.390007 41.434161
v -11.183274 -13.748565 41.576508
v -11.310148 -14.052750 41.540576
v -11.310148 -13.974210 41.162549
v -11.511975 -14.313959 41.509720
v -11.511974 -14.226093 41.086803
v -11.775000 -14.514392 41.486044
v -11.775000 -14.419370 41.028682
v -11.140000 -13.433043 41.798482
v -11.183274 -13.758649 41.909064
v -11.310148 -14.064452 41.926499
v -11.511974 -14.327052 41.941470
v -11.775000 -14.528551 41.952958
v -11.183275 -13.710833 42.238318
v -11.310148 -14.008963 42.308590
v -11.511974 -14.264973 42.368934
v -11.775000 -14.461416 42.415238
v -11.310148 -13.705141 43.015312
v -11.310148 -13.887967 42.675242
v -11.511974 -13.925072 43.159577
v -11.775000 -14.315027 42.858837
v -11.511975 -14.129609 42.779125
v -11.775000 -14.093832 43.270276
v -11.310148 -13.466039 43.318468
v -11.511974 -13.657578 43.498732
v -11.775000 -13.804552 43.637054
v -11.183274 -12.994717 43.330034
v -11.310148 -13.177928 43.575499
v -11.511974 -13.335254 43.786285
v -11.775000 -13.455976 43.948027
v -11.183274 -12.711758 43.505045
v -11.140000 -12.480628 43.250433
v -11.183274 -12.402707 43.628262
v -11.310148 -12.490915 43.921586
v -11.310148 -12.849561 43.778596
v -11.511975 -12.566660 44.173469
v -11.511975 -12.967894 44.013499
v -11.775000 -12.624782 44.366746
v -11.775000 -13.058695 44.193747
v -11.140000 -12.129316 43.356079
v -11.310148 -12.112887 44.000126
v -11.511974 -12.143743 44.261335
v -11.775000 -12.167419 44.461769
v -11.140000 -12.372537 42.831662
v -11.140000 -11.763109 43.377858
v -11.140000 -12.129316 43.356079
v -11.140000 -12.480628 43.250433
v -11.140000 -13.265852 42.507790
v -11.140000 -13.005872 41.866146
v -11.140000 -12.798108 43.066616
v -11.140000 -13.064638 42.814539
v -11.140000 -11.219709 42.765935
v -11.140000 -10.368993 42.342632
v -11.140000 -10.534038 42.670262
v -11.140000 -10.770192 42.950999
v -11.140000 -11.064722 43.169708
v -11.140000 -11.401751 43.314598
v -11.140000 -10.700215 41.734693
v -11.140000 -10.531909 40.933815
v -11.140000 -10.367667 41.261849
v -11.140000 -10.283503 41.618917
v -11.140000 -10.283953 41.985771
v -11.140000 -11.333550 40.769178
v -11.140000 -11.759240 40.223207
v -11.140000 -11.398038 40.287353
v -11.140000 -11.061366 40.433069
v -11.140000 -10.767373 40.652500
v -11.140000 -12.486378 40.834904
v -11.140000 -13.264113 41.089586
v -11.140000 -13.062147 40.783332
v -11.140000 -12.794999 40.531909
v -11.140000 -12.477070 40.348872
v -11.140000 -12.125499 40.244088
v -11.140000 -13.390900 42.162907
v -11.140000 -13.433043 41.798482
v -11.140000 -13.390007 41.434161
v -12.180000 -12.486378 40.834904
v -12.248212 -12.623373 41.106851
v -11.140000 -12.486378 40.834904
v -12.180000 -11.333550 40.769178
v -12.248212 -11.637560 40.786510
v -11.140000 -11.333550 40.769178
v -12.790000 -10.264091 41.988117
v -12.819289 -10.326233 41.713372
v -12.840000 -10.342100 41.714276
v -12.864118 -10.352073 41.714845
v -12.890000 -10.376686 41.535149
v -18.483275 -11.938424 40.302851
v -12.790000 -11.199190 44.574402
v -12.790000 -11.396038 43.333765
v -12.790000 -10.727426 44.418718
v -12.790000 -11.054743 43.187040
v -12.790000 -10.289864 44.183479
v -12.790000 -10.756485 42.965563
v -12.790000 -9.899798 43.875831
v -12.790000 -9.569081 43.505124
v -12.790000 -10.517342 42.681273
v -12.790000 -9.307761 43.082620
v -12.790000 -10.350207 42.349495
v -12.790000 -9.123777 42.621156
v -12.790000 -10.264091 41.988117
v -12.790000 -9.022722 42.134756
v -12.790000 -9.007664 41.638196
v -12.790000 -10.263635 41.616620
v -12.790000 -9.079061 41.146566
v -12.790000 -10.348865 41.255032
v -12.790000 -9.234745 40.674802
v -12.790000 -10.515186 40.922845
v -12.790000 -9.469984 40.237240
v -12.790000 -9.777631 39.847174
v -12.790000 -10.753630 40.637969
v -12.790000 -10.148339 39.516457
v -12.790000 -11.051345 40.415761
v -12.790000 -10.570843 39.255137
v -12.790000 -11.392279 40.268200
v -12.790000 -11.032307 39.071154
v -12.790000 -11.518707 38.970098
v -12.790000 -11.758053 40.203242
v -12.790000 -12.015267 38.955040
v -12.790000 -12.128948 40.224387
v -12.790000 -12.506897 39.026438
v -12.790000 -12.484969 40.330498
v -12.790000 -12.978661 39.182121
v -12.790000 -13.416223 39.417360
v -12.790000 -12.806923 40.515852
v -12.790000 -13.806289 39.725008
v -12.790000 -13.077452 40.770457
v -12.790000 -14.137006 40.095715
v -12.790000 -13.281974 41.080588
v -12.790000 -14.398326 40.518220
v -12.790000 -14.582310 40.979683
v -12.790000 -13.409462 41.429525
v -12.790000 -14.683365 41.466084
v -12.790000 -13.453042 41.798458
v -12.790000 -14.698423 41.962643
v -12.790000 -13.410367 42.167496
v -12.790000 -14.627026 42.454274
v -12.790000 -14.471342 42.926037
v -12.790000 -13.283735 42.516744
v -12.790000 -14.236103 43.363599
v -12.790000 -13.079975 42.827376
v -12.790000 -13.928456 43.753665
v -12.790000 -12.810071 43.082644
v -12.790000 -13.557748 44.084382
v -12.790000 -13.135244 44.345703
v -12.790000 -12.488573 43.268787
v -12.790000 -12.673780 44.529686
v -12.790000 -12.132813 43.375770
v -18.483275 -11.767663 43.297988
v -18.790000 -11.785122 42.991760
v -18.483275 -11.767663 43.297988
v -18.790000 -11.785122 42.991760
v -18.790000 -11.479094 42.933587
v -18.790000 -12.095778 42.968746
v -18.790000 -12.389892 42.866112
v -18.790000 -11.198551 42.798190
v -18.790000 -12.647420 42.690853
v -18.790000 -10.962611 42.594797
v -18.790000 -12.850814 42.454912
v -18.790000 -10.787351 42.337268
v -18.790001 -12.986211 42.174369
v -18.790001 -10.684717 42.043154
v -18.790000 -13.044384 41.868341
v -18.790000 -10.661703 41.732498
v -18.790000 -13.021370 41.557685
v -18.790000 -10.719876 41.426471
v -18.790000 -12.918736 41.263571
v -18.790000 -10.855273 41.145927
v -18.790000 -12.743476 41.006043
v -18.790000 -11.058667 40.909987
v -18.790000 -12.507536 40.802649
v -18.790000 -11.316195 40.734728
v -18.790000 -12.226993 40.667253
v -18.790000 -11.610309 40.632094
v -18.790000 -11.920965 40.609079
v -12.410000 -9.007664 41.638196
v -11.775000 -9.177536 41.647881
v -11.511974 -9.379035 41.659369
v -11.310148 -9.641635 41.674341
v -11.183274 -9.947438 41.691775
v -11.140000 -10.283953 41.985771
v -12.790000 -12.187380 44.630741
v -12.410000 -12.187380 44.630741
v -12.790000 -11.690820 44.645799
v -12.410000 -12.673780 44.529686
v -12.410000 -11.690820 44.645799
v -12.790000 -11.199190 44.574402
v -12.410000 -11.199190 44.574402
v -12.790000 -10.727426 44.418718
v -12.410000 -10.727426 44.418718
v -12.790000 -10.289864 44.183479
v -12.410000 -10.289864 44.183479
v -12.790000 -9.899798 43.875831
v -12.410000 -9.899798 43.875831
v -12.790000 -9.569081 43.505124
v -12.410000 -9.569081 43.505124
v -12.790000 -9.307761 43.082620
v -12.410000 -9.307761 43.082620
v -12.790000 -9.123777 42.621156
v -12.410000 -9.123777 42.621156
v -12.790000 -9.022722 42.134756
v -12.410000 -9.022722 42.134756
v -12.790000 -9.007664 41.638196
v -12.410000 -9.007664 41.638196
v -12.790000 -9.079061 41.146566
v -12.410000 -9.079061 41.146566
v -12.790000 -9.234745 40.674802
v -12.410000 -9.234745 40.674802
v -12.790000 -9.469984 40.237240
v -12.410000 -9.469984 40.237240
v -12.790000 -9.777631 39.847174
v -12.410000 -9.777631 39.847174
v -12.790000 -10.148339 39.516457
v -12.410000 -10.148339 39.516457
v -12.790000 -10.570843 39.255137
v -12.410000 -10.570843 39.255137
v -12.790000 -11.032307 39.071154
v -12.410000 -11.032307 39.071154
v -12.790000 -11.518707 38.970098
v -12.410000 -11.518707 38.970098
v -12.790000 -12.015267 38.955040
v -12.410000 -12.015267 38.955040
v -12.790000 -12.015267 38.955040
v -12.410000 -12.015267 38.955040
v -12.790000 -12.506897 39.026438
v -12.410000 -12.506897 39.026438
v -12.790000 -12.978661 39.182121
v -12.410000 -12.978661 39.182121
v -12.790000 -13.416223 39.417360
v -12.410000 -13.416223 39.417360
v -12.790000 -13.806289 39.725008
v -12.410000 -13.806289 39.725008
v -12.790000 -14.137006 40.095715
v -12.410000 -14.137006 40.095715
v -12.790000 -14.398326 40.518220
v -12.410000 -14.398326 40.518219
v -12.790000 -14.582310 40.979683
v -12.410000 -14.582310 40.979683
v -12.790000 -14.683365 41.466084
v -12.410000 -14.683365 41.466084
v -12.790000 -14.698423 41.962643
v -12.410000 -14.698423 41.962643
v -12.790000 -14.627026 42.454274
v -12.410000 -14.627026 42.454274
v -12.790000 -14.471342 42.926037
v -12.410000 -14.471342 42.926037
v -12.790000 -14.236103 43.363599
v -12.410000 -14.236103 43.363599
v -12.790000 -13.928456 43.753665
v -12.410000 -13.928456 43.753665
v -12.790000 -13.557748 44.084382
v -12.410000 -13.557748 44.084382
v -12.790000 -13.135244 44.345703
v -12.410000 -13.135244 44.345702
v -12.790000 -12.673780 44.529686
v -12.269316 -12.746125 41.350525
v -11.140000 -13.005872 41.866146
v -12.248212 -12.868877 41.594199
v -12.180000 -13.005872 41.866146
v -12.180000 -13.005872 41.866146
v -12.248212 -12.838857 42.120760
v -11.140000 -13.005872 41.866146
v -12.269316 -12.689205 42.348904
v -11.140000 -12.372537 42.831662
v -12.248212 -12.539553 42.577047
v -12.180000 -12.372537 42.831662
v -12.180000 -12.372537 42.831662
v -12.248212 -12.068527 42.814329
v -11.140000 -12.372537 42.831662
v -12.269317 -11.796123 42.798798
v -11.140000 -11.219709 42.765935
v -12.248212 -11.523719 42.783268
v -12.180000 -11.219709 42.765935
v -12.180000 -11.219709 42.765935
v -12.248212 -11.082714 42.493989
v -11.140000 -11.219709 42.765935
v -12.269316 -10.959962 42.250314
v -11.140000 -10.700215 41.734693
v -12.248212 -10.837210 42.006640
v -12.180000 -10.700215 41.734693
v -12.269317 -11.909964 40.802041
v -11.140000 -12.486378 40.834904
v -12.248212 -12.182368 40.817571
v -12.180000 -12.486378 40.834904
v -12.180000 -10.700215 41.734693
v -12.248212 -10.867230 41.480079
v -11.140000 -10.700215 41.734693
v -12.269316 -11.016882 41.251936
v -11.140000 -11.333550 40.769178
v -12.248212 -11.166534 41.023792
v -12.180000 -11.333550 40.769178
v -12.248212 -10.837210 42.006640
v -12.846667 -11.853044 41.800420
v -12.180000 -10.700215 41.734693
v -12.269316 -10.959962 42.250314
v -12.846667 -11.853044 41.800420
v -12.248212 -10.867230 41.480079
v -12.180000 -11.219709 42.765935
v -12.846667 -11.853044 41.800420
v -12.248212 -11.082714 42.493989
v -12.248212 -11.523719 42.783268
v -12.846667 -11.853044 41.800420
v -12.846667 -11.853044 41.800420
v -12.269317 -11.796123 42.798798
v -12.180000 -12.372537 42.831662
v -12.846667 -11.853044 41.800420
v -12.248212 -12.068527 42.814329
v -12.248212 -12.539553 42.577047
v -12.846667 -11.853044 41.800420
v -12.846667 -11.853044 41.800420
v -12.269316 -12.689205 42.348904
v -12.180000 -13.005872 41.866146
v -12.846667 -11.853044 41.800420
v -12.248212 -12.838857 42.120760
v -12.248212 -12.868877 41.594199
v -12.846667 -11.853044 41.800420
v -12.846667 -11.853044 41.800420
v -12.269316 -12.746125 41.350525
v -12.180000 -12.486378 40.834904
v -12.846667 -11.853044 41.800420
v -12.248212 -12.623373 41.106851
v -12.248212 -12.182368 40.817571
v -12.846667 -11.853044 41.800420
v -12.846667 -11.853044 41.800420
v -12.269317 -11.909964 40.802041
v -12.180000 -11.333550 40.769178
v -12.846667 -11.853044 41.800420
v -12.248212 -11.637560 40.786510
v -12.248212 -11.166534 41.023792
v -12.846667 -11.853044 41.800420
v -12.846667 -11.853044 41.800420
v -12.269317 -11.909964 40.802041
v -12.269316 -11.016882 41.251936
v -12.846667 -11.853044 41.800420
f 1 2 3
f 1 3 4
f 1 5 2
f 1 4 190
f 2 5 35
f 2 36 3
f 2 35 45
f 2 45 36
f 3 36 38
f 3 38 4
f 4 184 190
f 4 38 191
f 4 191 184
f 5 43 35
f 6 7 8
f 6 8 106
f 6 112 119
f 6 106 112
f 7 9 10
f 7 10 8
f 8 99 100
f 8 10 99
f 8 100 106
f 9 11 12
f 9 12 10
f 10 94 99
f 10 12 94
f 11 13 14
f 11 14 12
f 12 88 94
f 12 14 88
f 13 15 16
f 13 16 14
f 14 82 88
f 14 16 82
f 15 17 18
f 15 18 16
f 16 74 82
f 16 18 74
f 17 77 18
f 18 76 74
f 18 77 76
f 19 20 21
f 19 21 587
f 19 587 588
f 20 22 23
f 20 23 21
f 21 61 65
f 21 23 61
f 21 65 587
f 22 24 25
f 22 25 23
f 23 57 61
f 23 25 57
f 24 26 27
f 24 27 25
f 25 52 57
f 25 27 52
f 26 28 29
f 26 29 27
f 27 47 52
f 27 29 47
f 28 30 31
f 28 31 29
f 29 39 47
f 29 31 39
f 30 42 31
f 30 194 42
f 30 195 194
f 31 41 39
f 31 42 41
f 32 33 34
f 32 34 62
f 33 585 63
f 33 63 34
f 34 54 58
f 34 58 62
f 34 63 54
f 35 43 44
f 35 44 50
f 35 50 45
f 36 37 38
f 36 45 46
f 36 46 37
f 37 39 40
f 37 40 38
f 37 46 47
f 37 47 39
f 38 40 191
f 39 41 40
f 40 192 191
f 40 41 192
f 41 193 192
f 41 42 193
f 42 194 193
f 43 48 44
f 44 48 49
f 44 49 55
f 44 55 50
f 45 50 51
f 45 51 46
f 46 51 52
f 46 52 47
f 48 53 49
f 49 53 54
f 49 54 59
f 49 59 55
f 50 55 56
f 50 56 51
f 51 56 57
f 51 57 52
f 53 58 54
f 54 63 59
f 55 59 60
f 55 60 56
f 56 60 61
f 56 61 57
f 59 63 64
f 59 64 60
f 60 64 65
f 60 65 61
f 63 585 64
f 64 585 586
f 64 586 65
f 65 586 587
f 66 67 68
f 66 68 69
f 66 70 71
f 66 69 80
f 66 80 70
f 66 71 67
f 67 71 584
f 68 78 69
f 69 78 79
f 69 79 85
f 69 85 80
f 70 72 73
f 70 73 71
f 70 80 81
f 70 81 72
f 72 74 75
f 72 75 73
f 72 81 82
f 72 82 74
f 74 76 75
f 78 83 79
f 79 83 84
f 79 84 86
f 79 86 85
f 80 85 87
f 80 87 81
f 81 87 88
f 81 88 82
f 83 89 84
f 84 89 90
f 84 90 91
f 84 91 86
f 85 86 92
f 85 92 87
f 86 91 93
f 86 93 92
f 87 92 94
f 87 94 88
f 89 95 90
f 90 95 96
f 90 96 97
f 90 97 91
f 91 97 98
f 91 98 93
f 92 93 99
f 92 99 94
f 93 98 100
f 93 100 99
f 95 101 96
f 96 101 102
f 96 102 103
f 96 103 97
f 97 103 104
f 97 104 98
f 98 104 105
f 98 105 100
f 100 105 106
f 101 107 102
f 102 107 108
f 102 108 109
f 102 109 103
f 103 109 110
f 103 110 104
f 104 110 111
f 104 111 105
f 105 111 112
f 105 112 106
f 107 113 108
f 108 113 114
f 108 114 115
f 108 115 109
f 109 115 116
f 109 116 110
f 110 116 117
f 110 117 111
f 111 117 118
f 111 118 112
f 112 118 119
f 113 120 114
f 114 120 121
f 114 121 122
f 114 122 115
f 115 122 123
f 115 123 116
f 116 123 124
f 116 124 117
f 117 124 125
f 117 125 118
f 118 126 119
f 118 125 126
f 120 127 121
f 121 127 128
f 121 128 129
f 121 129 122
f 122 129 130
f 122 130 123
f 123 130 131
f 123 131 124
f 124 131 132
f 124 132 125
f 125 133 126
f 125 132 133
f 127 134 128
f 128 134 135
f 128 135 136
f 128 136 129
f 129 136 137
f 129 137 130
f 130 137 138
f 130 138 131
f 131 138 139
f 131 139 132
f 132 140 133
f 132 139 140
f 134 141 135
f 135 141 142
f 135 142 143
f 135 143 136
f 136 143 144
f 136 144 137
f 137 144 145
f 137 145 138
f 138 145 146
f 138 146 139
f 139 147 140
f 139 146 147
f 141 148 142
f 142 148 149
f 142 149 150
f 142 150 143
f 143 150 151
f 143 151 144
f 144 151 152
f 144 152 145
f 145 152 153
f 145 153 146
f 146 154 147
f 146 153 154
f 148 155 149
f 149 155 156
f 149 156 157
f 149 157 150
f 150 157 158
f 150 158 151
f 151 158 159
f 151 159 152
f 152 159 160
f 152 160 153
f 153 161 154
f 153 160 161
f 155 162 156
f 156 162 163
f 156 163 164
f 156 164 157
f 157 164 165
f 157 165 158
f 158 165 166
f 158 166 159
f 159 166 167
f 159 167 160
f 160 168 161
f 160 167 168
f 162 169 163
f 163 169 170
f 163 170 171
f 163 171 164
f 164 171 172
f 164 172 165
f 165 172 173
f 165 173 166
f 166 173 174
f 166 174 167
f 167 175 168
f 167 174 175
f 169 176 170
f 170 176 177
f 170 177 178
f 170 178 171
f 171 178 179
f 171 179 172
f 172 179 180
f 172 180 173
f 173 180 181
f 173 181 174
f 174 182 175
f 174 181 182
f 176 183 177
f 177 183 184
f 177 184 185
f 177 185 178
f 178 185 186
f 178 186 179
f 179 186 187
f 179 187 180
f 180 187 188
f 180 188 181
f 181 189 182
f 181 188 189
f 183 190 184
f 184 191 185
f 185 191 192
f 185 192 186
f 186 192 193
f 186 193 187
f 187 193 194
f 187 194 188
f 188 195 189
f 188 194 195
f 196 197 198
f 196 198 199
f 196 200 197
f 197 200 201
f 198 248 199
f 199 248 247
f 200 202 201
f 201 202 203
f 202 204 203
f 203 204 205
f 204 206 205
f 205 206 207
f 206 208 207
f 207 208 209
f 208 210 209
f 209 210 211
f 210 212 211
f 211 212 213
f 212 214 213
f 213 214 215
f 214 216 215
f 215 216 217
f 216 218 217
f 217 218 219
f 218 220 219
f 219 220 221
f 220 222 221
f 221 222 223
f 222 589 223
f 224 225 226
f 224 227 225
f 225 227 228
f 227 229 228
f 228 229 230
f 229 231 230
f 230 231 232
f 231 233 232
f 232 233 234
f 233 235 234
f 234 235 236
f 235 237 236
f 236 237 238
f 237 239 238
f 238 239 240
f 239 241 240
f 240 241 242
f 241 243 242
f 242 243 244
f 243 245 244
f 244 245 246
f 245 247 246
f 246 247 248
f 249 250 251
f 249 649 648
f 249 251 649
f 250 590 251
f 251 590 591
f 252 253 254
f 252 254 255
f 252 256 253
f 253 256 257
f 254 650 255
f 256 258 257
f 257 258 259
f 258 260 259
f 259 260 261
f 260 262 261
f 261 262 263
f 262 264 263
f 263 264 265
f 264 266 265
f 265 266 267
f 266 268 267
f 267 268 269
f 268 270 269
f 269 270 271
f 270 272 271
f 271 272 273
f 272 274 273
f 273 274 275
f 274 276 275
f 275 276 278
f 276 277 278
f 276 279 277
f 277 279 280
f 279 281 280
f 280 281 282
f 281 283 282
f 282 283 284
f 283 285 284
f 284 285 286
f 285 287 286
f 286 287 288
f 287 289 288
f 288 289 290
f 289 291 290
f 290 291 292
f 291 293 292
f 292 293 294
f 293 295 294
f 294 295 296
f 295 297 296
f 296 297 298
f 297 299 298
f 298 299 300
f 299 651 300
f 300 651 652
f 301 302 303
f 301 303 304
f 301 305 302
f 301 304 541
f 302 305 406
f 302 407 303
f 302 406 415
f 302 415 407
f 303 407 409
f 303 409 304
f 304 534 541
f 304 409 542
f 304 542 534
f 305 413 406
f 306 307 308
f 306 414 413
f 306 418 414
f 306 308 418
f 307 309 310
f 307 310 308
f 308 310 422
f 308 422 423
f 308 423 418
f 309 311 312
f 309 312 310
f 310 312 430
f 310 430 422
f 311 434 312
f 311 442 434
f 312 434 435
f 312 435 430
f 313 314 315
f 313 446 445
f 313 453 446
f 313 315 453
f 314 316 317
f 314 317 315
f 315 317 457
f 315 457 458
f 315 458 453
f 316 318 319
f 316 319 317
f 317 319 463
f 317 463 457
f 318 466 319
f 318 471 470
f 318 470 466
f 319 466 467
f 319 467 463
f 320 321 322
f 320 480 479
f 320 484 480
f 320 322 484
f 321 323 324
f 321 324 322
f 322 324 488
f 322 488 489
f 322 489 484
f 323 325 326
f 323 326 324
f 324 326 494
f 324 494 488
f 325 497 326
f 325 502 501
f 325 501 497
f 326 497 498
f 326 498 494
f 327 328 329
f 327 511 510
f 327 515 511
f 327 329 515
f 328 330 331
f 328 331 329
f 329 331 519
f 329 519 520
f 329 520 515
f 330 332 333
f 330 333 331
f 331 333 525
f 331 525 519
f 332 528 333
f 332 533 532
f 332 532 528
f 333 528 529
f 333 529 525
f 334 335 336
f 334 337 335
f 334 336 404
f 335 337 338
f 335 540 539
f 335 338 540
f 335 539 336
f 336 539 544
f 336 544 405
f 336 405 404
f 337 339 338
f 338 339 340
f 338 340 531
f 338 531 540
f 339 341 340
f 340 341 342
f 340 527 531
f 340 342 527
f 341 343 342
f 342 343 344
f 342 344 524
f 342 524 527
f 343 345 344
f 344 345 346
f 344 522 524
f 344 346 522
f 345 347 346
f 346 347 348
f 346 348 518
f 346 518 522
f 347 349 348
f 348 349 350
f 348 514 518
f 348 350 514
f 349 351 350
f 350 351 352
f 350 508 514
f 350 352 508
f 351 353 352
f 352 353 354
f 352 509 508
f 352 354 509
f 353 355 354
f 354 355 356
f 354 356 500
f 354 500 509
f 355 357 356
f 356 357 358
f 356 496 500
f 356 358 496
f 357 359 358
f 358 359 360
f 358 360 493
f 358 493 496
f 359 361 360
f 360 361 362
f 360 491 493
f 360 362 491
f 361 363 362
f 362 363 364
f 362 364 487
f 362 487 491
f 363 365 364
f 364 365 366
f 364 483 487
f 364 366 483
f 365 367 366
f 366 367 368
f 366 477 483
f 366 368 477
f 367 369 368
f 368 369 370
f 368 478 477
f 368 370 478
f 369 371 370
f 370 371 372
f 370 372 469
f 370 469 478
f 371 373 372
f 372 373 374
f 372 465 469
f 372 374 465
f 373 375 374
f 374 375 376
f 374 376 462
f 374 462 465
f 375 377 376
f 376 377 378
f 376 460 462
f 376 378 460
f 377 379 378
f 378 379 380
f 378 380 456
f 378 456 460
f 379 381 380
f 380 381 382
f 380 451 456
f 380 382 451
f 381 383 382
f 382 383 384
f 382 452 451
f 382 384 452
f 383 385 384
f 384 385 386
f 384 386 678
f 384 678 452
f 385 677 386
f 387 388 389
f 387 389 438
f 388 390 391
f 388 391 389
f 389 432 437
f 389 437 438
f 389 391 432
f 390 392 393
f 390 393 391
f 391 433 432
f 391 393 433
f 392 394 395
f 392 395 393
f 393 427 433
f 393 395 427
f 394 396 397
f 394 397 395
f 395 429 427
f 395 397 429
f 396 398 399
f 396 399 397
f 397 399 421
f 397 421 429
f 398 400 401
f 398 401 399
f 399 417 421
f 399 401 417
f 400 402 403
f 400 403 401
f 401 410 417
f 401 403 410
f 402 404 405
f 402 405 403
f 403 412 410
f 403 405 412
f 405 544 412
f 406 413 414
f 406 414 419
f 406 419 415
f 407 408 409
f 407 415 416
f 407 416 408
f 408 410 411
f 408 411 409
f 408 416 417
f 408 417 410
f 409 411 542
f 410 412 411
f 411 543 542
f 411 412 543
f 412 544 543
f 414 426 419
f 414 418 426
f 415 419 420
f 415 420 416
f 416 420 421
f 416 421 417
f 418 423 426
f 419 428 420
f 419 426 428
f 420 429 421
f 420 428 429
f 422 424 423
f 422 430 431
f 422 431 424
f 423 425 426
f 423 424 425
f 424 431 432
f 424 433 425
f 424 432 433
f 425 427 428
f 425 428 426
f 425 433 427
f 427 429 428
f 430 435 436
f 430 436 431
f 431 436 437
f 431 437 432
f 434 441 435
f 434 442 441
f 435 440 436
f 435 441 440
f 436 439 437
f 436 440 439
f 437 439 438
f 443 444 445
f 443 445 446
f 443 446 447
f 443 447 448
f 443 681 444
f 443 448 681
f 444 681 682
f 446 453 454
f 446 454 447
f 447 449 448
f 447 454 455
f 447 455 449
f 448 449 450
f 448 680 681
f 448 450 680
f 449 451 450
f 449 455 456
f 449 456 451
f 450 451 452
f 450 679 680
f 450 452 679
f 452 678 679
f 453 458 454
f 454 461 455
f 454 458 461
f 455 460 456
f 455 461 460
f 457 459 458
f 457 463 464
f 457 464 459
f 458 459 461
f 459 464 465
f 459 462 461
f 459 465 462
f 460 461 462
f 463 467 468
f 463 468 464
f 464 468 469
f 464 469 465
f 466 474 467
f 466 470 474
f 467 476 468
f 467 474 476
f 468 478 469
f 468 476 478
f 470 471 472
f 470 472 473
f 470 473 474
f 471 479 472
f 472 479 480
f 472 480 481
f 472 481 473
f 473 475 474
f 473 481 482
f 473 482 475
f 474 475 476
f 475 477 476
f 475 482 483
f 475 483 477
f 476 477 478
f 480 484 485
f 480 485 481
f 481 485 486
f 481 486 482
f 482 486 487
f 482 487 483
f 484 489 485
f 485 492 486
f 485 489 492
f 486 491 487
f 486 492 491
f 488 490 489
f 488 494 495
f 488 495 490
f 489 490 492
f 490 495 496
f 490 493 492
f 490 496 493
f 491 492 493
f 494 498 499
f 494 499 495
f 495 499 500
f 495 500 496
f 497 505 498
f 497 501 505
f 498 507 499
f 498 505 507
f 499 509 500
f 499 507 509
f 501 502 503
f 501 503 504
f 501 504 505
f 502 510 503
f 503 510 511
f 503 511 512
f 503 512 504
f 504 506 505
f 504 512 513
f 504 513 506
f 505 506 507
f 506 508 507
f 506 513 514
f 506 514 508
f 507 508 509
f 511 515 516
f 511 516 512
f 512 516 517
f 512 517 513
f 513 517 518
f 513 518 514
f 515 520 516
f 516 523 517
f 516 520 523
f 517 522 518
f 517 523 522
f 519 521 520
f 519 525 526
f 519 526 521
f 520 521 523
f 521 526 527
f 521 524 523
f 521 527 524
f 522 523 524
f 525 529 530
f 525 530 526
f 526 530 531
f 526 531 527
f 528 536 529
f 528 532 536
f 529 538 530
f 529 536 538
f 530 540 531
f 530 538 540
f 532 533 534
f 532 534 535
f 532 535 536
f 533 541 534
f 534 542 535
f 535 537 536
f 535 542 543
f 535 543 537
f 536 537 538
f 537 539 538
f 537 543 544
f 537 544 539
f 538 539 540
f 545 546 547
f 545 547 548
f 545 549 550
f 545 551 552
f 545 552 549
f 545 553 546
f 545 548 551
f 546 553 558
f 549 575 550
f 550 570 569
f 550 575 576
f 550 577 570
f 550 576 577
f 553 554 555
f 553 555 556
f 553 557 558
f 553 559 554
f 553 556 557
f 554 559 563
f 559 560 561
f 559 561 562
f 559 564 560
f 559 562 563
f 560 564 568
f 564 565 566
f 564 566 567
f 564 569 565
f 564 567 568
f 565 569 574
f 569 570 571
f 569 571 572
f 569 573 574
f 569 572 573
f 578 579 580
f 579 757 580
f 580 757 758
f 581 582 583
f 582 782 583
f 583 782 783
f 590 592 591
f 591 592 593
f 592 594 593
f 593 594 595
f 594 596 595
f 595 596 597
f 595 597 598
f 597 599 598
f 598 599 600
f 599 601 600
f 600 601 602
f 601 603 602
f 602 603 604
f 602 604 605
f 604 606 605
f 605 606 607
f 606 608 607
f 607 608 609
f 608 610 609
f 609 610 611
f 609 611 612
f 611 613 612
f 612 613 614
f 613 615 614
f 614 615 616
f 615 617 616
f 616 617 618
f 616 618 619
f 618 620 619
f 619 620 621
f 620 622 621
f 621 622 623
f 622 624 623
f 623 624 625
f 623 625 626
f 625 627 626
f 626 627 628
f 627 629 628
f 628 629 630
f 629 631 630
f 630 631 632
f 630 632 633
f 632 634 633
f 633 634 635
f 634 636 635
f 635 636 637
f 636 638 637
f 637 638 639
f 637 639 640
f 639 641 640
f 640 641 642
f 641 643 642
f 642 643 644
f 643 645 644
f 644 645 646
f 644 646 647
f 646 648 647
f 647 648 649
f 653 654 655
f 654 656 655
f 654 657 656
f 656 657 658
f 657 659 658
f 658 659 660
f 659 661 660
f 660 661 662
f 661 663 662
f 662 663 664
f 663 665 664
f 664 665 666
f 665 667 666
f 666 667 668
f 667 669 668
f 668 669 670
f 669 671 670
f 670 671 672
f 671 673 672
f 672 673 674
f 673 675 674
f 674 675 676
f 683 684 685
f 683 686 684
f 683 756 686
f 684 687 685
f 685 687 688
f 686 756 755
f 687 689 688
f 688 689 690
f 689 691 690
f 690 691 692
f 691 693 692
f 692 693 694
f 693 695 694
f 694 695 696
f 695 697 696
f 696 697 698
f 697 699 698
f 698 699 700
f 699 701 700
f 700 701 702
f 701 703 702
f 702 703 704
f 703 705 704
f 704 705 706
f 705 707 706
f 706 707 708
f 707 709 708
f 708 709 710
f 709 711 710
f 710 711 712
f 711 713 712
f 712 713 714
f 713 715 714
f 714 715 716
f 715 717 716
f 716 717 718
f 717 719 718
f 718 719 720
f 719 721 720
f 720 721 722
f 721 723 722
f 724 725 726
f 725 727 726
f 726 727 728
f 727 729 728
f 728 729 730
f 729 731 730
f 730 731 732
f 731 733 732
f 732 733 734
f 733 735 734
f 734 735 736
f 735 737 736
f 736 737 738
f 737 739 738
f 738 739 740
f 739 741 740
f 740 741 742
f 741 743 742
f 742 743 744
f 743 745 744
f 744 745 746
f 745 747 746
f 746 747 748
f 747 749 748
f 748 749 750
f 749 751 750
f 750 751 752
f 751 753 752
f 752 753 754
f 753 755 754
f 754 755 756
f 757 759 758
f 758 759 760
f 761 762 763
f 762 764 763
f 763 764 765
f 764 766 765
f 765 766 767
f 768 769 770
f 769 771 770
f 770 771 772
f 771 773 772
f 772 773 774
f 775 776 777
f 776 778 777
f 777 778 779
f 778 780 779
f 779 780 781
f 782 784 783
f 783 784 785
f 786 787 788
f 787 789 788
f 788 789 790
f 789 791 790
f 790 791 792
f 793 794 795
f 793 796 794
f 795 797 798
f 796 801 804
f 798 835 834
f 799 800 801
f 799 802 803
f 802 805 803
f 805 808 811
f 806 807 808
f 806 809 810
f 809 812 810
f 812 815 818
f 813 814 815
f 813 816 817
f 816 819 817
f 819 822 825
f 820 821 822
f 820 823 824
f 823 826 824
f 827 828 829
f 827 830 831
f 829 832 833
f 830 834 831