# Forged Hexagon Socket Button Head Cap Screw - Metric M3 x 0.5 x 6
# Autodesk dbId: 33
# Units: mm
o 033_Forged_Hexagon_Socket_Button_Head_Cap_Screw_-_Metric_M3_x_0.5_x_6
v 15.690000 67.420608 -7.906060
v 15.693407 67.629767 -8.194531
v 15.693407 67.443993 -7.894968
v 15.693407 67.329536 -7.561578
v 15.690000 67.617709 -8.220959
v 15.790000 70.221492 -6.577508
v 15.790000 70.335954 -6.920524
v 15.764118 70.333886 -6.894462
v 15.790000 70.365000 -7.280966
v 15.764118 70.369607 -7.229218
v 15.790000 70.306944 -7.637885
v 15.764118 70.329942 -7.563529
v 15.790000 70.165158 -7.970539
v 15.764118 70.216880 -7.880633
v 15.790000 69.947883 -8.259595
v 15.764118 70.036091 -8.164627
v 15.790000 69.667746 -8.488254
v 15.764118 69.796640 -8.401272
v 15.790000 69.341027 -8.643227
v 15.790000 68.986715 -8.715509
v 15.764118 69.192120 -8.688016
v 15.790000 68.625400 -8.700897
v 15.764118 68.857364 -8.723737
v 15.790000 68.278081 -8.600242
v 15.764118 68.523052 -8.684072
v 15.790000 67.964943 -8.419393
v 15.764118 68.205948 -8.571010
v 15.790000 67.704185 -8.168860
v 15.764118 67.921954 -8.390221
v 15.790000 67.510959 -7.863204
v 15.764118 67.685309 -8.150770
v 15.693407 69.540838 -8.642588
v 15.703397 69.530502 -8.620797
v 15.693407 69.207448 -8.757045
v 15.693407 67.877542 -8.445244
v 15.703397 67.648711 -8.179605
v 15.719289 67.664979 -8.166788
v 15.703397 67.465784 -7.884632
v 15.740000 67.677462 -8.156953
v 15.719289 67.484496 -7.875756
v 15.740000 67.498855 -7.868946
v 15.764118 67.507881 -7.864664
v 15.690000 67.882119 -8.481916
v 15.693407 68.174893 -8.634537
v 15.703397 67.892690 -8.426477
v 15.719289 67.905698 -8.410361
v 15.740000 67.915679 -8.397995
v 15.690000 68.199581 -8.674861
v 15.693407 68.506911 -8.752916
v 15.703397 68.185486 -8.612869
v 15.719289 68.194582 -8.594263
v 15.740000 68.201561 -8.579986
v 15.690000 68.552982 -8.789393
v 15.693407 68.856947 -8.794447
v 15.703397 68.512417 -8.729435
v 15.719289 68.517144 -8.709271
v 15.740000 68.520772 -8.693799
v 15.690000 68.923271 -8.819339
v 15.703397 68.857089 -8.770329
v 15.719289 68.857211 -8.749619
v 15.740000 68.857305 -8.733727
v 15.690000 69.290484 -8.763082
v 15.703397 69.202219 -8.733501
v 15.719289 69.197730 -8.713283
v 15.740000 69.194285 -8.697769
v 15.693407 69.840401 -8.456815
v 15.690000 69.634825 -8.623657
v 15.690000 69.937731 -8.408580
v 15.693407 70.091114 -8.209040
v 15.703397 69.825475 -8.437870
v 15.693407 69.540838 -8.642588
v 15.719289 69.812657 -8.421602
v 15.703397 69.530502 -8.620797
v 15.740000 69.802822 -8.409119
v 15.719289 69.521626 -8.602085
v 15.740000 69.514815 -8.587727
v 15.764118 69.510534 -8.578701
v 15.690000 70.182872 -8.129445
v 15.693407 70.280406 -7.911688
v 15.703397 70.072347 -8.193891
v 15.719289 70.056231 -8.180883
v 15.740000 70.043865 -8.170902
v 15.690000 70.357032 -7.801301
v 15.693407 70.398786 -7.579670
v 15.703397 70.258739 -7.901096
v 15.703397 70.375304 -7.574165
v 15.719289 70.240132 -7.892000
v 15.740000 70.225855 -7.885020
v 15.690000 70.450822 -7.441838
v 15.693407 70.440316 -7.229634
v 15.703397 70.416199 -7.229492
v 15.719289 70.355140 -7.569437
v 15.719289 70.395488 -7.229370
v 15.740000 70.339668 -7.565810
v 15.690000 70.459186 -7.070434
v 15.693407 70.402915 -6.879134
v 15.703397 70.379371 -6.884362
v 15.719289 70.359152 -6.888851
v 15.740000 70.379597 -7.229277
v 15.740000 70.343638 -6.892296
v 15.690000 70.381673 -6.707114
v 15.693407 70.288458 -6.545743
v 15.703397 70.266667 -6.556079
v 15.719289 70.247955 -6.564955
v 15.740000 70.233596 -6.571766
v 15.764118 70.224570 -6.576047
v 15.690000 70.222463 -6.371462
v 15.693407 70.102684 -6.246181
v 15.703397 70.083740 -6.261107
v 15.719289 70.067472 -6.273924
v 15.740000 70.054989 -6.283759
v 15.764118 70.047142 -6.289941
v 15.690000 69.990137 -6.081574
v 15.693407 69.854909 -5.995467
v 15.703397 69.839761 -6.014235
v 15.719289 69.826753 -6.030351
v 15.740000 69.816772 -6.042717
v 15.764118 69.810497 -6.050490
v 15.790000 70.028266 -6.271851
v 15.690000 69.697220 -5.853078
v 15.693407 69.557558 -5.806175
v 15.703397 69.546965 -5.827843
v 15.719289 69.537869 -5.846449
v 15.740000 69.530890 -5.860726
v 15.764118 69.526502 -5.869701
v 15.790000 69.767508 -6.021319
v 15.690000 69.359505 -5.698293
v 15.693407 69.225540 -5.687796
v 15.703397 69.220034 -5.711277
v 15.719289 69.215307 -5.731441
v 15.740000 69.211679 -5.746913
v 15.764118 69.209399 -5.756639
v 15.790000 69.454370 -5.840470
v 15.690000 68.995196 -5.625562
v 15.693407 68.875504 -5.646265
v 15.703397 68.875362 -5.670383
v 15.719289 68.875240 -5.691093
v 15.740000 68.875146 -5.706985
v 15.764118 68.875087 -5.716975
v 15.790000 69.107051 -5.739814
v 15.690000 68.623935 -5.638807
v 15.693407 68.525003 -5.683666
v 15.703397 68.530232 -5.707211
v 15.719289 68.534721 -5.727429
v 15.740000 68.538166 -5.742943
v 15.764118 68.540331 -5.752696
v 15.790000 68.745736 -5.725203
v 15.690000 68.265736 -5.737314
v 15.693407 68.191613 -5.798123
v 15.703397 68.201949 -5.819914
v 15.719289 68.210825 -5.838626
v 15.740000 68.217636 -5.852985
v 15.764118 68.221917 -5.862011
v 15.790000 68.391424 -5.797484
v 15.690000 67.939909 -5.915772
v 15.693407 67.892050 -5.983897
v 15.703397 67.906976 -6.002842
v 15.719289 67.919794 -6.019110
v 15.740000 67.929629 -6.031593
v 15.764118 67.935811 -6.039440
v 15.790000 68.064705 -5.952458
v 15.690000 67.664021 -6.164561
v 15.693407 67.641337 -6.231672
v 15.703397 67.660104 -6.246820
v 15.719289 67.676220 -6.259828
v 15.740000 67.688586 -6.269810
v 15.764118 67.696360 -6.276084
v 15.790000 67.784568 -6.181117
v 15.690000 67.452943 -6.470267
v 15.693407 67.452045 -6.529024
v 15.703397 67.473712 -6.539616
v 15.719289 67.492319 -6.548712
v 15.740000 67.506596 -6.555691
v 15.764118 67.515571 -6.560079
v 15.790000 67.567293 -6.470173
v 15.690000 67.318056 -6.816411
v 15.693407 67.333665 -6.861042
v 15.703397 67.357147 -6.866547
v 15.719289 67.377311 -6.871274
v 15.740000 67.392783 -6.874902
v 15.764118 67.402509 -6.877182
v 15.790000 67.425507 -6.802827
v 15.690000 67.266631 -7.184332
v 15.693407 67.292135 -7.211077
v 15.703397 67.316252 -7.211219
v 15.719289 67.336963 -7.211341
v 15.740000 67.352854 -7.211435
v 15.764118 67.362844 -7.211494
v 15.790000 67.367451 -7.159746
v 15.690000 67.301441 -7.554195
v 15.703397 67.353080 -7.556350
v 15.719289 67.373299 -7.551860
v 15.740000 67.388813 -7.548415
v 15.764118 67.398565 -7.546250
v 15.790000 67.396498 -7.520187
v 21.383274 67.510959 -7.863204
v 15.790000 67.396498 -7.520187
v 15.790000 67.510959 -7.863204
v 21.383274 67.704185 -8.168860
v 21.383274 67.396497 -7.520188
v 15.790000 67.367451 -7.159746
v 21.383274 67.367451 -7.159746
v 15.790000 67.425507 -6.802827
v 21.383275 67.425507 -6.802827
v 15.790000 67.567293 -6.470173
v 21.383274 67.567293 -6.470173
v 15.790000 67.784568 -6.181117
v 21.383274 67.784568 -6.181117
v 15.790000 68.064705 -5.952458
v 21.383274 68.064705 -5.952458
v 15.790000 68.391424 -5.797484
v 21.383274 68.391424 -5.797484
v 15.790000 68.745736 -5.725203
v 21.383275 68.745736 -5.725203
v 15.790000 69.107051 -5.739814
v 21.383275 69.107051 -5.739814
v 15.790000 69.454370 -5.840470
v 21.383274 69.454370 -5.840469
v 15.790000 69.767508 -6.021319
v 21.383274 69.767508 -6.021319
v 15.790000 70.028266 -6.271851
v 21.383275 70.028266 -6.271851
v 15.790000 70.221492 -6.577508
v 21.383275 70.221492 -6.577508
v 15.790000 70.335954 -6.920524
v 15.790000 70.221492 -6.577508
v 21.383275 70.335954 -6.920524
v 15.790000 70.365000 -7.280966
v 21.383274 70.365000 -7.280966
v 15.790000 70.306944 -7.637885
v 21.383274 70.306944 -7.637885
v 15.790000 70.165158 -7.970539
v 21.383275 70.165158 -7.970539
v 15.790000 69.947883 -8.259595
v 21.383275 69.947883 -8.259595
v 15.790000 69.667746 -8.488254
v 21.383274 69.667746 -8.488254
v 15.790000 69.341027 -8.643227
v 21.383274 69.341027 -8.643227
v 15.790000 68.986715 -8.715509
v 21.383274 68.986715 -8.715509
v 15.790000 68.625400 -8.700897
v 21.383274 68.625400 -8.700897
v 15.790000 68.278081 -8.600242
v 21.383275 68.278081 -8.600242
v 15.790000 67.964943 -8.419393
v 21.383274 67.964943 -8.419393
v 15.790000 67.704185 -8.168860
v 15.690000 66.118244 -7.976066
v 15.690000 66.291220 -8.441767
v 15.690000 67.420608 -7.906060
v 21.690000 67.692466 -7.435284
v 21.383274 67.367451 -7.159746
v 21.383274 67.396497 -7.520188
v 21.690000 67.788089 -7.731752
v 21.690000 67.676833 -7.124170
v 21.383275 67.425507 -6.802827
v 21.690000 67.742256 -6.819610
v 21.383274 67.567293 -6.470173
v 21.690000 67.884275 -6.542360
v 21.383274 67.784568 -6.181117
v 21.690000 68.093212 -6.311315
v 21.383274 68.064705 -5.952458
v 21.690000 68.354829 -6.142219
v 21.383274 68.391424 -5.797484
v 21.690000 68.651297 -6.046597
v 21.383275 68.745736 -5.725203
v 21.690000 68.962412 -6.030964
v 21.383275 69.107051 -5.739814
v 21.690000 69.266971 -6.096386
v 21.383274 69.454370 -5.840469
v 21.690000 69.544221 -6.238405
v 21.383274 69.767508 -6.021319
v 21.690000 69.775267 -6.447343
v 21.383275 70.028266 -6.271851
v 21.690000 69.944362 -6.708959
v 21.383275 70.335954 -6.920524
v 21.383275 70.221492 -6.577508
v 21.690000 70.039985 -7.005427
v 21.383274 70.365000 -7.280966
v 21.690000 70.055617 -7.316542
v 21.383274 70.306944 -7.637885
v 21.690000 69.990195 -7.621102
v 21.383275 70.165158 -7.970539
v 21.690000 69.848176 -7.898352
v 21.383275 69.947883 -8.259595
v 21.690000 69.639239 -8.129397
v 21.383274 69.667746 -8.488254
v 21.690000 69.377622 -8.298493
v 21.383274 69.341027 -8.643227
v 21.690000 69.081154 -8.394115
v 21.383274 68.986715 -8.715509
v 21.690000 68.770039 -8.409748
v 21.383274 68.625400 -8.700897
v 21.690000 68.465480 -8.344325
v 21.383275 68.278081 -8.600242
v 21.690000 68.188230 -8.202306
v 21.383274 67.964943 -8.419393
v 21.690000 67.957184 -7.993369
v 21.383274 67.704185 -8.168860
v 14.040000 67.438678 -7.897489
v 14.083274 67.309938 -8.325393
v 14.083274 67.141694 -8.038359
v 14.083274 67.025849 -7.726470
v 14.040000 67.633316 -8.208452
v 14.040000 68.207914 -8.656680
v 14.040000 68.556898 -8.769780
v 14.083274 68.384345 -9.067225
v 14.040000 68.922558 -8.799351
v 14.083274 68.712371 -9.122845
v 14.040000 69.285181 -8.743798
v 14.083274 69.045072 -9.120659
v 14.040000 70.166414 -8.118081
v 14.040000 70.338397 -7.794039
v 14.083274 70.601359 -8.015621
v 14.040000 70.431014 -7.439069
v 14.083274 70.713095 -7.702237
v 14.040000 70.439274 -7.072309
v 14.083274 70.768715 -7.374210
v 14.040000 69.976087 -6.095809
v 14.040000 69.686833 -5.870169
v 14.083274 69.950712 -5.649679
v 14.040000 69.353339 -5.717319
v 14.083274 69.661491 -5.485222
v 14.040000 68.993584 -5.645497
v 14.083274 69.348106 -5.373486
v 14.040000 67.951488 -5.932080
v 14.040000 67.679048 -6.177758
v 14.083274 67.507730 -5.879600
v 14.040000 67.470609 -6.479643
v 14.083274 67.295549 -6.135870
v 14.040000 67.337408 -6.821461
v 14.083274 67.131092 -6.425090
v 15.310000 66.118244 -7.976066
v 14.981300 66.071848 -7.483348
v 14.981300 66.159970 -7.964591
v 15.310000 66.028764 -7.487403
v 14.981300 66.068633 -6.994115
v 15.310000 66.025500 -6.990626
v 14.981300 66.150421 -6.511755
v 15.310000 66.108549 -6.500829
v 14.981299 66.314727 -6.050926
v 15.310000 66.275388 -6.032895
v 14.981300 66.556560 -5.625629
v 15.310000 66.520949 -5.601041
v 14.981299 66.868570 -5.248787
v 15.310000 66.837770 -5.218389
v 14.981299 67.241279 -4.931851
v 15.310000 67.216225 -4.896566
v 14.981300 67.663360 -4.684449
v 15.310000 67.644814 -4.645350
v 14.981300 68.121990 -4.514100
v 15.310000 68.110515 -4.472375
v 14.981300 68.603233 -4.425978
v 15.310000 68.599178 -4.382895
v 14.981300 69.092467 -4.422763
v 15.310000 69.095955 -4.379630
v 14.981300 69.574826 -4.504551
v 15.310000 69.585752 -4.462679
v 14.981299 70.035656 -4.668858
v 15.310000 70.053686 -4.629519
v 14.981300 70.460953 -4.910690
v 15.310000 70.485540 -4.875080
v 14.981300 70.837794 -5.222701
v 15.310000 70.868192 -5.191901
v 14.981300 71.154731 -5.595409
v 15.310000 71.190015 -5.570356
v 14.981299 71.402132 -6.017490
v 15.310000 71.441231 -5.998945
v 14.981300 71.572482 -6.476120
v 15.310000 71.614207 -6.464646
v 14.981300 71.660603 -6.957363
v 15.310000 71.703687 -6.953308
v 14.981300 71.663818 -7.446597
v 15.310000 71.706952 -7.450085
v 14.981299 71.582030 -7.928957
v 15.310000 71.623902 -7.939882
v 14.981300 71.417723 -8.389786
v 15.310000 71.457063 -8.407816
v 14.981300 71.175891 -8.815083
v 15.310000 71.211502 -8.839670
v 14.981300 70.863881 -9.191925
v 15.310000 70.894680 -9.222322
v 14.981300 70.491172 -9.508861
v 15.310000 70.516226 -9.544145
v 14.981300 70.069091 -9.756263
v 15.310000 70.087637 -9.795361
v 15.310000 69.621936 -9.968337
v 14.981299 69.610461 -9.926612
v 15.310000 69.133273 -10.057817
v 14.981299 69.129218 -10.014733
v 15.310000 68.636496 -10.061082
v 14.981300 68.639984 -10.017948
v 15.310000 68.146699 -9.978033
v 14.981299 68.157624 -9.936160
v 15.310000 67.678765 -9.811193
v 14.981300 67.696795 -9.771854
v 15.310000 67.246911 -9.565632
v 14.981300 67.271498 -9.530021
v 15.310000 66.864259 -9.248811
v 14.981300 66.894657 -9.218011
v 15.310000 66.542436 -8.870356
v 14.981300 66.577720 -8.845303
v 15.310000 66.291220 -8.441767
v 14.981300 66.330319 -8.423221
v 14.083274 67.525470 -8.578852
v 14.210148 67.060193 -8.502725
v 14.411974 66.845731 -8.655003
v 14.210148 66.864949 -8.169628
v 14.675000 66.681168 -8.771850
v 14.411974 66.627303 -8.282352
v 14.675000 66.444950 -8.368848
v 14.040000 67.894420 -8.466146
v 14.083274 67.781739 -8.791033
v 14.210148 67.310311 -8.796857
v 14.411974 67.125550 -8.984062
v 14.675000 66.983778 -9.127710
v 14.083274 68.070960 -8.955490
v 14.210148 67.607706 -9.043088
v 14.411974 67.458260 -9.259533
v 14.675000 67.343586 -9.425617
v 14.210148 68.687681 -9.428148
v 14.210147 68.307015 -9.363603
v 14.411974 68.666480 -9.690318
v 14.411974 68.240610 -9.618108
v 14.210148 67.943339 -9.233936
v 14.675000 68.189656 -9.813397
v 14.411974 67.833749 -9.473044
v 14.675000 67.749657 -9.656518
v 14.210147 69.073773 -9.425611
v 14.411974 69.098419 -9.687479
v 14.675000 69.117330 -9.888418
v 14.675000 68.650211 -9.891488
v 14.083274 69.372339 -9.060732
v 14.210148 69.453558 -9.356068
v 14.411974 69.523303 -9.609678
v 14.675000 69.576819 -9.804280
v 14.981300 70.069091 -9.756263
v 14.675000 70.014717 -9.641631
v 14.411974 69.928221 -9.459278
v 14.210147 69.815498 -9.221632
v 14.083274 69.684228 -8.944887
v 14.083274 69.971263 -8.776643
v 14.040000 69.625218 -8.606116
v 14.040000 69.924337 -8.393727
v 14.083274 70.224721 -8.561112
v 14.210148 70.442726 -8.776270
v 14.210147 70.148594 -9.026389
v 14.411974 70.629932 -8.961031
v 14.411974 70.300872 -9.240851
v 14.675000 70.773580 -9.102803
v 14.675000 70.417719 -9.405413
v 14.083274 70.436902 -8.304842
v 14.210148 70.688958 -8.478876
v 14.411974 70.905402 -8.628322
v 14.675000 71.071486 -8.742996
v 14.210148 71.009472 -7.779567
v 14.210148 70.879806 -8.143242
v 14.411974 71.263978 -7.845971
v 14.675000 71.302387 -8.336924
v 14.411974 71.118913 -8.252832
v 14.675000 71.459266 -7.896926
v 14.210147 71.074018 -7.398900
v 14.411974 71.336188 -7.420102
v 14.675000 71.537357 -7.436370
v 14.083274 70.766528 -7.041509
v 14.210147 71.071480 -7.012808
v 14.411974 71.333349 -6.988163
v 14.675000 71.534288 -6.969251
v 14.083274 70.706602 -6.714242
v 14.040000 70.362730 -6.713529
v 14.083274 70.590756 -6.402353
v 14.210147 70.867502 -6.271084
v 14.210147 71.001937 -6.633023
v 14.411974 71.105148 -6.158360
v 14.411974 71.255548 -6.563279
v 14.675000 71.287501 -6.071864
v 14.675000 71.450150 -6.509762
v 14.040000 70.205509 -6.382073
v 14.083274 70.422512 -6.115319
v 14.210147 70.672258 -5.937987
v 14.411974 70.886720 -5.785709
v 14.675000 71.051283 -5.668862
v 14.083274 70.206981 -5.861860
v 14.210147 70.422140 -5.643855
v 14.411974 70.606901 -5.456649
v 14.675000 70.748673 -5.313001
v 14.210148 69.789112 -5.206776
v 14.210147 70.124745 -5.397624
v 14.411974 69.898702 -4.967668
v 14.675000 70.388865 -5.015095
v 14.411974 70.274192 -5.181179
v 14.675000 69.982793 -4.784194
v 14.210148 69.425436 -5.077109
v 14.411974 69.491841 -4.822604
v 14.675000 69.542795 -4.627315
v 14.083274 69.020080 -5.317867
v 14.210148 69.044770 -5.012564
v 14.411974 69.065971 -4.750394
v 14.675000 69.082240 -4.549224
v 14.083274 68.687379 -5.320053
v 14.040000 68.626964 -5.658577
v 14.083274 68.360112 -5.379980
v 14.210147 68.278893 -5.084644
v 14.210148 68.658678 -5.015101
v 14.411974 68.209148 -4.831034
v 14.411974 68.634032 -4.753233
v 14.675000 68.155632 -4.636432
v 14.675000 68.615121 -4.552294
v 14.040000 68.273242 -5.755852
v 14.083274 68.048223 -5.495825
v 14.210147 67.916953 -5.219080
v 14.411974 67.804230 -4.981433
v 14.675000 67.717734 -4.799081
v 14.083274 67.761188 -5.664069
v 14.210148 67.583857 -5.414323
v 14.411974 67.431579 -5.199861
v 14.675000 67.314732 -5.035299
v 14.210148 67.043493 -5.961836
v 14.210147 67.289724 -5.664442
v 14.411974 66.827049 -5.812390
v 14.675000 66.958871 -5.337909
v 14.411974 67.102519 -5.479681
v 14.675000 66.660965 -5.697716
v 14.210147 66.852645 -6.297470
v 14.411974 66.613538 -6.187879
v 14.675000 66.430064 -6.103788
v 14.083274 67.019356 -6.738475
v 14.210148 66.722978 -6.661145
v 14.411974 66.468474 -6.594740
v 14.675000 66.273185 -6.543786
v 14.083274 66.963736 -7.066502
v 14.040000 67.286626 -7.184782
v 14.083274 66.965923 -7.399203
v 14.210148 66.660971 -7.427903
v 14.210148 66.658433 -7.041812
v 14.411974 66.399102 -7.452549
v 14.411974 66.396264 -7.020610
v 14.675000 66.198164 -7.471460
v 14.675000 66.195094 -7.004341
v 14.040000 67.321000 -7.550022
v 14.210148 66.730514 -7.807689
v 14.411974 66.476903 -7.877433
v 14.675000 66.282301 -7.930950
v 14.040000 67.715282 -7.127279
v 14.040000 67.438678 -7.897489
v 14.040000 67.321000 -7.550022
v 14.040000 67.286626 -7.184782
v 14.040000 67.679048 -6.177758
v 14.039999 68.371361 -6.177072
v 14.040000 67.337408 -6.821461
v 14.040000 67.470609 -6.479643
v 14.040000 68.210147 -8.170563
v 14.040000 68.922558 -8.799351
v 14.040000 68.556898 -8.769780
v 14.040000 68.207914 -8.656680
v 14.040000 67.894420 -8.466146
v 14.040000 67.633316 -8.208452
v 14.039999 69.361090 -8.263640
v 14.040000 70.166414 -8.118081
v 14.040000 69.924337 -8.393727
v 14.040000 69.625218 -8.606116
v 14.040000 69.285181 -8.743798
v 14.040000 70.017169 -7.313433
v 14.040000 70.362730 -6.713529
v 14.040000 70.439274 -7.072309
v 14.040000 70.431014 -7.439069
v 14.040000 70.338397 -7.794039
v 14.040000 69.522304 -6.270148
v 14.040000 68.993584 -5.645497
v 14.040000 69.353339 -5.717319
v 14.040000 69.686833 -5.870169
v 14.040000 69.976087 -6.095809
v 14.040000 70.205509 -6.382073
v 14.040000 67.951488 -5.932080
v 14.040000 68.273242 -5.755852
v 14.040000 68.626964 -5.658577
v 15.080000 69.522304 -6.270148
v 15.148211 69.218791 -6.245603
v 14.040000 69.522304 -6.270148
v 15.080000 70.017169 -7.313433
v 15.148211 69.886669 -7.038310
v 14.040000 70.017169 -7.313433
v 15.690000 69.290484 -8.763082
v 15.719289 69.521626 -8.602085
v 15.740000 69.514815 -8.587727
v 15.764118 69.510534 -8.578701
v 15.790000 69.667746 -8.488254
v 21.383275 70.221492 -6.577508
v 15.690000 66.542436 -8.870356
v 15.690000 67.617709 -8.220959
v 15.690000 66.864259 -9.248811
v 15.690000 67.882119 -8.481916
v 15.690000 67.246911 -9.565632
v 15.690000 68.199581 -8.674861
v 15.690000 67.678765 -9.811193
v 15.690000 68.146699 -9.978033
v 15.690000 68.552982 -8.789393
v 15.690000 68.636496 -10.061082
v 15.690000 68.923271 -8.819339
v 15.690000 69.133273 -10.057817
v 15.690000 69.290484 -8.763082
v 15.690000 69.621936 -9.968337
v 15.690000 70.087637 -9.795361
v 15.690000 69.634825 -8.623657
v 15.690000 70.516226 -9.544145
v 15.690000 69.937731 -8.408580
v 15.690000 70.894680 -9.222322
v 15.690000 70.182872 -8.129445
v 15.690000 71.211502 -8.839670
v 15.690000 71.457063 -8.407816
v 15.690000 70.357032 -7.801301
v 15.690000 71.623902 -7.939882
v 15.690000 70.450822 -7.441838
v 15.690000 71.706952 -7.450085
v 15.690000 70.459186 -7.070434
v 15.690000 71.703687 -6.953308
v 15.690000 71.614207 -6.464646
v 15.690000 70.381673 -6.707114
v 15.690000 71.441231 -5.998944
v 15.690000 70.222463 -6.371462
v 15.690000 71.190015 -5.570355
v 15.690000 69.990137 -6.081574
v 15.690000 70.868192 -5.191901
v 15.690000 70.485540 -4.875080
v 15.690000 69.697220 -5.853078
v 15.690000 70.053686 -4.629519
v 15.690000 69.359505 -5.698293
v 15.690000 69.585752 -4.462679
v 15.690000 68.995196 -5.625562
v 15.690000 69.095955 -4.379630
v 15.690000 68.599178 -4.382895
v 15.690000 68.623935 -5.638807
v 15.690000 68.110515 -4.472375
v 15.690000 68.265736 -5.737314
v 15.690000 67.644814 -4.645350
v 15.690000 67.939909 -5.915772
v 15.690000 67.216225 -4.896566
v 15.690000 66.837770 -5.218389
v 15.690000 67.664021 -6.164561
v 15.690000 66.520949 -5.601041
v 15.690000 67.452943 -6.470267
v 15.690000 66.275388 -6.032895
v 15.690000 67.318056 -6.816411
v 15.690000 66.108549 -6.500829
v 15.690000 66.025500 -6.990626
v 15.690000 67.266631 -7.184332
v 15.690000 66.028764 -7.487403
v 15.690000 67.301441 -7.554195
v 21.383274 67.510959 -7.863204
v 21.690000 67.788089 -7.731752
v 21.383274 67.510959 -7.863204
v 21.690000 67.788089 -7.731752
v 21.690000 67.957184 -7.993369
v 21.690000 67.692466 -7.435284
v 21.690000 67.676833 -7.124170
v 21.690000 68.188230 -8.202306
v 21.690000 67.742256 -6.819610
v 21.690000 68.465480 -8.344325
v 21.690000 67.884275 -6.542360
v 21.690000 68.770039 -8.409748
v 21.690000 68.093212 -6.311315
v 21.690000 69.081154 -8.394115
v 21.690000 68.354829 -6.142219
v 21.690000 69.377622 -8.298493
v 21.690000 68.651297 -6.046597
v 21.690000 69.639239 -8.129397
v 21.690000 68.962412 -6.030964
v 21.690000 69.848176 -7.898352
v 21.690000 69.266971 -6.096386
v 21.690000 69.990195 -7.621102
v 21.690000 69.544221 -6.238405
v 21.690000 70.055617 -7.316542
v 21.690000 69.775267 -6.447343
v 21.690000 70.039985 -7.005427
v 21.690000 69.944362 -6.708959
v 15.310000 70.087637 -9.795361
v 14.675000 70.014717 -9.641631
v 14.411974 69.928221 -9.459278
v 14.210147 69.815498 -9.221632
v 14.083274 69.684228 -8.944887
v 14.040000 69.285181 -8.743798
v 15.690000 66.118244 -7.976066
v 15.310000 66.118244 -7.976066
v 15.690000 66.291220 -8.441767
v 15.310000 66.028764 -7.487403
v 15.310000 66.291220 -8.441767
v 15.690000 66.542436 -8.870356
v 15.310000 66.542436 -8.870356
v 15.690000 66.864259 -9.248811
v 15.310000 66.864259 -9.248811
v 15.690000 67.246911 -9.565632
v 15.310000 67.246911 -9.565632
v 15.690000 67.678765 -9.811193
v 15.310000 67.678765 -9.811193
v 15.690000 68.146699 -9.978033
v 15.310000 68.146699 -9.978033
v 15.690000 68.636496 -10.061082
v 15.310000 68.636496 -10.061082
v 15.690000 69.133273 -10.057817
v 15.310000 69.133273 -10.057817
v 15.690000 69.621936 -9.968337
v 15.310000 69.621936 -9.968337
v 15.690000 70.087637 -9.795361
v 15.310000 70.087637 -9.795361
v 15.690000 70.516226 -9.544145
v 15.310000 70.516226 -9.544145
v 15.690000 70.894680 -9.222322
v 15.310000 70.894680 -9.222322
v 15.690000 71.211502 -8.839670
v 15.310000 71.211502 -8.839670
v 15.690000 71.457063 -8.407816
v 15.310000 71.457063 -8.407816
v 15.690000 71.623902 -7.939882
v 15.310000 71.623902 -7.939882
v 15.690000 71.706952 -7.450085
v 15.310000 71.706952 -7.450085
v 15.690000 71.703687 -6.953308
v 15.310000 71.703687 -6.953308
v 15.690000 71.614207 -6.464646
v 15.310000 71.614207 -6.464646
v 15.690000 71.441231 -5.998944
v 15.310000 71.441231 -5.998945
v 15.690000 71.441231 -5.998944
v 15.310000 71.441231 -5.998945
v 15.690000 71.190015 -5.570355
v 15.310000 71.190015 -5.570356
v 15.690000 70.868192 -5.191901
v 15.310000 70.868192 -5.191901
v 15.690000 70.485540 -4.875080
v 15.310000 70.485540 -4.875080
v 15.690000 70.053686 -4.629519
v 15.310000 70.053686 -4.629519
v 15.690000 69.585752 -4.462679
v 15.310000 69.585752 -4.462679
v 15.690000 69.095955 -4.379630
v 15.310000 69.095955 -4.379630
v 15.690000 68.599178 -4.382895
v 15.310000 68.599178 -4.382895
v 15.690000 68.110515 -4.472375
v 15.310000 68.110515 -4.472375
v 15.690000 67.644814 -4.645350
v 15.310000 67.644814 -4.645350
v 15.690000 67.216225 -4.896566
v 15.310000 67.216225 -4.896566
v 15.690000 66.837770 -5.218389
v 15.310000 66.837770 -5.218389
v 15.690000 66.520949 -5.601041
v 15.310000 66.520949 -5.601041
v 15.690000 66.275388 -6.032895
v 15.310000 66.275388 -6.032895
v 15.690000 66.108549 -6.500829
v 15.310000 66.108549 -6.500829
v 15.690000 66.025500 -6.990626
v 15.310000 66.025500 -6.990626
v 15.690000 66.028764 -7.487403
v 15.169316 68.946832 -6.223610
v 14.039999 68.371361 -6.177072
v 15.148212 68.674874 -6.201617
v 15.080000 68.371361 -6.177072
v 15.080000 68.371361 -6.177072
v 15.148211 68.198348 -6.427649
v 14.039999 68.371361 -6.177072
v 15.169316 68.043322 -6.652175
v 14.040000 67.715282 -7.127279
v 15.148211 67.888295 -6.876702
v 15.080000 67.715282 -7.127279
v 15.080000 67.715282 -7.127279
v 15.148212 67.845782 -7.402401
v 14.040000 67.715282 -7.127279
v 15.169316 67.962715 -7.648921
v 14.040000 68.210147 -8.170563
v 15.148212 68.079647 -7.895441
v 15.080000 68.210147 -8.170563
v 15.080000 68.210147 -8.170563
v 15.148211 68.513660 -8.195109
v 14.040000 68.210147 -8.170563
v 15.169316 68.785619 -8.217102
v 14.039999 69.361090 -8.263640
v 15.148211 69.057577 -8.239095
v 15.080000 69.361090 -8.263640
v 15.169316 69.769736 -6.791790
v 14.040000 69.522304 -6.270148
v 15.148211 69.652804 -6.545271
v 15.080000 69.522304 -6.270148
v 15.080000 69.361090 -8.263640
v 15.148212 69.534103 -8.013063
v 14.039999 69.361090 -8.263640
v 15.169316 69.689129 -7.788536
v 14.040000 70.017169 -7.313433
v 15.148211 69.844156 -7.564010
v 15.080000 70.017169 -7.313433
v 15.148211 69.057577 -8.239095
v 15.746666 68.866225 -7.220356
v 15.080000 69.361090 -8.263640
v 15.169316 68.785619 -8.217102
v 15.746666 68.866225 -7.220356
v 15.148212 69.534103 -8.013063
v 15.080000 68.210147 -8.170563
v 15.746666 68.866225 -7.220356
v 15.148211 68.513660 -8.195109
v 15.148212 68.079647 -7.895441
v 15.746666 68.866225 -7.220356
v 15.746666 68.866225 -7.220356
v 15.169316 67.962715 -7.648921
v 15.080000 67.715282 -7.127279
v 15.746666 68.866225 -7.220356
v 15.148212 67.845782 -7.402401
v 15.148211 67.888295 -6.876702
v 15.746666 68.866225 -7.220356
v 15.746666 68.866225 -7.220356
v 15.169316 68.043322 -6.652175
v 15.080000 68.371361 -6.177072
v 15.746666 68.866225 -7.220356
v 15.148211 68.198348 -6.427649
v 15.148212 68.674874 -6.201617
v 15.746666 68.866225 -7.220356
v 15.746666 68.866225 -7.220356
v 15.169316 68.946832 -6.223610
v 15.080000 69.522304 -6.270148
v 15.746666 68.866225 -7.220356
v 15.148211 69.218791 -6.245603
v 15.148211 69.652804 -6.545271
v 15.746666 68.866225 -7.220356
v 15.746666 68.866225 -7.220356
v 15.169316 69.769736 -6.791790
v 15.080000 70.017169 -7.313433
v 15.746666 68.866225 -7.220356
v 15.148211 69.886669 -7.038310
v 15.148211 69.844156 -7.564010
v 15.746666 68.866225 -7.220356
v 15.746666 68.866225 -7.220356
v 15.169316 69.769736 -6.791790
v 15.169316 69.689129 -7.788536
v 15.746666 68.866225 -7.220356
f 1 2 3
f 1 3 4
f 1 5 2
f 1 4 190
f 2 5 35
f 2 36 3
f 2 35 45
f 2 45 36
f 3 36 38
f 3 38 4
f 4 184 190
f 4 38 191
f 4 191 184
f 5 43 35
f 6 7 8
f 6 8 106
f 6 112 119
f 6 106 112
f 7 9 10
f 7 10 8
f 8 99 100
f 8 10 99
f 8 100 106
f 9 11 12
f 9 12 10
f 10 94 99
f 10 12 94
f 11 13 14
f 11 14 12
f 12 88 94
f 12 14 88
f 13 15 16
f 13 16 14
f 14 82 88
f 14 16 82
f 15 17 18
f 15 18 16
f 16 74 82
f 16 18 74
f 17 77 18
f 18 76 74
f 18 77 76
f 19 20 21
f 19 21 587
f 19 587 588
f 20 22 23
f 20 23 21
f 21 61 65
f 21 23 61
f 21 65 587
f 22 24 25
f 22 25 23
f 23 57 61
f 23 25 57
f 24 26 27
f 24 27 25
f 25 52 57
f 25 27 52
f 26 28 29
f 26 29 27
f 27 47 52
f 27 29 47
f 28 30 31
f 28 31 29
f 29 39 47
f 29 31 39
f 30 42 31
f 30 194 42
f 30 195 194
f 31 41 39
f 31 42 41
f 32 33 34
f 32 34 62
f 33 585 63
f 33 63 34
f 34 54 58
f 34 58 62
f 34 63 54
f 35 43 44
f 35 44 50
f 35 50 45
f 36 37 38
f 36 45 46
f 36 46 37
f 37 39 40
f 37 40 38
f 37 46 47
f 37 47 39
f 38 40 191
f 39 41 40
f 40 192 191
f 40 41 192
f 41 193 192
f 41 42 193
f 42 194 193
f 43 48 44
f 44 48 49
f 44 49 55
f 44 55 50
f 45 50 51
f 45 51 46
f 46 51 52
f 46 52 47
f 48 53 49
f 49 53 54
f 49 54 59
f 49 59 55
f 50 55 56
f 50 56 51
f 51 56 57
f 51 57 52
f 53 58 54
f 54 63 59
f 55 59 60
f 55 60 56
f 56 60 61
f 56 61 57
f 59 63 64
f 59 64 60
f 60 64 65
f 60 65 61
f 63 585 64
f 64 585 586
f 64 586 65
f 65 586 587
f 66 67 68
f 66 68 69
f 66 70 71
f 66 69 80
f 66 80 70
f 66 71 67
f 67 71 584
f 68 78 69
f 69 78 79
f 69 79 85
f 69 85 80
f 70 72 73
f 70 73 71
f 70 80 81
f 70 81 72
f 72 74 75
f 72 75 73
f 72 81 82
f 72 82 74
f 74 76 75
f 78 83 79
f 79 83 84
f 79 84 86
f 79 86 85
f 80 85 87
f 80 87 81
f 81 87 88
f 81 88 82
f 83 89 84
f 84 89 90
f 84 90 91
f 84 91 86
f 85 86 92
f 85 92 87
f 86 91 93
f 86 93 92
f 87 92 94
f 87 94 88
f 89 95 90
f 90 95 96
f 90 96 97
f 90 97 91
f 91 97 98
f 91 98 93
f 92 93 99
f 92 99 94
f 93 98 100
f 93 100 99
f 95 101 96
f 96 101 102
f 96 102 103
f 96 103 97
f 97 103 104
f 97 104 98
f 98 104 105
f 98 105 100
f 100 105 106
f 101 107 102
f 102 107 108
f 102 108 109
f 102 109 103
f 103 109 110
f 103 110 104
f 104 110 111
f 104 111 105
f 105 111 112
f 105 112 106
f 107 113 108
f 108 113 114
f 108 114 115
f 108 115 109
f 109 115 116
f 109 116 110
f 110 116 117
f 110 117 111
f 111 117 118
f 111 118 112
f 112 118 119
f 113 120 114
f 114 120 121
f 114 121 122
f 114 122 115
f 115 122 123
f 115 123 116
f 116 123 124
f 116 124 117
f 117 124 125
f 117 125 118
f 118 126 119
f 118 125 126
f 120 127 121
f 121 127 128
f 121 128 129
f 121 129 122
f 122 129 130
f 122 130 123
f 123 130 131
f 123 131 124
f 124 131 132
f 124 132 125
f 125 133 126
f 125 132 133
f 127 134 128
f 128 134 135
f 128 135 136
f 128 136 129
f 129 136 137
f 129 137 130
f 130 137 138
f 130 138 131
f 131 138 139
f 131 139 132
f 132 140 133
f 132 139 140
f 134 141 135
f 135 141 142
f 135 142 143
f 135 143 136
f 136 143 144
f 136 144 137
f 137 144 145
f 137 145 138
f 138 145 146
f 138 146 139
f 139 147 140
f 139 146 147
f 141 148 142
f 142 148 149
f 142 149 150
f 142 150 143
f 143 150 151
f 143 151 144
f 144 151 152
f 144 152 145
f 145 152 153
f 145 153 146
f 146 154 147
f 146 153 154
f 148 155 149
f 149 155 156
f 149 156 157
f 149 157 150
f 150 157 158
f 150 158 151
f 151 158 159
f 151 159 152
f 152 159 160
f 152 160 153
f 153 161 154
f 153 160 161
f 155 162 156
f 156 162 163
f 156 163 164
f 156 164 157
f 157 164 165
f 157 165 158
f 158 165 166
f 158 166 159
f 159 166 167
f 159 167 160
f 160 168 161
f 160 167 168
f 162 169 163
f 163 169 170
f 163 170 171
f 163 171 164
f 164 171 172
f 164 172 165
f 165 172 173
f 165 173 166
f 166 173 174
f 166 174 167
f 167 175 168
f 167 174 175
f 169 176 170
f 170 176 177
f 170 177 178
f 170 178 171
f 171 178 179
f 171 179 172
f 172 179 180
f 172 180 173
f 173 180 181
f 173 181 174
f 174 182 175
f 174 181 182
f 176 183 177
f 177 183 184
f 177 184 185
f 177 185 178
f 178 185 186
f 178 186 179
f 179 186 187
f 179 187 180
f 180 187 188
f 180 188 181
f 181 189 182
f 181 188 189
f 183 190 184
f 184 191 185
f 185 191 192
f 185 192 186
f 186 192 193
f 186 193 187
f 187 193 194
f 187 194 188
f 188 195 189
f 188 194 195
f 196 197 198
f 196 198 199
f 196 200 197
f 197 200 201
f 198 248 199
f 199 248 247
f 200 202 201
f 201 202 203
f 202 204 203
f 203 204 205
f 204 206 205
f 205 206 207
f 206 208 207
f 207 208 209
f 208 210 209
f 209 210 211
f 210 212 211
f 211 212 213
f 212 214 213
f 213 214 215
f 214 216 215
f 215 216 217
f 216 218 217
f 217 218 219
f 218 220 219
f 219 220 221
f 220 222 221
f 221 222 223
f 222 589 223
f 224 225 226
f 224 227 225
f 225 227 228
f 227 229 228
f 228 229 230
f 229 231 230
f 230 231 232
f 231 233 232
f 232 233 234
f 233 235 234
f 234 235 236
f 235 237 236
f 236 237 238
f 237 239 238
f 238 239 240
f 239 241 240
f 240 241 242
f 241 243 242
f 242 243 244
f 243 245 244
f 244 245 246
f 245 247 246
f 246 247 248
f 249 250 251
f 249 649 648
f 249 251 649
f 250 590 251
f 251 590 591
f 252 253 254
f 252 254 255
f 252 256 253
f 253 256 257
f 254 650 255
f 256 258 257
f 257 258 259
f 258 260 259
f 259 260 261
f 260 262 261
f 261 262 263
f 262 264 263
f 263 264 265
f 264 266 265
f 265 266 267
f 266 268 267
f 267 268 269
f 268 270 269
f 269 270 271
f 270 272 271
f 271 272 273
f 272 274 273
f 273 274 275
f 274 276 275
f 275 276 278
f 276 277 278
f 276 279 277
f 277 279 280
f 279 281 280
f 280 281 282
f 281 283 282
f 282 283 284
f 283 285 284
f 284 285 286
f 285 287 286
f 286 287 288
f 287 289 288
f 288 289 290
f 289 291 290
f 290 291 292
f 291 293 292
f 292 293 294
f 293 295 294
f 294 295 296
f 295 297 296
f 296 297 298
f 297 299 298
f 298 299 300
f 299 651 300
f 300 651 652
f 301 302 303
f 301 303 304
f 301 305 302
f 301 304 541
f 302 305 406
f 302 407 303
f 302 406 415
f 302 415 407
f 303 407 409
f 303 409 304
f 304 534 541
f 304 409 542
f 304 542 534
f 305 413 406
f 306 307 308
f 306 414 413
f 306 418 414
f 306 308 418
f 307 309 310
f 307 310 308
f 308 310 422
f 308 422 423
f 308 423 418
f 309 311 312
f 309 312 310
f 310 312 430
f 310 430 422
f 311 434 312
f 311 442 434
f 312 434 435
f 312 435 430
f 313 314 315
f 313 446 445
f 313 453 446
f 313 315 453
f 314 316 317
f 314 317 315
f 315 317 457
f 315 457 458
f 315 458 453
f 316 318 319
f 316 319 317
f 317 319 463
f 317 463 457
f 318 466 319
f 318 471 470
f 318 470 466
f 319 466 467
f 319 467 463
f 320 321 322
f 320 480 479
f 320 484 480
f 320 322 484
f 321 323 324
f 321 324 322
f 322 324 488
f 322 488 489
f 322 489 484
f 323 325 326
f 323 326 324
f 324 326 494
f 324 494 488
f 325 497 326
f 325 502 501
f 325 501 497
f 326 497 498
f 326 498 494
f 327 328 329
f 327 511 510
f 327 515 511
f 327 329 515
f 328 330 331
f 328 331 329
f 329 331 519
f 329 519 520
f 329 520 515
f 330 332 333
f 330 333 331
f 331 333 525
f 331 525 519
f 332 528 333
f 332 533 532
f 332 532 528
f 333 528 529
f 333 529 525
f 334 335 336
f 334 337 335
f 334 336 404
f 335 337 338
f 335 540 539
f 335 338 540
f 335 539 336
f 336 539 544
f 336 544 405
f 336 405 404
f 337 339 338
f 338 339 340
f 338 340 531
f 338 531 540
f 339 341 340
f 340 341 342
f 340 527 531
f 340 342 527
f 341 343 342
f 342 343 344
f 342 344 524
f 342 524 527
f 343 345 344
f 344 345 346
f 344 522 524
f 344 346 522
f 345 347 346
f 346 347 348
f 346 348 518
f 346 518 522
f 347 349 348
f 348 349 350
f 348 514 518
f 348 350 514
f 349 351 350
f 350 351 352
f 350 508 514
f 350 352 508
f 351 353 352
f 352 353 354
f 352 509 508
f 352 354 509
f 353 355 354
f 354 355 356
f 354 356 500
f 354 500 509
f 355 357 356
f 356 357 358
f 356 496 500
f 356 358 496
f 357 359 358
f 358 359 360
f 358 360 493
f 358 493 496
f 359 361 360
f 360 361 362
f 360 491 493
f 360 362 491
f 361 363 362
f 362 363 364
f 362 364 487
f 362 487 491
f 363 365 364
f 364 365 366
f 364 483 487
f 364 366 483
f 365 367 366
f 366 367 368
f 366 477 483
f 366 368 477
f 367 369 368
f 368 369 370
f 368 478 477
f 368 370 478
f 369 371 370
f 370 371 372
f 370 372 469
f 370 469 478
f 371 373 372
f 372 373 374
f 372 465 469
f 372 374 465
f 373 375 374
f 374 375 376
f 374 376 462
f 374 462 465
f 375 377 376
f 376 377 378
f 376 460 462
f 376 378 460
f 377 379 378
f 378 379 380
f 378 380 456
f 378 456 460
f 379 381 380
f 380 381 382
f 380 451 456
f 380 382 451
f 381 383 382
f 382 383 384
f 382 452 451
f 382 384 452
f 383 385 384
f 384 385 386
f 384 386 678
f 384 678 452
f 385 677 386
f 387 388 389
f 387 389 438
f 388 390 391
f 388 391 389
f 389 432 437
f 389 437 438
f 389 391 432
f 390 392 393
f 390 393 391
f 391 433 432
f 391 393 433
f 392 394 395
f 392 395 393
f 393 427 433
f 393 395 427
f 394 396 397
f 394 397 395
f 395 429 427
f 395 397 429
f 396 398 399
f 396 399 397
f 397 399 421
f 397 421 429
f 398 400 401
f 398 401 399
f 399 417 421
f 399 401 417
f 400 402 403
f 400 403 401
f 401 410 417
f 401 403 410
f 402 404 405
f 402 405 403
f 403 412 410
f 403 405 412
f 405 544 412
f 406 413 414
f 406 414 419
f 406 419 415
f 407 408 409
f 407 415 416
f 407 416 408
f 408 410 411
f 408 411 409
f 408 416 417
f 408 417 410
f 409 411 542
f 410 412 411
f 411 543 542
f 411 412 543
f 412 544 543
f 414 426 419
f 414 418 426
f 415 419 420
f 415 420 416
f 416 420 421
f 416 421 417
f 418 423 426
f 419 428 420
f 419 426 428
f 420 429 421
f 420 428 429
f 422 424 423
f 422 430 431
f 422 431 424
f 423 425 426
f 423 424 425
f 424 431 432
f 424 433 425
f 424 432 433
f 425 427 428
f 425 428 426
f 425 433 427
f 427 429 428
f 430 435 436
f 430 436 431
f 431 436 437
f 431 437 432
f 434 441 435
f 434 442 441
f 435 440 436
f 435 441 440
f 436 439 437
f 436 440 439
f 437 439 438
f 443 444 445
f 443 445 446
f 443 446 447
f 443 447 448
f 443 681 444
f 443 448 681
f 444 681 682
f 446 453 454
f 446 454 447
f 447 449 448
f 447 454 455
f 447 455 449
f 448 449 450
f 448 680 681
f 448 450 680
f 449 451 450
f 449 455 456
f 449 456 451
f 450 451 452
f 450 679 680
f 450 452 679
f 452 678 679
f 453 458 454
f 454 461 455
f 454 458 461
f 455 460 456
f 455 461 460
f 457 459 458
f 457 463 464
f 457 464 459
f 458 459 461
f 459 464 465
f 459 462 461
f 459 465 462
f 460 461 462
f 463 467 468
f 463 468 464
f 464 468 469
f 464 469 465
f 466 474 467
f 466 470 474
f 467 476 468
f 467 474 476
f 468 478 469
f 468 476 478
f 470 471 472
f 470 472 473
f 470 473 474
f 471 479 472
f 472 479 480
f 472 480 481
f 472 481 473
f 473 475 474
f 473 481 482
f 473 482 475
f 474 475 476
f 475 477 476
f 475 482 483
f 475 483 477
f 476 477 478
f 480 484 485
f 480 485 481
f 481 485 486
f 481 486 482
f 482 486 487
f 482 487 483
f 484 489 485
f 485 492 486
f 485 489 492
f 486 491 487
f 486 492 491
f 488 490 489
f 488 494 495
f 488 495 490
f 489 490 492
f 490 495 496
f 490 493 492
f 490 496 493
f 491 492 493
f 494 498 499
f 494 499 495
f 495 499 500
f 495 500 496
f 497 505 498
f 497 501 505
f 498 507 499
f 498 505 507
f 499 509 500
f 499 507 509
f 501 502 503
f 501 503 504
f 501 504 505
f 502 510 503
f 503 510 511
f 503 511 512
f 503 512 504
f 504 506 505
f 504 512 513
f 504 513 506
f 505 506 507
f 506 508 507
f 506 513 514
f 506 514 508
f 507 508 509
f 511 515 516
f 511 516 512
f 512 516 517
f 512 517 513
f 513 517 518
f 513 518 514
f 515 520 516
f 516 523 517
f 516 520 523
f 517 522 518
f 517 523 522
f 519 521 520
f 519 525 526
f 519 526 521
f 520 521 523
f 521 526 527
f 521 524 523
f 521 527 524
f 522 523 524
f 525 529 530
f 525 530 526
f 526 530 531
f 526 531 527
f 528 536 529
f 528 532 536
f 529 538 530
f 529 536 538
f 530 540 531
f 530 538 540
f 532 533 534
f 532 534 535
f 532 535 536
f 533 541 534
f 534 542 535
f 535 537 536
f 535 542 543
f 535 543 537
f 536 537 538
f 537 539 538
f 537 543 544
f 537 544 539
f 538 539 540
f 545 546 547
f 545 547 548
f 545 549 550
f 545 551 552
f 545 552 549
f 545 553 546
f 545 548 551
f 546 553 558
f 549 575 550
f 550 570 569
f 550 575 576
f 550 577 570
f 550 576 577
f 553 554 555
f 553 555 556
f 553 557 558
f 553 559 554
f 553 556 557
f 554 559 563
f 559 560 561
f 559 561 562
f 559 564 560
f 559 562 563
f 560 564 568
f 564 565 566
f 564 566 567
f 564 569 565
f 564 567 568
f 565 569 574
f 569 570 571
f 569 571 572
f 569 573 574
f 569 572 573
f 578 579 580
f 579 757 580
f 580 757 758
f 581 582 583
f 582 782 583
f 583 782 783
f 590 592 591
f 591 592 593
f 592 594 593
f 593 594 595
f 594 596 595
f 595 596 597
f 595 597 598
f 597 599 598
f 598 599 600
f 599 601 600
f 600 601 602
f 601 603 602
f 602 603 604
f 602 604 605
f 604 606 605
f 605 606 607
f 606 608 607
f 607 608 609
f 608 610 609
f 609 610 611
f 609 611 612
f 611 613 612
f 612 613 614
f 613 615 614
f 614 615 616
f 615 617 616
f 616 617 618
f 616 618 619
f 618 620 619
f 619 620 621
f 620 622 621
f 621 622 623
f 622 624 623
f 623 624 625
f 623 625 626
f 625 627 626
f 626 627 628
f 627 629 628
f 628 629 630
f 629 631 630
f 630 631 632
f 630 632 633
f 632 634 633
f 633 634 635
f 634 636 635
f 635 636 637
f 636 638 637
f 637 638 639
f 637 639 640
f 639 641 640
f 640 641 642
f 641 643 642
f 642 643 644
f 643 645 644
f 644 645 646
f 644 646 647
f 646 648 647
f 647 648 649
f 653 654 655
f 654 656 655
f 654 657 656
f 656 657 658
f 657 659 658
f 658 659 660
f 659 661 660
f 660 661 662
f 661 663 662
f 662 663 664
f 663 665 664
f 664 665 666
f 665 667 666
f 666 667 668
f 667 669 668
f 668 669 670
f 669 671 670
f 670 671 672
f 671 673 672
f 672 673 674
f 673 675 674
f 674 675 676
f 683 684 685
f 683 686 684
f 683 756 686
f 684 687 685
f 685 687 688
f 686 756 755
f 687 689 688
f 688 689 690
f 689 691 690
f 690 691 692
f 691 693 692
f 692 693 694
f 693 695 694
f 694 695 696
f 695 697 696
f 696 697 698
f 697 699 698
f 698 699 700
f 699 701 700
f 700 701 702
f 701 703 702
f 702 703 704
f 703 705 704
f 704 705 706
f 705 707 706
f 706 707 708
f 707 709 708
f 708 709 710
f 709 711 710
f 710 711 712
f 711 713 712
f 712 713 714
f 713 715 714
f 714 715 716
f 715 717 716
f 716 717 718
f 717 719 718
f 718 719 720
f 719 721 720
f 720 721 722
f 721 723 722
f 724 725 726
f 725 727 726
f 726 727 728
f 727 729 728
f 728 729 730
f 729 731 730
f 730 731 732
f 731 733 732
f 732 733 734
f 733 735 734
f 734 735 736
f 735 737 736
f 736 737 738
f 737 739 738
f 738 739 740
f 739 741 740
f 740 741 742
f 741 743 742
f 742 743 744
f 743 745 744
f 744 745 746
f 745 747 746
f 746 747 748
f 747 749 748
f 748 749 750
f 749 751 750
f 750 751 752
f 751 753 752
f 752 753 754
f 753 755 754
f 754 755 756
f 757 759 758
f 758 759 760
f 761 762 763
f 762 764 763
f 763 764 765
f 764 766 765
f 765 766 767
f 768 769 770
f 769 771 770
f 770 771 772
f 771 773 772
f 772 773 774
f 775 776 777
f 776 778 777
f 777 778 779
f 778 780 779
f 779 780 781
f 782 784 783
f 783 784 785
f 786 787 788
f 787 789 788
f 788 789 790
f 789 791 790
f 790 791 792
f 793 794 795
f 793 796 794
f 795 797 798
f 796 801 804
f 798 835 834
f 799 800 801
f 799 802 803
f 802 805 803
f 805 808 811
f 806 807 808
f 806 809 810
f 809 812 810
f 812 815 818
f 813 814 815
f 813 816 817
f 816 819 817
f 819 822 825
f 820 821 822
f 820 823 824
f 823 826 824
f 827 828 829
f 827 830 831
f 829 832 833
f 830 834 831