# Forged Hexagon Socket Button Head Cap Screw - Metric M3 x 0.5 x 6
# Autodesk dbId: 34
# Units: mm
o 034_Forged_Hexagon_Socket_Button_Head_Cap_Screw_-_Metric_M3_x_0.5_x_6
v -5.610000 47.646395 -9.370430
v -5.613407 47.350197 -9.568494
v -5.613407 47.628306 -9.351918
v -5.613407 47.851250 -9.078888
v -5.610000 47.352344 -9.597463
v -5.710000 45.479838 -7.153218
v -5.710000 45.253553 -7.435275
v -5.684118 45.264528 -7.411546
v -5.710000 45.101343 -7.763291
v -5.684118 45.114963 -7.713155
v -5.710000 45.032056 -8.118201
v -5.684118 45.036263 -8.040483
v -5.710000 45.049717 -8.479379
v -5.684118 45.032373 -8.377117
v -5.710000 45.153301 -8.825835
v -5.684118 45.103489 -8.706177
v -5.710000 45.336787 -9.137435
v -5.684118 45.246044 -9.011161
v -5.710000 45.589513 -9.396070
v -5.710000 45.896790 -9.586707
v -5.684118 45.713656 -9.489706
v -5.710000 46.240760 -9.698269
v -5.684118 46.015265 -9.639271
v -5.710000 46.601434 -9.724272
v -5.684118 46.342593 -9.717972
v -5.710000 46.957850 -9.663204
v -5.684118 46.679227 -9.721861
v -5.710000 47.289295 -9.518614
v -5.684118 47.008287 -9.650746
v -5.710000 47.576506 -9.298907
v -5.684118 47.313271 -9.508190
v -5.613407 45.402316 -9.326196
v -5.623397 45.419566 -9.309340
v -5.613407 45.675347 -9.549140
v -5.613407 47.030868 -9.717754
v -5.623397 47.337602 -9.547925
v -5.639289 47.326787 -9.530263
v -5.623397 47.611450 -9.334668
v -5.660000 47.318488 -9.516710
v -5.639289 47.596976 -9.319855
v -5.660000 47.585869 -9.308489
v -5.684118 47.578887 -9.301344
v -5.610000 47.013861 -9.750564
v -5.613407 46.686332 -9.792214
v -5.623397 47.023166 -9.694899
v -5.639289 47.016552 -9.675272
v -5.660000 47.011477 -9.660213
v -5.610000 46.649195 -9.821478
v -5.613407 46.333865 -9.788141
v -5.623398 46.683909 -9.768218
v -5.639289 46.681828 -9.747612
v -5.660000 46.680231 -9.731801
v -5.610000 46.278005 -9.806383
v -5.613407 45.991141 -9.705739
v -5.623397 46.336842 -9.764208
v -5.639289 46.339399 -9.743656
v -5.660000 46.341360 -9.727885
v -5.610000 45.920301 -9.706093
v -5.623397 45.999370 -9.683068
v -5.639289 46.006435 -9.663600
v -5.660000 46.011857 -9.648662
v -5.610000 45.595368 -9.526014
v -5.623397 45.688413 -9.528868
v -5.639289 45.699634 -9.511461
v -5.660000 45.708244 -9.498103
v -5.613407 45.185741 -9.048087
v -5.610000 45.320722 -9.275854
v -5.610000 45.111170 -8.969100
v -5.613407 45.036481 -8.728758
v -5.623397 45.206309 -9.035492
v -5.613407 45.402316 -9.326196
v -5.639289 45.223972 -9.024677
v -5.623397 45.419566 -9.309340
v -5.660000 45.237524 -9.016378
v -5.639289 45.434379 -9.294866
v -5.660000 45.445746 -9.283759
v -5.684118 45.452891 -9.276777
v -5.610000 44.978010 -8.622288
v -5.613407 44.962020 -8.384222
v -5.623398 45.059336 -8.721056
v -5.639289 45.078962 -8.714442
v -5.660000 45.094022 -8.709367
v -5.610000 44.928419 -8.254115
v -5.613407 44.966093 -8.031755
v -5.623397 44.986016 -8.381799
v -5.623397 44.990027 -8.034732
v -5.639289 45.006622 -8.379718
v -5.660000 45.022434 -8.378121
v -5.610000 44.965071 -7.884431
v -5.613407 45.048495 -7.689031
v -5.623398 45.071166 -7.697260
v -5.639289 45.010579 -8.037289
v -5.639289 45.090634 -7.704325
v -5.660000 45.026349 -8.039250
v -5.610000 45.085990 -7.533163
v -5.613407 45.205094 -7.373237
v -5.623398 45.225366 -7.386303
v -5.639289 45.242774 -7.397524
v -5.660000 45.105572 -7.709747
v -5.660000 45.256131 -7.406134
v -5.610000 45.284657 -7.219250
v -5.613408 45.428038 -7.100206
v -5.623398 45.444894 -7.117456
v -5.639289 45.459368 -7.132269
v -5.660000 45.470475 -7.143636
v -5.684118 45.477457 -7.150781
v -5.610000 45.550363 -6.959615
v -5.613407 45.706147 -6.883631
v -5.623398 45.718742 -6.904199
v -5.639289 45.729557 -6.921862
v -5.660000 45.737856 -6.935415
v -5.684118 45.743073 -6.943934
v -5.610000 45.868783 -6.768254
v -5.613407 46.025476 -6.734371
v -5.623398 46.033178 -6.757226
v -5.639289 46.039792 -6.776852
v -5.660000 46.044867 -6.791912
v -5.684118 46.048057 -6.801379
v -5.710000 45.767049 -6.933510
v -5.610000 46.222751 -6.655484
v -5.613407 46.370012 -6.659910
v -5.623397 46.372436 -6.683906
v -5.639289 46.374516 -6.704512
v -5.660000 46.376113 -6.720324
v -5.684118 46.377117 -6.730263
v -5.710000 46.098494 -6.788921
v -5.610000 46.593184 -6.627384
v -5.613408 46.722479 -6.663983
v -5.623397 46.719502 -6.687917
v -5.639289 46.716946 -6.708469
v -5.660000 46.714984 -6.724240
v -5.684118 46.713751 -6.734153
v -5.710000 46.454910 -6.727853
v -5.610000 46.960112 -6.685469
v -5.613407 47.065203 -6.746385
v -5.623398 47.056975 -6.769056
v -5.639289 47.049909 -6.788525
v -5.660000 47.044487 -6.803463
v -5.684118 47.041079 -6.812854
v -5.710000 46.815584 -6.753856
v -5.610000 47.303754 -6.826609
v -5.613408 47.380997 -6.902985
v -5.623397 47.367931 -6.923256
v -5.639289 47.356710 -6.940664
v -5.660000 47.348100 -6.954021
v -5.684118 47.342688 -6.962418
v -5.710000 47.159555 -6.865417
v -5.610000 47.605584 -7.043193
v -5.613407 47.654028 -7.125928
v -5.623397 47.636778 -7.142784
v -5.639289 47.621965 -7.157259
v -5.660000 47.610599 -7.168365
v -5.684118 47.603453 -7.175347
v -5.710000 47.466832 -7.056055
v -5.610000 47.849331 -7.323545
v -5.613408 47.870603 -7.404038
v -5.623397 47.850035 -7.416632
v -5.639289 47.832373 -7.427448
v -5.660000 47.818820 -7.435747
v -5.684118 47.810300 -7.440964
v -5.710000 47.719557 -7.314689
v -5.610000 48.021854 -7.652553
v -5.613407 48.019864 -7.723366
v -5.623397 47.997008 -7.731069
v -5.639289 47.977382 -7.737683
v -5.660000 47.962322 -7.742758
v -5.684118 47.952856 -7.745948
v -5.710000 47.903043 -7.626289
v -5.610000 48.113852 -8.012479
v -5.613408 48.094324 -8.067903
v -5.623397 48.070328 -8.070326
v -5.639289 48.049722 -8.072407
v -5.660000 48.033911 -8.074004
v -5.684118 48.023971 -8.075007
v -5.710000 48.006627 -7.972746
v -5.610000 48.120366 -8.383919
v -5.613407 48.090251 -8.420370
v -5.623398 48.066318 -8.417393
v -5.639289 48.045765 -8.414836
v -5.660000 48.029995 -8.412874
v -5.684118 48.020081 -8.411641
v -5.710000 48.024289 -8.333924
v -5.610000 48.041044 -8.746849
v -5.613407 48.007849 -8.763093
v -5.623397 47.985178 -8.754865
v -5.639289 47.965710 -8.747799
v -5.660000 47.950772 -8.742378
v -5.684118 47.941381 -8.738969
v -5.710000 47.955001 -8.688834
v -5.610000 47.880162 -9.081703
v -5.623397 47.830978 -9.065821
v -5.639289 47.813571 -9.054600
v -5.660000 47.800213 -9.045991
v -5.684118 47.791816 -9.040578
v -5.710000 47.802792 -9.016849
v -11.303273 47.576506 -9.298907
v -5.710000 47.802792 -9.016849
v -5.710000 47.576506 -9.298907
v -11.303273 47.289295 -9.518615
v -11.303273 47.802792 -9.016849
v -5.710000 47.955001 -8.688834
v -11.303273 47.955001 -8.688834
v -5.710000 48.024289 -8.333924
v -11.303273 48.024289 -8.333924
v -5.710000 48.006627 -7.972746
v -11.303273 48.006627 -7.972746
v -5.710000 47.903043 -7.626289
v -11.303273 47.903043 -7.626289
v -5.710000 47.719557 -7.314689
v -11.303273 47.719557 -7.314689
v -5.710000 47.466832 -7.056055
v -11.303273 47.466832 -7.056055
v -5.710000 47.159555 -6.865417
v -11.303273 47.159555 -6.865417
v -5.710000 46.815584 -6.753856
v -11.303273 46.815584 -6.753856
v -5.710000 46.454910 -6.727853
v -11.303273 46.454910 -6.727853
v -5.710000 46.098494 -6.788921
v -11.303273 46.098494 -6.788921
v -5.710000 45.767049 -6.933510
v -11.303273 45.767049 -6.933510
v -5.710000 45.479838 -7.153218
v -11.303273 45.479838 -7.153218
v -5.710000 45.253553 -7.435275
v -5.710000 45.479838 -7.153218
v -11.303273 45.253552 -7.435276
v -5.710000 45.101343 -7.763291
v -11.303273 45.101343 -7.763291
v -5.710000 45.032056 -8.118201
v -11.303273 45.032055 -8.118201
v -5.710000 45.049717 -8.479379
v -11.303273 45.049717 -8.479379
v -5.710000 45.153301 -8.825835
v -11.303273 45.153301 -8.825836
v -5.710000 45.336787 -9.137435
v -11.303273 45.336787 -9.137436
v -5.710000 45.589513 -9.396070
v -11.303273 45.589513 -9.396070
v -5.710000 45.896790 -9.586707
v -11.303273 45.896789 -9.586707
v -5.710000 46.240760 -9.698269
v -11.303273 46.240760 -9.698269
v -5.710000 46.601434 -9.724272
v -11.303273 46.601434 -9.724272
v -5.710000 46.957850 -9.663204
v -11.303273 46.957850 -9.663204
v -5.710000 47.289295 -9.518614
v -5.610000 48.843711 -9.887620
v -5.610000 48.520006 -10.264467
v -5.610000 47.646395 -9.370430
v -11.609998 47.554616 -8.834600
v -11.303273 47.955001 -8.688834
v -11.303273 47.802792 -9.016849
v -11.609998 47.362139 -9.079528
v -11.609998 47.677141 -8.548202
v -11.303273 48.024289 -8.333924
v -11.609998 47.721367 -8.239850
v -11.303273 48.006627 -7.972746
v -11.609998 47.684278 -7.930559
v -11.303273 47.903043 -7.626289
v -11.609999 47.568403 -7.641405
v -11.303273 47.719557 -7.314689
v -11.609998 47.381638 -7.392096
v -11.303273 47.466832 -7.056055
v -11.609998 47.136710 -7.199619
v -11.303273 47.159555 -6.865417
v -11.609999 46.850311 -7.077093
v -11.303273 46.815584 -6.753856
v -11.609998 46.541960 -7.032867
v -11.303273 46.454910 -6.727853
v -11.609998 46.232668 -7.069956
v -11.303273 46.098494 -6.788921
v -11.609998 45.943515 -7.185831
v -11.303273 45.767049 -6.933510
v -11.609998 45.694205 -7.372597
v -11.303273 45.253552 -7.435276
v -11.303273 45.479838 -7.153218
v -11.609998 45.501729 -7.617524
v -11.303273 45.101343 -7.763291
v -11.609998 45.379203 -7.903923
v -11.303273 45.032055 -8.118201
v -11.609998 45.334977 -8.212275
v -11.303273 45.049717 -8.479379
v -11.609998 45.372066 -8.521566
v -11.303273 45.153301 -8.825836
v -11.609998 45.487941 -8.810719
v -11.303273 45.336787 -9.137436
v -11.609998 45.674707 -9.060029
v -11.303273 45.589513 -9.396070
v -11.609999 45.919634 -9.252506
v -11.303273 45.896789 -9.586707
v -11.609998 46.206033 -9.375032
v -11.303273 46.240760 -9.698269
v -11.609998 46.514384 -9.419257
v -11.303273 46.601434 -9.724272
v -11.609998 46.823676 -9.382169
v -11.303273 46.957850 -9.663204
v -11.609998 47.112829 -9.266293
v -11.303273 47.289295 -9.518615
v -3.960001 47.632417 -9.356125
v -4.003275 47.604819 -9.802123
v -4.003275 47.862142 -9.591221
v -4.003275 48.078934 -9.338840
v -3.960001 47.342042 -9.580321
v -3.960000 46.647683 -9.801536
v -3.960000 46.281132 -9.786629
v -4.003275 46.339859 -10.125450
v -3.960000 45.927900 -9.687593
v -4.003275 46.012895 -10.063893
v -3.960000 45.607028 -9.509764
v -4.003275 45.701587 -9.946496
v -3.960000 44.997387 -8.617335
v -3.960001 44.948415 -8.253765
v -4.003275 44.624940 -8.370435
v -3.960000 44.984609 -7.888701
v -4.003275 44.628785 -8.037749
v -3.960000 45.104017 -7.541825
v -4.003275 44.690341 -7.710785
v -3.960000 45.877026 -6.786477
v -3.960001 46.226569 -6.675116
v -4.003275 46.055500 -6.376815
v -3.960001 46.592371 -6.647368
v -4.003275 46.383799 -6.322831
v -3.960000 46.954713 -6.704727
v -4.003275 46.716485 -6.326675
v -3.960000 47.832817 -7.334827
v -3.960000 48.003183 -7.659722
v -4.003275 48.267246 -7.439453
v -3.960000 48.094031 -8.015149
v -4.003275 48.377419 -7.753390
v -3.960000 48.100463 -8.381946
v -4.003275 48.431404 -8.081689
v -5.230000 48.843711 -9.887621
v -4.901300 49.058054 -9.441548
v -4.901300 48.808552 -9.862391
v -5.230000 49.097060 -9.460289
v -4.901300 49.230686 -8.983773
v -5.230000 49.272353 -8.995455
v -4.901300 49.321204 -8.502975
v -5.230000 49.364267 -8.507244
v -4.901300 49.326857 -8.013764
v -5.230000 49.370007 -8.010490
v -4.901300 49.247473 -7.531002
v -5.230000 49.289399 -7.520286
v -4.901300 49.085465 -7.069360
v -5.230000 49.124893 -7.051526
v -4.901300 48.845754 -6.642864
v -5.230000 48.881487 -6.618454
v -4.901300 48.535625 -6.264472
v -5.230000 48.566576 -6.234228
v -4.901300 48.164501 -5.945683
v -5.230000 48.189730 -5.910524
v -4.901300 47.743658 -5.696181
v -5.230000 47.762398 -5.657175
v -4.901300 47.285882 -5.523549
v -5.230000 47.297565 -5.481881
v -4.901300 46.805085 -5.433031
v -5.230000 46.809354 -5.389968
v -4.901300 46.315873 -5.427378
v -5.230000 46.312600 -5.384228
v -4.901300 45.833112 -5.506762
v -5.230000 45.822395 -5.464835
v -4.901300 45.371469 -5.668770
v -5.230000 45.353635 -5.629341
v -4.901300 44.944973 -5.908480
v -5.230000 44.920564 -5.872748
v -4.901300 44.566582 -6.218609
v -5.230000 44.536338 -6.187658
v -4.901300 44.247792 -6.589733
v -5.230000 44.212633 -6.564504
v -4.901300 43.998290 -7.010576
v -5.230000 43.959285 -6.991836
v -4.901300 43.825658 -7.468352
v -5.230000 43.783991 -7.456669
v -4.901300 43.735141 -7.949150
v -5.230000 43.692077 -7.944880
v -4.901300 43.729488 -8.438361
v -5.230000 43.686337 -8.441634
v -4.901300 43.808871 -8.921123
v -5.230000 43.766945 -8.931839
v -4.901300 43.970879 -9.382765
v -5.230000 43.931451 -9.400599
v -4.901300 44.210590 -9.809261
v -5.230000 44.174858 -9.833671
v -4.901300 44.520719 -10.187652
v -5.230000 44.489768 -10.217896
v -5.230000 44.866614 -10.541601
v -4.901300 44.891843 -10.506442
v -5.230000 45.293946 -10.794949
v -4.901300 45.312686 -10.755944
v -5.230000 45.758779 -10.970243
v -4.901300 45.770462 -10.928576
v -5.230000 46.246990 -11.062157
v -4.901300 46.251260 -11.019094
v -5.230000 46.743745 -11.067897
v -4.901300 46.740472 -11.024747
v -5.230000 47.233949 -10.987289
v -4.901300 47.223233 -10.945363
v -5.230000 47.702709 -10.822783
v -4.901300 47.684875 -10.783355
v -5.230000 48.135781 -10.579377
v -4.901300 48.111371 -10.543644
v -5.230000 48.520006 -10.264467
v -4.901300 48.489762 -10.233516
v -4.003275 47.314782 -9.965137
v -4.130148 47.777594 -10.055042
v -4.331975 47.925960 -10.272229
v -4.130148 48.076212 -9.810296
v -4.595000 48.039805 -10.438882
v -4.331975 48.260037 -9.998420
v -4.595000 48.401092 -10.142772
v -3.960001 47.007790 -9.731508
v -4.003275 47.000845 -10.075310
v -4.130148 47.441014 -10.244216
v -4.331975 47.549411 -10.483866
v -4.595001 47.632588 -10.667757
v -4.003275 46.672545 -10.129294
v -4.130148 47.076697 -10.372069
v -4.331975 47.141833 -10.626901
v -4.595000 47.191814 -10.822441
v -4.130148 45.930205 -10.358821
v -4.130148 46.309640 -10.430255
v -4.331975 45.859198 -10.612080
v -4.331975 46.283689 -10.691997
v -4.130148 46.695714 -10.434716
v -4.595000 46.263777 -10.892839
v -4.331975 46.715609 -10.696988
v -4.595000 46.730875 -10.898237
v -4.130148 45.568940 -10.222583
v -4.331975 45.455034 -10.459665
v -4.595000 45.367630 -10.641584
v -4.595000 45.804713 -10.806413
v -4.003275 45.415395 -9.776823
v -4.130148 45.236821 -10.025683
v -4.331975 45.083476 -10.239383
v -4.595000 44.965811 -10.403361
v -4.901300 44.520719 -10.187652
v -4.595000 44.611463 -10.098982
v -4.331975 44.755815 -9.957927
v -4.130148 44.943939 -9.774102
v -4.003275 45.163013 -9.560032
v -4.003275 44.952112 -9.302709
v -3.960001 45.335815 -9.262732
v -3.960001 45.128883 -8.959812
v -4.003275 44.789098 -9.012672
v -4.130148 44.510019 -9.138904
v -4.130148 44.699192 -9.475484
v -4.331975 44.270368 -9.247301
v -4.331975 44.482006 -9.623850
v -4.595000 44.086478 -9.330478
v -4.595000 44.315352 -9.737695
v -4.003275 44.678925 -8.698734
v -4.130148 44.382166 -8.774587
v -4.331975 44.127333 -8.839723
v -4.595000 43.931793 -8.889703
v -4.130148 44.323979 -8.007529
v -4.130148 44.319518 -8.393604
v -4.331975 44.062237 -7.981579
v -4.595000 43.855998 -8.428765
v -4.331975 44.057246 -8.413499
v -4.595000 43.861395 -7.961667
v -4.130148 44.395414 -7.628095
v -4.331975 44.142154 -7.557088
v -4.595000 43.947821 -7.502603
v -4.003275 44.807739 -7.399477
v -4.130148 44.531651 -7.266830
v -4.331975 44.294569 -7.152924
v -4.595000 44.112650 -7.065520
v -4.003275 44.977411 -7.113285
v -3.960000 45.300201 -7.231836
v -4.003275 45.194202 -6.860903
v -4.130148 44.980133 -6.641829
v -4.130148 44.728551 -6.934711
v -4.331975 44.796307 -6.453705
v -4.331975 44.514851 -6.781366
v -4.595000 44.655252 -6.309353
v -4.595000 44.350873 -6.663701
v -3.960000 45.562586 -6.975446
v -4.003275 45.451525 -6.650002
v -4.130148 45.278750 -6.397083
v -4.331975 45.130384 -6.179896
v -4.595000 45.016539 -6.013243
v -4.003275 45.741562 -6.486988
v -4.130148 45.615330 -6.207909
v -4.331975 45.506933 -5.968258
v -4.595000 45.423756 -5.784368
v -4.130148 46.360631 -6.017409
v -4.130148 45.979647 -6.080056
v -4.331975 46.340735 -5.755136
v -4.595000 45.864531 -5.629683
v -4.331975 45.914511 -5.825223
v -4.595000 46.325470 -5.553888
v -4.130148 46.746705 -6.021870
v -4.331975 46.772655 -5.760127
v -4.595000 46.792567 -5.559285
v -4.003275 47.043449 -6.388231
v -4.130148 47.126139 -6.093304
v -4.331975 47.197146 -5.840044
v -4.595000 47.251631 -5.645712
v -4.003275 47.354757 -6.505629
v -3.960001 47.294059 -6.844102
v -4.003275 47.640950 -6.675301
v -4.130148 47.819523 -6.426442
v -4.130148 47.487404 -6.229541
v -4.331975 47.972868 -6.212742
v -4.331975 47.601310 -5.992460
v -4.595000 48.090533 -6.048763
v -4.595000 47.688714 -5.810540
v -3.960001 47.592117 -7.057978
v -4.003275 47.893331 -6.892093
v -4.130148 48.112406 -6.678023
v -4.331975 48.300529 -6.494197
v -4.595000 48.444882 -6.353143
v -4.003275 48.104233 -7.149416
v -4.130148 48.357152 -6.976640
v -4.331975 48.574338 -6.828275
v -4.595000 48.740992 -6.714430
v -4.130148 48.674178 -7.677538
v -4.130148 48.546325 -7.313221
v -4.331975 48.929011 -7.612402
v -4.595000 48.969866 -7.121647
v -4.331975 48.785976 -7.204823
v -4.595000 49.124551 -7.562421
v -4.130148 48.736826 -8.058521
v -4.331975 48.999098 -8.038626
v -4.595000 49.200347 -8.023360
v -4.003275 48.427560 -8.414376
v -4.130148 48.732365 -8.444595
v -4.331975 48.994107 -8.470545
v -4.595000 49.194949 -8.490458
v -4.003275 48.366003 -8.741340
v -3.960001 48.022133 -8.740339
v -4.003275 48.248606 -9.052648
v -4.130148 48.524693 -9.185294
v -4.130148 48.660930 -8.824029
v -4.331975 48.761775 -9.299201
v -4.331975 48.914190 -8.895036
v -4.595001 48.943694 -9.386604
v -4.595000 49.108523 -8.949522
v -3.960001 47.863263 -9.071008
v -4.130148 48.327793 -9.517414
v -4.331975 48.541493 -9.670758
v -4.595000 48.705471 -9.788424
v -3.960000 47.639999 -8.537788
v -3.960001 47.632417 -9.356125
v -3.960001 47.863263 -9.071008
v -3.960001 48.022133 -8.740339
v -3.960000 48.003183 -7.659722
v -3.960000 47.354048 -7.419055
v -3.960000 48.100463 -8.381946
v -3.960000 48.094031 -8.015149
v -3.960000 46.814123 -9.344796
v -3.960000 45.927900 -9.687593
v -3.960000 46.281132 -9.786629
v -3.960000 46.647683 -9.801536
v -3.960001 47.007790 -9.731508
v -3.960001 47.342042 -9.580321
v -3.960000 45.702296 -9.033070
v -3.960000 44.997387 -8.617335
v -3.960001 45.128883 -8.959812
v -3.960001 45.335815 -9.262732
v -3.960000 45.607028 -9.509764
v -3.960001 45.416345 -7.914337
v -3.960000 45.300201 -7.231836
v -3.960000 45.104017 -7.541825
v -3.960000 44.984609 -7.888701
v -3.960001 44.948415 -8.253765
v -3.960001 46.242221 -7.107329
v -3.960000 46.954713 -6.704727
v -3.960001 46.592371 -6.647368
v -3.960001 46.226569 -6.675116
v -3.960000 45.877026 -6.786477
v -3.960000 45.562586 -6.975446
v -3.960000 47.832817 -7.334827
v -3.960001 47.592117 -7.057978
v -3.960001 47.294059 -6.844102
v -5.000000 46.242221 -7.107329
v -5.068212 46.535418 -7.189533
v -3.960001 46.242221 -7.107329
v -5.000000 45.416345 -7.914337
v -5.068212 45.634135 -7.701522
v -3.960001 45.416345 -7.914337
v -5.610000 45.595368 -9.526014
v -5.639289 45.434379 -9.294866
v -5.660000 45.445746 -9.283759
v -5.684118 45.452891 -9.276777
v -5.710000 45.336787 -9.137435
v -11.303273 45.479838 -7.153218
v -5.610000 48.135781 -10.579377
v -5.610000 47.352344 -9.597463
v -5.610000 47.702709 -10.822783
v -5.610000 47.013861 -9.750564
v -5.610000 47.233949 -10.987289
v -5.610000 46.649195 -9.821478
v -5.610000 46.743745 -11.067897
v -5.610000 46.246990 -11.062157
v -5.610000 46.278005 -9.806383
v -5.610000 45.758779 -10.970243
v -5.610000 45.920301 -9.706093
v -5.610000 45.293946 -10.794949
v -5.610000 45.595368 -9.526014
v -5.610000 44.866614 -10.541601
v -5.610000 44.489768 -10.217896
v -5.610000 45.320722 -9.275854
v -5.610000 44.174857 -9.833671
v -5.610000 45.111170 -8.969100
v -5.610000 43.931451 -9.400599
v -5.610000 44.978010 -8.622288
v -5.610000 43.766945 -8.931839
v -5.610000 43.686337 -8.441634
v -5.610000 44.928419 -8.254115
v -5.610000 43.692077 -7.944880
v -5.610000 44.965071 -7.884431
v -5.610000 43.783991 -7.456669
v -5.610000 45.085990 -7.533163
v -5.610000 43.959285 -6.991836
v -5.610000 44.212633 -6.564504
v -5.610000 45.284657 -7.219250
v -5.610000 44.536338 -6.187658
v -5.610000 45.550363 -6.959615
v -5.610000 44.920563 -5.872748
v -5.610000 45.868783 -6.768254
v -5.610000 45.353635 -5.629341
v -5.610000 45.822395 -5.464835
v -5.610000 46.222751 -6.655484
v -5.610000 46.312600 -5.384228
v -5.610000 46.593184 -6.627384
v -5.610000 46.809354 -5.389968
v -5.610000 46.960112 -6.685469
v -5.610000 47.297565 -5.481881
v -5.610000 47.762398 -5.657175
v -5.610000 47.303754 -6.826609
v -5.610000 48.189730 -5.910524
v -5.610000 47.605584 -7.043193
v -5.610000 48.566576 -6.234228
v -5.610000 47.849331 -7.323545
v -5.610000 48.881487 -6.618454
v -5.610000 49.124893 -7.051526
v -5.610000 48.021854 -7.652553
v -5.610000 49.289399 -7.520286
v -5.610000 48.113852 -8.012479
v -5.610000 49.370007 -8.010490
v -5.610000 48.120366 -8.383919
v -5.610000 49.364267 -8.507245
v -5.610000 49.272353 -8.995456
v -5.610000 48.041044 -8.746849
v -5.610000 49.097059 -9.460289
v -5.610000 47.880162 -9.081703
v -11.303273 47.576506 -9.298907
v -11.609998 47.362139 -9.079528
v -11.303273 47.576506 -9.298907
v -11.609998 47.362139 -9.079528
v -11.609998 47.112829 -9.266293
v -11.609998 47.554616 -8.834600
v -11.609998 47.677141 -8.548202
v -11.609998 46.823676 -9.382169
v -11.609998 47.721367 -8.239850
v -11.609998 46.514384 -9.419257
v -11.609998 47.684278 -7.930559
v -11.609998 46.206033 -9.375032
v -11.609999 47.568403 -7.641405
v -11.609999 45.919634 -9.252506
v -11.609998 47.381638 -7.392096
v -11.609998 45.674707 -9.060029
v -11.609998 47.136710 -7.199619
v -11.609998 45.487941 -8.810719
v -11.609999 46.850311 -7.077093
v -11.609998 45.372066 -8.521566
v -11.609998 46.541960 -7.032867
v -11.609998 45.334977 -8.212275
v -11.609998 46.232668 -7.069956
v -11.609998 45.379203 -7.903923
v -11.609998 45.943515 -7.185831
v -11.609998 45.501729 -7.617524
v -11.609998 45.694205 -7.372597
v -5.230000 44.489768 -10.217896
v -4.595000 44.611463 -10.098982
v -4.331975 44.755815 -9.957927
v -4.130148 44.943939 -9.774102
v -4.003275 45.163013 -9.560032
v -3.960000 45.607028 -9.509764
v -5.610000 48.843711 -9.887620
v -5.230000 48.843711 -9.887621
v -5.610000 48.520006 -10.264467
v -5.230000 49.097060 -9.460289
v -5.230000 48.520006 -10.264467
v -5.610000 48.135781 -10.579377
v -5.230000 48.135781 -10.579377
v -5.610000 47.702709 -10.822783
v -5.230000 47.702709 -10.822783
v -5.610000 47.233949 -10.987289
v -5.230000 47.233949 -10.987289
v -5.610000 46.743745 -11.067897
v -5.230000 46.743745 -11.067897
v -5.610000 46.246990 -11.062157
v -5.230000 46.246990 -11.062157
v -5.610000 45.758779 -10.970243
v -5.230000 45.758779 -10.970243
v -5.610000 45.293946 -10.794949
v -5.230000 45.293946 -10.794949
v -5.610000 44.866614 -10.541601
v -5.230000 44.866614 -10.541601
v -5.610000 44.489768 -10.217896
v -5.230000 44.489768 -10.217896
v -5.610000 44.174857 -9.833671
v -5.230000 44.174858 -9.833671
v -5.610000 43.931451 -9.400599
v -5.230000 43.931451 -9.400599
v -5.610000 43.766945 -8.931839
v -5.230000 43.766945 -8.931839
v -5.610000 43.686337 -8.441634
v -5.230000 43.686337 -8.441634
v -5.610000 43.692077 -7.944880
v -5.230000 43.692077 -7.944880
v -5.610000 43.783991 -7.456669
v -5.230000 43.783991 -7.456669
v -5.610000 43.959285 -6.991836
v -5.230000 43.959285 -6.991836
v -5.610000 44.212633 -6.564504
v -5.230000 44.212633 -6.564504
v -5.610000 44.536338 -6.187658
v -5.230000 44.536338 -6.187658
v -5.610000 44.536338 -6.187658
v -5.230000 44.536338 -6.187658
v -5.610000 44.920563 -5.872748
v -5.230000 44.920564 -5.872748
v -5.610000 45.353635 -5.629341
v -5.230000 45.353635 -5.629341
v -5.610000 45.822395 -5.464835
v -5.230000 45.822395 -5.464835
v -5.610000 46.312600 -5.384228
v -5.230000 46.312600 -5.384228
v -5.610000 46.809354 -5.389968
v -5.230000 46.809354 -5.389968
v -5.610000 47.297565 -5.481881
v -5.230000 47.297565 -5.481881
v -5.610000 47.762398 -5.657175
v -5.230000 47.762398 -5.657175
v -5.610000 48.189730 -5.910524
v -5.230000 48.189730 -5.910524
v -5.610000 48.566576 -6.234228
v -5.230000 48.566576 -6.234228
v -5.610000 48.881487 -6.618454
v -5.230000 48.881487 -6.618454
v -5.610000 49.124893 -7.051526
v -5.230000 49.124893 -7.051526
v -5.610000 49.289399 -7.520286
v -5.230000 49.289399 -7.520286
v -5.610000 49.370007 -8.010490
v -5.230000 49.370007 -8.010490
v -5.610000 49.364267 -8.507245
v -5.230000 49.364267 -8.507244
v -5.610000 49.272353 -8.995456
v -5.230000 49.272353 -8.995455
v -5.610000 49.097059 -9.460289
v -5.089317 46.798134 -7.263192
v -3.960000 47.354048 -7.419055
v -5.068212 47.060850 -7.336850
v -5.000000 47.354048 -7.419055
v -5.000000 47.354048 -7.419055
v -5.068212 47.429456 -7.714074
v -3.960000 47.354048 -7.419055
v -5.089316 47.497024 -7.978421
v -3.960000 47.639999 -8.537788
v -5.068212 47.564592 -8.242769
v -5.000000 47.639999 -8.537788
v -5.000000 47.639999 -8.537788
v -5.068212 47.422209 -8.750602
v -3.960000 47.639999 -8.537788
v -5.089317 47.227061 -8.941292
v -3.960000 46.814123 -9.344796
v -5.068212 47.031913 -9.131981
v -5.000000 46.814123 -9.344796
v -5.000000 46.814123 -9.344796
v -5.068212 46.520926 -9.262591
v -3.960000 46.814123 -9.344796
v -5.089316 46.258210 -9.188933
v -3.960000 45.702296 -9.033070
v -5.068212 45.995494 -9.115275
v -5.000000 45.702296 -9.033070
v -5.089317 45.829283 -7.510833
v -3.960001 46.242221 -7.107329
v -5.068212 46.024431 -7.320143
v -5.000000 46.242221 -7.107329
v -5.000000 45.702296 -9.033070
v -5.068212 45.626889 -8.738051
v -3.960000 45.702296 -9.033070
v -5.089317 45.559321 -8.473703
v -3.960001 45.416345 -7.914337
v -5.068212 45.491752 -8.209355
v -5.000000 45.416345 -7.914337
v -5.068212 45.995494 -9.115275
v -5.666667 46.528172 -8.226062
v -5.000000 45.702296 -9.033070
v -5.089316 46.258210 -9.188933
v -5.666667 46.528172 -8.226062
v -5.068212 45.626889 -8.738051
v -5.000000 46.814123 -9.344796
v -5.666667 46.528172 -8.226062
v -5.068212 46.520926 -9.262591
v -5.068212 47.031913 -9.131981
v -5.666667 46.528172 -8.226062
v -5.666667 46.528172 -8.226062
v -5.089317 47.227061 -8.941292
v -5.000000 47.639999 -8.537788
v -5.666667 46.528172 -8.226062
v -5.068212 47.422209 -8.750602
v -5.068212 47.564592 -8.242769
v -5.666667 46.528172 -8.226062
v -5.666667 46.528172 -8.226062
v -5.089316 47.497024 -7.978421
v -5.000000 47.354048 -7.419055
v -5.666667 46.528172 -8.226062
v -5.068212 47.429456 -7.714074
v -5.068212 47.060850 -7.336850
v -5.666667 46.528172 -8.226062
v -5.666667 46.528172 -8.226062
v -5.089317 46.798134 -7.263192
v -5.000000 46.242221 -7.107329
v -5.666667 46.528172 -8.226062
v -5.068212 46.535418 -7.189533
v -5.068212 46.024431 -7.320143
v -5.666667 46.528172 -8.226062
v -5.666667 46.528172 -8.226062
v -5.089317 45.829283 -7.510833
v -5.000000 45.416345 -7.914337
v -5.666667 46.528172 -8.226062
v -5.068212 45.634135 -7.701522
v -5.068212 45.491752 -8.209355
v -5.666667 46.528172 -8.226062
v -5.666667 46.528172 -8.226062
v -5.089317 45.829283 -7.510833
v -5.089317 45.559321 -8.473703
v -5.666667 46.528172 -8.226062
f 1 2 3
f 1 3 4
f 1 5 2
f 1 4 190
f 2 5 35
f 2 36 3
f 2 35 45
f 2 45 36
f 3 36 38
f 3 38 4
f 4 184 190
f 4 38 191
f 4 191 184
f 5 43 35
f 6 7 8
f 6 8 106
f 6 112 119
f 6 106 112
f 7 9 10
f 7 10 8
f 8 99 100
f 8 10 99
f 8 100 106
f 9 11 12
f 9 12 10
f 10 94 99
f 10 12 94
f 11 13 14
f 11 14 12
f 12 88 94
f 12 14 88
f 13 15 16
f 13 16 14
f 14 82 88
f 14 16 82
f 15 17 18
f 15 18 16
f 16 74 82
f 16 18 74
f 17 77 18
f 18 76 74
f 18 77 76
f 19 20 21
f 19 21 587
f 19 587 588
f 20 22 23
f 20 23 21
f 21 61 65
f 21 23 61
f 21 65 587
f 22 24 25
f 22 25 23
f 23 57 61
f 23 25 57
f 24 26 27
f 24 27 25
f 25 52 57
f 25 27 52
f 26 28 29
f 26 29 27
f 27 47 52
f 27 29 47
f 28 30 31
f 28 31 29
f 29 39 47
f 29 31 39
f 30 42 31
f 30 194 42
f 30 195 194
f 31 41 39
f 31 42 41
f 32 33 34
f 32 34 62
f 33 585 63
f 33 63 34
f 34 54 58
f 34 58 62
f 34 63 54
f 35 43 44
f 35 44 50
f 35 50 45
f 36 37 38
f 36 45 46
f 36 46 37
f 37 39 40
f 37 40 38
f 37 46 47
f 37 47 39
f 38 40 191
f 39 41 40
f 40 192 191
f 40 41 192
f 41 193 192
f 41 42 193
f 42 194 193
f 43 48 44
f 44 48 49
f 44 49 55
f 44 55 50
f 45 50 51
f 45 51 46
f 46 51 52
f 46 52 47
f 48 53 49
f 49 53 54
f 49 54 59
f 49 59 55
f 50 55 56
f 50 56 51
f 51 56 57
f 51 57 52
f 53 58 54
f 54 63 59
f 55 59 60
f 55 60 56
f 56 60 61
f 56 61 57
f 59 63 64
f 59 64 60
f 60 64 65
f 60 65 61
f 63 585 64
f 64 585 586
f 64 586 65
f 65 586 587
f 66 67 68
f 66 68 69
f 66 70 71
f 66 69 80
f 66 80 70
f 66 71 67
f 67 71 584
f 68 78 69
f 69 78 79
f 69 79 85
f 69 85 80
f 70 72 73
f 70 73 71
f 70 80 81
f 70 81 72
f 72 74 75
f 72 75 73
f 72 81 82
f 72 82 74
f 74 76 75
f 78 83 79
f 79 83 84
f 79 84 86
f 79 86 85
f 80 85 87
f 80 87 81
f 81 87 88
f 81 88 82
f 83 89 84
f 84 89 90
f 84 90 91
f 84 91 86
f 85 86 92
f 85 92 87
f 86 91 93
f 86 93 92
f 87 92 94
f 87 94 88
f 89 95 90
f 90 95 96
f 90 96 97
f 90 97 91
f 91 97 98
f 91 98 93
f 92 93 99
f 92 99 94
f 93 98 100
f 93 100 99
f 95 101 96
f 96 101 102
f 96 102 103
f 96 103 97
f 97 103 104
f 97 104 98
f 98 104 105
f 98 105 100
f 100 105 106
f 101 107 102
f 102 107 108
f 102 108 109
f 102 109 103
f 103 109 110
f 103 110 104
f 104 110 111
f 104 111 105
f 105 111 112
f 105 112 106
f 107 113 108
f 108 113 114
f 108 114 115
f 108 115 109
f 109 115 116
f 109 116 110
f 110 116 117
f 110 117 111
f 111 117 118
f 111 118 112
f 112 118 119
f 113 120 114
f 114 120 121
f 114 121 122
f 114 122 115
f 115 122 123
f 115 123 116
f 116 123 124
f 116 124 117
f 117 124 125
f 117 125 118
f 118 126 119
f 118 125 126
f 120 127 121
f 121 127 128
f 121 128 129
f 121 129 122
f 122 129 130
f 122 130 123
f 123 130 131
f 123 131 124
f 124 131 132
f 124 132 125
f 125 133 126
f 125 132 133
f 127 134 128
f 128 134 135
f 128 135 136
f 128 136 129
f 129 136 137
f 129 137 130
f 130 137 138
f 130 138 131
f 131 138 139
f 131 139 132
f 132 140 133
f 132 139 140
f 134 141 135
f 135 141 142
f 135 142 143
f 135 143 136
f 136 143 144
f 136 144 137
f 137 144 145
f 137 145 138
f 138 145 146
f 138 146 139
f 139 147 140
f 139 146 147
f 141 148 142
f 142 148 149
f 142 149 150
f 142 150 143
f 143 150 151
f 143 151 144
f 144 151 152
f 144 152 145
f 145 152 153
f 145 153 146
f 146 154 147
f 146 153 154
f 148 155 149
f 149 155 156
f 149 156 157
f 149 157 150
f 150 157 158
f 150 158 151
f 151 158 159
f 151 159 152
f 152 159 160
f 152 160 153
f 153 161 154
f 153 160 161
f 155 162 156
f 156 162 163
f 156 163 164
f 156 164 157
f 157 164 165
f 157 165 158
f 158 165 166
f 158 166 159
f 159 166 167
f 159 167 160
f 160 168 161
f 160 167 168
f 162 169 163
f 163 169 170
f 163 170 171
f 163 171 164
f 164 171 172
f 164 172 165
f 165 172 173
f 165 173 166
f 166 173 174
f 166 174 167
f 167 175 168
f 167 174 175
f 169 176 170
f 170 176 177
f 170 177 178
f 170 178 171
f 171 178 179
f 171 179 172
f 172 179 180
f 172 180 173
f 173 180 181
f 173 181 174
f 174 182 175
f 174 181 182
f 176 183 177
f 177 183 184
f 177 184 185
f 177 185 178
f 178 185 186
f 178 186 179
f 179 186 187
f 179 187 180
f 180 187 188
f 180 188 181
f 181 189 182
f 181 188 189
f 183 190 184
f 184 191 185
f 185 191 192
f 185 192 186
f 186 192 193
f 186 193 187
f 187 193 194
f 187 194 188
f 188 195 189
f 188 194 195
f 196 197 198
f 196 198 199
f 196 200 197
f 197 200 201
f 198 248 199
f 199 248 247
f 200 202 201
f 201 202 203
f 202 204 203
f 203 204 205
f 204 206 205
f 205 206 207
f 206 208 207
f 207 208 209
f 208 210 209
f 209 210 211
f 210 212 211
f 211 212 213
f 212 214 213
f 213 214 215
f 214 216 215
f 215 216 217
f 216 218 217
f 217 218 219
f 218 220 219
f 219 220 221
f 220 222 221
f 221 222 223
f 222 589 223
f 224 225 226
f 224 227 225
f 225 227 228
f 227 229 228
f 228 229 230
f 229 231 230
f 230 231 232
f 231 233 232
f 232 233 234
f 233 235 234
f 234 235 236
f 235 237 236
f 236 237 238
f 237 239 238
f 238 239 240
f 239 241 240
f 240 241 242
f 241 243 242
f 242 243 244
f 243 245 244
f 244 245 246
f 245 247 246
f 246 247 248
f 249 250 251
f 249 649 648
f 249 251 649
f 250 590 251
f 251 590 591
f 252 253 254
f 252 254 255
f 252 256 253
f 253 256 257
f 254 650 255
f 256 258 257
f 257 258 259
f 258 260 259
f 259 260 261
f 260 262 261
f 261 262 263
f 262 264 263
f 263 264 265
f 264 266 265
f 265 266 267
f 266 268 267
f 267 268 269
f 268 270 269
f 269 270 271
f 270 272 271
f 271 272 273
f 272 274 273
f 273 274 275
f 274 276 275
f 275 276 278
f 276 277 278
f 276 279 277
f 277 279 280
f 279 281 280
f 280 281 282
f 281 283 282
f 282 283 284
f 283 285 284
f 284 285 286
f 285 287 286
f 286 287 288
f 287 289 288
f 288 289 290
f 289 291 290
f 290 291 292
f 291 293 292
f 292 293 294
f 293 295 294
f 294 295 296
f 295 297 296
f 296 297 298
f 297 299 298
f 298 299 300
f 299 651 300
f 300 651 652
f 301 302 303
f 301 303 304
f 301 305 302
f 301 304 541
f 302 305 406
f 302 407 303
f 302 406 415
f 302 415 407
f 303 407 409
f 303 409 304
f 304 534 541
f 304 409 542
f 304 542 534
f 305 413 406
f 306 307 308
f 306 414 413
f 306 418 414
f 306 308 418
f 307 309 310
f 307 310 308
f 308 310 422
f 308 422 423
f 308 423 418
f 309 311 312
f 309 312 310
f 310 312 430
f 310 430 422
f 311 434 312
f 311 442 434
f 312 434 435
f 312 435 430
f 313 314 315
f 313 446 445
f 313 453 446
f 313 315 453
f 314 316 317
f 314 317 315
f 315 317 457
f 315 457 458
f 315 458 453
f 316 318 319
f 316 319 317
f 317 319 463
f 317 463 457
f 318 466 319
f 318 471 470
f 318 470 466
f 319 466 467
f 319 467 463
f 320 321 322
f 320 480 479
f 320 484 480
f 320 322 484
f 321 323 324
f 321 324 322
f 322 324 488
f 322 488 489
f 322 489 484
f 323 325 326
f 323 326 324
f 324 326 494
f 324 494 488
f 325 497 326
f 325 502 501
f 325 501 497
f 326 497 498
f 326 498 494
f 327 328 329
f 327 511 510
f 327 515 511
f 327 329 515
f 328 330 331
f 328 331 329
f 329 331 519
f 329 519 520
f 329 520 515
f 330 332 333
f 330 333 331
f 331 333 525
f 331 525 519
f 332 528 333
f 332 533 532
f 332 532 528
f 333 528 529
f 333 529 525
f 334 335 336
f 334 337 335
f 334 336 404
f 335 337 338
f 335 540 539
f 335 338 540
f 335 539 336
f 336 539 544
f 336 544 405
f 336 405 404
f 337 339 338
f 338 339 340
f 338 340 531
f 338 531 540
f 339 341 340
f 340 341 342
f 340 527 531
f 340 342 527
f 341 343 342
f 342 343 344
f 342 344 524
f 342 524 527
f 343 345 344
f 344 345 346
f 344 522 524
f 344 346 522
f 345 347 346
f 346 347 348
f 346 348 518
f 346 518 522
f 347 349 348
f 348 349 350
f 348 514 518
f 348 350 514
f 349 351 350
f 350 351 352
f 350 508 514
f 350 352 508
f 351 353 352
f 352 353 354
f 352 509 508
f 352 354 509
f 353 355 354
f 354 355 356
f 354 356 500
f 354 500 509
f 355 357 356
f 356 357 358
f 356 496 500
f 356 358 496
f 357 359 358
f 358 359 360
f 358 360 493
f 358 493 496
f 359 361 360
f 360 361 362
f 360 491 493
f 360 362 491
f 361 363 362
f 362 363 364
f 362 364 487
f 362 487 491
f 363 365 364
f 364 365 366
f 364 483 487
f 364 366 483
f 365 367 366
f 366 367 368
f 366 477 483
f 366 368 477
f 367 369 368
f 368 369 370
f 368 478 477
f 368 370 478
f 369 371 370
f 370 371 372
f 370 372 469
f 370 469 478
f 371 373 372
f 372 373 374
f 372 465 469
f 372 374 465
f 373 375 374
f 374 375 376
f 374 376 462
f 374 462 465
f 375 377 376
f 376 377 378
f 376 460 462
f 376 378 460
f 377 379 378
f 378 379 380
f 378 380 456
f 378 456 460
f 379 381 380
f 380 381 382
f 380 451 456
f 380 382 451
f 381 383 382
f 382 383 384
f 382 452 451
f 382 384 452
f 383 385 384
f 384 385 386
f 384 386 678
f 384 678 452
f 385 677 386
f 387 388 389
f 387 389 438
f 388 390 391
f 388 391 389
f 389 432 437
f 389 437 438
f 389 391 432
f 390 392 393
f 390 393 391
f 391 433 432
f 391 393 433
f 392 394 395
f 392 395 393
f 393 427 433
f 393 395 427
f 394 396 397
f 394 397 395
f 395 429 427
f 395 397 429
f 396 398 399
f 396 399 397
f 397 399 421
f 397 421 429
f 398 400 401
f 398 401 399
f 399 417 421
f 399 401 417
f 400 402 403
f 400 403 401
f 401 410 417
f 401 403 410
f 402 404 405
f 402 405 403
f 403 412 410
f 403 405 412
f 405 544 412
f 406 413 414
f 406 414 419
f 406 419 415
f 407 408 409
f 407 415 416
f 407 416 408
f 408 410 411
f 408 411 409
f 408 416 417
f 408 417 410
f 409 411 542
f 410 412 411
f 411 543 542
f 411 412 543
f 412 544 543
f 414 426 419
f 414 418 426
f 415 419 420
f 415 420 416
f 416 420 421
f 416 421 417
f 418 423 426
f 419 428 420
f 419 426 428
f 420 429 421
f 420 428 429
f 422 424 423
f 422 430 431
f 422 431 424
f 423 425 426
f 423 424 425
f 424 431 432
f 424 433 425
f 424 432 433
f 425 427 428
f 425 428 426
f 425 433 427
f 427 429 428
f 430 435 436
f 430 436 431
f 431 436 437
f 431 437 432
f 434 441 435
f 434 442 441
f 435 440 436
f 435 441 440
f 436 439 437
f 436 440 439
f 437 439 438
f 443 444 445
f 443 445 446
f 443 446 447
f 443 447 448
f 443 681 444
f 443 448 681
f 444 681 682
f 446 453 454
f 446 454 447
f 447 449 448
f 447 454 455
f 447 455 449
f 448 449 450
f 448 680 681
f 448 450 680
f 449 451 450
f 449 455 456
f 449 456 451
f 450 451 452
f 450 679 680
f 450 452 679
f 452 678 679
f 453 458 454
f 454 461 455
f 454 458 461
f 455 460 456
f 455 461 460
f 457 459 458
f 457 463 464
f 457 464 459
f 458 459 461
f 459 464 465
f 459 462 461
f 459 465 462
f 460 461 462
f 463 467 468
f 463 468 464
f 464 468 469
f 464 469 465
f 466 474 467
f 466 470 474
f 467 476 468
f 467 474 476
f 468 478 469
f 468 476 478
f 470 471 472
f 470 472 473
f 470 473 474
f 471 479 472
f 472 479 480
f 472 480 481
f 472 481 473
f 473 475 474
f 473 481 482
f 473 482 475
f 474 475 476
f 475 477 476
f 475 482 483
f 475 483 477
f 476 477 478
f 480 484 485
f 480 485 481
f 481 485 486
f 481 486 482
f 482 486 487
f 482 487 483
f 484 489 485
f 485 492 486
f 485 489 492
f 486 491 487
f 486 492 491
f 488 490 489
f 488 494 495
f 488 495 490
f 489 490 492
f 490 495 496
f 490 493 492
f 490 496 493
f 491 492 493
f 494 498 499
f 494 499 495
f 495 499 500
f 495 500 496
f 497 505 498
f 497 501 505
f 498 507 499
f 498 505 507
f 499 509 500
f 499 507 509
f 501 502 503
f 501 503 504
f 501 504 505
f 502 510 503
f 503 510 511
f 503 511 512
f 503 512 504
f 504 506 505
f 504 512 513
f 504 513 506
f 505 506 507
f 506 508 507
f 506 513 514
f 506 514 508
f 507 508 509
f 511 515 516
f 511 516 512
f 512 516 517
f 512 517 513
f 513 517 518
f 513 518 514
f 515 520 516
f 516 523 517
f 516 520 523
f 517 522 518
f 517 523 522
f 519 521 520
f 519 525 526
f 519 526 521
f 520 521 523
f 521 526 527
f 521 524 523
f 521 527 524
f 522 523 524
f 525 529 530
f 525 530 526
f 526 530 531
f 526 531 527
f 528 536 529
f 528 532 536
f 529 538 530
f 529 536 538
f 530 540 531
f 530 538 540
f 532 533 534
f 532 534 535
f 532 535 536
f 533 541 534
f 534 542 535
f 535 537 536
f 535 542 543
f 535 543 537
f 536 537 538
f 537 539 538
f 537 543 544
f 537 544 539
f 538 539 540
f 545 546 547
f 545 547 548
f 545 549 550
f 545 551 552
f 545 552 549
f 545 553 546
f 545 548 551
f 546 553 558
f 549 575 550
f 550 570 569
f 550 575 576
f 550 577 570
f 550 576 577
f 553 554 555
f 553 555 556
f 553 557 558
f 553 559 554
f 553 556 557
f 554 559 563
f 559 560 561
f 559 561 562
f 559 564 560
f 559 562 563
f 560 564 568
f 564 565 566
f 564 566 567
f 564 569 565
f 564 567 568
f 565 569 574
f 569 570 571
f 569 571 572
f 569 573 574
f 569 572 573
f 578 579 580
f 579 757 580
f 580 757 758
f 581 582 583
f 582 782 583
f 583 782 783
f 590 592 591
f 591 592 593
f 592 594 593
f 593 594 595
f 594 596 595
f 595 596 597
f 595 597 598
f 597 599 598
f 598 599 600
f 599 601 600
f 600 601 602
f 601 603 602
f 602 603 604
f 602 604 605
f 604 606 605
f 605 606 607
f 606 608 607
f 607 608 609
f 608 610 609
f 609 610 611
f 609 611 612
f 611 613 612
f 612 613 614
f 613 615 614
f 614 615 616
f 615 617 616
f 616 617 618
f 616 618 619
f 618 620 619
f 619 620 621
f 620 622 621
f 621 622 623
f 622 624 623
f 623 624 625
f 623 625 626
f 625 627 626
f 626 627 628
f 627 629 628
f 628 629 630
f 629 631 630
f 630 631 632
f 630 632 633
f 632 634 633
f 633 634 635
f 634 636 635
f 635 636 637
f 636 638 637
f 637 638 639
f 637 639 640
f 639 641 640
f 640 641 642
f 641 643 642
f 642 643 644
f 643 645 644
f 644 645 646
f 644 646 647
f 646 648 647
f 647 648 649
f 653 654 655
f 654 656 655
f 654 657 656
f 656 657 658
f 657 659 658
f 658 659 660
f 659 661 660
f 660 661 662
f 661 663 662
f 662 663 664
f 663 665 664
f 664 665 666
f 665 667 666
f 666 667 668
f 667 669 668
f 668 669 670
f 669 671 670
f 670 671 672
f 671 673 672
f 672 673 674
f 673 675 674
f 674 675 676
f 683 684 685
f 683 686 684
f 683 756 686
f 684 687 685
f 685 687 688
f 686 756 755
f 687 689 688
f 688 689 690
f 689 691 690
f 690 691 692
f 691 693 692
f 692 693 694
f 693 695 694
f 694 695 696
f 695 697 696
f 696 697 698
f 697 699 698
f 698 699 700
f 699 701 700
f 700 701 702
f 701 703 702
f 702 703 704
f 703 705 704
f 704 705 706
f 705 707 706
f 706 707 708
f 707 709 708
f 708 709 710
f 709 711 710
f 710 711 712
f 711 713 712
f 712 713 714
f 713 715 714
f 714 715 716
f 715 717 716
f 716 717 718
f 717 719 718
f 718 719 720
f 719 721 720
f 720 721 722
f 721 723 722
f 724 725 726
f 725 727 726
f 726 727 728
f 727 729 728
f 728 729 730
f 729 731 730
f 730 731 732
f 731 733 732
f 732 733 734
f 733 735 734
f 734 735 736
f 735 737 736
f 736 737 738
f 737 739 738
f 738 739 740
f 739 741 740
f 740 741 742
f 741 743 742
f 742 743 744
f 743 745 744
f 744 745 746
f 745 747 746
f 746 747 748
f 747 749 748
f 748 749 750
f 749 751 750
f 750 751 752
f 751 753 752
f 752 753 754
f 753 755 754
f 754 755 756
f 757 759 758
f 758 759 760
f 761 762 763
f 762 764 763
f 763 764 765
f 764 766 765
f 765 766 767
f 768 769 770
f 769 771 770
f 770 771 772
f 771 773 772
f 772 773 774
f 775 776 777
f 776 778 777
f 777 778 779
f 778 780 779
f 779 780 781
f 782 784 783
f 783 784 785
f 786 787 788
f 787 789 788
f 788 789 790
f 789 791 790
f 790 791 792
f 793 794 795
f 793 796 794
f 795 797 798
f 796 801 804
f 798 835 834
f 799 800 801
f 799 802 803
f 802 805 803
f 805 808 811
f 806 807 808
f 806 809 810
f 809 812 810
f 812 815 818
f 813 814 815
f 813 816 817
f 816 819 817
f 819 822 825
f 820 821 822
f 820 823 824
f 823 826 824
f 827 828 829
f 827 830 831
f 829 832 833
f 830 834 831