# Forged Hexagon Socket Button Head Cap Screw - Metric M3 x 0.5 x 6
# Autodesk dbId: 35
# Units: mm
o 035_Forged_Hexagon_Socket_Button_Head_Cap_Screw_-_Metric_M3_x_0.5_x_6
v -1.700000 -32.013692 13.666680
v -1.703408 -31.874197 13.994558
v -1.703408 -31.988422 13.661088
v -1.703408 -32.025578 13.310561
v -1.700000 -31.891850 14.017629
v -1.800000 -28.986931 12.996805
v -1.800000 -28.951919 13.356716
v -1.774118 -28.948117 13.330850
v -1.800000 -29.004056 13.714548
v -1.774118 -28.988015 13.665134
v -1.800000 -29.140313 14.049505
v -1.774118 -29.101299 13.982158
v -1.800000 -29.352771 14.342120
v -1.774118 -29.282286 14.266027
v -1.800000 -29.629083 14.575388
v -1.774118 -29.521903 14.502504
v -1.800000 -29.953190 14.735752
v -1.774118 -29.808133 14.679733
v -1.800000 -30.306257 14.813891
v -1.800000 -30.667764 14.805266
v -1.774118 -30.461405 14.824314
v -1.800000 -31.016703 14.710377
v -1.774118 -30.795689 14.784416
v -1.800000 -31.332793 14.534739
v -1.774118 -31.112714 14.671132
v -1.800000 -31.597666 14.288560
v -1.774118 -31.396582 14.490145
v -1.800000 -31.795927 13.986145
v -1.774118 -31.633060 14.250529
v -1.800000 -31.916055 13.645072
v -1.774118 -31.810288 13.964299
v -1.703407 -30.111344 14.857867
v -1.713397 -30.116555 14.834318
v -1.703408 -30.461871 14.895023
v -1.703408 -31.688633 14.294250
v -1.713398 -31.852399 13.984237
v -1.729289 -31.833681 13.975374
v -1.713398 -31.964874 13.655876
v -1.750000 -31.819317 13.968574
v -1.729289 -31.944652 13.651401
v -1.750000 -31.929136 13.647967
v -1.774118 -31.919382 13.645808
v -1.700000 -31.692356 14.331018
v -1.703407 -31.441033 14.545137
v -1.713397 -31.669678 14.279338
v -1.729289 -31.653401 14.266532
v -1.750000 -31.640911 14.256706
v -1.700000 -31.425968 14.589954
v -1.703408 -31.143813 14.734637
v -1.713398 -31.425871 14.526380
v -1.729290 -31.412852 14.510273
v -1.750000 -31.402862 14.497914
v -1.700000 -31.107046 14.780477
v -1.703407 -30.811878 14.853248
v -1.713398 -31.133206 14.712977
v -1.729289 -31.124097 14.694377
v -1.750000 -31.117107 14.680104
v -1.700000 -30.752783 14.892316
v -1.713397 -30.806356 14.829771
v -1.729289 -30.801614 14.809610
v -1.750000 -30.797976 14.794140
v -1.700000 -30.382277 14.919441
v -1.713398 -30.461712 14.870905
v -1.729289 -30.461575 14.850195
v -1.750000 -30.461471 14.834304
v -1.703408 -29.777873 14.743642
v -1.700000 -30.015502 14.860391
v -1.700000 -29.672232 14.718348
v -1.703407 -29.478181 14.558078
v -1.713398 -29.788194 14.721844
v -1.703407 -30.111344 14.857867
v -1.729289 -29.797057 14.703126
v -1.713397 -30.116555 14.834318
v -1.750000 -29.803858 14.688762
v -1.729289 -30.121031 14.814097
v -1.750000 -30.124465 14.798581
v -1.774118 -30.126624 14.788827
v -1.700000 -29.370972 14.500971
v -1.703408 -29.227294 14.310478
v -1.713398 -29.493094 14.539123
v -1.729289 -29.505899 14.522846
v -1.750000 -29.515726 14.510356
v -1.700000 -29.127963 14.219978
v -1.703408 -29.037794 14.013258
v -1.713398 -29.246051 14.295316
v -1.713398 -29.059454 14.002651
v -1.729289 -29.262158 14.282297
v -1.750000 -29.274517 14.272307
v -1.700000 -28.956306 13.890517
v -1.703407 -28.919183 13.681323
v -1.713398 -28.942660 13.675801
v -1.729289 -29.078054 13.993542
v -1.729290 -28.962821 13.671059
v -1.750000 -29.092327 13.986552
v -1.700000 -28.865255 13.530350
v -1.703407 -28.877408 13.331316
v -1.713398 -28.901525 13.331157
v -1.729290 -28.922236 13.331020
v -1.750000 -28.978291 13.667421
v -1.750000 -28.938127 13.330916
v -1.700000 -28.859719 13.158894
v -1.703408 -28.914564 12.980789
v -1.713398 -28.938112 12.986001
v -1.729290 -28.958334 12.990476
v -1.750000 -28.973850 12.993910
v -1.774118 -28.983604 12.996069
v -1.700000 -28.939995 12.796174
v -1.703407 -29.028789 12.647318
v -1.713398 -29.050587 12.657639
v -1.729290 -29.069305 12.666502
v -1.750000 -29.083669 12.673303
v -1.774118 -29.092698 12.677578
v -1.700000 -29.101757 12.461743
v -1.703407 -29.214353 12.347626
v -1.713398 -29.233308 12.362539
v -1.729290 -29.249585 12.375345
v -1.750000 -29.262075 12.385171
v -1.774118 -29.269927 12.391348
v -1.800000 -29.107059 12.655731
v -1.700000 -29.336283 12.173633
v -1.703408 -29.461953 12.096740
v -1.713398 -29.477115 12.115496
v -1.729289 -29.490134 12.131603
v -1.750000 -29.500124 12.143962
v -1.774118 -29.506404 12.151732
v -1.800000 -29.305320 12.353317
v -1.700000 -29.630931 11.947373
v -1.703408 -29.759173 11.907240
v -1.713398 -29.769780 11.928900
v -1.729289 -29.778889 11.947500
v -1.750000 -29.785879 11.961772
v -1.774118 -29.790273 11.970744
v -1.800000 -29.570193 12.107137
v -1.700000 -29.969815 11.795163
v -1.703407 -30.091109 11.788628
v -1.713398 -30.096630 11.812106
v -1.729289 -30.101372 11.832266
v -1.750000 -30.105010 11.847736
v -1.774118 -30.107297 11.857461
v -1.800000 -29.886283 11.931499
v -1.700000 -30.334666 11.725208
v -1.703408 -30.441115 11.746854
v -1.713398 -30.441274 11.770971
v -1.729289 -30.441411 11.791681
v -1.750000 -30.441516 11.807573
v -1.774118 -30.441581 11.817563
v -1.800000 -30.235222 11.836610
v -1.700000 -30.705816 11.741279
v -1.703407 -30.791642 11.784010
v -1.713397 -30.786431 11.807558
v -1.729289 -30.781955 11.827779
v -1.750000 -30.778521 11.843296
v -1.774118 -30.776362 11.853050
v -1.800000 -30.596730 11.827985
v -1.700000 -31.063256 11.842510
v -1.703408 -31.125113 11.898234
v -1.713398 -31.114792 11.920032
v -1.729289 -31.105929 11.938751
v -1.750000 -31.099128 11.953114
v -1.774118 -31.094853 11.962143
v -1.800000 -30.949796 11.906125
v -1.700000 -31.387714 12.023444
v -1.703407 -31.424805 12.083799
v -1.713397 -31.409893 12.102754
v -1.729289 -31.397087 12.119031
v -1.750000 -31.387260 12.131521
v -1.774118 -31.381083 12.139372
v -1.800000 -31.273904 12.066489
v -1.700000 -31.661701 12.274325
v -1.703408 -31.675692 12.331399
v -1.713398 -31.656935 12.346560
v -1.729289 -31.640828 12.359580
v -1.750000 -31.628469 12.369570
v -1.774118 -31.620700 12.375850
v -1.800000 -31.550215 12.299756
v -1.700000 -31.870446 12.581630
v -1.703407 -31.865192 12.628618
v -1.713398 -31.843532 12.639226
v -1.729290 -31.824932 12.648335
v -1.750000 -31.810659 12.655324
v -1.774118 -31.801687 12.659718
v -1.800000 -31.762673 12.592372
v -1.700000 -32.002694 12.928791
v -1.703408 -31.983803 12.960554
v -1.713397 -31.960326 12.966076
v -1.729289 -31.940165 12.970817
v -1.750000 -31.924695 12.974456
v -1.774118 -31.914971 12.976743
v -1.800000 -31.898930 12.927328
v -1.700000 -32.051317 13.297093
v -1.713398 -32.001461 13.310720
v -1.729289 -31.980750 13.310856
v -1.750000 -31.964859 13.310961
v -1.774118 -31.954869 13.311027
v -1.800000 -31.951067 13.285160
v -7.393279 -31.916055 13.645072
v -1.800000 -31.951067 13.285160
v -1.800000 -31.916055 13.645072
v -7.393279 -31.795927 13.986145
v -7.393279 -31.951067 13.285160
v -1.800000 -31.898930 12.927328
v -7.393279 -31.898930 12.927328
v -1.800000 -31.762673 12.592372
v -7.393280 -31.762673 12.592372
v -1.800000 -31.550215 12.299756
v -7.393279 -31.550215 12.299756
v -1.800000 -31.273904 12.066489
v -7.393279 -31.273904 12.066489
v -1.800000 -30.949796 11.906125
v -7.393279 -30.949796 11.906125
v -1.800000 -30.596730 11.827985
v -7.393279 -30.596730 11.827985
v -1.800000 -30.235222 11.836610
v -7.393280 -30.235222 11.836610
v -1.800000 -29.886283 11.931499
v -7.393280 -29.886283 11.931499
v -1.800000 -29.570193 12.107137
v -7.393279 -29.570193 12.107137
v -1.800000 -29.305320 12.353317
v -7.393279 -29.305320 12.353317
v -1.800000 -29.107059 12.655731
v -7.393280 -29.107059 12.655731
v -1.800000 -28.986931 12.996805
v -7.393280 -28.986931 12.996805
v -1.800000 -28.951919 13.356716
v -1.800000 -28.986931 12.996805
v -7.393280 -28.951919 13.356716
v -1.800000 -29.004056 13.714548
v -7.393279 -29.004056 13.714548
v -1.800000 -29.140313 14.049505
v -7.393279 -29.140313 14.049505
v -1.800000 -29.352771 14.342120
v -7.393280 -29.352771 14.342120
v -1.800000 -29.629083 14.575388
v -7.393280 -29.629083 14.575388
v -1.800000 -29.953190 14.735752
v -7.393279 -29.953190 14.735752
v -1.800000 -30.306257 14.813891
v -7.393279 -30.306257 14.813891
v -1.800000 -30.667764 14.805266
v -7.393279 -30.667764 14.805266
v -1.800000 -31.016703 14.710377
v -7.393279 -31.016703 14.710377
v -1.800000 -31.332793 14.534739
v -7.393280 -31.332793 14.534739
v -1.800000 -31.597666 14.288560
v -7.393279 -31.597666 14.288560
v -1.800000 -31.795927 13.986145
v -1.700000 -33.298827 13.444230
v -1.700000 -33.234160 13.936791
v -1.700000 -32.013692 13.666680
v -7.700005 -31.643615 13.268460
v -7.393279 -31.898930 12.927328
v -7.393279 -31.951067 13.285160
v -7.700005 -31.616576 13.578792
v -7.700005 -31.589411 12.961704
v -7.393280 -31.762673 12.592372
v -7.700005 -31.457661 12.679430
v -7.393279 -31.550215 12.299756
v -7.700005 -31.257342 12.440873
v -7.393279 -31.273904 12.066489
v -7.700005 -31.002106 12.262292
v -7.393279 -30.949796 11.906125
v -7.700005 -30.709346 12.155855
v -7.393279 -30.596730 11.827985
v -7.700005 -30.399014 12.128817
v -7.393280 -30.235222 11.836610
v -7.700005 -30.092259 12.183020
v -7.393280 -29.886283 11.931499
v -7.700005 -29.809985 12.314770
v -7.393279 -29.570193 12.107137
v -7.700005 -29.571428 12.515089
v -7.393279 -29.305320 12.353317
v -7.700005 -29.392846 12.770325
v -7.393280 -29.107059 12.655731
v -7.700005 -29.286410 13.063085
v -7.393280 -28.951919 13.356716
v -7.393280 -28.986931 12.996805
v -7.700005 -29.259372 13.373417
v -7.393279 -29.004056 13.714548
v -7.700005 -29.313575 13.680172
v -7.393279 -29.140313 14.049505
v -7.700005 -29.445325 13.962447
v -7.393280 -29.352771 14.342120
v -7.700005 -29.645644 14.201003
v -7.393280 -29.629083 14.575388
v -7.700005 -29.900880 14.379585
v -7.393279 -29.953190 14.735752
v -7.700005 -30.193640 14.486021
v -7.393279 -30.306257 14.813891
v -7.700005 -30.503972 14.513060
v -7.393279 -30.667764 14.805266
v -7.700005 -30.810727 14.458857
v -7.393279 -31.016703 14.710377
v -7.700005 -31.093002 14.327106
v -7.393280 -31.332793 14.534739
v -7.700005 -31.331558 14.126787
v -7.393279 -31.597666 14.288560
v -7.700005 -31.510140 13.871551
v -7.393279 -31.795927 13.986145
v -0.049999 -31.994165 13.662359
v -0.093273 -32.215166 14.050733
v -0.093273 -32.315099 13.733387
v -0.093273 -32.358408 13.403509
v -0.049999 -31.873845 14.008920
v -0.049999 -31.413787 14.574092
v -0.049999 -31.098852 14.762233
v -0.093273 -31.333442 15.013660
v -0.049999 -30.749017 14.872674
v -0.093273 -31.026105 15.141093
v -0.049999 -30.383142 14.899460
v -0.093273 -30.701309 15.213221
v -0.049999 -29.384479 14.486221
v -0.049999 -29.144507 14.208740
v -0.093273 -28.937636 14.483426
v -0.049999 -28.974996 13.883398
v -0.093273 -28.758771 14.202887
v -0.049999 -28.885083 13.527733
v -0.093273 -28.631338 13.895550
v -0.049999 -29.118629 12.472483
v -0.049999 -29.350223 12.187974
v -0.093273 -29.043787 12.031944
v -0.049999 -29.641188 11.964543
v -0.093273 -29.289005 11.807082
v -0.049999 -29.975836 11.814235
v -0.093273 -29.569544 11.628216
v -0.049999 -31.055608 11.860991
v -0.049999 -31.376012 12.039662
v -0.093273 -31.476459 11.710787
v -0.049999 -31.646574 12.287408
v -0.093273 -31.740487 11.913233
v -0.049999 -31.852709 12.590871
v -0.093273 -31.965350 12.158450
v -1.320000 -33.298827 13.444230
v -0.991299 -33.234077 12.953587
v -0.991299 -33.255593 13.442358
v -1.320000 -33.276979 12.947923
v -0.991299 -33.128014 12.475977
v -1.320000 -33.169280 12.462949
v -0.991299 -32.940625 12.024041
v -1.320000 -32.979003 12.004045
v -0.991299 -32.677606 11.611511
v -1.320000 -32.711928 11.585155
v -0.991299 -32.346947 11.250920
v -1.320000 -32.376171 11.219005
v -0.991299 -31.958696 10.953226
v -1.320000 -31.981934 10.916721
v -0.991299 -31.524649 10.727475
v -1.320000 -31.541195 10.687488
v -0.991299 -31.057995 10.580523
v -1.320000 -31.067346 10.538272
v -0.991299 -30.572913 10.516839
v -1.320000 -30.574785 10.473605
v -0.991299 -30.084141 10.538355
v -1.320000 -30.078477 10.495453
v -0.991299 -29.606531 10.644418
v -1.320000 -29.593504 10.603152
v -0.991299 -29.154595 10.831807
v -1.320000 -29.134600 10.793429
v -0.991299 -28.742065 11.094826
v -1.320000 -28.715709 11.060504
v -0.991299 -28.381474 11.425485
v -1.320000 -28.349559 11.396260
v -0.991299 -28.083780 11.813736
v -1.320000 -28.047275 11.790498
v -0.991299 -27.858028 12.247782
v -1.320000 -27.818043 12.231236
v -0.991299 -27.711077 12.714436
v -1.320000 -27.668826 12.705085
v -0.991299 -27.647393 13.199518
v -1.320000 -27.604159 13.197646
v -0.991299 -27.668909 13.688290
v -1.320000 -27.626007 13.693954
v -0.991299 -27.774973 14.165900
v -1.320000 -27.733706 14.178927
v -0.991299 -27.962361 14.617835
v -1.320000 -27.923983 14.637831
v -0.991299 -28.225381 15.030366
v -1.320000 -28.191058 15.056722
v -0.991299 -28.556039 15.390956
v -1.320000 -28.526815 15.422872
v -0.991299 -28.944290 15.688650
v -1.320000 -28.921052 15.725156
v -0.991299 -29.378337 15.914402
v -1.320000 -29.361791 15.954388
v -0.991299 -29.844991 16.061353
v -1.320000 -29.835640 16.103605
v -1.320000 -30.328201 16.168272
v -0.991299 -30.330074 16.125038
v -1.320000 -30.824509 16.146424
v -0.991299 -30.818845 16.103522
v -1.320000 -31.309482 16.038725
v -0.991299 -31.296455 15.997458
v -1.320000 -31.768386 15.848447
v -0.991299 -31.748391 15.810070
v -1.320000 -32.187277 15.581373
v -0.991299 -32.160921 15.547051
v -1.320000 -32.553427 15.245616
v -0.991299 -32.521512 15.216392
v -1.320000 -32.855711 14.851379
v -0.991299 -32.819206 14.828141
v -1.320000 -33.084944 14.410640
v -0.991299 -33.044957 14.394094
v -1.320000 -33.234161 13.936791
v -0.991299 -33.191909 13.927440
v -0.093273 -32.061644 14.345904
v -0.220147 -32.498192 14.167847
v -0.421973 -32.741233 14.268415
v -0.220147 -32.614163 13.799575
v -0.684999 -32.927724 14.345584
v -0.421973 -32.870974 13.856412
v -0.684999 -33.068033 13.900024
v -0.049999 -31.676846 14.318392
v -0.093273 -31.859199 14.609932
v -0.220147 -32.320034 14.510386
v -0.421974 -32.541919 14.651630
v -0.684999 -32.712177 14.760010
v -0.093273 -31.613981 14.834795
v -0.220147 -32.085102 14.816784
v -0.421973 -32.279088 14.994412
v -0.684999 -32.427940 15.130711
v -0.220147 -31.118316 15.433183
v -0.220147 -31.474973 15.285301
v -0.421973 -31.197500 15.684007
v -0.421973 -31.596509 15.518564
v -0.220147 -31.800532 15.077732
v -0.684999 -31.689767 15.697553
v -0.421973 -31.960727 15.286347
v -0.684999 -32.083649 15.446423
v -0.220147 -30.741398 15.516886
v -0.421974 -30.775824 15.777649
v -0.684999 -30.802239 15.977740
v -0.684999 -31.258260 15.876470
v -0.093273 -30.368922 15.227853
v -0.220147 -30.355672 15.533866
v -0.421973 -30.344293 15.796645
v -0.684999 -30.335562 15.998283
v -0.991299 -29.844991 16.061353
v -0.684999 -29.872407 15.937477
v -0.421973 -29.916020 15.740419
v -0.220147 -29.972856 15.483607
v -0.093273 -30.039044 15.184544
v -0.093273 -29.721699 15.084611
v -0.049999 -30.020952 14.841148
v -0.049999 -29.681973 14.700881
v -0.093273 -29.426527 14.931089
v -0.220147 -29.262045 15.189479
v -0.220146 -29.604584 15.367637
v -0.421973 -29.120801 15.411363
v -0.421974 -29.504016 15.610677
v -0.684999 -29.012421 15.581622
v -0.684999 -29.426847 15.797169
v -0.093273 -29.162499 14.728644
v -0.220147 -28.955647 14.954546
v -0.421973 -28.778019 15.148533
v -0.684999 -28.641720 15.297384
v -0.220147 -28.487130 14.344418
v -0.220147 -28.694699 14.669977
v -0.421973 -28.253867 14.465954
v -0.684999 -28.326008 14.953094
v -0.421974 -28.486084 14.830172
v -0.684999 -28.074878 14.559211
v -0.220147 -28.339248 13.987761
v -0.421973 -28.088424 14.066945
v -0.684999 -27.895960 14.127704
v -0.093273 -28.559210 13.570754
v -0.220147 -28.255545 13.610843
v -0.421973 -27.994782 13.645269
v -0.684999 -27.794691 13.671684
v -0.093273 -28.544578 13.238367
v -0.049999 -28.879616 13.160920
v -0.093273 -28.587887 12.908490
v -0.220147 -28.288824 12.842302
v -0.220147 -28.238565 13.225117
v -0.421974 -28.032012 12.785465
v -0.421973 -27.975785 13.213738
v -0.684999 -27.834954 12.741852
v -0.684999 -27.774147 13.205007
v -0.049999 -28.958889 12.802733
v -0.093273 -28.687820 12.591144
v -0.220147 -28.404794 12.474030
v -0.421973 -28.161753 12.373461
v -0.684999 -27.975262 12.296293
v -0.093273 -28.841342 12.295972
v -0.220147 -28.582952 12.131491
v -0.421973 -28.361067 11.990247
v -0.684999 -28.190809 11.881866
v -0.220147 -29.102454 11.564144
v -0.220147 -28.817884 11.825092
v -0.421973 -28.942259 11.355530
v -0.684999 -28.475046 11.511166
v -0.421973 -28.623897 11.647464
v -0.684999 -28.819337 11.195454
v -0.220147 -29.428013 11.356576
v -0.421974 -29.306477 11.123313
v -0.684999 -29.213219 10.944324
v -0.093273 -29.876881 11.500784
v -0.220147 -29.784670 11.208694
v -0.421973 -29.705486 10.957870
v -0.684999 -29.644726 10.765406
v -0.093273 -30.201677 11.428656
v -0.049999 -30.336127 11.745155
v -0.093273 -30.534064 11.414024
v -0.220146 -30.547315 11.108011
v -0.220147 -30.161588 11.124991
v -0.421974 -30.558693 10.845231
v -0.421973 -30.127162 10.864228
v -0.684999 -30.567424 10.643593
v -0.684999 -30.100747 10.664137
v -0.049999 -30.702637 11.761025
v -0.093273 -30.863942 11.457333
v -0.220147 -30.930130 11.158269
v -0.421973 -30.986967 10.901458
v -0.684999 -31.030579 10.704399
v -0.093273 -31.181288 11.557266
v -0.220147 -31.298402 11.274239
v -0.421973 -31.398970 11.031199
v -0.684999 -31.476139 10.844708
v -0.220147 -31.947339 11.687330
v -0.220147 -31.640941 11.452397
v -0.421973 -32.124967 11.493343
v -0.684999 -31.890565 11.060255
v -0.421974 -31.782185 11.230513
v -0.684999 -32.261266 11.344492
v -0.220147 -32.208287 11.971900
v -0.421973 -32.416902 11.811705
v -0.684999 -32.576978 11.688783
v -0.093273 -32.144215 12.438990
v -0.220147 -32.415856 12.297458
v -0.421973 -32.649119 12.175923
v -0.684999 -32.828108 12.082665
v -0.093273 -32.271648 12.746327
v -0.049999 -31.983304 12.933693
v -0.093273 -32.343776 13.071123
v -0.220147 -32.647441 13.031033
v -0.220147 -32.563738 12.654115
v -0.421974 -32.908204 12.996608
v -0.421973 -32.814562 12.574932
v -0.684999 -33.108295 12.970192
v -0.684999 -33.007026 12.514172
v -0.049999 -32.031319 13.297391
v -0.220147 -32.664421 13.416760
v -0.421973 -32.927201 13.428138
v -0.684999 -33.128839 13.436870
v -0.049999 -31.552627 12.973317
v -0.049999 -31.994165 13.662359
v -0.049999 -32.031319 13.297391
v -0.049999 -31.983304 12.933693
v -0.049999 -31.376012 12.039662
v -0.049999 -30.701011 12.193518
v -0.049999 -31.852709 12.590871
v -0.049999 -31.646574 12.287408
v -0.049999 -31.303109 14.100737
v -0.049999 -30.749017 14.872674
v -0.049999 -31.098852 14.762233
v -0.049999 -31.413787 14.574092
v -0.049999 -31.676846 14.318392
v -0.049999 -31.873845 14.008920
v -0.049999 -30.201975 14.448358
v -0.049999 -29.384479 14.486221
v -0.049999 -29.681973 14.700881
v -0.049999 -30.020952 14.841148
v -0.049999 -30.383142 14.899460
v -0.049999 -29.350360 13.668559
v -0.049999 -28.879616 13.160920
v -0.049999 -28.885083 13.527733
v -0.049999 -28.974996 13.883398
v -0.049999 -29.144507 14.208740
v -0.049999 -29.599877 12.541140
v -0.049999 -29.975836 11.814235
v -0.049999 -29.641188 11.964543
v -0.049999 -29.350223 12.187974
v -0.049999 -29.118629 12.472483
v -0.049999 -28.958889 12.802733
v -0.049999 -31.055608 11.860991
v -0.049999 -30.702637 11.761025
v -0.049999 -30.336127 11.745155
v -1.090000 -29.599877 12.541140
v -1.158211 -29.890255 12.449469
v -0.049999 -29.599877 12.541140
v -1.090000 -29.350360 13.668559
v -1.158211 -29.416159 13.371250
v -0.049999 -29.350360 13.668559
v -1.700000 -30.382277 14.919441
v -1.729289 -30.121031 14.814097
v -1.750000 -30.124465 14.798581
v -1.774118 -30.126624 14.788827
v -1.800000 -29.953190 14.735752
v -7.393280 -28.986931 12.996805
v -1.700000 -33.084944 14.410640
v -1.700000 -31.891850 14.017629
v -1.700000 -32.855711 14.851379
v -1.700000 -31.692356 14.331018
v -1.700000 -32.553427 15.245616
v -1.700000 -31.425968 14.589954
v -1.700000 -32.187277 15.581373
v -1.700000 -31.768386 15.848447
v -1.700000 -31.107046 14.780477
v -1.700000 -31.309482 16.038725
v -1.700000 -30.752783 14.892316
v -1.700000 -30.824509 16.146424
v -1.700000 -30.382277 14.919441
v -1.700000 -30.328201 16.168272
v -1.700000 -29.835640 16.103605
v -1.700000 -30.015502 14.860391
v -1.700000 -29.361791 15.954388
v -1.700000 -29.672232 14.718348
v -1.700000 -28.921052 15.725156
v -1.700000 -29.370972 14.500971
v -1.700000 -28.526815 15.422872
v -1.700000 -28.191058 15.056722
v -1.700000 -29.127963 14.219978
v -1.700000 -27.923983 14.637831
v -1.700000 -28.956306 13.890517
v -1.700000 -27.733706 14.178927
v -1.700000 -28.865255 13.530350
v -1.700000 -27.626007 13.693954
v -1.700000 -27.604159 13.197646
v -1.700000 -28.859719 13.158894
v -1.700000 -27.668826 12.705085
v -1.700000 -28.939995 12.796174
v -1.700000 -27.818042 12.231236
v -1.700000 -29.101757 12.461743
v -1.700000 -28.047275 11.790498
v -1.700000 -28.349559 11.396260
v -1.700000 -29.336283 12.173633
v -1.700000 -28.715709 11.060504
v -1.700000 -29.630931 11.947373
v -1.700000 -29.134600 10.793429
v -1.700000 -29.969815 11.795163
v -1.700000 -29.593504 10.603152
v -1.700000 -30.078477 10.495453
v -1.700000 -30.334666 11.725208
v -1.700000 -30.574785 10.473605
v -1.700000 -30.705816 11.741279
v -1.700000 -31.067346 10.538272
v -1.700000 -31.063256 11.842510
v -1.700000 -31.541195 10.687488
v -1.700000 -31.981934 10.916721
v -1.700000 -31.387714 12.023444
v -1.700000 -32.376171 11.219005
v -1.700000 -31.661701 12.274325
v -1.700000 -32.711928 11.585155
v -1.700000 -31.870446 12.581630
v -1.700000 -32.979003 12.004045
v -1.700000 -33.169280 12.462949
v -1.700000 -32.002694 12.928791
v -1.700000 -33.276979 12.947923
v -1.700000 -32.051317 13.297093
v -7.393279 -31.916055 13.645072
v -7.700005 -31.616576 13.578792
v -7.393279 -31.916055 13.645072
v -7.700005 -31.616576 13.578792
v -7.700005 -31.510140 13.871551
v -7.700005 -31.643615 13.268460
v -7.700005 -31.589411 12.961704
v -7.700005 -31.331558 14.126787
v -7.700005 -31.457661 12.679430
v -7.700005 -31.093002 14.327106
v -7.700005 -31.257342 12.440873
v -7.700005 -30.810727 14.458857
v -7.700005 -31.002106 12.262292
v -7.700005 -30.503972 14.513060
v -7.700005 -30.709346 12.155855
v -7.700005 -30.193640 14.486021
v -7.700005 -30.399014 12.128817
v -7.700005 -29.900880 14.379585
v -7.700005 -30.092259 12.183020
v -7.700005 -29.645644 14.201003
v -7.700005 -29.809985 12.314770
v -7.700005 -29.445325 13.962447
v -7.700005 -29.571428 12.515089
v -7.700005 -29.313575 13.680172
v -7.700005 -29.392846 12.770325
v -7.700005 -29.259372 13.373417
v -7.700005 -29.286410 13.063085
v -1.320000 -29.835640 16.103605
v -0.684999 -29.872407 15.937477
v -0.421973 -29.916020 15.740419
v -0.220147 -29.972856 15.483607
v -0.093273 -30.039044 15.184544
v -0.049999 -30.383142 14.899460
v -1.700000 -33.298827 13.444230
v -1.320000 -33.298827 13.444230
v -1.700000 -33.234160 13.936791
v -1.320000 -33.276979 12.947923
v -1.320000 -33.234161 13.936791
v -1.700000 -33.084944 14.410640
v -1.320000 -33.084944 14.410640
v -1.700000 -32.855711 14.851379
v -1.320000 -32.855711 14.851379
v -1.700000 -32.553427 15.245616
v -1.320000 -32.553427 15.245616
v -1.700000 -32.187277 15.581373
v -1.320000 -32.187277 15.581373
v -1.700000 -31.768386 15.848447
v -1.320000 -31.768386 15.848447
v -1.700000 -31.309482 16.038725
v -1.320000 -31.309482 16.038725
v -1.700000 -30.824509 16.146424
v -1.320000 -30.824509 16.146424
v -1.700000 -30.328201 16.168272
v -1.320000 -30.328201 16.168272
v -1.700000 -29.835640 16.103605
v -1.320000 -29.835640 16.103605
v -1.700000 -29.361791 15.954388
v -1.320000 -29.361791 15.954388
v -1.700000 -28.921052 15.725156
v -1.320000 -28.921052 15.725156
v -1.700000 -28.526815 15.422872
v -1.320000 -28.526815 15.422872
v -1.700000 -28.191058 15.056722
v -1.320000 -28.191058 15.056722
v -1.700000 -27.923983 14.637831
v -1.320000 -27.923983 14.637831
v -1.700000 -27.733706 14.178927
v -1.320000 -27.733706 14.178927
v -1.700000 -27.626007 13.693954
v -1.320000 -27.626007 13.693954
v -1.700000 -27.604159 13.197646
v -1.320000 -27.604159 13.197646
v -1.700000 -27.668826 12.705085
v -1.320000 -27.668826 12.705085
v -1.700000 -27.668826 12.705085
v -1.320000 -27.668826 12.705085
v -1.700000 -27.818042 12.231236
v -1.320000 -27.818043 12.231236
v -1.700000 -28.047275 11.790498
v -1.320000 -28.047275 11.790498
v -1.700000 -28.349559 11.396260
v -1.320000 -28.349559 11.396260
v -1.700000 -28.715709 11.060504
v -1.320000 -28.715709 11.060504
v -1.700000 -29.134600 10.793429
v -1.320000 -29.134600 10.793429
v -1.700000 -29.593504 10.603152
v -1.320000 -29.593504 10.603152
v -1.700000 -30.078477 10.495453
v -1.320000 -30.078477 10.495453
v -1.700000 -30.574785 10.473605
v -1.320000 -30.574785 10.473605
v -1.700000 -31.067346 10.538272
v -1.320000 -31.067346 10.538272
v -1.700000 -31.541195 10.687488
v -1.320000 -31.541195 10.687488
v -1.700000 -31.981934 10.916721
v -1.320000 -31.981934 10.916721
v -1.700000 -32.376171 11.219005
v -1.320000 -32.376171 11.219005
v -1.700000 -32.711928 11.585155
v -1.320000 -32.711928 11.585155
v -1.700000 -32.979003 12.004045
v -1.320000 -32.979003 12.004045
v -1.700000 -33.169280 12.462949
v -1.320000 -33.169280 12.462949
v -1.700000 -33.276979 12.947923
v -1.179316 -30.150444 12.367329
v -0.049999 -30.701011 12.193518
v -1.158212 -30.410633 12.285189
v -1.090000 -30.701011 12.193518
v -1.090000 -30.701011 12.193518
v -1.158211 -30.925589 12.399157
v -0.049999 -30.701011 12.193518
v -1.179316 -31.126819 12.583418
v -0.049999 -31.552627 12.973317
v -1.158211 -31.328049 12.767678
v -1.090000 -31.552626 12.973317
v -1.090000 -31.552626 12.973317
v -1.158211 -31.486827 13.270627
v -0.049999 -31.552627 12.973317
v -1.179316 -31.427868 13.537027
v -0.049999 -31.303109 14.100737
v -1.158211 -31.368909 13.803427
v -1.090000 -31.303109 14.100737
v -1.090000 -31.303109 14.100737
v -1.158211 -31.012731 14.192408
v -0.049999 -31.303109 14.100737
v -1.179316 -30.752542 14.274548
v -0.049999 -30.201975 14.448358
v -1.158211 -30.492353 14.356688
v -1.090000 -30.201975 14.448358
v -1.179316 -29.475119 13.104849
v -0.049999 -29.599877 12.541140
v -1.158211 -29.534078 12.838449
v -1.090000 -29.599877 12.541140
v -1.090000 -30.201975 14.448358
v -1.158212 -29.977397 14.242719
v -0.049999 -30.201975 14.448358
v -1.179316 -29.776167 14.058459
v -0.049999 -29.350360 13.668559
v -1.158211 -29.574937 13.874199
v -1.090000 -29.350360 13.668559
v -1.158211 -30.492353 14.356688
v -1.756667 -30.451493 13.320938
v -1.090000 -30.201975 14.448358
v -1.179316 -30.752542 14.274548
v -1.756667 -30.451493 13.320938
v -1.158212 -29.977397 14.242719
v -1.090000 -31.303109 14.100737
v -1.756667 -30.451493 13.320938
v -1.158211 -31.012731 14.192408
v -1.158211 -31.368909 13.803427
v -1.756667 -30.451493 13.320938
v -1.756667 -30.451493 13.320938
v -1.179316 -31.427868 13.537027
v -1.090000 -31.552626 12.973317
v -1.756667 -30.451493 13.320938
v -1.158211 -31.486827 13.270627
v -1.158211 -31.328049 12.767678
v -1.756667 -30.451493 13.320938
v -1.756667 -30.451493 13.320938
v -1.179316 -31.126819 12.583418
v -1.090000 -30.701011 12.193518
v -1.756667 -30.451493 13.320938
v -1.158211 -30.925589 12.399157
v -1.158212 -30.410633 12.285189
v -1.756667 -30.451493 13.320938
v -1.756667 -30.451493 13.320938
v -1.179316 -30.150444 12.367329
v -1.090000 -29.599877 12.541140
v -1.756667 -30.451493 13.320938
v -1.158211 -29.890255 12.449469
v -1.158211 -29.534078 12.838449
v -1.756667 -30.451493 13.320938
v -1.756667 -30.451493 13.320938
v -1.179316 -29.475119 13.104849
v -1.090000 -29.350360 13.668559
v -1.756667 -30.451493 13.320938
v -1.158211 -29.416159 13.371250
v -1.158211 -29.574937 13.874199
v -1.756667 -30.451493 13.320938
v -1.756667 -30.451493 13.320938
v -1.179316 -29.475119 13.104849
v -1.179316 -29.776167 14.058459
v -1.756667 -30.451493 13.320938
f 1 2 3
f 1 3 4
f 1 5 2
f 1 4 190
f 2 5 35
f 2 36 3
f 2 35 45
f 2 45 36
f 3 36 38
f 3 38 4
f 4 184 190
f 4 38 191
f 4 191 184
f 5 43 35
f 6 7 8
f 6 8 106
f 6 112 119
f 6 106 112
f 7 9 10
f 7 10 8
f 8 99 100
f 8 10 99
f 8 100 106
f 9 11 12
f 9 12 10
f 10 94 99
f 10 12 94
f 11 13 14
f 11 14 12
f 12 88 94
f 12 14 88
f 13 15 16
f 13 16 14
f 14 82 88
f 14 16 82
f 15 17 18
f 15 18 16
f 16 74 82
f 16 18 74
f 17 77 18
f 18 76 74
f 18 77 76
f 19 20 21
f 19 21 587
f 19 587 588
f 20 22 23
f 20 23 21
f 21 61 65
f 21 23 61
f 21 65 587
f 22 24 25
f 22 25 23
f 23 57 61
f 23 25 57
f 24 26 27
f 24 27 25
f 25 52 57
f 25 27 52
f 26 28 29
f 26 29 27
f 27 47 52
f 27 29 47
f 28 30 31
f 28 31 29
f 29 39 47
f 29 31 39
f 30 42 31
f 30 194 42
f 30 195 194
f 31 41 39
f 31 42 41
f 32 33 34
f 32 34 62
f 33 585 63
f 33 63 34
f 34 54 58
f 34 58 62
f 34 63 54
f 35 43 44
f 35 44 50
f 35 50 45
f 36 37 38
f 36 45 46
f 36 46 37
f 37 39 40
f 37 40 38
f 37 46 47
f 37 47 39
f 38 40 191
f 39 41 40
f 40 192 191
f 40 41 192
f 41 193 192
f 41 42 193
f 42 194 193
f 43 48 44
f 44 48 49
f 44 49 55
f 44 55 50
f 45 50 51
f 45 51 46
f 46 51 52
f 46 52 47
f 48 53 49
f 49 53 54
f 49 54 59
f 49 59 55
f 50 55 56
f 50 56 51
f 51 56 57
f 51 57 52
f 53 58 54
f 54 63 59
f 55 59 60
f 55 60 56
f 56 60 61
f 56 61 57
f 59 63 64
f 59 64 60
f 60 64 65
f 60 65 61
f 63 585 64
f 64 585 586
f 64 586 65
f 65 586 587
f 66 67 68
f 66 68 69
f 66 70 71
f 66 69 80
f 66 80 70
f 66 71 67
f 67 71 584
f 68 78 69
f 69 78 79
f 69 79 85
f 69 85 80
f 70 72 73
f 70 73 71
f 70 80 81
f 70 81 72
f 72 74 75
f 72 75 73
f 72 81 82
f 72 82 74
f 74 76 75
f 78 83 79
f 79 83 84
f 79 84 86
f 79 86 85
f 80 85 87
f 80 87 81
f 81 87 88
f 81 88 82
f 83 89 84
f 84 89 90
f 84 90 91
f 84 91 86
f 85 86 92
f 85 92 87
f 86 91 93
f 86 93 92
f 87 92 94
f 87 94 88
f 89 95 90
f 90 95 96
f 90 96 97
f 90 97 91
f 91 97 98
f 91 98 93
f 92 93 99
f 92 99 94
f 93 98 100
f 93 100 99
f 95 101 96
f 96 101 102
f 96 102 103
f 96 103 97
f 97 103 104
f 97 104 98
f 98 104 105
f 98 105 100
f 100 105 106
f 101 107 102
f 102 107 108
f 102 108 109
f 102 109 103
f 103 109 110
f 103 110 104
f 104 110 111
f 104 111 105
f 105 111 112
f 105 112 106
f 107 113 108
f 108 113 114
f 108 114 115
f 108 115 109
f 109 115 116
f 109 116 110
f 110 116 117
f 110 117 111
f 111 117 118
f 111 118 112
f 112 118 119
f 113 120 114
f 114 120 121
f 114 121 122
f 114 122 115
f 115 122 123
f 115 123 116
f 116 123 124
f 116 124 117
f 117 124 125
f 117 125 118
f 118 126 119
f 118 125 126
f 120 127 121
f 121 127 128
f 121 128 129
f 121 129 122
f 122 129 130
f 122 130 123
f 123 130 131
f 123 131 124
f 124 131 132
f 124 132 125
f 125 133 126
f 125 132 133
f 127 134 128
f 128 134 135
f 128 135 136
f 128 136 129
f 129 136 137
f 129 137 130
f 130 137 138
f 130 138 131
f 131 138 139
f 131 139 132
f 132 140 133
f 132 139 140
f 134 141 135
f 135 141 142
f 135 142 143
f 135 143 136
f 136 143 144
f 136 144 137
f 137 144 145
f 137 145 138
f 138 145 146
f 138 146 139
f 139 147 140
f 139 146 147
f 141 148 142
f 142 148 149
f 142 149 150
f 142 150 143
f 143 150 151
f 143 151 144
f 144 151 152
f 144 152 145
f 145 152 153
f 145 153 146
f 146 154 147
f 146 153 154
f 148 155 149
f 149 155 156
f 149 156 157
f 149 157 150
f 150 157 158
f 150 158 151
f 151 158 159
f 151 159 152
f 152 159 160
f 152 160 153
f 153 161 154
f 153 160 161
f 155 162 156
f 156 162 163
f 156 163 164
f 156 164 157
f 157 164 165
f 157 165 158
f 158 165 166
f 158 166 159
f 159 166 167
f 159 167 160
f 160 168 161
f 160 167 168
f 162 169 163
f 163 169 170
f 163 170 171
f 163 171 164
f 164 171 172
f 164 172 165
f 165 172 173
f 165 173 166
f 166 173 174
f 166 174 167
f 167 175 168
f 167 174 175
f 169 176 170
f 170 176 177
f 170 177 178
f 170 178 171
f 171 178 179
f 171 179 172
f 172 179 180
f 172 180 173
f 173 180 181
f 173 181 174
f 174 182 175
f 174 181 182
f 176 183 177
f 177 183 184
f 177 184 185
f 177 185 178
f 178 185 186
f 178 186 179
f 179 186 187
f 179 187 180
f 180 187 188
f 180 188 181
f 181 189 182
f 181 188 189
f 183 190 184
f 184 191 185
f 185 191 192
f 185 192 186
f 186 192 193
f 186 193 187
f 187 193 194
f 187 194 188
f 188 195 189
f 188 194 195
f 196 197 198
f 196 198 199
f 196 200 197
f 197 200 201
f 198 248 199
f 199 248 247
f 200 202 201
f 201 202 203
f 202 204 203
f 203 204 205
f 204 206 205
f 205 206 207
f 206 208 207
f 207 208 209
f 208 210 209
f 209 210 211
f 210 212 211
f 211 212 213
f 212 214 213
f 213 214 215
f 214 216 215
f 215 216 217
f 216 218 217
f 217 218 219
f 218 220 219
f 219 220 221
f 220 222 221
f 221 222 223
f 222 589 223
f 224 225 226
f 224 227 225
f 225 227 228
f 227 229 228
f 228 229 230
f 229 231 230
f 230 231 232
f 231 233 232
f 232 233 234
f 233 235 234
f 234 235 236
f 235 237 236
f 236 237 238
f 237 239 238
f 238 239 240
f 239 241 240
f 240 241 242
f 241 243 242
f 242 243 244
f 243 245 244
f 244 245 246
f 245 247 246
f 246 247 248
f 249 250 251
f 249 649 648
f 249 251 649
f 250 590 251
f 251 590 591
f 252 253 254
f 252 254 255
f 252 256 253
f 253 256 257
f 254 650 255
f 256 258 257
f 257 258 259
f 258 260 259
f 259 260 261
f 260 262 261
f 261 262 263
f 262 264 263
f 263 264 265
f 264 266 265
f 265 266 267
f 266 268 267
f 267 268 269
f 268 270 269
f 269 270 271
f 270 272 271
f 271 272 273
f 272 274 273
f 273 274 275
f 274 276 275
f 275 276 278
f 276 277 278
f 276 279 277
f 277 279 280
f 279 281 280
f 280 281 282
f 281 283 282
f 282 283 284
f 283 285 284
f 284 285 286
f 285 287 286
f 286 287 288
f 287 289 288
f 288 289 290
f 289 291 290
f 290 291 292
f 291 293 292
f 292 293 294
f 293 295 294
f 294 295 296
f 295 297 296
f 296 297 298
f 297 299 298
f 298 299 300
f 299 651 300
f 300 651 652
f 301 302 303
f 301 303 304
f 301 305 302
f 301 304 541
f 302 305 406
f 302 407 303
f 302 406 415
f 302 415 407
f 303 407 409
f 303 409 304
f 304 534 541
f 304 409 542
f 304 542 534
f 305 413 406
f 306 307 308
f 306 414 413
f 306 418 414
f 306 308 418
f 307 309 310
f 307 310 308
f 308 310 422
f 308 422 423
f 308 423 418
f 309 311 312
f 309 312 310
f 310 312 430
f 310 430 422
f 311 434 312
f 311 442 434
f 312 434 435
f 312 435 430
f 313 314 315
f 313 446 445
f 313 453 446
f 313 315 453
f 314 316 317
f 314 317 315
f 315 317 457
f 315 457 458
f 315 458 453
f 316 318 319
f 316 319 317
f 317 319 463
f 317 463 457
f 318 466 319
f 318 471 470
f 318 470 466
f 319 466 467
f 319 467 463
f 320 321 322
f 320 480 479
f 320 484 480
f 320 322 484
f 321 323 324
f 321 324 322
f 322 324 488
f 322 488 489
f 322 489 484
f 323 325 326
f 323 326 324
f 324 326 494
f 324 494 488
f 325 497 326
f 325 502 501
f 325 501 497
f 326 497 498
f 326 498 494
f 327 328 329
f 327 511 510
f 327 515 511
f 327 329 515
f 328 330 331
f 328 331 329
f 329 331 519
f 329 519 520
f 329 520 515
f 330 332 333
f 330 333 331
f 331 333 525
f 331 525 519
f 332 528 333
f 332 533 532
f 332 532 528
f 333 528 529
f 333 529 525
f 334 335 336
f 334 337 335
f 334 336 404
f 335 337 338
f 335 540 539
f 335 338 540
f 335 539 336
f 336 539 544
f 336 544 405
f 336 405 404
f 337 339 338
f 338 339 340
f 338 340 531
f 338 531 540
f 339 341 340
f 340 341 342
f 340 527 531
f 340 342 527
f 341 343 342
f 342 343 344
f 342 344 524
f 342 524 527
f 343 345 344
f 344 345 346
f 344 522 524
f 344 346 522
f 345 347 346
f 346 347 348
f 346 348 518
f 346 518 522
f 347 349 348
f 348 349 350
f 348 514 518
f 348 350 514
f 349 351 350
f 350 351 352
f 350 508 514
f 350 352 508
f 351 353 352
f 352 353 354
f 352 509 508
f 352 354 509
f 353 355 354
f 354 355 356
f 354 356 500
f 354 500 509
f 355 357 356
f 356 357 358
f 356 496 500
f 356 358 496
f 357 359 358
f 358 359 360
f 358 360 493
f 358 493 496
f 359 361 360
f 360 361 362
f 360 491 493
f 360 362 491
f 361 363 362
f 362 363 364
f 362 364 487
f 362 487 491
f 363 365 364
f 364 365 366
f 364 483 487
f 364 366 483
f 365 367 366
f 366 367 368
f 366 477 483
f 366 368 477
f 367 369 368
f 368 369 370
f 368 478 477
f 368 370 478
f 369 371 370
f 370 371 372
f 370 372 469
f 370 469 478
f 371 373 372
f 372 373 374
f 372 465 469
f 372 374 465
f 373 375 374
f 374 375 376
f 374 376 462
f 374 462 465
f 375 377 376
f 376 377 378
f 376 460 462
f 376 378 460
f 377 379 378
f 378 379 380
f 378 380 456
f 378 456 460
f 379 381 380
f 380 381 382
f 380 451 456
f 380 382 451
f 381 383 382
f 382 383 384
f 382 452 451
f 382 384 452
f 383 385 384
f 384 385 386
f 384 386 678
f 384 678 452
f 385 677 386
f 387 388 389
f 387 389 438
f 388 390 391
f 388 391 389
f 389 432 437
f 389 437 438
f 389 391 432
f 390 392 393
f 390 393 391
f 391 433 432
f 391 393 433
f 392 394 395
f 392 395 393
f 393 427 433
f 393 395 427
f 394 396 397
f 394 397 395
f 395 429 427
f 395 397 429
f 396 398 399
f 396 399 397
f 397 399 421
f 397 421 429
f 398 400 401
f 398 401 399
f 399 417 421
f 399 401 417
f 400 402 403
f 400 403 401
f 401 410 417
f 401 403 410
f 402 404 405
f 402 405 403
f 403 412 410
f 403 405 412
f 405 544 412
f 406 413 414
f 406 414 419
f 406 419 415
f 407 408 409
f 407 415 416
f 407 416 408
f 408 410 411
f 408 411 409
f 408 416 417
f 408 417 410
f 409 411 542
f 410 412 411
f 411 543 542
f 411 412 543
f 412 544 543
f 414 426 419
f 414 418 426
f 415 419 420
f 415 420 416
f 416 420 421
f 416 421 417
f 418 423 426
f 419 428 420
f 419 426 428
f 420 429 421
f 420 428 429
f 422 424 423
f 422 430 431
f 422 431 424
f 423 425 426
f 423 424 425
f 424 431 432
f 424 433 425
f 424 432 433
f 425 427 428
f 425 428 426
f 425 433 427
f 427 429 428
f 430 435 436
f 430 436 431
f 431 436 437
f 431 437 432
f 434 441 435
f 434 442 441
f 435 440 436
f 435 441 440
f 436 439 437
f 436 440 439
f 437 439 438
f 443 444 445
f 443 445 446
f 443 446 447
f 443 447 448
f 443 681 444
f 443 448 681
f 444 681 682
f 446 453 454
f 446 454 447
f 447 449 448
f 447 454 455
f 447 455 449
f 448 449 450
f 448 680 681
f 448 450 680
f 449 451 450
f 449 455 456
f 449 456 451
f 450 451 452
f 450 679 680
f 450 452 679
f 452 678 679
f 453 458 454
f 454 461 455
f 454 458 461
f 455 460 456
f 455 461 460
f 457 459 458
f 457 463 464
f 457 464 459
f 458 459 461
f 459 464 465
f 459 462 461
f 459 465 462
f 460 461 462
f 463 467 468
f 463 468 464
f 464 468 469
f 464 469 465
f 466 474 467
f 466 470 474
f 467 476 468
f 467 474 476
f 468 478 469
f 468 476 478
f 470 471 472
f 470 472 473
f 470 473 474
f 471 479 472
f 472 479 480
f 472 480 481
f 472 481 473
f 473 475 474
f 473 481 482
f 473 482 475
f 474 475 476
f 475 477 476
f 475 482 483
f 475 483 477
f 476 477 478
f 480 484 485
f 480 485 481
f 481 485 486
f 481 486 482
f 482 486 487
f 482 487 483
f 484 489 485
f 485 492 486
f 485 489 492
f 486 491 487
f 486 492 491
f 488 490 489
f 488 494 495
f 488 495 490
f 489 490 492
f 490 495 496
f 490 493 492
f 490 496 493
f 491 492 493
f 494 498 499
f 494 499 495
f 495 499 500
f 495 500 496
f 497 505 498
f 497 501 505
f 498 507 499
f 498 505 507
f 499 509 500
f 499 507 509
f 501 502 503
f 501 503 504
f 501 504 505
f 502 510 503
f 503 510 511
f 503 511 512
f 503 512 504
f 504 506 505
f 504 512 513
f 504 513 506
f 505 506 507
f 506 508 507
f 506 513 514
f 506 514 508
f 507 508 509
f 511 515 516
f 511 516 512
f 512 516 517
f 512 517 513
f 513 517 518
f 513 518 514
f 515 520 516
f 516 523 517
f 516 520 523
f 517 522 518
f 517 523 522
f 519 521 520
f 519 525 526
f 519 526 521
f 520 521 523
f 521 526 527
f 521 524 523
f 521 527 524
f 522 523 524
f 525 529 530
f 525 530 526
f 526 530 531
f 526 531 527
f 528 536 529
f 528 532 536
f 529 538 530
f 529 536 538
f 530 540 531
f 530 538 540
f 532 533 534
f 532 534 535
f 532 535 536
f 533 541 534
f 534 542 535
f 535 537 536
f 535 542 543
f 535 543 537
f 536 537 538
f 537 539 538
f 537 543 544
f 537 544 539
f 538 539 540
f 545 546 547
f 545 547 548
f 545 549 550
f 545 551 552
f 545 552 549
f 545 553 546
f 545 548 551
f 546 553 558
f 549 575 550
f 550 570 569
f 550 575 576
f 550 577 570
f 550 576 577
f 553 554 555
f 553 555 556
f 553 557 558
f 553 559 554
f 553 556 557
f 554 559 563
f 559 560 561
f 559 561 562
f 559 564 560
f 559 562 563
f 560 564 568
f 564 565 566
f 564 566 567
f 564 569 565
f 564 567 568
f 565 569 574
f 569 570 571
f 569 571 572
f 569 573 574
f 569 572 573
f 578 579 580
f 579 757 580
f 580 757 758
f 581 582 583
f 582 782 583
f 583 782 783
f 590 592 591
f 591 592 593
f 592 594 593
f 593 594 595
f 594 596 595
f 595 596 597
f 595 597 598
f 597 599 598
f 598 599 600
f 599 601 600
f 600 601 602
f 601 603 602
f 602 603 604
f 602 604 605
f 604 606 605
f 605 606 607
f 606 608 607
f 607 608 609
f 608 610 609
f 609 610 611
f 609 611 612
f 611 613 612
f 612 613 614
f 613 615 614
f 614 615 616
f 615 617 616
f 616 617 618
f 616 618 619
f 618 620 619
f 619 620 621
f 620 622 621
f 621 622 623
f 622 624 623
f 623 624 625
f 623 625 626
f 625 627 626
f 626 627 628
f 627 629 628
f 628 629 630
f 629 631 630
f 630 631 632
f 630 632 633
f 632 634 633
f 633 634 635
f 634 636 635
f 635 636 637
f 636 638 637
f 637 638 639
f 637 639 640
f 639 641 640
f 640 641 642
f 641 643 642
f 642 643 644
f 643 645 644
f 644 645 646
f 644 646 647
f 646 648 647
f 647 648 649
f 653 654 655
f 654 656 655
f 654 657 656
f 656 657 658
f 657 659 658
f 658 659 660
f 659 661 660
f 660 661 662
f 661 663 662
f 662 663 664
f 663 665 664
f 664 665 666
f 665 667 666
f 666 667 668
f 667 669 668
f 668 669 670
f 669 671 670
f 670 671 672
f 671 673 672
f 672 673 674
f 673 675 674
f 674 675 676
f 683 684 685
f 683 686 684
f 683 756 686
f 684 687 685
f 685 687 688
f 686 756 755
f 687 689 688
f 688 689 690
f 689 691 690
f 690 691 692
f 691 693 692
f 692 693 694
f 693 695 694
f 694 695 696
f 695 697 696
f 696 697 698
f 697 699 698
f 698 699 700
f 699 701 700
f 700 701 702
f 701 703 702
f 702 703 704
f 703 705 704
f 704 705 706
f 705 707 706
f 706 707 708
f 707 709 708
f 708 709 710
f 709 711 710
f 710 711 712
f 711 713 712
f 712 713 714
f 713 715 714
f 714 715 716
f 715 717 716
f 716 717 718
f 717 719 718
f 718 719 720
f 719 721 720
f 720 721 722
f 721 723 722
f 724 725 726
f 725 727 726
f 726 727 728
f 727 729 728
f 728 729 730
f 729 731 730
f 730 731 732
f 731 733 732
f 732 733 734
f 733 735 734
f 734 735 736
f 735 737 736
f 736 737 738
f 737 739 738
f 738 739 740
f 739 741 740
f 740 741 742
f 741 743 742
f 742 743 744
f 743 745 744
f 744 745 746
f 745 747 746
f 746 747 748
f 747 749 748
f 748 749 750
f 749 751 750
f 750 751 752
f 751 753 752
f 752 753 754
f 753 755 754
f 754 755 756
f 757 759 758
f 758 759 760
f 761 762 763
f 762 764 763
f 763 764 765
f 764 766 765
f 765 766 767
f 768 769 770
f 769 771 770
f 770 771 772
f 771 773 772
f 772 773 774
f 775 776 777
f 776 778 777
f 777 778 779
f 778 780 779
f 779 780 781
f 782 784 783
f 783 784 785
f 786 787 788
f 787 789 788
f 788 789 790
f 789 791 790
f 790 791 792
f 793 794 795
f 793 796 794
f 795 797 798
f 796 801 804
f 798 835 834
f 799 800 801
f 799 802 803
f 802 805 803
f 805 808 811
f 806 807 808
f 806 809 810
f 809 812 810
f 812 815 818
f 813 814 815
f 813 816 817
f 816 819 817
f 819 822 825
f 820 821 822
f 820 823 824
f 823 826 824
f 827 828 829
f 827 830 831
f 829 832 833
f 830 834 831