# Part6
# Autodesk dbId: 47
# Units: mm
o 047_Part6
v 15.590000 37.400699 -4.109129
v 15.590000 29.505158 -1.895436
v 12.790000 37.400699 -4.109129
v 12.790000 29.505158 -1.895436
v 15.590000 36.590811 -6.997742
v 15.590000 37.400699 -4.109129
v 12.790000 36.590811 -6.997742
v 12.790000 37.400699 -4.109129
v 15.589999 28.695270 -4.784049
v 15.590000 36.590811 -6.997742
v 12.790000 28.695270 -4.784049
v 12.790000 36.590811 -6.997742
v 12.789997 -21.537569 9.689318
v 15.589997 -21.807585 9.804835
v 15.589997 -21.537569 9.689318
v 12.789997 -21.807585 9.804834
v 15.589997 -22.038497 9.986298
v 12.789997 -22.038497 9.986298
v 15.589997 -22.214575 10.221343
v 12.789997 -22.214575 10.221343
v 15.589997 -22.323820 10.493952
v 12.789997 -22.323820 10.493952
v 15.589997 -22.358788 10.785547
v 12.789997 -22.358788 10.785547
v 15.589997 -22.317093 11.076256
v 12.789997 -22.317093 11.076256
v 15.589997 -22.201578 11.346268
v 12.789997 -22.201577 11.346268
v 15.589997 -22.020112 11.577181
v 12.789997 -22.020112 11.577181
v 15.589997 -21.785068 11.753261
v 12.789997 -21.785068 11.753261
v 15.589997 -21.512460 11.862507
v 12.789997 -21.512460 11.862507
v 15.589997 -21.220866 11.897474
v 12.789997 -21.220866 11.897474
v 15.589997 -20.930154 11.855777
v 12.789997 -20.930154 11.855777
v 15.589998 -15.875084 10.438475
v 15.589997 -20.930154 11.855777
v 12.789998 -15.875084 10.438475
v 12.789997 -20.930154 11.855777
v 12.789998 -15.605071 10.322959
v 15.589998 -15.374156 10.141495
v 15.589998 -15.605071 10.322959
v 12.789998 -15.875084 10.438475
v 12.789998 -15.374156 10.141495
v 15.589998 -15.198078 9.906450
v 12.789998 -15.198078 9.906450
v 15.589998 -15.088833 9.633841
v 12.789998 -15.088833 9.633841
v 15.589998 -15.053868 9.342247
v 12.789998 -15.053868 9.342247
v 15.589998 -15.095563 9.051538
v 12.789998 -15.095563 9.051538
v 15.589998 -15.211078 8.781526
v 12.789998 -15.211078 8.781526
v 15.589998 -15.392541 8.550612
v 12.789998 -15.392541 8.550612
v 15.589998 -15.627586 8.374532
v 12.789998 -15.627586 8.374532
v 15.589998 -15.900194 8.265286
v 12.789998 -15.900193 8.265286
v 15.589998 -16.191790 8.230320
v 12.789998 -16.191790 8.230320
v 15.589998 -16.482500 8.272016
v 12.789998 -16.482500 8.272016
v 15.590000 46.055743 -9.911089
v 12.790000 46.507955 -9.975947
v 12.790000 46.055743 -9.911089
v 15.590000 46.507955 -9.975947
v 12.790000 46.961547 -9.921555
v 15.590000 46.961547 -9.921555
v 12.790000 47.385604 -9.751617
v 15.590000 47.385604 -9.751617
v 12.790000 47.751233 -9.477716
v 15.590000 47.751233 -9.477716
v 12.790000 48.033507 -9.118516
v 15.590000 48.033507 -9.118516
v 12.790000 48.213200 -8.698499
v 15.590000 48.213200 -8.698498
v 12.790000 48.278057 -8.246284
v 15.590000 48.278057 -8.246284
v 12.790000 48.223667 -7.792692
v 15.590000 48.223667 -7.792692
v 12.790000 48.053727 -7.368633
v 15.590000 48.053727 -7.368633
v 12.790000 47.779828 -7.003007
v 15.590000 47.779828 -7.003007
v 12.790000 47.420629 -6.720731
v 15.590000 47.420628 -6.720731
v 12.790000 47.000612 -6.541041
v 15.590000 47.000612 -6.541040
v 12.790000 46.548397 -6.476181
v 15.590000 46.548397 -6.476181
v 12.790000 46.094803 -6.530573
v 15.590000 46.094803 -6.530573
v 12.790000 45.670746 -6.700511
v 15.590000 45.670746 -6.700511
v 12.790000 45.305120 -6.974412
v 15.590000 45.305120 -6.974412
v 12.790000 45.022843 -7.333611
v 15.590000 45.022843 -7.333611
v 12.790000 44.843153 -7.753630
v 15.590000 44.843153 -7.753630
v 12.790000 44.778293 -8.205844
v 15.590000 44.778293 -8.205844
v 12.790000 44.832686 -8.659436
v 15.590000 44.832686 -8.659436
v 12.790000 45.002623 -9.083495
v 15.590000 45.002623 -9.083495
v 12.790000 45.276522 -9.449120
v 15.590000 45.276522 -9.449120
v 12.790000 45.635724 -9.731398
v 15.590000 45.635724 -9.731398
v 12.790000 46.055743 -9.911089
v 15.589999 17.169614 -1.812212
v 12.789999 17.621828 -1.877072
v 12.789999 17.169614 -1.812212
v 15.589999 17.621828 -1.877072
v 12.789999 18.075420 -1.822679
v 15.589999 18.075420 -1.822679
v 12.789999 18.499478 -1.652742
v 15.589999 18.499478 -1.652742
v 12.789999 18.865105 -1.378841
v 15.589999 18.865105 -1.378841
v 12.789999 19.147381 -1.019641
v 15.589999 19.147381 -1.019641
v 12.789999 19.327072 -0.599623
v 15.589999 19.327072 -0.599623
v 12.789999 19.391931 -0.147408
v 15.589999 19.391931 -0.147408
v 12.789999 19.337539 0.306183
v 15.589999 19.337539 0.306184
v 12.789999 19.167601 0.730242
v 15.589999 19.167601 0.730242
v 12.789999 18.893701 1.095868
v 15.589999 18.893701 1.095868
v 12.789999 18.534502 1.378145
v 15.589999 18.534501 1.378145
v 12.789999 18.114483 1.557836
v 15.589999 18.114483 1.557836
v 12.789999 17.662268 1.622695
v 15.589999 17.662268 1.622695
v 12.789999 17.208677 1.568302
v 15.589999 17.208677 1.568303
v 12.789999 16.784618 1.398365
v 15.589999 16.784618 1.398365
v 12.789999 16.418992 1.124464
v 15.589999 16.418992 1.124464
v 12.789999 16.136715 0.765265
v 15.589999 16.136715 0.765265
v 12.789999 15.957024 0.345246
v 15.589999 15.957024 0.345246
v 12.789999 15.892165 -0.106968
v 15.589999 15.892165 -0.106968
v 12.789999 15.946557 -0.560560
v 15.589999 15.946557 -0.560560
v 12.789999 16.116495 -0.984619
v 15.589999 16.116495 -0.984618
v 12.789999 16.390397 -1.350245
v 15.589999 16.390397 -1.350245
v 12.789999 16.749595 -1.632521
v 15.589999 16.749595 -1.632521
v 12.789999 17.169614 -1.812212
v 15.589998 0.811602 6.149447
v 15.589998 -8.046810 8.633103
v 12.789998 0.811603 6.149447
v 12.789998 -8.046810 8.633103
v 15.589998 0.001715 3.260835
v 15.589998 0.811602 6.149447
v 12.789998 0.001715 3.260835
v 12.789998 0.811603 6.149447
v 15.589998 -8.856697 5.744490
v 15.589998 0.001715 3.260835
v 12.789998 -8.856697 5.744490
v 12.789998 0.001715 3.260835
v 15.589997 -31.446368 10.000890
v 12.789997 -30.541936 9.871171
v 12.789997 -31.446368 10.000890
v 15.589997 -30.541936 9.871171
v 12.789997 -29.634752 9.979956
v 15.589997 -29.634752 9.979956
v 12.789997 -28.786636 10.319831
v 15.589997 -28.786636 10.319831
v 12.789997 -28.055383 10.867633
v 15.589997 -28.055384 10.867633
v 12.789997 -27.490829 11.586032
v 15.589997 -27.490829 11.586032
v 12.789997 -27.131449 12.426069
v 15.589997 -27.131449 12.426069
v 12.789997 -27.001729 13.330497
v 15.589997 -27.001729 13.330497
v 12.789997 -27.110515 14.237681
v 15.589997 -27.110515 14.237681
v 12.789997 -27.450389 15.085798
v 15.589997 -27.450390 15.085798
v 12.789997 -27.998191 15.817050
v 15.589997 -27.998191 15.817050
v 12.789997 -28.716589 16.381604
v 15.589997 -28.716589 16.381604
v 12.789997 -29.556630 16.740986
v 15.589997 -29.556630 16.740987
v 12.789997 -30.461057 16.870704
v 15.589997 -30.461057 16.870705
v 12.789997 -31.368243 16.761920
v 15.589997 -31.368243 16.761920
v 12.789997 -32.216362 16.422046
v 15.589997 -32.216362 16.422046
v 12.789997 -32.947609 15.874242
v 15.589997 -32.947609 15.874242
v 12.789997 -33.512166 15.155844
v 15.589997 -33.512166 15.155844
v 12.789997 -33.871546 14.315807
v 15.589997 -33.871546 14.315807
v 12.789997 -34.001266 13.411379
v 15.589997 -34.001266 13.411379
v 12.789997 -33.892478 12.504194
v 15.589997 -33.892478 12.504194
v 12.789997 -33.552608 11.656078
v 15.589997 -33.552608 11.656078
v 12.789997 -33.004804 10.924826
v 15.589997 -33.004804 10.924826
v 12.789997 -32.286403 10.360271
v 15.589997 -32.286403 10.360272
v 12.789997 -31.446368 10.000890
v 12.790000 44.908403 -14.003290
v 12.790000 48.014023 -14.039176
v 12.790000 46.458848 -14.225664
v 12.789997 -32.121274 7.593713
v 12.789997 -34.792880 9.177603
v 12.789997 -30.541936 9.871171
v 12.789997 -33.561337 8.209796
v 12.789997 -34.694834 17.662317
v 12.789997 -30.461057 16.870704
v 12.789997 -31.368243 16.761920
v 12.789997 -32.216362 16.422046
v 12.789997 -33.441258 18.601407
v 12.789997 -29.556630 16.740986
v 12.789997 -31.987347 19.184050
v 12.789997 -28.716589 16.381604
v 12.789997 -30.432172 19.370538
v 12.789997 -28.881724 19.148164
v 12.789998 -8.046810 8.633103
v 12.790001 50.819556 -4.032728
v 12.790000 48.147953 -2.448839
v 12.790001 49.588013 -3.064921
v 12.790001 51.758642 -5.286302
v 12.790000 29.505158 -1.895436
v 15.590000 48.147953 -2.448839
v 15.590001 50.819556 -4.032728
v 15.590000 49.588013 -3.064921
v 15.589997 -28.881724 19.148164
v 15.589997 -30.432172 19.370538
v 15.589997 -31.987347 19.184050
v 15.589997 -29.556630 16.740987
v 15.589997 -28.716589 16.381604
v 15.589997 -33.441258 18.601407
v 15.589997 -30.461057 16.870705
v 15.589997 -34.694834 17.662317
v 15.589997 -32.216362 16.422046
v 15.589997 -31.368243 16.761920
v 15.589997 -35.662642 16.430777
v 15.589997 -33.512166 15.155844
v 15.589997 -32.947609 15.874242
v 15.589997 -36.278723 14.990713
v 15.589997 -34.001266 13.411379
v 15.589997 -33.871546 14.315807
v 15.589997 -36.501099 13.440265
v 15.589997 -33.552608 11.656078
v 15.589997 -33.892478 12.504194
v 15.589997 -36.314609 11.885092
v 15.589997 -32.286403 10.360272
v 15.589997 -33.004804 10.924826
v 15.589997 -35.731966 10.431177
v 15.589997 -31.446368 10.000890
v 15.589997 -34.792880 9.177603
v 15.589997 -30.541936 9.871171
v 15.589997 -33.561337 8.209796
v 15.589997 -32.121274 7.593713
v 15.589998 -8.856697 5.744490
v 15.590000 48.014023 -14.039175
v 15.590000 44.908402 -14.003290
v 15.590000 46.458848 -14.225664
v 15.590000 49.467934 -13.456532
v 15.589999 28.695270 -4.784049
v 15.590000 29.505158 -1.895436
v 15.589999 28.695270 -4.784049
v 12.790000 29.505158 -1.895436
v 12.790000 28.695270 -4.784049
v 15.589998 -15.875084 10.438475
v 15.589997 -21.537569 9.689318
v 15.589998 -16.482500 8.272016
v 12.789997 -21.537569 9.689318
v 12.789998 -16.482500 8.272016
v 15.590000 46.055743 -9.911089
v 15.589999 17.169614 -1.812212
v 15.589998 -8.046810 8.633103
v 15.589998 -8.856697 5.744490
v 12.789998 -8.046810 8.633103
v 12.789998 -8.856697 5.744490
v 15.589997 -31.446368 10.000890
v 12.790000 36.590811 -6.997742
v 12.790000 49.467934 -13.456533
v 12.790000 28.695270 -4.784049
v 12.790000 44.843153 -7.753630
v 12.790000 44.778293 -8.205844
v 12.790000 44.832686 -8.659436
v 12.790000 50.721510 -12.517443
v 12.790000 45.002623 -9.083495
v 12.790000 45.276522 -9.449120
v 12.790000 45.635724 -9.731398
v 12.789999 19.327072 -0.599623
v 12.789999 18.075420 -1.822679
v 12.789999 18.499478 -1.652742
v 12.789999 18.865105 -1.378841
v 12.789999 19.147381 -1.019641
v 12.790000 37.400699 -4.109129
v 12.790001 52.341285 -6.740217
v 12.790000 47.000612 -6.541041
v 12.790000 46.548397 -6.476181
v 12.790000 46.094803 -6.530573
v 12.790000 45.670746 -6.700511
v 12.790000 45.305120 -6.974412
v 12.790000 45.022843 -7.333611
v 12.789999 19.391931 -0.147408
v 12.789999 19.337539 0.306183
v 12.789999 19.167601 0.730242
v 12.789999 18.893701 1.095868
v 12.789999 18.534502 1.378145
v 12.789999 18.114483 1.557836
v 12.790001 52.527775 -8.295391
v 12.790000 47.420629 -6.720731
v 12.790000 47.779828 -7.003007
v 12.790000 48.053727 -7.368633
v 12.790000 48.223667 -7.792692
v 12.790001 52.305399 -9.845839
v 12.790000 48.278057 -8.246284
v 12.790000 48.213200 -8.698499
v 12.790000 48.033507 -9.118516
v 12.790000 47.751233 -9.477716
v 12.790001 51.689318 -11.285902
v 12.790000 47.385604 -9.751617
v 12.790000 46.961547 -9.921555
v 12.790000 46.507955 -9.975947
v 12.790000 46.055743 -9.911089
v 12.789998 -16.191790 8.230320
v 12.789998 -8.856697 5.744490
v 12.789998 -16.482500 8.272016
v 12.789997 -29.634752 9.979956
v 12.789997 -28.786636 10.319831
v 12.789997 -21.537569 9.689318
v 12.789997 -28.055383 10.867633
v 12.789997 -21.807585 9.804834
v 12.789997 -27.490829 11.586032
v 12.789997 -22.038497 9.986298
v 12.789997 -22.214575 10.221343
v 12.789997 -22.323820 10.493952
v 12.789997 -22.358788 10.785547
v 12.789997 -27.131449 12.426069
v 12.789997 -22.317093 11.076256
v 12.789997 -22.201577 11.346268
v 12.789997 -27.001729 13.330497
v 12.789997 -22.020112 11.577181
v 12.789997 -21.785068 11.753261
v 12.789997 -21.512460 11.862507
v 12.789997 -21.220866 11.897474
v 12.789997 -27.110515 14.237681
v 12.789997 -20.930154 11.855777
v 12.789997 -27.450389 15.085798
v 12.789998 -15.875084 10.438475
v 12.789997 -27.998191 15.817050
v 12.789998 -15.605071 10.322959
v 12.789998 -15.374156 10.141495
v 12.789998 -15.198078 9.906450
v 12.789998 -15.088833 9.633841
v 12.789998 -15.053868 9.342247
v 12.789998 -15.095563 9.051538
v 12.789998 -15.211078 8.781526
v 12.789998 -15.392541 8.550612
v 12.789998 -15.627586 8.374532
v 12.789998 -15.900193 8.265286
v 12.789999 17.621828 -1.877072
v 12.789999 17.169614 -1.812212
v 12.789998 0.811603 6.149447
v 12.789999 17.662268 1.622695
v 12.789999 17.208677 1.568302
v 12.789999 16.784618 1.398365
v 12.789999 16.418992 1.124464
v 12.789999 16.136715 0.765265
v 12.789999 15.957024 0.345246
v 12.789998 0.001715 3.260835
v 12.789999 15.892165 -0.106968
v 12.789999 15.946557 -0.560560
v 12.789999 16.116495 -0.984619
v 12.789999 16.390397 -1.350245
v 12.789999 16.749595 -1.632521
v 12.789997 -31.446368 10.000890
v 12.789997 -35.662642 16.430777
v 12.789997 -35.731966 10.431177
v 12.789997 -32.286403 10.360271
v 12.789997 -36.314609 11.885092
v 12.789997 -33.004804 10.924826
v 12.789997 -33.552608 11.656078
v 12.789997 -36.501099 13.440265
v 12.789997 -33.892478 12.504194
v 12.789997 -34.001266 13.411379
v 12.789997 -36.278723 14.990713
v 12.789997 -33.871546 14.315807
v 12.789997 -33.512166 15.155844
v 12.789997 -32.947609 15.874242
v 15.590000 36.590811 -6.997742
v 15.589999 19.327072 -0.599623
v 15.589999 19.147381 -1.019641
v 15.589999 18.865105 -1.378841
v 15.589999 18.499478 -1.652742
v 15.589999 18.075420 -1.822679
v 15.589999 17.621828 -1.877072
v 15.589999 17.169614 -1.812212
v 15.590000 50.721510 -12.517443
v 15.590000 46.055743 -9.911089
v 15.590000 44.843153 -7.753630
v 15.590000 37.400699 -4.109129
v 15.590000 45.635724 -9.731398
v 15.590000 45.276522 -9.449120
v 15.590000 45.002623 -9.083495
v 15.590000 44.832686 -8.659436
v 15.590000 44.778293 -8.205844
v 15.590000 51.689318 -11.285902
v 15.590000 46.507955 -9.975947
v 15.590000 46.961547 -9.921555
v 15.590000 47.385604 -9.751617
v 15.590000 47.751233 -9.477716
v 15.590001 52.305399 -9.845839
v 15.590000 48.033507 -9.118516
v 15.590000 48.213200 -8.698498
v 15.590000 48.278057 -8.246284
v 15.590000 48.223667 -7.792692
v 15.590001 52.527775 -8.295391
v 15.590000 48.053727 -7.368633
v 15.590000 47.779828 -7.003007
v 15.590000 47.420628 -6.720731
v 15.590000 47.000612 -6.541040
v 15.590001 52.341285 -6.740217
v 15.590001 51.758642 -5.286302
v 15.590000 29.505158 -1.895436
v 15.590000 45.022843 -7.333611
v 15.590000 45.305120 -6.974412
v 15.590000 45.670746 -6.700511
v 15.590000 46.094803 -6.530573
v 15.590000 46.548397 -6.476181
v 15.589999 18.893701 1.095868
v 15.589999 19.167601 0.730242
v 15.589999 19.337539 0.306184
v 15.589999 19.391931 -0.147408
v 15.589998 -15.605071 10.322959
v 15.589998 -8.046810 8.633103
v 15.589998 -15.875084 10.438475
v 15.589997 -27.998191 15.817050
v 15.589997 -27.450390 15.085798
v 15.589997 -20.930154 11.855777
v 15.589997 -27.110515 14.237681
v 15.589997 -21.220866 11.897474
v 15.589997 -27.001729 13.330497
v 15.589997 -21.512460 11.862507
v 15.589997 -21.785068 11.753261
v 15.589997 -22.020112 11.577181
v 15.589997 -22.201578 11.346268
v 15.589997 -27.131449 12.426069
v 15.589997 -22.317093 11.076256
v 15.589997 -22.358788 10.785547
v 15.589997 -27.490829 11.586032
v 15.589997 -22.323820 10.493952
v 15.589997 -22.214575 10.221343
v 15.589997 -22.038497 9.986298
v 15.589997 -21.807585 9.804835
v 15.589997 -28.055384 10.867633
v 15.589997 -21.537569 9.689318
v 15.589997 -28.786636 10.319831
v 15.589998 -16.482500 8.272016
v 15.589997 -29.634752 9.979956
v 15.589998 -16.191790 8.230320
v 15.589998 -15.900194 8.265286
v 15.589998 -15.627586 8.374532
v 15.589998 -15.392541 8.550612
v 15.589998 -15.211078 8.781526
v 15.589998 -15.095563 9.051538
v 15.589998 -15.053868 9.342247
v 15.589998 -15.088833 9.633841
v 15.589998 -15.198078 9.906450
v 15.589998 -15.374156 10.141495
v 15.589999 16.749595 -1.632521
v 15.589998 0.001715 3.260835
v 15.589999 16.390397 -1.350245
v 15.589999 16.116495 -0.984618
v 15.589999 15.946557 -0.560560
v 15.589999 15.892165 -0.106968
v 15.589999 15.957024 0.345246
v 15.589998 0.811602 6.149447
v 15.589999 16.136715 0.765265
v 15.589999 16.418992 1.124464
v 15.589999 16.784618 1.398365
v 15.589999 17.208677 1.568303
v 15.589999 17.662268 1.622695
v 15.589999 18.114483 1.557836
v 15.589999 18.534501 1.378145
v 12.790000 48.147953 -2.448839
v 12.789997 -28.881724 19.148164
v 15.590000 48.147953 -2.448839
v 15.589997 -28.881724 19.148164
v 15.589997 -28.881724 19.148164
v 12.789997 -28.881724 19.148164
v 15.589997 -30.432172 19.370538
v 12.789997 -30.432172 19.370538
v 15.589997 -31.987347 19.184050
v 12.789997 -31.987347 19.184050
v 15.589997 -33.441258 18.601407
v 12.789997 -33.441258 18.601407
v 15.589997 -34.694834 17.662317
v 12.789997 -34.694834 17.662317
v 15.589997 -35.662642 16.430777
v 12.789997 -35.662642 16.430777
v 15.589997 -36.278723 14.990713
v 12.789997 -36.278723 14.990713
v 15.589997 -36.501099 13.440265
v 12.789997 -36.501099 13.440265
v 15.589997 -36.314609 11.885092
v 12.789997 -36.314609 11.885092
v 15.589997 -35.731966 10.431177
v 12.789997 -35.731966 10.431177
v 15.589997 -34.792880 9.177603
v 12.789997 -34.792880 9.177603
v 15.589997 -33.561337 8.209796
v 12.789997 -33.561337 8.209796
v 15.589997 -32.121274 7.593713
v 12.789997 -32.121274 7.593713
v 12.789997 -32.121274 7.593713
v 12.790000 44.908403 -14.003290
v 15.589997 -32.121274 7.593713
v 15.590000 44.908402 -14.003290
v 12.790000 48.147953 -2.448839
v 15.590000 48.147953 -2.448839
v 12.790001 49.588013 -3.064921
v 15.590000 49.588013 -3.064921
v 12.790001 50.819556 -4.032728
v 15.590001 50.819556 -4.032728
v 12.790001 51.758642 -5.286302
v 15.590001 51.758642 -5.286302
v 12.790001 52.341285 -6.740217
v 15.590001 52.341285 -6.740217
v 12.790001 52.527775 -8.295391
v 15.590001 52.527775 -8.295391
v 12.790001 52.305399 -9.845839
v 15.590001 52.305399 -9.845839
v 12.790001 51.689318 -11.285902
v 15.590000 51.689318 -11.285902
v 12.790000 50.721510 -12.517443
v 15.590000 50.721510 -12.517443
v 12.790000 49.467934 -13.456533
v 15.590000 49.467934 -13.456532
v 12.790000 48.014023 -14.039176
v 15.590000 48.014023 -14.039175
v 12.790000 46.458848 -14.225664
v 15.590000 46.458848 -14.225664
v 12.790000 44.908403 -14.003290
v 15.590000 44.908402 -14.003290
f 1 2 3
f 2 4 3
f 5 6 7
f 6 8 7
f 9 10 11
f 10 12 11
f 13 14 15
f 13 16 14
f 14 16 17
f 16 18 17
f 17 18 19
f 18 20 19
f 19 20 21
f 20 22 21
f 21 22 23
f 22 24 23
f 23 24 25
f 24 26 25
f 25 26 27
f 26 28 27
f 27 28 29
f 28 30 29
f 29 30 31
f 30 32 31
f 31 32 33
f 32 34 33
f 33 34 35
f 34 36 35
f 35 36 37
f 36 38 37
f 39 40 41
f 40 42 41
f 43 44 45
f 43 45 46
f 43 47 44
f 44 47 48
f 45 291 46
f 47 49 48
f 48 49 50
f 49 51 50
f 50 51 52
f 51 53 52
f 52 53 54
f 53 55 54
f 54 55 56
f 55 57 56
f 56 57 58
f 57 59 58
f 58 59 60
f 59 61 60
f 60 61 62
f 61 63 62
f 62 63 64
f 63 65 64
f 64 65 66
f 65 67 66
f 68 69 70
f 68 71 69
f 69 71 72
f 71 73 72
f 72 73 74
f 73 75 74
f 74 75 76
f 75 77 76
f 76 77 78
f 77 79 78
f 78 79 80
f 79 81 80
f 80 81 82
f 81 83 82
f 82 83 84
f 83 85 84
f 84 85 86
f 85 87 86
f 86 87 88
f 87 89 88
f 88 89 90
f 89 91 90
f 90 91 92
f 91 93 92
f 92 93 94
f 93 95 94
f 94 95 96
f 95 97 96
f 96 97 98
f 97 99 98
f 98 99 100
f 99 101 100
f 100 101 102
f 101 103 102
f 102 103 104
f 103 105 104
f 104 105 106
f 105 107 106
f 106 107 108
f 107 109 108
f 108 109 110
f 109 111 110
f 110 111 112
f 111 113 112
f 112 113 114
f 113 115 114
f 114 115 116
f 115 296 116
f 117 118 119
f 117 120 118
f 118 120 121
f 120 122 121
f 121 122 123
f 122 124 123
f 123 124 125
f 124 126 125
f 125 126 127
f 126 128 127
f 127 128 129
f 128 130 129
f 129 130 131
f 130 132 131
f 131 132 133
f 132 134 133
f 133 134 135
f 134 136 135
f 135 136 137
f 136 138 137
f 137 138 139
f 138 140 139
f 139 140 141
f 140 142 141
f 141 142 143
f 142 144 143
f 143 144 145
f 144 146 145
f 145 146 147
f 146 148 147
f 147 148 149
f 148 150 149
f 149 150 151
f 150 152 151
f 151 152 153
f 152 154 153
f 153 154 155
f 154 156 155
f 155 156 157
f 156 158 157
f 157 158 159
f 158 160 159
f 159 160 161
f 160 162 161
f 161 162 163
f 162 164 163
f 163 164 165
f 164 297 165
f 166 167 168
f 167 169 168
f 170 171 172
f 171 173 172
f 174 175 176
f 175 177 176
f 178 179 180
f 178 181 179
f 179 181 182
f 181 183 182
f 182 183 184
f 183 185 184
f 184 185 186
f 185 187 186
f 186 187 188
f 187 189 188
f 188 189 190
f 189 191 190
f 190 191 192
f 191 193 192
f 192 193 194
f 193 195 194
f 194 195 196
f 195 197 196
f 196 197 198
f 197 199 198
f 198 199 200
f 199 201 200
f 200 201 202
f 201 203 202
f 202 203 204
f 203 205 204
f 204 205 206
f 205 207 206
f 206 207 208
f 207 209 208
f 208 209 210
f 209 211 210
f 210 211 212
f 211 213 212
f 212 213 214
f 213 215 214
f 214 215 216
f 215 217 216
f 216 217 218
f 217 219 218
f 218 219 220
f 219 221 220
f 220 221 222
f 221 223 222
f 222 223 224
f 223 225 224
f 224 225 226
f 225 302 226
f 227 228 229
f 227 305 228
f 227 384 305
f 227 230 384
f 228 305 304
f 230 231 232
f 230 233 231
f 230 232 348
f 230 392 384
f 230 348 392
f 231 398 232
f 231 400 398
f 232 350 348
f 234 235 236
f 234 236 237
f 234 238 235
f 234 237 399
f 235 238 239
f 237 411 399
f 238 240 239
f 239 240 241
f 240 242 243
f 240 243 241
f 241 243 244
f 241 244 372
f 243 331 385
f 243 246 331
f 243 385 244
f 244 370 372
f 244 371 370
f 244 373 371
f 244 374 373
f 244 375 374
f 244 376 375
f 244 377 376
f 244 378 377
f 244 348 378
f 245 246 247
f 245 248 249
f 245 249 246
f 246 249 331
f 248 319 318
f 248 318 249
f 249 305 313
f 249 313 326
f 249 326 327
f 249 328 329
f 249 329 330
f 249 327 328
f 249 330 331
f 250 251 252
f 250 446 251
f 250 505 446
f 250 253 505
f 251 446 445
f 253 254 255
f 253 255 257
f 253 257 457
f 253 499 505
f 253 457 499
f 255 256 257
f 255 258 256
f 256 258 259
f 257 459 457
f 258 260 259
f 259 260 262
f 260 261 262
f 260 263 261
f 261 263 265
f 263 264 265
f 263 266 264
f 264 266 268
f 266 267 268
f 266 269 267
f 267 269 271
f 269 270 271
f 269 272 270
f 270 272 274
f 272 273 274
f 272 275 273
f 273 275 276
f 275 277 276
f 276 277 278
f 277 279 280
f 277 280 278
f 278 280 281
f 278 281 481
f 280 493 281
f 280 419 493
f 280 283 419
f 281 479 481
f 281 480 479
f 281 482 480
f 281 483 482
f 281 484 483
f 281 485 484
f 281 486 485
f 281 487 486
f 281 457 487
f 282 283 284
f 282 285 286
f 282 286 283
f 283 286 419
f 285 412 286
f 285 420 412
f 286 413 414
f 286 414 415
f 286 416 417
f 286 417 418
f 286 446 413
f 286 415 416
f 286 418 419
f 287 288 289
f 288 290 289
f 292 293 294
f 293 295 294
f 298 299 300
f 299 301 300
f 303 304 305
f 303 306 307
f 303 307 308
f 303 309 304
f 303 310 311
f 303 311 312
f 303 318 306
f 303 308 310
f 303 346 309
f 303 312 346
f 305 314 315
f 305 315 316
f 305 317 313
f 305 384 383
f 305 383 314
f 305 316 317
f 306 318 325
f 309 346 342
f 318 319 320
f 318 321 322
f 318 322 323
f 318 324 325
f 318 320 321
f 318 323 324
f 319 332 320
f 320 332 333
f 331 386 385
f 332 334 333
f 332 335 334
f 332 336 335
f 332 337 336
f 336 337 338
f 337 339 338
f 337 340 339
f 337 341 340
f 337 342 341
f 341 342 343
f 342 344 343
f 342 345 344
f 342 346 345
f 347 348 349
f 347 382 348
f 348 351 349
f 348 379 378
f 348 380 379
f 348 381 380
f 348 382 381
f 348 350 351
f 349 351 352
f 351 353 352
f 352 353 354
f 353 355 354
f 354 355 356
f 355 357 356
f 355 358 357
f 355 359 358
f 355 360 359
f 359 360 361
f 360 362 361
f 360 363 362
f 362 363 364
f 363 365 364
f 363 366 365
f 363 367 366
f 363 368 367
f 367 368 369
f 368 370 369
f 369 370 371
f 384 392 397
f 385 386 387
f 385 387 388
f 385 388 389
f 385 390 391
f 385 391 392
f 385 389 390
f 391 393 392
f 392 393 394
f 392 395 396
f 392 396 397
f 392 394 395
f 398 400 401
f 399 410 408
f 399 411 410
f 400 402 401
f 401 402 403
f 402 404 403
f 402 405 404
f 404 405 406
f 405 407 406
f 405 408 407
f 407 408 409
f 408 410 409
f 412 420 421
f 412 422 423
f 412 424 425
f 412 425 426
f 412 427 428
f 412 428 422
f 412 421 424
f 412 426 427
f 413 446 455
f 419 492 493
f 420 429 421
f 421 429 430
f 422 447 423
f 423 443 444
f 423 444 445
f 423 445 446
f 423 447 448
f 423 449 450
f 423 450 451
f 423 448 449
f 423 451 443
f 429 431 430
f 429 432 431
f 429 433 432
f 429 434 433
f 433 434 435
f 434 436 435
f 434 437 436
f 434 438 437
f 434 439 438
f 438 439 440
f 439 441 440
f 439 442 441
f 439 443 442
f 439 444 443
f 446 452 453
f 446 453 454
f 446 505 506
f 446 506 452
f 446 454 455
f 456 457 458
f 456 491 457
f 457 460 458
f 457 488 487
f 457 489 488
f 457 490 489
f 457 491 490
f 457 459 460
f 458 460 461
f 460 462 461
f 461 462 463
f 462 464 463
f 463 464 465
f 464 466 465
f 464 467 466
f 464 468 467
f 464 469 468
f 468 469 470
f 469 471 470
f 469 472 471
f 471 472 473
f 472 474 473
f 472 475 474
f 472 476 475
f 472 477 476
f 476 477 478
f 477 479 478
f 478 479 480
f 492 494 493
f 493 494 495
f 493 495 496
f 493 497 498
f 493 498 499
f 493 496 497
f 498 500 499
f 499 500 501
f 499 502 503
f 499 503 504
f 499 501 502
f 499 504 505
f 507 508 509
f 508 510 509
f 511 512 513
f 512 514 513
f 513 514 515
f 514 516 515
f 515 516 517
f 516 518 517
f 517 518 519
f 518 520 519
f 519 520 521
f 520 522 521
f 521 522 523
f 522 524 523
f 523 524 525
f 524 526 525
f 525 526 527
f 526 528 527
f 527 528 529
f 528 530 529
f 529 530 531
f 530 532 531
f 531 532 533
f 532 534 533
f 533 534 535
f 534 536 535
f 537 538 539
f 538 540 539
f 541 542 543
f 542 544 543
f 543 544 545
f 544 546 545
f 545 546 547
f 546 548 547
f 547 548 549
f 548 550 549
f 549 550 551
f 550 552 551
f 551 552 553
f 552 554 553
f 553 554 555
f 554 556 555
f 555 556 557
f 556 558 557
f 557 558 559
f 558 560 559
f 559 560 561
f 560 562 561
f 561 562 563
f 562 564 563
f 563 564 565
f 564 566 565