# SG90Horn1
# Autodesk dbId: 48
# Units: mm
o 048_SG90Horn1
v 12.790000 -26.024144 12.115613
v 11.389999 -26.029703 12.076852
v 11.389999 -26.024144 12.115613
v 12.790000 -26.029703 12.076852
v 11.389999 -26.025041 12.037972
v 12.790000 -26.025041 12.037972
v 11.389999 -26.010475 12.001624
v 12.790000 -26.010475 12.001624
v 11.389999 -25.986998 11.970285
v 12.790000 -25.986998 11.970285
v 11.389999 -25.956209 11.946090
v 12.790000 -25.956209 11.946090
v 11.389999 -25.920208 11.930688
v 12.790000 -25.920208 11.930688
v 11.389999 -25.881447 11.925128
v 12.790000 -25.881446 11.925128
v 11.389999 -25.842567 11.929791
v 12.790000 -25.842567 11.929791
v 11.389999 -25.806219 11.944357
v 12.790000 -25.806219 11.944357
v 11.389999 -25.774880 11.967834
v 12.790000 -25.774880 11.967834
v 11.389999 -25.750685 11.998622
v 12.790000 -25.750685 11.998622
v 11.389999 -25.735283 12.034624
v 12.790000 -25.735282 12.034624
v 11.389999 -25.729723 12.073385
v 12.790000 -25.729723 12.073385
v 11.389999 -25.734386 12.112265
v 12.790000 -25.734385 12.112265
v 11.389999 -25.748952 12.148612
v 12.790000 -25.748951 12.148612
v 11.389999 -25.772429 12.179952
v 12.790000 -25.772429 12.179952
v 11.389999 -25.803217 12.204147
v 12.790000 -25.803217 12.204147
v 11.389999 -25.839219 12.219549
v 12.790000 -25.839219 12.219549
v 11.389999 -25.877980 12.225108
v 12.790000 -25.877980 12.225108
v 11.389999 -25.916859 12.220446
v 12.790000 -25.916859 12.220446
v 11.389999 -25.953207 12.205880
v 12.790000 -25.953207 12.205880
v 11.389999 -25.984547 12.182403
v 12.790000 -25.984547 12.182403
v 11.389999 -26.008742 12.151614
v 12.790000 -26.008742 12.151614
v 11.389999 -26.024144 12.115613
v 12.789999 -22.654094 11.170744
v 11.389999 -22.659654 11.131983
v 11.389998 -22.654094 11.170744
v 12.789999 -22.659654 11.131983
v 11.389999 -22.654992 11.093103
v 12.789999 -22.654991 11.093103
v 11.389999 -22.640426 11.056755
v 12.789999 -22.640425 11.056755
v 11.389999 -22.616948 11.025416
v 12.789999 -22.616948 11.025416
v 11.389998 -22.586160 11.001221
v 12.789999 -22.586159 11.001221
v 11.389998 -22.550158 10.985819
v 12.789999 -22.550158 10.985819
v 11.389998 -22.511397 10.980259
v 12.789999 -22.511396 10.980259
v 11.389999 -22.472517 10.984922
v 12.789999 -22.472517 10.984922
v 11.389998 -22.436170 10.999488
v 12.789999 -22.436169 10.999488
v 11.389998 -22.404830 11.022965
v 12.789999 -22.404830 11.022965
v 11.389998 -22.380635 11.053753
v 12.789999 -22.380635 11.053753
v 11.389998 -22.365233 11.089755
v 12.789999 -22.365233 11.089755
v 11.389998 -22.359674 11.128516
v 12.789999 -22.359673 11.128516
v 11.389998 -22.364336 11.167396
v 12.789999 -22.364336 11.167395
v 11.389998 -22.378902 11.203744
v 12.789999 -22.378902 11.203743
v 11.389998 -22.402379 11.235083
v 12.789999 -22.402379 11.235083
v 11.389998 -22.433168 11.259278
v 12.789999 -22.433167 11.259278
v 11.389998 -22.469169 11.274680
v 12.789999 -22.469169 11.274680
v 11.389998 -22.507930 11.280239
v 12.789999 -22.507930 11.280239
v 11.389999 -22.546810 11.275577
v 12.789999 -22.546810 11.275577
v 11.389999 -22.583158 11.261011
v 12.789999 -22.583157 11.261011
v 11.389999 -22.614497 11.237534
v 12.789999 -22.614497 11.237534
v 11.389999 -22.638692 11.206745
v 12.789999 -22.638692 11.206745
v 11.389998 -22.654094 11.170744
v 12.789998 -17.599020 9.753440
v 11.389998 -17.604579 9.714679
v 11.389998 -17.599020 9.753440
v 12.789998 -17.604579 9.714679
v 11.389998 -17.599916 9.675800
v 12.789998 -17.599916 9.675799
v 11.389998 -17.585351 9.639452
v 12.789998 -17.585350 9.639452
v 11.389998 -17.561874 9.608112
v 12.789998 -17.561874 9.608112
v 11.389998 -17.531085 9.583917
v 12.789998 -17.531085 9.583917
v 11.389998 -17.495084 9.568515
v 12.789998 -17.495084 9.568515
v 11.389998 -17.456322 9.562956
v 12.789998 -17.456322 9.562956
v 11.389998 -17.417443 9.567618
v 12.789998 -17.417443 9.567618
v 11.389998 -17.381095 9.582184
v 12.789998 -17.381095 9.582184
v 11.389998 -17.349756 9.605661
v 12.789998 -17.349756 9.605661
v 11.389998 -17.325561 9.636450
v 12.789998 -17.325561 9.636450
v 11.389998 -17.310158 9.672451
v 12.789998 -17.310158 9.672451
v 11.389998 -17.304599 9.711213
v 12.789998 -17.304599 9.711213
v 11.389998 -17.309261 9.750092
v 12.789998 -17.309261 9.750092
v 11.389998 -17.323827 9.786440
v 12.789998 -17.323827 9.786440
v 11.389998 -17.347305 9.817779
v 12.789998 -17.347305 9.817779
v 11.389998 -17.378093 9.841974
v 12.789998 -17.378093 9.841974
v 11.389998 -17.414095 9.857377
v 12.789998 -17.414095 9.857377
v 11.389998 -17.452856 9.862936
v 12.789998 -17.452856 9.862936
v 11.389998 -17.491735 9.858274
v 12.789998 -17.491735 9.858274
v 11.389998 -17.528083 9.843708
v 12.789998 -17.528083 9.843707
v 11.389998 -17.559422 9.820230
v 12.789998 -17.559422 9.820230
v 11.389998 -17.583618 9.789442
v 12.789998 -17.583617 9.789442
v 11.389998 -17.599020 9.753440
v 12.789999 -20.969069 10.698309
v 11.389998 -20.974629 10.659548
v 11.389998 -20.969070 10.698309
v 12.789999 -20.974629 10.659548
v 11.389998 -20.969967 10.620669
v 12.789999 -20.969966 10.620669
v 11.389998 -20.955401 10.584321
v 12.789999 -20.955400 10.584321
v 11.389998 -20.931923 10.552981
v 12.789999 -20.931923 10.552981
v 11.389998 -20.901135 10.528786
v 12.789999 -20.901134 10.528786
v 11.389998 -20.865133 10.513384
v 12.789999 -20.865133 10.513384
v 11.389998 -20.826372 10.507825
v 12.789999 -20.826372 10.507825
v 11.389998 -20.787493 10.512487
v 12.789999 -20.787493 10.512487
v 11.389998 -20.751145 10.527053
v 12.789999 -20.751144 10.527053
v 11.389998 -20.719805 10.550530
v 12.789999 -20.719805 10.550530
v 11.389998 -20.695611 10.581319
v 12.789999 -20.695610 10.581319
v 11.389998 -20.680208 10.617320
v 12.789999 -20.680208 10.617320
v 11.389998 -20.674649 10.656082
v 12.789999 -20.674648 10.656082
v 11.389998 -20.679311 10.694961
v 12.789999 -20.679311 10.694961
v 11.389998 -20.693877 10.731309
v 12.789999 -20.693877 10.731309
v 11.389998 -20.717354 10.762648
v 12.789999 -20.717354 10.762648
v 11.389998 -20.748143 10.786843
v 12.789999 -20.748143 10.786843
v 11.389998 -20.784144 10.802246
v 12.789999 -20.784144 10.802246
v 11.389998 -20.822906 10.807805
v 12.789999 -20.822905 10.807805
v 11.389998 -20.861785 10.803143
v 12.789999 -20.861784 10.803142
v 11.389998 -20.898133 10.788577
v 12.789999 -20.898133 10.788577
v 11.389998 -20.929473 10.765099
v 12.789999 -20.929472 10.765099
v 11.389998 -20.953667 10.734311
v 12.789999 -20.953667 10.734311
v 11.389998 -20.969070 10.698309
v 12.789999 -24.339119 11.643178
v 11.389999 -24.344679 11.604417
v 11.389999 -24.339119 11.643178
v 12.789999 -24.344678 11.604417
v 11.389999 -24.340016 11.565538
v 12.789999 -24.340016 11.565538
v 11.389999 -24.325450 11.529190
v 12.789999 -24.325450 11.529190
v 11.389999 -24.301973 11.497850
v 12.789999 -24.301973 11.497850
v 11.389999 -24.271184 11.473655
v 12.789999 -24.271184 11.473655
v 11.389999 -24.235183 11.458253
v 12.789999 -24.235183 11.458253
v 11.389999 -24.196422 11.452694
v 12.789999 -24.196421 11.452694
v 11.389999 -24.157542 11.457356
v 12.789999 -24.157542 11.457356
v 11.389999 -24.121194 11.471922
v 12.789999 -24.121194 11.471922
v 11.389999 -24.089855 11.495399
v 12.789999 -24.089855 11.495399
v 11.389999 -24.065660 11.526188
v 12.789999 -24.065660 11.526188
v 11.389999 -24.050258 11.562190
v 12.789999 -24.050258 11.562190
v 11.389999 -24.044699 11.600951
v 12.789999 -24.044698 11.600951
v 11.389999 -24.049361 11.639830
v 12.789999 -24.049361 11.639830
v 11.389999 -24.063927 11.676178
v 12.789999 -24.063927 11.676178
v 11.389999 -24.087404 11.707517
v 12.789999 -24.087404 11.707517
v 11.389999 -24.118193 11.731713
v 12.789999 -24.118192 11.731712
v 11.389999 -24.154194 11.747115
v 12.789999 -24.154194 11.747115
v 11.389999 -24.192955 11.752674
v 12.789999 -24.192955 11.752674
v 11.389999 -24.231835 11.748012
v 12.789999 -24.231834 11.748012
v 11.389999 -24.268183 11.733446
v 12.789999 -24.268182 11.733446
v 11.389999 -24.299522 11.709968
v 12.789999 -24.299522 11.709968
v 11.389999 -24.323717 11.679180
v 12.789999 -24.323717 11.679180
v 11.389999 -24.339119 11.643178
v 12.789999 -19.284044 10.225875
v 11.389998 -19.289604 10.187114
v 11.389998 -19.284045 10.225875
v 12.789999 -19.289604 10.187114
v 11.389998 -19.284942 10.148234
v 12.789999 -19.284941 10.148234
v 11.389998 -19.270376 10.111886
v 12.789999 -19.270376 10.111886
v 11.389998 -19.246899 10.080547
v 12.789999 -19.246898 10.080547
v 11.389998 -19.216110 10.056352
v 12.789999 -19.216110 10.056352
v 11.389998 -19.180109 10.040950
v 12.789999 -19.180108 10.040950
v 11.389998 -19.141348 10.035390
v 12.789998 -19.141346 10.035390
v 11.389998 -19.102468 10.040053
v 12.789998 -19.102468 10.040052
v 11.389998 -19.066120 10.054619
v 12.789998 -19.066120 10.054618
v 11.389998 -19.034780 10.078096
v 12.789999 -19.034780 10.078096
v 11.389998 -19.010586 10.108884
v 12.789998 -19.010585 10.108884
v 11.389998 -18.995184 10.144886
v 12.789998 -18.995183 10.144886
v 11.389998 -18.989624 10.183647
v 12.789998 -18.989624 10.183647
v 11.389998 -18.994285 10.222526
v 12.789999 -18.994285 10.222526
v 11.389998 -19.008852 10.258874
v 12.789998 -19.008852 10.258874
v 11.389998 -19.032330 10.290214
v 12.789999 -19.032329 10.290214
v 11.389998 -19.063118 10.314409
v 12.789998 -19.063117 10.314409
v 11.389998 -19.099120 10.329811
v 12.789999 -19.099119 10.329811
v 11.389998 -19.137881 10.335370
v 12.789999 -19.137880 10.335370
v 11.389998 -19.176760 10.330708
v 12.789999 -19.176760 10.330708
v 11.389998 -19.213108 10.316142
v 12.789999 -19.213108 10.316142
v 11.389998 -19.244447 10.292665
v 12.789999 -19.244447 10.292665
v 11.389998 -19.268643 10.261876
v 12.789999 -19.268643 10.261876
v 11.389998 -19.284045 10.225875
v 12.390000 -28.238748 12.736527
v 11.390000 -28.151652 13.343786
v 11.389999 -28.238748 12.736527
v 12.390000 -28.151652 13.343786
v 11.390000 -28.224693 13.952896
v 12.390000 -28.224693 13.952896
v 11.390000 -28.452895 14.522346
v 12.390000 -28.452894 14.522346
v 11.390000 -28.820705 15.013330
v 12.390000 -28.820705 15.013330
v 11.390000 -29.303059 15.392387
v 12.390000 -29.303058 15.392387
v 11.390000 -29.867084 15.633686
v 12.390000 -29.867084 15.633686
v 11.390000 -30.474343 15.720783
v 12.390000 -30.474342 15.720783
v 11.390000 -31.083453 15.647742
v 12.390000 -31.083452 15.647742
v 11.390000 -31.652903 15.419540
v 12.390001 -31.652903 15.419540
v 11.390000 -32.143887 15.051730
v 12.390001 -32.143887 15.051729
v 11.390000 -32.522945 14.569376
v 12.390001 -32.522944 14.569376
v 11.390000 -32.764243 14.005351
v 12.390001 -32.764243 14.005351
v 11.390000 -32.851340 13.398092
v 12.390001 -32.851340 13.398092
v 11.390000 -32.778299 12.788982
v 12.390001 -32.778299 12.788982
v 11.390000 -32.550097 12.219532
v 12.390001 -32.550097 12.219532
v 11.390000 -32.182287 11.728548
v 12.390000 -32.182286 11.728548
v 11.390000 -31.699933 11.349491
v 12.390000 -31.699932 11.349491
v 11.390000 -31.135908 11.108192
v 12.390000 -31.135908 11.108191
v 11.390000 -30.528649 11.021095
v 12.390000 -30.528648 11.021095
v 11.390000 -29.919539 11.094136
v 12.390000 -29.919539 11.094136
v 11.390000 -29.350089 11.322338
v 12.390000 -29.350089 11.322338
v 11.390000 -28.859105 11.690148
v 12.390000 -28.859105 11.690148
v 11.389999 -28.480048 12.172502
v 12.390000 -28.480047 12.172502
v 11.389999 -28.238748 12.736527
v 12.390000 -29.346050 13.046984
v 12.390000 -28.151652 13.343786
v 12.390000 -28.238748 12.736527
v 12.390000 -28.480047 12.172502
v 12.390000 -29.301575 13.357073
v 13.090000 -28.286891 12.750025
v 15.090001 -28.523056 12.198000
v 15.090001 -28.286891 12.750025
v 13.090000 -28.523057 12.198000
v 15.090001 -28.894049 11.725909
v 13.090000 -28.894049 11.725910
v 15.090001 -29.374586 11.365925
v 13.090000 -29.374586 11.365925
v 15.090002 -29.931921 11.142578
v 13.090001 -29.931921 11.142579
v 15.090002 -30.528070 11.071091
v 13.090001 -30.528071 11.071091
v 15.090002 -31.122409 11.156335
v 13.090001 -31.122410 11.156335
v 15.090002 -31.674434 11.392500
v 13.090001 -31.674434 11.392500
v 15.090002 -32.146525 11.763492
v 13.090001 -32.146525 11.763493
v 15.090002 -32.506509 12.244030
v 13.090001 -32.506510 12.244030
v 15.090002 -32.729856 12.801364
v 13.090001 -32.729856 12.801364
v 15.090002 -32.801343 13.397514
v 13.090001 -32.801343 13.397514
v 15.090002 -32.716099 13.991852
v 13.090001 -32.716100 13.991853
v 15.090002 -32.479934 14.543877
v 13.090001 -32.479934 14.543877
v 15.090002 -32.108942 15.015968
v 13.090001 -32.108942 15.015968
v 15.090002 -31.628404 15.375953
v 13.090001 -31.628405 15.375953
v 15.090002 -31.071070 15.599299
v 13.090001 -31.071071 15.599299
v 15.090002 -30.474920 15.670786
v 13.090001 -30.474920 15.670786
v 15.090002 -29.880581 15.585543
v 13.090001 -29.880582 15.585543
v 15.090002 -29.328556 15.349377
v 13.090001 -29.328557 15.349377
v 15.090001 -28.856466 14.978385
v 13.090000 -28.856466 14.978385
v 15.090001 -28.496481 14.497848
v 13.090000 -28.496481 14.497848
v 15.090001 -28.273135 13.940513
v 13.090000 -28.273135 13.940514
v 15.090001 -28.201647 13.344363
v 13.090000 -28.201648 13.344364
v 15.090001 -28.286891 12.750025
v 13.090001 -29.346050 13.046984
v 13.090000 -28.523057 12.198000
v 13.090000 -28.286891 12.750025
v 13.090000 -28.201648 13.344364
v 13.090000 -29.469266 12.758971
v 15.090002 -33.823401 14.302310
v 15.090002 -32.716099 13.991852
v 15.090002 -33.545520 14.994646
v 15.090002 -33.945955 13.566423
v 15.090002 -32.801343 13.397514
v 15.090002 -33.907449 12.821396
v 15.090002 -32.729856 12.801364
v 15.090002 -33.709683 12.102065
v 15.090002 -32.506509 12.244030
v 15.090002 -33.361908 11.442065
v 15.090002 -32.146525 11.763492
v 15.090002 -32.880382 10.872257
v 15.090002 -31.674434 11.392500
v 15.090002 -32.287621 10.419284
v 15.090002 -31.611344 10.104328
v 15.090002 -31.122409 11.156335
v 15.090002 -30.883172 9.942115
v 15.090002 -30.528070 11.071091
v 15.090001 -30.137153 9.940230
v 15.090002 -29.931921 11.142578
v 15.090001 -29.408170 10.098761
v 15.090001 -29.374586 11.365925
v 15.090001 -28.730310 10.410295
v 15.090001 -28.894049 11.725909
v 15.090001 -28.135268 10.860266
v 15.090001 -27.650869 11.427632
v 15.090001 -28.523056 12.198000
v 15.090001 -27.299761 12.085866
v 15.090001 -27.449303 14.979240
v 15.090001 -28.496481 14.497848
v 15.090001 -28.273135 13.940513
v 15.090001 -27.866399 15.597770
v 15.090001 -28.856466 14.978385
v 15.090001 -28.406709 16.112176
v 15.090002 -29.328556 15.349377
v 15.090002 -29.044969 16.498404
v 15.090002 -29.880581 15.585543
v 15.090002 -29.751334 16.738396
v 15.090002 -30.474920 15.670786
v 15.090002 -30.492776 16.820929
v 15.090002 -31.234627 16.742144
v 15.090002 -31.071070 15.599299
v 15.090002 -31.942196 16.505726
v 15.090002 -31.628404 15.375953
v 15.090002 -32.582400 16.122728
v 15.090002 -32.108942 15.015968
v 15.090002 -33.125304 15.611060
v 15.090002 -32.479934 14.543877
v 11.389999 -27.446369 14.973659
v 11.389999 -25.839219 12.219549
v 11.390000 -28.224693 13.952896
v 11.390000 -28.452895 14.522346
v 11.389998 -22.469169 11.274680
v 11.389999 -24.154194 11.747115
v 11.390000 -28.820705 15.013330
v 11.390000 -29.303059 15.392387
v 11.389999 -27.862703 15.593388
v 11.389998 -16.851008 11.619695
v 11.389997 -15.993529 11.078709
v 11.389998 -19.099120 10.329811
v 11.389997 -16.387419 11.404439
v 11.389997 -15.695065 10.663777
v 11.389998 -19.063118 10.314409
v 11.389997 -15.511519 10.186744
v 11.389998 -17.414095 9.857377
v 11.389997 -15.454881 9.678766
v 11.389998 -17.323827 9.786440
v 11.389998 -17.347305 9.817779
v 11.389998 -17.378093 9.841974
v 11.389997 -15.528846 9.173021
v 11.389998 -17.310158 9.672451
v 11.389998 -17.304599 9.711213
v 11.389998 -17.309261 9.750092
v 11.389998 -17.381095 9.582184
v 11.389998 -17.349756 9.605661
v 11.389998 -17.325561 9.636450
v 11.389997 -15.728588 8.702539
v 11.389998 -17.417443 9.567618
v 11.389997 -16.916523 7.786683
v 11.389998 -17.930262 7.770335
v 11.389998 -19.180109 10.040950
v 11.389997 -17.422338 7.713205
v 11.389998 -20.865133 10.513384
v 11.389999 -28.724902 10.413537
v 11.389999 -25.920208 11.930688
v 11.389999 -24.235183 11.458253
v 11.390000 -31.607545 10.103039
v 11.390000 -31.135908 11.108192
v 11.390000 -30.878615 9.941611
v 11.390000 -32.284679 10.417505
v 11.390000 -32.878305 10.870281
v 11.390000 -31.699933 11.349491
v 11.390000 -33.360625 11.440164
v 11.390000 -32.182287 11.728548
v 11.390000 -33.709052 12.100466
v 11.390000 -32.550097 12.219532
v 11.390000 -33.907266 12.820264
v 11.390000 -32.778299 12.788982
v 11.390000 -33.945987 13.565851
v 11.390000 -32.851340 13.398092
v 11.390000 -33.823402 14.302310
v 11.390000 -32.522945 14.569376
v 11.390000 -32.764243 14.005351
v 11.390000 -33.545251 14.995152
v 11.390000 -32.143887 15.051730
v 11.390001 -33.124560 15.611932
v 11.390000 -31.652903 15.419540
v 11.390000 -32.581029 16.123766
v 11.390000 -31.083453 15.647742
v 11.390000 -31.940113 16.506683
v 11.390000 -30.474343 15.720783
v 11.390000 -31.231826 16.742753
v 11.390000 -29.867084 15.633686
v 11.390000 -30.489338 16.820919
v 11.390000 -29.747419 16.737521
v 11.390000 -29.040814 16.496465
v 11.390000 -28.402612 16.109040
v 12.790000 -27.446369 14.973659
v 12.789998 -16.851007 11.619695
v 11.389999 -27.446369 14.973659
v 12.790000 -27.173733 14.281164
v 12.789998 -16.851007 11.619695
v 12.790000 -27.446369 14.973659
v 12.790000 -27.055954 13.546313
v 12.790000 -25.839219 12.219549
v 12.790000 -25.803217 12.204147
v 12.789999 -24.192955 11.752674
v 12.790000 -27.098512 12.803300
v 12.790000 -25.984547 12.182403
v 12.790000 -25.953207 12.205880
v 12.790000 -25.916859 12.220446
v 12.790000 -25.877980 12.225108
v 12.790000 -27.649348 11.429866
v 12.789999 -24.235183 11.458253
v 12.789999 -24.271184 11.473655
v 12.790000 -28.131992 10.863357
v 12.789998 -17.930262 7.770335
v 12.789999 -22.550158 10.985819
v 12.790000 -28.724901 10.413537
v 12.789998 -16.916523 7.786683
v 12.789999 -19.180108 10.040950
v 12.789998 -17.422338 7.713205
v 12.789998 -16.445848 7.985970
v 12.789998 -19.141346 10.035390
v 12.789998 -16.041057 8.298049
v 12.789998 -17.495084 9.568515
v 12.789998 -15.728587 8.702539
v 12.789998 -17.381095 9.582184
v 12.789998 -17.417443 9.567618
v 12.789998 -17.456322 9.562956
v 12.789998 -15.528846 9.173021
v 12.789998 -17.323827 9.786440
v 12.789998 -17.309261 9.750092
v 12.789998 -17.304599 9.711213
v 12.789998 -17.310158 9.672451
v 12.789998 -17.325561 9.636450
v 12.789998 -17.349756 9.605661
v 12.789998 -15.454879 9.678766
v 12.789998 -17.347305 9.817779
v 12.789998 -15.993529 11.078709
v 12.789999 -19.099119 10.329811
v 12.789998 -16.387418 11.404439
v 12.790000 -26.024144 12.115613
v 12.789999 -22.654094 11.170744
v 12.789998 -17.599020 9.753440
v 12.789999 -20.969069 10.698309
v 12.789999 -24.339119 11.643178
v 12.789999 -19.284044 10.225875
v 12.390000 -28.238748 12.736527
v 12.390000 -28.224693 13.952896
v 12.390000 -29.469267 12.758971
v 12.390000 -29.338873 13.668108
v 12.390000 -28.452894 14.522346
v 12.390000 -29.455401 13.958891
v 12.390000 -28.820705 15.013330
v 12.390000 -29.643220 14.209606
v 12.390000 -29.303058 15.392387
v 12.390000 -29.889528 14.403168
v 12.390000 -29.867084 15.633686
v 12.390000 -30.177541 14.526384
v 12.390000 -30.474342 15.720783
v 12.390000 -30.487630 14.570859
v 12.390001 -30.798666 14.533562
v 12.390000 -31.083452 15.647742
v 12.390000 -31.089448 14.417033
v 12.390001 -31.652903 15.419540
v 12.390001 -31.340163 14.229215
v 12.390001 -32.143887 15.051729
v 12.390001 -31.533725 13.982907
v 12.390001 -32.522944 14.569376
v 12.390001 -31.656942 13.694894
v 12.390001 -32.764243 14.005351
v 12.390001 -32.851340 13.398092
v 12.390001 -31.701416 13.384804
v 12.390001 -32.778299 12.788982
v 12.390001 -31.664118 13.073769
v 12.390001 -32.550097 12.219532
v 12.390001 -31.547590 12.782986
v 12.390000 -32.182286 11.728548
v 12.390000 -31.359772 12.532271
v 12.390000 -31.699932 11.349491
v 12.390000 -31.113463 12.338710
v 12.390000 -31.135908 11.108191
v 12.390000 -30.825451 12.215493
v 12.390000 -30.515361 12.171018
v 12.390000 -30.528648 11.021095
v 12.390000 -30.204326 12.208316
v 12.390000 -29.919539 11.094136
v 12.390000 -29.913543 12.324845
v 12.390000 -29.350089 11.322338
v 12.390000 -29.662828 12.512663
v 12.390000 -28.859105 11.690148
v 13.090000 -28.286891 12.750025
v 13.090000 -28.894049 11.725910
v 13.090000 -29.301575 13.357073
v 13.090001 -29.662828 12.512663
v 13.090000 -29.374586 11.365925
v 13.090001 -29.913543 12.324845
v 13.090001 -29.931921 11.142579
v 13.090001 -30.204326 12.208316
v 13.090001 -30.528071 11.071091
v 13.090001 -30.515361 12.171018
v 13.090001 -31.122410 11.156335
v 13.090001 -30.825451 12.215493
v 13.090001 -31.674434 11.392500
v 13.090001 -31.113463 12.338710
v 13.090001 -31.359772 12.532271
v 13.090001 -32.146525 11.763493
v 13.090001 -31.547590 12.782986
v 13.090001 -32.506510 12.244030
v 13.090001 -31.664118 13.073769
v 13.090001 -32.729856 12.801364
v 13.090001 -31.701416 13.384804
v 13.090001 -32.801343 13.397514
v 13.090001 -31.656941 13.694894
v 13.090001 -32.716100 13.991853
v 13.090001 -32.479934 14.543877
v 13.090001 -31.533725 13.982907
v 13.090001 -32.108942 15.015968
v 13.090001 -31.340163 14.229215
v 13.090001 -31.628405 15.375953
v 13.090001 -31.089449 14.417033
v 13.090001 -31.071071 15.599299
v 13.090001 -30.798665 14.533562
v 13.090001 -30.474920 15.670786
v 13.090001 -30.487630 14.570859
v 13.090001 -29.880582 15.585543
v 13.090001 -30.177541 14.526384
v 13.090001 -29.889528 14.403168
v 13.090001 -29.328557 15.349377
v 13.090001 -29.643219 14.209606
v 13.090000 -28.856466 14.978385
v 13.090001 -29.455402 13.958891
v 13.090000 -28.496481 14.497848
v 13.090001 -29.338873 13.668108
v 13.090000 -28.273135 13.940514
v 12.390000 -29.469267 12.758971
v 13.090000 -29.469266 12.758971
v 12.390000 -29.346050 13.046984
v 13.090001 -29.662828 12.512663
v 13.090001 -29.346050 13.046984
v 12.390000 -29.346050 13.046984
v 13.090001 -29.346050 13.046984
v 12.390000 -29.301575 13.357073
v 13.090000 -29.301575 13.357073
v 12.390000 -29.338873 13.668108
v 13.090001 -29.338873 13.668108
v 12.390000 -29.455401 13.958891
v 13.090001 -29.455402 13.958891
v 12.390000 -29.643220 14.209606
v 13.090001 -29.643219 14.209606
v 12.390000 -29.889528 14.403168
v 13.090001 -29.889528 14.403168
v 12.390000 -30.177541 14.526384
v 13.090001 -30.177541 14.526384
v 12.390000 -30.487630 14.570859
v 13.090001 -30.487630 14.570859
v 12.390001 -30.798666 14.533562
v 13.090001 -30.798665 14.533562
v 12.390000 -31.089448 14.417033
v 13.090001 -31.089449 14.417033
v 12.390001 -31.340163 14.229215
v 13.090001 -31.340163 14.229215
v 12.390001 -31.533725 13.982907
v 13.090001 -31.533725 13.982907
v 12.390001 -31.656942 13.694894
v 13.090001 -31.656941 13.694894
v 12.390001 -31.701416 13.384804
v 13.090001 -31.701416 13.384804
v 12.390001 -31.664118 13.073769
v 13.090001 -31.664118 13.073769
v 12.390001 -31.547590 12.782986
v 13.090001 -31.547590 12.782986
v 12.390000 -31.359772 12.532271
v 13.090001 -31.359772 12.532271
v 12.390000 -31.113463 12.338710
v 13.090001 -31.113463 12.338710
v 12.390000 -30.825451 12.215493
v 13.090001 -30.825451 12.215493
v 12.390000 -30.515361 12.171018
v 13.090001 -30.515361 12.171018
v 12.390000 -30.204326 12.208316
v 13.090001 -30.204326 12.208316
v 12.390000 -29.913543 12.324845
v 13.090001 -29.913543 12.324845
v 12.390000 -29.662828 12.512663
v 15.090001 -28.286891 12.750025
v 15.090001 -27.098363 12.804189
v 15.090001 -28.201647 13.344363
v 15.090001 -27.056092 13.549012
v 15.090001 -27.174924 14.285508
v 11.389999 -25.750685 11.998622
v 11.389999 -25.735283 12.034624
v 11.389999 -24.339119 11.643178
v 11.389999 -25.729723 12.073385
v 11.389999 -24.323717 11.679180
v 11.389999 -25.734386 12.112265
v 11.389999 -24.299522 11.709968
v 11.389999 -25.748952 12.148612
v 11.389999 -24.268183 11.733446
v 11.389999 -24.231835 11.748012
v 11.389999 -25.772429 12.179952
v 11.389999 -24.192955 11.752674
v 11.389999 -25.803217 12.204147
v 11.389999 -24.118193 11.731713
v 11.390000 -28.151652 13.343786
v 11.389999 -25.877980 12.225108
v 11.389999 -25.916859 12.220446
v 11.389999 -25.953207 12.205880
v 11.389999 -28.238748 12.736527
v 11.389999 -25.984547 12.182403
v 11.389999 -26.008742 12.151614
v 11.389999 -26.024144 12.115613
v 11.389999 -26.029703 12.076852
v 11.389999 -26.025041 12.037972
v 11.389999 -26.010475 12.001624
v 11.389999 -28.480048 12.172502
v 11.389999 -25.986998 11.970285
v 11.389999 -25.956209 11.946090
v 11.390000 -28.859105 11.690148
v 11.390000 -29.350089 11.322338
v 11.390000 -29.919539 11.094136
v 11.390000 -30.528649 11.021095
v 11.390000 -29.402735 10.100582
v 11.390000 -30.132023 9.940778
v 11.389999 -25.881447 11.925128
v 11.389999 -24.271184 11.473655
v 11.389998 -22.550158 10.985819
v 11.389999 -25.842567 11.929791
v 11.389999 -24.301973 11.497850
v 11.389999 -25.806219 11.944357
v 11.389999 -24.325450 11.529190
v 11.389999 -24.340016 11.565538
v 11.389999 -25.774880 11.967834
v 11.389999 -24.344679 11.604417
v 11.389998 -22.380635 11.053753
v 11.389998 -22.365233 11.089755
v 11.389998 -20.969070 10.698309
v 11.389998 -22.359674 11.128516
v 11.389998 -20.953667 10.734311
v 11.389998 -22.364336 11.167396
v 11.389998 -20.929473 10.765099
v 11.389998 -22.378902 11.203744
v 11.389998 -20.898133 10.788577
v 11.389998 -22.402379 11.235083
v 11.389998 -20.861785 10.803143
v 11.389998 -22.433168 11.259278
v 11.389998 -20.822906 10.807805
v 11.389998 -20.784144 10.802246
v 11.389998 -22.507930 11.280239
v 11.389999 -24.087404 11.707517
v 11.389999 -22.546810 11.275577
v 11.389999 -22.583158 11.261011
v 11.389999 -24.063927 11.676178
v 11.389999 -22.614497 11.237534
v 11.389999 -24.049361 11.639830
v 11.389999 -22.638692 11.206745
v 11.389999 -24.044699 11.600951
v 11.389998 -22.654094 11.170744
v 11.389999 -24.050258 11.562190
v 11.389999 -24.065660 11.526188
v 11.389999 -22.659654 11.131983
v 11.389999 -24.089855 11.495399
v 11.389999 -22.654992 11.093103
v 11.389999 -24.121194 11.471922
v 11.389999 -22.640426 11.056755
v 11.389999 -24.157542 11.457356
v 11.389999 -22.616948 11.025416
v 11.389998 -22.586160 11.001221
v 11.389999 -24.196422 11.452694
v 11.389998 -22.511397 10.980259
v 11.389998 -20.931923 10.552981
v 11.389998 -20.901135 10.528786
v 11.389999 -22.472517 10.984922
v 11.389998 -20.955401 10.584321
v 11.389998 -22.436170 10.999488
v 11.389998 -20.969967 10.620669
v 11.389998 -22.404830 11.022965
v 11.389998 -20.974629 10.659548
v 11.389998 -17.452856 9.862936
v 11.389998 -17.491735 9.858274
v 11.389998 -19.032330 10.290214
v 11.389998 -20.748143 10.786843
v 11.389998 -17.528083 9.843708
v 11.389998 -19.008852 10.258874
v 11.389998 -17.559422 9.820230
v 11.389998 -18.994285 10.222526
v 11.389998 -17.583618 9.789442
v 11.389998 -18.989624 10.183647
v 11.389998 -17.599020 9.753440
v 11.389998 -18.995184 10.144886
v 11.389998 -19.010586 10.108884
v 11.389998 -17.604579 9.714679
v 11.389998 -19.034780 10.078096
v 11.389998 -17.599916 9.675800
v 11.389998 -19.066120 10.054619
v 11.389998 -17.585351 9.639452
v 11.389998 -19.102468 10.040053
v 11.389998 -17.561874 9.608112
v 11.389998 -19.141348 10.035390
v 11.389998 -17.531085 9.583917
v 11.389998 -17.495084 9.568515
v 11.389997 -16.041057 8.298049
v 11.389998 -17.456322 9.562956
v 11.389997 -16.445848 7.985970
v 11.389998 -20.826372 10.507825
v 11.389998 -19.216110 10.056352
v 11.389998 -20.695611 10.581319
v 11.389998 -20.680208 10.617320
v 11.389998 -19.284045 10.225875
v 11.389998 -20.674649 10.656082
v 11.389998 -19.268643 10.261876
v 11.389998 -20.679311 10.694961
v 11.389998 -19.244447 10.292665
v 11.389998 -20.693877 10.731309
v 11.389998 -19.213108 10.316142
v 11.389998 -20.717354 10.762648
v 11.389998 -19.176760 10.330708
v 11.389998 -19.137881 10.335370
v 11.389998 -19.246899 10.080547
v 11.389998 -20.787493 10.512487
v 11.389998 -19.270376 10.111886
v 11.389998 -20.751145 10.527053
v 11.389998 -19.284942 10.148234
v 11.389998 -20.719805 10.550530
v 11.389998 -19.289604 10.187114
v 11.389998 -16.851008 11.619695
v 12.790000 -26.008742 12.151614
v 12.790000 -26.024144 12.115613
v 12.790000 -27.299426 12.086703
v 12.790000 -26.029703 12.076852
v 12.790000 -26.025041 12.037972
v 12.790000 -26.010475 12.001624
v 12.790000 -25.986998 11.970285
v 12.790000 -25.956209 11.946090
v 12.790000 -25.920208 11.930688
v 12.790000 -25.881446 11.925128
v 12.790000 -25.842567 11.929791
v 12.789999 -24.301973 11.497850
v 12.790000 -25.806219 11.944357
v 12.789999 -24.325450 11.529190
v 12.789999 -24.340016 11.565538
v 12.790000 -25.774880 11.967834
v 12.790000 -25.772429 12.179952
v 12.789999 -24.231834 11.748012
v 12.789999 -24.154194 11.747115
v 12.790000 -25.748951 12.148612
v 12.789999 -24.268182 11.733446
v 12.789999 -24.299522 11.709968
v 12.790000 -25.734385 12.112265
v 12.789999 -24.323717 11.679180
v 12.790000 -25.729723 12.073385
v 12.789999 -24.339119 11.643178
v 12.790000 -25.735282 12.034624
v 12.790000 -25.750685 11.998622
v 12.789999 -24.344678 11.604417
v 12.789999 -22.638692 11.206745
v 12.789999 -24.044698 11.600951
v 12.789999 -22.654094 11.170744
v 12.789999 -24.049361 11.639830
v 12.789999 -24.050258 11.562190
v 12.789999 -24.065660 11.526188
v 12.789999 -22.659654 11.131983
v 12.789999 -22.614497 11.237534
v 12.789999 -24.063927 11.676178
v 12.789999 -22.583157 11.261011
v 12.789999 -24.087404 11.707517
v 12.789999 -22.546810 11.275577
v 12.789999 -22.507930 11.280239
v 12.789999 -24.118192 11.731712
v 12.789999 -22.469169 11.274680
v 12.789999 -20.784144 10.802246
v 12.789999 -22.433167 11.259278
v 12.789999 -20.861784 10.803142
v 12.789999 -20.822905 10.807805
v 12.789999 -22.402379 11.235083
v 12.789999 -20.898133 10.788577
v 12.789999 -22.378902 11.203743
v 12.789999 -20.929472 10.765099
v 12.789999 -22.364336 11.167395
v 12.789999 -20.953667 10.734311
v 12.789999 -22.359673 11.128516
v 12.789999 -20.969069 10.698309
v 12.789999 -22.365233 11.089755
v 12.789999 -22.380635 11.053753
v 12.789999 -20.974629 10.659548
v 12.789999 -22.404830 11.022965
v 12.789999 -20.969966 10.620669
v 12.789999 -22.436169 10.999488
v 12.789999 -20.955400 10.584321
v 12.789999 -22.472517 10.984922
v 12.789999 -20.931923 10.552981
v 12.789999 -22.511396 10.980259
v 12.789999 -20.901134 10.528786
v 12.789999 -20.865133 10.513384
v 12.789999 -24.196421 11.452694
v 12.789999 -22.586159 11.001221
v 12.789999 -24.157542 11.457356
v 12.789999 -22.616948 11.025416
v 12.789999 -22.640425 11.056755
v 12.789999 -24.121194 11.471922
v 12.789999 -22.654991 11.093103
v 12.789999 -24.089855 11.495399
v 12.789998 -17.583617 9.789442
v 12.789998 -18.989624 10.183647
v 12.789998 -17.599020 9.753440
v 12.789999 -18.994285 10.222526
v 12.789998 -18.995183 10.144886
v 12.789998 -19.010585 10.108884
v 12.789998 -17.604579 9.714679
v 12.789998 -17.559422 9.820230
v 12.789998 -19.008852 10.258874
v 12.789998 -17.528083 9.843707
v 12.789999 -19.032329 10.290214
v 12.789998 -17.491735 9.858274
v 12.789998 -19.063117 10.314409
v 12.789998 -17.452856 9.862936
v 12.789998 -17.414095 9.857377
v 12.789998 -15.511519 10.186744
v 12.789998 -17.378093 9.841974
v 12.789998 -15.695065 10.663777
v 12.789999 -20.748143 10.786843
v 12.789999 -19.137880 10.335370
v 12.789998 -17.531085 9.583917
v 12.789998 -17.561874 9.608112
v 12.789998 -19.102468 10.040052
v 12.789999 -20.826372 10.507825
v 12.789998 -17.585350 9.639452
v 12.789998 -19.066120 10.054618
v 12.789998 -17.599916 9.675799
v 12.789999 -19.034780 10.078096
v 12.789999 -19.176760 10.330708
v 12.789999 -20.717354 10.762648
v 12.789999 -19.213108 10.316142
v 12.789999 -20.693877 10.731309
v 12.789999 -19.244447 10.292665
v 12.789999 -20.679311 10.694961
v 12.789999 -19.268643 10.261876
v 12.789999 -20.674648 10.656082
v 12.789999 -19.284044 10.225875
v 12.789999 -20.680208 10.617320
v 12.789999 -20.695610 10.581319
v 12.789999 -19.289604 10.187114
v 12.789999 -20.719805 10.550530
v 12.789999 -19.284941 10.148234
v 12.789999 -20.751144 10.527053
v 12.789999 -19.270376 10.111886
v 12.789999 -20.787493 10.512487
v 12.789999 -19.246898 10.080547
v 12.789999 -19.216110 10.056352
v 11.389999 -28.724902 10.413537
v 11.389998 -17.930262 7.770335
v 12.790000 -28.724901 10.413537
v 12.789998 -17.930262 7.770335
v 12.789998 -17.930262 7.770335
v 11.389998 -17.930262 7.770335
v 12.789998 -17.422338 7.713205
v 11.389997 -17.422338 7.713205
v 12.789998 -16.916523 7.786683
v 11.389997 -16.916523 7.786683
v 12.789998 -16.445848 7.985970
v 11.389997 -16.445848 7.985970
v 12.789998 -16.041057 8.298049
v 11.389997 -16.041057 8.298049
v 12.789998 -15.728587 8.702539
v 11.389997 -15.728588 8.702539
v 12.789998 -15.528846 9.173021
v 11.389997 -15.528846 9.173021
v 12.789998 -15.454879 9.678766
v 11.389997 -15.454881 9.678766
v 12.789998 -15.511519 10.186744
v 11.389997 -15.511519 10.186744
v 12.789998 -15.695065 10.663777
v 11.389997 -15.695065 10.663777
v 12.789998 -15.993529 11.078709
v 11.389997 -15.993529 11.078709
v 12.789998 -16.387418 11.404439
v 11.389997 -16.387419 11.404439
v 12.789998 -16.851007 11.619695
v 11.389998 -16.851008 11.619695
v 15.090002 -33.945955 13.566423
v 15.090002 -33.823401 14.302310
v 11.390000 -33.823402 14.302310
v 11.390000 -33.823402 14.302310
v 15.090002 -33.823401 14.302310
v 15.090002 -33.545520 14.994646
v 11.390000 -33.545251 14.995152
v 15.090002 -33.125304 15.611060
v 11.390001 -33.124560 15.611932
v 15.090002 -32.582400 16.122728
v 11.390000 -32.581029 16.123766
v 15.090002 -31.942196 16.505726
v 11.390000 -31.940113 16.506683
v 15.090002 -31.234627 16.742144
v 11.390000 -31.231826 16.742753
v 15.090002 -30.492776 16.820929
v 11.390000 -30.489338 16.820919
v 15.090002 -29.751334 16.738396
v 11.390000 -29.747419 16.737521
v 15.090002 -29.044969 16.498404
v 11.390000 -29.040814 16.496465
v 15.090001 -28.406709 16.112176
v 11.390000 -28.402612 16.109040
v 15.090001 -27.866399 15.597770
v 11.389999 -27.862703 15.593388
v 15.090001 -27.449303 14.979240
v 11.389999 -27.446369 14.973659
v 12.790000 -27.446369 14.973659
v 15.090001 -27.174924 14.285508
v 12.790000 -27.173733 14.281164
v 15.090001 -27.056092 13.549012
v 12.790000 -27.055954 13.546313
v 15.090001 -27.098363 12.804189
v 12.790000 -27.098512 12.803300
v 15.090001 -27.299761 12.085866
v 12.790000 -27.299426 12.086703
v 12.790000 -27.649348 11.429866
v 15.090001 -27.650869 11.427632
v 12.790000 -28.131992 10.863357
v 15.090001 -28.135268 10.860266
v 12.790000 -28.724901 10.413537
v 15.090001 -28.730310 10.410295
v 11.390000 -29.402735 10.100582
v 15.090001 -29.408170 10.098761
v 11.390000 -30.132023 9.940778
v 11.389999 -28.724902 10.413537
v 15.090001 -30.137153 9.940230
v 11.390000 -30.878615 9.941611
v 15.090002 -30.883172 9.942115
v 11.390000 -31.607545 10.103039
v 15.090002 -31.611344 10.104328
v 11.390000 -32.284679 10.417505
v 15.090002 -32.287621 10.419284
v 11.390000 -32.878305 10.870281
v 15.090002 -32.880382 10.872257
v 11.390000 -33.360625 11.440164
v 15.090002 -33.361908 11.442065
v 11.390000 -33.709052 12.100466
v 15.090002 -33.709683 12.102065
v 11.390000 -33.907266 12.820264
v 15.090002 -33.907449 12.821396
v 11.390000 -33.945987 13.565851
f 1 2 3
f 1 4 2
f 2 4 5
f 4 6 5
f 5 6 7
f 6 8 7
f 7 8 9
f 8 10 9
f 9 10 11
f 10 12 11
f 11 12 13
f 12 14 13
f 13 14 15
f 14 16 15
f 15 16 17
f 16 18 17
f 17 18 19
f 18 20 19
f 19 20 21
f 20 22 21
f 21 22 23
f 22 24 23
f 23 24 25
f 24 26 25
f 25 26 27
f 26 28 27
f 27 28 29
f 28 30 29
f 29 30 31
f 30 32 31
f 31 32 33
f 32 34 33
f 33 34 35
f 34 36 35
f 35 36 37
f 36 38 37
f 37 38 39
f 38 40 39
f 39 40 41
f 40 42 41
f 41 42 43
f 42 44 43
f 43 44 45
f 44 46 45
f 45 46 47
f 46 48 47
f 47 48 49
f 48 565 49
f 50 51 52
f 50 53 51
f 51 53 54
f 53 55 54
f 54 55 56
f 55 57 56
f 56 57 58
f 57 59 58
f 58 59 60
f 59 61 60
f 60 61 62
f 61 63 62
f 62 63 64
f 63 65 64
f 64 65 66
f 65 67 66
f 66 67 68
f 67 69 68
f 68 69 70
f 69 71 70
f 70 71 72
f 71 73 72
f 72 73 74
f 73 75 74
f 74 75 76
f 75 77 76
f 76 77 78
f 77 79 78
f 78 79 80
f 79 81 80
f 80 81 82
f 81 83 82
f 82 83 84
f 83 85 84
f 84 85 86
f 85 87 86
f 86 87 88
f 87 89 88
f 88 89 90
f 89 91 90
f 90 91 92
f 91 93 92
f 92 93 94
f 93 95 94
f 94 95 96
f 95 97 96
f 96 97 98
f 97 566 98
f 99 100 101
f 99 102 100
f 100 102 103
f 102 104 103
f 103 104 105
f 104 106 105
f 105 106 107
f 106 108 107
f 107 108 109
f 108 110 109
f 109 110 111
f 110 112 111
f 111 112 113
f 112 114 113
f 113 114 115
f 114 116 115
f 115 116 117
f 116 118 117
f 117 118 119
f 118 120 119
f 119 120 121
f 120 122 121
f 121 122 123
f 122 124 123
f 123 124 125
f 124 126 125
f 125 126 127
f 126 128 127
f 127 128 129
f 128 130 129
f 129 130 131
f 130 132 131
f 131 132 133
f 132 134 133
f 133 134 135
f 134 136 135
f 135 136 137
f 136 138 137
f 137 138 139
f 138 140 139
f 139 140 141
f 140 142 141
f 141 142 143
f 142 144 143
f 143 144 145
f 144 146 145
f 145 146 147
f 146 567 147
f 148 149 150
f 148 151 149
f 149 151 152
f 151 153 152
f 152 153 154
f 153 155 154
f 154 155 156
f 155 157 156
f 156 157 158
f 157 159 158
f 158 159 160
f 159 161 160
f 160 161 162
f 161 163 162
f 162 163 164
f 163 165 164
f 164 165 166
f 165 167 166
f 166 167 168
f 167 169 168
f 168 169 170
f 169 171 170
f 170 171 172
f 171 173 172
f 172 173 174
f 173 175 174
f 174 175 176
f 175 177 176
f 176 177 178
f 177 179 178
f 178 179 180
f 179 181 180
f 180 181 182
f 181 183 182
f 182 183 184
f 183 185 184
f 184 185 186
f 185 187 186
f 186 187 188
f 187 189 188
f 188 189 190
f 189 191 190
f 190 191 192
f 191 193 192
f 192 193 194
f 193 195 194
f 194 195 196
f 195 568 196
f 197 198 199
f 197 200 198
f 198 200 201
f 200 202 201
f 201 202 203
f 202 204 203
f 203 204 205
f 204 206 205
f 205 206 207
f 206 208 207
f 207 208 209
f 208 210 209
f 209 210 211
f 210 212 211
f 211 212 213
f 212 214 213
f 213 214 215
f 214 216 215
f 215 216 217
f 216 218 217
f 217 218 219
f 218 220 219
f 219 220 221
f 220 222 221
f 221 222 223
f 222 224 223
f 223 224 225
f 224 226 225
f 225 226 227
f 226 228 227
f 227 228 229
f 228 230 229
f 229 230 231
f 230 232 231
f 231 232 233
f 232 234 233
f 233 234 235
f 234 236 235
f 235 236 237
f 236 238 237
f 237 238 239
f 238 240 239
f 239 240 241
f 240 242 241
f 241 242 243
f 242 244 243
f 243 244 245
f 244 569 245
f 246 247 248
f 246 249 247
f 247 249 250
f 249 251 250
f 250 251 252
f 251 253 252
f 252 253 254
f 253 255 254
f 254 255 256
f 255 257 256
f 256 257 258
f 257 259 258
f 258 259 260
f 259 261 260
f 260 261 262
f 261 263 262
f 262 263 264
f 263 265 264
f 264 265 266
f 265 267 266
f 266 267 268
f 267 269 268
f 268 269 270
f 269 271 270
f 270 271 272
f 271 273 272
f 272 273 274
f 273 275 274
f 274 275 276
f 275 277 276
f 276 277 278
f 277 279 278
f 278 279 280
f 279 281 280
f 280 281 282
f 281 283 282
f 282 283 284
f 283 285 284
f 284 285 286
f 285 287 286
f 286 287 288
f 287 289 288
f 288 289 290
f 289 291 290
f 290 291 292
f 291 293 292
f 292 293 294
f 293 570 294
f 295 296 297
f 295 298 296
f 296 298 299
f 298 300 299
f 299 300 301
f 300 302 301
f 301 302 303
f 302 304 303
f 303 304 305
f 304 306 305
f 305 306 307
f 306 308 307
f 307 308 309
f 308 310 309
f 309 310 311
f 310 312 311
f 311 312 313
f 312 314 313
f 313 314 315
f 314 316 315
f 315 316 317
f 316 318 317
f 317 318 319
f 318 320 319
f 319 320 321
f 320 322 321
f 321 322 323
f 322 324 323
f 323 324 325
f 324 326 325
f 325 326 327
f 326 328 327
f 327 328 329
f 328 330 329
f 329 330 331
f 330 332 331
f 331 332 333
f 332 334 333
f 333 334 335
f 334 336 335
f 335 336 337
f 336 338 337
f 337 338 339
f 338 340 339
f 339 340 341
f 340 342 341
f 341 342 343
f 342 571 343
f 344 345 346
f 344 346 347
f 344 348 345
f 344 347 573
f 345 348 572
f 347 614 573
f 348 574 572
f 349 350 351
f 349 352 350
f 350 352 353
f 352 354 353
f 353 354 355
f 354 356 355
f 355 356 357
f 356 358 357
f 357 358 359
f 358 360 359
f 359 360 361
f 360 362 361
f 361 362 363
f 362 364 363
f 363 364 365
f 364 366 365
f 365 366 367
f 366 368 367
f 367 368 369
f 368 370 369
f 369 370 371
f 370 372 371
f 371 372 373
f 372 374 373
f 373 374 375
f 374 376 375
f 375 376 377
f 376 378 377
f 377 378 379
f 378 380 379
f 379 380 381
f 380 382 381
f 381 382 383
f 382 384 383
f 383 384 385
f 384 386 385
f 385 386 387
f 386 388 387
f 387 388 389
f 388 390 389
f 389 390 391
f 390 392 391
f 391 392 393
f 392 394 393
f 393 394 395
f 394 396 395
f 395 396 397
f 396 615 397
f 398 399 400
f 398 400 401
f 398 402 399
f 398 401 617
f 399 402 616
f 401 658 617
f 402 618 616
f 403 404 405
f 403 406 404
f 404 406 407
f 404 450 405
f 405 450 449
f 406 408 407
f 407 408 409
f 408 410 409
f 409 410 411
f 410 412 411
f 411 412 413
f 412 414 413
f 413 414 415
f 414 416 415
f 415 417 418
f 415 416 417
f 417 419 418
f 418 419 420
f 419 421 420
f 420 421 422
f 421 423 422
f 422 423 424
f 423 425 424
f 424 425 426
f 425 427 426
f 426 428 429
f 426 427 428
f 428 430 429
f 429 430 709
f 430 710 709
f 431 432 433
f 431 434 432
f 431 433 713
f 432 434 435
f 433 711 712
f 433 712 713
f 434 436 435
f 435 436 437
f 436 438 437
f 437 438 439
f 438 440 439
f 439 440 441
f 440 442 441
f 441 443 444
f 441 442 443
f 443 445 444
f 444 445 446
f 445 447 446
f 446 447 448
f 447 449 448
f 448 449 450
f 451 452 453
f 451 453 454
f 451 455 456
f 451 457 458
f 451 458 459
f 451 460 455
f 451 456 452
f 451 454 457
f 452 456 726
f 452 728 453
f 452 729 728
f 455 727 456
f 455 771 769
f 455 460 771
f 455 772 727
f 456 725 726
f 458 515 459
f 459 515 519
f 460 461 462
f 460 463 461
f 460 462 771
f 461 464 462
f 462 464 465
f 462 805 771
f 462 841 805
f 464 466 465
f 465 466 467
f 465 467 802
f 465 802 803
f 465 803 804
f 466 468 467
f 467 468 471
f 468 469 470
f 468 470 471
f 468 472 469
f 469 472 475
f 472 473 474
f 472 474 475
f 472 476 477
f 472 477 478
f 472 479 476
f 472 478 473
f 476 479 480
f 479 825 824
f 479 824 826
f 479 826 480
f 481 482 483
f 481 484 482
f 481 483 827
f 482 485 483
f 482 750 485
f 482 486 750
f 483 824 825
f 483 825 827
f 483 485 828
f 483 828 829
f 483 822 824
f 485 750 793
f 485 793 795
f 486 487 488
f 486 742 487
f 486 743 742
f 486 744 743
f 486 745 744
f 486 746 745
f 486 488 750
f 487 742 739
f 487 739 741
f 487 748 488
f 488 748 749
f 488 792 750
f 489 490 491
f 489 492 490
f 490 493 494
f 490 492 493
f 490 745 746
f 490 746 747
f 490 747 491
f 493 495 494
f 494 495 496
f 495 497 496
f 496 497 498
f 497 499 498
f 498 499 500
f 499 501 500
f 500 501 502
f 501 503 502
f 502 503 505
f 503 504 505
f 503 506 504
f 504 506 507
f 506 508 507
f 507 508 509
f 508 510 509
f 509 510 511
f 510 512 511
f 511 512 513
f 512 514 513
f 513 514 515
f 514 516 515
f 515 516 517
f 515 517 518
f 515 518 519
f 520 521 522
f 521 849 522
f 523 524 525
f 523 893 524
f 523 868 893
f 523 526 868
f 524 563 562
f 524 562 564
f 524 893 894
f 524 894 563
f 526 527 528
f 526 528 529
f 526 530 527
f 526 529 868
f 527 530 534
f 528 866 529
f 529 866 867
f 530 531 532
f 530 532 533
f 530 851 850
f 530 850 531
f 530 852 851
f 530 533 534
f 535 536 537
f 535 538 536
f 535 858 852
f 535 859 858
f 535 537 859
f 536 540 918
f 536 538 540
f 537 860 859
f 537 861 860
f 538 539 540
f 538 541 539
f 539 542 543
f 539 544 542
f 539 917 540
f 539 543 917
f 540 917 915
f 540 919 918
f 542 545 543
f 543 545 546
f 543 949 917
f 543 972 949
f 545 547 546
f 546 547 548
f 546 548 946
f 546 946 947
f 546 947 948
f 547 549 548
f 548 549 552
f 549 550 551
f 549 551 552
f 549 553 550
f 550 553 559
f 553 554 555
f 553 555 556
f 553 557 558
f 553 558 559
f 553 560 554
f 553 556 557
f 554 560 561
f 560 941 940
f 560 940 942
f 560 942 561
f 562 563 943
f 563 940 941
f 563 941 943
f 563 894 944
f 563 944 945
f 563 938 940
f 572 574 575
f 573 614 613
f 574 576 575
f 575 576 577
f 576 578 577
f 577 578 579
f 578 580 579
f 579 580 581
f 580 582 581
f 581 582 583
f 582 584 583
f 583 584 585
f 583 585 586
f 585 587 586
f 586 587 588
f 587 589 588
f 588 589 590
f 589 591 590
f 590 591 592
f 591 593 592
f 592 593 594
f 593 595 594
f 593 596 595
f 595 596 597
f 596 598 597
f 597 598 599
f 598 600 599
f 599 600 601
f 600 602 601
f 601 602 603
f 602 604 603
f 603 604 605
f 604 606 605
f 605 606 607
f 605 607 608
f 607 609 608
f 608 609 610
f 609 611 610
f 610 611 612
f 611 613 612
f 612 613 614
f 616 618 619
f 617 658 657
f 618 620 619
f 619 620 621
f 620 622 621
f 621 622 623
f 622 624 623
f 623 624 625
f 624 626 625
f 625 626 627
f 626 628 627
f 627 628 629
f 627 629 630
f 629 631 630
f 630 631 632
f 631 633 632
f 632 633 634
f 633 635 634
f 634 635 636
f 635 637 636
f 636 637 638
f 637 639 638
f 637 640 639
f 639 640 641
f 640 642 641
f 641 642 643
f 642 644 643
f 643 644 645
f 644 646 645
f 645 646 647
f 646 648 647
f 647 648 649
f 648 650 649
f 649 650 651
f 649 651 652
f 651 653 652
f 652 653 654
f 653 655 654
f 654 655 656
f 655 657 656
f 656 657 658
f 659 660 661
f 659 662 660
f 659 708 662
f 660 663 661
f 662 708 707
f 664 665 666
f 665 667 666
f 666 667 668
f 667 669 668
f 668 669 670
f 669 671 670
f 670 671 672
f 671 673 672
f 672 673 674
f 673 675 674
f 674 675 676
f 675 677 676
f 676 677 678
f 677 679 678
f 678 679 680
f 679 681 680
f 680 681 682
f 681 683 682
f 682 683 684
f 683 685 684
f 684 685 686
f 685 687 686
f 686 687 688
f 687 689 688
f 688 689 690
f 689 691 690
f 690 691 692
f 691 693 692
f 692 693 694
f 693 695 694
f 694 695 696
f 695 697 696
f 696 697 698
f 697 699 698
f 698 699 700
f 699 701 700
f 700 701 702
f 701 703 702
f 702 703 704
f 703 705 704
f 704 705 706
f 705 707 706
f 706 707 708
f 709 710 711
f 710 712 711
f 714 715 716
f 714 757 756
f 714 716 757
f 715 717 716
f 716 717 718
f 717 719 718
f 718 719 720
f 719 721 720
f 720 721 722
f 721 723 722
f 721 724 723
f 723 724 725
f 724 726 725
f 727 772 773
f 728 729 730
f 728 731 732
f 728 730 731
f 731 733 732
f 732 733 734
f 732 735 736
f 732 736 737
f 732 738 739
f 732 734 735
f 732 737 738
f 738 740 739
f 739 740 741
f 748 751 749
f 749 751 752
f 750 792 791
f 751 753 752
f 752 753 754
f 753 755 754
f 753 756 755
f 755 756 757
f 758 759 760
f 758 801 800
f 758 760 801
f 759 761 760
f 760 761 762
f 761 763 762
f 762 763 764
f 763 765 764
f 764 765 766
f 765 767 766
f 766 767 768
f 767 769 768
f 768 769 770
f 769 771 770
f 772 774 773
f 773 774 775
f 773 775 776
f 775 777 776
f 776 777 778
f 777 779 778
f 778 779 780
f 779 781 780
f 780 781 782
f 781 783 782
f 781 784 783
f 783 784 785
f 784 786 785
f 785 786 787
f 786 788 787
f 787 788 789
f 788 790 789
f 789 790 791
f 789 791 792
f 793 794 795
f 793 796 794
f 794 796 797
f 796 798 797
f 797 798 799
f 798 800 799
f 799 800 801
f 803 806 804
f 804 806 807
f 805 840 839
f 805 841 840
f 806 808 807
f 807 808 809
f 808 810 809
f 809 810 811
f 810 812 811
f 811 812 813
f 812 814 813
f 812 815 814
f 814 815 816
f 815 817 816
f 816 817 818
f 817 819 818
f 818 819 820
f 819 821 820
f 820 821 822
f 821 823 822
f 822 823 824
f 828 842 829
f 828 843 842
f 830 831 832
f 830 848 847
f 830 832 848
f 831 833 832
f 832 833 834
f 833 835 834
f 834 835 836
f 835 837 836
f 836 837 838
f 837 839 838
f 838 839 840
f 842 843 844
f 843 845 844
f 844 845 846
f 845 847 846
f 846 847 848
f 851 852 853
f 852 854 853
f 852 855 854
f 852 856 855
f 852 857 856
f 852 858 857
f 860 861 862
f 861 863 862
f 862 863 864
f 862 864 865
f 864 878 865
f 865 878 877
f 866 869 867
f 867 869 870
f 868 892 893
f 869 871 870
f 869 872 871
f 871 872 873
f 872 874 873
f 873 874 875
f 874 876 875
f 875 876 877
f 875 877 878
f 879 880 881
f 879 882 880
f 879 886 882
f 880 883 881
f 881 883 884
f 881 884 885
f 882 886 887
f 884 925 885
f 885 925 924
f 886 888 887
f 887 888 889
f 888 890 889
f 889 890 891
f 889 891 892
f 891 893 892
f 893 895 894
f 894 895 897
f 895 896 897
f 895 898 896
f 896 898 899
f 898 900 899
f 899 900 901
f 900 902 901
f 901 902 903
f 902 904 903
f 903 904 905
f 904 906 905
f 905 906 907
f 905 907 908
f 907 909 908
f 908 909 910
f 909 911 910
f 910 911 912
f 911 913 912
f 912 913 914
f 913 915 914
f 914 915 916
f 915 917 916
f 918 919 920
f 919 921 920
f 920 921 922
f 920 922 923
f 922 924 923
f 923 924 925
f 926 927 928
f 926 929 927
f 926 933 929
f 927 930 928
f 928 930 931
f 928 931 932
f 929 933 934
f 931 953 932
f 932 953 952
f 933 935 934
f 934 935 936
f 935 937 936
f 936 937 938
f 937 939 938
f 938 939 940
f 944 954 945
f 944 955 954
f 947 950 948
f 948 950 951
f 949 971 970
f 949 972 971
f 950 952 951
f 951 952 953
f 954 955 956
f 955 957 956
f 956 957 958
f 957 959 958
f 958 959 960
f 959 961 960
f 960 961 962
f 961 963 962
f 962 963 964
f 962 964 965
f 964 966 965
f 965 966 967
f 966 968 967
f 967 968 969
f 968 970 969
f 969 970 971
f 973 974 975
f 974 976 975
f 977 978 979
f 978 980 979
f 979 980 981
f 980 982 981
f 981 982 983
f 982 984 983
f 983 984 985
f 984 986 985
f 985 986 987
f 986 988 987
f 987 988 989
f 988 990 989
f 989 990 991
f 990 992 991
f 991 992 993
f 992 994 993
f 993 994 995
f 994 996 995
f 995 996 997
f 996 998 997
f 997 998 999
f 998 1000 999
f 999 1000 1001
f 1000 1002 1001
f 1003 1004 1005
f 1003 1064 1063
f 1003 1005 1064
f 1006 1007 1008
f 1006 1008 1009
f 1008 1010 1009
f 1009 1010 1011
f 1010 1012 1011
f 1011 1012 1013
f 1012 1014 1013
f 1013 1014 1015
f 1014 1016 1015
f 1015 1016 1017
f 1016 1018 1017
f 1017 1018 1019
f 1018 1020 1019
f 1019 1020 1021
f 1020 1022 1021
f 1021 1022 1023
f 1022 1024 1023
f 1023 1024 1025
f 1024 1026 1025
f 1025 1026 1027
f 1026 1028 1027
f 1027 1028 1029
f 1028 1030 1029
f 1028 1031 1030
f 1030 1031 1032
f 1031 1033 1032
f 1032 1033 1034
f 1033 1035 1034
f 1034 1035 1036
f 1035 1037 1036
f 1036 1037 1038
f 1037 1039 1038
f 1037 1040 1039
f 1039 1040 1041
f 1040 1042 1041
f 1041 1042 1043
f 1042 1044 1043
f 1043 1044 1045
f 1043 1045 1048
f 1044 1046 1045
f 1045 1046 1047
f 1046 1049 1047
f 1047 1049 1050
f 1049 1051 1050
f 1050 1051 1052
f 1051 1053 1052
f 1052 1053 1054
f 1053 1055 1054
f 1054 1055 1056
f 1055 1057 1056
f 1056 1057 1058
f 1057 1059 1058
f 1058 1059 1060
f 1059 1061 1060
f 1060 1061 1062
f 1061 1063 1062
f 1062 1063 1064