# ANSI B18.6.5M - M2.5x0.45 x 4(38)
# Autodesk dbId: 49
# Units: mm
o 049_ANSI_B18.6.5M_-_M2.5x0.45_x_4(38)
v 14.390001 -30.854850 12.171923
v 14.390001 -30.557639 12.122200
v 16.390001 -30.543715 12.431887
v 16.390001 -30.785320 12.474813
v 14.390001 -31.131525 12.291328
v 16.390001 -31.007583 12.578808
v 14.390001 -31.371585 12.473477
v 16.390001 -31.195357 12.736785
v 14.390001 -31.561079 12.707782
v 16.390001 -31.335846 12.937979
v 14.390001 -31.688993 12.980628
v 16.390001 -31.419474 13.168678
v 14.390001 -31.747894 13.276157
v 16.390001 -31.440543 13.413161
v 14.390001 -31.734358 13.577195
v 16.390001 -31.397618 13.654767
v 14.390001 -31.649173 13.866245
v 16.390001 -31.293623 13.877030
v 14.390001 -31.497289 14.126511
v 16.390001 -31.135646 14.064804
v 14.390001 -31.287533 14.342865
v 16.390001 -30.934452 14.205292
v 14.390001 -31.032095 14.502734
v 16.390001 -30.703753 14.288920
v 14.390001 -30.745820 14.596828
v 16.390001 -30.459270 14.309990
v 14.390001 -30.148135 14.569954
v 14.390001 -30.445346 14.619677
v 16.390001 -30.217664 14.267064
v 14.390001 -29.871459 14.450549
v 16.390001 -29.995401 14.163070
v 14.390001 -29.631399 14.268401
v 16.390001 -29.807627 14.005093
v 14.390001 -29.441906 14.034095
v 16.390001 -29.667139 13.803899
v 14.390001 -29.313992 13.761249
v 16.390001 -29.583510 13.573199
v 14.390001 -29.255091 13.465720
v 16.390001 -29.562441 13.328716
v 14.390001 -29.268626 13.164683
v 16.390001 -29.605366 13.087111
v 14.390001 -29.353812 12.875632
v 16.390001 -29.709361 12.864847
v 14.390001 -29.505696 12.615367
v 16.390001 -29.867338 12.677073
v 14.390001 -29.715452 12.399012
v 16.390001 -30.068532 12.536585
v 14.390001 -29.970890 12.239143
v 16.390001 -30.299232 12.452957
v 14.390001 -30.257165 12.145050
v 12.390001 -30.557639 12.122200
v 14.390001 -30.257165 12.145050
v 14.390001 -30.557639 12.122200
v 12.390001 -30.854850 12.171923
v 12.390001 -30.257165 12.145049
v 14.390001 -29.970890 12.239143
v 12.390001 -29.970890 12.239143
v 14.390001 -29.715452 12.399012
v 12.390001 -29.715452 12.399012
v 14.390001 -29.505696 12.615367
v 12.390001 -29.505696 12.615367
v 14.390001 -29.353812 12.875632
v 12.390001 -29.353812 12.875632
v 14.390001 -29.268626 13.164683
v 12.390001 -29.268626 13.164683
v 14.390001 -29.255091 13.465720
v 12.390001 -29.255091 13.465720
v 14.390001 -29.313992 13.761249
v 12.390001 -29.313992 13.761249
v 14.390001 -29.441906 14.034095
v 12.390001 -29.441906 14.034095
v 14.390001 -29.631399 14.268401
v 12.390001 -29.631399 14.268401
v 14.390001 -29.871459 14.450549
v 12.390001 -29.871459 14.450549
v 14.390001 -30.148135 14.569954
v 12.390001 -30.148135 14.569954
v 14.390001 -30.445346 14.619677
v 12.390001 -30.445346 14.619677
v 14.390001 -30.745820 14.596828
v 14.390001 -30.445346 14.619677
v 12.390001 -30.745820 14.596828
v 14.390001 -31.032095 14.502734
v 12.390001 -31.032095 14.502734
v 14.390001 -31.287533 14.342865
v 12.390001 -31.287533 14.342865
v 14.390001 -31.497289 14.126511
v 12.390001 -31.497289 14.126511
v 14.390001 -31.649173 13.866245
v 12.390001 -31.649173 13.866245
v 14.390001 -31.734358 13.577195
v 12.390001 -31.734358 13.577195
v 14.390001 -31.747894 13.276157
v 12.390001 -31.747894 13.276157
v 14.390001 -31.688993 12.980628
v 12.390001 -31.688993 12.980628
v 14.390001 -31.561079 12.707782
v 12.390001 -31.561079 12.707782
v 14.390001 -31.371585 12.473477
v 12.390001 -31.371585 12.473477
v 14.390001 -31.131525 12.291328
v 12.390001 -31.131525 12.291328
v 14.390001 -30.854850 12.171923
v 10.528166 -30.893980 12.069188
v 10.521837 -30.888582 12.093562
v 10.528166 -30.674468 12.022354
v 10.519854 -30.882794 12.117927
v 10.521166 -30.666327 12.088733
v 10.520591 -30.670457 12.055121
v 10.522746 -30.876523 12.142475
v 10.529856 -30.662332 12.121225
v 10.529862 -30.870109 12.166051
v 10.546153 -30.658716 12.150695
v 10.541417 -30.863814 12.187510
v 10.556931 -30.857630 12.207057
v 10.569103 -30.655705 12.175421
v 10.575460 -30.852110 12.222785
v 10.597363 -30.847001 12.235592
v 10.597363 -30.653485 12.193957
v 10.569103 -30.455193 12.166405
v 10.597363 -30.455740 12.185066
v 10.597363 -30.259268 12.209166
v 10.575460 -30.255329 12.195952
v 10.556931 -30.251243 12.179792
v 10.546153 -30.454412 12.141509
v 10.541417 -30.246838 12.159769
v 10.529862 -30.242494 12.137832
v 10.529856 -30.453456 12.111833
v 10.522745 -30.238222 12.113775
v 10.521166 -30.452393 12.079114
v 10.519854 -30.234179 12.088764
v 10.520591 -30.451297 12.045267
v 10.521837 -30.230602 12.063977
v 10.528166 -30.227413 12.039217
v 10.528166 -30.450242 12.012272
v 11.040674 -30.757104 12.439652
v 10.597363 -30.847001 12.235592
v 10.830811 -30.799685 12.342952
v 11.230297 -30.718578 12.527234
v 11.402411 -30.683554 12.606959
v 10.597363 -30.653485 12.193957
v 11.402411 -30.586098 12.590136
v 11.402411 -30.487300 12.585694
v 10.597363 -30.455740 12.185066
v 11.402411 -30.388728 12.593703
v 11.230297 -30.361000 12.511156
v 11.040674 -30.330489 12.420471
v 10.830810 -30.296758 12.320339
v 10.528166 -31.803243 13.763426
v 10.521837 -31.778869 13.758028
v 10.528166 -31.850077 13.543914
v 10.519854 -31.754504 13.752240
v 10.521166 -31.783698 13.535773
v 10.520591 -31.817310 13.539903
v 10.522745 -31.729956 13.745969
v 10.529856 -31.751206 13.531778
v 10.529862 -31.706380 13.739555
v 10.546152 -31.721736 13.528163
v 10.541416 -31.684921 13.733260
v 10.556931 -31.665374 13.727076
v 10.569103 -31.697010 13.525151
v 10.575459 -31.649646 13.721556
v 10.597363 -31.636839 13.716447
v 10.597363 -31.678474 13.522931
v 10.569103 -31.706026 13.324639
v 10.597363 -31.687365 13.325186
v 10.597363 -31.663265 13.128714
v 10.575460 -31.676479 13.124776
v 10.556931 -31.692639 13.120689
v 10.546153 -31.730922 13.323858
v 10.541416 -31.712662 13.116285
v 10.529862 -31.734599 13.111941
v 10.529856 -31.760598 13.322902
v 10.522746 -31.758656 13.107668
v 10.521166 -31.793317 13.321839
v 10.519854 -31.783667 13.103625
v 10.520591 -31.827164 13.320743
v 10.521837 -31.808454 13.100048
v 10.528166 -31.833214 13.096859
v 10.528166 -31.860159 13.319688
v 11.040673 -31.432779 13.626550
v 10.597363 -31.636839 13.716447
v 10.830810 -31.529479 13.669131
v 11.230297 -31.345197 13.588025
v 11.402411 -31.265472 13.553000
v 10.597363 -31.678474 13.522931
v 11.402411 -31.282295 13.455544
v 11.402411 -31.286737 13.356747
v 10.597363 -31.687365 13.325186
v 11.402411 -31.278728 13.258174
v 11.230297 -31.361275 13.230446
v 11.040674 -31.451960 13.199936
v 10.830810 -31.552092 13.166204
v 10.528166 -30.109005 14.672689
v 10.521837 -30.114403 14.648315
v 10.528166 -30.328517 14.719523
v 10.519854 -30.120190 14.623950
v 10.521166 -30.336658 14.653144
v 10.520591 -30.332528 14.686756
v 10.522745 -30.126462 14.599402
v 10.529855 -30.340653 14.620653
v 10.529862 -30.132876 14.575826
v 10.546152 -30.344268 14.591182
v 10.541416 -30.139171 14.554367
v 10.556930 -30.145355 14.534820
v 10.569103 -30.347280 14.566456
v 10.575459 -30.150875 14.519092
v 10.597363 -30.155984 14.506285
v 10.597363 -30.349500 14.547920
v 10.569103 -30.547792 14.575472
v 10.597363 -30.547245 14.556811
v 10.597363 -30.743716 14.532711
v 10.575459 -30.747655 14.545925
v 10.556930 -30.751742 14.562085
v 10.546152 -30.548573 14.600368
v 10.541416 -30.756146 14.582108
v 10.529861 -30.760490 14.604045
v 10.529855 -30.549529 14.630044
v 10.522745 -30.764763 14.628102
v 10.521166 -30.550592 14.662763
v 10.519854 -30.768805 14.653113
v 10.520591 -30.551688 14.696610
v 10.521837 -30.772383 14.677900
v 10.528166 -30.775572 14.702660
v 10.528166 -30.552743 14.729605
v 11.040673 -30.245881 14.302225
v 10.597363 -30.155984 14.506285
v 10.830810 -30.203299 14.398925
v 11.230297 -30.284406 14.214643
v 11.402411 -30.319431 14.134918
v 10.597363 -30.349500 14.547920
v 11.402410 -30.416887 14.151741
v 11.402411 -30.515684 14.156183
v 10.597363 -30.547245 14.556811
v 11.402410 -30.614257 14.148174
v 11.230297 -30.641985 14.230721
v 11.040673 -30.672495 14.321406
v 10.830810 -30.706226 14.421538
v 10.528166 -29.199742 12.978451
v 10.521837 -29.224115 12.983849
v 10.528166 -29.152908 13.197963
v 10.519854 -29.248481 12.989637
v 10.521166 -29.219287 13.206104
v 10.520591 -29.185675 13.201974
v 10.522745 -29.273028 12.995908
v 10.529855 -29.251778 13.210099
v 10.529862 -29.296605 13.002322
v 10.546152 -29.281249 13.213714
v 10.541416 -29.318063 13.008617
v 10.556930 -29.337611 13.014801
v 10.569103 -29.305975 13.216726
v 10.575460 -29.353339 13.020321
v 10.597363 -29.366146 13.025430
v 10.597363 -29.324511 13.218946
v 10.569103 -29.296959 13.417238
v 10.597363 -29.315620 13.416691
v 10.597363 -29.339720 13.613163
v 10.575460 -29.326506 13.617102
v 10.556931 -29.310346 13.621188
v 10.546152 -29.272063 13.418019
v 10.541417 -29.290323 13.625593
v 10.529862 -29.268386 13.629936
v 10.529856 -29.242387 13.418975
v 10.522745 -29.244329 13.634209
v 10.521166 -29.209668 13.420038
v 10.519854 -29.219318 13.638252
v 10.520591 -29.175821 13.421134
v 10.521837 -29.194531 13.641829
v 10.528166 -29.169771 13.645018
v 10.528166 -29.142826 13.422189
v 11.040673 -29.570206 13.115327
v 10.597363 -29.366146 13.025430
v 10.830810 -29.473506 13.072746
v 11.230297 -29.657787 13.153852
v 11.402411 -29.737513 13.188877
v 10.597363 -29.324511 13.218946
v 11.402411 -29.720690 13.286333
v 11.402411 -29.716248 13.385130
v 10.597363 -29.315620 13.416691
v 11.402411 -29.724257 13.483703
v 11.230297 -29.641710 13.511431
v 11.040673 -29.551024 13.541941
v 10.830810 -29.450893 13.575673
v 10.346400 -31.144501 13.185056
v 11.040674 -31.451960 13.199936
v 11.230297 -31.361275 13.230446
v 11.467119 -31.159179 13.282001
v 10.393110 -31.377364 13.153930
v 11.402411 -31.278728 13.258174
v 11.467119 -30.590430 14.028626
v 10.333097 -30.686220 13.926573
v 10.346400 -30.687375 14.013947
v 11.525203 -30.582169 13.919710
v 11.581426 -30.600851 13.808516
v 10.323293 -30.705118 13.843938
v 11.606179 -30.620753 13.755016
v 10.316933 -30.744392 13.765551
v 11.626544 -30.647627 13.704142
v 11.640441 -30.681552 13.656588
v 10.314794 -30.802188 13.698428
v 11.645563 -30.722819 13.613105
v 11.640441 -30.769830 13.575907
v 10.316889 -30.871904 13.648717
v 11.626544 -30.820236 13.546387
v 11.606179 -30.873317 13.524186
v 10.323145 -30.952803 13.616582
v 11.581426 -30.928387 13.509167
v 11.525203 -31.040810 13.500538
v 10.333355 -31.040211 13.604760
v 10.393110 -30.718500 14.246810
v 11.040673 -30.672495 14.321406
v 10.346400 -30.687375 14.013947
v 11.467119 -29.843805 13.459876
v 10.333097 -29.945858 13.555666
v 10.346400 -29.858484 13.556821
v 11.525203 -29.952720 13.451615
v 11.581426 -30.063915 13.470298
v 10.323293 -30.028493 13.574564
v 11.606179 -30.117415 13.490199
v 10.316933 -30.106880 13.613839
v 11.626544 -30.168289 13.517074
v 11.640441 -30.215842 13.550998
v 10.314794 -30.174003 13.671634
v 11.645563 -30.259326 13.592265
v 11.640441 -30.296524 13.639277
v 10.316888 -30.223714 13.741350
v 11.626544 -30.326044 13.689683
v 11.606179 -30.348245 13.742763
v 10.323145 -30.255849 13.822249
v 11.581426 -30.363264 13.797833
v 11.525203 -30.371893 13.910256
v 10.333355 -30.267671 13.909657
v 10.346400 -30.744331 12.747207
v 10.333355 -30.735314 12.832220
v 11.467119 -30.649094 12.723887
v 11.525203 -31.050264 13.290262
v 10.333097 -31.057127 13.186211
v 11.467119 -31.159179 13.282001
v 11.581426 -30.939070 13.271579
v 10.323293 -30.974492 13.167313
v 11.606179 -30.885570 13.251678
v 10.316933 -30.896105 13.128038
v 11.626544 -30.834696 13.224803
v 11.640441 -30.787142 13.190879
v 10.314794 -30.828982 13.070243
v 11.645563 -30.743659 13.149612
v 11.640441 -30.706461 13.102601
v 10.316889 -30.779271 13.000527
v 11.626544 -30.676941 13.052194
v 11.606179 -30.654740 12.999114
v 10.323145 -30.747136 12.919628
v 11.581426 -30.639720 12.944044
v 11.525203 -30.631092 12.831621
v 10.346400 -30.315610 12.727930
v 11.040674 -30.330489 12.420471
v 11.230297 -30.361000 12.511156
v 11.467119 -30.412555 12.713251
v 10.393110 -30.284484 12.495067
v 11.402411 -30.388728 12.593703
v 10.393110 -29.625621 13.587947
v 11.040673 -29.551024 13.541941
v 10.346400 -29.858484 13.556821
v 11.525203 -30.420816 12.822167
v 10.333097 -30.316765 12.815304
v 11.467119 -30.412555 12.713251
v 11.581426 -30.402133 12.933361
v 10.323293 -30.297867 12.897939
v 11.606179 -30.382232 12.986861
v 10.316933 -30.258592 12.976326
v 11.626544 -30.355357 13.037735
v 11.640441 -30.321432 13.085289
v 10.314794 -30.200796 13.043449
v 11.645563 -30.280166 13.128772
v 11.640441 -30.233154 13.165970
v 10.316889 -30.131081 13.093160
v 11.626544 -30.182748 13.195490
v 11.606179 -30.129668 13.217691
v 10.323145 -30.050181 13.125295
v 11.581426 -30.074598 13.232710
v 11.525203 -29.962175 13.241339
v 10.333355 -29.962774 13.137117
v 12.390001 -31.034246 10.928364
v 12.390001 -30.613786 10.873462
v 12.390001 -30.557639 12.122200
v 11.820001 -30.501492 13.370939
v 11.525203 -29.962175 13.241339
v 11.581426 -30.074598 13.232710
v 11.079032 -32.115264 11.614402
v 10.887452 -32.062485 11.961696
v 10.740319 -31.580902 11.876070
v 10.983329 -31.601968 11.407556
v 11.079032 -32.395767 11.921317
v 11.079032 -32.618713 12.272277
v 10.930611 -32.498461 12.518520
v 10.717898 -32.041056 12.438294
v 11.079032 -32.777328 12.656620
v 10.833847 -32.477557 12.983425
v 11.079032 -32.866793 13.062666
v 10.801238 -32.456182 13.458827
v 11.079032 -32.829583 13.890238
v 10.833801 -32.434822 13.933898
v 10.801238 -32.456182 13.458827
v 11.079032 -32.884390 13.478080
v 11.079032 -32.704039 14.286618
v 11.079032 -32.511571 14.655174
v 10.930611 -32.413903 14.399133
v 11.079032 -31.951114 15.265213
v 11.079032 -31.600154 15.488159
v 10.983329 -31.421326 15.425160
v 11.079032 -28.887720 15.127475
v 10.887452 -28.940500 14.780181
v 10.740319 -29.422082 14.865808
v 10.983328 -29.401017 15.334321
v 11.079032 -28.607218 14.820560
v 11.079032 -28.384272 14.469600
v 10.930611 -28.504524 14.223357
v 10.717898 -28.961929 14.303583
v 11.079032 -28.225657 14.085257
v 10.833847 -28.525427 13.758452
v 11.079032 -28.136191 13.679211
v 10.801238 -28.546803 13.283050
v 11.079032 -28.173401 12.851639
v 10.833801 -28.568163 12.807980
v 10.801238 -28.546803 13.283050
v 11.079032 -28.118595 13.263797
v 11.079032 -28.298946 12.455260
v 11.079032 -28.491413 12.086703
v 10.930611 -28.589081 12.342744
v 11.079032 -28.744956 11.757166
v 10.887452 -29.073269 11.827293
v 11.079032 -29.051870 11.476664
v 11.079032 -29.402831 11.253718
v 11.079032 -29.787173 11.095103
v 10.983329 -29.581659 11.316717
v 11.079032 -30.193220 11.005638
v 10.900188 -30.084855 11.288732
v 11.079032 -30.608634 10.988041
v 10.872323 -30.594846 11.294700
v 10.580333 -31.996100 13.438140
v 10.615040 -31.973361 13.943883
v 10.469735 -30.040342 12.278734
v 10.393110 -30.284484 12.495067
v 10.359906 -30.016639 12.805899
v 10.563433 -29.538238 12.282438
v 10.456212 -29.515089 12.797290
v 10.717898 -29.051840 12.303891
v 10.651068 -30.063260 11.769026
v 10.615040 -29.029624 12.797994
v 10.740319 -29.560593 11.785231
v 10.563433 -31.558547 12.373276
v 10.469735 -31.058800 12.324527
v 10.651069 -31.081718 11.814819
v 10.456376 -31.535451 12.886941
v 10.346400 -30.315610 12.727930
v 10.333097 -30.316765 12.815304
v 10.323293 -30.297867 12.897939
v 10.316933 -30.258592 12.976326
v 10.314794 -30.200796 13.043449
v 10.316889 -30.131081 13.093160
v 10.323145 -30.050181 13.125295
v 10.333355 -29.962774 13.137117
v 10.393110 -29.648631 13.076202
v 10.453772 -29.422353 13.026259
v 10.528166 -29.199742 12.978451
v 10.528166 -29.152908 13.197963
v 10.580334 -29.006884 13.303737
v 10.360132 -29.967813 13.891823
v 10.346400 -29.858484 13.556821
v 10.323293 -30.028493 13.574564
v 10.316888 -30.223714 13.741350
v 10.323145 -30.255849 13.822249
v 10.333355 -30.267671 13.909657
v 10.346400 -30.258654 13.994670
v 10.393110 -30.206756 14.223800
v 10.469735 -29.944184 14.417350
v 10.456376 -29.467534 13.854936
v 10.393110 -29.625621 13.587947
v 10.563433 -29.444438 14.368601
v 10.615143 -28.984111 13.810225
v 10.453772 -30.156813 14.450078
v 10.528166 -30.109005 14.672689
v 10.469735 -30.962642 14.463143
v 10.393110 -30.718500 14.246810
v 10.359906 -30.986345 13.935978
v 10.563433 -31.464747 14.459439
v 10.651068 -30.939725 14.972851
v 10.456212 -31.487896 13.944587
v 10.717898 -31.951145 14.437986
v 10.740319 -31.442391 14.956646
v 10.887452 -31.929715 14.914584
v 11.079032 -32.258028 14.984710
v 10.900188 -30.918129 15.453145
v 10.621155 -30.429912 14.962934
v 10.528166 -30.328517 14.719523
v 10.528166 -30.552743 14.729605
v 10.528166 -30.775572 14.702660
v 10.872323 -30.408139 15.447176
v 10.900188 -29.899671 15.407352
v 10.651068 -29.921266 14.927058
v 10.346400 -30.687375 14.013947
v 10.333097 -30.686220 13.926573
v 10.323293 -30.705118 13.843938
v 10.316933 -30.744392 13.765551
v 10.323145 -30.952803 13.616582
v 10.333355 -31.040211 13.604760
v 10.393110 -31.354354 13.665675
v 10.453772 -31.580632 13.715618
v 10.528166 -31.803243 13.763426
v 10.360132 -31.035171 12.850054
v 10.393110 -31.377364 13.153930
v 10.346400 -31.144501 13.185056
v 10.453772 -31.607210 13.124496
v 10.615143 -32.018873 12.931652
v 10.528166 -31.833214 13.096859
v 10.580333 -31.996100 13.438140
v 11.079032 -31.417171 11.168392
v 11.079032 -31.785728 11.360859
v 10.900188 -31.103313 11.334525
v 11.079032 -31.020792 11.042847
v 10.621156 -30.573073 11.778943
v 11.079032 -31.215811 15.646774
v 11.079032 -30.809764 15.736239
v 11.079032 -30.394351 15.753836
v 11.079032 -29.982193 15.699030
v 11.079032 -29.585813 15.573485
v 11.079032 -29.217256 15.381018
v 16.390001 -30.543715 12.431887
v 14.390001 -30.557639 12.122200
v 12.390001 -30.445346 14.619677
v 16.390001 -30.543715 12.431887
v 16.390001 -30.299232 12.452957
v 16.390001 -30.785320 12.474813
v 16.390001 -31.007583 12.578808
v 16.390001 -30.068532 12.536585
v 16.390001 -31.195357 12.736785
v 16.390001 -29.867338 12.677073
v 16.390001 -31.335846 12.937979
v 16.390001 -29.709361 12.864847
v 16.390001 -31.419474 13.168678
v 16.390001 -29.605366 13.087111
v 16.390001 -31.440543 13.413161
v 16.390001 -29.562441 13.328716
v 16.390001 -31.397618 13.654767
v 16.390001 -29.583510 13.573199
v 16.390001 -31.293623 13.877030
v 16.390001 -29.667139 13.803899
v 16.390001 -31.135646 14.064804
v 16.390001 -29.807627 14.005093
v 16.390001 -30.934452 14.205292
v 16.390001 -29.995401 14.163070
v 16.390001 -30.703753 14.288920
v 16.390001 -30.217664 14.267064
v 16.390001 -30.459270 14.309990
v 10.597363 -30.259268 12.209166
v 10.597363 -31.663265 13.128714
v 10.597363 -30.743716 14.532711
v 10.597363 -29.339720 13.613163
v 10.830810 -31.552092 13.166204
v 10.453772 -31.607210 13.124496
v 10.597363 -31.663265 13.128714
v 10.575460 -31.676479 13.124776
v 10.556931 -31.692639 13.120689
v 10.541416 -31.712662 13.116285
v 10.529862 -31.734599 13.111941
v 10.522746 -31.758656 13.107668
v 10.519854 -31.783667 13.103625
v 10.521837 -31.808454 13.100048
v 10.528166 -31.833214 13.096859
v 10.528166 -31.803243 13.763426
v 10.453772 -31.580632 13.715618
v 10.521837 -31.778869 13.758028
v 10.519854 -31.754504 13.752240
v 10.522745 -31.729956 13.745969
v 10.529862 -31.706380 13.739555
v 10.541416 -31.684921 13.733260
v 10.556931 -31.665374 13.727076
v 10.575459 -31.649646 13.721556
v 10.597363 -31.636839 13.716447
v 10.830810 -31.529479 13.669131
v 10.393110 -31.354354 13.665675
v 11.040673 -31.432779 13.626550
v 10.346400 -31.125224 13.613777
v 11.230297 -31.345197 13.588025
v 11.467119 -31.148544 13.518540
v 11.402411 -31.265472 13.553000
v 10.346400 -31.125224 13.613777
v 11.467119 -31.148544 13.518540
v 10.830810 -30.706226 14.421538
v 11.230297 -30.641985 14.230721
v 11.467119 -30.590430 14.028626
v 11.402410 -30.614257 14.148174
v 10.453772 -30.747935 14.476657
v 10.597363 -30.743716 14.532711
v 10.575459 -30.747655 14.545925
v 10.556930 -30.751742 14.562085
v 10.541416 -30.756146 14.582108
v 10.529861 -30.760490 14.604045
v 10.522745 -30.764763 14.628102
v 10.519854 -30.768805 14.653113
v 10.521837 -30.772383 14.677900
v 10.528166 -30.775572 14.702660
v 10.528166 -30.109005 14.672689
v 10.453772 -30.156813 14.450078
v 10.521837 -30.114403 14.648315
v 10.519854 -30.120190 14.623950
v 10.522745 -30.126462 14.599402
v 10.529862 -30.132876 14.575826
v 10.541416 -30.139171 14.554367
v 10.556930 -30.145355 14.534820
v 10.575459 -30.150875 14.519092
v 10.597363 -30.155984 14.506285
v 10.830810 -30.203299 14.398925
v 10.393110 -30.206756 14.223800
v 11.040673 -30.245881 14.302225
v 10.346400 -30.258654 13.994670
v 11.230297 -30.284406 14.214643
v 11.467119 -30.353891 14.017990
v 11.402411 -30.319431 14.134918
v 10.346400 -30.258654 13.994670
v 11.467119 -30.353891 14.017990
v 10.346400 -31.144501 13.185056
v 10.830810 -30.296758 12.320339
v 10.453772 -30.255050 12.265220
v 10.597363 -30.259268 12.209166
v 10.575460 -30.255329 12.195952
v 10.556931 -30.251243 12.179792
v 10.541417 -30.246838 12.159769
v 10.529862 -30.242494 12.137832
v 10.522745 -30.238222 12.113775
v 10.519854 -30.234179 12.088764
v 10.521837 -30.230602 12.063977
v 10.528166 -30.227413 12.039217
v 10.830810 -29.450893 13.575673
v 11.230297 -29.641710 13.511431
v 11.467119 -29.843805 13.459876
v 11.402411 -29.724257 13.483703
v 10.453772 -29.395774 13.617381
v 10.597363 -29.339720 13.613163
v 10.575460 -29.326506 13.617102
v 10.556931 -29.310346 13.621188
v 10.541417 -29.290323 13.625593
v 10.529862 -29.268386 13.629936
v 10.522745 -29.244329 13.634209
v 10.519854 -29.219318 13.638252
v 10.521837 -29.194531 13.641829
v 10.528166 -29.169771 13.645018
v 10.528166 -29.199742 12.978451
v 10.453772 -29.422353 13.026259
v 10.521837 -29.224115 12.983849
v 10.519854 -29.248481 12.989637
v 10.522745 -29.273028 12.995908
v 10.529862 -29.296605 13.002322
v 10.541416 -29.318063 13.008617
v 10.556930 -29.337611 13.014801
v 10.575460 -29.353339 13.020321
v 10.597363 -29.366146 13.025430
v 10.830810 -29.473506 13.072746
v 10.393110 -29.648631 13.076202
v 11.040673 -29.570206 13.115327
v 10.346400 -29.877761 13.128100
v 11.230297 -29.657787 13.153852
v 11.467119 -29.854441 13.223337
v 11.402411 -29.737513 13.188877
v 10.346400 -29.877761 13.128100
v 11.467119 -29.854441 13.223337
v 10.346400 -30.315610 12.727930
v 10.528166 -30.893980 12.069188
v 10.453772 -30.846172 12.291799
v 10.521837 -30.888582 12.093562
v 10.519854 -30.882794 12.117927
v 10.522746 -30.876523 12.142475
v 10.529862 -30.870109 12.166051
v 10.541417 -30.863814 12.187510
v 10.556931 -30.857630 12.207057
v 10.575460 -30.852110 12.222785
v 10.597363 -30.847001 12.235592
v 10.830811 -30.799685 12.342952
v 10.393110 -30.796229 12.518077
v 11.040674 -30.757104 12.439652
v 10.346400 -30.744331 12.747207
v 11.230297 -30.718578 12.527234
v 11.467119 -30.649094 12.723887
v 11.402411 -30.683554 12.606959
v 12.390001 -30.190095 10.890408
v 12.390001 -30.257165 12.145049
v 12.390001 -29.775362 10.978715
v 12.390001 -29.970890 12.239143
v 12.390001 -29.381519 11.135841
v 12.390001 -29.019896 11.357268
v 12.390001 -29.715452 12.399012
v 12.390001 -28.700895 11.636623
v 12.390001 -29.505696 12.615367
v 12.390001 -28.433694 11.965872
v 12.390001 -29.353812 12.875632
v 12.390001 -28.225980 12.335543
v 12.390001 -28.083729 12.734999
v 12.390001 -29.268626 13.164683
v 12.390001 -28.011032 13.152751
v 12.390001 -29.255091 13.465720
v 12.390001 -28.009981 13.576779
v 12.390001 -28.080606 13.994886
v 12.390001 -29.313992 13.761249
v 12.390001 -28.220876 14.395042
v 12.390001 -29.441906 14.034095
v 12.390001 -28.426755 14.765738
v 12.390001 -28.692320 15.096307
v 12.390001 -29.631399 14.268401
v 12.390001 -29.009932 15.377241
v 12.390001 -29.871459 14.450549
v 12.390001 -29.370454 15.600457
v 12.390001 -30.148135 14.569954
v 12.390001 -29.763513 15.759534
v 12.390001 -30.177803 15.849895
v 12.390001 -30.445346 14.619677
v 12.390001 -30.601404 15.868941
v 12.390001 -30.745820 14.596828
v 12.390001 -31.022132 15.816124
v 12.390001 -31.427881 15.692964
v 12.390001 -31.032095 14.502734
v 12.390001 -31.806980 15.503003
v 12.390001 -31.287533 14.342865
v 12.390001 -32.148523 15.251707
v 12.390001 -31.497289 14.126511
v 12.390001 -32.442683 14.946304
v 12.390001 -32.680999 14.595581
v 12.390001 -31.649173 13.866245
v 12.390001 -32.856614 14.209628
v 12.390001 -31.734358 13.577195
v 12.390001 -32.964477 13.799546
v 12.390001 -33.001485 13.377135
v 12.390001 -31.747894 13.276157
v 12.390001 -32.966571 12.954545
v 12.390001 -31.688993 12.980628
v 12.390001 -32.860743 12.543934
v 12.390001 -32.687042 12.157114
v 12.390001 -31.561079 12.707782
v 12.390001 -32.450468 11.805214
v 12.390001 -31.371585 12.473477
v 12.390001 -32.157825 11.498357
v 12.390001 -31.131525 12.291328
v 12.390001 -31.817533 11.245371
v 12.390001 -31.439380 11.053533
v 12.390001 -30.854850 12.171923
v 11.402411 -29.737513 13.188877
v 11.467119 -29.854441 13.223337
v 11.402411 -29.720690 13.286333
v 11.606179 -30.129668 13.217691
v 11.820001 -30.501492 13.370939
v 11.626544 -30.182748 13.195490
v 11.640441 -30.233154 13.165970
v 11.640441 -30.321432 13.085289
v 11.820001 -30.501492 13.370939
v 11.645563 -30.280166 13.128772
v 11.626544 -30.355357 13.037735
v 11.820001 -30.501492 13.370939
v 11.606179 -30.382232 12.986861
v 11.820001 -30.501492 13.370939
v 11.581426 -30.402133 12.933361
v 11.525203 -30.420816 12.822167
v 11.402411 -30.487300 12.585694
v 11.402411 -30.586098 12.590136
v 11.820001 -30.501492 13.370939
v 11.467119 -30.412555 12.713251
v 11.402411 -30.388728 12.593703
v 11.467119 -30.649094 12.723887
v 11.525203 -30.631092 12.831621
v 11.820001 -30.501492 13.370939
v 11.402411 -30.683554 12.606959
v 11.581426 -30.639720 12.944044
v 11.606179 -30.654740 12.999114
v 11.820001 -30.501492 13.370939
v 11.626544 -30.676941 13.052194
v 11.640441 -30.706461 13.102601
v 11.640441 -30.787142 13.190879
v 11.820001 -30.501492 13.370939
v 11.645563 -30.743659 13.149612
v 11.626544 -30.834696 13.224803
v 11.820001 -30.501492 13.370939
v 11.606179 -30.885570 13.251678
v 11.820001 -30.501492 13.370939
v 11.581426 -30.939070 13.271579
v 11.525203 -31.050264 13.290262
v 11.402411 -31.286737 13.356747
v 11.402411 -31.282295 13.455544
v 11.820001 -30.501492 13.370939
v 11.467119 -31.159179 13.282001
v 11.402411 -31.278728 13.258174
v 11.467119 -31.148544 13.518540
v 11.525203 -31.040810 13.500538
v 11.820001 -30.501492 13.370939
v 11.402411 -31.265472 13.553000
v 11.581426 -30.928387 13.509167
v 11.606179 -30.873317 13.524186
v 11.820001 -30.501492 13.370939
v 11.626544 -30.820236 13.546387
v 11.640441 -30.769830 13.575907
v 11.640441 -30.681552 13.656588
v 11.820001 -30.501492 13.370939
v 11.645563 -30.722819 13.613105
v 11.626544 -30.647627 13.704142
v 11.820001 -30.501492 13.370939
v 11.606179 -30.620753 13.755016
v 11.820001 -30.501492 13.370939
v 11.581426 -30.600851 13.808516
v 11.525203 -30.582169 13.919710
v 11.402411 -30.515684 14.156183
v 11.820001 -30.501492 13.370939
v 11.467119 -30.590430 14.028626
v 11.402410 -30.614257 14.148174
v 11.402411 -30.515684 14.156183
v 11.402410 -30.416887 14.151741
v 11.820001 -30.501492 13.370939
v 11.467119 -30.353891 14.017990
v 11.525203 -30.371893 13.910256
v 11.820001 -30.501492 13.370939
v 11.402411 -30.319431 14.134918
v 11.581426 -30.363264 13.797833
v 11.606179 -30.348245 13.742763
v 11.820001 -30.501492 13.370939
v 11.626544 -30.326044 13.689683
v 11.640441 -30.296524 13.639277
v 11.640441 -30.215842 13.550998
v 11.820001 -30.501492 13.370939
v 11.645563 -30.259326 13.592265
v 11.626544 -30.168289 13.517074
v 11.820001 -30.501492 13.370939
v 11.606179 -30.117415 13.490199
v 11.820001 -30.501492 13.370939
v 11.581426 -30.063915 13.470298
v 11.525203 -29.952720 13.451615
v 11.402411 -29.716248 13.385130
v 11.820001 -30.501492 13.370939
v 11.467119 -29.843805 13.459876
v 11.402411 -29.724257 13.483703
v 10.453772 -30.255050 12.265220
v 10.528166 -30.227413 12.039217
v 10.528166 -30.450242 12.012272
v 10.528166 -30.674468 12.022354
v 10.528166 -30.893980 12.069188
v 10.453772 -30.846172 12.291799
v 10.393110 -30.796229 12.518077
v 10.346400 -30.744331 12.747207
v 10.333355 -30.735314 12.832220
v 10.323145 -30.747136 12.919628
v 10.316889 -30.779271 13.000527
v 10.314794 -30.828982 13.070243
v 10.316933 -30.896105 13.128038
v 10.323293 -30.974492 13.167313
v 10.333097 -31.057127 13.186211
v 11.079032 -28.118595 13.263797
v 10.346400 -29.877761 13.128100
v 10.580334 -29.006884 13.303737
v 10.528166 -29.152908 13.197963
v 10.528166 -29.142826 13.422189
v 10.528166 -29.169771 13.645018
v 10.453772 -29.395774 13.617381
v 10.333097 -29.945858 13.555666
v 10.316933 -30.106880 13.613839
v 10.314794 -30.174003 13.671634
v 10.453772 -30.747935 14.476657
v 11.079032 -32.884390 13.478080
v 10.314794 -30.802188 13.698428
v 10.316889 -30.871904 13.648717
v 10.346400 -31.125224 13.613777
v 10.528166 -31.850077 13.543914
v 10.528166 -31.850077 13.543914
v 10.528166 -31.860159 13.319688
v 12.390001 -30.190095 10.890408
v 12.390001 -30.613786 10.873462
v 11.079032 -30.608634 10.988041
v 12.390001 -31.034246 10.928364
v 11.079032 -31.020792 11.042847
v 12.390001 -31.439380 11.053533
v 11.079032 -31.417171 11.168392
v 12.390001 -31.817533 11.245371
v 11.079032 -31.785728 11.360859
v 12.390001 -32.157825 11.498357
v 11.079032 -32.115264 11.614402
v 12.390001 -32.450468 11.805214
v 11.079032 -32.395767 11.921317
v 12.390001 -32.687042 12.157114
v 11.079032 -32.618713 12.272277
v 12.390001 -32.860743 12.543934
v 11.079032 -32.777328 12.656620
v 12.390001 -32.966571 12.954545
v 11.079032 -32.866793 13.062666
v 12.390001 -33.001485 13.377135
v 11.079032 -32.884390 13.478080
v 12.390001 -32.964477 13.799546
v 11.079032 -32.829583 13.890238
v 12.390001 -32.856614 14.209628
v 11.079032 -32.704039 14.286618
v 12.390001 -32.680999 14.595581
v 11.079032 -32.511571 14.655174
v 12.390001 -32.442683 14.946304
v 11.079032 -32.258028 14.984710
v 12.390001 -32.148523 15.251707
v 11.079032 -31.951114 15.265213
v 12.390001 -31.806980 15.503003
v 11.079032 -31.600154 15.488159
v 12.390001 -31.427881 15.692964
v 11.079032 -31.215811 15.646774
v 12.390001 -31.022132 15.816124
v 11.079032 -30.809764 15.736239
v 12.390001 -30.601404 15.868941
v 11.079032 -30.394351 15.753836
v 11.079032 -30.394351 15.753836
v 12.390001 -30.601404 15.868941
v 12.390001 -30.177803 15.849895
v 11.079032 -29.982193 15.699030
v 12.390001 -29.763513 15.759534
v 11.079032 -29.585813 15.573485
v 12.390001 -29.370454 15.600457
v 11.079032 -29.217256 15.381018
v 12.390001 -29.009932 15.377241
v 11.079032 -28.887720 15.127475
v 12.390001 -28.692320 15.096307
v 11.079032 -28.607218 14.820560
v 12.390001 -28.426755 14.765738
v 11.079032 -28.384272 14.469600
v 12.390001 -28.220876 14.395042
v 11.079032 -28.225657 14.085257
v 12.390001 -28.080606 13.994886
v 11.079032 -28.136191 13.679211
v 12.390001 -28.009981 13.576779
v 11.079032 -28.118595 13.263797
v 12.390001 -28.011032 13.152751
v 11.079032 -28.173401 12.851639
v 12.390001 -28.083729 12.734999
v 11.079032 -28.298946 12.455260
v 12.390001 -28.225980 12.335543
v 11.079032 -28.491413 12.086703
v 12.390001 -28.433694 11.965872
v 11.079032 -28.744956 11.757166
v 12.390001 -28.700895 11.636623
v 11.079032 -29.051870 11.476664
v 12.390001 -29.019896 11.357268
v 11.079032 -29.402831 11.253718
v 12.390001 -29.381519 11.135841
v 11.079032 -29.787173 11.095103
v 12.390001 -29.775362 10.978715
v 11.079032 -30.193220 11.005638
f 1 2 3
f 1 4 5
f 1 3 4
f 4 6 5
f 5 6 7
f 6 8 7
f 7 8 9
f 8 10 9
f 9 10 11
f 10 12 11
f 11 12 13
f 12 14 13
f 13 14 15
f 14 16 15
f 15 16 17
f 16 18 17
f 17 18 19
f 18 20 19
f 19 20 21
f 20 22 21
f 21 22 23
f 22 24 23
f 23 24 25
f 24 26 25
f 25 26 28
f 26 27 28
f 26 29 27
f 27 29 30
f 29 31 30
f 30 31 32
f 31 33 32
f 32 33 34
f 33 35 34
f 34 35 36
f 35 37 36
f 36 37 38
f 37 39 38
f 38 39 40
f 39 41 40
f 40 41 42
f 41 43 42
f 42 43 44
f 43 45 44
f 44 45 46
f 45 47 46
f 46 47 48
f 47 49 48
f 48 49 50
f 49 527 50
f 50 527 528
f 51 52 53
f 51 53 54
f 51 55 52
f 52 55 56
f 53 103 54
f 54 103 102
f 55 57 56
f 56 57 58
f 57 59 58
f 58 59 60
f 59 61 60
f 60 61 62
f 61 63 62
f 62 63 64
f 63 65 64
f 64 65 66
f 65 67 66
f 66 67 68
f 67 69 68
f 68 69 70
f 69 71 70
f 70 71 72
f 71 73 72
f 72 73 74
f 73 75 74
f 74 75 76
f 75 77 76
f 76 77 78
f 77 529 78
f 79 80 81
f 79 82 80
f 80 82 83
f 82 84 83
f 83 84 85
f 84 86 85
f 85 86 87
f 86 88 87
f 87 88 89
f 88 90 89
f 89 90 91
f 90 92 91
f 91 92 93
f 92 94 93
f 93 94 95
f 94 96 95
f 95 96 97
f 96 98 97
f 97 98 99
f 98 100 99
f 99 100 101
f 100 102 101
f 101 102 103
f 104 105 106
f 105 107 109
f 105 109 106
f 106 109 135
f 107 108 109
f 107 110 108
f 108 110 111
f 108 111 130
f 108 130 132
f 108 132 109
f 109 132 135
f 110 112 111
f 111 112 113
f 111 113 128
f 111 128 130
f 112 114 113
f 113 115 116
f 113 114 115
f 113 116 125
f 113 125 128
f 115 117 116
f 116 119 120
f 116 117 119
f 116 120 125
f 117 118 119
f 119 121 120
f 120 121 122
f 120 122 123
f 120 124 125
f 120 123 124
f 124 126 125
f 125 127 128
f 125 126 127
f 127 129 128
f 128 129 130
f 129 131 130
f 130 131 132
f 131 133 132
f 132 133 135
f 133 134 135
f 136 137 138
f 136 139 140
f 136 140 137
f 137 140 141
f 140 142 141
f 141 143 144
f 141 142 143
f 143 145 144
f 144 145 146
f 144 146 147
f 144 147 148
f 144 148 554
f 149 150 151
f 150 152 154
f 150 154 151
f 151 154 180
f 152 153 154
f 152 155 153
f 153 155 156
f 153 156 175
f 153 175 177
f 153 177 154
f 154 177 180
f 155 157 156
f 156 157 158
f 156 158 173
f 156 173 175
f 157 159 158
f 158 160 161
f 158 159 160
f 158 161 170
f 158 170 173
f 160 162 161
f 161 164 165
f 161 162 164
f 161 165 170
f 162 163 164
f 164 166 165
f 165 166 167
f 165 167 168
f 165 169 170
f 165 168 169
f 169 171 170
f 170 172 173
f 170 171 172
f 172 174 173
f 173 174 175
f 174 176 175
f 175 176 177
f 176 178 177
f 177 178 180
f 178 179 180
f 181 182 183
f 181 184 185
f 181 185 182
f 182 185 186
f 185 187 186
f 186 188 189
f 186 187 188
f 188 190 189
f 189 190 191
f 189 191 192
f 189 192 193
f 189 193 555
f 194 195 196
f 195 197 199
f 195 199 196
f 196 199 225
f 197 198 199
f 197 200 198
f 198 200 201
f 198 201 220
f 198 220 222
f 198 222 199
f 199 222 225
f 200 202 201
f 201 202 203
f 201 203 218
f 201 218 220
f 202 204 203
f 203 205 206
f 203 204 205
f 203 206 215
f 203 215 218
f 205 207 206
f 206 209 210
f 206 207 209
f 206 210 215
f 207 208 209
f 209 211 210
f 210 211 212
f 210 212 213
f 210 214 215
f 210 213 214
f 214 216 215
f 215 217 218
f 215 216 217
f 217 219 218
f 218 219 220
f 219 221 220
f 220 221 222
f 221 223 222
f 222 223 225
f 223 224 225
f 226 227 228
f 226 229 230
f 226 230 227
f 227 230 231
f 230 232 231
f 231 233 234
f 231 232 233
f 233 235 234
f 234 235 236
f 234 236 237
f 234 237 238
f 234 238 556
f 239 240 241
f 240 242 244
f 240 244 241
f 241 244 270
f 242 243 244
f 242 245 243
f 243 245 246
f 243 246 265
f 243 265 267
f 243 267 244
f 244 267 270
f 245 247 246
f 246 247 248
f 246 248 263
f 246 263 265
f 247 249 248
f 248 250 251
f 248 249 250
f 248 251 260
f 248 260 263
f 250 252 251
f 251 254 255
f 251 252 254
f 251 255 260
f 252 253 254
f 254 256 255
f 255 256 257
f 255 257 258
f 255 259 260
f 255 258 259
f 259 261 260
f 260 262 263
f 260 261 262
f 262 264 263
f 263 264 265
f 264 266 265
f 265 266 267
f 266 268 267
f 267 268 270
f 268 269 270
f 271 272 273
f 271 274 275
f 271 275 272
f 272 275 276
f 275 277 276
f 276 278 279
f 276 277 278
f 278 280 279
f 279 280 281
f 279 281 282
f 279 282 283
f 279 283 557
f 284 285 286
f 284 286 287
f 284 288 285
f 285 288 558
f 286 289 287
f 288 559 558
f 290 291 292
f 290 293 291
f 291 294 295
f 291 293 294
f 294 296 295
f 295 296 297
f 296 298 297
f 297 299 300
f 297 298 299
f 299 301 300
f 300 302 303
f 300 301 302
f 302 304 303
f 303 305 306
f 303 304 305
f 305 307 306
f 306 308 309
f 306 307 308
f 308 587 309
f 309 587 586
f 310 311 312
f 310 588 311
f 310 592 588
f 311 589 312
f 312 589 590
f 313 314 315
f 313 316 314
f 314 317 318
f 314 316 317
f 317 319 318
f 318 319 320
f 319 321 320
f 320 322 323
f 320 321 322
f 322 324 323
f 323 325 326
f 323 324 325
f 325 327 326
f 326 328 329
f 326 327 328
f 328 330 329
f 329 331 332
f 329 330 331
f 331 620 332
f 332 620 619
f 333 334 335
f 334 351 353
f 334 353 335
f 336 337 338
f 336 339 337
f 337 339 340
f 337 621 338
f 339 341 340
f 340 341 342
f 341 343 342
f 342 344 345
f 342 343 344
f 344 346 345
f 345 347 348
f 345 346 347
f 347 349 348
f 348 350 351
f 348 349 350
f 350 352 351
f 351 352 353
f 354 355 356
f 354 356 357
f 354 358 355
f 355 358 622
f 356 359 357
f 358 623 622
f 360 361 362
f 360 633 361
f 360 637 633
f 361 634 362
f 362 634 635
f 363 364 365
f 363 366 364
f 364 366 367
f 364 666 365
f 366 368 367
f 367 368 369
f 368 370 369
f 369 371 372
f 369 370 371
f 371 373 372
f 372 374 375
f 372 373 374
f 374 376 375
f 375 377 378
f 375 376 377
f 377 379 378
f 378 380 381
f 378 379 380
f 380 665 381
f 381 665 664
f 382 383 384
f 382 743 742
f 382 384 743
f 383 684 384
f 384 684 685
f 385 386 387
f 385 746 386
f 386 746 745
f 387 747 748
f 388 389 390
f 388 390 391
f 388 392 389
f 388 391 517
f 389 392 393
f 389 393 395
f 389 395 450
f 389 450 390
f 390 450 451
f 390 451 452
f 390 452 391
f 391 516 517
f 391 452 518
f 391 518 516
f 393 394 395
f 393 396 394
f 394 396 397
f 394 513 395
f 394 397 513
f 395 453 450
f 395 513 453
f 396 398 397
f 397 398 399
f 397 399 515
f 397 515 513
f 398 861 399
f 400 401 402
f 400 402 403
f 400 404 401
f 401 439 402
f 401 440 439
f 401 406 440
f 401 404 406
f 404 405 406
f 405 491 406
f 406 488 440
f 406 490 488
f 406 491 490
f 407 408 409
f 407 490 491
f 407 489 490
f 407 409 489
f 408 521 409
f 409 492 489
f 409 521 492
f 410 411 412
f 410 412 413
f 410 414 411
f 410 413 526
f 411 414 415
f 411 415 417
f 411 417 478
f 411 478 412
f 412 478 475
f 412 475 499
f 412 499 413
f 413 498 525
f 413 525 526
f 413 499 498
f 415 416 417
f 415 418 416
f 416 418 419
f 416 479 417
f 416 419 479
f 417 479 476
f 417 476 478
f 418 420 419
f 419 420 421
f 419 852 479
f 419 421 852
f 420 850 421
f 422 423 424
f 422 424 425
f 422 426 423
f 423 428 448
f 423 426 428
f 423 448 466
f 423 466 424
f 426 427 428
f 427 429 428
f 428 429 430
f 428 446 448
f 428 430 446
f 429 431 430
f 430 431 432
f 430 449 446
f 430 434 449
f 430 432 434
f 432 433 434
f 433 435 436
f 433 436 434
f 434 436 449
f 435 437 438
f 435 438 436
f 436 438 447
f 436 447 449
f 437 519 438
f 438 518 520
f 438 519 518
f 438 520 447
f 439 440 508
f 439 508 865
f 440 488 487
f 440 487 508
f 441 442 443
f 441 443 444
f 441 444 447
f 441 836 835
f 441 835 442
f 441 447 836
f 442 454 443
f 443 445 444
f 443 454 455
f 443 455 456
f 443 457 458
f 443 458 459
f 443 460 461
f 443 461 462
f 443 462 445
f 443 456 457
f 443 459 460
f 444 445 446
f 444 446 449
f 444 449 447
f 445 448 446
f 445 462 463
f 445 463 464
f 445 464 448
f 447 837 836
f 447 520 837
f 448 464 465
f 448 465 466
f 450 509 451
f 450 453 509
f 451 839 452
f 451 840 839
f 451 841 840
f 451 509 841
f 452 520 518
f 452 838 520
f 452 839 838
f 453 512 510
f 453 510 509
f 453 513 514
f 453 514 512
f 461 851 462
f 467 468 469
f 467 469 470
f 467 471 472
f 467 472 473
f 467 474 475
f 467 476 477
f 467 478 476
f 467 475 478
f 467 477 468
f 467 470 471
f 467 473 474
f 468 857 469
f 469 858 470
f 470 858 859
f 474 480 475
f 475 480 481
f 475 481 499
f 476 479 855
f 476 855 856
f 476 856 477
f 479 852 855
f 481 494 499
f 482 483 484
f 482 484 485
f 482 485 486
f 482 486 496
f 482 496 860
f 482 860 483
f 483 500 484
f 484 487 485
f 484 500 501
f 484 501 502
f 484 503 504
f 484 504 505
f 484 506 487
f 484 502 503
f 484 505 506
f 485 487 488
f 485 488 489
f 485 489 486
f 486 489 492
f 486 497 493
f 486 492 497
f 486 493 496
f 487 506 507
f 487 507 508
f 488 490 489
f 492 521 522
f 492 522 497
f 493 494 495
f 493 495 496
f 493 497 498
f 493 499 494
f 493 498 499
f 497 522 523
f 497 523 524
f 497 524 498
f 498 524 525
f 503 862 504
f 504 862 863
f 505 864 506
f 509 510 511
f 509 842 841
f 509 843 842
f 509 844 843
f 509 845 844
f 509 846 845
f 509 847 846
f 509 848 847
f 509 511 848
f 511 849 848
f 513 867 514
f 513 515 867
f 515 866 867
f 516 518 519
f 520 838 837
f 530 531 532
f 531 533 532
f 531 534 533
f 533 534 535
f 534 536 535
f 535 536 537
f 536 538 537
f 537 538 539
f 538 540 539
f 539 540 541
f 540 542 541
f 541 542 543
f 542 544 543
f 543 544 545
f 544 546 545
f 545 546 547
f 546 548 547
f 547 548 549
f 548 550 549
f 549 550 551
f 550 552 551
f 551 552 553
f 558 559 560
f 559 561 560
f 559 562 561
f 559 563 562
f 559 564 563
f 559 565 564
f 559 566 565
f 559 567 566
f 559 568 567
f 569 570 571
f 570 572 571
f 570 573 572
f 570 574 573
f 570 575 574
f 570 576 575
f 570 577 576
f 570 578 577
f 570 579 578
f 570 580 579
f 579 580 581
f 580 582 581
f 581 582 583
f 582 584 583
f 583 584 585
f 588 592 593
f 589 591 590
f 592 594 593
f 592 595 594
f 592 596 595
f 592 597 596
f 592 598 597
f 592 599 598
f 592 600 599
f 592 601 600
f 602 603 604
f 603 605 604
f 603 606 605
f 603 607 606
f 603 608 607
f 603 609 608
f 603 610 609
f 603 611 610
f 603 612 611
f 603 613 612
f 612 613 614
f 613 615 614
f 614 615 616
f 615 617 616
f 616 617 618
f 622 623 624
f 623 625 624
f 623 626 625
f 623 627 626
f 623 628 627
f 623 629 628
f 623 630 629
f 623 631 630
f 623 632 631
f 633 637 638
f 634 636 635
f 637 639 638
f 637 640 639
f 637 641 640
f 637 642 641
f 637 643 642
f 637 644 643
f 637 645 644
f 637 646 645
f 647 648 649
f 648 650 649
f 648 651 650
f 648 652 651
f 648 653 652
f 648 654 653
f 648 655 654
f 648 656 655
f 648 657 656
f 648 658 657
f 657 658 659
f 658 660 659
f 659 660 661
f 660 662 661
f 661 662 663
f 667 668 669
f 668 670 669
f 668 671 670
f 668 672 671
f 668 673 672
f 668 674 673
f 668 675 674
f 668 676 675
f 668 677 676
f 668 678 677
f 677 678 679
f 678 680 679
f 679 680 681
f 680 682 681
f 681 682 683
f 684 686 685
f 685 686 687
f 686 688 687
f 687 688 689
f 687 689 690
f 689 691 690
f 690 691 692
f 691 693 692
f 692 693 694
f 693 695 694
f 694 695 696
f 694 696 697
f 696 698 697
f 697 698 699
f 698 700 699
f 699 700 701
f 699 701 702
f 701 703 702
f 702 703 704
f 703 705 704
f 704 705 706
f 704 706 707
f 706 708 707
f 707 708 709
f 708 710 709
f 709 710 711
f 710 712 711
f 711 712 713
f 711 713 714
f 713 715 714
f 714 715 716
f 715 717 716
f 716 717 718
f 716 718 719
f 718 720 719
f 719 720 721
f 720 722 721
f 721 722 723
f 722 724 723
f 723 724 725
f 723 725 726
f 725 727 726
f 726 727 728
f 727 729 728
f 728 729 730
f 728 730 731
f 730 732 731
f 731 732 733
f 732 734 733
f 733 734 735
f 733 735 736
f 735 737 736
f 736 737 738
f 737 739 738
f 738 739 740
f 739 741 740
f 740 741 742
f 740 742 743
f 744 745 746
f 746 830 831
f 746 832 830
f 747 749 748
f 748 749 750
f 750 753 755
f 751 752 753
f 751 754 752
f 754 756 757
f 756 758 757
f 757 758 759
f 759 760 761
f 759 761 762
f 759 763 760
f 760 763 764
f 761 765 766
f 761 766 767
f 761 768 765
f 766 769 767
f 769 770 771
f 770 772 771
f 771 772 773
f 773 776 778
f 774 775 776
f 774 777 775
f 777 779 780
f 779 781 780
f 780 781 782
f 782 783 784
f 782 784 785
f 782 786 783
f 783 786 787
f 784 788 789
f 784 789 790
f 784 791 788
f 789 792 790
f 792 793 794
f 793 795 794
f 794 795 796
f 796 799 801
f 797 798 799
f 797 800 798
f 800 802 803
f 802 804 803
f 803 804 805
f 805 806 807
f 805 808 806
f 806 808 809
f 810 811 812
f 811 813 814
f 811 814 815
f 811 816 813
f 814 817 815
f 817 818 819
f 818 820 819
f 819 820 821
f 821 824 826
f 822 823 824
f 822 825 823
f 825 827 828
f 827 829 828
f 828 829 830
f 830 833 831
f 831 833 834
f 852 853 854
f 852 854 855
f 868 869 870
f 868 942 941
f 868 870 942
f 869 871 870
f 870 871 872
f 871 873 872
f 872 873 874
f 873 875 874
f 874 875 876
f 875 877 876
f 876 877 878
f 877 879 878
f 878 879 880
f 879 881 880
f 880 881 882
f 881 883 882
f 882 883 884
f 883 885 884
f 884 885 886
f 885 887 886
f 886 887 888
f 887 889 888
f 888 889 890
f 889 891 890
f 890 891 892
f 891 893 892
f 892 893 894
f 893 895 894
f 894 895 896
f 895 897 896
f 896 897 898
f 897 899 898
f 898 899 900
f 899 901 900
f 900 901 902
f 901 903 902
f 902 903 904
f 903 905 904
f 904 905 906
f 907 908 909
f 907 909 910
f 909 911 910
f 910 911 912
f 911 913 912
f 912 913 914
f 913 915 914
f 914 915 916
f 915 917 916
f 916 917 918
f 917 919 918
f 918 919 920
f 919 921 920
f 920 921 922
f 921 923 922
f 922 923 924
f 923 925 924
f 924 925 926
f 925 927 926
f 926 927 928
f 927 929 928
f 928 929 930
f 929 931 930
f 930 931 932
f 931 933 932
f 932 933 934
f 933 935 934
f 934 935 936
f 935 937 936
f 936 937 938
f 937 939 938
f 938 939 940
f 939 941 940
f 940 941 942