# ANSI B 18.2.4.1 M - M3 x 0.5Style 1
# Autodesk dbId: 51
# Units: mm
o 051_ANSI_B_18.2.4.1_M_-_M3_x_0.5Style_1
v 6.546250 16.762673 -0.986472
v 6.390000 16.810535 -1.375780
v 6.390000 16.569108 -1.175614
v 6.546250 16.984541 -1.166107
v 6.390000 16.374574 -0.929627
v 6.546250 16.588212 -0.760512
v 6.546250 16.762673 -0.986472
v 6.390000 16.235435 -0.648569
v 6.546250 16.470564 -0.500409
v 6.390000 16.157771 -0.344724
v 6.546250 16.416070 -0.220186
v 6.390000 16.144978 -0.031372
v 6.546250 16.427669 0.065051
v 6.390000 16.197614 0.277792
v 6.546250 16.504736 0.339924
v 6.390000 16.313378 0.569257
v 6.546250 16.643116 0.589615
v 6.390000 16.487211 0.830284
v 6.546250 16.835348 0.800663
v 6.390000 16.711517 1.049465
v 6.546250 17.071070 0.961690
v 6.390000 16.976491 1.217221
v 6.546250 17.337573 1.064016
v 6.390000 17.270553 1.326219
v 6.390000 17.580851 1.371697
v 6.546250 17.620490 1.102124
v 6.390000 17.893824 1.351666
v 6.546250 17.904570 1.073959
v 6.390000 18.195793 1.267003
v 6.546250 18.174497 0.981040
v 6.390000 18.473561 1.121406
v 6.546250 18.415720 0.828377
v 6.390000 18.714987 0.921240
v 6.546250 18.615234 0.624198
v 6.390000 18.909521 0.675253
v 6.546250 18.762283 0.379512
v 6.390000 19.048661 0.394195
v 6.546250 18.848939 0.107510
v 6.390000 19.126324 0.090350
v 6.546250 18.870532 -0.177144
v 6.390000 19.139118 -0.223002
v 6.546250 18.825898 -0.459106
v 6.390000 19.086482 -0.532166
v 6.390000 18.970718 -0.823631
v 6.546250 18.717441 -0.723173
v 6.390000 18.796884 -1.084658
v 6.546250 18.551010 -0.955111
v 6.390000 18.572579 -1.303839
v 6.546250 18.335576 -1.142415
v 6.390000 18.307605 -1.471595
v 6.546250 18.082754 -1.274988
v 6.390000 18.013543 -1.580594
v 6.546250 17.806174 -1.345683
v 6.390000 17.703244 -1.626071
v 6.546250 17.520745 -1.350689
v 6.390000 17.390272 -1.606041
v 6.546250 17.241856 -1.289735
v 6.390000 17.088303 -1.521377
v 8.633750 18.521423 0.732098
v 6.546250 18.415720 0.828377
v 6.546250 18.615234 0.624198
v 8.633750 18.695884 0.506138
v 8.633750 18.299554 0.911733
v 6.546250 18.174497 0.981040
v 8.633750 18.042240 1.035361
v 6.546250 17.904570 1.073959
v 8.633750 17.763351 1.096315
v 6.546250 17.620490 1.102124
v 8.633750 17.477922 1.091309
v 6.546250 17.337573 1.064016
v 8.633750 17.201342 1.020615
v 6.546250 17.071070 0.961690
v 8.633750 16.948520 0.888042
v 6.546250 16.835348 0.800663
v 8.633750 16.733086 0.700737
v 6.546250 16.643116 0.589615
v 8.633750 16.566655 0.468799
v 6.546250 16.504736 0.339924
v 8.633750 16.458198 0.204732
v 6.546250 16.427669 0.065051
v 8.633750 16.413563 -0.077230
v 6.546250 16.416070 -0.220186
v 8.633750 16.435156 -0.361884
v 6.546250 16.470564 -0.500409
v 8.633750 16.521813 -0.633886
v 6.546250 16.588212 -0.760512
v 8.633750 16.868376 -1.082751
v 6.546250 16.984541 -1.166107
v 6.546250 16.762673 -0.986472
v 8.633750 16.668862 -0.878572
v 8.633750 17.109599 -1.235414
v 6.546250 17.241856 -1.289735
v 8.633750 17.379526 -1.328333
v 6.546250 17.520745 -1.350689
v 8.633750 17.663605 -1.356498
v 6.546250 17.806174 -1.345683
v 8.633750 17.946523 -1.318390
v 6.546250 18.082754 -1.274988
v 8.633750 18.213026 -1.216064
v 6.546250 18.335576 -1.142415
v 8.633750 18.448748 -1.055037
v 6.546250 18.551010 -0.955111
v 8.633750 18.640980 -0.843989
v 6.546250 18.717441 -0.723173
v 8.633750 18.779359 -0.594298
v 6.546250 18.825898 -0.459106
v 8.633750 18.856426 -0.319425
v 6.546250 18.870532 -0.177144
v 8.633750 18.868026 -0.034188
v 6.546250 18.848939 0.107510
v 8.633750 18.813532 0.246035
v 6.546250 18.762283 0.379512
v 6.390000 20.371016 -0.466643
v 6.390000 20.289943 -0.869583
v 6.390000 19.086482 -0.532166
v 8.790000 18.473561 1.121406
v 8.633750 18.299554 0.911733
v 8.633750 18.521423 0.732098
v 8.790000 18.195793 1.267003
v 8.633750 18.042240 1.035361
v 8.790000 17.893824 1.351667
v 8.633750 17.763351 1.096315
v 8.790000 17.580851 1.371697
v 8.633750 17.477922 1.091309
v 8.790000 17.270553 1.326220
v 8.633750 17.201342 1.020615
v 8.790000 16.976491 1.217221
v 8.633750 16.948520 0.888042
v 8.790000 16.711517 1.049465
v 8.633750 16.733086 0.700737
v 8.790000 16.487212 0.830285
v 8.633750 16.566655 0.468799
v 8.790000 16.313378 0.569258
v 8.633750 16.458198 0.204732
v 8.790000 16.197614 0.277792
v 8.790000 16.144978 -0.031372
v 8.633750 16.413563 -0.077230
v 8.790000 16.157772 -0.344724
v 8.633750 16.435156 -0.361884
v 8.790000 16.235435 -0.648569
v 8.633750 16.521813 -0.633886
v 8.790000 16.374574 -0.929627
v 8.633750 16.668862 -0.878572
v 8.790000 16.569108 -1.175614
v 8.633750 16.868376 -1.082751
v 8.790000 16.810535 -1.375780
v 8.633750 17.109599 -1.235414
v 8.790000 17.088303 -1.521377
v 8.633750 17.379526 -1.328333
v 8.790000 17.390272 -1.606040
v 8.633750 17.663605 -1.356498
v 8.790000 17.703244 -1.626071
v 8.633750 17.946523 -1.318390
v 8.790000 18.013543 -1.580593
v 8.790000 18.307605 -1.471595
v 8.633750 18.213026 -1.216064
v 8.790000 18.572579 -1.303839
v 8.633750 18.448748 -1.055037
v 8.790000 18.796884 -1.084658
v 8.633750 18.640980 -0.843989
v 8.790000 18.970718 -0.823631
v 8.633750 18.779359 -0.594298
v 8.790000 19.086482 -0.532166
v 8.633750 18.856426 -0.319425
v 8.790000 19.139118 -0.223002
v 8.633750 18.868026 -0.034188
v 8.790000 19.126324 0.090350
v 8.633750 18.813532 0.246035
v 8.790000 19.048661 0.394195
v 8.633750 18.695884 0.506138
v 8.790000 18.909521 0.675253
v 8.790000 20.149719 -1.255939
v 8.790000 20.289943 -0.869583
v 8.790000 19.086482 -0.532166
v 6.588380 19.861320 -2.398346
v 6.390000 19.411635 -2.232196
v 6.390000 19.705605 -1.944942
v 6.500023 19.975884 -1.989731
v 6.500023 19.450166 -2.503438
v 6.402225 20.187188 -1.236076
v 6.390000 20.149719 -1.255940
v 6.390000 20.289943 -0.869583
v 6.438672 20.083468 -1.606014
v 6.390000 19.953479 -1.617082
v 6.588380 16.784802 -3.184713
v 6.390001 16.703850 -2.712199
v 6.390001 17.099605 -2.823157
v 6.500023 17.195956 -3.079621
v 6.500023 16.488213 -2.881189
v 6.402225 17.954292 -2.885788
v 6.390000 17.918355 -2.863271
v 6.390000 18.323061 -2.791530
v 6.438672 17.582057 -2.980932
v 6.390000 17.507477 -2.873892
v 6.588380 14.565530 -0.913554
v 6.390000 14.934263 -0.607190
v 6.390000 15.036048 -1.005403
v 6.500023 14.862119 -1.217077
v 6.500023 14.680095 -0.504938
v 6.402225 15.409152 -1.776899
v 6.390000 15.410683 -1.734518
v 6.390000 15.675166 -2.049133
v 6.438672 15.140636 -1.502106
v 6.390000 15.196046 -1.383998
v 6.588380 15.422776 2.143972
v 6.390000 15.872461 1.977822
v 6.390000 15.578491 1.690567
v 6.500023 15.308211 1.735357
v 6.500023 15.833929 2.249064
v 6.402225 15.096907 0.981702
v 6.390000 15.134376 1.001565
v 6.390000 14.994153 0.615209
v 6.438671 15.200628 1.351640
v 6.390000 15.330617 1.362707
v 8.591620 20.718565 0.659180
v 8.790000 20.248048 0.751029
v 8.790000 20.349832 0.352816
v 8.679977 20.604001 0.250564
v 8.679977 20.421976 0.962703
v 8.777775 20.392697 -0.503090
v 8.790000 20.371016 -0.466643
v 8.790000 20.289943 -0.869583
v 8.741329 20.496417 -0.133153
v 8.790000 20.391129 -0.056120
v 8.591620 18.499293 2.930339
v 8.790000 18.184491 2.568783
v 8.790000 18.580246 2.457825
v 8.679977 18.795882 2.626815
v 8.679977 18.088140 2.825247
v 8.777775 19.342915 2.066994
v 8.790000 19.300510 2.066441
v 8.790000 19.608929 1.794759
v 8.741329 19.074399 2.341787
v 8.790000 18.955043 2.289121
v 8.591620 15.422776 2.143972
v 8.790000 15.578491 1.690568
v 8.790000 15.872461 1.977822
v 8.679977 15.833929 2.249064
v 8.679977 15.308211 1.735357
v 8.777775 16.592265 2.442897
v 8.790000 16.571541 2.405897
v 8.790000 16.961035 2.537156
v 8.741329 16.220030 2.347753
v 8.790000 16.205961 2.218054
v 6.390000 16.569108 -1.175614
v 8.633750 16.668862 -0.878572
v 6.546250 16.762673 -0.986472
v 6.390000 20.149719 -1.255940
v 6.390000 18.970718 -0.823631
v 6.390000 19.953479 -1.617082
v 6.390000 18.796884 -1.084658
v 6.390000 19.705605 -1.944942
v 6.390000 19.411635 -2.232196
v 6.390000 18.572579 -1.303839
v 6.390000 19.078134 -2.472428
v 6.390000 18.307605 -1.471595
v 6.390000 18.712554 -2.660271
v 6.390000 18.013543 -1.580594
v 6.390000 18.323061 -2.791530
v 6.390000 17.918355 -2.863271
v 6.390000 17.703244 -1.626071
v 6.390000 17.507477 -2.873892
v 6.390000 17.390272 -1.606041
v 6.390001 17.099605 -2.823157
v 6.390001 16.703850 -2.712199
v 6.390000 17.088303 -1.521377
v 6.390001 16.329053 -2.543495
v 6.390000 16.810535 -1.375780
v 6.390000 15.983586 -2.320815
v 6.390000 16.569108 -1.175614
v 6.390000 15.675166 -2.049133
v 6.390000 15.410683 -1.734518
v 6.390000 16.374574 -0.929627
v 6.390000 15.196046 -1.383998
v 6.390000 16.235435 -0.648569
v 6.390000 15.036048 -1.005403
v 6.390000 16.157771 -0.344724
v 6.390000 14.934263 -0.607190
v 6.390000 14.892966 -0.198254
v 6.390000 16.144978 -0.031372
v 6.390000 14.913079 0.212269
v 6.390000 16.197614 0.277792
v 6.390000 14.994153 0.615209
v 6.390000 15.134376 1.001565
v 6.390000 16.313378 0.569257
v 6.390000 15.330617 1.362707
v 6.390000 16.487211 0.830284
v 6.390000 15.578491 1.690567
v 6.390000 15.872461 1.977822
v 6.390000 16.711517 1.049465
v 6.390000 16.205961 2.218054
v 6.390000 16.976491 1.217221
v 6.390000 16.571541 2.405897
v 6.390000 17.270553 1.326219
v 6.390000 16.961034 2.537155
v 6.390000 17.365740 2.608897
v 6.390000 17.580851 1.371697
v 6.390000 17.776619 2.619518
v 6.390000 17.893824 1.351666
v 6.390000 18.184491 2.568783
v 6.390000 18.580246 2.457825
v 6.390000 18.195793 1.267003
v 6.390000 18.955043 2.289121
v 6.390000 18.473561 1.121406
v 6.390000 19.300510 2.066441
v 6.390000 18.714987 0.921240
v 6.390000 19.608929 1.794759
v 6.390000 19.873412 1.480144
v 6.390000 18.909521 0.675253
v 6.390000 20.088050 1.129624
v 6.390000 19.048661 0.394195
v 6.390000 20.248048 0.751029
v 6.390000 19.126324 0.090350
v 6.390000 20.349832 0.352815
v 6.390000 20.391129 -0.056120
v 6.390000 19.139118 -0.223002
v 8.633750 18.521423 0.732098
v 8.790000 18.714987 0.921240
v 8.790000 18.714987 0.921240
v 8.790000 20.371016 -0.466643
v 8.790000 19.139118 -0.223002
v 8.790000 20.391129 -0.056120
v 8.790000 19.126324 0.090350
v 8.790000 20.349832 0.352816
v 8.790000 20.248048 0.751029
v 8.790000 19.048661 0.394195
v 8.790000 20.088050 1.129624
v 8.790000 18.909521 0.675253
v 8.790000 19.873412 1.480144
v 8.790000 18.714987 0.921240
v 8.790000 19.608929 1.794759
v 8.790000 19.300510 2.066441
v 8.790000 18.473561 1.121406
v 8.790000 18.955043 2.289121
v 8.790000 18.195793 1.267003
v 8.790000 18.580246 2.457825
v 8.790000 17.893824 1.351667
v 8.790000 18.184491 2.568783
v 8.790000 17.776619 2.619519
v 8.790000 17.580851 1.371697
v 8.790000 17.365741 2.608897
v 8.790000 17.270553 1.326220
v 8.790000 16.961035 2.537156
v 8.790000 16.571541 2.405897
v 8.790000 16.976491 1.217221
v 8.790000 16.205961 2.218054
v 8.790000 16.711517 1.049465
v 8.790000 15.872461 1.977822
v 8.790000 15.578491 1.690568
v 8.790000 16.487212 0.830285
v 8.790000 15.330617 1.362708
v 8.790000 16.313378 0.569258
v 8.790000 15.134376 1.001566
v 8.790000 16.197614 0.277792
v 8.790000 14.994153 0.615209
v 8.790000 14.913079 0.212269
v 8.790000 16.144978 -0.031372
v 8.790000 14.892966 -0.198254
v 8.790000 16.157772 -0.344724
v 8.790000 14.934263 -0.607189
v 8.790000 15.036048 -1.005403
v 8.790000 16.235435 -0.648569
v 8.790000 15.196046 -1.383998
v 8.790000 16.374574 -0.929627
v 8.790000 15.410684 -1.734518
v 8.790000 16.569108 -1.175614
v 8.790000 15.675166 -2.049133
v 8.790000 15.983586 -2.320815
v 8.790000 16.810535 -1.375780
v 8.790000 16.329053 -2.543495
v 8.790000 17.088303 -1.521377
v 8.790000 16.703850 -2.712198
v 8.790000 17.390272 -1.606040
v 8.790000 17.099605 -2.823157
v 8.790000 17.507477 -2.873892
v 8.790000 17.703244 -1.626071
v 8.790000 17.918355 -2.863271
v 8.790000 18.013543 -1.580593
v 8.790000 18.323061 -2.791529
v 8.790000 18.712554 -2.660271
v 8.790000 18.307605 -1.471595
v 8.790000 19.078135 -2.472428
v 8.790000 18.572579 -1.303839
v 8.790000 19.411635 -2.232196
v 8.790000 19.705605 -1.944941
v 8.790000 18.796884 -1.084658
v 8.790000 19.953479 -1.617081
v 8.790000 18.970718 -0.823631
v 6.390000 19.078134 -2.472428
v 6.438672 19.064066 -2.602127
v 6.390000 18.712554 -2.660271
v 6.402225 18.691830 -2.697271
v 6.390000 18.323061 -2.791530
v 6.390000 19.608929 1.794759
v 6.402225 19.874944 1.522525
v 6.390000 19.873412 1.480144
v 6.438671 20.143459 1.247732
v 6.390000 20.088050 1.129624
v 6.500023 20.421976 0.962703
v 6.390000 20.248048 0.751029
v 6.588380 20.718565 0.659180
v 6.390000 20.349832 0.352815
v 6.500023 20.604001 0.250564
v 6.390000 20.391129 -0.056120
v 6.438671 20.496417 -0.133153
v 6.390000 20.371016 -0.466643
v 6.402225 20.392697 -0.503091
v 6.390000 20.289943 -0.869583
v 6.390001 16.329053 -2.543495
v 6.438672 16.209696 -2.596161
v 6.390000 15.983586 -2.320815
v 6.402225 15.941181 -2.321368
v 6.390000 15.675166 -2.049133
v 6.390000 16.961034 2.537155
v 6.402225 17.329804 2.631414
v 6.390000 17.365740 2.608897
v 6.438671 17.702039 2.726558
v 6.390000 17.776619 2.619518
v 6.500022 18.088140 2.825247
v 6.390000 18.184491 2.568783
v 6.588379 18.499293 2.930339
v 6.390000 18.580246 2.457825
v 6.500022 18.795882 2.626815
v 6.390000 18.955043 2.289121
v 6.438671 19.074399 2.341787
v 6.390000 19.300510 2.066441
v 6.402225 19.342915 2.066993
v 6.390000 19.608929 1.794759
v 6.390000 14.892966 -0.198254
v 6.438672 14.787678 -0.121221
v 6.390000 14.913079 0.212269
v 6.402225 14.891399 0.248717
v 6.390000 14.994153 0.615209
v 6.390000 16.205961 2.218054
v 6.438671 16.220030 2.347752
v 6.390000 16.571541 2.405897
v 6.402225 16.592265 2.442897
v 6.390000 16.961034 2.537155
v 8.790000 18.323061 -2.791529
v 8.777776 18.691830 -2.697271
v 8.790000 18.712554 -2.660271
v 8.741329 19.064066 -2.602126
v 8.790000 19.078135 -2.472428
v 8.679978 19.450166 -2.503438
v 8.790000 19.411635 -2.232196
v 8.591621 19.861320 -2.398346
v 8.790000 19.705605 -1.944941
v 8.679978 19.975884 -1.989730
v 8.790000 19.953479 -1.617081
v 8.741329 20.083468 -1.606013
v 8.790000 20.149719 -1.255939
v 8.777775 20.187188 -1.236076
v 8.790000 20.289943 -0.869583
v 8.790000 20.088050 1.129624
v 8.741329 20.143459 1.247732
v 8.790000 19.873412 1.480144
v 8.777775 19.874944 1.522525
v 8.790000 19.608929 1.794759
v 8.790000 15.675166 -2.049133
v 8.777776 15.941181 -2.321367
v 8.790000 15.983586 -2.320815
v 8.741329 16.209696 -2.596160
v 8.790000 16.329053 -2.543495
v 8.679978 16.488213 -2.881189
v 8.790000 16.703850 -2.712198
v 8.591621 16.784802 -3.184713
v 8.790000 17.099605 -2.823157
v 8.679978 17.195956 -3.079621
v 8.790000 17.507477 -2.873892
v 8.741329 17.582057 -2.980932
v 8.790000 17.918355 -2.863271
v 8.777776 17.954292 -2.885788
v 8.790000 18.323061 -2.791529
v 8.790000 14.994153 0.615209
v 8.777775 14.891399 0.248717
v 8.790000 14.913079 0.212269
v 8.741329 14.787678 -0.121221
v 8.790000 14.892966 -0.198254
v 8.679978 14.680095 -0.504938
v 8.790000 14.934263 -0.607189
v 8.591621 14.565530 -0.913553
v 8.790000 15.036048 -1.005403
v 8.679978 14.862119 -1.217077
v 8.790000 15.196046 -1.383998
v 8.741329 15.140636 -1.502106
v 8.790000 15.410684 -1.734518
v 8.777776 15.409152 -1.776899
v 8.790000 15.675166 -2.049133
v 8.790000 17.776619 2.619519
v 8.741329 17.702039 2.726559
v 8.790000 17.365741 2.608897
v 8.777775 17.329804 2.631414
v 8.790000 16.961035 2.537156
v 8.790000 15.330617 1.362708
v 8.741329 15.200628 1.351640
v 8.790000 15.134376 1.001566
v 8.777775 15.096908 0.981702
v 8.790000 14.994153 0.615209
v 8.591620 15.422776 2.143972
v 6.588380 15.422776 2.143972
v 8.679977 15.308211 1.735357
v 6.500023 15.308211 1.735357
v 8.741329 15.200628 1.351640
v 6.438671 15.200628 1.351640
v 8.777775 15.096908 0.981702
v 6.402225 15.096907 0.981702
v 8.790000 14.994153 0.615209
v 6.390000 14.994153 0.615209
v 8.777775 14.891399 0.248717
v 6.402225 14.891399 0.248717
v 8.741329 14.787678 -0.121221
v 6.438672 14.787678 -0.121221
v 8.679978 14.680095 -0.504938
v 6.500023 14.680095 -0.504938
v 8.591621 14.565530 -0.913553
v 6.588380 14.565530 -0.913554
v 8.591621 14.565530 -0.913553
v 6.588380 14.565530 -0.913554
v 8.679978 14.862119 -1.217077
v 6.500023 14.862119 -1.217077
v 8.741329 15.140636 -1.502106
v 6.438672 15.140636 -1.502106
v 8.777776 15.409152 -1.776899
v 6.402225 15.409152 -1.776899
v 8.790000 15.675166 -2.049133
v 6.390000 15.675166 -2.049133
v 8.777776 15.941181 -2.321367
v 6.402225 15.941181 -2.321368
v 8.741329 16.209696 -2.596160
v 6.438672 16.209696 -2.596161
v 8.679978 16.488213 -2.881189
v 6.500023 16.488213 -2.881189
v 8.591621 16.784802 -3.184713
v 6.588380 16.784802 -3.184713
v 8.591621 16.784802 -3.184713
v 6.588380 16.784802 -3.184713
v 8.679978 17.195956 -3.079621
v 6.500023 17.195956 -3.079621
v 8.741329 17.582057 -2.980932
v 6.438672 17.582057 -2.980932
v 8.777776 17.954292 -2.885788
v 6.402225 17.954292 -2.885788
v 8.790000 18.323061 -2.791529
v 6.390000 18.323061 -2.791530
v 6.402225 18.691830 -2.697271
v 8.777776 18.691830 -2.697271
v 6.438672 19.064066 -2.602127
v 8.741329 19.064066 -2.602126
v 6.500023 19.450166 -2.503438
v 8.679978 19.450166 -2.503438
v 6.588380 19.861320 -2.398346
v 8.591621 19.861320 -2.398346
v 6.402225 17.329804 2.631414
v 6.390000 16.961034 2.537155
v 8.790000 16.961035 2.537156
v 8.777775 17.329804 2.631414
v 6.438671 17.702039 2.726558
v 6.402225 16.592265 2.442897
v 8.777775 16.592265 2.442897
v 6.438671 16.220030 2.347752
v 8.741329 16.220030 2.347753
v 6.500023 15.833929 2.249064
v 8.679977 15.833929 2.249064
v 6.588380 15.422776 2.143972
v 8.591620 15.422776 2.143972
v 8.741329 17.702039 2.726559
v 6.500022 18.088140 2.825247
v 8.679977 18.088140 2.825247
v 6.588379 18.499293 2.930339
v 8.591620 18.499293 2.930339
v 6.402225 19.342915 2.066993
v 8.777775 19.342915 2.066994
v 6.390000 19.608929 1.794759
v 8.741329 19.074399 2.341787
v 8.790000 19.608929 1.794759
v 6.402225 19.874944 1.522525
v 8.777775 19.874944 1.522525
v 6.438671 20.143459 1.247732
v 8.741329 20.143459 1.247732
v 6.500023 20.421976 0.962703
v 8.679977 20.421976 0.962703
v 6.588380 20.718565 0.659180
v 8.591620 20.718565 0.659180
v 6.438671 19.074399 2.341787
v 8.679977 18.795882 2.626815
v 6.500022 18.795882 2.626815
v 8.591620 18.499293 2.930339
v 6.588379 18.499293 2.930339
v 6.402225 20.392697 -0.503091
v 8.777775 20.392697 -0.503090
v 6.390000 20.289943 -0.869583
v 8.741329 20.496417 -0.133153
v 8.790000 20.289943 -0.869583
v 6.402225 20.187188 -1.236076
v 8.777775 20.187188 -1.236076
v 6.438672 20.083468 -1.606014
v 8.741329 20.083468 -1.606013
v 6.500023 19.975884 -1.989731
v 8.679978 19.975884 -1.989730
v 6.588380 19.861320 -2.398346
v 8.591621 19.861320 -2.398346
v 6.438671 20.496417 -0.133153
v 8.679977 20.604001 0.250564
v 6.500023 20.604001 0.250564
v 8.591620 20.718565 0.659180
v 6.588380 20.718565 0.659180
f 1 2 3
f 1 4 2
f 2 4 58
f 4 57 58
f 5 6 7
f 5 8 6
f 5 7 245
f 6 8 9
f 8 10 9
f 9 10 11
f 10 12 11
f 11 12 13
f 12 14 13
f 13 14 15
f 14 16 15
f 15 16 17
f 16 18 17
f 17 18 19
f 18 20 19
f 19 20 21
f 20 22 21
f 21 22 23
f 22 24 23
f 23 25 26
f 23 24 25
f 25 27 26
f 26 27 28
f 27 29 28
f 28 29 30
f 29 31 30
f 30 31 32
f 31 33 32
f 32 33 34
f 33 35 34
f 34 35 36
f 35 37 36
f 36 37 38
f 37 39 38
f 38 39 40
f 39 41 40
f 40 41 42
f 41 43 42
f 42 44 45
f 42 43 44
f 44 46 45
f 45 46 47
f 46 48 47
f 47 48 49
f 48 50 49
f 49 50 51
f 50 52 51
f 51 52 53
f 52 54 53
f 53 54 55
f 54 56 55
f 55 56 57
f 56 58 57
f 59 60 61
f 59 61 62
f 59 63 60
f 60 63 64
f 61 112 62
f 62 112 111
f 63 65 64
f 64 65 66
f 65 67 66
f 66 67 68
f 67 69 68
f 68 69 70
f 69 71 70
f 70 71 72
f 71 73 72
f 72 73 74
f 73 75 74
f 74 75 76
f 75 77 76
f 76 77 78
f 77 79 78
f 78 79 80
f 79 81 80
f 80 81 82
f 81 83 82
f 82 83 84
f 83 85 84
f 84 85 86
f 85 246 86
f 86 246 247
f 87 88 89
f 87 89 90
f 87 91 88
f 88 91 92
f 91 93 92
f 92 93 94
f 93 95 94
f 94 95 96
f 95 97 96
f 96 97 98
f 97 99 98
f 98 99 100
f 99 101 100
f 100 101 102
f 101 103 102
f 102 103 104
f 103 105 104
f 104 105 106
f 105 107 106
f 106 107 108
f 107 109 108
f 108 109 110
f 109 111 110
f 110 111 112
f 113 114 115
f 113 316 315
f 113 115 316
f 114 248 115
f 115 248 249
f 116 117 118
f 116 119 117
f 116 118 319
f 117 119 120
f 119 121 120
f 120 121 122
f 121 123 122
f 122 123 124
f 123 125 124
f 124 125 126
f 125 127 126
f 126 127 128
f 127 129 128
f 128 129 130
f 129 131 130
f 130 131 132
f 131 133 132
f 132 133 134
f 133 135 134
f 134 136 137
f 134 135 136
f 136 138 137
f 137 138 139
f 138 140 139
f 139 140 141
f 140 142 141
f 141 142 143
f 142 144 143
f 143 144 145
f 144 146 145
f 145 146 147
f 146 148 147
f 147 148 149
f 148 150 149
f 149 150 151
f 150 152 151
f 151 152 153
f 152 154 153
f 153 155 156
f 153 154 155
f 155 157 156
f 156 157 158
f 157 159 158
f 158 159 160
f 159 161 160
f 160 161 162
f 161 163 162
f 162 163 164
f 163 165 164
f 164 165 166
f 165 167 166
f 166 167 168
f 167 169 168
f 168 169 170
f 169 171 170
f 170 171 317
f 171 318 317
f 172 173 174
f 172 388 387
f 172 174 388
f 173 320 174
f 174 320 321
f 175 176 177
f 175 177 178
f 175 179 176
f 176 179 389
f 177 184 178
f 178 184 183
f 179 390 389
f 180 181 182
f 180 183 181
f 181 183 184
f 185 186 187
f 185 187 188
f 185 189 186
f 186 189 409
f 187 194 188
f 188 194 193
f 189 410 409
f 190 191 192
f 190 193 191
f 191 193 194
f 195 196 197
f 195 197 198
f 195 199 196
f 196 199 429
f 197 204 198
f 198 204 203
f 199 430 429
f 200 201 202
f 200 203 201
f 201 203 204
f 205 206 207
f 205 207 208
f 205 209 206
f 206 209 434
f 207 214 208
f 208 214 213
f 209 435 434
f 210 211 212
f 210 213 211
f 211 213 214
f 215 216 217
f 215 217 218
f 215 219 216
f 216 219 454
f 217 224 218
f 218 224 223
f 219 455 454
f 220 221 222
f 220 223 221
f 221 223 224
f 225 226 227
f 225 227 228
f 225 229 226
f 226 229 489
f 227 234 228
f 228 234 233
f 229 490 489
f 230 231 232
f 230 233 231
f 231 233 234
f 235 236 237
f 235 237 238
f 235 239 236
f 236 239 494
f 237 244 238
f 238 244 243
f 239 495 494
f 240 241 242
f 240 243 241
f 241 243 244
f 248 250 249
f 249 250 251
f 250 252 251
f 251 252 253
f 251 253 254
f 253 255 254
f 254 255 256
f 255 257 256
f 256 257 258
f 257 259 258
f 258 259 260
f 258 260 261
f 260 262 261
f 261 262 263
f 262 264 263
f 263 264 265
f 263 265 266
f 265 267 266
f 266 267 268
f 267 269 268
f 268 269 270
f 269 271 270
f 270 271 272
f 270 272 273
f 272 274 273
f 273 274 275
f 274 276 275
f 275 276 277
f 276 278 277
f 277 278 279
f 277 279 280
f 279 281 280
f 280 281 282
f 281 283 282
f 282 283 284
f 282 284 285
f 284 286 285
f 285 286 287
f 286 288 287
f 287 288 289
f 287 289 290
f 289 291 290
f 290 291 292
f 291 293 292
f 292 293 294
f 293 295 294
f 294 295 296
f 294 296 297
f 296 298 297
f 297 298 299
f 298 300 299
f 299 300 301
f 299 301 302
f 301 303 302
f 302 303 304
f 303 305 304
f 304 305 306
f 305 307 306
f 306 307 308
f 306 308 309
f 308 310 309
f 309 310 311
f 310 312 311
f 311 312 313
f 312 314 313
f 313 314 315
f 313 315 316
f 320 322 321
f 321 322 323
f 322 324 323
f 323 324 325
f 323 325 326
f 325 327 326
f 326 327 328
f 327 329 328
f 328 329 330
f 329 331 330
f 330 331 332
f 330 332 333
f 332 334 333
f 333 334 335
f 334 336 335
f 335 336 337
f 336 338 337
f 337 338 339
f 337 339 340
f 339 341 340
f 340 341 342
f 341 343 342
f 342 343 344
f 342 344 345
f 344 346 345
f 345 346 347
f 346 348 347
f 347 348 349
f 347 349 350
f 349 351 350
f 350 351 352
f 351 353 352
f 352 353 354
f 353 355 354
f 354 355 356
f 354 356 357
f 356 358 357
f 357 358 359
f 358 360 359
f 359 360 361
f 359 361 362
f 361 363 362
f 362 363 364
f 363 365 364
f 364 365 366
f 365 367 366
f 366 367 368
f 366 368 369
f 368 370 369
f 369 370 371
f 370 372 371
f 371 372 373
f 372 374 373
f 373 374 375
f 373 375 376
f 375 377 376
f 376 377 378
f 377 379 378
f 378 379 380
f 378 380 381
f 380 382 381
f 381 382 383
f 382 384 383
f 383 384 385
f 383 385 386
f 385 387 386
f 386 387 388
f 389 390 391
f 390 392 391
f 391 392 393
f 394 395 396
f 395 397 396
f 396 397 398
f 397 399 398
f 398 399 400
f 399 401 400
f 400 401 402
f 401 403 402
f 402 403 404
f 403 405 404
f 404 405 406
f 405 407 406
f 406 407 408
f 409 410 411
f 410 412 411
f 411 412 413
f 414 415 416
f 415 417 416
f 416 417 418
f 417 419 418
f 418 419 420
f 419 421 420
f 420 421 422
f 421 423 422
f 422 423 424
f 423 425 424
f 424 425 426
f 425 427 426
f 426 427 428
f 429 430 431
f 430 432 431
f 431 432 433
f 434 435 436
f 435 437 436
f 436 437 438
f 439 440 441
f 440 442 441
f 441 442 443
f 442 444 443
f 443 444 445
f 444 446 445
f 445 446 447
f 446 448 447
f 447 448 449
f 448 450 449
f 449 450 451
f 450 452 451
f 451 452 453
f 454 455 456
f 455 457 456
f 456 457 458
f 459 460 461
f 460 462 461
f 461 462 463
f 462 464 463
f 463 464 465
f 464 466 465
f 465 466 467
f 466 468 467
f 467 468 469
f 468 470 469
f 469 470 471
f 470 472 471
f 471 472 473
f 474 475 476
f 475 477 476
f 476 477 478
f 477 479 478
f 478 479 480
f 479 481 480
f 480 481 482
f 481 483 482
f 482 483 484
f 483 485 484
f 484 485 486
f 485 487 486
f 486 487 488
f 489 490 491
f 490 492 491
f 491 492 493
f 494 495 496
f 495 497 496
f 496 497 498
f 499 500 501
f 500 502 501
f 501 502 503
f 502 504 503
f 503 504 505
f 504 506 505
f 505 506 507
f 506 508 507
f 507 508 509
f 508 510 509
f 509 510 511
f 510 512 511
f 511 512 513
f 512 514 513
f 513 514 515
f 514 516 515
f 517 518 519
f 518 520 519
f 519 520 521
f 520 522 521
f 521 522 523
f 522 524 523
f 523 524 525
f 524 526 525
f 525 526 527
f 526 528 527
f 527 528 529
f 528 530 529
f 529 530 531
f 530 532 531
f 531 532 533
f 532 534 533
f 535 536 537
f 536 538 537
f 537 538 539
f 538 540 539
f 539 540 541
f 540 542 541
f 541 542 543
f 542 544 543
f 543 544 545
f 543 545 546
f 545 547 546
f 546 547 548
f 547 549 548
f 548 549 550
f 549 551 550
f 550 551 552
f 553 554 555
f 553 556 557
f 553 555 556
f 554 558 555
f 555 558 559
f 556 566 557
f 557 566 567
f 558 560 559
f 559 560 561
f 560 562 561
f 561 562 563
f 562 564 563
f 563 564 565
f 566 568 567
f 567 568 569
f 568 570 569
f 571 572 573
f 571 574 572
f 571 584 574
f 572 575 573
f 573 575 576
f 574 584 585
f 575 577 576
f 576 577 578
f 577 579 578
f 578 579 580
f 579 581 580
f 580 581 582
f 581 583 582
f 584 586 585
f 585 586 587
f 586 588 587
f 589 590 591
f 589 592 590
f 589 602 592
f 590 593 591
f 591 593 594
f 592 602 603
f 593 595 594
f 594 595 596
f 595 597 596
f 596 597 598
f 597 599 598
f 598 599 600
f 599 601 600
f 602 604 603
f 603 604 605
f 604 606 605