# ANSI B18.3.4M - M3 x 0.5 x 12(1)
# Autodesk dbId: 52
# Units: mm
o 052_ANSI_B18.3.4M_-_M3_x_0.5_x_12(1)
v -8.510000 -3.165531 4.875837
v -8.506593 -2.987597 4.500807
v -8.506593 -3.140455 4.882246
v -8.510000 -3.215261 5.290550
v -8.510000 -3.010160 4.488126
v -8.506593 -2.741224 4.171928
v -8.510000 -2.759736 4.153840
v -8.506593 -2.418126 3.918021
v -8.510000 -2.431325 3.895758
v -8.506593 -2.040321 3.756390
v -8.510000 -2.047308 3.731469
v -8.506593 -1.633556 3.698050
v -8.510000 -1.633855 3.672170
v -8.506593 -1.225552 3.746975
v -8.510000 -1.219142 3.721900
v -8.506593 -0.844113 3.899834
v -8.506593 -1.225552 3.746975
v -8.510000 -0.831432 3.877271
v -8.506593 -0.515234 4.146206
v -8.510000 -0.497145 4.127695
v -8.506593 -0.261327 4.469305
v -8.510000 -0.239064 4.456106
v -8.506593 -0.099696 4.847110
v -8.510000 -0.074775 4.840123
v -8.506593 -0.041355 5.253875
v -8.510000 -0.015475 5.253576
v -8.506593 -0.090281 5.661879
v -8.510000 -0.065205 5.668288
v -8.506593 -0.243139 6.043318
v -8.510000 -0.220576 6.055999
v -8.506593 -0.489512 6.372197
v -8.510000 -0.471000 6.390286
v -8.506593 -0.812610 6.626104
v -8.510000 -0.799411 6.648367
v -8.506593 -1.190415 6.787735
v -8.510000 -1.183428 6.812656
v -8.506593 -1.597180 6.846075
v -8.510000 -1.596881 6.871956
v -8.506593 -2.005184 6.797150
v -8.510000 -2.011594 6.822226
v -8.506593 -2.386623 6.644292
v -8.510000 -2.399304 6.666854
v -8.506593 -2.715503 6.397919
v -8.510000 -2.733591 6.416430
v -8.506593 -2.969409 6.074820
v -8.510000 -2.991673 6.088019
v -8.506593 -3.131041 5.697015
v -8.510000 -3.155962 5.704003
v -8.506593 -3.189381 5.290251
v -8.410000 -3.068646 4.900601
v -8.435882 -3.118675 5.289434
v -8.435882 -3.071947 4.899757
v -8.410000 -2.922985 4.537122
v -8.410000 -3.115268 5.289394
v -8.435882 -3.062955 5.677926
v -8.410000 -3.059674 5.677006
v -8.435882 -2.908585 6.038760
v -8.410000 -2.905654 6.037022
v -8.435882 -2.666084 6.347344
v -8.410000 -2.663702 6.344907
v -8.435882 -2.351978 6.582650
v -8.410000 -2.350308 6.579680
v -8.435882 -1.987673 6.728642
v -8.410000 -1.986830 6.725340
v -8.435882 -1.597997 6.775370
v -8.410000 -1.598036 6.771962
v -8.435882 -1.209504 6.719650
v -8.410000 -1.210424 6.716369
v -8.435882 -0.848671 6.565279
v -8.410000 -0.850408 6.562348
v -8.435882 -0.540086 6.322778
v -8.410000 -0.542523 6.320397
v -8.435882 -0.304780 6.008672
v -8.410000 -0.307751 6.007003
v -8.435882 -0.158789 5.644368
v -8.410000 -0.162090 5.643524
v -8.435882 -0.112061 5.254692
v -8.410000 -0.115468 5.254731
v -8.435882 -0.167781 4.866199
v -8.410000 -0.171062 4.867119
v -8.435882 -0.322152 4.505365
v -8.410000 -0.325082 4.507103
v -8.435882 -0.564653 4.196781
v -8.410000 -0.567034 4.199218
v -8.435882 -0.878758 3.961475
v -8.410000 -0.880428 3.964446
v -8.435882 -1.243063 3.815484
v -8.410000 -1.243906 3.818785
v -8.435882 -1.632739 3.768756
v -8.435882 -1.243063 3.815484
v -8.410000 -1.632700 3.772163
v -8.435882 -2.021232 3.824476
v -8.410000 -2.020312 3.827756
v -8.435882 -2.382065 3.978846
v -8.410000 -2.380328 3.981777
v -8.435882 -2.690650 4.221347
v -8.410000 -2.688213 4.223729
v -8.435882 -2.925956 4.535453
v -8.496603 -0.855930 3.920858
v -8.496603 -1.231524 3.770342
v -8.496603 -1.231524 3.770342
v -8.480711 -1.236653 3.790408
v -8.496603 -1.633277 3.722166
v -8.460000 -1.240589 3.805805
v -8.480711 -1.633038 3.742875
v -8.460000 -1.632855 3.758766
v -8.496603 -2.723974 4.188784
v -8.496603 -2.966573 4.512624
v -8.480711 -2.709161 4.203259
v -8.480711 -2.948518 4.522772
v -8.496602 -3.117089 4.888219
v -8.460000 -2.697795 4.214365
v -8.460000 -2.934665 4.530558
v -8.480711 -3.097023 4.893348
v -8.460000 -3.081626 4.897283
v -8.460000 -3.128665 5.289549
v -8.480711 -3.144555 5.289733
v -8.496602 -3.165265 5.289972
v -8.496603 -2.405826 3.938768
v -8.480711 -2.395265 3.956583
v -8.460000 -2.387160 3.970253
v -8.496603 -2.033810 3.779613
v -8.480711 -2.028219 3.799555
v -8.460000 -2.023929 3.814856
v -8.496603 -0.532090 4.163457
v -8.480711 -0.546564 4.178269
v -8.480711 -0.866077 3.938913
v -8.460000 -0.557671 4.189636
v -8.460000 -0.873864 3.952766
v -8.480711 -1.236653 3.790408
v -8.460000 -1.240589 3.805805
v -8.496603 -0.282073 4.481604
v -8.480711 -0.299888 4.492166
v -8.460000 -0.313558 4.500271
v -8.496603 -0.122918 4.853621
v -8.480711 -0.142860 4.859212
v -8.460000 -0.158162 4.863502
v -8.496603 -0.065471 5.254153
v -8.480711 -0.086181 5.254393
v -8.460000 -0.102072 5.254576
v -8.496603 -0.113648 5.655906
v -8.480711 -0.133713 5.650777
v -8.460000 -0.149110 5.646842
v -8.496603 -0.264164 6.031501
v -8.480711 -0.282218 6.021354
v -8.460000 -0.296072 6.013567
v -8.496602 -0.506762 6.355341
v -8.480711 -0.521575 6.340867
v -8.460000 -0.532941 6.329760
v -8.496602 -0.824910 6.605358
v -8.480711 -0.835472 6.587543
v -8.460000 -0.843576 6.573873
v -8.496602 -1.196926 6.764512
v -8.480711 -1.202517 6.744571
v -8.460000 -1.206808 6.729269
v -8.496602 -1.597459 6.821959
v -8.480711 -1.597698 6.801250
v -8.460000 -1.597882 6.785359
v -8.496602 -1.999212 6.773783
v -8.480711 -1.994083 6.753717
v -8.460000 -1.990147 6.738320
v -8.496602 -2.374806 6.623267
v -8.480711 -2.364659 6.605213
v -8.460000 -2.356873 6.591359
v -8.496602 -2.698647 6.380669
v -8.480711 -2.684172 6.365856
v -8.460000 -2.673065 6.354489
v -8.496602 -2.948663 6.062521
v -8.480711 -2.930848 6.051959
v -8.460000 -2.917178 6.043855
v -8.496602 -3.107818 5.690504
v -8.480711 -3.087876 5.684913
v -8.460000 -3.072574 5.680623
v 3.183276 -3.068645 4.900600
v -8.410000 -3.115268 5.289394
v -8.410000 -3.068646 4.900601
v 3.183276 -2.922985 4.537122
v 3.183276 -3.115268 5.289393
v -8.410000 -3.059674 5.677006
v 3.183276 -3.059674 5.677006
v -8.410000 -2.905654 6.037022
v 3.183276 -2.905653 6.037021
v -8.410000 -2.663702 6.344907
v 3.183276 -2.663702 6.344906
v -8.410000 -2.350308 6.579680
v 3.183276 -2.350308 6.579679
v -8.410000 -1.986830 6.725340
v 3.183276 -1.986829 6.725340
v -8.410000 -1.598036 6.771962
v 3.183276 -1.598036 6.771962
v -8.410000 -1.210424 6.716369
v 3.183276 -1.210424 6.716368
v -8.410000 -0.850408 6.562348
v 3.183276 -0.850408 6.562347
v -8.410000 -0.542523 6.320397
v 3.183276 -0.542523 6.320396
v -8.410000 -0.307751 6.007003
v 3.183276 -0.307750 6.007002
v -8.410000 -0.162090 5.643524
v 3.183276 -0.162090 5.643523
v -8.410000 -0.115468 5.254731
v -8.410000 -0.162090 5.643524
v 3.183276 -0.115468 5.254730
v -8.410000 -0.171062 4.867119
v 3.183276 -0.171061 4.867118
v -8.410000 -0.325082 4.507103
v 3.183276 -0.325082 4.507102
v -8.410000 -0.567034 4.199218
v 3.183276 -0.567034 4.199217
v -8.410000 -0.880428 3.964446
v 3.183276 -0.880427 3.964445
v -8.410000 -1.243906 3.818785
v 3.183276 -1.243906 3.818784
v -8.410000 -1.632700 3.772163
v 3.183276 -1.632699 3.772162
v -8.410000 -2.020312 3.827756
v 3.183276 -2.020311 3.827756
v -8.410000 -2.380328 3.981777
v 3.183276 -2.380327 3.981776
v -8.410000 -2.688213 4.223729
v 3.183276 -2.688212 4.223728
v -8.410000 -2.922985 4.537122
v -8.510000 -4.462996 5.155800
v -8.510000 -4.376596 4.566286
v -8.510000 -3.165531 4.875837
v -10.160000 -3.146154 4.880790
v -10.116726 -3.405078 4.608681
v -10.116726 -3.503893 4.995279
v -10.160000 -3.195263 5.290319
v -10.160000 -2.992725 4.497926
v -10.160000 -2.745431 4.167818
v -10.160000 -2.421126 3.912962
v -10.116726 -2.673347 3.683410
v -10.160000 -2.041909 3.750727
v -10.116726 -2.319929 3.498160
v -10.160000 -1.633624 3.692168
v -10.116726 -1.935717 3.390438
v -10.160000 -1.224095 3.741277
v -10.116726 -1.537505 3.364951
v -10.160000 -0.094032 4.845522
v -10.160000 -0.035474 5.253807
v -10.116726 0.289435 5.150152
v -10.160000 -0.084582 5.663336
v -10.116726 0.273157 5.548847
v -10.160000 -0.238011 6.046200
v -10.116726 0.174342 5.935445
v -10.160000 -0.485305 6.376308
v -10.116726 -0.002693 6.293050
v -10.160000 -2.006641 6.802849
v -10.160000 -2.389505 6.649419
v -10.116726 -2.462192 6.982626
v -10.160000 -2.719613 6.402126
v -10.116726 -2.799333 6.769181
v -10.160000 -2.974469 6.077820
v -10.116726 -3.084729 6.490306
v -10.160000 -3.136704 5.698603
v -10.116726 -3.305907 6.158187
v -10.116726 -3.520171 5.393973
v -10.116726 -3.453200 5.787340
v -8.890000 -4.376596 4.566286
v -9.218700 -4.392427 4.865054
v -9.218700 -4.247119 4.296565
v -8.890000 -4.169517 4.007617
v -8.890000 -4.462996 5.155800
v -8.889999 -3.987485 6.851798
v -9.218700 -3.776049 7.063477
v -9.218700 -4.101289 6.575100
v -8.889999 -3.607203 7.310468
v -9.218700 -3.356377 7.473562
v -8.889999 -3.139868 7.680049
v -9.218700 -2.860614 7.787429
v -8.889999 -2.605906 7.944390
v -9.218700 -2.310429 7.991364
v -8.889999 -2.028652 8.091938
v -9.218700 -1.729865 8.076452
v -8.890000 -1.433336 8.116243
v -9.218700 -1.144298 8.038975
v -8.890000 -0.845975 8.016245
v -9.218700 -0.579319 7.880570
v -8.890000 -0.292240 7.796312
v -9.218700 -0.059619 7.608161
v -8.890000 0.203667 7.466057
v -9.218700 0.392086 7.233653
v -8.890000 0.620074 7.039914
v -9.218700 0.756056 6.773415
v -8.890000 0.938781 6.536508
v -9.218700 1.016383 6.247560
v -8.890000 1.145860 5.977840
v -9.218700 1.161690 5.679071
v -8.890000 1.232259 5.388325
v -9.218700 1.185627 5.092794
v -8.890000 1.194204 4.793730
v -9.218701 1.087146 4.514352
v -8.890000 1.033357 4.220039
v -9.218701 0.870553 3.969026
v -8.890000 0.756748 3.692328
v -9.218701 0.545313 3.480648
v -8.890000 0.376467 3.233658
v -9.218701 0.125641 3.070564
v -8.890000 -0.090868 2.864076
v -9.218701 -0.370122 2.756696
v -8.890000 -1.202084 2.452188
v -9.218701 -0.920308 2.552761
v -8.890000 -0.624831 2.599735
v -8.890000 -1.797401 2.427882
v -9.218701 -2.086438 2.505151
v -9.218701 -1.500871 2.467673
v -8.890000 -2.384761 2.527881
v -9.218701 -2.651418 2.663555
v -8.890000 -2.938496 2.747814
v -9.218700 -3.171117 2.935964
v -8.890000 -3.434403 3.078068
v -9.218700 -3.622822 3.310472
v -8.890000 -3.850810 3.504211
v -9.218700 -3.986792 3.770710
v -10.116726 -3.228044 4.251075
v -9.989852 -3.692283 4.502224
v -9.788025 -3.938911 4.410807
v -9.989852 -3.806956 4.950861
v -9.989852 -3.486839 4.087232
v -9.525000 -4.128155 4.340661
v -9.788025 -4.067201 4.912720
v -9.788025 -3.709071 3.946536
v -9.525000 -4.266894 4.883452
v -9.525000 -3.879596 3.838577
v -9.218700 -4.416363 5.451331
v -9.525000 -4.289749 5.443228
v -9.788025 -4.088334 5.430337
v -9.989852 -3.825846 5.413537
v -10.116726 -2.980527 3.938093
v -9.989852 -3.199602 3.724023
v -9.788026 -3.387726 3.540197
v -9.525000 -3.532078 3.399143
v -9.989852 -2.432993 3.213492
v -9.989852 -2.843127 3.428470
v -9.788026 -2.530084 2.969042
v -9.788026 -2.988921 3.209549
v -9.525000 -3.100792 3.041564
v -9.525000 -2.604585 2.781469
v -9.989852 -1.987125 3.088483
v -9.788026 -2.031271 2.829188
v -9.525000 -2.065144 2.630224
v -9.989852 -1.525010 3.058907
v -9.788026 -1.514280 2.796100
v -9.525000 -1.506047 2.594441
v -10.116726 -1.142696 3.422815
v -9.989852 -1.066843 3.126056
v -9.788026 -1.001707 2.871223
v -9.525000 -0.951727 2.675683
v -10.116726 -0.768544 3.561500
v -10.160000 -1.224095 3.741277
v -10.160000 -0.841231 3.894706
v -10.116726 -0.431404 3.774944
v -9.989852 -0.632650 3.286996
v -10.116726 -1.142696 3.422815
v -9.989852 -0.241406 3.534693
v -9.788026 -0.078252 3.328385
v -9.788026 -0.515955 3.051275
v -9.525000 0.046941 3.170079
v -9.525000 -0.426411 2.870399
v -10.160000 -0.511123 4.142000
v -10.116726 -0.146008 4.053820
v -9.989852 0.089789 3.858322
v -9.788026 0.292272 3.690444
v -9.525000 0.447643 3.561626
v -10.160000 -0.256267 4.466305
v -10.116726 0.075170 4.385939
v -9.989852 0.346461 4.243737
v -9.788026 0.579423 4.121626
v -9.525000 0.758181 4.027927
v -10.116726 0.222464 4.756785
v -9.989852 0.517391 4.674096
v -9.788026 0.770651 4.603089
v -9.525000 0.964983 4.548603
v -9.989852 0.576219 5.593264
v -9.989852 0.595109 5.130588
v -9.788026 0.836465 5.631406
v -9.788026 0.857598 5.113789
v -9.525000 1.059012 5.100898
v -9.525000 1.036158 5.660673
v -9.989852 0.461546 6.041902
v -9.788026 0.708175 6.133318
v -9.525000 0.897419 6.203464
v -9.989852 0.256102 6.456893
v -9.788025 0.478335 6.597589
v -9.525000 0.648860 6.705549
v -10.116726 -0.250209 6.606033
v -9.989852 -0.031134 6.820103
v -9.788025 0.156990 7.003928
v -9.525000 0.301342 7.144983
v -10.116726 -0.557389 6.860715
v -10.160000 -0.809611 6.631163
v -10.116726 -0.910808 7.045965
v -9.989852 -0.797743 7.330634
v -9.989852 -0.387609 7.115655
v -9.788025 -0.700652 7.575084
v -9.788025 -0.241816 7.334577
v -9.525000 -0.626152 7.762657
v -9.525000 -0.129945 7.502562
v -10.160000 -1.188827 6.793399
v -10.116726 -1.295019 7.153688
v -9.989852 -1.243611 7.455643
v -9.788025 -1.199466 7.714937
v -9.525000 -1.165592 7.913901
v -10.160000 -1.597112 6.851957
v -10.116726 -1.693231 7.179174
v -9.989852 -1.705727 7.485219
v -9.788025 -1.716456 7.748025
v -9.525000 -1.724690 7.949684
v -10.116726 -2.088041 7.121310
v -9.989852 -2.163893 7.418069
v -9.788025 -2.229029 7.672902
v -9.525000 -2.279010 7.868442
v -9.989852 -2.989330 7.009432
v -9.989852 -2.598086 7.257129
v -9.788025 -3.152485 7.215740
v -9.525000 -2.804325 7.673726
v -9.788025 -2.714782 7.492851
v -9.525000 -3.277678 7.374046
v -9.989852 -3.320525 6.685804
v -9.788025 -3.523008 6.853682
v -9.525000 -3.678379 6.982500
v -9.989852 -3.577197 6.300388
v -9.788025 -3.810159 6.422499
v -9.525000 -3.988917 6.516198
v -9.989852 -3.748127 5.870030
v -9.788025 -4.001387 5.941037
v -9.525000 -4.195720 5.995522
v -9.218700 -4.317883 6.029773
v -8.890000 -4.264094 6.324086
v -8.890000 -4.424941 5.750396
v -10.160000 -2.727196 5.583789
v -10.160000 -3.146154 4.880790
v -10.160000 -3.195263 5.290319
v -10.160000 -3.136704 5.698603
v -10.160000 -2.719613 6.402126
v -10.160000 -1.901319 6.390796
v -10.160000 -2.974469 6.077820
v -10.160000 -2.441244 4.465055
v -10.160000 -2.041909 3.750727
v -10.160000 -2.421126 3.912962
v -10.160000 -2.745431 4.167818
v -10.160000 -2.992725 4.497926
v -10.160000 -1.329417 4.153329
v -10.160000 -0.511123 4.142000
v -10.160000 -0.841231 3.894706
v -10.160000 -1.224095 3.741277
v -10.160000 -1.633624 3.692168
v -10.160000 -0.503541 4.960337
v -10.160000 -0.084582 5.663336
v -10.160000 -0.035474 5.253807
v -10.160000 -0.094032 4.845522
v -10.160000 -0.256267 4.466305
v -10.160000 -0.789492 6.079071
v -10.160000 -1.188827 6.793399
v -10.160000 -0.809611 6.631163
v -10.160000 -0.485305 6.376308
v -10.160000 -0.238011 6.046200
v -10.160000 -2.389505 6.649419
v -10.160000 -2.006641 6.802849
v -10.160000 -1.597112 6.851957
v -9.120000 -0.789492 6.079071
v -9.051788 -1.082690 6.161275
v -10.160000 -0.789492 6.079071
v -9.120000 -0.503541 4.960337
v -9.051788 -0.578948 5.255356
v -10.160000 -0.503541 4.960337
v -8.510000 -1.219142 3.721900
v -8.410000 -1.243906 3.818785
v 3.183276 -0.162090 5.643523
v -8.510000 -4.169517 4.007617
v -8.510000 -3.010160 4.488126
v -8.510000 -3.850810 3.504211
v -8.510000 -2.759736 4.153840
v -8.510000 -3.434403 3.078068
v -8.510000 -2.431325 3.895758
v -8.510000 -2.938496 2.747814
v -8.510000 -2.047308 3.731469
v -8.510000 -2.384761 2.527881
v -8.510000 -1.797401 2.427882
v -8.510000 -1.633855 3.672170
v -8.510000 -1.202084 2.452187
v -8.510000 -1.219142 3.721900
v -8.510000 -0.624831 2.599735
v -8.510000 -0.831432 3.877271
v -8.510000 -0.090868 2.864076
v -8.510000 -0.497145 4.127695
v -8.510000 0.376467 3.233658
v -8.510000 0.756748 3.692328
v -8.510000 -0.239064 4.456106
v -8.510000 1.033357 4.220039
v -8.510000 -0.074775 4.840123
v -8.510000 1.194204 4.793730
v -8.510000 -0.015475 5.253576
v -8.510000 1.232259 5.388325
v -8.510000 -0.065205 5.668288
v -8.510000 1.145860 5.977840
v -8.510000 0.938781 6.536508
v -8.510000 -0.220576 6.055999
v -8.510000 0.620074 7.039914
v -8.510000 -0.471000 6.390286
v -8.510000 0.203667 7.466057
v -8.510000 -0.799411 6.648367
v -8.510000 -0.292240 7.796312
v -8.510000 -1.183428 6.812656
v -8.510000 -0.845975 8.016244
v -8.510000 -1.433336 8.116243
v -8.510000 -1.596881 6.871956
v -8.510000 -2.028652 8.091938
v -8.510000 -2.011594 6.822226
v -8.509999 -2.605906 7.944390
v -8.510000 -2.399304 6.666854
v -8.509999 -3.139868 7.680049
v -8.510000 -2.733591 6.416430
v -8.509999 -3.607203 7.310467
v -8.510000 -3.987485 6.851798
v -8.510000 -2.991673 6.088019
v -8.510000 -4.264094 6.324086
v -8.510000 -3.155962 5.704003
v -8.510000 -4.424941 5.750396
v -8.510000 -3.215261 5.290550
v 3.183276 -2.922985 4.537122
v 3.490000 -2.655599 4.687405
v 3.183276 -3.068645 4.900600
v 3.490000 -2.468834 4.438095
v 3.490001 -2.771474 4.976558
v 3.183276 -3.068645 4.900600
v 3.490001 -2.771474 4.976558
v 3.183276 -3.115268 5.289393
v 3.490001 -2.808563 5.285849
v 3.183276 -3.059674 5.677006
v 3.490001 -2.764337 5.594201
v 3.183276 -2.905653 6.037021
v 3.490001 -2.641811 5.880600
v 3.183276 -2.663702 6.344906
v 3.490001 -2.449335 6.125528
v 3.183276 -2.350308 6.579679
v 3.490001 -2.200025 6.312293
v 3.183276 -1.986829 6.725340
v 3.490001 -1.910871 6.428168
v 3.183276 -1.598036 6.771962
v 3.490001 -1.601580 6.465257
v 3.183276 -1.210424 6.716368
v 3.490001 -1.293228 6.421032
v 3.183276 -0.850408 6.562347
v 3.490001 -1.006829 6.298505
v 3.183276 -0.542523 6.320396
v 3.490001 -0.761902 6.106029
v 3.183276 -0.307750 6.007002
v 3.490000 -0.575136 5.856719
v 3.183276 -0.162090 5.643523
v 3.490000 -0.459261 5.567566
v 3.183276 -0.115468 5.254730
v 3.490000 -0.422172 5.258274
v 3.183276 -0.171061 4.867118
v 3.490000 -0.466398 4.949922
v 3.183276 -0.325082 4.507102
v 3.490000 -0.588924 4.663524
v 3.183276 -0.567034 4.199217
v 3.490000 -0.781400 4.418596
v 3.183276 -0.880427 3.964445
v 3.490000 -1.030710 4.231831
v 3.183276 -1.243906 3.818784
v 3.490000 -1.319864 4.115955
v 3.183276 -1.632699 3.772162
v 3.490000 -1.629155 4.078867
v 3.183276 -2.020311 3.827756
v 3.490000 -1.937507 4.123092
v 3.183276 -2.380327 3.981776
v 3.490000 -2.223906 4.245618
v 3.183276 -2.688212 4.223728
v 3.490001 -2.771474 4.976558
v 3.490000 -2.655599 4.687405
v 3.490001 -2.808563 5.285849
v 3.490001 -2.764337 5.594201
v 3.490000 -2.468834 4.438095
v 3.490001 -2.641811 5.880600
v 3.490000 -2.223906 4.245618
v 3.490001 -2.449335 6.125528
v 3.490000 -1.937507 4.123092
v 3.490001 -2.200025 6.312293
v 3.490000 -1.629155 4.078867
v 3.490001 -1.910871 6.428168
v 3.490000 -1.319864 4.115955
v 3.490001 -1.601580 6.465257
v 3.490000 -1.030710 4.231831
v 3.490001 -1.293228 6.421032
v 3.490000 -0.781400 4.418596
v 3.490001 -1.006829 6.298505
v 3.490000 -0.588924 4.663524
v 3.490001 -0.761902 6.106029
v 3.490000 -0.466398 4.949922
v 3.490000 -0.575136 5.856719
v 3.490000 -0.422172 5.258274
v 3.490000 -0.459261 5.567566
v -8.890000 -0.624831 2.599735
v -9.218701 -0.920308 2.552761
v -9.525000 -0.951727 2.675683
v -9.788026 -1.001707 2.871223
v -9.989852 -1.066843 3.126056
v -8.510000 -4.462996 5.155800
v -8.890000 -4.462996 5.155800
v -8.510000 -4.376596 4.566286
v -8.890000 -4.424941 5.750396
v -8.890000 -4.376596 4.566286
v -8.510000 -4.169517 4.007617
v -8.890000 -4.169517 4.007617
v -8.510000 -3.850810 3.504211
v -8.890000 -3.850810 3.504211
v -8.510000 -3.434403 3.078068
v -8.890000 -3.434403 3.078068
v -8.510000 -2.938496 2.747814
v -8.890000 -2.938496 2.747814
v -8.510000 -2.384761 2.527881
v -8.890000 -2.384761 2.527881
v -8.510000 -1.797401 2.427882
v -8.890000 -1.797401 2.427882
v -8.510000 -1.202084 2.452187
v -8.890000 -1.202084 2.452188
v -8.510000 -0.624831 2.599735
v -8.890000 -0.624831 2.599735
v -8.510000 -0.090868 2.864076
v -8.890000 -0.090868 2.864076
v -8.510000 0.376467 3.233658
v -8.890000 0.376467 3.233658
v -8.510000 0.756748 3.692328
v -8.890000 0.756748 3.692328
v -8.510000 1.033357 4.220039
v -8.890000 1.033357 4.220039
v -8.510000 1.194204 4.793730
v -8.890000 1.194204 4.793730
v -8.510000 1.232259 5.388325
v -8.890000 1.232259 5.388325
v -8.510000 1.145860 5.977840
v -8.890000 1.145860 5.977840
v -8.510000 1.145860 5.977840
v -8.890000 1.145860 5.977840
v -8.510000 0.938781 6.536508
v -8.890000 0.938781 6.536508
v -8.510000 0.620074 7.039914
v -8.890000 0.620074 7.039914
v -8.510000 0.203667 7.466057
v -8.890000 0.203667 7.466057
v -8.510000 -0.292240 7.796312
v -8.890000 -0.292240 7.796312
v -8.510000 -0.845975 8.016244
v -8.890000 -0.845975 8.016245
v -8.510000 -1.433336 8.116243
v -8.890000 -1.433336 8.116243
v -8.510000 -2.028652 8.091938
v -8.889999 -2.028652 8.091938
v -8.509999 -2.605906 7.944390
v -8.889999 -2.605906 7.944390
v -8.509999 -3.139868 7.680049
v -8.889999 -3.139868 7.680049
v -8.509999 -3.607203 7.310467
v -8.889999 -3.607203 7.310468
v -8.510000 -3.987485 6.851798
v -8.889999 -3.987485 6.851798
v -8.510000 -4.264094 6.324086
v -8.890000 -4.264094 6.324086
v -8.510000 -4.424941 5.750396
v -9.030683 -1.345406 6.234933
v -10.160000 -1.901319 6.390796
v -9.051788 -1.608122 6.308592
v -9.120000 -1.901319 6.390796
v -9.120000 -1.901319 6.390796
v -9.051788 -2.119110 6.177982
v -10.160000 -1.901319 6.390796
v -9.030683 -2.314258 5.987292
v -10.160000 -2.727196 5.583789
v -9.051788 -2.509406 5.796603
v -9.120000 -2.727196 5.583788
v -9.120000 -2.727196 5.583788
v -9.051788 -2.651788 5.288770
v -10.160000 -2.727196 5.583789
v -9.030684 -2.584220 5.024422
v -10.160000 -2.441244 4.465055
v -9.051788 -2.516652 4.760074
v -9.120000 -2.441244 4.465055
v -9.120000 -2.441244 4.465055
v -9.051788 -2.148047 4.382850
v -10.160000 -2.441244 4.465055
v -9.030684 -1.885331 4.309192
v -10.160000 -1.329417 4.153329
v -9.051788 -1.622615 4.235534
v -9.120000 -1.329417 4.153329
v -9.030684 -0.646516 5.519704
v -10.160000 -0.789492 6.079071
v -9.051788 -0.714084 5.784052
v -9.120000 -0.789492 6.079071
v -9.120000 -1.329417 4.153329
v -9.051788 -1.111627 4.366143
v -10.160000 -1.329417 4.153329
v -9.030684 -0.916479 4.556833
v -10.160000 -0.503541 4.960337
v -9.051788 -0.721331 4.747523
v -9.120000 -0.503541 4.960337
v -9.051788 -1.622615 4.235534
v -8.453333 -1.615368 5.272063
v -9.120000 -1.329417 4.153329
v -9.030684 -1.885331 4.309192
v -8.453333 -1.615368 5.272063
v -9.051788 -1.111627 4.366143
v -9.120000 -2.441244 4.465055
v -8.453333 -1.615368 5.272063
v -9.051788 -2.148047 4.382850
v -9.051788 -2.516652 4.760074
v -8.453333 -1.615368 5.272063
v -8.453333 -1.615368 5.272063
v -9.030684 -2.584220 5.024422
v -9.120000 -2.727196 5.583788
v -8.453333 -1.615368 5.272063
v -9.051788 -2.651788 5.288770
v -9.051788 -2.509406 5.796603
v -8.453333 -1.615368 5.272063
v -8.453333 -1.615368 5.272063
v -9.030683 -2.314258 5.987292
v -9.120000 -1.901319 6.390796
v -8.453333 -1.615368 5.272063
v -9.051788 -2.119110 6.177982
v -9.051788 -1.608122 6.308592
v -8.453333 -1.615368 5.272063
v -8.453333 -1.615368 5.272063
v -9.030683 -1.345406 6.234933
v -9.120000 -0.789492 6.079071
v -8.453333 -1.615368 5.272063
v -9.051788 -1.082690 6.161275
v -9.051788 -0.714084 5.784052
v -8.453333 -1.615368 5.272063
v -8.453333 -1.615368 5.272063
v -9.030684 -0.646516 5.519704
v -9.120000 -0.503541 4.960337
v -8.453333 -1.615368 5.272063
v -9.051788 -0.578948 5.255356
v -9.051788 -0.721331 4.747523
v -8.453333 -1.615368 5.272063
v -8.453333 -1.615368 5.272063
v -9.030684 -0.646516 5.519704
v -9.030684 -0.916479 4.556833
v -8.453333 -1.615368 5.272063
f 1 2 3
f 1 3 4
f 1 5 2
f 2 5 6
f 2 107 108
f 2 108 3
f 2 6 107
f 3 49 4
f 3 108 111
f 3 111 49
f 4 49 48
f 5 7 6
f 6 7 8
f 6 119 107
f 6 8 119
f 7 9 8
f 8 9 10
f 8 122 119
f 8 10 122
f 9 11 10
f 10 11 12
f 10 103 122
f 10 12 103
f 11 13 12
f 12 13 14
f 12 101 103
f 12 14 101
f 13 468 14
f 15 16 17
f 15 18 16
f 16 18 19
f 16 125 99
f 16 99 17
f 16 19 125
f 17 99 100
f 18 20 19
f 19 20 21
f 19 132 125
f 19 21 132
f 20 22 21
f 21 22 23
f 21 135 132
f 21 23 135
f 22 24 23
f 23 24 25
f 23 138 135
f 23 25 138
f 24 26 25
f 25 26 27
f 25 141 138
f 25 27 141
f 26 28 27
f 27 28 29
f 27 144 141
f 27 29 144
f 28 30 29
f 29 30 31
f 29 147 144
f 29 31 147
f 30 32 31
f 31 32 33
f 31 150 147
f 31 33 150
f 32 34 33
f 33 34 35
f 33 153 150
f 33 35 153
f 34 36 35
f 35 36 37
f 35 156 153
f 35 37 156
f 36 38 37
f 37 38 39
f 37 159 156
f 37 39 159
f 38 40 39
f 39 40 41
f 39 162 159
f 39 41 162
f 40 42 41
f 41 42 43
f 41 165 162
f 41 43 165
f 42 44 43
f 43 44 45
f 43 168 165
f 43 45 168
f 44 46 45
f 45 46 47
f 45 171 168
f 45 47 171
f 46 48 47
f 47 48 49
f 47 118 171
f 47 49 118
f 49 111 118
f 50 51 52
f 50 52 53
f 50 54 51
f 51 54 55
f 51 55 173
f 51 116 52
f 51 173 116
f 52 98 53
f 52 115 98
f 52 116 115
f 53 98 97
f 54 56 55
f 55 56 57
f 55 57 170
f 55 170 173
f 56 58 57
f 57 58 59
f 57 59 167
f 57 167 170
f 58 60 59
f 59 60 61
f 59 61 164
f 59 164 167
f 60 62 61
f 61 62 63
f 61 63 161
f 61 161 164
f 62 64 63
f 63 64 65
f 63 65 158
f 63 158 161
f 64 66 65
f 65 66 67
f 65 67 155
f 65 155 158
f 66 68 67
f 67 68 69
f 67 69 152
f 67 152 155
f 68 70 69
f 69 70 71
f 69 71 149
f 69 149 152
f 70 72 71
f 71 72 73
f 71 73 146
f 71 146 149
f 72 74 73
f 73 74 75
f 73 75 143
f 73 143 146
f 74 76 75
f 75 76 77
f 75 77 140
f 75 140 143
f 76 78 77
f 77 78 79
f 77 79 137
f 77 137 140
f 78 80 79
f 79 80 81
f 79 81 134
f 79 134 137
f 80 82 81
f 81 82 83
f 81 83 128
f 81 128 134
f 82 84 83
f 83 84 85
f 83 85 129
f 83 129 128
f 84 86 85
f 85 86 87
f 85 131 129
f 85 87 131
f 86 469 87
f 88 89 90
f 88 91 89
f 89 91 92
f 89 92 124
f 89 106 90
f 89 124 106
f 90 106 104
f 91 93 92
f 92 93 94
f 92 94 121
f 92 121 124
f 93 95 94
f 94 95 96
f 94 96 112
f 94 112 121
f 95 97 96
f 96 97 98
f 96 98 113
f 96 113 112
f 98 115 113
f 99 126 127
f 99 127 100
f 99 125 126
f 100 127 130
f 101 102 103
f 102 104 105
f 102 105 103
f 103 105 122
f 104 106 105
f 105 123 122
f 105 106 123
f 106 124 123
f 107 120 109
f 107 109 108
f 107 119 120
f 108 109 110
f 108 110 111
f 109 121 112
f 109 112 110
f 109 120 121
f 110 112 113
f 110 113 114
f 110 114 111
f 111 114 118
f 113 115 114
f 114 115 117
f 114 117 118
f 115 116 117
f 116 173 172
f 116 172 117
f 117 172 171
f 117 171 118
f 119 123 120
f 119 122 123
f 120 124 121
f 120 123 124
f 125 133 126
f 125 132 133
f 126 134 128
f 126 128 127
f 126 133 134
f 127 128 129
f 127 129 130
f 129 131 130
f 132 136 133
f 132 135 136
f 133 137 134
f 133 136 137
f 135 139 136
f 135 138 139
f 136 140 137
f 136 139 140
f 138 142 139
f 138 141 142
f 139 143 140
f 139 142 143
f 141 145 142
f 141 144 145
f 142 146 143
f 142 145 146
f 144 148 145
f 144 147 148
f 145 149 146
f 145 148 149
f 147 151 148
f 147 150 151
f 148 152 149
f 148 151 152
f 150 154 151
f 150 153 154
f 151 155 152
f 151 154 155
f 153 157 154
f 153 156 157
f 154 158 155
f 154 157 158
f 156 160 157
f 156 159 160
f 157 161 158
f 157 160 161
f 159 163 160
f 159 162 163
f 160 164 161
f 160 163 164
f 162 166 163
f 162 165 166
f 163 167 164
f 163 166 167
f 165 169 166
f 165 168 169
f 166 170 167
f 166 169 170
f 168 172 169
f 168 171 172
f 169 173 170
f 169 172 173
f 174 175 176
f 174 176 177
f 174 178 175
f 175 178 179
f 176 222 177
f 177 222 221
f 178 180 179
f 179 180 181
f 180 182 181
f 181 182 183
f 182 184 183
f 183 184 185
f 184 186 185
f 185 186 187
f 186 188 187
f 187 188 189
f 188 190 189
f 189 190 191
f 190 192 191
f 191 192 193
f 192 194 193
f 193 194 195
f 194 196 195
f 195 196 197
f 196 198 197
f 197 198 199
f 198 470 199
f 200 201 202
f 200 203 201
f 201 203 204
f 203 205 204
f 204 205 206
f 205 207 206
f 206 207 208
f 207 209 208
f 208 209 210
f 209 211 210
f 210 211 212
f 211 213 212
f 212 213 214
f 213 215 214
f 214 215 216
f 215 217 216
f 216 217 218
f 217 219 218
f 218 219 220
f 219 221 220
f 220 221 222
f 223 224 225
f 223 521 520
f 223 225 521
f 224 471 225
f 225 471 472
f 226 227 228
f 226 228 229
f 226 230 227
f 227 230 316
f 227 317 228
f 227 320 317
f 227 316 320
f 228 258 229
f 228 317 319
f 228 319 258
f 229 258 256
f 230 231 316
f 231 232 233
f 231 330 316
f 231 233 330
f 232 234 235
f 232 235 233
f 233 235 334
f 233 334 335
f 233 335 330
f 234 236 237
f 234 237 235
f 235 237 340
f 235 340 334
f 236 238 239
f 236 239 237
f 237 239 343
f 237 343 340
f 238 346 239
f 239 346 347
f 239 347 343
f 240 241 242
f 240 367 366
f 240 371 367
f 240 242 371
f 241 243 244
f 241 244 242
f 242 244 375
f 242 375 376
f 242 376 371
f 243 245 246
f 243 246 244
f 244 246 381
f 244 381 375
f 245 247 248
f 245 248 246
f 246 248 384
f 246 384 381
f 247 387 248
f 247 392 391
f 247 391 387
f 248 387 388
f 248 388 384
f 249 250 251
f 249 406 405
f 249 410 406
f 249 251 410
f 250 252 253
f 250 253 251
f 251 253 414
f 251 414 415
f 251 415 410
f 252 254 255
f 252 255 253
f 253 255 420
f 253 420 414
f 254 256 257
f 254 257 255
f 255 257 423
f 255 423 420
f 256 258 259
f 256 259 257
f 257 259 426
f 257 426 423
f 258 319 329
f 258 329 259
f 259 329 426
f 260 261 262
f 260 262 263
f 260 264 261
f 261 264 326
f 261 324 262
f 261 327 324
f 261 326 327
f 262 315 263
f 262 324 321
f 262 321 315
f 263 315 314
f 264 431 326
f 265 266 267
f 265 268 266
f 265 267 430
f 266 268 269
f 266 269 419
f 266 419 422
f 266 422 267
f 267 422 425
f 267 425 429
f 267 429 430
f 268 270 269
f 269 270 271
f 269 417 419
f 269 271 417
f 270 272 271
f 271 272 273
f 271 273 413
f 271 413 417
f 272 274 273
f 273 274 275
f 273 409 413
f 273 275 409
f 274 276 275
f 275 276 277
f 275 404 409
f 275 277 404
f 276 278 277
f 277 278 279
f 277 398 404
f 277 279 398
f 278 280 279
f 279 280 281
f 279 399 398
f 279 281 399
f 280 282 281
f 281 282 283
f 281 283 390
f 281 390 399
f 282 284 283
f 283 284 285
f 283 386 390
f 283 285 386
f 284 286 285
f 285 286 287
f 285 383 386
f 285 287 383
f 286 288 287
f 287 288 289
f 287 289 380
f 287 380 383
f 288 290 289
f 289 290 291
f 289 291 379
f 289 379 380
f 290 292 291
f 291 292 293
f 291 374 379
f 291 293 374
f 292 294 293
f 293 294 295
f 293 370 374
f 293 295 370
f 294 296 295
f 295 296 297
f 295 365 370
f 295 297 365
f 296 298 297
f 297 298 299
f 297 359 365
f 297 299 359
f 298 300 299
f 299 300 301
f 299 360 359
f 299 301 360
f 300 596 301
f 301 596 597
f 301 597 598
f 301 598 360
f 302 303 304
f 302 305 307
f 302 307 303
f 303 345 349
f 303 307 345
f 305 306 307
f 305 308 306
f 306 308 309
f 306 309 339
f 306 339 342
f 306 342 307
f 307 342 345
f 308 310 309
f 309 310 311
f 309 311 338
f 309 338 339
f 310 312 311
f 311 312 313
f 311 333 338
f 311 313 333
f 312 314 313
f 313 314 315
f 313 315 325
f 313 325 333
f 315 321 325
f 316 331 320
f 316 330 331
f 317 318 319
f 317 323 318
f 317 320 323
f 318 321 322
f 318 325 321
f 318 322 319
f 318 323 325
f 319 322 329
f 320 332 323
f 320 331 332
f 321 324 322
f 322 324 328
f 322 328 329
f 323 333 325
f 323 332 333
f 324 327 328
f 326 428 327
f 326 431 429
f 326 429 428
f 327 427 328
f 327 428 427
f 328 426 329
f 328 427 426
f 330 335 331
f 331 335 337
f 331 337 332
f 332 337 338
f 332 338 333
f 334 336 335
f 334 340 341
f 334 341 336
f 335 336 337
f 336 341 342
f 336 339 337
f 336 342 339
f 337 339 338
f 340 343 344
f 340 344 341
f 341 344 345
f 341 345 342
f 343 347 348
f 343 348 344
f 344 348 349
f 344 349 345
f 350 351 352
f 350 352 353
f 350 354 355
f 350 356 354
f 350 353 356
f 350 355 351
f 352 361 353
f 353 361 362
f 353 363 356
f 353 362 363
f 354 356 357
f 354 357 358
f 354 600 355
f 354 358 600
f 356 364 357
f 356 363 364
f 357 359 358
f 357 364 365
f 357 365 359
f 358 359 360
f 358 599 600
f 358 360 599
f 360 598 599
f 361 366 362
f 362 366 367
f 362 368 363
f 362 367 368
f 363 369 364
f 363 368 369
f 364 369 370
f 364 370 365
f 367 372 368
f 367 371 372
f 368 373 369
f 368 372 373
f 369 374 370
f 369 373 374
f 371 376 372
f 372 376 378
f 372 378 373
f 373 378 379
f 373 379 374
f 375 377 376
f 375 381 382
f 375 382 377
f 376 377 378
f 377 382 383
f 377 380 378
f 377 383 380
f 378 380 379
f 381 384 385
f 381 385 382
f 382 385 386
f 382 386 383
f 384 388 389
f 384 389 385
f 385 389 390
f 385 390 386
f 387 395 388
f 387 391 395
f 388 397 389
f 388 395 397
f 389 399 390
f 389 397 399
f 391 392 393
f 391 393 394
f 391 394 395
f 392 400 393
f 393 400 401
f 393 401 402
f 393 402 394
f 394 396 395
f 394 402 403
f 394 403 396
f 395 396 397
f 396 398 397
f 396 403 404
f 396 404 398
f 397 398 399
f 400 405 401
f 401 405 406
f 401 406 407
f 401 407 402
f 402 407 408
f 402 408 403
f 403 408 409
f 403 409 404
f 406 410 411
f 406 411 407
f 407 411 412
f 407 412 408
f 408 412 413
f 408 413 409
f 410 415 411
f 411 418 412
f 411 415 418
f 412 417 413
f 412 418 417
f 414 416 415
f 414 420 421
f 414 421 416
f 415 416 418
f 416 421 422
f 416 419 418
f 416 422 419
f 417 418 419
f 420 423 424
f 420 424 421
f 421 424 425
f 421 425 422
f 423 426 427
f 423 427 424
f 424 427 428
f 424 428 425
f 425 428 429
f 429 431 430
f 432 433 434
f 432 434 435
f 432 436 437
f 432 438 436
f 432 439 433
f 432 435 438
f 433 439 443
f 436 459 437
f 437 455 454
f 437 459 460
f 437 461 455
f 437 460 461
f 439 440 441
f 439 441 442
f 439 444 440
f 439 442 443
f 440 444 448
f 444 445 446
f 444 446 447
f 444 449 445
f 444 447 448
f 445 449 453
f 449 450 451
f 449 451 452
f 449 454 450
f 449 452 453
f 450 454 458
f 454 455 456
f 454 456 457
f 454 457 458
f 462 463 464
f 463 663 464
f 464 663 664
f 465 466 467
f 466 688 467
f 467 688 689
f 471 473 472
f 472 473 474
f 473 475 474
f 474 475 476
f 475 477 476
f 476 477 478
f 477 479 478
f 478 479 480
f 478 480 481
f 480 482 481
f 481 482 483
f 482 484 483
f 483 484 485
f 484 486 485
f 485 486 487
f 486 488 487
f 487 488 489
f 487 489 490
f 489 491 490
f 490 491 492
f 491 493 492
f 492 493 494
f 493 495 494
f 494 495 496
f 495 497 496
f 496 497 498
f 496 498 499
f 498 500 499
f 499 500 501
f 500 502 501
f 501 502 503
f 502 504 503
f 503 504 505
f 504 506 505
f 505 506 507
f 505 507 508
f 507 509 508
f 508 509 510
f 509 511 510
f 510 511 512
f 511 513 512
f 512 513 514
f 513 515 514
f 514 515 516
f 514 516 517
f 516 518 517
f 517 518 519
f 518 520 519
f 519 520 521
f 522 523 524
f 522 525 523
f 522 571 525
f 523 526 524
f 525 571 570
f 527 528 529
f 528 530 529
f 529 530 531
f 530 532 531
f 531 532 533
f 532 534 533
f 533 534 535
f 534 536 535
f 535 536 537
f 536 538 537
f 537 538 539
f 538 540 539
f 539 540 541
f 540 542 541
f 541 542 543
f 542 544 543
f 543 544 545
f 544 546 545
f 545 546 547
f 546 548 547
f 547 548 549
f 548 550 549
f 549 550 551
f 550 552 551
f 551 552 553
f 552 554 553
f 553 554 555
f 554 556 555
f 555 556 557
f 556 558 557
f 557 558 559
f 558 560 559
f 559 560 561
f 560 562 561
f 561 562 563
f 562 564 563
f 563 564 565
f 564 566 565
f 565 566 567
f 566 568 567
f 567 568 569
f 568 570 569
f 569 570 571
f 572 573 574
f 573 575 574
f 573 576 575
f 575 576 577
f 576 578 577
f 577 578 579
f 578 580 579
f 579 580 581
f 580 582 581
f 581 582 583
f 582 584 583
f 583 584 585
f 584 586 585
f 585 586 587
f 586 588 587
f 587 588 589
f 588 590 589
f 589 590 591
f 590 592 591
f 591 592 593
f 592 594 593
f 593 594 595
f 601 602 603
f 601 604 602
f 601 662 604
f 602 605 603
f 603 605 606
f 604 662 661
f 605 607 606
f 606 607 608
f 607 609 608
f 608 609 610
f 609 611 610
f 610 611 612
f 611 613 612
f 612 613 614
f 613 615 614
f 614 615 616
f 615 617 616
f 616 617 618
f 617 619 618
f 618 619 620
f 619 621 620
f 620 621 622
f 621 623 622
f 622 623 624
f 623 625 624
f 624 625 626
f 625 627 626
f 626 627 628
f 627 629 628
f 628 629 630
f 629 631 630
f 630 631 632
f 631 633 632
f 632 633 634
f 633 635 634
f 636 637 638
f 637 639 638
f 638 639 640
f 639 641 640
f 640 641 642
f 641 643 642
f 642 643 644
f 643 645 644
f 644 645 646
f 645 647 646
f 646 647 648
f 647 649 648
f 648 649 650
f 649 651 650
f 650 651 652
f 651 653 652
f 652 653 654
f 653 655 654
f 654 655 656
f 655 657 656
f 656 657 658
f 657 659 658
f 658 659 660
f 659 661 660
f 660 661 662
f 663 665 664
f 664 665 666
f 667 668 669
f 668 670 669
f 669 670 671
f 670 672 671
f 671 672 673
f 674 675 676
f 675 677 676
f 676 677 678
f 677 679 678
f 678 679 680
f 681 682 683
f 682 684 683
f 683 684 685
f 684 686 685
f 685 686 687
f 688 690 689
f 689 690 691
f 692 693 694
f 693 695 694
f 694 695 696
f 695 697 696
f 696 697 698
f 699 700 701
f 699 702 700
f 701 703 704
f 702 707 710
f 704 741 740
f 705 706 707
f 705 708 709
f 708 711 709
f 711 714 717
f 712 713 714
f 712 715 716
f 715 718 716
f 718 721 724
f 719 720 721
f 719 722 723
f 722 725 723
f 725 728 731
f 726 727 728
f 726 729 730
f 729 732 730
f 733 734 735
f 733 736 737
f 735 738 739
f 736 740 737