# ANSI B18.3.4M - M3 x 0.5 x 12(1)
# Autodesk dbId: 53
# Units: mm
o 053_ANSI_B18.3.4M_-_M3_x_0.5_x_12(1)
v 15.589999 18.760271 -1.271554
v 15.586592 18.413303 -1.499416
v 15.586592 18.742183 -1.253043
v 15.589999 19.018353 -0.943144
v 15.589999 18.425985 -1.521978
v 15.586592 18.031865 -1.652274
v 15.589999 18.038274 -1.677350
v 15.586592 17.623860 -1.701200
v 15.589999 17.623561 -1.727080
v 15.586592 17.217095 -1.642859
v 15.589999 17.210108 -1.667780
v 15.586592 16.839291 -1.481228
v 15.589999 16.826091 -1.503491
v 15.586592 16.516192 -1.227321
v 15.589999 16.497681 -1.245410
v 15.586592 16.269819 -0.898442
v 15.586592 16.516192 -1.227321
v 15.589999 16.247257 -0.911123
v 15.586592 16.116961 -0.517003
v 15.589999 16.091885 -0.523412
v 15.586592 16.068035 -0.108999
v 15.589999 16.042155 -0.108700
v 15.586592 16.126376 0.297766
v 15.589999 16.101455 0.304753
v 15.586592 16.288007 0.675571
v 15.589999 16.265744 0.688770
v 15.586592 16.541914 0.998669
v 15.589999 16.523825 1.017181
v 15.586592 16.870793 1.245042
v 15.589999 16.858112 1.267605
v 15.586592 17.252232 1.397900
v 15.589999 17.245822 1.422976
v 15.586592 17.660236 1.446826
v 15.589999 17.660535 1.472706
v 15.586592 18.067001 1.388485
v 15.589999 18.073988 1.413406
v 15.586592 18.444806 1.226854
v 15.589999 18.458005 1.249118
v 15.586592 18.767904 0.972947
v 15.589999 18.786416 0.991036
v 15.586592 19.014277 0.644068
v 15.589999 19.036840 0.656749
v 15.586592 19.167135 0.262629
v 15.589999 19.192211 0.269039
v 15.586592 19.216061 -0.145375
v 15.589999 19.241941 -0.145674
v 15.586592 19.157721 -0.552140
v 15.589999 19.182641 -0.559127
v 15.586592 18.996089 -0.929945
v 15.489999 18.690382 -1.200032
v 15.515881 18.935265 -0.893884
v 15.515881 18.692764 -1.202469
v 15.489999 18.376988 -1.434804
v 15.489999 18.932334 -0.892146
v 15.515881 19.089635 -0.533051
v 15.489999 19.086354 -0.532131
v 15.515881 19.145355 -0.144558
v 15.489999 19.141948 -0.144519
v 15.515881 19.098627 0.245118
v 15.489999 19.095326 0.244275
v 15.515881 18.952636 0.609423
v 15.489999 18.949665 0.607753
v 15.515881 18.717330 0.923528
v 15.489999 18.714893 0.921147
v 15.515881 18.408745 1.166030
v 15.489999 18.407008 1.163098
v 15.515881 18.047912 1.320400
v 15.489999 18.046992 1.317119
v 15.515881 17.659419 1.376120
v 15.489999 17.659380 1.372713
v 15.515881 17.269743 1.329392
v 15.489999 17.270587 1.326091
v 15.515881 16.905438 1.183401
v 15.489999 16.907108 1.180430
v 15.515881 16.591333 0.948095
v 15.489999 16.593714 0.945658
v 15.515881 16.348832 0.639510
v 15.489999 16.351763 0.637773
v 15.515881 16.194461 0.278677
v 15.489999 16.197742 0.277757
v 15.515881 16.138741 -0.109816
v 15.489999 16.142148 -0.109855
v 15.515881 16.185469 -0.499492
v 15.489999 16.188770 -0.498648
v 15.515881 16.331461 -0.863797
v 15.489999 16.334431 -0.862127
v 15.515881 16.566767 -1.177902
v 15.489999 16.569204 -1.175521
v 15.515881 16.875351 -1.420403
v 15.515881 16.566767 -1.177902
v 15.489999 16.877089 -1.417472
v 15.515881 17.236185 -1.574774
v 15.489999 17.237105 -1.571493
v 15.515881 17.624677 -1.630494
v 15.489999 17.624717 -1.627087
v 15.515881 18.014354 -1.583766
v 15.489999 18.013510 -1.580465
v 15.515881 18.378658 -1.437774
v 15.576602 16.290844 -0.886625
v 15.576602 16.533442 -1.210465
v 15.576602 16.533442 -1.210465
v 15.560710 16.548255 -1.195991
v 15.576602 16.851590 -1.460482
v 15.539999 16.559621 -1.184884
v 15.560710 16.862152 -1.442667
v 15.539999 16.870256 -1.428997
v 15.576602 18.025892 -1.628907
v 15.576602 18.401487 -1.478391
v 15.560710 18.020763 -1.608842
v 15.560710 18.391339 -1.460337
v 15.576602 18.725327 -1.235793
v 15.539999 18.016827 -1.593445
v 15.539999 18.383553 -1.446483
v 15.560710 18.710852 -1.220980
v 15.539999 18.699746 -1.209614
v 15.539999 18.943858 -0.898979
v 15.560710 18.957528 -0.907083
v 15.576602 18.975343 -0.917645
v 15.576602 17.624139 -1.677083
v 15.560710 17.624378 -1.656374
v 15.539999 17.624562 -1.640483
v 15.576602 17.223606 -1.619637
v 15.560710 17.229198 -1.599695
v 15.539999 17.233488 -1.584393
v 15.576602 16.140328 -0.511030
v 15.560710 16.160393 -0.505902
v 15.560710 16.308898 -0.876478
v 15.539999 16.175790 -0.501966
v 15.539999 16.322752 -0.868691
v 15.560710 16.548255 -1.195991
v 15.539999 16.559621 -1.184884
v 15.576602 16.092152 -0.109277
v 15.560710 16.112861 -0.109517
v 15.539999 16.128752 -0.109700
v 15.576602 16.149598 0.291255
v 15.560710 16.169540 0.285664
v 15.539999 16.184842 0.281374
v 15.576602 16.308753 0.663271
v 15.560710 16.326568 0.652709
v 15.539999 16.340238 0.644605
v 15.576602 16.558770 0.981419
v 15.560710 16.573244 0.966606
v 15.539999 16.584351 0.955240
v 15.576602 16.882610 1.224017
v 15.560710 16.892757 1.205963
v 15.539999 16.900544 1.192109
v 15.576602 17.258205 1.374533
v 15.560710 17.263333 1.354468
v 15.539999 17.267269 1.339071
v 15.576601 17.659957 1.422709
v 15.560710 17.659718 1.402000
v 15.539999 17.659535 1.386109
v 15.576601 18.060490 1.365263
v 15.560710 18.054899 1.345321
v 15.539999 18.050609 1.330019
v 15.576601 18.432506 1.206108
v 15.560710 18.421945 1.188293
v 15.539999 18.413840 1.174623
v 15.576601 18.750654 0.956091
v 15.560710 18.735841 0.941617
v 15.539999 18.724475 0.930510
v 15.576601 18.993252 0.632251
v 15.560710 18.975198 0.622104
v 15.539999 18.961344 0.614318
v 15.576601 19.143768 0.256657
v 15.560710 19.123703 0.251528
v 15.539999 19.108306 0.247592
v 15.576601 19.191945 -0.145096
v 15.560710 19.171235 -0.144857
v 15.539999 19.155345 -0.144673
v 15.576602 19.134498 -0.545629
v 15.560710 19.114556 -0.540038
v 15.539999 19.099254 -0.535747
v 3.896726 18.690382 -1.200032
v 15.489999 18.932334 -0.892146
v 15.489999 18.690382 -1.200032
v 3.896726 18.376988 -1.434805
v 3.896726 18.932333 -0.892147
v 15.489999 19.086354 -0.532131
v 3.896726 19.086354 -0.532131
v 15.489999 19.141948 -0.144519
v 3.896726 19.141947 -0.144519
v 15.489999 19.095326 0.244275
v 3.896726 19.095325 0.244274
v 15.489999 18.949665 0.607753
v 3.896726 18.949665 0.607753
v 15.489999 18.714893 0.921147
v 3.896726 18.714892 0.921146
v 15.489999 18.407008 1.163098
v 3.896726 18.407007 1.163098
v 15.489999 18.046992 1.317119
v 3.896726 18.046991 1.317118
v 15.489999 17.659380 1.372713
v 3.896726 17.659379 1.372712
v 15.489999 17.270587 1.326091
v 3.896726 17.270586 1.326090
v 15.489999 16.907108 1.180430
v 3.896726 16.907107 1.180429
v 15.489999 16.593714 0.945658
v 3.896726 16.593713 0.945657
v 15.489999 16.351763 0.637773
v 15.489999 16.593714 0.945658
v 3.896726 16.351762 0.637772
v 15.489999 16.197742 0.277757
v 3.896726 16.197741 0.277756
v 15.489999 16.142148 -0.109855
v 3.896726 16.142148 -0.109856
v 15.489999 16.188770 -0.498648
v 3.896726 16.188770 -0.498649
v 15.489999 16.334431 -0.862127
v 3.896726 16.334430 -0.862128
v 15.489999 16.569204 -1.175521
v 3.896726 16.569203 -1.175522
v 15.489999 16.877089 -1.417472
v 3.896726 16.877088 -1.417473
v 15.489999 17.237105 -1.571493
v 3.896726 17.237104 -1.571494
v 15.489999 17.624717 -1.627087
v 3.896726 17.624716 -1.627087
v 15.489999 18.013510 -1.580465
v 3.896726 18.013509 -1.580465
v 15.489999 18.376988 -1.434804
v 15.589999 20.014165 -1.706922
v 15.589999 19.633883 -2.165592
v 15.589999 18.760271 -1.271554
v 17.239999 18.746294 -1.257250
v 17.196725 18.826013 -1.624305
v 17.196724 19.111409 -1.345430
v 17.239999 19.001149 -0.932944
v 17.239999 18.416185 -1.504543
v 17.239999 18.033321 -1.657973
v 17.239999 17.623792 -1.707081
v 17.196725 17.719912 -2.034298
v 17.239999 17.215508 -1.648523
v 17.196725 17.321699 -2.008812
v 17.239999 16.836291 -1.486287
v 17.196725 16.937488 -1.901089
v 17.239999 16.511985 -1.231432
v 17.196725 16.584069 -1.715839
v 17.239999 16.120712 0.299354
v 17.239999 16.282948 0.678571
v 17.196725 15.951510 0.758937
v 17.239999 16.537803 1.002876
v 17.196724 16.172688 1.091056
v 17.239999 16.867911 1.250170
v 17.196724 16.458084 1.369932
v 17.239999 17.250775 1.403599
v 17.196724 16.795224 1.583376
v 17.239999 18.772111 0.977058
v 17.239999 19.019405 0.646950
v 17.196724 19.254723 0.893800
v 17.239999 19.172834 0.264086
v 17.196724 19.431758 0.536195
v 17.239999 19.221943 -0.145443
v 17.196724 19.530573 0.149597
v 17.239999 19.163384 -0.553728
v 17.196724 19.546851 -0.249098
v 17.196724 19.332587 -1.013311
v 17.196724 19.479880 -0.642464
v 15.969999 19.633883 -2.165592
v 16.298699 19.802729 -1.918601
v 16.298699 19.383057 -2.328686
v 15.969999 19.166548 -2.535173
v 15.969999 20.014165 -1.706922
v 15.969999 20.489676 -0.010925
v 16.298699 20.419106 0.279822
v 16.298699 20.443043 -0.306456
v 15.969998 20.403276 0.578590
v 16.298699 20.273799 0.848310
v 15.969998 20.196197 1.137258
v 16.298699 20.013472 1.374165
v 15.969998 19.877490 1.640665
v 16.298699 19.649502 1.834404
v 15.969998 19.461083 2.066807
v 16.298699 19.197796 2.208911
v 15.969998 18.965176 2.397062
v 16.298699 18.678098 2.481320
v 15.969998 18.411441 2.616995
v 16.298699 18.113118 2.639725
v 15.969999 17.824080 2.716993
v 16.298699 17.527551 2.677202
v 15.969999 17.228764 2.692688
v 16.298699 16.946988 2.592114
v 15.969999 16.651511 2.545140
v 16.298699 16.396802 2.388180
v 15.969999 16.117548 2.280799
v 16.298699 15.901039 2.074312
v 15.969999 15.650214 1.911218
v 16.298699 15.481367 1.664228
v 15.969999 15.269932 1.452548
v 16.298699 15.156127 1.175850
v 15.969999 14.993323 0.924836
v 16.298699 14.939534 0.630524
v 15.969999 14.832476 0.351146
v 16.298699 14.841053 0.052082
v 15.969999 14.794421 -0.243449
v 16.298699 14.864990 -0.534195
v 15.969999 14.880821 -0.832964
v 16.298700 15.010297 -1.102684
v 15.969999 15.087899 -1.391632
v 16.298700 15.270625 -1.628539
v 15.969999 15.823013 -2.321181
v 16.298700 15.634595 -2.088777
v 15.969999 15.406607 -1.895038
v 15.969999 16.318921 -2.651436
v 16.298700 16.605999 -2.735694
v 16.298700 16.086300 -2.463285
v 15.969999 16.872655 -2.871368
v 16.298700 17.170978 -2.894099
v 15.969999 17.460016 -2.971367
v 16.298699 17.756546 -2.931576
v 15.969999 18.055332 -2.947062
v 16.298699 18.337109 -2.846488
v 15.969999 18.632586 -2.799514
v 16.298699 18.887295 -2.642554
v 17.196725 18.488872 -1.837750
v 17.069851 19.016010 -1.864556
v 16.868024 19.179165 -2.070864
v 17.069851 19.347205 -1.540928
v 17.069851 18.624767 -2.112253
v 16.604999 19.304358 -2.229170
v 16.868024 19.549688 -1.708806
v 16.868024 18.741462 -2.347975
v 16.604999 19.705059 -1.837623
v 16.604999 18.831005 -2.528851
v 16.298699 20.127969 -1.430224
v 16.604999 20.015597 -1.371322
v 16.868024 19.836839 -1.277623
v 17.069851 19.603877 -1.155512
v 17.196725 18.114721 -1.976434
v 17.069851 18.190573 -2.273193
v 16.868024 18.255709 -2.528026
v 16.604999 18.305690 -2.723566
v 17.069851 17.270291 -2.310767
v 17.069851 17.732407 -2.340343
v 16.868024 17.226146 -2.570061
v 16.868024 17.743137 -2.603149
v 16.604999 17.751370 -2.804808
v 16.604999 17.192272 -2.769025
v 17.069851 16.824423 -2.185757
v 16.868024 16.727332 -2.430207
v 16.604999 16.652832 -2.617781
v 17.069851 16.414289 -1.970779
v 16.868024 16.268496 -2.189701
v 16.604999 16.156625 -2.357685
v 17.196725 16.276889 -1.461157
v 17.069851 16.057815 -1.675226
v 16.868024 15.869691 -1.859052
v 16.604999 15.725338 -2.000107
v 17.196725 16.029373 -1.148174
v 17.239999 16.511985 -1.231432
v 17.239999 16.264692 -0.901324
v 17.196725 15.852339 -0.790569
v 17.069851 15.770578 -1.312017
v 17.196725 16.276889 -1.461157
v 17.069851 15.565134 -0.897026
v 16.868024 15.318506 -0.988442
v 16.868024 15.548346 -1.452713
v 16.604999 15.129261 -1.058588
v 16.604999 15.377821 -1.560672
v 17.239999 16.111262 -0.518459
v 17.196725 15.753523 -0.403971
v 17.069851 15.450461 -0.448388
v 16.868024 15.190216 -0.486530
v 16.604999 14.990522 -0.515797
v 17.239999 16.062154 -0.108931
v 17.196725 15.737245 -0.005276
v 17.069851 15.431571 0.014288
v 16.868024 15.169082 0.031087
v 16.604999 14.967668 0.043978
v 17.196725 15.804217 0.388091
v 17.069851 15.509289 0.470780
v 16.868024 15.256030 0.541787
v 16.604999 15.061697 0.596273
v 17.069851 15.936891 1.286554
v 17.069851 15.680220 0.901139
v 16.868024 15.734408 1.454432
v 16.868024 15.447257 1.023250
v 16.604999 15.268499 1.116949
v 16.604999 15.579037 1.583250
v 17.069851 16.268086 1.610183
v 16.868024 16.104932 1.816491
v 16.604999 15.979739 1.974797
v 17.069851 16.659330 1.857880
v 16.868024 16.542635 2.093601
v 16.604999 16.453091 2.274477
v 17.196724 17.169376 1.722061
v 17.069851 17.093523 2.018820
v 16.868024 17.028387 2.273653
v 16.604999 16.978407 2.469193
v 17.196724 17.564185 1.779924
v 17.239999 17.660304 1.452708
v 17.196724 17.962397 1.754438
v 17.069851 18.013805 2.056393
v 17.069851 17.551690 2.085969
v 16.868024 18.057950 2.315687
v 16.868024 17.540960 2.348776
v 16.604999 18.091824 2.514651
v 16.604999 17.532727 2.550434
v 17.239999 18.068589 1.394149
v 17.196724 18.346609 1.646716
v 17.069851 18.459673 1.931384
v 16.868024 18.556764 2.175834
v 16.604999 18.631265 2.363407
v 17.239999 18.447806 1.231914
v 17.196724 18.700027 1.461465
v 17.069851 18.869807 1.716405
v 16.868024 19.015600 1.935327
v 16.604999 19.127471 2.103312
v 17.196724 19.007207 1.206783
v 17.069851 19.226282 1.420853
v 16.868024 19.414406 1.604679
v 16.604999 19.558758 1.745733
v 17.069851 19.718962 0.642652
v 17.069851 19.513518 1.057644
v 16.868024 19.965591 0.734068
v 16.604999 19.906275 1.306299
v 16.868024 19.735751 1.198339
v 16.604999 20.154835 0.804215
v 17.069851 19.833636 0.194014
v 16.868024 20.093881 0.232156
v 16.604999 20.293574 0.261424
v 17.069851 19.852526 -0.268661
v 16.868024 20.115014 -0.285461
v 16.604999 20.316428 -0.298352
v 17.069851 19.774807 -0.725154
v 16.868024 20.028067 -0.796161
v 16.604999 20.222400 -0.850646
v 16.298699 20.344563 -0.884898
v 15.969999 20.451620 -0.605520
v 15.969999 20.290774 -1.179210
v 17.239999 18.753876 -0.438913
v 17.239999 18.746294 -1.257250
v 17.239999 19.001149 -0.932944
v 17.239999 19.163384 -0.553728
v 17.239999 19.172834 0.264086
v 17.239999 18.467924 0.679821
v 17.239999 19.221943 -0.145443
v 17.239999 17.928000 -1.245920
v 17.239999 17.215508 -1.648523
v 17.239999 17.623792 -1.707081
v 17.239999 18.033321 -1.657973
v 17.239999 18.416185 -1.504543
v 17.239999 16.816172 -0.934195
v 17.239999 16.111262 -0.518459
v 17.239999 16.264692 -0.901324
v 17.239999 16.511985 -1.231432
v 17.239999 16.836291 -1.486287
v 17.239999 16.530221 0.184539
v 17.239999 16.537803 1.002876
v 17.239999 16.282948 0.678571
v 17.239999 16.120712 0.299354
v 17.239999 16.062154 -0.108931
v 17.239999 17.356097 0.991547
v 17.239999 18.068589 1.394149
v 17.239999 17.660304 1.452708
v 17.239999 17.250775 1.403599
v 17.239999 16.867911 1.250170
v 17.239999 19.019405 0.646950
v 17.239999 18.772111 0.977058
v 17.239999 18.447806 1.231914
v 16.199999 17.356097 0.991547
v 16.131787 17.649295 0.909342
v 17.239999 17.356097 0.991547
v 16.199999 16.530221 0.184539
v 16.131787 16.748011 0.397353
v 17.239999 16.530221 0.184539
v 15.589999 16.497681 -1.245410
v 15.489999 16.569204 -1.175521
v 3.896726 16.593713 0.945657
v 15.589999 19.166548 -2.535173
v 15.589999 18.425985 -1.521978
v 15.589999 18.632586 -2.799514
v 15.589999 18.038274 -1.677350
v 15.589999 18.055332 -2.947062
v 15.589999 17.623561 -1.727080
v 15.589999 17.460016 -2.971367
v 15.589999 17.210108 -1.667780
v 15.589999 16.872655 -2.871368
v 15.589999 16.318921 -2.651436
v 15.589999 16.826091 -1.503491
v 15.589999 15.823013 -2.321181
v 15.589999 16.497681 -1.245410
v 15.589999 15.406607 -1.895039
v 15.589999 16.247257 -0.911123
v 15.589999 15.087899 -1.391632
v 15.589999 16.091885 -0.523412
v 15.589999 14.880821 -0.832964
v 15.589999 14.794421 -0.243449
v 15.589999 16.042155 -0.108700
v 15.589999 14.832476 0.351146
v 15.589999 16.101455 0.304753
v 15.589999 14.993323 0.924836
v 15.589999 16.265744 0.688770
v 15.589999 15.269932 1.452548
v 15.589999 16.523825 1.017181
v 15.589999 15.650214 1.911218
v 15.589999 16.117548 2.280799
v 15.589999 16.858112 1.267605
v 15.589999 16.651511 2.545140
v 15.589999 17.245822 1.422976
v 15.589999 17.228764 2.692688
v 15.589999 17.660535 1.472706
v 15.589999 17.824080 2.716993
v 15.589999 18.073988 1.413406
v 15.589999 18.411441 2.616995
v 15.589999 18.965175 2.397062
v 15.589999 18.458005 1.249118
v 15.589999 19.461083 2.066807
v 15.589999 18.786416 0.991036
v 15.589999 19.877490 1.640665
v 15.589999 19.036840 0.656749
v 15.589999 20.196197 1.137258
v 15.589999 19.192211 0.269039
v 15.589999 20.403276 0.578590
v 15.589999 20.489676 -0.010925
v 15.589999 19.241941 -0.145674
v 15.589999 20.451620 -0.605520
v 15.589999 19.182641 -0.559127
v 15.589999 20.290774 -1.179210
v 15.589999 19.018353 -0.943144
v 3.896726 18.376988 -1.434805
v 3.590001 18.226705 -1.167419
v 3.896726 18.690382 -1.200032
v 3.590001 17.937551 -1.283294
v 3.590001 18.476015 -0.980653
v 3.896726 18.690382 -1.200032
v 3.590001 18.476015 -0.980653
v 3.896726 18.932333 -0.892147
v 3.590001 18.668491 -0.735726
v 3.896726 19.086354 -0.532131
v 3.590001 18.791017 -0.449327
v 3.896726 19.141947 -0.144519
v 3.590001 18.835243 -0.140975
v 3.896726 19.095325 0.244274
v 3.590001 18.798154 0.168316
v 3.896726 18.949665 0.607753
v 3.590001 18.682279 0.457470
v 3.896726 18.714892 0.921146
v 3.590001 18.495513 0.706779
v 3.896726 18.407007 1.163098
v 3.590001 18.250586 0.899256
v 3.896726 18.046991 1.317118
v 3.590001 17.964187 1.021782
v 3.896726 17.659379 1.372712
v 3.590001 17.655835 1.066008
v 3.896726 17.270586 1.326090
v 3.590001 17.346544 1.028919
v 3.896726 16.907107 1.180429
v 3.590001 17.057390 0.913044
v 3.896726 16.593713 0.945657
v 3.590001 16.808080 0.726278
v 3.896726 16.351762 0.637772
v 3.590001 16.615604 0.481350
v 3.896726 16.197741 0.277756
v 3.590001 16.493078 0.194952
v 3.896726 16.142148 -0.109856
v 3.590001 16.448852 -0.113400
v 3.896726 16.188770 -0.498649
v 3.590001 16.485941 -0.422692
v 3.896726 16.334430 -0.862128
v 3.590001 16.601816 -0.711845
v 3.896726 16.569203 -1.175522
v 3.590001 16.788582 -0.961155
v 3.896726 16.877088 -1.417473
v 3.590001 17.033509 -1.153631
v 3.896726 17.237104 -1.571494
v 3.590001 17.319908 -1.276157
v 3.896726 17.624716 -1.627087
v 3.590001 17.628260 -1.320383
v 3.896726 18.013509 -1.580465
v 3.590001 18.476015 -0.980653
v 3.590001 18.226705 -1.167419
v 3.590001 18.668491 -0.735726
v 3.590001 18.791017 -0.449327
v 3.590001 17.937551 -1.283294
v 3.590001 18.835243 -0.140975
v 3.590001 17.628260 -1.320383
v 3.590001 18.798154 0.168316
v 3.590001 17.319908 -1.276157
v 3.590001 18.682279 0.457470
v 3.590001 17.033509 -1.153631
v 3.590001 18.495513 0.706779
v 3.590001 16.788582 -0.961155
v 3.590001 18.250586 0.899256
v 3.590001 16.601816 -0.711845
v 3.590001 17.964187 1.021782
v 3.590001 16.485941 -0.422692
v 3.590001 17.655835 1.066008
v 3.590001 16.448852 -0.113400
v 3.590001 17.346544 1.028919
v 3.590001 16.493078 0.194952
v 3.590001 17.057390 0.913044
v 3.590001 16.615604 0.481350
v 3.590001 16.808080 0.726278
v 15.969999 15.406607 -1.895038
v 16.298700 15.634595 -2.088777
v 16.604999 15.725338 -2.000107
v 16.868024 15.869691 -1.859052
v 17.069851 16.057815 -1.675226
v 15.589999 20.014165 -1.706922
v 15.969999 20.014165 -1.706922
v 15.589999 19.633883 -2.165592
v 15.969999 20.290774 -1.179210
v 15.969999 19.633883 -2.165592
v 15.589999 19.166548 -2.535173
v 15.969999 19.166548 -2.535173
v 15.589999 18.632586 -2.799514
v 15.969999 18.632586 -2.799514
v 15.589999 18.055332 -2.947062
v 15.969999 18.055332 -2.947062
v 15.589999 17.460016 -2.971367
v 15.969999 17.460016 -2.971367
v 15.589999 16.872655 -2.871368
v 15.969999 16.872655 -2.871368
v 15.589999 16.318921 -2.651436
v 15.969999 16.318921 -2.651436
v 15.589999 15.823013 -2.321181
v 15.969999 15.823013 -2.321181
v 15.589999 15.406607 -1.895039
v 15.969999 15.406607 -1.895038
v 15.589999 15.087899 -1.391632
v 15.969999 15.087899 -1.391632
v 15.589999 14.880821 -0.832964
v 15.969999 14.880821 -0.832964
v 15.589999 14.794421 -0.243449
v 15.969999 14.794421 -0.243449
v 15.589999 14.832476 0.351146
v 15.969999 14.832476 0.351146
v 15.589999 14.993323 0.924836
v 15.969999 14.993323 0.924836
v 15.589999 15.269932 1.452548
v 15.969999 15.269932 1.452548
v 15.589999 15.650214 1.911218
v 15.969999 15.650214 1.911218
v 15.589999 15.650214 1.911218
v 15.969999 15.650214 1.911218
v 15.589999 16.117548 2.280799
v 15.969999 16.117548 2.280799
v 15.589999 16.651511 2.545140
v 15.969999 16.651511 2.545140
v 15.589999 17.228764 2.692688
v 15.969999 17.228764 2.692688
v 15.589999 17.824080 2.716993
v 15.969999 17.824080 2.716993
v 15.589999 18.411441 2.616995
v 15.969998 18.411441 2.616995
v 15.589999 18.965175 2.397062
v 15.969998 18.965176 2.397062
v 15.589999 19.461083 2.066807
v 15.969998 19.461083 2.066807
v 15.589999 19.877490 1.640665
v 15.969998 19.877490 1.640665
v 15.589999 20.196197 1.137258
v 15.969998 20.196197 1.137258
v 15.589999 20.403276 0.578590
v 15.969998 20.403276 0.578590
v 15.589999 20.489676 -0.010925
v 15.969999 20.489676 -0.010925
v 15.589999 20.451620 -0.605520
v 15.969999 20.451620 -0.605520
v 15.589999 20.290774 -1.179210
v 16.110682 17.912011 0.835684
v 17.239999 18.467924 0.679821
v 16.131787 18.174727 0.762026
v 16.199999 18.467924 0.679821
v 16.199999 18.467924 0.679821
v 16.131787 18.543332 0.384802
v 17.239999 18.467924 0.679821
v 16.110682 18.610900 0.120454
v 17.239999 18.753876 -0.438913
v 16.131787 18.678468 -0.143894
v 16.199999 18.753876 -0.438913
v 16.199999 18.753876 -0.438913
v 16.131787 18.536086 -0.651727
v 17.239999 18.753876 -0.438913
v 16.110683 18.340938 -0.842417
v 17.239999 17.928000 -1.245920
v 16.131787 18.145790 -1.033106
v 16.199999 17.928000 -1.245920
v 16.199999 17.928000 -1.245920
v 16.131787 17.634802 -1.163716
v 17.239999 17.928000 -1.245920
v 16.110683 17.372086 -1.090058
v 17.239999 16.816172 -0.934195
v 16.131787 17.109370 -1.016399
v 16.199999 16.816172 -0.934195
v 16.110682 16.943159 0.588043
v 17.239999 17.356097 0.991547
v 16.131787 17.138307 0.778732
v 16.199999 17.356097 0.991547
v 16.199999 16.816172 -0.934195
v 16.131787 16.740764 -0.639176
v 17.239999 16.816172 -0.934195
v 16.110683 16.673196 -0.374828
v 17.239999 16.530221 0.184539
v 16.131787 16.605628 -0.110480
v 16.199999 16.530221 0.184539
v 16.131787 17.109370 -1.016399
v 15.533332 17.642048 -0.127187
v 16.199999 16.816172 -0.934195
v 16.110683 17.372086 -1.090058
v 15.533332 17.642048 -0.127187
v 16.131787 16.740764 -0.639176
v 16.199999 17.928000 -1.245920
v 15.533332 17.642048 -0.127187
v 16.131787 17.634802 -1.163716
v 16.131787 18.145790 -1.033106
v 15.533332 17.642048 -0.127187
v 15.533332 17.642048 -0.127187
v 16.110683 18.340938 -0.842417
v 16.199999 18.753876 -0.438913
v 15.533332 17.642048 -0.127187
v 16.131787 18.536086 -0.651727
v 16.131787 18.678468 -0.143894
v 15.533332 17.642048 -0.127187
v 15.533332 17.642048 -0.127187
v 16.110682 18.610900 0.120454
v 16.199999 18.467924 0.679821
v 15.533332 17.642048 -0.127187
v 16.131787 18.543332 0.384802
v 16.131787 18.174727 0.762026
v 15.533332 17.642048 -0.127187
v 15.533332 17.642048 -0.127187
v 16.110682 17.912011 0.835684
v 16.199999 17.356097 0.991547
v 15.533332 17.642048 -0.127187
v 16.131787 17.649295 0.909342
v 16.131787 17.138307 0.778732
v 15.533332 17.642048 -0.127187
v 15.533332 17.642048 -0.127187
v 16.110682 16.943159 0.588043
v 16.199999 16.530221 0.184539
v 15.533332 17.642048 -0.127187
v 16.131787 16.748011 0.397353
v 16.131787 16.605628 -0.110480
v 15.533332 17.642048 -0.127187
v 15.533332 17.642048 -0.127187
v 16.110682 16.943159 0.588043
v 16.110683 16.673196 -0.374828
v 15.533332 17.642048 -0.127187
f 1 2 3
f 1 3 4
f 1 5 2
f 2 5 6
f 2 107 108
f 2 108 3
f 2 6 107
f 3 49 4
f 3 108 111
f 3 111 49
f 4 49 48
f 5 7 6
f 6 7 8
f 6 119 107
f 6 8 119
f 7 9 8
f 8 9 10
f 8 122 119
f 8 10 122
f 9 11 10
f 10 11 12
f 10 103 122
f 10 12 103
f 11 13 12
f 12 13 14
f 12 101 103
f 12 14 101
f 13 468 14
f 15 16 17
f 15 18 16
f 16 18 19
f 16 125 99
f 16 99 17
f 16 19 125
f 17 99 100
f 18 20 19
f 19 20 21
f 19 132 125
f 19 21 132
f 20 22 21
f 21 22 23
f 21 135 132
f 21 23 135
f 22 24 23
f 23 24 25
f 23 138 135
f 23 25 138
f 24 26 25
f 25 26 27
f 25 141 138
f 25 27 141
f 26 28 27
f 27 28 29
f 27 144 141
f 27 29 144
f 28 30 29
f 29 30 31
f 29 147 144
f 29 31 147
f 30 32 31
f 31 32 33
f 31 150 147
f 31 33 150
f 32 34 33
f 33 34 35
f 33 153 150
f 33 35 153
f 34 36 35
f 35 36 37
f 35 156 153
f 35 37 156
f 36 38 37
f 37 38 39
f 37 159 156
f 37 39 159
f 38 40 39
f 39 40 41
f 39 162 159
f 39 41 162
f 40 42 41
f 41 42 43
f 41 165 162
f 41 43 165
f 42 44 43
f 43 44 45
f 43 168 165
f 43 45 168
f 44 46 45
f 45 46 47
f 45 171 168
f 45 47 171
f 46 48 47
f 47 48 49
f 47 118 171
f 47 49 118
f 49 111 118
f 50 51 52
f 50 52 53
f 50 54 51
f 51 54 55
f 51 55 173
f 51 116 52
f 51 173 116
f 52 98 53
f 52 115 98
f 52 116 115
f 53 98 97
f 54 56 55
f 55 56 57
f 55 57 170
f 55 170 173
f 56 58 57
f 57 58 59
f 57 59 167
f 57 167 170
f 58 60 59
f 59 60 61
f 59 61 164
f 59 164 167
f 60 62 61
f 61 62 63
f 61 63 161
f 61 161 164
f 62 64 63
f 63 64 65
f 63 65 158
f 63 158 161
f 64 66 65
f 65 66 67
f 65 67 155
f 65 155 158
f 66 68 67
f 67 68 69
f 67 69 152
f 67 152 155
f 68 70 69
f 69 70 71
f 69 71 149
f 69 149 152
f 70 72 71
f 71 72 73
f 71 73 146
f 71 146 149
f 72 74 73
f 73 74 75
f 73 75 143
f 73 143 146
f 74 76 75
f 75 76 77
f 75 77 140
f 75 140 143
f 76 78 77
f 77 78 79
f 77 79 137
f 77 137 140
f 78 80 79
f 79 80 81
f 79 81 134
f 79 134 137
f 80 82 81
f 81 82 83
f 81 83 128
f 81 128 134
f 82 84 83
f 83 84 85
f 83 85 129
f 83 129 128
f 84 86 85
f 85 86 87
f 85 131 129
f 85 87 131
f 86 469 87
f 88 89 90
f 88 91 89
f 89 91 92
f 89 92 124
f 89 106 90
f 89 124 106
f 90 106 104
f 91 93 92
f 92 93 94
f 92 94 121
f 92 121 124
f 93 95 94
f 94 95 96
f 94 96 112
f 94 112 121
f 95 97 96
f 96 97 98
f 96 98 113
f 96 113 112
f 98 115 113
f 99 126 127
f 99 127 100
f 99 125 126
f 100 127 130
f 101 102 103
f 102 104 105
f 102 105 103
f 103 105 122
f 104 106 105
f 105 123 122
f 105 106 123
f 106 124 123
f 107 120 109
f 107 109 108
f 107 119 120
f 108 109 110
f 108 110 111
f 109 121 112
f 109 112 110
f 109 120 121
f 110 112 113
f 110 113 114
f 110 114 111
f 111 114 118
f 113 115 114
f 114 115 117
f 114 117 118
f 115 116 117
f 116 173 172
f 116 172 117
f 117 172 171
f 117 171 118
f 119 123 120
f 119 122 123
f 120 124 121
f 120 123 124
f 125 133 126
f 125 132 133
f 126 134 128
f 126 128 127
f 126 133 134
f 127 128 129
f 127 129 130
f 129 131 130
f 132 136 133
f 132 135 136
f 133 137 134
f 133 136 137
f 135 139 136
f 135 138 139
f 136 140 137
f 136 139 140
f 138 142 139
f 138 141 142
f 139 143 140
f 139 142 143
f 141 145 142
f 141 144 145
f 142 146 143
f 142 145 146
f 144 148 145
f 144 147 148
f 145 149 146
f 145 148 149
f 147 151 148
f 147 150 151
f 148 152 149
f 148 151 152
f 150 154 151
f 150 153 154
f 151 155 152
f 151 154 155
f 153 157 154
f 153 156 157
f 154 158 155
f 154 157 158
f 156 160 157
f 156 159 160
f 157 161 158
f 157 160 161
f 159 163 160
f 159 162 163
f 160 164 161
f 160 163 164
f 162 166 163
f 162 165 166
f 163 167 164
f 163 166 167
f 165 169 166
f 165 168 169
f 166 170 167
f 166 169 170
f 168 172 169
f 168 171 172
f 169 173 170
f 169 172 173
f 174 175 176
f 174 176 177
f 174 178 175
f 175 178 179
f 176 222 177
f 177 222 221
f 178 180 179
f 179 180 181
f 180 182 181
f 181 182 183
f 182 184 183
f 183 184 185
f 184 186 185
f 185 186 187
f 186 188 187
f 187 188 189
f 188 190 189
f 189 190 191
f 190 192 191
f 191 192 193
f 192 194 193
f 193 194 195
f 194 196 195
f 195 196 197
f 196 198 197
f 197 198 199
f 198 470 199
f 200 201 202
f 200 203 201
f 201 203 204
f 203 205 204
f 204 205 206
f 205 207 206
f 206 207 208
f 207 209 208
f 208 209 210
f 209 211 210
f 210 211 212
f 211 213 212
f 212 213 214
f 213 215 214
f 214 215 216
f 215 217 216
f 216 217 218
f 217 219 218
f 218 219 220
f 219 221 220
f 220 221 222
f 223 224 225
f 223 521 520
f 223 225 521
f 224 471 225
f 225 471 472
f 226 227 228
f 226 228 229
f 226 230 227
f 227 230 316
f 227 317 228
f 227 320 317
f 227 316 320
f 228 258 229
f 228 317 319
f 228 319 258
f 229 258 256
f 230 231 316
f 231 232 233
f 231 330 316
f 231 233 330
f 232 234 235
f 232 235 233
f 233 235 334
f 233 334 335
f 233 335 330
f 234 236 237
f 234 237 235
f 235 237 340
f 235 340 334
f 236 238 239
f 236 239 237
f 237 239 343
f 237 343 340
f 238 346 239
f 239 346 347
f 239 347 343
f 240 241 242
f 240 367 366
f 240 371 367
f 240 242 371
f 241 243 244
f 241 244 242
f 242 244 375
f 242 375 376
f 242 376 371
f 243 245 246
f 243 246 244
f 244 246 381
f 244 381 375
f 245 247 248
f 245 248 246
f 246 248 384
f 246 384 381
f 247 387 248
f 247 392 391
f 247 391 387
f 248 387 388
f 248 388 384
f 249 250 251
f 249 406 405
f 249 410 406
f 249 251 410
f 250 252 253
f 250 253 251
f 251 253 414
f 251 414 415
f 251 415 410
f 252 254 255
f 252 255 253
f 253 255 420
f 253 420 414
f 254 256 257
f 254 257 255
f 255 257 423
f 255 423 420
f 256 258 259
f 256 259 257
f 257 259 426
f 257 426 423
f 258 319 329
f 258 329 259
f 259 329 426
f 260 261 262
f 260 262 263
f 260 264 261
f 261 264 326
f 261 324 262
f 261 327 324
f 261 326 327
f 262 315 263
f 262 324 321
f 262 321 315
f 263 315 314
f 264 431 326
f 265 266 267
f 265 268 266
f 265 267 430
f 266 268 269
f 266 269 419
f 266 419 422
f 266 422 267
f 267 422 425
f 267 425 429
f 267 429 430
f 268 270 269
f 269 270 271
f 269 417 419
f 269 271 417
f 270 272 271
f 271 272 273
f 271 273 413
f 271 413 417
f 272 274 273
f 273 274 275
f 273 409 413
f 273 275 409
f 274 276 275
f 275 276 277
f 275 404 409
f 275 277 404
f 276 278 277
f 277 278 279
f 277 398 404
f 277 279 398
f 278 280 279
f 279 280 281
f 279 399 398
f 279 281 399
f 280 282 281
f 281 282 283
f 281 283 390
f 281 390 399
f 282 284 283
f 283 284 285
f 283 386 390
f 283 285 386
f 284 286 285
f 285 286 287
f 285 383 386
f 285 287 383
f 286 288 287
f 287 288 289
f 287 289 380
f 287 380 383
f 288 290 289
f 289 290 291
f 289 291 379
f 289 379 380
f 290 292 291
f 291 292 293
f 291 374 379
f 291 293 374
f 292 294 293
f 293 294 295
f 293 370 374
f 293 295 370
f 294 296 295
f 295 296 297
f 295 365 370
f 295 297 365
f 296 298 297
f 297 298 299
f 297 359 365
f 297 299 359
f 298 300 299
f 299 300 301
f 299 360 359
f 299 301 360
f 300 596 301
f 301 596 597
f 301 597 598
f 301 598 360
f 302 303 304
f 302 305 307
f 302 307 303
f 303 345 349
f 303 307 345
f 305 306 307
f 305 308 306
f 306 308 309
f 306 309 339
f 306 339 342
f 306 342 307
f 307 342 345
f 308 310 309
f 309 310 311
f 309 311 338
f 309 338 339
f 310 312 311
f 311 312 313
f 311 333 338
f 311 313 333
f 312 314 313
f 313 314 315
f 313 315 325
f 313 325 333
f 315 321 325
f 316 331 320
f 316 330 331
f 317 318 319
f 317 323 318
f 317 320 323
f 318 321 322
f 318 325 321
f 318 322 319
f 318 323 325
f 319 322 329
f 320 332 323
f 320 331 332
f 321 324 322
f 322 324 328
f 322 328 329
f 323 333 325
f 323 332 333
f 324 327 328
f 326 428 327
f 326 431 429
f 326 429 428
f 327 427 328
f 327 428 427
f 328 426 329
f 328 427 426
f 330 335 331
f 331 335 337
f 331 337 332
f 332 337 338
f 332 338 333
f 334 336 335
f 334 340 341
f 334 341 336
f 335 336 337
f 336 341 342
f 336 339 337
f 336 342 339
f 337 339 338
f 340 343 344
f 340 344 341
f 341 344 345
f 341 345 342
f 343 347 348
f 343 348 344
f 344 348 349
f 344 349 345
f 350 351 352
f 350 352 353
f 350 354 355
f 350 356 354
f 350 353 356
f 350 355 351
f 352 361 353
f 353 361 362
f 353 363 356
f 353 362 363
f 354 356 357
f 354 357 358
f 354 600 355
f 354 358 600
f 356 364 357
f 356 363 364
f 357 359 358
f 357 364 365
f 357 365 359
f 358 359 360
f 358 599 600
f 358 360 599
f 360 598 599
f 361 366 362
f 362 366 367
f 362 368 363
f 362 367 368
f 363 369 364
f 363 368 369
f 364 369 370
f 364 370 365
f 367 372 368
f 367 371 372
f 368 373 369
f 368 372 373
f 369 374 370
f 369 373 374
f 371 376 372
f 372 376 378
f 372 378 373
f 373 378 379
f 373 379 374
f 375 377 376
f 375 381 382
f 375 382 377
f 376 377 378
f 377 382 383
f 377 380 378
f 377 383 380
f 378 380 379
f 381 384 385
f 381 385 382
f 382 385 386
f 382 386 383
f 384 388 389
f 384 389 385
f 385 389 390
f 385 390 386
f 387 395 388
f 387 391 395
f 388 397 389
f 388 395 397
f 389 399 390
f 389 397 399
f 391 392 393
f 391 393 394
f 391 394 395
f 392 400 393
f 393 400 401
f 393 401 402
f 393 402 394
f 394 396 395
f 394 402 403
f 394 403 396
f 395 396 397
f 396 398 397
f 396 403 404
f 396 404 398
f 397 398 399
f 400 405 401
f 401 405 406
f 401 406 407
f 401 407 402
f 402 407 408
f 402 408 403
f 403 408 409
f 403 409 404
f 406 410 411
f 406 411 407
f 407 411 412
f 407 412 408
f 408 412 413
f 408 413 409
f 410 415 411
f 411 418 412
f 411 415 418
f 412 417 413
f 412 418 417
f 414 416 415
f 414 420 421
f 414 421 416
f 415 416 418
f 416 421 422
f 416 419 418
f 416 422 419
f 417 418 419
f 420 423 424
f 420 424 421
f 421 424 425
f 421 425 422
f 423 426 427
f 423 427 424
f 424 427 428
f 424 428 425
f 425 428 429
f 429 431 430
f 432 433 434
f 432 434 435
f 432 436 437
f 432 438 436
f 432 439 433
f 432 435 438
f 433 439 443
f 436 459 437
f 437 455 454
f 437 459 460
f 437 461 455
f 437 460 461
f 439 440 441
f 439 441 442
f 439 444 440
f 439 442 443
f 440 444 448
f 444 445 446
f 444 446 447
f 444 449 445
f 444 447 448
f 445 449 453
f 449 450 451
f 449 451 452
f 449 454 450
f 449 452 453
f 450 454 458
f 454 455 456
f 454 456 457
f 454 457 458
f 462 463 464
f 463 663 464
f 464 663 664
f 465 466 467
f 466 688 467
f 467 688 689
f 471 473 472
f 472 473 474
f 473 475 474
f 474 475 476
f 475 477 476
f 476 477 478
f 477 479 478
f 478 479 480
f 478 480 481
f 480 482 481
f 481 482 483
f 482 484 483
f 483 484 485
f 484 486 485
f 485 486 487
f 486 488 487
f 487 488 489
f 487 489 490
f 489 491 490
f 490 491 492
f 491 493 492
f 492 493 494
f 493 495 494
f 494 495 496
f 495 497 496
f 496 497 498
f 496 498 499
f 498 500 499
f 499 500 501
f 500 502 501
f 501 502 503
f 502 504 503
f 503 504 505
f 504 506 505
f 505 506 507
f 505 507 508
f 507 509 508
f 508 509 510
f 509 511 510
f 510 511 512
f 511 513 512
f 512 513 514
f 513 515 514
f 514 515 516
f 514 516 517
f 516 518 517
f 517 518 519
f 518 520 519
f 519 520 521
f 522 523 524
f 522 525 523
f 522 571 525
f 523 526 524
f 525 571 570
f 527 528 529
f 528 530 529
f 529 530 531
f 530 532 531
f 531 532 533
f 532 534 533
f 533 534 535
f 534 536 535
f 535 536 537
f 536 538 537
f 537 538 539
f 538 540 539
f 539 540 541
f 540 542 541
f 541 542 543
f 542 544 543
f 543 544 545
f 544 546 545
f 545 546 547
f 546 548 547
f 547 548 549
f 548 550 549
f 549 550 551
f 550 552 551
f 551 552 553
f 552 554 553
f 553 554 555
f 554 556 555
f 555 556 557
f 556 558 557
f 557 558 559
f 558 560 559
f 559 560 561
f 560 562 561
f 561 562 563
f 562 564 563
f 563 564 565
f 564 566 565
f 565 566 567
f 566 568 567
f 567 568 569
f 568 570 569
f 569 570 571
f 572 573 574
f 573 575 574
f 573 576 575
f 575 576 577
f 576 578 577
f 577 578 579
f 578 580 579
f 579 580 581
f 580 582 581
f 581 582 583
f 582 584 583
f 583 584 585
f 584 586 585
f 585 586 587
f 586 588 587
f 587 588 589
f 588 590 589
f 589 590 591
f 590 592 591
f 591 592 593
f 592 594 593
f 593 594 595
f 601 602 603
f 601 604 602
f 601 662 604
f 602 605 603
f 603 605 606
f 604 662 661
f 605 607 606
f 606 607 608
f 607 609 608
f 608 609 610
f 609 611 610
f 610 611 612
f 611 613 612
f 612 613 614
f 613 615 614
f 614 615 616
f 615 617 616
f 616 617 618
f 617 619 618
f 618 619 620
f 619 621 620
f 620 621 622
f 621 623 622
f 622 623 624
f 623 625 624
f 624 625 626
f 625 627 626
f 626 627 628
f 627 629 628
f 628 629 630
f 629 631 630
f 630 631 632
f 631 633 632
f 632 633 634
f 633 635 634
f 636 637 638
f 637 639 638
f 638 639 640
f 639 641 640
f 640 641 642
f 641 643 642
f 642 643 644
f 643 645 644
f 644 645 646
f 645 647 646
f 646 647 648
f 647 649 648
f 648 649 650
f 649 651 650
f 650 651 652
f 651 653 652
f 652 653 654
f 653 655 654
f 654 655 656
f 655 657 656
f 656 657 658
f 657 659 658
f 658 659 660
f 659 661 660
f 660 661 662
f 663 665 664
f 664 665 666
f 667 668 669
f 668 670 669
f 669 670 671
f 670 672 671
f 671 672 673
f 674 675 676
f 675 677 676
f 676 677 678
f 677 679 678
f 678 679 680
f 681 682 683
f 682 684 683
f 683 684 685
f 684 686 685
f 685 686 687
f 688 690 689
f 689 690 691
f 692 693 694
f 693 695 694
f 694 695 696
f 695 697 696
f 696 697 698
f 699 700 701
f 699 702 700
f 701 703 704
f 702 707 710
f 704 741 740
f 705 706 707
f 705 708 709
f 708 711 709
f 711 714 717
f 712 713 714
f 712 715 716
f 715 718 716
f 718 721 724
f 719 720 721
f 719 722 723
f 722 725 723
f 725 728 731
f 726 727 728
f 726 729 730
f 729 732 730
f 733 734 735
f 733 736 737
f 735 738 739
f 736 740 737