# ANSI B 18.2.4.1 M - M3 x 0.5Style 1
# Autodesk dbId: 54
# Units: mm
o 054_ANSI_B_18.2.4.1_M_-_M3_x_0.5Style_1
v 0.633750 -0.735993 6.131347
v 0.790000 -0.347894 6.074502
v 0.790000 -0.542428 6.320490
v 0.633750 -0.561532 5.905387
v 0.790000 -0.783855 6.520656
v 0.633750 -0.957862 6.310983
v 0.633750 -0.735993 6.131347
v 0.790000 -1.061623 6.666252
v 0.633750 -1.215176 6.434610
v 0.790000 -1.363592 6.750916
v 0.633750 -1.494065 6.495564
v 0.790000 -1.676565 6.770947
v 0.633750 -1.779494 6.490559
v 0.790000 -1.986863 6.725469
v 0.633750 -2.056074 6.419864
v 0.790000 -2.280925 6.616471
v 0.633750 -2.308896 6.287291
v 0.790000 -2.545899 6.448715
v 0.633750 -2.524330 6.099987
v 0.790000 -2.770204 6.229534
v 0.633750 -2.690761 5.868049
v 0.790000 -2.944038 5.968507
v 0.633750 -2.799218 5.603982
v 0.790000 -3.059802 5.677042
v 0.790000 -3.112438 5.367878
v 0.633750 -2.843853 5.322020
v 0.790000 -3.099644 5.054526
v 0.633750 -2.822260 5.037366
v 0.790000 -3.021981 4.750681
v 0.633750 -2.735603 4.765363
v 0.790000 -2.882842 4.469623
v 0.633750 -2.588554 4.520678
v 0.790000 -2.688308 4.223636
v 0.633750 -2.389040 4.316499
v 0.790000 -2.446881 4.023470
v 0.633750 -2.147817 4.163836
v 0.790000 -2.169113 3.877873
v 0.633750 -1.877890 4.070917
v 0.790000 -1.867144 3.793209
v 0.633750 -1.593811 4.042752
v 0.790000 -1.554171 3.773179
v 0.633750 -1.310893 4.080859
v 0.790000 -1.243873 3.818656
v 0.790000 -0.949811 3.927655
v 0.633750 -1.044390 4.183185
v 0.790000 -0.684837 4.095410
v 0.633750 -0.808668 4.344213
v 0.790000 -0.460532 4.314591
v 0.633750 -0.616436 4.555261
v 0.790000 -0.286698 4.575618
v 0.633750 -0.478056 4.804952
v 0.790000 -0.170934 4.867083
v 0.633750 -0.400990 5.079825
v 0.790000 -0.118298 5.176248
v 0.633750 -0.389390 5.365061
v 0.790000 -0.131092 5.489600
v 0.633750 -0.443884 5.645285
v 0.790000 -0.208755 5.793444
v -1.453750 -2.494743 4.412778
v 0.633750 -2.588554 4.520678
v 0.633750 -2.389040 4.316499
v -1.453750 -2.272875 4.233143
v -1.453750 -2.669204 4.638738
v 0.633750 -2.735603 4.765363
v -1.453750 -2.786852 4.898841
v 0.633750 -2.822260 5.037366
v -1.453750 -2.841346 5.179064
v 0.633750 -2.843853 5.322020
v -1.453750 -2.829746 5.464301
v 0.633750 -2.799218 5.603982
v -1.453750 -2.752680 5.739174
v 0.633750 -2.690761 5.868049
v -1.453750 -2.614300 5.988865
v 0.633750 -2.524330 6.099987
v -1.453750 -2.422068 6.199913
v 0.633750 -2.308896 6.287291
v -1.453750 -2.186346 6.360940
v 0.633750 -2.056074 6.419864
v -1.453750 -1.919843 6.463266
v 0.633750 -1.779494 6.490559
v -1.453750 -1.636925 6.501374
v 0.633750 -1.494065 6.495564
v -1.453750 -1.352846 6.473209
v 0.633750 -1.215176 6.434610
v -1.453750 -1.082919 6.380290
v 0.633750 -0.957862 6.310983
v -1.453750 -0.642182 6.023448
v 0.633750 -0.561532 5.905387
v 0.633750 -0.735993 6.131347
v -1.453750 -0.841696 6.227626
v -1.453750 -0.495133 5.778762
v 0.633750 -0.443884 5.645285
v -1.453750 -0.408476 5.506760
v 0.633750 -0.389390 5.365061
v -1.453750 -0.386883 5.222105
v 0.633750 -0.400990 5.079825
v -1.453750 -0.431518 4.940144
v 0.633750 -0.478056 4.804952
v -1.453750 -0.539975 4.676076
v 0.633750 -0.616436 4.555261
v -1.453750 -0.706406 4.444139
v 0.633750 -0.808668 4.344213
v -1.453750 -0.921840 4.256834
v 0.633750 -1.044390 4.183185
v -1.453750 -1.174662 4.124261
v 0.633750 -1.310893 4.080859
v -1.453750 -1.451242 4.053567
v 0.633750 -1.593811 4.042752
v -1.453750 -1.736671 4.048561
v 0.633750 -1.877890 4.070917
v -1.453750 -2.015560 4.109515
v 0.633750 -2.147817 4.163836
v 0.790000 -1.339061 2.535979
v 0.790000 -0.934355 2.607720
v 0.790000 -1.243873 3.818656
v -1.610000 -2.882842 4.469623
v -1.453750 -2.669204 4.638738
v -1.453750 -2.494743 4.412778
v -1.610000 -3.021981 4.750681
v -1.453750 -2.786852 4.898841
v -1.610000 -3.099644 5.054526
v -1.453750 -2.841346 5.179064
v -1.610000 -3.112438 5.367878
v -1.453750 -2.829746 5.464301
v -1.610000 -3.059802 5.677042
v -1.453750 -2.752680 5.739174
v -1.610000 -2.944038 5.968508
v -1.453750 -2.614300 5.988865
v -1.610000 -2.770204 6.229534
v -1.453750 -2.422068 6.199913
v -1.610000 -2.545899 6.448715
v -1.453750 -2.186346 6.360940
v -1.610000 -2.280925 6.616471
v -1.453750 -1.919843 6.463266
v -1.610000 -1.986863 6.725469
v -1.610000 -1.676565 6.770947
v -1.453750 -1.636925 6.501374
v -1.610000 -1.363592 6.750916
v -1.453750 -1.352846 6.473209
v -1.610000 -1.061623 6.666252
v -1.453750 -1.082919 6.380290
v -1.610000 -0.783855 6.520656
v -1.453750 -0.841696 6.227626
v -1.610000 -0.542428 6.320490
v -1.453750 -0.642182 6.023448
v -1.610000 -0.347894 6.074502
v -1.453750 -0.495133 5.778762
v -1.610000 -0.208755 5.793445
v -1.453750 -0.408476 5.506760
v -1.610000 -0.131092 5.489600
v -1.453750 -0.386883 5.222105
v -1.610000 -0.118298 5.176248
v -1.453750 -0.431518 4.940144
v -1.610000 -0.170934 4.867083
v -1.610000 -0.286698 4.575618
v -1.453750 -0.539975 4.676076
v -1.610000 -0.460532 4.314591
v -1.453750 -0.706406 4.444139
v -1.610000 -0.684837 4.095410
v -1.453750 -0.921840 4.256834
v -1.610000 -0.949811 3.927655
v -1.453750 -1.174662 4.124261
v -1.610000 -1.243873 3.818656
v -1.453750 -1.451242 4.053567
v -1.610000 -1.554171 3.773179
v -1.453750 -1.736671 4.048561
v -1.610000 -1.867144 3.793209
v -1.453750 -2.015560 4.109515
v -1.610000 -2.169113 3.877873
v -1.453750 -2.272875 4.233143
v -1.610000 -2.446881 4.023470
v -1.610000 -0.544862 2.738979
v -1.610000 -0.934355 2.607720
v -1.610000 -1.243873 3.818656
v 0.591621 0.603904 3.000903
v 0.790000 0.448189 3.454308
v 0.790000 0.154219 3.167053
v 0.679978 0.192750 2.895811
v 0.679978 0.718469 3.409519
v 0.777775 -0.565585 2.701979
v 0.790000 -0.544862 2.738978
v 0.790000 -0.934355 2.607720
v 0.741329 -0.193350 2.797123
v 0.790000 -0.179281 2.926821
v 0.591621 1.461150 6.058429
v 0.790000 0.990632 6.150278
v 0.790000 1.092417 5.752065
v 0.679978 1.346585 5.649813
v 0.679978 1.164561 6.361952
v 0.777776 1.135281 4.896158
v 0.790000 1.113601 4.932606
v 0.790000 1.032527 4.529666
v 0.741329 1.239002 5.266096
v 0.790000 1.133714 5.343129
v 0.591621 -0.758122 8.329588
v 0.790000 -1.072925 7.968033
v 0.790000 -0.677170 7.857074
v 0.679978 -0.461533 8.026065
v 0.679978 -1.169276 8.224496
v 0.777776 0.085499 7.466243
v 0.790000 0.043094 7.465690
v 0.790000 0.351514 7.194008
v 0.741329 -0.183016 7.741036
v 0.790000 -0.302373 7.688370
v 0.591621 -3.834640 7.543222
v 0.790000 -3.678925 7.089818
v 0.790000 -3.384955 7.377072
v 0.679978 -3.423486 7.648314
v 0.679978 -3.949205 7.134607
v 0.777776 -2.665151 7.842147
v 0.790000 -2.685874 7.805147
v 0.790000 -2.296381 7.936405
v 0.741329 -3.037386 7.747002
v 0.790000 -3.051455 7.617304
v -1.411620 -2.472614 2.214537
v -1.610000 -2.553566 2.687052
v -1.610000 -2.157811 2.576093
v -1.499977 -2.061460 2.319629
v -1.499977 -2.769203 2.518061
v -1.597775 -1.303124 2.513462
v -1.610000 -1.339061 2.535979
v -1.610000 -0.934355 2.607720
v -1.561329 -1.675359 2.418317
v -1.610000 -1.749939 2.525358
v -1.411620 -4.691886 4.485697
v -1.610000 -4.323153 4.792061
v -1.610000 -4.221368 4.393848
v -1.499977 -4.395297 4.182173
v -1.499977 -4.577321 4.894312
v -1.597775 -3.848264 3.622352
v -1.610000 -3.846732 3.664732
v -1.610000 -3.582250 3.350117
v -1.561329 -4.116780 3.897145
v -1.610000 -4.061370 4.015252
v -1.411620 -3.834640 7.543222
v -1.610000 -3.384955 7.377072
v -1.610000 -3.678925 7.089818
v -1.499977 -3.949205 7.134607
v -1.499977 -3.423486 7.648314
v -1.597775 -4.160508 6.380952
v -1.610000 -4.123040 6.400816
v -1.610000 -4.263263 6.014460
v -1.561329 -4.056788 6.750890
v -1.610000 -3.926799 6.761958
v 0.790000 -0.542428 6.320490
v -1.453750 -0.841696 6.227626
v 0.633750 -0.735993 6.131347
v 0.790000 -0.544862 2.738978
v 0.790000 -0.949811 3.927655
v 0.790000 -0.179281 2.926821
v 0.790000 -0.684837 4.095410
v 0.790000 0.154219 3.167053
v 0.790000 0.448189 3.454308
v 0.790000 -0.460532 4.314591
v 0.790000 0.696063 3.782168
v 0.790000 -0.286698 4.575618
v 0.790000 0.892304 4.143310
v 0.790000 -0.170934 4.867083
v 0.790000 1.032527 4.529666
v 0.790000 1.113601 4.932606
v 0.790000 -0.118298 5.176248
v 0.790000 1.133714 5.343129
v 0.790000 -0.131092 5.489600
v 0.790000 1.092417 5.752065
v 0.790000 0.990632 6.150278
v 0.790000 -0.208755 5.793444
v 0.790000 0.830634 6.528873
v 0.790000 -0.347894 6.074502
v 0.790000 0.615996 6.879393
v 0.790000 -0.542428 6.320490
v 0.790000 0.351514 7.194008
v 0.790000 0.043094 7.465690
v 0.790000 -0.783855 6.520656
v 0.790000 -0.302373 7.688370
v 0.790000 -1.061623 6.666252
v 0.790000 -0.677170 7.857074
v 0.790000 -1.363592 6.750916
v 0.790000 -1.072925 7.968033
v 0.790000 -1.480797 8.018768
v 0.790000 -1.676565 6.770947
v 0.790000 -1.891675 8.008147
v 0.790000 -1.986863 6.725469
v 0.790000 -2.296381 7.936405
v 0.790000 -2.685874 7.805147
v 0.790000 -2.280925 6.616471
v 0.790000 -3.051455 7.617304
v 0.790000 -2.545899 6.448715
v 0.790000 -3.384955 7.377072
v 0.790000 -3.678925 7.089818
v 0.790000 -2.770204 6.229534
v 0.790000 -3.926799 6.761958
v 0.790000 -2.944038 5.968507
v 0.790000 -4.123040 6.400816
v 0.790000 -3.059802 5.677042
v 0.790000 -4.263263 6.014460
v 0.790000 -4.344337 5.611519
v 0.790000 -3.112438 5.367878
v 0.790000 -4.364450 5.200996
v 0.790000 -3.099644 5.054526
v 0.790000 -4.323153 4.792061
v 0.790000 -4.221368 4.393848
v 0.790000 -3.021981 4.750681
v 0.790000 -4.061370 4.015252
v 0.790000 -2.882842 4.469623
v 0.790000 -3.846732 3.664732
v 0.790000 -2.688308 4.223636
v 0.790000 -3.582250 3.350117
v 0.790000 -3.273830 3.078435
v 0.790000 -2.446881 4.023470
v 0.790000 -2.928363 2.855755
v 0.790000 -2.169113 3.877873
v 0.790000 -2.553566 2.687051
v 0.790000 -1.867144 3.793209
v 0.790000 -2.157811 2.576093
v 0.790000 -1.749939 2.525357
v 0.790000 -1.554171 3.773179
v -1.453750 -2.494743 4.412778
v -1.610000 -2.688308 4.223636
v -1.610000 -2.688308 4.223636
v -1.610000 -1.339061 2.535979
v -1.610000 -1.554171 3.773179
v -1.610000 -1.749939 2.525358
v -1.610000 -1.867144 3.793209
v -1.610000 -2.157811 2.576093
v -1.610000 -2.553566 2.687052
v -1.610000 -2.169113 3.877873
v -1.610000 -2.928363 2.855755
v -1.610000 -2.446881 4.023470
v -1.610000 -3.273830 3.078435
v -1.610000 -2.688308 4.223636
v -1.610000 -3.582250 3.350117
v -1.610000 -3.846732 3.664732
v -1.610000 -2.882842 4.469623
v -1.610000 -4.061370 4.015252
v -1.610000 -3.021981 4.750681
v -1.610000 -4.221368 4.393848
v -1.610000 -3.099644 5.054526
v -1.610000 -4.323153 4.792061
v -1.610000 -4.364450 5.200996
v -1.610000 -3.112438 5.367878
v -1.610000 -4.344337 5.611520
v -1.610000 -3.059802 5.677042
v -1.610000 -4.263263 6.014460
v -1.610000 -4.123040 6.400816
v -1.610000 -2.944038 5.968508
v -1.610000 -3.926799 6.761958
v -1.610000 -2.770204 6.229534
v -1.610000 -3.678925 7.089818
v -1.610000 -3.384955 7.377072
v -1.610000 -2.545899 6.448715
v -1.610000 -3.051455 7.617304
v -1.610000 -2.280925 6.616471
v -1.610000 -2.685874 7.805147
v -1.610000 -1.986863 6.725469
v -1.610000 -2.296381 7.936405
v -1.610000 -1.891675 8.008147
v -1.610000 -1.676565 6.770947
v -1.610000 -1.480797 8.018768
v -1.610000 -1.363592 6.750916
v -1.610000 -1.072925 7.968033
v -1.610000 -0.677170 7.857074
v -1.610000 -1.061623 6.666252
v -1.610000 -0.302373 7.688370
v -1.610000 -0.783855 6.520656
v -1.610000 0.043094 7.465691
v -1.610000 -0.542428 6.320490
v -1.610000 0.351514 7.194009
v -1.610000 0.615996 6.879394
v -1.610000 -0.347894 6.074502
v -1.610000 0.830634 6.528873
v -1.610000 -0.208755 5.793445
v -1.610000 0.990632 6.150278
v -1.610000 -0.131092 5.489600
v -1.610000 1.092417 5.752065
v -1.610000 1.133714 5.343129
v -1.610000 -0.118298 5.176248
v -1.610000 1.113601 4.932606
v -1.610000 -0.170934 4.867083
v -1.610000 1.032527 4.529666
v -1.610000 0.892304 4.143310
v -1.610000 -0.286698 4.575618
v -1.610000 0.696063 3.782168
v -1.610000 -0.460532 4.314591
v -1.610000 0.448189 3.454308
v -1.610000 0.154219 3.167053
v -1.610000 -0.684837 4.095410
v -1.610000 -0.179281 2.926822
v -1.610000 -0.949811 3.927655
v 0.790000 0.696063 3.782168
v 0.741329 0.826052 3.793236
v 0.790000 0.892304 4.143310
v 0.777776 0.929772 4.163173
v 0.790000 1.032527 4.529666
v 0.790000 -3.582250 3.350117
v 0.777775 -3.316235 3.077883
v 0.790000 -3.273830 3.078435
v 0.741329 -3.047720 2.803089
v 0.790000 -2.928363 2.855755
v 0.679978 -2.769203 2.518061
v 0.790000 -2.553566 2.687051
v 0.591621 -2.472614 2.214537
v 0.790000 -2.157811 2.576093
v 0.679978 -2.061460 2.319629
v 0.790000 -1.749939 2.525357
v 0.741329 -1.675359 2.418317
v 0.790000 -1.339061 2.535979
v 0.777775 -1.303124 2.513462
v 0.790000 -0.934355 2.607720
v 0.790000 0.830634 6.528873
v 0.741329 0.886044 6.646981
v 0.790000 0.615996 6.879393
v 0.777776 0.617528 6.921774
v 0.790000 0.351514 7.194008
v 0.790000 -4.263263 6.014460
v 0.777776 -4.366017 5.647967
v 0.790000 -4.344337 5.611519
v 0.741329 -4.469738 5.278029
v 0.790000 -4.364450 5.200996
v 0.679978 -4.577321 4.894312
v 0.790000 -4.323153 4.792061
v 0.591621 -4.691886 4.485697
v 0.790000 -4.221368 4.393848
v 0.679978 -4.395297 4.182173
v 0.790000 -4.061370 4.015252
v 0.741329 -4.116780 3.897145
v 0.790000 -3.846732 3.664732
v 0.777775 -3.848264 3.622351
v 0.790000 -3.582250 3.350117
v 0.790000 -1.480797 8.018768
v 0.741329 -1.555377 8.125808
v 0.790000 -1.891675 8.008147
v 0.777776 -1.927612 8.030664
v 0.790000 -2.296381 7.936405
v 0.790000 -3.926799 6.761958
v 0.741329 -4.056788 6.750890
v 0.790000 -4.123040 6.400816
v 0.777776 -4.160508 6.380952
v 0.790000 -4.263263 6.014460
v -1.610000 1.032527 4.529666
v -1.597775 0.929772 4.163173
v -1.610000 0.892304 4.143310
v -1.561329 0.826052 3.793236
v -1.610000 0.696063 3.782168
v -1.499977 0.718469 3.409519
v -1.610000 0.448189 3.454308
v -1.411620 0.603904 3.000903
v -1.610000 0.154219 3.167053
v -1.499977 0.192750 2.895811
v -1.610000 -0.179281 2.926822
v -1.561329 -0.193350 2.797123
v -1.610000 -0.544862 2.738979
v -1.597775 -0.565585 2.701979
v -1.610000 -0.934355 2.607720
v -1.610000 -2.928363 2.855755
v -1.561329 -3.047720 2.803090
v -1.610000 -3.273830 3.078435
v -1.597775 -3.316235 3.077883
v -1.610000 -3.582250 3.350117
v -1.610000 0.351514 7.194009
v -1.597775 0.617528 6.921774
v -1.610000 0.615996 6.879394
v -1.561329 0.886044 6.646981
v -1.610000 0.830634 6.528873
v -1.499977 1.164561 6.361952
v -1.610000 0.990632 6.150278
v -1.411620 1.461150 6.058429
v -1.610000 1.092417 5.752065
v -1.499977 1.346585 5.649813
v -1.610000 1.133714 5.343129
v -1.561329 1.239002 5.266096
v -1.610000 1.113601 4.932606
v -1.597775 1.135281 4.896159
v -1.610000 1.032527 4.529666
v -1.610000 -2.296381 7.936405
v -1.597775 -1.927612 8.030664
v -1.610000 -1.891675 8.008147
v -1.561328 -1.555377 8.125808
v -1.610000 -1.480797 8.018768
v -1.499977 -1.169276 8.224496
v -1.610000 -1.072925 7.968033
v -1.411620 -0.758122 8.329588
v -1.610000 -0.677170 7.857074
v -1.499977 -0.461533 8.026065
v -1.610000 -0.302373 7.688370
v -1.561328 -0.183016 7.741036
v -1.610000 0.043094 7.465691
v -1.597775 0.085499 7.466243
v -1.610000 0.351514 7.194009
v -1.610000 -4.364450 5.200996
v -1.561329 -4.469738 5.278030
v -1.610000 -4.344337 5.611520
v -1.597775 -4.366017 5.647967
v -1.610000 -4.263263 6.014460
v -1.610000 -3.051455 7.617304
v -1.561328 -3.037386 7.747003
v -1.610000 -2.685874 7.805147
v -1.597775 -2.665151 7.842147
v -1.610000 -2.296381 7.936405
v -1.411620 -3.834640 7.543222
v 0.591621 -3.834640 7.543222
v -1.499977 -3.423486 7.648314
v 0.679978 -3.423486 7.648314
v -1.561328 -3.037386 7.747003
v 0.741329 -3.037386 7.747002
v -1.597775 -2.665151 7.842147
v 0.777776 -2.665151 7.842147
v -1.610000 -2.296381 7.936405
v 0.790000 -2.296381 7.936405
v -1.597775 -1.927612 8.030664
v 0.777776 -1.927612 8.030664
v -1.561328 -1.555377 8.125808
v 0.741329 -1.555377 8.125808
v -1.499977 -1.169276 8.224496
v 0.679978 -1.169276 8.224496
v -1.411620 -0.758122 8.329588
v 0.591621 -0.758122 8.329588
v -1.411620 -0.758122 8.329588
v 0.591621 -0.758122 8.329588
v -1.499977 -0.461533 8.026065
v 0.679978 -0.461533 8.026065
v -1.561328 -0.183016 7.741036
v 0.741329 -0.183016 7.741036
v -1.597775 0.085499 7.466243
v 0.777776 0.085499 7.466243
v -1.610000 0.351514 7.194009
v 0.790000 0.351514 7.194008
v -1.597775 0.617528 6.921774
v 0.777776 0.617528 6.921774
v -1.561329 0.886044 6.646981
v 0.741329 0.886044 6.646981
v -1.499977 1.164561 6.361952
v 0.679978 1.164561 6.361952
v -1.411620 1.461150 6.058429
v 0.591621 1.461150 6.058429
v -1.411620 1.461150 6.058429
v 0.591621 1.461150 6.058429
v -1.499977 1.346585 5.649813
v 0.679978 1.346585 5.649813
v -1.561329 1.239002 5.266096
v 0.741329 1.239002 5.266096
v -1.597775 1.135281 4.896159
v 0.777776 1.135281 4.896158
v -1.610000 1.032527 4.529666
v 0.790000 1.032527 4.529666
v 0.777776 0.929772 4.163173
v -1.597775 0.929772 4.163173
v 0.741329 0.826052 3.793236
v -1.561329 0.826052 3.793236
v 0.679978 0.718469 3.409519
v -1.499977 0.718469 3.409519
v 0.591621 0.603904 3.000903
v -1.411620 0.603904 3.000903
v 0.777776 -4.366017 5.647967
v 0.790000 -4.263263 6.014460
v -1.610000 -4.263263 6.014460
v -1.597775 -4.366017 5.647967
v 0.741329 -4.469738 5.278029
v 0.777776 -4.160508 6.380952
v -1.597775 -4.160508 6.380952
v 0.741329 -4.056788 6.750890
v -1.561329 -4.056788 6.750890
v 0.679978 -3.949205 7.134607
v -1.499977 -3.949205 7.134607
v 0.591621 -3.834640 7.543222
v -1.411620 -3.834640 7.543222
v -1.561329 -4.469738 5.278030
v 0.679978 -4.577321 4.894312
v -1.499977 -4.577321 4.894312
v 0.591621 -4.691886 4.485697
v -1.411620 -4.691886 4.485697
v 0.777775 -3.848264 3.622351
v -1.597775 -3.848264 3.622352
v 0.790000 -3.582250 3.350117
v -1.561329 -4.116780 3.897145
v -1.610000 -3.582250 3.350117
v 0.777775 -3.316235 3.077883
v -1.597775 -3.316235 3.077883
v 0.741329 -3.047720 2.803089
v -1.561329 -3.047720 2.803090
v 0.679978 -2.769203 2.518061
v -1.499977 -2.769203 2.518061
v 0.591621 -2.472614 2.214537
v -1.411620 -2.472614 2.214537
v 0.741329 -4.116780 3.897145
v -1.499977 -4.395297 4.182173
v 0.679978 -4.395297 4.182173
v -1.411620 -4.691886 4.485697
v 0.591621 -4.691886 4.485697
v 0.777775 -1.303124 2.513462
v -1.597775 -1.303124 2.513462
v 0.790000 -0.934355 2.607720
v -1.561329 -1.675359 2.418317
v -1.610000 -0.934355 2.607720
v 0.777775 -0.565585 2.701979
v -1.597775 -0.565585 2.701979
v 0.741329 -0.193350 2.797123
v -1.561329 -0.193350 2.797123
v 0.679978 0.192750 2.895811
v -1.499977 0.192750 2.895811
v 0.591621 0.603904 3.000903
v -1.411620 0.603904 3.000903
v 0.741329 -1.675359 2.418317
v -1.499977 -2.061460 2.319629
v 0.679978 -2.061460 2.319629
v -1.411620 -2.472614 2.214537
v 0.591621 -2.472614 2.214537
f 1 2 3
f 1 4 2
f 2 4 58
f 4 57 58
f 5 6 7
f 5 8 6
f 5 7 245
f 6 8 9
f 8 10 9
f 9 10 11
f 10 12 11
f 11 12 13
f 12 14 13
f 13 14 15
f 14 16 15
f 15 16 17
f 16 18 17
f 17 18 19
f 18 20 19
f 19 20 21
f 20 22 21
f 21 22 23
f 22 24 23
f 23 25 26
f 23 24 25
f 25 27 26
f 26 27 28
f 27 29 28
f 28 29 30
f 29 31 30
f 30 31 32
f 31 33 32
f 32 33 34
f 33 35 34
f 34 35 36
f 35 37 36
f 36 37 38
f 37 39 38
f 38 39 40
f 39 41 40
f 40 41 42
f 41 43 42
f 42 44 45
f 42 43 44
f 44 46 45
f 45 46 47
f 46 48 47
f 47 48 49
f 48 50 49
f 49 50 51
f 50 52 51
f 51 52 53
f 52 54 53
f 53 54 55
f 54 56 55
f 55 56 57
f 56 58 57
f 59 60 61
f 59 61 62
f 59 63 60
f 60 63 64
f 61 112 62
f 62 112 111
f 63 65 64
f 64 65 66
f 65 67 66
f 66 67 68
f 67 69 68
f 68 69 70
f 69 71 70
f 70 71 72
f 71 73 72
f 72 73 74
f 73 75 74
f 74 75 76
f 75 77 76
f 76 77 78
f 77 79 78
f 78 79 80
f 79 81 80
f 80 81 82
f 81 83 82
f 82 83 84
f 83 85 84
f 84 85 86
f 85 246 86
f 86 246 247
f 87 88 89
f 87 89 90
f 87 91 88
f 88 91 92
f 91 93 92
f 92 93 94
f 93 95 94
f 94 95 96
f 95 97 96
f 96 97 98
f 97 99 98
f 98 99 100
f 99 101 100
f 100 101 102
f 101 103 102
f 102 103 104
f 103 105 104
f 104 105 106
f 105 107 106
f 106 107 108
f 107 109 108
f 108 109 110
f 109 111 110
f 110 111 112
f 113 114 115
f 113 316 315
f 113 115 316
f 114 248 115
f 115 248 249
f 116 117 118
f 116 119 117
f 116 118 319
f 117 119 120
f 119 121 120
f 120 121 122
f 121 123 122
f 122 123 124
f 123 125 124
f 124 125 126
f 125 127 126
f 126 127 128
f 127 129 128
f 128 129 130
f 129 131 130
f 130 131 132
f 131 133 132
f 132 133 134
f 133 135 134
f 134 136 137
f 134 135 136
f 136 138 137
f 137 138 139
f 138 140 139
f 139 140 141
f 140 142 141
f 141 142 143
f 142 144 143
f 143 144 145
f 144 146 145
f 145 146 147
f 146 148 147
f 147 148 149
f 148 150 149
f 149 150 151
f 150 152 151
f 151 152 153
f 152 154 153
f 153 155 156
f 153 154 155
f 155 157 156
f 156 157 158
f 157 159 158
f 158 159 160
f 159 161 160
f 160 161 162
f 161 163 162
f 162 163 164
f 163 165 164
f 164 165 166
f 165 167 166
f 166 167 168
f 167 169 168
f 168 169 170
f 169 171 170
f 170 171 317
f 171 318 317
f 172 173 174
f 172 388 387
f 172 174 388
f 173 320 174
f 174 320 321
f 175 176 177
f 175 177 178
f 175 179 176
f 176 179 389
f 177 184 178
f 178 184 183
f 179 390 389
f 180 181 182
f 180 183 181
f 181 183 184
f 185 186 187
f 185 187 188
f 185 189 186
f 186 189 409
f 187 194 188
f 188 194 193
f 189 410 409
f 190 191 192
f 190 193 191
f 191 193 194
f 195 196 197
f 195 197 198
f 195 199 196
f 196 199 429
f 197 204 198
f 198 204 203
f 199 430 429
f 200 201 202
f 200 203 201
f 201 203 204
f 205 206 207
f 205 207 208
f 205 209 206
f 206 209 434
f 207 214 208
f 208 214 213
f 209 435 434
f 210 211 212
f 210 213 211
f 211 213 214
f 215 216 217
f 215 217 218
f 215 219 216
f 216 219 454
f 217 224 218
f 218 224 223
f 219 455 454
f 220 221 222
f 220 223 221
f 221 223 224
f 225 226 227
f 225 227 228
f 225 229 226
f 226 229 489
f 227 234 228
f 228 234 233
f 229 490 489
f 230 231 232
f 230 233 231
f 231 233 234
f 235 236 237
f 235 237 238
f 235 239 236
f 236 239 494
f 237 244 238
f 238 244 243
f 239 495 494
f 240 241 242
f 240 243 241
f 241 243 244
f 248 250 249
f 249 250 251
f 250 252 251
f 251 252 253
f 251 253 254
f 253 255 254
f 254 255 256
f 255 257 256
f 256 257 258
f 257 259 258
f 258 259 260
f 258 260 261
f 260 262 261
f 261 262 263
f 262 264 263
f 263 264 265
f 263 265 266
f 265 267 266
f 266 267 268
f 267 269 268
f 268 269 270
f 269 271 270
f 270 271 272
f 270 272 273
f 272 274 273
f 273 274 275
f 274 276 275
f 275 276 277
f 276 278 277
f 277 278 279
f 277 279 280
f 279 281 280
f 280 281 282
f 281 283 282
f 282 283 284
f 282 284 285
f 284 286 285
f 285 286 287
f 286 288 287
f 287 288 289
f 287 289 290
f 289 291 290
f 290 291 292
f 291 293 292
f 292 293 294
f 293 295 294
f 294 295 296
f 294 296 297
f 296 298 297
f 297 298 299
f 298 300 299
f 299 300 301
f 299 301 302
f 301 303 302
f 302 303 304
f 303 305 304
f 304 305 306
f 305 307 306
f 306 307 308
f 306 308 309
f 308 310 309
f 309 310 311
f 310 312 311
f 311 312 313
f 312 314 313
f 313 314 315
f 313 315 316
f 320 322 321
f 321 322 323
f 322 324 323
f 323 324 325
f 323 325 326
f 325 327 326
f 326 327 328
f 327 329 328
f 328 329 330
f 329 331 330
f 330 331 332
f 330 332 333
f 332 334 333
f 333 334 335
f 334 336 335
f 335 336 337
f 336 338 337
f 337 338 339
f 337 339 340
f 339 341 340
f 340 341 342
f 341 343 342
f 342 343 344
f 342 344 345
f 344 346 345
f 345 346 347
f 346 348 347
f 347 348 349
f 347 349 350
f 349 351 350
f 350 351 352
f 351 353 352
f 352 353 354
f 353 355 354
f 354 355 356
f 354 356 357
f 356 358 357
f 357 358 359
f 358 360 359
f 359 360 361
f 359 361 362
f 361 363 362
f 362 363 364
f 363 365 364
f 364 365 366
f 365 367 366
f 366 367 368
f 366 368 369
f 368 370 369
f 369 370 371
f 370 372 371
f 371 372 373
f 372 374 373
f 373 374 375
f 373 375 376
f 375 377 376
f 376 377 378
f 377 379 378
f 378 379 380
f 378 380 381
f 380 382 381
f 381 382 383
f 382 384 383
f 383 384 385
f 383 385 386
f 385 387 386
f 386 387 388
f 389 390 391
f 390 392 391
f 391 392 393
f 394 395 396
f 395 397 396
f 396 397 398
f 397 399 398
f 398 399 400
f 399 401 400
f 400 401 402
f 401 403 402
f 402 403 404
f 403 405 404
f 404 405 406
f 405 407 406
f 406 407 408
f 409 410 411
f 410 412 411
f 411 412 413
f 414 415 416
f 415 417 416
f 416 417 418
f 417 419 418
f 418 419 420
f 419 421 420
f 420 421 422
f 421 423 422
f 422 423 424
f 423 425 424
f 424 425 426
f 425 427 426
f 426 427 428
f 429 430 431
f 430 432 431
f 431 432 433
f 434 435 436
f 435 437 436
f 436 437 438
f 439 440 441
f 440 442 441
f 441 442 443
f 442 444 443
f 443 444 445
f 444 446 445
f 445 446 447
f 446 448 447
f 447 448 449
f 448 450 449
f 449 450 451
f 450 452 451
f 451 452 453
f 454 455 456
f 455 457 456
f 456 457 458
f 459 460 461
f 460 462 461
f 461 462 463
f 462 464 463
f 463 464 465
f 464 466 465
f 465 466 467
f 466 468 467
f 467 468 469
f 468 470 469
f 469 470 471
f 470 472 471
f 471 472 473
f 474 475 476
f 475 477 476
f 476 477 478
f 477 479 478
f 478 479 480
f 479 481 480
f 480 481 482
f 481 483 482
f 482 483 484
f 483 485 484
f 484 485 486
f 485 487 486
f 486 487 488
f 489 490 491
f 490 492 491
f 491 492 493
f 494 495 496
f 495 497 496
f 496 497 498
f 499 500 501
f 500 502 501
f 501 502 503
f 502 504 503
f 503 504 505
f 504 506 505
f 505 506 507
f 506 508 507
f 507 508 509
f 508 510 509
f 509 510 511
f 510 512 511
f 511 512 513
f 512 514 513
f 513 514 515
f 514 516 515
f 517 518 519
f 518 520 519
f 519 520 521
f 520 522 521
f 521 522 523
f 522 524 523
f 523 524 525
f 524 526 525
f 525 526 527
f 526 528 527
f 527 528 529
f 528 530 529
f 529 530 531
f 530 532 531
f 531 532 533
f 532 534 533
f 535 536 537
f 536 538 537
f 537 538 539
f 538 540 539
f 539 540 541
f 540 542 541
f 541 542 543
f 542 544 543
f 543 544 545
f 543 545 546
f 545 547 546
f 546 547 548
f 547 549 548
f 548 549 550
f 549 551 550
f 550 551 552
f 553 554 555
f 553 556 557
f 553 555 556
f 554 558 555
f 555 558 559
f 556 566 557
f 557 566 567
f 558 560 559
f 559 560 561
f 560 562 561
f 561 562 563
f 562 564 563
f 563 564 565
f 566 568 567
f 567 568 569
f 568 570 569
f 571 572 573
f 571 574 572
f 571 584 574
f 572 575 573
f 573 575 576
f 574 584 585
f 575 577 576
f 576 577 578
f 577 579 578
f 578 579 580
f 579 581 580
f 580 581 582
f 581 583 582
f 584 586 585
f 585 586 587
f 586 588 587
f 589 590 591
f 589 592 590
f 589 602 592
f 590 593 591
f 591 593 594
f 592 602 603
f 593 595 594
f 594 595 596
f 595 597 596
f 596 597 598
f 597 599 598
f 598 599 600
f 599 601 600
f 602 604 603
f 603 604 605
f 604 606 605