# Part12
# Autodesk dbId: 65
# Units: mm
o 065_Part12
v 21.700003 -57.651494 15.820938
v 21.700001 -57.651494 40.820937
v 21.700003 -60.451494 15.820938
v 21.700001 -60.451494 40.820937
v 25.000002 -57.651494 15.820938
v 21.700003 -57.651494 15.820938
v 25.000003 -60.451494 15.820938
v 21.700003 -60.451494 15.820938
v 3.500000 -57.651495 28.320937
v 9.742593 -57.651494 28.644461
v 9.700000 -57.651494 28.320937
v 9.742593 -57.651494 27.997414
v 3.380741 -57.651495 29.226804
v -0.000000 -57.651495 31.820937
v -0.905867 -57.651495 31.701678
v -1.400000 -57.651495 43.720938
v -2.474874 -57.651495 30.795811
v -10.325001 -57.651495 29.403469
v -10.626477 -57.651495 29.528345
v -4.700000 -57.651495 43.720936
v -3.031089 -57.651495 30.070937
v -9.867469 -57.651495 28.945937
v -10.066118 -57.651495 29.204821
v -3.380740 -57.651495 29.226804
v -2.474874 -57.651495 25.846064
v -1.750000 -57.651495 25.289848
v -4.700000 -57.651495 14.920936
v 0.905867 -57.651495 24.940197
v 1.750000 -57.651495 25.289848
v -1.400000 -57.651495 14.920938
v 2.474874 -57.651495 25.846064
v 10.626477 -57.651494 27.113530
v -0.905867 -57.651495 24.940197
v -0.000000 -57.651495 24.820938
v 10.950001 -57.651494 27.070937
v 21.700003 -57.651494 15.820938
v -4.700000 -57.651495 5.820938
v -21.700001 -57.651495 15.820938
v -25.000002 -57.651495 5.820937
v -25.000001 -57.651495 15.820938
v -21.700003 -57.651495 40.820937
v -25.000001 -57.651495 50.820938
v -4.700000 -57.651495 50.820937
v -25.000003 -57.651495 40.820937
v -1.750000 -57.651495 31.352026
v -10.950001 -57.651495 29.570937
v -13.750002 -57.651495 29.570937
v 1.750000 -57.651495 31.352027
v 0.905867 -57.651495 31.701678
v 21.700001 -57.651494 40.820937
v 10.950001 -57.651494 29.570937
v 10.626477 -57.651494 29.528345
v -1.400000 -57.651495 50.820936
v 25.000002 -57.651494 50.820938
v -14.073525 -57.651495 29.528345
v -14.375000 -57.651495 29.403469
v -14.633885 -57.651495 29.204821
v -14.832533 -57.651495 28.945937
v -14.957408 -57.651495 28.644461
v -15.000001 -57.651495 28.320937
v -14.957408 -57.651495 27.997414
v -14.832533 -57.651495 27.695937
v -14.633885 -57.651495 27.437054
v -14.375001 -57.651495 27.238406
v -14.073523 -57.651495 27.113530
v -13.750001 -57.651495 27.070938
v -10.950001 -57.651495 27.070937
v -10.626477 -57.651495 27.113530
v -10.325001 -57.651495 27.238406
v -3.031089 -57.651495 26.570938
v -10.066118 -57.651495 27.437054
v -9.867469 -57.651495 27.695937
v -3.380741 -57.651495 27.415071
v -9.742593 -57.651495 27.997414
v -3.500000 -57.651495 28.320937
v -9.700000 -57.651495 28.320937
v -9.742593 -57.651495 28.644461
v 2.474874 -57.651495 30.795811
v 10.325001 -57.651494 29.403469
v 3.031089 -57.651495 30.070937
v 10.066118 -57.651494 29.204821
v 9.867469 -57.651494 28.945937
v 3.380740 -57.651495 27.415071
v 9.867469 -57.651494 27.695937
v 3.031089 -57.651495 26.570938
v 10.066118 -57.651494 27.437054
v 10.325001 -57.651494 27.238406
v 14.073525 -57.651494 27.113530
v 14.375000 -57.651494 27.238406
v 14.832533 -57.651494 27.695937
v 14.957408 -57.651494 27.997414
v 14.832533 -57.651494 28.945937
v 14.633885 -57.651494 29.204821
v 14.073523 -57.651494 29.528345
v 13.750001 -57.651494 29.570937
v -25.000002 -60.451495 40.820937
v -21.700003 -57.651495 40.820937
v -21.700003 -60.451495 40.820937
v 3.500000 -60.451495 28.320937
v 3.380741 -57.651495 29.226804
v 3.500000 -57.651495 28.320937
v 3.380741 -60.451495 29.226804
v 3.031089 -57.651495 30.070937
v 3.031089 -60.451495 30.070937
v 2.474874 -57.651495 30.795811
v 2.474874 -60.451495 30.795811
v 1.750000 -57.651495 31.352027
v 1.750000 -60.451495 31.352027
v 0.905867 -57.651495 31.701678
v 0.905867 -60.451495 31.701678
v -0.000000 -57.651495 31.820937
v 0.000000 -60.451495 31.820937
v -0.905867 -57.651495 31.701678
v -0.905867 -60.451495 31.701678
v -1.750000 -57.651495 31.352026
v -1.750000 -60.451495 31.352026
v -2.474874 -57.651495 30.795811
v -2.474874 -60.451495 30.795811
v -3.031089 -57.651495 30.070937
v -3.031089 -60.451495 30.070937
v -3.380740 -57.651495 29.226804
v -3.380740 -60.451495 29.226804
v -3.500000 -57.651495 28.320937
v -3.500000 -60.451495 28.320937
v -3.380741 -57.651495 27.415071
v -3.380741 -60.451495 27.415071
v -3.031089 -57.651495 26.570938
v -3.031089 -60.451495 26.570938
v -2.474874 -57.651495 25.846064
v -2.474874 -60.451495 25.846064
v -1.750000 -57.651495 25.289848
v -1.750000 -60.451495 25.289848
v -0.905867 -57.651495 24.940197
v -0.905867 -60.451495 24.940197
v -0.000000 -57.651495 24.820938
v 0.000000 -60.451495 24.820938
v 0.905867 -57.651495 24.940197
v 0.905867 -60.451495 24.940197
v 1.750000 -57.651495 25.289848
v 1.750000 -60.451495 25.289848
v 2.474874 -57.651495 25.846064
v 2.474874 -60.451495 25.846064
v 3.031089 -57.651495 26.570938
v 3.031089 -60.451495 26.570938
v 3.380740 -57.651495 27.415071
v 3.380740 -60.451495 27.415071
v 3.500000 -57.651495 28.320937
v -1.400000 -60.451495 43.720938
v -4.700000 -57.651495 43.720936
v -4.700000 -60.451495 43.720936
v -1.400000 -60.451495 50.820936
v -1.400000 -57.651495 43.720938
v -1.400000 -60.451495 43.720938
v -4.700000 -60.451495 14.920936
v -0.905867 -60.451495 24.940197
v -1.750000 -60.451495 25.289848
v -2.474874 -60.451495 25.846064
v -10.626477 -60.451495 27.113530
v -10.950001 -60.451495 27.070937
v -13.750001 -60.451495 27.070938
v -21.700001 -60.451495 15.820938
v -1.400000 -60.451495 14.920938
v 21.700003 -60.451494 15.820938
v 10.950001 -60.451494 27.070937
v 10.626477 -60.451494 27.113530
v 1.750000 -60.451495 25.289848
v 0.905867 -60.451495 24.940197
v 0.000000 -60.451495 24.820938
v -1.400000 -60.451495 5.820938
v 25.000001 -60.451494 5.820939
v -14.375001 -60.451495 27.238406
v -14.633885 -60.451495 27.437054
v -14.957408 -60.451495 27.997414
v -15.000001 -60.451495 28.320937
v -14.832533 -60.451495 28.945937
v -14.633885 -60.451495 29.204821
v -21.700003 -60.451495 40.820937
v -14.073525 -60.451495 29.528345
v -13.750002 -60.451495 29.570937
v -10.626477 -60.451495 29.528345
v -2.474874 -60.451495 30.795811
v -4.700000 -60.451495 43.720936
v -10.950001 -60.451495 29.570937
v -10.325001 -60.451495 29.403469
v -3.031089 -60.451495 30.070937
v -10.066118 -60.451495 29.204821
v -9.867469 -60.451495 28.945937
v -3.380740 -60.451495 29.226804
v -9.742593 -60.451495 28.644461
v -3.500000 -60.451495 28.320937
v -9.700000 -60.451495 28.320937
v -9.742593 -60.451495 27.997414
v -3.380741 -60.451495 27.415071
v -9.867469 -60.451495 27.695937
v 2.474874 -60.451495 25.846064
v 10.325001 -60.451494 27.238406
v 3.031089 -60.451495 26.570938
v 10.066118 -60.451494 27.437054
v 9.867469 -60.451494 27.695937
v 3.380740 -60.451495 27.415071
v 9.742593 -60.451494 27.997414
v 9.742593 -60.451494 28.644461
v 3.380741 -60.451495 29.226804
v 3.500000 -60.451495 28.320937
v 9.867469 -60.451494 28.945937
v 3.031089 -60.451495 30.070937
v 10.066118 -60.451494 29.204821
v 10.325001 -60.451494 29.403469
v 2.474874 -60.451495 30.795811
v 10.626477 -60.451494 29.528345
v 14.073523 -60.451494 29.528345
v 14.375001 -60.451494 29.403469
v 21.700001 -60.451494 40.820937
v 14.832533 -60.451494 28.945937
v 14.957408 -60.451494 28.644461
v 14.832533 -60.451494 27.695937
v 14.633885 -60.451494 27.437054
v 14.073525 -60.451494 27.113530
v 13.750002 -60.451494 27.070937
v 21.700001 -57.651494 40.820937
v 25.000001 -57.651494 40.820937
v 21.700001 -60.451494 40.820937
v 25.000001 -60.451494 40.820937
v 25.000001 -57.651494 40.820937
v 15.000001 -57.651494 28.320937
v 14.957408 -57.651494 28.644461
v 14.375001 -57.651494 29.403469
v 25.000001 -57.651494 5.820939
v -1.400000 -57.651495 5.820938
v 13.750002 -57.651494 27.070937
v 14.633885 -57.651494 27.437054
v 25.000002 -57.651494 15.820938
v 25.000003 -60.451494 15.820938
v 25.000001 -60.451494 5.820939
v 25.000002 -57.651494 15.820938
v 25.000001 -57.651494 5.820939
v -25.000003 -57.651495 40.820937
v -21.700003 -57.651495 40.820937
v -21.700001 -57.651495 15.820938
v -21.700003 -60.451495 40.820937
v -21.700001 -60.451495 15.820938
v -21.700001 -57.651495 15.820938
v -25.000001 -57.651495 15.820938
v -21.700001 -60.451495 15.820938
v -25.000001 -60.451495 15.820938
v -25.000002 -60.451495 40.820937
v -25.000001 -60.451495 50.820938
v -25.000003 -57.651495 40.820937
v -25.000001 -57.651495 50.820938
v 3.500000 -60.451495 28.320937
v -1.400000 -57.651495 43.720938
v -4.700000 -57.651495 43.720936
v -4.700000 -57.651495 50.820937
v -4.700000 -60.451495 43.720936
v -4.700000 -60.451495 50.820937
v -1.400000 -57.651495 50.820936
v 25.000001 -60.451494 40.820937
v 25.000002 -60.451494 50.820938
v -1.400000 -60.451495 50.820936
v -1.400000 -60.451495 43.720938
v 15.000001 -60.451494 28.320937
v 10.950001 -60.451494 29.570937
v 13.750001 -60.451494 29.570937
v 14.633885 -60.451494 29.204821
v -0.905867 -60.451495 31.701678
v 0.000000 -60.451495 31.820937
v 0.905867 -60.451495 31.701678
v 1.750000 -60.451495 31.352027
v -1.750000 -60.451495 31.352026
v -4.700000 -60.451495 50.820937
v -25.000001 -60.451495 50.820938
v -25.000002 -60.451495 40.820937
v -14.957408 -60.451495 28.644461
v -14.375000 -60.451495 29.403469
v -25.000002 -60.451495 5.820937
v -4.700000 -60.451495 5.820938
v -14.073523 -60.451495 27.113530
v -14.832533 -60.451495 27.695937
v -25.000001 -60.451495 15.820938
v -10.325001 -60.451495 27.238406
v 25.000003 -60.451494 15.820938
v 14.957408 -60.451494 27.997414
v 14.375000 -60.451494 27.238406
v 9.700000 -60.451494 28.320937
v -3.031089 -60.451495 26.570938
v -10.066118 -60.451495 27.437054
v -4.700000 -57.651495 50.820937
v -25.000001 -57.651495 50.820938
v -4.700000 -60.451495 50.820937
v -25.000001 -60.451495 50.820938
v -4.700000 -57.651495 5.820938
v -4.700000 -57.651495 14.920936
v -4.700000 -60.451495 5.820938
v -4.700000 -60.451495 14.920936
v -4.700000 -57.651495 14.920936
v -1.400000 -57.651495 14.920938
v -4.700000 -60.451495 14.920936
v -1.400000 -60.451495 14.920938
v -1.400000 -57.651495 14.920938
v -1.400000 -57.651495 5.820938
v -1.400000 -60.451495 14.920938
v -1.400000 -60.451495 5.820938
v -1.400000 -57.651495 5.820938
v 25.000001 -57.651494 5.820939
v -1.400000 -60.451495 5.820938
v 25.000001 -60.451494 5.820939
v -13.750001 -60.451495 27.070938
v -13.750001 -57.651495 27.070938
v -14.073523 -60.451495 27.113530
v -14.073523 -57.651495 27.113530
v -14.375001 -60.451495 27.238406
v -14.375001 -57.651495 27.238406
v -14.633885 -60.451495 27.437054
v -14.633885 -57.651495 27.437054
v -14.832533 -60.451495 27.695937
v -14.832533 -57.651495 27.695937
v -14.957408 -60.451495 27.997414
v -14.957408 -57.651495 27.997414
v -15.000001 -60.451495 28.320937
v -15.000001 -57.651495 28.320937
v -14.957408 -60.451495 28.644461
v -14.957408 -57.651495 28.644461
v -14.832533 -60.451495 28.945937
v -14.832533 -57.651495 28.945937
v -14.633885 -60.451495 29.204821
v -14.633885 -57.651495 29.204821
v -14.375000 -60.451495 29.403469
v -14.375000 -57.651495 29.403469
v -14.073525 -60.451495 29.528345
v -14.073525 -57.651495 29.528345
v -13.750002 -60.451495 29.570937
v -13.750002 -57.651495 29.570937
v -13.750002 -57.651495 29.570937
v -10.950001 -57.651495 29.570937
v -13.750002 -60.451495 29.570937
v -10.950001 -60.451495 29.570937
v -10.950001 -60.451495 29.570937
v -10.626477 -60.451495 29.528345
v -10.626477 -57.651495 29.528345
v -10.325001 -60.451495 29.403469
v -10.325001 -57.651495 29.403469
v -10.066118 -60.451495 29.204821
v -10.066118 -57.651495 29.204821
v -9.867469 -60.451495 28.945937
v -9.867469 -57.651495 28.945937
v -9.742593 -60.451495 28.644461
v -9.742593 -57.651495 28.644461
v -9.700000 -60.451495 28.320937
v -9.700000 -57.651495 28.320937
v -9.742593 -60.451495 27.997414
v -9.742593 -57.651495 27.997414
v -9.867469 -60.451495 27.695937
v -9.867469 -57.651495 27.695937
v -10.066118 -60.451495 27.437054
v -10.066118 -57.651495 27.437054
v -10.325001 -60.451495 27.238406
v -10.325001 -57.651495 27.238406
v -10.626477 -60.451495 27.113530
v -10.626477 -57.651495 27.113530
v -10.950001 -60.451495 27.070937
v -10.950001 -57.651495 27.070937
v -10.950001 -57.651495 27.070937
v -10.950001 -60.451495 27.070937
v -13.750001 -60.451495 27.070938
v 10.950001 -60.451494 27.070937
v 10.950001 -57.651494 27.070937
v 10.626477 -60.451494 27.113530
v 10.626477 -57.651494 27.113530
v 10.325001 -60.451494 27.238406
v 10.325001 -57.651494 27.238406
v 10.066118 -60.451494 27.437054
v 10.066118 -57.651494 27.437054
v 9.867469 -60.451494 27.695937
v 9.867469 -57.651494 27.695937
v 9.742593 -60.451494 27.997414
v 9.742593 -57.651494 27.997414
v 9.700000 -60.451494 28.320937
v 9.700000 -57.651494 28.320937
v 9.742593 -60.451494 28.644461
v 9.742593 -57.651494 28.644461
v 9.867469 -60.451494 28.945937
v 9.867469 -57.651494 28.945937
v 10.066118 -60.451494 29.204821
v 10.066118 -57.651494 29.204821
v 10.325001 -60.451494 29.403469
v 10.325001 -57.651494 29.403469
v 10.626477 -60.451494 29.528345
v 10.626477 -57.651494 29.528345
v 10.950001 -60.451494 29.570937
v 10.950001 -57.651494 29.570937
v 10.950001 -57.651494 29.570937
v 13.750001 -57.651494 29.570937
v 10.950001 -60.451494 29.570937
v 13.750001 -60.451494 29.570937
v 13.750001 -60.451494 29.570937
v 14.073523 -60.451494 29.528345
v 14.073523 -57.651494 29.528345
v 14.375001 -60.451494 29.403469
v 14.375001 -57.651494 29.403469
v 14.633885 -60.451494 29.204821
v 14.633885 -57.651494 29.204821
v 14.832533 -60.451494 28.945937
v 14.832533 -57.651494 28.945937
v 14.957408 -60.451494 28.644461
v 14.957408 -57.651494 28.644461
v 15.000001 -60.451494 28.320937
v 15.000001 -57.651494 28.320937
v 14.957408 -60.451494 27.997414
v 14.957408 -57.651494 27.997414
v 14.832533 -60.451494 27.695937
v 14.832533 -57.651494 27.695937
v 14.633885 -60.451494 27.437054
v 14.633885 -57.651494 27.437054
v 14.375000 -60.451494 27.238406
v 14.375000 -57.651494 27.238406
v 14.073525 -60.451494 27.113530
v 14.073525 -57.651494 27.113530
v 13.750002 -60.451494 27.070937
v 13.750002 -57.651494 27.070937
v 13.750002 -57.651494 27.070937
v 13.750002 -60.451494 27.070937
v 10.950001 -60.451494 27.070937
v 25.000001 -57.651494 40.820937
v 25.000002 -57.651494 50.820938
v 25.000001 -60.451494 40.820937
v 25.000002 -60.451494 50.820938
v -4.700000 -60.451495 5.820938
v -25.000002 -60.451495 5.820937
v -4.700000 -57.651495 5.820938
v -25.000002 -57.651495 5.820937
v -25.000001 -57.651495 15.820938
v -25.000002 -57.651495 5.820937
v -25.000001 -60.451495 15.820938
v -25.000002 -60.451495 5.820937
v -1.400000 -60.451495 50.820936
v 25.000002 -60.451494 50.820938
v -1.400000 -57.651495 50.820936
v 25.000002 -57.651494 50.820938
f 1 2 3
f 2 4 3
f 5 6 7
f 6 8 7
f 9 10 11
f 9 11 12
f 9 13 10
f 9 12 83
f 10 13 82
f 12 84 83
f 13 80 82
f 14 15 16
f 14 16 49
f 15 45 20
f 15 20 16
f 16 48 49
f 16 50 51
f 16 51 52
f 16 53 50
f 16 52 48
f 17 18 19
f 17 19 20
f 17 21 18
f 17 20 45
f 18 21 23
f 19 46 20
f 20 41 43
f 20 46 47
f 20 47 41
f 21 22 23
f 21 24 22
f 22 24 77
f 24 75 77
f 25 26 27
f 25 27 68
f 25 69 70
f 25 68 69
f 26 33 27
f 27 33 30
f 27 37 38
f 27 38 66
f 27 66 67
f 27 67 68
f 28 29 30
f 28 30 34
f 29 31 32
f 29 32 30
f 30 33 34
f 30 32 35
f 30 35 36
f 30 36 229
f 31 85 87
f 31 87 32
f 35 230 36
f 36 88 89
f 36 90 91
f 36 225 50
f 36 228 229
f 36 230 88
f 36 89 231
f 36 231 90
f 36 91 225
f 36 232 228
f 37 39 38
f 38 39 40
f 38 41 60
f 38 60 61
f 38 61 62
f 38 62 63
f 38 63 64
f 38 64 65
f 38 65 66
f 41 42 43
f 41 44 42
f 41 47 55
f 41 55 56
f 41 56 57
f 41 57 58
f 41 58 59
f 41 59 60
f 48 52 78
f 50 53 54
f 50 92 93
f 50 94 95
f 50 54 224
f 50 225 226
f 50 226 92
f 50 93 227
f 50 227 94
f 50 95 51
f 52 79 78
f 69 71 70
f 70 72 73
f 70 71 72
f 72 74 73
f 73 74 75
f 74 76 75
f 75 76 77
f 78 79 80
f 79 81 80
f 80 81 82
f 83 84 85
f 84 86 85
f 85 86 87
f 96 97 98
f 96 237 97
f 99 100 101
f 99 102 100
f 100 102 103
f 102 104 103
f 103 104 105
f 104 106 105
f 105 106 107
f 106 108 107
f 107 108 109
f 108 110 109
f 109 110 111
f 110 112 111
f 111 112 113
f 112 114 113
f 113 114 115
f 114 116 115
f 115 116 117
f 116 118 117
f 117 118 119
f 118 120 119
f 119 120 121
f 120 122 121
f 121 122 123
f 122 124 123
f 123 124 125
f 124 126 125
f 125 126 127
f 126 128 127
f 127 128 129
f 128 130 129
f 129 130 131
f 130 132 131
f 131 132 133
f 132 134 133
f 133 134 135
f 134 136 135
f 135 136 137
f 136 138 137
f 137 138 139
f 138 140 139
f 139 140 141
f 140 142 141
f 141 142 143
f 142 144 143
f 143 144 145
f 144 146 145
f 145 146 147
f 146 250 147
f 148 149 150
f 148 251 149
f 151 152 153
f 151 256 152
f 154 155 156
f 154 156 157
f 154 158 159
f 154 159 160
f 154 160 161
f 154 162 155
f 154 161 276
f 154 157 158
f 155 162 168
f 157 280 158
f 157 285 280
f 160 277 161
f 161 171 172
f 161 173 174
f 161 174 177
f 161 275 276
f 161 277 171
f 161 172 278
f 161 278 173
f 161 279 275
f 162 163 164
f 162 164 165
f 162 166 167
f 162 167 168
f 162 169 163
f 162 165 166
f 163 169 170
f 163 216 217
f 163 218 219
f 163 213 261
f 163 170 281
f 163 261 282
f 163 282 216
f 163 217 283
f 163 283 218
f 163 219 164
f 165 195 166
f 165 196 195
f 174 273 177
f 175 176 177
f 175 177 273
f 176 274 177
f 177 178 179
f 177 179 182
f 177 182 270
f 177 270 271
f 177 271 272
f 177 274 178
f 179 183 182
f 180 181 182
f 180 182 183
f 180 184 181
f 181 184 185
f 181 269 182
f 182 265 260
f 182 269 265
f 184 186 185
f 185 187 188
f 185 186 187
f 187 189 188
f 188 189 190
f 189 191 190
f 190 192 193
f 190 191 192
f 192 194 193
f 193 194 285
f 194 286 285
f 195 196 197
f 196 198 197
f 197 199 200
f 197 198 199
f 199 201 200
f 200 201 204
f 201 284 204
f 202 203 204
f 202 205 203
f 202 204 284
f 203 205 206
f 205 207 206
f 206 208 209
f 206 207 208
f 208 210 209
f 209 210 268
f 210 260 268
f 210 262 260
f 211 212 213
f 211 213 263
f 212 264 213
f 213 214 215
f 213 257 258
f 213 258 259
f 213 259 260
f 213 262 263
f 213 264 214
f 213 215 261
f 213 260 262
f 220 221 222
f 221 223 222
f 233 234 235
f 234 236 235
f 238 239 240
f 239 241 240
f 242 243 244
f 243 245 244
f 246 247 248
f 247 249 248
f 252 253 254
f 253 255 254
f 260 265 266
f 260 266 267
f 260 267 268
f 280 285 286
f 287 288 289
f 288 290 289
f 291 292 293
f 292 294 293
f 295 296 297
f 296 298 297
f 299 300 301
f 300 302 301
f 303 304 305
f 304 306 305
f 307 308 309
f 308 310 309
f 308 363 362
f 308 364 363
f 309 310 311
f 310 312 311
f 311 312 313
f 312 314 313
f 313 314 315
f 314 316 315
f 315 316 317
f 316 318 317
f 317 318 319
f 318 320 319
f 319 320 321
f 320 322 321
f 321 322 323
f 322 324 323
f 323 324 325
f 324 326 325
f 325 326 327
f 326 328 327
f 327 328 329
f 328 330 329
f 329 330 331
f 330 332 331
f 333 334 335
f 334 336 335
f 334 338 337
f 334 339 338
f 338 339 340
f 339 341 340
f 340 341 342
f 341 343 342
f 342 343 344
f 343 345 344
f 344 345 346
f 345 347 346
f 346 347 348
f 347 349 348
f 348 349 350
f 349 351 350
f 350 351 352
f 351 353 352
f 352 353 354
f 353 355 354
f 354 355 356
f 355 357 356
f 356 357 358
f 357 359 358
f 358 359 360
f 359 361 360
f 365 366 367
f 366 368 367
f 366 421 420
f 366 422 421
f 367 368 369
f 368 370 369
f 369 370 371
f 370 372 371
f 371 372 373
f 372 374 373
f 373 374 375
f 374 376 375
f 375 376 377
f 376 378 377
f 377 378 379
f 378 380 379
f 379 380 381
f 380 382 381
f 381 382 383
f 382 384 383
f 383 384 385
f 384 386 385
f 385 386 387
f 386 388 387
f 387 388 389
f 388 390 389
f 391 392 393
f 392 394 393
f 392 396 395
f 392 397 396
f 396 397 398
f 397 399 398
f 398 399 400
f 399 401 400
f 400 401 402
f 401 403 402
f 402 403 404
f 403 405 404
f 404 405 406
f 405 407 406
f 406 407 408
f 407 409 408
f 408 409 410
f 409 411 410
f 410 411 412
f 411 413 412
f 412 413 414
f 413 415 414
f 414 415 416
f 415 417 416
f 416 417 418
f 417 419 418
f 423 424 425
f 424 426 425
f 427 428 429
f 428 430 429
f 431 432 433
f 432 434 433
f 435 436 437
f 436 438 437