# Part13
# Autodesk dbId: 70
# Units: mm
o 070_Part13
v -4.600000 -45.801492 1.120938
v -4.600000 -56.101492 3.920938
v -4.600000 -56.101492 1.120938
v -4.600000 -45.801492 3.920938
v -17.999999 -52.701492 3.920938
v -22.000000 -52.701492 1.120938
v -22.000000 -52.701492 3.920938
v -17.999999 -52.701492 1.120938
v -17.999999 -49.201492 1.120938
v -22.000000 -49.201492 3.920938
v -22.000000 -49.201492 1.120938
v -17.999999 -49.201492 3.920938
v -15.500000 -49.201492 3.920938
v -12.000000 -49.201492 1.120938
v -12.000000 -49.201492 3.920938
v -15.500000 -49.201492 1.120938
v -12.000000 -52.701492 1.120938
v -12.000000 -49.201492 3.920938
v -12.000000 -49.201492 1.120938
v -12.000000 -52.701492 3.920938
v -15.500000 -52.701492 1.120938
v -12.000000 -52.701492 3.920938
v -12.000000 -52.701492 1.120938
v -15.500000 -52.701492 3.920938
v -25.000000 -41.451492 1.120938
v -15.500000 -48.151492 1.120938
v -22.000000 -47.451492 1.120938
v -25.000000 -47.451492 1.120938
v 25.000000 -41.451492 1.120938
v 25.000000 -47.451492 1.120938
v 22.000000 -47.451492 1.120938
v 18.000000 -48.151492 1.120938
v 22.000000 -49.201492 1.120938
v 18.000000 -49.201492 1.120938
v 15.500000 -48.151492 1.120938
v 12.000001 -49.201492 1.120938
v -1.600000 -45.801492 1.120938
v 15.500000 -49.201492 1.120938
v 15.500000 -53.751492 1.120938
v 12.000001 -52.701492 1.120938
v 15.500000 -52.701492 1.120938
v 22.000000 -54.451492 1.120938
v 25.000000 -60.451492 1.120938
v -1.600000 -56.101492 1.120938
v 18.000000 -53.751492 1.120938
v 22.000000 -52.701492 1.120938
v 18.000000 -52.701492 1.120938
v 25.000000 -54.451492 1.120938
v -25.000000 -60.451492 1.120938
v -22.000000 -54.451492 1.120938
v -15.500000 -53.751492 1.120938
v -25.000000 -54.451492 1.120938
v -17.999999 -53.751492 1.120938
v -22.000000 -52.701492 1.120938
v -17.999999 -52.701492 1.120938
v 18.000000 -49.201492 3.920938
v 22.000000 -49.201492 1.120938
v 22.000000 -49.201492 3.920938
v 18.000000 -52.701492 3.920938
v 22.000000 -52.701492 3.920938
v 18.000000 -52.701492 1.120938
v 15.500000 -52.701492 3.920938
v 12.000001 -52.701492 1.120938
v 12.000001 -52.701492 3.920938
v 12.000001 -49.201492 3.920938
v 12.000001 -52.701492 3.920938
v 12.000001 -49.201492 1.120938
v 15.500000 -49.201492 3.920938
v 12.000001 -49.201492 3.920938
v 15.500000 -49.201492 1.120938
v -25.000000 -54.451492 3.920938
v -22.000000 -54.451492 3.920938
v -25.000000 -54.451492 1.120938
v 25.000000 -47.451492 3.920938
v 22.000000 -47.451492 3.920938
v 25.000000 -47.451492 1.120938
v -15.500000 -53.751492 3.920938
v -12.000000 -52.701492 3.920938
v -15.500000 -52.701492 3.920938
v -22.000000 -54.451492 3.920938
v -25.000000 -60.451492 3.920938
v -4.600000 -56.101492 3.920938
v -17.999999 -53.751492 3.920938
v -22.000000 -52.701492 3.920938
v 25.000000 -60.451492 3.920938
v 25.000000 -54.451492 3.920938
v 22.000000 -54.451492 3.920938
v 15.500000 -48.151492 3.920938
v 18.000000 -48.151492 3.920938
v 22.000000 -47.451492 3.920938
v 25.000000 -41.451492 3.920938
v 25.000000 -47.451492 3.920938
v -25.000000 -41.451492 3.920938
v -1.600000 -45.801492 3.920938
v -4.600000 -56.101492 3.920938
v -1.600000 -56.101492 3.920938
v -4.600000 -56.101492 1.120938
v -1.600000 -56.101492 1.120938
v -1.600000 -56.101492 3.920938
v -1.600000 -45.801492 3.920938
v -1.600000 -56.101492 1.120938
v -1.600000 -45.801492 1.120938
v -1.600000 -45.801492 3.920938
v -4.600000 -45.801492 3.920938
v -1.600000 -45.801492 1.120938
v -4.600000 -45.801492 1.120938
v -15.500000 -49.201492 3.920938
v -15.500000 -48.151492 3.920938
v -15.500000 -49.201492 1.120938
v -15.500000 -48.151492 1.120938
v -22.000000 -49.201492 3.920938
v -22.000000 -47.451492 3.920938
v -22.000000 -49.201492 1.120938
v -22.000000 -47.451492 1.120938
v -22.000000 -52.701492 1.120938
v -22.000000 -54.451492 1.120938
v -22.000000 -52.701492 3.920938
v -22.000000 -54.451492 3.920938
v -17.999999 -49.201492 1.120938
v -17.999999 -48.151492 1.120938
v -17.999999 -49.201492 3.920938
v -17.999999 -48.151492 3.920938
v -4.600000 -56.101492 1.120938
v -12.000000 -49.201492 1.120938
v -4.600000 -45.801492 1.120938
v -12.000000 -52.701492 1.120938
v -15.500000 -49.201492 1.120938
v -17.999999 -48.151492 1.120938
v -22.000000 -49.201492 1.120938
v -15.500000 -52.701492 1.120938
v -17.999999 -49.201492 1.120938
v 18.000000 -49.201492 1.120938
v 22.000000 -52.701492 1.120938
v 15.500000 -52.701492 1.120938
v 12.000001 -52.701492 1.120938
v 12.000001 -49.201492 1.120938
v 15.500000 -52.701492 3.920938
v 15.500000 -53.751492 3.920938
v 15.500000 -52.701492 1.120938
v 15.500000 -53.751492 1.120938
v 22.000000 -52.701492 3.920938
v 22.000000 -54.451492 3.920938
v 22.000000 -52.701492 1.120938
v 22.000000 -54.451492 1.120938
v 22.000000 -49.201492 1.120938
v 22.000000 -47.451492 1.120938
v 22.000000 -49.201492 3.920938
v 22.000000 -47.451492 3.920938
v 18.000000 -52.701492 1.120938
v 18.000000 -53.751492 1.120938
v 18.000000 -52.701492 3.920938
v 18.000000 -53.751492 3.920938
v -22.000000 -47.451492 3.920938
v -25.000000 -47.451492 3.920938
v -22.000000 -47.451492 1.120938
v -25.000000 -47.451492 1.120938
v -22.000000 -54.451492 1.120938
v -25.000000 -47.451492 3.920938
v -25.000000 -41.451492 3.920938
v -25.000000 -47.451492 1.120938
v -25.000000 -41.451492 1.120938
v 22.000000 -54.451492 3.920938
v 25.000000 -54.451492 3.920938
v 22.000000 -54.451492 1.120938
v 25.000000 -54.451492 1.120938
v 22.000000 -47.451492 1.120938
v -4.600000 -45.801492 3.920938
v -12.000000 -49.201492 3.920938
v -15.500000 -48.151492 3.920938
v -15.500000 -49.201492 3.920938
v -1.600000 -56.101492 3.920938
v 12.000001 -49.201492 3.920938
v -22.000000 -47.451492 3.920938
v -17.999999 -48.151492 3.920938
v 15.500000 -53.751492 3.920938
v 15.500000 -49.201492 3.920938
v 22.000000 -49.201492 3.920938
v 18.000000 -53.751492 3.920938
v 12.000001 -52.701492 3.920938
v 22.000000 -52.701492 3.920938
v 18.000000 -52.701492 3.920938
v -25.000000 -54.451492 3.920938
v -17.999999 -52.701492 3.920938
v 15.500000 -52.701492 3.920938
v 18.000000 -49.201492 3.920938
v -25.000000 -47.451492 3.920938
v -22.000000 -49.201492 3.920938
v -17.999999 -49.201492 3.920938
v 25.000000 -47.451492 1.120938
v 25.000000 -41.451492 1.120938
v 25.000000 -47.451492 3.920938
v 25.000000 -41.451492 3.920938
v -17.999999 -52.701492 3.920938
v -17.999999 -53.751492 3.920938
v -17.999999 -52.701492 1.120938
v -17.999999 -53.751492 1.120938
v -17.999999 -53.751492 3.920938
v -15.500000 -53.751492 3.920938
v -17.999999 -53.751492 1.120938
v -15.500000 -53.751492 1.120938
v -15.500000 -52.701492 1.120938
v -15.500000 -53.751492 1.120938
v -15.500000 -52.701492 3.920938
v -15.500000 -53.751492 3.920938
v -15.500000 -48.151492 3.920938
v -17.999999 -48.151492 3.920938
v -15.500000 -48.151492 1.120938
v -17.999999 -48.151492 1.120938
v 15.500000 -49.201492 1.120938
v 15.500000 -48.151492 1.120938
v 15.500000 -49.201492 3.920938
v 15.500000 -48.151492 3.920938
v 15.500000 -53.751492 3.920938
v 18.000000 -53.751492 3.920938
v 15.500000 -53.751492 1.120938
v 18.000000 -53.751492 1.120938
v 18.000000 -49.201492 3.920938
v 18.000000 -48.151492 3.920938
v 18.000000 -49.201492 1.120938
v 18.000000 -48.151492 1.120938
v 18.000000 -48.151492 3.920938
v 15.500000 -48.151492 3.920938
v 18.000000 -48.151492 1.120938
v 15.500000 -48.151492 1.120938
v -25.000000 -54.451492 1.120938
v -25.000000 -60.451492 1.120938
v -25.000000 -54.451492 3.920938
v -25.000000 -60.451492 3.920938
v -25.000000 -60.451492 1.120938
v 25.000000 -60.451492 1.120938
v -25.000000 -60.451492 3.920938
v 25.000000 -60.451492 3.920938
v 25.000000 -54.451492 3.920938
v 25.000000 -60.451492 3.920938
v 25.000000 -54.451492 1.120938
v 25.000000 -60.451492 1.120938
v 25.000000 -41.451492 1.120938
v -25.000000 -41.451492 1.120938
v 25.000000 -41.451492 3.920938
v -25.000000 -41.451492 3.920938
f 1 2 3
f 1 4 2
f 5 6 7
f 5 8 6
f 9 10 11
f 9 12 10
f 13 14 15
f 13 16 14
f 17 18 19
f 17 20 18
f 21 22 23
f 21 24 22
f 25 26 27
f 25 27 28
f 25 125 26
f 25 37 125
f 25 29 37
f 26 124 127
f 26 125 124
f 26 128 27
f 27 128 129
f 29 30 31
f 29 31 35
f 29 35 37
f 31 33 32
f 31 32 35
f 32 33 34
f 35 36 37
f 35 38 36
f 36 40 44
f 36 44 37
f 39 40 41
f 39 42 43
f 39 43 44
f 39 45 42
f 39 44 40
f 42 45 46
f 42 48 43
f 43 49 44
f 44 49 123
f 45 47 46
f 49 50 51
f 49 52 50
f 49 51 123
f 50 54 53
f 50 53 51
f 51 126 123
f 51 130 126
f 53 54 55
f 56 57 58
f 56 132 57
f 59 60 61
f 60 133 61
f 62 63 64
f 62 134 63
f 65 66 67
f 66 135 67
f 68 69 70
f 69 136 70
f 71 72 73
f 72 157 73
f 74 75 76
f 75 166 76
f 77 78 79
f 77 80 81
f 77 81 82
f 77 83 80
f 77 82 78
f 78 82 168
f 80 83 84
f 80 182 81
f 81 171 82
f 81 85 171
f 82 167 168
f 83 183 84
f 85 86 87
f 85 175 171
f 85 87 175
f 87 178 175
f 87 180 178
f 88 89 90
f 88 90 91
f 88 94 172
f 88 91 94
f 88 172 176
f 89 177 90
f 89 185 177
f 90 92 91
f 91 93 94
f 93 169 167
f 93 167 94
f 93 173 169
f 93 186 173
f 94 171 172
f 95 96 97
f 96 98 97
f 99 100 101
f 100 102 101
f 103 104 105
f 104 106 105
f 107 108 109
f 108 110 109
f 111 112 113
f 112 114 113
f 115 116 117
f 116 118 117
f 119 120 121
f 120 122 121
f 123 124 125
f 123 126 124
f 128 131 129
f 137 138 139
f 138 140 139
f 141 142 143
f 142 144 143
f 145 146 147
f 146 148 147
f 149 150 151
f 150 152 151
f 153 154 155
f 154 156 155
f 158 159 160
f 159 161 160
f 162 163 164
f 163 165 164
f 167 169 168
f 168 169 170
f 169 173 174
f 171 175 179
f 171 179 172
f 173 187 174
f 174 187 188
f 175 184 179
f 178 180 181
f 189 190 191
f 190 192 191
f 193 194 195
f 194 196 195
f 197 198 199
f 198 200 199
f 201 202 203
f 202 204 203
f 205 206 207
f 206 208 207
f 209 210 211
f 210 212 211
f 213 214 215
f 214 216 215
f 217 218 219
f 218 220 219
f 221 222 223
f 222 224 223
f 225 226 227
f 226 228 227
f 229 230 231
f 230 232 231
f 233 234 235
f 234 236 235
f 237 238 239
f 238 240 239