# Part1
# Autodesk dbId: 72
# Units: mm
o 072_Part1
v -30.160000 -27.751493 6.820940
v -27.360000 -24.251494 6.820940
v -30.159999 -24.251494 6.820940
v -27.360000 -27.751494 6.820940
v -27.360000 -33.251493 6.820940
v -30.160000 -36.751493 6.820939
v -27.360000 -36.751493 6.820940
v -30.160000 -33.251493 6.820940
v -27.359999 -17.876493 11.520940
v -27.360000 -19.251494 18.520939
v -27.360000 -19.311123 18.068006
v -27.360000 -19.485950 17.645939
v -27.360000 -17.876493 25.520939
v -27.360000 -21.001494 20.270939
v -27.360000 -20.548561 20.211309
v -27.360000 -20.126494 20.036484
v -27.360000 -19.764057 19.758376
v -27.360000 -19.485950 19.395939
v -27.360000 -19.311123 18.973873
v -27.360000 -18.048683 27.598946
v -27.360000 -24.251494 30.220938
v -27.360000 -21.454428 20.211309
v -27.360000 -18.560551 29.620270
v -27.360000 -19.398138 31.529775
v -27.360000 -21.950814 34.809453
v -27.360000 -23.596273 36.090166
v -27.360001 -27.402239 37.759617
v -27.360001 -29.458929 38.102818
v -27.360001 -35.572898 37.082577
v -27.360001 -37.406714 36.090165
v -27.360001 -36.751493 30.220938
v -27.360001 -40.464392 33.275374
v -27.360001 -41.604849 31.529774
v -27.360001 -42.954304 27.598945
v -27.360001 -40.001493 20.270939
v -27.360001 -39.548559 20.211309
v -27.360001 -43.126493 25.520938
v -27.360001 -41.751493 18.520939
v -27.360001 -41.691864 18.973872
v -27.360001 -41.517037 19.395939
v -27.360001 -41.238930 19.758375
v -27.360001 -40.876493 20.036483
v -27.360001 -40.454426 20.211309
v -27.360001 -43.126493 11.520939
v -27.360001 -40.001493 16.770939
v -27.360001 -40.454426 16.830569
v -27.360001 -40.876493 17.005394
v -27.360001 -41.238930 17.283502
v -27.360001 -41.517037 17.645939
v -27.360001 -41.691864 18.068005
v -27.360001 -42.954304 9.442932
v -27.360000 -36.751493 6.820940
v -27.360001 -39.548559 16.830569
v -27.360001 -42.442436 7.421608
v -27.360001 -41.604849 5.512103
v -27.360000 -39.052173 2.232425
v -27.360000 -37.406714 0.951712
v -27.360000 -31.544058 -1.060940
v -27.360000 -29.458929 -1.060940
v -27.360000 -33.251493 4.820940
v -27.359999 -21.950814 2.232426
v -27.359999 -20.538595 3.766504
v -27.360000 -24.251494 6.820940
v -27.359999 -18.560551 7.421608
v -27.359999 -18.048683 9.442933
v -27.360001 -38.251493 18.520939
v -27.360001 -38.311123 18.973872
v -27.360001 -38.311123 18.068005
v -27.360001 -38.485949 17.645939
v -27.360001 -39.126493 17.005394
v -27.360001 -38.485949 19.395939
v -27.360001 -38.764056 19.758376
v -27.360000 -19.764057 17.283502
v -27.360000 -20.126494 17.005395
v -27.360000 -20.548561 16.830569
v -27.360000 -21.001494 16.770939
v -27.360000 -21.454428 16.830569
v -27.360000 -21.876494 17.005395
v -27.360000 -22.238931 17.283502
v -27.360000 -22.691864 18.068006
v -27.360000 -22.751494 18.520939
v -27.360000 -22.517038 19.395939
v -27.360000 -22.238931 19.758376
v -27.360000 -27.751494 4.820940
v -27.359999 -27.402239 -0.717739
v -27.359999 -25.430089 -0.040699
v -27.360000 -35.572898 -0.040699
v -27.360000 -33.600748 -0.717739
v -30.160000 -19.251494 18.520939
v -27.360000 -19.311123 18.068006
v -27.360000 -19.251494 18.520939
v -30.160000 -19.311123 18.068006
v -27.360000 -19.485950 17.645939
v -30.160000 -19.485950 17.645939
v -27.360000 -19.764057 17.283502
v -30.160000 -19.764057 17.283502
v -27.360000 -20.126494 17.005395
v -30.160000 -20.126493 17.005395
v -27.360000 -20.548561 16.830569
v -30.160000 -20.548561 16.830569
v -27.360000 -21.001494 16.770939
v -30.160000 -21.001494 16.770939
v -27.360000 -21.454428 16.830569
v -30.160000 -21.454427 16.830569
v -27.360000 -21.876494 17.005395
v -30.160000 -21.876494 17.005395
v -27.360000 -22.238931 17.283502
v -30.160000 -22.238930 17.283502
v -27.360000 -22.517038 17.645939
v -30.160000 -22.517038 17.645939
v -27.360000 -22.691864 18.068006
v -30.160000 -22.691864 18.068006
v -27.360000 -22.751494 18.520939
v -30.160000 -22.751494 18.520939
v -27.360000 -22.691864 18.973873
v -30.160000 -22.691864 18.973872
v -27.360000 -22.517038 19.395939
v -30.160000 -22.517038 19.395939
v -27.360000 -22.238931 19.758376
v -30.160000 -22.238930 19.758376
v -27.360000 -21.876494 20.036484
v -30.160000 -21.876494 20.036483
v -27.360000 -21.454428 20.211309
v -30.160000 -21.454427 20.211309
v -27.360000 -21.001494 20.270939
v -30.160000 -21.001494 20.270939
v -27.360000 -20.548561 20.211309
v -30.160000 -20.548561 20.211309
v -27.360000 -20.126494 20.036484
v -30.160000 -20.126493 20.036484
v -27.360000 -19.764057 19.758376
v -30.160000 -19.764057 19.758376
v -27.360000 -19.485950 19.395939
v -30.160000 -19.485950 19.395939
v -27.360000 -19.311123 18.973873
v -30.160000 -19.311123 18.973872
v -27.360000 -19.251494 18.520939
v -30.160001 -38.251493 18.520939
v -27.360001 -38.311123 18.068005
v -27.360001 -38.251493 18.520939
v -30.160001 -38.311123 18.068005
v -27.360001 -38.485949 17.645939
v -30.160001 -38.485949 17.645939
v -27.360001 -38.764056 17.283502
v -30.160001 -38.764056 17.283502
v -27.360001 -39.126493 17.005394
v -30.160001 -39.126493 17.005394
v -27.360001 -39.548559 16.830569
v -30.160001 -39.548559 16.830568
v -27.360001 -40.001493 16.770939
v -30.160001 -40.001493 16.770939
v -27.360001 -40.454426 16.830569
v -30.160001 -40.454426 16.830568
v -27.360001 -40.876493 17.005394
v -30.160001 -40.876493 17.005394
v -27.360001 -41.238930 17.283502
v -30.160001 -41.238930 17.283502
v -27.360001 -41.517037 17.645939
v -30.160001 -41.517037 17.645939
v -27.360001 -41.691864 18.068005
v -30.160001 -41.691864 18.068005
v -27.360001 -41.751493 18.520939
v -30.160001 -41.751493 18.520939
v -27.360001 -41.691864 18.973872
v -30.160001 -41.691864 18.973872
v -27.360001 -41.517037 19.395939
v -30.160001 -41.517037 19.395938
v -27.360001 -41.238930 19.758375
v -30.160001 -41.238930 19.758375
v -27.360001 -40.876493 20.036483
v -30.160001 -40.876493 20.036483
v -27.360001 -40.454426 20.211309
v -30.160001 -40.454426 20.211309
v -27.360001 -40.001493 20.270939
v -30.160001 -40.001493 20.270938
v -27.360001 -39.548559 20.211309
v -30.160001 -39.548559 20.211309
v -27.360001 -39.126493 20.036483
v -30.160001 -39.126493 20.036483
v -27.360001 -38.764056 19.758376
v -30.160001 -38.764056 19.758375
v -27.360001 -38.485949 19.395939
v -30.160001 -38.485949 19.395939
v -27.360001 -38.311123 18.973872
v -30.160001 -38.311123 18.973872
v -27.360001 -38.251493 18.520939
v -30.160000 -17.876493 25.520939
v -27.360000 -18.048683 27.598946
v -27.360000 -17.876493 25.520939
v -30.160000 -18.048683 27.598945
v -27.360000 -18.560551 29.620270
v -30.160000 -18.560551 29.620270
v -27.360000 -19.398138 31.529775
v -30.160000 -19.398138 31.529775
v -27.360000 -20.538595 33.275374
v -30.160000 -20.538595 33.275374
v -27.360000 -21.950814 34.809453
v -30.160000 -21.950814 34.809452
v -27.360000 -23.596273 36.090166
v -30.160000 -23.596273 36.090166
v -27.360001 -25.430089 37.082577
v -30.160000 -25.430089 37.082577
v -27.360001 -27.402239 37.759617
v -30.160001 -27.402239 37.759617
v -27.360001 -29.458929 38.102818
v -30.160001 -29.458929 38.102817
v -27.360001 -31.544058 38.102818
v -30.160001 -31.544058 38.102817
v -27.360001 -33.600748 37.759617
v -30.160001 -33.600748 37.759617
v -27.360001 -35.572898 37.082577
v -30.160001 -35.572898 37.082577
v -27.360001 -37.406714 36.090165
v -30.160001 -37.406714 36.090165
v -27.360001 -39.052173 34.809452
v -30.160001 -39.052173 34.809452
v -27.360001 -40.464392 33.275374
v -30.160001 -40.464392 33.275374
v -27.360001 -41.604849 31.529774
v -30.160001 -41.604849 31.529774
v -27.360001 -42.442436 29.620270
v -30.160001 -42.442436 29.620269
v -27.360001 -42.954304 27.598945
v -30.160001 -42.954304 27.598945
v -27.360001 -43.126493 25.520938
v -30.160001 -43.126493 25.520938
v -30.160001 -43.126493 11.520939
v -27.360001 -43.126493 25.520938
v -30.160001 -43.126493 25.520938
v -30.160001 -42.954304 9.442932
v -27.360001 -42.442436 7.421608
v -27.360001 -42.954304 9.442932
v -30.160001 -43.126493 11.520939
v -30.160001 -42.442436 7.421608
v -27.360001 -41.604849 5.512103
v -30.160000 -41.604849 5.512103
v -27.360000 -40.464392 3.766503
v -30.160000 -40.464392 3.766503
v -27.360000 -39.052173 2.232425
v -30.160000 -39.052173 2.232425
v -27.360000 -37.406714 0.951712
v -30.160000 -37.406714 0.951712
v -27.360000 -35.572898 -0.040699
v -30.160000 -35.572898 -0.040700
v -27.360000 -33.600748 -0.717739
v -30.160000 -33.600748 -0.717739
v -27.360000 -31.544058 -1.060940
v -30.160000 -31.544058 -1.060940
v -27.360000 -29.458929 -1.060940
v -30.160000 -29.458929 -1.060940
v -27.359999 -27.402239 -0.717739
v -30.159999 -27.402239 -0.717739
v -27.359999 -25.430089 -0.040699
v -30.159999 -25.430089 -0.040699
v -27.359999 -23.596273 0.951713
v -30.159999 -23.596273 0.951712
v -27.359999 -21.950814 2.232426
v -30.159999 -21.950814 2.232426
v -27.359999 -20.538595 3.766504
v -30.159999 -20.538595 3.766504
v -27.359999 -19.398138 5.512104
v -30.159999 -19.398138 5.512104
v -27.359999 -18.560551 7.421608
v -30.159999 -18.560551 7.421608
v -27.359999 -18.048683 9.442933
v -30.159999 -18.048683 9.442933
v -27.359999 -17.876493 11.520940
v -30.159999 -17.876493 11.520940
v -27.360000 -24.251494 6.820940
v -27.360000 -24.251494 30.220938
v -30.159999 -24.251494 6.820940
v -30.160000 -24.251494 30.220938
v -27.360000 -24.251494 30.220938
v -27.360001 -36.751493 30.220938
v -30.160000 -24.251494 30.220938
v -30.160001 -36.751493 30.220938
v -27.360001 -36.751493 30.220938
v -27.360000 -36.751493 6.820940
v -30.160001 -36.751493 30.220938
v -30.160000 -36.751493 6.820939
v -27.360000 -20.538595 33.275374
v -27.360001 -25.430089 37.082577
v -27.360001 -31.544058 38.102818
v -27.360000 -22.691864 18.973873
v -27.360000 -21.876494 20.036484
v -27.360001 -33.600748 37.759617
v -27.360001 -39.052173 34.809452
v -27.360001 -42.442436 29.620270
v -27.360001 -39.126493 20.036483
v -27.360000 -40.464392 3.766503
v -27.360001 -38.764056 17.283502
v -27.359999 -23.596273 0.951713
v -27.359999 -19.398138 5.512104
v -27.360000 -22.517038 17.645939
v -27.360000 -27.751494 6.820940
v -27.360000 -33.251493 6.820940
v -27.360000 -33.251493 6.820940
v -27.360000 -33.251493 4.820940
v -30.160000 -33.251493 6.820940
v -30.160000 -33.251493 4.820940
v -27.360000 -33.251493 4.820940
v -27.360000 -27.751494 4.820940
v -30.160000 -33.251493 4.820940
v -30.160000 -27.751493 4.820940
v -27.360000 -27.751494 4.820940
v -27.360000 -27.751494 6.820940
v -30.160000 -27.751493 4.820940
v -30.160000 -27.751493 6.820940
v -30.160000 -19.251494 18.520939
v -30.160001 -38.251493 18.520939
v -27.360001 -43.126493 11.520939
v -27.360001 -43.126493 11.520939
v -27.360000 -17.876493 25.520939
v -27.359999 -17.876493 11.520940
v -30.160000 -17.876493 25.520939
v -30.159999 -17.876493 11.520940
v -30.160000 -33.251493 6.820940
v -30.160000 -33.251493 4.820940
v -30.160000 -36.751493 6.820939
v -30.160000 -31.544058 -1.060940
v -30.160000 -33.600748 -0.717739
v -30.160000 -35.572898 -0.040700
v -30.160000 -37.406714 0.951712
v -30.160001 -38.251493 18.520939
v -30.160001 -36.751493 30.220938
v -30.160001 -39.548559 16.830568
v -30.160001 -39.126493 17.005394
v -30.160001 -38.764056 17.283502
v -30.160001 -38.485949 17.645939
v -30.160001 -38.311123 18.068005
v -30.160000 -39.052173 2.232425
v -30.160000 -40.464392 3.766503
v -30.160000 -41.604849 5.512103
v -30.160001 -42.442436 7.421608
v -30.160001 -42.954304 9.442932
v -30.160000 -27.751493 4.820940
v -30.159999 -24.251494 6.820940
v -30.159999 -25.430089 -0.040699
v -30.159999 -27.402239 -0.717739
v -30.160000 -29.458929 -1.060940
v -30.160000 -27.751493 6.820940
v -30.160000 -22.751494 18.520939
v -30.160000 -22.691864 18.068006
v -30.160000 -22.517038 17.645939
v -30.159999 -18.560551 7.421608
v -30.159999 -19.398138 5.512104
v -30.159999 -20.538595 3.766504
v -30.159999 -21.950814 2.232426
v -30.159999 -23.596273 0.951712
v -30.160000 -24.251494 30.220938
v -30.160001 -29.458929 38.102817
v -30.160001 -27.402239 37.759617
v -30.160000 -25.430089 37.082577
v -30.160000 -21.454427 20.211309
v -30.160000 -21.876494 20.036483
v -30.160000 -22.238930 19.758376
v -30.160000 -22.517038 19.395939
v -30.160000 -22.691864 18.973872
v -30.160000 -23.596273 36.090166
v -30.160000 -21.950814 34.809452
v -30.160000 -20.538595 33.275374
v -30.160000 -19.398138 31.529775
v -30.160000 -18.560551 29.620270
v -30.160000 -18.048683 27.598945
v -30.160001 -38.311123 18.973872
v -30.160001 -38.485949 19.395939
v -30.160001 -38.764056 19.758375
v -30.160001 -39.126493 20.036483
v -30.160001 -39.548559 20.211309
v -30.160001 -42.954304 27.598945
v -30.160001 -42.442436 29.620269
v -30.160001 -41.604849 31.529774
v -30.160001 -40.464392 33.275374
v -30.160001 -39.052173 34.809452
v -30.160001 -37.406714 36.090165
v -30.160001 -35.572898 37.082577
v -30.160001 -33.600748 37.759617
v -30.160001 -31.544058 38.102817
v -30.160000 -19.311123 18.973872
v -30.160000 -17.876493 25.520939
v -30.160000 -19.251494 18.520939
v -30.160000 -19.485950 19.395939
v -30.160000 -19.764057 19.758376
v -30.160000 -20.126493 20.036484
v -30.160000 -20.548561 20.211309
v -30.160000 -21.001494 20.270939
v -30.159999 -17.876493 11.520940
v -30.160000 -19.311123 18.068006
v -30.160000 -19.485950 17.645939
v -30.160000 -19.764057 17.283502
v -30.160000 -20.126493 17.005395
v -30.160000 -20.548561 16.830569
v -30.160000 -21.001494 16.770939
v -30.159999 -18.048683 9.442933
v -30.160000 -21.454427 16.830569
v -30.160000 -21.876494 17.005395
v -30.160000 -22.238930 17.283502
v -30.160001 -40.001493 20.270938
v -30.160001 -43.126493 25.520938
v -30.160001 -40.454426 20.211309
v -30.160001 -40.876493 20.036483
v -30.160001 -41.238930 19.758375
v -30.160001 -41.517037 19.395938
v -30.160001 -41.691864 18.973872
v -30.160001 -41.751493 18.520939
v -30.160001 -43.126493 11.520939
v -30.160001 -41.691864 18.068005
v -30.160001 -41.517037 17.645939
v -30.160001 -41.238930 17.283502
v -30.160001 -40.876493 17.005394
v -30.160001 -40.454426 16.830568
v -30.160001 -40.001493 16.770939
f 1 2 3
f 1 4 2
f 5 6 7
f 5 8 6
f 9 10 11
f 9 11 12
f 9 13 10
f 9 12 73
f 9 73 74
f 9 74 75
f 9 76 65
f 9 75 76
f 10 13 19
f 13 14 15
f 13 15 16
f 13 17 18
f 13 18 19
f 13 20 14
f 13 16 17
f 14 20 22
f 20 21 22
f 20 23 21
f 21 23 24
f 21 25 26
f 21 27 28
f 21 82 83
f 21 24 281
f 21 281 25
f 21 26 282
f 21 282 27
f 21 28 283
f 21 283 31
f 21 81 284
f 21 284 82
f 21 83 285
f 21 285 22
f 21 63 81
f 29 30 31
f 29 31 286
f 30 287 31
f 31 32 33
f 31 34 36
f 31 66 52
f 31 67 66
f 31 72 71
f 31 71 67
f 31 283 286
f 31 287 32
f 31 33 288
f 31 288 34
f 31 36 289
f 31 289 72
f 34 35 36
f 34 37 35
f 35 37 43
f 37 38 39
f 37 39 40
f 37 41 42
f 37 42 43
f 37 44 38
f 37 40 41
f 38 44 50
f 44 45 46
f 44 46 47
f 44 48 49
f 44 49 50
f 44 51 45
f 44 47 48
f 45 51 53
f 51 52 53
f 51 54 52
f 52 54 55
f 52 56 57
f 52 66 68
f 52 68 69
f 52 70 53
f 52 55 290
f 52 290 56
f 52 57 87
f 52 87 60
f 52 69 291
f 52 291 70
f 52 60 296
f 58 59 60
f 58 60 88
f 59 85 84
f 59 84 60
f 60 87 88
f 61 62 63
f 61 63 292
f 62 293 63
f 63 64 65
f 63 78 79
f 63 80 81
f 63 84 86
f 63 86 292
f 63 293 64
f 63 65 77
f 63 77 78
f 63 79 294
f 63 294 80
f 63 295 84
f 65 76 77
f 84 85 86
f 89 90 91
f 89 92 90
f 90 92 93
f 92 94 93
f 93 94 95
f 94 96 95
f 95 96 97
f 96 98 97
f 97 98 99
f 98 100 99
f 99 100 101
f 100 102 101
f 101 102 103
f 102 104 103
f 103 104 105
f 104 106 105
f 105 106 107
f 106 108 107
f 107 108 109
f 108 110 109
f 109 110 111
f 110 112 111
f 111 112 113
f 112 114 113
f 113 114 115
f 114 116 115
f 115 116 117
f 116 118 117
f 117 118 119
f 118 120 119
f 119 120 121
f 120 122 121
f 121 122 123
f 122 124 123
f 123 124 125
f 124 126 125
f 125 126 127
f 126 128 127
f 127 128 129
f 128 130 129
f 129 130 131
f 130 132 131
f 131 132 133
f 132 134 133
f 133 134 135
f 134 136 135
f 135 136 137
f 136 309 137
f 138 139 140
f 138 141 139
f 139 141 142
f 141 143 142
f 142 143 144
f 143 145 144
f 144 145 146
f 145 147 146
f 146 147 148
f 147 149 148
f 148 149 150
f 149 151 150
f 150 151 152
f 151 153 152
f 152 153 154
f 153 155 154
f 154 155 156
f 155 157 156
f 156 157 158
f 157 159 158
f 158 159 160
f 159 161 160
f 160 161 162
f 161 163 162
f 162 163 164
f 163 165 164
f 164 165 166
f 165 167 166
f 166 167 168
f 167 169 168
f 168 169 170
f 169 171 170
f 170 171 172
f 171 173 172
f 172 173 174
f 173 175 174
f 174 175 176
f 175 177 176
f 176 177 178
f 177 179 178
f 178 179 180
f 179 181 180
f 180 181 182
f 181 183 182
f 182 183 184
f 183 185 184
f 184 185 186
f 185 310 186
f 187 188 189
f 187 190 188
f 188 190 191
f 190 192 191
f 191 192 193
f 192 194 193
f 193 194 195
f 194 196 195
f 195 196 197
f 196 198 197
f 197 198 199
f 198 200 199
f 199 200 201
f 200 202 201
f 201 202 203
f 202 204 203
f 203 204 205
f 204 206 205
f 205 206 207
f 206 208 207
f 207 208 209
f 208 210 209
f 209 210 211
f 210 212 211
f 211 212 213
f 212 214 213
f 213 214 215
f 214 216 215
f 215 216 217
f 216 218 217
f 217 218 219
f 218 220 219
f 219 220 221
f 220 222 221
f 221 222 223
f 222 224 223
f 223 224 225
f 224 226 225
f 227 228 229
f 227 311 228
f 230 231 232
f 230 232 233
f 230 234 231
f 231 234 235
f 232 312 233
f 234 236 235
f 235 236 237
f 236 238 237
f 237 238 239
f 238 240 239
f 239 240 241
f 240 242 241
f 241 242 243
f 242 244 243
f 243 244 245
f 244 246 245
f 245 246 247
f 246 248 247
f 247 248 249
f 248 250 249
f 249 250 251
f 250 252 251
f 251 252 253
f 252 254 253
f 253 254 255
f 254 256 255
f 255 256 257
f 256 258 257
f 257 258 259
f 258 260 259
f 259 260 261
f 260 262 261
f 261 262 263
f 262 264 263
f 263 264 265
f 264 266 265
f 265 266 267
f 266 268 267
f 269 270 271
f 270 272 271
f 273 274 275
f 274 276 275
f 277 278 279
f 278 280 279
f 297 298 299
f 298 300 299
f 301 302 303
f 302 304 303
f 305 306 307
f 306 308 307
f 313 314 315
f 314 316 315
f 317 318 319
f 318 320 321
f 318 321 322
f 318 322 319
f 318 336 320
f 319 322 323
f 319 324 325
f 319 326 327
f 319 327 328
f 319 329 330
f 319 330 324
f 319 331 332
f 319 332 333
f 319 334 335
f 319 323 331
f 319 335 326
f 319 328 329
f 319 333 334
f 320 336 340
f 324 365 325
f 325 351 350
f 325 365 366
f 325 367 368
f 325 368 369
f 325 369 370
f 325 371 372
f 325 372 373
f 325 374 375
f 325 375 376
f 325 377 378
f 325 378 351
f 325 366 367
f 325 370 371
f 325 373 374
f 325 376 377
f 326 335 412
f 335 406 412
f 336 337 338
f 336 338 339
f 336 341 337
f 336 339 340
f 337 342 343
f 337 343 344
f 337 345 346
f 337 346 347
f 337 348 349
f 337 349 338
f 337 350 342
f 337 394 345
f 337 395 394
f 337 396 395
f 337 397 396
f 337 344 397
f 337 347 348
f 342 350 358
f 350 351 352
f 350 352 353
f 350 354 355
f 350 355 356
f 350 357 358
f 350 359 360
f 350 360 361
f 350 362 363
f 350 363 364
f 350 353 359
f 350 364 354
f 350 356 357
f 350 361 362
f 354 364 386
f 364 380 386
f 369 398 370
f 370 398 399
f 379 380 381
f 379 382 380
f 380 382 383
f 380 383 384
f 380 385 386
f 380 387 381
f 380 384 385
f 381 387 388
f 387 389 388
f 387 390 389
f 387 391 390
f 387 392 391
f 387 393 392
f 387 394 393
f 393 394 395
f 398 400 399
f 399 400 401
f 399 402 403
f 399 403 404
f 399 405 406
f 399 401 402
f 399 404 405
f 405 407 406
f 406 407 408
f 406 409 410
f 406 410 411
f 406 408 409
f 406 411 412