# Part9
# Autodesk dbId: 73
# Units: mm
o 073_Part9
v -22.200003 -28.251492 58.320940
v -25.000003 -26.026282 58.070218
v -25.000002 -28.251492 58.320940
v -22.200003 -26.026282 58.070218
v -25.000003 -23.912655 57.330626
v -22.200003 -23.912654 57.330626
v -25.000003 -22.016594 56.139255
v -22.200003 -22.016594 56.139255
v -25.000003 -20.433177 54.555837
v -22.200003 -20.433177 54.555837
v -25.000003 -19.241805 52.659777
v -22.200003 -19.241805 52.659777
v -25.000003 -18.502213 50.546147
v -22.200003 -18.502213 50.546147
v -25.000003 -18.251491 48.320939
v -22.200003 -18.251491 48.320940
v -22.199999 -50.951490 0.770938
v -22.199998 -59.251490 -1.679062
v -22.199999 -47.551490 1.020941
v -22.199999 -50.498556 0.830569
v -22.199999 -51.404424 0.830569
v -22.199999 -52.188926 1.283501
v -22.199999 -52.467035 1.645939
v -22.199998 -54.351490 1.020938
v -22.199999 -52.467034 3.395938
v -22.199999 -52.188927 3.758376
v -22.199998 -54.351490 4.020939
v -22.199999 -50.498557 4.211308
v -22.199999 -47.551491 4.020939
v -22.200000 -41.208898 18.197415
v -22.199999 -57.551489 15.920939
v -22.199999 -50.076490 4.036484
v -22.199999 -49.714054 3.758375
v -22.199999 -49.435946 3.395940
v -22.199999 -49.261120 2.973872
v -22.199999 -49.201491 2.520939
v -22.199999 -49.261120 2.068006
v -22.199999 -49.435946 1.645938
v -22.199999 -49.714054 1.283503
v -22.199999 -50.076491 1.005395
v -22.200001 -52.188928 52.883502
v -22.200001 -52.467036 53.245940
v -22.200001 -54.351492 52.620939
v -22.200001 -52.467036 54.995938
v -22.200001 -52.188928 55.358375
v -22.200001 -54.351491 55.620939
v -22.200001 -50.076492 55.636482
v -22.200001 -49.714055 55.358375
v -22.200001 -47.551492 55.620940
v -22.200001 -49.261122 54.573871
v -22.200001 -49.201492 54.120938
v -22.200001 -49.435948 53.245939
v -22.200001 -49.714055 52.883500
v -22.200001 -47.551492 52.620940
v -22.200001 -50.498558 52.430568
v -22.200001 -50.951492 52.370938
v -22.200000 -57.551491 40.720938
v -22.200000 -41.208898 18.844462
v -22.200000 -41.084023 19.145939
v -22.200000 -40.885374 19.404822
v -22.200000 -40.626491 19.603471
v -22.200001 -36.751491 30.220939
v -22.200000 -40.001491 19.770939
v -22.200000 -39.677967 19.728347
v -22.200000 -39.117607 19.404823
v -22.200000 -38.918959 19.145939
v -22.200000 -38.918959 17.895939
v -22.200000 -39.117607 17.637056
v -22.200000 -36.751491 6.820938
v -22.200000 -39.677967 17.313533
v -22.200000 -40.001491 17.270940
v -22.200001 -21.885375 17.637056
v -22.200001 -22.084024 17.895939
v -22.200001 -24.251491 6.820939
v -22.200001 -22.084024 19.145939
v -22.200001 -21.885374 19.404825
v -22.200002 -24.251492 30.220940
v -22.200001 -21.325015 19.728347
v -22.200001 -21.001491 19.770939
v -22.200001 -20.376492 19.603471
v -22.200001 -20.117608 19.404823
v -22.200001 -19.918960 19.145940
v -22.200003 -18.251491 48.320940
v -22.200001 -19.918960 17.895940
v -22.200001 -20.117607 17.637057
v -22.200001 -18.251490 8.320940
v -22.200001 -20.677968 17.313532
v -22.200001 -21.001493 17.270939
v -22.200000 -60.551492 55.620939
v -22.200000 -59.251493 58.320939
v -22.200000 -60.286767 58.184641
v -22.200000 -61.251491 57.785039
v -22.200001 -52.701493 54.120937
v -22.200001 -52.641861 54.573870
v -22.200001 -51.826491 55.636483
v -22.200001 -51.404425 55.811309
v -22.200001 -51.404425 52.430568
v -22.200001 -51.826491 52.605393
v -22.200001 -52.641861 53.668004
v -22.200000 -57.551491 50.920937
v -22.200000 -60.551491 52.620939
v -22.200000 -60.551492 50.920937
v -22.200000 -63.251493 54.320937
v -22.199999 -41.351490 1.020941
v -22.200000 -28.251491 -1.679060
v -22.200000 -40.885374 17.637056
v -22.200000 -41.084023 17.895939
v -22.199999 -41.351490 4.020939
v -22.200000 -40.325015 17.313533
v -22.200000 -40.626491 17.438408
v -22.199999 -51.826489 1.005394
v -22.199999 -52.641861 2.068005
v -22.199999 -52.701491 2.520942
v -22.199998 -60.551490 1.020938
v -22.199999 -52.641861 2.973871
v -22.199999 -51.826489 4.036484
v -22.199999 -51.404423 4.211308
v -22.200001 -50.951492 55.870939
v -22.200001 -50.498559 55.811307
v -22.200001 -49.435947 54.995939
v -22.200002 -41.351492 55.620940
v -22.200001 -41.351492 52.620939
v -22.200002 -35.501492 50.320940
v -22.200002 -35.501492 47.320938
v -22.200001 -49.261122 53.668005
v -22.200001 -50.076492 52.605392
v -22.200000 -40.325015 19.728347
v -22.200000 -39.376491 19.603471
v -22.200000 -38.794083 18.844463
v -22.200000 -38.751491 18.520939
v -22.200001 -22.251490 18.520939
v -22.200001 -22.208899 18.844463
v -22.200001 -21.626491 19.603471
v -22.200001 -20.677967 19.728347
v -22.200002 -26.251490 47.320939
v -22.200001 -21.325015 17.313534
v -22.200001 -21.626490 17.438408
v -22.200001 -22.208898 18.197416
v -22.200000 -26.026281 -1.428338
v -22.200000 -23.912653 -0.688748
v -22.200000 -22.016592 0.502625
v -22.200001 -20.433176 2.086043
v -22.200001 -19.241802 3.982104
v -22.200001 -18.502214 6.095731
v -22.200000 -38.794084 18.197416
v -22.200000 -39.376491 17.438407
v -22.199999 -60.551490 15.920939
v -22.200000 -60.551492 40.720939
v -22.199998 -63.251490 2.320940
v -22.200000 -41.251491 18.520939
v -22.199999 -50.951491 4.270938
v -22.199998 -57.551489 5.720939
v -22.199998 -60.551490 4.020939
v -22.199998 -60.551490 5.720939
v -22.200002 -26.251491 50.320939
v -22.200003 -18.502213 50.546147
v -22.200003 -19.241805 52.659777
v -22.200003 -20.433177 54.555837
v -22.200003 -22.016594 56.139255
v -22.200003 -23.912654 57.330626
v -22.200003 -26.026282 58.070218
v -22.200003 -28.251492 58.320940
v -22.200000 -62.079920 57.149366
v -22.200000 -62.715593 56.320936
v -22.200000 -63.115195 55.356216
v -22.199998 -63.115194 1.285661
v -22.199998 -62.715592 0.320938
v -22.199998 -62.079916 -0.507489
v -22.199998 -61.251490 -1.143163
v -22.199998 -60.286765 -1.542765
v -25.000000 -60.551492 55.620939
v -25.000001 -54.351491 55.620939
v -22.200000 -60.551492 55.620939
v -24.999999 -41.351491 1.020941
v -24.999999 -47.551491 1.020941
v -22.199999 -41.351490 1.020941
v -24.999998 -54.351490 1.020938
v -24.999998 -60.551490 1.020938
v -22.199998 -54.351490 1.020938
v -25.000001 -47.551492 55.620940
v -25.000001 -41.351492 55.620940
v -22.200001 -47.551492 55.620940
v -25.000002 -24.251492 30.220939
v -22.200001 -36.751491 30.220939
v -25.000001 -36.751492 30.220939
v -25.000000 -57.551491 50.920937
v -22.200000 -60.551492 50.920937
v -25.000000 -60.551492 50.920937
v -24.999999 -57.551489 15.920939
v -22.199999 -60.551490 15.920939
v -24.999999 -60.551490 15.920939
v -25.000002 -26.251491 50.320939
v -22.200002 -35.501492 50.320940
v -25.000002 -35.501492 50.320940
v -22.200003 -18.251491 48.320940
v -22.200001 -18.251490 8.320940
v -25.000003 -18.251491 48.320939
v -25.000001 -18.251490 8.320940
v -22.200001 -19.751492 18.520940
v -22.200001 -19.794082 18.197417
v -22.200001 -20.376493 17.438408
v -22.200001 -19.794083 18.844464
v -22.200000 -28.251491 -1.679060
v -25.000000 -28.251491 -1.679060
v -22.200000 -26.026281 -1.428338
v -25.000000 -26.026282 -1.428338
v -22.200000 -23.912653 -0.688748
v -25.000000 -23.912654 -0.688748
v -22.200000 -22.016592 0.502625
v -25.000000 -22.016593 0.502625
v -22.200001 -20.433176 2.086043
v -25.000001 -20.433176 2.086043
v -22.200001 -19.241802 3.982104
v -25.000001 -19.241802 3.982104
v -22.200001 -18.502214 6.095731
v -25.000001 -18.502214 6.095731
v -22.200001 -18.251490 8.320940
v -25.000001 -18.251490 8.320940
v -22.200000 -28.251491 -1.679060
v -22.199998 -59.251490 -1.679062
v -25.000000 -28.251491 -1.679060
v -24.999998 -59.251490 -1.679062
v -22.199998 -63.251490 2.320940
v -24.999998 -63.251490 2.320940
v -22.199998 -63.115194 1.285661
v -24.999998 -63.115194 1.285661
v -22.199998 -62.715592 0.320938
v -24.999998 -62.715592 0.320938
v -22.199998 -62.079916 -0.507489
v -24.999998 -62.079917 -0.507489
v -22.199998 -61.251490 -1.143163
v -24.999998 -61.251490 -1.143163
v -22.199998 -60.286765 -1.542765
v -24.999998 -60.286766 -1.542765
v -22.199998 -59.251490 -1.679062
v -24.999998 -59.251490 -1.679062
v -22.199998 -63.251490 2.320940
v -22.200000 -63.251493 54.320937
v -24.999998 -63.251490 2.320940
v -25.000000 -63.251493 54.320937
v -22.200000 -59.251493 58.320939
v -25.000000 -59.251493 58.320939
v -22.200000 -60.286767 58.184641
v -25.000000 -60.286767 58.184641
v -22.200000 -61.251491 57.785039
v -25.000000 -61.251491 57.785039
v -22.200000 -62.079920 57.149366
v -25.000000 -62.079920 57.149366
v -22.200000 -62.715593 56.320936
v -25.000000 -62.715594 56.320936
v -22.200000 -63.115195 55.356216
v -25.000000 -63.115195 55.356216
v -22.200000 -63.251493 54.320937
v -25.000000 -63.251493 54.320937
v -22.199999 -50.498556 0.830569
v -24.999999 -50.498556 0.830569
v -22.199999 -50.951490 0.770938
v -24.999999 -50.076491 1.005395
v -24.999999 -50.951491 0.770937
v -22.199999 -50.951490 0.770938
v -24.999999 -50.951491 0.770937
v -22.199999 -51.404424 0.830569
v -24.999998 -51.404424 0.830569
v -22.199999 -51.826489 1.005394
v -24.999998 -51.826489 1.005394
v -22.199999 -52.188926 1.283501
v -24.999998 -52.188926 1.283501
v -22.199999 -52.467035 1.645939
v -24.999998 -52.467035 1.645939
v -22.199999 -52.641861 2.068005
v -24.999998 -52.641861 2.068005
v -22.199999 -52.701491 2.520942
v -24.999998 -52.701491 2.520942
v -22.199999 -52.641861 2.973871
v -24.999999 -52.641861 2.973871
v -22.199999 -52.467034 3.395938
v -24.999999 -52.467034 3.395937
v -22.199999 -52.188927 3.758376
v -24.999999 -52.188927 3.758376
v -22.199999 -51.826489 4.036484
v -24.999999 -51.826489 4.036484
v -22.199999 -51.404423 4.211308
v -24.999999 -51.404424 4.211308
v -22.199999 -50.951491 4.270938
v -24.999999 -50.951491 4.270938
v -22.199999 -50.498557 4.211308
v -24.999999 -50.498557 4.211308
v -22.199999 -50.076490 4.036484
v -24.999999 -50.076490 4.036484
v -22.199999 -49.714054 3.758375
v -24.999999 -49.714054 3.758374
v -22.199999 -49.435946 3.395940
v -24.999999 -49.435946 3.395940
v -22.199999 -49.261120 2.973872
v -24.999999 -49.261120 2.973872
v -22.199999 -49.201491 2.520939
v -24.999999 -49.201491 2.520939
v -22.199999 -49.261120 2.068006
v -24.999999 -49.261120 2.068006
v -22.199999 -49.435946 1.645938
v -24.999999 -49.435947 1.645938
v -22.199999 -49.714054 1.283503
v -24.999999 -49.714054 1.283503
v -22.199999 -50.076491 1.005395
v -22.200001 -50.498558 52.430568
v -25.000001 -50.498558 52.430568
v -22.200001 -50.951492 52.370938
v -25.000001 -50.076492 52.605392
v -25.000001 -50.951492 52.370938
v -22.200001 -50.951492 52.370938
v -25.000001 -50.951492 52.370938
v -22.200001 -51.404425 52.430568
v -25.000001 -51.404425 52.430568
v -22.200001 -51.826491 52.605393
v -25.000001 -51.826491 52.605393
v -22.200001 -52.188928 52.883502
v -25.000001 -52.188928 52.883502
v -22.200001 -52.467036 53.245940
v -25.000001 -52.467036 53.245940
v -22.200001 -52.641861 53.668004
v -25.000001 -52.641862 53.668004
v -22.200001 -52.701493 54.120937
v -25.000001 -52.701493 54.120937
v -22.200001 -52.641861 54.573870
v -25.000001 -52.641862 54.573870
v -22.200001 -52.467036 54.995938
v -25.000001 -52.467037 54.995938
v -22.200001 -52.188928 55.358375
v -25.000001 -52.188928 55.358375
v -22.200001 -51.826491 55.636483
v -25.000001 -51.826491 55.636483
v -22.200001 -51.404425 55.811309
v -25.000001 -51.404425 55.811309
v -22.200001 -50.951492 55.870939
v -25.000001 -50.951492 55.870939
v -22.200001 -50.498559 55.811307
v -25.000001 -50.498559 55.811307
v -22.200001 -50.076492 55.636482
v -25.000001 -50.076493 55.636482
v -22.200001 -49.714055 55.358375
v -25.000001 -49.714055 55.358375
v -22.200001 -49.435947 54.995939
v -25.000001 -49.435948 54.995939
v -22.200001 -49.261122 54.573871
v -25.000001 -49.261122 54.573871
v -22.200001 -49.201492 54.120938
v -25.000001 -49.201492 54.120938
v -22.200001 -49.261122 53.668005
v -25.000001 -49.261122 53.668005
v -22.200001 -49.435948 53.245939
v -25.000001 -49.435948 53.245939
v -22.200001 -49.714055 52.883500
v -25.000001 -49.714056 52.883500
v -22.200001 -50.076492 52.605392
v -22.200000 -39.677967 17.313533
v -25.000000 -39.677967 17.313533
v -22.200000 -40.001491 17.270940
v -25.000000 -39.376491 17.438407
v -25.000000 -40.001491 17.270940
v -22.200000 -40.001491 17.270940
v -25.000000 -40.001491 17.270940
v -22.200000 -40.325015 17.313533
v -25.000000 -40.325015 17.313533
v -22.200000 -40.626491 17.438408
v -25.000000 -40.626491 17.438408
v -22.200000 -40.885374 17.637056
v -25.000000 -40.885375 17.637056
v -22.200000 -41.084023 17.895939
v -25.000000 -41.084023 17.895939
v -22.200000 -41.208898 18.197415
v -25.000000 -41.208898 18.197415
v -22.200000 -41.251491 18.520939
v -25.000000 -41.251491 18.520939
v -22.200000 -41.208898 18.844462
v -25.000000 -41.208898 18.844462
v -22.200000 -41.084023 19.145939
v -25.000000 -41.084023 19.145939
v -22.200000 -40.885374 19.404822
v -25.000000 -40.885375 19.404822
v -22.200000 -40.626491 19.603471
v -25.000000 -40.626491 19.603471
v -22.200000 -40.325015 19.728347
v -25.000000 -40.325015 19.728347
v -22.200000 -40.001491 19.770939
v -25.000000 -40.001491 19.770939
v -22.200000 -39.677967 19.728347
v -25.000000 -39.677967 19.728347
v -22.200000 -39.376491 19.603471
v -25.000000 -39.376491 19.603471
v -22.200000 -39.117607 19.404823
v -25.000000 -39.117608 19.404823
v -22.200000 -38.918959 19.145939
v -25.000000 -38.918959 19.145939
v -22.200000 -38.794083 18.844463
v -25.000000 -38.794084 18.844463
v -22.200000 -38.751491 18.520939
v -25.000000 -38.751491 18.520939
v -22.200000 -38.794084 18.197416
v -25.000000 -38.794084 18.197416
v -22.200000 -38.918959 17.895939
v -25.000000 -38.918959 17.895939
v -22.200000 -39.117607 17.637056
v -25.000000 -39.117608 17.637056
v -22.200000 -39.376491 17.438407
v -22.200001 -20.677968 17.313532
v -25.000001 -20.677969 17.313532
v -22.200001 -21.001493 17.270939
v -25.000001 -20.376493 17.438408
v -25.000001 -21.001493 17.270939
v -22.200001 -21.001493 17.270939
v -25.000001 -21.001493 17.270939
v -22.200001 -21.325015 17.313534
v -25.000001 -21.325015 17.313534
v -22.200001 -21.626490 17.438408
v -25.000001 -21.626491 17.438408
v -22.200001 -21.885375 17.637056
v -25.000001 -21.885375 17.637056
v -22.200001 -22.084024 17.895939
v -25.000001 -22.084024 17.895939
v -22.200001 -22.208898 18.197416
v -25.000001 -22.208898 18.197416
v -22.200001 -22.251490 18.520939
v -25.000001 -22.251490 18.520939
v -22.200001 -22.208899 18.844463
v -25.000001 -22.208899 18.844463
v -22.200001 -22.084024 19.145939
v -25.000001 -22.084024 19.145939
v -22.200001 -21.885374 19.404825
v -25.000001 -21.885374 19.404824
v -22.200001 -21.626491 19.603471
v -25.000001 -21.626491 19.603471
v -22.200001 -21.325015 19.728347
v -25.000001 -21.325016 19.728347
v -22.200001 -21.001491 19.770939
v -25.000001 -21.001491 19.770939
v -22.200001 -20.677967 19.728347
v -25.000001 -20.677967 19.728347
v -22.200001 -20.376492 19.603471
v -25.000001 -20.376492 19.603471
v -22.200001 -20.117608 19.404823
v -25.000001 -20.117608 19.404823
v -22.200001 -19.918960 19.145940
v -25.000001 -19.918960 19.145940
v -22.200001 -19.794083 18.844464
v -25.000001 -19.794084 18.844464
v -22.200001 -19.751492 18.520940
v -25.000001 -19.751493 18.520940
v -22.200001 -19.794082 18.197417
v -25.000001 -19.794082 18.197417
v -22.200001 -19.918960 17.895940
v -25.000001 -19.918960 17.895940
v -22.200001 -20.117607 17.637057
v -25.000001 -20.117607 17.637057
v -22.200001 -20.376493 17.438408
v -22.200001 -54.351491 55.620939
v -25.000001 -54.351491 55.620939
v -25.000000 -54.351493 52.620939
v -22.200001 -54.351491 55.620939
v -22.200001 -54.351492 52.620939
v -25.000000 -54.351493 52.620939
v -25.000000 -60.551491 52.620939
v -22.200001 -54.351492 52.620939
v -22.200000 -60.551491 52.620939
v -25.000000 -60.551491 52.620939
v -25.000000 -60.551492 55.620939
v -22.200000 -60.551491 52.620939
v -22.200000 -60.551492 55.620939
v -22.199999 -47.551490 1.020941
v -24.999999 -47.551491 1.020941
v -24.999999 -47.551491 4.020939
v -22.199999 -47.551490 1.020941
v -22.199999 -47.551491 4.020939
v -24.999999 -47.551491 4.020939
v -24.999999 -41.351491 4.020939
v -22.199999 -47.551491 4.020939
v -22.199999 -41.351490 4.020939
v -24.999999 -41.351491 4.020939
v -24.999999 -41.351491 1.020941
v -22.199999 -41.351490 4.020939
v -22.199999 -41.351490 1.020941
v -22.199998 -60.551490 1.020938
v -24.999998 -60.551490 1.020938
v -24.999998 -60.551491 4.020938
v -22.199998 -60.551490 1.020938
v -22.199998 -60.551490 4.020939
v -24.999998 -60.551491 4.020938
v -24.999998 -54.351490 4.020938
v -22.199998 -60.551490 4.020939
v -22.199998 -54.351490 4.020939
v -24.999998 -54.351490 4.020938
v -24.999998 -54.351490 1.020938
v -22.199998 -54.351490 4.020939
v -22.199998 -54.351490 1.020938
v -22.200002 -41.351492 55.620940
v -25.000001 -41.351492 55.620940
v -25.000001 -41.351492 52.620939
v -22.200002 -41.351492 55.620940
v -22.200001 -41.351492 52.620939
v -25.000001 -41.351492 52.620939
v -25.000001 -47.551492 52.620939
v -22.200001 -41.351492 52.620939
v -22.200001 -47.551492 52.620940
v -25.000001 -47.551492 52.620939
v -25.000001 -47.551492 55.620940
v -22.200001 -47.551492 52.620940
v -22.200001 -47.551492 55.620940
v -22.200002 -24.251492 30.220940
v -22.200001 -36.751491 30.220939
v -22.200000 -36.751491 6.820938
v -25.000001 -36.751492 30.220939
v -25.000000 -36.751491 6.820938
v -22.200000 -36.751491 6.820938
v -22.200001 -24.251491 6.820939
v -25.000000 -36.751491 6.820938
v -25.000001 -24.251491 6.820939
v -22.200001 -24.251491 6.820939
v -22.200002 -24.251492 30.220940
v -25.000001 -24.251491 6.820939
v -25.000002 -24.251492 30.220939
v -22.200000 -57.551491 50.920937
v -22.200000 -60.551492 50.920937
v -22.200000 -60.551492 40.720939
v -25.000000 -60.551492 50.920937
v -25.000000 -60.551492 40.720939
v -22.200000 -60.551492 40.720939
v -22.200000 -57.551491 40.720938
v -25.000000 -60.551492 40.720939
v -25.000000 -57.551491 40.720937
v -22.200000 -57.551491 40.720938
v -22.200000 -57.551491 50.920937
v -25.000000 -57.551491 40.720937
v -25.000000 -57.551491 50.920937
v -22.199999 -57.551489 15.920939
v -22.199999 -60.551490 15.920939
v -22.199998 -60.551490 5.720939
v -24.999999 -60.551490 15.920939
v -24.999998 -60.551490 5.720939
v -22.199998 -60.551490 5.720939
v -22.199998 -57.551489 5.720939
v -24.999998 -60.551490 5.720939
v -24.999998 -57.551489 5.720938
v -22.199998 -57.551489 5.720939
v -22.199999 -57.551489 15.920939
v -24.999998 -57.551489 5.720938
v -24.999999 -57.551489 15.920939
v -22.200002 -26.251491 50.320939
v -22.200002 -35.501492 50.320940
v -22.200002 -35.501492 47.320938
v -25.000002 -35.501492 50.320940
v -25.000002 -35.501492 47.320938
v -22.200002 -35.501492 47.320938
v -22.200002 -26.251490 47.320939
v -25.000002 -35.501492 47.320938
v -25.000002 -26.251491 47.320939
v -22.200002 -26.251490 47.320939
v -22.200002 -26.251491 50.320939
v -25.000002 -26.251491 47.320939
v -25.000002 -26.251491 50.320939
v -25.000002 -28.251492 58.320940
v -25.000000 -59.251493 58.320939
v -22.200003 -28.251492 58.320940
v -22.200000 -59.251493 58.320939
v -25.000003 -26.026282 58.070218
v -25.000002 -26.251491 50.320939
v -25.000002 -28.251492 58.320940
v -25.000003 -23.912655 57.330626
v -25.000003 -22.016594 56.139255
v -25.000003 -20.433177 54.555837
v -25.000003 -19.241805 52.659777
v -25.000003 -18.502213 50.546147
v -25.000002 -26.251491 47.320939
v -25.000002 -35.501492 50.320940
v -25.000001 -41.351492 55.620940
v -25.000000 -59.251493 58.320939
v -25.000001 -41.351492 52.620939
v -25.000002 -35.501492 47.320938
v -25.000001 -36.751492 30.220939
v -25.000002 -24.251492 30.220939
v -25.000000 -40.001491 19.770939
v -25.000000 -40.325015 19.728347
v -25.000000 -40.626491 19.603471
v -25.000000 -40.885375 19.404822
v -25.000000 -57.551491 40.720937
v -25.000001 -47.551492 52.620939
v -25.000000 -38.751491 18.520939
v -25.000000 -38.794084 18.844463
v -25.000000 -38.918959 19.145939
v -25.000000 -39.117608 19.404823
v -25.000000 -39.376491 19.603471
v -25.000000 -39.677967 19.728347
v -25.000003 -18.251491 48.320939
v -25.000001 -20.117608 19.404823
v -25.000001 -19.918960 19.145940
v -25.000001 -19.794084 18.844464
v -25.000001 -19.751493 18.520940
v -25.000001 -18.251490 8.320940
v -25.000001 -19.794082 18.197417
v -25.000001 -18.502214 6.095731
v -25.000001 -24.251491 6.820939
v -25.000001 -19.918960 17.895940
v -25.000001 -20.117607 17.637057
v -25.000001 -20.376493 17.438408
v -25.000001 -20.677969 17.313532
v -25.000001 -21.001493 17.270939
v -25.000001 -21.325015 17.313534
v -25.000001 -21.626491 17.438408
v -25.000001 -19.241802 3.982104
v -25.000001 -20.433176 2.086043
v -25.000000 -22.016593 0.502625
v -25.000000 -23.912654 -0.688748
v -25.000000 -26.026282 -1.428338
v -25.000000 -28.251491 -1.679060
v -25.000000 -36.751491 6.820938
v -25.000001 -21.885375 17.637056
v -25.000001 -22.084024 17.895939
v -25.000001 -22.208898 18.197416
v -25.000001 -22.251490 18.520939
v -25.000001 -22.208899 18.844463
v -25.000001 -22.084024 19.145939
v -25.000001 -21.885374 19.404824
v -25.000001 -21.626491 19.603471
v -25.000001 -21.325016 19.728347
v -25.000001 -21.001491 19.770939
v -25.000001 -20.677967 19.728347
v -25.000001 -20.376492 19.603471
v -24.999998 -59.251490 -1.679062
v -24.999999 -41.351491 1.020941
v -24.999999 -41.351491 4.020939
v -25.000000 -40.325015 17.313533
v -25.000000 -40.001491 17.270940
v -25.000000 -39.677967 17.313533
v -25.000000 -39.376491 17.438407
v -25.000000 -39.117608 17.637056
v -25.000000 -38.918959 17.895939
v -25.000000 -38.794084 18.197416
v -24.999999 -47.551491 1.020941
v -25.000000 -40.885375 17.637056
v -25.000000 -40.626491 17.438408
v -24.999998 -60.551490 1.020938
v -24.999998 -54.351490 1.020938
v -24.999998 -51.404424 0.830569
v -24.999999 -50.951491 0.770937
v -24.999999 -50.498556 0.830569
v -24.999999 -50.076491 1.005395
v -24.999999 -49.714054 1.283503
v -24.999999 -49.435947 1.645938
v -24.999999 -49.261120 2.068006
v -24.999999 -49.201491 2.520939
v -24.999999 -47.551491 4.020939
v -24.999998 -60.286766 -1.542765
v -24.999998 -61.251490 -1.143163
v -24.999998 -62.079917 -0.507489
v -24.999998 -62.715592 0.320938
v -24.999998 -63.115194 1.285661
v -24.999998 -63.251490 2.320940
v -24.999998 -60.551491 4.020938
v -24.999998 -51.826489 1.005394
v -24.999998 -52.188926 1.283501
v -24.999998 -52.467035 1.645939
v -24.999998 -52.641861 2.068005
v -24.999998 -52.701491 2.520942
v -24.999998 -54.351490 4.020938
v -24.999999 -52.641861 2.973871
v -24.999999 -52.467034 3.395937
v -24.999999 -52.188927 3.758376
v -24.999999 -51.826489 4.036484
v -24.999999 -51.404424 4.211308
v -24.999999 -57.551489 15.920939
v -24.999999 -50.951491 4.270938
v -25.000000 -41.208898 18.844462
v -25.000000 -41.251491 18.520939
v -25.000000 -41.208898 18.197415
v -24.999998 -57.551489 5.720938
v -24.999999 -50.498557 4.211308
v -25.000000 -41.084023 17.895939
v -24.999999 -49.261120 2.973872
v -24.999999 -49.435946 3.395940
v -24.999999 -49.714054 3.758374
v -24.999999 -50.076490 4.036484
v -24.999998 -60.551490 5.720939
v -24.999999 -60.551490 15.920939
v -25.000000 -63.251493 54.320937
v -25.000000 -60.551492 40.720939
v -25.000000 -60.551492 50.920937
v -25.000000 -60.551491 52.620939
v -25.000000 -57.551491 50.920937
v -25.000000 -60.551492 55.620939
v -25.000000 -54.351493 52.620939
v -25.000001 -52.701493 54.120937
v -25.000001 -52.641862 53.668004
v -25.000001 -52.467036 53.245940
v -25.000001 -52.188928 52.883502
v -25.000001 -51.826491 52.605393
v -25.000001 -51.404425 52.430568
v -25.000001 -50.951492 52.370938
v -25.000000 -41.084023 19.145939
v -25.000000 -63.115195 55.356216
v -25.000000 -62.715594 56.320936
v -25.000000 -62.079920 57.149366
v -25.000000 -61.251491 57.785039
v -25.000000 -60.286767 58.184641
v -25.000001 -54.351491 55.620939
v -25.000001 -47.551492 55.620940
v -25.000001 -50.951492 55.870939
v -25.000001 -51.404425 55.811309
v -25.000001 -51.826491 55.636483
v -25.000001 -52.188928 55.358375
v -25.000001 -52.467037 54.995938
v -25.000001 -52.641862 54.573870
v -25.000001 -50.498559 55.811307
v -25.000001 -50.076493 55.636482
v -25.000001 -49.714055 55.358375
v -25.000001 -49.435948 54.995939
v -25.000001 -49.261122 54.573871
v -25.000001 -49.201492 54.120938
v -25.000001 -49.261122 53.668005
v -25.000001 -49.435948 53.245939
v -25.000001 -49.714056 52.883500
v -25.000001 -50.076492 52.605392
v -25.000001 -50.498558 52.430568
f 1 2 3
f 1 4 2
f 2 4 5
f 4 6 5
f 5 6 7
f 6 8 7
f 7 8 9
f 8 10 9
f 9 10 11
f 10 12 11
f 11 12 13
f 12 14 13
f 13 14 15
f 14 16 15
f 17 18 19
f 17 19 20
f 17 21 18
f 18 105 104
f 18 104 19
f 18 24 114
f 18 21 24
f 18 114 170
f 19 29 36
f 19 36 37
f 19 37 38
f 19 38 39
f 19 39 40
f 19 40 20
f 21 111 24
f 22 23 24
f 22 24 111
f 23 112 24
f 24 112 113
f 24 113 27
f 25 26 27
f 25 27 115
f 26 116 27
f 27 113 115
f 27 116 117
f 27 117 31
f 27 152 153
f 27 31 152
f 28 29 30
f 28 30 31
f 28 32 29
f 28 31 151
f 29 32 33
f 29 33 34
f 29 34 35
f 29 35 36
f 29 106 107
f 29 107 30
f 29 108 106
f 30 150 31
f 31 58 59
f 31 150 58
f 31 117 151
f 31 59 57
f 31 57 147
f 41 42 43
f 41 43 98
f 42 99 43
f 43 97 98
f 43 99 93
f 43 93 46
f 43 100 57
f 43 101 100
f 43 57 97
f 44 45 46
f 44 46 94
f 45 95 46
f 46 93 94
f 46 95 96
f 46 96 90
f 46 90 89
f 47 48 49
f 47 49 119
f 48 120 49
f 49 50 51
f 49 118 119
f 49 120 50
f 49 51 54
f 49 121 90
f 49 90 118
f 51 125 54
f 52 53 54
f 52 54 125
f 53 126 54
f 54 126 55
f 54 55 57
f 54 62 122
f 54 57 62
f 55 56 57
f 56 97 57
f 57 59 60
f 57 60 62
f 57 148 147
f 60 61 62
f 61 127 62
f 62 63 64
f 62 65 66
f 62 124 122
f 62 127 63
f 62 64 128
f 62 128 65
f 62 66 129
f 62 129 130
f 62 130 69
f 62 77 135
f 62 135 124
f 67 68 69
f 67 69 145
f 68 146 69
f 69 70 71
f 69 104 105
f 69 108 104
f 69 71 109
f 69 109 108
f 69 130 145
f 69 146 70
f 69 105 74
f 72 73 74
f 72 74 137
f 73 138 74
f 74 136 137
f 74 138 131
f 74 131 77
f 74 105 139
f 74 139 140
f 74 141 142
f 74 142 143
f 74 144 86
f 74 140 141
f 74 143 144
f 74 86 136
f 75 76 77
f 75 77 132
f 76 133 77
f 77 78 79
f 77 80 81
f 77 131 132
f 77 133 78
f 77 79 134
f 77 134 80
f 77 81 83
f 77 83 135
f 81 82 83
f 82 202 83
f 83 156 135
f 83 202 199
f 83 199 86
f 84 85 86
f 84 86 200
f 85 201 86
f 86 87 88
f 86 88 136
f 86 199 200
f 86 201 87
f 89 90 91
f 89 91 92
f 89 103 101
f 89 92 163
f 89 163 164
f 89 164 165
f 89 165 103
f 90 96 118
f 90 121 162
f 100 101 102
f 101 103 102
f 102 103 148
f 103 149 148
f 106 108 110
f 108 109 110
f 114 153 149
f 114 149 166
f 114 166 167
f 114 167 168
f 114 168 169
f 114 169 170
f 121 122 123
f 121 123 162
f 122 124 123
f 123 155 162
f 135 156 155
f 147 148 149
f 147 149 154
f 149 153 154
f 152 154 153
f 155 156 157
f 155 157 158
f 155 159 160
f 155 160 161
f 155 158 159
f 155 161 162
f 171 172 173
f 172 455 173
f 174 175 176
f 175 468 176
f 177 178 179
f 178 481 179
f 180 181 182
f 181 494 182
f 183 184 185
f 183 507 184
f 186 187 188
f 186 520 187
f 189 190 191
f 189 533 190
f 192 193 194
f 192 546 193
f 195 196 197
f 196 198 197
f 203 204 205
f 204 206 205
f 205 206 207
f 206 208 207
f 207 208 209
f 208 210 209
f 209 210 211
f 210 212 211
f 211 212 213
f 212 214 213
f 213 214 215
f 214 216 215
f 215 216 217
f 216 218 217
f 219 220 221
f 220 222 221
f 223 224 225
f 224 226 225
f 225 226 227
f 226 228 227
f 227 228 229
f 228 230 229
f 229 230 231
f 230 232 231
f 231 232 233
f 232 234 233
f 233 234 235
f 234 236 235
f 237 238 239
f 238 240 239
f 241 242 243
f 242 244 243
f 243 244 245
f 244 246 245
f 245 246 247
f 246 248 247
f 247 248 249
f 248 250 249
f 249 250 251
f 250 252 251
f 251 252 253
f 252 254 253
f 255 256 257
f 255 258 256
f 255 304 258
f 256 259 257
f 258 304 303
f 260 261 262
f 261 263 262
f 262 263 264
f 263 265 264
f 264 265 266
f 265 267 266
f 266 267 268
f 267 269 268
f 268 269 270
f 269 271 270
f 270 271 272
f 271 273 272
f 272 273 274
f 273 275 274
f 274 275 276
f 275 277 276
f 276 277 278
f 277 279 278
f 278 279 280
f 279 281 280
f 280 281 282
f 281 283 282
f 282 283 284
f 283 285 284
f 284 285 286
f 285 287 286
f 286 287 288
f 287 289 288
f 288 289 290
f 289 291 290
f 290 291 292
f 291 293 292
f 292 293 294
f 293 295 294
f 294 295 296
f 295 297 296
f 296 297 298
f 297 299 298
f 298 299 300
f 299 301 300
f 300 301 302
f 301 303 302
f 302 303 304
f 305 306 307
f 305 308 306
f 305 354 308
f 306 309 307
f 308 354 353
f 310 311 312
f 311 313 312
f 312 313 314
f 313 315 314
f 314 315 316
f 315 317 316
f 316 317 318
f 317 319 318
f 318 319 320
f 319 321 320
f 320 321 322
f 321 323 322
f 322 323 324
f 323 325 324
f 324 325 326
f 325 327 326
f 326 327 328
f 327 329 328
f 328 329 330
f 329 331 330
f 330 331 332
f 331 333 332
f 332 333 334
f 333 335 334
f 334 335 336
f 335 337 336
f 336 337 338
f 337 339 338
f 338 339 340
f 339 341 340
f 340 341 342
f 341 343 342
f 342 343 344
f 343 345 344
f 344 345 346
f 345 347 346
f 346 347 348
f 347 349 348
f 348 349 350
f 349 351 350
f 350 351 352
f 351 353 352
f 352 353 354
f 355 356 357
f 355 358 356
f 355 404 358
f 356 359 357
f 358 404 403
f 360 361 362
f 361 363 362
f 362 363 364
f 363 365 364
f 364 365 366
f 365 367 366
f 366 367 368
f 367 369 368
f 368 369 370
f 369 371 370
f 370 371 372
f 371 373 372
f 372 373 374
f 373 375 374
f 374 375 376
f 375 377 376
f 376 377 378
f 377 379 378
f 378 379 380
f 379 381 380
f 380 381 382
f 381 383 382
f 382 383 384
f 383 385 384
f 384 385 386
f 385 387 386
f 386 387 388
f 387 389 388
f 388 389 390
f 389 391 390
f 390 391 392
f 391 393 392
f 392 393 394
f 393 395 394
f 394 395 396
f 395 397 396
f 396 397 398
f 397 399 398
f 398 399 400
f 399 401 400
f 400 401 402
f 401 403 402
f 402 403 404
f 405 406 407
f 405 408 406
f 405 454 408
f 406 409 407
f 408 454 453
f 410 411 412
f 411 413 412
f 412 413 414
f 413 415 414
f 414 415 416
f 415 417 416
f 416 417 418
f 417 419 418
f 418 419 420
f 419 421 420
f 420 421 422
f 421 423 422
f 422 423 424
f 423 425 424
f 424 425 426
f 425 427 426
f 426 427 428
f 427 429 428
f 428 429 430
f 429 431 430
f 430 431 432
f 431 433 432
f 432 433 434
f 433 435 434
f 434 435 436
f 435 437 436
f 436 437 438
f 437 439 438
f 438 439 440
f 439 441 440
f 440 441 442
f 441 443 442
f 442 443 444
f 443 445 444
f 444 445 446
f 445 447 446
f 446 447 448
f 447 449 448
f 448 449 450
f 449 451 450
f 450 451 452
f 451 453 452
f 452 453 454
f 456 457 458
f 457 459 458
f 460 461 462
f 461 463 462
f 464 465 466
f 465 467 466
f 469 470 471
f 470 472 471
f 473 474 475
f 474 476 475
f 477 478 479
f 478 480 479
f 482 483 484
f 483 485 484
f 486 487 488
f 487 489 488
f 490 491 492
f 491 493 492
f 495 496 497
f 496 498 497
f 499 500 501
f 500 502 501
f 503 504 505
f 504 506 505
f 508 509 510
f 509 511 510
f 512 513 514
f 513 515 514
f 516 517 518
f 517 519 518
f 521 522 523
f 522 524 523
f 525 526 527
f 526 528 527
f 529 530 531
f 530 532 531
f 534 535 536
f 535 537 536
f 538 539 540
f 539 541 540
f 542 543 544
f 543 545 544
f 547 548 549
f 548 550 549
f 551 552 553
f 552 554 553
f 555 556 557
f 556 558 557
f 559 560 561
f 560 562 561
f 563 564 565
f 563 566 564
f 564 566 567
f 564 567 568
f 564 569 570
f 564 570 571
f 564 572 565
f 564 568 569
f 565 572 573
f 565 573 574
f 570 591 571
f 571 577 576
f 571 578 577
f 571 591 578
f 572 575 573
f 572 576 575
f 573 703 574
f 574 702 687
f 574 687 701
f 574 703 704
f 574 705 702
f 574 704 705
f 575 576 577
f 575 577 584
f 577 579 580
f 577 580 581
f 577 582 583
f 577 583 584
f 577 585 586
f 577 586 587
f 577 588 589
f 577 589 590
f 577 613 585
f 577 590 579
f 577 581 582
f 577 587 588
f 578 591 592
f 578 617 599
f 578 618 617
f 578 619 618
f 578 620 619
f 578 621 620
f 578 622 621
f 578 623 622
f 578 624 623
f 578 625 624
f 578 592 625
f 582 696 583
f 583 686 688
f 583 688 694
f 583 694 695
f 583 696 668
f 583 668 683
f 583 720 584
f 583 695 720
f 584 715 703
f 584 716 715
f 584 717 716
f 584 718 717
f 584 719 718
f 584 720 719
f 585 613 635
f 591 593 592
f 591 594 593
f 591 595 594
f 591 596 595
f 595 596 597
f 596 598 599
f 596 600 597
f 596 601 600
f 596 602 601
f 596 603 602
f 596 604 603
f 596 605 604
f 596 599 605
f 598 607 599
f 599 606 605
f 599 607 608
f 599 609 610
f 599 610 611
f 599 612 613
f 599 614 606
f 599 615 614
f 599 616 615
f 599 617 616
f 599 608 609
f 599 611 612
f 612 626 627
f 612 627 613
f 613 627 628
f 613 629 630
f 613 630 631
f 613 632 633
f 613 633 634
f 613 628 629
f 613 631 632
f 613 634 635
f 626 636 627
f 626 639 640
f 626 640 641
f 626 642 636
f 626 650 639
f 626 641 642
f 628 637 638
f 628 638 629
f 628 649 637
f 636 642 643
f 636 644 645
f 636 645 646
f 636 647 648
f 636 648 649
f 636 643 644
f 636 646 647
f 637 649 675
f 639 650 651
f 639 651 652
f 639 652 653
f 639 654 655
f 639 655 656
f 639 653 654
f 640 657 641
f 640 658 657
f 640 659 658
f 640 660 659
f 640 661 660
f 640 662 661
f 648 676 649
f 649 674 672
f 649 672 675
f 649 676 677
f 649 678 679
f 649 679 674
f 649 677 678
f 655 680 656
f 655 681 680
f 655 682 681
f 656 680 673
f 656 673 662
f 661 662 663
f 662 664 663
f 662 665 664
f 662 666 665
f 662 667 666
f 662 668 667
f 662 673 668
f 667 668 669
f 668 670 671
f 668 671 672
f 668 674 669
f 668 672 674
f 668 681 683
f 668 696 670
f 681 682 683
f 682 684 683
f 682 685 684
f 682 687 685
f 682 697 687
f 684 685 686
f 685 688 686
f 687 697 698
f 687 699 700
f 687 700 701
f 687 698 699
f 688 689 690
f 688 690 691
f 688 692 693
f 688 693 694
f 688 702 689
f 688 691 692
f 689 702 709
f 702 705 706
f 702 707 708
f 702 708 709
f 702 706 707
f 703 710 704
f 703 711 710
f 703 712 711
f 703 713 712
f 703 714 713
f 703 715 714