# ANSI B18.6.5M - M2.5x0.45 x 4(38)
# Autodesk dbId: 75
# Units: mm
o 075_ANSI_B18.6.5M_-_M2.5x0.45_x_4(38)
v 0.016548 -59.251493 29.570828
v -0.283051 -59.251493 29.538469
v -0.212854 -61.251492 29.236522
v 0.031369 -61.251492 29.260415
v 0.315186 -59.251493 29.530549
v 0.273454 -61.251492 29.220284
v 0.595506 -59.251493 29.419971
v 0.496904 -61.251492 29.118864
v 0.841217 -59.251493 29.245521
v 0.686491 -61.251492 28.963067
v 1.038040 -59.251493 29.017338
v 0.829295 -61.251492 28.763510
v 1.174536 -59.251493 28.748682
v 0.915583 -61.251493 28.533792
v 1.242772 -59.251493 28.455168
v 0.939476 -61.251493 28.289569
v 1.238782 -59.251493 28.153853
v 0.899345 -61.251493 28.047484
v 1.162800 -59.251493 27.862248
v 0.797926 -61.251493 27.824034
v 1.019239 -59.251493 27.597300
v 0.642129 -61.251493 27.634447
v 0.816444 -59.251493 27.374408
v 0.442572 -61.251493 27.491643
v 0.566200 -59.251493 27.206525
v 0.212854 -61.251493 27.405355
v -0.016548 -59.251493 27.071048
v 0.283051 -59.251493 27.103407
v -0.031369 -61.251493 27.381462
v -0.315186 -59.251493 27.111328
v -0.273455 -61.251493 27.421593
v -0.595506 -59.251493 27.221906
v -0.496905 -61.251493 27.523012
v -0.841217 -59.251493 27.396355
v -0.686491 -61.251493 27.678809
v -1.038040 -59.251493 27.624538
v -0.829295 -61.251492 27.878366
v -1.174536 -59.251493 27.893194
v -0.915583 -61.251493 28.108084
v -1.242772 -59.251493 28.186708
v -0.939476 -61.251493 28.352307
v -1.238783 -59.251493 28.488024
v -0.899346 -61.251493 28.594393
v -1.162800 -59.251493 28.779628
v -0.797926 -61.251493 28.817843
v -1.019239 -59.251493 29.044576
v -0.642129 -61.251492 29.007430
v -0.816444 -59.251493 29.267468
v -0.442572 -61.251493 29.150233
v -0.566200 -59.251493 29.435351
v -0.283051 -57.251493 29.538469
v -0.566200 -59.251493 29.435351
v -0.283051 -59.251493 29.538469
v 0.016548 -57.251493 29.570828
v -0.566200 -57.251493 29.435351
v -0.816444 -59.251493 29.267468
v -0.816444 -57.251493 29.267468
v -1.019239 -59.251493 29.044576
v -1.019239 -57.251493 29.044576
v -1.162800 -59.251493 28.779628
v -1.162800 -57.251493 28.779628
v -1.238783 -59.251493 28.488024
v -1.238782 -57.251493 28.488023
v -1.242772 -59.251493 28.186708
v -1.242772 -57.251493 28.186708
v -1.174536 -59.251493 27.893194
v -1.174536 -57.251493 27.893194
v -1.038040 -59.251493 27.624538
v -1.038040 -57.251493 27.624538
v -0.841217 -59.251493 27.396355
v -0.841217 -57.251493 27.396355
v -0.595506 -59.251493 27.221906
v -0.595506 -57.251493 27.221905
v -0.315186 -59.251493 27.111328
v -0.315186 -57.251493 27.111328
v -0.016548 -59.251493 27.071048
v -0.016548 -57.251493 27.071048
v 0.283051 -59.251493 27.103407
v 0.283051 -57.251493 27.103407
v 0.566200 -59.251493 27.206525
v 0.283051 -59.251493 27.103407
v 0.566200 -57.251493 27.206525
v 0.816444 -59.251493 27.374408
v 0.816444 -57.251493 27.374408
v 1.019239 -59.251493 27.597300
v 1.019239 -57.251493 27.597300
v 1.162800 -59.251493 27.862248
v 1.162800 -57.251493 27.862248
v 1.238782 -59.251493 28.153853
v 1.238782 -57.251493 28.153853
v 1.242772 -59.251493 28.455168
v 1.242772 -57.251493 28.455168
v 1.174536 -59.251493 28.748682
v 1.174536 -57.251493 28.748682
v 1.038040 -59.251493 29.017338
v 1.038040 -57.251493 29.017338
v 0.841217 -59.251493 29.245521
v 0.841217 -57.251493 29.245521
v 0.595506 -59.251493 29.419971
v 0.595506 -57.251493 29.419971
v 0.315186 -59.251493 29.530549
v 0.315186 -57.251493 29.530548
v 0.016548 -59.251493 29.570828
v 0.026491 -55.389659 29.680313
v 0.027873 -55.383329 29.655387
v -0.197514 -55.389659 29.666148
v 0.028878 -55.381346 29.630363
v -0.187433 -55.382658 29.600035
v -0.192531 -55.382084 29.633514
v 0.029467 -55.384238 29.605034
v -0.182508 -55.391348 29.567672
v 0.029656 -55.391354 29.580601
v -0.178034 -55.407645 29.538319
v 0.029387 -55.402909 29.558240
v 0.028710 -55.418423 29.537749
v -0.174259 -55.430595 29.513698
v 0.027641 -55.436952 29.521115
v 0.026179 -55.458855 29.507404
v -0.171392 -55.458855 29.495251
v -0.369759 -55.430595 29.468249
v -0.364195 -55.458855 29.450429
v -0.546866 -55.458855 29.374183
v -0.554226 -55.436952 29.385843
v -0.562523 -55.418423 29.400300
v -0.377232 -55.407645 29.492010
v -0.572169 -55.402909 29.418391
v -0.582274 -55.391354 29.438340
v -0.386164 -55.391348 29.520326
v -0.592882 -55.384238 29.460351
v -0.396021 -55.382658 29.551543
v -0.603527 -55.381346 29.483342
v -0.406214 -55.382084 29.583837
v -0.613664 -55.383329 29.506242
v -0.623418 -55.389659 29.529222
v -0.416137 -55.389659 29.615322
v -0.005292 -55.902166 29.286652
v 0.026179 -55.458855 29.507404
v 0.009603 -55.692303 29.391257
v -0.018743 -56.091789 29.191922
v -0.030944 -56.263903 29.105701
v -0.171392 -55.458855 29.495251
v -0.129323 -56.263903 29.095590
v -0.225652 -56.263903 29.073196
v -0.364195 -55.458855 29.450429
v -0.318402 -56.263903 29.038873
v -0.367386 -56.091789 29.110870
v -0.421244 -55.902166 29.189951
v -0.480755 -55.692303 29.277259
v 1.359375 -55.389659 28.294447
v 1.334449 -55.383330 28.293065
v 1.345210 -55.389659 28.518452
v 1.309425 -55.381347 28.292060
v 1.279097 -55.382658 28.508371
v 1.312576 -55.382084 28.513469
v 1.284096 -55.384238 28.291471
v 1.246734 -55.391348 28.503446
v 1.259664 -55.391354 28.291282
v 1.217382 -55.407645 28.498972
v 1.237302 -55.402909 28.291551
v 1.216811 -55.418423 28.292228
v 1.192761 -55.430595 28.495197
v 1.200177 -55.436952 28.293297
v 1.186466 -55.458855 28.294759
v 1.174313 -55.458855 28.492330
v 1.147311 -55.430595 28.690697
v 1.129491 -55.458855 28.685133
v 1.053245 -55.458855 28.867803
v 1.064905 -55.436952 28.875164
v 1.079362 -55.418423 28.883461
v 1.171072 -55.407645 28.698170
v 1.097453 -55.402909 28.893107
v 1.117402 -55.391354 28.903212
v 1.199388 -55.391348 28.707102
v 1.139413 -55.384238 28.913820
v 1.230605 -55.382658 28.716959
v 1.162404 -55.381346 28.924465
v 1.262899 -55.382084 28.727152
v 1.185304 -55.383329 28.934601
v 1.208284 -55.389659 28.944356
v 1.294385 -55.389659 28.737075
v 0.965714 -55.902166 28.326230
v 1.186466 -55.458855 28.294759
v 1.070319 -55.692303 28.311335
v 0.870984 -56.091789 28.339681
v 0.784763 -56.263903 28.351882
v 1.174313 -55.458855 28.492330
v 0.774652 -56.263903 28.450261
v 0.752258 -56.263903 28.546590
v 1.129491 -55.458855 28.685133
v 0.717935 -56.263903 28.639340
v 0.789932 -56.091789 28.688324
v 0.869013 -55.902166 28.742182
v 0.956321 -55.692303 28.801693
v -0.026491 -55.389659 26.961563
v -0.027873 -55.383329 26.986489
v 0.197514 -55.389659 26.975728
v -0.028878 -55.381347 27.011513
v 0.187433 -55.382658 27.041841
v 0.192531 -55.382084 27.008362
v -0.029467 -55.384238 27.036842
v 0.182509 -55.391348 27.074204
v -0.029656 -55.391354 27.061274
v 0.178034 -55.407645 27.103556
v -0.029387 -55.402909 27.083636
v -0.028710 -55.418423 27.104126
v 0.174259 -55.430595 27.128177
v -0.027641 -55.436952 27.120761
v -0.026179 -55.458855 27.134472
v 0.171392 -55.458855 27.146625
v 0.369759 -55.430595 27.173627
v 0.364195 -55.458855 27.191447
v 0.546866 -55.458855 27.267693
v 0.554226 -55.436952 27.256033
v 0.562523 -55.418423 27.241576
v 0.377232 -55.407645 27.149866
v 0.572170 -55.402909 27.223485
v 0.582274 -55.391354 27.203535
v 0.386164 -55.391348 27.121550
v 0.592883 -55.384238 27.181525
v 0.396021 -55.382658 27.090333
v 0.603527 -55.381347 27.158534
v 0.406214 -55.382084 27.058038
v 0.613664 -55.383330 27.135633
v 0.623418 -55.389659 27.112654
v 0.416137 -55.389659 27.026553
v 0.005292 -55.902166 27.355224
v -0.026179 -55.458855 27.134472
v -0.009603 -55.692303 27.250619
v 0.018743 -56.091790 27.449954
v 0.030944 -56.263903 27.536175
v 0.171392 -55.458855 27.146625
v 0.129323 -56.263903 27.546286
v 0.225652 -56.263903 27.568680
v 0.364195 -55.458855 27.191447
v 0.318402 -56.263903 27.603003
v 0.367386 -56.091789 27.531006
v 0.421244 -55.902166 27.451925
v 0.480755 -55.692303 27.364617
v -1.359375 -55.389659 28.347429
v -1.334449 -55.383330 28.348811
v -1.345210 -55.389659 28.123424
v -1.309425 -55.381346 28.349816
v -1.279097 -55.382658 28.133505
v -1.312576 -55.382084 28.128407
v -1.284096 -55.384238 28.350405
v -1.246734 -55.391348 28.138429
v -1.259664 -55.391354 28.350593
v -1.217382 -55.407645 28.142904
v -1.237302 -55.402909 28.350325
v -1.216811 -55.418423 28.349648
v -1.192760 -55.430595 28.146679
v -1.200177 -55.436952 28.348579
v -1.186466 -55.458855 28.347117
v -1.174313 -55.458855 28.149546
v -1.147311 -55.430595 27.951178
v -1.129491 -55.458855 27.956743
v -1.053245 -55.458855 27.774072
v -1.064905 -55.436952 27.766712
v -1.079362 -55.418423 27.758415
v -1.171072 -55.407645 27.943706
v -1.097453 -55.402909 27.748768
v -1.117402 -55.391354 27.738664
v -1.199388 -55.391348 27.934774
v -1.139413 -55.384238 27.728055
v -1.230605 -55.382658 27.924917
v -1.162404 -55.381346 27.717411
v -1.262899 -55.382084 27.914724
v -1.185304 -55.383330 27.707274
v -1.208284 -55.389659 27.697520
v -1.294384 -55.389659 27.904801
v -0.965714 -55.902166 28.315646
v -1.186466 -55.458855 28.347117
v -1.070319 -55.692303 28.330541
v -0.870984 -56.091789 28.302195
v -0.784763 -56.263903 28.289994
v -1.174313 -55.458855 28.149546
v -0.774652 -56.263903 28.191615
v -0.752258 -56.263903 28.095286
v -1.129491 -55.458855 27.956743
v -0.717935 -56.263903 28.002536
v -0.789932 -56.091789 27.953552
v -0.869013 -55.902166 27.899693
v -0.956321 -55.692303 27.840183
v 0.568953 -55.207892 28.673507
v 0.869013 -55.902166 28.742182
v 0.789932 -56.091789 28.688324
v 0.609258 -56.328612 28.584124
v 0.784767 -55.254603 28.766341
v 0.717935 -56.263903 28.639340
v 0.263186 -56.328612 27.711680
v 0.327869 -55.194590 27.835804
v 0.352569 -55.207892 27.751985
v 0.225829 -56.386696 27.814321
v 0.213800 -56.442918 27.926431
v 0.323757 -55.184786 27.920472
v 0.218519 -56.467671 27.983317
v 0.340412 -55.178425 28.006551
v 0.230662 -56.488036 28.039557
v 0.250489 -56.501933 28.094503
v 0.377941 -55.176287 28.086785
v 0.278485 -56.507055 28.147513
v 0.313709 -56.501933 28.196021
v 0.431648 -55.178381 28.153470
v 0.354274 -56.488036 28.238053
v 0.399390 -56.467671 28.273759
v 0.500869 -55.184638 28.206252
v 0.448361 -56.442918 28.303088
v 0.554280 -56.386695 28.341746
v 0.581839 -55.194847 28.241232
v 0.445403 -55.254603 27.536171
v 0.421244 -55.902166 27.451925
v 0.352569 -55.207892 27.751985
v -0.609258 -56.328612 28.057752
v -0.485134 -55.194589 27.993069
v -0.568952 -55.207892 27.968369
v -0.506617 -56.386696 28.095109
v -0.394507 -56.442918 28.107138
v -0.400466 -55.184786 27.997181
v -0.337621 -56.467671 28.102419
v -0.314387 -55.178425 27.980526
v -0.281381 -56.488036 28.090276
v -0.226434 -56.501933 28.070449
v -0.234153 -55.176287 27.942997
v -0.173425 -56.507055 28.042453
v -0.124917 -56.501933 28.007229
v -0.167468 -55.178381 27.889290
v -0.082885 -56.488036 27.966664
v -0.047179 -56.467671 27.921548
v -0.114686 -55.184638 27.820069
v -0.017850 -56.442918 27.872577
v 0.020808 -56.386696 27.766658
v -0.079706 -55.194847 27.739099
v 0.065438 -55.207892 28.987068
v 0.079706 -55.194847 28.902777
v -0.032558 -56.328612 28.983812
v 0.506617 -56.386695 28.546767
v 0.485134 -55.194590 28.648807
v 0.609258 -56.328612 28.584124
v 0.394507 -56.442918 28.534737
v 0.400466 -55.184786 28.644695
v 0.337621 -56.467671 28.539457
v 0.314387 -55.178425 28.661350
v 0.281381 -56.488036 28.551600
v 0.226435 -56.501933 28.571427
v 0.234153 -55.176287 28.698879
v 0.173425 -56.507055 28.599423
v 0.124917 -56.501933 28.634647
v 0.167468 -55.178381 28.752586
v 0.082885 -56.488036 28.675212
v 0.047179 -56.467671 28.720328
v 0.114686 -55.184638 28.821807
v 0.017850 -56.442918 28.769299
v -0.020808 -56.386695 28.875218
v -0.352569 -55.207892 28.889890
v -0.421244 -55.902166 29.189951
v -0.367386 -56.091789 29.110870
v -0.263186 -56.328612 28.930196
v -0.445403 -55.254602 29.105705
v -0.318402 -56.263903 29.038873
v -0.784767 -55.254603 27.875535
v -0.869013 -55.902166 27.899693
v -0.568952 -55.207892 27.968369
v -0.225829 -56.386695 28.827555
v -0.327869 -55.194590 28.806072
v -0.263186 -56.328612 28.930196
v -0.213799 -56.442918 28.715445
v -0.323757 -55.184786 28.721404
v -0.218519 -56.467671 28.658559
v -0.340412 -55.178425 28.635325
v -0.230662 -56.488036 28.602319
v -0.250489 -56.501933 28.547372
v -0.377941 -55.176287 28.555091
v -0.278485 -56.507055 28.494363
v -0.313709 -56.501933 28.445855
v -0.431648 -55.178381 28.488406
v -0.354274 -56.488036 28.403823
v -0.399390 -56.467671 28.368117
v -0.500869 -55.184638 28.435624
v -0.448361 -56.442918 28.338788
v -0.554280 -56.386695 28.300130
v -0.581839 -55.194847 28.400644
v -0.146431 -57.251493 30.816646
v -0.566102 -57.251493 30.756000
v -0.283051 -57.251493 29.538469
v -0.000000 -56.681493 28.320938
v -0.554280 -56.386695 28.300130
v -0.448361 -56.442918 28.338788
v 1.079655 -55.940524 30.447913
v 1.122592 -55.748944 30.099266
v 0.635773 -55.601811 30.051704
v 0.529576 -55.844821 30.508509
v 1.432598 -55.940524 30.228120
v 1.742012 -55.940524 29.950378
v 1.692701 -55.792103 29.680814
v 1.230622 -55.579391 29.634579
v 1.998496 -55.940524 29.623125
v 1.798081 -55.695339 29.227527
v 2.194257 -55.940524 29.256307
v 1.905840 -55.662731 28.764006
v 2.381842 -55.940525 28.449417
v 2.013524 -55.695294 28.300808
v 1.905840 -55.662731 28.764006
v 2.323347 -55.940525 28.861068
v 2.367967 -55.940525 28.033863
v 2.282142 -55.940525 27.627031
v 2.118979 -55.792104 27.847199
v 1.907182 -55.940525 26.888340
v 1.629440 -55.940525 26.578926
v 1.440244 -55.844821 26.591309
v -1.079655 -55.940525 26.193962
v -1.122591 -55.748945 26.542610
v -0.635773 -55.601812 26.590172
v -0.529576 -55.844821 26.133367
v -1.432598 -55.940525 26.413756
v -1.742012 -55.940525 26.691498
v -1.692701 -55.792104 26.961062
v -1.230622 -55.579391 27.007297
v -1.998496 -55.940525 27.018750
v -1.798081 -55.695339 27.414349
v -2.194257 -55.940525 27.385569
v -1.905840 -55.662731 27.877869
v -2.381842 -55.940524 28.192459
v -2.013524 -55.695294 28.341068
v -1.905840 -55.662731 27.877869
v -2.323346 -55.940525 27.780808
v -2.367967 -55.940525 28.608013
v -2.282142 -55.940524 29.014845
v -2.118979 -55.792103 28.794677
v -2.126975 -55.940525 29.400593
v -1.791921 -55.748944 29.421702
v -1.907182 -55.940524 29.753536
v -1.629440 -55.940524 30.062950
v -1.302188 -55.940524 30.319434
v -1.440244 -55.844821 30.050567
v -0.935369 -55.940524 30.515195
v -0.963286 -55.761680 30.213357
v -0.540130 -55.940524 30.644284
v -0.470620 -55.733815 30.345289
v 1.457256 -55.441826 28.659720
v 1.571893 -55.476532 28.166616
v -0.738882 -55.331227 29.248096
v -0.445403 -55.254602 29.105705
v -0.619390 -55.221398 28.734106
v -1.221344 -55.424926 29.108980
v -1.104643 -55.317705 28.606995
v -1.683891 -55.579391 28.957015
v -0.854418 -55.512561 29.745066
v -1.571893 -55.476533 28.475260
v -1.334046 -55.601812 29.593762
v 0.748475 -55.424926 29.566923
v 0.254124 -55.331227 29.478949
v 0.138588 -55.512561 29.975920
v 0.864907 -55.317869 29.066095
v -0.352569 -55.207892 28.889890
v -0.327869 -55.194590 28.806072
v -0.323757 -55.184786 28.721404
v -0.340412 -55.178425 28.635325
v -0.377941 -55.176287 28.555091
v -0.431648 -55.178381 28.488406
v -0.500869 -55.184638 28.435624
v -0.581839 -55.194847 28.400644
v -0.900764 -55.254603 28.374490
v -1.132123 -55.315264 28.361492
v -1.359375 -55.389659 28.347429
v -1.345210 -55.389659 28.123424
v -1.457256 -55.441826 27.982156
v -0.373244 -55.221625 27.675320
v -0.568952 -55.207892 27.968369
v -0.400466 -55.184786 27.997181
v -0.167468 -55.178381 27.889290
v -0.114686 -55.184638 27.820069
v -0.079706 -55.194847 27.739099
v -0.065438 -55.207892 27.654807
v -0.053552 -55.254603 27.420174
v -0.254123 -55.331228 27.162926
v -0.864907 -55.317869 27.575781
v -0.784767 -55.254603 27.875535
v -0.748475 -55.424926 27.074953
v -1.342451 -55.476635 27.488326
v -0.040554 -55.315264 27.188815
v -0.026491 -55.389659 26.961563
v 0.738882 -55.331228 27.393780
v 0.445403 -55.254603 27.536171
v 0.619390 -55.221398 27.907770
v 1.221344 -55.424926 27.532895
v 0.854418 -55.512561 26.896810
v 1.104643 -55.317705 28.034881
v 1.683891 -55.579391 27.684861
v 1.334046 -55.601812 27.048114
v 1.791921 -55.748945 27.220174
v 2.126975 -55.940525 27.241283
v 0.963286 -55.761681 26.428519
v 0.360857 -55.482648 26.768728
v 0.197514 -55.389659 26.975728
v 0.416137 -55.389659 27.026553
v 0.623418 -55.389659 27.112654
v 0.470620 -55.733816 26.296587
v -0.029720 -55.761681 26.197665
v -0.138588 -55.512561 26.665956
v 0.352569 -55.207892 27.751985
v 0.327869 -55.194590 27.835804
v 0.323757 -55.184786 27.920472
v 0.340412 -55.178425 28.006551
v 0.500869 -55.184638 28.206252
v 0.581839 -55.194847 28.241232
v 0.900764 -55.254602 28.267386
v 1.132123 -55.315264 28.280384
v 1.359375 -55.389659 28.294447
v 0.373244 -55.221625 28.966556
v 0.784767 -55.254603 28.766341
v 0.568953 -55.207892 28.673507
v 0.998133 -55.315264 28.856733
v 1.342451 -55.476635 29.153550
v 1.208284 -55.389659 28.944356
v 1.457256 -55.441826 28.659720
v 0.287075 -55.940524 30.688905
v 0.693907 -55.940524 30.603080
v 0.029720 -55.761680 30.444210
v -0.128479 -55.940524 30.702780
v -0.360857 -55.482648 29.873148
v 1.302187 -55.940525 26.322442
v 0.935369 -55.940525 26.126681
v 0.540130 -55.940525 25.997591
v 0.128479 -55.940525 25.939096
v -0.287075 -55.940525 25.952971
v -0.693907 -55.940525 26.038796
v -0.212854 -61.251492 29.236522
v -0.283051 -59.251493 29.538469
v 0.283051 -57.251493 27.103407
v -0.212854 -61.251492 29.236522
v -0.442572 -61.251493 29.150233
v 0.031369 -61.251492 29.260415
v 0.273454 -61.251492 29.220284
v -0.642129 -61.251492 29.007430
v 0.496904 -61.251492 29.118864
v -0.797926 -61.251493 28.817843
v 0.686491 -61.251492 28.963067
v -0.899346 -61.251493 28.594393
v 0.829295 -61.251492 28.763510
v -0.939476 -61.251493 28.352307
v 0.915583 -61.251493 28.533792
v -0.915583 -61.251493 28.108084
v 0.939476 -61.251493 28.289569
v -0.829295 -61.251492 27.878366
v 0.899345 -61.251493 28.047484
v -0.686491 -61.251493 27.678809
v 0.797926 -61.251493 27.824034
v -0.496905 -61.251493 27.523012
v 0.642129 -61.251493 27.634447
v -0.273455 -61.251493 27.421593
v 0.442572 -61.251493 27.491643
v -0.031369 -61.251493 27.381462
v 0.212854 -61.251493 27.405355
v -0.546866 -55.458855 29.374183
v 1.053245 -55.458855 28.867803
v 0.546866 -55.458855 27.267693
v -1.053245 -55.458855 27.774072
v 0.956321 -55.692303 28.801693
v 0.998133 -55.315264 28.856733
v 1.053245 -55.458855 28.867803
v 1.064905 -55.436952 28.875164
v 1.079362 -55.418423 28.883461
v 1.097453 -55.402909 28.893107
v 1.117402 -55.391354 28.903212
v 1.139413 -55.384238 28.913820
v 1.162404 -55.381346 28.924465
v 1.185304 -55.383329 28.934601
v 1.208284 -55.389659 28.944356
v 1.359375 -55.389659 28.294447
v 1.132123 -55.315264 28.280384
v 1.334449 -55.383330 28.293065
v 1.309425 -55.381347 28.292060
v 1.284096 -55.384238 28.291471
v 1.259664 -55.391354 28.291282
v 1.237302 -55.402909 28.291551
v 1.216811 -55.418423 28.292228
v 1.200177 -55.436952 28.293297
v 1.186466 -55.458855 28.294759
v 1.070319 -55.692303 28.311335
v 0.900764 -55.254602 28.267386
v 0.965714 -55.902166 28.326230
v 0.666130 -55.207892 28.255500
v 0.870984 -56.091789 28.339681
v 0.662874 -56.328612 28.353496
v 0.784763 -56.263903 28.351882
v 0.666130 -55.207892 28.255500
v 0.662874 -56.328612 28.353496
v 0.480755 -55.692303 27.364617
v 0.367386 -56.091789 27.531006
v 0.263186 -56.328612 27.711680
v 0.318402 -56.263903 27.603003
v 0.535795 -55.315264 27.322805
v 0.546866 -55.458855 27.267693
v 0.554226 -55.436952 27.256033
v 0.562523 -55.418423 27.241576
v 0.572170 -55.402909 27.223485
v 0.582274 -55.391354 27.203535
v 0.592883 -55.384238 27.181525
v 0.603527 -55.381347 27.158534
v 0.613664 -55.383330 27.135633
v 0.623418 -55.389659 27.112654
v -0.026491 -55.389659 26.961563
v -0.040554 -55.315264 27.188815
v -0.027873 -55.383329 26.986489
v -0.028878 -55.381347 27.011513
v -0.029467 -55.384238 27.036842
v -0.029656 -55.391354 27.061274
v -0.029387 -55.402909 27.083636
v -0.028710 -55.418423 27.104126
v -0.027641 -55.436952 27.120761
v -0.026179 -55.458855 27.134472
v -0.009603 -55.692303 27.250619
v -0.053552 -55.254603 27.420174
v 0.005292 -55.902166 27.355224
v -0.065438 -55.207892 27.654807
v 0.018743 -56.091790 27.449954
v 0.032558 -56.328612 27.658064
v 0.030944 -56.263903 27.536175
v -0.065438 -55.207892 27.654807
v 0.032558 -56.328612 27.658064
v 0.568953 -55.207892 28.673507
v -0.480755 -55.692303 29.277259
v -0.535795 -55.315264 29.319071
v -0.546866 -55.458855 29.374183
v -0.554226 -55.436952 29.385843
v -0.562523 -55.418423 29.400300
v -0.572169 -55.402909 29.418391
v -0.582274 -55.391354 29.438340
v -0.592882 -55.384238 29.460351
v -0.603527 -55.381346 29.483342
v -0.613664 -55.383329 29.506242
v -0.623418 -55.389659 29.529222
v -0.956321 -55.692303 27.840183
v -0.789932 -56.091789 27.953552
v -0.609258 -56.328612 28.057752
v -0.717935 -56.263903 28.002536
v -0.998133 -55.315264 27.785143
v -1.053245 -55.458855 27.774072
v -1.064905 -55.436952 27.766712
v -1.079362 -55.418423 27.758415
v -1.097453 -55.402909 27.748768
v -1.117402 -55.391354 27.738664
v -1.139413 -55.384238 27.728055
v -1.162404 -55.381346 27.717411
v -1.185304 -55.383330 27.707274
v -1.208284 -55.389659 27.697520
v -1.359375 -55.389659 28.347429
v -1.132123 -55.315264 28.361492
v -1.334449 -55.383330 28.348811
v -1.309425 -55.381346 28.349816
v -1.284096 -55.384238 28.350405
v -1.259664 -55.391354 28.350593
v -1.237302 -55.402909 28.350325
v -1.216811 -55.418423 28.349648
v -1.200177 -55.436952 28.348579
v -1.186466 -55.458855 28.347117
v -1.070319 -55.692303 28.330541
v -0.900764 -55.254603 28.374490
v -0.965714 -55.902166 28.315646
v -0.666130 -55.207892 28.386376
v -0.870984 -56.091789 28.302195
v -0.662874 -56.328612 28.288380
v -0.784763 -56.263903 28.289994
v -0.666130 -55.207892 28.386376
v -0.662874 -56.328612 28.288380
v -0.352569 -55.207892 28.889890
v 0.026491 -55.389659 29.680313
v 0.040554 -55.315264 29.453061
v 0.027873 -55.383329 29.655387
v 0.028878 -55.381346 29.630363
v 0.029467 -55.384238 29.605034
v 0.029656 -55.391354 29.580601
v 0.029387 -55.402909 29.558240
v 0.028710 -55.418423 29.537749
v 0.027641 -55.436952 29.521115
v 0.026179 -55.458855 29.507404
v 0.009603 -55.692303 29.391257
v 0.053552 -55.254603 29.221701
v -0.005292 -55.902166 29.286652
v 0.065438 -55.207892 28.987068
v -0.018743 -56.091789 29.191922
v -0.032558 -56.328612 28.983812
v -0.030944 -56.263903 29.105701
v -0.969486 -57.251493 30.625302
v -0.566200 -57.251493 29.435351
v -1.344981 -57.251493 30.428312
v -0.816444 -57.251493 29.267468
v -1.681782 -57.251493 30.170697
v -1.970202 -57.251493 29.859867
v -1.019239 -57.251493 29.044576
v -2.201943 -57.251493 29.504765
v -1.162800 -57.251493 28.779628
v -2.370338 -57.251493 29.115607
v -1.238782 -57.251493 28.488023
v -2.470542 -57.251493 28.703587
v -2.499674 -57.251493 28.280559
v -1.242772 -57.251493 28.186708
v -2.456894 -57.251493 27.858693
v -1.174536 -57.251493 27.893194
v -2.343434 -57.251493 27.450125
v -2.162558 -57.251493 27.066609
v -1.038040 -57.251493 27.624538
v -1.919469 -57.251493 26.719177
v -0.841217 -57.251493 27.396355
v -1.621160 -57.251493 26.417825
v -1.276214 -57.251493 26.171222
v -0.595506 -57.251493 27.221905
v -0.894553 -57.251493 25.986463
v -0.315186 -57.251493 27.111328
v -0.487157 -57.251493 25.868862
v -0.016548 -57.251493 27.071048
v -0.065747 -57.251493 25.821803
v 0.357554 -57.251493 25.846639
v 0.283051 -57.251493 27.103407
v 0.770570 -57.251493 25.942657
v 0.566200 -57.251493 27.206525
v 1.161417 -57.251493 26.107093
v 1.518853 -57.251493 26.335218
v 0.816444 -57.251493 27.374408
v 1.832594 -57.251493 26.620468
v 1.019239 -57.251493 27.597300
v 2.093615 -57.251493 26.954638
v 1.162800 -57.251493 27.862248
v 2.294406 -57.251493 27.328113
v 2.429191 -57.251493 27.730151
v 1.238782 -57.251493 28.153853
v 2.494093 -57.251493 28.149184
v 1.242772 -57.251493 28.455168
v 2.487244 -57.251493 28.573158
v 2.408842 -57.251493 28.989877
v 1.174536 -57.251493 28.748682
v 2.261142 -57.251493 29.387351
v 1.038040 -57.251493 29.017338
v 2.048393 -57.251493 29.754146
v 1.776715 -57.251493 30.079711
v 0.841217 -57.251493 29.245521
v 1.453925 -57.251493 30.354679
v 0.595506 -57.251493 29.419971
v 1.089308 -57.251493 30.571140
v 0.315186 -57.251493 29.530548
v 0.693353 -57.251493 30.722866
v 0.277452 -57.251493 30.805494
v 0.016548 -57.251493 29.570828
v -0.784763 -56.263903 28.289994
v -0.662874 -56.328612 28.288380
v -0.774652 -56.263903 28.191615
v -0.399390 -56.467671 28.368117
v -0.000000 -56.681493 28.320938
v -0.354274 -56.488036 28.403823
v -0.313709 -56.501933 28.445855
v -0.250489 -56.501933 28.547372
v -0.000000 -56.681493 28.320938
v -0.278485 -56.507055 28.494363
v -0.230662 -56.488036 28.602319
v -0.000000 -56.681493 28.320938
v -0.218519 -56.467671 28.658559
v -0.000000 -56.681493 28.320938
v -0.213799 -56.442918 28.715445
v -0.225829 -56.386695 28.827555
v -0.225652 -56.263903 29.073196
v -0.129323 -56.263903 29.095590
v -0.000000 -56.681493 28.320938
v -0.263186 -56.328612 28.930196
v -0.318402 -56.263903 29.038873
v -0.032558 -56.328612 28.983812
v -0.020808 -56.386695 28.875218
v -0.000000 -56.681493 28.320938
v -0.030944 -56.263903 29.105701
v 0.017850 -56.442918 28.769299
v 0.047179 -56.467671 28.720328
v -0.000000 -56.681493 28.320938
v 0.082885 -56.488036 28.675212
v 0.124917 -56.501933 28.634647
v 0.226435 -56.501933 28.571427
v -0.000000 -56.681493 28.320938
v 0.173425 -56.507055 28.599423
v 0.281381 -56.488036 28.551600
v -0.000000 -56.681493 28.320938
v 0.337621 -56.467671 28.539457
v -0.000000 -56.681493 28.320938
v 0.394507 -56.442918 28.534737
v 0.506617 -56.386695 28.546767
v 0.752258 -56.263903 28.546590
v 0.774652 -56.263903 28.450261
v -0.000000 -56.681493 28.320938
v 0.609258 -56.328612 28.584124
v 0.717935 -56.263903 28.639340
v 0.662874 -56.328612 28.353496
v 0.554280 -56.386695 28.341746
v -0.000000 -56.681493 28.320938
v 0.784763 -56.263903 28.351882
v 0.448361 -56.442918 28.303088
v 0.399390 -56.467671 28.273759
v -0.000000 -56.681493 28.320938
v 0.354274 -56.488036 28.238053
v 0.313709 -56.501933 28.196021
v 0.250489 -56.501933 28.094503
v -0.000000 -56.681493 28.320938
v 0.278485 -56.507055 28.147513
v 0.230662 -56.488036 28.039557
v -0.000000 -56.681493 28.320938
v 0.218519 -56.467671 27.983317
v -0.000000 -56.681493 28.320938
v 0.213800 -56.442918 27.926431
v 0.225829 -56.386696 27.814321
v 0.225652 -56.263903 27.568680
v -0.000000 -56.681493 28.320938
v 0.263186 -56.328612 27.711680
v 0.318402 -56.263903 27.603003
v 0.225652 -56.263903 27.568680
v 0.129323 -56.263903 27.546286
v -0.000000 -56.681493 28.320938
v 0.032558 -56.328612 27.658064
v 0.020808 -56.386696 27.766658
v -0.000000 -56.681493 28.320938
v 0.030944 -56.263903 27.536175
v -0.017850 -56.442918 27.872577
v -0.047179 -56.467671 27.921548
v -0.000000 -56.681493 28.320938
v -0.082885 -56.488036 27.966664
v -0.124917 -56.501933 28.007229
v -0.226434 -56.501933 28.070449
v -0.000000 -56.681493 28.320938
v -0.173425 -56.507055 28.042453
v -0.281381 -56.488036 28.090276
v -0.000000 -56.681493 28.320938
v -0.337621 -56.467671 28.102419
v -0.000000 -56.681493 28.320938
v -0.394507 -56.442918 28.107138
v -0.506617 -56.386696 28.095109
v -0.752258 -56.263903 28.095286
v -0.000000 -56.681493 28.320938
v -0.609258 -56.328612 28.057752
v -0.717935 -56.263903 28.002536
v -0.535795 -55.315264 29.319071
v -0.623418 -55.389659 29.529222
v -0.416137 -55.389659 29.615322
v -0.197514 -55.389659 29.666148
v 0.026491 -55.389659 29.680313
v 0.040554 -55.315264 29.453061
v 0.053552 -55.254603 29.221701
v 0.065438 -55.207892 28.987068
v 0.079706 -55.194847 28.902777
v 0.114686 -55.184638 28.821807
v 0.167468 -55.178381 28.752586
v 0.234153 -55.176287 28.698879
v 0.314387 -55.178425 28.661350
v 0.400466 -55.184786 28.644695
v 0.485134 -55.194590 28.648807
v -2.323346 -55.940525 27.780808
v -0.666130 -55.207892 28.386376
v -1.457256 -55.441826 27.982156
v -1.345210 -55.389659 28.123424
v -1.294384 -55.389659 27.904801
v -1.208284 -55.389659 27.697520
v -0.998133 -55.315264 27.785143
v -0.485134 -55.194589 27.993069
v -0.314387 -55.178425 27.980526
v -0.234153 -55.176287 27.942997
v 0.535795 -55.315264 27.322805
v 2.323347 -55.940525 28.861068
v 0.377941 -55.176287 28.086785
v 0.431648 -55.178381 28.153470
v 0.666130 -55.207892 28.255500
v 1.345210 -55.389659 28.518452
v 1.345210 -55.389659 28.518452
v 1.294385 -55.389659 28.737075
v -0.969486 -57.251493 30.625302
v -0.566102 -57.251493 30.756000
v -0.540130 -55.940524 30.644284
v -0.146431 -57.251493 30.816646
v -0.128479 -55.940524 30.702780
v 0.277452 -57.251493 30.805494
v 0.287075 -55.940524 30.688905
v 0.693353 -57.251493 30.722866
v 0.693907 -55.940524 30.603080
v 1.089308 -57.251493 30.571140
v 1.079655 -55.940524 30.447913
v 1.453925 -57.251493 30.354679
v 1.432598 -55.940524 30.228120
v 1.776715 -57.251493 30.079711
v 1.742012 -55.940524 29.950378
v 2.048393 -57.251493 29.754146
v 1.998496 -55.940524 29.623125
v 2.261142 -57.251493 29.387351
v 2.194257 -55.940524 29.256307
v 2.408842 -57.251493 28.989877
v 2.323347 -55.940525 28.861068
v 2.487244 -57.251493 28.573158
v 2.381842 -55.940525 28.449417
v 2.494093 -57.251493 28.149184
v 2.367967 -55.940525 28.033863
v 2.429191 -57.251493 27.730151
v 2.282142 -55.940525 27.627031
v 2.294406 -57.251493 27.328113
v 2.126975 -55.940525 27.241283
v 2.093615 -57.251493 26.954638
v 1.907182 -55.940525 26.888340
v 1.832594 -57.251493 26.620468
v 1.629440 -55.940525 26.578926
v 1.518853 -57.251493 26.335218
v 1.302187 -55.940525 26.322442
v 1.161417 -57.251493 26.107093
v 0.935369 -55.940525 26.126681
v 0.770570 -57.251493 25.942657
v 0.540130 -55.940525 25.997591
v 0.540130 -55.940525 25.997591
v 0.770570 -57.251493 25.942657
v 0.357554 -57.251493 25.846639
v 0.128479 -55.940525 25.939096
v -0.065747 -57.251493 25.821803
v -0.287075 -55.940525 25.952971
v -0.487157 -57.251493 25.868862
v -0.693907 -55.940525 26.038796
v -0.894553 -57.251493 25.986463
v -1.079655 -55.940525 26.193962
v -1.276214 -57.251493 26.171222
v -1.432598 -55.940525 26.413756
v -1.621160 -57.251493 26.417825
v -1.742012 -55.940525 26.691498
v -1.919469 -57.251493 26.719177
v -1.998496 -55.940525 27.018750
v -2.162558 -57.251493 27.066609
v -2.194257 -55.940525 27.385569
v -2.343434 -57.251493 27.450125
v -2.323346 -55.940525 27.780808
v -2.456894 -57.251493 27.858693
v -2.381842 -55.940524 28.192459
v -2.499674 -57.251493 28.280559
v -2.367967 -55.940525 28.608013
v -2.470542 -57.251493 28.703587
v -2.282142 -55.940524 29.014845
v -2.370338 -57.251493 29.115607
v -2.126975 -55.940525 29.400593
v -2.201943 -57.251493 29.504765
v -1.907182 -55.940524 29.753536
v -1.970202 -57.251493 29.859867
v -1.629440 -55.940524 30.062950
v -1.681782 -57.251493 30.170697
v -1.302188 -55.940524 30.319434
v -1.344981 -57.251493 30.428312
v -0.935369 -55.940524 30.515195
f 1 2 3
f 1 4 5
f 1 3 4
f 4 6 5
f 5 6 7
f 6 8 7
f 7 8 9
f 8 10 9
f 9 10 11
f 10 12 11
f 11 12 13
f 12 14 13
f 13 14 15
f 14 16 15
f 15 16 17
f 16 18 17
f 17 18 19
f 18 20 19
f 19 20 21
f 20 22 21
f 21 22 23
f 22 24 23
f 23 24 25
f 24 26 25
f 25 26 28
f 26 27 28
f 26 29 27
f 27 29 30
f 29 31 30
f 30 31 32
f 31 33 32
f 32 33 34
f 33 35 34
f 34 35 36
f 35 37 36
f 36 37 38
f 37 39 38
f 38 39 40
f 39 41 40
f 40 41 42
f 41 43 42
f 42 43 44
f 43 45 44
f 44 45 46
f 45 47 46
f 46 47 48
f 47 49 48
f 48 49 50
f 49 527 50
f 50 527 528
f 51 52 53
f 51 53 54
f 51 55 52
f 52 55 56
f 53 103 54
f 54 103 102
f 55 57 56
f 56 57 58
f 57 59 58
f 58 59 60
f 59 61 60
f 60 61 62
f 61 63 62
f 62 63 64
f 63 65 64
f 64 65 66
f 65 67 66
f 66 67 68
f 67 69 68
f 68 69 70
f 69 71 70
f 70 71 72
f 71 73 72
f 72 73 74
f 73 75 74
f 74 75 76
f 75 77 76
f 76 77 78
f 77 529 78
f 79 80 81
f 79 82 80
f 80 82 83
f 82 84 83
f 83 84 85
f 84 86 85
f 85 86 87
f 86 88 87
f 87 88 89
f 88 90 89
f 89 90 91
f 90 92 91
f 91 92 93
f 92 94 93
f 93 94 95
f 94 96 95
f 95 96 97
f 96 98 97
f 97 98 99
f 98 100 99
f 99 100 101
f 100 102 101
f 101 102 103
f 104 105 106
f 105 107 109
f 105 109 106
f 106 109 135
f 107 108 109
f 107 110 108
f 108 110 111
f 108 111 130
f 108 130 132
f 108 132 109
f 109 132 135
f 110 112 111
f 111 112 113
f 111 113 128
f 111 128 130
f 112 114 113
f 113 115 116
f 113 114 115
f 113 116 125
f 113 125 128
f 115 117 116
f 116 119 120
f 116 117 119
f 116 120 125
f 117 118 119
f 119 121 120
f 120 121 122
f 120 122 123
f 120 124 125
f 120 123 124
f 124 126 125
f 125 127 128
f 125 126 127
f 127 129 128
f 128 129 130
f 129 131 130
f 130 131 132
f 131 133 132
f 132 133 135
f 133 134 135
f 136 137 138
f 136 139 140
f 136 140 137
f 137 140 141
f 140 142 141
f 141 143 144
f 141 142 143
f 143 145 144
f 144 145 146
f 144 146 147
f 144 147 148
f 144 148 554
f 149 150 151
f 150 152 154
f 150 154 151
f 151 154 180
f 152 153 154
f 152 155 153
f 153 155 156
f 153 156 175
f 153 175 177
f 153 177 154
f 154 177 180
f 155 157 156
f 156 157 158
f 156 158 173
f 156 173 175
f 157 159 158
f 158 160 161
f 158 159 160
f 158 161 170
f 158 170 173
f 160 162 161
f 161 164 165
f 161 162 164
f 161 165 170
f 162 163 164
f 164 166 165
f 165 166 167
f 165 167 168
f 165 169 170
f 165 168 169
f 169 171 170
f 170 172 173
f 170 171 172
f 172 174 173
f 173 174 175
f 174 176 175
f 175 176 177
f 176 178 177
f 177 178 180
f 178 179 180
f 181 182 183
f 181 184 185
f 181 185 182
f 182 185 186
f 185 187 186
f 186 188 189
f 186 187 188
f 188 190 189
f 189 190 191
f 189 191 192
f 189 192 193
f 189 193 555
f 194 195 196
f 195 197 199
f 195 199 196
f 196 199 225
f 197 198 199
f 197 200 198
f 198 200 201
f 198 201 220
f 198 220 222
f 198 222 199
f 199 222 225
f 200 202 201
f 201 202 203
f 201 203 218
f 201 218 220
f 202 204 203
f 203 205 206
f 203 204 205
f 203 206 215
f 203 215 218
f 205 207 206
f 206 209 210
f 206 207 209
f 206 210 215
f 207 208 209
f 209 211 210
f 210 211 212
f 210 212 213
f 210 214 215
f 210 213 214
f 214 216 215
f 215 217 218
f 215 216 217
f 217 219 218
f 218 219 220
f 219 221 220
f 220 221 222
f 221 223 222
f 222 223 225
f 223 224 225
f 226 227 228
f 226 229 230
f 226 230 227
f 227 230 231
f 230 232 231
f 231 233 234
f 231 232 233
f 233 235 234
f 234 235 236
f 234 236 237
f 234 237 238
f 234 238 556
f 239 240 241
f 240 242 244
f 240 244 241
f 241 244 270
f 242 243 244
f 242 245 243
f 243 245 246
f 243 246 265
f 243 265 267
f 243 267 244
f 244 267 270
f 245 247 246
f 246 247 248
f 246 248 263
f 246 263 265
f 247 249 248
f 248 250 251
f 248 249 250
f 248 251 260
f 248 260 263
f 250 252 251
f 251 254 255
f 251 252 254
f 251 255 260
f 252 253 254
f 254 256 255
f 255 256 257
f 255 257 258
f 255 259 260
f 255 258 259
f 259 261 260
f 260 262 263
f 260 261 262
f 262 264 263
f 263 264 265
f 264 266 265
f 265 266 267
f 266 268 267
f 267 268 270
f 268 269 270
f 271 272 273
f 271 274 275
f 271 275 272
f 272 275 276
f 275 277 276
f 276 278 279
f 276 277 278
f 278 280 279
f 279 280 281
f 279 281 282
f 279 282 283
f 279 283 557
f 284 285 286
f 284 286 287
f 284 288 285
f 285 288 558
f 286 289 287
f 288 559 558
f 290 291 292
f 290 293 291
f 291 294 295
f 291 293 294
f 294 296 295
f 295 296 297
f 296 298 297
f 297 299 300
f 297 298 299
f 299 301 300
f 300 302 303
f 300 301 302
f 302 304 303
f 303 305 306
f 303 304 305
f 305 307 306
f 306 308 309
f 306 307 308
f 308 587 309
f 309 587 586
f 310 311 312
f 310 588 311
f 310 592 588
f 311 589 312
f 312 589 590
f 313 314 315
f 313 316 314
f 314 317 318
f 314 316 317
f 317 319 318
f 318 319 320
f 319 321 320
f 320 322 323
f 320 321 322
f 322 324 323
f 323 325 326
f 323 324 325
f 325 327 326
f 326 328 329
f 326 327 328
f 328 330 329
f 329 331 332
f 329 330 331
f 331 620 332
f 332 620 619
f 333 334 335
f 334 351 353
f 334 353 335
f 336 337 338
f 336 339 337
f 337 339 340
f 337 621 338
f 339 341 340
f 340 341 342
f 341 343 342
f 342 344 345
f 342 343 344
f 344 346 345
f 345 347 348
f 345 346 347
f 347 349 348
f 348 350 351
f 348 349 350
f 350 352 351
f 351 352 353
f 354 355 356
f 354 356 357
f 354 358 355
f 355 358 622
f 356 359 357
f 358 623 622
f 360 361 362
f 360 633 361
f 360 637 633
f 361 634 362
f 362 634 635
f 363 364 365
f 363 366 364
f 364 366 367
f 364 666 365
f 366 368 367
f 367 368 369
f 368 370 369
f 369 371 372
f 369 370 371
f 371 373 372
f 372 374 375
f 372 373 374
f 374 376 375
f 375 377 378
f 375 376 377
f 377 379 378
f 378 380 381
f 378 379 380
f 380 665 381
f 381 665 664
f 382 383 384
f 382 743 742
f 382 384 743
f 383 684 384
f 384 684 685
f 385 386 387
f 385 746 386
f 386 746 745
f 387 747 748
f 388 389 390
f 388 390 391
f 388 392 389
f 388 391 517
f 389 392 393
f 389 393 395
f 389 395 450
f 389 450 390
f 390 450 451
f 390 451 452
f 390 452 391
f 391 516 517
f 391 452 518
f 391 518 516
f 393 394 395
f 393 396 394
f 394 396 397
f 394 513 395
f 394 397 513
f 395 453 450
f 395 513 453
f 396 398 397
f 397 398 399
f 397 399 515
f 397 515 513
f 398 861 399
f 400 401 402
f 400 402 403
f 400 404 401
f 401 439 402
f 401 440 439
f 401 406 440
f 401 404 406
f 404 405 406
f 405 491 406
f 406 488 440
f 406 490 488
f 406 491 490
f 407 408 409
f 407 490 491
f 407 489 490
f 407 409 489
f 408 521 409
f 409 492 489
f 409 521 492
f 410 411 412
f 410 412 413
f 410 414 411
f 410 413 526
f 411 414 415
f 411 415 417
f 411 417 478
f 411 478 412
f 412 478 475
f 412 475 499
f 412 499 413
f 413 498 525
f 413 525 526
f 413 499 498
f 415 416 417
f 415 418 416
f 416 418 419
f 416 479 417
f 416 419 479
f 417 479 476
f 417 476 478
f 418 420 419
f 419 420 421
f 419 852 479
f 419 421 852
f 420 850 421
f 422 423 424
f 422 424 425
f 422 426 423
f 423 428 448
f 423 426 428
f 423 448 466
f 423 466 424
f 426 427 428
f 427 429 428
f 428 429 430
f 428 446 448
f 428 430 446
f 429 431 430
f 430 431 432
f 430 449 446
f 430 434 449
f 430 432 434
f 432 433 434
f 433 435 436
f 433 436 434
f 434 436 449
f 435 437 438
f 435 438 436
f 436 438 447
f 436 447 449
f 437 519 438
f 438 518 520
f 438 519 518
f 438 520 447
f 439 440 508
f 439 508 865
f 440 488 487
f 440 487 508
f 441 442 443
f 441 443 444
f 441 444 447
f 441 836 835
f 441 835 442
f 441 447 836
f 442 454 443
f 443 445 444
f 443 454 455
f 443 455 456
f 443 457 458
f 443 458 459
f 443 460 461
f 443 461 462
f 443 462 445
f 443 456 457
f 443 459 460
f 444 445 446
f 444 446 449
f 444 449 447
f 445 448 446
f 445 462 463
f 445 463 464
f 445 464 448
f 447 837 836
f 447 520 837
f 448 464 465
f 448 465 466
f 450 509 451
f 450 453 509
f 451 839 452
f 451 840 839
f 451 841 840
f 451 509 841
f 452 520 518
f 452 838 520
f 452 839 838
f 453 512 510
f 453 510 509
f 453 513 514
f 453 514 512
f 461 851 462
f 467 468 469
f 467 469 470
f 467 471 472
f 467 472 473
f 467 474 475
f 467 476 477
f 467 478 476
f 467 475 478
f 467 477 468
f 467 470 471
f 467 473 474
f 468 857 469
f 469 858 470
f 470 858 859
f 474 480 475
f 475 480 481
f 475 481 499
f 476 479 855
f 476 855 856
f 476 856 477
f 479 852 855
f 481 494 499
f 482 483 484
f 482 484 485
f 482 485 486
f 482 486 496
f 482 496 860
f 482 860 483
f 483 500 484
f 484 487 485
f 484 500 501
f 484 501 502
f 484 503 504
f 484 504 505
f 484 506 487
f 484 502 503
f 484 505 506
f 485 487 488
f 485 488 489
f 485 489 486
f 486 489 492
f 486 497 493
f 486 492 497
f 486 493 496
f 487 506 507
f 487 507 508
f 488 490 489
f 492 521 522
f 492 522 497
f 493 494 495
f 493 495 496
f 493 497 498
f 493 499 494
f 493 498 499
f 497 522 523
f 497 523 524
f 497 524 498
f 498 524 525
f 503 862 504
f 504 862 863
f 505 864 506
f 509 510 511
f 509 842 841
f 509 843 842
f 509 844 843
f 509 845 844
f 509 846 845
f 509 847 846
f 509 848 847
f 509 511 848
f 511 849 848
f 513 867 514
f 513 515 867
f 515 866 867
f 516 518 519
f 520 838 837
f 530 531 532
f 531 533 532
f 531 534 533
f 533 534 535
f 534 536 535
f 535 536 537
f 536 538 537
f 537 538 539
f 538 540 539
f 539 540 541
f 540 542 541
f 541 542 543
f 542 544 543
f 543 544 545
f 544 546 545
f 545 546 547
f 546 548 547
f 547 548 549
f 548 550 549
f 549 550 551
f 550 552 551
f 551 552 553
f 558 559 560
f 559 561 560
f 559 562 561
f 559 563 562
f 559 564 563
f 559 565 564
f 559 566 565
f 559 567 566
f 559 568 567
f 569 570 571
f 570 572 571
f 570 573 572
f 570 574 573
f 570 575 574
f 570 576 575
f 570 577 576
f 570 578 577
f 570 579 578
f 570 580 579
f 579 580 581
f 580 582 581
f 581 582 583
f 582 584 583
f 583 584 585
f 588 592 593
f 589 591 590
f 592 594 593
f 592 595 594
f 592 596 595
f 592 597 596
f 592 598 597
f 592 599 598
f 592 600 599
f 592 601 600
f 602 603 604
f 603 605 604
f 603 606 605
f 603 607 606
f 603 608 607
f 603 609 608
f 603 610 609
f 603 611 610
f 603 612 611
f 603 613 612
f 612 613 614
f 613 615 614
f 614 615 616
f 615 617 616
f 616 617 618
f 622 623 624
f 623 625 624
f 623 626 625
f 623 627 626
f 623 628 627
f 623 629 628
f 623 630 629
f 623 631 630
f 623 632 631
f 633 637 638
f 634 636 635
f 637 639 638
f 637 640 639
f 637 641 640
f 637 642 641
f 637 643 642
f 637 644 643
f 637 645 644
f 637 646 645
f 647 648 649
f 648 650 649
f 648 651 650
f 648 652 651
f 648 653 652
f 648 654 653
f 648 655 654
f 648 656 655
f 648 657 656
f 648 658 657
f 657 658 659
f 658 660 659
f 659 660 661
f 660 662 661
f 661 662 663
f 667 668 669
f 668 670 669
f 668 671 670
f 668 672 671
f 668 673 672
f 668 674 673
f 668 675 674
f 668 676 675
f 668 677 676
f 668 678 677
f 677 678 679
f 678 680 679
f 679 680 681
f 680 682 681
f 681 682 683
f 684 686 685
f 685 686 687
f 686 688 687
f 687 688 689
f 687 689 690
f 689 691 690
f 690 691 692
f 691 693 692
f 692 693 694
f 693 695 694
f 694 695 696
f 694 696 697
f 696 698 697
f 697 698 699
f 698 700 699
f 699 700 701
f 699 701 702
f 701 703 702
f 702 703 704
f 703 705 704
f 704 705 706
f 704 706 707
f 706 708 707
f 707 708 709
f 708 710 709
f 709 710 711
f 710 712 711
f 711 712 713
f 711 713 714
f 713 715 714
f 714 715 716
f 715 717 716
f 716 717 718
f 716 718 719
f 718 720 719
f 719 720 721
f 720 722 721
f 721 722 723
f 722 724 723
f 723 724 725
f 723 725 726
f 725 727 726
f 726 727 728
f 727 729 728
f 728 729 730
f 728 730 731
f 730 732 731
f 731 732 733
f 732 734 733
f 733 734 735
f 733 735 736
f 735 737 736
f 736 737 738
f 737 739 738
f 738 739 740
f 739 741 740
f 740 741 742
f 740 742 743
f 744 745 746
f 746 830 831
f 746 832 830
f 747 749 748
f 748 749 750
f 750 753 755
f 751 752 753
f 751 754 752
f 754 756 757
f 756 758 757
f 757 758 759
f 759 760 761
f 759 761 762
f 759 763 760
f 760 763 764
f 761 765 766
f 761 766 767
f 761 768 765
f 766 769 767
f 769 770 771
f 770 772 771
f 771 772 773
f 773 776 778
f 774 775 776
f 774 777 775
f 777 779 780
f 779 781 780
f 780 781 782
f 782 783 784
f 782 784 785
f 782 786 783
f 783 786 787
f 784 788 789
f 784 789 790
f 784 791 788
f 789 792 790
f 792 793 794
f 793 795 794
f 794 795 796
f 796 799 801
f 797 798 799
f 797 800 798
f 800 802 803
f 802 804 803
f 803 804 805
f 805 806 807
f 805 808 806
f 806 808 809
f 810 811 812
f 811 813 814
f 811 814 815
f 811 816 813
f 814 817 815
f 817 818 819
f 818 820 819
f 819 820 821
f 821 824 826
f 822 823 824
f 822 825 823
f 825 827 828
f 827 829 828
f 828 829 830
f 830 833 831
f 831 833 834
f 852 853 854
f 852 854 855
f 868 869 870
f 868 942 941
f 868 870 942
f 869 871 870
f 870 871 872
f 871 873 872
f 872 873 874
f 873 875 874
f 874 875 876
f 875 877 876
f 876 877 878
f 877 879 878
f 878 879 880
f 879 881 880
f 880 881 882
f 881 883 882
f 882 883 884
f 883 885 884
f 884 885 886
f 885 887 886
f 886 887 888
f 887 889 888
f 888 889 890
f 889 891 890
f 890 891 892
f 891 893 892
f 892 893 894
f 893 895 894
f 894 895 896
f 895 897 896
f 896 897 898
f 897 899 898
f 898 899 900
f 899 901 900
f 900 901 902
f 901 903 902
f 902 903 904
f 903 905 904
f 904 905 906
f 907 908 909
f 907 909 910
f 909 911 910
f 910 911 912
f 911 913 912
f 912 913 914
f 913 915 914
f 914 915 916
f 915 917 916
f 916 917 918
f 917 919 918
f 918 919 920
f 919 921 920
f 920 921 922
f 921 923 922
f 922 923 924
f 923 925 924
f 924 925 926
f 925 927 926
f 926 927 928
f 927 929 928
f 928 929 930
f 929 931 930
f 930 931 932
f 931 933 932
f 932 933 934
f 933 935 934
f 934 935 936
f 935 937 936
f 936 937 938
f 937 939 938
f 938 939 940
f 939 941 940
f 940 941 942