# Part15
# Autodesk dbId: 78
# Units: mm
o 078_Part15
v -1.700001 -54.851492 40.820938
v -4.499999 -54.851492 15.820937
v -1.699999 -54.851492 15.820937
v -4.500001 -54.851492 40.820938
v -1.700001 -57.651492 40.820938
v -4.500001 -54.851492 40.820938
v -1.700001 -54.851492 40.820938
v -4.500001 -57.651492 40.820938
v -1.699999 -57.651491 14.820938
v -1.699999 -60.451492 5.820936
v -1.699999 -57.651492 5.820937
v -1.699999 -60.451491 14.820938
v -1.699999 -55.951491 4.320935
v -1.699999 -57.651492 4.320936
v -1.699998 -45.951491 1.320936
v -1.699999 -45.951492 4.320935
v -1.699999 -54.851492 15.820937
v -1.699998 -55.951491 1.320936
v -1.699999 -25.461124 13.010731
v -1.699999 -25.530938 14.208722
v -1.699999 -28.701492 13.320937
v -1.700001 -45.951491 52.320941
v -1.700002 -55.951490 55.320938
v -1.700001 -55.951492 52.320940
v -1.700001 -54.851492 40.820938
v -1.700002 -45.951492 55.320940
v -1.700001 -57.651491 50.820939
v -1.700001 -57.651492 52.320940
v -1.700001 -60.451491 43.820937
v -1.700001 -57.651492 43.820938
v -1.700001 -60.451491 50.820939
v -1.699999 -30.451491 11.570937
v -1.699999 -28.946247 8.552894
v -1.699999 -29.998559 11.630567
v -1.699999 -30.904425 11.630567
v -1.699999 -31.326492 11.805392
v -1.699999 -31.688928 12.083501
v -1.699999 -42.351491 4.320936
v -1.699999 -31.967036 12.445937
v -1.699999 -32.141862 12.868004
v -1.699999 -32.201490 13.320937
v -1.699999 -32.141861 13.773870
v -1.699999 -31.967037 14.195937
v -1.699999 -31.688928 14.558374
v -1.700001 -42.351491 52.320939
v -1.699999 -31.326492 14.836482
v -1.699999 -30.904426 15.011307
v -1.699999 -30.451492 15.070937
v -1.699999 -29.998559 15.011307
v -1.699999 -25.884189 15.355575
v -1.699999 -29.576492 14.836482
v -1.699999 -29.214054 14.558374
v -1.699999 -28.935947 14.195937
v -1.699999 -28.761122 13.773871
v -1.699999 -26.171326 10.736331
v -1.699999 -25.678766 11.830608
v -1.699999 -28.761122 12.868003
v -1.699999 -26.910435 9.790934
v -1.699999 -28.935947 12.445938
v -1.699999 -27.853517 9.048872
v -1.699999 -29.214054 12.083500
v -1.699999 -29.576492 11.805392
v -4.499999 -30.451491 11.570937
v -1.699999 -30.904425 11.630567
v -1.699999 -30.451491 11.570937
v -4.499999 -30.904425 11.630567
v -1.699999 -31.326492 11.805392
v -4.499999 -31.326492 11.805392
v -1.699999 -31.688928 12.083501
v -4.499999 -31.688928 12.083501
v -1.699999 -31.967036 12.445937
v -4.499999 -31.967036 12.445937
v -1.699999 -32.141862 12.868004
v -4.499999 -32.141862 12.868004
v -1.699999 -32.201490 13.320937
v -4.499999 -32.201490 13.320937
v -1.699999 -32.141861 13.773870
v -4.499999 -32.141861 13.773870
v -1.699999 -31.967037 14.195937
v -4.499999 -31.967037 14.195937
v -1.699999 -31.688928 14.558374
v -4.499999 -31.688928 14.558373
v -1.699999 -31.326492 14.836482
v -4.499999 -31.326492 14.836482
v -1.699999 -30.904426 15.011307
v -4.499999 -30.904426 15.011307
v -1.699999 -30.451492 15.070937
v -4.499999 -30.451492 15.070937
v -1.699999 -29.998559 15.011307
v -4.499999 -29.998559 15.011307
v -1.699999 -29.576492 14.836482
v -4.499999 -29.576492 14.836482
v -1.699999 -29.214054 14.558374
v -4.499999 -29.214054 14.558374
v -1.699999 -28.935947 14.195937
v -4.499999 -28.935947 14.195937
v -1.699999 -28.761122 13.773871
v -4.499999 -28.761122 13.773871
v -1.699999 -28.701492 13.320937
v -4.499999 -28.701492 13.320937
v -1.699999 -28.761122 12.868003
v -4.499999 -28.761122 12.868003
v -1.699999 -28.935947 12.445938
v -4.499999 -28.935947 12.445937
v -1.699999 -29.214054 12.083500
v -4.499999 -29.214054 12.083500
v -1.699999 -29.576492 11.805392
v -4.499999 -29.576492 11.805392
v -1.699999 -29.998559 11.630567
v -4.499999 -29.998559 11.630567
v -1.699999 -30.451491 11.570937
v -4.500001 -55.951492 52.320939
v -4.500001 -57.651492 52.320940
v -1.700001 -55.951492 52.320940
v -4.500001 -57.651491 50.820939
v -1.700001 -57.651492 52.320940
v -4.500001 -57.651492 52.320940
v -4.499999 -57.651492 5.820936
v -4.499999 -57.651492 4.320935
v -1.699999 -57.651492 5.820937
v -4.499999 -45.951492 4.320935
v -4.499998 -42.351491 4.320936
v -1.699999 -45.951492 4.320935
v -4.499999 -55.951491 4.320935
v -1.699999 -57.651492 4.320936
v -4.499999 -57.651492 4.320935
v -4.500001 -45.951491 52.320941
v -1.700001 -42.351491 52.320939
v -4.500001 -42.351492 52.320939
v -4.499999 -28.946247 8.552894
v -1.699999 -27.853517 9.048872
v -1.699999 -28.946247 8.552894
v -4.499999 -27.853517 9.048872
v -1.699999 -26.910435 9.790934
v -4.499999 -26.910435 9.790934
v -1.699999 -26.171326 10.736331
v -4.499999 -26.171326 10.736331
v -1.699999 -25.678766 11.830608
v -4.499999 -25.678766 11.830608
v -1.699999 -25.461124 13.010731
v -4.499999 -25.461124 13.010730
v -1.699999 -25.530938 14.208722
v -4.499999 -25.530938 14.208722
v -1.699999 -25.884189 15.355575
v -4.500002 -45.951492 55.320940
v -4.500001 -55.951492 52.320939
v -4.500002 -55.951490 55.320938
v -4.499999 -54.851492 15.820937
v -4.499999 -57.651492 15.820938
v -1.699999 -54.851492 15.820937
v -1.699999 -57.651492 15.820938
v -1.700001 -57.651492 40.820938
v -1.699999 -57.651492 15.820938
v -4.499999 -57.651492 15.820938
v -4.499999 -57.651491 14.820938
v -1.699999 -57.651492 15.820938
v -1.699999 -57.651491 14.820938
v -4.499999 -30.451491 11.570937
v -1.700001 -57.651492 52.320940
v -1.700001 -57.651491 50.820939
v -1.699999 -57.651492 4.320936
v -1.699999 -42.351491 4.320936
v -1.699999 -55.951491 4.320935
v -1.700001 -57.651492 40.820938
v -1.700001 -57.651492 43.820938
v -4.500001 -57.651492 40.820938
v -4.500001 -57.651492 43.820937
v -1.700001 -45.951491 52.320941
v -1.700001 -42.351491 52.320939
v -1.699999 -25.884189 15.355575
v -4.500001 -42.351492 52.320939
v -4.499999 -25.884189 15.355575
v -4.499999 -25.884189 15.355575
v -1.699999 -28.946247 8.552894
v -1.699999 -42.351491 4.320936
v -4.499999 -28.946247 8.552894
v -4.499998 -42.351491 4.320936
v -1.699999 -45.951492 4.320935
v -1.699998 -45.951491 1.320936
v -4.499999 -45.951492 4.320935
v -4.499998 -45.951491 1.320936
v -1.699998 -45.951491 1.320936
v -1.699998 -55.951491 1.320936
v -4.499998 -45.951491 1.320936
v -4.499998 -55.951491 1.320936
v -1.699998 -55.951491 1.320936
v -1.699999 -55.951491 4.320935
v -4.499998 -55.951491 1.320936
v -4.499999 -55.951491 4.320935
v -1.700001 -57.651492 43.820938
v -1.700001 -60.451491 43.820937
v -4.500001 -57.651492 43.820937
v -4.500001 -60.451491 43.820937
v -1.700001 -60.451491 43.820937
v -1.700001 -60.451491 50.820939
v -4.500001 -60.451491 43.820937
v -4.500001 -60.451491 50.820938
v -1.700001 -60.451491 50.820939
v -1.700001 -57.651491 50.820939
v -4.500001 -60.451491 50.820938
v -4.500001 -57.651491 50.820939
v -1.699999 -57.651492 5.820937
v -1.699999 -60.451492 5.820936
v -4.499999 -57.651492 5.820936
v -4.499999 -60.451492 5.820936
v -1.699999 -60.451492 5.820936
v -1.699999 -60.451491 14.820938
v -4.499999 -60.451492 5.820936
v -4.499999 -60.451491 14.820938
v -1.699999 -60.451491 14.820938
v -1.699999 -57.651491 14.820938
v -4.499999 -60.451491 14.820938
v -4.499999 -57.651491 14.820938
v -4.500001 -57.651492 40.820938
v -4.500001 -57.651492 43.820937
v -4.500001 -54.851492 40.820938
v -4.500001 -60.451491 50.820938
v -4.500001 -57.651491 50.820939
v -4.500001 -45.951491 52.320941
v -4.500001 -42.351492 52.320939
v -4.499999 -31.967037 14.195937
v -4.499999 -54.851492 15.820937
v -4.500001 -57.651492 52.320940
v -4.500001 -60.451491 43.820937
v -4.499999 -29.998559 15.011307
v -4.499999 -30.451492 15.070937
v -4.499999 -30.904426 15.011307
v -4.499999 -31.326492 14.836482
v -4.499999 -31.688928 14.558373
v -4.499999 -32.141861 13.773870
v -4.499998 -42.351491 4.320936
v -4.499999 -45.951492 4.320935
v -4.499999 -55.951491 4.320935
v -4.499999 -57.651492 5.820936
v -4.499999 -57.651491 14.820938
v -4.499999 -57.651492 15.820938
v -4.499999 -32.201490 13.320937
v -4.499999 -32.141862 12.868004
v -4.499999 -25.884189 15.355575
v -4.499999 -28.701492 13.320937
v -4.499999 -28.761122 13.773871
v -4.499999 -28.935947 14.195937
v -4.499999 -29.214054 14.558374
v -4.499999 -29.576492 14.836482
v -4.499999 -25.530938 14.208722
v -4.499999 -25.461124 13.010730
v -4.499999 -25.678766 11.830608
v -4.499999 -26.171326 10.736331
v -4.499999 -28.761122 12.868003
v -4.499999 -26.910435 9.790934
v -4.499999 -28.935947 12.445937
v -4.499999 -27.853517 9.048872
v -4.499999 -29.214054 12.083500
v -4.499999 -28.946247 8.552894
v -4.499999 -29.576492 11.805392
v -4.499999 -29.998559 11.630567
v -4.499999 -30.451491 11.570937
v -4.499999 -30.904425 11.630567
v -4.499999 -31.326492 11.805392
v -4.499999 -31.688928 12.083501
v -4.499999 -31.967036 12.445937
v -4.499998 -55.951491 1.320936
v -4.499999 -57.651492 4.320935
v -4.499999 -60.451491 14.820938
v -4.499998 -45.951491 1.320936
v -4.499999 -60.451492 5.820936
v -1.700002 -55.951490 55.320938
v -1.700002 -45.951492 55.320940
v -4.500002 -55.951490 55.320938
v -4.500002 -45.951492 55.320940
v -1.700002 -45.951492 55.320940
v -1.700001 -45.951491 52.320941
v -4.500002 -45.951492 55.320940
v -4.500001 -45.951491 52.320941
v -1.700001 -55.951492 52.320940
v -1.700002 -55.951490 55.320938
v -4.500001 -55.951492 52.320939
v -4.500002 -55.951490 55.320938
f 1 2 3
f 1 4 2
f 5 6 7
f 5 8 6
f 9 10 11
f 9 12 10
f 9 11 17
f 9 17 153
f 11 14 13
f 11 13 17
f 13 15 16
f 13 16 17
f 13 18 15
f 16 38 17
f 17 42 43
f 17 43 25
f 17 38 42
f 19 20 21
f 19 21 56
f 20 50 21
f 21 55 56
f 21 50 54
f 21 57 55
f 22 23 24
f 22 24 25
f 22 26 23
f 22 25 45
f 24 28 27
f 24 30 25
f 24 27 30
f 25 30 152
f 25 43 45
f 27 29 30
f 27 31 29
f 32 33 34
f 32 35 33
f 33 35 36
f 33 37 38
f 33 36 37
f 33 60 61
f 33 61 62
f 33 62 34
f 37 39 38
f 38 39 40
f 38 40 41
f 38 41 42
f 43 44 45
f 44 46 45
f 45 46 47
f 45 47 48
f 45 49 50
f 45 48 49
f 49 51 50
f 50 51 52
f 50 52 53
f 50 53 54
f 55 57 58
f 57 59 58
f 58 59 60
f 59 61 60
f 63 64 65
f 63 66 64
f 64 66 67
f 66 68 67
f 67 68 69
f 68 70 69
f 69 70 71
f 70 72 71
f 71 72 73
f 72 74 73
f 73 74 75
f 74 76 75
f 75 76 77
f 76 78 77
f 77 78 79
f 78 80 79
f 79 80 81
f 80 82 81
f 81 82 83
f 82 84 83
f 83 84 85
f 84 86 85
f 85 86 87
f 86 88 87
f 87 88 89
f 88 90 89
f 89 90 91
f 90 92 91
f 91 92 93
f 92 94 93
f 93 94 95
f 94 96 95
f 95 96 97
f 96 98 97
f 97 98 99
f 98 100 99
f 99 100 101
f 100 102 101
f 101 102 103
f 102 104 103
f 103 104 105
f 104 106 105
f 105 106 107
f 106 108 107
f 107 108 109
f 108 110 109
f 109 110 111
f 110 158 111
f 112 113 114
f 113 159 114
f 115 116 117
f 115 160 116
f 118 119 120
f 119 161 120
f 121 122 123
f 122 162 123
f 124 125 126
f 124 163 125
f 127 128 129
f 127 168 128
f 130 131 132
f 130 133 131
f 131 133 134
f 133 135 134
f 134 135 136
f 135 137 136
f 136 137 138
f 137 139 138
f 138 139 140
f 139 141 140
f 140 141 142
f 141 143 142
f 142 143 144
f 143 173 144
f 145 146 147
f 145 219 146
f 146 215 218
f 146 216 215
f 146 219 216
f 146 218 223
f 148 149 150
f 149 151 150
f 154 155 156
f 155 157 156
f 164 165 166
f 165 167 166
f 169 170 171
f 170 172 171
f 174 175 176
f 175 177 176
f 178 179 180
f 179 181 180
f 182 183 184
f 183 185 184
f 186 187 188
f 187 189 188
f 190 191 192
f 191 193 192
f 194 195 196
f 195 197 196
f 198 199 200
f 199 201 200
f 202 203 204
f 203 205 204
f 206 207 208
f 207 209 208
f 210 211 212
f 211 213 212
f 214 215 216
f 215 217 218
f 215 224 217
f 216 220 221
f 216 221 222
f 216 219 220
f 220 225 226
f 220 226 227
f 220 228 229
f 220 229 221
f 220 239 225
f 220 227 228
f 221 230 222
f 222 230 231
f 222 232 233
f 222 233 234
f 222 235 236
f 222 231 232
f 222 234 235
f 225 239 244
f 230 237 231
f 231 237 238
f 231 260 254
f 231 261 260
f 231 238 261
f 232 262 233
f 232 265 262
f 233 263 234
f 234 264 235
f 234 266 264
f 239 240 241
f 239 241 242
f 239 243 244
f 239 245 240
f 239 242 243
f 240 245 246
f 240 246 247
f 240 247 248
f 240 248 249
f 248 250 249
f 249 250 251
f 250 252 251
f 251 252 253
f 252 254 253
f 253 254 255
f 254 256 255
f 254 257 256
f 254 258 257
f 254 259 258
f 254 260 259
f 267 268 269
f 268 270 269
f 271 272 273
f 272 274 273
f 275 276 277
f 276 278 277