# ANSI B 18.2.4.1 M - M3 x 0.5Style 1
# Autodesk dbId: 80
# Units: mm
o 080_ANSI_B_18.2.4.1_M_-_M3_x_0.5Style_1
v 15.656251 -51.566242 53.056159
v 15.500001 -51.415059 52.694226
v 15.500001 -51.701559 52.821784
v 15.656251 -51.304117 52.943089
v 15.500001 -51.955277 53.006121
v 15.656251 -51.795226 53.226632
v 15.656251 -51.566242 53.056159
v 15.500001 -52.165125 53.239181
v 15.656251 -51.978725 53.445316
v 15.500001 -52.321932 53.510778
v 15.656251 -52.106844 53.700424
v 15.500001 -52.418844 53.809042
v 15.656251 -52.172679 53.978201
v 15.500001 -52.451625 54.120937
v 15.656251 -52.172679 54.263674
v 15.500001 -52.418844 54.432833
v 15.656251 -52.106844 54.541451
v 15.500001 -52.321932 54.731096
v 15.656251 -51.978724 54.796559
v 15.500001 -52.165125 55.002693
v 15.656251 -51.795226 55.015243
v 15.500001 -51.955277 55.235753
v 15.656251 -51.566242 55.185716
v 15.500001 -51.701559 55.420090
v 15.500001 -51.415059 55.547648
v 15.656251 -51.304117 55.298785
v 15.500001 -51.108299 55.612852
v 15.656251 -51.022981 55.348357
v 15.500001 -50.794686 55.612852
v 15.656251 -50.737992 55.331758
v 15.500001 -50.487926 55.547648
v 15.656251 -50.464512 55.249884
v 15.500001 -50.201426 55.420090
v 15.656251 -50.217286 55.107148
v 15.500001 -49.947708 55.235753
v 15.656251 -50.009641 54.911245
v 15.500001 -49.737859 55.002693
v 15.656251 -49.852771 54.672736
v 15.500001 -49.581053 54.731096
v 15.656251 -49.755134 54.404479
v 15.500001 -49.484141 54.432832
v 15.656251 -49.721992 54.120937
v 15.500001 -49.451360 54.120937
v 15.500001 -49.484141 53.809042
v 15.656251 -49.755134 53.837395
v 15.500001 -49.581053 53.510778
v 15.656251 -49.852771 53.569139
v 15.500001 -49.737860 53.239181
v 15.656251 -50.009641 53.330630
v 15.500001 -49.947708 53.006121
v 15.656251 -50.217286 53.134727
v 15.500001 -50.201426 52.821784
v 15.656251 -50.464512 52.991991
v 15.500001 -50.487926 52.694226
v 15.656251 -50.737992 52.910116
v 15.500001 -50.794686 52.629022
v 15.656251 -51.022981 52.893518
v 15.500001 -51.108299 52.629022
v 17.743751 -50.336742 55.185715
v 15.656251 -50.464512 55.249884
v 15.656251 -50.217286 55.107148
v 17.743751 -50.107758 55.015243
v 17.743751 -50.598868 55.298785
v 15.656251 -50.737992 55.331758
v 17.743751 -50.880003 55.348357
v 15.656251 -51.022981 55.348357
v 17.743751 -51.164993 55.331758
v 15.656251 -51.304117 55.298785
v 17.743751 -51.438472 55.249884
v 15.656251 -51.566242 55.185716
v 17.743751 -51.685699 55.107148
v 15.656251 -51.795226 55.015243
v 17.743751 -51.893344 54.911245
v 15.656251 -51.978724 54.796559
v 17.743751 -52.050213 54.672736
v 15.656251 -52.106844 54.541451
v 17.743751 -52.147851 54.404480
v 15.656251 -52.172679 54.263674
v 17.743751 -52.180992 54.120937
v 15.656251 -52.172679 53.978201
v 17.743751 -52.147851 53.837395
v 15.656251 -52.106844 53.700424
v 17.743751 -52.050213 53.569139
v 15.656251 -51.978725 53.445316
v 17.743751 -51.893344 53.330630
v 15.656251 -51.795226 53.226632
v 17.743751 -51.438472 52.991991
v 15.656251 -51.304117 52.943089
v 15.656251 -51.566242 53.056159
v 17.743751 -51.685699 53.134727
v 17.743751 -51.164993 52.910116
v 15.656251 -51.022981 52.893518
v 17.743751 -50.880003 52.893518
v 15.656251 -50.737992 52.910116
v 17.743751 -50.598868 52.943089
v 15.656251 -50.464512 52.991991
v 17.743751 -50.336742 53.056159
v 15.656251 -50.217286 53.134727
v 17.743751 -50.107758 53.226632
v 15.656251 -50.009641 53.330630
v 17.743751 -49.924260 53.445316
v 15.656251 -49.852771 53.569139
v 17.743751 -49.796140 53.700424
v 15.656251 -49.755134 53.837395
v 17.743751 -49.730306 53.978201
v 15.656251 -49.721992 54.120937
v 17.743751 -49.730306 54.263674
v 15.656251 -49.755134 54.404479
v 17.743751 -49.796140 54.541451
v 15.656251 -49.852771 54.672736
v 17.743751 -49.924260 54.796559
v 15.656251 -50.009641 54.911245
v 15.500001 -48.232208 54.530803
v 15.500001 -48.201493 54.120937
v 15.500001 -49.451360 54.120937
v 17.900001 -50.487926 55.547648
v 17.743751 -50.598868 55.298785
v 17.743751 -50.336742 55.185715
v 17.900001 -50.794686 55.612852
v 17.743751 -50.880003 55.348357
v 17.900001 -51.108299 55.612852
v 17.743751 -51.164993 55.331758
v 17.900001 -51.415059 55.547648
v 17.743751 -51.438472 55.249884
v 17.900001 -51.701559 55.420091
v 17.743751 -51.685699 55.107148
v 17.900001 -51.955277 55.235753
v 17.743751 -51.893344 54.911245
v 17.900001 -52.165125 55.002693
v 17.743751 -52.050213 54.672736
v 17.900001 -52.321932 54.731096
v 17.743751 -52.147851 54.404480
v 17.900001 -52.418844 54.432833
v 17.743751 -52.180992 54.120937
v 17.900001 -52.451625 54.120937
v 17.900001 -52.418844 53.809042
v 17.743751 -52.147851 53.837395
v 17.900001 -52.321932 53.510778
v 17.743751 -52.050213 53.569139
v 17.900001 -52.165125 53.239181
v 17.743751 -51.893344 53.330630
v 17.900001 -51.955277 53.006121
v 17.743751 -51.685699 53.134727
v 17.900001 -51.701559 52.821784
v 17.743751 -51.438472 52.991991
v 17.900001 -51.415059 52.694226
v 17.743751 -51.164993 52.910116
v 17.900001 -51.108299 52.629022
v 17.743751 -50.880003 52.893518
v 17.900001 -50.794686 52.629022
v 17.743751 -50.598868 52.943089
v 17.900001 -50.487926 52.694226
v 17.743751 -50.336742 53.056159
v 17.900001 -50.201426 52.821784
v 17.900001 -49.947708 53.006121
v 17.743751 -50.107758 53.226632
v 17.900001 -49.737860 53.239181
v 17.743751 -49.924260 53.445316
v 17.900001 -49.581053 53.510778
v 17.743751 -49.796140 53.700424
v 17.900001 -49.484141 53.809042
v 17.743751 -49.730306 53.978201
v 17.900001 -49.451360 54.120937
v 17.743751 -49.730306 54.263674
v 17.900001 -49.484141 54.432832
v 17.743751 -49.796140 54.541451
v 17.900001 -49.581053 54.731096
v 17.743751 -49.924260 54.796559
v 17.900001 -49.737859 55.002693
v 17.743751 -50.107758 55.015243
v 17.900001 -49.947707 55.235753
v 17.900001 -48.232208 53.711071
v 17.900001 -48.201493 54.120937
v 17.900001 -49.451360 54.120937
v 15.698380 -48.201493 52.533224
v 15.500001 -48.679336 52.571807
v 15.500001 -48.473828 52.927757
v 15.610023 -48.201493 52.957596
v 15.610023 -48.569010 52.321038
v 15.512226 -48.201493 53.740312
v 15.500001 -48.232208 53.711071
v 15.500001 -48.201493 54.120937
v 15.548672 -48.201493 53.356110
v 15.500001 -48.323667 53.310361
v 15.698380 -50.951493 50.945511
v 15.500001 -51.157000 51.378627
v 15.500001 -50.745985 51.378627
v 15.610023 -50.583976 51.157697
v 15.610023 -51.319009 51.157697
v 15.512226 -49.906124 51.549055
v 15.500001 -49.946805 51.561035
v 15.500001 -49.576493 51.739368
v 15.548672 -50.238853 51.356954
v 15.500001 -50.339560 51.439886
v 15.698380 -53.701492 52.533224
v 15.500001 -53.429156 52.927757
v 15.500001 -53.223649 52.571807
v 15.610023 -53.333975 52.321038
v 15.610023 -53.701492 52.957596
v 15.512226 -52.656123 51.929680
v 15.500001 -52.666089 51.970901
v 15.500001 -52.326492 51.739368
v 15.548672 -52.988852 52.121782
v 15.500001 -52.967385 52.250463
v 15.698380 -53.701492 55.708650
v 15.500001 -53.223649 55.670067
v 15.500001 -53.429156 55.314118
v 15.610023 -53.701492 55.284278
v 15.610023 -53.333975 55.920836
v 15.512226 -53.701492 54.501562
v 15.500001 -53.670777 54.530803
v 15.500001 -53.701492 54.120937
v 15.548672 -53.701492 54.885765
v 15.500001 -53.579317 54.931514
v 17.701621 -48.201493 55.708650
v 17.900001 -48.679336 55.670067
v 17.900001 -48.473828 55.314117
v 17.789978 -48.201493 55.284278
v 17.789978 -48.569009 55.920836
v 17.887776 -48.201493 54.501562
v 17.900001 -48.232208 54.530803
v 17.900001 -48.201493 54.120937
v 17.851329 -48.201493 54.885765
v 17.900001 -48.323667 54.931514
v 17.701621 -50.951492 57.296364
v 17.900001 -51.157000 56.863248
v 17.900001 -50.745984 56.863248
v 17.789978 -50.583975 57.084178
v 17.789978 -51.319009 57.084178
v 17.887776 -49.906123 56.692819
v 17.900001 -49.946804 56.680840
v 17.900001 -49.576492 56.502507
v 17.851329 -50.238852 56.884921
v 17.900001 -50.339560 56.801989
v 17.701621 -53.701492 55.708650
v 17.900001 -53.429156 55.314118
v 17.900001 -53.223649 55.670067
v 17.789978 -53.333975 55.920836
v 17.789978 -53.701492 55.284278
v 17.887776 -52.656123 56.312194
v 17.900001 -52.666089 56.270974
v 17.900001 -52.326492 56.502507
v 17.851329 -52.988852 56.120093
v 17.900001 -52.967385 55.991412
v 15.500001 -51.701559 52.821784
v 17.743751 -51.685699 53.134727
v 15.656251 -51.566242 53.056159
v 15.500001 -48.232208 53.711071
v 15.500001 -49.484141 53.809042
v 15.500001 -48.323667 53.310361
v 15.500001 -49.581053 53.510778
v 15.500001 -48.473828 52.927757
v 15.500001 -48.679336 52.571807
v 15.500001 -49.737860 53.239181
v 15.500001 -48.935600 52.250462
v 15.500001 -49.947708 53.006121
v 15.500001 -49.236896 51.970901
v 15.500001 -50.201426 52.821784
v 15.500001 -49.576493 51.739368
v 15.500001 -49.946805 51.561035
v 15.500001 -50.487926 52.694226
v 15.500001 -50.339560 51.439886
v 15.500001 -50.794686 52.629022
v 15.500001 -50.745985 51.378627
v 15.500001 -51.157000 51.378627
v 15.500001 -51.108299 52.629022
v 15.500001 -51.563425 51.439886
v 15.500001 -51.415059 52.694226
v 15.500001 -51.956180 51.561035
v 15.500001 -51.701559 52.821784
v 15.500001 -52.326492 51.739368
v 15.500001 -52.666089 51.970901
v 15.500001 -51.955277 53.006121
v 15.500001 -52.967385 52.250463
v 15.500001 -52.165125 53.239181
v 15.500001 -53.223649 52.571807
v 15.500001 -52.321932 53.510778
v 15.500001 -53.429156 52.927757
v 15.500001 -53.579317 53.310361
v 15.500001 -52.418844 53.809042
v 15.500001 -53.670777 53.711071
v 15.500001 -52.451625 54.120937
v 15.500001 -53.701492 54.120937
v 15.500001 -53.670777 54.530803
v 15.500001 -52.418844 54.432833
v 15.500001 -53.579317 54.931514
v 15.500001 -52.321932 54.731096
v 15.500001 -53.429156 55.314118
v 15.500001 -53.223649 55.670067
v 15.500001 -52.165125 55.002693
v 15.500001 -52.967385 55.991412
v 15.500001 -51.955277 55.235753
v 15.500001 -52.666089 56.270974
v 15.500001 -51.701559 55.420090
v 15.500001 -52.326492 56.502507
v 15.500001 -51.956180 56.680840
v 15.500001 -51.415059 55.547648
v 15.500001 -51.563424 56.801989
v 15.500001 -51.108299 55.612852
v 15.500001 -51.157000 56.863248
v 15.500001 -50.745984 56.863248
v 15.500001 -50.794686 55.612852
v 15.500001 -50.339560 56.801989
v 15.500001 -50.487926 55.547648
v 15.500001 -49.946804 56.680840
v 15.500001 -50.201426 55.420090
v 15.500001 -49.576492 56.502507
v 15.500001 -49.236895 56.270974
v 15.500001 -49.947708 55.235753
v 15.500001 -48.935600 55.991412
v 15.500001 -49.737859 55.002693
v 15.500001 -48.679336 55.670067
v 15.500001 -49.581053 54.731096
v 15.500001 -48.473828 55.314117
v 15.500001 -48.323667 54.931514
v 15.500001 -49.484141 54.432832
v 17.743751 -50.336742 55.185715
v 17.900001 -50.201426 55.420090
v 17.900001 -50.201426 55.420090
v 17.900001 -48.232208 54.530803
v 17.900001 -49.484141 54.432832
v 17.900001 -48.323667 54.931514
v 17.900001 -49.581053 54.731096
v 17.900001 -48.473828 55.314117
v 17.900001 -48.679336 55.670067
v 17.900001 -49.737859 55.002693
v 17.900001 -48.935600 55.991412
v 17.900001 -49.947707 55.235753
v 17.900001 -49.236895 56.270974
v 17.900001 -50.201426 55.420090
v 17.900001 -49.576492 56.502507
v 17.900001 -49.946804 56.680840
v 17.900001 -50.487926 55.547648
v 17.900001 -50.339560 56.801989
v 17.900001 -50.794686 55.612852
v 17.900001 -50.745984 56.863248
v 17.900001 -51.108299 55.612852
v 17.900001 -51.157000 56.863248
v 17.900001 -51.563424 56.801989
v 17.900001 -51.415059 55.547648
v 17.900001 -51.956180 56.680840
v 17.900001 -51.701559 55.420091
v 17.900001 -52.326492 56.502507
v 17.900001 -52.666089 56.270974
v 17.900001 -51.955277 55.235753
v 17.900001 -52.967385 55.991412
v 17.900001 -52.165125 55.002693
v 17.900001 -53.223649 55.670067
v 17.900001 -53.429156 55.314118
v 17.900001 -52.321932 54.731096
v 17.900001 -53.579317 54.931514
v 17.900001 -52.418844 54.432833
v 17.900001 -53.670777 54.530803
v 17.900001 -52.451625 54.120937
v 17.900001 -53.701492 54.120937
v 17.900001 -53.670777 53.711071
v 17.900001 -52.418844 53.809042
v 17.900001 -53.579317 53.310361
v 17.900001 -52.321932 53.510778
v 17.900001 -53.429156 52.927757
v 17.900001 -53.223649 52.571807
v 17.900001 -52.165125 53.239181
v 17.900001 -52.967385 52.250463
v 17.900001 -51.955277 53.006121
v 17.900001 -52.666089 51.970901
v 17.900001 -51.701559 52.821784
v 17.900001 -52.326492 51.739368
v 17.900001 -51.956180 51.561035
v 17.900001 -51.415059 52.694226
v 17.900001 -51.563425 51.439886
v 17.900001 -51.108299 52.629022
v 17.900001 -51.157000 51.378627
v 17.900001 -50.794686 52.629022
v 17.900001 -50.745985 51.378627
v 17.900001 -50.339560 51.439886
v 17.900001 -50.487926 52.694226
v 17.900001 -49.946805 51.561035
v 17.900001 -50.201426 52.821784
v 17.900001 -49.576493 51.739368
v 17.900001 -49.236896 51.970901
v 17.900001 -49.947708 53.006121
v 17.900001 -48.935600 52.250462
v 17.900001 -49.737860 53.239181
v 17.900001 -48.679336 52.571807
v 17.900001 -48.473828 52.927757
v 17.900001 -49.581053 53.510778
v 17.900001 -48.323667 53.310361
v 17.900001 -49.484141 53.809042
v 15.500001 -48.935600 52.250462
v 15.548672 -48.914133 52.121782
v 15.500001 -49.236896 51.970901
v 15.512226 -49.246862 51.929680
v 15.500001 -49.576493 51.739368
v 15.500001 -49.576492 56.502507
v 15.512226 -49.246861 56.312194
v 15.500001 -49.236895 56.270974
v 15.548672 -48.914132 56.120093
v 15.500001 -48.935600 55.991412
v 15.610023 -48.569009 55.920836
v 15.500001 -48.679336 55.670067
v 15.698380 -48.201493 55.708650
v 15.500001 -48.473828 55.314117
v 15.610023 -48.201493 55.284278
v 15.500001 -48.323667 54.931514
v 15.548672 -48.201493 54.885765
v 15.500001 -48.232208 54.530803
v 15.512226 -48.201493 54.501562
v 15.500001 -48.201493 54.120937
v 15.500001 -51.563425 51.439886
v 15.548672 -51.664132 51.356954
v 15.500001 -51.956180 51.561035
v 15.512226 -51.996861 51.549055
v 15.500001 -52.326492 51.739368
v 15.500001 -52.326492 56.502507
v 15.512226 -51.996861 56.692819
v 15.500001 -51.956180 56.680840
v 15.548672 -51.664132 56.884921
v 15.500001 -51.563424 56.801989
v 15.610023 -51.319009 57.084177
v 15.500001 -51.157000 56.863248
v 15.698380 -50.951492 57.296364
v 15.500001 -50.745984 56.863248
v 15.610023 -50.583975 57.084178
v 15.500001 -50.339560 56.801989
v 15.548672 -50.238852 56.884921
v 15.500001 -49.946804 56.680840
v 15.512226 -49.906123 56.692819
v 15.500001 -49.576492 56.502507
v 15.500001 -53.579317 53.310361
v 15.548672 -53.701492 53.356110
v 15.500001 -53.670777 53.711071
v 15.512226 -53.701492 53.740312
v 15.500001 -53.701492 54.120937
v 15.500001 -52.967385 55.991412
v 15.548672 -52.988852 56.120093
v 15.500001 -52.666089 56.270974
v 15.512226 -52.656123 56.312194
v 15.500001 -52.326492 56.502507
v 17.900001 -49.576493 51.739368
v 17.887776 -49.246862 51.929680
v 17.900001 -49.236896 51.970901
v 17.851329 -48.914133 52.121782
v 17.900001 -48.935600 52.250462
v 17.789978 -48.569010 52.321038
v 17.900001 -48.679336 52.571807
v 17.701621 -48.201493 52.533224
v 17.900001 -48.473828 52.927757
v 17.789978 -48.201493 52.957596
v 17.900001 -48.323667 53.310361
v 17.851329 -48.201493 53.356110
v 17.900001 -48.232208 53.711071
v 17.887776 -48.201493 53.740312
v 17.900001 -48.201493 54.120937
v 17.900001 -48.935600 55.991412
v 17.851329 -48.914132 56.120093
v 17.900001 -49.236895 56.270974
v 17.887776 -49.246861 56.312194
v 17.900001 -49.576492 56.502507
v 17.900001 -52.326492 51.739368
v 17.887776 -51.996861 51.549055
v 17.900001 -51.956180 51.561035
v 17.851329 -51.664132 51.356954
v 17.900001 -51.563425 51.439886
v 17.789978 -51.319009 51.157697
v 17.900001 -51.157000 51.378627
v 17.701621 -50.951493 50.945511
v 17.900001 -50.745985 51.378627
v 17.789978 -50.583976 51.157697
v 17.900001 -50.339560 51.439886
v 17.851329 -50.238853 51.356954
v 17.900001 -49.946805 51.561035
v 17.887776 -49.906124 51.549055
v 17.900001 -49.576493 51.739368
v 17.900001 -53.701492 54.120937
v 17.887776 -53.701492 53.740312
v 17.900001 -53.670777 53.711071
v 17.851329 -53.701492 53.356110
v 17.900001 -53.579317 53.310361
v 17.789978 -53.701492 52.957596
v 17.900001 -53.429156 52.927757
v 17.701621 -53.701492 52.533224
v 17.900001 -53.223649 52.571807
v 17.789978 -53.333975 52.321038
v 17.900001 -52.967385 52.250463
v 17.851329 -52.988852 52.121782
v 17.900001 -52.666089 51.970901
v 17.887776 -52.656123 51.929680
v 17.900001 -52.326492 51.739368
v 17.900001 -51.563424 56.801989
v 17.851329 -51.664132 56.884921
v 17.900001 -51.956180 56.680840
v 17.887776 -51.996861 56.692819
v 17.900001 -52.326492 56.502507
v 17.900001 -53.579317 54.931514
v 17.851329 -53.701492 54.885765
v 17.900001 -53.670777 54.530803
v 17.887776 -53.701492 54.501562
v 17.900001 -53.701492 54.120937
v 17.701621 -53.701492 55.708650
v 15.698380 -53.701492 55.708650
v 17.789978 -53.701492 55.284278
v 15.610023 -53.701492 55.284278
v 17.851329 -53.701492 54.885765
v 15.548672 -53.701492 54.885765
v 17.887776 -53.701492 54.501562
v 15.512226 -53.701492 54.501562
v 17.900001 -53.701492 54.120937
v 15.500001 -53.701492 54.120937
v 17.887776 -53.701492 53.740312
v 15.512226 -53.701492 53.740312
v 17.851329 -53.701492 53.356110
v 15.548672 -53.701492 53.356110
v 17.789978 -53.701492 52.957596
v 15.610023 -53.701492 52.957596
v 17.701621 -53.701492 52.533224
v 15.698380 -53.701492 52.533224
v 17.701621 -53.701492 52.533224
v 15.698380 -53.701492 52.533224
v 17.789978 -53.333975 52.321038
v 15.610023 -53.333975 52.321038
v 17.851329 -52.988852 52.121782
v 15.548672 -52.988852 52.121782
v 17.887776 -52.656123 51.929680
v 15.512226 -52.656123 51.929680
v 17.900001 -52.326492 51.739368
v 15.500001 -52.326492 51.739368
v 17.887776 -51.996861 51.549055
v 15.512226 -51.996861 51.549055
v 17.851329 -51.664132 51.356954
v 15.548672 -51.664132 51.356954
v 17.789978 -51.319009 51.157697
v 15.610023 -51.319009 51.157697
v 17.701621 -50.951493 50.945511
v 15.698380 -50.951493 50.945511
v 17.701621 -50.951493 50.945511
v 15.698380 -50.951493 50.945511
v 17.789978 -50.583976 51.157697
v 15.610023 -50.583976 51.157697
v 17.851329 -50.238853 51.356954
v 15.548672 -50.238853 51.356954
v 17.887776 -49.906124 51.549055
v 15.512226 -49.906124 51.549055
v 17.900001 -49.576493 51.739368
v 15.500001 -49.576493 51.739368
v 15.512226 -49.246862 51.929680
v 17.887776 -49.246862 51.929680
v 15.548672 -48.914133 52.121782
v 17.851329 -48.914133 52.121782
v 15.610023 -48.569010 52.321038
v 17.789978 -48.569010 52.321038
v 15.698380 -48.201493 52.533224
v 17.701621 -48.201493 52.533224
v 15.512226 -51.996861 56.692819
v 15.500001 -52.326492 56.502507
v 17.900001 -52.326492 56.502507
v 17.887776 -51.996861 56.692819
v 15.548672 -51.664132 56.884921
v 15.512226 -52.656123 56.312194
v 17.887776 -52.656123 56.312194
v 15.548672 -52.988852 56.120093
v 17.851329 -52.988852 56.120093
v 15.610023 -53.333975 55.920836
v 17.789978 -53.333975 55.920836
v 15.698380 -53.701492 55.708650
v 17.701621 -53.701492 55.708650
v 17.851329 -51.664132 56.884921
v 15.610023 -51.319009 57.084177
v 17.789978 -51.319009 57.084178
v 15.698380 -50.951492 57.296364
v 17.701621 -50.951492 57.296364
v 15.512226 -49.906123 56.692819
v 17.887776 -49.906123 56.692819
v 15.500001 -49.576492 56.502507
v 17.851329 -50.238852 56.884921
v 17.900001 -49.576492 56.502507
v 15.512226 -49.246861 56.312194
v 17.887776 -49.246861 56.312194
v 15.548672 -48.914132 56.120093
v 17.851329 -48.914132 56.120093
v 15.610023 -48.569009 55.920836
v 17.789978 -48.569009 55.920836
v 15.698380 -48.201493 55.708650
v 17.701621 -48.201493 55.708650
v 15.548672 -50.238852 56.884921
v 17.789978 -50.583975 57.084178
v 15.610023 -50.583975 57.084178
v 17.701621 -50.951492 57.296364
v 15.698380 -50.951492 57.296364
v 15.512226 -48.201493 54.501562
v 17.887776 -48.201493 54.501562
v 15.500001 -48.201493 54.120937
v 17.851329 -48.201493 54.885765
v 17.900001 -48.201493 54.120937
v 15.512226 -48.201493 53.740312
v 17.887776 -48.201493 53.740312
v 15.548672 -48.201493 53.356110
v 17.851329 -48.201493 53.356110
v 15.610023 -48.201493 52.957596
v 17.789978 -48.201493 52.957596
v 15.698380 -48.201493 52.533224
v 17.701621 -48.201493 52.533224
v 15.548672 -48.201493 54.885765
v 17.789978 -48.201493 55.284278
v 15.610023 -48.201493 55.284278
v 17.701621 -48.201493 55.708650
v 15.698380 -48.201493 55.708650
f 1 2 3
f 1 4 2
f 2 4 58
f 4 57 58
f 5 6 7
f 5 8 6
f 5 7 245
f 6 8 9
f 8 10 9
f 9 10 11
f 10 12 11
f 11 12 13
f 12 14 13
f 13 14 15
f 14 16 15
f 15 16 17
f 16 18 17
f 17 18 19
f 18 20 19
f 19 20 21
f 20 22 21
f 21 22 23
f 22 24 23
f 23 25 26
f 23 24 25
f 25 27 26
f 26 27 28
f 27 29 28
f 28 29 30
f 29 31 30
f 30 31 32
f 31 33 32
f 32 33 34
f 33 35 34
f 34 35 36
f 35 37 36
f 36 37 38
f 37 39 38
f 38 39 40
f 39 41 40
f 40 41 42
f 41 43 42
f 42 44 45
f 42 43 44
f 44 46 45
f 45 46 47
f 46 48 47
f 47 48 49
f 48 50 49
f 49 50 51
f 50 52 51
f 51 52 53
f 52 54 53
f 53 54 55
f 54 56 55
f 55 56 57
f 56 58 57
f 59 60 61
f 59 61 62
f 59 63 60
f 60 63 64
f 61 112 62
f 62 112 111
f 63 65 64
f 64 65 66
f 65 67 66
f 66 67 68
f 67 69 68
f 68 69 70
f 69 71 70
f 70 71 72
f 71 73 72
f 72 73 74
f 73 75 74
f 74 75 76
f 75 77 76
f 76 77 78
f 77 79 78
f 78 79 80
f 79 81 80
f 80 81 82
f 81 83 82
f 82 83 84
f 83 85 84
f 84 85 86
f 85 246 86
f 86 246 247
f 87 88 89
f 87 89 90
f 87 91 88
f 88 91 92
f 91 93 92
f 92 93 94
f 93 95 94
f 94 95 96
f 95 97 96
f 96 97 98
f 97 99 98
f 98 99 100
f 99 101 100
f 100 101 102
f 101 103 102
f 102 103 104
f 103 105 104
f 104 105 106
f 105 107 106
f 106 107 108
f 107 109 108
f 108 109 110
f 109 111 110
f 110 111 112
f 113 114 115
f 113 316 315
f 113 115 316
f 114 248 115
f 115 248 249
f 116 117 118
f 116 119 117
f 116 118 319
f 117 119 120
f 119 121 120
f 120 121 122
f 121 123 122
f 122 123 124
f 123 125 124
f 124 125 126
f 125 127 126
f 126 127 128
f 127 129 128
f 128 129 130
f 129 131 130
f 130 131 132
f 131 133 132
f 132 133 134
f 133 135 134
f 134 136 137
f 134 135 136
f 136 138 137
f 137 138 139
f 138 140 139
f 139 140 141
f 140 142 141
f 141 142 143
f 142 144 143
f 143 144 145
f 144 146 145
f 145 146 147
f 146 148 147
f 147 148 149
f 148 150 149
f 149 150 151
f 150 152 151
f 151 152 153
f 152 154 153
f 153 155 156
f 153 154 155
f 155 157 156
f 156 157 158
f 157 159 158
f 158 159 160
f 159 161 160
f 160 161 162
f 161 163 162
f 162 163 164
f 163 165 164
f 164 165 166
f 165 167 166
f 166 167 168
f 167 169 168
f 168 169 170
f 169 171 170
f 170 171 317
f 171 318 317
f 172 173 174
f 172 388 387
f 172 174 388
f 173 320 174
f 174 320 321
f 175 176 177
f 175 177 178
f 175 179 176
f 176 179 389
f 177 184 178
f 178 184 183
f 179 390 389
f 180 181 182
f 180 183 181
f 181 183 184
f 185 186 187
f 185 187 188
f 185 189 186
f 186 189 409
f 187 194 188
f 188 194 193
f 189 410 409
f 190 191 192
f 190 193 191
f 191 193 194
f 195 196 197
f 195 197 198
f 195 199 196
f 196 199 429
f 197 204 198
f 198 204 203
f 199 430 429
f 200 201 202
f 200 203 201
f 201 203 204
f 205 206 207
f 205 207 208
f 205 209 206
f 206 209 434
f 207 214 208
f 208 214 213
f 209 435 434
f 210 211 212
f 210 213 211
f 211 213 214
f 215 216 217
f 215 217 218
f 215 219 216
f 216 219 454
f 217 224 218
f 218 224 223
f 219 455 454
f 220 221 222
f 220 223 221
f 221 223 224
f 225 226 227
f 225 227 228
f 225 229 226
f 226 229 489
f 227 234 228
f 228 234 233
f 229 490 489
f 230 231 232
f 230 233 231
f 231 233 234
f 235 236 237
f 235 237 238
f 235 239 236
f 236 239 494
f 237 244 238
f 238 244 243
f 239 495 494
f 240 241 242
f 240 243 241
f 241 243 244
f 248 250 249
f 249 250 251
f 250 252 251
f 251 252 253
f 251 253 254
f 253 255 254
f 254 255 256
f 255 257 256
f 256 257 258
f 257 259 258
f 258 259 260
f 258 260 261
f 260 262 261
f 261 262 263
f 262 264 263
f 263 264 265
f 263 265 266
f 265 267 266
f 266 267 268
f 267 269 268
f 268 269 270
f 269 271 270
f 270 271 272
f 270 272 273
f 272 274 273
f 273 274 275
f 274 276 275
f 275 276 277
f 276 278 277
f 277 278 279
f 277 279 280
f 279 281 280
f 280 281 282
f 281 283 282
f 282 283 284
f 282 284 285
f 284 286 285
f 285 286 287
f 286 288 287
f 287 288 289
f 287 289 290
f 289 291 290
f 290 291 292
f 291 293 292
f 292 293 294
f 293 295 294
f 294 295 296
f 294 296 297
f 296 298 297
f 297 298 299
f 298 300 299
f 299 300 301
f 299 301 302
f 301 303 302
f 302 303 304
f 303 305 304
f 304 305 306
f 305 307 306
f 306 307 308
f 306 308 309
f 308 310 309
f 309 310 311
f 310 312 311
f 311 312 313
f 312 314 313
f 313 314 315
f 313 315 316
f 320 322 321
f 321 322 323
f 322 324 323
f 323 324 325
f 323 325 326
f 325 327 326
f 326 327 328
f 327 329 328
f 328 329 330
f 329 331 330
f 330 331 332
f 330 332 333
f 332 334 333
f 333 334 335
f 334 336 335
f 335 336 337
f 336 338 337
f 337 338 339
f 337 339 340
f 339 341 340
f 340 341 342
f 341 343 342
f 342 343 344
f 342 344 345
f 344 346 345
f 345 346 347
f 346 348 347
f 347 348 349
f 347 349 350
f 349 351 350
f 350 351 352
f 351 353 352
f 352 353 354
f 353 355 354
f 354 355 356
f 354 356 357
f 356 358 357
f 357 358 359
f 358 360 359
f 359 360 361
f 359 361 362
f 361 363 362
f 362 363 364
f 363 365 364
f 364 365 366
f 365 367 366
f 366 367 368
f 366 368 369
f 368 370 369
f 369 370 371
f 370 372 371
f 371 372 373
f 372 374 373
f 373 374 375
f 373 375 376
f 375 377 376
f 376 377 378
f 377 379 378
f 378 379 380
f 378 380 381
f 380 382 381
f 381 382 383
f 382 384 383
f 383 384 385
f 383 385 386
f 385 387 386
f 386 387 388
f 389 390 391
f 390 392 391
f 391 392 393
f 394 395 396
f 395 397 396
f 396 397 398
f 397 399 398
f 398 399 400
f 399 401 400
f 400 401 402
f 401 403 402
f 402 403 404
f 403 405 404
f 404 405 406
f 405 407 406
f 406 407 408
f 409 410 411
f 410 412 411
f 411 412 413
f 414 415 416
f 415 417 416
f 416 417 418
f 417 419 418
f 418 419 420
f 419 421 420
f 420 421 422
f 421 423 422
f 422 423 424
f 423 425 424
f 424 425 426
f 425 427 426
f 426 427 428
f 429 430 431
f 430 432 431
f 431 432 433
f 434 435 436
f 435 437 436
f 436 437 438
f 439 440 441
f 440 442 441
f 441 442 443
f 442 444 443
f 443 444 445
f 444 446 445
f 445 446 447
f 446 448 447
f 447 448 449
f 448 450 449
f 449 450 451
f 450 452 451
f 451 452 453
f 454 455 456
f 455 457 456
f 456 457 458
f 459 460 461
f 460 462 461
f 461 462 463
f 462 464 463
f 463 464 465
f 464 466 465
f 465 466 467
f 466 468 467
f 467 468 469
f 468 470 469
f 469 470 471
f 470 472 471
f 471 472 473
f 474 475 476
f 475 477 476
f 476 477 478
f 477 479 478
f 478 479 480
f 479 481 480
f 480 481 482
f 481 483 482
f 482 483 484
f 483 485 484
f 484 485 486
f 485 487 486
f 486 487 488
f 489 490 491
f 490 492 491
f 491 492 493
f 494 495 496
f 495 497 496
f 496 497 498
f 499 500 501
f 500 502 501
f 501 502 503
f 502 504 503
f 503 504 505
f 504 506 505
f 505 506 507
f 506 508 507
f 507 508 509
f 508 510 509
f 509 510 511
f 510 512 511
f 511 512 513
f 512 514 513
f 513 514 515
f 514 516 515
f 517 518 519
f 518 520 519
f 519 520 521
f 520 522 521
f 521 522 523
f 522 524 523
f 523 524 525
f 524 526 525
f 525 526 527
f 526 528 527
f 527 528 529
f 528 530 529
f 529 530 531
f 530 532 531
f 531 532 533
f 532 534 533
f 535 536 537
f 536 538 537
f 537 538 539
f 538 540 539
f 539 540 541
f 540 542 541
f 541 542 543
f 542 544 543
f 543 544 545
f 543 545 546
f 545 547 546
f 546 547 548
f 547 549 548
f 548 549 550
f 549 551 550
f 550 551 552
f 553 554 555
f 553 556 557
f 553 555 556
f 554 558 555
f 555 558 559
f 556 566 557
f 557 566 567
f 558 560 559
f 559 560 561
f 560 562 561
f 561 562 563
f 562 564 563
f 563 564 565
f 566 568 567
f 567 568 569
f 568 570 569
f 571 572 573
f 571 574 572
f 571 584 574
f 572 575 573
f 573 575 576
f 574 584 585
f 575 577 576
f 576 577 578
f 577 579 578
f 578 579 580
f 579 581 580
f 580 581 582
f 581 583 582
f 584 586 585
f 585 586 587
f 586 588 587
f 589 590 591
f 589 592 590
f 589 602 592
f 590 593 591
f 591 593 594
f 592 602 603
f 593 595 594
f 594 595 596
f 595 597 596
f 596 597 598
f 597 599 598
f 598 599 600
f 599 601 600
f 602 604 603
f 603 604 605
f 604 606 605