# ANSI B18.3.4M - M3 x 0.5 x 12(1)
# Autodesk dbId: 85
# Units: mm
o 085_ANSI_B18.3.4M_-_M3_x_0.5_x_12(1)
v -25.000000 -49.565852 54.920937
v -24.996593 -49.838423 55.234007
v -24.996593 -49.588266 54.907996
v -25.000000 -49.406011 54.535048
v -25.000000 -49.820121 55.252308
v -24.996593 -50.164433 55.484164
v -25.000000 -50.151492 55.506578
v -24.996593 -50.544080 55.641419
v -25.000000 -50.537382 55.666418
v -24.996593 -50.951492 55.695055
v -25.000000 -50.951492 55.720937
v -24.996593 -51.358904 55.641419
v -25.000000 -51.365603 55.666419
v -24.996593 -51.738551 55.484164
v -25.000000 -51.751492 55.506578
v -24.996593 -52.064562 55.234007
v -24.996593 -51.738551 55.484164
v -25.000000 -52.082863 55.252308
v -24.996593 -52.314718 54.907997
v -25.000000 -52.337133 54.920937
v -24.996593 -52.471973 54.528349
v -25.000000 -52.496973 54.535048
v -24.996593 -52.525610 54.120937
v -25.000000 -52.551492 54.120937
v -24.996593 -52.471974 53.713526
v -25.000000 -52.496974 53.706827
v -24.996593 -52.314719 53.333878
v -25.000000 -52.337133 53.320937
v -24.996593 -52.064562 53.007868
v -25.000000 -52.082863 52.989567
v -24.996593 -51.738551 52.757711
v -25.000000 -51.751492 52.735297
v -24.996593 -51.358904 52.600456
v -25.000000 -51.365603 52.575456
v -24.996593 -50.951492 52.546819
v -25.000000 -50.951492 52.520937
v -24.996593 -50.544081 52.600456
v -25.000000 -50.537382 52.575456
v -24.996593 -50.164433 52.757711
v -25.000000 -50.151492 52.735297
v -24.996593 -49.838423 53.007868
v -25.000000 -49.820122 52.989566
v -24.996593 -49.588266 53.333878
v -25.000000 -49.565852 53.320937
v -24.996593 -49.431011 53.713525
v -25.000000 -49.406011 53.706827
v -24.996593 -49.377374 54.120937
v -25.000000 -49.351492 54.120937
v -24.996593 -49.431011 54.528349
v -24.900000 -49.652454 54.870937
v -24.925883 -49.499312 54.510048
v -24.925883 -49.649503 54.872641
v -24.900000 -49.890832 55.181597
v -24.900000 -49.502604 54.509166
v -24.925883 -49.448085 54.120937
v -24.900000 -49.451492 54.120937
v -24.925883 -49.499312 53.731827
v -24.900000 -49.502604 53.732709
v -24.925883 -49.649504 53.369234
v -24.900000 -49.652454 53.370937
v -24.925883 -49.888423 53.057868
v -24.900000 -49.890832 53.060277
v -24.925883 -50.199789 52.818948
v -24.900000 -50.201492 52.821899
v -24.925883 -50.562382 52.668757
v -24.900000 -50.563264 52.672049
v -24.925883 -50.951492 52.617530
v -24.900000 -50.951492 52.620937
v -24.925883 -51.340603 52.668757
v -24.900000 -51.339721 52.672049
v -24.925883 -51.703196 52.818948
v -24.900000 -51.701492 52.821899
v -24.925883 -52.014562 53.057868
v -24.900000 -52.012152 53.060277
v -24.925883 -52.253481 53.369234
v -24.900000 -52.250530 53.370937
v -24.925883 -52.403672 53.731827
v -24.900000 -52.400381 53.732709
v -24.925883 -52.454900 54.120937
v -24.900000 -52.451492 54.120938
v -24.925883 -52.403672 54.510048
v -24.900000 -52.400381 54.509166
v -24.925883 -52.253481 54.872641
v -24.900000 -52.250530 54.870937
v -24.925883 -52.014562 55.184007
v -24.900000 -52.012152 55.181598
v -24.925883 -51.703196 55.422926
v -24.900000 -51.701492 55.419976
v -24.925883 -51.340603 55.573117
v -24.925883 -51.703196 55.422926
v -24.900000 -51.339721 55.569826
v -24.925883 -50.951492 55.624345
v -24.900000 -50.951492 55.620937
v -24.925883 -50.562382 55.573117
v -24.900000 -50.563264 55.569826
v -24.925883 -50.199789 55.422926
v -24.900000 -50.201492 55.419975
v -24.925883 -49.888423 55.184007
v -24.986603 -52.047508 55.216953
v -24.986603 -51.726492 55.463277
v -24.986603 -51.726492 55.463277
v -24.970711 -51.716137 55.445341
v -24.986603 -51.352662 55.618122
v -24.950000 -51.708191 55.431578
v -24.970711 -51.347301 55.598117
v -24.950000 -51.343188 55.582767
v -24.986603 -50.176492 55.463277
v -24.986603 -49.855477 55.216953
v -24.970711 -50.186848 55.445341
v -24.970711 -49.870121 55.202308
v -24.986603 -49.609153 54.895937
v -24.950000 -50.194794 55.431578
v -24.950000 -49.881359 55.191071
v -24.970711 -49.627089 54.885582
v -24.950000 -49.640852 54.877636
v -24.950000 -49.489663 54.512633
v -24.970711 -49.474312 54.516746
v -24.986603 -49.454307 54.522107
v -24.986603 -50.550323 55.618122
v -24.970711 -50.555683 55.598117
v -24.950000 -50.559796 55.582767
v -24.986603 -50.951492 55.670937
v -24.970711 -50.951492 55.650227
v -24.950000 -50.951492 55.634335
v -24.986603 -52.293832 54.895937
v -24.970711 -52.275896 54.885582
v -24.970711 -52.032863 55.202308
v -24.950000 -52.262133 54.877636
v -24.950000 -52.021626 55.191071
v -24.970711 -51.716137 55.445341
v -24.950000 -51.708191 55.431578
v -24.986603 -52.448677 54.522107
v -24.970711 -52.428672 54.516747
v -24.950000 -52.413322 54.512634
v -24.986603 -52.501492 54.120937
v -24.970711 -52.480782 54.120937
v -24.950000 -52.464890 54.120937
v -24.986603 -52.448677 53.719768
v -24.970711 -52.428672 53.725128
v -24.950000 -52.413322 53.729241
v -24.986603 -52.293832 53.345937
v -24.970711 -52.275896 53.356293
v -24.950000 -52.262133 53.364239
v -24.986603 -52.047508 53.024922
v -24.970711 -52.032863 53.039567
v -24.950000 -52.021626 53.050804
v -24.986603 -51.726492 52.778598
v -24.970711 -51.716137 52.796534
v -24.950000 -51.708191 52.810297
v -24.986603 -51.352662 52.623752
v -24.970711 -51.347302 52.643757
v -24.950000 -51.343188 52.659108
v -24.986603 -50.951492 52.570937
v -24.970711 -50.951492 52.591648
v -24.950000 -50.951492 52.607540
v -24.986603 -50.550323 52.623752
v -24.970711 -50.555683 52.643757
v -24.950000 -50.559796 52.659108
v -24.986603 -50.176492 52.778598
v -24.970711 -50.186848 52.796534
v -24.950000 -50.194794 52.810297
v -24.986603 -49.855477 53.024922
v -24.970711 -49.870122 53.039566
v -24.950000 -49.881359 53.050804
v -24.986603 -49.609153 53.345937
v -24.970711 -49.627089 53.356293
v -24.950000 -49.640852 53.364239
v -24.986603 -49.454307 53.719768
v -24.970711 -49.474312 53.725128
v -24.950000 -49.489663 53.729241
v -24.986603 -49.401492 54.120937
v -24.970711 -49.422203 54.120937
v -24.950000 -49.438095 54.120937
v -13.306726 -49.652454 54.870937
v -24.900000 -49.502604 54.509166
v -24.900000 -49.652454 54.870937
v -13.306726 -49.890832 55.181597
v -13.306726 -49.502604 54.509166
v -24.900000 -49.451492 54.120937
v -13.306726 -49.451492 54.120937
v -24.900000 -49.502604 53.732709
v -13.306726 -49.502604 53.732709
v -24.900000 -49.652454 53.370937
v -13.306726 -49.652454 53.370937
v -24.900000 -49.890832 53.060277
v -13.306726 -49.890832 53.060277
v -24.900000 -50.201492 52.821899
v -13.306726 -50.201492 52.821899
v -24.900000 -50.563264 52.672049
v -13.306726 -50.563264 52.672049
v -24.900000 -50.951492 52.620937
v -13.306726 -50.951492 52.620937
v -24.900000 -51.339721 52.672049
v -13.306726 -51.339721 52.672049
v -24.900000 -51.701492 52.821899
v -13.306726 -51.701492 52.821899
v -24.900000 -52.012152 53.060277
v -13.306726 -52.012153 53.060277
v -24.900000 -52.250530 53.370937
v -13.306726 -52.250530 53.370938
v -24.900000 -52.400381 53.732709
v -24.900000 -52.250530 53.370937
v -13.306726 -52.400381 53.732709
v -24.900000 -52.451492 54.120938
v -13.306726 -52.451492 54.120938
v -24.900000 -52.400381 54.509166
v -13.306726 -52.400381 54.509166
v -24.900000 -52.250530 54.870937
v -13.306726 -52.250530 54.870937
v -24.900000 -52.012152 55.181598
v -13.306726 -52.012152 55.181598
v -24.900000 -51.701492 55.419976
v -13.306726 -51.701492 55.419976
v -24.900000 -51.339721 55.569826
v -13.306726 -51.339721 55.569826
v -24.900000 -50.951492 55.620937
v -13.306726 -50.951492 55.620937
v -24.900000 -50.563264 55.569826
v -13.306726 -50.563264 55.569826
v -24.900000 -50.201492 55.419975
v -13.306726 -50.201492 55.419975
v -24.900000 -49.890832 55.181597
v -25.000000 -48.240981 55.001635
v -25.000000 -48.483320 55.545937
v -25.000000 -49.565852 54.920937
v -26.650001 -49.583172 54.910937
v -26.606726 -49.407321 55.242843
v -26.606726 -49.207808 54.897275
v -26.650001 -49.425330 54.529871
v -26.650001 -49.834264 55.238166
v -26.650001 -50.161492 55.489257
v -26.650001 -50.542558 55.647100
v -26.606726 -50.361671 55.936219
v -26.650001 -50.951492 55.700937
v -26.606726 -50.751979 56.019181
v -26.650001 -51.360426 55.647100
v -26.606726 -51.151006 56.019181
v -26.650001 -51.741492 55.489257
v -26.606726 -51.541313 55.936219
v -26.650001 -52.531492 54.120937
v -26.650001 -52.477655 53.712003
v -26.606726 -52.818483 53.724096
v -26.650001 -52.319813 53.330937
v -26.606726 -52.695177 53.344599
v -26.650001 -52.068721 53.003709
v -26.606726 -52.495663 52.999032
v -26.650001 -51.741492 52.752617
v -26.606726 -52.228662 52.702497
v -26.650001 -50.161492 52.752617
v -26.650001 -49.834264 53.003709
v -26.606726 -49.674323 52.702497
v -26.650001 -49.583172 53.330937
v -26.606726 -49.407322 52.999031
v -26.650001 -49.425330 53.712003
v -26.606726 -49.207808 53.344599
v -26.650001 -49.371492 54.120937
v -26.606726 -49.084502 53.724096
v -26.606726 -49.084502 54.517778
v -26.606726 -49.042792 54.120937
v -25.380000 -48.483320 55.545937
v -25.708701 -48.387421 55.262535
v -25.708701 -48.680803 55.770689
v -25.380000 -48.833530 56.027959
v -25.380000 -48.240981 55.001635
v -25.380000 -48.240982 53.240239
v -25.708701 -48.387421 52.979339
v -25.708701 -48.206100 53.537386
v -25.380000 -48.483320 52.695937
v -25.708701 -48.680804 52.471185
v -25.380000 -48.833530 52.213915
v -25.708701 -49.073426 52.035134
v -25.380000 -49.276305 51.815239
v -25.708701 -49.548130 51.690241
v -25.380000 -49.792293 51.517333
v -25.708701 -50.084167 51.451583
v -25.380000 -50.358944 51.333217
v -25.708701 -50.658110 51.329587
v -25.380000 -50.951492 51.270937
v -25.708701 -51.244875 51.329587
v -25.380000 -51.544041 51.333217
v -25.708701 -51.818818 51.451583
v -25.380000 -52.110692 51.517333
v -25.708701 -52.354855 51.690242
v -25.380000 -52.626680 51.815239
v -25.708701 -52.829558 52.035134
v -25.380000 -53.069455 52.213915
v -25.708701 -53.222181 52.471186
v -25.380000 -53.419665 52.695938
v -25.708701 -53.515564 52.979339
v -25.380000 -53.662003 53.240239
v -25.708701 -53.696884 53.537386
v -25.380000 -53.785879 53.823032
v -25.708701 -53.758218 54.120938
v -25.380000 -53.785879 54.418844
v -25.708701 -53.696884 54.704489
v -25.380000 -53.662003 55.001636
v -25.708701 -53.515564 55.262536
v -25.380000 -53.419664 55.545938
v -25.708701 -53.222181 55.770690
v -25.380000 -53.069455 56.027960
v -25.708701 -52.829558 56.206741
v -25.380000 -52.110691 56.724542
v -25.708701 -52.354855 56.551633
v -25.380000 -52.626680 56.426636
v -25.380000 -51.544040 56.908658
v -25.708701 -51.244875 56.912288
v -25.708701 -51.818818 56.790292
v -25.380000 -50.951492 56.970937
v -25.708701 -50.658109 56.912287
v -25.380000 -50.358944 56.908658
v -25.708701 -50.084166 56.790292
v -25.380000 -49.792293 56.724542
v -25.708701 -49.548129 56.551633
v -25.380000 -49.276304 56.426635
v -25.708701 -49.073426 56.206741
v -26.606726 -49.674322 55.539378
v -26.479853 -49.159520 55.422881
v -26.278026 -48.946727 55.577484
v -26.479853 -48.927989 55.021859
v -26.479853 -49.469368 55.767003
v -26.015001 -48.783446 55.696115
v -26.278026 -48.687703 55.128841
v -26.278026 -49.293369 55.962469
v -26.015001 -48.503326 55.210931
v -26.015001 -49.158321 56.112455
v -25.708701 -48.206100 54.704488
v -26.015001 -48.330201 54.678110
v -26.278026 -48.527618 54.636148
v -26.479853 -48.784895 54.581461
v -26.606726 -49.997142 55.773920
v -26.479853 -49.843992 56.039183
v -26.278026 -49.712479 56.266970
v -26.015001 -49.611566 56.441757
v -26.479853 -50.719962 56.323803
v -26.479853 -50.267019 56.227527
v -26.278026 -50.692468 56.585388
v -26.278026 -50.185740 56.477680
v -26.015001 -50.123372 56.669628
v -26.015001 -50.671371 56.786109
v -26.479853 -51.183023 56.323803
v -26.278026 -51.210516 56.585388
v -26.015001 -51.231613 56.786109
v -26.479853 -51.635965 56.227528
v -26.278026 -51.717244 56.477680
v -26.015001 -51.779612 56.669628
v -26.606726 -51.905842 55.773920
v -26.479853 -52.058992 56.039184
v -26.278026 -52.190505 56.266970
v -26.015001 -52.291418 56.441757
v -26.606726 -52.228662 55.539378
v -26.650001 -51.741492 55.489257
v -26.650001 -52.068721 55.238166
v -26.606726 -52.495663 55.242843
v -26.479853 -52.433616 55.767003
v -26.606726 -51.905842 55.773920
v -26.479853 -52.743465 55.422882
v -26.278026 -52.956257 55.577484
v -26.278026 -52.609615 55.962469
v -26.015001 -53.119538 55.696115
v -26.015001 -52.744663 56.112456
v -26.650001 -52.319812 54.910937
v -26.606726 -52.695176 54.897276
v -26.479853 -52.974995 55.021859
v -26.278026 -53.215281 55.128841
v -26.015001 -53.399659 55.210932
v -26.650001 -52.477655 54.529871
v -26.606726 -52.818483 54.517779
v -26.479853 -53.118089 54.581462
v -26.278026 -53.375367 54.636148
v -26.015001 -53.572783 54.678110
v -26.606726 -52.860192 54.120937
v -26.479853 -53.166492 54.120937
v -26.278026 -53.429518 54.120937
v -26.015001 -53.631344 54.120938
v -26.479853 -52.974995 53.220016
v -26.479853 -53.118089 53.660413
v -26.278026 -53.215281 53.113034
v -26.278026 -53.375367 53.605727
v -26.015001 -53.572783 53.563765
v -26.015001 -53.399659 53.030944
v -26.479853 -52.743465 52.818993
v -26.278026 -52.956257 52.664391
v -26.015001 -53.119538 52.545760
v -26.479852 -52.433617 52.474872
v -26.278026 -52.609615 52.279406
v -26.015001 -52.744664 52.129419
v -26.606726 -51.905842 52.467955
v -26.479852 -52.058992 52.202691
v -26.278026 -52.190505 51.974904
v -26.015001 -52.291418 51.800117
v -26.606726 -51.541313 52.305656
v -26.650001 -51.360427 52.594775
v -26.606726 -51.151006 52.222693
v -26.479852 -51.183023 51.918071
v -26.479852 -51.635965 52.014347
v -26.278026 -51.210517 51.656487
v -26.278026 -51.717244 51.764195
v -26.015001 -51.231613 51.455766
v -26.015001 -51.779612 51.572246
v -26.650001 -50.951492 52.540937
v -26.606726 -50.751979 52.222693
v -26.479852 -50.719962 51.918071
v -26.278026 -50.692468 51.656487
v -26.015001 -50.671372 51.455766
v -26.650001 -50.542558 52.594775
v -26.606726 -50.361672 52.305656
v -26.479852 -50.267020 52.014347
v -26.278026 -50.185741 51.764195
v -26.015001 -50.123373 51.572246
v -26.606726 -49.997142 52.467954
v -26.479852 -49.843993 52.202691
v -26.278026 -49.712480 51.974904
v -26.015001 -49.611566 51.800117
v -26.479852 -49.159520 52.818993
v -26.479852 -49.469368 52.474871
v -26.278026 -48.946728 52.664390
v -26.015001 -49.158321 52.129419
v -26.278026 -49.293370 52.279405
v -26.015001 -48.783447 52.545759
v -26.479852 -48.927989 53.220015
v -26.278026 -48.687703 53.113033
v -26.015001 -48.503326 53.030943
v -26.479852 -48.784895 53.660413
v -26.278026 -48.527618 53.605727
v -26.015001 -48.330202 53.563764
v -26.479853 -48.736492 54.120937
v -26.278026 -48.473467 54.120937
v -26.015001 -48.271640 54.120937
v -25.708701 -48.144767 54.120937
v -25.380000 -48.117105 53.823031
v -25.380000 -48.117105 54.418843
v -26.650001 -49.796792 54.120937
v -26.650001 -49.583172 54.910937
v -26.650001 -49.425330 54.529871
v -26.650001 -49.371492 54.120937
v -26.650001 -49.583172 53.330937
v -26.650001 -50.374142 53.120937
v -26.650001 -49.425330 53.712003
v -26.650001 -50.374142 55.120937
v -26.650001 -50.951492 55.700937
v -26.650001 -50.542558 55.647100
v -26.650001 -50.161492 55.489257
v -26.650001 -49.834264 55.238166
v -26.650001 -51.528842 55.120937
v -26.650001 -52.319812 54.910937
v -26.650001 -52.068721 55.238166
v -26.650001 -51.741492 55.489257
v -26.650001 -51.360426 55.647100
v -26.650001 -52.106193 54.120937
v -26.650001 -52.319813 53.330937
v -26.650001 -52.477655 53.712003
v -26.650001 -52.531492 54.120937
v -26.650001 -52.477655 54.529871
v -26.650001 -51.528843 53.120937
v -26.650001 -50.951492 52.540937
v -26.650001 -51.360427 52.594775
v -26.650001 -51.741492 52.752617
v -26.650001 -52.068721 53.003709
v -26.650001 -49.834264 53.003709
v -26.650001 -50.161492 52.752617
v -26.650001 -50.542558 52.594775
v -25.610000 -51.528843 53.120937
v -25.541789 -51.224339 53.120937
v -26.650001 -51.528843 53.120937
v -25.610000 -52.106193 54.120937
v -25.541789 -51.953941 53.857229
v -26.650001 -52.106193 54.120937
v -25.000000 -51.751492 55.506578
v -24.900000 -51.701492 55.419976
v -13.306726 -52.250530 53.370938
v -25.000000 -48.833530 56.027959
v -25.000000 -49.820121 55.252308
v -25.000000 -49.276304 56.426635
v -25.000000 -50.151492 55.506578
v -25.000000 -49.792293 56.724542
v -25.000000 -50.537382 55.666418
v -25.000000 -50.358944 56.908658
v -25.000000 -50.951492 55.720937
v -25.000000 -50.951492 56.970937
v -25.000000 -51.544040 56.908658
v -25.000000 -51.365603 55.666419
v -25.000000 -52.110691 56.724542
v -25.000000 -51.751492 55.506578
v -25.000000 -52.626680 56.426636
v -25.000000 -52.082863 55.252308
v -25.000000 -53.069455 56.027960
v -25.000000 -52.337133 54.920937
v -25.000000 -53.419664 55.545938
v -25.000000 -53.662003 55.001636
v -25.000000 -52.496973 54.535048
v -25.000000 -53.785879 54.418844
v -25.000000 -52.551492 54.120937
v -25.000000 -53.785879 53.823032
v -25.000000 -52.496974 53.706827
v -25.000000 -53.662003 53.240239
v -25.000000 -52.337133 53.320937
v -25.000000 -53.419665 52.695938
v -25.000000 -53.069455 52.213915
v -25.000000 -52.082863 52.989567
v -25.000000 -52.626680 51.815239
v -25.000000 -51.751492 52.735297
v -25.000000 -52.110692 51.517333
v -25.000000 -51.365603 52.575456
v -25.000000 -51.544041 51.333217
v -25.000000 -50.951492 52.520937
v -25.000000 -50.951492 51.270937
v -25.000000 -50.358944 51.333217
v -25.000000 -50.537382 52.575456
v -25.000000 -49.792293 51.517333
v -25.000000 -50.151492 52.735297
v -25.000000 -49.276305 51.815239
v -25.000000 -49.820122 52.989566
v -25.000000 -48.833530 52.213915
v -25.000000 -49.565852 53.320937
v -25.000000 -48.483320 52.695937
v -25.000000 -48.240982 53.240239
v -25.000000 -49.406011 53.706827
v -25.000000 -48.117105 53.823031
v -25.000000 -49.351492 54.120937
v -25.000000 -48.117105 54.418843
v -25.000000 -49.406011 54.535048
v -13.306726 -49.890832 55.181597
v -13.000001 -50.107719 54.964710
v -13.306726 -49.652454 54.870937
v -13.000001 -50.354855 55.154344
v -13.000001 -49.918086 54.717575
v -13.306726 -49.652454 54.870937
v -13.000001 -49.918086 54.717575
v -13.306726 -49.502604 54.509166
v -13.000001 -49.798877 54.429780
v -13.306726 -49.451492 54.120937
v -13.000001 -49.758217 54.120937
v -13.306726 -49.502604 53.732709
v -13.000001 -49.798877 53.812095
v -13.306726 -49.652454 53.370937
v -13.000001 -49.918086 53.524300
v -13.306726 -49.890832 53.060277
v -13.000001 -50.107720 53.277165
v -13.306726 -50.201492 52.821899
v -13.000001 -50.354855 53.087531
v -13.306726 -50.563264 52.672049
v -13.000001 -50.642650 52.968322
v -13.306726 -50.951492 52.620937
v -13.000001 -50.951492 52.927662
v -13.306726 -51.339721 52.672049
v -13.000001 -51.260335 52.968322
v -13.306726 -51.701492 52.821899
v -13.000001 -51.548130 53.087531
v -13.306726 -52.012153 53.060277
v -13.000001 -51.795265 53.277165
v -13.306726 -52.250530 53.370938
v -13.000001 -51.984899 53.524300
v -13.306726 -52.400381 53.732709
v -13.000001 -52.104107 53.812095
v -13.306726 -52.451492 54.120938
v -13.000001 -52.144767 54.120938
v -13.306726 -52.400381 54.509166
v -13.000001 -52.104107 54.429780
v -13.306726 -52.250530 54.870937
v -13.000001 -51.984899 54.717575
v -13.306726 -52.012152 55.181598
v -13.000001 -51.795265 54.964710
v -13.306726 -51.701492 55.419976
v -13.000001 -51.548130 55.154344
v -13.306726 -51.339721 55.569826
v -13.000001 -51.260335 55.273553
v -13.306726 -50.951492 55.620937
v -13.000001 -50.951492 55.314212
v -13.306726 -50.563264 55.569826
v -13.000001 -50.642650 55.273552
v -13.306726 -50.201492 55.419975
v -13.000001 -49.918086 54.717575
v -13.000001 -50.107719 54.964710
v -13.000001 -49.798877 54.429780
v -13.000001 -49.758217 54.120937
v -13.000001 -50.354855 55.154344
v -13.000001 -49.798877 53.812095
v -13.000001 -50.642650 55.273552
v -13.000001 -49.918086 53.524300
v -13.000001 -50.951492 55.314212
v -13.000001 -50.107720 53.277165
v -13.000001 -51.260335 55.273553
v -13.000001 -50.354855 53.087531
v -13.000001 -51.548130 55.154344
v -13.000001 -50.642650 52.968322
v -13.000001 -51.795265 54.964710
v -13.000001 -50.951492 52.927662
v -13.000001 -51.984899 54.717575
v -13.000001 -51.260335 52.968322
v -13.000001 -52.104107 54.429780
v -13.000001 -51.548130 53.087531
v -13.000001 -52.144767 54.120938
v -13.000001 -51.795265 53.277165
v -13.000001 -52.104107 53.812095
v -13.000001 -51.984899 53.524300
v -25.380000 -52.626680 56.426636
v -25.708701 -52.354855 56.551633
v -26.015001 -52.291418 56.441757
v -26.278026 -52.190505 56.266970
v -26.479853 -52.058992 56.039184
v -25.000000 -48.240981 55.001635
v -25.380000 -48.240981 55.001635
v -25.000000 -48.483320 55.545937
v -25.380000 -48.117105 54.418843
v -25.380000 -48.483320 55.545937
v -25.000000 -48.833530 56.027959
v -25.380000 -48.833530 56.027959
v -25.000000 -49.276304 56.426635
v -25.380000 -49.276304 56.426635
v -25.000000 -49.792293 56.724542
v -25.380000 -49.792293 56.724542
v -25.000000 -50.358944 56.908658
v -25.380000 -50.358944 56.908658
v -25.000000 -50.951492 56.970937
v -25.380000 -50.951492 56.970937
v -25.000000 -51.544040 56.908658
v -25.380000 -51.544040 56.908658
v -25.000000 -52.110691 56.724542
v -25.380000 -52.110691 56.724542
v -25.000000 -52.626680 56.426636
v -25.380000 -52.626680 56.426636
v -25.000000 -53.069455 56.027960
v -25.380000 -53.069455 56.027960
v -25.000000 -53.419664 55.545938
v -25.380000 -53.419664 55.545938
v -25.000000 -53.662003 55.001636
v -25.380000 -53.662003 55.001636
v -25.000000 -53.785879 54.418844
v -25.380000 -53.785879 54.418844
v -25.000000 -53.785879 53.823032
v -25.380000 -53.785879 53.823032
v -25.000000 -53.662003 53.240239
v -25.380000 -53.662003 53.240239
v -25.000000 -53.419665 52.695938
v -25.380000 -53.419665 52.695938
v -25.000000 -53.419665 52.695938
v -25.380000 -53.419665 52.695938
v -25.000000 -53.069455 52.213915
v -25.380000 -53.069455 52.213915
v -25.000000 -52.626680 51.815239
v -25.380000 -52.626680 51.815239
v -25.000000 -52.110692 51.517333
v -25.380000 -52.110692 51.517333
v -25.000000 -51.544041 51.333217
v -25.380000 -51.544041 51.333217
v -25.000000 -50.951492 51.270937
v -25.380000 -50.951492 51.270937
v -25.000000 -50.358944 51.333217
v -25.380000 -50.358944 51.333217
v -25.000000 -49.792293 51.517333
v -25.380000 -49.792293 51.517333
v -25.000000 -49.276305 51.815239
v -25.380000 -49.276305 51.815239
v -25.000000 -48.833530 52.213915
v -25.380000 -48.833530 52.213915
v -25.000000 -48.483320 52.695937
v -25.380000 -48.483320 52.695937
v -25.000000 -48.240982 53.240239
v -25.380000 -48.240982 53.240239
v -25.000000 -48.117105 53.823031
v -25.380000 -48.117105 53.823031
v -25.000000 -48.117105 54.418843
v -25.520684 -50.951492 53.120937
v -26.650001 -50.374142 53.120937
v -25.541789 -50.678646 53.120937
v -25.610000 -50.374142 53.120937
v -25.610000 -50.374142 53.120937
v -25.541789 -50.221890 53.384645
v -26.650001 -50.374142 53.120937
v -25.520684 -50.085467 53.620937
v -26.650001 -49.796792 54.120937
v -25.541789 -49.949044 53.857229
v -25.610000 -49.796792 54.120937
v -25.610000 -49.796792 54.120937
v -25.541789 -49.949044 54.384645
v -26.650001 -49.796792 54.120937
v -25.520684 -50.085467 54.620937
v -26.650001 -50.374142 55.120937
v -25.541789 -50.221890 54.857229
v -25.610000 -50.374142 55.120937
v -25.610000 -50.374142 55.120937
v -25.541789 -50.678646 55.120937
v -26.650001 -50.374142 55.120937
v -25.520684 -50.951492 55.120937
v -26.650001 -51.528842 55.120937
v -25.541789 -51.224339 55.120937
v -25.610000 -51.528842 55.120937
v -25.520684 -51.817518 53.620937
v -26.650001 -51.528843 53.120937
v -25.541789 -51.681094 53.384645
v -25.610000 -51.528843 53.120937
v -25.610000 -51.528842 55.120937
v -25.541789 -51.681094 54.857229
v -26.650001 -51.528842 55.120937
v -25.520684 -51.817518 54.620937
v -26.650001 -52.106193 54.120937
v -25.541789 -51.953941 54.384645
v -25.610000 -52.106193 54.120937
v -25.541789 -51.224339 55.120937
v -24.943334 -50.951492 54.120937
v -25.610000 -51.528842 55.120937
v -25.520684 -50.951492 55.120937
v -24.943334 -50.951492 54.120937
v -25.541789 -51.681094 54.857229
v -25.610000 -50.374142 55.120937
v -24.943334 -50.951492 54.120937
v -25.541789 -50.678646 55.120937
v -25.541789 -50.221890 54.857229
v -24.943334 -50.951492 54.120937
v -24.943334 -50.951492 54.120937
v -25.520684 -50.085467 54.620937
v -25.610000 -49.796792 54.120937
v -24.943334 -50.951492 54.120937
v -25.541789 -49.949044 54.384645
v -25.541789 -49.949044 53.857229
v -24.943334 -50.951492 54.120937
v -24.943334 -50.951492 54.120937
v -25.520684 -50.085467 53.620937
v -25.610000 -50.374142 53.120937
v -24.943334 -50.951492 54.120937
v -25.541789 -50.221890 53.384645
v -25.541789 -50.678646 53.120937
v -24.943334 -50.951492 54.120937
v -24.943334 -50.951492 54.120937
v -25.520684 -50.951492 53.120937
v -25.610000 -51.528843 53.120937
v -24.943334 -50.951492 54.120937
v -25.541789 -51.224339 53.120937
v -25.541789 -51.681094 53.384645
v -24.943334 -50.951492 54.120937
v -24.943334 -50.951492 54.120937
v -25.520684 -51.817518 53.620937
v -25.610000 -52.106193 54.120937
v -24.943334 -50.951492 54.120937
v -25.541789 -51.953941 53.857229
v -25.541789 -51.953941 54.384645
v -24.943334 -50.951492 54.120937
v -24.943334 -50.951492 54.120937
v -25.520684 -51.817518 53.620937
v -25.520684 -51.817518 54.620937
v -24.943334 -50.951492 54.120937
f 1 2 3
f 1 3 4
f 1 5 2
f 2 5 6
f 2 107 108
f 2 108 3
f 2 6 107
f 3 49 4
f 3 108 111
f 3 111 49
f 4 49 48
f 5 7 6
f 6 7 8
f 6 119 107
f 6 8 119
f 7 9 8
f 8 9 10
f 8 122 119
f 8 10 122
f 9 11 10
f 10 11 12
f 10 103 122
f 10 12 103
f 11 13 12
f 12 13 14
f 12 101 103
f 12 14 101
f 13 468 14
f 15 16 17
f 15 18 16
f 16 18 19
f 16 125 99
f 16 99 17
f 16 19 125
f 17 99 100
f 18 20 19
f 19 20 21
f 19 132 125
f 19 21 132
f 20 22 21
f 21 22 23
f 21 135 132
f 21 23 135
f 22 24 23
f 23 24 25
f 23 138 135
f 23 25 138
f 24 26 25
f 25 26 27
f 25 141 138
f 25 27 141
f 26 28 27
f 27 28 29
f 27 144 141
f 27 29 144
f 28 30 29
f 29 30 31
f 29 147 144
f 29 31 147
f 30 32 31
f 31 32 33
f 31 150 147
f 31 33 150
f 32 34 33
f 33 34 35
f 33 153 150
f 33 35 153
f 34 36 35
f 35 36 37
f 35 156 153
f 35 37 156
f 36 38 37
f 37 38 39
f 37 159 156
f 37 39 159
f 38 40 39
f 39 40 41
f 39 162 159
f 39 41 162
f 40 42 41
f 41 42 43
f 41 165 162
f 41 43 165
f 42 44 43
f 43 44 45
f 43 168 165
f 43 45 168
f 44 46 45
f 45 46 47
f 45 171 168
f 45 47 171
f 46 48 47
f 47 48 49
f 47 118 171
f 47 49 118
f 49 111 118
f 50 51 52
f 50 52 53
f 50 54 51
f 51 54 55
f 51 55 173
f 51 116 52
f 51 173 116
f 52 98 53
f 52 115 98
f 52 116 115
f 53 98 97
f 54 56 55
f 55 56 57
f 55 57 170
f 55 170 173
f 56 58 57
f 57 58 59
f 57 59 167
f 57 167 170
f 58 60 59
f 59 60 61
f 59 61 164
f 59 164 167
f 60 62 61
f 61 62 63
f 61 63 161
f 61 161 164
f 62 64 63
f 63 64 65
f 63 65 158
f 63 158 161
f 64 66 65
f 65 66 67
f 65 67 155
f 65 155 158
f 66 68 67
f 67 68 69
f 67 69 152
f 67 152 155
f 68 70 69
f 69 70 71
f 69 71 149
f 69 149 152
f 70 72 71
f 71 72 73
f 71 73 146
f 71 146 149
f 72 74 73
f 73 74 75
f 73 75 143
f 73 143 146
f 74 76 75
f 75 76 77
f 75 77 140
f 75 140 143
f 76 78 77
f 77 78 79
f 77 79 137
f 77 137 140
f 78 80 79
f 79 80 81
f 79 81 134
f 79 134 137
f 80 82 81
f 81 82 83
f 81 83 128
f 81 128 134
f 82 84 83
f 83 84 85
f 83 85 129
f 83 129 128
f 84 86 85
f 85 86 87
f 85 131 129
f 85 87 131
f 86 469 87
f 88 89 90
f 88 91 89
f 89 91 92
f 89 92 124
f 89 106 90
f 89 124 106
f 90 106 104
f 91 93 92
f 92 93 94
f 92 94 121
f 92 121 124
f 93 95 94
f 94 95 96
f 94 96 112
f 94 112 121
f 95 97 96
f 96 97 98
f 96 98 113
f 96 113 112
f 98 115 113
f 99 126 127
f 99 127 100
f 99 125 126
f 100 127 130
f 101 102 103
f 102 104 105
f 102 105 103
f 103 105 122
f 104 106 105
f 105 123 122
f 105 106 123
f 106 124 123
f 107 120 109
f 107 109 108
f 107 119 120
f 108 109 110
f 108 110 111
f 109 121 112
f 109 112 110
f 109 120 121
f 110 112 113
f 110 113 114
f 110 114 111
f 111 114 118
f 113 115 114
f 114 115 117
f 114 117 118
f 115 116 117
f 116 173 172
f 116 172 117
f 117 172 171
f 117 171 118
f 119 123 120
f 119 122 123
f 120 124 121
f 120 123 124
f 125 133 126
f 125 132 133
f 126 134 128
f 126 128 127
f 126 133 134
f 127 128 129
f 127 129 130
f 129 131 130
f 132 136 133
f 132 135 136
f 133 137 134
f 133 136 137
f 135 139 136
f 135 138 139
f 136 140 137
f 136 139 140
f 138 142 139
f 138 141 142
f 139 143 140
f 139 142 143
f 141 145 142
f 141 144 145
f 142 146 143
f 142 145 146
f 144 148 145
f 144 147 148
f 145 149 146
f 145 148 149
f 147 151 148
f 147 150 151
f 148 152 149
f 148 151 152
f 150 154 151
f 150 153 154
f 151 155 152
f 151 154 155
f 153 157 154
f 153 156 157
f 154 158 155
f 154 157 158
f 156 160 157
f 156 159 160
f 157 161 158
f 157 160 161
f 159 163 160
f 159 162 163
f 160 164 161
f 160 163 164
f 162 166 163
f 162 165 166
f 163 167 164
f 163 166 167
f 165 169 166
f 165 168 169
f 166 170 167
f 166 169 170
f 168 172 169
f 168 171 172
f 169 173 170
f 169 172 173
f 174 175 176
f 174 176 177
f 174 178 175
f 175 178 179
f 176 222 177
f 177 222 221
f 178 180 179
f 179 180 181
f 180 182 181
f 181 182 183
f 182 184 183
f 183 184 185
f 184 186 185
f 185 186 187
f 186 188 187
f 187 188 189
f 188 190 189
f 189 190 191
f 190 192 191
f 191 192 193
f 192 194 193
f 193 194 195
f 194 196 195
f 195 196 197
f 196 198 197
f 197 198 199
f 198 470 199
f 200 201 202
f 200 203 201
f 201 203 204
f 203 205 204
f 204 205 206
f 205 207 206
f 206 207 208
f 207 209 208
f 208 209 210
f 209 211 210
f 210 211 212
f 211 213 212
f 212 213 214
f 213 215 214
f 214 215 216
f 215 217 216
f 216 217 218
f 217 219 218
f 218 219 220
f 219 221 220
f 220 221 222
f 223 224 225
f 223 521 520
f 223 225 521
f 224 471 225
f 225 471 472
f 226 227 228
f 226 228 229
f 226 230 227
f 227 230 316
f 227 317 228
f 227 320 317
f 227 316 320
f 228 258 229
f 228 317 319
f 228 319 258
f 229 258 256
f 230 231 316
f 231 232 233
f 231 330 316
f 231 233 330
f 232 234 235
f 232 235 233
f 233 235 334
f 233 334 335
f 233 335 330
f 234 236 237
f 234 237 235
f 235 237 340
f 235 340 334
f 236 238 239
f 236 239 237
f 237 239 343
f 237 343 340
f 238 346 239
f 239 346 347
f 239 347 343
f 240 241 242
f 240 367 366
f 240 371 367
f 240 242 371
f 241 243 244
f 241 244 242
f 242 244 375
f 242 375 376
f 242 376 371
f 243 245 246
f 243 246 244
f 244 246 381
f 244 381 375
f 245 247 248
f 245 248 246
f 246 248 384
f 246 384 381
f 247 387 248
f 247 392 391
f 247 391 387
f 248 387 388
f 248 388 384
f 249 250 251
f 249 406 405
f 249 410 406
f 249 251 410
f 250 252 253
f 250 253 251
f 251 253 414
f 251 414 415
f 251 415 410
f 252 254 255
f 252 255 253
f 253 255 420
f 253 420 414
f 254 256 257
f 254 257 255
f 255 257 423
f 255 423 420
f 256 258 259
f 256 259 257
f 257 259 426
f 257 426 423
f 258 319 329
f 258 329 259
f 259 329 426
f 260 261 262
f 260 262 263
f 260 264 261
f 261 264 326
f 261 324 262
f 261 327 324
f 261 326 327
f 262 315 263
f 262 324 321
f 262 321 315
f 263 315 314
f 264 431 326
f 265 266 267
f 265 268 266
f 265 267 430
f 266 268 269
f 266 269 419
f 266 419 422
f 266 422 267
f 267 422 425
f 267 425 429
f 267 429 430
f 268 270 269
f 269 270 271
f 269 417 419
f 269 271 417
f 270 272 271
f 271 272 273
f 271 273 413
f 271 413 417
f 272 274 273
f 273 274 275
f 273 409 413
f 273 275 409
f 274 276 275
f 275 276 277
f 275 404 409
f 275 277 404
f 276 278 277
f 277 278 279
f 277 398 404
f 277 279 398
f 278 280 279
f 279 280 281
f 279 399 398
f 279 281 399
f 280 282 281
f 281 282 283
f 281 283 390
f 281 390 399
f 282 284 283
f 283 284 285
f 283 386 390
f 283 285 386
f 284 286 285
f 285 286 287
f 285 383 386
f 285 287 383
f 286 288 287
f 287 288 289
f 287 289 380
f 287 380 383
f 288 290 289
f 289 290 291
f 289 291 379
f 289 379 380
f 290 292 291
f 291 292 293
f 291 374 379
f 291 293 374
f 292 294 293
f 293 294 295
f 293 370 374
f 293 295 370
f 294 296 295
f 295 296 297
f 295 365 370
f 295 297 365
f 296 298 297
f 297 298 299
f 297 359 365
f 297 299 359
f 298 300 299
f 299 300 301
f 299 360 359
f 299 301 360
f 300 596 301
f 301 596 597
f 301 597 598
f 301 598 360
f 302 303 304
f 302 305 307
f 302 307 303
f 303 345 349
f 303 307 345
f 305 306 307
f 305 308 306
f 306 308 309
f 306 309 339
f 306 339 342
f 306 342 307
f 307 342 345
f 308 310 309
f 309 310 311
f 309 311 338
f 309 338 339
f 310 312 311
f 311 312 313
f 311 333 338
f 311 313 333
f 312 314 313
f 313 314 315
f 313 315 325
f 313 325 333
f 315 321 325
f 316 331 320
f 316 330 331
f 317 318 319
f 317 323 318
f 317 320 323
f 318 321 322
f 318 325 321
f 318 322 319
f 318 323 325
f 319 322 329
f 320 332 323
f 320 331 332
f 321 324 322
f 322 324 328
f 322 328 329
f 323 333 325
f 323 332 333
f 324 327 328
f 326 428 327
f 326 431 429
f 326 429 428
f 327 427 328
f 327 428 427
f 328 426 329
f 328 427 426
f 330 335 331
f 331 335 337
f 331 337 332
f 332 337 338
f 332 338 333
f 334 336 335
f 334 340 341
f 334 341 336
f 335 336 337
f 336 341 342
f 336 339 337
f 336 342 339
f 337 339 338
f 340 343 344
f 340 344 341
f 341 344 345
f 341 345 342
f 343 347 348
f 343 348 344
f 344 348 349
f 344 349 345
f 350 351 352
f 350 352 353
f 350 354 355
f 350 356 354
f 350 353 356
f 350 355 351
f 352 361 353
f 353 361 362
f 353 363 356
f 353 362 363
f 354 356 357
f 354 357 358
f 354 600 355
f 354 358 600
f 356 364 357
f 356 363 364
f 357 359 358
f 357 364 365
f 357 365 359
f 358 359 360
f 358 599 600
f 358 360 599
f 360 598 599
f 361 366 362
f 362 366 367
f 362 368 363
f 362 367 368
f 363 369 364
f 363 368 369
f 364 369 370
f 364 370 365
f 367 372 368
f 367 371 372
f 368 373 369
f 368 372 373
f 369 374 370
f 369 373 374
f 371 376 372
f 372 376 378
f 372 378 373
f 373 378 379
f 373 379 374
f 375 377 376
f 375 381 382
f 375 382 377
f 376 377 378
f 377 382 383
f 377 380 378
f 377 383 380
f 378 380 379
f 381 384 385
f 381 385 382
f 382 385 386
f 382 386 383
f 384 388 389
f 384 389 385
f 385 389 390
f 385 390 386
f 387 395 388
f 387 391 395
f 388 397 389
f 388 395 397
f 389 399 390
f 389 397 399
f 391 392 393
f 391 393 394
f 391 394 395
f 392 400 393
f 393 400 401
f 393 401 402
f 393 402 394
f 394 396 395
f 394 402 403
f 394 403 396
f 395 396 397
f 396 398 397
f 396 403 404
f 396 404 398
f 397 398 399
f 400 405 401
f 401 405 406
f 401 406 407
f 401 407 402
f 402 407 408
f 402 408 403
f 403 408 409
f 403 409 404
f 406 410 411
f 406 411 407
f 407 411 412
f 407 412 408
f 408 412 413
f 408 413 409
f 410 415 411
f 411 418 412
f 411 415 418
f 412 417 413
f 412 418 417
f 414 416 415
f 414 420 421
f 414 421 416
f 415 416 418
f 416 421 422
f 416 419 418
f 416 422 419
f 417 418 419
f 420 423 424
f 420 424 421
f 421 424 425
f 421 425 422
f 423 426 427
f 423 427 424
f 424 427 428
f 424 428 425
f 425 428 429
f 429 431 430
f 432 433 434
f 432 434 435
f 432 436 437
f 432 438 436
f 432 439 433
f 432 435 438
f 433 439 443
f 436 459 437
f 437 455 454
f 437 459 460
f 437 461 455
f 437 460 461
f 439 440 441
f 439 441 442
f 439 444 440
f 439 442 443
f 440 444 448
f 444 445 446
f 444 446 447
f 444 449 445
f 444 447 448
f 445 449 453
f 449 450 451
f 449 451 452
f 449 454 450
f 449 452 453
f 450 454 458
f 454 455 456
f 454 456 457
f 454 457 458
f 462 463 464
f 463 663 464
f 464 663 664
f 465 466 467
f 466 688 467
f 467 688 689
f 471 473 472
f 472 473 474
f 473 475 474
f 474 475 476
f 475 477 476
f 476 477 478
f 477 479 478
f 478 479 480
f 478 480 481
f 480 482 481
f 481 482 483
f 482 484 483
f 483 484 485
f 484 486 485
f 485 486 487
f 486 488 487
f 487 488 489
f 487 489 490
f 489 491 490
f 490 491 492
f 491 493 492
f 492 493 494
f 493 495 494
f 494 495 496
f 495 497 496
f 496 497 498
f 496 498 499
f 498 500 499
f 499 500 501
f 500 502 501
f 501 502 503
f 502 504 503
f 503 504 505
f 504 506 505
f 505 506 507
f 505 507 508
f 507 509 508
f 508 509 510
f 509 511 510
f 510 511 512
f 511 513 512
f 512 513 514
f 513 515 514
f 514 515 516
f 514 516 517
f 516 518 517
f 517 518 519
f 518 520 519
f 519 520 521
f 522 523 524
f 522 525 523
f 522 571 525
f 523 526 524
f 525 571 570
f 527 528 529
f 528 530 529
f 529 530 531
f 530 532 531
f 531 532 533
f 532 534 533
f 533 534 535
f 534 536 535
f 535 536 537
f 536 538 537
f 537 538 539
f 538 540 539
f 539 540 541
f 540 542 541
f 541 542 543
f 542 544 543
f 543 544 545
f 544 546 545
f 545 546 547
f 546 548 547
f 547 548 549
f 548 550 549
f 549 550 551
f 550 552 551
f 551 552 553
f 552 554 553
f 553 554 555
f 554 556 555
f 555 556 557
f 556 558 557
f 557 558 559
f 558 560 559
f 559 560 561
f 560 562 561
f 561 562 563
f 562 564 563
f 563 564 565
f 564 566 565
f 565 566 567
f 566 568 567
f 567 568 569
f 568 570 569
f 569 570 571
f 572 573 574
f 573 575 574
f 573 576 575
f 575 576 577
f 576 578 577
f 577 578 579
f 578 580 579
f 579 580 581
f 580 582 581
f 581 582 583
f 582 584 583
f 583 584 585
f 584 586 585
f 585 586 587
f 586 588 587
f 587 588 589
f 588 590 589
f 589 590 591
f 590 592 591
f 591 592 593
f 592 594 593
f 593 594 595
f 601 602 603
f 601 604 602
f 601 662 604
f 602 605 603
f 603 605 606
f 604 662 661
f 605 607 606
f 606 607 608
f 607 609 608
f 608 609 610
f 609 611 610
f 610 611 612
f 611 613 612
f 612 613 614
f 613 615 614
f 614 615 616
f 615 617 616
f 616 617 618
f 617 619 618
f 618 619 620
f 619 621 620
f 620 621 622
f 621 623 622
f 622 623 624
f 623 625 624
f 624 625 626
f 625 627 626
f 626 627 628
f 627 629 628
f 628 629 630
f 629 631 630
f 630 631 632
f 631 633 632
f 632 633 634
f 633 635 634
f 636 637 638
f 637 639 638
f 638 639 640
f 639 641 640
f 640 641 642
f 641 643 642
f 642 643 644
f 643 645 644
f 644 645 646
f 645 647 646
f 646 647 648
f 647 649 648
f 648 649 650
f 649 651 650
f 650 651 652
f 651 653 652
f 652 653 654
f 653 655 654
f 654 655 656
f 655 657 656
f 656 657 658
f 657 659 658
f 658 659 660
f 659 661 660
f 660 661 662
f 663 665 664
f 664 665 666
f 667 668 669
f 668 670 669
f 669 670 671
f 670 672 671
f 671 672 673
f 674 675 676
f 675 677 676
f 676 677 678
f 677 679 678
f 678 679 680
f 681 682 683
f 682 684 683
f 683 684 685
f 684 686 685
f 685 686 687
f 688 690 689
f 689 690 691
f 692 693 694
f 693 695 694
f 694 695 696
f 695 697 696
f 696 697 698
f 699 700 701
f 699 702 700
f 701 703 704
f 702 707 710
f 704 741 740
f 705 706 707
f 705 708 709
f 708 711 709
f 711 714 717
f 712 713 714
f 712 715 716
f 715 718 716
f 718 721 724
f 719 720 721
f 719 722 723
f 722 725 723
f 725 728 731
f 726 727 728
f 726 729 730
f 729 732 730
f 733 734 735
f 733 736 737
f 735 738 739
f 736 740 737