# ANSI B18.3.4M - M3 x 0.5 x 8(1)
# Autodesk dbId: 90
# Units: mm
o 090_ANSI_B18.3.4M_-_M3_x_0.5_x_8(1)
v -30.160000 -40.801494 17.135298
v -30.156593 -40.701403 17.110983
v -30.156593 -41.030056 17.329339
v -30.160000 -41.132865 17.389568
v -30.160000 -40.415605 16.975457
v -30.160000 -38.615854 17.720939
v -30.156593 -38.485363 18.097627
v -30.156593 -38.638268 17.733880
v -30.160000 -38.456013 18.106828
v -30.156593 -38.427722 18.487973
v -30.160000 -38.401495 18.520939
v -30.156593 -38.468966 18.880390
v -30.160000 -38.456013 18.935049
v -30.156593 -38.606506 19.250221
v -30.160000 -38.615854 19.320939
v -30.156593 -38.831697 19.574229
v -30.160000 -38.870124 19.652310
v -30.156593 -39.130391 19.832055
v -30.160000 -39.201495 19.906579
v -30.156593 -39.483820 20.007499
v -30.160000 -39.587384 20.066420
v -30.156593 -39.869776 20.089536
v -30.160000 -40.001495 20.120939
v -30.156593 -40.264008 20.073013
v -30.160000 -40.415605 20.066420
v -30.156593 -40.641746 19.958967
v -30.160000 -40.801495 19.906579
v -30.156593 -40.979255 19.754565
v -30.160000 -41.132865 19.652309
v -30.156593 -41.255327 19.472649
v -30.160000 -41.387135 19.320939
v -30.156593 -41.452616 19.130934
v -30.160000 -41.546976 18.935049
v -30.156593 -41.558726 18.750891
v -30.160000 -41.601495 18.520939
v -30.156593 -41.566989 18.356398
v -30.160000 -41.546976 18.106828
v -30.156593 -41.476887 17.972245
v -30.160000 -41.387135 17.720939
v -30.156593 -41.294080 17.622568
v -30.060000 -40.751495 17.221901
v -30.085882 -40.983852 17.382867
v -30.085882 -40.669962 17.174319
v -30.060000 -40.389723 17.072050
v -30.060000 -41.062155 17.460278
v -30.060000 -38.940834 17.460279
v -30.085882 -39.222689 17.234978
v -30.085882 -38.927351 17.469060
v -30.060000 -39.251495 17.221901
v -30.085882 -39.566962 17.081698
v -30.060000 -39.613266 17.072050
v -30.085882 -39.938538 17.018850
v -30.060000 -40.001494 17.020939
v -30.085882 -40.314070 17.050384
v -30.156593 -40.328772 16.981219
v -30.146603 -40.690679 17.132585
v -30.146603 -40.323758 17.004810
v -30.130711 -40.681470 17.151136
v -30.146603 -41.014296 17.347596
v -30.130711 -40.319452 17.025068
v -30.110000 -40.674404 17.165371
v -30.130711 -41.000764 17.363274
v -30.110000 -40.316148 17.040613
v -30.110000 -40.990380 17.375304
v -30.085882 -41.236016 17.662924
v -30.130711 -41.257269 17.648152
v -30.110000 -41.244220 17.657222
v -30.146603 -41.274276 17.636333
v -30.160000 -40.001495 16.920939
v -30.156593 -39.935577 16.948201
v -30.146603 -39.936587 16.972298
v -30.130711 -39.937454 16.992991
v -30.110000 -39.938120 17.008869
v -30.160000 -39.587384 16.975458
v -30.156593 -39.546524 17.014005
v -30.146603 -39.553495 17.037093
v -30.130711 -39.559481 17.056920
v -30.110000 -39.564075 17.072134
v -30.160000 -39.201495 17.135298
v -30.156593 -39.186059 17.174494
v -30.146603 -39.198553 17.195124
v -30.130711 -39.209281 17.212839
v -30.110000 -39.217514 17.226433
v -30.160000 -38.870124 17.389568
v -30.156593 -38.876830 17.419586
v -30.146603 -38.894062 17.436461
v -30.130711 -38.908859 17.450951
v -30.110000 -38.920213 17.462070
v -30.156593 -38.638268 17.733880
v -30.146603 -38.659155 17.745939
v -30.160000 -38.615854 17.720939
v -30.130711 -38.677091 17.756294
v -30.110000 -38.690854 17.764240
v -30.085882 -38.699506 17.769235
v -30.060000 -38.702456 17.770939
v -30.146603 -38.508593 18.104113
v -30.146603 -38.451834 18.488478
v -30.130711 -38.528540 18.109683
v -30.146603 -38.659155 17.745939
v -30.130711 -38.472541 18.488912
v -30.110000 -38.543847 18.113956
v -30.130711 -38.677091 17.756294
v -30.110000 -38.488429 18.489245
v -30.085882 -38.498417 18.489454
v -30.085882 -38.553469 18.116643
v -30.110000 -38.690854 17.764240
v -30.060000 -38.552606 18.132710
v -30.060000 -38.702456 17.770939
v -30.085882 -38.699506 17.769235
v -30.146603 -38.492447 18.874883
v -30.130711 -38.512611 18.870153
v -30.110000 -38.528083 18.866524
v -30.085882 -38.537809 18.864243
v -30.060000 -38.501495 18.520939
v -30.146603 -38.627879 19.239048
v -30.130711 -38.646233 19.229452
v -30.110000 -38.660316 19.222090
v -30.085882 -38.669170 19.217461
v -30.060000 -38.552606 18.909167
v -30.146603 -38.849620 19.558091
v -30.130711 -38.865011 19.544233
v -30.110000 -38.876821 19.533599
v -30.085882 -38.884245 19.526915
v -30.060000 -38.702457 19.270939
v -30.146603 -39.143738 19.811967
v -30.130711 -39.155199 19.794716
v -30.110000 -39.163993 19.781479
v -30.085882 -39.169522 19.773159
v -30.060000 -38.940834 19.581599
v -30.146603 -39.491751 19.984722
v -30.130711 -39.498562 19.965163
v -30.110000 -39.503789 19.950155
v -30.085882 -39.507074 19.940721
v -30.060000 -39.251495 19.819977
v -30.146603 -39.871794 20.065503
v -30.130711 -39.873527 20.044864
v -30.110000 -39.874857 20.029028
v -30.085882 -39.875693 20.019073
v -30.060000 -39.613266 19.969827
v -30.146603 -40.259986 20.049232
v -30.130711 -40.256532 20.028812
v -30.110000 -40.253882 20.013142
v -30.085882 -40.252216 20.003292
v -30.060000 -40.001495 20.020939
v -30.146603 -40.631937 19.936934
v -30.130711 -40.623513 19.918014
v -30.110000 -40.617049 19.903496
v -30.085882 -40.612986 19.894370
v -30.060000 -40.389723 19.969827
v -30.146603 -40.964274 19.735663
v -30.130711 -40.951409 19.719433
v -30.110000 -40.941538 19.706978
v -30.085882 -40.935333 19.699149
v -30.060000 -40.751495 19.819977
v -30.146603 -41.236116 19.458067
v -30.130711 -41.219619 19.445546
v -30.110000 -41.206961 19.435937
v -30.085882 -41.199004 19.429897
v -30.060000 -41.062155 19.581599
v -30.146603 -41.430382 19.121588
v -30.130711 -41.411290 19.113562
v -30.110000 -41.396640 19.107404
v -30.085882 -41.387430 19.103532
v -30.060000 -41.300533 19.270939
v -30.146603 -41.534867 18.747367
v -30.130711 -41.514378 18.744342
v -30.110000 -41.498657 18.742020
v -30.085882 -41.488774 18.740561
v -30.060000 -41.450383 18.909167
v -30.146603 -41.543004 18.358920
v -30.130711 -41.522406 18.361084
v -30.110000 -41.506601 18.362746
v -30.085882 -41.496666 18.363790
v -30.060000 -41.501495 18.520939
v -30.146603 -41.454282 17.980652
v -30.130711 -41.434870 17.987871
v -30.110000 -41.419975 17.993411
v -30.085882 -41.410611 17.996893
v -30.060000 -41.450383 18.132710
v -30.060000 -41.300533 17.770939
v -20.466725 -40.751494 17.221900
v -30.060000 -41.062155 17.460278
v -30.060000 -40.751495 17.221901
v -20.466725 -40.389723 17.072050
v -20.466725 -41.062154 17.460278
v -30.060000 -41.300533 17.770939
v -20.466725 -41.300532 17.770939
v -30.060000 -41.450383 18.132710
v -20.466725 -41.450383 18.132710
v -30.060000 -41.501495 18.520939
v -20.466725 -41.501494 18.520938
v -30.060000 -41.450383 18.909167
v -20.466725 -41.450383 18.909167
v -30.060000 -41.300533 19.270939
v -20.466725 -41.300532 19.270938
v -30.060000 -41.062155 19.581599
v -20.466725 -41.062155 19.581599
v -30.060000 -40.751495 19.819977
v -20.466725 -40.751494 19.819977
v -30.060000 -40.389723 19.969827
v -20.466725 -40.389723 19.969827
v -30.060000 -40.001495 20.020939
v -20.466725 -40.001494 20.020938
v -30.060000 -39.613266 19.969827
v -20.466725 -39.613266 19.969827
v -30.060000 -39.251495 19.819977
v -20.466725 -39.251494 19.819977
v -30.060000 -38.940834 19.581599
v -30.060000 -39.251495 19.819977
v -20.466725 -38.940834 19.581599
v -30.060000 -38.702457 19.270939
v -20.466725 -38.702456 19.270938
v -30.060000 -38.552606 18.909167
v -20.466725 -38.552606 18.909167
v -30.060000 -38.501495 18.520939
v -20.466725 -38.501494 18.520939
v -30.060000 -38.552606 18.132710
v -20.466726 -38.552606 18.132710
v -30.060000 -38.702456 17.770939
v -20.466725 -38.702456 17.770939
v -30.060000 -38.940834 17.460279
v -20.466726 -38.940834 17.460278
v -30.060000 -39.251495 17.221901
v -20.466725 -39.251494 17.221900
v -30.060000 -39.613266 17.072050
v -20.466725 -39.613266 17.072050
v -30.060000 -40.001494 17.020939
v -20.466725 -40.001494 17.020939
v -30.060000 -40.389723 17.072050
v -30.160000 -41.880630 16.378195
v -30.160000 -41.426494 16.052766
v -30.160000 -40.801494 17.135298
v -31.810000 -40.791495 17.152618
v -31.766726 -40.615026 16.713533
v -31.766726 -40.955845 16.867956
v -31.766726 -41.259988 17.085902
v -31.810000 -40.410429 16.994776
v -31.810000 -39.592560 16.994776
v -31.810000 -39.211495 17.152619
v -31.766726 -39.157298 16.809078
v -31.810000 -38.884266 17.403710
v -31.766726 -38.839552 17.006665
v -31.810000 -38.633174 17.730939
v -31.766726 -38.566458 17.262445
v -31.810000 -38.475332 18.929873
v -31.810000 -38.633175 19.310939
v -31.766726 -38.289634 19.365135
v -31.810000 -38.884266 19.638167
v -31.766726 -38.487221 19.682882
v -31.810000 -39.211495 19.889259
v -31.766726 -38.743001 19.955975
v -31.810000 -40.410429 20.047101
v -31.810000 -40.791495 19.889259
v -31.766726 -40.845691 20.232800
v -31.810000 -41.118723 19.638167
v -31.766726 -41.163438 20.035212
v -31.810000 -41.369815 19.310939
v -31.766726 -41.436531 19.779432
v -31.810000 -41.527657 18.112005
v -31.810000 -41.369815 17.730939
v -31.766726 -41.713356 17.676742
v -31.810000 -41.118723 17.403710
v -31.766726 -41.515768 17.358996
v -30.540000 -41.880630 16.378195
v -30.868701 -42.228220 16.812312
v -30.868700 -41.852097 16.410731
v -30.540000 -42.262552 16.785969
v -30.868700 -42.518770 17.279556
v -30.540000 -42.557582 17.260416
v -30.868701 -42.712583 17.794505
v -30.540000 -42.754383 17.783304
v -30.868701 -42.802211 18.337370
v -30.540000 -42.845392 18.334540
v -30.868701 -42.784208 18.887290
v -30.540000 -42.827113 18.892938
v -30.868700 -42.659268 19.423131
v -30.540000 -42.700246 19.437041
v -30.868700 -42.432190 19.924301
v -30.540000 -42.469667 19.945939
v -30.868700 -42.111703 20.371541
v -30.540000 -42.144238 20.400074
v -30.868701 -41.710121 20.747664
v -30.540000 -41.736465 20.781996
v -30.868701 -41.242878 21.038214
v -30.540000 -41.262017 21.077026
v -30.868701 -40.727929 21.232027
v -30.540000 -40.739129 21.273827
v -30.868700 -40.185063 21.321655
v -30.540000 -40.187894 21.364837
v -30.868701 -39.635144 21.303652
v -30.540000 -39.629495 21.346556
v -30.868700 -39.099302 21.178712
v -30.540000 -39.085392 21.219690
v -30.868701 -38.598132 20.951634
v -30.540000 -38.576495 20.989111
v -30.868701 -38.150892 20.631147
v -30.540000 -38.122359 20.663682
v -30.868701 -37.774769 20.229565
v -30.540000 -37.740438 20.255909
v -30.868701 -37.484219 19.762322
v -30.540000 -37.445407 19.781462
v -30.868700 -37.290406 19.247373
v -30.540000 -37.248606 19.258573
v -30.868701 -37.200778 18.704508
v -30.540000 -37.157597 18.707338
v -30.868701 -37.218781 18.154588
v -30.540000 -37.175877 18.148939
v -30.868701 -37.343721 17.618746
v -30.540001 -37.302744 17.604836
v -30.540001 -37.533322 17.095939
v -30.868701 -37.570799 17.117576
v -30.540001 -37.858751 16.641803
v -30.540000 -38.266524 16.259882
v -30.868701 -38.292868 16.294213
v -30.540000 -38.740972 15.964851
v -30.868701 -38.760112 16.003663
v -30.540000 -39.263860 15.768050
v -30.868700 -39.275061 15.809850
v -30.540001 -39.815096 15.677041
v -30.868701 -39.817926 15.720222
v -30.540000 -40.373494 15.695321
v -30.868701 -40.367846 15.738225
v -30.540000 -40.917597 15.822188
v -30.868701 -40.903687 15.863166
v -30.540000 -41.426494 16.052766
v -30.868701 -41.404857 16.090243
v -30.868701 -37.570799 17.117576
v -30.540001 -37.533322 17.095939
v -30.868701 -37.891286 16.670336
v -31.175000 -37.986675 16.753989
v -31.766726 -40.250630 16.628568
v -31.639853 -40.713483 16.423489
v -31.438026 -40.798030 16.174422
v -31.639853 -41.108994 16.602693
v -31.175000 -40.862905 15.983306
v -31.438026 -41.240507 16.374906
v -31.175000 -41.341421 16.200119
v -31.810000 -40.001495 16.940939
v -31.766726 -39.876660 16.616325
v -31.639853 -40.290610 16.324888
v -31.438026 -40.324942 16.064113
v -31.175000 -40.351285 15.864013
v -31.766726 -39.507487 16.677276
v -31.639853 -39.856627 16.310681
v -31.438026 -39.839424 16.048219
v -31.175001 -39.826224 15.846824
v -31.639853 -38.653088 16.763661
v -31.639853 -39.021825 16.534366
v -31.438026 -38.492968 16.554989
v -31.438026 -38.905492 16.298465
v -31.639853 -39.428210 16.381413
v -31.175000 -38.816226 16.117452
v -31.438026 -39.360134 16.127350
v -31.175000 -39.307898 15.932400
v -31.639853 -38.336169 17.060488
v -31.438026 -38.138416 16.887063
v -31.175001 -38.370104 16.394869
v -31.766726 -38.348512 17.566589
v -31.639853 -38.083248 17.413439
v -31.438026 -37.855462 17.281926
v -31.175000 -37.680675 17.181013
v -31.766726 -38.194089 17.907407
v -31.810000 -38.633174 17.730939
v -31.810000 -38.475332 18.112005
v -31.766726 -38.109124 18.271803
v -31.639853 -37.904044 17.808950
v -31.766726 -38.348512 17.566589
v -31.639853 -37.805444 18.231823
v -31.438026 -37.544669 18.197492
v -31.438026 -37.654978 17.724404
v -31.175001 -37.344569 18.171148
v -31.175000 -37.463862 17.659528
v -31.810000 -38.421495 18.520939
v -31.766726 -38.096881 18.645774
v -31.639853 -37.791237 18.665807
v -31.438026 -37.528775 18.683009
v -31.175000 -37.327380 18.696209
v -31.766726 -38.157832 19.014947
v -31.639853 -37.861969 19.094223
v -31.438026 -37.607906 19.162299
v -31.175000 -37.412956 19.214536
v -31.639853 -38.244217 19.869345
v -31.639853 -38.014922 19.500608
v -31.438026 -38.035545 20.029465
v -31.438026 -37.779021 19.616941
v -31.175001 -37.598008 19.706207
v -31.175000 -37.875425 20.152329
v -31.639853 -38.541044 20.186264
v -31.438026 -38.367619 20.384017
v -31.175000 -38.234545 20.535758
v -31.766726 -39.047145 20.173921
v -31.639853 -38.893995 20.439185
v -31.438026 -38.762482 20.666972
v -31.175000 -38.661569 20.841759
v -31.766726 -39.387963 20.328344
v -31.810000 -39.592561 20.047101
v -31.766726 -39.752359 20.413310
v -31.639853 -39.712379 20.716989
v -31.639853 -39.289506 20.618389
v -31.438026 -39.678048 20.977764
v -31.438026 -39.204960 20.867456
v -31.175000 -39.651704 21.177864
v -31.175000 -39.140084 21.058572
v -31.810000 -40.001495 20.100939
v -31.766726 -40.126330 20.425552
v -31.639853 -40.146363 20.731196
v -31.438026 -40.163565 20.993659
v -31.175000 -40.176765 21.195053
v -31.766726 -40.495503 20.364601
v -31.639853 -40.574779 20.660464
v -31.438026 -40.642855 20.914528
v -31.175000 -40.695092 21.109477
v -31.639853 -41.349901 20.278216
v -31.639853 -40.981164 20.507512
v -31.438026 -41.510021 20.486888
v -31.175000 -41.186763 20.924425
v -31.438026 -41.097497 20.743412
v -31.175000 -41.632885 20.647008
v -31.639853 -41.666820 19.981390
v -31.438026 -41.864573 20.154814
v -31.175000 -42.016314 20.287888
v -31.766726 -41.654478 19.475289
v -31.639853 -41.919741 19.628438
v -31.438026 -42.147528 19.759951
v -31.175000 -42.322315 19.860865
v -31.766726 -41.808900 19.134470
v -31.810000 -41.527657 18.929873
v -31.766726 -41.893866 18.770074
v -31.639853 -42.197545 18.810054
v -31.639853 -42.098945 19.232927
v -31.438026 -42.458320 18.844386
v -31.438026 -42.348012 19.317474
v -31.175000 -42.658420 18.870729
v -31.175000 -42.539128 19.382349
v -31.810000 -41.581495 18.520939
v -31.766726 -41.906108 18.396104
v -31.639853 -42.211752 18.376071
v -31.438026 -42.474214 18.358868
v -31.175000 -42.675609 18.345668
v -31.766726 -41.845157 18.026931
v -31.639853 -42.141020 17.947654
v -31.438026 -42.395084 17.879579
v -31.175000 -42.590033 17.827342
v -31.639853 -41.758772 17.172532
v -31.639853 -41.988068 17.541269
v -31.438026 -41.967444 17.012412
v -31.175000 -42.404981 17.335670
v -31.438026 -42.223968 17.424936
v -31.175000 -42.127564 16.889548
v -31.639853 -41.461945 16.855614
v -31.438026 -41.635370 16.657860
v -31.175000 -41.768444 16.506119
v -31.810000 -41.001495 17.943588
v -31.810000 -40.791495 17.152618
v -31.810000 -41.118723 17.403710
v -31.810000 -41.369815 17.730939
v -31.810000 -41.581495 18.520939
v -31.810000 -41.001495 19.098289
v -31.810000 -41.527657 18.112005
v -31.810000 -40.001495 17.366238
v -31.810000 -39.211495 17.152619
v -31.810000 -39.592560 16.994776
v -31.810000 -40.001495 16.940939
v -31.810000 -40.410429 16.994776
v -31.810000 -39.001495 17.943588
v -31.810000 -38.421495 18.520939
v -31.810000 -38.475332 18.112005
v -31.810000 -38.633174 17.730939
v -31.810000 -38.884266 17.403710
v -31.810000 -39.001495 19.098289
v -31.810000 -39.211495 19.889259
v -31.810000 -38.884266 19.638167
v -31.810000 -38.633175 19.310939
v -31.810000 -38.475332 18.929873
v -31.810000 -40.001495 19.675639
v -31.810000 -40.791495 19.889259
v -31.810000 -40.410429 20.047101
v -31.810000 -40.001495 20.100939
v -31.810000 -39.592561 20.047101
v -31.810000 -41.527657 18.929873
v -31.810000 -41.369815 19.310939
v -31.810000 -41.118723 19.638167
v -30.770000 -40.001495 19.675639
v -30.701789 -40.265203 19.523387
v -31.810000 -40.001495 19.675639
v -30.770000 -39.001495 19.098289
v -30.701788 -39.265203 19.250541
v -31.810000 -39.001495 19.098289
v -20.466725 -39.251494 19.819977
v -30.160000 -40.917597 15.822188
v -30.160000 -40.415605 16.975457
v -30.160000 -40.373494 15.695321
v -30.160000 -40.001495 16.920939
v -30.160000 -39.815096 15.677041
v -30.160000 -39.587384 16.975458
v -30.160000 -39.263860 15.768050
v -30.160000 -38.740972 15.964851
v -30.160000 -39.201495 17.135298
v -30.160000 -38.266524 16.259882
v -30.160000 -38.870124 17.389568
v -30.160000 -37.858751 16.641803
v -30.160000 -38.615854 17.720939
v -30.160000 -37.533322 17.095939
v -30.160000 -37.302744 17.604836
v -30.160000 -38.456013 18.106828
v -30.160000 -37.175877 18.148939
v -30.160000 -38.401495 18.520939
v -30.160000 -37.157597 18.707338
v -30.160000 -38.456013 18.935049
v -30.160000 -37.248606 19.258573
v -30.160000 -37.445407 19.781462
v -30.160000 -38.615854 19.320939
v -30.160000 -37.740438 20.255909
v -30.160000 -38.870124 19.652310
v -30.160000 -38.122359 20.663682
v -30.160000 -39.201495 19.906579
v -30.160000 -38.576495 20.989111
v -30.160000 -39.085392 21.219690
v -30.160000 -39.587384 20.066420
v -30.160000 -39.629495 21.346556
v -30.160000 -40.001495 20.120939
v -30.160000 -40.187894 21.364837
v -30.160000 -40.415605 20.066420
v -30.160000 -40.739129 21.273827
v -30.160000 -41.262017 21.077026
v -30.160000 -40.801495 19.906579
v -30.160000 -41.736465 20.781996
v -30.160000 -41.132865 19.652309
v -30.160000 -42.144238 20.400074
v -30.160000 -41.387135 19.320939
v -30.160000 -42.469667 19.945939
v -30.160000 -42.700246 19.437041
v -30.160000 -41.546976 18.935049
v -30.160000 -42.827112 18.892938
v -30.160000 -41.601495 18.520939
v -30.160000 -42.845393 18.334540
v -30.160000 -41.546976 18.106828
v -30.160000 -42.754383 17.783304
v -30.160000 -42.557582 17.260416
v -30.160000 -41.387135 17.720939
v -30.160000 -42.262552 16.785969
v -30.160000 -41.132865 17.389568
v -20.466725 -40.389723 17.072050
v -20.160000 -40.310337 17.368323
v -20.466725 -40.751494 17.221900
v -20.160000 -40.001494 17.327664
v -20.160000 -40.598132 17.487532
v -20.466725 -40.751494 17.221900
v -20.160000 -40.598132 17.487532
v -20.466725 -41.062154 17.460278
v -20.160000 -40.845267 17.677166
v -20.466725 -41.300532 17.770939
v -20.160000 -41.034901 17.924301
v -20.466725 -41.450383 18.132710
v -20.160000 -41.154109 18.212096
v -20.466725 -41.501494 18.520938
v -20.160000 -41.194769 18.520939
v -20.466725 -41.450383 18.909167
v -20.160000 -41.154109 18.829781
v -20.466725 -41.300532 19.270938
v -20.160000 -41.034901 19.117576
v -20.466725 -41.062155 19.581599
v -20.160000 -40.845267 19.364711
v -20.466725 -40.751494 19.819977
v -20.160000 -40.598132 19.554345
v -20.466725 -40.389723 19.969827
v -20.160000 -40.310337 19.673554
v -20.466725 -40.001494 20.020938
v -20.160000 -40.001494 19.714214
v -20.466725 -39.613266 19.969827
v -20.160000 -39.692652 19.673554
v -20.466725 -39.251494 19.819977
v -20.160000 -39.404857 19.554345
v -20.466725 -38.940834 19.581599
v -20.160000 -39.157721 19.364711
v -20.466725 -38.702456 19.270938
v -20.160000 -38.968088 19.117576
v -20.466725 -38.552606 18.909167
v -20.160000 -38.848879 18.829781
v -20.466725 -38.501494 18.520939
v -20.160000 -38.808219 18.520939
v -20.466726 -38.552606 18.132710
v -20.160000 -38.848879 18.212096
v -20.466725 -38.702456 17.770939
v -20.160000 -38.968088 17.924301
v -20.466726 -38.940834 17.460278
v -20.160000 -39.157721 17.677166
v -20.466725 -39.251494 17.221900
v -20.160000 -39.404857 17.487532
v -20.466725 -39.613266 17.072050
v -20.160000 -39.692652 17.368323
v -20.466725 -40.001494 17.020939
v -20.160000 -40.598132 17.487532
v -20.160000 -40.310337 17.368323
v -20.160000 -40.845267 17.677166
v -20.160000 -41.034901 17.924301
v -20.160000 -40.001494 17.327664
v -20.160000 -41.154109 18.212096
v -20.160000 -39.692652 17.368323
v -20.160000 -41.194769 18.520939
v -20.160000 -39.404857 17.487532
v -20.160000 -41.154109 18.829781
v -20.160000 -39.157721 17.677166
v -20.160000 -41.034901 19.117576
v -20.160000 -38.968088 17.924301
v -20.160000 -40.845267 19.364711
v -20.160000 -38.848879 18.212096
v -20.160000 -40.598132 19.554345
v -20.160000 -38.808219 18.520939
v -20.160000 -40.310337 19.673554
v -20.160000 -38.848879 18.829781
v -20.160000 -40.001494 19.714214
v -20.160000 -38.968088 19.117576
v -20.160000 -39.692652 19.673554
v -20.160000 -39.157721 19.364711
v -20.160000 -39.404857 19.554345
v -31.175000 -37.680675 17.181013
v -31.438026 -37.855462 17.281926
v -31.639853 -38.083248 17.413439
v -30.160000 -41.880630 16.378195
v -30.540000 -41.880630 16.378195
v -30.160000 -41.426494 16.052766
v -30.540000 -42.262552 16.785969
v -30.540000 -41.426494 16.052766
v -30.160000 -40.917597 15.822188
v -30.540000 -40.917597 15.822188
v -30.160000 -40.373494 15.695321
v -30.540000 -40.373494 15.695321
v -30.160000 -39.815096 15.677041
v -30.540001 -39.815096 15.677041
v -30.160000 -39.263860 15.768050
v -30.540000 -39.263860 15.768050
v -30.160000 -38.740972 15.964851
v -30.540000 -38.740972 15.964851
v -30.160000 -38.266524 16.259882
v -30.540000 -38.266524 16.259882
v -30.160000 -37.858751 16.641803
v -30.540001 -37.858751 16.641803
v -30.160000 -37.533322 17.095939
v -30.540001 -37.533322 17.095939
v -30.160000 -37.302744 17.604836
v -30.540001 -37.302744 17.604836
v -30.160000 -37.175877 18.148939
v -30.540000 -37.175877 18.148939
v -30.160000 -37.157597 18.707338
v -30.540000 -37.157597 18.707338
v -30.160000 -37.248606 19.258573
v -30.540000 -37.248606 19.258573
v -30.160000 -37.445407 19.781462
v -30.540000 -37.445407 19.781462
v -30.160000 -37.740438 20.255909
v -30.540000 -37.740438 20.255909
v -30.160000 -38.122359 20.663682
v -30.540000 -38.122359 20.663682
v -30.160000 -38.576495 20.989111
v -30.540000 -38.576495 20.989111
v -30.160000 -38.576495 20.989111
v -30.540000 -38.576495 20.989111
v -30.160000 -39.085392 21.219690
v -30.540000 -39.085392 21.219690
v -30.160000 -39.629495 21.346556
v -30.540000 -39.629495 21.346556
v -30.160000 -40.187894 21.364837
v -30.540000 -40.187894 21.364837
v -30.160000 -40.739129 21.273827
v -30.540000 -40.739129 21.273827
v -30.160000 -41.262017 21.077026
v -30.540000 -41.262017 21.077026
v -30.160000 -41.736465 20.781996
v -30.540000 -41.736465 20.781996
v -30.160000 -42.144238 20.400074
v -30.540000 -42.144238 20.400074
v -30.160000 -42.469667 19.945939
v -30.540000 -42.469667 19.945939
v -30.160000 -42.700246 19.437041
v -30.540000 -42.700246 19.437041
v -30.160000 -42.827112 18.892938
v -30.540000 -42.827113 18.892938
v -30.160000 -42.845393 18.334540
v -30.540000 -42.845392 18.334540
v -30.160000 -42.754383 17.783304
v -30.540000 -42.754383 17.783304
v -30.160000 -42.557582 17.260416
v -30.540000 -42.557582 17.260416
v -30.160000 -42.262552 16.785969
v -30.680684 -40.501495 19.386964
v -31.810000 -41.001495 19.098289
v -30.701789 -40.737787 19.250541
v -30.770000 -41.001495 19.098289
v -30.770000 -41.001495 19.098289
v -30.701789 -41.001495 18.793785
v -31.810000 -41.001495 19.098289
v -30.680684 -41.001495 18.520939
v -31.810000 -41.001495 17.943588
v -30.701789 -41.001495 18.248092
v -30.770000 -41.001495 17.943588
v -30.770000 -41.001495 17.943588
v -30.701788 -40.737787 17.791337
v -31.810000 -41.001495 17.943588
v -30.680684 -40.501495 17.654913
v -31.810000 -40.001495 17.366238
v -30.701788 -40.265202 17.518490
v -30.770000 -40.001495 17.366238
v -30.770000 -40.001495 17.366238
v -30.701788 -39.737787 17.518490
v -31.810000 -40.001495 17.366238
v -30.680684 -39.501495 17.654913
v -31.810000 -39.001495 17.943588
v -30.701789 -39.265202 17.791337
v -30.770001 -39.001495 17.943588
v -30.680684 -39.501495 19.386964
v -31.810000 -40.001495 19.675639
v -30.701788 -39.737787 19.523387
v -30.770000 -40.001495 19.675639
v -30.770001 -39.001495 17.943588
v -30.701789 -39.001495 18.248092
v -31.810000 -39.001495 17.943588
v -30.680684 -39.001495 18.520939
v -31.810000 -39.001495 19.098289
v -30.701788 -39.001495 18.793785
v -30.770000 -39.001495 19.098289
v -30.701789 -39.265202 17.791337
v -30.103334 -40.001495 18.520939
v -30.770001 -39.001495 17.943588
v -30.680684 -39.501495 17.654913
v -30.103334 -40.001495 18.520939
v -30.701789 -39.001495 18.248092
v -30.770000 -40.001495 17.366238
v -30.103334 -40.001495 18.520939
v -30.701788 -39.737787 17.518490
v -30.701788 -40.265202 17.518490
v -30.103334 -40.001495 18.520939
v -30.103334 -40.001495 18.520939
v -30.680684 -40.501495 17.654913
v -30.770000 -41.001495 17.943588
v -30.103334 -40.001495 18.520939
v -30.701788 -40.737787 17.791337
v -30.701789 -41.001495 18.248092
v -30.103334 -40.001495 18.520939
v -30.103334 -40.001495 18.520939
v -30.680684 -41.001495 18.520939
v -30.770000 -41.001495 19.098289
v -30.103334 -40.001495 18.520939
v -30.701789 -41.001495 18.793785
v -30.701789 -40.737787 19.250541
v -30.103334 -40.001495 18.520939
v -30.103334 -40.001495 18.520939
v -30.680684 -40.501495 19.386964
v -30.770000 -40.001495 19.675639
v -30.103334 -40.001495 18.520939
v -30.701789 -40.265203 19.523387
v -30.701788 -39.737787 19.523387
v -30.103334 -40.001495 18.520939
v -30.103334 -40.001495 18.520939
v -30.680684 -39.501495 19.386964
v -30.770000 -39.001495 19.098289
v -30.103334 -40.001495 18.520939
v -30.701788 -39.265203 19.250541
v -30.701788 -39.001495 18.793785
v -30.103334 -40.001495 18.520939
v -30.103334 -40.001495 18.520939
v -30.680684 -39.501495 19.386964
v -30.680684 -39.001495 18.520939
v -30.103334 -40.001495 18.520939
f 1 2 3
f 1 3 4
f 1 5 2
f 2 5 55
f 2 56 3
f 2 57 56
f 2 55 57
f 3 40 4
f 3 59 40
f 3 56 59
f 4 40 39
f 5 69 55
f 6 7 8
f 6 9 7
f 7 9 10
f 7 96 8
f 7 97 96
f 7 10 97
f 8 96 99
f 9 11 10
f 10 11 12
f 10 110 97
f 10 12 110
f 11 13 12
f 12 13 14
f 12 115 110
f 12 14 115
f 13 15 14
f 14 15 16
f 14 120 115
f 14 16 120
f 15 17 16
f 16 17 18
f 16 125 120
f 16 18 125
f 17 19 18
f 18 19 20
f 18 130 125
f 18 20 130
f 19 21 20
f 20 21 22
f 20 135 130
f 20 22 135
f 21 23 22
f 22 23 24
f 22 140 135
f 22 24 140
f 23 25 24
f 24 25 26
f 24 145 140
f 24 26 145
f 25 27 26
f 26 27 28
f 26 150 145
f 26 28 150
f 27 29 28
f 28 29 30
f 28 155 150
f 28 30 155
f 29 31 30
f 30 31 32
f 30 160 155
f 30 32 160
f 31 33 32
f 32 33 34
f 32 165 160
f 32 34 165
f 33 35 34
f 34 35 36
f 34 170 165
f 34 36 170
f 35 37 36
f 36 37 38
f 36 175 170
f 36 38 175
f 37 39 38
f 38 39 40
f 38 68 175
f 38 40 68
f 40 59 68
f 41 42 43
f 41 43 44
f 41 45 42
f 42 45 65
f 42 64 43
f 42 67 64
f 42 65 67
f 43 54 44
f 43 64 61
f 43 61 54
f 44 54 53
f 45 180 65
f 46 47 48
f 46 49 47
f 46 48 95
f 47 49 50
f 47 50 78
f 47 78 83
f 47 83 48
f 48 88 94
f 48 94 95
f 48 83 88
f 49 51 50
f 50 51 52
f 50 52 73
f 50 73 78
f 51 53 52
f 52 53 54
f 52 54 63
f 52 63 73
f 54 61 63
f 55 69 70
f 55 71 57
f 55 70 71
f 56 58 59
f 56 60 58
f 56 57 60
f 57 72 60
f 57 71 72
f 58 61 62
f 58 63 61
f 58 62 59
f 58 60 63
f 59 62 68
f 60 73 63
f 60 72 73
f 61 64 62
f 62 64 66
f 62 66 68
f 64 67 66
f 65 178 177
f 65 177 67
f 65 180 178
f 66 176 175
f 66 175 68
f 66 67 176
f 67 177 176
f 69 74 70
f 70 74 75
f 70 76 71
f 70 75 76
f 71 77 72
f 71 76 77
f 72 78 73
f 72 77 78
f 74 79 75
f 75 79 80
f 75 81 76
f 75 80 81
f 76 82 77
f 76 81 82
f 77 83 78
f 77 82 83
f 79 84 80
f 80 84 85
f 80 86 81
f 80 85 86
f 81 87 82
f 81 86 87
f 82 88 83
f 82 87 88
f 84 91 85
f 85 89 90
f 85 90 86
f 85 91 89
f 86 90 92
f 86 92 87
f 87 92 93
f 87 93 88
f 88 93 94
f 96 98 99
f 96 100 98
f 96 97 100
f 97 111 100
f 97 110 111
f 98 101 102
f 98 103 101
f 98 100 103
f 98 102 99
f 100 112 103
f 100 111 112
f 101 104 105
f 101 105 106
f 101 103 104
f 101 106 102
f 103 113 104
f 103 112 113
f 104 114 107
f 104 107 105
f 104 113 114
f 105 107 108
f 105 108 109
f 105 109 106
f 110 116 111
f 110 115 116
f 111 117 112
f 111 116 117
f 112 118 113
f 112 117 118
f 113 119 114
f 113 118 119
f 115 121 116
f 115 120 121
f 116 122 117
f 116 121 122
f 117 123 118
f 117 122 123
f 118 124 119
f 118 123 124
f 120 126 121
f 120 125 126
f 121 127 122
f 121 126 127
f 122 128 123
f 122 127 128
f 123 129 124
f 123 128 129
f 125 131 126
f 125 130 131
f 126 132 127
f 126 131 132
f 127 133 128
f 127 132 133
f 128 134 129
f 128 133 134
f 130 136 131
f 130 135 136
f 131 137 132
f 131 136 137
f 132 138 133
f 132 137 138
f 133 139 134
f 133 138 139
f 135 141 136
f 135 140 141
f 136 142 137
f 136 141 142
f 137 143 138
f 137 142 143
f 138 144 139
f 138 143 144
f 140 146 141
f 140 145 146
f 141 147 142
f 141 146 147
f 142 148 143
f 142 147 148
f 143 149 144
f 143 148 149
f 145 151 146
f 145 150 151
f 146 152 147
f 146 151 152
f 147 153 148
f 147 152 153
f 148 154 149
f 148 153 154
f 150 156 151
f 150 155 156
f 151 157 152
f 151 156 157
f 152 158 153
f 152 157 158
f 153 159 154
f 153 158 159
f 155 161 156
f 155 160 161
f 156 162 157
f 156 161 162
f 157 163 158
f 157 162 163
f 158 164 159
f 158 163 164
f 160 166 161
f 160 165 166
f 161 167 162
f 161 166 167
f 162 168 163
f 162 167 168
f 163 169 164
f 163 168 169
f 165 171 166
f 165 170 171
f 166 172 167
f 166 171 172
f 167 173 168
f 167 172 173
f 168 174 169
f 168 173 174
f 170 176 171
f 170 175 176
f 171 177 172
f 171 176 177
f 172 178 173
f 172 177 178
f 173 179 174
f 173 178 179
f 178 180 179
f 181 182 183
f 181 183 184
f 181 185 182
f 182 185 186
f 183 229 184
f 184 229 228
f 185 187 186
f 186 187 188
f 187 189 188
f 188 189 190
f 189 191 190
f 190 191 192
f 191 193 192
f 192 193 194
f 193 195 194
f 194 195 196
f 195 197 196
f 196 197 198
f 197 199 198
f 198 199 200
f 199 201 200
f 200 201 202
f 201 203 202
f 202 203 204
f 203 205 204
f 204 205 206
f 205 489 206
f 207 208 209
f 207 210 208
f 208 210 211
f 210 212 211
f 211 212 213
f 212 214 213
f 213 214 215
f 214 216 215
f 215 216 217
f 216 218 217
f 217 218 219
f 218 220 219
f 219 220 221
f 220 222 221
f 221 222 223
f 222 224 223
f 223 224 225
f 224 226 225
f 225 226 227
f 226 228 227
f 227 228 229
f 230 231 232
f 230 542 541
f 230 232 542
f 231 490 232
f 232 490 491
f 233 234 235
f 233 235 236
f 233 237 234
f 233 236 262
f 234 237 331
f 234 332 235
f 234 331 340
f 234 340 332
f 235 332 334
f 235 334 236
f 236 263 262
f 236 450 263
f 236 334 450
f 237 338 331
f 238 239 240
f 238 339 338
f 238 343 339
f 238 240 343
f 239 241 242
f 239 242 240
f 240 242 347
f 240 347 348
f 240 348 343
f 241 243 244
f 241 244 242
f 242 244 355
f 242 355 347
f 243 358 244
f 244 358 359
f 244 359 355
f 245 246 247
f 245 374 373
f 245 378 374
f 245 247 378
f 246 248 249
f 246 249 247
f 247 249 382
f 247 382 383
f 247 383 378
f 248 250 251
f 248 251 249
f 249 251 388
f 249 388 382
f 250 391 251
f 250 396 395
f 250 395 391
f 251 391 392
f 251 392 388
f 252 253 254
f 252 405 404
f 252 409 405
f 252 254 409
f 253 255 256
f 253 256 254
f 254 256 413
f 254 413 414
f 254 414 409
f 255 257 258
f 255 258 256
f 256 258 419
f 256 419 413
f 257 422 258
f 257 427 426
f 257 426 422
f 258 422 423
f 258 423 419
f 259 260 261
f 259 436 435
f 259 440 436
f 259 261 440
f 260 262 263
f 260 263 261
f 261 263 444
f 261 444 445
f 261 445 440
f 263 450 444
f 264 265 266
f 264 267 265
f 264 266 325
f 265 267 268
f 265 447 449
f 265 268 447
f 265 449 266
f 266 452 326
f 266 326 325
f 266 449 452
f 267 269 268
f 268 269 270
f 268 270 443
f 268 443 447
f 269 271 270
f 270 271 272
f 270 439 443
f 270 272 439
f 271 273 272
f 272 273 274
f 272 433 439
f 272 274 433
f 273 275 274
f 274 275 276
f 274 434 433
f 274 276 434
f 275 277 276
f 276 277 278
f 276 278 425
f 276 425 434
f 277 279 278
f 278 279 280
f 278 421 425
f 278 280 421
f 279 281 280
f 280 281 282
f 280 282 418
f 280 418 421
f 281 283 282
f 282 283 284
f 282 416 418
f 282 284 416
f 283 285 284
f 284 285 286
f 284 286 412
f 284 412 416
f 285 287 286
f 286 287 288
f 286 408 412
f 286 288 408
f 287 289 288
f 288 289 290
f 288 402 408
f 288 290 402
f 289 291 290
f 290 291 292
f 290 403 402
f 290 292 403
f 291 293 292
f 292 293 294
f 292 294 394
f 292 394 403
f 293 295 294
f 294 295 296
f 294 390 394
f 294 296 390
f 295 297 296
f 296 297 298
f 296 298 387
f 296 387 390
f 297 299 298
f 298 299 300
f 298 386 387
f 298 300 386
f 299 301 300
f 300 301 302
f 300 381 386
f 300 302 381
f 301 303 302
f 302 303 304
f 302 377 381
f 302 304 377
f 303 305 304
f 304 305 306
f 304 371 377
f 304 306 371
f 305 307 306
f 306 307 308
f 306 372 371
f 306 308 372
f 307 309 308
f 308 311 617
f 308 309 311
f 308 617 372
f 309 310 311
f 312 313 314
f 312 314 329
f 312 329 328
f 313 315 316
f 313 316 314
f 314 352 357
f 314 316 352
f 314 357 329
f 315 317 318
f 315 318 316
f 316 354 352
f 316 318 354
f 317 319 320
f 317 320 318
f 318 320 346
f 318 346 354
f 319 321 322
f 319 322 320
f 320 342 346
f 320 322 342
f 321 323 324
f 321 324 322
f 322 335 342
f 322 324 335
f 323 325 326
f 323 326 324
f 324 337 335
f 324 326 337
f 326 452 337
f 327 328 329
f 327 329 330
f 327 330 361
f 329 357 330
f 330 349 356
f 330 356 361
f 330 357 349
f 331 338 339
f 331 339 344
f 331 344 340
f 332 333 334
f 332 340 341
f 332 341 333
f 333 335 336
f 333 336 334
f 333 341 342
f 333 342 335
f 334 336 450
f 335 337 336
f 336 451 450
f 336 337 451
f 337 452 451
f 339 351 344
f 339 343 351
f 340 344 345
f 340 345 341
f 341 345 346
f 341 346 342
f 343 348 351
f 344 353 345
f 344 351 353
f 345 354 346
f 345 353 354
f 347 349 348
f 347 355 356
f 347 356 349
f 348 350 351
f 348 349 350
f 349 357 350
f 350 352 353
f 350 353 351
f 350 357 352
f 352 354 353
f 355 359 360
f 355 360 356
f 356 360 361
f 362 363 364
f 362 364 365
f 362 366 367
f 362 368 366
f 362 365 368
f 362 367 363
f 364 373 365
f 365 373 374
f 365 375 368
f 365 374 375
f 366 368 369
f 366 369 370
f 366 619 367
f 366 370 619
f 368 376 369
f 368 375 376
f 369 371 370
f 369 376 377
f 369 377 371
f 370 371 372
f 370 618 619
f 370 372 618
f 372 617 618
f 374 379 375
f 374 378 379
f 375 380 376
f 375 379 380
f 376 381 377
f 376 380 381
f 378 383 379
f 379 383 385
f 379 385 380
f 380 385 386
f 380 386 381
f 382 384 383
f 382 388 389
f 382 389 384
f 383 384 385
f 384 389 390
f 384 387 385
f 384 390 387
f 385 387 386
f 388 392 393
f 388 393 389
f 389 393 394
f 389 394 390
f 391 399 392
f 391 395 399
f 392 401 393
f 392 399 401
f 393 403 394
f 393 401 403
f 395 396 397
f 395 397 398
f 395 398 399
f 396 404 397
f 397 404 405
f 397 405 406
f 397 406 398
f 398 400 399
f 398 406 407
f 398 407 400
f 399 400 401
f 400 402 401
f 400 407 408
f 400 408 402
f 401 402 403
f 405 409 410
f 405 410 406
f 406 410 411
f 406 411 407
f 407 411 412
f 407 412 408
f 409 414 410
f 410 417 411
f 410 414 417
f 411 416 412
f 411 417 416
f 413 415 414
f 413 419 420
f 413 420 415
f 414 415 417
f 415 420 421
f 415 418 417
f 415 421 418
f 416 417 418
f 419 423 424
f 419 424 420
f 420 424 425
f 420 425 421
f 422 430 423
f 422 426 430
f 423 432 424
f 423 430 432
f 424 434 425
f 424 432 434
f 426 427 428
f 426 428 429
f 426 429 430
f 427 435 428
f 428 435 436
f 428 436 437
f 428 437 429
f 429 431 430
f 429 437 438
f 429 438 431
f 430 431 432
f 431 433 432
f 431 438 439
f 431 439 433
f 432 433 434
f 436 440 441
f 436 441 437
f 437 441 442
f 437 442 438
f 438 442 443
f 438 443 439
f 440 445 441
f 441 448 442
f 441 445 448
f 442 447 443
f 442 448 447
f 444 446 445
f 444 450 451
f 444 451 446
f 445 446 448
f 446 451 452
f 446 449 448
f 446 452 449
f 447 448 449
f 453 454 455
f 453 455 456
f 453 457 458
f 453 459 457
f 453 460 454
f 453 456 459
f 454 460 464
f 457 480 458
f 458 476 475
f 458 480 481
f 458 482 476
f 458 481 482
f 460 461 462
f 460 462 463
f 460 465 461
f 460 463 464
f 461 465 469
f 465 466 467
f 465 467 468
f 465 470 466
f 465 468 469
f 466 470 474
f 470 471 472
f 470 472 473
f 470 475 471
f 470 473 474
f 471 475 479
f 475 476 477
f 475 477 478
f 475 478 479
f 483 484 485
f 484 686 485
f 485 686 687
f 486 487 488
f 487 711 488
f 488 711 712
f 490 492 491
f 491 492 493
f 492 494 493
f 493 494 495
f 494 496 495
f 495 496 497
f 495 497 498
f 497 499 498
f 498 499 500
f 499 501 500
f 500 501 502
f 501 503 502
f 502 503 504
f 502 504 505
f 504 506 505
f 505 506 507
f 506 508 507
f 507 508 509
f 508 510 509
f 509 510 511
f 509 511 512
f 511 513 512
f 512 513 514
f 513 515 514
f 514 515 516
f 515 517 516
f 516 517 518
f 516 518 519
f 518 520 519
f 519 520 521
f 520 522 521
f 521 522 523
f 522 524 523
f 523 524 525
f 523 525 526
f 525 527 526
f 526 527 528
f 527 529 528
f 528 529 530
f 529 531 530
f 530 531 532
f 530 532 533
f 532 534 533
f 533 534 535
f 534 536 535
f 535 536 537
f 536 538 537
f 537 538 539
f 537 539 540
f 539 541 540
f 540 541 542
f 543 544 545
f 543 546 544
f 543 592 546
f 544 547 545
f 546 592 591
f 548 549 550
f 549 551 550
f 550 551 552
f 551 553 552
f 552 553 554
f 553 555 554
f 554 555 556
f 555 557 556
f 556 557 558
f 557 559 558
f 558 559 560
f 559 561 560
f 560 561 562
f 561 563 562
f 562 563 564
f 563 565 564
f 564 565 566
f 565 567 566
f 566 567 568
f 567 569 568
f 568 569 570
f 569 571 570
f 570 571 572
f 571 573 572
f 572 573 574
f 573 575 574
f 574 575 576
f 575 577 576
f 576 577 578
f 577 579 578
f 578 579 580
f 579 581 580
f 580 581 582
f 581 583 582
f 582 583 584
f 583 585 584
f 584 585 586
f 585 587 586
f 586 587 588
f 587 589 588
f 588 589 590
f 589 591 590
f 590 591 592
f 593 594 595
f 594 596 595
f 594 597 596
f 596 597 598
f 597 599 598
f 598 599 600
f 599 601 600
f 600 601 602
f 601 603 602
f 602 603 604
f 603 605 604
f 604 605 606
f 605 607 606
f 606 607 608
f 607 609 608
f 608 609 610
f 609 611 610
f 610 611 612
f 611 613 612
f 612 613 614
f 613 615 614
f 614 615 616
f 620 621 622
f 620 623 621
f 620 685 623
f 621 624 622
f 622 624 625
f 623 685 684
f 624 626 625
f 625 626 627
f 626 628 627
f 627 628 629
f 628 630 629
f 629 630 631
f 630 632 631
f 631 632 633
f 632 634 633
f 633 634 635
f 634 636 635
f 635 636 637
f 636 638 637
f 637 638 639
f 638 640 639
f 639 640 641
f 640 642 641
f 641 642 643
f 642 644 643
f 643 644 645
f 644 646 645
f 645 646 647
f 646 648 647
f 647 648 649
f 648 650 649
f 649 650 651
f 650 652 651
f 651 652 653
f 652 654 653
f 653 654 655
f 654 656 655
f 657 658 659
f 658 660 659
f 659 660 661
f 660 662 661
f 661 662 663
f 662 664 663
f 663 664 665
f 664 666 665
f 665 666 667
f 666 668 667
f 667 668 669
f 668 670 669
f 669 670 671
f 670 672 671
f 671 672 673
f 672 674 673
f 673 674 675
f 674 676 675
f 675 676 677
f 676 678 677
f 677 678 679
f 678 680 679
f 679 680 681
f 680 682 681
f 681 682 683
f 682 684 683
f 683 684 685
f 686 688 687
f 687 688 689
f 690 691 692
f 691 693 692
f 692 693 694
f 693 695 694
f 694 695 696
f 697 698 699
f 698 700 699
f 699 700 701
f 700 702 701
f 701 702 703
f 704 705 706
f 705 707 706
f 706 707 708
f 707 709 708
f 708 709 710
f 711 713 712
f 712 713 714
f 715 716 717
f 716 718 717
f 717 718 719
f 718 720 719
f 719 720 721
f 722 723 724
f 722 725 723
f 724 726 727
f 725 730 733
f 727 764 763
f 728 729 730
f 728 731 732
f 731 734 732
f 734 737 740
f 735 736 737
f 735 738 739
f 738 741 739
f 741 744 747
f 742 743 744
f 742 745 746
f 745 748 746
f 748 751 754
f 749 750 751
f 749 752 753
f 752 755 753
f 756 757 758
f 756 759 760
f 758 761 762
f 759 763 760