# Part2
# Autodesk dbId: 130
# Units: mm
o 130_Part2
v -12.790000 -21.516314 24.698631
v -15.590001 -21.368808 25.004266
v -15.590001 -21.516314 24.698631
v -15.590001 -25.575096 18.511038
v -12.790000 -25.575095 18.511038
v -12.790000 -21.368807 25.004266
v -15.590001 -21.305432 25.337664
v -12.790000 -21.305431 25.337664
v -15.590001 -21.330504 25.676104
v -12.790000 -21.330504 25.676104
v -15.590001 -21.442318 25.996523
v -12.790000 -21.442318 25.996523
v -15.590001 -21.633252 26.277085
v -12.790000 -21.633252 26.277085
v -15.590001 -21.890295 26.498670
v -12.790000 -21.890295 26.498670
v -15.590001 -22.195930 26.646176
v -12.790000 -22.195929 26.646176
v -15.590001 -22.529328 26.709552
v -12.790000 -22.529327 26.709552
v -15.590001 -22.867768 26.684480
v -12.790000 -22.867768 26.684480
v -15.590001 -23.188187 26.572666
v -12.790000 -23.188187 26.572666
v -15.590001 -23.468749 26.381732
v -12.790000 -23.468749 26.381732
v -15.590001 -23.690334 26.124689
v -12.790000 -23.690333 26.124689
v -15.590000 -27.749115 19.937096
v -15.590001 -23.690334 26.124689
v -12.790000 -27.749114 19.937096
v -12.790000 -23.690333 26.124689
v -15.590000 -27.896621 19.631461
v -15.590000 -27.749115 19.937096
v -12.790000 -27.896621 19.631461
v -15.590000 -27.959997 19.298064
v -12.790000 -27.959997 19.298064
v -15.590000 -27.934925 18.959623
v -12.790000 -27.934924 18.959623
v -15.590000 -27.823111 18.639204
v -12.790000 -27.823111 18.639204
v -15.590000 -27.632177 18.358641
v -12.790000 -27.632177 18.358641
v -15.590000 -27.375134 18.137057
v -12.790000 -27.375134 18.137057
v -15.590000 -27.069500 17.989550
v -12.790000 -27.069499 17.989550
v -15.590000 -26.736101 17.926175
v -12.790000 -26.736101 17.926175
v -15.590000 -26.397661 17.951247
v -12.790000 -26.397661 17.951247
v -15.590001 -26.077241 18.063061
v -12.790000 -26.077241 18.063061
v -15.590001 -25.796680 18.253994
v -12.790000 -25.796680 18.253994
v -15.590001 -25.575096 18.511038
v -12.790000 -25.575095 18.511038
v -15.590001 -10.807838 41.114815
v -12.790001 -11.020899 40.867659
v -12.790001 -10.807837 41.114815
v -15.590001 -11.020899 40.867659
v -12.790001 -11.290670 40.684069
v -15.590001 -11.290670 40.684069
v -12.790001 -11.598766 40.576555
v -15.590001 -11.598766 40.576555
v -12.790001 -11.924189 40.552447
v -15.590001 -11.924189 40.552447
v -12.790001 -12.244764 40.613386
v -15.590001 -12.244764 40.613386
v -12.790001 -12.538644 40.755218
v -15.590001 -12.538644 40.755218
v -12.790001 -12.785800 40.968281
v -15.590001 -12.785800 40.968281
v -12.790001 -12.969391 41.238052
v -15.590001 -12.969391 41.238052
v -12.790001 -13.076904 41.546147
v -15.590001 -13.076904 41.546147
v -12.790001 -13.101012 41.871571
v -15.590001 -13.101013 41.871571
v -12.790001 -13.040073 42.192146
v -15.590001 -13.040074 42.192146
v -12.790001 -12.898241 42.486025
v -15.590001 -12.898241 42.486025
v -12.790001 -12.685178 42.733182
v -15.590001 -12.685179 42.733182
v -12.790001 -12.415407 42.916773
v -15.590001 -12.415408 42.916773
v -12.790001 -12.107312 43.024286
v -15.590001 -12.107312 43.024286
v -12.790001 -11.781888 43.048394
v -15.590001 -11.781889 43.048394
v -12.790001 -11.461313 42.987455
v -15.590001 -11.461314 42.987455
v -12.790001 -11.167434 42.845622
v -15.590001 -11.167434 42.845622
v -12.790001 -10.920277 42.632560
v -15.590001 -10.920278 42.632560
v -12.790001 -10.736687 42.362789
v -15.590001 -10.736687 42.362789
v -12.790001 -10.629173 42.054694
v -15.590001 -10.629174 42.054694
v -12.790001 -10.605065 41.729270
v -15.590001 -10.605065 41.729270
v -12.790001 -10.666004 41.408695
v -15.590001 -10.666004 41.408695
v -12.790001 -10.807837 41.114815
v -15.590000 -27.574928 11.451244
v -12.790000 -28.171501 10.759206
v -12.790000 -27.574928 11.451244
v -15.590000 -28.171502 10.759206
v -12.790000 -28.926860 10.245153
v -15.590000 -28.926860 10.245153
v -12.790000 -29.789527 9.944117
v -15.590000 -29.789527 9.944117
v -12.790000 -30.700713 9.876613
v -15.590000 -30.700714 9.876613
v -12.790000 -31.598323 10.047242
v -15.590000 -31.598323 10.047242
v -12.790000 -32.421186 10.444374
v -15.590000 -32.421186 10.444374
v -12.790000 -33.113224 11.040948
v -15.590000 -33.113224 11.040948
v -12.790000 -33.627278 11.796306
v -15.590000 -33.627278 11.796306
v -12.789999 -33.928314 12.658973
v -15.590000 -33.928314 12.658973
v -12.789999 -33.995818 13.570159
v -15.590000 -33.995818 13.570159
v -12.789999 -33.825189 14.467769
v -15.590000 -33.825189 14.467769
v -12.789999 -33.428057 15.290631
v -15.590000 -33.428057 15.290631
v -12.790000 -32.831483 15.982670
v -15.590000 -32.831483 15.982670
v -12.790000 -32.076124 16.496724
v -15.590000 -32.076124 16.496724
v -12.790000 -31.213457 16.797760
v -15.590000 -31.213457 16.797760
v -12.790000 -30.302271 16.865264
v -15.590000 -30.302271 16.865264
v -12.790000 -29.404660 16.694636
v -15.590000 -29.404661 16.694636
v -12.790000 -28.581798 16.297503
v -15.590000 -28.581799 16.297503
v -12.790000 -27.889759 15.700930
v -15.590000 -27.889760 15.700930
v -12.790000 -27.375706 14.945571
v -15.590000 -27.375707 14.945571
v -12.790000 -27.074670 14.082904
v -15.590000 -27.074670 14.082904
v -12.790000 -27.007166 13.171717
v -15.590001 -27.007166 13.171717
v -12.790000 -27.177795 12.274107
v -15.590001 -27.177795 12.274107
v -12.790000 -27.574928 11.451244
v -15.590000 -31.393242 19.304301
v -12.790001 -15.197684 43.994356
v -15.590001 -15.197684 43.994356
v -12.790000 -31.393242 19.304301
v -12.790000 -24.703952 14.916430
v -12.790000 -27.074670 14.082904
v -12.790000 -27.007166 13.171717
v -12.790000 -27.177795 12.274107
v -12.790000 -21.516314 24.698631
v -12.790000 -25.575095 18.511038
v -12.790000 -27.574928 11.451244
v -12.790000 -24.502612 13.486925
v -12.790001 -8.508394 39.606485
v -12.790000 -21.305431 25.337664
v -12.790000 -21.368807 25.004266
v -12.790001 -8.054527 40.546900
v -12.790001 -7.859524 41.572738
v -12.789999 -35.886112 16.017801
v -12.789999 -34.043875 18.213616
v -12.789999 -35.098040 17.227330
v -12.789999 -36.362471 14.655045
v -12.789999 -32.784644 18.919562
v -12.789999 -36.499542 13.217952
v -12.789999 -36.289389 11.789717
v -12.789999 -33.428057 15.290631
v -12.789999 -33.995818 13.570159
v -12.789999 -33.825189 14.467769
v -12.789999 -35.744177 10.453017
v -12.790000 -33.627278 11.796306
v -12.789999 -33.928314 12.658973
v -12.789999 -34.895469 9.285233
v -12.790000 -33.113224 11.040948
v -12.790000 -33.792396 8.353970
v -12.790000 -31.598323 10.047242
v -12.790000 -32.421186 10.444374
v -12.790000 -32.498814 7.713136
v -12.790000 -30.700713 9.876613
v -12.790000 -31.089608 7.399830
v -12.790000 -28.926860 10.245153
v -12.790000 -29.789527 9.944117
v -12.790000 -29.646356 7.432188
v -12.790000 -24.648545 12.050706
v -12.790000 -26.989047 8.506503
v -12.790000 -25.928818 9.486268
v -12.790000 -25.133301 10.690913
v -12.790000 -28.252608 7.808338
v -15.590001 -13.652619 45.372746
v -15.590001 -13.040074 42.192146
v -15.590001 -15.197684 43.994356
v -15.590001 -14.515886 44.785258
v -15.590001 -12.666714 45.716789
v -15.590001 -12.898241 42.486025
v -15.590001 -11.625357 45.793936
v -15.590001 -12.415408 42.916773
v -15.590001 -12.685179 42.733182
v -15.590001 -10.599518 45.598932
v -15.590001 -11.461314 42.987455
v -15.590001 -11.781889 43.048394
v -15.590001 -12.107312 43.024286
v -15.590001 -9.659104 45.145065
v -15.590001 -10.920278 42.632560
v -15.590001 -11.167434 42.845622
v -15.590002 -8.868202 44.463267
v -15.590001 -10.605065 41.729270
v -15.590001 -10.629174 42.054694
v -15.590001 -10.736687 42.362789
v -15.590002 -8.280712 43.600001
v -15.590002 -8.508394 39.606485
v -15.590001 -21.516314 24.698631
v -15.590001 -21.368808 25.004266
v -15.590001 -21.305432 25.337664
v -15.590001 -11.290670 40.684069
v -15.590002 -7.859524 41.572738
v -15.590002 -8.054527 40.546900
v -15.590001 -24.703952 14.916430
v -15.590001 -27.007166 13.171717
v -15.590000 -27.074670 14.082904
v -15.590001 -25.928819 9.486268
v -15.590001 -24.648545 12.050706
v -15.590001 -25.133301 10.690913
v -15.590001 -26.989047 8.506503
v -15.590001 -24.502613 13.486925
v -15.590001 -28.252608 7.808338
v -15.590000 -29.646357 7.432188
v -15.590000 -27.574928 11.451244
v -15.590000 -28.926860 10.245153
v -15.590000 -28.171502 10.759206
v -15.590000 -31.089608 7.399830
v -15.590000 -30.700714 9.876613
v -15.590000 -29.789527 9.944117
v -15.590000 -32.498815 7.713136
v -15.590000 -31.598323 10.047242
v -15.590000 -33.792397 8.353970
v -15.590000 -33.113224 11.040948
v -15.590000 -32.421186 10.444374
v -15.590000 -34.895470 9.285233
v -15.590000 -33.627278 11.796306
v -15.590000 -35.744177 10.453017
v -15.590000 -33.995818 13.570159
v -15.590000 -33.928314 12.658973
v -15.590000 -36.289389 11.789717
v -15.590000 -33.428057 15.290631
v -15.590000 -33.825189 14.467769
v -15.590000 -36.499542 13.217952
v -15.590000 -34.043875 18.213616
v -15.590000 -36.362472 14.655045
v -15.590000 -35.886112 16.017801
v -15.590000 -35.098040 17.227330
v -15.590000 -32.784644 18.919562
v -15.590001 -21.516314 24.698631
v -15.590001 -10.807838 41.114815
v -15.590000 -27.574928 11.451244
v -12.790000 -25.796680 18.253994
v -12.790000 -27.375706 14.945571
v -12.790000 -26.077241 18.063061
v -12.790000 -27.889759 15.700930
v -12.790000 -26.397661 17.951247
v -12.790000 -26.736101 17.926175
v -12.790000 -27.069499 17.989550
v -12.790000 -28.581798 16.297503
v -12.790000 -27.375134 18.137057
v -12.790000 -27.632177 18.358641
v -12.790000 -29.404660 16.694636
v -12.790000 -27.823111 18.639204
v -12.790000 -27.934924 18.959623
v -12.790000 -27.959997 19.298064
v -12.790000 -30.302271 16.865264
v -12.790000 -27.896621 19.631461
v -12.790000 -27.749114 19.937096
v -12.790000 -31.393242 19.304301
v -12.790000 -31.213457 16.797760
v -12.790000 -23.690333 26.124689
v -12.790001 -15.197684 43.994356
v -12.790000 -32.076124 16.496724
v -12.790000 -23.468749 26.381732
v -12.790000 -23.188187 26.572666
v -12.790001 -13.101012 41.871571
v -12.790001 -13.652619 45.372746
v -12.790001 -14.515885 44.785258
v -12.790000 -22.867768 26.684480
v -12.790001 -13.076904 41.546147
v -12.790001 -13.040073 42.192146
v -12.790000 -22.529327 26.709552
v -12.790001 -12.969391 41.238052
v -12.790000 -22.195929 26.646176
v -12.790001 -12.785800 40.968281
v -12.790000 -21.890295 26.498670
v -12.790001 -12.538644 40.755218
v -12.790001 -12.244764 40.613386
v -12.790000 -21.633252 26.277085
v -12.790001 -11.924189 40.552447
v -12.790000 -21.442318 25.996523
v -12.790001 -11.598766 40.576555
v -12.790000 -21.330504 25.676104
v -12.790001 -11.290670 40.684069
v -12.790001 -11.020899 40.867659
v -12.790001 -7.936671 42.614095
v -12.790001 -10.807837 41.114815
v -12.790001 -8.280712 43.600001
v -12.790001 -10.666004 41.408695
v -12.790001 -10.605065 41.729270
v -12.790001 -8.868202 44.463267
v -12.790001 -10.629173 42.054694
v -12.790001 -10.736687 42.362789
v -12.790001 -10.920277 42.632560
v -12.790001 -9.659103 45.145065
v -12.790001 -11.167434 42.845622
v -12.790001 -11.461313 42.987455
v -12.790001 -10.599518 45.598932
v -12.790001 -11.781888 43.048394
v -12.790001 -12.107312 43.024286
v -12.790001 -12.415407 42.916773
v -12.790001 -11.625357 45.793936
v -12.790001 -12.685178 42.733182
v -12.790001 -12.898241 42.486025
v -12.790001 -12.666713 45.716789
v -12.790000 -28.171501 10.759206
v -12.790000 -32.831483 15.982670
v -15.590000 -27.896621 19.631461
v -15.590000 -30.302271 16.865264
v -15.590000 -27.749115 19.937096
v -15.590000 -27.959997 19.298064
v -15.590000 -29.404661 16.694636
v -15.590000 -31.213457 16.797760
v -15.590000 -31.393242 19.304301
v -15.590000 -32.076124 16.496724
v -15.590000 -32.831483 15.982670
v -15.590001 -23.690334 26.124689
v -15.590000 -27.934925 18.959623
v -15.590000 -27.823111 18.639204
v -15.590000 -27.632177 18.358641
v -15.590000 -28.581799 16.297503
v -15.590000 -27.375134 18.137057
v -15.590000 -27.069500 17.989550
v -15.590000 -27.889760 15.700930
v -15.590000 -26.736101 17.926175
v -15.590000 -26.397661 17.951247
v -15.590001 -26.077241 18.063061
v -15.590000 -27.375707 14.945571
v -15.590001 -25.796680 18.253994
v -15.590001 -25.575096 18.511038
v -15.590001 -21.330504 25.676104
v -15.590001 -11.598766 40.576555
v -15.590001 -11.020899 40.867659
v -15.590001 -21.442318 25.996523
v -15.590001 -11.924189 40.552447
v -15.590001 -21.633252 26.277085
v -15.590001 -12.244764 40.613386
v -15.590001 -21.890295 26.498670
v -15.590001 -12.538644 40.755218
v -15.590001 -12.785800 40.968281
v -15.590001 -22.195930 26.646176
v -15.590001 -12.969391 41.238052
v -15.590001 -22.529328 26.709552
v -15.590001 -13.076904 41.546147
v -15.590001 -22.867768 26.684480
v -15.590001 -13.101013 41.871571
v -15.590001 -23.188187 26.572666
v -15.590001 -23.468749 26.381732
v -15.590001 -10.666004 41.408695
v -15.590001 -10.807838 41.114815
v -15.590002 -7.936671 42.614095
v -15.590001 -27.177795 12.274107
v -15.590001 -15.197684 43.994356
v -12.790001 -15.197684 43.994356
v -15.590001 -14.515886 44.785258
v -12.790001 -14.515885 44.785258
v -15.590001 -13.652619 45.372746
v -12.790001 -13.652619 45.372746
v -15.590001 -12.666714 45.716789
v -12.790001 -12.666713 45.716789
v -15.590001 -11.625357 45.793936
v -12.790001 -11.625357 45.793936
v -15.590001 -10.599518 45.598932
v -12.790001 -10.599518 45.598932
v -15.590001 -9.659104 45.145065
v -12.790001 -9.659103 45.145065
v -15.590002 -8.868202 44.463267
v -12.790001 -8.868202 44.463267
v -15.590002 -8.280712 43.600001
v -12.790001 -8.280712 43.600001
v -15.590002 -7.936671 42.614095
v -12.790001 -7.936671 42.614095
v -15.590002 -7.859524 41.572738
v -12.790001 -7.859524 41.572738
v -15.590002 -8.054527 40.546900
v -12.790001 -8.054527 40.546900
v -15.590002 -8.508394 39.606485
v -12.790001 -8.508394 39.606485
v -15.590001 -24.703952 14.916430
v -15.590002 -8.508394 39.606485
v -12.790000 -24.703952 14.916430
v -12.790001 -8.508394 39.606485
v -12.790000 -31.393242 19.304301
v -15.590000 -31.393242 19.304301
v -12.789999 -32.784644 18.919562
v -15.590000 -32.784644 18.919562
v -12.789999 -34.043875 18.213616
v -15.590000 -34.043875 18.213616
v -12.789999 -35.098040 17.227330
v -15.590000 -35.098040 17.227330
v -12.789999 -35.886112 16.017801
v -15.590000 -35.886112 16.017801
v -12.789999 -36.362471 14.655045
v -15.590000 -36.362472 14.655045
v -12.789999 -36.499542 13.217952
v -15.590000 -36.499542 13.217952
v -12.789999 -36.289389 11.789717
v -15.590000 -36.289389 11.789717
v -12.789999 -35.744177 10.453017
v -15.590000 -35.744177 10.453017
v -12.789999 -34.895469 9.285233
v -15.590000 -34.895470 9.285233
v -12.790000 -33.792396 8.353970
v -15.590000 -33.792397 8.353970
v -12.790000 -32.498814 7.713136
v -15.590000 -32.498815 7.713136
v -12.790000 -31.089608 7.399830
v -15.590000 -31.089608 7.399830
v -12.790000 -29.646356 7.432188
v -15.590000 -29.646357 7.432188
v -12.790000 -28.252608 7.808338
v -15.590001 -28.252608 7.808338
v -12.790000 -26.989047 8.506503
v -15.590001 -26.989047 8.506503
v -12.790000 -25.928818 9.486268
v -15.590001 -25.928819 9.486268
v -12.790000 -25.133301 10.690913
v -15.590001 -25.133301 10.690913
v -12.790000 -24.648545 12.050706
v -15.590001 -24.648545 12.050706
v -12.790000 -24.502612 13.486925
v -15.590001 -24.502613 13.486925
v -12.790000 -24.703952 14.916430
v -15.590001 -24.703952 14.916430
f 1 2 3
f 1 4 5
f 1 6 2
f 1 265 4
f 2 6 7
f 6 8 7
f 7 8 9
f 8 10 9
f 9 10 11
f 10 12 11
f 11 12 13
f 12 14 13
f 13 14 15
f 14 16 15
f 15 16 17
f 16 18 17
f 17 18 19
f 18 20 19
f 19 20 21
f 20 22 21
f 21 22 23
f 22 24 23
f 23 24 25
f 24 26 25
f 25 26 27
f 26 28 27
f 29 30 31
f 30 32 31
f 31 33 34
f 31 35 33
f 33 35 36
f 35 37 36
f 36 37 38
f 37 39 38
f 38 39 40
f 39 41 40
f 40 41 42
f 41 43 42
f 42 43 44
f 43 45 44
f 44 45 46
f 45 47 46
f 46 47 48
f 47 49 48
f 48 49 50
f 49 51 50
f 50 51 52
f 51 53 52
f 52 53 54
f 53 55 54
f 54 55 56
f 55 57 56
f 58 59 60
f 58 61 59
f 59 61 62
f 61 63 62
f 62 63 64
f 63 65 64
f 64 65 66
f 65 67 66
f 66 67 68
f 67 69 68
f 68 69 70
f 69 71 70
f 70 71 72
f 71 73 72
f 72 73 74
f 73 75 74
f 74 75 76
f 75 77 76
f 76 77 78
f 77 79 78
f 78 79 80
f 79 81 80
f 80 81 82
f 81 83 82
f 82 83 84
f 83 85 84
f 84 85 86
f 85 87 86
f 86 87 88
f 87 89 88
f 88 89 90
f 89 91 90
f 90 91 92
f 91 93 92
f 92 93 94
f 93 95 94
f 94 95 96
f 95 97 96
f 96 97 98
f 97 99 98
f 98 99 100
f 99 101 100
f 100 101 102
f 101 103 102
f 102 103 104
f 103 105 104
f 104 105 106
f 105 266 106
f 107 108 109
f 107 110 108
f 108 110 111
f 110 112 111
f 111 112 113
f 112 114 113
f 113 114 115
f 114 116 115
f 115 116 117
f 116 118 117
f 117 118 119
f 118 120 119
f 119 120 121
f 120 122 121
f 121 122 123
f 122 124 123
f 123 124 125
f 124 126 125
f 125 126 127
f 126 128 127
f 127 128 129
f 128 130 129
f 129 130 131
f 130 132 131
f 131 132 133
f 132 134 133
f 133 134 135
f 134 136 135
f 135 136 137
f 136 138 137
f 137 138 139
f 138 140 139
f 139 140 141
f 140 142 141
f 141 142 143
f 142 144 143
f 143 144 145
f 144 146 145
f 145 146 147
f 146 148 147
f 147 148 149
f 148 150 149
f 149 150 151
f 150 152 151
f 151 152 153
f 152 154 153
f 153 154 155
f 154 267 155
f 156 157 158
f 156 159 157
f 160 161 162
f 160 162 163
f 160 164 165
f 160 166 167
f 160 168 164
f 160 165 161
f 160 163 166
f 161 165 269
f 164 168 170
f 165 268 269
f 166 332 196
f 166 196 201
f 166 201 167
f 167 201 198
f 167 198 197
f 168 169 170
f 168 171 172
f 168 310 169
f 168 311 310
f 168 172 311
f 169 310 309
f 172 312 311
f 173 174 175
f 173 176 174
f 174 176 177
f 176 178 177
f 177 180 285
f 177 178 180
f 178 179 180
f 179 181 182
f 179 182 180
f 179 183 181
f 180 333 285
f 181 183 185
f 183 184 185
f 183 186 184
f 184 186 187
f 186 188 187
f 187 188 190
f 188 189 190
f 188 191 189
f 189 191 192
f 191 193 192
f 192 193 195
f 193 194 195
f 193 196 194
f 194 196 332
f 197 198 199
f 197 199 200
f 202 203 204
f 202 204 205
f 202 206 203
f 203 206 207
f 203 372 204
f 204 372 373
f 204 373 374
f 204 374 343
f 204 343 340
f 206 208 207
f 207 208 210
f 208 209 210
f 208 211 209
f 209 211 214
f 211 212 213
f 211 213 214
f 211 215 212
f 212 215 217
f 215 216 217
f 215 218 216
f 216 218 221
f 218 219 220
f 218 220 221
f 218 222 219
f 219 222 375
f 222 376 375
f 222 377 376
f 223 224 225
f 223 225 226
f 223 226 227
f 223 228 229
f 223 230 224
f 223 227 359
f 223 359 228
f 224 230 356
f 226 357 227
f 227 357 358
f 228 359 377
f 230 231 232
f 230 232 356
f 230 240 378
f 230 378 231
f 230 237 240
f 232 354 356
f 233 234 235
f 233 236 234
f 234 236 237
f 236 238 237
f 237 238 240
f 238 239 240
f 239 241 242
f 239 242 240
f 239 243 241
f 241 243 245
f 243 244 245
f 243 246 244
f 244 246 247
f 246 248 247
f 247 248 250
f 248 249 250
f 248 251 249
f 249 251 252
f 251 253 252
f 252 253 255
f 253 254 255
f 253 256 254
f 254 256 258
f 256 257 258
f 256 259 257
f 257 259 264
f 257 264 340
f 257 340 342
f 259 261 264
f 260 261 262
f 260 262 263
f 260 264 261
f 268 270 269
f 269 270 271
f 270 272 271
f 271 272 273
f 271 274 275
f 271 273 274
f 274 276 275
f 275 276 277
f 275 277 278
f 277 279 278
f 278 279 280
f 278 281 282
f 278 280 281
f 281 283 282
f 282 283 284
f 282 284 286
f 284 285 286
f 284 287 285
f 285 287 288
f 285 289 286
f 285 333 289
f 287 290 288
f 288 290 291
f 288 291 292
f 288 293 294
f 288 292 297
f 288 297 293
f 291 295 292
f 292 295 296
f 293 297 331
f 295 298 296
f 296 298 299
f 297 330 331
f 298 300 299
f 299 300 301
f 300 302 301
f 301 302 303
f 302 304 303
f 302 305 304
f 304 305 306
f 305 307 306
f 306 307 308
f 307 309 308
f 308 309 310
f 311 312 313
f 312 314 313
f 313 314 315
f 314 316 315
f 314 317 316
f 316 317 318
f 317 319 318
f 317 320 319
f 317 321 320
f 320 321 322
f 321 323 322
f 321 324 323
f 323 324 325
f 324 326 325
f 324 327 326
f 324 328 327
f 327 328 329
f 328 330 329
f 328 331 330
f 334 335 336
f 334 337 335
f 335 337 338
f 335 339 336
f 336 339 340
f 336 340 343
f 337 344 338
f 338 344 345
f 338 346 347
f 338 345 346
f 339 341 340
f 340 341 342
f 346 348 347
f 347 348 349
f 347 349 350
f 349 351 350
f 350 351 352
f 350 353 354
f 350 352 353
f 353 355 354
f 354 355 356
f 357 360 358
f 358 360 361
f 359 376 377
f 360 362 361
f 361 362 363
f 362 364 363
f 363 364 365
f 364 366 365
f 364 367 366
f 366 367 368
f 367 369 368
f 368 369 370
f 369 371 370
f 370 371 372
f 371 373 372
f 379 380 381
f 380 382 381
f 381 382 383
f 382 384 383
f 383 384 385
f 384 386 385
f 385 386 387
f 386 388 387
f 387 388 389
f 388 390 389
f 389 390 391
f 390 392 391
f 391 392 393
f 392 394 393
f 393 394 395
f 394 396 395
f 395 396 397
f 396 398 397
f 397 398 399
f 398 400 399
f 399 400 401
f 400 402 401
f 401 402 403
f 402 404 403
f 405 406 407
f 406 408 407
f 409 410 411
f 410 412 411
f 411 412 413
f 412 414 413
f 413 414 415
f 414 416 415
f 415 416 417
f 416 418 417
f 417 418 419
f 418 420 419
f 419 420 421
f 420 422 421
f 421 422 423
f 422 424 423
f 423 424 425
f 424 426 425
f 425 426 427
f 426 428 427
f 427 428 429
f 428 430 429
f 429 430 431
f 430 432 431
f 431 432 433
f 432 434 433
f 433 434 435
f 434 436 435
f 435 436 437
f 436 438 437
f 437 438 439
f 438 440 439
f 439 440 441
f 440 442 441
f 441 442 443
f 442 444 443
f 443 444 445
f 444 446 445
f 445 446 447
f 446 448 447
f 447 448 449
f 448 450 449