# ANSI B18.6.5M - M2.5x0.45 x 4(38)
# Autodesk dbId: 132
# Units: mm
o 132_ANSI_B18.6.5M_-_M2.5x0.45_x_4(38)
v -14.390000 -31.555679 14.042646
v -14.390000 -31.364296 14.275411
v -16.389999 -31.150321 14.051102
v -16.389999 -31.304252 13.859997
v -14.390000 -31.685796 13.770844
v -16.389999 -31.403476 13.635563
v -14.390000 -31.747086 13.475801
v -16.389999 -31.441231 13.393096
v -14.390000 -31.735986 13.174664
v -16.389999 -31.414945 13.149118
v -14.390000 -31.653143 12.884933
v -16.389999 -31.326408 12.920258
v -14.390000 -31.503369 12.623448
v -16.389999 -31.181655 12.722110
v -14.389999 -31.295370 12.405404
v -16.389999 -30.990550 12.568180
v -14.389999 -31.041234 12.243473
v -16.389999 -30.766117 12.468956
v -14.389999 -30.755730 12.147067
v -16.389999 -30.523649 12.431200
v -14.390000 -30.455450 12.121787
v -16.389999 -30.279672 12.457486
v -14.390000 -30.157847 12.169104
v -16.389999 -30.050811 12.546023
v -14.390000 -29.880214 12.286267
v -16.389999 -29.852664 12.690776
v -14.390000 -29.447306 12.699232
v -14.390000 -29.638689 12.466467
v -16.389999 -29.698733 12.881881
v -14.390000 -29.317188 12.971034
v -16.389999 -29.599509 13.106315
v -14.390000 -29.255899 13.266077
v -16.389999 -29.561754 13.348782
v -14.390000 -29.266998 13.567214
v -16.389999 -29.588040 13.592759
v -14.390000 -29.349842 13.856944
v -16.389999 -29.676576 13.821620
v -14.390000 -29.499615 14.118430
v -16.389999 -29.821329 14.019767
v -14.390000 -29.707614 14.336474
v -16.389999 -30.012435 14.173698
v -14.390000 -29.961751 14.498405
v -16.389999 -30.236868 14.272922
v -14.390000 -30.247255 14.594811
v -16.389999 -30.479335 14.310678
v -14.390000 -30.547534 14.620091
v -16.389999 -30.723313 14.284391
v -14.390000 -30.845138 14.572774
v -16.389999 -30.952173 14.195855
v -14.390000 -31.122770 14.455611
v -12.390000 -31.364296 14.275411
v -14.390000 -31.122770 14.455611
v -14.390000 -31.364296 14.275411
v -12.390000 -31.555679 14.042646
v -12.390000 -31.122770 14.455611
v -14.390000 -30.845138 14.572774
v -12.390000 -30.845138 14.572774
v -14.390000 -30.547534 14.620091
v -12.390000 -30.547534 14.620091
v -14.390000 -30.247255 14.594811
v -12.390000 -30.247255 14.594811
v -14.390000 -29.961751 14.498405
v -12.390000 -29.961751 14.498405
v -14.390000 -29.707614 14.336474
v -12.390000 -29.707614 14.336474
v -14.390000 -29.499615 14.118430
v -12.390000 -29.499615 14.118430
v -14.390000 -29.349842 13.856944
v -12.390000 -29.349842 13.856944
v -14.390000 -29.266998 13.567214
v -12.390000 -29.266998 13.567214
v -14.390000 -29.255899 13.266077
v -12.390000 -29.255899 13.266077
v -14.390000 -29.317188 12.971034
v -12.390000 -29.317188 12.971034
v -14.390000 -29.447306 12.699232
v -12.390000 -29.447306 12.699232
v -14.390000 -29.638689 12.466467
v -12.390000 -29.638689 12.466467
v -14.390000 -29.880214 12.286267
v -14.390000 -29.638689 12.466467
v -12.390000 -29.880214 12.286267
v -14.390000 -30.157847 12.169104
v -12.390000 -30.157847 12.169104
v -14.390000 -30.455450 12.121787
v -12.390000 -30.455450 12.121787
v -14.389999 -30.755730 12.147067
v -12.390000 -30.755730 12.147067
v -14.389999 -31.041234 12.243473
v -12.390000 -31.041234 12.243473
v -14.389999 -31.295370 12.405404
v -12.390000 -31.295370 12.405404
v -14.390000 -31.503369 12.623448
v -12.390000 -31.503369 12.623448
v -14.390000 -31.653143 12.884933
v -12.390000 -31.653143 12.884934
v -14.390000 -31.735986 13.174664
v -12.390000 -31.735986 13.174664
v -14.390000 -31.747086 13.475801
v -12.390000 -31.747086 13.475801
v -14.390000 -31.685796 13.770844
v -12.390000 -31.685796 13.770844
v -14.390000 -31.555679 14.042646
v -10.528166 -31.652678 14.094383
v -10.521837 -31.632594 14.079556
v -10.528166 -31.517971 14.273918
v -10.519854 -31.612222 14.064990
v -10.521165 -31.468220 14.229227
v -10.520591 -31.493418 14.251852
v -10.522745 -31.591366 14.050606
v -10.529855 -31.443860 14.207358
v -10.529861 -31.571040 14.037047
v -10.546152 -31.421771 14.187518
v -10.541416 -31.552195 14.025006
v -10.556930 -31.534690 14.014334
v -10.569102 -31.403254 14.170857
v -10.575459 -31.520195 14.006104
v -10.597362 -31.507928 13.999806
v -10.597362 -31.389402 14.158342
v -10.569102 -31.258022 14.309398
v -10.597362 -31.246174 14.294972
v -10.597362 -31.082228 14.405894
v -10.575459 -31.087941 14.418444
v -10.556930 -31.095478 14.433311
v -10.546152 -31.273792 14.328680
v -10.541416 -31.105314 14.451300
v -10.529861 -31.116453 14.470691
v -10.529855 -31.292569 14.351679
v -10.522745 -31.129039 14.491634
v -10.521165 -31.313266 14.377042
v -10.519854 -31.142425 14.513145
v -10.520591 -31.334678 14.403279
v -10.521837 -31.156014 14.534181
v -10.528166 -31.169878 14.554941
v -10.528166 -31.355562 14.428845
v -11.040673 -31.306082 13.905042
v -10.597362 -31.507928 13.999806
v -10.830810 -31.401719 13.949961
v -11.230297 -31.219495 13.864331
v -11.402410 -31.140708 13.827243
v -10.597362 -31.389402 14.158342
v -11.402410 -31.078295 13.903958
v -11.402410 -31.006735 13.972221
v -10.597362 -31.246174 14.294972
v -11.402410 -30.927163 14.030950
v -11.230297 -30.960498 14.111397
v -11.040673 -30.997082 14.199807
v -10.830810 -31.037444 14.297454
v -10.528166 -31.224936 12.219753
v -10.521837 -31.210109 12.239837
v -10.528166 -31.404472 12.354460
v -10.519854 -31.195544 12.260209
v -10.521165 -31.359780 12.404211
v -10.520591 -31.382406 12.379013
v -10.522745 -31.181159 12.281065
v -10.529855 -31.337912 12.428571
v -10.529861 -31.167600 12.301391
v -10.546152 -31.318071 12.450660
v -10.541416 -31.155560 12.320236
v -10.556930 -31.144887 12.337741
v -10.569102 -31.301410 12.469177
v -10.575459 -31.136658 12.352237
v -10.597362 -31.130359 12.364503
v -10.597362 -31.288895 12.483029
v -10.569102 -31.439952 12.614409
v -10.597362 -31.425525 12.626257
v -10.597362 -31.536448 12.790203
v -10.575459 -31.548997 12.784490
v -10.556930 -31.563864 12.776953
v -10.546152 -31.459233 12.598639
v -10.541416 -31.581853 12.767117
v -10.529861 -31.601244 12.755978
v -10.529855 -31.482232 12.579862
v -10.522745 -31.622187 12.743392
v -10.521165 -31.507596 12.559165
v -10.519853 -31.643698 12.730006
v -10.520591 -31.533832 12.537753
v -10.521837 -31.664734 12.716417
v -10.528166 -31.685495 12.702553
v -10.528166 -31.559398 12.516869
v -11.040673 -31.035595 12.566349
v -10.597362 -31.130359 12.364503
v -10.830810 -31.080515 12.470712
v -11.230296 -30.994885 12.652936
v -11.402410 -30.957796 12.731723
v -10.597362 -31.288895 12.483029
v -11.402410 -31.034511 12.794136
v -11.402410 -31.102775 12.865696
v -10.597362 -31.425525 12.626257
v -11.402410 -31.161503 12.945268
v -11.230297 -31.241950 12.911933
v -11.040673 -31.330360 12.875349
v -10.830810 -31.428007 12.834987
v -10.528166 -29.350306 12.647495
v -10.521836 -29.370390 12.662322
v -10.528166 -29.485013 12.467960
v -10.519853 -29.390762 12.676888
v -10.521165 -29.534765 12.512651
v -10.520591 -29.509567 12.490026
v -10.522745 -29.411619 12.691272
v -10.529855 -29.559125 12.534520
v -10.529861 -29.431945 12.704831
v -10.546152 -29.581213 12.554360
v -10.541416 -29.450789 12.716872
v -10.556930 -29.468295 12.727544
v -10.569102 -29.599730 12.571021
v -10.575459 -29.482790 12.735774
v -10.597362 -29.495056 12.742072
v -10.597362 -29.613582 12.583536
v -10.569102 -29.744962 12.432479
v -10.597362 -29.756811 12.446906
v -10.597362 -29.920756 12.335984
v -10.575459 -29.915043 12.323434
v -10.556930 -29.907506 12.308567
v -10.546152 -29.729193 12.413198
v -10.541416 -29.897670 12.290578
v -10.529861 -29.886531 12.271187
v -10.529855 -29.710415 12.390199
v -10.522745 -29.873945 12.250244
v -10.521165 -29.689719 12.364835
v -10.519853 -29.860560 12.228733
v -10.520591 -29.668306 12.338599
v -10.521837 -29.846971 12.207697
v -10.528166 -29.833106 12.186937
v -10.528166 -29.647422 12.313033
v -11.040673 -29.696902 12.836836
v -10.597362 -29.495056 12.742072
v -10.830810 -29.601266 12.791917
v -11.230297 -29.783489 12.877547
v -11.402410 -29.862276 12.914635
v -10.597362 -29.613582 12.583536
v -11.402410 -29.924690 12.837920
v -11.402410 -29.996250 12.769657
v -10.597362 -29.756811 12.446906
v -11.402410 -30.075821 12.710928
v -11.230296 -30.042487 12.630481
v -11.040673 -30.005903 12.542071
v -10.830810 -29.965540 12.444424
v -10.528166 -29.778048 14.522125
v -10.521837 -29.792875 14.502041
v -10.528166 -29.598513 14.387418
v -10.519854 -29.807441 14.481669
v -10.521166 -29.643204 14.337667
v -10.520591 -29.620579 14.362865
v -10.522745 -29.821825 14.460813
v -10.529855 -29.665073 14.313307
v -10.529861 -29.835384 14.440487
v -10.546152 -29.684913 14.291218
v -10.541416 -29.847425 14.421642
v -10.556930 -29.858097 14.404137
v -10.569102 -29.701574 14.272701
v -10.575459 -29.866327 14.389641
v -10.597362 -29.872625 14.377375
v -10.597362 -29.714089 14.258849
v -10.569102 -29.563032 14.127469
v -10.597363 -29.577459 14.115621
v -10.597362 -29.466537 13.951675
v -10.575459 -29.453987 13.957388
v -10.556930 -29.439120 13.964925
v -10.546152 -29.543751 14.143238
v -10.541416 -29.421131 13.974761
v -10.529861 -29.401740 13.985900
v -10.529855 -29.520752 14.162016
v -10.522745 -29.380797 13.998486
v -10.521166 -29.495388 14.182713
v -10.519854 -29.359287 14.011871
v -10.520591 -29.469152 14.204125
v -10.521837 -29.338250 14.025461
v -10.528166 -29.317490 14.039325
v -10.528166 -29.443586 14.225009
v -11.040673 -29.967389 14.175529
v -10.597362 -29.872625 14.377375
v -10.830810 -29.922470 14.271166
v -11.230297 -30.008100 14.088942
v -11.402410 -30.045188 14.010155
v -10.597362 -29.714089 14.258849
v -11.402410 -29.968473 13.947742
v -11.402410 -29.900210 13.876182
v -10.597363 -29.577459 14.115621
v -11.402410 -29.841481 13.796610
v -11.230296 -29.761034 13.829944
v -11.040673 -29.672624 13.866529
v -10.830810 -29.574977 13.906891
v -10.346400 -31.108358 13.088581
v -11.040673 -31.330360 12.875349
v -11.230297 -31.241950 12.911933
v -11.467119 -31.055726 13.005854
v -10.393110 -31.304353 12.959044
v -11.402410 -31.161503 12.945268
v -11.467119 -30.136407 12.816705
v -10.333097 -30.275673 12.830699
v -10.346399 -30.219134 12.764073
v -11.525203 -30.201742 12.904239
v -11.581425 -30.288886 12.975787
v -10.323293 -30.344213 12.880577
v -11.606178 -30.339041 13.003042
v -10.316932 -30.425324 12.913864
v -11.626543 -30.392727 13.023736
v -11.640440 -30.449546 13.037294
v -10.314794 -30.512997 12.926490
v -11.645562 -30.509225 13.042960
v -11.640440 -30.569105 13.040113
v -10.316888 -30.598214 12.918158
v -11.626543 -30.626500 13.029248
v -11.606178 -30.681102 13.011107
v -10.323145 -30.680314 12.889228
v -11.581425 -30.732485 12.986246
v -11.525202 -30.822904 12.918884
v -10.333354 -30.753974 12.840710
v -10.393110 -30.089597 12.568078
v -11.040673 -30.005903 12.542071
v -10.346399 -30.219134 12.764073
v -11.467119 -29.947258 13.736024
v -10.333097 -29.961252 13.596759
v -10.346400 -29.894627 13.653297
v -11.525203 -30.034792 13.670689
v -11.581425 -30.106341 13.583545
v -10.323293 -30.011130 13.528218
v -11.606178 -30.133596 13.533391
v -10.316933 -30.044417 13.447107
v -11.626543 -30.154289 13.479705
v -11.640440 -30.167847 13.422886
v -10.314794 -30.057043 13.359434
v -11.645562 -30.173513 13.363206
v -11.640440 -30.170666 13.303326
v -10.316888 -30.048711 13.274217
v -11.626543 -30.159801 13.245931
v -11.606178 -30.141661 13.191329
v -10.323145 -30.019782 13.192117
v -11.581425 -30.116800 13.139946
v -11.525202 -30.049437 13.049527
v -10.333354 -29.971263 13.118457
v -10.346400 -31.094376 13.681584
v -10.333354 -31.031721 13.623421
v -11.467119 -31.037904 13.761739
v -11.525202 -30.968193 13.071189
v -10.333097 -31.041732 13.145119
v -11.467119 -31.055726 13.005854
v -11.581425 -30.896644 13.158333
v -10.323293 -30.991855 13.213660
v -11.606178 -30.869389 13.208487
v -10.316933 -30.958568 13.294771
v -11.626543 -30.848695 13.262173
v -11.640440 -30.835137 13.318992
v -10.314794 -30.945941 13.382444
v -11.645562 -30.829471 13.378672
v -11.640440 -30.832318 13.438552
v -10.316888 -30.954273 13.467661
v -11.626543 -30.843183 13.495947
v -11.606178 -30.861324 13.550549
v -10.323145 -30.983203 13.549761
v -11.581425 -30.886185 13.601932
v -11.525202 -30.953547 13.692351
v -10.346400 -30.783850 13.977805
v -11.040673 -30.997082 14.199807
v -11.230297 -30.960498 14.111397
v -11.467119 -30.866577 13.925173
v -10.393110 -30.913387 14.173800
v -11.402410 -30.927163 14.030950
v -10.393110 -29.698632 13.782834
v -11.040673 -29.672624 13.866529
v -10.346400 -29.894627 13.653297
v -11.525203 -30.801242 13.837639
v -10.333097 -30.727312 13.911179
v -11.467119 -30.866577 13.925173
v -11.581425 -30.714098 13.766090
v -10.323293 -30.658771 13.861301
v -11.606178 -30.663944 13.738835
v -10.316933 -30.577660 13.828014
v -11.626543 -30.610258 13.718142
v -11.640440 -30.553439 13.704584
v -10.314794 -30.489987 13.815388
v -11.645562 -30.493759 13.698918
v -11.640440 -30.433879 13.701765
v -10.316888 -30.404770 13.823720
v -11.626543 -30.376484 13.712630
v -11.606178 -30.321882 13.730770
v -10.323145 -30.322670 13.852650
v -11.581425 -30.270499 13.755631
v -11.525203 -30.180080 13.822994
v -10.333354 -30.249010 13.901168
v -12.390000 -32.507991 14.862233
v -12.390000 -32.227100 15.179883
v -12.390000 -31.364296 14.275411
v -11.820000 -30.501492 13.370939
v -11.525203 -30.180080 13.822994
v -11.581425 -30.270499 13.755631
v -11.079032 -32.872160 13.634784
v -10.887452 -32.604184 13.407655
v -10.740319 -32.297403 13.788626
v -10.983328 -32.621118 14.127975
v -11.079032 -32.881960 13.219114
v -11.079032 -32.819432 12.808056
v -10.930610 -32.566987 12.701437
v -10.717898 -32.274884 13.062451
v -11.079031 -32.686473 12.414102
v -10.833846 -32.245765 12.364702
v -11.079031 -32.487126 12.049220
v -10.801238 -31.917291 12.020365
v -11.079031 -31.915323 11.449803
v -10.833801 -31.589045 11.676267
v -10.801238 -31.917291 12.020365
v -11.079032 -32.227446 11.724499
v -11.079031 -31.560242 11.233480
v -11.079031 -31.172992 11.082103
v -10.930610 -31.267595 11.339293
v -11.079031 -30.349667 10.990471
v -11.079031 -29.938610 11.053000
v -10.983328 -29.845193 11.217990
v -11.079032 -28.130825 13.107094
v -10.887452 -28.398800 13.334223
v -10.740319 -28.705581 12.953252
v -10.983328 -28.381866 12.613903
v -11.079032 -28.121024 13.522764
v -11.079032 -28.183553 13.933822
v -10.930611 -28.435998 14.040441
v -10.717898 -28.728101 13.679427
v -11.079032 -28.316511 14.327776
v -10.833847 -28.757219 14.377176
v -11.079032 -28.515859 14.692658
v -10.801238 -29.085694 14.721513
v -11.079032 -29.087661 15.292075
v -10.833801 -29.413939 15.065611
v -10.801238 -29.085694 14.721513
v -11.079032 -28.775539 15.017379
v -11.079032 -29.442742 15.508398
v -11.079032 -29.829993 15.659775
v -10.930611 -29.735390 15.402585
v -11.079032 -30.237647 15.741607
v -10.887452 -30.439069 15.473025
v -11.079032 -30.653317 15.751407
v -11.079032 -31.064375 15.688878
v -11.079032 -31.458329 15.555920
v -10.983328 -31.157791 15.523888
v -11.079032 -31.823211 15.356572
v -10.900188 -31.555514 15.214362
v -11.079032 -32.147932 15.096892
v -10.872323 -31.936049 14.874776
v -10.580333 -31.584050 12.338254
v -10.615039 -31.234611 11.971940
v -10.469735 -30.871481 14.497295
v -10.393110 -30.913387 14.173800
v -10.359905 -30.507242 14.115465
v -10.563433 -30.490536 14.824408
v -10.456212 -30.134804 14.451497
v -10.717898 -30.109769 15.127821
v -10.651068 -31.223659 14.866481
v -10.615040 -29.768373 14.769938
v -10.740319 -30.834076 15.184539
v -10.563433 -31.953863 13.428495
v -10.469735 -31.609159 13.793601
v -10.651068 -31.961337 14.162787
v -10.456376 -31.598951 13.056443
v -10.346400 -30.783850 13.977805
v -10.333097 -30.727312 13.911179
v -10.323293 -30.658771 13.861301
v -10.316933 -30.577660 13.828014
v -10.314794 -30.489987 13.815388
v -10.316888 -30.404770 13.823720
v -10.323145 -30.322670 13.852650
v -10.333354 -30.249010 13.901168
v -10.393110 -30.052217 14.153495
v -10.453771 -29.914451 14.339820
v -10.528166 -29.778048 14.522125
v -10.528166 -29.598513 14.387418
v -10.580333 -29.418935 14.403624
v -10.360132 -29.756933 13.328921
v -10.346400 -29.894627 13.653297
v -10.323293 -30.011130 13.528218
v -10.316888 -30.048711 13.274217
v -10.323145 -30.019782 13.192117
v -10.333354 -29.971263 13.118457
v -10.346399 -29.908608 13.060294
v -10.393110 -29.718936 12.921663
v -10.469735 -29.393825 12.948277
v -10.456376 -29.404033 13.685435
v -10.393110 -29.698632 13.782834
v -10.563433 -29.049122 13.313383
v -10.615142 -29.068982 14.036770
v -10.453771 -29.532612 12.783898
v -10.528166 -29.350306 12.647495
v -10.469735 -30.131503 12.244583
v -10.393110 -30.089597 12.568078
v -10.359905 -30.495743 12.626413
v -10.563433 -30.512449 11.917470
v -10.651068 -29.779325 11.875397
v -10.456212 -30.868181 12.290381
v -10.717898 -30.893216 11.614057
v -10.740319 -30.168909 11.557338
v -10.887451 -30.563915 11.268853
v -11.079031 -30.765338 11.000271
v -10.900188 -29.447471 11.527516
v -10.621155 -29.401518 12.217843
v -10.528166 -29.485013 12.467960
v -10.528166 -29.647422 12.313033
v -10.528166 -29.833106 12.186937
v -10.872323 -29.066936 11.867102
v -10.900188 -28.709793 12.231210
v -10.651068 -29.041647 12.579091
v -10.346399 -30.219134 12.764073
v -10.333097 -30.275673 12.830699
v -10.323293 -30.344213 12.880577
v -10.316932 -30.425324 12.913864
v -10.323145 -30.680314 12.889228
v -10.333354 -30.753974 12.840710
v -10.393110 -30.950768 12.588383
v -10.453771 -31.088533 12.402058
v -10.528166 -31.224936 12.219753
v -10.360132 -31.246051 13.412957
v -10.393110 -31.304353 12.959044
v -10.346400 -31.108358 13.088581
v -10.453771 -31.496963 12.830213
v -10.615142 -31.934003 12.705107
v -10.528166 -31.685495 12.702553
v -10.580333 -31.584050 12.338254
v -11.079032 -32.638951 14.429688
v -11.079032 -32.790328 14.042438
v -10.900188 -32.293192 14.510668
v -11.079032 -32.422628 14.784770
v -10.621155 -31.601466 14.524035
v -11.079031 -29.544655 11.185958
v -11.079031 -29.179774 11.385306
v -11.079032 -28.855052 11.644986
v -11.079031 -28.580357 11.957108
v -11.079032 -28.364034 12.312189
v -11.079032 -28.212657 12.699440
v -16.389999 -31.150321 14.051102
v -14.390000 -31.364296 14.275411
v -12.390000 -29.638689 12.466467
v -16.389999 -31.150321 14.051102
v -16.389999 -30.952173 14.195855
v -16.389999 -31.304252 13.859997
v -16.389999 -31.403476 13.635563
v -16.389999 -30.723313 14.284391
v -16.389999 -31.441231 13.393096
v -16.389999 -30.479335 14.310678
v -16.389999 -31.414945 13.149118
v -16.389999 -30.236868 14.272922
v -16.389999 -31.326408 12.920258
v -16.389999 -30.012435 14.173698
v -16.389999 -31.181655 12.722110
v -16.389999 -29.821329 14.019767
v -16.389999 -30.990550 12.568180
v -16.389999 -29.676576 13.821620
v -16.389999 -30.766117 12.468956
v -16.389999 -29.588040 13.592759
v -16.389999 -30.523649 12.431200
v -16.389999 -29.561754 13.348782
v -16.389999 -30.279672 12.457486
v -16.389999 -29.599509 13.106315
v -16.389999 -30.050811 12.546023
v -16.389999 -29.698733 12.881881
v -16.389999 -29.852664 12.690776
v -10.597362 -31.082228 14.405894
v -10.597362 -31.536448 12.790203
v -10.597362 -29.920756 12.335984
v -10.597362 -29.466537 13.951675
v -10.830810 -31.428007 12.834987
v -10.453771 -31.496963 12.830213
v -10.597362 -31.536448 12.790203
v -10.575459 -31.548997 12.784490
v -10.556930 -31.563864 12.776953
v -10.541416 -31.581853 12.767117
v -10.529861 -31.601244 12.755978
v -10.522745 -31.622187 12.743392
v -10.519853 -31.643698 12.730006
v -10.521837 -31.664734 12.716417
v -10.528166 -31.685495 12.702553
v -10.528166 -31.224936 12.219753
v -10.453771 -31.088533 12.402058
v -10.521837 -31.210109 12.239837
v -10.519854 -31.195544 12.260209
v -10.522745 -31.181159 12.281065
v -10.529861 -31.167600 12.301391
v -10.541416 -31.155560 12.320236
v -10.556930 -31.144887 12.337741
v -10.575459 -31.136658 12.352237
v -10.597362 -31.130359 12.364503
v -10.830810 -31.080515 12.470712
v -10.393110 -30.950768 12.588383
v -11.040673 -31.035595 12.566349
v -10.346399 -30.812137 12.778055
v -11.230296 -30.994885 12.652936
v -11.467119 -30.892292 12.834527
v -11.402410 -30.957796 12.731723
v -10.346399 -30.812137 12.778055
v -11.467119 -30.892292 12.834527
v -10.830810 -29.965540 12.444424
v -11.230296 -30.042487 12.630481
v -11.467119 -30.136407 12.816705
v -11.402410 -30.075821 12.710928
v -10.453771 -29.960766 12.375468
v -10.597362 -29.920756 12.335984
v -10.575459 -29.915043 12.323434
v -10.556930 -29.907506 12.308567
v -10.541416 -29.897670 12.290578
v -10.529861 -29.886531 12.271187
v -10.522745 -29.873945 12.250244
v -10.519853 -29.860560 12.228733
v -10.521837 -29.846971 12.207697
v -10.528166 -29.833106 12.186937
v -10.528166 -29.350306 12.647495
v -10.453771 -29.532612 12.783898
v -10.521836 -29.370390 12.662322
v -10.519853 -29.390762 12.676888
v -10.522745 -29.411619 12.691272
v -10.529861 -29.431945 12.704831
v -10.541416 -29.450789 12.716872
v -10.556930 -29.468295 12.727544
v -10.575459 -29.482790 12.735774
v -10.597362 -29.495056 12.742072
v -10.830810 -29.601266 12.791917
v -10.393110 -29.718936 12.921663
v -11.040673 -29.696902 12.836836
v -10.346399 -29.908608 13.060294
v -11.230297 -29.783489 12.877547
v -11.467119 -29.965080 12.980139
v -11.402410 -29.862276 12.914635
v -10.346399 -29.908608 13.060294
v -11.467119 -29.965080 12.980139
v -10.346400 -31.108358 13.088581
v -10.830810 -31.037444 14.297454
v -10.453771 -31.042218 14.366410
v -10.597362 -31.082228 14.405894
v -10.575459 -31.087941 14.418444
v -10.556930 -31.095478 14.433311
v -10.541416 -31.105314 14.451300
v -10.529861 -31.116453 14.470691
v -10.522745 -31.129039 14.491634
v -10.519854 -31.142425 14.513145
v -10.521837 -31.156014 14.534181
v -10.528166 -31.169878 14.554941
v -10.830810 -29.574977 13.906891
v -11.230296 -29.761034 13.829944
v -11.467119 -29.947258 13.736024
v -11.402410 -29.841481 13.796610
v -10.453771 -29.506021 13.911665
v -10.597362 -29.466537 13.951675
v -10.575459 -29.453987 13.957388
v -10.556930 -29.439120 13.964925
v -10.541416 -29.421131 13.974761
v -10.529861 -29.401740 13.985900
v -10.522745 -29.380797 13.998486
v -10.519854 -29.359287 14.011871
v -10.521837 -29.338250 14.025461
v -10.528166 -29.317490 14.039325
v -10.528166 -29.778048 14.522125
v -10.453771 -29.914451 14.339820
v -10.521837 -29.792875 14.502041
v -10.519854 -29.807441 14.481669
v -10.522745 -29.821825 14.460813
v -10.529861 -29.835384 14.440487
v -10.541416 -29.847425 14.421642
v -10.556930 -29.858097 14.404137
v -10.575459 -29.866327 14.389641
v -10.597362 -29.872625 14.377375
v -10.830810 -29.922470 14.271166
v -10.393110 -30.052217 14.153495
v -11.040673 -29.967389 14.175529
v -10.346399 -30.190847 13.963823
v -11.230297 -30.008100 14.088942
v -11.467119 -30.110693 13.907351
v -11.402410 -30.045188 14.010155
v -10.346399 -30.190847 13.963823
v -11.467119 -30.110693 13.907351
v -10.346400 -30.783850 13.977805
v -10.528166 -31.652678 14.094383
v -10.453771 -31.470373 13.957979
v -10.521837 -31.632594 14.079556
v -10.519854 -31.612222 14.064990
v -10.522745 -31.591366 14.050606
v -10.529861 -31.571040 14.037047
v -10.541416 -31.552195 14.025006
v -10.556930 -31.534690 14.014334
v -10.575459 -31.520195 14.006104
v -10.597362 -31.507928 13.999806
v -10.830810 -31.401719 13.949961
v -10.393110 -31.284048 13.820214
v -11.040673 -31.306082 13.905042
v -10.346400 -31.094376 13.681584
v -11.230297 -31.219495 13.864331
v -11.467119 -31.037904 13.761739
v -11.402410 -31.140708 13.827243
v -12.390000 -31.896565 15.445492
v -12.390000 -31.122770 14.455611
v -12.390000 -31.525897 15.651420
v -12.390000 -30.845138 14.572774
v -12.390000 -31.125759 15.791742
v -12.390000 -30.707662 15.862423
v -12.390000 -30.547534 14.620091
v -12.390000 -30.283633 15.861428
v -12.390000 -30.247255 14.594811
v -12.390000 -29.865872 15.788786
v -12.390000 -29.961751 14.498405
v -12.390000 -29.466397 15.646588
v -12.390000 -29.096699 15.438923
v -12.390000 -29.707614 14.336474
v -12.390000 -28.767415 15.171765
v -12.390000 -29.499615 14.118430
v -12.390000 -28.488017 14.852802
v -12.390000 -28.266543 14.491208
v -12.390000 -29.349842 13.856944
v -12.390000 -28.109365 14.097385
v -12.390000 -29.266998 13.567214
v -12.390000 -28.021003 13.682665
v -12.390000 -28.004001 13.258976
v -12.390000 -29.255899 13.266077
v -12.390000 -28.058847 12.838509
v -12.390000 -29.317188 12.971034
v -12.390000 -28.183963 12.433358
v -12.390000 -29.447306 12.699232
v -12.390000 -28.375751 12.055180
v -12.390000 -28.628692 11.714854
v -12.390000 -29.638689 12.466467
v -12.390000 -28.935511 11.422170
v -12.390000 -29.880214 12.286267
v -12.390000 -29.287379 11.185549
v -12.390000 -29.674176 11.011798
v -12.390000 -30.157847 12.169104
v -12.390000 -30.084773 10.905915
v -12.390000 -30.455450 12.121787
v -12.390000 -30.507358 10.870946
v -12.390000 -30.755730 12.147067
v -12.390000 -30.929775 10.907897
v -12.390000 -31.339870 11.015706
v -12.390000 -31.041234 12.243473
v -12.390000 -31.725847 11.191270
v -12.390000 -31.295370 12.405404
v -12.390000 -32.076602 11.429540
v -12.390000 -32.382043 11.723660
v -12.390000 -31.503369 12.623448
v -12.390000 -32.633384 12.065169
v -12.390000 -31.653143 12.884934
v -12.390000 -32.823395 12.444243
v -12.390000 -32.946609 12.849976
v -12.390000 -31.735986 13.174664
v -12.390000 -32.999482 13.270696
v -12.390000 -31.747086 13.475801
v -12.390000 -32.980491 13.694300
v -12.390000 -31.685796 13.770844
v -12.390000 -32.890185 14.108602
v -12.390000 -32.731160 14.501683
v -12.390000 -31.555679 14.042646
v -11.402410 -30.045188 14.010155
v -11.467119 -30.110693 13.907351
v -11.402410 -29.968473 13.947742
v -11.606178 -30.321882 13.730770
v -11.820000 -30.501492 13.370939
v -11.626543 -30.376484 13.712630
v -11.640440 -30.433879 13.701765
v -11.640440 -30.553439 13.704584
v -11.820000 -30.501492 13.370939
v -11.645562 -30.493759 13.698918
v -11.626543 -30.610258 13.718142
v -11.820000 -30.501492 13.370939
v -11.606178 -30.663944 13.738835
v -11.820000 -30.501492 13.370939
v -11.581425 -30.714098 13.766090
v -11.525203 -30.801242 13.837639
v -11.402410 -31.006735 13.972221
v -11.402410 -31.078295 13.903958
v -11.820000 -30.501492 13.370939
v -11.467119 -30.866577 13.925173
v -11.402410 -30.927163 14.030950
v -11.467119 -31.037904 13.761739
v -11.525202 -30.953547 13.692351
v -11.820000 -30.501492 13.370939
v -11.402410 -31.140708 13.827243
v -11.581425 -30.886185 13.601932
v -11.606178 -30.861324 13.550549
v -11.820000 -30.501492 13.370939
v -11.626543 -30.843183 13.495947
v -11.640440 -30.832318 13.438552
v -11.640440 -30.835137 13.318992
v -11.820000 -30.501492 13.370939
v -11.645562 -30.829471 13.378672
v -11.626543 -30.848695 13.262173
v -11.820000 -30.501492 13.370939
v -11.606178 -30.869389 13.208487
v -11.820000 -30.501492 13.370939
v -11.581425 -30.896644 13.158333
v -11.525202 -30.968193 13.071189
v -11.402410 -31.102775 12.865696
v -11.402410 -31.034511 12.794136
v -11.820000 -30.501492 13.370939
v -11.467119 -31.055726 13.005854
v -11.402410 -31.161503 12.945268
v -11.467119 -30.892292 12.834527
v -11.525202 -30.822904 12.918884
v -11.820000 -30.501492 13.370939
v -11.402410 -30.957796 12.731723
v -11.581425 -30.732485 12.986246
v -11.606178 -30.681102 13.011107
v -11.820000 -30.501492 13.370939
v -11.626543 -30.626500 13.029248
v -11.640440 -30.569105 13.040113
v -11.640440 -30.449546 13.037294
v -11.820000 -30.501492 13.370939
v -11.645562 -30.509225 13.042960
v -11.626543 -30.392727 13.023736
v -11.820000 -30.501492 13.370939
v -11.606178 -30.339041 13.003042
v -11.820000 -30.501492 13.370939
v -11.581425 -30.288886 12.975787
v -11.525203 -30.201742 12.904239
v -11.402410 -29.996250 12.769657
v -11.820000 -30.501492 13.370939
v -11.467119 -30.136407 12.816705
v -11.402410 -30.075821 12.710928
v -11.402410 -29.996250 12.769657
v -11.402410 -29.924690 12.837920
v -11.820000 -30.501492 13.370939
v -11.467119 -29.965080 12.980139
v -11.525202 -30.049437 13.049527
v -11.820000 -30.501492 13.370939
v -11.402410 -29.862276 12.914635
v -11.581425 -30.116800 13.139946
v -11.606178 -30.141661 13.191329
v -11.820000 -30.501492 13.370939
v -11.626543 -30.159801 13.245931
v -11.640440 -30.170666 13.303326
v -11.640440 -30.167847 13.422886
v -11.820000 -30.501492 13.370939
v -11.645562 -30.173513 13.363206
v -11.626543 -30.154289 13.479705
v -11.820000 -30.501492 13.370939
v -11.606178 -30.133596 13.533391
v -11.820000 -30.501492 13.370939
v -11.581425 -30.106341 13.583545
v -11.525203 -30.034792 13.670689
v -11.402410 -29.900210 13.876182
v -11.820000 -30.501492 13.370939
v -11.467119 -29.947258 13.736024
v -11.402410 -29.841481 13.796610
v -10.453771 -31.042218 14.366410
v -10.528166 -31.169878 14.554941
v -10.528166 -31.355562 14.428845
v -10.528166 -31.517971 14.273918
v -10.528166 -31.652678 14.094383
v -10.453771 -31.470373 13.957979
v -10.393110 -31.284048 13.820214
v -10.346400 -31.094376 13.681584
v -10.333354 -31.031721 13.623421
v -10.323145 -30.983203 13.549761
v -10.316888 -30.954273 13.467661
v -10.314794 -30.945941 13.382444
v -10.316933 -30.958568 13.294771
v -10.323293 -30.991855 13.213660
v -10.333097 -31.041732 13.145119
v -11.079032 -28.775539 15.017379
v -10.346399 -30.190847 13.963823
v -10.580333 -29.418935 14.403624
v -10.528166 -29.598513 14.387418
v -10.528166 -29.443586 14.225009
v -10.528166 -29.317490 14.039325
v -10.453771 -29.506021 13.911665
v -10.333097 -29.961252 13.596759
v -10.316933 -30.044417 13.447107
v -10.314794 -30.057043 13.359434
v -10.453771 -29.960766 12.375468
v -11.079032 -32.227446 11.724499
v -10.314794 -30.512997 12.926490
v -10.316888 -30.598214 12.918158
v -10.346399 -30.812137 12.778055
v -10.528166 -31.404472 12.354460
v -10.528166 -31.404472 12.354460
v -10.528166 -31.559398 12.516869
v -12.390000 -31.896565 15.445492
v -12.390000 -32.227100 15.179883
v -11.079032 -32.147932 15.096892
v -12.390000 -32.507991 14.862233
v -11.079032 -32.422628 14.784770
v -12.390000 -32.731160 14.501683
v -11.079032 -32.638951 14.429688
v -12.390000 -32.890185 14.108602
v -11.079032 -32.790328 14.042438
v -12.390000 -32.980491 13.694300
v -11.079032 -32.872160 13.634784
v -12.390000 -32.999482 13.270696
v -11.079032 -32.881960 13.219114
v -12.390000 -32.946609 12.849976
v -11.079032 -32.819432 12.808056
v -12.390000 -32.823395 12.444243
v -11.079031 -32.686473 12.414102
v -12.390000 -32.633384 12.065169
v -11.079031 -32.487126 12.049220
v -12.390000 -32.382043 11.723660
v -11.079032 -32.227446 11.724499
v -12.390000 -32.076602 11.429540
v -11.079031 -31.915323 11.449803
v -12.390000 -31.725847 11.191270
v -11.079031 -31.560242 11.233480
v -12.390000 -31.339870 11.015706
v -11.079031 -31.172992 11.082103
v -12.390000 -30.929775 10.907897
v -11.079031 -30.765338 11.000271
v -12.390000 -30.507358 10.870946
v -11.079031 -30.349667 10.990471
v -12.390000 -30.084773 10.905915
v -11.079031 -29.938610 11.053000
v -12.390000 -29.674176 11.011798
v -11.079031 -29.544655 11.185958
v -12.390000 -29.287379 11.185549
v -11.079031 -29.179774 11.385306
v -12.390000 -28.935511 11.422170
v -11.079032 -28.855052 11.644986
v -11.079032 -28.855052 11.644986
v -12.390000 -28.935511 11.422170
v -12.390000 -28.628692 11.714854
v -11.079031 -28.580357 11.957108
v -12.390000 -28.375751 12.055180
v -11.079032 -28.364034 12.312189
v -12.390000 -28.183963 12.433358
v -11.079032 -28.212657 12.699440
v -12.390000 -28.058847 12.838509
v -11.079032 -28.130825 13.107094
v -12.390000 -28.004001 13.258976
v -11.079032 -28.121024 13.522764
v -12.390000 -28.021003 13.682665
v -11.079032 -28.183553 13.933822
v -12.390000 -28.109365 14.097385
v -11.079032 -28.316511 14.327776
v -12.390000 -28.266543 14.491208
v -11.079032 -28.515859 14.692658
v -12.390000 -28.488017 14.852802
v -11.079032 -28.775539 15.017379
v -12.390000 -28.767415 15.171765
v -11.079032 -29.087661 15.292075
v -12.390000 -29.096699 15.438923
v -11.079032 -29.442742 15.508398
v -12.390000 -29.466397 15.646588
v -11.079032 -29.829993 15.659775
v -12.390000 -29.865872 15.788786
v -11.079032 -30.237647 15.741607
v -12.390000 -30.283633 15.861428
v -11.079032 -30.653317 15.751407
v -12.390000 -30.707662 15.862423
v -11.079032 -31.064375 15.688878
v -12.390000 -31.125759 15.791742
v -11.079032 -31.458329 15.555920
v -12.390000 -31.525897 15.651420
v -11.079032 -31.823211 15.356572
f 1 2 3
f 1 4 5
f 1 3 4
f 4 6 5
f 5 6 7
f 6 8 7
f 7 8 9
f 8 10 9
f 9 10 11
f 10 12 11
f 11 12 13
f 12 14 13
f 13 14 15
f 14 16 15
f 15 16 17
f 16 18 17
f 17 18 19
f 18 20 19
f 19 20 21
f 20 22 21
f 21 22 23
f 22 24 23
f 23 24 25
f 24 26 25
f 25 26 28
f 26 27 28
f 26 29 27
f 27 29 30
f 29 31 30
f 30 31 32
f 31 33 32
f 32 33 34
f 33 35 34
f 34 35 36
f 35 37 36
f 36 37 38
f 37 39 38
f 38 39 40
f 39 41 40
f 40 41 42
f 41 43 42
f 42 43 44
f 43 45 44
f 44 45 46
f 45 47 46
f 46 47 48
f 47 49 48
f 48 49 50
f 49 527 50
f 50 527 528
f 51 52 53
f 51 53 54
f 51 55 52
f 52 55 56
f 53 103 54
f 54 103 102
f 55 57 56
f 56 57 58
f 57 59 58
f 58 59 60
f 59 61 60
f 60 61 62
f 61 63 62
f 62 63 64
f 63 65 64
f 64 65 66
f 65 67 66
f 66 67 68
f 67 69 68
f 68 69 70
f 69 71 70
f 70 71 72
f 71 73 72
f 72 73 74
f 73 75 74
f 74 75 76
f 75 77 76
f 76 77 78
f 77 529 78
f 79 80 81
f 79 82 80
f 80 82 83
f 82 84 83
f 83 84 85
f 84 86 85
f 85 86 87
f 86 88 87
f 87 88 89
f 88 90 89
f 89 90 91
f 90 92 91
f 91 92 93
f 92 94 93
f 93 94 95
f 94 96 95
f 95 96 97
f 96 98 97
f 97 98 99
f 98 100 99
f 99 100 101
f 100 102 101
f 101 102 103
f 104 105 106
f 105 107 109
f 105 109 106
f 106 109 135
f 107 108 109
f 107 110 108
f 108 110 111
f 108 111 130
f 108 130 132
f 108 132 109
f 109 132 135
f 110 112 111
f 111 112 113
f 111 113 128
f 111 128 130
f 112 114 113
f 113 115 116
f 113 114 115
f 113 116 125
f 113 125 128
f 115 117 116
f 116 119 120
f 116 117 119
f 116 120 125
f 117 118 119
f 119 121 120
f 120 121 122
f 120 122 123
f 120 124 125
f 120 123 124
f 124 126 125
f 125 127 128
f 125 126 127
f 127 129 128
f 128 129 130
f 129 131 130
f 130 131 132
f 131 133 132
f 132 133 135
f 133 134 135
f 136 137 138
f 136 139 140
f 136 140 137
f 137 140 141
f 140 142 141
f 141 143 144
f 141 142 143
f 143 145 144
f 144 145 146
f 144 146 147
f 144 147 148
f 144 148 554
f 149 150 151
f 150 152 154
f 150 154 151
f 151 154 180
f 152 153 154
f 152 155 153
f 153 155 156
f 153 156 175
f 153 175 177
f 153 177 154
f 154 177 180
f 155 157 156
f 156 157 158
f 156 158 173
f 156 173 175
f 157 159 158
f 158 160 161
f 158 159 160
f 158 161 170
f 158 170 173
f 160 162 161
f 161 164 165
f 161 162 164
f 161 165 170
f 162 163 164
f 164 166 165
f 165 166 167
f 165 167 168
f 165 169 170
f 165 168 169
f 169 171 170
f 170 172 173
f 170 171 172
f 172 174 173
f 173 174 175
f 174 176 175
f 175 176 177
f 176 178 177
f 177 178 180
f 178 179 180
f 181 182 183
f 181 184 185
f 181 185 182
f 182 185 186
f 185 187 186
f 186 188 189
f 186 187 188
f 188 190 189
f 189 190 191
f 189 191 192
f 189 192 193
f 189 193 555
f 194 195 196
f 195 197 199
f 195 199 196
f 196 199 225
f 197 198 199
f 197 200 198
f 198 200 201
f 198 201 220
f 198 220 222
f 198 222 199
f 199 222 225
f 200 202 201
f 201 202 203
f 201 203 218
f 201 218 220
f 202 204 203
f 203 205 206
f 203 204 205
f 203 206 215
f 203 215 218
f 205 207 206
f 206 209 210
f 206 207 209
f 206 210 215
f 207 208 209
f 209 211 210
f 210 211 212
f 210 212 213
f 210 214 215
f 210 213 214
f 214 216 215
f 215 217 218
f 215 216 217
f 217 219 218
f 218 219 220
f 219 221 220
f 220 221 222
f 221 223 222
f 222 223 225
f 223 224 225
f 226 227 228
f 226 229 230
f 226 230 227
f 227 230 231
f 230 232 231
f 231 233 234
f 231 232 233
f 233 235 234
f 234 235 236
f 234 236 237
f 234 237 238
f 234 238 556
f 239 240 241
f 240 242 244
f 240 244 241
f 241 244 270
f 242 243 244
f 242 245 243
f 243 245 246
f 243 246 265
f 243 265 267
f 243 267 244
f 244 267 270
f 245 247 246
f 246 247 248
f 246 248 263
f 246 263 265
f 247 249 248
f 248 250 251
f 248 249 250
f 248 251 260
f 248 260 263
f 250 252 251
f 251 254 255
f 251 252 254
f 251 255 260
f 252 253 254
f 254 256 255
f 255 256 257
f 255 257 258
f 255 259 260
f 255 258 259
f 259 261 260
f 260 262 263
f 260 261 262
f 262 264 263
f 263 264 265
f 264 266 265
f 265 266 267
f 266 268 267
f 267 268 270
f 268 269 270
f 271 272 273
f 271 274 275
f 271 275 272
f 272 275 276
f 275 277 276
f 276 278 279
f 276 277 278
f 278 280 279
f 279 280 281
f 279 281 282
f 279 282 283
f 279 283 557
f 284 285 286
f 284 286 287
f 284 288 285
f 285 288 558
f 286 289 287
f 288 559 558
f 290 291 292
f 290 293 291
f 291 294 295
f 291 293 294
f 294 296 295
f 295 296 297
f 296 298 297
f 297 299 300
f 297 298 299
f 299 301 300
f 300 302 303
f 300 301 302
f 302 304 303
f 303 305 306
f 303 304 305
f 305 307 306
f 306 308 309
f 306 307 308
f 308 587 309
f 309 587 586
f 310 311 312
f 310 588 311
f 310 592 588
f 311 589 312
f 312 589 590
f 313 314 315
f 313 316 314
f 314 317 318
f 314 316 317
f 317 319 318
f 318 319 320
f 319 321 320
f 320 322 323
f 320 321 322
f 322 324 323
f 323 325 326
f 323 324 325
f 325 327 326
f 326 328 329
f 326 327 328
f 328 330 329
f 329 331 332
f 329 330 331
f 331 620 332
f 332 620 619
f 333 334 335
f 334 351 353
f 334 353 335
f 336 337 338
f 336 339 337
f 337 339 340
f 337 621 338
f 339 341 340
f 340 341 342
f 341 343 342
f 342 344 345
f 342 343 344
f 344 346 345
f 345 347 348
f 345 346 347
f 347 349 348
f 348 350 351
f 348 349 350
f 350 352 351
f 351 352 353
f 354 355 356
f 354 356 357
f 354 358 355
f 355 358 622
f 356 359 357
f 358 623 622
f 360 361 362
f 360 633 361
f 360 637 633
f 361 634 362
f 362 634 635
f 363 364 365
f 363 366 364
f 364 366 367
f 364 666 365
f 366 368 367
f 367 368 369
f 368 370 369
f 369 371 372
f 369 370 371
f 371 373 372
f 372 374 375
f 372 373 374
f 374 376 375
f 375 377 378
f 375 376 377
f 377 379 378
f 378 380 381
f 378 379 380
f 380 665 381
f 381 665 664
f 382 383 384
f 382 743 742
f 382 384 743
f 383 684 384
f 384 684 685
f 385 386 387
f 385 746 386
f 386 746 745
f 387 747 748
f 388 389 390
f 388 390 391
f 388 392 389
f 388 391 517
f 389 392 393
f 389 393 395
f 389 395 450
f 389 450 390
f 390 450 451
f 390 451 452
f 390 452 391
f 391 516 517
f 391 452 518
f 391 518 516
f 393 394 395
f 393 396 394
f 394 396 397
f 394 513 395
f 394 397 513
f 395 453 450
f 395 513 453
f 396 398 397
f 397 398 399
f 397 399 515
f 397 515 513
f 398 861 399
f 400 401 402
f 400 402 403
f 400 404 401
f 401 439 402
f 401 440 439
f 401 406 440
f 401 404 406
f 404 405 406
f 405 491 406
f 406 488 440
f 406 490 488
f 406 491 490
f 407 408 409
f 407 490 491
f 407 489 490
f 407 409 489
f 408 521 409
f 409 492 489
f 409 521 492
f 410 411 412
f 410 412 413
f 410 414 411
f 410 413 526
f 411 414 415
f 411 415 417
f 411 417 478
f 411 478 412
f 412 478 475
f 412 475 499
f 412 499 413
f 413 498 525
f 413 525 526
f 413 499 498
f 415 416 417
f 415 418 416
f 416 418 419
f 416 479 417
f 416 419 479
f 417 479 476
f 417 476 478
f 418 420 419
f 419 420 421
f 419 852 479
f 419 421 852
f 420 850 421
f 422 423 424
f 422 424 425
f 422 426 423
f 423 428 448
f 423 426 428
f 423 448 466
f 423 466 424
f 426 427 428
f 427 429 428
f 428 429 430
f 428 446 448
f 428 430 446
f 429 431 430
f 430 431 432
f 430 449 446
f 430 434 449
f 430 432 434
f 432 433 434
f 433 435 436
f 433 436 434
f 434 436 449
f 435 437 438
f 435 438 436
f 436 438 447
f 436 447 449
f 437 519 438
f 438 518 520
f 438 519 518
f 438 520 447
f 439 440 508
f 439 508 865
f 440 488 487
f 440 487 508
f 441 442 443
f 441 443 444
f 441 444 447
f 441 836 835
f 441 835 442
f 441 447 836
f 442 454 443
f 443 445 444
f 443 454 455
f 443 455 456
f 443 457 458
f 443 458 459
f 443 460 461
f 443 461 462
f 443 462 445
f 443 456 457
f 443 459 460
f 444 445 446
f 444 446 449
f 444 449 447
f 445 448 446
f 445 462 463
f 445 463 464
f 445 464 448
f 447 837 836
f 447 520 837
f 448 464 465
f 448 465 466
f 450 509 451
f 450 453 509
f 451 839 452
f 451 840 839
f 451 841 840
f 451 509 841
f 452 520 518
f 452 838 520
f 452 839 838
f 453 512 510
f 453 510 509
f 453 513 514
f 453 514 512
f 461 851 462
f 467 468 469
f 467 469 470
f 467 471 472
f 467 472 473
f 467 474 475
f 467 476 477
f 467 478 476
f 467 475 478
f 467 477 468
f 467 470 471
f 467 473 474
f 468 857 469
f 469 858 470
f 470 858 859
f 474 480 475
f 475 480 481
f 475 481 499
f 476 479 855
f 476 855 856
f 476 856 477
f 479 852 855
f 481 494 499
f 482 483 484
f 482 484 485
f 482 485 486
f 482 486 496
f 482 496 860
f 482 860 483
f 483 500 484
f 484 487 485
f 484 500 501
f 484 501 502
f 484 503 504
f 484 504 505
f 484 506 487
f 484 502 503
f 484 505 506
f 485 487 488
f 485 488 489
f 485 489 486
f 486 489 492
f 486 497 493
f 486 492 497
f 486 493 496
f 487 506 507
f 487 507 508
f 488 490 489
f 492 521 522
f 492 522 497
f 493 494 495
f 493 495 496
f 493 497 498
f 493 499 494
f 493 498 499
f 497 522 523
f 497 523 524
f 497 524 498
f 498 524 525
f 503 862 504
f 504 862 863
f 505 864 506
f 509 510 511
f 509 842 841
f 509 843 842
f 509 844 843
f 509 845 844
f 509 846 845
f 509 847 846
f 509 848 847
f 509 511 848
f 511 849 848
f 513 867 514
f 513 515 867
f 515 866 867
f 516 518 519
f 520 838 837
f 530 531 532
f 531 533 532
f 531 534 533
f 533 534 535
f 534 536 535
f 535 536 537
f 536 538 537
f 537 538 539
f 538 540 539
f 539 540 541
f 540 542 541
f 541 542 543
f 542 544 543
f 543 544 545
f 544 546 545
f 545 546 547
f 546 548 547
f 547 548 549
f 548 550 549
f 549 550 551
f 550 552 551
f 551 552 553
f 558 559 560
f 559 561 560
f 559 562 561
f 559 563 562
f 559 564 563
f 559 565 564
f 559 566 565
f 559 567 566
f 559 568 567
f 569 570 571
f 570 572 571
f 570 573 572
f 570 574 573
f 570 575 574
f 570 576 575
f 570 577 576
f 570 578 577
f 570 579 578
f 570 580 579
f 579 580 581
f 580 582 581
f 581 582 583
f 582 584 583
f 583 584 585
f 588 592 593
f 589 591 590
f 592 594 593
f 592 595 594
f 592 596 595
f 592 597 596
f 592 598 597
f 592 599 598
f 592 600 599
f 592 601 600
f 602 603 604
f 603 605 604
f 603 606 605
f 603 607 606
f 603 608 607
f 603 609 608
f 603 610 609
f 603 611 610
f 603 612 611
f 603 613 612
f 612 613 614
f 613 615 614
f 614 615 616
f 615 617 616
f 616 617 618
f 622 623 624
f 623 625 624
f 623 626 625
f 623 627 626
f 623 628 627
f 623 629 628
f 623 630 629
f 623 631 630
f 623 632 631
f 633 637 638
f 634 636 635
f 637 639 638
f 637 640 639
f 637 641 640
f 637 642 641
f 637 643 642
f 637 644 643
f 637 645 644
f 637 646 645
f 647 648 649
f 648 650 649
f 648 651 650
f 648 652 651
f 648 653 652
f 648 654 653
f 648 655 654
f 648 656 655
f 648 657 656
f 648 658 657
f 657 658 659
f 658 660 659
f 659 660 661
f 660 662 661
f 661 662 663
f 667 668 669
f 668 670 669
f 668 671 670
f 668 672 671
f 668 673 672
f 668 674 673
f 668 675 674
f 668 676 675
f 668 677 676
f 668 678 677
f 677 678 679
f 678 680 679
f 679 680 681
f 680 682 681
f 681 682 683
f 684 686 685
f 685 686 687
f 686 688 687
f 687 688 689
f 687 689 690
f 689 691 690
f 690 691 692
f 691 693 692
f 692 693 694
f 693 695 694
f 694 695 696
f 694 696 697
f 696 698 697
f 697 698 699
f 698 700 699
f 699 700 701
f 699 701 702
f 701 703 702
f 702 703 704
f 703 705 704
f 704 705 706
f 704 706 707
f 706 708 707
f 707 708 709
f 708 710 709
f 709 710 711
f 710 712 711
f 711 712 713
f 711 713 714
f 713 715 714
f 714 715 716
f 715 717 716
f 716 717 718
f 716 718 719
f 718 720 719
f 719 720 721
f 720 722 721
f 721 722 723
f 722 724 723
f 723 724 725
f 723 725 726
f 725 727 726
f 726 727 728
f 727 729 728
f 728 729 730
f 728 730 731
f 730 732 731
f 731 732 733
f 732 734 733
f 733 734 735
f 733 735 736
f 735 737 736
f 736 737 738
f 737 739 738
f 738 739 740
f 739 741 740
f 740 741 742
f 740 742 743
f 744 745 746
f 746 830 831
f 746 832 830
f 747 749 748
f 748 749 750
f 750 753 755
f 751 752 753
f 751 754 752
f 754 756 757
f 756 758 757
f 757 758 759
f 759 760 761
f 759 761 762
f 759 763 760
f 760 763 764
f 761 765 766
f 761 766 767
f 761 768 765
f 766 769 767
f 769 770 771
f 770 772 771
f 771 772 773
f 773 776 778
f 774 775 776
f 774 777 775
f 777 779 780
f 779 781 780
f 780 781 782
f 782 783 784
f 782 784 785
f 782 786 783
f 783 786 787
f 784 788 789
f 784 789 790
f 784 791 788
f 789 792 790
f 792 793 794
f 793 795 794
f 794 795 796
f 796 799 801
f 797 798 799
f 797 800 798
f 800 802 803
f 802 804 803
f 803 804 805
f 805 806 807
f 805 808 806
f 806 808 809
f 810 811 812
f 811 813 814
f 811 814 815
f 811 816 813
f 814 817 815
f 817 818 819
f 818 820 819
f 819 820 821
f 821 824 826
f 822 823 824
f 822 825 823
f 825 827 828
f 827 829 828
f 828 829 830
f 830 833 831
f 831 833 834
f 852 853 854
f 852 854 855
f 868 869 870
f 868 942 941
f 868 870 942
f 869 871 870
f 870 871 872
f 871 873 872
f 872 873 874
f 873 875 874
f 874 875 876
f 875 877 876
f 876 877 878
f 877 879 878
f 878 879 880
f 879 881 880
f 880 881 882
f 881 883 882
f 882 883 884
f 883 885 884
f 884 885 886
f 885 887 886
f 886 887 888
f 887 889 888
f 888 889 890
f 889 891 890
f 890 891 892
f 891 893 892
f 892 893 894
f 893 895 894
f 894 895 896
f 895 897 896
f 896 897 898
f 897 899 898
f 898 899 900
f 899 901 900
f 900 901 902
f 901 903 902
f 902 903 904
f 903 905 904
f 904 905 906
f 907 908 909
f 907 909 910
f 909 911 910
f 910 911 912
f 911 913 912
f 912 913 914
f 913 915 914
f 914 915 916
f 915 917 916
f 916 917 918
f 917 919 918
f 918 919 920
f 919 921 920
f 920 921 922
f 921 923 922
f 922 923 924
f 923 925 924
f 924 925 926
f 925 927 926
f 926 927 928
f 927 929 928
f 928 929 930
f 929 931 930
f 930 931 932
f 931 933 932
f 932 933 934
f 933 935 934
f 934 935 936
f 935 937 936
f 936 937 938
f 937 939 938
f 938 939 940
f 939 941 940
f 940 941 942