# ANSI B18.6.5M - M2.5x0.45 x 8(38)
# Autodesk dbId: 133
# Units: mm
o 133_ANSI_B18.6.5M_-_M2.5x0.45_x_8(38)
v -12.590000 -24.640149 24.328267
v -12.590000 -24.892188 24.142112
v -10.590000 -24.678213 23.917803
v -10.590000 -24.480066 24.062556
v -12.590000 -24.349733 24.445894
v -10.590000 -24.251205 24.151092
v -12.590000 -24.039188 24.487601
v -10.590000 -24.007228 24.177379
v -12.590000 -23.728027 24.450770
v -10.590000 -23.764760 24.139623
v -12.590000 -23.435802 24.337712
v -10.590000 -23.540327 24.040399
v -12.590000 -23.180873 24.155533
v -10.590000 -23.349222 23.886468
v -12.590000 -22.979260 23.915680
v -10.590000 -23.204468 23.688321
v -12.590000 -22.843630 23.633223
v -10.590000 -23.115932 23.459460
v -12.590000 -22.782505 23.325910
v -10.590000 -23.089646 23.215483
v -12.590000 -22.799726 23.013050
v -10.590000 -23.127401 22.973016
v -12.590000 -22.894211 22.714302
v -10.590000 -23.226625 22.748582
v -12.590000 -23.060024 22.448438
v -10.590000 -23.380556 22.557477
v -12.590000 -23.286745 22.232162
v -10.590000 -23.578703 22.412724
v -12.590000 -23.560128 22.079064
v -10.590000 -23.807564 22.324187
v -12.590000 -23.862997 21.998763
v -10.590000 -24.051541 22.297901
v -12.590000 -24.176320 21.996306
v -10.590000 -24.294009 22.335657
v -12.590000 -24.480411 22.071846
v -10.590000 -24.518442 22.434881
v -12.590000 -24.756162 22.220638
v -10.590000 -24.709547 22.588812
v -12.590000 -24.986248 22.433331
v -10.590000 -24.854301 22.786959
v -12.590000 -25.156210 22.696562
v -10.590000 -24.942837 23.015819
v -12.590000 -25.255369 22.993791
v -10.590000 -24.969123 23.259797
v -12.590000 -25.277495 23.306342
v -10.590000 -24.931368 23.502264
v -12.590000 -25.221198 23.614576
v -10.590000 -24.832144 23.726698
v -12.590000 -25.090015 23.899126
v -15.590000 -24.892188 24.142112
v -12.590000 -24.892188 24.142112
v -12.590000 -24.640149 24.328267
v -15.590000 -24.640149 24.328267
v -15.590000 -25.090015 23.899126
v -12.590000 -25.090015 23.899126
v -15.590000 -25.221198 23.614576
v -12.590000 -25.221198 23.614576
v -15.590000 -25.277495 23.306342
v -12.590000 -25.277495 23.306342
v -15.590000 -25.255369 22.993791
v -12.590000 -25.255369 22.993791
v -15.590000 -25.156210 22.696562
v -12.590000 -25.156210 22.696562
v -15.590000 -24.986248 22.433331
v -12.590000 -24.986248 22.433331
v -15.590000 -24.756162 22.220638
v -12.590000 -24.756162 22.220638
v -15.590000 -24.480411 22.071846
v -12.590000 -24.480411 22.071846
v -15.590000 -24.176320 21.996306
v -12.590000 -24.176320 21.996306
v -15.590000 -23.862997 21.998763
v -12.590000 -23.862997 21.998763
v -15.590000 -23.560128 22.079064
v -12.590000 -23.560128 22.079064
v -15.590000 -23.286745 22.232162
v -12.590000 -23.286745 22.232162
v -15.590000 -22.894211 22.714302
v -12.590000 -22.894211 22.714302
v -12.590000 -23.060024 22.448438
v -15.590000 -23.060024 22.448438
v -15.590000 -22.799726 23.013050
v -12.590000 -22.799726 23.013050
v -15.590000 -22.782505 23.325910
v -12.590000 -22.782505 23.325910
v -15.590000 -22.843630 23.633223
v -12.590000 -22.843630 23.633223
v -15.590000 -22.979260 23.915680
v -12.590000 -22.979260 23.915680
v -15.590000 -23.180873 24.155533
v -12.590000 -23.180873 24.155533
v -15.590000 -23.435802 24.337712
v -12.590000 -23.435802 24.337712
v -15.590000 -23.728027 24.450770
v -12.590000 -23.728027 24.450770
v -15.590000 -24.039188 24.487601
v -12.590000 -24.039188 24.487601
v -15.590000 -24.349733 24.445894
v -12.590000 -24.349733 24.445894
v -17.451835 -24.697771 24.421642
v -17.458164 -24.683906 24.400882
v -17.451835 -24.883455 24.295546
v -17.460147 -24.670317 24.379846
v -17.458836 -24.841158 24.243744
v -17.459410 -24.862571 24.269980
v -17.457256 -24.656932 24.358335
v -17.450146 -24.820462 24.218380
v -17.450140 -24.644346 24.337392
v -17.433849 -24.801684 24.195381
v -17.438585 -24.633207 24.318001
v -17.423071 -24.623371 24.300012
v -17.410898 -24.785915 24.176100
v -17.404542 -24.615834 24.285145
v -17.382638 -24.610121 24.272595
v -17.382638 -24.774066 24.161673
v -17.410898 -24.931147 24.037558
v -17.382638 -24.917294 24.025043
v -17.382638 -25.035821 23.866507
v -17.404542 -25.048087 23.872805
v -17.423071 -25.062582 23.881035
v -17.433849 -24.949664 24.054219
v -17.438585 -25.080087 23.891707
v -17.450140 -25.098932 23.903748
v -17.450146 -24.971752 24.074059
v -17.457256 -25.119258 23.917307
v -17.458836 -24.996112 24.095928
v -17.460147 -25.140115 23.931691
v -17.459410 -25.021310 24.118553
v -17.458164 -25.160487 23.946257
v -17.451835 -25.180571 23.961084
v -17.451835 -25.045864 24.140619
v -16.939328 -24.524974 24.066508
v -17.382638 -24.610121 24.272595
v -17.149191 -24.565337 24.164155
v -16.577590 -24.455056 23.897651
v -17.382638 -24.774066 24.161673
v -16.577591 -24.534627 23.838922
v -16.577591 -24.606187 23.770659
v -17.382638 -24.917294 24.025043
v -16.577590 -24.668601 23.693944
v -16.939328 -24.833975 23.771743
v -17.149191 -24.929611 23.816662
v -17.451835 -22.845382 23.906026
v -17.458164 -22.866143 23.892161
v -17.451835 -22.971478 24.091710
v -17.460147 -22.887179 23.878572
v -17.458836 -23.023281 24.049413
v -17.459410 -22.997045 24.070826
v -17.457256 -22.908690 23.865187
v -17.450146 -23.048644 24.028717
v -17.450139 -22.929632 23.852601
v -17.433849 -23.071644 24.009939
v -17.438585 -22.949024 23.841462
v -17.423071 -22.967012 23.831626
v -17.410898 -23.090925 23.994170
v -17.404542 -22.981879 23.824089
v -17.382638 -22.994429 23.818376
v -17.382639 -23.105352 23.982322
v -17.410898 -23.229467 24.139402
v -17.382638 -23.241982 24.125550
v -17.382638 -23.400517 24.244076
v -17.404541 -23.394219 24.256342
v -17.423071 -23.385990 24.270838
v -17.433849 -23.212806 24.157919
v -17.438585 -23.375317 24.288343
v -17.450140 -23.363277 24.307188
v -17.450146 -23.192965 24.180008
v -17.457256 -23.349718 24.327514
v -17.458836 -23.171096 24.204368
v -17.460147 -23.335333 24.348370
v -17.459410 -23.148471 24.229566
v -17.458164 -23.320768 24.368742
v -17.451835 -23.305941 24.388826
v -17.451835 -23.126405 24.254119
v -16.939328 -23.200517 23.733230
v -17.382638 -22.994429 23.818376
v -17.149191 -23.102869 23.773592
v -16.577591 -23.369374 23.663311
v -17.382639 -23.105352 23.982322
v -16.577590 -23.428102 23.742883
v -16.577590 -23.496365 23.814442
v -17.382638 -23.241982 24.125550
v -16.577590 -23.573081 23.876856
v -16.939328 -23.495282 24.042230
v -17.149191 -23.450362 24.137867
v -17.451835 -23.360999 22.053638
v -17.458164 -23.374863 22.074398
v -17.451835 -23.175314 22.179734
v -17.460147 -23.388452 22.095434
v -17.458835 -23.217611 22.231536
v -17.459410 -23.196198 22.205300
v -17.457256 -23.401838 22.116945
v -17.450146 -23.238307 22.256900
v -17.450139 -23.414424 22.137888
v -17.433849 -23.257085 22.279899
v -17.438585 -23.425562 22.157279
v -17.423071 -23.435398 22.175268
v -17.410898 -23.272855 22.299180
v -17.404542 -23.442935 22.190135
v -17.382638 -23.448648 22.202684
v -17.382638 -23.284703 22.313607
v -17.410898 -23.127622 22.437722
v -17.382638 -23.141475 22.450237
v -17.382638 -23.022949 22.608773
v -17.404542 -23.010682 22.602475
v -17.423071 -22.996187 22.594245
v -17.433849 -23.109106 22.421061
v -17.438585 -22.978682 22.583572
v -17.450139 -22.959837 22.571532
v -17.450146 -23.087017 22.401220
v -17.457256 -22.939511 22.557973
v -17.458835 -23.062657 22.379352
v -17.460147 -22.918655 22.543589
v -17.459410 -23.037459 22.356726
v -17.458164 -22.898282 22.529023
v -17.451835 -22.878198 22.514196
v -17.451835 -23.012905 22.334661
v -16.939328 -23.533795 22.408772
v -17.382638 -23.448648 22.202684
v -17.149191 -23.493432 22.311125
v -16.577591 -23.603713 22.577629
v -17.382638 -23.284703 22.313607
v -16.577591 -23.524142 22.636358
v -16.577591 -23.452582 22.704621
v -17.382638 -23.141475 22.450237
v -16.577591 -23.390168 22.781336
v -16.939328 -23.224794 22.703537
v -17.149191 -23.129158 22.658617
v -17.451835 -25.213387 22.569254
v -17.458164 -25.192626 22.583118
v -17.451835 -25.087291 22.383570
v -17.460147 -25.171590 22.596707
v -17.458835 -25.035488 22.425866
v -17.459410 -25.061724 22.404454
v -17.457256 -25.150079 22.610093
v -17.450145 -25.010125 22.446563
v -17.450140 -25.129137 22.622679
v -17.433849 -24.987126 22.465340
v -17.438585 -25.109745 22.633818
v -17.423071 -25.091757 22.643654
v -17.410898 -24.967844 22.481110
v -17.404542 -25.076890 22.651191
v -17.382638 -25.064340 22.656904
v -17.382638 -24.953417 22.492958
v -17.410898 -24.829303 22.335878
v -17.382638 -24.816787 22.349730
v -17.382638 -24.658252 22.231204
v -17.404542 -24.664550 22.218938
v -17.423071 -24.672779 22.204442
v -17.433849 -24.845963 22.317361
v -17.438585 -24.683452 22.186937
v -17.450140 -24.695492 22.168092
v -17.450146 -24.865804 22.295272
v -17.457256 -24.709051 22.147766
v -17.458835 -24.887673 22.270912
v -17.460147 -24.723436 22.126910
v -17.459410 -24.910298 22.245714
v -17.458164 -24.738001 22.106538
v -17.451835 -24.752829 22.086454
v -17.451835 -24.932364 22.221161
v -16.939328 -24.858253 22.742050
v -17.382638 -25.064340 22.656904
v -17.149191 -24.955900 22.701688
v -16.577591 -24.689396 22.811969
v -17.382638 -24.953417 22.492958
v -16.577591 -24.630667 22.732397
v -16.577591 -24.562404 22.660837
v -17.382638 -24.816787 22.349730
v -16.577591 -24.485689 22.598424
v -16.939328 -24.563487 22.433050
v -17.149191 -24.608407 22.337413
v -17.633601 -23.718740 23.830524
v -16.939328 -23.495282 24.042230
v -16.577590 -23.573081 23.876856
v -16.512882 -23.638585 23.774052
v -17.586891 -23.580109 24.020196
v -16.512882 -23.492973 22.846840
v -17.646904 -23.500388 22.986610
v -17.633601 -23.436500 22.926995
v -16.454798 -23.577330 22.916228
v -16.398575 -23.644692 23.006647
v -17.656708 -23.546979 23.057425
v -16.373822 -23.669553 23.058030
v -17.663068 -23.576407 23.140015
v -16.353457 -23.687693 23.112632
v -16.339560 -23.698558 23.170027
v -17.665207 -23.584887 23.228185
v -16.334438 -23.701405 23.229907
v -16.339560 -23.695740 23.289586
v -17.663113 -23.572548 23.312915
v -16.353457 -23.682181 23.346406
v -16.373822 -23.661488 23.400092
v -17.656856 -23.539782 23.393561
v -16.398575 -23.634233 23.450246
v -16.454798 -23.562684 23.537390
v -17.646646 -23.487846 23.464852
v -17.586891 -23.246828 22.788364
v -16.939328 -23.224794 22.703537
v -17.633601 -23.436500 22.926995
v -16.512882 -24.420184 22.701228
v -17.646904 -24.280414 22.708643
v -17.633601 -24.340030 22.644756
v -16.454798 -24.350797 22.785585
v -16.398575 -24.260377 22.852947
v -17.656708 -24.209599 22.755235
v -16.373822 -24.208994 22.877808
v -17.663068 -24.127009 22.784662
v -16.353457 -24.154393 22.895949
v -16.339560 -24.096998 22.906814
v -17.665207 -24.038839 22.793143
v -16.334438 -24.037118 22.909661
v -16.339560 -23.977438 22.903995
v -17.663112 -23.954109 22.780804
v -16.353457 -23.920619 22.890437
v -16.373822 -23.866933 22.869743
v -17.656856 -23.873464 22.748037
v -16.398575 -23.816779 22.842488
v -16.454798 -23.729635 22.770940
v -17.646647 -23.802172 22.696101
v -17.633602 -24.311742 23.844506
v -17.646647 -24.256597 23.779179
v -16.512882 -24.394469 23.791874
v -16.454798 -23.707972 23.689695
v -17.646904 -23.778355 23.766637
v -16.512882 -23.638585 23.774052
v -16.398575 -23.798392 23.622332
v -17.656708 -23.849170 23.720045
v -16.373822 -23.849775 23.597471
v -17.663068 -23.931760 23.690618
v -16.353457 -23.904376 23.579331
v -16.339560 -23.961771 23.568466
v -17.665207 -24.019930 23.682137
v -16.334439 -24.021652 23.565619
v -16.339560 -24.081331 23.571285
v -17.663113 -24.104660 23.694476
v -16.353457 -24.138150 23.584843
v -16.373822 -24.191836 23.605536
v -17.656856 -24.185306 23.727243
v -16.398575 -24.241991 23.632791
v -16.454798 -24.329135 23.704340
v -17.633601 -24.622269 23.548285
v -16.939328 -24.833975 23.771743
v -16.577590 -24.668601 23.693944
v -16.512882 -24.565797 23.628440
v -17.586891 -24.811941 23.686916
v -17.586891 -24.478660 22.455084
v -16.939328 -24.563487 22.433050
v -17.633601 -24.340030 22.644756
v -16.454798 -24.481439 23.559052
v -17.646904 -24.558382 23.488670
v -16.512882 -24.565797 23.628440
v -16.398575 -24.414077 23.468633
v -17.656708 -24.511790 23.417854
v -16.373822 -24.389216 23.417250
v -17.663068 -24.482362 23.335265
v -16.353457 -24.371076 23.362648
v -16.339560 -24.360211 23.305253
v -17.665207 -24.473882 23.247094
v -16.334439 -24.357364 23.245373
v -16.339560 -24.363030 23.185693
v -17.663113 -24.486221 23.162365
v -16.353457 -24.376588 23.128874
v -16.373822 -24.397281 23.075188
v -17.656856 -24.518988 23.081719
v -16.398575 -24.424536 23.025034
v -16.454798 -24.496085 22.937890
v -17.646646 -24.570924 23.010428
v -15.590000 -25.414657 25.318750
v -15.590000 -25.754992 25.046584
v -15.590000 -24.892188 24.142112
v -16.160000 -24.029385 23.237640
v -16.454798 -24.496085 22.937890
v -16.398575 -24.424536 23.025034
v -16.900969 -24.557529 25.563740
v -17.116390 -24.076460 25.301045
v -17.261623 -24.515243 24.971840
v -17.005553 -24.847663 25.320314
v -16.900969 -24.133700 25.620663
v -16.900969 -23.706519 25.600993
v -17.069980 -23.318548 25.255175
v -16.900969 -23.289714 25.505363
v -16.900969 -22.896684 25.336847
v -17.171972 -22.987346 24.907978
v -16.900969 -22.231302 24.804988
v -17.206191 -22.649569 24.553889
v -16.900969 -22.540059 25.100860
v -16.900969 -21.980337 24.458740
v -17.171972 -22.311792 24.199799
v -16.900969 -21.682897 22.809068
v -17.261623 -22.320009 22.670590
v -17.116390 -21.970491 23.093371
v -16.900969 -21.797130 22.396973
v -16.900969 -21.983110 22.011899
v -17.005553 -21.987589 22.322117
v -16.900969 -22.234859 21.666221
v -17.073648 -22.364681 21.903591
v -16.900969 -23.711876 20.873561
v -17.116390 -23.982309 21.174235
v -17.261623 -23.543526 21.503440
v -17.005553 -23.211106 21.154966
v -16.900969 -24.139101 20.854860
v -16.900969 -24.562800 20.912742
v -17.069980 -24.740221 21.220104
v -16.900969 -24.969354 21.045350
v -17.171972 -25.071423 21.567302
v -16.900969 -25.345697 21.248419
v -16.900969 -25.679733 21.515423
v -16.900969 -25.960725 21.837781
v -17.171972 -25.746977 22.275480
v -17.206191 -25.409200 21.921391
v -16.900969 -25.679733 21.515423
v -16.900969 -26.179642 22.205131
v -16.900969 -26.328009 23.874824
v -17.005553 -26.071180 24.153163
v -17.261623 -25.738760 23.804689
v -17.116390 -26.088278 23.381909
v -16.900969 -26.177296 24.275020
v -16.900969 -25.957547 24.641873
v -16.900969 -25.675825 24.963593
v -17.073649 -25.694088 24.571688
v -17.440651 -23.023476 24.197208
v -17.451835 -22.845382 23.906026
v -17.451835 -22.971478 24.091710
v -17.404150 -22.663176 23.819508
v -17.069980 -26.078179 22.622678
v -16.900969 -26.329448 22.605667
v -16.900969 -26.405328 23.026515
v -17.295357 -25.748880 23.026121
v -17.641096 -24.207373 23.835274
v -17.663068 -23.931760 23.690618
v -17.665207 -24.019930 23.682137
v -17.663113 -24.104660 23.694476
v -17.656856 -24.185306 23.727243
v -17.646647 -24.256597 23.779179
v -17.633602 -24.311742 23.844506
v -17.586891 -24.441280 24.040501
v -17.526229 -24.570111 24.233111
v -17.561580 -23.793198 24.214925
v -17.448176 -25.384976 23.433820
v -17.586891 -24.811941 23.686916
v -17.561580 -25.016715 23.047774
v -17.404150 -25.395593 22.655772
v -16.900969 -26.404843 23.454149
v -17.334978 -25.354841 24.216058
v -17.073649 -25.283495 24.963366
v -17.451835 -25.045864 24.140619
v -17.451835 -25.180571 23.961084
v -17.334978 -24.944248 24.607736
v -17.451835 -24.697771 24.421642
v -17.451835 -24.883455 24.295546
v -17.404150 -23.383775 24.574908
v -17.295357 -23.737062 24.945256
v -17.448176 -24.161459 24.600971
v -17.641096 -24.617967 23.443596
v -17.633601 -24.622269 23.548285
v -17.646904 -24.558382 23.488670
v -17.656708 -24.511790 23.417854
v -17.663068 -24.482362 23.335265
v -17.665207 -24.473882 23.247094
v -17.663113 -24.486221 23.162365
v -17.633601 -24.636250 22.955282
v -17.586891 -24.832245 22.825745
v -17.526229 -25.024855 22.696914
v -17.451835 -25.213387 22.569254
v -17.451835 -25.087291 22.383570
v -17.440650 -25.035294 22.278072
v -17.641096 -23.851396 22.640005
v -17.663112 -23.954109 22.780804
v -17.656856 -23.873464 22.748037
v -17.646647 -23.802172 22.696101
v -17.633601 -23.747027 22.630774
v -17.586891 -23.617489 22.434779
v -17.526229 -23.488659 22.242169
v -17.561580 -24.265572 22.260355
v -17.526229 -24.616425 22.268759
v -17.586891 -24.478660 22.455084
v -17.633601 -24.340030 22.644756
v -17.448176 -23.897310 21.874309
v -17.404150 -24.674994 21.900372
v -17.451835 -24.752829 22.086454
v -17.440650 -25.035294 22.278072
v -17.295357 -24.321707 21.530024
v -17.451835 -23.360999 22.053638
v -17.448176 -22.673793 23.041460
v -17.526229 -23.060504 22.650599
v -17.586891 -23.246828 22.788364
v -17.561580 -23.042054 23.427506
v -17.295357 -22.309889 23.449159
v -17.069980 -21.980590 23.852602
v -16.900969 -21.795230 24.073245
v -16.900969 -21.681931 23.660892
v -16.900969 -21.644081 23.234937
v -17.451835 -22.878198 22.514196
v -17.334978 -22.703928 22.259222
v -17.451835 -23.012905 22.334661
v -17.334978 -23.114521 21.867544
v -17.451835 -23.175314 22.179734
v -17.641096 -23.440803 23.031683
v -17.633601 -23.436500 22.926995
v -17.646904 -23.500388 22.986610
v -17.656708 -23.546979 23.057425
v -17.663068 -23.576407 23.140015
v -17.665207 -23.584887 23.228185
v -17.663113 -23.572548 23.312915
v -17.633601 -23.422519 23.519998
v -17.586891 -23.226524 23.649535
v -17.526229 -23.033914 23.778366
v -17.526229 -23.442344 24.206521
v -17.586891 -23.580109 24.020196
v -17.633601 -23.718740 23.830524
v -17.451835 -23.126405 24.254119
v -17.451835 -23.305941 24.388826
v -17.440651 -23.023476 24.197208
v -16.900969 -25.341185 25.229840
v -16.900969 -24.964383 25.432055
v -16.900969 -22.544286 21.371049
v -17.073648 -22.775274 21.511914
v -16.900969 -22.901444 21.135871
v -16.900969 -23.294856 20.968246
v -10.590000 -24.678213 23.917803
v -12.590000 -24.892188 24.142112
v -15.590000 -23.060024 22.448438
v -12.590000 -23.060024 22.448438
v -10.590000 -24.678213 23.917803
v -10.590000 -24.832144 23.726698
v -10.590000 -24.480066 24.062556
v -10.590000 -24.251205 24.151092
v -10.590000 -24.931368 23.502264
v -10.590000 -24.007228 24.177379
v -10.590000 -24.969123 23.259797
v -10.590000 -23.764760 24.139623
v -10.590000 -24.942837 23.015819
v -10.590000 -23.540327 24.040399
v -10.590000 -24.854301 22.786959
v -10.590000 -23.349222 23.886468
v -10.590000 -24.709547 22.588812
v -10.590000 -23.204468 23.688321
v -10.590000 -24.518442 22.434881
v -10.590000 -23.115932 23.459460
v -10.590000 -24.294009 22.335657
v -10.590000 -23.089646 23.215483
v -10.590000 -24.051541 22.297901
v -10.590000 -23.127401 22.973016
v -10.590000 -23.807564 22.324187
v -10.590000 -23.226625 22.748582
v -10.590000 -23.578703 22.412724
v -10.590000 -23.380556 22.557477
v -17.382638 -25.035821 23.866507
v -17.382638 -23.400517 24.244076
v -17.382638 -23.022949 22.608773
v -17.382638 -24.658252 22.231204
v -17.149191 -23.450362 24.137867
v -17.526229 -23.442344 24.206521
v -17.382638 -23.400517 24.244076
v -17.404541 -23.394219 24.256342
v -17.423071 -23.385990 24.270838
v -17.438585 -23.375317 24.288343
v -17.450140 -23.363277 24.307188
v -17.457256 -23.349718 24.327514
v -17.460147 -23.335333 24.348370
v -17.458164 -23.320768 24.368742
v -17.451835 -23.305941 24.388826
v -17.451835 -22.845382 23.906026
v -17.526229 -23.033914 23.778366
v -17.458164 -22.866143 23.892161
v -17.460147 -22.887179 23.878572
v -17.457256 -22.908690 23.865187
v -17.450139 -22.929632 23.852601
v -17.438585 -22.949024 23.841462
v -17.423071 -22.967012 23.831626
v -17.404542 -22.981879 23.824089
v -17.382638 -22.994429 23.818376
v -17.149191 -23.102869 23.773592
v -17.586891 -23.226524 23.649535
v -16.939328 -23.200517 23.733230
v -17.633601 -23.422519 23.519998
v -16.577591 -23.369374 23.663311
v -16.512882 -23.475151 23.602725
v -17.633601 -23.422519 23.519998
v -16.512882 -23.475151 23.602725
v -17.149191 -23.129158 22.658617
v -16.577591 -23.390168 22.781336
v -16.512882 -23.492973 22.846840
v -17.526229 -23.060504 22.650599
v -17.382638 -23.022949 22.608773
v -17.404542 -23.010682 22.602475
v -17.423071 -22.996187 22.594245
v -17.438585 -22.978682 22.583572
v -17.450139 -22.959837 22.571532
v -17.457256 -22.939511 22.557973
v -17.460147 -22.918655 22.543589
v -17.458164 -22.898282 22.529023
v -17.451835 -22.878198 22.514196
v -17.451835 -23.360999 22.053638
v -17.526229 -23.488659 22.242169
v -17.458164 -23.374863 22.074398
v -17.460147 -23.388452 22.095434
v -17.457256 -23.401838 22.116945
v -17.450139 -23.414424 22.137888
v -17.438585 -23.425562 22.157279
v -17.423071 -23.435398 22.175268
v -17.404542 -23.442935 22.190135
v -17.382638 -23.448648 22.202684
v -17.149191 -23.493432 22.311125
v -17.586891 -23.617489 22.434779
v -16.939328 -23.533795 22.408772
v -17.633601 -23.747027 22.630774
v -16.577591 -23.603713 22.577629
v -16.512882 -23.664300 22.683406
v -17.633601 -23.747027 22.630774
v -16.512882 -23.664300 22.683406
v -17.633601 -23.718740 23.830524
v -17.149191 -24.929611 23.816662
v -17.526229 -24.998265 23.824681
v -17.382638 -25.035821 23.866507
v -17.404542 -25.048087 23.872805
v -17.423071 -25.062582 23.881035
v -17.438585 -25.080087 23.891707
v -17.450140 -25.098932 23.903748
v -17.457256 -25.119258 23.917307
v -17.460147 -25.140115 23.931691
v -17.458164 -25.160487 23.946257
v -17.451835 -25.180571 23.961084
v -17.149191 -24.608407 22.337413
v -16.577591 -24.485689 22.598424
v -16.512882 -24.420184 22.701228
v -17.526229 -24.616425 22.268759
v -17.382638 -24.658252 22.231204
v -17.404542 -24.664550 22.218938
v -17.423071 -24.672779 22.204442
v -17.438585 -24.683452 22.186937
v -17.450140 -24.695492 22.168092
v -17.457256 -24.709051 22.147766
v -17.460147 -24.723436 22.126910
v -17.458164 -24.738001 22.106538
v -17.451835 -24.752829 22.086454
v -17.451835 -25.213387 22.569254
v -17.526229 -25.024855 22.696914
v -17.458164 -25.192626 22.583118
v -17.460147 -25.171590 22.596707
v -17.457256 -25.150079 22.610093
v -17.450140 -25.129137 22.622679
v -17.438585 -25.109745 22.633818
v -17.423071 -25.091757 22.643654
v -17.404542 -25.076890 22.651191
v -17.382638 -25.064340 22.656904
v -17.149191 -24.955900 22.701688
v -17.586891 -24.832245 22.825745
v -16.939328 -24.858253 22.742050
v -17.633601 -24.636250 22.955282
v -16.577591 -24.689396 22.811969
v -16.512882 -24.583619 22.872555
v -17.633601 -24.636250 22.955282
v -16.512882 -24.583619 22.872555
v -17.633601 -24.622269 23.548285
v -17.451835 -24.697771 24.421642
v -17.526229 -24.570111 24.233111
v -17.458164 -24.683906 24.400882
v -17.460147 -24.670317 24.379846
v -17.457256 -24.656932 24.358335
v -17.450140 -24.644346 24.337392
v -17.438585 -24.633207 24.318001
v -17.423071 -24.623371 24.300012
v -17.404542 -24.615834 24.285145
v -17.382638 -24.610121 24.272595
v -17.149191 -24.565337 24.164155
v -17.586891 -24.441280 24.040501
v -16.939328 -24.524974 24.066508
v -17.633602 -24.311742 23.844506
v -16.577590 -24.455056 23.897651
v -16.512882 -24.394469 23.791874
v -15.590000 -26.042896 24.719453
v -15.590000 -25.090015 23.899126
v -15.590000 -26.269621 24.347299
v -15.590000 -25.221198 23.614576
v -15.590000 -26.428277 23.941427
v -15.590000 -26.514044 23.514172
v -15.590000 -25.277495 23.306342
v -15.590000 -26.524315 23.078514
v -15.590000 -25.255369 22.993791
v -15.590000 -26.458780 22.647692
v -15.590000 -25.156210 22.696562
v -15.590000 -26.319428 22.234795
v -15.590000 -26.110495 21.852368
v -15.590000 -24.986248 22.433331
v -15.590000 -25.838328 21.512032
v -15.590000 -24.756162 22.220638
v -15.590000 -25.511198 21.224128
v -15.590000 -25.139043 20.997404
v -15.590000 -24.480411 22.071846
v -15.590000 -24.733172 20.838748
v -15.590000 -24.176320 21.996306
v -15.590000 -24.305917 20.752981
v -15.590000 -23.870259 20.742709
v -15.590000 -23.862997 21.998763
v -15.590000 -23.439436 20.808245
v -15.590000 -23.560128 22.079064
v -15.590000 -23.026539 20.947596
v -15.590000 -22.644113 21.156529
v -15.590000 -23.286745 22.232162
v -15.590000 -22.303777 21.428696
v -15.590000 -23.060024 22.448438
v -15.590000 -22.015873 21.755827
v -15.590000 -22.894211 22.714302
v -15.590000 -21.789148 22.127981
v -15.590000 -21.630492 22.533852
v -15.590000 -22.799726 23.013050
v -15.590000 -21.544726 22.961108
v -15.590000 -22.782505 23.325910
v -15.590000 -21.534454 23.396765
v -15.590000 -21.599989 23.827588
v -15.590000 -22.843630 23.633223
v -15.590000 -21.739341 24.240485
v -15.590000 -22.979260 23.915680
v -15.590000 -21.948274 24.622912
v -15.590000 -22.220441 24.963248
v -15.590000 -23.180873 24.155533
v -15.590000 -22.547571 25.251151
v -15.590000 -23.435802 24.337712
v -15.590000 -22.919726 25.477876
v -15.590000 -23.325597 25.636532
v -15.590000 -23.728027 24.450770
v -15.590000 -23.752852 25.722299
v -15.590000 -24.039188 24.487601
v -15.590000 -24.188510 25.732570
v -15.590000 -24.349733 24.445894
v -15.590000 -24.619333 25.667035
v -15.590000 -25.032230 25.527684
v -15.590000 -24.640149 24.328267
v -16.577591 -24.689396 22.811969
v -16.512882 -24.583619 22.872555
v -16.577591 -24.630667 22.732397
v -16.373822 -24.397281 23.075188
v -16.160000 -24.029385 23.237640
v -16.353457 -24.376588 23.128874
v -16.339560 -24.363030 23.185693
v -16.339560 -24.360211 23.305253
v -16.160000 -24.029385 23.237640
v -16.334439 -24.357364 23.245373
v -16.353457 -24.371076 23.362648
v -16.160000 -24.029385 23.237640
v -16.373822 -24.389216 23.417250
v -16.160000 -24.029385 23.237640
v -16.398575 -24.414077 23.468633
v -16.454798 -24.481439 23.559052
v -16.577591 -24.606187 23.770659
v -16.577591 -24.534627 23.838922
v -16.160000 -24.029385 23.237640
v -16.512882 -24.565797 23.628440
v -16.577590 -24.668601 23.693944
v -16.512882 -24.394469 23.791874
v -16.454798 -24.329135 23.704340
v -16.160000 -24.029385 23.237640
v -16.577590 -24.455056 23.897651
v -16.398575 -24.241991 23.632791
v -16.373822 -24.191836 23.605536
v -16.160000 -24.029385 23.237640
v -16.353457 -24.138150 23.584843
v -16.339560 -24.081331 23.571285
v -16.339560 -23.961771 23.568466
v -16.160000 -24.029385 23.237640
v -16.334439 -24.021652 23.565619
v -16.353457 -23.904376 23.579331
v -16.160000 -24.029385 23.237640
v -16.373822 -23.849775 23.597471
v -16.160000 -24.029385 23.237640
v -16.398575 -23.798392 23.622332
v -16.454798 -23.707972 23.689695
v -16.577590 -23.496365 23.814442
v -16.577590 -23.428102 23.742883
v -16.160000 -24.029385 23.237640
v -16.512882 -23.638585 23.774052
v -16.577590 -23.573081 23.876856
v -16.512882 -23.475151 23.602725
v -16.454798 -23.562684 23.537390
v -16.160000 -24.029385 23.237640
v -16.577591 -23.369374 23.663311
v -16.398575 -23.634233 23.450246
v -16.373822 -23.661488 23.400092
v -16.160000 -24.029385 23.237640
v -16.353457 -23.682181 23.346406
v -16.339560 -23.695740 23.289586
v -16.339560 -23.698558 23.170027
v -16.160000 -24.029385 23.237640
v -16.334438 -23.701405 23.229907
v -16.353457 -23.687693 23.112632
v -16.160000 -24.029385 23.237640
v -16.373822 -23.669553 23.058030
v -16.160000 -24.029385 23.237640
v -16.398575 -23.644692 23.006647
v -16.454798 -23.577330 22.916228
v -16.577591 -23.452582 22.704621
v -16.160000 -24.029385 23.237640
v -16.512882 -23.492973 22.846840
v -16.577591 -23.390168 22.781336
v -16.577591 -23.452582 22.704621
v -16.577591 -23.524142 22.636358
v -16.160000 -24.029385 23.237640
v -16.512882 -23.664300 22.683406
v -16.454798 -23.729635 22.770940
v -16.160000 -24.029385 23.237640
v -16.577591 -23.603713 22.577629
v -16.398575 -23.816779 22.842488
v -16.373822 -23.866933 22.869743
v -16.160000 -24.029385 23.237640
v -16.353457 -23.920619 22.890437
v -16.339560 -23.977438 22.903995
v -16.339560 -24.096998 22.906814
v -16.160000 -24.029385 23.237640
v -16.334438 -24.037118 22.909661
v -16.353457 -24.154393 22.895949
v -16.160000 -24.029385 23.237640
v -16.373822 -24.208994 22.877808
v -16.160000 -24.029385 23.237640
v -16.398575 -24.260377 22.852947
v -16.454798 -24.350797 22.785585
v -16.577591 -24.562404 22.660837
v -16.160000 -24.029385 23.237640
v -16.512882 -24.420184 22.701228
v -16.577591 -24.485689 22.598424
v -17.526229 -24.998265 23.824681
v -17.656856 -24.518988 23.081719
v -17.646646 -24.570924 23.010428
v -17.206191 -25.409200 21.921391
v -17.451835 -24.932364 22.221161
v -17.451835 -25.087291 22.383570
v -17.665207 -24.038839 22.793143
v -17.646904 -24.280414 22.708643
v -17.663068 -24.127009 22.784662
v -17.656708 -24.209599 22.755235
v -16.900969 -22.540059 25.100860
v -17.206191 -22.649569 24.553889
v -17.656856 -23.539782 23.393561
v -17.646646 -23.487846 23.464852
v -17.451835 -22.971478 24.091710
v -17.646904 -23.778355 23.766637
v -17.656708 -23.849170 23.720045
v -15.590000 -26.042896 24.719453
v -15.590000 -25.754992 25.046584
v -16.900969 -25.675825 24.963593
v -15.590000 -25.414657 25.318750
v -16.900969 -25.341185 25.229840
v -15.590000 -25.032230 25.527684
v -16.900969 -24.964383 25.432055
v -15.590000 -24.619333 25.667035
v -16.900969 -24.557529 25.563740
v -15.590000 -24.188510 25.732570
v -16.900969 -24.133700 25.620663
v -15.590000 -23.752852 25.722299
v -16.900969 -23.706519 25.600993
v -15.590000 -23.325597 25.636532
v -16.900969 -23.289714 25.505363
v -15.590000 -22.919726 25.477876
v -16.900969 -22.896684 25.336847
v -15.590000 -22.547571 25.251151
v -16.900969 -22.540059 25.100860
v -15.590000 -22.220441 24.963248
v -16.900969 -22.231302 24.804988
v -15.590000 -21.948274 24.622912
v -16.900969 -21.980337 24.458740
v -15.590000 -21.739341 24.240485
v -16.900969 -21.795230 24.073245
v -15.590000 -21.599989 23.827588
v -16.900969 -21.681931 23.660892
v -15.590000 -21.534454 23.396765
v -16.900969 -21.644081 23.234937
v -15.590000 -21.544726 22.961108
v -16.900969 -21.682897 22.809068
v -15.590000 -21.630492 22.533852
v -16.900969 -21.797130 22.396973
v -15.590000 -21.789148 22.127981
v -16.900969 -21.983110 22.011899
v -15.590000 -22.015873 21.755827
v -16.900969 -22.234859 21.666221
v -15.590000 -22.303777 21.428696
v -16.900969 -22.544286 21.371049
v -16.900969 -22.544286 21.371049
v -15.590000 -22.303777 21.428696
v -15.590000 -22.644113 21.156529
v -16.900969 -22.901444 21.135871
v -15.590000 -23.026539 20.947596
v -16.900969 -23.294856 20.968246
v -15.590000 -23.439436 20.808245
v -16.900969 -23.711876 20.873561
v -15.590000 -23.870259 20.742709
v -16.900969 -24.139101 20.854860
v -15.590000 -24.305917 20.752981
v -16.900969 -24.562800 20.912742
v -15.590000 -24.733172 20.838748
v -16.900969 -24.969354 21.045350
v -15.590000 -25.139043 20.997404
v -16.900969 -25.345697 21.248419
v -15.590000 -25.511198 21.224128
v -16.900969 -25.679733 21.515423
v -15.590000 -25.838328 21.512032
v -16.900969 -25.960725 21.837781
v -15.590000 -26.110495 21.852368
v -16.900969 -26.179642 22.205131
v -15.590000 -26.319428 22.234795
v -16.900969 -26.329448 22.605667
v -15.590000 -26.458780 22.647692
v -16.900969 -26.405328 23.026515
v -15.590000 -26.524315 23.078514
v -16.900969 -26.404843 23.454149
v -15.590000 -26.514044 23.514172
v -16.900969 -26.328009 23.874824
v -15.590000 -26.428277 23.941427
v -16.900969 -26.177296 24.275020
v -15.590000 -26.269621 24.347299
v -16.900969 -25.957547 24.641873
f 1 2 3
f 1 4 5
f 1 3 4
f 4 6 5
f 5 6 7
f 6 8 7
f 7 8 9
f 8 10 9
f 9 10 11
f 10 12 11
f 11 12 13
f 12 14 13
f 13 14 15
f 14 16 15
f 15 16 17
f 16 18 17
f 17 18 19
f 18 20 19
f 19 20 21
f 20 22 21
f 21 22 23
f 22 24 23
f 23 24 25
f 24 26 25
f 25 26 27
f 26 28 27
f 27 28 29
f 28 30 29
f 29 30 31
f 30 32 31
f 31 32 33
f 32 34 33
f 33 34 35
f 34 36 35
f 35 36 37
f 36 38 37
f 37 38 39
f 38 40 39
f 39 40 41
f 40 42 41
f 41 42 43
f 42 44 43
f 43 44 45
f 44 46 45
f 45 46 47
f 46 48 47
f 47 48 49
f 48 520 49
f 49 520 521
f 50 51 52
f 50 52 53
f 50 54 51
f 51 54 55
f 52 99 53
f 53 99 98
f 54 56 55
f 55 56 57
f 56 58 57
f 57 58 59
f 58 60 59
f 59 60 61
f 60 62 61
f 61 62 63
f 62 64 63
f 63 64 65
f 64 66 65
f 65 66 67
f 66 68 67
f 67 68 69
f 68 70 69
f 69 70 71
f 70 72 71
f 71 72 73
f 72 74 73
f 73 74 75
f 74 76 75
f 75 76 77
f 76 522 77
f 77 522 523
f 78 79 80
f 78 80 81
f 78 82 79
f 79 82 83
f 82 84 83
f 83 84 85
f 84 86 85
f 85 86 87
f 86 88 87
f 87 88 89
f 88 90 89
f 89 90 91
f 90 92 91
f 91 92 93
f 92 94 93
f 93 94 95
f 94 96 95
f 95 96 97
f 96 98 97
f 97 98 99
f 100 101 102
f 101 103 105
f 101 105 102
f 102 105 131
f 103 104 105
f 103 106 104
f 104 106 107
f 104 107 126
f 104 126 128
f 104 128 105
f 105 128 131
f 106 108 107
f 107 108 109
f 107 109 124
f 107 124 126
f 108 110 109
f 109 111 112
f 109 110 111
f 109 112 121
f 109 121 124
f 111 113 112
f 112 115 116
f 112 113 115
f 112 116 121
f 113 114 115
f 115 117 116
f 116 117 118
f 116 118 119
f 116 120 121
f 116 119 120
f 120 122 121
f 121 123 124
f 121 122 123
f 123 125 124
f 124 125 126
f 125 127 126
f 126 127 128
f 127 129 128
f 128 129 131
f 129 130 131
f 132 133 134
f 132 135 133
f 133 135 136
f 135 137 136
f 136 138 139
f 136 137 138
f 138 140 139
f 139 140 141
f 139 141 142
f 139 142 548
f 143 144 145
f 144 146 148
f 144 148 145
f 145 148 174
f 146 147 148
f 146 149 147
f 147 149 150
f 147 150 169
f 147 169 171
f 147 171 148
f 148 171 174
f 149 151 150
f 150 151 152
f 150 152 167
f 150 167 169
f 151 153 152
f 152 154 155
f 152 153 154
f 152 155 164
f 152 164 167
f 154 156 155
f 155 158 159
f 155 156 158
f 155 159 164
f 156 157 158
f 158 160 159
f 159 160 161
f 159 161 162
f 159 163 164
f 159 162 163
f 163 165 164
f 164 166 167
f 164 165 166
f 166 168 167
f 167 168 169
f 168 170 169
f 169 170 171
f 170 172 171
f 171 172 174
f 172 173 174
f 175 176 177
f 175 178 176
f 176 178 179
f 178 180 179
f 179 181 182
f 179 180 181
f 181 183 182
f 182 183 184
f 182 184 185
f 182 185 549
f 186 187 188
f 187 189 191
f 187 191 188
f 188 191 217
f 189 190 191
f 189 192 190
f 190 192 193
f 190 193 212
f 190 212 214
f 190 214 191
f 191 214 217
f 192 194 193
f 193 194 195
f 193 195 210
f 193 210 212
f 194 196 195
f 195 197 198
f 195 196 197
f 195 198 207
f 195 207 210
f 197 199 198
f 198 201 202
f 198 199 201
f 198 202 207
f 199 200 201
f 201 203 202
f 202 203 204
f 202 204 205
f 202 206 207
f 202 205 206
f 206 208 207
f 207 209 210
f 207 208 209
f 209 211 210
f 210 211 212
f 211 213 212
f 212 213 214
f 213 215 214
f 214 215 217
f 215 216 217
f 218 219 220
f 218 221 219
f 219 221 222
f 221 223 222
f 222 224 225
f 222 223 224
f 224 226 225
f 225 226 227
f 225 227 228
f 225 228 550
f 229 230 231
f 230 232 234
f 230 234 231
f 231 234 260
f 232 233 234
f 232 235 233
f 233 235 236
f 233 236 255
f 233 255 257
f 233 257 234
f 234 257 260
f 235 237 236
f 236 237 238
f 236 238 253
f 236 253 255
f 237 239 238
f 238 240 241
f 238 239 240
f 238 241 250
f 238 250 253
f 240 242 241
f 241 244 245
f 241 242 244
f 241 245 250
f 242 243 244
f 244 246 245
f 245 246 247
f 245 247 248
f 245 249 250
f 245 248 249
f 249 251 250
f 250 252 253
f 250 251 252
f 252 254 253
f 253 254 255
f 254 256 255
f 255 256 257
f 256 258 257
f 257 258 260
f 258 259 260
f 261 262 263
f 261 264 262
f 262 264 265
f 264 266 265
f 265 267 268
f 265 266 267
f 267 269 268
f 268 269 270
f 268 270 271
f 268 271 551
f 272 273 274
f 272 274 275
f 272 276 273
f 273 276 552
f 276 553 552
f 277 278 279
f 277 280 278
f 278 281 282
f 278 280 281
f 281 283 282
f 282 283 284
f 283 285 284
f 284 286 287
f 284 285 286
f 286 288 287
f 287 289 290
f 287 288 289
f 289 291 290
f 290 292 293
f 290 291 292
f 292 294 293
f 293 295 296
f 293 294 295
f 295 580 296
f 296 580 579
f 297 298 299
f 297 581 298
f 297 584 581
f 298 582 299
f 299 582 583
f 300 301 302
f 300 303 301
f 301 304 305
f 301 303 304
f 304 306 305
f 305 306 307
f 306 308 307
f 307 309 310
f 307 308 309
f 309 311 310
f 310 312 313
f 310 311 312
f 312 314 313
f 313 315 316
f 313 314 315
f 315 317 316
f 316 318 319
f 316 317 318
f 318 611 319
f 319 611 610
f 320 321 322
f 321 338 340
f 321 340 322
f 323 324 325
f 323 326 324
f 324 326 327
f 324 612 325
f 326 328 327
f 327 328 329
f 328 330 329
f 329 331 332
f 329 330 331
f 331 333 332
f 332 334 335
f 332 333 334
f 334 336 335
f 335 337 338
f 335 336 337
f 337 339 338
f 338 339 340
f 341 342 343
f 341 343 344
f 341 345 342
f 342 345 613
f 345 614 613
f 346 347 348
f 346 624 347
f 346 627 624
f 347 625 348
f 348 625 626
f 349 350 351
f 349 352 350
f 350 352 353
f 350 655 351
f 352 354 353
f 353 354 355
f 354 356 355
f 355 357 358
f 355 356 357
f 357 359 358
f 358 360 361
f 358 359 360
f 360 362 361
f 361 363 364
f 361 362 363
f 363 365 364
f 364 366 367
f 364 365 366
f 366 654 367
f 367 654 653
f 368 369 370
f 368 729 728
f 368 370 729
f 369 672 370
f 370 672 673
f 371 372 373
f 371 732 372
f 372 732 731
f 373 733 734
f 374 375 376
f 374 376 377
f 374 378 375
f 374 377 515
f 375 379 380
f 375 378 379
f 375 452 453
f 375 380 452
f 375 453 376
f 376 449 448
f 376 453 449
f 376 448 377
f 377 448 445
f 377 514 515
f 377 445 514
f 379 381 380
f 380 382 383
f 380 381 382
f 380 451 452
f 380 383 451
f 382 831 383
f 383 513 451
f 383 831 832
f 383 832 513
f 384 385 386
f 384 387 388
f 384 388 385
f 385 424 421
f 385 388 424
f 387 490 388
f 388 488 424
f 388 489 488
f 388 490 489
f 389 390 391
f 389 391 492
f 389 394 390
f 389 392 394
f 390 493 484
f 390 484 488
f 390 488 391
f 390 494 493
f 390 396 494
f 390 394 396
f 391 489 491
f 391 491 492
f 391 488 489
f 392 393 394
f 393 395 396
f 393 396 394
f 395 516 396
f 396 516 517
f 396 517 494
f 397 398 399
f 397 399 400
f 397 401 398
f 397 400 519
f 398 402 403
f 398 401 402
f 398 482 478
f 398 478 399
f 398 403 482
f 399 478 483
f 399 483 496
f 399 496 400
f 400 517 518
f 400 496 517
f 400 518 519
f 402 404 403
f 403 404 405
f 403 479 482
f 403 405 479
f 404 406 405
f 405 406 407
f 405 481 479
f 405 824 481
f 405 407 824
f 408 409 410
f 408 410 411
f 408 412 409
f 409 425 428
f 409 428 442
f 409 412 425
f 409 442 410
f 410 442 466
f 412 426 425
f 413 414 415
f 413 415 416
f 413 417 414
f 413 416 443
f 414 417 418
f 414 418 420
f 414 420 415
f 415 428 416
f 415 439 428
f 415 420 444
f 415 447 439
f 415 444 447
f 416 425 427
f 416 427 443
f 416 428 425
f 418 419 420
f 419 445 420
f 419 514 445
f 420 445 444
f 421 422 423
f 421 424 422
f 422 424 507
f 424 488 484
f 424 487 507
f 424 484 487
f 425 426 427
f 428 439 442
f 429 430 431
f 429 431 432
f 429 433 434
f 429 434 435
f 429 436 437
f 429 437 438
f 429 438 430
f 429 432 433
f 429 435 436
f 430 438 510
f 430 510 836
f 430 836 837
f 437 453 438
f 437 449 453
f 438 508 509
f 438 509 510
f 438 453 452
f 438 452 451
f 438 451 508
f 439 440 441
f 439 441 442
f 439 447 821
f 439 821 440
f 440 455 454
f 440 454 441
f 441 454 460
f 441 460 461
f 441 462 463
f 441 463 442
f 441 461 462
f 442 463 464
f 442 465 466
f 442 464 465
f 444 446 447
f 444 448 446
f 444 445 448
f 446 448 450
f 448 449 450
f 451 511 512
f 451 512 508
f 451 513 511
f 454 455 456
f 454 457 458
f 454 458 459
f 454 456 457
f 454 459 460
f 460 822 461
f 461 822 823
f 467 468 469
f 467 469 470
f 467 471 472
f 467 472 473
f 467 473 474
f 467 477 827
f 467 474 477
f 467 827 468
f 467 470 471
f 473 478 474
f 473 483 478
f 474 475 476
f 474 476 477
f 474 479 475
f 474 482 479
f 474 478 482
f 475 479 480
f 477 828 827
f 479 481 480
f 480 481 825
f 481 826 825
f 483 497 496
f 484 485 486
f 484 486 487
f 484 493 485
f 486 498 487
f 486 499 498
f 487 498 505
f 487 506 507
f 487 505 506
f 489 490 491
f 493 494 495
f 494 496 495
f 494 517 496
f 495 496 497
f 498 499 500
f 498 500 501
f 498 502 503
f 498 503 504
f 498 833 505
f 498 501 502
f 498 504 833
f 505 833 834
f 511 513 835
f 516 518 517
f 524 525 526
f 525 527 526
f 525 528 527
f 527 528 529
f 528 530 529
f 529 530 531
f 530 532 531
f 531 532 533
f 532 534 533
f 533 534 535
f 534 536 535
f 535 536 537
f 536 538 537
f 537 538 539
f 538 540 539
f 539 540 541
f 540 542 541
f 541 542 543
f 542 544 543
f 543 544 545
f 544 546 545
f 545 546 547
f 552 553 554
f 553 555 554
f 553 556 555
f 553 557 556
f 553 558 557
f 553 559 558
f 553 560 559
f 553 561 560
f 553 562 561
f 563 564 565
f 564 566 565
f 564 567 566
f 564 568 567
f 564 569 568
f 564 570 569
f 564 571 570
f 564 572 571
f 564 573 572
f 564 574 573
f 573 574 575
f 574 576 575
f 575 576 577
f 576 578 577
f 581 584 585
f 584 586 585
f 584 587 586
f 584 588 587
f 584 589 588
f 584 590 589
f 584 591 590
f 584 592 591
f 584 593 592
f 594 595 596
f 595 597 596
f 595 598 597
f 595 599 598
f 595 600 599
f 595 601 600
f 595 602 601
f 595 603 602
f 595 604 603
f 595 605 604
f 604 605 606
f 605 607 606
f 606 607 608
f 607 609 608
f 613 614 615
f 614 616 615
f 614 617 616
f 614 618 617
f 614 619 618
f 614 620 619
f 614 621 620
f 614 622 621
f 614 623 622
f 624 627 628
f 627 629 628
f 627 630 629
f 627 631 630
f 627 632 631
f 627 633 632
f 627 634 633
f 627 635 634
f 627 636 635
f 637 638 639
f 638 640 639
f 638 641 640
f 638 642 641
f 638 643 642
f 638 644 643
f 638 645 644
f 638 646 645
f 638 647 646
f 638 648 647
f 647 648 649
f 648 650 649
f 649 650 651
f 650 652 651
f 656 657 658
f 657 659 658
f 657 660 659
f 657 661 660
f 657 662 661
f 657 663 662
f 657 664 663
f 657 665 664
f 657 666 665
f 657 667 666
f 666 667 668
f 667 669 668
f 668 669 670
f 669 671 670
f 672 674 673
f 673 674 675
f 674 676 675
f 675 676 677
f 675 677 678
f 677 679 678
f 678 679 680
f 679 681 680
f 680 681 682
f 681 683 682
f 682 683 684
f 682 684 685
f 684 686 685
f 685 686 687
f 686 688 687
f 687 688 689
f 687 689 690
f 689 691 690
f 690 691 692
f 691 693 692
f 692 693 694
f 692 694 695
f 694 696 695
f 695 696 697
f 696 698 697
f 697 698 699
f 697 699 700
f 699 701 700
f 700 701 702
f 701 703 702
f 702 703 704
f 703 705 704
f 704 705 706
f 704 706 707
f 706 708 707
f 707 708 709
f 708 710 709
f 709 710 711
f 709 711 712
f 711 713 712
f 712 713 714
f 713 715 714
f 714 715 716
f 714 716 717
f 716 718 717
f 717 718 719
f 718 720 719
f 719 720 721
f 719 721 722
f 721 723 722
f 722 723 724
f 723 725 724
f 724 725 726
f 725 727 726
f 726 727 728
f 726 728 729
f 730 731 732
f 732 816 817
f 732 818 816
f 733 735 734
f 734 735 736
f 736 739 741
f 737 738 739
f 737 740 738
f 740 742 743
f 742 744 743
f 743 744 745
f 745 746 747
f 745 747 748
f 745 749 746
f 746 749 750
f 747 751 752
f 747 752 753
f 747 754 751
f 752 755 753
f 755 756 757
f 756 758 757
f 757 758 759
f 759 762 764
f 760 761 762
f 760 763 761
f 763 765 766
f 765 767 766
f 766 767 768
f 768 769 770
f 768 770 771
f 768 772 769
f 769 772 773
f 770 774 775
f 770 775 776
f 770 777 774
f 775 778 776
f 778 779 780
f 779 781 780
f 780 781 782
f 782 785 787
f 783 784 785
f 783 786 784
f 786 788 789
f 788 790 789
f 789 790 791
f 791 792 793
f 791 794 792
f 792 794 795
f 796 797 798
f 797 799 800
f 797 800 801
f 797 802 799
f 800 803 801
f 803 804 805
f 804 806 805
f 805 806 807
f 807 810 812
f 808 809 810
f 808 811 809
f 811 813 814
f 813 815 814
f 814 815 816
f 816 819 817
f 817 819 820
f 827 828 829
f 828 830 829
f 838 839 840
f 838 910 909
f 838 840 910
f 839 841 840
f 840 841 842
f 841 843 842
f 842 843 844
f 843 845 844
f 844 845 846
f 845 847 846
f 846 847 848
f 847 849 848
f 848 849 850
f 849 851 850
f 850 851 852
f 851 853 852
f 852 853 854
f 853 855 854
f 854 855 856
f 855 857 856
f 856 857 858
f 857 859 858
f 858 859 860
f 859 861 860
f 860 861 862
f 861 863 862
f 862 863 864
f 863 865 864
f 864 865 866
f 865 867 866
f 866 867 868
f 867 869 868
f 868 869 870
f 869 871 870
f 870 871 872
f 871 873 872
f 872 873 874
f 873 875 874
f 874 875 876
f 877 878 879
f 877 879 880
f 879 881 880
f 880 881 882
f 881 883 882
f 882 883 884
f 883 885 884
f 884 885 886
f 885 887 886
f 886 887 888
f 887 889 888
f 888 889 890
f 889 891 890
f 890 891 892
f 891 893 892
f 892 893 894
f 893 895 894
f 894 895 896
f 895 897 896
f 896 897 898
f 897 899 898
f 898 899 900
f 899 901 900
f 900 901 902
f 901 903 902
f 902 903 904
f 903 905 904
f 904 905 906
f 905 907 906
f 906 907 908
f 907 909 908
f 908 909 910