# Part18
# Autodesk dbId: 141
# Units: mm
o 141_Part18
v 9.540000 2.090989 -76.448879
v 12.340000 1.891357 -76.112009
v 12.340000 2.090989 -76.448879
v 9.540000 1.891358 -76.112009
v 12.340000 1.785716 -75.734950
v 9.540000 1.785716 -75.734950
v 12.340000 1.781265 -75.343397
v 9.540000 1.781265 -75.343397
v 12.340000 1.878307 -74.964033
v 9.540000 1.878307 -74.964033
v 12.340000 2.070228 -74.622713
v 9.540000 2.070229 -74.622713
v 12.340000 2.343951 -74.342695
v 9.540000 2.343951 -74.342695
v 12.340000 2.680821 -74.143064
v 9.540000 2.680821 -74.143064
v 12.340000 3.057880 -74.037422
v 9.540000 3.057880 -74.037423
v 12.340000 3.449433 -74.032971
v 9.540000 3.449433 -74.032971
v 12.340000 3.828796 -74.130013
v 9.540000 3.828797 -74.130013
v 12.340000 4.170117 -74.321934
v 9.540000 4.170118 -74.321935
v 12.340000 4.450135 -74.595657
v 9.540000 4.450135 -74.595657
v 12.340000 4.649767 -74.932527
v 9.540000 4.649767 -74.932527
v 12.340000 4.755407 -75.309586
v 9.540000 4.755408 -75.309586
v 12.340000 4.759859 -75.701139
v 9.540000 4.759859 -75.701139
v 12.340000 4.662817 -76.080503
v 9.540000 4.662817 -76.080503
v 12.340000 4.470895 -76.421824
v 9.540000 4.470895 -76.421824
v 12.340000 4.197173 -76.701841
v 9.540000 4.197173 -76.701841
v 12.340000 3.860303 -76.901473
v 9.540000 3.860303 -76.901473
v 12.340000 3.483244 -77.007114
v 9.540000 3.483244 -77.007114
v 12.340000 3.091690 -77.011565
v 9.540000 3.091691 -77.011565
v 12.340000 2.712327 -76.914523
v 9.540000 2.712328 -76.914523
v 12.340000 2.371006 -76.722602
v 9.540000 2.371007 -76.722602
v 12.340000 2.090989 -76.448879
v 9.540002 22.232208 -73.979282
v 12.340002 22.032576 -73.642412
v 12.340002 22.232208 -73.979282
v 9.540002 22.032576 -73.642412
v 12.340002 21.926934 -73.265352
v 9.540002 21.926934 -73.265352
v 12.340002 21.922483 -72.873799
v 9.540002 21.922483 -72.873799
v 12.340002 22.019525 -72.494435
v 9.540002 22.019526 -72.494436
v 12.340002 22.211447 -72.153115
v 9.540002 22.211448 -72.153115
v 12.340002 22.485169 -71.873097
v 9.540002 22.485169 -71.873097
v 12.340002 22.822039 -71.673466
v 9.540002 22.822039 -71.673466
v 12.340002 23.199098 -71.567825
v 9.540002 23.199099 -71.567825
v 12.340002 23.590651 -71.563374
v 9.540002 23.590651 -71.563374
v 12.340002 23.970015 -71.660416
v 9.540002 23.970015 -71.660416
v 12.340002 24.311336 -71.852337
v 9.540002 24.311336 -71.852338
v 12.340002 24.591353 -72.126060
v 9.540002 24.591353 -72.126060
v 12.340002 24.790984 -72.462929
v 9.540002 24.790985 -72.462930
v 12.340002 24.896626 -72.839988
v 9.540002 24.896626 -72.839989
v 12.340002 24.901077 -73.231542
v 9.540002 24.901077 -73.231542
v 12.340002 24.804035 -73.610905
v 9.540002 24.804035 -73.610905
v 12.340002 24.612114 -73.952226
v 9.540002 24.612114 -73.952226
v 12.340002 24.338391 -74.232244
v 9.540002 24.338391 -74.232244
v 12.340002 24.001521 -74.431875
v 9.540002 24.001522 -74.431875
v 12.340002 23.624461 -74.537516
v 9.540002 23.624461 -74.537516
v 12.340002 23.232908 -74.541967
v 9.540002 23.232909 -74.541967
v 12.340002 22.853545 -74.444926
v 9.540002 22.853545 -74.444926
v 12.340002 22.512225 -74.253004
v 9.540002 22.512226 -74.253004
v 12.340002 22.232208 -73.979282
v 9.540001 10.866755 -77.502888
v 9.540000 8.507609 -79.356110
v 9.540001 10.771716 -77.381903
v 9.540000 4.470895 -76.421824
v 9.540000 4.662817 -76.080503
v 9.540000 4.759859 -75.701139
v 9.540001 8.689539 -85.253517
v 9.540001 11.441876 -83.091424
v 9.540000 5.755272 -81.518202
v 9.540000 3.091691 -77.011565
v 9.540000 3.483244 -77.007114
v 9.540000 3.860303 -76.901473
v 9.540000 4.197173 -76.701841
v 9.540000 3.396126 -83.371424
v 9.540000 2.712328 -76.914523
v 9.539999 -1.966485 -71.688426
v 9.539999 -2.148416 -65.791020
v 9.539999 0.785853 -69.526335
v 9.539999 -4.900751 -67.953112
v 9.540000 7.162226 -72.787032
v 9.540000 4.649767 -74.932527
v 9.540000 4.450135 -74.595657
v 9.540000 4.170118 -74.321935
v 9.540000 3.828797 -74.130013
v 9.540000 3.449433 -74.032971
v 9.540000 7.253542 -72.876749
v 9.540000 7.364646 -72.940338
v 9.540000 4.755408 -75.309586
v 9.540000 7.488256 -72.973631
v 9.540001 19.573296 -71.493248
v 9.540002 21.922483 -72.873799
v 9.540002 21.926934 -73.265352
v 9.540001 19.454531 -71.522907
v 9.540001 19.681296 -71.435619
v 9.540001 19.772056 -71.353475
v 9.540002 22.019526 -72.494436
v 9.540001 19.840135 -71.251740
v 9.540002 22.211448 -72.153115
v 9.540001 20.410585 -70.408276
v 9.540002 22.485169 -71.873097
v 9.540001 21.175519 -69.736176
v 9.540002 22.822039 -71.673466
v 9.540001 22.085370 -69.278994
v 9.540002 23.199099 -71.567825
v 9.540002 23.081174 -69.066357
v 9.540002 23.590651 -71.563374
v 9.540002 24.098405 -69.112043
v 9.540002 23.970015 -71.660416
v 9.540002 25.071139 -69.413092
v 9.540002 24.311336 -71.852338
v 9.540002 25.936343 -69.949996
v 9.540002 24.591353 -72.126060
v 9.540002 26.637948 -70.687963
v 9.540002 24.790985 -72.462930
v 9.540002 27.130488 -71.579168
v 9.540002 24.896626 -72.839989
v 9.540002 27.382046 -72.565860
v 9.540002 24.901077 -73.231542
v 9.540002 27.376321 -73.584098
v 9.540002 24.804035 -73.610905
v 9.540002 27.113682 -74.567900
v 9.540002 24.612114 -73.952226
v 9.540002 26.611152 -75.453510
v 9.540002 24.338391 -74.232244
v 9.540002 25.901292 -76.183539
v 9.540002 25.030103 -76.710679
v 9.540002 24.001522 -74.431875
v 9.540002 24.054046 -77.000771
v 9.540002 23.624461 -74.537516
v 9.540002 23.036367 -77.035015
v 9.540002 23.232909 -74.541967
v 9.540002 22.043016 -76.811192
v 9.540002 22.853545 -74.444926
v 9.540002 21.138365 -76.343807
v 9.540002 22.512226 -74.253004
v 9.540002 20.381035 -75.663147
v 9.540002 22.232208 -73.979282
v 9.540002 20.290394 -75.580874
v 9.540002 22.032576 -73.642412
v 9.540002 20.182477 -75.523091
v 9.540002 20.063754 -75.493261
v 9.540002 19.941342 -75.493174
v 9.540001 11.104055 -76.576750
v 9.540000 7.616268 -72.974445
v 9.540001 10.990190 -76.604553
v 9.540001 10.885925 -76.658100
v 9.540001 10.796992 -76.734450
v 9.540001 10.728277 -76.829405
v 9.540001 10.683556 -76.937750
v 9.540001 10.665287 -77.053528
v 9.540001 10.674474 -77.170378
v 9.540001 10.710612 -77.281879
v 12.340001 8.507609 -79.356110
v 12.340001 11.441876 -83.091424
v 9.540000 8.507609 -79.356110
v 9.540000 2.090989 -76.448879
v 9.540002 22.232208 -73.979282
v 9.540000 2.371007 -76.722602
v 9.540000 2.090989 -76.448879
v 9.539999 -4.325630 -73.541648
v 9.540000 1.891358 -76.112009
v 9.540000 1.785716 -75.734950
v 9.540000 1.781265 -75.343397
v 9.540000 1.878307 -74.964033
v 9.540000 2.070229 -74.622713
v 9.540000 2.343951 -74.342695
v 9.540000 2.680821 -74.143064
v 9.540000 3.057880 -74.037423
v 9.539999 3.144998 -67.673113
v 9.540001 11.441876 -83.091424
v 12.340001 11.441876 -83.091424
v 12.340001 8.689539 -85.253517
v 9.540001 11.441876 -83.091424
v 9.540001 8.689539 -85.253517
v 12.340001 8.689539 -85.253517
v 12.340000 5.755272 -81.518201
v 9.540001 8.689539 -85.253517
v 9.540000 5.755272 -81.518202
v 12.340000 5.755272 -81.518201
v 12.340000 3.396126 -83.371423
v 9.540000 5.755272 -81.518202
v 9.540000 3.396126 -83.371424
v 12.340000 3.396126 -83.371423
v 12.339999 -4.325630 -73.541648
v 9.540000 3.396126 -83.371424
v 9.539999 -4.325630 -73.541648
v 12.339999 -4.325630 -73.541648
v 12.339999 -1.966485 -71.688426
v 9.539999 -4.325630 -73.541648
v 9.539999 -1.966485 -71.688426
v 12.339999 -1.966485 -71.688426
v 12.339999 -4.900752 -67.953112
v 9.539999 -1.966485 -71.688426
v 9.539999 -4.900751 -67.953112
v 12.339999 -4.900752 -67.953112
v 12.339999 -2.148416 -65.791020
v 9.539999 -4.900751 -67.953112
v 9.539999 -2.148416 -65.791020
v 12.339999 -2.148416 -65.791020
v 12.339999 0.785853 -69.526334
v 9.539999 -2.148416 -65.791020
v 9.539999 0.785853 -69.526335
v 12.339999 0.785853 -69.526334
v 12.340000 3.144998 -67.673113
v 9.539999 0.785853 -69.526335
v 9.539999 3.144998 -67.673113
v 12.340000 3.144998 -67.673113
v 12.340000 7.162225 -72.787032
v 9.539999 3.144998 -67.673113
v 9.540000 7.162226 -72.787032
v 9.540000 7.162226 -72.787032
v 12.340000 7.162225 -72.787032
v 9.540000 7.253542 -72.876749
v 12.340000 7.253541 -72.876749
v 9.540000 7.364646 -72.940338
v 12.340000 7.364646 -72.940338
v 9.540000 7.488256 -72.973631
v 12.340000 7.488256 -72.973631
v 9.540000 7.616268 -72.974445
v 12.340000 7.616268 -72.974445
v 12.340000 7.616268 -72.974445
v 12.340001 19.454531 -71.522907
v 9.540000 7.616268 -72.974445
v 9.540001 19.454531 -71.522907
v 9.540001 19.454531 -71.522907
v 12.340001 19.454531 -71.522907
v 9.540001 19.573296 -71.493248
v 12.340001 19.573296 -71.493248
v 9.540001 19.681296 -71.435619
v 12.340001 19.681296 -71.435619
v 9.540001 19.772056 -71.353475
v 12.340001 19.772055 -71.353475
v 9.540001 19.840135 -71.251740
v 12.340001 19.840135 -71.251740
v 9.540001 19.840135 -71.251740
v 12.340001 19.840135 -71.251740
v 9.540001 20.410585 -70.408276
v 12.340002 20.410585 -70.408276
v 9.540001 21.175519 -69.736176
v 12.340002 21.175519 -69.736176
v 9.540001 22.085370 -69.278994
v 12.340002 22.085370 -69.278994
v 9.540002 23.081174 -69.066357
v 12.340002 23.081174 -69.066357
v 9.540002 24.098405 -69.112043
v 12.340002 24.098405 -69.112043
v 9.540002 25.071139 -69.413092
v 12.340002 25.071139 -69.413092
v 9.540002 25.936343 -69.949996
v 12.340002 25.936342 -69.949996
v 9.540002 26.637948 -70.687963
v 12.340002 26.637948 -70.687963
v 9.540002 27.130488 -71.579168
v 12.340002 27.130487 -71.579168
v 9.540002 27.382046 -72.565860
v 12.340002 27.382046 -72.565860
v 9.540002 27.376321 -73.584098
v 12.340002 27.376321 -73.584098
v 9.540002 27.113682 -74.567900
v 12.340002 27.113682 -74.567900
v 9.540002 26.611152 -75.453510
v 12.340002 26.611151 -75.453510
v 9.540002 25.901292 -76.183539
v 12.340002 25.901291 -76.183539
v 9.540002 25.030103 -76.710679
v 12.340002 25.030103 -76.710679
v 9.540002 24.054046 -77.000771
v 12.340002 24.054046 -77.000771
v 9.540002 23.036367 -77.035015
v 12.340002 23.036366 -77.035015
v 9.540002 22.043016 -76.811192
v 12.340002 22.043015 -76.811192
v 9.540002 21.138365 -76.343807
v 12.340002 21.138365 -76.343807
v 9.540002 20.381035 -75.663147
v 12.340002 20.381035 -75.663147
v 9.540002 20.381035 -75.663147
v 12.340002 20.381035 -75.663147
v 9.540002 20.290394 -75.580874
v 12.340002 20.290393 -75.580873
v 9.540002 20.182477 -75.523091
v 12.340002 20.182477 -75.523091
v 9.540002 20.063754 -75.493261
v 12.340002 20.063754 -75.493261
v 9.540002 19.941342 -75.493174
v 12.340002 19.941342 -75.493174
v 12.340002 19.941342 -75.493174
v 12.340001 11.104055 -76.576749
v 9.540002 19.941342 -75.493174
v 9.540001 11.104055 -76.576750
v 9.540001 11.104055 -76.576750
v 12.340001 11.104055 -76.576749
v 9.540001 10.990190 -76.604553
v 12.340001 10.990189 -76.604552
v 12.340001 10.885925 -76.658100
v 9.540001 10.885925 -76.658100
v 12.340001 10.796992 -76.734449
v 9.540001 10.796992 -76.734450
v 12.340001 10.728276 -76.829405
v 9.540001 10.728277 -76.829405
v 12.340001 10.683556 -76.937750
v 9.540001 10.683556 -76.937750
v 12.340001 10.665287 -77.053528
v 9.540001 10.665287 -77.053528
v 12.340001 10.674474 -77.170378
v 9.540001 10.674474 -77.170378
v 12.340001 10.710612 -77.281879
v 9.540001 10.710612 -77.281879
v 9.540001 10.771716 -77.381903
v 12.340001 10.771715 -77.381903
v 12.340001 10.771715 -77.381903
v 12.340001 10.866755 -77.502888
v 9.540001 10.771716 -77.381903
v 9.540001 10.866755 -77.502888
v 12.340001 10.866755 -77.502888
v 12.340001 8.507609 -79.356110
v 9.540001 10.866755 -77.502888
v 9.540000 8.507609 -79.356110
v 12.340000 1.891357 -76.112009
v 12.339999 -4.325630 -73.541648
v 12.340000 2.090989 -76.448879
v 12.340000 1.785716 -75.734950
v 12.340000 1.781265 -75.343397
v 12.339999 -1.966485 -71.688426
v 12.340000 3.396126 -83.371423
v 12.340000 2.371006 -76.722602
v 12.340000 2.712327 -76.914523
v 12.340000 3.091690 -77.011565
v 12.340000 5.755272 -81.518201
v 12.340000 3.483244 -77.007114
v 12.340001 11.441876 -83.091424
v 12.340001 8.507609 -79.356110
v 12.340000 3.860303 -76.901473
v 12.340000 4.197173 -76.701841
v 12.340000 4.470895 -76.421824
v 12.340001 10.771715 -77.381903
v 12.340001 10.710612 -77.281879
v 12.340001 10.674474 -77.170378
v 12.340001 10.665287 -77.053528
v 12.340001 10.683556 -76.937750
v 12.340000 4.662817 -76.080503
v 12.340000 4.759859 -75.701139
v 12.340000 7.616268 -72.974445
v 12.340001 10.728276 -76.829405
v 12.340001 10.796992 -76.734449
v 12.340000 1.878307 -74.964033
v 12.340000 2.070228 -74.622713
v 12.340000 2.343951 -74.342695
v 12.339999 0.785853 -69.526334
v 12.339999 -4.900752 -67.953112
v 12.340000 2.680821 -74.143064
v 12.340000 3.057880 -74.037422
v 12.340000 3.449433 -74.032971
v 12.339999 -2.148416 -65.791020
v 12.340000 7.162225 -72.787032
v 12.340000 3.144998 -67.673113
v 12.340000 3.828796 -74.130013
v 12.340000 4.170117 -74.321934
v 12.340000 4.450135 -74.595657
v 12.340000 4.649767 -74.932527
v 12.340000 7.364646 -72.940338
v 12.340000 7.253541 -72.876749
v 12.340000 4.755407 -75.309586
v 12.340000 7.488256 -72.973631
v 12.340002 22.032576 -73.642412
v 12.340002 20.290393 -75.580873
v 12.340002 22.232208 -73.979282
v 12.340002 20.063754 -75.493261
v 12.340002 20.182477 -75.523091
v 12.340002 20.381035 -75.663147
v 12.340002 22.512225 -74.253004
v 12.340002 21.138365 -76.343807
v 12.340002 22.853545 -74.444926
v 12.340002 22.043015 -76.811192
v 12.340002 23.232908 -74.541967
v 12.340002 23.036366 -77.035015
v 12.340002 23.624461 -74.537516
v 12.340002 24.054046 -77.000771
v 12.340002 24.001521 -74.431875
v 12.340002 25.030103 -76.710679
v 12.340002 24.338391 -74.232244
v 12.340002 25.901291 -76.183539
v 12.340002 26.611151 -75.453510
v 12.340002 24.612114 -73.952226
v 12.340002 21.926934 -73.265352
v 12.340001 19.573296 -71.493248
v 12.340001 19.454531 -71.522907
v 12.340002 19.941342 -75.493174
v 12.340002 21.922483 -72.873799
v 12.340001 19.772055 -71.353475
v 12.340001 19.681296 -71.435619
v 12.340001 11.104055 -76.576749
v 12.340001 10.990189 -76.604552
v 12.340001 10.885925 -76.658100
v 12.340002 22.019525 -72.494435
v 12.340001 19.840135 -71.251740
v 12.340002 22.211447 -72.153115
v 12.340002 20.410585 -70.408276
v 12.340002 22.485169 -71.873097
v 12.340002 21.175519 -69.736176
v 12.340002 22.822039 -71.673466
v 12.340002 22.085370 -69.278994
v 12.340002 23.199098 -71.567825
v 12.340002 23.081174 -69.066357
v 12.340002 23.590651 -71.563374
v 12.340002 24.098405 -69.112043
v 12.340002 23.970015 -71.660416
v 12.340002 25.071139 -69.413092
v 12.340002 24.311336 -71.852337
v 12.340002 25.936342 -69.949996
v 12.340002 24.591353 -72.126060
v 12.340002 26.637948 -70.687963
v 12.340002 24.790984 -72.462929
v 12.340002 27.130487 -71.579168
v 12.340002 24.896626 -72.839988
v 12.340002 27.382046 -72.565860
v 12.340002 24.901077 -73.231542
v 12.340002 27.376321 -73.584098
v 12.340002 24.804035 -73.610905
v 12.340002 27.113682 -74.567900
v 12.340001 10.866755 -77.502888
v 12.340001 8.689539 -85.253517
f 1 2 3
f 1 4 2
f 2 4 5
f 4 6 5
f 5 6 7
f 6 8 7
f 7 8 9
f 8 10 9
f 9 10 11
f 10 12 11
f 11 12 13
f 12 14 13
f 13 14 15
f 14 16 15
f 15 16 17
f 16 18 17
f 17 18 19
f 18 20 19
f 19 20 21
f 20 22 21
f 21 22 23
f 22 24 23
f 23 24 25
f 24 26 25
f 25 26 27
f 26 28 27
f 27 28 29
f 28 30 29
f 29 30 31
f 30 32 31
f 31 32 33
f 32 34 33
f 33 34 35
f 34 36 35
f 35 36 37
f 36 38 37
f 37 38 39
f 38 40 39
f 39 40 41
f 40 42 41
f 41 42 43
f 42 44 43
f 43 44 45
f 44 46 45
f 45 46 47
f 46 48 47
f 47 48 49
f 48 194 49
f 50 51 52
f 50 53 51
f 51 53 54
f 53 55 54
f 54 55 56
f 55 57 56
f 56 57 58
f 57 59 58
f 58 59 60
f 59 61 60
f 60 61 62
f 61 63 62
f 62 63 64
f 63 65 64
f 64 65 66
f 65 67 66
f 66 67 68
f 67 69 68
f 68 69 70
f 69 71 70
f 70 71 72
f 71 73 72
f 72 73 74
f 73 75 74
f 74 75 76
f 75 77 76
f 76 77 78
f 77 79 78
f 78 79 80
f 79 81 80
f 80 81 82
f 81 83 82
f 82 83 84
f 83 85 84
f 84 85 86
f 85 87 86
f 86 87 88
f 87 89 88
f 88 89 90
f 89 91 90
f 90 91 92
f 91 93 92
f 92 93 94
f 93 95 94
f 94 95 96
f 95 97 96
f 96 97 98
f 97 195 98
f 99 100 101
f 100 102 103
f 100 103 104
f 100 106 105
f 100 107 111
f 100 105 107
f 100 104 187
f 100 187 188
f 100 188 189
f 100 189 190
f 100 190 101
f 100 111 102
f 104 127 182
f 104 182 187
f 104 126 127
f 107 108 109
f 107 109 110
f 107 112 108
f 107 110 111
f 108 112 113
f 112 197 196
f 112 196 113
f 112 198 197
f 114 115 116
f 114 117 115
f 114 201 198
f 114 202 201
f 114 203 202
f 114 204 203
f 114 116 204
f 116 205 204
f 116 206 205
f 116 123 206
f 116 207 123
f 118 119 120
f 118 120 121
f 118 122 123
f 118 124 119
f 118 123 207
f 118 121 122
f 119 125 126
f 119 124 125
f 125 127 126
f 128 129 130
f 128 130 131
f 128 132 129
f 129 133 134
f 129 132 133
f 130 177 179
f 130 180 131
f 130 179 180
f 131 181 182
f 131 180 181
f 133 135 134
f 134 135 136
f 135 137 136
f 136 137 138
f 137 139 138
f 138 139 140
f 139 141 140
f 140 141 142
f 141 143 142
f 142 143 144
f 143 145 144
f 144 145 146
f 145 147 146
f 146 147 148
f 147 149 148
f 148 149 150
f 149 151 150
f 150 151 152
f 151 153 152
f 152 153 154
f 153 155 154
f 154 155 156
f 155 157 156
f 156 157 158
f 157 159 158
f 158 159 160
f 159 161 160
f 160 161 162
f 161 163 162
f 162 164 165
f 162 163 164
f 164 166 165
f 165 166 167
f 166 168 167
f 167 168 169
f 168 170 169
f 169 170 171
f 170 172 171
f 171 172 173
f 172 174 173
f 173 174 175
f 174 176 175
f 175 176 177
f 176 178 177
f 177 178 179
f 181 183 182
f 182 183 184
f 182 184 185
f 182 185 186
f 182 186 187
f 191 192 193
f 192 208 193
f 197 198 199
f 198 200 199
f 198 201 200
f 209 210 211
f 210 212 211
f 213 214 215
f 214 216 215
f 217 218 219
f 218 220 219
f 221 222 223
f 222 224 223
f 225 226 227
f 226 228 227
f 229 230 231
f 230 232 231
f 233 234 235
f 234 236 235
f 237 238 239
f 238 240 239
f 241 242 243
f 242 244 243
f 245 246 247
f 246 248 247
f 249 250 251
f 250 252 251
f 251 252 253
f 252 254 253
f 253 254 255
f 254 256 255
f 255 256 257
f 256 258 257
f 259 260 261
f 260 262 261
f 263 264 265
f 264 266 265
f 265 266 267
f 266 268 267
f 267 268 269
f 268 270 269
f 269 270 271
f 270 272 271
f 273 274 275
f 274 276 275
f 275 276 277
f 276 278 277
f 277 278 279
f 278 280 279
f 279 280 281
f 280 282 281
f 281 282 283
f 282 284 283
f 283 284 285
f 284 286 285
f 285 286 287
f 286 288 287
f 287 288 289
f 288 290 289
f 289 290 291
f 290 292 291
f 291 292 293
f 292 294 293
f 293 294 295
f 294 296 295
f 295 296 297
f 296 298 297
f 297 298 299
f 298 300 299
f 299 300 301
f 300 302 301
f 301 302 303
f 302 304 303
f 303 304 305
f 304 306 305
f 305 306 307
f 306 308 307
f 307 308 309
f 308 310 309
f 309 310 311
f 310 312 311
f 311 312 313
f 312 314 313
f 315 316 317
f 316 318 317
f 317 318 319
f 318 320 319
f 319 320 321
f 320 322 321
f 321 322 323
f 322 324 323
f 325 326 327
f 326 328 327
f 329 330 331
f 330 332 331
f 331 332 333
f 331 333 334
f 333 335 334
f 334 335 336
f 335 337 336
f 336 337 338
f 337 339 338
f 338 339 340
f 339 341 340
f 340 341 342
f 341 343 342
f 342 343 344
f 343 345 344
f 344 345 346
f 345 347 346
f 345 348 347
f 349 350 351
f 350 352 351
f 353 354 355
f 354 356 355
f 357 358 359
f 357 360 358
f 358 360 361
f 358 361 362
f 358 363 359
f 359 363 364
f 361 384 362
f 362 384 385
f 362 386 387
f 362 387 388
f 362 385 386
f 363 365 364
f 363 366 365
f 363 367 366
f 366 367 368
f 367 369 370
f 367 371 368
f 367 372 371
f 367 370 372
f 367 460 369
f 370 373 372
f 370 374 375
f 370 375 376
f 370 377 378
f 370 379 373
f 370 380 379
f 370 378 380
f 370 459 374
f 370 376 377
f 378 381 380
f 378 382 381
f 380 402 401
f 380 381 402
f 381 382 383
f 381 430 425
f 381 431 430
f 381 432 431
f 381 383 432
f 386 389 387
f 387 389 390
f 387 390 391
f 387 392 388
f 387 391 394
f 391 393 394
f 391 395 393
f 393 395 396
f 393 396 397
f 393 397 398
f 393 398 400
f 398 399 400
f 398 401 399
f 399 401 402
f 403 404 405
f 403 406 407
f 403 407 404
f 403 423 406
f 404 408 405
f 405 408 409
f 406 423 426
f 408 410 409
f 409 410 411
f 410 412 411
f 411 412 413
f 412 414 413
f 413 414 415
f 414 416 415
f 415 416 417
f 416 418 417
f 417 418 419
f 418 420 419
f 419 420 421
f 419 421 422
f 421 458 422
f 422 458 457
f 423 424 425
f 423 425 426
f 423 427 424
f 424 427 429
f 425 430 426
f 427 428 429
f 427 433 428
f 428 433 434
f 433 435 434
f 434 435 436
f 435 437 436
f 436 437 438
f 437 439 438
f 438 439 440
f 439 441 440
f 440 441 442
f 441 443 442
f 442 443 444
f 443 445 444
f 444 445 446
f 445 447 446
f 446 447 448
f 447 449 448
f 448 449 450
f 449 451 450
f 450 451 452
f 451 453 452
f 452 453 454
f 453 455 454
f 454 455 456
f 455 457 456
f 456 457 458