# Part20
# Autodesk dbId: 142
# Units: mm
o 142_Part20
v 9.339999 2.987722 -67.796661
v 9.339999 -2.611720 -65.201235
v 9.339999 -0.409851 -63.471561
v 9.339999 0.785853 -69.526335
v -3.160001 0.785853 -69.526336
v -3.160001 -0.409851 -63.471562
v -3.160001 -2.611720 -65.201236
v -3.160001 2.987722 -67.796662
v 9.340000 8.507610 -79.356109
v 9.340001 14.107052 -81.951535
v 9.340001 11.905182 -83.681209
v 9.340000 10.709479 -77.626435
v -3.160000 10.709479 -77.626436
v -3.159999 11.905183 -83.681210
v -3.159999 14.107052 -81.951536
v -3.160000 8.507610 -79.356110
v -9.410001 -4.464942 -62.842090
v -6.160001 0.785853 -69.526336
v -7.425546 -3.152243 -64.513152
v -7.600371 -3.412971 -64.181246
v -9.409999 13.758405 -86.040356
v -7.600368 13.266024 -85.413557
v -7.659999 12.986229 -85.057379
v -7.600368 12.706434 -84.701200
v -9.341851 14.078170 -86.447417
v -8.824213 14.632021 -87.152468
v -8.409998 14.828362 -87.402409
v -7.425543 13.526751 -85.745462
v -7.409998 14.993885 -87.613119
v -5.034999 13.922442 -86.249175
v -5.457065 14.030439 -86.386654
v -5.909998 14.067274 -86.433546
v -6.362932 14.030439 -86.386654
v -6.784999 13.922442 -86.249175
v -7.147435 13.750643 -86.030476
v 13.590001 14.993885 -87.613117
v 13.327437 13.750643 -86.030474
v 12.965001 13.922442 -86.249174
v 12.542934 14.030438 -86.386653
v 12.090001 14.067274 -86.433545
v 11.637067 14.030438 -86.386653
v 11.215001 13.922442 -86.249174
v 14.107640 14.951787 -87.559527
v 14.590001 14.828362 -87.402407
v 15.322052 14.376145 -86.826736
v 15.521853 14.078170 -86.447415
v 13.605546 13.526751 -85.745460
v 15.004212 -5.338559 -61.729977
v 14.589998 -5.534900 -61.480035
v 13.605543 -4.233289 -63.136982
v 13.589998 -5.700423 -61.269325
v 11.214998 -4.628980 -62.633269
v 11.637065 -4.736976 -62.495790
v 12.089998 -4.773812 -62.448898
v 12.542932 -4.736976 -62.495790
v 12.964999 -4.628980 -62.633269
v 13.327435 -4.457181 -62.851968
v -7.410001 -5.700422 -61.269327
v -7.147437 -4.457181 -62.851970
v -6.785001 -4.628979 -62.633271
v -6.362934 -4.736976 -62.495792
v -5.910001 -4.773812 -62.448900
v -5.457067 -4.736976 -62.495792
v -5.035001 -4.628979 -62.633271
v -7.927640 -5.658324 -61.322918
v -8.410001 -5.534899 -61.480037
v -9.142052 -5.082682 -62.055708
v -9.341853 -4.784707 -62.435029
v -7.425546 -4.233288 -63.136984
v -4.160000 12.986229 -85.057378
v -3.159999 11.905183 -83.681210
v -4.219629 12.706434 -84.701200
v -4.219629 13.266024 -85.413557
v -7.927637 14.951787 -87.559529
v -9.142050 14.376145 -86.826738
v -7.425544 12.445706 -84.369294
v -6.160000 8.507610 -79.356110
v -7.147435 12.221814 -84.084281
v -6.784999 12.050016 -83.865582
v -6.362932 11.942019 -83.728102
v -5.909999 11.905183 -83.681210
v -5.457065 11.942019 -83.728102
v -3.160000 8.507610 -79.356110
v -5.034999 12.050016 -83.865582
v -4.672562 12.221814 -84.084281
v -4.394454 12.445706 -84.369294
v 13.840001 12.986228 -85.057377
v 15.590001 13.758404 -86.040354
v 13.780370 12.706433 -84.701199
v 13.780371 13.266024 -85.413555
v 15.004215 14.632021 -87.152466
v -4.672562 13.750643 -86.030476
v 10.852564 13.750643 -86.030475
v -4.394454 13.526751 -85.745462
v 10.574456 13.526751 -85.745461
v 10.399631 13.266024 -85.413556
v 9.340001 11.905182 -83.681209
v 10.340002 12.986229 -85.057377
v 10.399631 12.706433 -84.701199
v 10.574456 12.445705 -84.369293
v 10.852564 12.221814 -84.084280
v 11.215001 12.050015 -83.865580
v 9.340000 8.507610 -79.356109
v 11.637067 11.942018 -83.728100
v 12.340001 8.507609 -79.356108
v 12.090000 11.905182 -83.681208
v 12.542934 11.942018 -83.728100
v 12.965001 12.050015 -83.865580
v 13.327437 12.221814 -84.084279
v 13.605546 12.445705 -84.369293
v -4.394456 -3.152243 -64.513152
v -4.672564 -2.928351 -64.798165
v -3.160001 -2.611720 -65.201236
v -6.362934 -2.648556 -65.154344
v -6.785001 -2.756553 -65.016864
v -7.660001 -3.692766 -63.825068
v -7.600371 -3.972561 -63.468889
v -8.824215 -5.338558 -61.729979
v 10.852562 -4.457181 -62.851969
v -4.672564 -4.457181 -62.851970
v -4.219631 -3.972561 -63.468889
v -4.160002 -3.692766 -63.825067
v 13.839999 -3.692766 -63.825066
v 15.589999 -4.464942 -62.842088
v 13.780368 -3.972562 -63.468888
v 13.780368 -3.412971 -64.181244
v 13.605544 -3.152243 -64.513150
v 13.327435 -2.928352 -64.798163
v 12.340000 0.785853 -69.526335
v 12.542932 -2.648556 -65.154343
v 12.089999 -2.611720 -65.201235
v 10.574454 -3.152243 -64.513150
v 10.399629 -3.412971 -64.181244
v 9.339999 -2.611720 -65.201235
v 10.399629 -3.972561 -63.468888
v -4.394457 -4.233289 -63.136984
v 10.574454 -4.233289 -63.136983
v 14.107637 -5.658325 -61.322916
v 15.521851 -4.784708 -62.435027
v 15.322050 -5.082683 -62.055706
v -5.457067 -2.648556 -65.154344
v -5.910001 -2.611720 -65.201236
v -7.147437 -2.928351 -64.798165
v 12.964999 -2.756553 -65.016863
v 11.637065 -2.648556 -65.154343
v 9.339999 0.785853 -69.526335
v 13.839999 -1.490897 -62.095392
v 13.780368 -3.412971 -64.181244
v 13.839999 -3.692766 -63.825066
v 13.780368 -1.211102 -62.451571
v 13.605544 -3.152243 -64.513150
v 13.605543 -0.950374 -62.783477
v 13.327435 -2.928352 -64.798163
v 13.327435 -0.726483 -63.068490
v 12.964999 -2.756553 -65.016863
v 12.964999 -0.554684 -63.287189
v 12.542932 -2.648556 -65.154343
v 12.542932 -0.446687 -63.424669
v 12.089999 -2.611720 -65.201235
v 12.089999 -0.409851 -63.471561
v 11.637065 -2.648556 -65.154343
v 11.637065 -0.446687 -63.424669
v 11.214999 -2.756553 -65.016863
v 11.214999 -0.554684 -63.287189
v 10.852562 -2.928352 -64.798164
v 10.852562 -0.726483 -63.068490
v 10.574454 -3.152243 -64.513150
v 10.574454 -0.950374 -62.783477
v 10.399629 -3.412971 -64.181244
v 10.399629 -1.211102 -62.451571
v 10.339999 -3.692766 -63.825066
v 10.339999 -1.490897 -62.095393
v 10.399629 -3.972561 -63.468888
v 10.399629 -1.770692 -61.739214
v 10.574454 -4.233289 -63.136983
v 10.574454 -2.031420 -61.407309
v 10.852562 -4.457181 -62.851969
v 10.852562 -2.255312 -61.122295
v 11.214998 -4.628980 -62.633269
v 11.214998 -2.427110 -60.903596
v 11.637065 -4.736976 -62.495790
v 11.637065 -2.535107 -60.766117
v 12.089998 -4.773812 -62.448898
v 12.089998 -2.571943 -60.719225
v 12.542932 -4.736976 -62.495790
v 12.542932 -2.535107 -60.766117
v 12.964999 -4.628980 -62.633269
v 12.964999 -2.427110 -60.903596
v 13.327435 -4.457181 -62.851968
v 13.327435 -2.255312 -61.122295
v 13.605543 -4.233289 -63.136982
v 13.605543 -2.031420 -61.407309
v 13.780368 -3.972562 -63.468888
v 13.780368 -1.770692 -61.739214
v 13.839999 -3.692766 -63.825066
v -4.160002 -1.490897 -62.095394
v -4.219631 -3.412971 -64.181246
v -4.160002 -3.692766 -63.825067
v -4.219631 -1.211102 -62.451572
v -4.394456 -3.152243 -64.513152
v -4.394457 -0.950374 -62.783478
v -4.672564 -2.928351 -64.798165
v -4.672564 -0.726482 -63.068491
v -5.035001 -2.756553 -65.016864
v -5.035001 -0.554684 -63.287191
v -5.457067 -2.648556 -65.154344
v -5.457067 -0.446686 -63.424671
v -5.910001 -2.611720 -65.201236
v -5.910001 -0.409850 -63.471563
v -6.362934 -2.648556 -65.154344
v -6.362934 -0.446686 -63.424671
v -6.785001 -2.756553 -65.016864
v -6.785001 -0.554683 -63.287191
v -7.147437 -2.928351 -64.798165
v -7.147437 -0.726482 -63.068492
v -7.425546 -3.152243 -64.513152
v -7.425546 -0.950374 -62.783478
v -7.600371 -3.412971 -64.181246
v -7.600371 -1.211102 -62.451572
v -7.660001 -3.692766 -63.825068
v -7.660001 -1.490897 -62.095394
v -7.600371 -3.972561 -63.468889
v -7.600371 -1.770692 -61.739216
v -7.425546 -4.233288 -63.136984
v -7.425546 -2.031419 -61.407311
v -7.147437 -4.457181 -62.851970
v -7.147437 -2.255311 -61.122297
v -6.785001 -4.628979 -62.633271
v -6.785002 -2.427110 -60.903597
v -6.362934 -4.736976 -62.495792
v -6.362934 -2.535106 -60.766118
v -5.910001 -4.773812 -62.448900
v -5.910001 -2.571942 -60.719226
v -5.457067 -4.736976 -62.495792
v -5.457067 -2.535106 -60.766118
v -5.035001 -4.628979 -62.633271
v -5.035001 -2.427110 -60.903597
v -4.672564 -4.457181 -62.851970
v -4.672565 -2.255311 -61.122296
v -4.394457 -4.233289 -63.136984
v -4.394457 -2.031419 -61.407310
v -4.219631 -3.972561 -63.468889
v -4.219631 -1.770692 -61.739215
v -4.160002 -3.692766 -63.825067
v 13.840001 15.188098 -83.327703
v 13.780371 13.266024 -85.413555
v 13.840001 12.986228 -85.057377
v 13.780370 15.467893 -83.683882
v 13.605546 13.526751 -85.745460
v 13.605546 15.728620 -84.015787
v 13.327437 13.750643 -86.030474
v 13.327437 15.952512 -84.300801
v 12.965001 13.922442 -86.249174
v 12.965001 16.124311 -84.519500
v 12.542934 14.030438 -86.386653
v 12.542934 16.232307 -84.656979
v 12.090001 14.067274 -86.433545
v 12.090001 16.269143 -84.703871
v 11.637067 14.030438 -86.386653
v 11.637067 16.232307 -84.656979
v 11.215001 13.922442 -86.249174
v 11.215001 16.124311 -84.519500
v 10.852564 13.750643 -86.030475
v 10.852564 15.952512 -84.300801
v 10.574456 13.526751 -85.745461
v 10.574456 15.728620 -84.015787
v 10.399631 13.266024 -85.413556
v 10.399631 15.467893 -83.683882
v 10.340002 12.986229 -85.057377
v 10.340001 15.188098 -83.327704
v 10.399631 12.706433 -84.701199
v 10.399631 14.908303 -82.971525
v 10.574456 12.445705 -84.369293
v 10.574456 14.647575 -82.639619
v 10.852564 12.221814 -84.084280
v 10.852564 14.423683 -82.354606
v 11.215001 12.050015 -83.865580
v 11.215001 14.251885 -82.135907
v 11.637067 11.942018 -83.728100
v 11.637067 14.143887 -81.998427
v 12.090000 11.905182 -83.681208
v 12.090000 14.107051 -81.951535
v 12.542934 11.942018 -83.728100
v 12.542934 14.143887 -81.998427
v 12.965001 12.050015 -83.865580
v 12.965001 14.251884 -82.135907
v 13.327437 12.221814 -84.084279
v 13.327437 14.423683 -82.354606
v 13.605546 12.445705 -84.369293
v 13.605545 14.647575 -82.639619
v 13.780370 12.706433 -84.701199
v 13.780370 14.908303 -82.971525
v 13.840001 12.986228 -85.057377
v -4.160000 15.188098 -83.327705
v -4.219629 13.266024 -85.413557
v -4.160000 12.986229 -85.057378
v -4.219629 15.467893 -83.683883
v -4.394454 13.526751 -85.745462
v -4.394454 15.728621 -84.015788
v -4.672562 13.750643 -86.030476
v -4.672562 15.952513 -84.300802
v -5.034999 13.922442 -86.249175
v -5.034999 16.124311 -84.519502
v -5.457065 14.030439 -86.386654
v -5.457065 16.232308 -84.656981
v -5.909998 14.067274 -86.433546
v -5.909999 16.269144 -84.703873
v -6.362932 14.030439 -86.386654
v -6.362932 16.232308 -84.656981
v -6.784999 13.922442 -86.249175
v -6.784999 16.124311 -84.519502
v -7.147435 13.750643 -86.030476
v -7.147435 15.952513 -84.300803
v -7.425543 13.526751 -85.745462
v -7.425544 15.728621 -84.015789
v -7.600368 13.266024 -85.413557
v -7.600369 15.467893 -83.683883
v -7.659999 12.986229 -85.057379
v -7.659999 15.188098 -83.327705
v -7.600368 12.706434 -84.701200
v -7.600369 14.908303 -82.971527
v -7.425544 12.445706 -84.369294
v -7.425544 14.647575 -82.639621
v -7.147435 12.221814 -84.084281
v -7.147435 14.423684 -82.354608
v -6.784999 12.050016 -83.865582
v -6.784999 14.251885 -82.135908
v -6.362932 11.942019 -83.728102
v -6.362932 14.143888 -81.998428
v -5.909999 11.905183 -83.681210
v -5.909999 14.107052 -81.951536
v -5.457065 11.942019 -83.728102
v -5.457065 14.143888 -81.998428
v -5.034999 12.050016 -83.865582
v -5.034999 14.251885 -82.135908
v -4.672562 12.221814 -84.084281
v -4.672562 14.423684 -82.354607
v -4.394454 12.445706 -84.369294
v -4.394455 14.647575 -82.639621
v -4.219629 12.706434 -84.701200
v -4.219629 14.908303 -82.971527
v -4.160000 12.986229 -85.057378
v -9.409999 15.960274 -84.310683
v -9.341851 14.078170 -86.447417
v -9.409999 13.758405 -86.040356
v -9.341851 16.280040 -84.717744
v -9.142050 14.376145 -86.826738
v -9.142050 16.578014 -85.097065
v -8.824213 14.632021 -87.152468
v -8.824213 16.833891 -85.422794
v -8.409998 14.828362 -87.402409
v -8.409998 17.030232 -85.672736
v -7.927637 14.951787 -87.559529
v -7.927637 17.153656 -85.829855
v -7.409998 14.993885 -87.613119
v -7.409998 17.195754 -85.883446
v 13.590001 17.195754 -85.883444
v -7.409998 14.993885 -87.613119
v -7.409998 17.195754 -85.883446
v 14.107640 17.153656 -85.829853
v 14.590001 14.828362 -87.402407
v 14.107640 14.951787 -87.559527
v 13.590001 17.195754 -85.883444
v 14.590001 17.030231 -85.672734
v 15.004215 14.632021 -87.152466
v 15.004215 16.833890 -85.422792
v 15.322052 14.376145 -86.826736
v 15.322052 16.578014 -85.097063
v 15.521853 14.078170 -86.447415
v 15.521853 16.280039 -84.717742
v 15.590001 13.758404 -86.040354
v 15.590001 15.960273 -84.310681
v 15.589999 -2.263073 -61.112415
v 15.590001 13.758404 -86.040354
v 15.590001 15.960273 -84.310681
v 15.521850 -2.582839 -60.705354
v 15.322050 -5.082683 -62.055706
v 15.521851 -4.784708 -62.435027
v 15.589999 -2.263073 -61.112415
v 15.322050 -2.880813 -60.326033
v 15.004212 -5.338559 -61.729977
v 15.004212 -3.136690 -60.000303
v 14.589998 -5.534900 -61.480035
v 14.589998 -3.333031 -59.750362
v 14.107637 -5.658325 -61.322916
v 14.107637 -3.456455 -59.593242
v 13.589998 -5.700423 -61.269325
v 13.589998 -3.498553 -59.539652
v -7.410001 -3.498553 -59.539654
v 13.589998 -5.700423 -61.269325
v 13.589998 -3.498553 -59.539652
v -7.927640 -3.456455 -59.593244
v -8.410001 -5.534899 -61.480037
v -7.927640 -5.658324 -61.322918
v -7.410001 -3.498553 -59.539654
v -8.410001 -3.333030 -59.750364
v -8.824215 -5.338558 -61.729979
v -8.824215 -3.136689 -60.000305
v -9.142052 -5.082682 -62.055708
v -9.142052 -2.880813 -60.326035
v -9.341853 -4.784707 -62.435029
v -9.341853 -2.582838 -60.705356
v -9.410001 -4.464942 -62.842090
v -9.410001 -2.263072 -61.112417
v 9.339999 -2.611720 -65.201235
v -3.160001 -2.611720 -65.201236
v 9.339999 -0.409851 -63.471561
v -3.160001 -0.409851 -63.471562
v -3.159999 11.905183 -83.681210
v 9.340001 11.905182 -83.681209
v -3.159999 14.107052 -81.951536
v 9.340001 14.107052 -81.951535
v -3.160000 10.709479 -77.626436
v -6.160000 10.709479 -77.626436
v -3.160000 8.507610 -79.356110
v -6.160000 8.507610 -79.356110
v -4.219631 -3.412971 -64.181246
v -5.035001 -2.756553 -65.016864
v -3.160001 0.785853 -69.526336
v 11.214999 -2.756553 -65.016863
v 10.852562 -2.928352 -64.798164
v 10.339999 -3.692766 -63.825066
v -3.160001 0.785853 -69.526336
v -6.160001 0.785853 -69.526336
v -3.160001 2.987722 -67.796662
v -6.160001 2.987722 -67.796663
v -6.160001 0.785853 -69.526336
v -6.160000 8.507610 -79.356110
v -6.160001 2.987722 -67.796663
v -6.160000 10.709479 -77.626436
v 9.340000 8.507610 -79.356109
v 12.340001 8.507609 -79.356108
v 9.340000 10.709479 -77.626435
v 12.340000 10.709479 -77.626435
v 12.340001 8.507609 -79.356108
v 12.340000 0.785853 -69.526335
v 12.340000 10.709479 -77.626435
v 12.339999 2.987722 -67.796661
v 9.339999 2.987722 -67.796661
v 12.339999 2.987722 -67.796661
v 9.339999 0.785853 -69.526335
v 12.340000 0.785853 -69.526335
v 13.839999 -1.490897 -62.095392
v -4.160002 -1.490897 -62.095394
v 13.840001 15.188098 -83.327703
v -4.160000 15.188098 -83.327705
v -9.410001 -4.464942 -62.842090
v -9.409999 15.960274 -84.310683
v 13.590001 14.993885 -87.613117
v 15.589999 -4.464942 -62.842088
v -7.410001 -5.700422 -61.269327
v -9.410001 -2.263072 -61.112417
v 9.340000 10.709479 -77.626435
v 11.215001 14.251885 -82.135907
v 9.340001 14.107052 -81.951535
v 11.637067 14.143887 -81.998427
v 10.852564 14.423683 -82.354606
v 10.574456 14.647575 -82.639619
v 12.340000 10.709479 -77.626435
v 12.090000 14.107051 -81.951535
v 12.339999 2.987722 -67.796661
v 15.590001 15.960273 -84.310681
v 12.542934 14.143887 -81.998427
v 12.965001 14.251884 -82.135907
v 13.327437 14.423683 -82.354606
v 13.605545 14.647575 -82.639619
v 13.780370 14.908303 -82.971525
v 15.589999 -2.263073 -61.112415
v 13.840001 15.188098 -83.327703
v 13.780370 15.467893 -83.683882
v 15.521853 16.280039 -84.717742
v 13.605546 15.728620 -84.015787
v 15.322052 16.578014 -85.097063
v 15.004215 16.833890 -85.422792
v 14.590001 17.030231 -85.672734
v 13.327437 15.952512 -84.300801
v 11.637065 -0.446687 -63.424669
v 12.089999 -0.409851 -63.471561
v 12.542932 -0.446687 -63.424669
v 12.964999 -0.554684 -63.287189
v 13.327435 -0.726483 -63.068490
v 13.605543 -0.950374 -62.783477
v 13.780368 -1.211102 -62.451571
v 13.839999 -1.490897 -62.095392
v 13.780368 -1.770692 -61.739214
v 15.521850 -2.582839 -60.705354
v 9.339999 2.987722 -67.796661
v 11.214999 -0.554684 -63.287189
v 9.339999 -0.409851 -63.471561
v 10.852562 -0.726483 -63.068490
v 10.574454 -0.950374 -62.783477
v 10.399629 -1.211102 -62.451571
v 10.339999 -1.490897 -62.095393
v 10.399629 -1.770692 -61.739214
v -3.160001 -0.409851 -63.471562
v -4.219631 -1.770692 -61.739215
v -4.160002 -1.490897 -62.095394
v 10.574454 -2.031420 -61.407309
v -4.219631 -1.211102 -62.451572
v -4.394457 -0.950374 -62.783478
v -4.672564 -0.726482 -63.068491
v -5.035001 -0.554684 -63.287191
v -3.160001 2.987722 -67.796662
v -5.457067 -0.446686 -63.424671
v -6.160001 2.987722 -67.796663
v -5.910001 -0.409850 -63.471563
v -6.362934 -0.446686 -63.424671
v -6.785001 -0.554683 -63.287191
v -7.147437 -0.726482 -63.068492
v -7.425546 -0.950374 -62.783478
v -9.410001 -2.263072 -61.112417
v -7.600371 -1.211102 -62.451572
v -9.409999 15.960274 -84.310683
v -7.660001 -1.490897 -62.095394
v -7.600371 -1.770692 -61.739216
v -9.341853 -2.582838 -60.705356
v -7.425546 -2.031419 -61.407311
v -9.142052 -2.880813 -60.326035
v -8.824215 -3.136689 -60.000305
v -8.410001 -3.333030 -59.750364
v -7.147437 -2.255311 -61.122297
v -6.160000 10.709479 -77.626436
v -7.425544 14.647575 -82.639621
v -7.600369 14.908303 -82.971527
v -7.659999 15.188098 -83.327705
v -7.600369 15.467893 -83.683883
v -9.341851 16.280040 -84.717744
v -7.147435 14.423684 -82.354608
v -6.784999 14.251885 -82.135908
v -6.362932 14.143888 -81.998428
v -5.909999 14.107052 -81.951536
v -5.457065 14.143888 -81.998428
v -3.160000 10.709479 -77.626436
v -5.034999 14.251885 -82.135908
v -3.159999 14.107052 -81.951536
v -4.672562 14.423684 -82.354607
v -4.394455 14.647575 -82.639621
v -4.219629 14.908303 -82.971527
v -4.160000 15.188098 -83.327705
v -4.219629 15.467893 -83.683883
v 10.399631 15.467893 -83.683882
v -4.394454 15.728621 -84.015788
v 10.340001 15.188098 -83.327704
v 10.399631 14.908303 -82.971525
v 13.605543 -2.031420 -61.407309
v 15.322050 -2.880813 -60.326033
v 15.004212 -3.136690 -60.000303
v 14.589998 -3.333031 -59.750362
v 13.327435 -2.255312 -61.122295
v 14.107637 -3.456455 -59.593242
v 13.589998 -3.498553 -59.539652
v 12.964999 -2.427110 -60.903596
v 12.542932 -2.535107 -60.766117
v 12.089998 -2.571943 -60.719225
v 11.637065 -2.535107 -60.766117
v 11.214998 -2.427110 -60.903596
v -5.035001 -2.427110 -60.903597
v -7.410001 -3.498553 -59.539654
v -4.672565 -2.255311 -61.122296
v 10.852562 -2.255312 -61.122295
v -4.394457 -2.031419 -61.407310
v -5.457067 -2.535106 -60.766118
v -5.910001 -2.571942 -60.719226
v -6.362934 -2.535106 -60.766118
v -6.785002 -2.427110 -60.903597
v -7.927640 -3.456455 -59.593244
v 10.574456 15.728620 -84.015787
v -4.672562 15.952513 -84.300802
v 10.852564 15.952512 -84.300801
v -5.034999 16.124311 -84.519502
v 11.215001 16.124311 -84.519500
v -7.409998 17.195754 -85.883446
v 13.590001 17.195754 -85.883444
v -7.147435 15.952513 -84.300803
v -6.784999 16.124311 -84.519502
v -6.362932 16.232308 -84.656981
v -5.909999 16.269144 -84.703873
v -5.457065 16.232308 -84.656981
v 11.637067 16.232307 -84.656979
v 12.090001 16.269143 -84.703871
v 12.542934 16.232307 -84.656979
v 12.965001 16.124311 -84.519500
v 14.107640 17.153656 -85.829853
v -7.425544 15.728621 -84.015789
v -9.142050 16.578014 -85.097065
v -8.824213 16.833891 -85.422794
v -8.409998 17.030232 -85.672736
v -7.927637 17.153656 -85.829855
f 1 2 3
f 1 4 2
f 5 6 7
f 5 8 6
f 9 10 11
f 9 12 10
f 13 14 15
f 13 16 14
f 17 18 19
f 17 19 20
f 17 21 18
f 17 20 116
f 17 117 68
f 17 116 117
f 18 114 115
f 18 141 142
f 18 142 114
f 18 115 143
f 18 143 19
f 18 21 77
f 18 419 141
f 21 22 23
f 21 23 24
f 21 25 22
f 21 76 77
f 21 24 76
f 22 25 28
f 25 75 28
f 26 27 28
f 26 28 75
f 27 74 35
f 27 35 28
f 29 30 31
f 29 31 32
f 29 33 34
f 29 34 35
f 29 36 30
f 29 32 33
f 29 35 74
f 30 42 92
f 30 36 42
f 36 37 38
f 36 38 39
f 36 40 41
f 36 41 42
f 36 43 37
f 36 39 40
f 37 43 44
f 37 44 47
f 42 93 92
f 44 91 47
f 45 46 47
f 45 47 91
f 46 88 90
f 46 90 47
f 48 49 50
f 48 50 140
f 49 138 57
f 49 57 50
f 50 139 140
f 50 125 139
f 51 52 53
f 51 53 54
f 51 55 56
f 51 56 57
f 51 58 52
f 51 54 55
f 51 57 138
f 52 64 119
f 52 58 64
f 58 59 60
f 58 60 61
f 58 62 63
f 58 63 64
f 58 65 59
f 58 61 62
f 59 65 66
f 59 66 69
f 64 120 119
f 66 118 69
f 67 68 69
f 67 69 118
f 68 117 69
f 70 71 72
f 70 73 71
f 71 83 84
f 71 84 85
f 71 85 86
f 71 86 72
f 71 96 97
f 71 73 96
f 73 94 95
f 73 95 96
f 76 78 77
f 77 78 79
f 77 79 80
f 77 80 81
f 77 82 83
f 77 81 82
f 82 84 83
f 87 88 89
f 87 90 88
f 88 105 110
f 88 110 89
f 88 124 129
f 88 129 105
f 92 93 94
f 93 95 94
f 96 98 97
f 97 98 99
f 97 99 100
f 97 100 101
f 97 102 103
f 97 101 102
f 102 104 103
f 103 104 105
f 104 106 105
f 105 106 107
f 105 107 108
f 105 108 109
f 105 109 110
f 111 112 113
f 111 113 417
f 112 418 113
f 113 121 122
f 113 122 417
f 113 418 419
f 113 134 121
f 119 120 137
f 120 136 137
f 121 135 136
f 121 134 135
f 123 124 125
f 123 126 124
f 124 126 127
f 124 139 125
f 124 127 129
f 127 128 129
f 128 144 129
f 129 130 131
f 129 144 130
f 129 131 145
f 129 145 146
f 132 133 134
f 132 134 421
f 133 422 134
f 134 420 421
f 134 422 135
f 134 146 420
f 135 137 136
f 141 419 418
f 145 420 146
f 147 148 149
f 147 150 148
f 148 150 151
f 150 152 151
f 151 152 153
f 152 154 153
f 153 154 155
f 154 156 155
f 155 156 157
f 156 158 157
f 157 158 159
f 158 160 159
f 159 160 161
f 160 162 161
f 161 162 163
f 162 164 163
f 163 164 165
f 164 166 165
f 165 166 167
f 166 168 167
f 167 168 169
f 168 170 169
f 169 170 171
f 170 172 171
f 171 172 173
f 172 174 173
f 173 174 175
f 174 176 175
f 175 176 177
f 176 178 177
f 177 178 179
f 178 180 179
f 179 180 181
f 180 182 181
f 181 182 183
f 182 184 183
f 183 184 185
f 184 186 185
f 185 186 187
f 186 188 187
f 187 188 189
f 188 190 189
f 189 190 191
f 190 192 191
f 191 192 193
f 192 194 193
f 193 194 195
f 194 443 195
f 196 197 198
f 196 199 197
f 197 199 200
f 199 201 200
f 200 201 202
f 201 203 202
f 202 203 204
f 203 205 204
f 204 205 206
f 205 207 206
f 206 207 208
f 207 209 208
f 208 209 210
f 209 211 210
f 210 211 212
f 211 213 212
f 212 213 214
f 213 215 214
f 214 215 216
f 215 217 216
f 216 217 218
f 217 219 218
f 218 219 220
f 219 221 220
f 220 221 222
f 221 223 222
f 222 223 224
f 223 225 224
f 224 225 226
f 225 227 226
f 226 227 228
f 227 229 228
f 228 229 230
f 229 231 230
f 230 231 232
f 231 233 232
f 232 233 234
f 233 235 234
f 234 235 236
f 235 237 236
f 236 237 238
f 237 239 238
f 238 239 240
f 239 241 240
f 240 241 242
f 241 243 242
f 242 243 244
f 243 444 244
f 245 246 247
f 245 248 246
f 246 248 249
f 248 250 249
f 249 250 251
f 250 252 251
f 251 252 253
f 252 254 253
f 253 254 255
f 254 256 255
f 255 256 257
f 256 258 257
f 257 258 259
f 258 260 259
f 259 260 261
f 260 262 261
f 261 262 263
f 262 264 263
f 263 264 265
f 264 266 265
f 265 266 267
f 266 268 267
f 267 268 269
f 268 270 269
f 269 270 271
f 270 272 271
f 271 272 273
f 272 274 273
f 273 274 275
f 274 276 275
f 275 276 277
f 276 278 277
f 277 278 279
f 278 280 279
f 279 280 281
f 280 282 281
f 281 282 283
f 282 284 283
f 283 284 285
f 284 286 285
f 285 286 287
f 286 288 287
f 287 288 289
f 288 290 289
f 289 290 291
f 290 292 291
f 291 292 293
f 292 445 293
f 294 295 296
f 294 297 295
f 295 297 298
f 297 299 298
f 298 299 300
f 299 301 300
f 300 301 302
f 301 303 302
f 302 303 304
f 303 305 304
f 304 305 306
f 305 307 306
f 306 307 308
f 307 309 308
f 308 309 310
f 309 311 310
f 310 311 312
f 311 313 312
f 312 313 314
f 313 315 314
f 314 315 316
f 315 317 316
f 316 317 318
f 317 319 318
f 318 319 320
f 319 321 320
f 320 321 322
f 321 323 322
f 322 323 324
f 323 325 324
f 324 325 326
f 325 327 326
f 326 327 328
f 327 329 328
f 328 329 330
f 329 331 330
f 330 331 332
f 331 333 332
f 332 333 334
f 333 335 334
f 334 335 336
f 335 337 336
f 336 337 338
f 337 339 338
f 338 339 340
f 339 341 340
f 340 341 342
f 341 446 342
f 343 344 345
f 343 346 344
f 344 346 347
f 345 447 448
f 346 348 347
f 347 348 349
f 348 350 349
f 349 350 351
f 350 352 351
f 351 352 353
f 352 354 353
f 353 354 355
f 354 356 355
f 357 358 359
f 357 449 358
f 360 361 362
f 360 362 363
f 360 364 361
f 361 364 365
f 362 449 363
f 364 366 365
f 365 366 367
f 366 368 367
f 367 368 369
f 368 370 369
f 369 370 371
f 370 372 371
f 373 374 375
f 373 450 374
f 376 377 378
f 376 378 379
f 376 380 377
f 377 380 381
f 378 450 379
f 380 382 381
f 381 382 383
f 382 384 383
f 383 384 385
f 384 386 385
f 385 386 387
f 386 388 387
f 389 390 391
f 389 451 390
f 392 393 394
f 392 394 395
f 392 396 393
f 393 396 397
f 394 451 395
f 396 398 397
f 397 398 399
f 398 400 399
f 399 400 401
f 400 402 401
f 401 402 403
f 402 404 403
f 405 406 407
f 406 408 407
f 409 410 411
f 410 412 411
f 413 414 415
f 414 416 415
f 423 424 425
f 424 426 425
f 427 428 429
f 428 430 429
f 431 432 433
f 432 434 433
f 435 436 437
f 436 438 437
f 439 440 441
f 440 442 441
f 447 452 448
f 453 454 455
f 453 456 454
f 453 459 456
f 454 457 455
f 455 457 458
f 455 540 535
f 455 541 540
f 455 543 541
f 455 544 543
f 455 458 544
f 456 459 460
f 459 461 462
f 459 463 460
f 459 464 463
f 459 465 464
f 459 466 465
f 459 462 466
f 461 468 462
f 461 477 478
f 461 478 479
f 461 480 481
f 461 481 482
f 461 482 468
f 461 487 477
f 461 479 480
f 462 467 466
f 462 469 467
f 462 470 469
f 462 471 470
f 468 482 483
f 468 484 485
f 468 485 486
f 468 483 484
f 470 471 472
f 471 473 472
f 472 473 474
f 472 475 476
f 472 474 475
f 475 583 476
f 476 573 582
f 476 583 573
f 477 487 488
f 485 545 486
f 486 545 546
f 487 489 488
f 488 489 490
f 489 491 490
f 489 492 491
f 489 493 492
f 489 494 493
f 489 495 494
f 494 495 496
f 494 496 498
f 495 497 496
f 495 499 497
f 495 500 499
f 495 501 500
f 495 502 501
f 495 503 502
f 496 561 498
f 498 561 560
f 502 503 504
f 503 505 504
f 504 505 506
f 505 507 506
f 505 508 507
f 505 509 508
f 505 510 509
f 505 511 510
f 505 513 511
f 505 522 513
f 510 511 512
f 511 514 512
f 511 515 514
f 511 516 515
f 513 522 523
f 513 524 525
f 513 525 526
f 513 526 527
f 513 523 524
f 515 516 517
f 516 518 517
f 517 518 519
f 517 520 521
f 517 519 520
f 520 566 521
f 521 558 565
f 521 566 558
f 522 528 523
f 522 529 528
f 522 530 529
f 522 531 530
f 522 532 531
f 522 533 532
f 526 584 527
f 527 584 585
f 532 533 534
f 533 535 534
f 534 535 536
f 535 537 536
f 535 538 537
f 535 539 538
f 535 540 539
f 540 541 542
f 541 567 542
f 542 567 568
f 545 547 546
f 545 548 547
f 545 549 548
f 548 549 550
f 549 551 550
f 549 552 551
f 551 552 553
f 551 554 555
f 551 555 556
f 551 557 558
f 551 553 554
f 551 556 557
f 556 559 557
f 556 560 559
f 557 562 558
f 558 562 563
f 558 564 565
f 558 563 564
f 559 560 561
f 567 569 568
f 568 569 570
f 569 571 570
f 570 571 572
f 570 572 578
f 571 573 572
f 571 579 573
f 572 574 575
f 572 575 576
f 572 577 578
f 572 588 574
f 572 576 577
f 573 579 580
f 573 581 582
f 573 580 581
f 574 587 584
f 574 588 587
f 584 586 585
f 584 587 586