# Part21
# Autodesk dbId: 143
# Units: mm
o 143_Part21
v -4.410354 13.964863 -97.046630
v -4.469910 12.002073 -99.080652
v -4.410354 11.762993 -98.776304
v -4.469910 14.203943 -97.350978
v -4.627605 12.223485 -99.362509
v -4.627605 14.425355 -97.632835
v -4.872694 12.412140 -99.602665
v -4.872693 14.614009 -97.872991
v -5.188473 12.555180 -99.784755
v -5.188472 14.757050 -98.055081
v -5.553422 12.642859 -99.896370
v -5.553422 14.844728 -98.166696
v -5.942672 12.669201 -99.929903
v -5.942672 14.871071 -98.200230
v -6.329695 12.632410 -99.883069
v -6.329695 14.834280 -98.153395
v -6.688117 12.534996 -99.759061
v -6.688117 14.736866 -98.029387
v -6.993511 12.383595 -99.566328
v -6.993510 14.585465 -97.836654
v -7.225065 12.188525 -99.318005
v -7.225065 14.390395 -97.588331
v -7.366999 11.963081 -99.031014
v -7.366999 14.164951 -97.301341
v -7.409643 11.722626 -98.724916
v -7.409642 13.924495 -96.995242
v -7.350086 11.483546 -98.420568
v -7.350086 13.685416 -96.690894
v -7.192391 11.262135 -98.138712
v -7.192391 13.464004 -96.409038
v -6.947302 11.073480 -97.898555
v -6.947302 13.275349 -96.168881
v -6.631524 10.930439 -97.716464
v -6.631524 13.132309 -95.986791
v -6.266574 10.842761 -97.604850
v -6.266574 13.044630 -95.875176
v -5.877324 10.816418 -97.571316
v -5.877324 13.018288 -95.841642
v -5.490301 10.853208 -97.618150
v -5.490301 13.055078 -95.888476
v -5.131879 10.950623 -97.742159
v -5.131879 13.152493 -96.012485
v -4.826486 11.102024 -97.934892
v -4.826486 13.303894 -96.205218
v -4.594931 11.297094 -98.183215
v -4.594931 13.498964 -96.453541
v -4.452996 11.522538 -98.470205
v -4.452996 13.724408 -96.740532
v -4.410354 11.762993 -98.776304
v 1.073193 33.791583 -122.285987
v 2.305341 36.252459 -125.418675
v -10.195478 27.046460 -113.699465
v -2.028129 26.349060 -112.811676
v 3.652379 35.455826 -124.404564
v -10.429000 26.636073 -113.177042
v -10.326195 26.922642 -113.541845
v -10.405551 26.783184 -113.364315
v -10.194384 19.984083 -104.709079
v -10.222812 19.823779 -104.505013
v -10.317436 19.673483 -104.313686
v -10.828384 17.351030 -101.357210
v -10.675401 19.442503 -104.019649
v -11.331810 17.994850 -102.176792
v -10.947572 17.603665 -101.678814
v -10.861057 17.482194 -101.524182
v -11.511533 19.129098 -103.620686
v -11.674768 18.596007 -102.942062
v -11.594599 18.384922 -102.673352
v -11.481977 18.179571 -102.411940
v -11.437263 18.116377 -102.331494
v -11.387159 18.054745 -102.253037
v -11.600713 19.081618 -103.560243
v -11.713929 18.955235 -103.399359
v -11.731688 18.883340 -103.307836
v -11.721742 18.810872 -103.215585
v -11.669449 19.022572 -103.485079
v -10.471805 19.543437 -104.148138
v -12.696348 17.114371 -101.055943
v -12.795625 17.145921 -101.096107
v -14.538556 17.175885 -101.134251
v -14.266190 17.308368 -101.302901
v -13.683515 17.299845 -101.292052
v -14.033057 17.319477 -101.317043
v -14.150689 17.322459 -101.320839
v -14.373154 17.277983 -101.264222
v -13.338644 17.259562 -101.240772
v -14.465653 17.232991 -101.206947
v -13.001631 17.199001 -101.163677
v -11.846744 16.846172 -100.714527
v -12.046963 16.894274 -100.775761
v -12.897482 17.174158 -101.132052
v -14.957344 16.704370 -100.534014
v -11.633193 16.831720 -100.696130
v -14.881818 16.363851 -100.100534
v -13.883638 15.777594 -99.354230
v -13.234252 15.557497 -99.074048
v -5.942672 14.871071 -98.200230
v -14.667225 16.192281 -99.882126
v -14.426945 16.034238 -99.680937
v -14.073326 15.850267 -99.446744
v -14.163199 15.891184 -99.498830
v -13.980051 15.812368 -99.398498
v -12.926549 15.375523 -98.842395
v -12.840034 15.254052 -98.687763
v -12.830755 14.990969 -98.352859
v -12.908623 14.867285 -98.195410
v -7.366999 14.164951 -97.301341
v -7.225065 14.390395 -97.588331
v -6.993510 14.585465 -97.836654
v -6.688117 14.736866 -98.029387
v -6.329695 14.834280 -98.153395
v -15.780624 14.324617 -97.504595
v -15.869246 14.276739 -97.443647
v -15.997891 14.077881 -97.190500
v -15.937287 14.217388 -97.368093
v -15.980976 14.149853 -97.282121
v -15.908543 13.402440 -96.330666
v -15.978927 13.540185 -96.506015
v -15.956952 13.468735 -96.415060
v -15.836382 13.344976 -96.257514
v -15.744470 13.299528 -96.199660
v -15.637902 13.268615 -96.160307
v -15.676337 14.358368 -97.547560
v -15.313190 13.186312 -96.055537
v -15.093104 14.508312 -97.738439
v -15.389983 14.441151 -97.652942
v -14.977181 13.123659 -95.975779
v -14.787930 14.559350 -97.803409
v -14.632983 13.081234 -95.921772
v -14.644267 14.577036 -97.825924
v -14.522033 13.073558 -95.912001
v -14.498954 14.588476 -97.840487
v -14.410578 13.069545 -95.906893
v -14.352701 14.593610 -97.847022
v -14.298935 13.069209 -95.906465
v -13.558405 13.079176 -95.919153
v -13.612170 14.603577 -97.859710
v -13.344855 13.064723 -95.900754
v -13.399842 14.623760 -97.885404
v -13.144635 13.016622 -95.839521
v -13.203204 14.677204 -97.953438
v -12.971392 12.938147 -95.739623
v -13.035659 14.760267 -98.059176
v -12.836932 12.834647 -95.607868
v -5.877324 13.018288 -95.841642
v -6.266574 13.044630 -95.875176
v -6.631524 13.132309 -95.986791
v -6.947302 13.275349 -96.168881
v -7.192391 13.464004 -96.409038
v -7.350086 13.685416 -96.690894
v -7.409642 13.924495 -96.995242
v -12.750417 12.713176 -95.453236
v -12.717743 12.582012 -95.286264
v -11.424206 10.906393 -93.153206
v -14.096028 11.734870 -94.207855
v -14.021098 10.359355 -92.456829
v -13.904713 10.348384 -92.442863
v -13.787403 10.354529 -92.450684
v -14.319006 11.596410 -94.031596
v -14.302547 10.484384 -92.615990
v -14.225685 10.429293 -92.545859
v -14.130104 10.386833 -92.491807
v -14.521750 11.446549 -93.840823
v -14.702736 11.286412 -93.636969
v -14.797787 11.011739 -93.287311
v -14.765734 11.224972 -93.558756
v -14.803729 11.156136 -93.471128
v -14.814614 11.083720 -93.378942
v -14.754182 10.944184 -93.201314
v -13.869340 11.849350 -94.353587
v -13.985927 11.794560 -94.283840
v -13.439577 10.383547 -92.487624
v -13.746839 11.898969 -94.416753
v -13.097872 10.433070 -92.550667
v -13.113587 12.136330 -94.718912
v -12.765450 10.502642 -92.639232
v -12.663152 10.530264 -92.674395
v -12.946042 12.219391 -94.824648
v -12.563381 10.561214 -92.713795
v -12.466424 10.595406 -92.757321
v -12.819007 12.326410 -94.960884
v -11.833172 10.832765 -93.059478
v -12.741138 12.450093 -95.118332
v -11.636536 10.886209 -93.127512
v -5.490301 13.055078 -95.888476
v -10.837195 10.765364 -92.973676
v -10.702734 10.661865 -92.841922
v -7.817284 9.683899 -91.596974
v -10.583546 10.409229 -92.520318
v -10.606940 10.277311 -92.352387
v -11.041101 9.752475 -91.684272
v -11.107028 9.671666 -91.581402
v -11.210684 9.502507 -91.366063
v -11.291721 9.313727 -91.125747
v -11.140681 8.614468 -90.235592
v -11.355144 8.782720 -90.449776
v -11.373127 8.926736 -90.633109
v -11.377955 8.854070 -90.540605
v -11.305958 8.716644 -90.365662
v -11.233124 8.659503 -90.292922
v -11.346005 9.121322 -90.880816
v -11.163649 9.588207 -91.475159
v -10.377391 8.355767 -89.906266
v -10.266237 8.331798 -89.875754
v -10.149092 8.324547 -89.866523
v -10.032450 8.334419 -89.879091
v -9.922779 8.360867 -89.912760
v -9.826158 8.402421 -89.965657
v -9.548420 8.534985 -90.134411
v -9.292580 8.683417 -90.323364
v -9.061004 8.846342 -90.530767
v -8.994768 8.901860 -90.601442
v -8.933416 8.959479 -90.674790
v -8.877123 9.019037 -90.750608
v -8.520831 9.420190 -91.261274
v -8.393796 9.527210 -91.397510
v -8.226250 9.610271 -91.503246
v -8.029613 9.663715 -91.571281
v -10.616219 10.540393 -92.687289
v -10.684808 10.153627 -92.194937
v -6.943739 8.591783 -90.206714
v -6.960489 8.729278 -90.381745
v -6.955082 8.660393 -90.294055
v -6.926492 8.523643 -90.119973
v -6.842888 8.313068 -89.851910
v -6.726926 8.108427 -89.591404
v -6.125623 7.712978 -89.087999
v -6.447537 7.792447 -89.189163
v -6.579678 7.911615 -89.340863
v -6.525043 7.847193 -89.258854
v -6.351458 7.750416 -89.135657
v -6.242133 7.723428 -89.101301
v -6.976623 9.186734 -90.964085
v -5.255201 7.724693 -89.102912
v -4.815583 7.935358 -89.371087
v -5.032220 7.768172 -89.158260
v -4.939196 7.812749 -89.215006
v -4.865623 7.869527 -89.287285
v -4.682350 8.135945 -89.626434
v -5.139538 7.738268 -89.120192
v -4.580927 8.343512 -89.890666
v -4.512249 8.556137 -90.161337
v -4.499823 8.624675 -90.248586
v -4.492784 8.762491 -90.424025
v -4.493328 8.693525 -90.336232
v -4.508918 9.219947 -91.006365
v -4.485524 9.351866 -91.174298
v -7.009296 9.317898 -91.131057
v -4.407655 9.475549 -91.331746
v -7.095811 9.439369 -91.285689
v -4.280620 9.582569 -91.467982
v -7.230271 9.542870 -91.417445
v -4.113075 9.665630 -91.573719
v -7.403514 9.621344 -91.517342
v -3.916437 9.719075 -91.641754
v -7.603734 9.669447 -91.578578
v -3.704109 9.739258 -91.667447
v -2.518073 9.027870 -90.761852
v -2.429380 8.955850 -90.670171
v -0.991612 10.538329 -92.684662
v -1.866020 8.624851 -90.248810
v -1.606787 8.513047 -90.106484
v -0.958939 10.407165 -92.517691
v -1.395897 8.450660 -90.027066
v -1.278670 8.443936 -90.018505
v -0.872424 10.285693 -92.363058
v -1.052789 8.481268 -90.066029
v -0.432836 9.834614 -91.788835
v -0.488186 9.894508 -91.865080
v -0.308463 8.760260 -90.421186
v -0.145228 9.293352 -91.099810
v -0.225397 9.504436 -91.368520
v -0.338019 9.709788 -91.629932
v -0.382733 9.772982 -91.710377
v -0.219283 8.807741 -90.481628
v -0.106067 8.934123 -90.642513
v -0.088308 9.006020 -90.734037
v -0.098254 9.078486 -90.826286
v -0.150547 8.866786 -90.556792
v -1.507329 8.474132 -90.056946
v -1.162147 8.454329 -90.031736
v -2.332753 8.887836 -90.583589
v -2.108615 8.750094 -90.408244
v -2.982636 9.494729 -91.356163
v -2.598398 9.103545 -90.858186
v -0.968218 10.670247 -92.852593
v -3.290339 9.676704 -91.587816
v -3.117096 9.598229 -91.487918
v -0.890349 10.793930 -93.010042
v -3.490558 9.724806 -91.649050
v -0.763314 10.900950 -93.146277
v -0.595769 10.984011 -93.252014
v -11.010437 10.843839 -93.073575
v -0.399131 11.037455 -93.320048
v -11.210657 10.891941 -93.134809
v -0.186802 11.057639 -93.345742
v 0.026748 11.043187 -93.327345
v 3.137348 11.184989 -93.507858
v 0.876352 10.774988 -92.985928
v 1.007167 10.734263 -92.934085
v 1.281002 10.670230 -92.852571
v 1.586600 10.620170 -92.788846
v 2.446194 10.580991 -92.738971
v 2.553158 10.611376 -92.777650
v 2.718561 10.713473 -92.907620
v 2.213061 10.569882 -92.724829
v 2.330694 10.566899 -92.721032
v 2.645657 10.656367 -92.834925
v 0.226967 10.995085 -93.266111
v 1.142270 10.699285 -92.889559
v 1.898066 10.586637 -92.746158
v 3.129091 11.465821 -93.865357
v 3.061822 11.525508 -93.941338
v 2.869716 11.680625 -94.138802
v 2.656600 11.824888 -94.322448
v 2.424069 11.957216 -94.490901
v 2.309865 12.013888 -94.563044
v 2.189526 12.065488 -94.628732
v 2.063642 12.111766 -94.687643
v 1.414256 12.331862 -94.967825
v 3.176150 11.253653 -93.595268
v 3.171904 11.398072 -93.779113
v 3.187885 11.326018 -93.687388
v 1.241014 12.410336 -95.067722
v 1.106553 12.513836 -95.199477
v -4.594931 13.498964 -96.453541
v -4.826486 13.303894 -96.205218
v -5.131879 13.152493 -96.012485
v 1.020038 12.635307 -95.354110
v -4.452996 13.724408 -96.740532
v 0.987365 12.766471 -95.521081
v 4.177895 13.811478 -96.851372
v 4.049249 13.612619 -96.598225
v 4.117291 13.671970 -96.673778
v 4.160979 13.739506 -96.759751
v 4.158930 14.349174 -97.535857
v 3.960629 13.564742 -96.537277
v 4.088547 14.486918 -97.711205
v 4.016385 14.544383 -97.784357
v 3.924473 14.589832 -97.842213
v 4.136956 14.420624 -97.626812
v 3.856342 13.530991 -96.494313
v 3.817906 14.620744 -97.881565
v 3.537741 13.440030 -96.378519
v 3.525987 14.695744 -97.977039
v 3.224654 14.754854 -98.052286
v 3.206468 13.368396 -96.287329
v 2.916171 14.797632 -98.106743
v 2.865588 13.316749 -96.221583
v 2.771397 14.811437 -98.124316
v 2.755284 13.306096 -96.208022
v 2.625415 14.818955 -98.133887
v 2.532705 13.295749 -96.194850
v 2.644218 13.299088 -96.199101
v 2.478939 14.820149 -98.135407
v 1.738408 14.810183 -98.122720
v 1.792174 13.285782 -96.182163
v 1.524858 14.824635 -98.141118
v 1.579846 13.265597 -96.156467
v 1.324639 14.872737 -98.202351
v 1.383208 13.212155 -96.088435
v 1.151397 14.951212 -98.302250
v 1.215663 13.129092 -95.982696
v 1.016936 15.054712 -98.434004
v 1.088627 13.022073 -95.846461
v 0.930421 15.176183 -98.588637
v 1.010759 12.898390 -95.689013
v 0.897748 15.307347 -98.755608
v -4.469910 14.203943 -97.350978
v -4.410354 13.964863 -97.046630
v 0.921142 15.439266 -98.923540
v -4.627605 14.425355 -97.632835
v 0.999010 15.562949 -99.080989
v -5.188472 14.757050 -98.055081
v -4.872693 14.614009 -97.872991
v 1.126046 15.669968 -99.217224
v 2.111227 16.068098 -99.724042
v 2.198129 16.111394 -99.779157
v 2.451538 16.261408 -99.970125
v 1.926842 15.990389 -99.625119
v 2.020712 16.027725 -99.672647
v 2.680447 16.425766 -100.179352
v 2.882740 16.602947 -100.404903
v 1.293592 15.753030 -99.322961
v 2.945738 16.664387 -100.483116
v -14.991899 16.491286 -100.262759
v -14.949087 16.423538 -100.176515
v 2.983732 16.733223 -100.570744
v -15.007882 16.563340 -100.354484
v 2.994619 16.805639 -100.662929
v -14.996146 16.635706 -100.446604
v 2.977792 16.877619 -100.754561
v 2.934186 16.945174 -100.840558
v 2.310107 17.502526 -101.550065
v 2.482551 17.404975 -101.425882
v 2.405690 17.460065 -101.496012
v 2.201102 17.530004 -101.585044
v 2.084717 17.540974 -101.599009
v 1.967406 17.534830 -101.591187
v 1.653892 17.509615 -101.559090
v 1.345087 17.467734 -101.505775
v 1.043307 17.409500 -101.431642
v 0.906756 17.376739 -101.389938
v 0.774247 17.338160 -101.340827
v 0.646428 17.293953 -101.284552
v 0.013177 17.056593 -100.982394
v -0.183460 17.003149 -100.914360
v -0.395789 16.982966 -100.888666
v -0.609340 16.997418 -100.907063
v -11.420865 16.851903 -100.721823
v -0.809559 17.045520 -100.968297
v -11.224227 16.905347 -100.789858
v -0.982802 17.123995 -101.068196
v -11.056682 16.988409 -100.895595
v -1.117262 17.227495 -101.199951
v -10.851778 17.219111 -101.189278
v -10.929646 17.095428 -101.031830
v -1.203777 17.348965 -101.354583
v -1.236450 17.480130 -101.521554
v -0.682111 18.261132 -102.515768
v -0.641895 18.325469 -102.597669
v -0.679315 19.274891 -103.806280
v -0.464852 19.106638 -103.592095
v -0.446868 18.962623 -103.408763
v -0.442041 19.035289 -103.501268
v -0.514038 19.172715 -103.676210
v -0.586872 19.229855 -103.748949
v -0.478648 18.746697 -103.133891
v -0.778895 18.136884 -102.357600
v -0.727822 18.198211 -102.435669
v -0.543858 18.533656 -102.862690
v -1.536750 19.565501 -104.176226
v -1.213056 17.612048 -101.689486
v -1.135187 17.735732 -101.846935
v -1.747270 19.660862 -104.297620
v -1.910662 19.786631 -104.457724
v -2.015792 19.934239 -104.645628
v -2.055496 20.093626 -104.848527
v -2.261651 25.938672 -112.289254
v -2.238202 26.085783 -112.476525
v -2.158847 26.225241 -112.654055
v 1.188086 30.534072 -118.139185
v 2.535125 29.737438 -117.125072
v 3.767272 32.198314 -120.257761
v 3.652379 33.253957 -126.134238
v 2.305341 34.050589 -127.148349
v 3.652379 35.455826 -124.404564
v -11.594599 16.183052 -104.403026
v -11.481977 18.179571 -102.411940
v -11.594599 18.384922 -102.673352
v -11.674768 18.596007 -102.942062
v -11.481977 15.977701 -104.141614
v -13.683516 15.097975 -103.021726
v -14.033057 17.319477 -101.317043
v -13.683515 17.299845 -101.292052
v -13.338644 17.259562 -101.240772
v -14.033057 15.117607 -103.046717
v -14.426945 13.832368 -101.410611
v -14.163199 15.891184 -99.498830
v -14.426945 16.034238 -99.680937
v -14.667225 16.192281 -99.882126
v -14.163199 13.689314 -101.228504
v -14.977181 10.921789 -97.705453
v -14.632983 13.081234 -95.921772
v -14.977181 13.123659 -95.975779
v -15.313190 13.186312 -96.055537
v -14.632984 10.879364 -97.651446
v -13.097872 8.231200 -94.280341
v -12.765450 10.502642 -92.639232
v -13.097872 10.433070 -92.550667
v -13.439577 10.383547 -92.487624
v -12.765450 8.300772 -94.368906
v -9.292580 6.481547 -92.053037
v -9.061004 8.846342 -90.530767
v -9.292580 8.683417 -90.323364
v -9.548420 8.534985 -90.134411
v -9.061004 6.644472 -92.260441
v -6.726926 5.906557 -91.321078
v -6.579678 7.911615 -89.340863
v -6.726926 8.108427 -89.591404
v -6.842888 8.313068 -89.851910
v -6.579678 5.709745 -91.070536
v -4.580927 6.141642 -91.620340
v -4.512249 8.556137 -90.161337
v -4.580927 8.343512 -89.890666
v -4.682350 8.135945 -89.626434
v -4.512249 6.354267 -91.891011
v -0.225397 7.302567 -93.098194
v -0.338019 9.709788 -91.629932
v -0.225397 9.504436 -91.368520
v -0.145228 9.293352 -91.099810
v -0.338019 7.507918 -93.359606
v 3.537741 11.238160 -98.108193
v 3.856342 13.530991 -96.494313
v 3.537741 13.440030 -96.378519
v 3.206468 13.368396 -96.287329
v 3.856342 11.329121 -98.223986
v 2.680447 14.223896 -101.909026
v 2.882740 16.602947 -100.404903
v 2.680447 16.425766 -100.179352
v 2.451538 16.261408 -99.970125
v 2.882740 14.401077 -102.134577
v -0.478648 16.544827 -104.863565
v -0.446868 18.962623 -103.408763
v -0.478648 18.746697 -103.133891
v -0.543858 18.533656 -102.862690
v -0.446868 16.760753 -105.138437
v -4.410354 13.964863 -97.046630
v -13.061010 15.479022 -98.974150
v -12.807360 15.122888 -98.520791
v -5.553422 14.844728 -98.166696
v 2.305341 36.252459 -125.418675
v 2.305341 34.050589 -127.148349
v -10.195478 24.844591 -115.429139
v 2.305341 36.252459 -125.418675
v -10.195478 27.046460 -113.699465
v -10.195478 27.046460 -113.699465
v -10.195478 24.844591 -115.429139
v -10.326195 26.922642 -113.541845
v -10.326195 24.720772 -115.271519
v -10.405551 26.783184 -113.364315
v -10.405551 24.581314 -115.093989
v -10.429000 26.636073 -113.177042
v -10.429000 24.434203 -114.906716
v -10.429000 24.434203 -114.906716
v -10.194384 17.782213 -106.438753
v -10.429000 26.636073 -113.177042
v -10.194384 19.984083 -104.709079
v -10.194384 19.984083 -104.709079
v -10.194384 17.782213 -106.438753
v -10.222812 19.823779 -104.505013
v -10.222812 17.621910 -106.234687
v -10.317436 19.673483 -104.313686
v -10.317436 17.471613 -106.043360
v -10.471805 19.543437 -104.148138
v -10.471805 17.341567 -105.877812
v -10.675401 19.442503 -104.019649
v -10.675401 17.240633 -105.749323
v -10.675401 17.240633 -105.749323
v -11.511533 16.927228 -105.350360
v -10.675401 19.442503 -104.019649
v -11.511533 19.129098 -103.620686
v -11.511533 19.129098 -103.620686
v -11.511533 16.927228 -105.350360
v -11.600713 19.081618 -103.560243
v -11.600713 16.879748 -105.289917
v -11.669449 19.022572 -103.485079
v -11.669449 16.820703 -105.214753
v -11.713929 18.955235 -103.399359
v -11.713929 16.753365 -105.129033
v -11.731688 18.883340 -103.307836
v -11.731688 16.681470 -105.037510
v -11.721742 18.810872 -103.215585
v -11.721742 16.609003 -104.945259
v -11.721742 18.810872 -103.215585
v -11.721742 16.609003 -104.945259
v -11.674768 16.394137 -104.671736
v -11.481977 18.179571 -102.411940
v -11.481977 15.977701 -104.141614
v -11.437263 18.116377 -102.331494
v -11.437263 15.914507 -104.061168
v -11.387159 18.054745 -102.253037
v -11.387159 15.852875 -103.982711
v -11.331810 17.994850 -102.176792
v -11.331810 15.792981 -103.906466
v -11.331810 15.792981 -103.906466
v -10.947572 15.401796 -103.408488
v -11.331810 17.994850 -102.176792
v -10.947572 17.603665 -101.678814
v -10.947572 17.603665 -101.678814
v -10.947572 15.401796 -103.408488
v -10.861057 17.482194 -101.524182
v -10.861057 15.280325 -103.253856
v -10.828384 17.351030 -101.357210
v -10.828384 15.149160 -103.086884
v -10.851778 17.219111 -101.189278
v -10.851778 15.017242 -102.918952
v -10.929646 17.095428 -101.031830
v -10.929646 14.893558 -102.761504
v -11.056682 16.988409 -100.895595
v -11.056682 14.786539 -102.625269
v -11.224227 16.905347 -100.789858
v -11.224227 14.703478 -102.519531
v -11.420865 16.851903 -100.721823
v -11.420865 14.650034 -102.451497
v -11.633193 16.831720 -100.696130
v -11.633193 14.629850 -102.425803
v -11.846744 16.846172 -100.714527
v -11.846744 14.644302 -102.444201
v -12.046963 16.894274 -100.775761
v -12.046963 14.692404 -102.505435
v -12.046963 14.692404 -102.505435
v -12.696348 14.912501 -102.785617
v -12.046963 16.894274 -100.775761
v -12.696348 17.114371 -101.055943
v -12.696348 17.114371 -101.055943
v -12.696348 14.912501 -102.785617
v -12.795625 17.145921 -101.096107
v -12.795625 14.944051 -102.825781
v -12.897482 17.174158 -101.132052
v -12.897482 14.972288 -102.861726
v -13.001631 17.199001 -101.163677
v -13.001632 14.997131 -102.893351
v -13.001631 17.199001 -101.163677
v -13.001632 14.997131 -102.893351
v -13.338644 15.057693 -102.970446
v -14.033057 17.319477 -101.317043
v -14.033057 15.117607 -103.046717
v -14.150689 17.322459 -101.320839
v -14.150689 15.120589 -103.050513
v -14.266190 17.308368 -101.302901
v -14.266190 15.106498 -103.032575
v -14.373154 17.277983 -101.264222
v -14.373154 15.076114 -102.993896
v -14.465653 17.232991 -101.206947
v -14.465653 15.031122 -102.936621
v -14.538556 17.175885 -101.134251
v -14.538556 14.974016 -102.863925
v -14.538556 14.974016 -102.863925
v -14.957344 14.502500 -102.263687
v -14.538556 17.175885 -101.134251
v -14.957344 16.704370 -100.534014
v -14.957344 16.704370 -100.534014
v -14.957344 14.502500 -102.263687
v -14.996146 16.635706 -100.446604
v -14.996146 14.433836 -102.176278
v -15.007882 16.563340 -100.354484
v -15.007882 14.361471 -102.084157
v -14.991899 16.491286 -100.262759
v -14.991899 14.289417 -101.992433
v -14.949087 16.423538 -100.176515
v -14.949087 14.221668 -101.906189
v -14.881818 16.363851 -100.100534
v -14.881818 14.161981 -101.830208
v -14.881818 16.363851 -100.100534
v -14.881818 14.161981 -101.830208
v -14.667225 13.990411 -101.611800
v -14.163199 15.891184 -99.498830
v -14.163199 13.689314 -101.228504
v -14.073326 15.850267 -99.446744
v -14.073326 13.648398 -101.176417
v -13.980051 15.812368 -99.398498
v -13.980051 13.610498 -101.128172
v -13.883638 15.777594 -99.354230
v -13.883638 13.575724 -101.083904
v -13.883638 13.575724 -101.083904
v -13.234252 13.355627 -100.803722
v -13.883638 15.777594 -99.354230
v -13.234252 15.557497 -99.074048
v -13.234252 15.557497 -99.074048
v -13.234252 13.355627 -100.803722
v -13.061010 15.479022 -98.974150
v -13.061010 13.277152 -100.703823
v -12.926549 15.375523 -98.842395
v -12.926549 13.173653 -100.572069
v -12.840034 15.254052 -98.687763
v -12.840034 13.052182 -100.417437
v -12.807360 15.122888 -98.520791
v -12.807361 12.921018 -100.250465
v -12.830755 14.990969 -98.352859
v -12.830755 12.789099 -100.082533
v -12.908623 14.867285 -98.195410
v -12.908623 12.665415 -99.925084
v -13.035659 14.760267 -98.059176
v -13.035659 12.558397 -99.788850
v -13.203204 14.677204 -97.953438
v -13.203204 12.475335 -99.683112
v -13.399842 14.623760 -97.885404
v -13.399842 12.421891 -99.615078
v -13.612170 14.603577 -97.859710
v -13.612170 12.401707 -99.589384
v -13.612170 12.401707 -99.589384
v -14.352701 12.391740 -99.576696
v -13.612170 14.603577 -97.859710
v -14.352701 14.593610 -97.847022
v -14.352701 14.593610 -97.847022
v -14.352701 12.391740 -99.576696
v -14.498954 14.588476 -97.840487
v -14.498954 12.386606 -99.570161
v -14.644267 14.577036 -97.825924
v -14.644267 12.375167 -99.555598
v -14.787930 14.559350 -97.803409
v -14.787930 12.357480 -99.533083
v -14.787930 14.559350 -97.803409
v -14.787930 12.357480 -99.533083
v -15.093104 14.508312 -97.738439
v -15.093104 12.306443 -99.468113
v -15.389983 14.441151 -97.652942
v -15.389983 12.239281 -99.382616
v -15.676337 14.358368 -97.547560
v -15.676338 12.156498 -99.277234
v -15.676337 14.358368 -97.547560
v -15.676338 12.156498 -99.277234
v -15.780624 14.324617 -97.504595
v -15.780624 12.122747 -99.234269
v -15.869246 14.276739 -97.443647
v -15.869246 12.074870 -99.173321
v -15.937287 14.217388 -97.368093
v -15.937287 12.015518 -99.097767
v -15.980976 14.149853 -97.282121
v -15.980976 11.947983 -99.011794
v -15.997891 14.077881 -97.190500
v -15.997891 11.876011 -98.920174
v -15.997891 11.876011 -98.920174
v -15.978927 11.338315 -98.235689
v -15.997891 14.077881 -97.190500
v -15.978927 13.540185 -96.506015
v -15.978927 13.540185 -96.506015
v -15.978927 11.338315 -98.235689
v -15.956952 13.468735 -96.415060
v -15.956952 11.266866 -98.144734
v -15.908543 13.402440 -96.330666
v -15.908543 11.200570 -98.060340
v -15.836382 13.344976 -96.257514
v -15.836382 11.143106 -97.987188
v -15.744470 13.299528 -96.199660
v -15.744470 11.097658 -97.929333
v -15.637902 13.268615 -96.160307
v -15.637902 11.066745 -97.889981
v -15.637902 13.268615 -96.160307
v -15.637902 11.066745 -97.889981
v -15.313190 10.984443 -97.785211
v -14.632983 13.081234 -95.921772
v -14.632984 10.879364 -97.651446
v -14.522033 13.073558 -95.912001
v -14.522033 10.871688 -97.641674
v -14.410578 13.069545 -95.906893
v -14.410578 10.867676 -97.636566
v -14.298935 13.069209 -95.906465
v -14.298935 10.867340 -97.636139
v -14.298935 10.867340 -97.636139
v -13.558405 10.877307 -97.648827
v -14.298935 13.069209 -95.906465
v -13.558405 13.079176 -95.919153
v -13.558405 13.079176 -95.919153
v -13.558405 10.877307 -97.648827
v -13.344855 13.064723 -95.900754
v -13.344855 10.862854 -97.630428
v -13.144635 13.016622 -95.839521
v -13.144635 10.814752 -97.569195
v -12.971392 12.938147 -95.739623
v -12.971392 10.736277 -97.469296
v -12.836932 12.834647 -95.607868
v -12.836932 10.632777 -97.337542
v -12.750417 12.713176 -95.453236
v -12.750417 10.511306 -97.182909
v -12.717743 12.582012 -95.286264
v -12.717743 10.380142 -97.015938
v -12.741138 12.450093 -95.118332
v -12.741138 10.248223 -96.848006
v -12.819007 12.326410 -94.960884
v -12.819007 10.124540 -96.690557
v -12.946042 12.219391 -94.824648
v -12.946042 10.017521 -96.554322
v -13.113587 12.136330 -94.718912
v -13.113587 9.934460 -96.448586
v -13.113587 9.934460 -96.448586
v -13.746839 9.697099 -96.146426
v -13.113587 12.136330 -94.718912
v -13.746839 11.898969 -94.416753
v -13.746839 11.898969 -94.416753
v -13.746839 9.697099 -96.146426
v -13.869340 11.849350 -94.353587
v -13.869340 9.647480 -96.083261
v -13.985927 11.794560 -94.283840
v -13.985927 9.592690 -96.013514
v -14.096028 11.734870 -94.207855
v -14.096028 9.533000 -95.937529
v -14.096028 11.734870 -94.207855
v -14.096028 9.533000 -95.937529
v -14.319006 11.596410 -94.031596
v -14.319006 9.394541 -95.761270
v -14.521750 11.446549 -93.840823
v -14.521750 9.244680 -95.570497
v -14.702736 11.286412 -93.636969
v -14.702736 9.084542 -95.366643
v -14.702736 11.286412 -93.636969
v -14.702736 9.084542 -95.366643
v -14.765734 11.224972 -93.558756
v -14.765734 9.023102 -95.288430
v -14.803729 11.156136 -93.471128
v -14.803729 8.954266 -95.200802
v -14.814614 11.083720 -93.378942
v -14.814614 8.881850 -95.108616
v -14.797787 11.011739 -93.287311
v -14.797787 8.809870 -95.016985
v -14.754182 10.944184 -93.201314
v -14.754182 8.742314 -94.930987
v -14.754182 8.742314 -94.930987
v -14.302547 8.282514 -94.345663
v -14.754182 10.944184 -93.201314
v -14.302547 10.484384 -92.615990
v -14.302547 10.484384 -92.615990
v -14.302547 8.282514 -94.345663
v -14.225685 10.429293 -92.545859
v -14.225685 8.227423 -94.275533
v -14.130104 10.386833 -92.491807
v -14.130104 8.184963 -94.221481
v -14.021098 10.359355 -92.456829
v -14.021098 8.157486 -94.186503
v -13.904713 10.348384 -92.442863
v -13.904713 8.146515 -94.172537
v -13.787403 10.354529 -92.450684
v -13.787403 8.152659 -94.180358
v -13.787403 10.354529 -92.450684
v -13.787403 8.152659 -94.180358
v -13.439577 8.181677 -94.217298
v -12.765450 10.502642 -92.639232
v -12.765450 8.300772 -94.368906
v -12.663152 10.530264 -92.674395
v -12.663152 8.328394 -94.404068
v -12.563381 10.561214 -92.713795
v -12.563381 8.359345 -94.443469
v -12.466424 10.595406 -92.757321
v -12.466424 8.393537 -94.486995
v -12.466424 8.393537 -94.486995
v -11.833172 8.630895 -94.789152
v -12.466424 10.595406 -92.757321
v -11.833172 10.832765 -93.059478
v -11.833172 10.832765 -93.059478
v -11.833172 8.630895 -94.789152
v -11.636536 10.886209 -93.127512
v -11.636536 8.684340 -94.857186
v -11.424206 10.906393 -93.153206
v -11.424207 8.704523 -94.882880
v -11.210657 10.891941 -93.134809
v -11.210657 8.690072 -94.864483
v -11.010437 10.843839 -93.073575
v -11.010437 8.641969 -94.803248
v -10.837195 10.765364 -92.973676
v -10.837195 8.563494 -94.703350
v -10.702734 10.661865 -92.841922
v -10.702735 8.459995 -94.571596
v -10.616219 10.540393 -92.687289
v -10.616219 8.338523 -94.416963
v -10.583546 10.409229 -92.520318
v -10.583546 8.207360 -94.249992
v -10.606940 10.277311 -92.352387
v -10.606940 8.075441 -94.082061
v -10.684808 10.153627 -92.194937
v -10.684808 7.951757 -93.924611
v -10.684808 7.951757 -93.924611
v -11.041101 7.550605 -93.413946
v -10.684808 10.153627 -92.194937
v -11.041101 9.752475 -91.684272
v -11.041101 9.752475 -91.684272
v -11.041101 7.550605 -93.413946
v -11.107028 9.671666 -91.581402
v -11.107028 7.469796 -93.311076
v -11.163649 9.588207 -91.475159
v -11.163649 7.386337 -93.204833
v -11.210684 9.502507 -91.366063
v -11.210684 7.300637 -93.095737
v -11.210684 9.502507 -91.366063
v -11.210684 7.300637 -93.095737
v -11.291721 9.313727 -91.125747
v -11.291721 7.111857 -92.855421
v -11.346005 9.121322 -90.880816
v -11.346005 6.919453 -92.610490
v -11.373127 8.926736 -90.633109
v -11.373127 6.724866 -92.362782
v -11.373127 8.926736 -90.633109
v -11.373127 6.724866 -92.362782
v -11.377955 8.854070 -90.540605
v -11.377955 6.652200 -92.270279
v -11.355144 8.782720 -90.449776
v -11.355144 6.580850 -92.179450
v -11.305958 8.716644 -90.365662
v -11.305958 6.514774 -92.095336
v -11.233124 8.659503 -90.292922
v -11.233124 6.457634 -92.022596
v -11.140681 8.614468 -90.235592
v -11.140682 6.412598 -91.965266
v -11.140682 6.412598 -91.965266
v -10.377391 6.153897 -91.635940
v -11.140681 8.614468 -90.235592
v -10.377391 8.355767 -89.906266
v -10.377391 8.355767 -89.906266
v -10.377391 6.153897 -91.635940
v -10.266237 8.331798 -89.875754
v -10.266238 6.129928 -91.605428
v -10.149092 8.324547 -89.866523
v -10.149092 6.122677 -91.596197
v -10.032450 8.334419 -89.879091
v -10.032451 6.132550 -91.608765
v -9.922779 8.360867 -89.912760
v -9.922779 6.158998 -91.642433
v -9.826158 8.402421 -89.965657
v -9.826159 6.200551 -91.695331
v -9.826158 8.402421 -89.965657
v -9.826159 6.200551 -91.695331
v -9.548420 6.333115 -91.864085
v -9.061004 8.846342 -90.530767
v -9.061004 6.644472 -92.260441
v -8.994768 8.901860 -90.601442
v -8.994768 6.699991 -92.331116
v -8.933416 8.959479 -90.674790
v -8.933416 6.757609 -92.404464
v -8.877123 9.019037 -90.750608
v -8.877123 6.817168 -92.480282
v -8.877123 6.817168 -92.480282
v -8.520831 7.218320 -92.990947
v -8.877123 9.019037 -90.750608
v -8.520831 9.420190 -91.261274
v -8.520831 9.420190 -91.261274
v -8.520831 7.218320 -92.990947
v -8.393796 9.527210 -91.397510
v -8.393796 7.325340 -93.127184
v -8.226250 9.610271 -91.503246
v -8.226250 7.408401 -93.232920
v -8.029613 9.663715 -91.571281
v -8.029613 7.461845 -93.300955
v -7.817284 9.683899 -91.596974
v -7.817284 7.482029 -93.326648
v -7.603734 9.669447 -91.578578
v -7.603734 7.467577 -93.308252
v -7.403514 9.621344 -91.517342
v -7.403514 7.419474 -93.247016
v -7.230271 9.542870 -91.417445
v -7.230272 7.341000 -93.147119
v -7.095811 9.439369 -91.285689
v -7.095811 7.237499 -93.015363
v -7.009296 9.317898 -91.131057
v -7.009296 7.116028 -92.860731
v -6.976623 9.186734 -90.964085
v -6.976623 6.984864 -92.693759
v -6.976623 6.984864 -92.693759
v -6.960489 6.527408 -92.111419
v -6.976623 9.186734 -90.964085
v -6.960489 8.729278 -90.381745
v -6.960489 8.729278 -90.381745
v -6.960489 6.527408 -92.111419
v -6.955082 8.660393 -90.294055
v -6.955082 6.458523 -92.023729
v -6.943739 8.591783 -90.206714
v -6.943739 6.389913 -91.936388
v -6.926492 8.523643 -90.119973
v -6.926492 6.321774 -91.849647
v -6.926492 8.523643 -90.119973
v -6.926492 6.321774 -91.849647
v -6.842888 6.111198 -91.581584
v -6.579678 7.911615 -89.340863
v -6.579678 5.709745 -91.070536
v -6.525043 7.847193 -89.258854
v -6.525043 5.645324 -90.988528
v -6.447537 7.792447 -89.189163
v -6.447537 5.590578 -90.918836
v -6.351458 7.750416 -89.135657
v -6.351458 5.548546 -90.865331
v -6.242133 7.723428 -89.101301
v -6.242133 5.521558 -90.830975
v -6.125623 7.712978 -89.087999
v -6.125623 5.511109 -90.817673
v -6.125623 5.511109 -90.817673
v -5.255201 5.522824 -90.832586
v -6.125623 7.712978 -89.087999
v -5.255201 7.724693 -89.102912
v -5.255201 7.724693 -89.102912
v -5.255201 5.522824 -90.832586
v -5.139538 7.738268 -89.120192
v -5.139538 5.536398 -90.849866
v -5.032220 7.768172 -89.158260
v -5.032220 5.566303 -90.887934
v -4.939196 7.812749 -89.215006
v -4.939196 5.610879 -90.944680
v -4.865623 7.869527 -89.287285
v -4.865623 5.667657 -91.016959
v -4.815583 7.935358 -89.371087
v -4.815583 5.733488 -91.100761
v -4.815583 7.935358 -89.371087
v -4.815583 5.733488 -91.100761
v -4.682350 5.934075 -91.356108
v -4.512249 8.556137 -90.161337
v -4.512249 6.354267 -91.891011
v -4.499823 8.624675 -90.248586
v -4.499823 6.422805 -91.978260
v -4.493328 8.693525 -90.336232
v -4.493329 6.491655 -92.065906
v -4.492784 8.762491 -90.424025
v -4.492784 6.560621 -92.153699
v -4.492784 6.560621 -92.153699
v -4.508918 7.018077 -92.736039
v -4.492784 8.762491 -90.424025
v -4.508918 9.219947 -91.006365
v -4.508918 9.219947 -91.006365
v -4.508918 7.018077 -92.736039
v -4.485524 9.351866 -91.174298
v -4.485524 7.149996 -92.903972
v -4.407655 9.475549 -91.331746
v -4.407656 7.273680 -93.061420
v -4.280620 9.582569 -91.467982
v -4.280620 7.380699 -93.197656
v -4.113075 9.665630 -91.573719
v -4.113075 7.463761 -93.303393
v -3.916437 9.719075 -91.641754
v -3.916437 7.517205 -93.371428
v -3.704109 9.739258 -91.667447
v -3.704109 7.537388 -93.397121
v -3.490558 9.724806 -91.649050
v -3.490558 7.522936 -93.378724
v -3.290339 9.676704 -91.587816
v -3.290339 7.474834 -93.317490
v -3.117096 9.598229 -91.487918
v -3.117096 7.396359 -93.217592
v -2.982636 9.494729 -91.356163
v -2.982636 7.292860 -93.085837
v -2.982636 7.292860 -93.085837
v -2.598398 6.901675 -92.587859
v -2.982636 9.494729 -91.356163
v -2.598398 9.103545 -90.858186
v -2.598398 9.103545 -90.858186
v -2.598398 6.901675 -92.587859
v -2.518073 9.027870 -90.761852
v -2.518073 6.826000 -92.491526
v -2.429380 8.955850 -90.670171
v -2.429380 6.753980 -92.399845
v -2.332753 8.887836 -90.583589
v -2.332753 6.685966 -92.313263
v -2.332753 8.887836 -90.583589
v -2.332753 6.685966 -92.313263
v -2.108615 8.750094 -90.408244
v -2.108615 6.548224 -92.137918
v -1.866020 8.624851 -90.248810
v -1.866020 6.422981 -91.978484
v -1.606787 8.513047 -90.106484
v -1.606788 6.311177 -91.836158
v -1.606787 8.513047 -90.106484
v -1.606788 6.311177 -91.836158
v -1.507329 8.474132 -90.056946
v -1.507329 6.272263 -91.786620
v -1.395897 8.450660 -90.027066
v -1.395897 6.248790 -91.756739
v -1.278670 8.443936 -90.018505
v -1.278670 6.242066 -91.748179
v -1.162147 8.454329 -90.031736
v -1.162147 6.252459 -91.761410
v -1.052789 8.481268 -90.066029
v -1.052789 6.279398 -91.795703
v -1.052789 6.279398 -91.795703
v -0.308463 6.558391 -92.150860
v -1.052789 8.481268 -90.066029
v -0.308463 8.760260 -90.421186
v -0.308463 8.760260 -90.421186
v -0.308463 6.558391 -92.150860
v -0.219283 8.807741 -90.481628
v -0.219283 6.605871 -92.211302
v -0.150547 8.866786 -90.556792
v -0.150547 6.664916 -92.286466
v -0.106067 8.934123 -90.642513
v -0.106067 6.732253 -92.372187
v -0.088308 9.006020 -90.734037
v -0.088308 6.804150 -92.463711
v -0.098254 9.078486 -90.826286
v -0.098254 6.876616 -92.555960
v -0.098254 9.078486 -90.826286
v -0.098254 6.876616 -92.555960
v -0.145228 7.091482 -92.829484
v -0.338019 9.709788 -91.629932
v -0.338019 7.507918 -93.359606
v -0.382733 9.772982 -91.710377
v -0.382733 7.571112 -93.440051
v -0.432836 9.834614 -91.788835
v -0.432836 7.632744 -93.518509
v -0.488186 9.894508 -91.865080
v -0.488186 7.692639 -93.594754
v -0.488186 7.692639 -93.594754
v -0.872424 8.083824 -94.092731
v -0.488186 9.894508 -91.865080
v -0.872424 10.285693 -92.363058
v -0.872424 10.285693 -92.363058
v -0.872424 8.083824 -94.092731
v -0.958939 10.407165 -92.517691
v -0.958939 8.205295 -94.247364
v -0.991612 10.538329 -92.684662
v -0.991613 8.336459 -94.414335
v -0.968218 10.670247 -92.852593
v -0.968218 8.468377 -94.582267
v -0.890349 10.793930 -93.010042
v -0.890350 8.592060 -94.739716
v -0.763314 10.900950 -93.146277
v -0.763314 8.699080 -94.875951
v -0.595769 10.984011 -93.252014
v -0.595769 8.782142 -94.981688
v -0.399131 11.037455 -93.320048
v -0.399131 8.835585 -95.049722
v -0.186802 11.057639 -93.345742
v -0.186803 8.855769 -95.075416
v 0.026748 11.043187 -93.327345
v 0.026748 8.841317 -95.057019
v 0.226967 10.995085 -93.266111
v 0.226967 8.793215 -94.995785
v 0.226967 8.793215 -94.995785
v 0.876352 8.573118 -94.715602
v 0.226967 10.995085 -93.266111
v 0.876352 10.774988 -92.985928
v 0.876352 10.774988 -92.985928
v 0.876352 8.573118 -94.715602
v 1.007167 10.734263 -92.934085
v 1.007167 8.532393 -94.663759
v 1.142270 10.699285 -92.889559
v 1.142270 8.497416 -94.619233
v 1.281002 10.670230 -92.852571
v 1.281002 8.468360 -94.582245
v 1.281002 10.670230 -92.852571
v 1.281002 8.468360 -94.582245
v 1.586600 10.620170 -92.788846
v 1.586600 8.418301 -94.518520
v 1.898066 10.586637 -92.746158
v 1.898066 8.384767 -94.475832
v 2.213061 10.569882 -92.724829
v 2.213061 8.368012 -94.454503
v 2.213061 10.569882 -92.724829
v 2.213061 8.368012 -94.454503
v 2.330694 10.566899 -92.721032
v 2.330694 8.365030 -94.450706
v 2.446194 10.580991 -92.738971
v 2.446194 8.379121 -94.468645
v 2.553158 10.611376 -92.777650
v 2.553158 8.409506 -94.507324
v 2.645657 10.656367 -92.834925
v 2.645657 8.454498 -94.564599
v 2.718561 10.713473 -92.907620
v 2.718561 8.511603 -94.637294
v 2.718561 8.511603 -94.637294
v 3.137348 8.983119 -95.237532
v 2.718561 10.713473 -92.907620
v 3.137348 11.184989 -93.507858
v 3.137348 11.184989 -93.507858
v 3.137348 8.983119 -95.237532
v 3.176150 11.253653 -93.595268
v 3.176150 9.051783 -95.324942
v 3.187885 11.326018 -93.687388
v 3.187885 9.124148 -95.417062
v 3.171904 11.398072 -93.779113
v 3.171904 9.196203 -95.508787
v 3.129091 11.465821 -93.865357
v 3.129091 9.263951 -95.595031
v 3.061822 11.525508 -93.941338
v 3.061822 9.323638 -95.671012
v 3.061822 11.525508 -93.941338
v 3.061822 9.323638 -95.671012
v 2.869716 11.680625 -94.138802
v 2.869716 9.478755 -95.868475
v 2.656600 11.824888 -94.322448
v 2.656600 9.623019 -96.052122
v 2.424069 11.957216 -94.490901
v 2.424069 9.755346 -96.220575
v 2.424069 11.957216 -94.490901
v 2.424069 9.755346 -96.220575
v 2.309865 12.013888 -94.563044
v 2.309865 9.812018 -96.292718
v 2.189526 12.065488 -94.628732
v 2.189526 9.863619 -96.358406
v 2.063642 12.111766 -94.687643
v 2.063642 9.909896 -96.417316
v 2.063642 9.909896 -96.417316
v 1.414256 10.129992 -96.697498
v 2.063642 12.111766 -94.687643
v 1.414256 12.331862 -94.967825
v 1.414256 12.331862 -94.967825
v 1.414256 10.129992 -96.697498
v 1.241014 12.410336 -95.067722
v 1.241014 10.208466 -96.797396
v 1.106553 12.513836 -95.199477
v 1.106553 10.311966 -96.929151
v 1.020038 12.635307 -95.354110
v 1.020038 10.433438 -97.083784
v 0.987365 12.766471 -95.521081
v 0.987365 10.564601 -97.250755
v 1.010759 12.898390 -95.689013
v 1.010759 10.696520 -97.418686
v 1.088627 13.022073 -95.846461
v 1.088627 10.820203 -97.576135
v 1.215663 13.129092 -95.982696
v 1.215663 10.927222 -97.712370
v 1.383208 13.212155 -96.088435
v 1.383208 11.010285 -97.818109
v 1.579846 13.265597 -96.156467
v 1.579846 11.063728 -97.886141
v 1.792174 13.285782 -96.182163
v 1.792174 11.083913 -97.911836
v 1.792174 11.083913 -97.911836
v 2.532705 11.093879 -97.924524
v 1.792174 13.285782 -96.182163
v 2.532705 13.295749 -96.194850
v 2.532705 13.295749 -96.194850
v 2.532705 11.093879 -97.924524
v 2.644218 13.299088 -96.199101
v 2.644218 11.097219 -97.928775
v 2.755284 13.306096 -96.208022
v 2.755284 11.104226 -97.937695
v 2.865588 13.316749 -96.221583
v 2.865588 11.114879 -97.951256
v 2.865588 13.316749 -96.221583
v 2.865588 11.114879 -97.951256
v 3.206468 11.166526 -98.017003
v 3.856342 13.530991 -96.494313
v 3.856342 11.329121 -98.223986
v 3.960629 13.564742 -96.537277
v 3.960629 11.362872 -98.266951
v 4.049249 13.612619 -96.598225
v 4.049249 11.410750 -98.327899
v 4.117291 13.671970 -96.673778
v 4.117291 11.470100 -98.403452
v 4.160979 13.739506 -96.759751
v 4.160979 11.537636 -98.489425
v 4.177895 13.811478 -96.851372
v 4.177895 11.609609 -98.581046
v 4.177895 11.609609 -98.581046
v 4.158930 12.147304 -99.265531
v 4.177895 13.811478 -96.851372
v 4.158930 14.349174 -97.535857
v 4.158930 14.349174 -97.535857
v 4.158930 12.147304 -99.265531
v 4.136956 14.420624 -97.626812
v 4.136956 12.218754 -99.356486
v 4.088547 14.486918 -97.711205
v 4.088547 12.285049 -99.440879
v 4.016385 14.544383 -97.784357
v 4.016385 12.342513 -99.514031
v 3.924473 14.589832 -97.842213
v 3.924473 12.387962 -99.571887
v 3.817906 14.620744 -97.881565
v 3.817906 12.418874 -99.611239
v 3.817906 14.620744 -97.881565
v 3.817906 12.418874 -99.611239
v 3.525987 14.695744 -97.977039
v 3.525987 12.493874 -99.706713
v 3.224654 14.754854 -98.052286
v 3.224654 12.552984 -99.781960
v 2.916171 14.797632 -98.106743
v 2.916171 12.595763 -99.836417
v 2.916171 14.797632 -98.106743
v 2.916171 12.595763 -99.836417
v 2.771397 14.811437 -98.124316
v 2.771397 12.609567 -99.853990
v 2.625415 14.818955 -98.133887
v 2.625415 12.617086 -99.863561
v 2.478939 14.820149 -98.135407
v 2.478939 12.618280 -99.865081
v 2.478939 12.618280 -99.865081
v 1.738408 12.608313 -99.852394
v 2.478939 14.820149 -98.135407
v 1.738408 14.810183 -98.122720
v 1.738408 14.810183 -98.122720
v 1.738408 12.608313 -99.852394
v 1.524858 14.824635 -98.141118
v 1.524858 12.622765 -99.870791
v 1.324639 14.872737 -98.202351
v 1.324639 12.670867 -99.932025
v 1.151397 14.951212 -98.302250
v 1.151396 12.749342 -100.031923
v 1.016936 15.054712 -98.434004
v 1.016936 12.852842 -100.163678
v 0.930421 15.176183 -98.588637
v 0.930421 12.974314 -100.318311
v 0.897748 15.307347 -98.755608
v 0.897748 13.105477 -100.485282
v 0.921142 15.439266 -98.923540
v 0.921142 13.237396 -100.653214
v 0.999010 15.562949 -99.080989
v 0.999010 13.361079 -100.810663
v 1.126046 15.669968 -99.217224
v 1.126046 13.468098 -100.946898
v 1.293592 15.753030 -99.322961
v 1.293592 13.551160 -101.052635
v 1.293592 13.551160 -101.052635
v 1.926842 13.788520 -101.354793
v 1.293592 15.753030 -99.322961
v 1.926842 15.990389 -99.625119
v 1.926842 15.990389 -99.625119
v 1.926842 13.788520 -101.354793
v 2.020712 16.027725 -99.672647
v 2.020712 13.825855 -101.402321
v 2.111227 16.068098 -99.724042
v 2.111227 13.866228 -101.453716
v 2.198129 16.111394 -99.779157
v 2.198129 13.909524 -101.508831
v 2.198129 16.111394 -99.779157
v 2.198129 13.909524 -101.508831
v 2.451538 14.059538 -101.699799
v 2.882740 16.602947 -100.404903
v 2.882740 14.401077 -102.134577
v 2.945738 16.664387 -100.483116
v 2.945737 14.462517 -102.212790
v 2.983732 16.733223 -100.570744
v 2.983732 14.531353 -102.300418
v 2.994619 16.805639 -100.662929
v 2.994619 14.603769 -102.392603
v 2.977792 16.877619 -100.754561
v 2.977792 14.675750 -102.484235
v 2.934186 16.945174 -100.840558
v 2.934186 14.743305 -102.570232
v 2.934186 14.743305 -102.570232
v 2.482551 15.203105 -103.155556
v 2.934186 16.945174 -100.840558
v 2.482551 17.404975 -101.425882
v 2.482551 17.404975 -101.425882
v 2.482551 15.203105 -103.155556
v 2.405690 17.460065 -101.496012
v 2.405690 15.258195 -103.225686
v 2.310107 17.502526 -101.550065
v 2.310107 15.300656 -103.279739
v 2.201102 17.530004 -101.585044
v 2.201102 15.328134 -103.314718
v 2.084717 17.540974 -101.599009
v 2.084717 15.339104 -103.328683
v 1.967406 17.534830 -101.591187
v 1.967406 15.332960 -103.320861
v 1.967406 17.534830 -101.591187
v 1.967406 15.332960 -103.320861
v 1.653892 17.509615 -101.559090
v 1.653892 15.307746 -103.288763
v 1.345087 17.467734 -101.505775
v 1.345086 15.265864 -103.235449
v 1.043307 17.409500 -101.431642
v 1.043307 15.207630 -103.161316
v 1.043307 17.409500 -101.431642
v 1.043307 15.207630 -103.161316
v 0.906756 17.376739 -101.389938
v 0.906756 15.174869 -103.119612
v 0.774247 17.338160 -101.340827
v 0.774247 15.136290 -103.070501
v 0.646428 17.293953 -101.284552
v 0.646428 15.092083 -103.014226
v 0.646428 15.092083 -103.014226
v 0.013177 14.854724 -102.712068
v 0.646428 17.293953 -101.284552
v 0.013177 17.056593 -100.982394
v 0.013177 17.056593 -100.982394
v 0.013177 14.854724 -102.712068
v -0.183460 17.003149 -100.914360
v -0.183460 14.801280 -102.644034
v -0.395789 16.982966 -100.888666
v -0.395789 14.781096 -102.618340
v -0.609340 16.997418 -100.907063
v -0.609340 14.795548 -102.636737
v -0.809559 17.045520 -100.968297
v -0.809559 14.843650 -102.697971
v -0.982802 17.123995 -101.068196
v -0.982802 14.922125 -102.797870
v -1.117262 17.227495 -101.199951
v -1.117262 15.025625 -102.929624
v -1.203777 17.348965 -101.354583
v -1.203777 15.147096 -103.084256
v -1.236450 17.480130 -101.521554
v -1.236451 15.278260 -103.251228
v -1.213056 17.612048 -101.689486
v -1.213056 15.410178 -103.419160
v -1.135187 17.735732 -101.846935
v -1.135188 15.533862 -103.576609
v -1.135188 15.533862 -103.576609
v -0.778895 15.935014 -104.087274
v -1.135187 17.735732 -101.846935
v -0.778895 18.136884 -102.357600
v -0.778895 18.136884 -102.357600
v -0.778895 15.935014 -104.087274
v -0.727822 18.198211 -102.435669
v -0.727822 15.996341 -104.165343
v -0.682111 18.261132 -102.515768
v -0.682111 16.059262 -104.245442
v -0.641895 18.325469 -102.597669
v -0.641895 16.123599 -104.327343
v -0.641895 18.325469 -102.597669
v -0.641895 16.123599 -104.327343
v -0.543858 16.331786 -104.592364
v -0.446868 18.962623 -103.408763
v -0.446868 16.760753 -105.138437
v -0.442041 19.035289 -103.501268
v -0.442041 16.833419 -105.230941
v -0.464852 19.106638 -103.592095
v -0.464852 16.904769 -105.321769
v -0.514038 19.172715 -103.676210
v -0.514038 16.970845 -105.405884
v -0.586872 19.229855 -103.748949
v -0.586872 17.027985 -105.478623
v -0.679315 19.274891 -103.806280
v -0.679315 17.073021 -105.535954
v -0.679315 17.073021 -105.535954
v -1.536751 17.363632 -105.905900
v -0.679315 19.274891 -103.806280
v -1.536750 19.565501 -104.176226
v -1.536750 19.565501 -104.176226
v -1.536751 17.363632 -105.905900
v -1.747270 19.660862 -104.297620
v -1.747270 17.458992 -106.027294
v -1.910662 19.786631 -104.457724
v -1.910662 17.584762 -106.187398
v -2.015792 19.934239 -104.645628
v -2.015792 17.732369 -106.375302
v -2.055496 20.093626 -104.848527
v -2.055496 17.891756 -106.578201
v -2.055496 17.891756 -106.578201
v -2.261651 23.736802 -114.018928
v -2.055496 20.093626 -104.848527
v -2.261651 25.938672 -112.289254
v -2.261651 25.938672 -112.289254
v -2.261651 23.736802 -114.018928
v -2.238202 26.085783 -112.476525
v -2.238202 23.883913 -114.206199
v -2.158847 26.225241 -112.654055
v -2.158847 24.023371 -114.383729
v -2.028129 26.349060 -112.811676
v -2.028129 24.147190 -114.541350
v -2.028129 24.147190 -114.541350
v 2.535125 27.535568 -118.854746
v -2.028129 26.349060 -112.811676
v 2.535125 29.737438 -117.125072
v 2.535125 27.535568 -118.854746
v 1.188086 28.332202 -119.868859
v 2.535125 29.737438 -117.125072
v 1.188086 30.534072 -118.139185
v 1.188086 28.332202 -119.868859
v 3.767272 29.996445 -121.987435
v 1.188086 30.534072 -118.139185
v 3.767272 32.198314 -120.257761
v 3.767272 29.996445 -121.987435
v 1.073193 31.589714 -124.015661
v 3.767272 32.198314 -120.257761
v 1.073193 33.791583 -122.285987
v 1.073193 31.589714 -124.015661
v 3.652379 33.253957 -126.134238
v 1.073193 33.791583 -122.285987
v 3.652379 35.455826 -124.404564
v -4.469910 12.002073 -99.080652
v 0.897748 13.105477 -100.485282
v -4.410354 11.762993 -98.776304
v 0.921142 13.237396 -100.653214
v 0.930421 12.974314 -100.318311
v 1.010759 10.696520 -97.418686
v 1.088627 10.820203 -97.576135
v 1.016936 12.852842 -100.163678
v 1.215663 10.927222 -97.712370
v 1.151396 12.749342 -100.031923
v 1.383208 11.010285 -97.818109
v 1.324639 12.670867 -99.932025
v 1.579846 11.063728 -97.886141
v 1.524858 12.622765 -99.870791
v 1.792174 11.083913 -97.911836
v 1.738408 12.608313 -99.852394
v 2.478939 12.618280 -99.865081
v 2.644218 11.097219 -97.928775
v -4.627605 12.223485 -99.362509
v 0.999010 13.361079 -100.810663
v -4.872694 12.412140 -99.602665
v -5.188473 12.555180 -99.784755
v 1.126046 13.468098 -100.946898
v -5.553422 12.642859 -99.896370
v 1.293592 13.551160 -101.052635
v -5.942672 12.669201 -99.929903
v 2.945737 14.462517 -102.212790
v 2.882740 14.401077 -102.134577
v 1.926842 13.788520 -101.354793
v -14.881818 14.161981 -101.830208
v -14.949087 14.221668 -101.906189
v -12.908623 12.665415 -99.925084
v -12.830755 12.789099 -100.082533
v -12.807361 12.921018 -100.250465
v -12.840034 13.052182 -100.417437
v -12.926549 13.173653 -100.572069
v -13.061010 13.277152 -100.703823
v -13.234252 13.355627 -100.803722
v -13.883638 13.575724 -101.083904
v -14.667225 13.990411 -101.611800
v 2.983732 14.531353 -102.300418
v -6.329695 12.632410 -99.883069
v -6.688117 12.534996 -99.759061
v -6.993511 12.383595 -99.566328
v -7.225065 12.188525 -99.318005
v -7.366999 11.963081 -99.031014
v -7.409643 11.722626 -98.724916
v -12.836932 10.632777 -97.337542
v -13.035659 12.558397 -99.788850
v -7.350086 11.483546 -98.420568
v -7.192391 11.262135 -98.138712
v -6.947302 11.073480 -97.898555
v -6.631524 10.930439 -97.716464
v -6.266574 10.842761 -97.604850
v -5.877324 10.816418 -97.571316
v -12.750417 10.511306 -97.182909
v -5.490301 10.853208 -97.618150
v -11.424207 8.704523 -94.882880
v -12.717743 10.380142 -97.015938
v 3.137348 8.983119 -95.237532
v -0.186803 8.855769 -95.075416
v -11.210657 8.690072 -94.864483
v -11.636536 8.684340 -94.857186
v -12.741138 10.248223 -96.848006
v -11.833172 8.630895 -94.789152
v -12.819007 10.124540 -96.690557
v -12.466424 8.393537 -94.486995
v -12.946042 10.017521 -96.554322
v -12.563381 8.359345 -94.443469
v -12.663152 8.328394 -94.404068
v -13.113587 9.934460 -96.448586
v -5.131879 10.950623 -97.742159
v 1.241014 10.208466 -96.797396
v 1.414256 10.129992 -96.697498
v 2.063642 9.909896 -96.417316
v 2.189526 9.863619 -96.358406
v 2.309865 9.812018 -96.292718
v 2.424069 9.755346 -96.220575
v 2.656600 9.623019 -96.052122
v 2.869716 9.478755 -95.868475
v 3.061822 9.323638 -95.671012
v 3.129091 9.263951 -95.595031
v 3.176150 9.051783 -95.324942
v 0.026748 8.841317 -95.057019
v 0.226967 8.793215 -94.995785
v 0.876352 8.573118 -94.715602
v 1.007167 8.532393 -94.663759
v 1.142270 8.497416 -94.619233
v 1.281002 8.468360 -94.582245
v 1.586600 8.418301 -94.518520
v 1.898066 8.384767 -94.475832
v 2.213061 8.368012 -94.454503
v 2.718561 8.511603 -94.637294
v 2.330694 8.365030 -94.450706
v 2.446194 8.379121 -94.468645
v 2.553158 8.409506 -94.507324
v 2.645657 8.454498 -94.564599
v 1.106553 10.311966 -96.929151
v -4.826486 11.102024 -97.934892
v -4.594931 11.297094 -98.183215
v 1.020038 10.433438 -97.083784
v -4.452996 11.522538 -98.470205
v 0.987365 10.564601 -97.250755
v 3.652379 33.253957 -126.134238
v 1.073193 31.589714 -124.015661
v 2.305341 34.050589 -127.148349
v 1.188086 28.332202 -119.868859
v -2.028129 24.147190 -114.541350
v -10.195478 24.844591 -115.429139
v -2.158847 24.023371 -114.383729
v -2.238202 23.883913 -114.206199
v -2.261651 23.736802 -114.018928
v -10.194384 17.782213 -106.438753
v -10.429000 24.434203 -114.906716
v -10.326195 24.720772 -115.271519
v 3.767272 29.996445 -121.987435
v 2.535125 27.535568 -118.854746
v -2.055496 17.891756 -106.578201
v -2.015792 17.732369 -106.375302
v -1.236451 15.278260 -103.251228
v -10.222812 17.621910 -106.234687
v -1.910662 17.584762 -106.187398
v -1.213056 15.410178 -103.419160
v -10.828384 15.149160 -103.086884
v -10.317436 17.471613 -106.043360
v -1.747270 17.458992 -106.027294
v -1.536751 17.363632 -105.905900
v -0.778895 15.935014 -104.087274
v -1.135188 15.533862 -103.576609
v -0.679315 17.073021 -105.535954
v -0.478648 16.544827 -104.863565
v -0.543858 16.331786 -104.592364
v -0.641895 16.123599 -104.327343
v -0.682111 16.059262 -104.245442
v -0.727822 15.996341 -104.165343
v -0.586872 17.027985 -105.478623
v -0.446868 16.760753 -105.138437
v -0.514038 16.970845 -105.405884
v -0.464852 16.904769 -105.321769
v -0.442041 16.833419 -105.230941
v -1.203777 15.147096 -103.084256
v -10.851778 15.017242 -102.918952
v -1.117262 15.025625 -102.929624
v -10.929646 14.893558 -102.761504
v -11.056682 14.786539 -102.625269
v -0.982802 14.922125 -102.797870
v -11.224227 14.703478 -102.519531
v -0.809559 14.843650 -102.697971
v -11.420865 14.650034 -102.451497
v -0.609340 14.795548 -102.636737
v -11.633193 14.629850 -102.425803
v -0.395789 14.781096 -102.618340
v 2.934186 14.743305 -102.570232
v -14.957344 14.502500 -102.263687
v -11.846744 14.644302 -102.444201
v -0.183460 14.801280 -102.644034
v 0.013177 14.854724 -102.712068
v 0.646428 15.092083 -103.014226
v 0.774247 15.136290 -103.070501
v 0.906756 15.174869 -103.119612
v 1.043307 15.207630 -103.161316
v 1.345086 15.265864 -103.235449
v 1.653892 15.307746 -103.288763
v 1.967406 15.332960 -103.320861
v 2.482551 15.203105 -103.155556
v 2.084717 15.339104 -103.328683
v 2.201102 15.328134 -103.314718
v 2.310107 15.300656 -103.279739
v 2.405690 15.258195 -103.225686
v 2.977792 14.675750 -102.484235
v -14.996146 14.433836 -102.176278
v 2.994619 14.603769 -102.392603
v -15.007882 14.361471 -102.084157
v -14.991899 14.289417 -101.992433
v 2.680447 14.223896 -101.909026
v 2.451538 14.059538 -101.699799
v 2.111227 13.866228 -101.453716
v 2.020712 13.825855 -101.402321
v 2.198129 13.909524 -101.508831
v 2.625415 12.617086 -99.863561
v 2.755284 11.104226 -97.937695
v 2.532705 11.093879 -97.924524
v 2.771397 12.609567 -99.853990
v 2.865588 11.114879 -97.951256
v 2.916171 12.595763 -99.836417
v 3.206468 11.166526 -98.017003
v 3.224654 12.552984 -99.781960
v 3.537741 11.238160 -98.108193
v 3.525987 12.493874 -99.706713
v 3.817906 12.418874 -99.611239
v 3.856342 11.329121 -98.223986
v 3.924473 12.387962 -99.571887
v 3.960629 11.362872 -98.266951
v 4.016385 12.342513 -99.514031
v 4.158930 12.147304 -99.265531
v 4.049249 11.410750 -98.327899
v 4.088547 12.285049 -99.440879
v 4.136956 12.218754 -99.356486
v 4.177895 11.609609 -98.581046
v 4.117291 11.470100 -98.403452
v 4.160979 11.537636 -98.489425
v 3.171904 9.196203 -95.508787
v 3.187885 9.124148 -95.417062
v -0.399131 8.835585 -95.049722
v -11.010437 8.641969 -94.803248
v -0.595769 8.782142 -94.981688
v -10.837195 8.563494 -94.703350
v -0.763314 8.699080 -94.875951
v -7.817284 7.482029 -93.326648
v -0.890350 8.592060 -94.739716
v -3.704109 7.537388 -93.397121
v -7.603734 7.467577 -93.308252
v -11.107028 7.469796 -93.311076
v -11.041101 7.550605 -93.413946
v -10.684808 7.951757 -93.924611
v -10.606940 8.075441 -94.082061
v -10.583546 8.207360 -94.249992
v -10.616219 8.338523 -94.416963
v -10.702735 8.459995 -94.571596
v -3.490558 7.522936 -93.378724
v -3.916437 7.517205 -93.371428
v -7.403514 7.419474 -93.247016
v -4.113075 7.463761 -93.303393
v -7.230272 7.341000 -93.147119
v -4.280620 7.380699 -93.197656
v -7.095811 7.237499 -93.015363
v -4.407656 7.273680 -93.061420
v -7.009296 7.116028 -92.860731
v -4.485524 7.149996 -92.903972
v -6.976623 6.984864 -92.693759
v -4.508918 7.018077 -92.736039
v -5.255201 5.522824 -90.832586
v -6.125623 5.511109 -90.817673
v -6.960489 6.527408 -92.111419
v -4.492784 6.560621 -92.153699
v -4.580927 6.141642 -91.620340
v -4.682350 5.934075 -91.356108
v -5.139538 5.536398 -90.849866
v -4.512249 6.354267 -91.891011
v -4.499823 6.422805 -91.978260
v -4.493329 6.491655 -92.065906
v -3.290339 7.474834 -93.317490
v -0.968218 8.468377 -94.582267
v -3.117096 7.396359 -93.217592
v -2.982636 7.292860 -93.085837
v -0.991613 8.336459 -94.414335
v -2.598398 6.901675 -92.587859
v -2.518073 6.826000 -92.491526
v -2.429380 6.753980 -92.399845
v -2.332753 6.685966 -92.313263
v -0.958939 8.205295 -94.247364
v -2.108615 6.548224 -92.137918
v -1.866020 6.422981 -91.978484
v -1.606788 6.311177 -91.836158
v -0.872424 8.083824 -94.092731
v -1.507329 6.272263 -91.786620
v -1.395897 6.248790 -91.756739
v -1.278670 6.242066 -91.748179
v -1.162147 6.252459 -91.761410
v -1.052789 6.279398 -91.795703
v -0.488186 7.692639 -93.594754
v -0.432836 7.632744 -93.518509
v -0.308463 6.558391 -92.150860
v -0.382733 7.571112 -93.440051
v -0.338019 7.507918 -93.359606
v -0.225397 7.302567 -93.098194
v -0.145228 7.091482 -92.829484
v -0.219283 6.605871 -92.211302
v -0.098254 6.876616 -92.555960
v -0.150547 6.664916 -92.286466
v -0.106067 6.732253 -92.372187
v -0.088308 6.804150 -92.463711
v -5.032220 5.566303 -90.887934
v -4.815583 5.733488 -91.100761
v -4.939196 5.610879 -90.944680
v -4.865623 5.667657 -91.016959
v -6.842888 6.111198 -91.581584
v -6.926492 6.321774 -91.849647
v -6.943739 6.389913 -91.936388
v -6.955082 6.458523 -92.023729
v -6.726926 5.906557 -91.321078
v -6.242133 5.521558 -90.830975
v -6.351458 5.548546 -90.865331
v -6.579678 5.709745 -91.070536
v -6.447537 5.590578 -90.918836
v -6.525043 5.645324 -90.988528
v -8.029613 7.461845 -93.300955
v -8.226250 7.408401 -93.232920
v -8.393796 7.325340 -93.127184
v -8.520831 7.218320 -92.990947
v -8.877123 6.817168 -92.480282
v -8.933416 6.757609 -92.404464
v -8.994768 6.699991 -92.331116
v -9.061004 6.644472 -92.260441
v -9.292580 6.481547 -92.053037
v -9.548420 6.333115 -91.864085
v -9.826159 6.200551 -91.695331
v -9.922779 6.158998 -91.642433
v -10.032451 6.132550 -91.608765
v -10.149092 6.122677 -91.596197
v -10.266238 6.129928 -91.605428
v -10.377391 6.153897 -91.635940
v -11.140682 6.412598 -91.965266
v -11.163649 7.386337 -93.204833
v -11.210684 7.300637 -93.095737
v -11.291721 7.111857 -92.855421
v -11.346005 6.919453 -92.610490
v -11.233124 6.457634 -92.022596
v -11.373127 6.724866 -92.362782
v -11.305958 6.514774 -92.095336
v -11.355144 6.580850 -92.179450
v -11.377955 6.652200 -92.270279
v -12.765450 8.300772 -94.368906
v -13.097872 8.231200 -94.280341
v -13.746839 9.697099 -96.146426
v -13.439577 8.181677 -94.217298
v -13.869340 9.647480 -96.083261
v -13.787403 8.152659 -94.180358
v -13.985927 9.592690 -96.013514
v -14.096028 9.533000 -95.937529
v -13.904713 8.146515 -94.172537
v -14.021098 8.157486 -94.186503
v -14.319006 9.394541 -95.761270
v -14.130104 8.184963 -94.221481
v -14.225685 8.227423 -94.275533
v -14.302547 8.282514 -94.345663
v -14.521750 9.244680 -95.570497
v -14.702736 9.084542 -95.366643
v -14.754182 8.742314 -94.930987
v -14.765734 9.023102 -95.288430
v -14.797787 8.809870 -95.016985
v -14.803729 8.954266 -95.200802
v -14.814614 8.881850 -95.108616
v -12.971392 10.736277 -97.469296
v -13.203204 12.475335 -99.683112
v -13.144635 10.814752 -97.569195
v -13.399842 12.421891 -99.615078
v -13.344855 10.862854 -97.630428
v -13.612170 12.401707 -99.589384
v -13.558405 10.877307 -97.648827
v -14.298935 10.867340 -97.636139
v -14.498954 12.386606 -99.570161
v -14.410578 10.867676 -97.636566
v -14.522033 10.871688 -97.641674
v -14.644267 12.375167 -99.555598
v -14.352701 12.391740 -99.576696
v -14.632984 10.879364 -97.651446
v -14.787930 12.357480 -99.533083
v -14.977181 10.921789 -97.705453
v -15.093104 12.306443 -99.468113
v -15.313190 10.984443 -97.785211
v -15.389983 12.239281 -99.382616
v -15.676338 12.156498 -99.277234
v -15.637902 11.066745 -97.889981
v -15.780624 12.122747 -99.234269
v -15.744470 11.097658 -97.929333
v -15.997891 11.876011 -98.920174
v -15.836382 11.143106 -97.987188
v -15.978927 11.338315 -98.235689
v -15.937287 12.015518 -99.097767
v -15.869246 12.074870 -99.173321
v -15.908543 11.200570 -98.060340
v -15.956952 11.266866 -98.144734
v -15.980976 11.947983 -99.011794
v -14.426945 13.832368 -101.410611
v -13.980051 13.610498 -101.128172
v -14.073326 13.648398 -101.176417
v -14.163199 13.689314 -101.228504
v -14.538556 14.974016 -102.863925
v -12.046963 14.692404 -102.505435
v -12.696348 14.912501 -102.785617
v -12.795625 14.944051 -102.825781
v -12.897482 14.972288 -102.861726
v -13.001632 14.997131 -102.893351
v -14.465653 15.031122 -102.936621
v -13.338644 15.057693 -102.970446
v -14.373154 15.076114 -102.993896
v -13.683516 15.097975 -103.021726
v -14.266190 15.106498 -103.032575
v -14.033057 15.117607 -103.046717
v -14.150689 15.120589 -103.050513
v -10.861057 15.280325 -103.253856
v -10.471805 17.341567 -105.877812
v -10.675401 17.240633 -105.749323
v -10.947572 15.401796 -103.408488
v -11.331810 15.792981 -103.906466
v -11.511533 16.927228 -105.350360
v -11.387159 15.852875 -103.982711
v -11.437263 15.914507 -104.061168
v -11.481977 15.977701 -104.141614
v -11.594599 16.183052 -104.403026
v -11.674768 16.394137 -104.671736
v -11.600713 16.879748 -105.289917
v -11.721742 16.609003 -104.945259
v -11.669449 16.820703 -105.214753
v -11.713929 16.753365 -105.129033
v -11.731688 16.681470 -105.037510
v -10.405551 24.581314 -115.093989
f 1 2 3
f 1 4 2
f 2 4 5
f 4 6 5
f 5 6 7
f 6 8 7
f 7 8 9
f 8 10 9
f 9 10 11
f 10 12 11
f 11 12 13
f 12 14 13
f 13 14 15
f 14 16 15
f 15 16 17
f 16 18 17
f 17 18 19
f 18 20 19
f 19 20 21
f 20 22 21
f 21 22 23
f 22 24 23
f 23 24 25
f 24 26 25
f 25 26 27
f 26 28 27
f 27 28 29
f 28 30 29
f 29 30 31
f 30 32 31
f 31 32 33
f 32 34 33
f 33 34 35
f 34 36 35
f 35 36 37
f 36 38 37
f 37 38 39
f 38 40 39
f 39 40 41
f 40 42 41
f 41 42 43
f 42 44 43
f 43 44 45
f 44 46 45
f 45 46 47
f 46 48 47
f 47 48 49
f 48 508 49
f 50 51 52
f 50 52 53
f 50 54 51
f 50 53 442
f 50 442 444
f 52 56 55
f 52 55 58
f 52 58 439
f 52 439 440
f 52 440 441
f 52 441 53
f 53 443 442
f 55 56 57
f 58 59 437
f 58 437 438
f 58 438 439
f 59 60 61
f 59 61 419
f 59 419 437
f 60 77 65
f 60 65 61
f 61 416 418
f 61 418 419
f 62 63 64
f 62 64 65
f 62 66 63
f 62 65 77
f 63 66 71
f 66 67 68
f 66 68 69
f 66 70 71
f 66 72 67
f 66 69 70
f 67 72 75
f 72 76 75
f 73 74 75
f 73 75 76
f 78 79 80
f 78 80 90
f 79 91 80
f 80 89 90
f 80 91 88
f 80 88 87
f 80 92 89
f 81 82 83
f 81 83 84
f 81 85 82
f 82 85 86
f 85 87 86
f 86 87 88
f 89 92 93
f 92 391 392
f 92 393 93
f 92 392 393
f 93 393 408
f 93 409 410
f 93 408 409
f 94 95 96
f 94 96 97
f 94 98 95
f 94 97 387
f 95 98 99
f 95 99 102
f 96 509 97
f 97 103 104
f 97 105 106
f 97 106 111
f 97 383 387
f 97 509 103
f 97 104 510
f 97 510 105
f 97 511 383
f 99 101 100
f 99 100 102
f 106 107 108
f 106 108 109
f 106 110 111
f 106 144 151
f 106 143 144
f 106 151 107
f 106 109 110
f 112 113 114
f 112 114 121
f 112 122 123
f 112 121 122
f 113 115 114
f 114 115 116
f 114 118 120
f 114 120 121
f 117 118 119
f 117 120 118
f 122 124 123
f 123 124 126
f 124 125 126
f 124 127 125
f 125 127 128
f 127 129 128
f 128 129 130
f 129 131 130
f 130 131 132
f 131 133 132
f 132 133 134
f 133 135 136
f 133 136 134
f 134 136 137
f 136 138 137
f 137 138 139
f 138 140 139
f 139 140 141
f 140 142 141
f 141 142 143
f 142 144 143
f 144 145 146
f 144 146 147
f 144 148 149
f 144 149 150
f 144 152 145
f 144 147 148
f 144 150 151
f 145 154 185
f 145 152 154
f 152 153 154
f 153 183 184
f 153 184 154
f 154 295 296
f 154 298 185
f 154 296 298
f 155 156 157
f 155 157 158
f 155 159 156
f 155 158 171
f 156 159 162
f 158 170 171
f 158 172 170
f 159 160 161
f 159 161 162
f 159 163 160
f 160 163 164
f 160 164 169
f 164 166 169
f 165 166 167
f 165 167 168
f 165 169 166
f 170 172 173
f 172 174 173
f 173 174 175
f 174 176 175
f 175 177 178
f 175 176 177
f 177 179 178
f 178 180 181
f 178 179 180
f 180 182 181
f 181 182 183
f 182 184 183
f 185 298 328
f 186 187 188
f 186 188 291
f 186 292 293
f 186 291 292
f 187 219 188
f 188 189 190
f 188 191 192
f 188 219 189
f 188 190 220
f 188 220 191
f 188 192 218
f 188 256 257
f 188 257 291
f 192 202 195
f 192 195 203
f 192 203 204
f 192 204 205
f 192 205 206
f 192 206 207
f 192 207 208
f 192 208 209
f 192 209 210
f 192 210 211
f 192 211 212
f 192 212 213
f 192 213 214
f 192 214 215
f 192 215 216
f 192 216 217
f 192 217 218
f 193 194 195
f 193 195 202
f 194 201 195
f 195 201 200
f 196 197 198
f 196 199 197
f 197 200 201
f 197 199 200
f 221 222 223
f 221 224 222
f 222 224 225
f 222 227 233
f 222 225 227
f 225 226 227
f 226 229 231
f 226 231 232
f 226 232 227
f 227 234 233
f 228 229 230
f 228 231 229
f 233 234 246
f 233 247 248
f 233 246 247
f 234 240 239
f 234 239 241
f 234 241 244
f 234 244 246
f 235 236 237
f 235 237 238
f 235 239 236
f 236 239 240
f 241 242 244
f 242 243 244
f 243 245 244
f 247 249 248
f 248 249 250
f 249 251 250
f 250 251 252
f 251 253 252
f 252 253 254
f 253 255 254
f 254 255 256
f 255 257 256
f 257 290 289
f 257 289 291
f 258 259 260
f 258 260 285
f 259 282 260
f 260 284 285
f 260 282 263
f 260 286 284
f 261 262 263
f 261 263 283
f 262 280 266
f 262 266 263
f 263 282 283
f 264 265 266
f 264 266 280
f 265 281 266
f 266 267 269
f 266 281 267
f 267 268 269
f 267 270 268
f 268 270 274
f 270 271 272
f 270 272 273
f 270 275 271
f 270 273 274
f 271 275 278
f 275 279 278
f 276 277 278
f 276 278 279
f 284 286 288
f 286 287 288
f 286 289 287
f 287 289 290
f 292 294 293
f 293 294 295
f 294 296 295
f 296 297 298
f 297 309 298
f 298 299 300
f 298 301 302
f 298 309 299
f 298 300 310
f 298 310 301
f 298 302 311
f 298 311 306
f 298 306 305
f 298 312 313
f 298 313 314
f 298 315 316
f 298 316 317
f 298 318 319
f 298 319 320
f 298 321 312
f 298 314 315
f 298 317 318
f 298 320 324
f 298 324 328
f 303 304 305
f 303 305 307
f 304 308 305
f 305 306 307
f 312 321 322
f 321 323 322
f 324 325 328
f 325 326 327
f 325 327 328
f 325 329 326
f 326 329 330
f 329 331 330
f 330 331 370
f 331 367 370
f 332 333 334
f 332 334 335
f 332 336 333
f 333 336 337
f 336 338 339
f 336 339 340
f 336 341 338
f 336 340 337
f 337 340 342
f 340 343 342
f 342 343 344
f 343 345 344
f 344 346 347
f 344 345 346
f 346 348 347
f 347 348 349
f 348 350 349
f 349 350 351
f 350 352 351
f 351 352 354
f 352 353 354
f 352 355 356
f 352 356 353
f 353 356 357
f 356 358 357
f 357 358 359
f 358 360 359
f 359 360 361
f 360 362 361
f 361 362 363
f 362 364 363
f 363 364 365
f 364 366 365
f 365 366 367
f 366 368 370
f 366 370 367
f 368 369 370
f 368 371 369
f 369 371 372
f 371 373 372
f 372 373 375
f 373 374 375
f 373 376 374
f 374 376 511
f 376 384 511
f 377 378 379
f 377 379 381
f 379 380 381
f 379 382 380
f 380 383 384
f 380 382 383
f 383 385 387
f 383 511 384
f 385 386 387
f 385 388 386
f 386 388 389
f 388 390 389
f 389 390 391
f 390 392 391
f 393 395 399
f 393 399 400
f 393 400 401
f 393 401 402
f 393 402 403
f 393 403 404
f 393 404 405
f 393 405 406
f 393 406 407
f 393 407 408
f 394 395 396
f 394 397 395
f 395 397 398
f 395 398 399
f 409 411 410
f 410 411 412
f 411 413 412
f 412 413 414
f 413 415 414
f 414 415 417
f 415 416 417
f 415 418 416
f 419 433 436
f 419 436 437
f 420 421 422
f 420 422 430
f 421 431 422
f 422 429 430
f 422 431 428
f 422 428 427
f 422 432 429
f 423 424 425
f 423 426 424
f 424 427 428
f 424 426 427
f 429 432 434
f 432 433 434
f 432 435 433
f 433 435 436
f 445 446 447
f 446 512 447
f 448 449 450
f 448 450 451
f 448 452 449
f 448 451 557
f 451 555 556
f 451 556 557
f 453 454 455
f 453 455 456
f 453 457 454
f 453 456 606
f 456 604 605
f 456 605 606
f 458 459 460
f 458 460 461
f 458 462 459
f 458 461 637
f 461 635 636
f 461 636 637
f 463 464 465
f 463 465 466
f 463 467 464
f 463 466 722
f 466 720 721
f 466 721 722
f 468 469 470
f 468 470 471
f 468 472 469
f 468 471 807
f 471 805 806
f 471 806 807
f 473 474 475
f 473 475 476
f 473 477 474
f 473 476 892
f 476 890 891
f 476 891 892
f 478 479 480
f 478 480 481
f 478 482 479
f 478 481 941
f 481 939 940
f 481 940 941
f 483 484 485
f 483 485 486
f 483 487 484
f 483 486 972
f 486 970 971
f 486 971 972
f 488 489 490
f 488 490 491
f 488 492 489
f 488 491 1057
f 491 1055 1056
f 491 1056 1057
f 493 494 495
f 493 495 496
f 493 497 494
f 493 496 1196
f 496 1194 1195
f 496 1195 1196
f 498 499 500
f 498 500 501
f 498 502 499
f 498 501 1281
f 501 1279 1280
f 501 1280 1281
f 503 504 505
f 503 505 506
f 503 507 504
f 503 506 1366
f 506 1364 1365
f 506 1365 1366
f 513 514 515
f 514 516 515
f 517 518 519
f 518 520 519
f 519 520 521
f 520 522 521
f 521 522 523
f 522 524 523
f 525 526 527
f 526 528 527
f 529 530 531
f 530 532 531
f 531 532 533
f 532 534 533
f 533 534 535
f 534 536 535
f 535 536 537
f 536 538 537
f 539 540 541
f 540 542 541
f 543 544 545
f 544 546 545
f 545 546 547
f 546 548 547
f 547 548 549
f 548 550 549
f 549 550 551
f 550 552 551
f 551 552 553
f 552 554 553
f 558 559 560
f 559 561 560
f 560 561 562
f 561 563 562
f 562 563 564
f 563 565 564
f 566 567 568
f 567 569 568
f 570 571 572
f 571 573 572
f 572 573 574
f 573 575 574
f 574 575 576
f 575 577 576
f 576 577 578
f 577 579 578
f 578 579 580
f 579 581 580
f 580 581 582
f 581 583 582
f 582 583 584
f 583 585 584
f 584 585 586
f 585 587 586
f 586 587 588
f 587 589 588
f 588 589 590
f 589 591 590
f 592 593 594
f 593 595 594
f 596 597 598
f 597 599 598
f 598 599 600
f 599 601 600
f 600 601 602
f 601 603 602
f 607 608 609
f 608 610 609
f 609 610 611
f 610 612 611
f 611 612 613
f 612 614 613
f 613 614 615
f 614 616 615
f 615 616 617
f 616 618 617
f 619 620 621
f 620 622 621
f 623 624 625
f 624 626 625
f 625 626 627
f 626 628 627
f 627 628 629
f 628 630 629
f 629 630 631
f 630 632 631
f 631 632 633
f 632 634 633
f 638 639 640
f 639 641 640
f 640 641 642
f 641 643 642
f 642 643 644
f 643 645 644
f 646 647 648
f 647 649 648
f 650 651 652
f 651 653 652
f 652 653 654
f 653 655 654
f 654 655 656
f 655 657 656
f 656 657 658
f 657 659 658
f 658 659 660
f 659 661 660
f 660 661 662
f 661 663 662
f 662 663 664
f 663 665 664
f 664 665 666
f 665 667 666
f 666 667 668
f 667 669 668
f 668 669 670
f 669 671 670
f 672 673 674
f 673 675 674
f 676 677 678
f 677 679 678
f 678 679 680
f 679 681 680
f 680 681 682
f 681 683 682
f 684 685 686
f 685 687 686
f 686 687 688
f 687 689 688
f 688 689 690
f 689 691 690
f 692 693 694
f 693 695 694
f 694 695 696
f 695 697 696
f 696 697 698
f 697 699 698
f 698 699 700
f 699 701 700
f 700 701 702
f 701 703 702
f 704 705 706
f 705 707 706
f 708 709 710
f 709 711 710
f 710 711 712
f 711 713 712
f 712 713 714
f 713 715 714
f 714 715 716
f 715 717 716
f 716 717 718
f 717 719 718
f 723 724 725
f 724 726 725
f 725 726 727
f 726 728 727
f 727 728 729
f 728 730 729
f 731 732 733
f 732 734 733
f 735 736 737
f 736 738 737
f 737 738 739
f 738 740 739
f 739 740 741
f 740 742 741
f 741 742 743
f 742 744 743
f 743 744 745
f 744 746 745
f 745 746 747
f 746 748 747
f 747 748 749
f 748 750 749
f 749 750 751
f 750 752 751
f 751 752 753
f 752 754 753
f 753 754 755
f 754 756 755
f 757 758 759
f 758 760 759
f 761 762 763
f 762 764 763
f 763 764 765
f 764 766 765
f 765 766 767
f 766 768 767
f 769 770 771
f 770 772 771
f 771 772 773
f 772 774 773
f 773 774 775
f 774 776 775
f 777 778 779
f 778 780 779
f 779 780 781
f 780 782 781
f 781 782 783
f 782 784 783
f 783 784 785
f 784 786 785
f 785 786 787
f 786 788 787
f 789 790 791
f 790 792 791
f 793 794 795
f 794 796 795
f 795 796 797
f 796 798 797
f 797 798 799
f 798 800 799
f 799 800 801
f 800 802 801
f 801 802 803
f 802 804 803
f 808 809 810
f 809 811 810
f 810 811 812
f 811 813 812
f 812 813 814
f 813 815 814
f 816 817 818
f 817 819 818
f 820 821 822
f 821 823 822
f 822 823 824
f 823 825 824
f 824 825 826
f 825 827 826
f 826 827 828
f 827 829 828
f 828 829 830
f 829 831 830
f 830 831 832
f 831 833 832
f 832 833 834
f 833 835 834
f 834 835 836
f 835 837 836
f 836 837 838
f 837 839 838
f 838 839 840
f 839 841 840
f 842 843 844
f 843 845 844
f 846 847 848
f 847 849 848
f 848 849 850
f 849 851 850
f 850 851 852
f 851 853 852
f 854 855 856
f 855 857 856
f 856 857 858
f 857 859 858
f 858 859 860
f 859 861 860
f 862 863 864
f 863 865 864
f 864 865 866
f 865 867 866
f 866 867 868
f 867 869 868
f 868 869 870
f 869 871 870
f 870 871 872
f 871 873 872
f 874 875 876
f 875 877 876
f 878 879 880
f 879 881 880
f 880 881 882
f 881 883 882
f 882 883 884
f 883 885 884
f 884 885 886
f 885 887 886
f 886 887 888
f 887 889 888
f 893 894 895
f 894 896 895
f 895 896 897
f 896 898 897
f 897 898 899
f 898 900 899
f 901 902 903
f 902 904 903
f 905 906 907
f 906 908 907
f 907 908 909
f 908 910 909
f 909 910 911
f 910 912 911
f 911 912 913
f 912 914 913
f 913 914 915
f 914 916 915
f 915 916 917
f 916 918 917
f 917 918 919
f 918 920 919
f 919 920 921
f 920 922 921
f 921 922 923
f 922 924 923
f 923 924 925
f 924 926 925
f 927 928 929
f 928 930 929
f 931 932 933
f 932 934 933
f 933 934 935
f 934 936 935
f 935 936 937
f 936 938 937
f 942 943 944
f 943 945 944
f 944 945 946
f 945 947 946
f 946 947 948
f 947 949 948
f 948 949 950
f 949 951 950
f 950 951 952
f 951 953 952
f 954 955 956
f 955 957 956
f 958 959 960
f 959 961 960
f 960 961 962
f 961 963 962
f 962 963 964
f 963 965 964
f 964 965 966
f 965 967 966
f 966 967 968
f 967 969 968
f 973 974 975
f 974 976 975
f 975 976 977
f 976 978 977
f 977 978 979
f 978 980 979
f 981 982 983
f 982 984 983
f 985 986 987
f 986 988 987
f 987 988 989
f 988 990 989
f 989 990 991
f 990 992 991
f 991 992 993
f 992 994 993
f 993 994 995
f 994 996 995
f 995 996 997
f 996 998 997
f 997 998 999
f 998 1000 999
f 999 1000 1001
f 1000 1002 1001
f 1001 1002 1003
f 1002 1004 1003
f 1003 1004 1005
f 1004 1006 1005
f 1007 1008 1009
f 1008 1010 1009
f 1011 1012 1013
f 1012 1014 1013
f 1013 1014 1015
f 1014 1016 1015
f 1015 1016 1017
f 1016 1018 1017
f 1019 1020 1021
f 1020 1022 1021
f 1021 1022 1023
f 1022 1024 1023
f 1023 1024 1025
f 1024 1026 1025
f 1027 1028 1029
f 1028 1030 1029
f 1029 1030 1031
f 1030 1032 1031
f 1031 1032 1033
f 1032 1034 1033
f 1033 1034 1035
f 1034 1036 1035
f 1035 1036 1037
f 1036 1038 1037
f 1039 1040 1041
f 1040 1042 1041
f 1043 1044 1045
f 1044 1046 1045
f 1045 1046 1047
f 1046 1048 1047
f 1047 1048 1049
f 1048 1050 1049
f 1049 1050 1051
f 1050 1052 1051
f 1051 1052 1053
f 1052 1054 1053
f 1058 1059 1060
f 1059 1061 1060
f 1060 1061 1062
f 1061 1063 1062
f 1062 1063 1064
f 1063 1065 1064
f 1066 1067 1068
f 1067 1069 1068
f 1070 1071 1072
f 1071 1073 1072
f 1072 1073 1074
f 1073 1075 1074
f 1074 1075 1076
f 1075 1077 1076
f 1076 1077 1078
f 1077 1079 1078
f 1078 1079 1080
f 1079 1081 1080
f 1080 1081 1082
f 1081 1083 1082
f 1082 1083 1084
f 1083 1085 1084
f 1084 1085 1086
f 1085 1087 1086
f 1086 1087 1088
f 1087 1089 1088
f 1088 1089 1090
f 1089 1091 1090
f 1092 1093 1094
f 1093 1095 1094
f 1096 1097 1098
f 1097 1099 1098
f 1098 1099 1100
f 1099 1101 1100
f 1100 1101 1102
f 1101 1103 1102
f 1104 1105 1106
f 1105 1107 1106
f 1106 1107 1108
f 1107 1109 1108
f 1108 1109 1110
f 1109 1111 1110
f 1112 1113 1114
f 1113 1115 1114
f 1114 1115 1116
f 1115 1117 1116
f 1116 1117 1118
f 1117 1119 1118
f 1118 1119 1120
f 1119 1121 1120
f 1120 1121 1122
f 1121 1123 1122
f 1124 1125 1126
f 1125 1127 1126
f 1128 1129 1130
f 1129 1131 1130
f 1130 1131 1132
f 1131 1133 1132
f 1132 1133 1134
f 1133 1135 1134
f 1134 1135 1136
f 1135 1137 1136
f 1136 1137 1138
f 1137 1139 1138
f 1140 1141 1142
f 1141 1143 1142
f 1142 1143 1144
f 1143 1145 1144
f 1144 1145 1146
f 1145 1147 1146
f 1148 1149 1150
f 1149 1151 1150
f 1150 1151 1152
f 1151 1153 1152
f 1152 1153 1154
f 1153 1155 1154
f 1156 1157 1158
f 1157 1159 1158
f 1160 1161 1162
f 1161 1163 1162
f 1162 1163 1164
f 1163 1165 1164
f 1164 1165 1166
f 1165 1167 1166
f 1166 1167 1168
f 1167 1169 1168
f 1168 1169 1170
f 1169 1171 1170
f 1170 1171 1172
f 1171 1173 1172
f 1172 1173 1174
f 1173 1175 1174
f 1174 1175 1176
f 1175 1177 1176
f 1176 1177 1178
f 1177 1179 1178
f 1178 1179 1180
f 1179 1181 1180
f 1182 1183 1184
f 1183 1185 1184
f 1186 1187 1188
f 1187 1189 1188
f 1188 1189 1190
f 1189 1191 1190
f 1190 1191 1192
f 1191 1193 1192
f 1197 1198 1199
f 1198 1200 1199
f 1199 1200 1201
f 1200 1202 1201
f 1201 1202 1203
f 1202 1204 1203
f 1203 1204 1205
f 1204 1206 1205
f 1205 1206 1207
f 1206 1208 1207
f 1209 1210 1211
f 1210 1212 1211
f 1213 1214 1215
f 1214 1216 1215
f 1215 1216 1217
f 1216 1218 1217
f 1217 1218 1219
f 1218 1220 1219
f 1219 1220 1221
f 1220 1222 1221
f 1221 1222 1223
f 1222 1224 1223
f 1225 1226 1227
f 1226 1228 1227
f 1227 1228 1229
f 1228 1230 1229
f 1229 1230 1231
f 1230 1232 1231
f 1233 1234 1235
f 1234 1236 1235
f 1235 1236 1237
f 1236 1238 1237
f 1237 1238 1239
f 1238 1240 1239
f 1241 1242 1243
f 1242 1244 1243
f 1245 1246 1247
f 1246 1248 1247
f 1247 1248 1249
f 1248 1250 1249
f 1249 1250 1251
f 1250 1252 1251
f 1251 1252 1253
f 1252 1254 1253
f 1253 1254 1255
f 1254 1256 1255
f 1255 1256 1257
f 1256 1258 1257
f 1257 1258 1259
f 1258 1260 1259
f 1259 1260 1261
f 1260 1262 1261
f 1261 1262 1263
f 1262 1264 1263
f 1263 1264 1265
f 1264 1266 1265
f 1267 1268 1269
f 1268 1270 1269
f 1271 1272 1273
f 1272 1274 1273
f 1273 1274 1275
f 1274 1276 1275
f 1275 1276 1277
f 1276 1278 1277
f 1282 1283 1284
f 1283 1285 1284
f 1284 1285 1286
f 1285 1287 1286
f 1286 1287 1288
f 1287 1289 1288
f 1288 1289 1290
f 1289 1291 1290
f 1290 1291 1292
f 1291 1293 1292
f 1294 1295 1296
f 1295 1297 1296
f 1298 1299 1300
f 1299 1301 1300
f 1300 1301 1302
f 1301 1303 1302
f 1302 1303 1304
f 1303 1305 1304
f 1304 1305 1306
f 1305 1307 1306
f 1306 1307 1308
f 1307 1309 1308
f 1310 1311 1312
f 1311 1313 1312
f 1312 1313 1314
f 1313 1315 1314
f 1314 1315 1316
f 1315 1317 1316
f 1318 1319 1320
f 1319 1321 1320
f 1320 1321 1322
f 1321 1323 1322
f 1322 1323 1324
f 1323 1325 1324
f 1326 1327 1328
f 1327 1329 1328
f 1330 1331 1332
f 1331 1333 1332
f 1332 1333 1334
f 1333 1335 1334
f 1334 1335 1336
f 1335 1337 1336
f 1336 1337 1338
f 1337 1339 1338
f 1338 1339 1340
f 1339 1341 1340
f 1340 1341 1342
f 1341 1343 1342
f 1342 1343 1344
f 1343 1345 1344
f 1344 1345 1346
f 1345 1347 1346
f 1346 1347 1348
f 1347 1349 1348
f 1348 1349 1350
f 1349 1351 1350
f 1352 1353 1354
f 1353 1355 1354
f 1356 1357 1358
f 1357 1359 1358
f 1358 1359 1360
f 1359 1361 1360
f 1360 1361 1362
f 1361 1363 1362
f 1367 1368 1369
f 1368 1370 1369
f 1369 1370 1371
f 1370 1372 1371
f 1371 1372 1373
f 1372 1374 1373
f 1373 1374 1375
f 1374 1376 1375
f 1375 1376 1377
f 1376 1378 1377
f 1379 1380 1381
f 1380 1382 1381
f 1383 1384 1385
f 1384 1386 1385
f 1385 1386 1387
f 1386 1388 1387
f 1387 1388 1389
f 1388 1390 1389
f 1389 1390 1391
f 1390 1392 1391
f 1393 1394 1395
f 1394 1396 1395
f 1397 1398 1399
f 1398 1400 1399
f 1399 1400 1401
f 1400 1402 1401
f 1401 1402 1403
f 1402 1404 1403
f 1405 1406 1407
f 1406 1408 1407
f 1409 1410 1411
f 1410 1412 1411
f 1413 1414 1415
f 1414 1416 1415
f 1417 1418 1419
f 1418 1420 1419
f 1421 1422 1423
f 1422 1424 1423
f 1425 1426 1427
f 1425 1428 1426
f 1425 1443 1428
f 1426 1429 1427
f 1427 1429 1430
f 1427 1527 1526
f 1427 1430 1527
f 1428 1443 1444
f 1429 1431 1430
f 1429 1432 1431
f 1431 1432 1433
f 1432 1434 1433
f 1433 1434 1435
f 1434 1436 1435
f 1435 1436 1437
f 1436 1438 1437
f 1437 1438 1439
f 1438 1440 1439
f 1439 1440 1441
f 1439 1441 1442
f 1439 1442 1606
f 1441 1604 1442
f 1442 1604 1605
f 1443 1445 1444
f 1444 1445 1446
f 1444 1446 1447
f 1446 1448 1447
f 1447 1448 1449
f 1448 1450 1451
f 1448 1451 1449
f 1449 1451 1452
f 1449 1452 1453
f 1450 1454 1451
f 1450 1456 1457
f 1450 1457 1458
f 1450 1459 1460
f 1450 1460 1461
f 1450 1462 1454
f 1450 1466 1456
f 1450 1458 1459
f 1450 1461 1462
f 1451 1454 1455
f 1451 1455 1465
f 1452 1599 1453
f 1453 1599 1600
f 1453 1600 1602
f 1454 1463 1464
f 1454 1462 1463
f 1455 1598 1465
f 1456 1466 1467
f 1456 1467 1468
f 1456 1468 1469
f 1456 1470 1471
f 1456 1471 1472
f 1456 1472 1473
f 1456 1469 1470
f 1463 1789 1464
f 1463 1790 1789
f 1465 1597 1596
f 1465 1598 1597
f 1471 1474 1472
f 1472 1474 1475
f 1472 1476 1477
f 1472 1477 1478
f 1472 1479 1480
f 1472 1475 1476
f 1472 1478 1479
f 1472 1758 1473
f 1473 1758 1759
f 1479 1481 1482
f 1479 1482 1480
f 1480 1482 1483
f 1481 1484 1482
f 1481 1496 1484
f 1482 1484 1485
f 1482 1485 1486
f 1482 1487 1483
f 1483 1487 1488
f 1484 1496 1497
f 1484 1497 1498
f 1484 1499 1500
f 1484 1500 1501
f 1484 1502 1503
f 1484 1503 1504
f 1484 1505 1506
f 1484 1506 1507
f 1484 1508 1485
f 1484 1509 1508
f 1484 1510 1509
f 1484 1511 1510
f 1484 1512 1511
f 1484 1513 1512
f 1484 1514 1513
f 1484 1515 1514
f 1484 1516 1515
f 1484 1517 1516
f 1484 1498 1499
f 1484 1501 1502
f 1484 1504 1505
f 1485 1628 1486
f 1486 1628 1629
f 1487 1489 1488
f 1488 1489 1490
f 1489 1491 1490
f 1490 1491 1492
f 1491 1493 1492
f 1492 1493 1494
f 1492 1494 1495
f 1494 1737 1495
f 1495 1737 1738
f 1495 1738 1739
f 1496 1522 1497
f 1496 1523 1522
f 1506 1626 1507
f 1507 1626 1627
f 1516 1517 1518
f 1517 1519 1518
f 1517 1520 1519
f 1517 1521 1520
f 1522 1523 1524
f 1522 1524 1525
f 1524 1526 1525
f 1525 1526 1527
f 1528 1529 1530
f 1529 1531 1532
f 1529 1533 1530
f 1529 1532 1533
f 1529 1540 1531
f 1531 1541 1532
f 1532 1534 1533
f 1533 1535 1536
f 1533 1536 1537
f 1533 1538 1539
f 1533 1534 1535
f 1533 1537 1538
f 1536 1542 1537
f 1537 1542 1543
f 1537 1543 1545
f 1538 1822 1539
f 1543 1544 1545
f 1543 1546 1544
f 1544 1546 1547
f 1544 1548 1545
f 1544 1565 1548
f 1545 1548 1549
f 1546 1550 1547
f 1547 1550 1551
f 1547 1551 1553
f 1548 1565 1566
f 1548 1806 1549
f 1549 1806 1807
f 1551 1552 1553
f 1551 1554 1552
f 1552 1554 1559
f 1554 1555 1556
f 1554 1556 1557
f 1554 1558 1559
f 1554 1560 1555
f 1554 1557 1558
f 1555 1560 1561
f 1560 1562 1561
f 1561 1562 1563
f 1561 1563 1564
f 1565 1567 1566
f 1566 1567 1568
f 1567 1569 1568
f 1567 1570 1569
f 1569 1570 1571
f 1570 1572 1571
f 1571 1572 1573
f 1572 1574 1573
f 1573 1574 1575
f 1574 1576 1575
f 1575 1576 1577
f 1575 1577 1578
f 1575 1578 1579
f 1576 1580 1577
f 1577 1580 1581
f 1577 1582 1583
f 1577 1583 1584
f 1577 1585 1586
f 1577 1586 1587
f 1577 1588 1589
f 1577 1581 1582
f 1577 1584 1585
f 1577 1587 1588
f 1577 1594 1578
f 1578 1594 1595
f 1578 1793 1579
f 1579 1793 1794
f 1588 1590 1589
f 1589 1590 1591
f 1589 1592 1593
f 1589 1591 1592
f 1594 1596 1595
f 1595 1596 1597
f 1600 1601 1602
f 1600 1603 1601
f 1604 1607 1605
f 1605 1607 1608
f 1607 1609 1608
f 1608 1609 1610
f 1609 1611 1610
f 1610 1611 1612
f 1611 1613 1612
f 1612 1613 1614
f 1612 1614 1615
f 1614 1616 1615
f 1615 1616 1617
f 1616 1618 1619
f 1616 1619 1617
f 1617 1619 1620
f 1618 1621 1619
f 1619 1621 1622
f 1619 1623 1620
f 1620 1623 1624
f 1623 1625 1624
f 1628 1630 1629
f 1629 1630 1631
f 1630 1632 1631
f 1631 1632 1633
f 1631 1633 1643
f 1632 1634 1635
f 1632 1635 1633
f 1633 1635 1636
f 1633 1637 1638
f 1633 1638 1639
f 1633 1640 1641
f 1633 1641 1642
f 1633 1711 1637
f 1633 1639 1640
f 1633 1642 1643
f 1634 1644 1635
f 1634 1666 1644
f 1634 1667 1666
f 1635 1645 1636
f 1636 1645 1646
f 1637 1711 1712
f 1637 1712 1713
f 1637 1713 1714
f 1637 1715 1716
f 1637 1716 1717
f 1637 1718 1719
f 1637 1719 1720
f 1637 1721 1722
f 1637 1722 1723
f 1637 1724 1725
f 1637 1725 1726
f 1637 1727 1728
f 1637 1714 1715
f 1637 1717 1718
f 1637 1720 1721
f 1637 1723 1724
f 1637 1726 1727
f 1645 1647 1646
f 1646 1647 1648
f 1647 1649 1648
f 1648 1649 1650
f 1649 1651 1650
f 1650 1651 1652
f 1651 1653 1652
f 1652 1653 1654
f 1653 1655 1654
f 1654 1655 1656
f 1654 1657 1658
f 1654 1656 1657
f 1655 1659 1656
f 1656 1659 1660
f 1656 1661 1662
f 1656 1660 1661
f 1657 1701 1658
f 1657 1705 1701
f 1657 1706 1705
f 1658 1701 1702
f 1658 1703 1704
f 1658 1702 1703
f 1659 1663 1660
f 1659 1664 1663
f 1659 1665 1664
f 1661 1697 1662
f 1661 1698 1697
f 1666 1667 1668
f 1667 1669 1668
f 1667 1670 1669
f 1669 1670 1671
f 1670 1672 1671
f 1670 1673 1672
f 1670 1674 1673
f 1670 1675 1674
f 1674 1675 1676
f 1675 1677 1676
f 1675 1678 1677
f 1675 1679 1678
f 1678 1679 1680
f 1679 1681 1680
f 1679 1682 1681
f 1679 1683 1682
f 1679 1684 1683
f 1679 1685 1684
f 1684 1685 1686
f 1684 1686 1687
f 1686 1688 1687
f 1687 1688 1689
f 1687 1690 1691
f 1687 1691 1692
f 1687 1689 1690
f 1691 1693 1692
f 1692 1693 1694
f 1693 1695 1694
f 1693 1696 1695
f 1697 1698 1699
f 1698 1700 1699
f 1705 1706 1707
f 1705 1707 1708
f 1707 1709 1708
f 1708 1709 1710
f 1727 1729 1728
f 1727 1730 1729
f 1727 1731 1730
f 1727 1732 1731
f 1731 1732 1733
f 1732 1734 1733
f 1733 1734 1735
f 1733 1735 1736
f 1738 1740 1739
f 1739 1740 1741
f 1740 1742 1741
f 1741 1742 1743
f 1742 1744 1743
f 1742 1745 1744
f 1744 1745 1746
f 1744 1746 1747
f 1746 1748 1747
f 1747 1748 1749
f 1747 1750 1751
f 1747 1749 1750
f 1750 1752 1751
f 1750 1753 1752
f 1752 1753 1754
f 1753 1755 1754
f 1754 1755 1756
f 1755 1757 1756
f 1758 1760 1759
f 1759 1760 1761
f 1760 1762 1761
f 1761 1762 1763
f 1762 1764 1763
f 1763 1764 1765
f 1763 1765 1766
f 1763 1766 1770
f 1765 1767 1766
f 1766 1767 1768
f 1766 1768 1769
f 1768 1771 1769
f 1769 1771 1772
f 1771 1773 1772
f 1772 1773 1774
f 1773 1775 1774
f 1774 1775 1776
f 1775 1777 1776
f 1775 1778 1777
f 1777 1778 1779
f 1778 1780 1779
f 1779 1780 1781
f 1779 1781 1785
f 1780 1782 1781
f 1781 1782 1783
f 1781 1784 1785
f 1781 1788 1784
f 1782 1786 1783
f 1783 1786 1787
f 1789 1790 1791
f 1789 1791 1792
f 1793 1795 1794
f 1793 1796 1795
f 1793 1797 1796
f 1793 1798 1797
f 1793 1799 1798
f 1798 1799 1800
f 1799 1801 1800
f 1800 1801 1802
f 1801 1803 1802
f 1802 1803 1804
f 1803 1805 1804
f 1806 1808 1807
f 1806 1809 1808
f 1808 1809 1810
f 1808 1810 1811
f 1810 1812 1811
f 1811 1812 1813
f 1811 1814 1815
f 1811 1815 1816
f 1811 1816 1817
f 1811 1813 1814
f 1816 1818 1817
f 1817 1818 1819
f 1818 1820 1819
f 1818 1821 1820