# SG90Horn1
# Autodesk dbId: 146
# Units: mm
o 146_SG90Horn1
v 7.040342 -3.010637 -90.124802
v 7.065164 -4.130280 -90.965823
v 7.040342 -4.111571 -90.989639
v 7.065164 -3.029345 -90.100987
v 7.096979 -4.144382 -90.947871
v 7.096979 -3.043447 -90.083035
v 7.133619 -4.152917 -90.937006
v 7.133619 -3.051982 -90.072169
v 7.172586 -4.155303 -90.933969
v 7.172586 -3.054368 -90.069132
v 7.211224 -4.151378 -90.938965
v 7.211224 -3.050443 -90.074129
v 7.246902 -4.141409 -90.951656
v 7.246902 -3.040474 -90.086819
v 7.277187 -4.126075 -90.971176
v 7.277187 -3.025140 -90.106339
v 7.300016 -4.106421 -90.996195
v 7.300016 -3.005487 -90.131358
v 7.313832 -4.083788 -91.025007
v 7.313832 -2.982853 -90.160170
v 7.317695 -4.059716 -91.055650
v 7.317695 -2.958782 -90.190813
v 7.311341 -4.035848 -91.086035
v 7.311341 -2.934913 -90.221198
v 7.295203 -4.013808 -91.114091
v 7.295203 -2.912873 -90.249255
v 7.270381 -3.995100 -91.137907
v 7.270380 -2.894165 -90.273070
v 7.238566 -3.980998 -91.155859
v 7.238565 -2.880063 -90.291022
v 7.201926 -3.972463 -91.166724
v 7.201926 -2.871528 -90.301887
v 7.162959 -3.970076 -91.169762
v 7.162959 -2.869142 -90.304925
v 7.124321 -3.974002 -91.164765
v 7.124321 -2.873067 -90.299928
v 7.088643 -3.983971 -91.152074
v 7.088643 -2.883036 -90.287237
v 7.058358 -3.999305 -91.132554
v 7.058358 -2.898370 -90.267717
v 7.035529 -4.018958 -91.107536
v 7.035529 -2.918023 -90.242699
v 7.021713 -4.041592 -91.078723
v 7.021712 -2.940657 -90.213886
v 7.017850 -4.065663 -91.048080
v 7.017850 -2.964728 -90.183243
v 7.024204 -4.089532 -91.017695
v 7.024204 -2.988597 -90.152859
v 7.040342 -4.111571 -90.989639
v 10.013717 -1.870066 -91.576745
v 10.038540 -2.989709 -92.417766
v 10.013717 -2.971001 -92.441582
v 10.038540 -1.888775 -91.552929
v 10.070355 -3.003811 -92.399814
v 10.070355 -1.902877 -91.534977
v 10.106994 -3.012346 -92.388949
v 10.106994 -1.911412 -91.524112
v 10.145961 -3.014733 -92.385911
v 10.145961 -1.913798 -91.521075
v 10.184600 -3.010807 -92.390908
v 10.184600 -1.909873 -91.526072
v 10.220277 -3.000838 -92.403599
v 10.220277 -1.899904 -91.538762
v 10.250562 -2.985504 -92.423119
v 10.250563 -1.884570 -91.558282
v 10.273391 -2.965851 -92.448138
v 10.273391 -1.864916 -91.583301
v 10.287208 -2.943217 -92.476950
v 10.287208 -1.842283 -91.612113
v 10.291071 -2.919146 -92.507593
v 10.291070 -1.818211 -91.642756
v 10.284716 -2.895277 -92.537978
v 10.284716 -1.794343 -91.673141
v 10.268578 -2.873238 -92.566034
v 10.268578 -1.772303 -91.701197
v 10.243756 -2.854529 -92.589850
v 10.243756 -1.753595 -91.725013
v 10.211941 -2.840427 -92.607802
v 10.211941 -1.739492 -91.742965
v 10.175301 -2.831892 -92.618667
v 10.175301 -1.730957 -91.753830
v 10.136335 -2.829506 -92.621705
v 10.136335 -1.728571 -91.756868
v 10.097696 -2.833431 -92.616708
v 10.097696 -1.732496 -91.751871
v 10.062018 -2.843400 -92.604017
v 10.062018 -1.742466 -91.739180
v 10.031733 -2.858734 -92.584497
v 10.031733 -1.757799 -91.719660
v 10.008904 -2.878387 -92.559478
v 10.008904 -1.777453 -91.694642
v 9.995088 -2.901021 -92.530666
v 9.995088 -1.800086 -91.665829
v 9.991225 -2.925092 -92.500023
v 9.991225 -1.824158 -91.635186
v 9.997579 -2.948961 -92.469638
v 9.997579 -1.848027 -91.604801
v 10.013717 -2.971001 -92.441582
v 14.473780 -0.159210 -93.754659
v 14.498603 -1.278854 -94.595681
v 14.473780 -1.260145 -94.619496
v 14.498603 -0.177919 -93.730844
v 14.530418 -1.292956 -94.577729
v 14.530418 -0.192021 -93.712892
v 14.567057 -1.301491 -94.566864
v 14.567057 -0.200556 -93.702027
v 14.606024 -1.303877 -94.563826
v 14.606024 -0.202942 -93.698989
v 14.644663 -1.299952 -94.568823
v 14.644662 -0.199017 -93.703986
v 14.680340 -1.289983 -94.581513
v 14.680340 -0.189048 -93.716676
v 14.710626 -1.274649 -94.601033
v 14.710625 -0.173714 -93.736197
v 14.733454 -1.254995 -94.626052
v 14.733454 -0.154061 -93.761215
v 14.747271 -1.232362 -94.654864
v 14.747270 -0.131427 -93.790028
v 14.751133 -1.208290 -94.685507
v 14.751133 -0.107356 -93.820670
v 14.744779 -1.184422 -94.715892
v 14.744779 -0.083487 -93.851055
v 14.728641 -1.162382 -94.743949
v 14.728641 -0.061447 -93.879112
v 14.703819 -1.143674 -94.767764
v 14.703818 -0.042739 -93.902927
v 14.672004 -1.129571 -94.785716
v 14.672003 -0.028637 -93.920879
v 14.635364 -1.121036 -94.796581
v 14.635364 -0.020102 -93.931744
v 14.596397 -1.118650 -94.799619
v 14.596397 -0.017716 -93.934782
v 14.557759 -1.122575 -94.794622
v 14.557759 -0.021641 -93.929785
v 14.522081 -1.132545 -94.781931
v 14.522081 -0.031610 -93.917094
v 14.491796 -1.147878 -94.762411
v 14.491796 -0.046944 -93.897575
v 14.468967 -1.167532 -94.737393
v 14.468967 -0.066597 -93.872556
v 14.455151 -1.190165 -94.708580
v 14.455151 -0.089231 -93.843744
v 14.451288 -1.214237 -94.677938
v 14.451288 -0.113302 -93.813101
v 14.457642 -1.238106 -94.647553
v 14.457642 -0.137171 -93.782716
v 14.473780 -1.260145 -94.619496
v 11.500405 -1.299781 -92.302716
v 11.525227 -2.419424 -93.143738
v 11.500405 -2.400716 -93.167553
v 11.525227 -1.318489 -92.278901
v 11.557042 -2.433526 -93.125786
v 11.557042 -1.332591 -92.260949
v 11.593681 -2.442061 -93.114920
v 11.593682 -1.341127 -92.250084
v 11.632649 -2.444447 -93.111883
v 11.632649 -1.343513 -92.247046
v 11.671287 -2.440522 -93.116880
v 11.671287 -1.339587 -92.252043
v 11.706965 -2.430553 -93.129570
v 11.706965 -1.329618 -92.264734
v 11.737250 -2.415219 -93.149090
v 11.737250 -1.314285 -92.284254
v 11.760079 -2.395566 -93.174109
v 11.760078 -1.294631 -92.309272
v 11.773895 -2.372932 -93.202921
v 11.773895 -1.271998 -92.338085
v 11.777758 -2.348861 -93.233565
v 11.777758 -1.247926 -92.368728
v 11.771404 -2.324992 -93.263949
v 11.771404 -1.224057 -92.399113
v 11.755266 -2.302952 -93.292006
v 11.755265 -1.202018 -92.427169
v 11.730443 -2.284244 -93.315821
v 11.730444 -1.183309 -92.450985
v 11.698629 -2.270142 -93.333773
v 11.698628 -1.169207 -92.468937
v 11.661989 -2.261607 -93.344638
v 11.661989 -1.160672 -92.479802
v 11.623022 -2.259221 -93.347676
v 11.623022 -1.158286 -92.482839
v 11.584384 -2.263146 -93.342679
v 11.584383 -1.162211 -92.477842
v 11.548706 -2.273115 -93.329988
v 11.548705 -1.172181 -92.465152
v 11.518420 -2.288449 -93.310469
v 11.518421 -1.187514 -92.445632
v 11.495592 -2.308102 -93.285450
v 11.495592 -1.207167 -92.420613
v 11.481775 -2.330736 -93.256637
v 11.481775 -1.229801 -92.391801
v 11.477912 -2.354807 -93.225994
v 11.477913 -1.253873 -92.361158
v 11.484267 -2.378676 -93.195610
v 11.484267 -1.277741 -92.330773
v 11.500405 -2.400716 -93.167553
v 8.527030 -2.440351 -90.850774
v 8.551852 -3.559994 -91.691795
v 8.527030 -3.541286 -91.715610
v 8.551852 -2.459060 -90.826958
v 8.583667 -3.574097 -91.673843
v 8.583667 -2.473162 -90.809006
v 8.620306 -3.582632 -91.662978
v 8.620306 -2.481697 -90.798141
v 8.659273 -3.585018 -91.659940
v 8.659273 -2.484083 -90.795103
v 8.697912 -3.581093 -91.664937
v 8.697912 -2.480158 -90.800100
v 8.733590 -3.571123 -91.677628
v 8.733590 -2.470189 -90.812791
v 8.763875 -3.555790 -91.697147
v 8.763875 -2.454855 -90.832311
v 8.786704 -3.536136 -91.722166
v 8.786703 -2.435202 -90.857329
v 8.800520 -3.513503 -91.750979
v 8.800520 -2.412568 -90.886142
v 8.804383 -3.489431 -91.781622
v 8.804383 -2.388497 -90.916785
v 8.798029 -3.465562 -91.812006
v 8.798029 -2.364628 -90.947170
v 8.781890 -3.443523 -91.840063
v 8.781890 -2.342588 -90.975226
v 8.757068 -3.424815 -91.863878
v 8.757068 -2.323880 -90.999042
v 8.725253 -3.410712 -91.881830
v 8.725253 -2.309778 -91.016994
v 8.688614 -3.402177 -91.892696
v 8.688614 -2.301243 -91.027859
v 8.649647 -3.399791 -91.895733
v 8.649647 -2.298856 -91.030896
v 8.611008 -3.403716 -91.890736
v 8.611008 -2.302782 -91.025900
v 8.575331 -3.413685 -91.878046
v 8.575330 -2.312751 -91.013209
v 8.545045 -3.429019 -91.858526
v 8.545045 -2.328085 -90.993689
v 8.522217 -3.448673 -91.833507
v 8.522217 -2.347738 -90.968670
v 8.508400 -3.471306 -91.804695
v 8.508400 -2.370372 -90.939858
v 8.504537 -3.495378 -91.774052
v 8.504537 -2.394443 -90.909215
v 8.510892 -3.519246 -91.743667
v 8.510892 -2.418312 -90.878830
v 8.527030 -3.541286 -91.715610
v 12.987093 -0.729496 -93.028688
v 13.011915 -1.849139 -93.869709
v 12.987093 -1.830430 -93.893525
v 13.011915 -0.748204 -93.004872
v 13.043730 -1.863241 -93.851757
v 13.043730 -0.762306 -92.986920
v 13.080369 -1.871776 -93.840892
v 13.080369 -0.770841 -92.976055
v 13.119336 -1.874162 -93.837854
v 13.119336 -0.773227 -92.973018
v 13.157975 -1.870237 -93.842851
v 13.157975 -0.769302 -92.978015
v 13.193652 -1.860268 -93.855542
v 13.193653 -0.759333 -92.990705
v 13.223937 -1.844934 -93.875062
v 13.223938 -0.743999 -93.010225
v 13.246766 -1.825281 -93.900080
v 13.246766 -0.724346 -93.035244
v 13.260583 -1.802647 -93.928893
v 13.260583 -0.701712 -93.064056
v 13.264446 -1.778575 -93.959536
v 13.264446 -0.677641 -93.094699
v 13.258091 -1.754707 -93.989921
v 13.258091 -0.653772 -93.125084
v 13.241953 -1.732667 -94.017977
v 13.241954 -0.631733 -93.153140
v 13.217131 -1.713959 -94.041793
v 13.217131 -0.613024 -93.176956
v 13.185317 -1.699856 -94.059745
v 13.185316 -0.598922 -93.194908
v 13.148677 -1.691322 -94.070610
v 13.148677 -0.590387 -93.205773
v 13.109709 -1.688936 -94.073647
v 13.109710 -0.588001 -93.208811
v 13.071071 -1.692861 -94.068650
v 13.071071 -0.591926 -93.203814
v 13.035393 -1.702830 -94.055960
v 13.035393 -0.601895 -93.191123
v 13.005108 -1.718164 -94.036440
v 13.005108 -0.617229 -93.171603
v 12.982279 -1.737817 -94.011421
v 12.982280 -0.636882 -93.146585
v 12.968463 -1.760451 -93.982609
v 12.968463 -0.659516 -93.117772
v 12.964601 -1.784522 -93.951966
v 12.964600 -0.683587 -93.087129
v 12.970954 -1.808391 -93.921581
v 12.970954 -0.707456 -93.056744
v 12.987093 -1.830430 -93.893525
v 5.086410 -4.074707 -89.417765
v 4.697526 -4.567991 -90.408617
v 5.086410 -4.861089 -90.035505
v 4.697526 -3.781610 -89.790877
v 4.199093 -4.347057 -90.689866
v 4.199093 -3.560675 -90.072126
v 3.625077 -4.213341 -90.860086
v 3.625076 -3.426960 -90.242345
v 3.014595 -4.175958 -90.907675
v 3.014595 -3.389576 -90.289935
v 2.409253 -4.237453 -90.829391
v 2.409253 -3.451071 -90.211651
v 1.850303 -4.393638 -90.630569
v 1.850303 -3.607256 -90.012829
v 1.375836 -4.633867 -90.324759
v 1.375836 -3.847485 -89.707018
v 1.018186 -4.941769 -89.932799
v 1.018187 -4.155387 -89.315059
v 0.801728 -5.296362 -89.481403
v 0.801728 -4.509981 -88.863662
v 0.741211 -5.673481 -89.001332
v 0.741211 -4.887099 -88.383591
v 0.840760 -6.047426 -88.525302
v 0.840760 -5.261044 -87.907561
v 1.093592 -6.392712 -88.085753
v 1.093592 -5.606330 -87.468013
v 1.482475 -6.685810 -87.712641
v 1.482475 -5.899428 -87.094900
v 1.980908 -6.906744 -87.431392
v 1.980908 -6.120362 -86.813651
v 2.554925 -7.040460 -87.261173
v 2.554925 -6.254078 -86.643432
v 3.165405 -7.077844 -87.213583
v 3.165406 -6.291461 -86.595843
v 3.770748 -7.016348 -87.291867
v 3.770748 -6.229966 -86.674127
v 4.329698 -6.860164 -87.490689
v 4.329698 -6.073782 -86.872949
v 4.804165 -6.619934 -87.796500
v 4.804165 -5.833552 -87.178760
v 5.161815 -6.312032 -88.188459
v 5.161815 -5.525650 -87.570719
v 5.378274 -5.957439 -88.639855
v 5.378274 -5.171057 -88.022115
v 5.438790 -5.580320 -89.119926
v 5.438790 -4.793938 -88.502186
v 5.339241 -5.206375 -89.595957
v 5.339241 -4.419994 -88.978216
v 5.086410 -4.861089 -90.035505
v 4.109443 -4.449466 -88.940698
v 4.697526 -3.781610 -89.790877
v 5.086410 -4.074707 -89.417765
v 5.339241 -4.419994 -88.978216
v 3.910865 -4.299799 -89.131223
v 5.043933 -3.540534 -88.964604
v 5.291385 -2.305710 -87.298927
v 5.043933 -1.967770 -87.729123
v 5.291385 -3.878473 -88.534408
v 5.388816 -2.671698 -86.833025
v 5.388816 -4.244462 -88.068506
v 5.329587 -3.040793 -86.363168
v 5.329587 -4.613557 -87.598649
v 5.117733 -3.387842 -85.921376
v 5.117734 -4.960605 -87.156857
v 4.767694 -3.689193 -85.537756
v 4.767694 -5.261957 -86.773237
v 4.303322 -3.924311 -85.238452
v 4.303321 -5.497075 -86.473933
v 3.756264 -4.077172 -85.043860
v 3.756264 -5.649936 -86.279341
v 3.163801 -4.137359 -84.967242
v 3.163801 -5.710123 -86.202723
v 2.566309 -4.100771 -85.013819
v 2.566309 -5.673535 -86.249300
v 2.004506 -3.969901 -85.180416
v 2.004506 -5.542664 -86.415897
v 1.516678 -3.753667 -85.455682
v 1.516678 -5.326430 -86.691163
v 1.136069 -3.466805 -85.820855
v 1.136068 -5.039569 -87.056336
v 0.888616 -3.128865 -86.251052
v 0.888617 -4.701629 -87.486533
v 0.791185 -2.762877 -86.716953
v 0.791185 -4.335641 -87.952435
v 0.850414 -2.393782 -87.186810
v 0.850414 -3.966546 -88.422291
v 1.062267 -2.046734 -87.628602
v 1.062267 -3.619497 -88.864083
v 1.412307 -1.745382 -88.012222
v 1.412308 -3.318146 -89.247703
v 1.876679 -1.510264 -88.311526
v 1.876679 -3.083028 -89.547007
v 2.423738 -1.357403 -88.506118
v 2.423737 -2.930167 -89.741599
v 3.016200 -1.297216 -88.582736
v 3.016200 -2.869980 -89.818217
v 3.613692 -1.333804 -88.536159
v 3.613692 -2.906568 -89.771641
v 4.175495 -1.464674 -88.369562
v 4.175495 -3.037438 -89.605043
v 4.663324 -1.680908 -88.094297
v 4.663324 -3.253672 -89.329778
v 5.043933 -1.967770 -87.729123
v 4.109443 -3.898999 -88.508279
v 5.291385 -3.878473 -88.534408
v 5.043933 -3.540534 -88.964604
v 4.663324 -3.253672 -89.329778
v 4.238549 -4.075315 -88.283829
v 0.159102 -3.841564 -85.343788
v 1.136069 -3.466805 -85.820855
v -0.163618 -3.426068 -85.872714
v 0.618867 -4.204491 -84.881784
v 1.516678 -3.753667 -85.455682
v 1.194179 -4.497877 -84.508304
v 2.004506 -3.969901 -85.180416
v 1.858139 -4.708005 -84.240811
v 2.566309 -4.100771 -85.013819
v 2.579698 -4.825050 -84.091814
v 3.163801 -4.137359 -84.967242
v 3.325119 -4.843538 -84.068279
v 3.756264 -4.077172 -85.043860
v 4.059546 -4.762604 -84.171307
v 4.748638 -4.586034 -84.396080
v 4.303322 -3.924311 -85.238452
v 5.360173 -4.322084 -84.732088
v 4.767694 -3.689193 -85.537756
v 5.865559 -3.983095 -85.163621
v 5.117733 -3.387842 -85.921376
v 6.241162 -3.584918 -85.670498
v 5.329587 -3.040793 -86.363168
v 6.469420 -3.146172 -86.229021
v 5.388816 -2.671698 -86.833025
v 6.539660 -2.687371 -86.813072
v 6.448599 -2.229970 -87.395343
v 5.291385 -2.305710 -87.298927
v 6.200492 -1.795355 -87.948607
v 3.966219 -0.655964 -89.399048
v 3.613692 -1.333804 -88.536159
v 4.175495 -1.464674 -88.369562
v 3.228404 -0.587798 -89.485823
v 3.016200 -1.297216 -88.582736
v 2.484117 -0.619205 -89.445842
v 2.423738 -1.357403 -88.506118
v 1.768161 -0.748716 -89.280975
v 1.876679 -1.510264 -88.311526
v 1.114013 -0.970275 -88.998931
v 1.412307 -1.745382 -88.012222
v 0.552259 -1.273522 -88.612898
v 0.109167 -1.644279 -88.140926
v 1.062267 -2.046734 -87.628602
v -0.194544 -2.065208 -87.605085
v 0.850414 -2.393782 -87.186810
v -0.344673 -2.516627 -87.030429
v 0.791185 -2.762877 -86.716953
v -0.334202 -2.977430 -86.443829
v 0.888616 -3.128865 -86.251052
v 3.972317 -3.566570 -91.683424
v 7.088643 -3.983971 -91.152074
v 4.199093 -4.347057 -90.689866
v 3.625077 -4.213341 -90.860086
v 10.062018 -2.843400 -92.604017
v 8.575331 -3.413685 -91.878046
v 3.014595 -4.175958 -90.907675
v 2.409253 -4.237453 -90.829391
v 3.234132 -3.497556 -91.771278
v 13.603157 -0.140612 -96.044658
v 14.581314 0.024156 -96.254408
v 13.035393 -1.702830 -94.055960
v 14.075053 -0.019303 -96.199085
v 15.088874 -0.013072 -96.207016
v 13.071071 -1.692861 -94.068650
v 15.564584 -0.128557 -96.060004
v 14.522081 -1.132545 -94.781931
v 15.977372 -0.314757 -95.822972
v 14.635364 -1.121036 -94.796581
v 14.596397 -1.118650 -94.799619
v 14.557759 -1.122575 -94.794622
v 16.300282 -0.559509 -95.511404
v 14.728641 -1.162382 -94.743949
v 14.703819 -1.143674 -94.767764
v 14.672004 -1.129571 -94.785716
v 14.747271 -1.232362 -94.654864
v 14.751133 -1.208290 -94.685507
v 14.744779 -1.184422 -94.715892
v 16.512220 -0.846829 -95.145646
v 14.733454 -1.254995 -94.626052
v 16.384925 -1.770093 -93.970334
v 15.712117 -2.238625 -93.373894
v 13.193652 -1.860268 -93.855542
v 16.097381 -2.031133 -93.638032
v 11.706965 -2.430553 -93.129570
v 6.470684 -6.051968 -88.519520
v 7.246902 -4.141409 -90.951656
v 8.733590 -3.571123 -91.677628
v 4.752155 -7.494454 -86.683239
v 4.329698 -6.860164 -87.490689
v 5.363625 -7.229831 -87.020103
v 4.062846 -7.671619 -86.457708
v 3.327979 -7.753029 -86.354074
v 3.770748 -7.016348 -87.291867
v 2.581966 -7.734872 -86.377188
v 3.165405 -7.077844 -87.213583
v 1.859745 -7.617998 -86.525968
v 2.554925 -7.040460 -87.261173
v 1.195138 -7.407879 -86.793449
v 1.980908 -6.906744 -87.431392
v 0.619267 -7.114357 -87.167101
v 1.482475 -6.685810 -87.712641
v 0.159103 -6.751177 -87.629429
v 0.840760 -6.047426 -88.525302
v 1.093592 -6.392712 -88.085753
v -0.163808 -6.335347 -88.158779
v 0.741211 -5.673481 -89.001332
v -0.334341 -5.886339 -88.730364
v 0.801728 -5.296362 -89.481403
v -0.344511 -5.425183 -89.317415
v 1.018186 -4.941769 -89.932799
v -0.193841 -4.973472 -89.892441
v 1.375836 -4.633867 -90.324759
v 0.110612 -4.552362 -90.428513
v 1.850303 -4.393638 -90.630569
v 0.554590 -4.181573 -90.900527
v 1.117304 -3.878469 -91.286377
v 1.772398 -3.657245 -91.567994
v 2.489198 -3.528261 -91.732192
v 3.972317 -2.465635 -90.818587
v 13.603157 0.960322 -95.179821
v 3.972317 -3.566570 -91.683424
v 4.667071 -2.630464 -90.608761
v 13.603157 0.960322 -95.179821
v 3.972317 -2.465635 -90.818587
v 5.288436 -2.883498 -90.286649
v 7.088643 -2.883036 -90.287237
v 7.124321 -2.873067 -90.299928
v 8.545045 -2.328085 -90.993689
v 5.807498 -3.212965 -89.867239
v 7.017850 -2.964728 -90.183243
v 7.021712 -2.940657 -90.213886
v 7.035529 -2.918023 -90.242699
v 7.058358 -2.898370 -90.267717
v 6.447980 -4.037023 -88.818215
v 8.733590 -2.470189 -90.812791
v 8.697912 -2.480158 -90.800100
v 6.539594 -4.493268 -88.237418
v 15.712117 -1.137691 -92.509057
v 10.220277 -1.899904 -91.538762
v 6.470684 -4.951033 -87.654683
v 16.384925 -0.669158 -93.105497
v 13.193653 -0.759333 -92.990705
v 16.097381 -0.930198 -92.773195
v 16.555971 -0.371620 -93.484263
v 13.223938 -0.743999 -93.010225
v 16.599348 -0.057016 -93.884753
v 14.680340 -0.189048 -93.716676
v 16.512222 0.254106 -94.280810
v 14.747270 -0.131427 -93.790028
v 14.733454 -0.154061 -93.761215
v 14.710625 -0.173714 -93.736197
v 16.300282 0.541426 -94.646567
v 14.635364 -0.020102 -93.931744
v 14.672003 -0.028637 -93.920879
v 14.703818 -0.042739 -93.902927
v 14.728641 -0.061447 -93.879112
v 14.744779 -0.083487 -93.851055
v 14.751133 -0.107356 -93.820670
v 15.977373 0.786178 -94.958136
v 14.596397 -0.017716 -93.934782
v 14.581314 1.125091 -95.389571
v 13.035393 -0.601895 -93.191123
v 14.075054 1.081632 -95.334248
v 7.040342 -3.010637 -90.124802
v 10.013717 -1.870066 -91.576745
v 14.473780 -0.159210 -93.754659
v 11.500405 -1.299781 -92.302716
v 8.527030 -2.440351 -90.850774
v 12.987093 -0.729496 -93.028688
v 5.086410 -4.074707 -89.417765
v 4.199093 -3.560675 -90.072126
v 4.238549 -4.625782 -88.716247
v 3.656346 -4.186981 -89.274840
v 3.625076 -3.426960 -90.242345
v 3.363231 -4.118701 -89.361760
v 3.014595 -3.389576 -90.289935
v 3.051496 -4.099612 -89.386061
v 2.409253 -3.451071 -90.211651
v 2.742385 -4.131014 -89.346086
v 1.850303 -3.607256 -90.012829
v 2.456964 -4.210767 -89.244560
v 1.375836 -3.847485 -89.707018
v 2.214683 -4.333437 -89.088402
v 2.032053 -4.490664 -88.888252
v 1.018187 -4.155387 -89.315059
v 1.921521 -4.671733 -88.657752
v 0.801728 -4.509981 -88.863662
v 1.890619 -4.864305 -88.412609
v 0.741211 -4.887099 -88.383591
v 1.941452 -5.055255 -88.169530
v 0.840760 -5.261044 -87.907561
v 2.070557 -5.231571 -87.945080
v 1.093592 -5.606330 -87.468013
v 1.482475 -5.899428 -87.094900
v 2.269136 -5.381238 -87.754554
v 1.980908 -6.120362 -86.813651
v 2.523656 -5.494056 -87.610938
v 2.554925 -6.254078 -86.643432
v 2.816770 -5.562336 -87.524017
v 3.165406 -6.291461 -86.595843
v 3.128505 -5.581426 -87.499716
v 3.770748 -6.229966 -86.674127
v 3.437617 -5.550023 -87.539691
v 4.329698 -6.073782 -86.872949
v 3.723038 -5.470270 -87.641217
v 3.965319 -5.347600 -87.797376
v 4.804165 -5.833552 -87.178760
v 4.147948 -5.190373 -87.997525
v 5.161815 -5.525650 -87.570719
v 4.258480 -5.009304 -88.228025
v 5.378274 -5.171057 -88.022115
v 4.289383 -4.816733 -88.473168
v 5.438790 -4.793938 -88.502186
v 5.043933 -3.540534 -88.964604
v 5.388816 -4.244462 -88.068506
v 3.910865 -3.749332 -88.698805
v 4.289383 -4.266265 -88.040750
v 5.329587 -4.613557 -87.598649
v 4.258480 -4.458837 -87.795607
v 5.117734 -4.960605 -87.156857
v 4.147948 -4.639906 -87.565107
v 4.767694 -5.261957 -86.773237
v 3.965319 -4.797133 -87.364957
v 4.303321 -5.497075 -86.473933
v 3.723037 -4.919803 -87.208799
v 3.756264 -5.649936 -86.279341
v 3.437616 -4.999556 -87.107273
v 3.128505 -5.030958 -87.067298
v 3.163801 -5.710123 -86.202723
v 2.816770 -5.011869 -87.091599
v 2.566309 -5.673535 -86.249300
v 2.523656 -4.943588 -87.178519
v 2.004506 -5.542664 -86.415897
v 2.269136 -4.830771 -87.322136
v 1.516678 -5.326430 -86.691163
v 2.070558 -4.681104 -87.512661
v 1.136068 -5.039569 -87.056336
v 0.888617 -4.701629 -87.486533
v 1.941452 -4.504788 -87.737112
v 0.791185 -4.335641 -87.952435
v 1.890619 -4.313837 -87.980191
v 0.850414 -3.966546 -88.422291
v 1.921520 -4.121266 -88.225333
v 1.062267 -3.619497 -88.864083
v 2.032053 -3.940197 -88.455834
v 1.412308 -3.318146 -89.247703
v 2.214683 -3.782970 -88.655983
v 1.876679 -3.083028 -89.547007
v 2.456963 -3.660300 -88.812142
v 2.742385 -3.580546 -88.913668
v 2.423737 -2.930167 -89.741599
v 3.051496 -3.549144 -88.953643
v 3.016200 -2.869980 -89.818217
v 3.363230 -3.568234 -88.929342
v 3.613692 -2.906568 -89.771641
v 3.656346 -3.636514 -88.842421
v 4.175495 -3.037438 -89.605043
v 4.238549 -4.625782 -88.716247
v 4.238549 -4.075315 -88.283829
v 4.109443 -4.449466 -88.940698
v 4.289383 -4.266265 -88.040750
v 4.109443 -3.898999 -88.508279
v 4.109443 -4.449466 -88.940698
v 4.109443 -3.898999 -88.508279
v 3.910865 -4.299799 -89.131223
v 3.910865 -3.749332 -88.698805
v 3.656346 -4.186981 -89.274840
v 3.656346 -3.636514 -88.842421
v 3.363231 -4.118701 -89.361760
v 3.363230 -3.568234 -88.929342
v 3.051496 -4.099612 -89.386061
v 3.051496 -3.549144 -88.953643
v 2.742385 -4.131014 -89.346086
v 2.742385 -3.580546 -88.913668
v 2.456964 -4.210767 -89.244560
v 2.456963 -3.660300 -88.812142
v 2.214683 -4.333437 -89.088402
v 2.214683 -3.782970 -88.655983
v 2.032053 -4.490664 -88.888252
v 2.032053 -3.940197 -88.455834
v 1.921521 -4.671733 -88.657752
v 1.921520 -4.121266 -88.225333
v 1.890619 -4.864305 -88.412609
v 1.890619 -4.313837 -87.980191
v 1.941452 -5.055255 -88.169530
v 1.941452 -4.504788 -87.737112
v 2.070557 -5.231571 -87.945080
v 2.070558 -4.681104 -87.512661
v 2.269136 -5.381238 -87.754554
v 2.269136 -4.830771 -87.322136
v 2.523656 -5.494056 -87.610938
v 2.523656 -4.943588 -87.178519
v 2.816770 -5.562336 -87.524017
v 2.816770 -5.011869 -87.091599
v 3.128505 -5.581426 -87.499716
v 3.128505 -5.030958 -87.067298
v 3.437617 -5.550023 -87.539691
v 3.437616 -4.999556 -87.107273
v 3.723038 -5.470270 -87.641217
v 3.723037 -4.919803 -87.208799
v 3.965319 -5.347600 -87.797376
v 3.965319 -4.797133 -87.364957
v 4.147948 -5.190373 -87.997525
v 4.147948 -4.639906 -87.565107
v 4.258480 -5.009304 -88.228025
v 4.258480 -4.458837 -87.795607
v 4.289383 -4.816733 -88.473168
v 5.043933 -1.967770 -87.729123
v 5.806943 -1.403848 -88.446993
v 4.663324 -1.680908 -88.094297
v 5.286353 -1.073757 -88.867199
v 4.663063 -0.820515 -89.189575
v 7.311341 -4.035848 -91.086035
v 7.295203 -4.013808 -91.114091
v 8.527030 -3.541286 -91.715610
v 7.270381 -3.995100 -91.137907
v 8.510892 -3.519246 -91.743667
v 7.238566 -3.980998 -91.155859
v 8.504537 -3.495378 -91.774052
v 7.201926 -3.972463 -91.166724
v 8.508400 -3.471306 -91.804695
v 8.522217 -3.448673 -91.833507
v 7.162959 -3.970076 -91.169762
v 8.545045 -3.429019 -91.858526
v 7.124321 -3.974002 -91.164765
v 8.611008 -3.403716 -91.890736
v 4.697526 -4.567991 -90.408617
v 7.058358 -3.999305 -91.132554
v 7.035529 -4.018958 -91.107536
v 7.021713 -4.041592 -91.078723
v 5.086410 -4.861089 -90.035505
v 7.017850 -4.065663 -91.048080
v 7.024204 -4.089532 -91.017695
v 7.040342 -4.111571 -90.989639
v 7.065164 -4.130280 -90.965823
v 7.096979 -4.144382 -90.947871
v 7.133619 -4.152917 -90.937006
v 5.339241 -5.206375 -89.595957
v 7.172586 -4.155303 -90.933969
v 7.211224 -4.151378 -90.938965
v 5.438790 -5.580320 -89.119926
v 5.378274 -5.957439 -88.639855
v 5.161815 -6.312032 -88.188459
v 4.804165 -6.619934 -87.796500
v 6.243491 -6.491295 -87.960258
v 5.868620 -6.890142 -87.452526
v 7.277187 -4.126075 -90.971176
v 8.697912 -3.581093 -91.664937
v 10.220277 -3.000838 -92.403599
v 7.300016 -4.106421 -90.996195
v 8.659273 -3.585018 -91.659940
v 7.313832 -4.083788 -91.025007
v 8.620306 -3.582632 -91.662978
v 8.583667 -3.574097 -91.673843
v 7.317695 -4.059716 -91.055650
v 8.551852 -3.559994 -91.691795
v 10.284716 -2.895277 -92.537978
v 10.268578 -2.873238 -92.566034
v 11.500405 -2.400716 -93.167553
v 10.243756 -2.854529 -92.589850
v 11.484267 -2.378676 -93.195610
v 10.211941 -2.840427 -92.607802
v 11.477912 -2.354807 -93.225994
v 10.175301 -2.831892 -92.618667
v 11.481775 -2.330736 -93.256637
v 10.136335 -2.829506 -92.621705
v 11.495592 -2.308102 -93.285450
v 10.097696 -2.833431 -92.616708
v 11.518420 -2.288449 -93.310469
v 11.548706 -2.273115 -93.329988
v 10.031733 -2.858734 -92.584497
v 8.649647 -3.399791 -91.895733
v 10.008904 -2.878387 -92.559478
v 9.995088 -2.901021 -92.530666
v 8.688614 -3.402177 -91.892696
v 9.991225 -2.925092 -92.500023
v 8.725253 -3.410712 -91.881830
v 9.997579 -2.948961 -92.469638
v 8.757068 -3.424815 -91.863878
v 10.013717 -2.971001 -92.441582
v 8.781890 -3.443523 -91.840063
v 8.798029 -3.465562 -91.812006
v 10.038540 -2.989709 -92.417766
v 8.804383 -3.489431 -91.781622
v 10.070355 -3.003811 -92.399814
v 8.800520 -3.513503 -91.750979
v 10.106994 -3.012346 -92.388949
v 8.786704 -3.536136 -91.722166
v 10.145961 -3.014733 -92.385911
v 10.184600 -3.010807 -92.390908
v 8.763875 -3.555790 -91.697147
v 10.250562 -2.985504 -92.423119
v 11.632649 -2.444447 -93.111883
v 11.671287 -2.440522 -93.116880
v 10.273391 -2.965851 -92.448138
v 11.593681 -2.442061 -93.114920
v 10.287208 -2.943217 -92.476950
v 11.557042 -2.433526 -93.125786
v 10.291071 -2.919146 -92.507593
v 11.525227 -2.419424 -93.143738
v 14.491796 -1.147878 -94.762411
v 14.468967 -1.167532 -94.737393
v 13.109709 -1.688936 -94.073647
v 11.584384 -2.263146 -93.342679
v 14.455151 -1.190165 -94.708580
v 13.148677 -1.691322 -94.070610
v 14.451288 -1.214237 -94.677938
v 13.185317 -1.699856 -94.059745
v 14.457642 -1.238106 -94.647553
v 13.217131 -1.713959 -94.041793
v 14.473780 -1.260145 -94.619496
v 13.241953 -1.732667 -94.017977
v 13.258091 -1.754707 -93.989921
v 14.498603 -1.278854 -94.595681
v 13.264446 -1.778575 -93.959536
v 14.530418 -1.292956 -94.577729
v 13.260583 -1.802647 -93.928893
v 14.567057 -1.301491 -94.566864
v 13.246766 -1.825281 -93.900080
v 14.606024 -1.303877 -94.563826
v 13.223937 -1.844934 -93.875062
v 14.644663 -1.299952 -94.568823
v 14.680340 -1.289983 -94.581513
v 16.599348 -1.157951 -94.749590
v 14.710626 -1.274649 -94.601033
v 16.555971 -1.472555 -94.349100
v 11.737250 -2.415219 -93.149090
v 13.157975 -1.870237 -93.842851
v 11.771404 -2.324992 -93.263949
v 11.755266 -2.302952 -93.292006
v 12.987093 -1.830430 -93.893525
v 11.730443 -2.284244 -93.315821
v 12.970954 -1.808391 -93.921581
v 11.698629 -2.270142 -93.333773
v 12.964601 -1.784522 -93.951966
v 11.661989 -2.261607 -93.344638
v 12.968463 -1.760451 -93.982609
v 11.623022 -2.259221 -93.347676
v 12.982279 -1.737817 -94.011421
v 13.005108 -1.718164 -94.036440
v 13.119336 -1.874162 -93.837854
v 11.760079 -2.395566 -93.174109
v 13.080369 -1.871776 -93.840892
v 11.773895 -2.372932 -93.202921
v 13.043730 -1.863241 -93.851757
v 11.777758 -2.348861 -93.233565
v 13.011915 -1.849139 -93.869709
v 13.603157 -0.140612 -96.044658
v 7.024204 -2.988597 -90.152859
v 7.040342 -3.010637 -90.124802
v 6.200103 -3.603531 -89.370049
v 7.065164 -3.029345 -90.100987
v 7.096979 -3.043447 -90.083035
v 7.133619 -3.051982 -90.072169
v 7.172586 -3.054368 -90.069132
v 7.211224 -3.050443 -90.074129
v 7.246902 -3.040474 -90.086819
v 7.277187 -3.025140 -90.106339
v 7.300016 -3.005487 -90.131358
v 8.659273 -2.484083 -90.795103
v 7.313832 -2.982853 -90.160170
v 8.620306 -2.481697 -90.798141
v 8.583667 -2.473162 -90.809006
v 7.317695 -2.958782 -90.190813
v 7.162959 -2.869142 -90.304925
v 8.522217 -2.347738 -90.968670
v 8.575330 -2.312751 -91.013209
v 7.201926 -2.871528 -90.301887
v 8.508400 -2.370372 -90.939858
v 8.504537 -2.394443 -90.909215
v 7.238565 -2.880063 -90.291022
v 8.510892 -2.418312 -90.878830
v 7.270380 -2.894165 -90.273070
v 8.527030 -2.440351 -90.850774
v 7.295203 -2.912873 -90.249255
v 7.311341 -2.934913 -90.221198
v 8.551852 -2.459060 -90.826958
v 9.997579 -1.848027 -91.604801
v 8.757068 -2.323880 -90.999042
v 10.013717 -1.870066 -91.576745
v 8.725253 -2.309778 -91.016994
v 8.781890 -2.342588 -90.975226
v 8.798029 -2.364628 -90.947170
v 10.038540 -1.888775 -91.552929
v 9.991225 -1.824158 -91.635186
v 8.688614 -2.301243 -91.027859
v 9.995088 -1.800086 -91.665829
v 8.649647 -2.298856 -91.030896
v 10.008904 -1.777453 -91.694642
v 10.031733 -1.757799 -91.719660
v 8.611008 -2.302782 -91.025900
v 10.062018 -1.742466 -91.739180
v 11.548705 -1.172181 -92.465152
v 10.097696 -1.732496 -91.751871
v 11.495592 -1.207167 -92.420613
v 11.518421 -1.187514 -92.445632
v 10.136335 -1.728571 -91.756868
v 11.481775 -1.229801 -92.391801
v 10.175301 -1.730957 -91.753830
v 11.477913 -1.253873 -92.361158
v 10.211941 -1.739492 -91.742965
v 11.484267 -1.277741 -92.330773
v 10.243756 -1.753595 -91.725013
v 11.500405 -1.299781 -92.302716
v 10.268578 -1.772303 -91.701197
v 10.284716 -1.794343 -91.673141
v 11.525227 -1.318489 -92.278901
v 10.291070 -1.818211 -91.642756
v 11.557042 -1.332591 -92.260949
v 10.287208 -1.842283 -91.612113
v 11.593682 -1.341127 -92.250084
v 10.273391 -1.864916 -91.583301
v 11.632649 -1.343513 -92.247046
v 10.250563 -1.884570 -91.558282
v 11.671287 -1.339587 -92.252043
v 11.706965 -1.329618 -92.264734
v 8.763875 -2.454855 -90.832311
v 10.184600 -1.909873 -91.526072
v 8.786703 -2.435202 -90.857329
v 10.145961 -1.913798 -91.521075
v 10.106994 -1.911412 -91.524112
v 8.800520 -2.412568 -90.886142
v 10.070355 -1.902877 -91.534977
v 8.804383 -2.388497 -90.916785
v 14.457642 -0.137171 -93.782716
v 13.217131 -0.613024 -93.176956
v 14.473780 -0.159210 -93.754659
v 13.185316 -0.598922 -93.194908
v 13.241954 -0.631733 -93.153140
v 13.258091 -0.653772 -93.125084
v 14.498603 -0.177919 -93.730844
v 14.451288 -0.113302 -93.813101
v 13.148677 -0.590387 -93.205773
v 14.455151 -0.089231 -93.843744
v 13.109710 -0.588001 -93.208811
v 14.468967 -0.066597 -93.872556
v 13.071071 -0.591926 -93.203814
v 14.491796 -0.046944 -93.897575
v 14.522081 -0.031610 -93.917094
v 15.564584 0.972377 -95.195167
v 14.557759 -0.021641 -93.929785
v 15.088874 1.087862 -95.342180
v 11.584383 -1.162211 -92.477842
v 13.005108 -0.617229 -93.171603
v 14.644662 -0.199017 -93.703986
v 14.606024 -0.202942 -93.698989
v 13.246766 -0.724346 -93.035244
v 11.737250 -1.314285 -92.284254
v 14.567057 -0.200556 -93.702027
v 13.260583 -0.701712 -93.064056
v 14.530418 -0.192021 -93.712892
v 13.264446 -0.677641 -93.094699
v 12.982280 -0.636882 -93.146585
v 11.623022 -1.158286 -92.482839
v 12.968463 -0.659516 -93.117772
v 11.661989 -1.160672 -92.479802
v 12.964600 -0.683587 -93.087129
v 11.698628 -1.169207 -92.468937
v 12.970954 -0.707456 -93.056744
v 11.730444 -1.183309 -92.450985
v 12.987093 -0.729496 -93.028688
v 11.755265 -1.202018 -92.427169
v 11.771404 -1.224057 -92.399113
v 13.011915 -0.748204 -93.004872
v 11.777758 -1.247926 -92.368728
v 13.043730 -0.762306 -92.986920
v 11.773895 -1.271998 -92.338085
v 13.080369 -0.770841 -92.976055
v 11.760078 -1.294631 -92.309272
v 13.119336 -0.773227 -92.973018
v 13.157975 -0.769302 -92.978015
v 6.470684 -6.051968 -88.519520
v 15.712117 -2.238625 -93.373894
v 6.470684 -4.951033 -87.654683
v 15.712117 -1.137691 -92.509057
v 15.712117 -1.137691 -92.509057
v 15.712117 -2.238625 -93.373894
v 16.097381 -0.930198 -92.773195
v 16.097381 -2.031133 -93.638032
v 16.384925 -0.669158 -93.105497
v 16.384925 -1.770093 -93.970334
v 16.555971 -0.371620 -93.484263
v 16.555971 -1.472555 -94.349100
v 16.599348 -0.057016 -93.884753
v 16.599348 -1.157951 -94.749590
v 16.512222 0.254106 -94.280810
v 16.512220 -0.846829 -95.145646
v 16.300282 0.541426 -94.646567
v 16.300282 -0.559509 -95.511404
v 15.977373 0.786178 -94.958136
v 15.977372 -0.314757 -95.822972
v 15.564584 0.972377 -95.195167
v 15.564584 -0.128557 -96.060004
v 15.088874 1.087862 -95.342180
v 15.088874 -0.013072 -96.207016
v 14.581314 1.125091 -95.389571
v 14.581314 0.024156 -96.254408
v 14.075054 1.081632 -95.334248
v 14.075053 -0.019303 -96.199085
v 13.603157 0.960322 -95.179821
v 13.603157 -0.140612 -96.044658
v 0.618867 -4.204491 -84.881784
v 0.159102 -3.841564 -85.343788
v 0.159103 -6.751177 -87.629429
v 0.159103 -6.751177 -87.629429
v 0.159102 -3.841564 -85.343788
v -0.163618 -3.426068 -85.872714
v -0.163808 -6.335347 -88.158779
v -0.334202 -2.977430 -86.443829
v -0.334341 -5.886339 -88.730364
v -0.344673 -2.516627 -87.030429
v -0.344511 -5.425183 -89.317415
v -0.194544 -2.065208 -87.605085
v -0.193841 -4.973472 -89.892441
v 0.109167 -1.644279 -88.140926
v 0.110612 -4.552362 -90.428513
v 0.552259 -1.273522 -88.612898
v 0.554590 -4.181573 -90.900527
v 1.114013 -0.970275 -88.998931
v 1.117304 -3.878469 -91.286377
v 1.768161 -0.748716 -89.280975
v 1.772398 -3.657245 -91.567994
v 2.484117 -0.619205 -89.445842
v 2.489198 -3.528261 -91.732192
v 3.228404 -0.587798 -89.485823
v 3.234132 -3.497556 -91.771278
v 3.966219 -0.655964 -89.399048
v 3.972317 -3.566570 -91.683424
v 3.972317 -2.465635 -90.818587
v 4.663063 -0.820515 -89.189575
v 4.667071 -2.630464 -90.608761
v 5.286353 -1.073757 -88.867199
v 5.288436 -2.883498 -90.286649
v 5.806943 -1.403848 -88.446993
v 5.807498 -3.212965 -89.867239
v 6.200492 -1.795355 -87.948607
v 6.200103 -3.603531 -89.370049
v 6.447980 -4.037023 -88.818215
v 6.448599 -2.229970 -87.395343
v 6.539594 -4.493268 -88.237418
v 6.539660 -2.687371 -86.813072
v 6.470684 -4.951033 -87.654683
v 6.469420 -3.146172 -86.229021
v 6.243491 -6.491295 -87.960258
v 6.241162 -3.584918 -85.670498
v 5.868620 -6.890142 -87.452526
v 6.470684 -6.051968 -88.519520
v 5.865559 -3.983095 -85.163621
v 5.363625 -7.229831 -87.020103
v 5.360173 -4.322084 -84.732088
v 4.752155 -7.494454 -86.683239
v 4.748638 -4.586034 -84.396080
v 4.062846 -7.671619 -86.457708
v 4.059546 -4.762604 -84.171307
v 3.327979 -7.753029 -86.354074
v 3.325119 -4.843538 -84.068279
v 2.581966 -7.734872 -86.377188
v 2.579698 -4.825050 -84.091814
v 1.859745 -7.617998 -86.525968
v 1.858139 -4.708005 -84.240811
v 1.195138 -7.407879 -86.793449
v 1.194179 -4.497877 -84.508304
v 0.619267 -7.114357 -87.167101
f 1 2 3
f 1 4 2
f 2 4 5
f 4 6 5
f 5 6 7
f 6 8 7
f 7 8 9
f 8 10 9
f 9 10 11
f 10 12 11
f 11 12 13
f 12 14 13
f 13 14 15
f 14 16 15
f 15 16 17
f 16 18 17
f 17 18 19
f 18 20 19
f 19 20 21
f 20 22 21
f 21 22 23
f 22 24 23
f 23 24 25
f 24 26 25
f 25 26 27
f 26 28 27
f 27 28 29
f 28 30 29
f 29 30 31
f 30 32 31
f 31 32 33
f 32 34 33
f 33 34 35
f 34 36 35
f 35 36 37
f 36 38 37
f 37 38 39
f 38 40 39
f 39 40 41
f 40 42 41
f 41 42 43
f 42 44 43
f 43 44 45
f 44 46 45
f 45 46 47
f 46 48 47
f 47 48 49
f 48 565 49
f 50 51 52
f 50 53 51
f 51 53 54
f 53 55 54
f 54 55 56
f 55 57 56
f 56 57 58
f 57 59 58
f 58 59 60
f 59 61 60
f 60 61 62
f 61 63 62
f 62 63 64
f 63 65 64
f 64 65 66
f 65 67 66
f 66 67 68
f 67 69 68
f 68 69 70
f 69 71 70
f 70 71 72
f 71 73 72
f 72 73 74
f 73 75 74
f 74 75 76
f 75 77 76
f 76 77 78
f 77 79 78
f 78 79 80
f 79 81 80
f 80 81 82
f 81 83 82
f 82 83 84
f 83 85 84
f 84 85 86
f 85 87 86
f 86 87 88
f 87 89 88
f 88 89 90
f 89 91 90
f 90 91 92
f 91 93 92
f 92 93 94
f 93 95 94
f 94 95 96
f 95 97 96
f 96 97 98
f 97 566 98
f 99 100 101
f 99 102 100
f 100 102 103
f 102 104 103
f 103 104 105
f 104 106 105
f 105 106 107
f 106 108 107
f 107 108 109
f 108 110 109
f 109 110 111
f 110 112 111
f 111 112 113
f 112 114 113
f 113 114 115
f 114 116 115
f 115 116 117
f 116 118 117
f 117 118 119
f 118 120 119
f 119 120 121
f 120 122 121
f 121 122 123
f 122 124 123
f 123 124 125
f 124 126 125
f 125 126 127
f 126 128 127
f 127 128 129
f 128 130 129
f 129 130 131
f 130 132 131
f 131 132 133
f 132 134 133
f 133 134 135
f 134 136 135
f 135 136 137
f 136 138 137
f 137 138 139
f 138 140 139
f 139 140 141
f 140 142 141
f 141 142 143
f 142 144 143
f 143 144 145
f 144 146 145
f 145 146 147
f 146 567 147
f 148 149 150
f 148 151 149
f 149 151 152
f 151 153 152
f 152 153 154
f 153 155 154
f 154 155 156
f 155 157 156
f 156 157 158
f 157 159 158
f 158 159 160
f 159 161 160
f 160 161 162
f 161 163 162
f 162 163 164
f 163 165 164
f 164 165 166
f 165 167 166
f 166 167 168
f 167 169 168
f 168 169 170
f 169 171 170
f 170 171 172
f 171 173 172
f 172 173 174
f 173 175 174
f 174 175 176
f 175 177 176
f 176 177 178
f 177 179 178
f 178 179 180
f 179 181 180
f 180 181 182
f 181 183 182
f 182 183 184
f 183 185 184
f 184 185 186
f 185 187 186
f 186 187 188
f 187 189 188
f 188 189 190
f 189 191 190
f 190 191 192
f 191 193 192
f 192 193 194
f 193 195 194
f 194 195 196
f 195 568 196
f 197 198 199
f 197 200 198
f 198 200 201
f 200 202 201
f 201 202 203
f 202 204 203
f 203 204 205
f 204 206 205
f 205 206 207
f 206 208 207
f 207 208 209
f 208 210 209
f 209 210 211
f 210 212 211
f 211 212 213
f 212 214 213
f 213 214 215
f 214 216 215
f 215 216 217
f 216 218 217
f 217 218 219
f 218 220 219
f 219 220 221
f 220 222 221
f 221 222 223
f 222 224 223
f 223 224 225
f 224 226 225
f 225 226 227
f 226 228 227
f 227 228 229
f 228 230 229
f 229 230 231
f 230 232 231
f 231 232 233
f 232 234 233
f 233 234 235
f 234 236 235
f 235 236 237
f 236 238 237
f 237 238 239
f 238 240 239
f 239 240 241
f 240 242 241
f 241 242 243
f 242 244 243
f 243 244 245
f 244 569 245
f 246 247 248
f 246 249 247
f 247 249 250
f 249 251 250
f 250 251 252
f 251 253 252
f 252 253 254
f 253 255 254
f 254 255 256
f 255 257 256
f 256 257 258
f 257 259 258
f 258 259 260
f 259 261 260
f 260 261 262
f 261 263 262
f 262 263 264
f 263 265 264
f 264 265 266
f 265 267 266
f 266 267 268
f 267 269 268
f 268 269 270
f 269 271 270
f 270 271 272
f 271 273 272
f 272 273 274
f 273 275 274
f 274 275 276
f 275 277 276
f 276 277 278
f 277 279 278
f 278 279 280
f 279 281 280
f 280 281 282
f 281 283 282
f 282 283 284
f 283 285 284
f 284 285 286
f 285 287 286
f 286 287 288
f 287 289 288
f 288 289 290
f 289 291 290
f 290 291 292
f 291 293 292
f 292 293 294
f 293 570 294
f 295 296 297
f 295 298 296
f 296 298 299
f 298 300 299
f 299 300 301
f 300 302 301
f 301 302 303
f 302 304 303
f 303 304 305
f 304 306 305
f 305 306 307
f 306 308 307
f 307 308 309
f 308 310 309
f 309 310 311
f 310 312 311
f 311 312 313
f 312 314 313
f 313 314 315
f 314 316 315
f 315 316 317
f 316 318 317
f 317 318 319
f 318 320 319
f 319 320 321
f 320 322 321
f 321 322 323
f 322 324 323
f 323 324 325
f 324 326 325
f 325 326 327
f 326 328 327
f 327 328 329
f 328 330 329
f 329 330 331
f 330 332 331
f 331 332 333
f 332 334 333
f 333 334 335
f 334 336 335
f 335 336 337
f 336 338 337
f 337 338 339
f 338 340 339
f 339 340 341
f 340 342 341
f 341 342 343
f 342 571 343
f 344 345 346
f 344 346 347
f 344 348 345
f 344 347 573
f 345 348 572
f 347 614 573
f 348 574 572
f 349 350 351
f 349 352 350
f 350 352 353
f 352 354 353
f 353 354 355
f 354 356 355
f 355 356 357
f 356 358 357
f 357 358 359
f 358 360 359
f 359 360 361
f 360 362 361
f 361 362 363
f 362 364 363
f 363 364 365
f 364 366 365
f 365 366 367
f 366 368 367
f 367 368 369
f 368 370 369
f 369 370 371
f 370 372 371
f 371 372 373
f 372 374 373
f 373 374 375
f 374 376 375
f 375 376 377
f 376 378 377
f 377 378 379
f 378 380 379
f 379 380 381
f 380 382 381
f 381 382 383
f 382 384 383
f 383 384 385
f 384 386 385
f 385 386 387
f 386 388 387
f 387 388 389
f 388 390 389
f 389 390 391
f 390 392 391
f 391 392 393
f 392 394 393
f 393 394 395
f 394 396 395
f 395 396 397
f 396 615 397
f 398 399 400
f 398 400 401
f 398 402 399
f 398 401 617
f 399 402 616
f 401 658 617
f 402 618 616
f 403 404 405
f 403 406 404
f 404 406 407
f 404 450 405
f 405 450 449
f 406 408 407
f 407 408 409
f 408 410 409
f 409 410 411
f 410 412 411
f 411 412 413
f 412 414 413
f 413 414 415
f 414 416 415
f 415 417 418
f 415 416 417
f 417 419 418
f 418 419 420
f 419 421 420
f 420 421 422
f 421 423 422
f 422 423 424
f 423 425 424
f 424 425 426
f 425 427 426
f 426 428 429
f 426 427 428
f 428 430 429
f 429 430 709
f 430 710 709
f 431 432 433
f 431 434 432
f 431 433 713
f 432 434 435
f 433 711 712
f 433 712 713
f 434 436 435
f 435 436 437
f 436 438 437
f 437 438 439
f 438 440 439
f 439 440 441
f 440 442 441
f 441 443 444
f 441 442 443
f 443 445 444
f 444 445 446
f 445 447 446
f 446 447 448
f 447 449 448
f 448 449 450
f 451 452 453
f 451 453 454
f 451 455 456
f 451 457 458
f 451 458 459
f 451 460 455
f 451 456 452
f 451 454 457
f 452 456 726
f 452 728 453
f 452 729 728
f 455 727 456
f 455 771 769
f 455 460 771
f 455 772 727
f 456 725 726
f 458 515 459
f 459 515 519
f 460 461 462
f 460 463 461
f 460 462 771
f 461 464 462
f 462 464 465
f 462 805 771
f 462 841 805
f 464 466 465
f 465 466 467
f 465 467 802
f 465 802 803
f 465 803 804
f 466 468 467
f 467 468 471
f 468 469 470
f 468 470 471
f 468 472 469
f 469 472 475
f 472 473 474
f 472 474 475
f 472 476 477
f 472 477 478
f 472 479 476
f 472 478 473
f 476 479 480
f 479 825 824
f 479 824 826
f 479 826 480
f 481 482 483
f 481 484 482
f 481 483 827
f 482 485 483
f 482 750 485
f 482 486 750
f 483 824 825
f 483 825 827
f 483 485 828
f 483 828 829
f 483 822 824
f 485 750 793
f 485 793 795
f 486 487 488
f 486 742 487
f 486 743 742
f 486 744 743
f 486 745 744
f 486 746 745
f 486 488 750
f 487 742 739
f 487 739 741
f 487 748 488
f 488 748 749
f 488 792 750
f 489 490 491
f 489 492 490
f 490 493 494
f 490 492 493
f 490 745 746
f 490 746 747
f 490 747 491
f 493 495 494
f 494 495 496
f 495 497 496
f 496 497 498
f 497 499 498
f 498 499 500
f 499 501 500
f 500 501 502
f 501 503 502
f 502 503 505
f 503 504 505
f 503 506 504
f 504 506 507
f 506 508 507
f 507 508 509
f 508 510 509
f 509 510 511
f 510 512 511
f 511 512 513
f 512 514 513
f 513 514 515
f 514 516 515
f 515 516 517
f 515 517 518
f 515 518 519
f 520 521 522
f 521 849 522
f 523 524 525
f 523 893 524
f 523 868 893
f 523 526 868
f 524 563 562
f 524 562 564
f 524 893 894
f 524 894 563
f 526 527 528
f 526 528 529
f 526 530 527
f 526 529 868
f 527 530 534
f 528 866 529
f 529 866 867
f 530 531 532
f 530 532 533
f 530 851 850
f 530 850 531
f 530 852 851
f 530 533 534
f 535 536 537
f 535 538 536
f 535 858 852
f 535 859 858
f 535 537 859
f 536 540 918
f 536 538 540
f 537 860 859
f 537 861 860
f 538 539 540
f 538 541 539
f 539 542 543
f 539 544 542
f 539 917 540
f 539 543 917
f 540 917 915
f 540 919 918
f 542 545 543
f 543 545 546
f 543 949 917
f 543 972 949
f 545 547 546
f 546 547 548
f 546 548 946
f 546 946 947
f 546 947 948
f 547 549 548
f 548 549 552
f 549 550 551
f 549 551 552
f 549 553 550
f 550 553 559
f 553 554 555
f 553 555 556
f 553 557 558
f 553 558 559
f 553 560 554
f 553 556 557
f 554 560 561
f 560 941 940
f 560 940 942
f 560 942 561
f 562 563 943
f 563 940 941
f 563 941 943
f 563 894 944
f 563 944 945
f 563 938 940
f 572 574 575
f 573 614 613
f 574 576 575
f 575 576 577
f 576 578 577
f 577 578 579
f 578 580 579
f 579 580 581
f 580 582 581
f 581 582 583
f 582 584 583
f 583 584 585
f 583 585 586
f 585 587 586
f 586 587 588
f 587 589 588
f 588 589 590
f 589 591 590
f 590 591 592
f 591 593 592
f 592 593 594
f 593 595 594
f 593 596 595
f 595 596 597
f 596 598 597
f 597 598 599
f 598 600 599
f 599 600 601
f 600 602 601
f 601 602 603
f 602 604 603
f 603 604 605
f 604 606 605
f 605 606 607
f 605 607 608
f 607 609 608
f 608 609 610
f 609 611 610
f 610 611 612
f 611 613 612
f 612 613 614
f 616 618 619
f 617 658 657
f 618 620 619
f 619 620 621
f 620 622 621
f 621 622 623
f 622 624 623
f 623 624 625
f 624 626 625
f 625 626 627
f 626 628 627
f 627 628 629
f 627 629 630
f 629 631 630
f 630 631 632
f 631 633 632
f 632 633 634
f 633 635 634
f 634 635 636
f 635 637 636
f 636 637 638
f 637 639 638
f 637 640 639
f 639 640 641
f 640 642 641
f 641 642 643
f 642 644 643
f 643 644 645
f 644 646 645
f 645 646 647
f 646 648 647
f 647 648 649
f 648 650 649
f 649 650 651
f 649 651 652
f 651 653 652
f 652 653 654
f 653 655 654
f 654 655 656
f 655 657 656
f 656 657 658
f 659 660 661
f 659 662 660
f 659 708 662
f 660 663 661
f 662 708 707
f 664 665 666
f 665 667 666
f 666 667 668
f 667 669 668
f 668 669 670
f 669 671 670
f 670 671 672
f 671 673 672
f 672 673 674
f 673 675 674
f 674 675 676
f 675 677 676
f 676 677 678
f 677 679 678
f 678 679 680
f 679 681 680
f 680 681 682
f 681 683 682
f 682 683 684
f 683 685 684
f 684 685 686
f 685 687 686
f 686 687 688
f 687 689 688
f 688 689 690
f 689 691 690
f 690 691 692
f 691 693 692
f 692 693 694
f 693 695 694
f 694 695 696
f 695 697 696
f 696 697 698
f 697 699 698
f 698 699 700
f 699 701 700
f 700 701 702
f 701 703 702
f 702 703 704
f 703 705 704
f 704 705 706
f 705 707 706
f 706 707 708
f 709 710 711
f 710 712 711
f 714 715 716
f 714 757 756
f 714 716 757
f 715 717 716
f 716 717 718
f 717 719 718
f 718 719 720
f 719 721 720
f 720 721 722
f 721 723 722
f 721 724 723
f 723 724 725
f 724 726 725
f 727 772 773
f 728 729 730
f 728 731 732
f 728 730 731
f 731 733 732
f 732 733 734
f 732 735 736
f 732 736 737
f 732 738 739
f 732 734 735
f 732 737 738
f 738 740 739
f 739 740 741
f 748 751 749
f 749 751 752
f 750 792 791
f 751 753 752
f 752 753 754
f 753 755 754
f 753 756 755
f 755 756 757
f 758 759 760
f 758 801 800
f 758 760 801
f 759 761 760
f 760 761 762
f 761 763 762
f 762 763 764
f 763 765 764
f 764 765 766
f 765 767 766
f 766 767 768
f 767 769 768
f 768 769 770
f 769 771 770
f 772 774 773
f 773 774 775
f 773 775 776
f 775 777 776
f 776 777 778
f 777 779 778
f 778 779 780
f 779 781 780
f 780 781 782
f 781 783 782
f 781 784 783
f 783 784 785
f 784 786 785
f 785 786 787
f 786 788 787
f 787 788 789
f 788 790 789
f 789 790 791
f 789 791 792
f 793 794 795
f 793 796 794
f 794 796 797
f 796 798 797
f 797 798 799
f 798 800 799
f 799 800 801
f 803 806 804
f 804 806 807
f 805 840 839
f 805 841 840
f 806 808 807
f 807 808 809
f 808 810 809
f 809 810 811
f 810 812 811
f 811 812 813
f 812 814 813
f 812 815 814
f 814 815 816
f 815 817 816
f 816 817 818
f 817 819 818
f 818 819 820
f 819 821 820
f 820 821 822
f 821 823 822
f 822 823 824
f 828 842 829
f 828 843 842
f 830 831 832
f 830 848 847
f 830 832 848
f 831 833 832
f 832 833 834
f 833 835 834
f 834 835 836
f 835 837 836
f 836 837 838
f 837 839 838
f 838 839 840
f 842 843 844
f 843 845 844
f 844 845 846
f 845 847 846
f 846 847 848
f 851 852 853
f 852 854 853
f 852 855 854
f 852 856 855
f 852 857 856
f 852 858 857
f 860 861 862
f 861 863 862
f 862 863 864
f 862 864 865
f 864 878 865
f 865 878 877
f 866 869 867
f 867 869 870
f 868 892 893
f 869 871 870
f 869 872 871
f 871 872 873
f 872 874 873
f 873 874 875
f 874 876 875
f 875 876 877
f 875 877 878
f 879 880 881
f 879 882 880
f 879 886 882
f 880 883 881
f 881 883 884
f 881 884 885
f 882 886 887
f 884 925 885
f 885 925 924
f 886 888 887
f 887 888 889
f 888 890 889
f 889 890 891
f 889 891 892
f 891 893 892
f 893 895 894
f 894 895 897
f 895 896 897
f 895 898 896
f 896 898 899
f 898 900 899
f 899 900 901
f 900 902 901
f 901 902 903
f 902 904 903
f 903 904 905
f 904 906 905
f 905 906 907
f 905 907 908
f 907 909 908
f 908 909 910
f 909 911 910
f 910 911 912
f 911 913 912
f 912 913 914
f 913 915 914
f 914 915 916
f 915 917 916
f 918 919 920
f 919 921 920
f 920 921 922
f 920 922 923
f 922 924 923
f 923 924 925
f 926 927 928
f 926 929 927
f 926 933 929
f 927 930 928
f 928 930 931
f 928 931 932
f 929 933 934
f 931 953 932
f 932 953 952
f 933 935 934
f 934 935 936
f 935 937 936
f 936 937 938
f 937 939 938
f 938 939 940
f 944 954 945
f 944 955 954
f 947 950 948
f 948 950 951
f 949 971 970
f 949 972 971
f 950 952 951
f 951 952 953
f 954 955 956
f 955 957 956
f 956 957 958
f 957 959 958
f 958 959 960
f 959 961 960
f 960 961 962
f 961 963 962
f 962 963 964
f 962 964 965
f 964 966 965
f 965 966 967
f 966 968 967
f 967 968 969
f 968 970 969
f 969 970 971
f 973 974 975
f 974 976 975
f 977 978 979
f 978 980 979
f 979 980 981
f 980 982 981
f 981 982 983
f 982 984 983
f 983 984 985
f 984 986 985
f 985 986 987
f 986 988 987
f 987 988 989
f 988 990 989
f 989 990 991
f 990 992 991
f 991 992 993
f 992 994 993
f 993 994 995
f 994 996 995
f 995 996 997
f 996 998 997
f 997 998 999
f 998 1000 999
f 999 1000 1001
f 1000 1002 1001
f 1003 1004 1005
f 1003 1064 1063
f 1003 1005 1064
f 1006 1007 1008
f 1006 1008 1009
f 1008 1010 1009
f 1009 1010 1011
f 1010 1012 1011
f 1011 1012 1013
f 1012 1014 1013
f 1013 1014 1015
f 1014 1016 1015
f 1015 1016 1017
f 1016 1018 1017
f 1017 1018 1019
f 1018 1020 1019
f 1019 1020 1021
f 1020 1022 1021
f 1021 1022 1023
f 1022 1024 1023
f 1023 1024 1025
f 1024 1026 1025
f 1025 1026 1027
f 1026 1028 1027
f 1027 1028 1029
f 1028 1030 1029
f 1028 1031 1030
f 1030 1031 1032
f 1031 1033 1032
f 1032 1033 1034
f 1033 1035 1034
f 1034 1035 1036
f 1035 1037 1036
f 1036 1037 1038
f 1037 1039 1038
f 1037 1040 1039
f 1039 1040 1041
f 1040 1042 1041
f 1041 1042 1043
f 1042 1044 1043
f 1043 1044 1045
f 1043 1045 1048
f 1044 1046 1045
f 1045 1046 1047
f 1046 1049 1047
f 1047 1049 1050
f 1049 1051 1050
f 1050 1051 1052
f 1051 1053 1052
f 1052 1053 1054
f 1053 1055 1054
f 1054 1055 1056
f 1055 1057 1056
f 1056 1057 1058
f 1057 1059 1058
f 1058 1059 1060
f 1059 1061 1060
f 1060 1061 1062
f 1061 1063 1062
f 1062 1063 1064