# ANSI B18.6.5M - M2.5x0.45 x 4(38)
# Autodesk dbId: 147
# Units: mm
o 147_ANSI_B18.6.5M_-_M2.5x0.45_x_4(38)
v 3.735298 -3.929081 -86.365543
v 3.972748 -3.814466 -86.511447
v 3.753826 -2.106118 -85.448564
v 3.558954 -2.198243 -85.331289
v 3.460346 -4.005261 -86.268565
v 3.332124 -2.256073 -85.257671
v 3.163871 -4.038581 -86.226150
v 3.088793 -2.275666 -85.232730
v 2.863102 -4.027103 -86.240761
v 2.845544 -2.255687 -85.258163
v 2.575520 -3.971494 -86.311551
v 2.618955 -2.197497 -85.332238
v 2.317838 -3.874986 -86.434405
v 2.424467 -2.105062 -85.449908
v 2.105032 -3.743189 -86.602183
v 2.275333 -1.984682 -85.603152
v 1.949468 -3.583760 -86.805135
v 2.181718 -1.844560 -85.781527
v 1.860187 -3.405967 -87.031465
v 2.150001 -1.694244 -85.972878
v 1.842379 -3.220142 -87.268021
v 2.182344 -1.543980 -86.164164
v 1.897078 -3.037083 -87.501054
v 2.276541 -1.404006 -86.342350
v 2.021106 -2.867430 -87.717021
v 2.426175 -1.283863 -86.495292
v 2.444703 -2.606428 -88.049276
v 2.207254 -2.721043 -87.903372
v 2.621047 -1.191738 -86.612568
v 2.719656 -2.530248 -88.146254
v 2.847878 -1.133908 -86.686185
v 3.016131 -2.496929 -88.188669
v 3.091208 -1.114315 -86.711127
v 3.316899 -2.508407 -88.174057
v 3.334457 -1.134294 -86.685693
v 3.604481 -2.564016 -88.103267
v 3.561046 -1.192484 -86.611618
v 3.862163 -2.660523 -87.980413
v 3.755535 -1.284918 -86.493949
v 4.074970 -2.792321 -87.812635
v 3.904668 -1.405299 -86.340705
v 4.230534 -2.951749 -87.609684
v 3.998283 -1.545421 -86.162329
v 4.319814 -3.129542 -87.383353
v 4.030000 -1.695736 -85.970978
v 4.337622 -3.315368 -87.146798
v 3.997658 -1.846001 -85.779692
v 4.282923 -3.498426 -86.913765
v 3.903460 -1.985974 -85.601506
v 4.158896 -3.668079 -86.697797
v 3.972748 -5.387231 -87.746928
v 4.158896 -3.668079 -86.697797
v 3.972748 -3.814466 -86.511447
v 3.735298 -5.501845 -87.601024
v 4.158896 -5.240843 -87.933278
v 4.282923 -3.498426 -86.913765
v 4.282923 -5.071191 -88.149246
v 4.337622 -3.315368 -87.146798
v 4.337622 -4.888132 -88.382279
v 4.319814 -3.129542 -87.383353
v 4.319814 -4.702306 -88.618834
v 4.230534 -2.951749 -87.609684
v 4.230534 -4.524513 -88.845165
v 4.074970 -2.792321 -87.812635
v 4.074970 -4.365085 -89.048116
v 3.862163 -2.660523 -87.980413
v 3.862163 -4.233287 -89.215895
v 3.604481 -2.564016 -88.103267
v 3.604481 -4.136780 -89.338748
v 3.316899 -2.508407 -88.174057
v 3.316899 -4.081171 -89.409538
v 3.016131 -2.496929 -88.188669
v 3.016131 -4.069693 -89.424150
v 2.719656 -2.530248 -88.146254
v 2.719656 -4.103012 -89.381735
v 2.444703 -2.606428 -88.049276
v 2.444704 -4.179193 -89.284757
v 2.207254 -2.721043 -87.903372
v 2.207254 -4.293807 -89.138853
v 2.021106 -2.867430 -87.717021
v 2.207254 -2.721043 -87.903372
v 2.021106 -4.440195 -88.952502
v 1.897078 -3.037083 -87.501054
v 1.897079 -4.609847 -88.736535
v 1.842379 -3.220142 -87.268021
v 1.842379 -4.792906 -88.503502
v 1.860187 -3.405967 -87.031465
v 1.860187 -4.978731 -88.266946
v 1.949468 -3.583760 -86.805135
v 1.949468 -5.156525 -88.040616
v 2.105032 -3.743189 -86.602183
v 2.105032 -5.315953 -87.837664
v 2.317838 -3.874986 -86.434405
v 2.317838 -5.447750 -87.669886
v 2.575520 -3.971494 -86.311551
v 2.575521 -5.544258 -87.547032
v 2.863102 -4.027103 -86.240761
v 2.863102 -5.599867 -87.476243
v 3.163871 -4.038581 -86.226150
v 3.163871 -5.611345 -87.461631
v 3.460346 -4.005261 -86.268565
v 3.460346 -5.578026 -87.504046
v 3.735298 -3.929081 -86.365543
v 3.784608 -7.026655 -88.673888
v 3.770285 -7.019002 -88.693876
v 3.967436 -6.946223 -88.776277
v 3.756230 -7.007757 -88.711402
v 3.923995 -6.920318 -88.820587
v 3.945987 -6.936678 -88.800690
v 3.742368 -6.992382 -88.726292
v 3.902739 -6.898105 -88.834797
v 3.729319 -6.974025 -88.738141
v 3.883453 -6.871344 -88.842482
v 3.717751 -6.953117 -88.746053
v 3.707516 -6.929942 -88.750439
v 3.867258 -6.841606 -88.843187
v 3.699650 -6.906294 -88.750549
v 3.693658 -6.881397 -88.746785
v 3.855091 -6.810636 -88.836864
v 4.009367 -6.754045 -88.954652
v 3.995239 -6.724283 -88.946791
v 4.110202 -6.624742 -89.073507
v 4.122606 -6.645687 -89.082301
v 4.137281 -6.665141 -89.087531
v 4.028250 -6.782127 -88.956055
v 4.155020 -6.683691 -89.089031
v 4.174128 -6.699954 -89.087033
v 4.050775 -6.806892 -88.950911
v 4.194752 -6.713644 -89.081125
v 4.075617 -6.826896 -88.939513
v 4.215923 -6.724514 -89.071968
v 4.101313 -6.840974 -88.922522
v 4.236615 -6.731670 -89.059649
v 4.257024 -6.735573 -89.044434
v 4.126352 -6.848306 -88.900925
v 3.603940 -6.406681 -88.633465
v 3.693658 -6.881397 -88.746785
v 3.646469 -6.631463 -88.687044
v 3.565395 -6.203467 -88.585192
v 3.530276 -6.018896 -88.541533
v 3.855091 -6.810636 -88.836864
v 3.608519 -5.981531 -88.589099
v 3.678539 -5.938387 -88.644021
v 3.995239 -6.724283 -88.946791
v 3.739228 -5.890149 -88.705427
v 3.818822 -6.047317 -88.783971
v 3.906295 -6.220384 -88.870621
v 4.002908 -6.411842 -88.966623
v 1.921188 -6.733719 -89.046794
v 1.941635 -6.729848 -89.061968
v 2.051392 -6.846659 -88.903022
v 1.962363 -6.722726 -89.074245
v 2.102239 -6.825330 -88.941507
v 2.076486 -6.839367 -88.924568
v 1.983570 -6.711889 -89.083360
v 2.127135 -6.805365 -88.952855
v 2.004227 -6.698232 -89.089226
v 2.149710 -6.780636 -88.957954
v 2.023365 -6.681999 -89.091185
v 2.041130 -6.663477 -89.089649
v 2.168635 -6.752584 -88.956512
v 2.055826 -6.644046 -89.084389
v 2.068245 -6.623121 -89.075570
v 2.182794 -6.722845 -88.948622
v 2.310379 -6.840370 -88.844760
v 2.322582 -6.809419 -88.838413
v 2.483720 -6.880437 -88.748008
v 2.477697 -6.905324 -88.751784
v 2.469792 -6.928960 -88.751690
v 2.294135 -6.870083 -88.844088
v 2.459512 -6.952118 -88.747324
v 2.447895 -6.973008 -88.739435
v 2.274791 -6.896813 -88.836442
v 2.434792 -6.991344 -88.727614
v 2.253471 -6.918992 -88.822275
v 2.420876 -7.006697 -88.712751
v 2.231413 -6.935317 -88.802423
v 2.406768 -7.017919 -88.695254
v 2.392392 -7.025550 -88.675294
v 2.209899 -6.944828 -88.778053
v 2.272384 -6.219087 -88.872272
v 2.068245 -6.623121 -89.075570
v 2.175660 -6.410391 -88.968469
v 2.359956 -6.046159 -88.785445
v 2.439640 -5.889118 -88.706741
v 2.182794 -6.722845 -88.948622
v 2.500128 -5.937452 -88.645212
v 2.569969 -5.980706 -88.590149
v 2.322582 -6.809419 -88.838413
v 2.648056 -6.018196 -88.542425
v 2.612733 -6.202711 -88.586155
v 2.573962 -6.405863 -88.634506
v 2.531185 -6.630578 -88.688171
v 2.395394 -5.582609 -90.512154
v 2.409717 -5.600217 -90.499985
v 2.212566 -5.663041 -90.409765
v 2.423772 -5.614581 -90.484910
v 2.256007 -5.699957 -90.374104
v 2.234014 -5.684500 -90.394710
v 2.437634 -5.625408 -90.466447
v 2.277263 -5.708502 -90.349158
v 2.450683 -5.632573 -90.445807
v 2.296549 -5.709632 -90.321338
v 2.462251 -5.635309 -90.423619
v 2.472486 -5.634083 -90.400065
v 2.312744 -5.703275 -90.292279
v 2.480352 -5.628590 -90.377063
v 2.486344 -5.619037 -90.353766
v 2.324911 -5.689799 -90.263687
v 2.170635 -5.790836 -90.180814
v 2.184763 -5.776152 -90.153760
v 2.069800 -5.875693 -90.027044
v 2.057396 -5.889197 -90.045311
v 2.042721 -5.898885 -90.062973
v 2.151752 -5.798850 -90.207765
v 2.024982 -5.904734 -90.080641
v 2.005874 -5.906644 -90.096914
v 2.129226 -5.799716 -90.233044
v 1.985250 -5.904146 -90.111614
v 2.104385 -5.793379 -90.255178
v 1.964079 -5.897824 -90.124344
v 2.078689 -5.780204 -90.272879
v 1.943387 -5.887549 -90.134213
v 1.922977 -5.873691 -90.141608
v 2.053650 -5.760958 -90.285117
v 2.576062 -5.396531 -89.919384
v 2.486344 -5.619037 -90.353766
v 2.533533 -5.501813 -90.125086
v 2.614607 -5.301511 -89.733380
v 2.649726 -5.215388 -89.564397
v 2.324911 -5.689799 -90.263687
v 2.571483 -5.252754 -89.516830
v 2.501462 -5.295897 -89.461909
v 2.184763 -5.776152 -90.153760
v 2.440774 -5.344135 -89.400502
v 2.361180 -5.457661 -89.534602
v 2.273707 -5.582828 -89.682228
v 2.177093 -5.721435 -89.845508
v 4.258813 -5.875545 -90.139248
v 4.238367 -5.889371 -90.131894
v 4.128610 -5.762605 -90.283020
v 4.217639 -5.899612 -90.122066
v 4.077763 -5.794945 -90.253184
v 4.103516 -5.781812 -90.270833
v 4.196432 -5.905901 -90.109380
v 4.052867 -5.801243 -90.231100
v 4.175775 -5.908367 -90.094722
v 4.030292 -5.800341 -90.205867
v 4.156637 -5.906426 -90.078487
v 4.138872 -5.900548 -90.060855
v 4.011367 -5.792297 -90.178954
v 4.124176 -5.890837 -90.043223
v 4.111757 -5.877314 -90.024981
v 3.997208 -5.777590 -90.151929
v 3.869623 -5.704511 -90.290706
v 3.857420 -5.691015 -90.262138
v 3.696282 -5.619998 -90.352543
v 3.702305 -5.629560 -90.375828
v 3.710210 -5.635065 -90.398814
v 3.885867 -5.710894 -90.319732
v 3.720490 -5.636307 -90.422347
v 3.732107 -5.633590 -90.444512
v 3.905211 -5.709795 -90.347513
v 3.745210 -5.626446 -90.465126
v 3.926531 -5.701283 -90.372416
v 3.759126 -5.615641 -90.483561
v 3.948589 -5.685861 -90.392978
v 3.773233 -5.601300 -90.498608
v 3.787610 -5.583714 -90.510747
v 3.970102 -5.664436 -90.407989
v 3.907618 -5.584125 -89.680577
v 4.111757 -5.877314 -90.024981
v 4.004342 -5.722885 -89.843662
v 3.820046 -5.458819 -89.533127
v 3.740361 -5.345167 -89.399189
v 3.997208 -5.777590 -90.151929
v 3.679874 -5.296833 -89.460718
v 3.610033 -5.253578 -89.515781
v 3.857420 -5.691015 -90.262138
v 3.531946 -5.216088 -89.563505
v 3.567269 -5.302267 -89.732418
v 3.606040 -5.397348 -89.918343
v 3.648817 -5.502698 -90.123960
v 2.792646 -6.818004 -89.233744
v 2.573962 -6.405863 -88.634506
v 2.612733 -6.202711 -88.586155
v 2.711253 -5.902918 -88.584422
v 2.658277 -6.900320 -89.053341
v 2.648056 -6.018196 -88.542425
v 2.545012 -5.332289 -89.310832
v 2.555541 -6.310281 -89.901608
v 2.490341 -6.263882 -89.939140
v 2.630895 -5.328304 -89.221878
v 2.700256 -5.339006 -89.117241
v 2.603699 -6.361084 -89.852807
v 2.726256 -5.350932 -89.061990
v 2.634960 -6.416687 -89.792321
v 2.745608 -5.368389 -89.006800
v 2.757750 -5.392757 -88.953283
v 2.645403 -6.472705 -89.724472
v 2.761931 -5.425671 -88.903091
v 2.757596 -5.466634 -88.859237
v 2.634956 -6.523556 -89.656349
v 2.745308 -5.512840 -88.822914
v 2.725816 -5.562296 -88.792924
v 2.603994 -6.568892 -89.588507
v 2.699686 -5.613111 -88.768306
v 2.630097 -5.712127 -88.733272
v 2.553660 -6.605608 -89.525242
v 2.297626 -6.144145 -90.015950
v 2.273707 -5.582828 -89.682228
v 2.490341 -6.263882 -89.939140
v 3.468749 -5.229595 -89.441561
v 3.329179 -6.127874 -90.133813
v 3.387356 -6.077136 -90.176867
v 3.401258 -5.236972 -89.338143
v 3.312363 -5.235606 -89.248868
v 3.259420 -6.165333 -90.101998
v 3.261547 -5.232202 -89.213132
v 3.177506 -6.189645 -90.081345
v 3.207363 -5.228143 -89.185333
v 3.150224 -5.224715 -89.167200
v 3.089547 -6.197778 -90.074453
v 3.090422 -5.223270 -89.160748
v 3.030631 -5.224620 -89.167321
v 3.004563 -6.189678 -90.081375
v 2.973524 -5.227957 -89.185569
v 2.919390 -5.231931 -89.213477
v 2.923207 -6.165631 -90.101857
v 2.868641 -5.235254 -89.249317
v 2.779924 -5.236479 -89.338771
v 2.850776 -6.126509 -90.135133
v 3.385813 -6.818475 -89.233144
v 3.329226 -6.789148 -89.291595
v 3.467347 -5.903518 -88.583659
v 2.778743 -5.804189 -88.616079
v 2.850823 -6.788189 -89.293233
v 2.711253 -5.902918 -88.584422
v 2.867639 -5.717129 -88.635891
v 2.920582 -6.766149 -89.337160
v 2.918455 -5.681602 -88.641046
v 3.002496 -6.751840 -89.365672
v 2.972639 -5.653633 -88.643685
v 3.029777 -5.635204 -88.644648
v 3.090455 -6.747070 -89.375206
v 3.089579 -5.628594 -88.644772
v 3.149370 -5.635299 -88.644527
v 3.175439 -6.751877 -89.365696
v 3.206477 -5.653819 -88.643448
v 3.260611 -5.681874 -88.640701
v 3.256795 -6.766083 -89.337484
v 3.311361 -5.717481 -88.635443
v 3.400078 -5.804682 -88.615451
v 3.689661 -6.631258 -89.471471
v 3.906295 -6.220384 -88.870621
v 3.818822 -6.047317 -88.783971
v 3.634989 -5.800224 -88.715151
v 3.882376 -6.677531 -89.336951
v 3.739228 -5.890149 -88.705427
v 3.521725 -5.921356 -90.299560
v 3.606040 -5.397348 -89.918343
v 3.387356 -6.077136 -90.176867
v 3.549107 -5.712857 -88.732344
v 3.624461 -6.605781 -89.525438
v 3.634989 -5.800224 -88.715151
v 3.479746 -5.613730 -88.767518
v 3.576303 -6.570398 -89.586352
v 3.453746 -5.562873 -88.792188
v 3.545042 -6.524798 -89.654696
v 3.434393 -5.513387 -88.822217
v 3.422252 -5.467162 -88.858565
v 3.534599 -6.472144 -89.725187
v 3.418071 -5.426192 -88.902428
v 3.422405 -5.393284 -88.952611
v 3.545046 -6.417999 -89.790723
v 3.434694 -5.368936 -89.006104
v 3.454186 -5.351509 -89.061254
v 3.576007 -6.362822 -89.850834
v 3.480316 -5.339625 -89.116453
v 3.549905 -5.329033 -89.220950
v 3.626342 -6.310050 -89.901486
v 4.530962 -6.102530 -86.836354
v 4.855495 -5.933943 -87.050965
v 3.972748 -5.387231 -87.746928
v 3.090001 -5.288757 -88.795002
v 3.549905 -5.329033 -89.220950
v 3.480316 -5.339625 -89.116453
v 3.294840 -7.339498 -87.383897
v 3.074442 -7.321177 -87.717349
v 3.462921 -7.253277 -88.041966
v 3.794119 -7.267299 -87.630730
v 2.879055 -7.339168 -87.384317
v 2.469678 -7.294241 -87.441508
v 2.369367 -7.253423 -87.733735
v 2.737529 -7.245851 -88.087713
v 2.079150 -7.206084 -87.553732
v 2.040720 -7.125976 -88.052616
v 1.719336 -7.077375 -87.717579
v 1.704653 -6.943482 -88.337717
v 1.134317 -6.715054 -88.178812
v 1.368820 -6.709884 -88.582374
v 1.704653 -6.943482 -88.337717
v 1.401169 -6.912023 -87.928071
v 0.926887 -6.492453 -88.462183
v 0.785181 -6.250982 -88.769575
v 1.039940 -6.430069 -88.781862
v 0.714042 -5.741131 -89.418613
v 0.786768 -5.488243 -89.740539
v 0.954029 -5.508346 -89.869873
v 2.885161 -4.403385 -91.121561
v 3.105560 -4.723016 -91.024802
v 2.717081 -5.022322 -90.881966
v 2.385883 -4.626102 -90.992967
v 3.300947 -4.403715 -91.121141
v 3.710323 -4.448641 -91.063950
v 3.810635 -4.722891 -90.955095
v 3.442472 -5.065010 -90.863919
v 4.100851 -4.536798 -90.951726
v 4.139282 -5.002525 -90.755763
v 4.460665 -4.665508 -90.787879
v 4.475349 -5.236305 -90.510950
v 5.045685 -5.027828 -90.326646
v 4.811181 -5.418689 -90.226062
v 4.475349 -5.236305 -90.510950
v 4.778832 -4.830859 -90.577387
v 5.253115 -5.250430 -90.043275
v 5.394820 -5.491901 -89.735883
v 5.140062 -5.546245 -89.906967
v 5.466495 -5.744904 -89.413811
v 5.192989 -6.015823 -89.379061
v 5.465960 -6.001751 -89.086845
v 5.393234 -6.254640 -88.764918
v 5.250525 -6.495885 -88.457814
v 5.225973 -6.385055 -88.753825
v 5.042169 -6.718156 -88.174863
v 4.906656 -6.691296 -88.498569
v 4.774498 -6.914701 -87.924662
v 4.557717 -6.942994 -88.223266
v 2.030727 -6.916286 -88.729939
v 1.673212 -6.667573 -88.990367
v 4.206813 -6.596363 -89.316238
v 3.882376 -6.677531 -89.336951
v 3.834154 -6.451932 -89.677890
v 4.543294 -6.292450 -89.551439
v 4.179339 -6.151359 -89.904618
v 4.856077 -5.940498 -89.749425
v 4.567131 -6.676921 -88.920144
v 4.506790 -5.805060 -90.088344
v 4.894775 -6.371033 -89.165060
v 3.111440 -7.174694 -88.428345
v 3.485001 -7.041111 -88.750075
v 3.845319 -7.121669 -88.353980
v 2.748325 -7.033993 -88.780760
v 3.689661 -6.631258 -89.471471
v 3.624461 -6.605781 -89.525438
v 3.576303 -6.570398 -89.586352
v 3.545042 -6.524798 -89.654696
v 3.534599 -6.472144 -89.725187
v 3.545046 -6.417999 -89.790723
v 3.576007 -6.362822 -89.850834
v 3.626342 -6.310050 -89.901486
v 3.883483 -6.145404 -90.014348
v 4.073174 -6.015485 -90.081535
v 4.258813 -5.875545 -90.139248
v 4.128610 -5.762605 -90.283020
v 4.149275 -5.610932 -90.391651
v 3.066502 -5.976324 -90.282971
v 3.387356 -6.077136 -90.176867
v 3.259420 -6.165333 -90.101998
v 3.004563 -6.189678 -90.081375
v 2.923207 -6.165631 -90.101857
v 2.850776 -6.126509 -90.135133
v 2.794188 -6.076665 -90.177467
v 2.660315 -5.920672 -90.300431
v 2.695001 -5.660053 -90.508158
v 3.431677 -5.688180 -90.493977
v 3.521725 -5.921356 -90.299560
v 3.068562 -5.379104 -90.714126
v 3.791233 -5.361813 -90.652430
v 2.527224 -5.755789 -90.412127
v 2.395394 -5.582609 -90.512154
v 1.973189 -6.104801 -89.941995
v 2.297626 -6.144145 -90.015950
v 2.345848 -6.421967 -89.716035
v 1.636708 -6.261348 -89.591032
v 1.612871 -5.739047 -90.114055
v 2.000663 -6.571073 -89.370322
v 1.323925 -6.370363 -89.202207
v 1.285227 -5.904566 -89.758872
v 0.987012 -6.028369 -89.363090
v 0.713507 -5.997979 -89.091647
v 1.273346 -5.332866 -90.227847
v 1.964601 -5.534513 -90.422849
v 2.212566 -5.663041 -90.409765
v 2.053650 -5.760958 -90.285117
v 1.922977 -5.873691 -90.141608
v 1.622285 -5.124993 -90.537577
v 1.995158 -4.888118 -90.794010
v 2.334683 -5.294299 -90.680218
v 2.490341 -6.263882 -89.939140
v 2.555541 -6.310281 -89.901608
v 2.603699 -6.361084 -89.852807
v 2.634960 -6.416687 -89.792321
v 2.603994 -6.568892 -89.588507
v 2.553660 -6.605608 -89.525242
v 2.296519 -6.676273 -89.338553
v 2.106828 -6.710785 -89.196420
v 1.921188 -6.733719 -89.046794
v 3.113500 -6.897219 -89.110674
v 2.658277 -6.900320 -89.053341
v 2.792646 -6.818004 -89.233744
v 2.524699 -6.969585 -88.866968
v 2.388769 -7.110659 -88.426154
v 2.392392 -7.025550 -88.675294
v 2.030727 -6.916286 -88.729939
v 4.095296 -7.207685 -87.551695
v 3.704402 -7.295222 -87.440260
v 4.184844 -7.136044 -87.932406
v 4.455644 -7.079546 -87.714814
v 4.215401 -6.928501 -88.648306
v 0.929477 -5.246998 -90.047644
v 1.137833 -5.024726 -90.330595
v 1.405504 -4.828182 -90.580796
v 1.724358 -4.663336 -90.790644
v 2.084706 -4.535198 -90.953763
v 2.475599 -4.447661 -91.065198
v 3.753826 -2.106118 -85.448564
v 3.972748 -3.814466 -86.511447
v 2.207254 -4.293807 -89.138853
v 3.753826 -2.106118 -85.448564
v 3.903460 -1.985974 -85.601506
v 3.558954 -2.198243 -85.331289
v 3.332124 -2.256073 -85.257671
v 3.997658 -1.846001 -85.779692
v 3.088793 -2.275666 -85.232730
v 4.030000 -1.695736 -85.970978
v 2.845544 -2.255687 -85.258163
v 3.998283 -1.545421 -86.162329
v 2.618955 -2.197497 -85.332238
v 3.904668 -1.405299 -86.340705
v 2.424467 -2.105062 -85.449908
v 3.755535 -1.284918 -86.493949
v 2.275333 -1.984682 -85.603152
v 3.561046 -1.192484 -86.611618
v 2.181718 -1.844560 -85.781527
v 3.334457 -1.134294 -86.685693
v 2.150001 -1.694244 -85.972878
v 3.091208 -1.114315 -86.711127
v 2.182344 -1.543980 -86.164164
v 2.847878 -1.133908 -86.686185
v 2.276541 -1.404006 -86.342350
v 2.621047 -1.191738 -86.612568
v 2.426175 -1.283863 -86.495292
v 4.110202 -6.624742 -89.073507
v 2.483720 -6.880437 -88.748008
v 2.069800 -5.875693 -90.027044
v 3.696282 -5.619998 -90.352543
v 2.531185 -6.630578 -88.688171
v 2.524699 -6.969585 -88.866968
v 2.483720 -6.880437 -88.748008
v 2.477697 -6.905324 -88.751784
v 2.469792 -6.928960 -88.751690
v 2.459512 -6.952118 -88.747324
v 2.447895 -6.973008 -88.739435
v 2.434792 -6.991344 -88.727614
v 2.420876 -7.006697 -88.712751
v 2.406768 -7.017919 -88.695254
v 2.392392 -7.025550 -88.675294
v 1.921188 -6.733719 -89.046794
v 2.106828 -6.710785 -89.196420
v 1.941635 -6.729848 -89.061968
v 1.962363 -6.722726 -89.074245
v 1.983570 -6.711889 -89.083360
v 2.004227 -6.698232 -89.089226
v 2.023365 -6.681999 -89.091185
v 2.041130 -6.663477 -89.089649
v 2.055826 -6.644046 -89.084389
v 2.068245 -6.623121 -89.075570
v 2.175660 -6.410391 -88.968469
v 2.296519 -6.676273 -89.338553
v 2.272384 -6.219087 -88.872272
v 2.489579 -6.630306 -89.472684
v 2.359956 -6.046159 -88.785445
v 2.544041 -5.799358 -88.716253
v 2.439640 -5.889118 -88.706741
v 2.489579 -6.630306 -89.472684
v 2.544041 -5.799358 -88.716253
v 2.177093 -5.721435 -89.845508
v 2.361180 -5.457661 -89.534602
v 2.545012 -5.332289 -89.310832
v 2.440774 -5.344135 -89.400502
v 2.108278 -6.013925 -90.083521
v 2.069800 -5.875693 -90.027044
v 2.057396 -5.889197 -90.045311
v 2.042721 -5.898885 -90.062973
v 2.024982 -5.904734 -90.080641
v 2.005874 -5.906644 -90.096914
v 1.985250 -5.904146 -90.111614
v 1.964079 -5.897824 -90.124344
v 1.943387 -5.887549 -90.134213
v 1.922977 -5.873691 -90.141608
v 2.395394 -5.582609 -90.512154
v 2.527224 -5.755789 -90.412127
v 2.409717 -5.600217 -90.499985
v 2.423772 -5.614581 -90.484910
v 2.437634 -5.625408 -90.466447
v 2.450683 -5.632573 -90.445807
v 2.462251 -5.635309 -90.423619
v 2.472486 -5.634083 -90.400065
v 2.480352 -5.628590 -90.377063
v 2.486344 -5.619037 -90.353766
v 2.533533 -5.501813 -90.125086
v 2.660315 -5.920672 -90.300431
v 2.576062 -5.396531 -89.919384
v 2.794188 -6.076665 -90.177467
v 2.614607 -5.301511 -89.733380
v 2.712655 -5.228995 -89.442325
v 2.649726 -5.215388 -89.564397
v 2.794188 -6.076665 -90.177467
v 2.712655 -5.228995 -89.442325
v 2.792646 -6.818004 -89.233744
v 4.002908 -6.411842 -88.966623
v 4.071724 -6.712345 -89.194434
v 4.110202 -6.624742 -89.073507
v 4.122606 -6.645687 -89.082301
v 4.137281 -6.665141 -89.087531
v 4.155020 -6.683691 -89.089031
v 4.174128 -6.699954 -89.087033
v 4.194752 -6.713644 -89.081125
v 4.215923 -6.724514 -89.071968
v 4.236615 -6.731670 -89.059649
v 4.257024 -6.735573 -89.044434
v 3.648817 -5.502698 -90.123960
v 3.567269 -5.302267 -89.732418
v 3.468749 -5.229595 -89.441561
v 3.531946 -5.216088 -89.563505
v 3.655303 -5.756685 -90.410987
v 3.696282 -5.619998 -90.352543
v 3.702305 -5.629560 -90.375828
v 3.710210 -5.635065 -90.398814
v 3.720490 -5.636307 -90.422347
v 3.732107 -5.633590 -90.444512
v 3.745210 -5.626446 -90.465126
v 3.759126 -5.615641 -90.483561
v 3.773233 -5.601300 -90.498608
v 3.787610 -5.583714 -90.510747
v 4.258813 -5.875545 -90.139248
v 4.073174 -6.015485 -90.081535
v 4.238367 -5.889371 -90.131894
v 4.217639 -5.899612 -90.122066
v 4.196432 -5.905901 -90.109380
v 4.175775 -5.908367 -90.094722
v 4.156637 -5.906426 -90.078487
v 4.138872 -5.900548 -90.060855
v 4.124176 -5.890837 -90.043223
v 4.111757 -5.877314 -90.024981
v 4.004342 -5.722885 -89.843662
v 3.883483 -6.145404 -90.014348
v 3.907618 -5.584125 -89.680577
v 3.690423 -6.264835 -89.937927
v 3.820046 -5.458819 -89.533127
v 3.635961 -5.333154 -89.309730
v 3.740361 -5.345167 -89.399189
v 3.690423 -6.264835 -89.937927
v 3.635961 -5.333154 -89.309730
v 3.689661 -6.631258 -89.471471
v 3.784608 -7.026655 -88.673888
v 3.652778 -6.970480 -88.865828
v 3.770285 -7.019002 -88.693876
v 3.756230 -7.007757 -88.711402
v 3.742368 -6.992382 -88.726292
v 3.729319 -6.974025 -88.738141
v 3.717751 -6.953117 -88.746053
v 3.707516 -6.929942 -88.750439
v 3.699650 -6.906294 -88.750549
v 3.693658 -6.881397 -88.746785
v 3.646469 -6.631463 -88.687044
v 3.519687 -6.901004 -89.052471
v 3.603940 -6.406681 -88.633465
v 3.385813 -6.818475 -89.233144
v 3.565395 -6.203467 -88.585192
v 3.467347 -5.903518 -88.583659
v 3.530276 -6.018896 -88.541533
v 5.129238 -5.733899 -87.305619
v 4.158896 -5.240843 -87.933278
v 5.344315 -5.508155 -87.592991
v 4.282923 -5.071191 -88.149246
v 5.494540 -5.263205 -87.904813
v 5.575591 -5.006094 -88.232114
v 4.337622 -4.888132 -88.382279
v 5.585136 -4.744220 -88.565478
v 4.319814 -4.702306 -88.618834
v 5.522901 -4.485117 -88.895317
v 4.230534 -4.524513 -88.845165
v 5.390675 -4.236237 -89.212139
v 5.192263 -4.004742 -89.506832
v 4.074970 -4.365085 -89.048116
v 4.933373 -3.797291 -89.770917
v 3.862163 -4.233287 -89.215895
v 4.621452 -3.619851 -89.996798
v 4.265475 -3.477528 -90.177975
v 3.604481 -4.136780 -89.338748
v 3.875681 -3.374415 -90.309237
v 3.316899 -4.081171 -89.409538
v 3.463284 -3.313480 -90.386807
v 3.040149 -3.296475 -90.408455
v 3.016131 -4.069693 -89.424150
v 2.618448 -3.323889 -90.373557
v 2.719656 -4.103012 -89.381735
v 2.210313 -3.394934 -90.283117
v 2.444704 -4.179193 -89.284757
v 1.827484 -3.507565 -90.139737
v 1.480977 -3.658544 -89.947542
v 2.207254 -4.293807 -89.138853
v 1.180757 -3.843525 -89.712061
v 2.021106 -4.440195 -88.952502
v 0.935463 -4.057189 -89.440068
v 0.752152 -4.293387 -89.139388
v 1.897079 -4.609847 -88.736535
v 0.636096 -4.545325 -88.818671
v 1.842379 -4.792906 -88.503502
v 0.590634 -4.805756 -88.487144
v 1.860187 -4.978731 -88.266946
v 0.617075 -5.067186 -88.154344
v 0.714657 -5.322096 -87.829844
v 1.949468 -5.156525 -88.040616
v 0.880573 -5.563152 -87.522981
v 2.105032 -5.315953 -87.837664
v 1.110051 -5.783418 -87.242582
v 1.396488 -5.976560 -86.996714
v 2.317838 -5.447750 -87.669886
v 1.731645 -6.137019 -86.792449
v 2.575521 -5.544258 -87.547032
v 2.105879 -6.260181 -86.635665
v 2.508424 -6.342501 -86.530871
v 2.863102 -5.599867 -87.476243
v 2.927700 -6.381612 -86.481082
v 3.163871 -5.611345 -87.461631
v 3.351646 -6.376389 -86.487732
v 3.460346 -5.578026 -87.504046
v 3.768064 -6.326982 -86.550627
v 4.164976 -6.234811 -86.667960
v 3.735298 -5.501845 -87.601024
v 3.740361 -5.345167 -89.399189
v 3.635961 -5.333154 -89.309730
v 3.679874 -5.296833 -89.460718
v 3.454186 -5.351509 -89.061254
v 3.090001 -5.288757 -88.795002
v 3.434694 -5.368936 -89.006104
v 3.422405 -5.393284 -88.952611
v 3.422252 -5.467162 -88.858565
v 3.090001 -5.288757 -88.795002
v 3.418071 -5.426192 -88.902428
v 3.434393 -5.513387 -88.822217
v 3.090001 -5.288757 -88.795002
v 3.453746 -5.562873 -88.792188
v 3.090001 -5.288757 -88.795002
v 3.479746 -5.613730 -88.767518
v 3.549107 -5.712857 -88.732344
v 3.678539 -5.938387 -88.644021
v 3.608519 -5.981531 -88.589099
v 3.090001 -5.288757 -88.795002
v 3.634989 -5.800224 -88.715151
v 3.739228 -5.890149 -88.705427
v 3.467347 -5.903518 -88.583659
v 3.400078 -5.804682 -88.615451
v 3.090001 -5.288757 -88.795002
v 3.530276 -6.018896 -88.541533
v 3.311361 -5.717481 -88.635443
v 3.260611 -5.681874 -88.640701
v 3.090001 -5.288757 -88.795002
v 3.206477 -5.653819 -88.643448
v 3.149370 -5.635299 -88.644527
v 3.029777 -5.635204 -88.644648
v 3.090001 -5.288757 -88.795002
v 3.089579 -5.628594 -88.644772
v 2.972639 -5.653633 -88.643685
v 3.090001 -5.288757 -88.795002
v 2.918455 -5.681602 -88.641046
v 3.090001 -5.288757 -88.795002
v 2.867639 -5.717129 -88.635891
v 2.778743 -5.804189 -88.616079
v 2.569969 -5.980706 -88.590149
v 2.500128 -5.937452 -88.645212
v 3.090001 -5.288757 -88.795002
v 2.711253 -5.902918 -88.584422
v 2.648056 -6.018196 -88.542425
v 2.544041 -5.799358 -88.716253
v 2.630097 -5.712127 -88.733272
v 3.090001 -5.288757 -88.795002
v 2.439640 -5.889118 -88.706741
v 2.699686 -5.613111 -88.768306
v 2.725816 -5.562296 -88.792924
v 3.090001 -5.288757 -88.795002
v 2.745308 -5.512840 -88.822914
v 2.757596 -5.466634 -88.859237
v 2.757750 -5.392757 -88.953283
v 3.090001 -5.288757 -88.795002
v 2.761931 -5.425671 -88.903091
v 2.745608 -5.368389 -89.006800
v 3.090001 -5.288757 -88.795002
v 2.726256 -5.350932 -89.061990
v 3.090001 -5.288757 -88.795002
v 2.700256 -5.339006 -89.117241
v 2.630895 -5.328304 -89.221878
v 2.501462 -5.295897 -89.461909
v 3.090001 -5.288757 -88.795002
v 2.545012 -5.332289 -89.310832
v 2.440774 -5.344135 -89.400502
v 2.501462 -5.295897 -89.461909
v 2.571483 -5.252754 -89.516830
v 3.090001 -5.288757 -88.795002
v 2.712655 -5.228995 -89.442325
v 2.779924 -5.236479 -89.338771
v 3.090001 -5.288757 -88.795002
v 2.649726 -5.215388 -89.564397
v 2.868641 -5.235254 -89.249317
v 2.919390 -5.231931 -89.213477
v 3.090001 -5.288757 -88.795002
v 2.973524 -5.227957 -89.185569
v 3.030631 -5.224620 -89.167321
v 3.150224 -5.224715 -89.167200
v 3.090001 -5.288757 -88.795002
v 3.090422 -5.223270 -89.160748
v 3.207363 -5.228143 -89.185333
v 3.090001 -5.288757 -88.795002
v 3.261547 -5.232202 -89.213132
v 3.090001 -5.288757 -88.795002
v 3.312363 -5.235606 -89.248868
v 3.401258 -5.236972 -89.338143
v 3.610033 -5.253578 -89.515781
v 3.090001 -5.288757 -88.795002
v 3.468749 -5.229595 -89.441561
v 3.531946 -5.216088 -89.563505
v 4.071724 -6.712345 -89.194434
v 4.257024 -6.735573 -89.044434
v 4.126352 -6.848306 -88.900925
v 3.967436 -6.946223 -88.776277
v 3.784608 -7.026655 -88.673888
v 3.652778 -6.970480 -88.865828
v 3.519687 -6.901004 -89.052471
v 3.385813 -6.818475 -89.233144
v 3.329226 -6.789148 -89.291595
v 3.256795 -6.766083 -89.337484
v 3.175439 -6.751877 -89.365696
v 3.090455 -6.747070 -89.375206
v 3.002496 -6.751840 -89.365672
v 2.920582 -6.766149 -89.337160
v 2.850823 -6.788189 -89.293233
v 4.778832 -4.830859 -90.577387
v 3.690423 -6.264835 -89.937927
v 4.149275 -5.610932 -90.391651
v 4.128610 -5.762605 -90.283020
v 3.970102 -5.664436 -90.407989
v 3.787610 -5.583714 -90.510747
v 3.655303 -5.756685 -90.410987
v 3.329179 -6.127874 -90.133813
v 3.177506 -6.189645 -90.081345
v 3.089547 -6.197778 -90.074453
v 2.108278 -6.013925 -90.083521
v 1.401169 -6.912023 -87.928071
v 2.645403 -6.472705 -89.724472
v 2.634956 -6.523556 -89.656349
v 2.489579 -6.630306 -89.472684
v 2.051392 -6.846659 -88.903022
v 2.051392 -6.846659 -88.903022
v 2.209899 -6.944828 -88.778053
v 5.129238 -5.733899 -87.305619
v 4.855495 -5.933943 -87.050965
v 4.774498 -6.914701 -87.924662
v 4.530962 -6.102530 -86.836354
v 4.455644 -7.079546 -87.714814
v 4.164976 -6.234811 -86.667960
v 4.095296 -7.207685 -87.551695
v 3.768064 -6.326982 -86.550627
v 3.704402 -7.295222 -87.440260
v 3.351646 -6.376389 -86.487732
v 3.294840 -7.339498 -87.383897
v 2.927700 -6.381612 -86.481082
v 2.879055 -7.339168 -87.384317
v 2.508424 -6.342501 -86.530871
v 2.469678 -7.294241 -87.441508
v 2.105879 -6.260181 -86.635665
v 2.079150 -7.206084 -87.553732
v 1.731645 -6.137019 -86.792449
v 1.719336 -7.077375 -87.717579
v 1.396488 -5.976560 -86.996714
v 1.401169 -6.912023 -87.928071
v 1.110051 -5.783418 -87.242582
v 1.134317 -6.715054 -88.178812
v 0.880573 -5.563152 -87.522981
v 0.926887 -6.492453 -88.462183
v 0.714657 -5.322096 -87.829844
v 0.785181 -6.250982 -88.769575
v 0.617075 -5.067186 -88.154344
v 0.713507 -5.997979 -89.091647
v 0.590634 -4.805756 -88.487144
v 0.714042 -5.741131 -89.418613
v 0.636096 -4.545325 -88.818671
v 0.786768 -5.488243 -89.740539
v 0.752152 -4.293387 -89.139388
v 0.929477 -5.246998 -90.047644
v 0.935463 -4.057189 -89.440068
v 1.137833 -5.024726 -90.330595
v 1.180757 -3.843525 -89.712061
v 1.405504 -4.828182 -90.580796
v 1.405504 -4.828182 -90.580796
v 1.180757 -3.843525 -89.712061
v 1.480977 -3.658544 -89.947542
v 1.724358 -4.663336 -90.790644
v 1.827484 -3.507565 -90.139737
v 2.084706 -4.535198 -90.953763
v 2.210313 -3.394934 -90.283117
v 2.475599 -4.447661 -91.065198
v 2.618448 -3.323889 -90.373557
v 2.885161 -4.403385 -91.121561
v 3.040149 -3.296475 -90.408455
v 3.300947 -4.403715 -91.121141
v 3.463284 -3.313480 -90.386807
v 3.710323 -4.448641 -91.063950
v 3.875681 -3.374415 -90.309237
v 4.100851 -4.536798 -90.951726
v 4.265475 -3.477528 -90.177975
v 4.460665 -4.665508 -90.787879
v 4.621452 -3.619851 -89.996798
v 4.778832 -4.830859 -90.577387
v 4.933373 -3.797291 -89.770917
v 5.045685 -5.027828 -90.326646
v 5.192263 -4.004742 -89.506832
v 5.253115 -5.250430 -90.043275
v 5.390675 -4.236237 -89.212139
v 5.394820 -5.491901 -89.735883
v 5.522901 -4.485117 -88.895317
v 5.466495 -5.744904 -89.413811
v 5.585136 -4.744220 -88.565478
v 5.465960 -6.001751 -89.086845
v 5.575591 -5.006094 -88.232114
v 5.393234 -6.254640 -88.764918
v 5.494540 -5.263205 -87.904813
v 5.250525 -6.495885 -88.457814
v 5.344315 -5.508155 -87.592991
v 5.042169 -6.718156 -88.174863
f 1 2 3
f 1 4 5
f 1 3 4
f 4 6 5
f 5 6 7
f 6 8 7
f 7 8 9
f 8 10 9
f 9 10 11
f 10 12 11
f 11 12 13
f 12 14 13
f 13 14 15
f 14 16 15
f 15 16 17
f 16 18 17
f 17 18 19
f 18 20 19
f 19 20 21
f 20 22 21
f 21 22 23
f 22 24 23
f 23 24 25
f 24 26 25
f 25 26 28
f 26 27 28
f 26 29 27
f 27 29 30
f 29 31 30
f 30 31 32
f 31 33 32
f 32 33 34
f 33 35 34
f 34 35 36
f 35 37 36
f 36 37 38
f 37 39 38
f 38 39 40
f 39 41 40
f 40 41 42
f 41 43 42
f 42 43 44
f 43 45 44
f 44 45 46
f 45 47 46
f 46 47 48
f 47 49 48
f 48 49 50
f 49 527 50
f 50 527 528
f 51 52 53
f 51 53 54
f 51 55 52
f 52 55 56
f 53 103 54
f 54 103 102
f 55 57 56
f 56 57 58
f 57 59 58
f 58 59 60
f 59 61 60
f 60 61 62
f 61 63 62
f 62 63 64
f 63 65 64
f 64 65 66
f 65 67 66
f 66 67 68
f 67 69 68
f 68 69 70
f 69 71 70
f 70 71 72
f 71 73 72
f 72 73 74
f 73 75 74
f 74 75 76
f 75 77 76
f 76 77 78
f 77 529 78
f 79 80 81
f 79 82 80
f 80 82 83
f 82 84 83
f 83 84 85
f 84 86 85
f 85 86 87
f 86 88 87
f 87 88 89
f 88 90 89
f 89 90 91
f 90 92 91
f 91 92 93
f 92 94 93
f 93 94 95
f 94 96 95
f 95 96 97
f 96 98 97
f 97 98 99
f 98 100 99
f 99 100 101
f 100 102 101
f 101 102 103
f 104 105 106
f 105 107 109
f 105 109 106
f 106 109 135
f 107 108 109
f 107 110 108
f 108 110 111
f 108 111 130
f 108 130 132
f 108 132 109
f 109 132 135
f 110 112 111
f 111 112 113
f 111 113 128
f 111 128 130
f 112 114 113
f 113 115 116
f 113 114 115
f 113 116 125
f 113 125 128
f 115 117 116
f 116 119 120
f 116 117 119
f 116 120 125
f 117 118 119
f 119 121 120
f 120 121 122
f 120 122 123
f 120 124 125
f 120 123 124
f 124 126 125
f 125 127 128
f 125 126 127
f 127 129 128
f 128 129 130
f 129 131 130
f 130 131 132
f 131 133 132
f 132 133 135
f 133 134 135
f 136 137 138
f 136 139 140
f 136 140 137
f 137 140 141
f 140 142 141
f 141 143 144
f 141 142 143
f 143 145 144
f 144 145 146
f 144 146 147
f 144 147 148
f 144 148 554
f 149 150 151
f 150 152 154
f 150 154 151
f 151 154 180
f 152 153 154
f 152 155 153
f 153 155 156
f 153 156 175
f 153 175 177
f 153 177 154
f 154 177 180
f 155 157 156
f 156 157 158
f 156 158 173
f 156 173 175
f 157 159 158
f 158 160 161
f 158 159 160
f 158 161 170
f 158 170 173
f 160 162 161
f 161 164 165
f 161 162 164
f 161 165 170
f 162 163 164
f 164 166 165
f 165 166 167
f 165 167 168
f 165 169 170
f 165 168 169
f 169 171 170
f 170 172 173
f 170 171 172
f 172 174 173
f 173 174 175
f 174 176 175
f 175 176 177
f 176 178 177
f 177 178 180
f 178 179 180
f 181 182 183
f 181 184 185
f 181 185 182
f 182 185 186
f 185 187 186
f 186 188 189
f 186 187 188
f 188 190 189
f 189 190 191
f 189 191 192
f 189 192 193
f 189 193 555
f 194 195 196
f 195 197 199
f 195 199 196
f 196 199 225
f 197 198 199
f 197 200 198
f 198 200 201
f 198 201 220
f 198 220 222
f 198 222 199
f 199 222 225
f 200 202 201
f 201 202 203
f 201 203 218
f 201 218 220
f 202 204 203
f 203 205 206
f 203 204 205
f 203 206 215
f 203 215 218
f 205 207 206
f 206 209 210
f 206 207 209
f 206 210 215
f 207 208 209
f 209 211 210
f 210 211 212
f 210 212 213
f 210 214 215
f 210 213 214
f 214 216 215
f 215 217 218
f 215 216 217
f 217 219 218
f 218 219 220
f 219 221 220
f 220 221 222
f 221 223 222
f 222 223 225
f 223 224 225
f 226 227 228
f 226 229 230
f 226 230 227
f 227 230 231
f 230 232 231
f 231 233 234
f 231 232 233
f 233 235 234
f 234 235 236
f 234 236 237
f 234 237 238
f 234 238 556
f 239 240 241
f 240 242 244
f 240 244 241
f 241 244 270
f 242 243 244
f 242 245 243
f 243 245 246
f 243 246 265
f 243 265 267
f 243 267 244
f 244 267 270
f 245 247 246
f 246 247 248
f 246 248 263
f 246 263 265
f 247 249 248
f 248 250 251
f 248 249 250
f 248 251 260
f 248 260 263
f 250 252 251
f 251 254 255
f 251 252 254
f 251 255 260
f 252 253 254
f 254 256 255
f 255 256 257
f 255 257 258
f 255 259 260
f 255 258 259
f 259 261 260
f 260 262 263
f 260 261 262
f 262 264 263
f 263 264 265
f 264 266 265
f 265 266 267
f 266 268 267
f 267 268 270
f 268 269 270
f 271 272 273
f 271 274 275
f 271 275 272
f 272 275 276
f 275 277 276
f 276 278 279
f 276 277 278
f 278 280 279
f 279 280 281
f 279 281 282
f 279 282 283
f 279 283 557
f 284 285 286
f 284 286 287
f 284 288 285
f 285 288 558
f 286 289 287
f 288 559 558
f 290 291 292
f 290 293 291
f 291 294 295
f 291 293 294
f 294 296 295
f 295 296 297
f 296 298 297
f 297 299 300
f 297 298 299
f 299 301 300
f 300 302 303
f 300 301 302
f 302 304 303
f 303 305 306
f 303 304 305
f 305 307 306
f 306 308 309
f 306 307 308
f 308 587 309
f 309 587 586
f 310 311 312
f 310 588 311
f 310 592 588
f 311 589 312
f 312 589 590
f 313 314 315
f 313 316 314
f 314 317 318
f 314 316 317
f 317 319 318
f 318 319 320
f 319 321 320
f 320 322 323
f 320 321 322
f 322 324 323
f 323 325 326
f 323 324 325
f 325 327 326
f 326 328 329
f 326 327 328
f 328 330 329
f 329 331 332
f 329 330 331
f 331 620 332
f 332 620 619
f 333 334 335
f 334 351 353
f 334 353 335
f 336 337 338
f 336 339 337
f 337 339 340
f 337 621 338
f 339 341 340
f 340 341 342
f 341 343 342
f 342 344 345
f 342 343 344
f 344 346 345
f 345 347 348
f 345 346 347
f 347 349 348
f 348 350 351
f 348 349 350
f 350 352 351
f 351 352 353
f 354 355 356
f 354 356 357
f 354 358 355
f 355 358 622
f 356 359 357
f 358 623 622
f 360 361 362
f 360 633 361
f 360 637 633
f 361 634 362
f 362 634 635
f 363 364 365
f 363 366 364
f 364 366 367
f 364 666 365
f 366 368 367
f 367 368 369
f 368 370 369
f 369 371 372
f 369 370 371
f 371 373 372
f 372 374 375
f 372 373 374
f 374 376 375
f 375 377 378
f 375 376 377
f 377 379 378
f 378 380 381
f 378 379 380
f 380 665 381
f 381 665 664
f 382 383 384
f 382 743 742
f 382 384 743
f 383 684 384
f 384 684 685
f 385 386 387
f 385 746 386
f 386 746 745
f 387 747 748
f 388 389 390
f 388 390 391
f 388 392 389
f 388 391 517
f 389 392 393
f 389 393 395
f 389 395 450
f 389 450 390
f 390 450 451
f 390 451 452
f 390 452 391
f 391 516 517
f 391 452 518
f 391 518 516
f 393 394 395
f 393 396 394
f 394 396 397
f 394 513 395
f 394 397 513
f 395 453 450
f 395 513 453
f 396 398 397
f 397 398 399
f 397 399 515
f 397 515 513
f 398 861 399
f 400 401 402
f 400 402 403
f 400 404 401
f 401 439 402
f 401 440 439
f 401 406 440
f 401 404 406
f 404 405 406
f 405 491 406
f 406 488 440
f 406 490 488
f 406 491 490
f 407 408 409
f 407 490 491
f 407 489 490
f 407 409 489
f 408 521 409
f 409 492 489
f 409 521 492
f 410 411 412
f 410 412 413
f 410 414 411
f 410 413 526
f 411 414 415
f 411 415 417
f 411 417 478
f 411 478 412
f 412 478 475
f 412 475 499
f 412 499 413
f 413 498 525
f 413 525 526
f 413 499 498
f 415 416 417
f 415 418 416
f 416 418 419
f 416 479 417
f 416 419 479
f 417 479 476
f 417 476 478
f 418 420 419
f 419 420 421
f 419 852 479
f 419 421 852
f 420 850 421
f 422 423 424
f 422 424 425
f 422 426 423
f 423 428 448
f 423 426 428
f 423 448 466
f 423 466 424
f 426 427 428
f 427 429 428
f 428 429 430
f 428 446 448
f 428 430 446
f 429 431 430
f 430 431 432
f 430 449 446
f 430 434 449
f 430 432 434
f 432 433 434
f 433 435 436
f 433 436 434
f 434 436 449
f 435 437 438
f 435 438 436
f 436 438 447
f 436 447 449
f 437 519 438
f 438 518 520
f 438 519 518
f 438 520 447
f 439 440 508
f 439 508 865
f 440 488 487
f 440 487 508
f 441 442 443
f 441 443 444
f 441 444 447
f 441 836 835
f 441 835 442
f 441 447 836
f 442 454 443
f 443 445 444
f 443 454 455
f 443 455 456
f 443 457 458
f 443 458 459
f 443 460 461
f 443 461 462
f 443 462 445
f 443 456 457
f 443 459 460
f 444 445 446
f 444 446 449
f 444 449 447
f 445 448 446
f 445 462 463
f 445 463 464
f 445 464 448
f 447 837 836
f 447 520 837
f 448 464 465
f 448 465 466
f 450 509 451
f 450 453 509
f 451 839 452
f 451 840 839
f 451 841 840
f 451 509 841
f 452 520 518
f 452 838 520
f 452 839 838
f 453 512 510
f 453 510 509
f 453 513 514
f 453 514 512
f 461 851 462
f 467 468 469
f 467 469 470
f 467 471 472
f 467 472 473
f 467 474 475
f 467 476 477
f 467 478 476
f 467 475 478
f 467 477 468
f 467 470 471
f 467 473 474
f 468 857 469
f 469 858 470
f 470 858 859
f 474 480 475
f 475 480 481
f 475 481 499
f 476 479 855
f 476 855 856
f 476 856 477
f 479 852 855
f 481 494 499
f 482 483 484
f 482 484 485
f 482 485 486
f 482 486 496
f 482 496 860
f 482 860 483
f 483 500 484
f 484 487 485
f 484 500 501
f 484 501 502
f 484 503 504
f 484 504 505
f 484 506 487
f 484 502 503
f 484 505 506
f 485 487 488
f 485 488 489
f 485 489 486
f 486 489 492
f 486 497 493
f 486 492 497
f 486 493 496
f 487 506 507
f 487 507 508
f 488 490 489
f 492 521 522
f 492 522 497
f 493 494 495
f 493 495 496
f 493 497 498
f 493 499 494
f 493 498 499
f 497 522 523
f 497 523 524
f 497 524 498
f 498 524 525
f 503 862 504
f 504 862 863
f 505 864 506
f 509 510 511
f 509 842 841
f 509 843 842
f 509 844 843
f 509 845 844
f 509 846 845
f 509 847 846
f 509 848 847
f 509 511 848
f 511 849 848
f 513 867 514
f 513 515 867
f 515 866 867
f 516 518 519
f 520 838 837
f 530 531 532
f 531 533 532
f 531 534 533
f 533 534 535
f 534 536 535
f 535 536 537
f 536 538 537
f 537 538 539
f 538 540 539
f 539 540 541
f 540 542 541
f 541 542 543
f 542 544 543
f 543 544 545
f 544 546 545
f 545 546 547
f 546 548 547
f 547 548 549
f 548 550 549
f 549 550 551
f 550 552 551
f 551 552 553
f 558 559 560
f 559 561 560
f 559 562 561
f 559 563 562
f 559 564 563
f 559 565 564
f 559 566 565
f 559 567 566
f 559 568 567
f 569 570 571
f 570 572 571
f 570 573 572
f 570 574 573
f 570 575 574
f 570 576 575
f 570 577 576
f 570 578 577
f 570 579 578
f 570 580 579
f 579 580 581
f 580 582 581
f 581 582 583
f 582 584 583
f 583 584 585
f 588 592 593
f 589 591 590
f 592 594 593
f 592 595 594
f 592 596 595
f 592 597 596
f 592 598 597
f 592 599 598
f 592 600 599
f 592 601 600
f 602 603 604
f 603 605 604
f 603 606 605
f 603 607 606
f 603 608 607
f 603 609 608
f 603 610 609
f 603 611 610
f 603 612 611
f 603 613 612
f 612 613 614
f 613 615 614
f 614 615 616
f 615 617 616
f 616 617 618
f 622 623 624
f 623 625 624
f 623 626 625
f 623 627 626
f 623 628 627
f 623 629 628
f 623 630 629
f 623 631 630
f 623 632 631
f 633 637 638
f 634 636 635
f 637 639 638
f 637 640 639
f 637 641 640
f 637 642 641
f 637 643 642
f 637 644 643
f 637 645 644
f 637 646 645
f 647 648 649
f 648 650 649
f 648 651 650
f 648 652 651
f 648 653 652
f 648 654 653
f 648 655 654
f 648 656 655
f 648 657 656
f 648 658 657
f 657 658 659
f 658 660 659
f 659 660 661
f 660 662 661
f 661 662 663
f 667 668 669
f 668 670 669
f 668 671 670
f 668 672 671
f 668 673 672
f 668 674 673
f 668 675 674
f 668 676 675
f 668 677 676
f 668 678 677
f 677 678 679
f 678 680 679
f 679 680 681
f 680 682 681
f 681 682 683
f 684 686 685
f 685 686 687
f 686 688 687
f 687 688 689
f 687 689 690
f 689 691 690
f 690 691 692
f 691 693 692
f 692 693 694
f 693 695 694
f 694 695 696
f 694 696 697
f 696 698 697
f 697 698 699
f 698 700 699
f 699 700 701
f 699 701 702
f 701 703 702
f 702 703 704
f 703 705 704
f 704 705 706
f 704 706 707
f 706 708 707
f 707 708 709
f 708 710 709
f 709 710 711
f 710 712 711
f 711 712 713
f 711 713 714
f 713 715 714
f 714 715 716
f 715 717 716
f 716 717 718
f 716 718 719
f 718 720 719
f 719 720 721
f 720 722 721
f 721 722 723
f 722 724 723
f 723 724 725
f 723 725 726
f 725 727 726
f 726 727 728
f 727 729 728
f 728 729 730
f 728 730 731
f 730 732 731
f 731 732 733
f 732 734 733
f 733 734 735
f 733 735 736
f 735 737 736
f 736 737 738
f 737 739 738
f 738 739 740
f 739 741 740
f 740 741 742
f 740 742 743
f 744 745 746
f 746 830 831
f 746 832 830
f 747 749 748
f 748 749 750
f 750 753 755
f 751 752 753
f 751 754 752
f 754 756 757
f 756 758 757
f 757 758 759
f 759 760 761
f 759 761 762
f 759 763 760
f 760 763 764
f 761 765 766
f 761 766 767
f 761 768 765
f 766 769 767
f 769 770 771
f 770 772 771
f 771 772 773
f 773 776 778
f 774 775 776
f 774 777 775
f 777 779 780
f 779 781 780
f 780 781 782
f 782 783 784
f 782 784 785
f 782 786 783
f 783 786 787
f 784 788 789
f 784 789 790
f 784 791 788
f 789 792 790
f 792 793 794
f 793 795 794
f 794 795 796
f 796 799 801
f 797 798 799
f 797 800 798
f 800 802 803
f 802 804 803
f 803 804 805
f 805 806 807
f 805 808 806
f 806 808 809
f 810 811 812
f 811 813 814
f 811 814 815
f 811 816 813
f 814 817 815
f 817 818 819
f 818 820 819
f 819 820 821
f 821 824 826
f 822 823 824
f 822 825 823
f 825 827 828
f 827 829 828
f 828 829 830
f 830 833 831
f 831 833 834
f 852 853 854
f 852 854 855
f 868 869 870
f 868 942 941
f 868 870 942
f 869 871 870
f 870 871 872
f 871 873 872
f 872 873 874
f 873 875 874
f 874 875 876
f 875 877 876
f 876 877 878
f 877 879 878
f 878 879 880
f 879 881 880
f 880 881 882
f 881 883 882
f 882 883 884
f 883 885 884
f 884 885 886
f 885 887 886
f 886 887 888
f 887 889 888
f 888 889 890
f 889 891 890
f 890 891 892
f 891 893 892
f 892 893 894
f 893 895 894
f 894 895 896
f 895 897 896
f 896 897 898
f 897 899 898
f 898 899 900
f 899 901 900
f 900 901 902
f 901 903 902
f 902 903 904
f 903 905 904
f 904 905 906
f 907 908 909
f 907 909 910
f 909 911 910
f 910 911 912
f 911 913 912
f 912 913 914
f 913 915 914
f 914 915 916
f 915 917 916
f 916 917 918
f 917 919 918
f 918 919 920
f 919 921 920
f 920 921 922
f 921 923 922
f 922 923 924
f 923 925 924
f 924 925 926
f 925 927 926
f 926 927 928
f 927 929 928
f 928 929 930
f 929 931 930
f 930 931 932
f 931 933 932
f 932 933 934
f 933 935 934
f 934 935 936
f 935 937 936
f 936 937 938
f 937 939 938
f 938 939 940
f 939 941 940
f 940 941 942