# ANSI B18.3.4M - M3 x 0.5 x 8(1)
# Autodesk dbId: 150
# Units: mm
o 150_ANSI_B18.3.4M_-_M3_x_0.5_x_8(1)
v -4.524358 15.760929 -83.895035
v -4.500043 15.696418 -83.818430
v -4.718399 15.899441 -84.076877
v -4.778628 15.965630 -84.155620
v -4.364518 15.522549 -83.591579
v -5.109999 14.410770 -82.176287
v -5.486688 14.327481 -82.075776
v -5.122940 14.421937 -82.196018
v -5.495889 14.312030 -82.050591
v -5.877033 14.291874 -82.030448
v -5.909999 14.278352 -82.007719
v -6.269450 14.317353 -82.062882
v -6.324110 14.312030 -82.050591
v -6.639282 14.402316 -82.171041
v -6.709999 14.410770 -82.176287
v -6.963290 14.541426 -82.348127
v -7.041370 14.567843 -82.376240
v -7.221116 14.725941 -82.583015
v -7.295640 14.772545 -82.636824
v -7.396559 14.944269 -82.860945
v -7.455480 15.010924 -82.940281
v -7.478596 15.182689 -83.164454
v -7.509999 15.266737 -83.265930
v -7.462073 15.426223 -83.474471
v -7.455480 15.522550 -83.591579
v -7.348027 15.659567 -83.771517
v -7.295640 15.760929 -83.895036
v -7.143625 15.868059 -84.036928
v -7.041370 15.965630 -84.155620
v -6.861709 16.038600 -84.254026
v -6.709999 16.122703 -84.355573
v -6.519994 16.160474 -84.409171
v -6.324109 16.221443 -84.481269
v -6.139951 16.226022 -84.492614
v -5.909999 16.255122 -84.524141
v -5.745459 16.231127 -84.499112
v -5.495888 16.221443 -84.481269
v -5.361305 16.175467 -84.428257
v -5.109999 16.122703 -84.355573
v -5.011628 16.062539 -84.284501
v -4.610961 15.651404 -83.917490
v -4.771927 15.815293 -84.084224
v -4.563379 15.621391 -83.837387
v -4.461110 15.427923 -83.633000
v -4.849339 15.843311 -84.161788
v -4.849339 14.532885 -82.493620
v -4.624038 14.727352 -82.699277
v -4.858120 14.544909 -82.467029
v -4.610961 14.724793 -82.737917
v -4.470758 14.940023 -82.970007
v -4.461110 14.948274 -83.022408
v -4.407910 15.169560 -83.262208
v -4.409999 15.188098 -83.327704
v -4.439445 15.401542 -83.557520
v -4.370279 15.466229 -83.525400
v -4.521646 15.681938 -83.816168
v -4.393870 15.455276 -83.527628
v -4.540197 15.663753 -83.818744
v -4.736657 15.881850 -84.070655
v -4.414128 15.440119 -83.534059
v -4.554431 15.643101 -83.825981
v -4.752334 15.860993 -84.069830
v -4.429673 15.421791 -83.544254
v -4.764364 15.838292 -84.074458
v -5.051984 15.971065 -84.282521
v -5.037213 16.019447 -84.271542
v -5.046282 15.995099 -84.274074
v -5.025393 16.042450 -84.275098
v -4.309999 15.266736 -83.265930
v -4.337262 15.223337 -83.216198
v -4.361359 15.216105 -83.223164
v -4.382051 15.204144 -83.233663
v -4.397929 15.188268 -83.246980
v -4.364518 15.010923 -82.940281
v -4.403065 14.983003 -82.910254
v -4.426154 14.979454 -82.921907
v -4.445981 14.970654 -82.936432
v -4.461194 14.957205 -82.952838
v -4.524359 14.772544 -82.636824
v -4.563555 14.760329 -82.626791
v -4.584185 14.760191 -82.642787
v -4.601900 14.754322 -82.661041
v -4.615493 14.743121 -82.680309
v -4.778628 14.567843 -82.376240
v -4.808647 14.569306 -82.383619
v -4.825521 14.572095 -82.403341
v -4.840012 14.568739 -82.424794
v -4.851131 14.559466 -82.446517
v -5.122940 14.421937 -82.196018
v -5.134999 14.426984 -82.218614
v -5.109999 14.410770 -82.176287
v -5.145355 14.425566 -82.242536
v -5.153301 14.417782 -82.266153
v -5.158296 14.404160 -82.287855
v -5.159999 14.385630 -82.306164
v -5.493174 14.333975 -82.100215
v -5.877539 14.298913 -82.055581
v -5.498743 14.333801 -82.125718
v -5.134999 14.426984 -82.218614
v -5.877972 14.299207 -82.081681
v -5.503017 14.326969 -82.150549
v -5.145355 14.425566 -82.242536
v -5.878305 14.292736 -82.106969
v -5.878514 14.279940 -82.129722
v -5.505703 14.313947 -82.173014
v -5.153301 14.417782 -82.266153
v -5.521771 14.293061 -82.188324
v -5.159999 14.385630 -82.306164
v -5.158296 14.404160 -82.287855
v -6.263943 14.324002 -82.087518
v -6.259214 14.323960 -82.113192
v -6.255585 14.317231 -82.138153
v -6.253304 14.304273 -82.160700
v -5.909999 14.261488 -82.148131
v -6.628108 14.407663 -82.194020
v -6.618513 14.406504 -82.218270
v -6.611150 14.398918 -82.242139
v -6.606522 14.385420 -82.263999
v -6.298228 14.293061 -82.188324
v -6.947152 14.544642 -82.368393
v -6.933293 14.541653 -82.390313
v -6.922660 14.532661 -82.412394
v -6.915975 14.518281 -82.433131
v -6.659999 14.385630 -82.306164
v -7.201027 14.726330 -82.599682
v -7.183777 14.720913 -82.618511
v -7.170540 14.710059 -82.638221
v -7.162219 14.694508 -82.657467
v -6.970659 14.532886 -82.493620
v -7.373782 14.941312 -82.873353
v -7.354224 14.933023 -82.888526
v -7.339216 14.919965 -82.905430
v -7.329782 14.903028 -82.922913
v -7.209037 14.724793 -82.737918
v -7.454563 15.176080 -83.172212
v -7.433925 15.164654 -83.183392
v -7.418089 15.149189 -83.197231
v -7.408134 15.130739 -83.212787
v -7.358888 14.948274 -83.022408
v -7.438293 15.415882 -83.477479
v -7.417872 15.401252 -83.484580
v -7.402203 15.383328 -83.495290
v -7.392353 15.363332 -83.508879
v -7.409999 15.188099 -83.327704
v -7.325994 15.645651 -83.769974
v -7.307074 15.627950 -83.773167
v -7.292556 15.607670 -83.780878
v -7.283430 15.586195 -83.792581
v -7.358888 15.427923 -83.633000
v -7.124724 15.850949 -84.031318
v -7.108493 15.830505 -84.031019
v -7.096039 15.808121 -84.036050
v -7.088209 15.785321 -84.046069
v -7.209037 15.651404 -83.917491
v -6.847127 16.018877 -84.245090
v -6.834606 15.996189 -84.241934
v -6.824998 15.972083 -84.244774
v -6.818958 15.948201 -84.253415
v -6.970659 15.843311 -84.161788
v -6.510648 16.138883 -84.397858
v -6.502622 16.114592 -84.392661
v -6.496464 16.089256 -84.393934
v -6.492593 16.064600 -84.401591
v -6.659999 15.990567 -84.349244
v -6.136427 16.203427 -84.480022
v -6.133402 16.178274 -84.473727
v -6.131080 16.152275 -84.474158
v -6.129621 16.127204 -84.481286
v -6.298227 16.083136 -84.467084
v -5.747980 16.208454 -84.486421
v -5.750144 16.183233 -84.480041
v -5.751806 16.157183 -84.480406
v -5.752850 16.132080 -84.487492
v -5.909999 16.114709 -84.507277
v -5.369712 16.153646 -84.416652
v -5.376931 16.129158 -84.411203
v -5.382471 16.103670 -84.412284
v -5.385953 16.078920 -84.419820
v -5.521770 16.083136 -84.467084
v -5.159999 15.990567 -84.349244
v -4.610962 8.107425 -89.843645
v -4.849339 15.843311 -84.161788
v -4.610961 15.651404 -83.917490
v -4.461112 7.883944 -89.559154
v -4.849340 8.299332 -90.087942
v -5.159999 15.990567 -84.349244
v -5.160000 8.446588 -90.275398
v -5.521770 16.083136 -84.467084
v -5.521771 8.539157 -90.393238
v -5.909999 16.114709 -84.507277
v -5.910000 8.570731 -90.433431
v -6.298227 16.083136 -84.467084
v -6.298229 8.539158 -90.393238
v -6.659999 15.990567 -84.349244
v -6.660000 8.446588 -90.275399
v -6.970659 15.843311 -84.161788
v -6.970660 8.299333 -90.087942
v -7.209037 15.651404 -83.917491
v -7.209038 8.107426 -89.843645
v -7.358888 15.427923 -83.633000
v -7.358889 7.883945 -89.559154
v -7.409999 15.188099 -83.327704
v -7.410000 7.644120 -89.253858
v -7.358888 14.948274 -83.022408
v -7.358889 7.404295 -88.948563
v -7.209037 14.724793 -82.737918
v -7.209039 7.180815 -88.664072
v -6.970659 14.532886 -82.493620
v -7.209037 14.724793 -82.737918
v -6.970661 6.988908 -88.419774
v -6.659999 14.385630 -82.306164
v -6.660000 6.841652 -88.232318
v -6.298228 14.293061 -82.188324
v -6.298229 6.749082 -88.114479
v -5.909999 14.261488 -82.148131
v -5.910001 6.717509 -88.074285
v -5.521771 14.293061 -82.188324
v -5.521772 6.749083 -88.114478
v -5.159999 14.385630 -82.306164
v -5.160001 6.841651 -88.232318
v -4.849339 14.532885 -82.493620
v -4.849340 6.988907 -88.419774
v -4.610961 14.724793 -82.737917
v -4.610962 7.180814 -88.664072
v -4.461110 14.948274 -83.022408
v -4.461112 7.404295 -88.948563
v -4.409999 15.188098 -83.327704
v -4.410000 7.644119 -89.253858
v -4.461110 15.427923 -83.633000
v -3.767255 16.427554 -84.743648
v -3.441826 16.147016 -84.386524
v -4.524358 15.760929 -83.895035
v -4.541678 17.052281 -82.867900
v -4.102593 16.909240 -82.755860
v -4.257016 17.119777 -83.023874
v -4.474962 17.307659 -83.263047
v -4.383836 16.816882 -82.568236
v -4.383836 16.311651 -81.925080
v -4.541679 16.076252 -81.625416
v -4.198138 16.008742 -81.609529
v -4.792770 15.874109 -81.368090
v -4.395725 15.812457 -81.359659
v -5.119999 15.719000 -81.170636
v -4.651506 15.643756 -81.144903
v -6.318933 15.621494 -81.046511
v -6.699999 15.719000 -81.170636
v -6.754196 15.472751 -80.927214
v -7.027228 15.874110 -81.368090
v -7.071942 15.594809 -81.082593
v -7.278319 16.076252 -81.625417
v -7.345036 15.752815 -81.283734
v -7.436162 16.816882 -82.568237
v -7.278319 17.052282 -82.867900
v -7.621860 17.051731 -82.937252
v -7.027227 17.254424 -83.125227
v -7.424272 17.248016 -83.187122
v -6.699999 17.409534 -83.322681
v -7.168492 17.416717 -83.401877
v -5.501064 17.507039 -83.446805
v -5.119999 17.409533 -83.322681
v -5.065802 17.587722 -83.619567
v -4.792770 17.254424 -83.125227
v -4.748056 17.465665 -83.464188
v -3.767255 16.726380 -84.508907
v -4.201372 17.199584 -84.579194
v -3.799791 16.967238 -84.283418
v -4.175029 16.962308 -84.809243
v -4.668615 17.379069 -84.807678
v -4.649476 17.144560 -85.041249
v -5.183564 17.498795 -84.960088
v -5.172364 17.266133 -85.196010
v -5.726430 17.554162 -85.030570
v -5.723600 17.322353 -85.267579
v -6.276350 17.543041 -85.016413
v -6.281998 17.311061 -85.253204
v -6.812191 17.465860 -84.918162
v -6.826101 17.232690 -85.153438
v -7.313361 17.325585 -84.739593
v -7.334999 17.090252 -84.972115
v -7.760601 17.127607 -84.487567
v -7.789134 16.889222 -84.716204
v -8.136724 16.879534 -84.171770
v -8.171056 16.637324 -84.395538
v -8.427275 16.590899 -83.804339
v -8.466086 16.344238 -84.022441
v -8.621088 16.272794 -83.399392
v -8.662887 16.021229 -83.611251
v -8.710715 15.937444 -82.972492
v -8.753897 15.680709 -83.177769
v -8.692713 15.597736 -82.540045
v -8.735617 15.335763 -82.738655
v -8.567772 15.266725 -82.118669
v -8.608750 14.999649 -82.310782
v -8.340695 14.957132 -81.724558
v -8.378172 14.685282 -81.910594
v -8.020207 14.680854 -81.372856
v -8.052743 14.404744 -81.553470
v -7.618626 14.448508 -81.077080
v -7.644969 14.168816 -81.253134
v -7.151383 14.269023 -80.848597
v -7.170522 13.986564 -81.021127
v -6.636434 14.149297 -80.696186
v -6.647634 13.864991 -80.866367
v -6.093568 14.093930 -80.625704
v -6.096398 13.808771 -80.794798
v -5.543648 14.105051 -80.639861
v -5.538000 13.820063 -80.809173
v -5.007807 14.182232 -80.738112
v -4.993897 13.898434 -80.908939
v -4.485000 14.040872 -81.090262
v -4.506637 14.322506 -80.916681
v -4.030864 14.241902 -81.346173
v -3.648942 14.493800 -81.666839
v -3.683274 14.768558 -81.484504
v -3.353912 14.786885 -82.039936
v -3.392723 15.057193 -81.851936
v -3.157111 15.109895 -82.451126
v -3.198910 15.375297 -82.256882
v -3.066101 15.450415 -82.884607
v -3.109283 15.710648 -82.683782
v -3.084381 15.795360 -83.323722
v -3.127285 16.050355 -83.116229
v -3.211248 16.131475 -83.751595
v -3.252226 16.381366 -83.537605
v -3.441826 16.445841 -84.151783
v -3.479303 16.690959 -83.931716
v -4.506637 14.322506 -80.916681
v -4.485000 14.040872 -81.090262
v -4.059397 14.520484 -81.168707
v -4.143050 14.820278 -81.054505
v -4.017628 16.684137 -82.469306
v -3.812549 16.870290 -82.911660
v -3.563482 16.763804 -83.102823
v -3.991753 17.114613 -83.222683
v -3.372366 16.597042 -83.316321
v -3.763966 17.037141 -83.450779
v -3.589179 16.892640 -83.692617
v -4.329999 16.564267 -82.246658
v -4.005385 16.453121 -82.175222
v -3.713948 16.609064 -82.579120
v -3.453173 16.471559 -82.730795
v -3.253073 16.280994 -82.913992
v -4.066336 16.225068 -81.884911
v -3.699742 16.340975 -82.237844
v -3.437279 16.171635 -82.348992
v -3.235884 15.956642 -82.501093
v -4.152721 15.597500 -81.291402
v -3.923426 15.825284 -81.581371
v -3.944049 15.339875 -81.290164
v -3.687526 15.594707 -81.614565
v -3.770473 16.076325 -81.900945
v -3.506513 15.332725 -81.706850
v -3.516410 15.875558 -81.972087
v -3.321461 15.636451 -82.093491
v -4.449548 15.401727 -81.042183
v -4.276124 15.120854 -81.011350
v -3.783929 15.057138 -81.356027
v -4.955649 15.509122 -80.973514
v -4.802499 15.245488 -80.843291
v -4.670987 14.946061 -80.788840
v -4.570073 14.631250 -80.813872
v -5.296468 15.413729 -80.852079
v -5.119999 15.719000 -81.170636
v -5.501065 15.621494 -81.046511
v -5.660864 15.361243 -80.785264
v -5.198011 15.134786 -80.702368
v -4.955649 15.509122 -80.973514
v -5.620884 15.073876 -80.624831
v -5.586552 14.754072 -80.544438
v -5.113464 14.822214 -80.631183
v -5.560208 14.423624 -80.549565
v -5.048589 14.497316 -80.643374
v -5.909999 15.588237 -81.004175
v -6.034834 15.353680 -80.775636
v -6.054867 15.065100 -80.613658
v -6.072070 14.744254 -80.531939
v -6.085270 14.413005 -80.536048
v -6.404007 15.391332 -80.823567
v -6.483283 15.108794 -80.669281
v -6.551359 14.793137 -80.594166
v -6.603596 14.465870 -80.603343
v -7.258406 15.344925 -80.969874
v -6.889669 15.203279 -80.789560
v -7.418526 15.057307 -80.930454
v -7.006002 14.898841 -80.728729
v -7.095268 14.580184 -80.748865
v -7.541390 14.751555 -80.967020
v -7.575324 15.528287 -81.203293
v -7.773077 15.262442 -81.191591
v -7.924819 14.973399 -81.249426
v -7.562982 15.940696 -81.522907
v -7.828245 15.746319 -81.480847
v -8.056032 15.506365 -81.502105
v -8.230819 15.237188 -81.585230
v -7.717405 16.151234 -81.790920
v -7.436162 16.311652 -81.925080
v -7.802370 16.376336 -82.077475
v -8.106049 16.251868 -82.124410
v -8.007449 15.990642 -81.791871
v -8.366825 16.071947 -82.222089
v -8.256516 15.779701 -81.850061
v -8.566925 15.848835 -82.363854
v -8.447632 15.532787 -81.961526
v -7.489999 16.564267 -82.246658
v -7.814612 16.607353 -82.371559
v -8.120256 16.519957 -82.465687
v -8.382719 16.371871 -82.603891
v -8.584113 16.173187 -82.776753
v -7.753661 16.835406 -82.661869
v -8.049524 16.784607 -82.802586
v -8.303588 16.667948 -82.980796
v -8.498537 16.493378 -83.184356
v -7.667276 17.263432 -83.412128
v -7.896572 17.035648 -83.122160
v -7.875948 17.203631 -83.662720
v -8.313485 16.797103 -83.570997
v -8.132472 16.948799 -83.338319
v -8.036068 17.072691 -83.921820
v -7.370449 17.459205 -83.661347
v -7.543874 17.422652 -83.941533
v -7.676948 17.309550 -84.223341
v -6.864349 17.551351 -83.573266
v -7.017498 17.615444 -83.860239
v -7.149011 17.597445 -84.164044
v -7.249925 17.498579 -84.463975
v -6.523530 17.646745 -83.694702
v -6.318933 17.507039 -83.446805
v -6.159134 17.699231 -83.761517
v -6.199114 17.787055 -84.078700
v -6.621987 17.726146 -84.001162
v -6.233446 17.789434 -84.408445
v -6.706534 17.721292 -84.321700
v -6.259789 17.706205 -84.728282
v -6.771409 17.632513 -84.634472
v -5.909999 17.540297 -83.489142
v -5.785164 17.706794 -83.771144
v -5.765130 17.795831 -84.089872
v -5.747928 17.799252 -84.420944
v -5.734728 17.716823 -84.741799
v -5.415991 17.669142 -83.723214
v -5.336714 17.752137 -84.034250
v -5.268638 17.750370 -84.358717
v -5.216402 17.663959 -84.674503
v -4.561592 17.516007 -83.733657
v -4.930329 17.657652 -83.913970
v -4.401472 17.486200 -84.022429
v -4.724730 17.549645 -84.528982
v -4.813996 17.644665 -84.224155
v -4.278608 17.378273 -84.310826
v -4.244674 17.332645 -83.500237
v -4.046920 17.281064 -83.761292
v -3.895179 17.156430 -84.028421
v -5.332648 17.182007 -83.033040
v -4.541678 17.052281 -82.867900
v -4.792770 17.254424 -83.125227
v -5.119999 17.409533 -83.322681
v -5.909999 17.540297 -83.489142
v -6.487349 17.182007 -83.033040
v -5.501064 17.507039 -83.446805
v -4.755298 16.564267 -82.246658
v -4.541679 16.076252 -81.625416
v -4.383836 16.311651 -81.925080
v -4.329999 16.564267 -82.246658
v -4.383836 16.816882 -82.568236
v -5.332649 15.946526 -81.460276
v -5.909999 15.588237 -81.004175
v -5.501065 15.621494 -81.046511
v -5.119999 15.719000 -81.170636
v -4.792770 15.874109 -81.368090
v -6.487349 15.946526 -81.460276
v -7.278319 16.076252 -81.625417
v -7.027228 15.874110 -81.368090
v -6.699999 15.719000 -81.170636
v -6.318933 15.621494 -81.046511
v -7.064699 16.564267 -82.246658
v -7.278319 17.052282 -82.867900
v -7.436162 16.816882 -82.568237
v -7.489999 16.564267 -82.246658
v -7.436162 16.311652 -81.925080
v -6.318933 17.507039 -83.446805
v -6.699999 17.409534 -83.322681
v -7.027227 17.254424 -83.125227
v -7.064699 15.746430 -82.889108
v -6.912448 15.855692 -83.138621
v -7.064699 16.564267 -82.246658
v -6.487349 15.128689 -82.102726
v -6.639601 15.237952 -82.352239
v -6.487349 15.946526 -81.460276
v -7.209039 7.180815 -88.664072
v -3.211248 15.832650 -83.986336
v -4.364518 15.522549 -83.591579
v -3.084381 15.496535 -83.558464
v -4.309999 15.266736 -83.265930
v -3.066101 15.151590 -83.119349
v -4.364518 15.010923 -82.940281
v -3.157111 14.811070 -82.685867
v -3.353912 14.488060 -82.274677
v -4.524359 14.772544 -82.636824
v -3.648942 14.194975 -81.901581
v -4.778628 14.567843 -82.376240
v -4.030864 13.943077 -81.580915
v -5.109999 14.410770 -82.176287
v -4.485000 13.742046 -81.325004
v -4.993897 13.599609 -81.143681
v -5.495889 14.312030 -82.050591
v -5.538000 13.521238 -81.043915
v -5.909999 14.278352 -82.007719
v -6.096398 13.509946 -81.029540
v -6.324110 14.312030 -82.050591
v -6.647634 13.566166 -81.101108
v -7.170522 13.687738 -81.255869
v -6.709999 14.410770 -82.176287
v -7.644970 13.869990 -81.487876
v -7.041370 14.567843 -82.376240
v -8.052743 14.105919 -81.788212
v -7.295640 14.772545 -82.636824
v -8.378172 14.386457 -82.145336
v -8.608750 14.700823 -82.545524
v -7.455480 15.010924 -82.940281
v -8.735617 15.036938 -82.973396
v -7.509999 15.266737 -83.265930
v -8.753897 15.381883 -83.412511
v -7.455480 15.522550 -83.591579
v -8.662887 15.722404 -83.845993
v -8.466086 16.045413 -84.257182
v -7.295640 15.760929 -83.895036
v -8.171056 16.338498 -84.630279
v -7.041370 15.965630 -84.155620
v -7.789134 16.590396 -84.950945
v -6.709999 16.122703 -84.355573
v -7.334999 16.791427 -85.206856
v -6.826101 16.933864 -85.388179
v -6.324109 16.221443 -84.481269
v -6.281998 17.012235 -85.487945
v -5.909999 16.255122 -84.524141
v -5.723600 17.023528 -85.502320
v -5.495888 16.221443 -84.481269
v -5.172364 16.967307 -85.430752
v -4.649476 16.845735 -85.275991
v -5.109999 16.122703 -84.355573
v -4.175029 16.663483 -85.043984
v -4.778628 15.965630 -84.155620
v -4.461112 7.883944 -89.559154
v -4.757385 7.593701 -89.686203
v -4.610962 8.107425 -89.843645
v -4.716725 7.402917 -89.443335
v -4.876594 7.771484 -89.912519
v -4.610962 8.107425 -89.843645
v -4.876594 7.771484 -89.912519
v -4.849340 8.299332 -90.087942
v -5.066227 7.924149 -90.106863
v -5.160000 8.446588 -90.275398
v -5.313363 8.041294 -90.255987
v -5.521771 8.539157 -90.393238
v -5.601158 8.114934 -90.349731
v -5.910000 8.570731 -90.433431
v -5.910000 8.140051 -90.381705
v -6.298229 8.539158 -90.393238
v -6.218842 8.114934 -90.349730
v -6.660000 8.446588 -90.275399
v -6.506638 8.041294 -90.255987
v -6.970660 8.299333 -90.087942
v -6.753773 7.924150 -90.106862
v -7.209038 8.107426 -89.843645
v -6.943407 7.771484 -89.912520
v -7.358889 7.883945 -89.559154
v -7.062615 7.593701 -89.686203
v -7.410000 7.644120 -89.253858
v -7.103275 7.402917 -89.443335
v -7.358889 7.404295 -88.948563
v -7.062616 7.212133 -89.200467
v -7.209039 7.180815 -88.664072
v -6.943407 7.034350 -88.974150
v -6.970661 6.988908 -88.419774
v -6.753773 6.881684 -88.779807
v -6.660000 6.841652 -88.232318
v -6.506638 6.764540 -88.630682
v -6.298229 6.749082 -88.114479
v -6.218843 6.690900 -88.536939
v -5.910001 6.717509 -88.074285
v -5.910001 6.665783 -88.504965
v -5.521772 6.749083 -88.114478
v -5.601158 6.690899 -88.536939
v -5.160001 6.841651 -88.232318
v -5.313363 6.764540 -88.630683
v -4.849340 6.988907 -88.419774
v -5.066228 6.881684 -88.779807
v -4.610962 7.180814 -88.664072
v -4.876594 7.034350 -88.974150
v -4.461112 7.404295 -88.948563
v -4.757385 7.212132 -89.200467
v -4.410000 7.644119 -89.253858
v -4.876594 7.771484 -89.912519
v -4.757385 7.593701 -89.686203
v -5.066227 7.924149 -90.106863
v -5.313363 8.041294 -90.255987
v -4.716725 7.402917 -89.443335
v -5.601158 8.114934 -90.349731
v -4.757385 7.212132 -89.200467
v -5.910000 8.140051 -90.381705
v -4.876594 7.034350 -88.974150
v -6.218842 8.114934 -90.349730
v -5.066228 6.881684 -88.779807
v -6.506638 8.041294 -90.255987
v -5.313363 6.764540 -88.630683
v -6.753773 7.924150 -90.106862
v -5.601158 6.690899 -88.536939
v -6.943407 7.771484 -89.912520
v -5.910001 6.665783 -88.504965
v -7.062615 7.593701 -89.686203
v -6.218843 6.690900 -88.536939
v -7.103275 7.402917 -89.443335
v -6.506638 6.764540 -88.630682
v -7.062616 7.212133 -89.200467
v -6.753773 6.881684 -88.779807
v -6.943407 7.034350 -88.974150
v -4.570073 14.631250 -80.813872
v -4.670987 14.946061 -80.788840
v -4.802499 15.245488 -80.843291
v -3.767255 16.427554 -84.743648
v -3.767255 16.726380 -84.508907
v -3.441826 16.147016 -84.386524
v -4.175029 16.962308 -84.809243
v -3.441826 16.445841 -84.151783
v -3.211248 15.832650 -83.986336
v -3.211248 16.131475 -83.751595
v -3.084381 15.496535 -83.558464
v -3.084381 15.795360 -83.323722
v -3.066101 15.151590 -83.119349
v -3.066101 15.450415 -82.884607
v -3.157111 14.811070 -82.685867
v -3.157111 15.109895 -82.451126
v -3.353912 14.488060 -82.274677
v -3.353912 14.786885 -82.039936
v -3.648942 14.194975 -81.901581
v -3.648942 14.493800 -81.666839
v -4.030864 13.943077 -81.580915
v -4.030864 14.241902 -81.346173
v -4.485000 13.742046 -81.325004
v -4.485000 14.040872 -81.090262
v -4.993897 13.599609 -81.143681
v -4.993897 13.898434 -80.908939
v -5.538000 13.521238 -81.043915
v -5.538000 13.820063 -80.809173
v -6.096398 13.509946 -81.029540
v -6.096398 13.808771 -80.794798
v -6.647634 13.566166 -81.101108
v -6.647634 13.864991 -80.866367
v -7.170522 13.687738 -81.255869
v -7.170522 13.986564 -81.021127
v -7.644970 13.869990 -81.487876
v -7.644969 14.168816 -81.253134
v -8.052743 14.105919 -81.788212
v -8.052743 14.404744 -81.553470
v -8.378172 14.386457 -82.145336
v -8.378172 14.685282 -81.910594
v -8.378172 14.386457 -82.145336
v -8.378172 14.685282 -81.910594
v -8.608750 14.700823 -82.545524
v -8.608750 14.999649 -82.310782
v -8.735617 15.036938 -82.973396
v -8.735617 15.335763 -82.738655
v -8.753897 15.381883 -83.412511
v -8.753897 15.680709 -83.177769
v -8.662887 15.722404 -83.845993
v -8.662887 16.021229 -83.611251
v -8.466086 16.045413 -84.257182
v -8.466086 16.344238 -84.022441
v -8.171056 16.338498 -84.630279
v -8.171056 16.637324 -84.395538
v -7.789134 16.590396 -84.950945
v -7.789134 16.889222 -84.716204
v -7.334999 16.791427 -85.206856
v -7.334999 17.090252 -84.972115
v -6.826101 16.933864 -85.388179
v -6.826101 17.232690 -85.153438
v -6.281998 17.012235 -85.487945
v -6.281998 17.311061 -85.253204
v -5.723600 17.023528 -85.502320
v -5.723600 17.322353 -85.267579
v -5.172364 16.967307 -85.430752
v -5.172364 17.266133 -85.196010
v -4.649476 16.845735 -85.275991
v -4.649476 17.144560 -85.041249
v -4.175029 16.663483 -85.043984
v -6.776024 15.985063 -83.337473
v -6.487349 17.182007 -83.033040
v -6.639601 16.147627 -83.510252
v -6.487349 16.364170 -83.675490
v -6.487349 16.364170 -83.675490
v -6.182845 16.310530 -83.717627
v -6.487349 17.182007 -83.033040
v -5.909999 16.293934 -83.730664
v -5.332648 17.182007 -83.033040
v -5.637152 16.310530 -83.717627
v -5.332649 16.364170 -83.675490
v -5.332649 16.364170 -83.675490
v -5.180397 16.147626 -83.510252
v -5.332648 17.182007 -83.033040
v -5.043974 15.985063 -83.337474
v -4.755298 16.564267 -82.246658
v -4.907550 15.855692 -83.138621
v -4.755298 15.746429 -82.889108
v -4.755298 15.746429 -82.889108
v -4.907550 15.529886 -82.723870
v -4.755298 16.564267 -82.246658
v -5.043974 15.367322 -82.551092
v -5.332649 15.946526 -81.460276
v -5.180397 15.237952 -82.352238
v -5.332649 15.128689 -82.102726
v -6.776024 15.367323 -82.551092
v -7.064699 16.564267 -82.246658
v -6.912448 15.529886 -82.723870
v -7.064699 15.746430 -82.889108
v -5.332649 15.128689 -82.102726
v -5.637153 15.075049 -82.144863
v -5.332649 15.946526 -81.460276
v -5.909999 15.058452 -82.157901
v -6.487349 15.946526 -81.460276
v -6.182846 15.075048 -82.144863
v -6.487349 15.128689 -82.102726
v -5.180397 15.237952 -82.352238
v -5.909999 15.222175 -83.300935
v -5.332649 15.128689 -82.102726
v -5.043974 15.367322 -82.551092
v -5.909999 15.222175 -83.300935
v -5.637153 15.075049 -82.144863
v -4.755298 15.746429 -82.889108
v -5.909999 15.222175 -83.300935
v -4.907550 15.529886 -82.723870
v -4.907550 15.855692 -83.138621
v -5.909999 15.222175 -83.300935
v -5.909999 15.222175 -83.300935
v -5.043974 15.985063 -83.337474
v -5.332649 16.364170 -83.675490
v -5.909999 15.222175 -83.300935
v -5.180397 16.147626 -83.510252
v -5.637152 16.310530 -83.717627
v -5.909999 15.222175 -83.300935
v -5.909999 15.222175 -83.300935
v -5.909999 16.293934 -83.730664
v -6.487349 16.364170 -83.675490
v -5.909999 15.222175 -83.300935
v -6.182845 16.310530 -83.717627
v -6.639601 16.147627 -83.510252
v -5.909999 15.222175 -83.300935
v -5.909999 15.222175 -83.300935
v -6.776024 15.985063 -83.337473
v -7.064699 15.746430 -82.889108
v -5.909999 15.222175 -83.300935
v -6.912448 15.855692 -83.138621
v -6.912448 15.529886 -82.723870
v -5.909999 15.222175 -83.300935
v -5.909999 15.222175 -83.300935
v -6.776024 15.367323 -82.551092
v -6.487349 15.128689 -82.102726
v -5.909999 15.222175 -83.300935
v -6.639601 15.237952 -82.352239
v -6.182846 15.075048 -82.144863
v -5.909999 15.222175 -83.300935
v -5.909999 15.222175 -83.300935
v -6.776024 15.367323 -82.551092
v -5.909999 15.058452 -82.157901
v -5.909999 15.222175 -83.300935
f 1 2 3
f 1 3 4
f 1 5 2
f 2 5 55
f 2 56 3
f 2 57 56
f 2 55 57
f 3 40 4
f 3 59 40
f 3 56 59
f 4 40 39
f 5 69 55
f 6 7 8
f 6 9 7
f 7 9 10
f 7 96 8
f 7 97 96
f 7 10 97
f 8 96 99
f 9 11 10
f 10 11 12
f 10 110 97
f 10 12 110
f 11 13 12
f 12 13 14
f 12 115 110
f 12 14 115
f 13 15 14
f 14 15 16
f 14 120 115
f 14 16 120
f 15 17 16
f 16 17 18
f 16 125 120
f 16 18 125
f 17 19 18
f 18 19 20
f 18 130 125
f 18 20 130
f 19 21 20
f 20 21 22
f 20 135 130
f 20 22 135
f 21 23 22
f 22 23 24
f 22 140 135
f 22 24 140
f 23 25 24
f 24 25 26
f 24 145 140
f 24 26 145
f 25 27 26
f 26 27 28
f 26 150 145
f 26 28 150
f 27 29 28
f 28 29 30
f 28 155 150
f 28 30 155
f 29 31 30
f 30 31 32
f 30 160 155
f 30 32 160
f 31 33 32
f 32 33 34
f 32 165 160
f 32 34 165
f 33 35 34
f 34 35 36
f 34 170 165
f 34 36 170
f 35 37 36
f 36 37 38
f 36 175 170
f 36 38 175
f 37 39 38
f 38 39 40
f 38 68 175
f 38 40 68
f 40 59 68
f 41 42 43
f 41 43 44
f 41 45 42
f 42 45 65
f 42 64 43
f 42 67 64
f 42 65 67
f 43 54 44
f 43 64 61
f 43 61 54
f 44 54 53
f 45 180 65
f 46 47 48
f 46 49 47
f 46 48 95
f 47 49 50
f 47 50 78
f 47 78 83
f 47 83 48
f 48 88 94
f 48 94 95
f 48 83 88
f 49 51 50
f 50 51 52
f 50 52 73
f 50 73 78
f 51 53 52
f 52 53 54
f 52 54 63
f 52 63 73
f 54 61 63
f 55 69 70
f 55 71 57
f 55 70 71
f 56 58 59
f 56 60 58
f 56 57 60
f 57 72 60
f 57 71 72
f 58 61 62
f 58 63 61
f 58 62 59
f 58 60 63
f 59 62 68
f 60 73 63
f 60 72 73
f 61 64 62
f 62 64 66
f 62 66 68
f 64 67 66
f 65 178 177
f 65 177 67
f 65 180 178
f 66 176 175
f 66 175 68
f 66 67 176
f 67 177 176
f 69 74 70
f 70 74 75
f 70 76 71
f 70 75 76
f 71 77 72
f 71 76 77
f 72 78 73
f 72 77 78
f 74 79 75
f 75 79 80
f 75 81 76
f 75 80 81
f 76 82 77
f 76 81 82
f 77 83 78
f 77 82 83
f 79 84 80
f 80 84 85
f 80 86 81
f 80 85 86
f 81 87 82
f 81 86 87
f 82 88 83
f 82 87 88
f 84 91 85
f 85 89 90
f 85 90 86
f 85 91 89
f 86 90 92
f 86 92 87
f 87 92 93
f 87 93 88
f 88 93 94
f 96 98 99
f 96 100 98
f 96 97 100
f 97 111 100
f 97 110 111
f 98 101 102
f 98 103 101
f 98 100 103
f 98 102 99
f 100 112 103
f 100 111 112
f 101 104 105
f 101 105 106
f 101 103 104
f 101 106 102
f 103 113 104
f 103 112 113
f 104 114 107
f 104 107 105
f 104 113 114
f 105 107 108
f 105 108 109
f 105 109 106
f 110 116 111
f 110 115 116
f 111 117 112
f 111 116 117
f 112 118 113
f 112 117 118
f 113 119 114
f 113 118 119
f 115 121 116
f 115 120 121
f 116 122 117
f 116 121 122
f 117 123 118
f 117 122 123
f 118 124 119
f 118 123 124
f 120 126 121
f 120 125 126
f 121 127 122
f 121 126 127
f 122 128 123
f 122 127 128
f 123 129 124
f 123 128 129
f 125 131 126
f 125 130 131
f 126 132 127
f 126 131 132
f 127 133 128
f 127 132 133
f 128 134 129
f 128 133 134
f 130 136 131
f 130 135 136
f 131 137 132
f 131 136 137
f 132 138 133
f 132 137 138
f 133 139 134
f 133 138 139
f 135 141 136
f 135 140 141
f 136 142 137
f 136 141 142
f 137 143 138
f 137 142 143
f 138 144 139
f 138 143 144
f 140 146 141
f 140 145 146
f 141 147 142
f 141 146 147
f 142 148 143
f 142 147 148
f 143 149 144
f 143 148 149
f 145 151 146
f 145 150 151
f 146 152 147
f 146 151 152
f 147 153 148
f 147 152 153
f 148 154 149
f 148 153 154
f 150 156 151
f 150 155 156
f 151 157 152
f 151 156 157
f 152 158 153
f 152 157 158
f 153 159 154
f 153 158 159
f 155 161 156
f 155 160 161
f 156 162 157
f 156 161 162
f 157 163 158
f 157 162 163
f 158 164 159
f 158 163 164
f 160 166 161
f 160 165 166
f 161 167 162
f 161 166 167
f 162 168 163
f 162 167 168
f 163 169 164
f 163 168 169
f 165 171 166
f 165 170 171
f 166 172 167
f 166 171 172
f 167 173 168
f 167 172 173
f 168 174 169
f 168 173 174
f 170 176 171
f 170 175 176
f 171 177 172
f 171 176 177
f 172 178 173
f 172 177 178
f 173 179 174
f 173 178 179
f 178 180 179
f 181 182 183
f 181 183 184
f 181 185 182
f 182 185 186
f 183 229 184
f 184 229 228
f 185 187 186
f 186 187 188
f 187 189 188
f 188 189 190
f 189 191 190
f 190 191 192
f 191 193 192
f 192 193 194
f 193 195 194
f 194 195 196
f 195 197 196
f 196 197 198
f 197 199 198
f 198 199 200
f 199 201 200
f 200 201 202
f 201 203 202
f 202 203 204
f 203 205 204
f 204 205 206
f 205 489 206
f 207 208 209
f 207 210 208
f 208 210 211
f 210 212 211
f 211 212 213
f 212 214 213
f 213 214 215
f 214 216 215
f 215 216 217
f 216 218 217
f 217 218 219
f 218 220 219
f 219 220 221
f 220 222 221
f 221 222 223
f 222 224 223
f 223 224 225
f 224 226 225
f 225 226 227
f 226 228 227
f 227 228 229
f 230 231 232
f 230 542 541
f 230 232 542
f 231 490 232
f 232 490 491
f 233 234 235
f 233 235 236
f 233 237 234
f 233 236 262
f 234 237 331
f 234 332 235
f 234 331 340
f 234 340 332
f 235 332 334
f 235 334 236
f 236 263 262
f 236 450 263
f 236 334 450
f 237 338 331
f 238 239 240
f 238 339 338
f 238 343 339
f 238 240 343
f 239 241 242
f 239 242 240
f 240 242 347
f 240 347 348
f 240 348 343
f 241 243 244
f 241 244 242
f 242 244 355
f 242 355 347
f 243 358 244
f 244 358 359
f 244 359 355
f 245 246 247
f 245 374 373
f 245 378 374
f 245 247 378
f 246 248 249
f 246 249 247
f 247 249 382
f 247 382 383
f 247 383 378
f 248 250 251
f 248 251 249
f 249 251 388
f 249 388 382
f 250 391 251
f 250 396 395
f 250 395 391
f 251 391 392
f 251 392 388
f 252 253 254
f 252 405 404
f 252 409 405
f 252 254 409
f 253 255 256
f 253 256 254
f 254 256 413
f 254 413 414
f 254 414 409
f 255 257 258
f 255 258 256
f 256 258 419
f 256 419 413
f 257 422 258
f 257 427 426
f 257 426 422
f 258 422 423
f 258 423 419
f 259 260 261
f 259 436 435
f 259 440 436
f 259 261 440
f 260 262 263
f 260 263 261
f 261 263 444
f 261 444 445
f 261 445 440
f 263 450 444
f 264 265 266
f 264 267 265
f 264 266 325
f 265 267 268
f 265 447 449
f 265 268 447
f 265 449 266
f 266 452 326
f 266 326 325
f 266 449 452
f 267 269 268
f 268 269 270
f 268 270 443
f 268 443 447
f 269 271 270
f 270 271 272
f 270 439 443
f 270 272 439
f 271 273 272
f 272 273 274
f 272 433 439
f 272 274 433
f 273 275 274
f 274 275 276
f 274 434 433
f 274 276 434
f 275 277 276
f 276 277 278
f 276 278 425
f 276 425 434
f 277 279 278
f 278 279 280
f 278 421 425
f 278 280 421
f 279 281 280
f 280 281 282
f 280 282 418
f 280 418 421
f 281 283 282
f 282 283 284
f 282 416 418
f 282 284 416
f 283 285 284
f 284 285 286
f 284 286 412
f 284 412 416
f 285 287 286
f 286 287 288
f 286 408 412
f 286 288 408
f 287 289 288
f 288 289 290
f 288 402 408
f 288 290 402
f 289 291 290
f 290 291 292
f 290 403 402
f 290 292 403
f 291 293 292
f 292 293 294
f 292 294 394
f 292 394 403
f 293 295 294
f 294 295 296
f 294 390 394
f 294 296 390
f 295 297 296
f 296 297 298
f 296 298 387
f 296 387 390
f 297 299 298
f 298 299 300
f 298 386 387
f 298 300 386
f 299 301 300
f 300 301 302
f 300 381 386
f 300 302 381
f 301 303 302
f 302 303 304
f 302 377 381
f 302 304 377
f 303 305 304
f 304 305 306
f 304 371 377
f 304 306 371
f 305 307 306
f 306 307 308
f 306 372 371
f 306 308 372
f 307 309 308
f 308 311 617
f 308 309 311
f 308 617 372
f 309 310 311
f 312 313 314
f 312 314 329
f 312 329 328
f 313 315 316
f 313 316 314
f 314 352 357
f 314 316 352
f 314 357 329
f 315 317 318
f 315 318 316
f 316 354 352
f 316 318 354
f 317 319 320
f 317 320 318
f 318 320 346
f 318 346 354
f 319 321 322
f 319 322 320
f 320 342 346
f 320 322 342
f 321 323 324
f 321 324 322
f 322 335 342
f 322 324 335
f 323 325 326
f 323 326 324
f 324 337 335
f 324 326 337
f 326 452 337
f 327 328 329
f 327 329 330
f 327 330 361
f 329 357 330
f 330 349 356
f 330 356 361
f 330 357 349
f 331 338 339
f 331 339 344
f 331 344 340
f 332 333 334
f 332 340 341
f 332 341 333
f 333 335 336
f 333 336 334
f 333 341 342
f 333 342 335
f 334 336 450
f 335 337 336
f 336 451 450
f 336 337 451
f 337 452 451
f 339 351 344
f 339 343 351
f 340 344 345
f 340 345 341
f 341 345 346
f 341 346 342
f 343 348 351
f 344 353 345
f 344 351 353
f 345 354 346
f 345 353 354
f 347 349 348
f 347 355 356
f 347 356 349
f 348 350 351
f 348 349 350
f 349 357 350
f 350 352 353
f 350 353 351
f 350 357 352
f 352 354 353
f 355 359 360
f 355 360 356
f 356 360 361
f 362 363 364
f 362 364 365
f 362 366 367
f 362 368 366
f 362 365 368
f 362 367 363
f 364 373 365
f 365 373 374
f 365 375 368
f 365 374 375
f 366 368 369
f 366 369 370
f 366 619 367
f 366 370 619
f 368 376 369
f 368 375 376
f 369 371 370
f 369 376 377
f 369 377 371
f 370 371 372
f 370 618 619
f 370 372 618
f 372 617 618
f 374 379 375
f 374 378 379
f 375 380 376
f 375 379 380
f 376 381 377
f 376 380 381
f 378 383 379
f 379 383 385
f 379 385 380
f 380 385 386
f 380 386 381
f 382 384 383
f 382 388 389
f 382 389 384
f 383 384 385
f 384 389 390
f 384 387 385
f 384 390 387
f 385 387 386
f 388 392 393
f 388 393 389
f 389 393 394
f 389 394 390
f 391 399 392
f 391 395 399
f 392 401 393
f 392 399 401
f 393 403 394
f 393 401 403
f 395 396 397
f 395 397 398
f 395 398 399
f 396 404 397
f 397 404 405
f 397 405 406
f 397 406 398
f 398 400 399
f 398 406 407
f 398 407 400
f 399 400 401
f 400 402 401
f 400 407 408
f 400 408 402
f 401 402 403
f 405 409 410
f 405 410 406
f 406 410 411
f 406 411 407
f 407 411 412
f 407 412 408
f 409 414 410
f 410 417 411
f 410 414 417
f 411 416 412
f 411 417 416
f 413 415 414
f 413 419 420
f 413 420 415
f 414 415 417
f 415 420 421
f 415 418 417
f 415 421 418
f 416 417 418
f 419 423 424
f 419 424 420
f 420 424 425
f 420 425 421
f 422 430 423
f 422 426 430
f 423 432 424
f 423 430 432
f 424 434 425
f 424 432 434
f 426 427 428
f 426 428 429
f 426 429 430
f 427 435 428
f 428 435 436
f 428 436 437
f 428 437 429
f 429 431 430
f 429 437 438
f 429 438 431
f 430 431 432
f 431 433 432
f 431 438 439
f 431 439 433
f 432 433 434
f 436 440 441
f 436 441 437
f 437 441 442
f 437 442 438
f 438 442 443
f 438 443 439
f 440 445 441
f 441 448 442
f 441 445 448
f 442 447 443
f 442 448 447
f 444 446 445
f 444 450 451
f 444 451 446
f 445 446 448
f 446 451 452
f 446 449 448
f 446 452 449
f 447 448 449
f 453 454 455
f 453 455 456
f 453 457 458
f 453 459 457
f 453 460 454
f 453 456 459
f 454 460 464
f 457 480 458
f 458 476 475
f 458 480 481
f 458 482 476
f 458 481 482
f 460 461 462
f 460 462 463
f 460 465 461
f 460 463 464
f 461 465 469
f 465 466 467
f 465 467 468
f 465 470 466
f 465 468 469
f 466 470 474
f 470 471 472
f 470 472 473
f 470 475 471
f 470 473 474
f 471 475 479
f 475 476 477
f 475 477 478
f 475 478 479
f 483 484 485
f 484 686 485
f 485 686 687
f 486 487 488
f 487 711 488
f 488 711 712
f 490 492 491
f 491 492 493
f 492 494 493
f 493 494 495
f 494 496 495
f 495 496 497
f 495 497 498
f 497 499 498
f 498 499 500
f 499 501 500
f 500 501 502
f 501 503 502
f 502 503 504
f 502 504 505
f 504 506 505
f 505 506 507
f 506 508 507
f 507 508 509
f 508 510 509
f 509 510 511
f 509 511 512
f 511 513 512
f 512 513 514
f 513 515 514
f 514 515 516
f 515 517 516
f 516 517 518
f 516 518 519
f 518 520 519
f 519 520 521
f 520 522 521
f 521 522 523
f 522 524 523
f 523 524 525
f 523 525 526
f 525 527 526
f 526 527 528
f 527 529 528
f 528 529 530
f 529 531 530
f 530 531 532
f 530 532 533
f 532 534 533
f 533 534 535
f 534 536 535
f 535 536 537
f 536 538 537
f 537 538 539
f 537 539 540
f 539 541 540
f 540 541 542
f 543 544 545
f 543 546 544
f 543 592 546
f 544 547 545
f 546 592 591
f 548 549 550
f 549 551 550
f 550 551 552
f 551 553 552
f 552 553 554
f 553 555 554
f 554 555 556
f 555 557 556
f 556 557 558
f 557 559 558
f 558 559 560
f 559 561 560
f 560 561 562
f 561 563 562
f 562 563 564
f 563 565 564
f 564 565 566
f 565 567 566
f 566 567 568
f 567 569 568
f 568 569 570
f 569 571 570
f 570 571 572
f 571 573 572
f 572 573 574
f 573 575 574
f 574 575 576
f 575 577 576
f 576 577 578
f 577 579 578
f 578 579 580
f 579 581 580
f 580 581 582
f 581 583 582
f 582 583 584
f 583 585 584
f 584 585 586
f 585 587 586
f 586 587 588
f 587 589 588
f 588 589 590
f 589 591 590
f 590 591 592
f 593 594 595
f 594 596 595
f 594 597 596
f 596 597 598
f 597 599 598
f 598 599 600
f 599 601 600
f 600 601 602
f 601 603 602
f 602 603 604
f 603 605 604
f 604 605 606
f 605 607 606
f 606 607 608
f 607 609 608
f 608 609 610
f 609 611 610
f 610 611 612
f 611 613 612
f 612 613 614
f 613 615 614
f 614 615 616
f 620 621 622
f 620 623 621
f 620 685 623
f 621 624 622
f 622 624 625
f 623 685 684
f 624 626 625
f 625 626 627
f 626 628 627
f 627 628 629
f 628 630 629
f 629 630 631
f 630 632 631
f 631 632 633
f 632 634 633
f 633 634 635
f 634 636 635
f 635 636 637
f 636 638 637
f 637 638 639
f 638 640 639
f 639 640 641
f 640 642 641
f 641 642 643
f 642 644 643
f 643 644 645
f 644 646 645
f 645 646 647
f 646 648 647
f 647 648 649
f 648 650 649
f 649 650 651
f 650 652 651
f 651 652 653
f 652 654 653
f 653 654 655
f 654 656 655
f 657 658 659
f 658 660 659
f 659 660 661
f 660 662 661
f 661 662 663
f 662 664 663
f 663 664 665
f 664 666 665
f 665 666 667
f 666 668 667
f 667 668 669
f 668 670 669
f 669 670 671
f 670 672 671
f 671 672 673
f 672 674 673
f 673 674 675
f 674 676 675
f 675 676 677
f 676 678 677
f 677 678 679
f 678 680 679
f 679 680 681
f 680 682 681
f 681 682 683
f 682 684 683
f 683 684 685
f 686 688 687
f 687 688 689
f 690 691 692
f 691 693 692
f 692 693 694
f 693 695 694
f 694 695 696
f 697 698 699
f 698 700 699
f 699 700 701
f 700 702 701
f 701 702 703
f 704 705 706
f 705 707 706
f 706 707 708
f 707 709 708
f 708 709 710
f 711 713 712
f 712 713 714
f 715 716 717
f 716 718 717
f 717 718 719
f 718 720 719
f 719 720 721
f 722 723 724
f 722 725 723
f 724 726 727
f 725 730 733
f 727 764 763
f 728 729 730
f 728 731 732
f 731 734 732
f 734 737 740
f 735 736 737
f 735 738 739
f 738 741 739
f 741 744 747
f 742 743 744
f 742 745 746
f 745 748 746
f 748 751 754
f 749 750 751
f 749 752 753
f 752 755 753
f 756 757 758
f 756 759 760
f 758 761 762
f 759 763 760