# ANSI B18.3.4M - M3 x 0.5 x 8(1)
# Autodesk dbId: 151
# Units: mm
o 151_ANSI_B18.3.4M_-_M3_x_0.5_x_8(1)
v -7.295641 -0.996705 -62.724493
v -7.221117 -0.955461 -62.782513
v -7.396560 -1.173788 -62.504582
v -7.455482 -1.235084 -62.421037
v -7.041371 -0.792004 -62.985077
v -5.110000 -0.634931 -63.185030
v -4.808648 -0.798826 -62.981908
v -5.122941 -0.651457 -63.169509
v -4.778629 -0.792004 -62.985077
v -4.563556 -0.989849 -62.738736
v -4.524360 -0.996705 -62.724493
v -4.403066 -1.212523 -62.455272
v -4.364519 -1.235085 -62.421036
v -4.337263 -1.452857 -62.149328
v -4.310000 -1.490898 -62.095387
v -4.370281 -1.695750 -61.840127
v -4.364519 -1.746710 -61.769738
v -4.500044 -1.925939 -61.547097
v -4.524360 -1.985090 -61.466282
v -4.718401 -2.128961 -61.288650
v -4.778630 -2.189791 -61.205698
v -5.011630 -2.292059 -61.081026
v -5.110001 -2.346864 -61.005744
v -5.361307 -2.404987 -60.937270
v -5.495890 -2.445604 -60.880049
v -5.745460 -2.460646 -60.866415
v -5.910001 -2.479282 -60.837176
v -6.139953 -2.455542 -60.872913
v -6.324111 -2.445604 -60.880049
v -6.519996 -2.389993 -60.956356
v -6.710001 -2.346863 -61.005744
v -6.861711 -2.268120 -61.111501
v -7.041371 -2.189791 -61.205698
v -7.143627 -2.097579 -61.328599
v -7.295641 -1.985089 -61.466282
v -7.348029 -1.889086 -61.594010
v -7.455482 -1.746710 -61.769739
v -7.462075 -1.655742 -61.891056
v -7.510000 -1.490897 -62.095388
v -7.478598 -1.412208 -62.201074
v -7.209038 -1.106230 -62.746948
v -7.329783 -1.243759 -62.529977
v -7.162220 -1.035239 -62.795422
v -6.970660 -0.914322 -62.991245
v -7.358889 -1.329711 -62.462457
v -5.521772 -0.674498 -63.296541
v -5.878515 -0.620670 -63.323166
v -5.505704 -0.654678 -63.279875
v -5.910000 -0.642925 -63.336734
v -6.253305 -0.645005 -63.292189
v -6.298229 -0.674498 -63.296541
v -6.606523 -0.726151 -63.188890
v -6.660000 -0.767067 -63.178702
v -6.915976 -0.859012 -63.019758
v -6.963291 -0.770945 -63.017400
v -7.201028 -0.971561 -62.778188
v -6.947153 -0.789873 -63.009477
v -7.183778 -0.991138 -62.778992
v -7.373784 -1.186543 -62.504517
v -6.933294 -0.811878 -63.007191
v -7.170541 -1.012858 -62.784870
v -7.354225 -1.203248 -62.508977
v -6.922661 -0.835460 -63.010698
v -7.339217 -1.222763 -62.517661
v -7.408135 -1.471469 -62.240102
v -7.433926 -1.434879 -62.214112
v -7.418090 -1.451987 -62.225860
v -7.454564 -1.421311 -62.205658
v -6.710000 -0.634931 -63.185030
v -6.639283 -0.631835 -63.194487
v -6.628109 -0.652895 -63.183850
v -6.618514 -0.676730 -63.179234
v -6.611151 -0.701716 -63.180953
v -6.324111 -0.536191 -63.310726
v -6.269451 -0.546872 -63.302645
v -6.263944 -0.569233 -63.290351
v -6.259215 -0.594186 -63.284312
v -6.255586 -0.620030 -63.284939
v -5.910000 -0.502512 -63.353599
v -5.877034 -0.521393 -63.335079
v -5.877539 -0.544145 -63.322288
v -5.877973 -0.569433 -63.315822
v -5.878306 -0.595534 -63.316122
v -5.495890 -0.536191 -63.310726
v -5.486689 -0.557001 -63.289751
v -5.493174 -0.579207 -63.277655
v -5.498744 -0.604026 -63.271785
v -5.503018 -0.629768 -63.272542
v -5.122941 -0.651457 -63.169509
v -5.135000 -0.672215 -63.159255
v -5.110000 -0.634931 -63.185030
v -5.145355 -0.695792 -63.154968
v -5.153302 -0.720581 -63.156938
v -5.158297 -0.744891 -63.165034
v -5.160000 -0.767067 -63.178702
v -4.825522 -0.817327 -62.974528
v -4.584186 -1.005423 -62.735082
v -4.840013 -0.838965 -62.972709
v -5.135000 -0.672215 -63.159255
v -4.601901 -1.024548 -62.736462
v -4.851132 -0.862265 -62.976574
v -5.145355 -0.695792 -63.154968
v -4.615494 -1.045920 -62.742783
v -4.624039 -1.068083 -62.753612
v -4.858121 -0.885641 -62.985860
v -5.153302 -0.720581 -63.156938
v -4.849340 -0.914323 -62.991245
v -5.160000 -0.767067 -63.178702
v -5.158297 -0.744891 -63.165034
v -4.426155 -1.224685 -62.455962
v -4.445982 -1.240880 -62.461071
v -4.461196 -1.260004 -62.470253
v -4.470759 -1.280754 -62.482882
v -4.610962 -1.106230 -62.746948
v -4.361360 -1.461337 -62.154705
v -4.382053 -1.474370 -62.163840
v -4.397930 -1.491067 -62.176111
v -4.407912 -1.510292 -62.190681
v -4.461112 -1.329711 -62.462457
v -4.393872 -1.700508 -61.850241
v -4.414130 -1.710345 -61.863444
v -4.429674 -1.724591 -61.878837
v -4.439446 -1.742273 -61.895369
v -4.410000 -1.569535 -62.157161
v -4.521647 -1.927170 -61.561701
v -4.540198 -1.933978 -61.578759
v -4.554433 -1.945900 -61.597110
v -4.563381 -1.962122 -61.615502
v -4.461112 -1.809360 -61.851865
v -4.736658 -2.127082 -61.307214
v -4.752336 -2.131219 -61.327673
v -4.764366 -2.141091 -61.348633
v -4.771929 -2.156025 -61.368665
v -4.610962 -2.032841 -61.567375
v -5.025395 -2.287681 -61.102771
v -5.037214 -2.289673 -61.125962
v -5.046284 -2.297898 -61.149018
v -5.051986 -2.311797 -61.170367
v -4.849340 -2.224748 -61.323077
v -5.369714 -2.398878 -60.961218
v -5.376933 -2.399384 -60.986300
v -5.382473 -2.406469 -61.010807
v -5.385955 -2.419651 -61.033069
v -5.160001 -2.372004 -61.135621
v -5.747982 -2.453685 -60.891448
v -5.750146 -2.453459 -60.917463
v -5.751808 -2.459982 -60.942685
v -5.752852 -2.472810 -60.965397
v -5.521772 -2.464573 -61.017781
v -6.136429 -2.448659 -60.897847
v -6.133404 -2.448499 -60.923776
v -6.131082 -2.455074 -60.948933
v -6.129623 -2.467935 -60.971603
v -5.910001 -2.496146 -60.977588
v -6.510650 -2.384114 -60.980012
v -6.502624 -2.384817 -61.004843
v -6.496466 -2.392054 -61.029157
v -6.492594 -2.405331 -61.051298
v -6.298229 -2.464573 -61.017781
v -6.847129 -2.264108 -61.132779
v -6.834608 -2.266415 -61.155569
v -6.824999 -2.274881 -61.178317
v -6.818959 -2.288932 -61.199474
v -6.660001 -2.372004 -61.135621
v -7.124725 -2.096180 -61.346551
v -7.108495 -2.100730 -61.366485
v -7.096040 -2.110919 -61.387041
v -7.088211 -2.126052 -61.406820
v -6.970661 -2.224748 -61.323077
v -7.325996 -1.890882 -61.607895
v -7.307076 -1.898175 -61.624337
v -7.292558 -1.910469 -61.642214
v -7.283432 -1.926925 -61.660308
v -7.209039 -2.032841 -61.567375
v -7.438294 -1.661113 -61.900391
v -7.417874 -1.671476 -61.912923
v -7.402204 -1.686126 -61.927802
v -7.392354 -1.704063 -61.944011
v -7.358889 -1.809360 -61.851866
v -7.410000 -1.569535 -62.157161
v -7.209039 -8.650208 -68.673102
v -7.358889 -1.329711 -62.462457
v -7.209038 -1.106230 -62.746948
v -6.970661 -8.458301 -68.917400
v -7.358889 -8.873689 -68.388612
v -7.410000 -1.569535 -62.157161
v -7.410001 -9.113513 -68.083316
v -7.358889 -1.809360 -61.851866
v -7.358890 -9.353338 -67.778020
v -7.209039 -2.032841 -61.567375
v -7.209039 -9.576819 -67.493529
v -6.970661 -2.224748 -61.323077
v -6.970661 -9.768726 -67.249231
v -6.660001 -2.372004 -61.135621
v -6.660001 -9.915982 -67.061776
v -6.298229 -2.464573 -61.017781
v -6.298230 -10.008551 -66.943935
v -5.910001 -2.496146 -60.977588
v -5.910001 -10.040124 -66.903742
v -5.521772 -2.464573 -61.017781
v -5.521772 -10.008551 -66.943935
v -5.160001 -2.372004 -61.135621
v -5.160001 -9.915982 -67.061775
v -4.849340 -2.224748 -61.323077
v -4.849341 -9.768727 -67.249232
v -4.610962 -2.032841 -61.567375
v -4.610963 -9.576819 -67.493529
v -4.461112 -1.809360 -61.851865
v -4.610962 -2.032841 -61.567375
v -4.461112 -9.353338 -67.778019
v -4.410000 -1.569535 -62.157161
v -4.410001 -9.113514 -68.083316
v -4.461112 -1.329711 -62.462457
v -4.461112 -8.873690 -68.388612
v -4.610962 -1.106230 -62.746948
v -4.610963 -8.650209 -68.673102
v -4.849340 -0.914323 -62.991245
v -4.849340 -8.458301 -68.917399
v -5.160000 -0.767067 -63.178702
v -5.160001 -8.311045 -69.104856
v -5.521772 -0.674498 -63.296541
v -5.521772 -8.218476 -69.222695
v -5.910000 -0.642925 -63.336734
v -5.910001 -8.186903 -69.262889
v -6.298229 -0.674498 -63.296541
v -6.298229 -8.218477 -69.222696
v -6.660000 -0.767067 -63.178702
v -6.660000 -8.311045 -69.104856
v -6.970660 -0.914322 -62.991245
v -8.608751 -0.924983 -62.815794
v -8.378172 -0.610617 -63.215982
v -7.295641 -0.996705 -62.724493
v -7.278320 0.294648 -61.697358
v -7.345037 0.550025 -62.092505
v -7.562983 0.362144 -61.853332
v -7.717406 0.151607 -61.585318
v -7.027229 0.496791 -61.954684
v -6.318934 0.749406 -62.276263
v -5.910000 0.782663 -62.318599
v -6.034835 0.949160 -62.600602
v -5.501066 0.749405 -62.276263
v -5.660865 0.941597 -62.590974
v -5.120000 0.651900 -62.152138
v -5.296469 0.889111 -62.524159
v -4.383837 0.059248 -61.397694
v -4.330000 -0.193367 -61.076115
v -4.005387 -0.150282 -61.201015
v -4.383838 -0.445982 -60.754537
v -4.017629 -0.381298 -60.906932
v -4.541680 -0.681382 -60.454874
v -4.102595 -0.606401 -60.620377
v -5.501066 -1.136140 -59.875968
v -5.910001 -1.169397 -59.833632
v -5.785166 -1.403954 -59.605094
v -6.318935 -1.136140 -59.875969
v -6.159136 -1.396391 -59.614721
v -6.700001 -1.038634 -60.000093
v -6.523532 -1.343904 -59.681536
v -7.436163 -0.445982 -60.754537
v -7.490000 -0.193367 -61.076116
v -7.814614 -0.304512 -61.004680
v -7.436163 0.059248 -61.397694
v -7.802371 -0.073496 -61.298764
v -8.608751 -0.626158 -62.581053
v -8.692714 -0.707278 -61.945687
v -8.567773 -0.376267 -62.367063
v -8.735618 -0.962272 -62.153180
v -8.710717 -1.046986 -61.513240
v -8.753898 -1.307218 -61.714066
v -8.621089 -1.382335 -61.086340
v -8.662889 -1.647738 -61.280584
v -8.427276 -1.700440 -60.681393
v -8.466088 -1.970748 -60.869394
v -8.136726 -1.989075 -60.313962
v -8.171058 -2.263833 -60.496297
v -7.760603 -2.237149 -59.998165
v -7.789136 -2.515731 -60.175631
v -7.313364 -2.435127 -59.746139
v -7.335001 -2.716762 -59.919720
v -6.812193 -2.575402 -59.567570
v -6.826103 -2.859200 -59.738397
v -6.276352 -2.652583 -59.469318
v -6.282000 -2.937570 -59.638631
v -5.726432 -2.663704 -59.455161
v -5.723602 -2.948863 -59.624256
v -5.183567 -2.608337 -59.525643
v -5.172367 -2.892643 -59.695824
v -4.668618 -2.488612 -59.678054
v -4.649478 -2.771071 -59.850585
v -4.201374 -2.309127 -59.906537
v -4.175031 -2.588819 -60.082591
v -3.799793 -2.076781 -60.202313
v -3.767257 -2.352890 -60.382927
v -3.479305 -1.800502 -60.554015
v -3.441828 -2.072353 -60.740051
v -3.252227 -1.490909 -60.948126
v -3.211250 -1.757986 -61.140239
v -3.127287 -1.159898 -61.369502
v -3.084383 -1.421872 -61.568112
v -3.109284 -0.820190 -61.801949
v -3.066102 -1.076926 -62.007226
v -3.198912 -0.484841 -62.228849
v -3.157112 -0.736406 -62.440708
v -3.392724 -0.166736 -62.633795
v -3.353913 -0.413396 -62.851898
v -3.683275 0.121899 -63.001227
v -3.648943 -0.120311 -63.224995
v -4.059397 0.369973 -63.317024
v -4.030865 0.131587 -63.545661
v -4.485000 0.332618 -63.801572
v -4.506637 0.567951 -63.569050
v -4.993897 0.475056 -63.982895
v -5.538000 0.553427 -64.082661
v -5.543649 0.785407 -63.845871
v -6.096399 0.564719 -64.097036
v -6.093569 0.796528 -63.860027
v -6.647634 0.508499 -64.025468
v -6.636434 0.741161 -63.789546
v -7.170523 0.386927 -63.870707
v -7.151383 0.621436 -63.637135
v -7.644970 0.204675 -63.638701
v -7.618626 0.441951 -63.408651
v -8.052744 -0.031254 -63.338365
v -8.020208 0.209605 -63.112875
v -8.378172 -0.311792 -62.981241
v -8.340696 -0.066674 -62.761174
v -4.506637 0.567951 -63.569050
v -4.485000 0.332618 -63.801572
v -5.007808 0.708226 -63.747619
v -5.048590 0.874879 -63.463930
v -7.071943 0.708031 -62.293645
v -7.575325 0.575012 -62.329695
v -7.773078 0.523431 -62.590750
v -7.828246 0.356980 -62.052141
v -7.924820 0.398797 -62.857878
v -8.056033 0.279508 -62.280237
v -8.230820 0.135007 -62.522075
v -6.700000 0.651900 -62.152138
v -6.754197 0.830089 -62.449025
v -7.258407 0.758374 -62.563114
v -7.418526 0.728566 -62.851887
v -7.541391 0.620640 -63.140284
v -6.404008 0.911508 -62.552671
v -6.889669 0.900019 -62.743428
v -7.006003 0.887031 -63.053612
v -7.095268 0.792012 -63.358439
v -5.620884 1.029421 -62.908157
v -6.054868 1.038198 -62.919329
v -5.586553 1.031800 -63.237902
v -6.072071 1.041618 -63.250402
v -6.483284 0.994504 -62.863707
v -6.085271 0.959189 -63.571256
v -6.551360 0.992736 -63.188174
v -6.603597 0.906326 -63.503961
v -5.198012 0.968512 -62.830620
v -5.113465 0.963658 -63.151158
v -5.560209 0.948571 -63.557739
v -4.955650 0.793717 -62.402724
v -4.802500 0.857811 -62.689697
v -4.670987 0.839811 -62.993501
v -4.570074 0.740945 -63.293432
v -4.651507 0.659083 -62.231335
v -5.120000 0.651900 -62.152138
v -4.792772 0.496790 -61.954684
v -4.395726 0.490382 -62.016579
v -4.449549 0.701571 -62.490804
v -4.955650 0.793717 -62.402724
v -4.152722 0.505797 -62.241585
v -3.944050 0.445997 -62.492177
v -4.276124 0.665018 -62.770990
v -3.783930 0.315057 -62.751277
v -4.143051 0.551916 -63.052798
v -4.541680 0.294648 -61.697357
v -4.198139 0.294097 -61.766708
v -3.923427 0.278013 -61.951617
v -3.687527 0.191164 -62.167776
v -3.506514 0.039468 -62.400454
v -4.066338 0.077771 -61.491327
v -3.770475 0.026973 -61.632043
v -3.516411 -0.089687 -61.810253
v -3.321462 -0.264257 -62.013812
v -3.713950 -0.505766 -60.953867
v -3.699743 -0.237677 -61.295144
v -3.453175 -0.685687 -61.051546
v -3.437280 -0.385764 -61.433348
v -3.235886 -0.584448 -61.606210
v -3.253075 -0.908800 -61.193311
v -3.812550 -0.766992 -60.621327
v -3.563483 -0.977933 -60.679518
v -3.372368 -1.224848 -60.790983
v -4.257018 -0.816938 -60.352364
v -3.991754 -1.011316 -60.310304
v -3.763968 -1.251269 -60.331562
v -3.589181 -1.520446 -60.414687
v -4.474964 -1.004820 -60.113191
v -4.792772 -0.883524 -60.197547
v -4.748058 -1.162825 -59.912050
v -4.561594 -1.412710 -59.799331
v -4.244676 -1.229348 -60.032750
v -4.401474 -1.700328 -59.759911
v -4.046922 -1.495192 -60.021048
v -4.278610 -2.006079 -59.796477
v -3.895181 -1.784236 -60.078883
v -5.120001 -1.038634 -60.000093
v -5.065804 -1.284883 -59.756671
v -4.930331 -1.554355 -59.619017
v -4.813998 -1.858793 -59.558186
v -4.724732 -2.177451 -59.578322
v -5.415993 -1.366302 -59.653024
v -5.336716 -1.648840 -59.498738
v -5.268641 -1.964498 -59.423624
v -5.216404 -2.291765 -59.432800
v -6.199116 -1.683757 -59.454288
v -5.765133 -1.692533 -59.443116
v -6.233448 -2.003561 -59.373895
v -5.734730 -2.344628 -59.365505
v -5.747930 -2.013380 -59.361397
v -6.259792 -2.334010 -59.379022
v -6.621989 -1.622848 -59.531826
v -6.706536 -1.935419 -59.460640
v -6.771411 -2.260318 -59.472832
v -6.864351 -1.248511 -59.802972
v -7.017500 -1.512146 -59.672748
v -7.149013 -1.811572 -59.618297
v -7.249927 -2.126384 -59.643330
v -7.168494 -1.113877 -59.974361
v -7.027229 -0.883524 -60.197547
v -7.424274 -0.945176 -60.189117
v -7.667278 -1.160133 -60.120860
v -7.370452 -1.355907 -59.871641
v -7.875950 -1.417758 -60.119621
v -7.543876 -1.636779 -59.840808
v -8.036070 -1.700495 -60.185484
v -7.676950 -1.937355 -59.883963
v -7.278321 -0.681382 -60.454874
v -7.621862 -0.748891 -60.438987
v -7.896573 -0.932349 -60.410828
v -8.132474 -1.162926 -60.444023
v -8.313487 -1.424907 -60.536307
v -7.753663 -0.532566 -60.714369
v -8.049526 -0.681308 -60.730402
v -8.303589 -0.882075 -60.801545
v -8.498539 -1.121182 -60.922949
v -8.106051 -0.148569 -61.408578
v -8.120258 -0.416658 -61.067301
v -8.366826 -0.286074 -61.560252
v -8.584115 -0.800991 -61.330551
v -8.382720 -0.585998 -61.178450
v -8.566926 -0.476639 -61.743450
v -8.007450 0.112656 -61.741118
v -8.256517 0.006172 -61.932280
v -8.447633 -0.160591 -62.145779
v -7.064701 -0.193367 -61.076116
v -7.278320 0.294648 -61.697358
v -7.436163 0.059248 -61.397694
v -7.490000 -0.193367 -61.076116
v -7.278321 -0.681382 -60.454874
v -6.487351 -0.811107 -60.289734
v -7.436163 -0.445982 -60.754537
v -6.487350 0.424374 -61.862498
v -5.910000 0.782663 -62.318599
v -6.318934 0.749406 -62.276263
v -6.700000 0.651900 -62.152138
v -7.027229 0.496791 -61.954684
v -5.332650 0.424373 -61.862498
v -4.541680 0.294648 -61.697357
v -4.792772 0.496790 -61.954684
v -5.120000 0.651900 -62.152138
v -5.501066 0.749405 -62.276263
v -4.755300 -0.193367 -61.076115
v -4.541680 -0.681382 -60.454874
v -4.383838 -0.445982 -60.754537
v -4.330000 -0.193367 -61.076115
v -4.383837 0.059248 -61.397694
v -5.332650 -0.811108 -60.289733
v -5.910001 -1.169397 -59.833632
v -5.501066 -1.136140 -59.875968
v -5.120001 -1.038634 -60.000093
v -4.792772 -0.883524 -60.197547
v -7.027229 -0.883524 -60.197547
v -6.700001 -1.038634 -60.000093
v -6.318935 -1.136140 -59.875969
v -5.332650 -1.628945 -60.932183
v -5.637154 -1.682585 -60.974321
v -5.332650 -0.811108 -60.289733
v -4.755300 -1.011204 -61.718565
v -4.907552 -1.227748 -61.553328
v -4.755300 -0.193367 -61.076115
v -4.610963 -9.576819 -67.493529
v -8.052744 -0.330079 -63.573106
v -7.041371 -0.792004 -62.985077
v -7.644970 -0.094151 -63.873442
v -6.710000 -0.634931 -63.185030
v -7.170523 0.088102 -64.105449
v -6.324111 -0.536191 -63.310726
v -6.647634 0.209674 -64.260209
v -6.096399 0.265894 -64.331778
v -5.910000 -0.502512 -63.353599
v -5.538000 0.254601 -64.317402
v -5.495890 -0.536191 -63.310726
v -4.993897 0.176230 -64.217636
v -5.110000 -0.634931 -63.185030
v -4.485000 0.033793 -64.036314
v -4.030864 -0.167238 -63.780402
v -4.778629 -0.792004 -62.985077
v -3.648943 -0.419136 -63.459736
v -4.524360 -0.996705 -62.724493
v -3.353913 -0.712222 -63.086639
v -4.364519 -1.235085 -62.421036
v -3.157112 -1.035231 -62.675449
v -3.066102 -1.375751 -62.241968
v -4.310000 -1.490898 -62.095387
v -3.084383 -1.720697 -61.802853
v -4.364519 -1.746710 -61.769738
v -3.211250 -2.056811 -61.374981
v -4.524360 -1.985090 -61.466282
v -3.441828 -2.371178 -60.974793
v -3.767257 -2.651716 -60.617669
v -4.778630 -2.189791 -61.205698
v -4.175031 -2.887644 -60.317332
v -5.110001 -2.346864 -61.005744
v -4.649478 -3.069896 -60.085326
v -5.495890 -2.445604 -60.880049
v -5.172367 -3.191468 -59.930565
v -5.723602 -3.247688 -59.858997
v -5.910001 -2.479282 -60.837176
v -6.282000 -3.236396 -59.873372
v -6.324111 -2.445604 -60.880049
v -6.826103 -3.158025 -59.973138
v -6.710001 -2.346863 -61.005744
v -7.335001 -3.015587 -60.154461
v -7.789136 -2.814557 -60.410373
v -7.041371 -2.189791 -61.205698
v -8.171058 -2.562658 -60.731038
v -7.295641 -1.985089 -61.466282
v -8.466088 -2.269573 -61.104135
v -7.455482 -1.746710 -61.769739
v -8.662889 -1.946564 -61.515325
v -8.753898 -1.606043 -61.948807
v -7.510000 -1.490897 -62.095388
v -8.735618 -1.261098 -62.387921
v -7.455482 -1.235084 -62.421037
v -6.970661 -8.458301 -68.917400
v -6.753773 -8.833484 -68.936320
v -7.209039 -8.650208 -68.673102
v -6.506638 -8.716339 -69.085444
v -6.943407 -8.986149 -68.741977
v -7.209039 -8.650208 -68.673102
v -6.943407 -8.986149 -68.741977
v -7.358889 -8.873689 -68.388612
v -7.062616 -9.163932 -68.515660
v -7.410001 -9.113513 -68.083316
v -7.103276 -9.354716 -68.272792
v -7.358890 -9.353338 -67.778020
v -7.062616 -9.545501 -68.029924
v -7.209039 -9.576819 -67.493529
v -6.943407 -9.723284 -67.803607
v -6.970661 -9.768726 -67.249231
v -6.753774 -9.875949 -67.609264
v -6.660001 -9.915982 -67.061776
v -6.506638 -9.993093 -67.460140
v -6.298230 -10.008551 -66.943935
v -6.218843 -10.066733 -67.366396
v -5.910001 -10.040124 -66.903742
v -5.910001 -10.091851 -67.334422
v -5.521772 -10.008551 -66.943935
v -5.601159 -10.066734 -67.366396
v -5.160001 -9.915982 -67.061775
v -5.313363 -9.993094 -67.460140
v -4.849341 -9.768727 -67.249232
v -5.066228 -9.875949 -67.609264
v -4.610963 -9.576819 -67.493529
v -4.876594 -9.723284 -67.803607
v -4.461112 -9.353338 -67.778019
v -4.757386 -9.545501 -68.029924
v -4.410001 -9.113514 -68.083316
v -4.716726 -9.354717 -68.272792
v -4.461112 -8.873690 -68.388612
v -4.757386 -9.163932 -68.515660
v -4.610963 -8.650209 -68.673102
v -4.876594 -8.986150 -68.741977
v -4.849340 -8.458301 -68.917399
v -5.066228 -8.833484 -68.936320
v -5.160001 -8.311045 -69.104856
v -5.313363 -8.716340 -69.085444
v -5.521772 -8.218476 -69.222695
v -5.601158 -8.642700 -69.179188
v -5.910001 -8.186903 -69.262889
v -5.910001 -8.617582 -69.211162
v -6.298229 -8.218477 -69.222696
v -6.218843 -8.642700 -69.179188
v -6.660000 -8.311045 -69.104856
v -6.943407 -8.986149 -68.741977
v -6.753773 -8.833484 -68.936320
v -7.062616 -9.163932 -68.515660
v -7.103276 -9.354716 -68.272792
v -6.506638 -8.716339 -69.085444
v -7.062616 -9.545501 -68.029924
v -6.218843 -8.642700 -69.179188
v -6.943407 -9.723284 -67.803607
v -5.910001 -8.617582 -69.211162
v -6.753774 -9.875949 -67.609264
v -5.601158 -8.642700 -69.179188
v -6.506638 -9.993093 -67.460140
v -5.313363 -8.716340 -69.085444
v -6.218843 -10.066733 -67.366396
v -5.066228 -8.833484 -68.936320
v -5.910001 -10.091851 -67.334422
v -4.876594 -8.986150 -68.741977
v -5.601159 -10.066734 -67.366396
v -4.757386 -9.163932 -68.515660
v -5.313363 -9.993094 -67.460140
v -4.716726 -9.354717 -68.272792
v -5.066228 -9.875949 -67.609264
v -4.757386 -9.545501 -68.029924
v -4.876594 -9.723284 -67.803607
v -4.570074 0.740945 -63.293432
v -4.670987 0.839811 -62.993501
v -4.802500 0.857811 -62.689697
v -8.608751 -0.924983 -62.815794
v -8.608751 -0.626158 -62.581053
v -8.378172 -0.610617 -63.215982
v -8.735618 -0.962272 -62.153180
v -8.378172 -0.311792 -62.981241
v -8.052744 -0.330079 -63.573106
v -8.052744 -0.031254 -63.338365
v -7.644970 -0.094151 -63.873442
v -7.644970 0.204675 -63.638701
v -7.170523 0.088102 -64.105449
v -7.170523 0.386927 -63.870707
v -6.647634 0.209674 -64.260209
v -6.647634 0.508499 -64.025468
v -6.096399 0.265894 -64.331778
v -6.096399 0.564719 -64.097036
v -5.538000 0.254601 -64.317402
v -5.538000 0.553427 -64.082661
v -4.993897 0.176230 -64.217636
v -4.993897 0.475056 -63.982895
v -4.485000 0.033793 -64.036314
v -4.485000 0.332618 -63.801572
v -4.030864 -0.167238 -63.780402
v -4.030865 0.131587 -63.545661
v -3.648943 -0.419136 -63.459736
v -3.648943 -0.120311 -63.224995
v -3.353913 -0.712222 -63.086639
v -3.353913 -0.413396 -62.851898
v -3.157112 -1.035231 -62.675449
v -3.157112 -0.736406 -62.440708
v -3.066102 -1.375751 -62.241968
v -3.066102 -1.076926 -62.007226
v -3.084383 -1.720697 -61.802853
v -3.084383 -1.421872 -61.568112
v -3.211250 -2.056811 -61.374981
v -3.211250 -1.757986 -61.140239
v -3.441828 -2.371178 -60.974793
v -3.441828 -2.072353 -60.740051
v -3.441828 -2.371178 -60.974793
v -3.441828 -2.072353 -60.740051
v -3.767257 -2.651716 -60.617669
v -3.767257 -2.352890 -60.382927
v -4.175031 -2.887644 -60.317332
v -4.175031 -2.588819 -60.082591
v -4.649478 -3.069896 -60.085326
v -4.649478 -2.771071 -59.850585
v -5.172367 -3.191468 -59.930565
v -5.172367 -2.892643 -59.695824
v -5.723602 -3.247688 -59.858997
v -5.723602 -2.948863 -59.624256
v -6.282000 -3.236396 -59.873372
v -6.282000 -2.937570 -59.638631
v -6.826103 -3.158025 -59.973138
v -6.826103 -2.859200 -59.738397
v -7.335001 -3.015587 -60.154461
v -7.335001 -2.716762 -59.919720
v -7.789136 -2.814557 -60.410373
v -7.789136 -2.515731 -60.175631
v -8.171058 -2.562658 -60.731038
v -8.171058 -2.263833 -60.496297
v -8.466088 -2.269573 -61.104135
v -8.466088 -1.970748 -60.869394
v -8.662889 -1.946564 -61.515325
v -8.662889 -1.647738 -61.280584
v -8.753898 -1.606043 -61.948807
v -8.753898 -1.307218 -61.714066
v -8.735618 -1.261098 -62.387921
v -5.910001 -1.699181 -60.987358
v -6.487351 -0.811107 -60.289734
v -6.182847 -1.682585 -60.974321
v -6.487351 -1.628945 -60.932184
v -6.487351 -1.628945 -60.932184
v -6.639603 -1.519682 -61.181696
v -6.487351 -0.811107 -60.289734
v -6.776026 -1.390311 -61.380549
v -7.064701 -0.193367 -61.076116
v -6.912449 -1.227748 -61.553328
v -7.064701 -1.011204 -61.718566
v -7.064701 -1.011204 -61.718566
v -6.912449 -0.901941 -61.968078
v -7.064701 -0.193367 -61.076116
v -6.776026 -0.772571 -62.166931
v -6.487350 0.424374 -61.862498
v -6.639602 -0.610007 -62.339710
v -6.487350 -0.393464 -62.504948
v -6.487350 -0.393464 -62.504948
v -6.182847 -0.447104 -62.547085
v -6.487350 0.424374 -61.862498
v -5.910000 -0.463700 -62.560122
v -5.332650 0.424373 -61.862498
v -5.637154 -0.447104 -62.547085
v -5.332650 -0.393464 -62.504947
v -5.043975 -1.390311 -61.380549
v -5.332650 -0.811108 -60.289733
v -5.180398 -1.519682 -61.181696
v -5.332650 -1.628945 -60.932183
v -5.332650 -0.393464 -62.504947
v -5.180398 -0.610007 -62.339709
v -5.332650 0.424373 -61.862498
v -5.043975 -0.772571 -62.166931
v -4.755300 -0.193367 -61.076115
v -4.907552 -0.901942 -61.968078
v -4.755300 -1.011204 -61.718565
v -5.637154 -0.447104 -62.547085
v -5.910000 -1.535459 -62.130392
v -5.332650 -0.393464 -62.504947
v -5.910000 -0.463700 -62.560122
v -5.910000 -1.535459 -62.130392
v -5.180398 -0.610007 -62.339709
v -6.487350 -0.393464 -62.504948
v -5.910000 -1.535459 -62.130392
v -6.182847 -0.447104 -62.547085
v -6.639602 -0.610007 -62.339710
v -5.910000 -1.535459 -62.130392
v -5.910000 -1.535459 -62.130392
v -6.776026 -0.772571 -62.166931
v -7.064701 -1.011204 -61.718566
v -5.910000 -1.535459 -62.130392
v -6.912449 -0.901941 -61.968078
v -6.912449 -1.227748 -61.553328
v -5.910000 -1.535459 -62.130392
v -5.910000 -1.535459 -62.130392
v -6.776026 -1.390311 -61.380549
v -6.487351 -1.628945 -60.932184
v -5.910000 -1.535459 -62.130392
v -6.639603 -1.519682 -61.181696
v -6.182847 -1.682585 -60.974321
v -5.910000 -1.535459 -62.130392
v -5.910000 -1.535459 -62.130392
v -5.910001 -1.699181 -60.987358
v -5.332650 -1.628945 -60.932183
v -5.910000 -1.535459 -62.130392
v -5.637154 -1.682585 -60.974321
v -5.180398 -1.519682 -61.181696
v -5.910000 -1.535459 -62.130392
v -5.910000 -1.535459 -62.130392
v -5.043975 -1.390311 -61.380549
v -4.755300 -1.011204 -61.718565
v -5.910000 -1.535459 -62.130392
v -4.907552 -1.227748 -61.553328
v -4.907552 -0.901942 -61.968078
v -5.910000 -1.535459 -62.130392
v -5.910000 -1.535459 -62.130392
v -5.043975 -1.390311 -61.380549
v -5.043975 -0.772571 -62.166931
v -5.910000 -1.535459 -62.130392
f 1 2 3
f 1 3 4
f 1 5 2
f 2 5 55
f 2 56 3
f 2 57 56
f 2 55 57
f 3 40 4
f 3 59 40
f 3 56 59
f 4 40 39
f 5 69 55
f 6 7 8
f 6 9 7
f 7 9 10
f 7 96 8
f 7 97 96
f 7 10 97
f 8 96 99
f 9 11 10
f 10 11 12
f 10 110 97
f 10 12 110
f 11 13 12
f 12 13 14
f 12 115 110
f 12 14 115
f 13 15 14
f 14 15 16
f 14 120 115
f 14 16 120
f 15 17 16
f 16 17 18
f 16 125 120
f 16 18 125
f 17 19 18
f 18 19 20
f 18 130 125
f 18 20 130
f 19 21 20
f 20 21 22
f 20 135 130
f 20 22 135
f 21 23 22
f 22 23 24
f 22 140 135
f 22 24 140
f 23 25 24
f 24 25 26
f 24 145 140
f 24 26 145
f 25 27 26
f 26 27 28
f 26 150 145
f 26 28 150
f 27 29 28
f 28 29 30
f 28 155 150
f 28 30 155
f 29 31 30
f 30 31 32
f 30 160 155
f 30 32 160
f 31 33 32
f 32 33 34
f 32 165 160
f 32 34 165
f 33 35 34
f 34 35 36
f 34 170 165
f 34 36 170
f 35 37 36
f 36 37 38
f 36 175 170
f 36 38 175
f 37 39 38
f 38 39 40
f 38 68 175
f 38 40 68
f 40 59 68
f 41 42 43
f 41 43 44
f 41 45 42
f 42 45 65
f 42 64 43
f 42 67 64
f 42 65 67
f 43 54 44
f 43 64 61
f 43 61 54
f 44 54 53
f 45 180 65
f 46 47 48
f 46 49 47
f 46 48 95
f 47 49 50
f 47 50 78
f 47 78 83
f 47 83 48
f 48 88 94
f 48 94 95
f 48 83 88
f 49 51 50
f 50 51 52
f 50 52 73
f 50 73 78
f 51 53 52
f 52 53 54
f 52 54 63
f 52 63 73
f 54 61 63
f 55 69 70
f 55 71 57
f 55 70 71
f 56 58 59
f 56 60 58
f 56 57 60
f 57 72 60
f 57 71 72
f 58 61 62
f 58 63 61
f 58 62 59
f 58 60 63
f 59 62 68
f 60 73 63
f 60 72 73
f 61 64 62
f 62 64 66
f 62 66 68
f 64 67 66
f 65 178 177
f 65 177 67
f 65 180 178
f 66 176 175
f 66 175 68
f 66 67 176
f 67 177 176
f 69 74 70
f 70 74 75
f 70 76 71
f 70 75 76
f 71 77 72
f 71 76 77
f 72 78 73
f 72 77 78
f 74 79 75
f 75 79 80
f 75 81 76
f 75 80 81
f 76 82 77
f 76 81 82
f 77 83 78
f 77 82 83
f 79 84 80
f 80 84 85
f 80 86 81
f 80 85 86
f 81 87 82
f 81 86 87
f 82 88 83
f 82 87 88
f 84 91 85
f 85 89 90
f 85 90 86
f 85 91 89
f 86 90 92
f 86 92 87
f 87 92 93
f 87 93 88
f 88 93 94
f 96 98 99
f 96 100 98
f 96 97 100
f 97 111 100
f 97 110 111
f 98 101 102
f 98 103 101
f 98 100 103
f 98 102 99
f 100 112 103
f 100 111 112
f 101 104 105
f 101 105 106
f 101 103 104
f 101 106 102
f 103 113 104
f 103 112 113
f 104 114 107
f 104 107 105
f 104 113 114
f 105 107 108
f 105 108 109
f 105 109 106
f 110 116 111
f 110 115 116
f 111 117 112
f 111 116 117
f 112 118 113
f 112 117 118
f 113 119 114
f 113 118 119
f 115 121 116
f 115 120 121
f 116 122 117
f 116 121 122
f 117 123 118
f 117 122 123
f 118 124 119
f 118 123 124
f 120 126 121
f 120 125 126
f 121 127 122
f 121 126 127
f 122 128 123
f 122 127 128
f 123 129 124
f 123 128 129
f 125 131 126
f 125 130 131
f 126 132 127
f 126 131 132
f 127 133 128
f 127 132 133
f 128 134 129
f 128 133 134
f 130 136 131
f 130 135 136
f 131 137 132
f 131 136 137
f 132 138 133
f 132 137 138
f 133 139 134
f 133 138 139
f 135 141 136
f 135 140 141
f 136 142 137
f 136 141 142
f 137 143 138
f 137 142 143
f 138 144 139
f 138 143 144
f 140 146 141
f 140 145 146
f 141 147 142
f 141 146 147
f 142 148 143
f 142 147 148
f 143 149 144
f 143 148 149
f 145 151 146
f 145 150 151
f 146 152 147
f 146 151 152
f 147 153 148
f 147 152 153
f 148 154 149
f 148 153 154
f 150 156 151
f 150 155 156
f 151 157 152
f 151 156 157
f 152 158 153
f 152 157 158
f 153 159 154
f 153 158 159
f 155 161 156
f 155 160 161
f 156 162 157
f 156 161 162
f 157 163 158
f 157 162 163
f 158 164 159
f 158 163 164
f 160 166 161
f 160 165 166
f 161 167 162
f 161 166 167
f 162 168 163
f 162 167 168
f 163 169 164
f 163 168 169
f 165 171 166
f 165 170 171
f 166 172 167
f 166 171 172
f 167 173 168
f 167 172 173
f 168 174 169
f 168 173 174
f 170 176 171
f 170 175 176
f 171 177 172
f 171 176 177
f 172 178 173
f 172 177 178
f 173 179 174
f 173 178 179
f 178 180 179
f 181 182 183
f 181 183 184
f 181 185 182
f 182 185 186
f 183 229 184
f 184 229 228
f 185 187 186
f 186 187 188
f 187 189 188
f 188 189 190
f 189 191 190
f 190 191 192
f 191 193 192
f 192 193 194
f 193 195 194
f 194 195 196
f 195 197 196
f 196 197 198
f 197 199 198
f 198 199 200
f 199 201 200
f 200 201 202
f 201 203 202
f 202 203 204
f 203 205 204
f 204 205 206
f 205 489 206
f 207 208 209
f 207 210 208
f 208 210 211
f 210 212 211
f 211 212 213
f 212 214 213
f 213 214 215
f 214 216 215
f 215 216 217
f 216 218 217
f 217 218 219
f 218 220 219
f 219 220 221
f 220 222 221
f 221 222 223
f 222 224 223
f 223 224 225
f 224 226 225
f 225 226 227
f 226 228 227
f 227 228 229
f 230 231 232
f 230 542 541
f 230 232 542
f 231 490 232
f 232 490 491
f 233 234 235
f 233 235 236
f 233 237 234
f 233 236 262
f 234 237 331
f 234 332 235
f 234 331 340
f 234 340 332
f 235 332 334
f 235 334 236
f 236 263 262
f 236 450 263
f 236 334 450
f 237 338 331
f 238 239 240
f 238 339 338
f 238 343 339
f 238 240 343
f 239 241 242
f 239 242 240
f 240 242 347
f 240 347 348
f 240 348 343
f 241 243 244
f 241 244 242
f 242 244 355
f 242 355 347
f 243 358 244
f 244 358 359
f 244 359 355
f 245 246 247
f 245 374 373
f 245 378 374
f 245 247 378
f 246 248 249
f 246 249 247
f 247 249 382
f 247 382 383
f 247 383 378
f 248 250 251
f 248 251 249
f 249 251 388
f 249 388 382
f 250 391 251
f 250 396 395
f 250 395 391
f 251 391 392
f 251 392 388
f 252 253 254
f 252 405 404
f 252 409 405
f 252 254 409
f 253 255 256
f 253 256 254
f 254 256 413
f 254 413 414
f 254 414 409
f 255 257 258
f 255 258 256
f 256 258 419
f 256 419 413
f 257 422 258
f 257 427 426
f 257 426 422
f 258 422 423
f 258 423 419
f 259 260 261
f 259 436 435
f 259 440 436
f 259 261 440
f 260 262 263
f 260 263 261
f 261 263 444
f 261 444 445
f 261 445 440
f 263 450 444
f 264 265 266
f 264 267 265
f 264 266 325
f 265 267 268
f 265 447 449
f 265 268 447
f 265 449 266
f 266 452 326
f 266 326 325
f 266 449 452
f 267 269 268
f 268 269 270
f 268 270 443
f 268 443 447
f 269 271 270
f 270 271 272
f 270 439 443
f 270 272 439
f 271 273 272
f 272 273 274
f 272 433 439
f 272 274 433
f 273 275 274
f 274 275 276
f 274 434 433
f 274 276 434
f 275 277 276
f 276 277 278
f 276 278 425
f 276 425 434
f 277 279 278
f 278 279 280
f 278 421 425
f 278 280 421
f 279 281 280
f 280 281 282
f 280 282 418
f 280 418 421
f 281 283 282
f 282 283 284
f 282 416 418
f 282 284 416
f 283 285 284
f 284 285 286
f 284 286 412
f 284 412 416
f 285 287 286
f 286 287 288
f 286 408 412
f 286 288 408
f 287 289 288
f 288 289 290
f 288 402 408
f 288 290 402
f 289 291 290
f 290 291 292
f 290 403 402
f 290 292 403
f 291 293 292
f 292 293 294
f 292 294 394
f 292 394 403
f 293 295 294
f 294 295 296
f 294 390 394
f 294 296 390
f 295 297 296
f 296 297 298
f 296 298 387
f 296 387 390
f 297 299 298
f 298 299 300
f 298 386 387
f 298 300 386
f 299 301 300
f 300 301 302
f 300 381 386
f 300 302 381
f 301 303 302
f 302 303 304
f 302 377 381
f 302 304 377
f 303 305 304
f 304 305 306
f 304 371 377
f 304 306 371
f 305 307 306
f 306 307 308
f 306 372 371
f 306 308 372
f 307 309 308
f 308 311 617
f 308 309 311
f 308 617 372
f 309 310 311
f 312 313 314
f 312 314 329
f 312 329 328
f 313 315 316
f 313 316 314
f 314 352 357
f 314 316 352
f 314 357 329
f 315 317 318
f 315 318 316
f 316 354 352
f 316 318 354
f 317 319 320
f 317 320 318
f 318 320 346
f 318 346 354
f 319 321 322
f 319 322 320
f 320 342 346
f 320 322 342
f 321 323 324
f 321 324 322
f 322 335 342
f 322 324 335
f 323 325 326
f 323 326 324
f 324 337 335
f 324 326 337
f 326 452 337
f 327 328 329
f 327 329 330
f 327 330 361
f 329 357 330
f 330 349 356
f 330 356 361
f 330 357 349
f 331 338 339
f 331 339 344
f 331 344 340
f 332 333 334
f 332 340 341
f 332 341 333
f 333 335 336
f 333 336 334
f 333 341 342
f 333 342 335
f 334 336 450
f 335 337 336
f 336 451 450
f 336 337 451
f 337 452 451
f 339 351 344
f 339 343 351
f 340 344 345
f 340 345 341
f 341 345 346
f 341 346 342
f 343 348 351
f 344 353 345
f 344 351 353
f 345 354 346
f 345 353 354
f 347 349 348
f 347 355 356
f 347 356 349
f 348 350 351
f 348 349 350
f 349 357 350
f 350 352 353
f 350 353 351
f 350 357 352
f 352 354 353
f 355 359 360
f 355 360 356
f 356 360 361
f 362 363 364
f 362 364 365
f 362 366 367
f 362 368 366
f 362 365 368
f 362 367 363
f 364 373 365
f 365 373 374
f 365 375 368
f 365 374 375
f 366 368 369
f 366 369 370
f 366 619 367
f 366 370 619
f 368 376 369
f 368 375 376
f 369 371 370
f 369 376 377
f 369 377 371
f 370 371 372
f 370 618 619
f 370 372 618
f 372 617 618
f 374 379 375
f 374 378 379
f 375 380 376
f 375 379 380
f 376 381 377
f 376 380 381
f 378 383 379
f 379 383 385
f 379 385 380
f 380 385 386
f 380 386 381
f 382 384 383
f 382 388 389
f 382 389 384
f 383 384 385
f 384 389 390
f 384 387 385
f 384 390 387
f 385 387 386
f 388 392 393
f 388 393 389
f 389 393 394
f 389 394 390
f 391 399 392
f 391 395 399
f 392 401 393
f 392 399 401
f 393 403 394
f 393 401 403
f 395 396 397
f 395 397 398
f 395 398 399
f 396 404 397
f 397 404 405
f 397 405 406
f 397 406 398
f 398 400 399
f 398 406 407
f 398 407 400
f 399 400 401
f 400 402 401
f 400 407 408
f 400 408 402
f 401 402 403
f 405 409 410
f 405 410 406
f 406 410 411
f 406 411 407
f 407 411 412
f 407 412 408
f 409 414 410
f 410 417 411
f 410 414 417
f 411 416 412
f 411 417 416
f 413 415 414
f 413 419 420
f 413 420 415
f 414 415 417
f 415 420 421
f 415 418 417
f 415 421 418
f 416 417 418
f 419 423 424
f 419 424 420
f 420 424 425
f 420 425 421
f 422 430 423
f 422 426 430
f 423 432 424
f 423 430 432
f 424 434 425
f 424 432 434
f 426 427 428
f 426 428 429
f 426 429 430
f 427 435 428
f 428 435 436
f 428 436 437
f 428 437 429
f 429 431 430
f 429 437 438
f 429 438 431
f 430 431 432
f 431 433 432
f 431 438 439
f 431 439 433
f 432 433 434
f 436 440 441
f 436 441 437
f 437 441 442
f 437 442 438
f 438 442 443
f 438 443 439
f 440 445 441
f 441 448 442
f 441 445 448
f 442 447 443
f 442 448 447
f 444 446 445
f 444 450 451
f 444 451 446
f 445 446 448
f 446 451 452
f 446 449 448
f 446 452 449
f 447 448 449
f 453 454 455
f 453 455 456
f 453 457 458
f 453 459 457
f 453 460 454
f 453 456 459
f 454 460 464
f 457 480 458
f 458 476 475
f 458 480 481
f 458 482 476
f 458 481 482
f 460 461 462
f 460 462 463
f 460 465 461
f 460 463 464
f 461 465 469
f 465 466 467
f 465 467 468
f 465 470 466
f 465 468 469
f 466 470 474
f 470 471 472
f 470 472 473
f 470 475 471
f 470 473 474
f 471 475 479
f 475 476 477
f 475 477 478
f 475 478 479
f 483 484 485
f 484 686 485
f 485 686 687
f 486 487 488
f 487 711 488
f 488 711 712
f 490 492 491
f 491 492 493
f 492 494 493
f 493 494 495
f 494 496 495
f 495 496 497
f 495 497 498
f 497 499 498
f 498 499 500
f 499 501 500
f 500 501 502
f 501 503 502
f 502 503 504
f 502 504 505
f 504 506 505
f 505 506 507
f 506 508 507
f 507 508 509
f 508 510 509
f 509 510 511
f 509 511 512
f 511 513 512
f 512 513 514
f 513 515 514
f 514 515 516
f 515 517 516
f 516 517 518
f 516 518 519
f 518 520 519
f 519 520 521
f 520 522 521
f 521 522 523
f 522 524 523
f 523 524 525
f 523 525 526
f 525 527 526
f 526 527 528
f 527 529 528
f 528 529 530
f 529 531 530
f 530 531 532
f 530 532 533
f 532 534 533
f 533 534 535
f 534 536 535
f 535 536 537
f 536 538 537
f 537 538 539
f 537 539 540
f 539 541 540
f 540 541 542
f 543 544 545
f 543 546 544
f 543 592 546
f 544 547 545
f 546 592 591
f 548 549 550
f 549 551 550
f 550 551 552
f 551 553 552
f 552 553 554
f 553 555 554
f 554 555 556
f 555 557 556
f 556 557 558
f 557 559 558
f 558 559 560
f 559 561 560
f 560 561 562
f 561 563 562
f 562 563 564
f 563 565 564
f 564 565 566
f 565 567 566
f 566 567 568
f 567 569 568
f 568 569 570
f 569 571 570
f 570 571 572
f 571 573 572
f 572 573 574
f 573 575 574
f 574 575 576
f 575 577 576
f 576 577 578
f 577 579 578
f 578 579 580
f 579 581 580
f 580 581 582
f 581 583 582
f 582 583 584
f 583 585 584
f 584 585 586
f 585 587 586
f 586 587 588
f 587 589 588
f 588 589 590
f 589 591 590
f 590 591 592
f 593 594 595
f 594 596 595
f 594 597 596
f 596 597 598
f 597 599 598
f 598 599 600
f 599 601 600
f 600 601 602
f 601 603 602
f 602 603 604
f 603 605 604
f 604 605 606
f 605 607 606
f 606 607 608
f 607 609 608
f 608 609 610
f 609 611 610
f 610 611 612
f 611 613 612
f 612 613 614
f 613 615 614
f 614 615 616
f 620 621 622
f 620 623 621
f 620 685 623
f 621 624 622
f 622 624 625
f 623 685 684
f 624 626 625
f 625 626 627
f 626 628 627
f 627 628 629
f 628 630 629
f 629 630 631
f 630 632 631
f 631 632 633
f 632 634 633
f 633 634 635
f 634 636 635
f 635 636 637
f 636 638 637
f 637 638 639
f 638 640 639
f 639 640 641
f 640 642 641
f 641 642 643
f 642 644 643
f 643 644 645
f 644 646 645
f 645 646 647
f 646 648 647
f 647 648 649
f 648 650 649
f 649 650 651
f 650 652 651
f 651 652 653
f 652 654 653
f 653 654 655
f 654 656 655
f 657 658 659
f 658 660 659
f 659 660 661
f 660 662 661
f 661 662 663
f 662 664 663
f 663 664 665
f 664 666 665
f 665 666 667
f 666 668 667
f 667 668 669
f 668 670 669
f 669 670 671
f 670 672 671
f 671 672 673
f 672 674 673
f 673 674 675
f 674 676 675
f 675 676 677
f 676 678 677
f 677 678 679
f 678 680 679
f 679 680 681
f 680 682 681
f 681 682 683
f 682 684 683
f 683 684 685
f 686 688 687
f 687 688 689
f 690 691 692
f 691 693 692
f 692 693 694
f 693 695 694
f 694 695 696
f 697 698 699
f 698 700 699
f 699 700 701
f 700 702 701
f 701 702 703
f 704 705 706
f 705 707 706
f 706 707 708
f 707 709 708
f 708 709 710
f 711 713 712
f 712 713 714
f 715 716 717
f 716 718 717
f 717 718 719
f 718 720 719
f 719 720 721
f 722 723 724
f 722 725 723
f 724 726 727
f 725 730 733
f 727 764 763
f 728 729 730
f 728 731 732
f 731 734 732
f 734 737 740
f 735 736 737
f 735 738 739
f 738 741 739
f 741 744 747
f 742 743 744
f 742 745 746
f 745 748 746
f 748 751 754
f 749 750 751
f 749 752 753
f 752 755 753
f 756 757 758
f 756 759 760
f 758 761 762
f 759 763 760