# ANSI B18.3.4M - M3 x 0.5 x 8(1)
# Autodesk dbId: 152
# Units: mm
o 152_ANSI_B18.3.4M_-_M3_x_0.5_x_8(1)
v 12.889999 -0.634931 -63.185034
v 12.961102 -0.683647 -63.128534
v 12.607674 -0.575268 -63.266500
v 12.504109 -0.536191 -63.310730
v 13.221369 -0.792004 -62.985081
v 13.475639 -1.985090 -61.466285
v 13.214663 -2.173927 -61.231412
v 13.453225 -1.979775 -61.478566
v 13.221369 -2.189791 -61.205701
v 12.905434 -2.325330 -61.038676
v 12.889999 -2.346863 -61.005748
v 12.544969 -2.424470 -60.912470
v 12.504109 -2.445603 -60.880052
v 12.155916 -2.465120 -60.860723
v 12.089999 -2.479282 -60.837179
v 11.762721 -2.444724 -60.886688
v 11.675888 -2.445603 -60.880052
v 11.390090 -2.364563 -60.988732
v 11.289999 -2.346863 -61.005748
v 11.061438 -2.229675 -61.160443
v 10.958628 -2.189790 -61.205701
v 10.797413 -2.048536 -61.391033
v 10.704358 -1.985089 -61.466285
v 10.614606 -1.832527 -61.666013
v 10.544518 -1.746710 -61.769742
v 10.524504 -1.595219 -61.968104
v 10.489999 -1.490897 -62.095391
v 10.532767 -1.351526 -62.278326
v 10.544517 -1.235084 -62.421040
v 10.638877 -1.116758 -62.577185
v 10.704358 -0.996704 -62.724496
v 10.836167 -0.905666 -62.845904
v 10.958628 -0.792003 -62.985080
v 11.112239 -0.731516 -63.067597
v 11.289999 -0.634931 -63.185034
v 11.449747 -0.605248 -63.228335
v 11.675888 -0.536191 -63.310730
v 11.827485 -0.534798 -63.318019
v 12.089999 -0.502512 -63.353602
v 12.221718 -0.524591 -63.331013
v 12.839999 -0.767067 -63.178705
v 12.584419 -0.672125 -63.257668
v 12.921972 -0.775635 -63.125900
v 13.150659 -0.914323 -62.991249
v 12.478227 -0.674498 -63.296545
v 13.538887 -1.809360 -61.851869
v 13.593076 -1.568632 -62.116417
v 13.538024 -1.798932 -61.823245
v 13.589999 -1.569535 -62.157165
v 13.553684 -1.337110 -62.411145
v 13.538887 -1.329711 -62.462461
v 13.422324 -1.118912 -62.688909
v 13.389037 -1.106230 -62.746951
v 13.207248 -0.927750 -62.932258
v 13.259796 -0.842917 -62.925784
v 12.947756 -0.703913 -63.118908
v 13.241873 -0.860742 -62.919265
v 12.936294 -0.727066 -63.115160
v 12.599742 -0.597194 -63.254760
v 13.226482 -0.881799 -62.918184
v 12.927500 -0.751529 -63.117544
v 12.592931 -0.621774 -63.249196
v 13.214672 -0.904655 -62.922616
v 12.587705 -0.647331 -63.250188
v 12.215801 -0.623724 -63.319283
v 12.217966 -0.572539 -63.311872
v 12.216637 -0.598608 -63.312212
v 12.219699 -0.547293 -63.318284
v 13.475639 -0.996705 -62.724496
v 13.484988 -1.043069 -62.670990
v 13.463614 -1.057828 -62.668375
v 13.445260 -1.076252 -62.670646
v 13.431177 -1.097087 -62.677650
v 13.635480 -1.235084 -62.421040
v 13.622527 -1.271529 -62.380161
v 13.599046 -1.282787 -62.382002
v 13.578882 -1.298206 -62.388100
v 13.563410 -1.316734 -62.398040
v 13.689999 -1.490897 -62.095391
v 13.663771 -1.513941 -62.071572
v 13.639659 -1.521485 -62.078140
v 13.618952 -1.533714 -62.088298
v 13.603064 -1.549795 -62.101354
v 13.635480 -1.746710 -61.769742
v 13.606130 -1.755073 -61.764611
v 13.582900 -1.758923 -61.775883
v 13.562953 -1.767979 -61.790079
v 13.547646 -1.781626 -61.806234
v 13.453225 -1.979775 -61.478566
v 13.432338 -1.980181 -61.494221
v 13.475639 -1.985090 -61.466285
v 13.414402 -1.986282 -61.512181
v 13.400639 -1.997659 -61.531223
v 13.391987 -2.013540 -61.550050
v 13.389037 -2.032841 -61.567378
v 13.197431 -2.171359 -61.250853
v 12.892940 -2.320442 -61.061070
v 13.182634 -2.174904 -61.272065
v 13.432338 -1.980181 -61.494221
v 12.882212 -2.321995 -61.084818
v 13.171280 -2.184322 -61.293602
v 13.414402 -1.986282 -61.512181
v 12.873979 -2.329885 -61.108301
v 12.868804 -2.343572 -61.129920
v 13.164142 -2.198971 -61.313998
v 13.400639 -1.997659 -61.531223
v 13.150659 -2.224748 -61.323081
v 13.389037 -2.032841 -61.567378
v 13.391987 -2.013540 -61.550050
v 12.537998 -2.418064 -60.936798
v 12.532012 -2.418313 -60.962206
v 12.527419 -2.425201 -60.986964
v 12.524531 -2.438260 -61.009383
v 12.839999 -2.372004 -61.135625
v 12.154906 -2.458090 -60.885844
v 12.154039 -2.457805 -60.911933
v 12.153373 -2.464283 -60.937213
v 12.152955 -2.477083 -60.959961
v 12.478227 -2.464572 -61.017785
v 11.767735 -2.438006 -60.911410
v 11.772042 -2.437989 -60.937158
v 11.775346 -2.444673 -60.962176
v 11.777423 -2.457603 -60.984759
v 12.089999 -2.496146 -60.977592
v 11.400814 -2.359074 -61.011891
v 11.410023 -2.360112 -61.036296
v 11.417089 -2.367605 -61.060284
v 11.421531 -2.381044 -61.082219
v 11.701770 -2.464572 -61.017785
v 11.077197 -2.226253 -61.180972
v 11.090730 -2.229065 -61.203117
v 11.101114 -2.237921 -61.225371
v 11.107641 -2.252215 -61.246217
v 11.339999 -2.372003 -61.135624
v 10.817217 -2.047889 -61.408028
v 10.834224 -2.053085 -61.427140
v 10.847274 -2.063768 -61.447067
v 10.855477 -2.079213 -61.466449
v 11.029339 -2.224748 -61.323081
v 10.637212 -1.835189 -61.678795
v 10.656623 -1.843226 -61.694289
v 10.671519 -1.856091 -61.711439
v 10.680882 -1.872906 -61.729076
v 10.790961 -2.032840 -61.567378
v 10.548490 -1.601518 -61.976258
v 10.569087 -1.612678 -61.987777
v 10.584892 -1.627938 -62.001878
v 10.594827 -1.646259 -62.017597
v 10.641110 -1.809360 -61.851869
v 10.556627 -1.361558 -62.281726
v 10.577115 -1.375924 -62.289164
v 10.592836 -1.393645 -62.300132
v 10.602719 -1.413512 -62.313884
v 10.589999 -1.569535 -62.157165
v 10.661111 -1.130387 -62.576007
v 10.680203 -1.147842 -62.579512
v 10.694853 -1.167933 -62.587463
v 10.704063 -1.189290 -62.599318
v 10.641110 -1.329711 -62.462461
v 10.855377 -0.922530 -62.840608
v 10.871874 -0.942762 -62.840578
v 10.884532 -0.964984 -62.845816
v 10.892490 -0.987681 -62.855965
v 10.790961 -1.106230 -62.746951
v 11.127220 -0.751048 -63.058905
v 11.140084 -0.773571 -63.055958
v 11.149955 -0.797551 -63.058958
v 11.156160 -0.821354 -63.067700
v 11.029339 -0.914322 -62.991249
v 11.459557 -0.626715 -63.217180
v 11.467981 -0.650900 -63.212119
v 11.474445 -0.676155 -63.213496
v 11.478508 -0.700758 -63.221218
v 11.339999 -0.767067 -63.178705
v 11.831507 -0.557344 -63.305490
v 11.834961 -0.582455 -63.299248
v 11.837611 -0.608422 -63.299720
v 11.839277 -0.633473 -63.306873
v 11.701770 -0.674498 -63.296545
v 12.089999 -0.642925 -63.336738
v 12.839998 -8.311046 -69.104858
v 12.478227 -0.674498 -63.296545
v 12.839999 -0.767067 -63.178705
v 13.150658 -8.458302 -68.917402
v 12.478226 -8.218478 -69.222698
v 12.089999 -0.642925 -63.336738
v 12.089998 -8.186904 -69.262891
v 11.701770 -0.674498 -63.296545
v 11.701769 -8.218477 -69.222698
v 11.339999 -0.767067 -63.178705
v 11.339998 -8.311046 -69.104858
v 11.029339 -0.914322 -62.991249
v 11.029337 -8.458301 -68.917402
v 10.790961 -1.106230 -62.746951
v 10.790960 -8.650209 -68.673105
v 10.641110 -1.329711 -62.462461
v 10.641109 -8.873689 -68.388614
v 10.589999 -1.569535 -62.157165
v 10.589998 -9.113514 -68.083318
v 10.641110 -1.809360 -61.851869
v 10.641109 -9.353339 -67.778022
v 10.790961 -2.032840 -61.567378
v 10.790960 -9.576819 -67.493532
v 11.029339 -2.224748 -61.323081
v 11.029337 -9.768727 -67.249234
v 11.339999 -2.372003 -61.135624
v 11.339998 -9.915983 -67.061778
v 11.701770 -2.464572 -61.017785
v 11.339999 -2.372003 -61.135624
v 11.701769 -10.008551 -66.943938
v 12.089999 -2.496146 -60.977592
v 12.089998 -10.040125 -66.903745
v 12.478227 -2.464572 -61.017785
v 12.478226 -10.008552 -66.943938
v 12.839999 -2.372004 -61.135625
v 12.839998 -9.915983 -67.061778
v 13.150659 -2.224748 -61.323081
v 13.150658 -9.768727 -67.249234
v 13.389037 -2.032841 -61.567378
v 13.389036 -9.576820 -67.493532
v 13.538887 -1.809360 -61.851869
v 13.538886 -9.353339 -67.778022
v 13.589999 -1.569535 -62.157165
v 13.589998 -9.113515 -68.083318
v 13.538887 -1.329711 -62.462461
v 13.538886 -8.873690 -68.388614
v 13.389037 -1.106230 -62.746951
v 13.389036 -8.650209 -68.673105
v 13.150659 -0.914323 -62.991249
v 13.006101 0.176230 -64.217640
v 13.514999 0.033793 -64.036317
v 12.889999 -0.634931 -63.185034
v 12.879999 0.651900 -62.152142
v 13.348492 0.659083 -62.231338
v 13.044349 0.793717 -62.402727
v 12.703530 0.889111 -62.524163
v 13.207227 0.496790 -61.954688
v 13.616162 0.059248 -61.397698
v 13.669999 -0.193367 -61.076119
v 13.994612 -0.150281 -61.201019
v 13.616162 -0.445982 -60.754541
v 13.982370 -0.381298 -60.906936
v 13.458319 -0.681382 -60.454877
v 13.897404 -0.606400 -60.620381
v 12.498933 -1.136139 -59.875972
v 12.089999 -1.169396 -59.833635
v 12.214834 -1.403953 -59.605097
v 11.681065 -1.136139 -59.875972
v 11.840863 -1.396391 -59.614725
v 11.299999 -1.038633 -60.000097
v 11.476467 -1.343904 -59.681540
v 10.563836 -0.445981 -60.754541
v 10.509999 -0.193367 -61.076119
v 10.185385 -0.304512 -61.004684
v 10.563836 0.059249 -61.397698
v 10.197628 -0.073496 -61.298767
v 10.721679 0.294648 -61.697361
v 10.282593 0.151607 -61.585321
v 11.681065 0.749406 -62.276266
v 12.089999 0.782663 -62.318603
v 11.965164 0.949160 -62.600605
v 12.498933 0.749406 -62.276266
v 12.339134 0.941597 -62.590978
v 13.006101 0.475056 -63.982899
v 12.456350 0.785407 -63.845874
v 12.992191 0.708226 -63.747623
v 12.461998 0.553427 -64.082664
v 11.906430 0.796528 -63.860031
v 11.903600 0.564719 -64.097040
v 11.363565 0.741162 -63.789549
v 11.352365 0.508499 -64.025471
v 10.848616 0.621435 -63.637139
v 10.829476 0.386927 -63.870711
v 10.381373 0.441951 -63.408655
v 10.355029 0.204675 -63.638704
v 9.979791 0.209605 -63.112879
v 9.947255 -0.031253 -63.338368
v 9.659303 -0.066674 -62.761177
v 9.621826 -0.311791 -62.981244
v 9.432226 -0.376267 -62.367066
v 9.391248 -0.626158 -62.581056
v 9.307285 -0.707277 -61.945690
v 9.264381 -0.962272 -62.153183
v 9.289282 -1.046985 -61.513243
v 9.246101 -1.307218 -61.714069
v 9.378910 -1.382335 -61.086343
v 9.337110 -1.647738 -61.280587
v 9.572723 -1.700440 -60.681397
v 9.533912 -1.970747 -60.869397
v 9.863274 -1.989075 -60.313965
v 9.828942 -2.263832 -60.496300
v 10.239396 -2.237148 -59.998168
v 10.210863 -2.515731 -60.175634
v 10.686636 -2.435126 -59.746142
v 10.664999 -2.716761 -59.919723
v 11.187806 -2.575401 -59.567573
v 11.173896 -2.859199 -59.738400
v 11.723647 -2.652582 -59.469321
v 11.717999 -2.937570 -59.638634
v 12.273567 -2.663703 -59.455165
v 12.276398 -2.948862 -59.624259
v 12.816433 -2.608337 -59.525646
v 12.827633 -2.892642 -59.695827
v 13.331382 -2.488611 -59.678057
v 13.350521 -2.771070 -59.850588
v 13.798625 -2.309126 -59.906541
v 13.824969 -2.588818 -60.082595
v 14.200207 -2.076780 -60.202317
v 14.232742 -2.352890 -60.382931
v 14.558171 -2.072352 -60.740055
v 14.520694 -1.800502 -60.554018
v 14.788749 -1.757985 -61.140243
v 14.915616 -1.421871 -61.568115
v 14.872712 -1.159898 -61.369506
v 14.933897 -1.076926 -62.007230
v 14.890715 -0.820190 -61.801953
v 14.842887 -0.736406 -62.440712
v 14.801087 -0.484840 -62.228853
v 14.646086 -0.413396 -62.851902
v 14.607275 -0.166735 -62.633799
v 14.351056 -0.120311 -63.224999
v 14.316724 0.121900 -63.001231
v 13.969134 0.131587 -63.545664
v 13.940602 0.369973 -63.317028
v 13.514999 0.332618 -63.801576
v 13.493362 0.567951 -63.569053
v 14.520694 -1.800502 -60.554018
v 14.558171 -2.072352 -60.740055
v 14.747772 -1.490909 -60.948130
v 14.627632 -1.224847 -60.790986
v 13.604272 0.490382 -62.016582
v 13.550450 0.701571 -62.490808
v 13.723875 0.665018 -62.770994
v 13.197499 0.857811 -62.689700
v 13.856948 0.551916 -63.052802
v 13.329012 0.839811 -62.993504
v 13.429925 0.740945 -63.293436
v 13.458319 0.294648 -61.697361
v 13.801860 0.294097 -61.766712
v 13.847276 0.505798 -62.241589
v 14.055949 0.445997 -62.492181
v 14.216069 0.315057 -62.751281
v 13.933661 0.077772 -61.491330
v 14.076572 0.278013 -61.951621
v 14.312472 0.191164 -62.167779
v 14.493485 0.039469 -62.400458
v 14.286049 -0.505766 -60.953871
v 14.300256 -0.237677 -61.295148
v 14.546824 -0.685687 -61.051549
v 14.562718 -0.385763 -61.433352
v 14.229525 0.026973 -61.632047
v 14.764113 -0.584448 -61.606214
v 14.483588 -0.089687 -61.810257
v 14.678537 -0.264257 -62.013816
v 14.187449 -0.766992 -60.621331
v 14.436516 -0.977933 -60.679521
v 14.746924 -0.908799 -61.193315
v 13.742981 -0.816937 -60.352368
v 14.008245 -1.011315 -60.310308
v 14.236032 -1.251269 -60.331565
v 14.410819 -1.520446 -60.414690
v 13.525035 -1.004819 -60.113195
v 13.458319 -0.681382 -60.454877
v 13.207227 -0.883524 -60.197551
v 13.251942 -1.162825 -59.912054
v 13.755324 -1.229347 -60.032754
v 13.742981 -0.816937 -60.352368
v 13.438405 -1.412709 -59.799334
v 13.598525 -1.700327 -59.759915
v 13.953077 -1.495192 -60.021052
v 13.721389 -2.006078 -59.796481
v 14.104818 -1.784235 -60.078887
v 12.879999 -1.038633 -60.000097
v 12.934195 -1.284882 -59.756674
v 13.069668 -1.554354 -59.619021
v 13.186001 -1.858792 -59.558189
v 13.275267 -2.177450 -59.578326
v 12.584007 -1.366302 -59.653028
v 12.663283 -1.648839 -59.498741
v 12.731359 -1.964497 -59.423627
v 12.783595 -2.291764 -59.432804
v 11.800883 -1.683756 -59.454291
v 12.234867 -1.692533 -59.443119
v 11.766552 -2.003561 -59.373899
v 12.252069 -2.013379 -59.361400
v 12.265269 -2.344628 -59.365508
v 11.740208 -2.334009 -59.379025
v 11.378010 -1.622847 -59.531829
v 11.293464 -1.935419 -59.460644
v 11.228588 -2.260317 -59.472835
v 11.135649 -1.248511 -59.802975
v 10.982499 -1.512145 -59.672752
v 10.850986 -1.811572 -59.618301
v 10.750073 -2.126383 -59.643333
v 10.831505 -1.113877 -59.974364
v 10.972770 -0.883524 -60.197551
v 10.575725 -0.945176 -60.189120
v 10.332721 -1.160133 -60.120863
v 10.629548 -1.355906 -59.871644
v 10.124049 -1.417758 -60.119624
v 10.456123 -1.636779 -59.840811
v 9.963929 -1.700495 -60.185488
v 10.323049 -1.937355 -59.883966
v 10.721679 -0.681381 -60.454877
v 10.378138 -0.748891 -60.438990
v 10.103426 -0.932349 -60.410832
v 9.867525 -1.162925 -60.444026
v 9.686512 -1.424907 -60.536310
v 10.246336 -0.532565 -60.714372
v 9.950473 -0.681308 -60.730406
v 9.696410 -0.882074 -60.801548
v 9.501460 -1.121182 -60.922952
v 9.893949 -0.148569 -61.408581
v 9.879742 -0.416658 -61.067305
v 9.633173 -0.286074 -61.560256
v 9.415884 -0.800991 -61.330555
v 9.617279 -0.585998 -61.178453
v 9.433073 -0.476639 -61.743453
v 9.992549 0.112657 -61.741121
v 9.743482 0.006172 -61.932284
v 9.552366 -0.160591 -62.145782
v 10.437016 0.362144 -61.853335
v 10.171753 0.356980 -62.052144
v 9.943966 0.279508 -62.280240
v 9.769179 0.135008 -62.522078
v 10.654962 0.550026 -62.092508
v 10.972770 0.496791 -61.954688
v 10.928056 0.708031 -62.293649
v 10.741592 0.758374 -62.563118
v 10.424674 0.575012 -62.329699
v 10.581473 0.728566 -62.851890
v 10.226921 0.523431 -62.590753
v 10.458608 0.620640 -63.140287
v 10.075179 0.398797 -62.857882
v 11.299999 0.651900 -62.152142
v 11.245802 0.830089 -62.449028
v 11.110330 0.900019 -62.743431
v 10.993996 0.887031 -63.053616
v 10.904731 0.792012 -63.358443
v 11.595991 0.911508 -62.552675
v 11.516715 0.994504 -62.863711
v 11.448639 0.992736 -63.188178
v 11.396402 0.906326 -63.503964
v 12.379114 1.029421 -62.908161
v 11.945131 1.038198 -62.919333
v 12.413446 1.031800 -63.237906
v 11.914728 0.959189 -63.571260
v 11.927928 1.041618 -63.250405
v 12.439790 0.948571 -63.557743
v 12.801987 0.968512 -62.830623
v 12.886534 0.963658 -63.151162
v 12.951409 0.874879 -63.463933
v 12.089999 0.519939 -61.984155
v 12.879999 0.651900 -62.152142
v 12.498933 0.749406 -62.276266
v 12.089999 0.782663 -62.318603
v 11.299999 0.651900 -62.152142
v 11.089999 0.163286 -61.530137
v 11.681065 0.749406 -62.276266
v 13.089999 0.163286 -61.530137
v 13.669999 -0.193367 -61.076119
v 13.616162 0.059248 -61.397698
v 13.458319 0.294648 -61.697361
v 13.207227 0.496790 -61.954688
v 13.089999 -0.550019 -60.622101
v 12.879999 -1.038633 -60.000097
v 13.207227 -0.883524 -60.197551
v 13.458319 -0.681382 -60.454877
v 13.616162 -0.445982 -60.754541
v 12.089999 -0.906672 -60.168083
v 11.299999 -1.038633 -60.000097
v 11.681065 -1.136139 -59.875972
v 12.089999 -1.169396 -59.833635
v 12.498933 -1.136139 -59.875972
v 11.089999 -0.550019 -60.622101
v 10.509999 -0.193367 -61.076119
v 10.563836 -0.445981 -60.754541
v 10.721679 -0.681381 -60.454877
v 10.972770 -0.883524 -60.197551
v 10.972770 0.496791 -61.954688
v 10.721679 0.294648 -61.697361
v 10.563836 0.059249 -61.397698
v 11.089999 -1.367856 -61.264551
v 11.089999 -1.233393 -61.546145
v 11.089999 -0.550019 -60.622101
v 12.089999 -1.724509 -60.810533
v 11.826291 -1.684098 -60.972399
v 12.089999 -0.906672 -60.168083
v 11.339998 -9.915983 -67.061778
v 13.969134 -0.167238 -63.780406
v 13.221369 -0.792004 -62.985081
v 14.351056 -0.419136 -63.459740
v 13.475639 -0.996705 -62.724496
v 14.646086 -0.712221 -63.086643
v 13.635480 -1.235084 -62.421040
v 14.842887 -1.035231 -62.675453
v 14.933896 -1.375751 -62.241971
v 13.689999 -1.490897 -62.095391
v 14.915616 -1.720697 -61.802857
v 13.635480 -1.746710 -61.769742
v 14.788749 -2.056811 -61.374984
v 13.475639 -1.985090 -61.466285
v 14.558171 -2.371177 -60.974796
v 14.232742 -2.651715 -60.617672
v 13.221369 -2.189791 -61.205701
v 13.824969 -2.887644 -60.317336
v 12.889999 -2.346863 -61.005748
v 13.350521 -3.069896 -60.085330
v 12.504109 -2.445603 -60.880052
v 12.827633 -3.191467 -59.930568
v 12.276397 -3.247688 -59.859000
v 12.089999 -2.479282 -60.837179
v 11.717999 -3.236395 -59.873376
v 11.675888 -2.445603 -60.880052
v 11.173896 -3.158025 -59.973141
v 11.289999 -2.346863 -61.005748
v 10.664999 -3.015586 -60.154464
v 10.210863 -2.814556 -60.410376
v 10.958628 -2.189790 -61.205701
v 9.828942 -2.562658 -60.731041
v 10.704358 -1.985089 -61.466285
v 9.533911 -2.269573 -61.104138
v 10.544518 -1.746710 -61.769742
v 9.337110 -1.946563 -61.515329
v 9.246101 -1.606043 -61.948810
v 10.489999 -1.490897 -62.095391
v 9.264381 -1.261097 -62.387925
v 10.544517 -1.235084 -62.421040
v 9.391248 -0.924983 -62.815797
v 10.704358 -0.996704 -62.724496
v 9.621826 -0.610617 -63.215985
v 9.947255 -0.330079 -63.573109
v 10.958628 -0.792003 -62.985080
v 10.355029 -0.094151 -63.873446
v 11.289999 -0.634931 -63.185034
v 10.829476 0.088102 -64.105452
v 11.675888 -0.536191 -63.310730
v 11.352364 0.209674 -64.260213
v 11.903600 0.265894 -64.331781
v 12.089999 -0.502512 -63.353602
v 12.461998 0.254601 -64.317406
v 12.504109 -0.536191 -63.310730
v 13.150658 -8.458302 -68.917402
v 12.933770 -8.833485 -68.936323
v 12.839998 -8.311046 -69.104858
v 13.123404 -8.986150 -68.741980
v 12.686635 -8.716340 -69.085447
v 12.839998 -8.311046 -69.104858
v 12.686635 -8.716340 -69.085447
v 12.478226 -8.218478 -69.222698
v 12.398840 -8.642701 -69.179191
v 12.089998 -8.186904 -69.262891
v 12.089998 -8.617583 -69.211165
v 11.701769 -8.218477 -69.222698
v 11.781155 -8.642701 -69.179191
v 11.339998 -8.311046 -69.104858
v 11.493360 -8.716341 -69.085447
v 11.029337 -8.458301 -68.917402
v 11.246225 -8.833485 -68.936322
v 10.790960 -8.650209 -68.673105
v 11.056591 -8.986150 -68.741980
v 10.641109 -8.873689 -68.388614
v 10.937382 -9.163933 -68.515663
v 10.589998 -9.113514 -68.083318
v 10.896723 -9.354717 -68.272795
v 10.641109 -9.353339 -67.778022
v 10.937383 -9.545502 -68.029927
v 10.790960 -9.576819 -67.493532
v 11.056591 -9.723284 -67.803610
v 11.029337 -9.768727 -67.249234
v 11.246225 -9.875950 -67.609267
v 11.339998 -9.915983 -67.061778
v 11.493360 -9.993094 -67.460142
v 11.701769 -10.008551 -66.943938
v 11.781155 -10.066734 -67.366399
v 12.089998 -10.040125 -66.903745
v 12.089998 -10.091851 -67.334424
v 12.478226 -10.008552 -66.943938
v 12.398840 -10.066734 -67.366399
v 12.839998 -9.915983 -67.061778
v 12.686635 -9.993094 -67.460142
v 13.150658 -9.768727 -67.249234
v 12.933770 -9.875950 -67.609267
v 13.389036 -9.576820 -67.493532
v 13.123404 -9.723285 -67.803610
v 13.538886 -9.353339 -67.778022
v 13.242613 -9.545502 -68.029927
v 13.589998 -9.113515 -68.083318
v 13.283273 -9.354718 -68.272795
v 13.538886 -8.873690 -68.388614
v 13.242613 -9.163933 -68.515663
v 13.389036 -8.650209 -68.673105
v 12.686635 -8.716340 -69.085447
v 12.933770 -8.833485 -68.936323
v 12.398840 -8.642701 -69.179191
v 12.089998 -8.617583 -69.211165
v 13.123404 -8.986150 -68.741980
v 11.781155 -8.642701 -69.179191
v 13.242613 -9.163933 -68.515663
v 11.493360 -8.716341 -69.085447
v 13.283273 -9.354718 -68.272795
v 11.246225 -8.833485 -68.936322
v 13.242613 -9.545502 -68.029927
v 11.056591 -8.986150 -68.741980
v 13.123404 -9.723285 -67.803610
v 10.937382 -9.163933 -68.515663
v 12.933770 -9.875950 -67.609267
v 10.896723 -9.354717 -68.272795
v 12.686635 -9.993094 -67.460142
v 10.937383 -9.545502 -68.029927
v 12.398840 -10.066734 -67.366399
v 11.056591 -9.723284 -67.803610
v 12.089998 -10.091851 -67.334424
v 11.246225 -9.875950 -67.609267
v 11.781155 -10.066734 -67.366399
v 11.493360 -9.993094 -67.460142
v 14.410819 -1.520446 -60.414690
v 14.236032 -1.251269 -60.331565
v 14.008245 -1.011315 -60.310308
v 13.006101 0.176230 -64.217640
v 13.006101 0.475056 -63.982899
v 13.514999 0.033793 -64.036317
v 12.461998 0.553427 -64.082664
v 13.514999 0.332618 -63.801576
v 13.969134 -0.167238 -63.780406
v 13.969134 0.131587 -63.545664
v 14.351056 -0.419136 -63.459740
v 14.351056 -0.120311 -63.224999
v 14.646086 -0.712221 -63.086643
v 14.646086 -0.413396 -62.851902
v 14.842887 -1.035231 -62.675453
v 14.842887 -0.736406 -62.440712
v 14.933896 -1.375751 -62.241971
v 14.933897 -1.076926 -62.007230
v 14.915616 -1.720697 -61.802857
v 14.915616 -1.421871 -61.568115
v 14.788749 -2.056811 -61.374984
v 14.788749 -1.757985 -61.140243
v 14.558171 -2.371177 -60.974796
v 14.558171 -2.072352 -60.740055
v 14.232742 -2.651715 -60.617672
v 14.232742 -2.352890 -60.382931
v 13.824969 -2.887644 -60.317336
v 13.824969 -2.588818 -60.082595
v 13.350521 -3.069896 -60.085330
v 13.350521 -2.771070 -59.850588
v 12.827633 -3.191467 -59.930568
v 12.827633 -2.892642 -59.695827
v 12.276397 -3.247688 -59.859000
v 12.276398 -2.948862 -59.624259
v 11.717999 -3.236395 -59.873376
v 11.717999 -2.937570 -59.638634
v 11.173896 -3.158025 -59.973141
v 11.173896 -2.859199 -59.738400
v 10.664999 -3.015586 -60.154464
v 10.664999 -2.716761 -59.919723
v 10.664999 -3.015586 -60.154464
v 10.664999 -2.716761 -59.919723
v 10.210863 -2.814556 -60.410376
v 10.210863 -2.515731 -60.175634
v 9.828942 -2.562658 -60.731041
v 9.828942 -2.263832 -60.496300
v 9.533911 -2.269573 -61.104138
v 9.533912 -1.970747 -60.869397
v 9.337110 -1.946563 -61.515329
v 9.337110 -1.647738 -61.280587
v 9.246101 -1.606043 -61.948810
v 9.246101 -1.307218 -61.714069
v 9.264381 -1.261097 -62.387925
v 9.264381 -0.962272 -62.153183
v 9.391248 -0.924983 -62.815797
v 9.391248 -0.626158 -62.581056
v 9.621826 -0.610617 -63.215985
v 9.621826 -0.311791 -62.981244
v 9.947255 -0.330079 -63.573109
v 9.947255 -0.031253 -63.338368
v 10.355029 -0.094151 -63.873446
v 10.355029 0.204675 -63.638704
v 10.829476 0.088102 -64.105452
v 10.829476 0.386927 -63.870711
v 11.352364 0.209674 -64.260213
v 11.352365 0.508499 -64.025471
v 11.903600 0.265894 -64.331781
v 11.903600 0.564719 -64.097040
v 12.461998 0.254601 -64.317406
v 11.089999 -1.081440 -61.773743
v 11.089999 0.163286 -61.530137
v 11.089999 -0.896296 -61.975268
v 11.089999 -0.654551 -62.172587
v 11.089999 -0.654551 -62.172587
v 11.353707 -0.614139 -62.334452
v 11.089999 0.163286 -61.530137
v 11.589999 -0.546462 -62.454770
v 12.089999 0.519939 -61.984155
v 11.826291 -0.445591 -62.549014
v 12.089999 -0.297899 -62.626605
v 12.089999 -0.297899 -62.626605
v 12.353707 -0.445591 -62.549014
v 12.089999 0.519939 -61.984155
v 12.589999 -0.546462 -62.454770
v 13.089999 0.163286 -61.530137
v 12.826291 -0.614140 -62.334452
v 13.089999 -0.654551 -62.172587
v 13.089999 -0.654551 -62.172587
v 13.089999 -0.896296 -61.975268
v 13.089999 0.163286 -61.530137
v 13.089999 -1.081441 -61.773743
v 13.089999 -0.550019 -60.622101
v 13.089999 -1.233393 -61.546144
v 13.089999 -1.367856 -61.264551
v 11.589999 -1.616420 -61.092717
v 11.089999 -0.550019 -60.622101
v 11.353707 -1.515549 -61.186960
v 11.089999 -1.367856 -61.264551
v 13.089999 -1.367856 -61.264551
v 12.826291 -1.515549 -61.186960
v 13.089999 -0.550019 -60.622101
v 12.589999 -1.616420 -61.092717
v 12.089999 -0.906672 -60.168083
v 12.353707 -1.684098 -60.972399
v 12.089999 -1.724509 -60.810533
v 13.089999 -1.233393 -61.546144
v 12.089999 -1.535458 -62.130396
v 13.089999 -1.367856 -61.264551
v 13.089999 -1.081441 -61.773743
v 12.089999 -1.535458 -62.130396
v 12.826291 -1.515549 -61.186960
v 13.089999 -0.654551 -62.172587
v 12.089999 -1.535458 -62.130396
v 13.089999 -0.896296 -61.975268
v 12.826291 -0.614140 -62.334452
v 12.089999 -1.535458 -62.130396
v 12.089999 -1.535458 -62.130396
v 12.589999 -0.546462 -62.454770
v 12.089999 -0.297899 -62.626605
v 12.089999 -1.535458 -62.130396
v 12.353707 -0.445591 -62.549014
v 11.826291 -0.445591 -62.549014
v 12.089999 -1.535458 -62.130396
v 12.089999 -1.535458 -62.130396
v 11.589999 -0.546462 -62.454770
v 11.089999 -0.654551 -62.172587
v 12.089999 -1.535458 -62.130396
v 11.353707 -0.614139 -62.334452
v 11.089999 -0.896296 -61.975268
v 12.089999 -1.535458 -62.130396
v 12.089999 -1.535458 -62.130396
v 11.089999 -1.081440 -61.773743
v 11.089999 -1.367856 -61.264551
v 12.089999 -1.535458 -62.130396
v 11.089999 -1.233393 -61.546145
v 11.353707 -1.515549 -61.186960
v 12.089999 -1.535458 -62.130396
v 12.089999 -1.535458 -62.130396
v 11.589999 -1.616420 -61.092717
v 12.089999 -1.724509 -60.810533
v 12.089999 -1.535458 -62.130396
v 11.826291 -1.684098 -60.972399
v 12.353707 -1.684098 -60.972399
v 12.089999 -1.535458 -62.130396
v 12.089999 -1.535458 -62.130396
v 11.589999 -1.616420 -61.092717
v 12.589999 -1.616420 -61.092717
v 12.089999 -1.535458 -62.130396
f 1 2 3
f 1 3 4
f 1 5 2
f 2 5 55
f 2 56 3
f 2 57 56
f 2 55 57
f 3 40 4
f 3 59 40
f 3 56 59
f 4 40 39
f 5 69 55
f 6 7 8
f 6 9 7
f 7 9 10
f 7 96 8
f 7 97 96
f 7 10 97
f 8 96 99
f 9 11 10
f 10 11 12
f 10 110 97
f 10 12 110
f 11 13 12
f 12 13 14
f 12 115 110
f 12 14 115
f 13 15 14
f 14 15 16
f 14 120 115
f 14 16 120
f 15 17 16
f 16 17 18
f 16 125 120
f 16 18 125
f 17 19 18
f 18 19 20
f 18 130 125
f 18 20 130
f 19 21 20
f 20 21 22
f 20 135 130
f 20 22 135
f 21 23 22
f 22 23 24
f 22 140 135
f 22 24 140
f 23 25 24
f 24 25 26
f 24 145 140
f 24 26 145
f 25 27 26
f 26 27 28
f 26 150 145
f 26 28 150
f 27 29 28
f 28 29 30
f 28 155 150
f 28 30 155
f 29 31 30
f 30 31 32
f 30 160 155
f 30 32 160
f 31 33 32
f 32 33 34
f 32 165 160
f 32 34 165
f 33 35 34
f 34 35 36
f 34 170 165
f 34 36 170
f 35 37 36
f 36 37 38
f 36 175 170
f 36 38 175
f 37 39 38
f 38 39 40
f 38 68 175
f 38 40 68
f 40 59 68
f 41 42 43
f 41 43 44
f 41 45 42
f 42 45 65
f 42 64 43
f 42 67 64
f 42 65 67
f 43 54 44
f 43 64 61
f 43 61 54
f 44 54 53
f 45 180 65
f 46 47 48
f 46 49 47
f 46 48 95
f 47 49 50
f 47 50 78
f 47 78 83
f 47 83 48
f 48 88 94
f 48 94 95
f 48 83 88
f 49 51 50
f 50 51 52
f 50 52 73
f 50 73 78
f 51 53 52
f 52 53 54
f 52 54 63
f 52 63 73
f 54 61 63
f 55 69 70
f 55 71 57
f 55 70 71
f 56 58 59
f 56 60 58
f 56 57 60
f 57 72 60
f 57 71 72
f 58 61 62
f 58 63 61
f 58 62 59
f 58 60 63
f 59 62 68
f 60 73 63
f 60 72 73
f 61 64 62
f 62 64 66
f 62 66 68
f 64 67 66
f 65 178 177
f 65 177 67
f 65 180 178
f 66 176 175
f 66 175 68
f 66 67 176
f 67 177 176
f 69 74 70
f 70 74 75
f 70 76 71
f 70 75 76
f 71 77 72
f 71 76 77
f 72 78 73
f 72 77 78
f 74 79 75
f 75 79 80
f 75 81 76
f 75 80 81
f 76 82 77
f 76 81 82
f 77 83 78
f 77 82 83
f 79 84 80
f 80 84 85
f 80 86 81
f 80 85 86
f 81 87 82
f 81 86 87
f 82 88 83
f 82 87 88
f 84 91 85
f 85 89 90
f 85 90 86
f 85 91 89
f 86 90 92
f 86 92 87
f 87 92 93
f 87 93 88
f 88 93 94
f 96 98 99
f 96 100 98
f 96 97 100
f 97 111 100
f 97 110 111
f 98 101 102
f 98 103 101
f 98 100 103
f 98 102 99
f 100 112 103
f 100 111 112
f 101 104 105
f 101 105 106
f 101 103 104
f 101 106 102
f 103 113 104
f 103 112 113
f 104 114 107
f 104 107 105
f 104 113 114
f 105 107 108
f 105 108 109
f 105 109 106
f 110 116 111
f 110 115 116
f 111 117 112
f 111 116 117
f 112 118 113
f 112 117 118
f 113 119 114
f 113 118 119
f 115 121 116
f 115 120 121
f 116 122 117
f 116 121 122
f 117 123 118
f 117 122 123
f 118 124 119
f 118 123 124
f 120 126 121
f 120 125 126
f 121 127 122
f 121 126 127
f 122 128 123
f 122 127 128
f 123 129 124
f 123 128 129
f 125 131 126
f 125 130 131
f 126 132 127
f 126 131 132
f 127 133 128
f 127 132 133
f 128 134 129
f 128 133 134
f 130 136 131
f 130 135 136
f 131 137 132
f 131 136 137
f 132 138 133
f 132 137 138
f 133 139 134
f 133 138 139
f 135 141 136
f 135 140 141
f 136 142 137
f 136 141 142
f 137 143 138
f 137 142 143
f 138 144 139
f 138 143 144
f 140 146 141
f 140 145 146
f 141 147 142
f 141 146 147
f 142 148 143
f 142 147 148
f 143 149 144
f 143 148 149
f 145 151 146
f 145 150 151
f 146 152 147
f 146 151 152
f 147 153 148
f 147 152 153
f 148 154 149
f 148 153 154
f 150 156 151
f 150 155 156
f 151 157 152
f 151 156 157
f 152 158 153
f 152 157 158
f 153 159 154
f 153 158 159
f 155 161 156
f 155 160 161
f 156 162 157
f 156 161 162
f 157 163 158
f 157 162 163
f 158 164 159
f 158 163 164
f 160 166 161
f 160 165 166
f 161 167 162
f 161 166 167
f 162 168 163
f 162 167 168
f 163 169 164
f 163 168 169
f 165 171 166
f 165 170 171
f 166 172 167
f 166 171 172
f 167 173 168
f 167 172 173
f 168 174 169
f 168 173 174
f 170 176 171
f 170 175 176
f 171 177 172
f 171 176 177
f 172 178 173
f 172 177 178
f 173 179 174
f 173 178 179
f 178 180 179
f 181 182 183
f 181 183 184
f 181 185 182
f 182 185 186
f 183 229 184
f 184 229 228
f 185 187 186
f 186 187 188
f 187 189 188
f 188 189 190
f 189 191 190
f 190 191 192
f 191 193 192
f 192 193 194
f 193 195 194
f 194 195 196
f 195 197 196
f 196 197 198
f 197 199 198
f 198 199 200
f 199 201 200
f 200 201 202
f 201 203 202
f 202 203 204
f 203 205 204
f 204 205 206
f 205 489 206
f 207 208 209
f 207 210 208
f 208 210 211
f 210 212 211
f 211 212 213
f 212 214 213
f 213 214 215
f 214 216 215
f 215 216 217
f 216 218 217
f 217 218 219
f 218 220 219
f 219 220 221
f 220 222 221
f 221 222 223
f 222 224 223
f 223 224 225
f 224 226 225
f 225 226 227
f 226 228 227
f 227 228 229
f 230 231 232
f 230 542 541
f 230 232 542
f 231 490 232
f 232 490 491
f 233 234 235
f 233 235 236
f 233 237 234
f 233 236 262
f 234 237 331
f 234 332 235
f 234 331 340
f 234 340 332
f 235 332 334
f 235 334 236
f 236 263 262
f 236 450 263
f 236 334 450
f 237 338 331
f 238 239 240
f 238 339 338
f 238 343 339
f 238 240 343
f 239 241 242
f 239 242 240
f 240 242 347
f 240 347 348
f 240 348 343
f 241 243 244
f 241 244 242
f 242 244 355
f 242 355 347
f 243 358 244
f 244 358 359
f 244 359 355
f 245 246 247
f 245 374 373
f 245 378 374
f 245 247 378
f 246 248 249
f 246 249 247
f 247 249 382
f 247 382 383
f 247 383 378
f 248 250 251
f 248 251 249
f 249 251 388
f 249 388 382
f 250 391 251
f 250 396 395
f 250 395 391
f 251 391 392
f 251 392 388
f 252 253 254
f 252 405 404
f 252 409 405
f 252 254 409
f 253 255 256
f 253 256 254
f 254 256 413
f 254 413 414
f 254 414 409
f 255 257 258
f 255 258 256
f 256 258 419
f 256 419 413
f 257 422 258
f 257 427 426
f 257 426 422
f 258 422 423
f 258 423 419
f 259 260 261
f 259 436 435
f 259 440 436
f 259 261 440
f 260 262 263
f 260 263 261
f 261 263 444
f 261 444 445
f 261 445 440
f 263 450 444
f 264 265 266
f 264 267 265
f 264 266 325
f 265 267 268
f 265 447 449
f 265 268 447
f 265 449 266
f 266 452 326
f 266 326 325
f 266 449 452
f 267 269 268
f 268 269 270
f 268 270 443
f 268 443 447
f 269 271 270
f 270 271 272
f 270 439 443
f 270 272 439
f 271 273 272
f 272 273 274
f 272 433 439
f 272 274 433
f 273 275 274
f 274 275 276
f 274 434 433
f 274 276 434
f 275 277 276
f 276 277 278
f 276 278 425
f 276 425 434
f 277 279 278
f 278 279 280
f 278 421 425
f 278 280 421
f 279 281 280
f 280 281 282
f 280 282 418
f 280 418 421
f 281 283 282
f 282 283 284
f 282 416 418
f 282 284 416
f 283 285 284
f 284 285 286
f 284 286 412
f 284 412 416
f 285 287 286
f 286 287 288
f 286 408 412
f 286 288 408
f 287 289 288
f 288 289 290
f 288 402 408
f 288 290 402
f 289 291 290
f 290 291 292
f 290 403 402
f 290 292 403
f 291 293 292
f 292 293 294
f 292 294 394
f 292 394 403
f 293 295 294
f 294 295 296
f 294 390 394
f 294 296 390
f 295 297 296
f 296 297 298
f 296 298 387
f 296 387 390
f 297 299 298
f 298 299 300
f 298 386 387
f 298 300 386
f 299 301 300
f 300 301 302
f 300 381 386
f 300 302 381
f 301 303 302
f 302 303 304
f 302 377 381
f 302 304 377
f 303 305 304
f 304 305 306
f 304 371 377
f 304 306 371
f 305 307 306
f 306 307 308
f 306 372 371
f 306 308 372
f 307 309 308
f 308 311 617
f 308 309 311
f 308 617 372
f 309 310 311
f 312 313 314
f 312 314 329
f 312 329 328
f 313 315 316
f 313 316 314
f 314 352 357
f 314 316 352
f 314 357 329
f 315 317 318
f 315 318 316
f 316 354 352
f 316 318 354
f 317 319 320
f 317 320 318
f 318 320 346
f 318 346 354
f 319 321 322
f 319 322 320
f 320 342 346
f 320 322 342
f 321 323 324
f 321 324 322
f 322 335 342
f 322 324 335
f 323 325 326
f 323 326 324
f 324 337 335
f 324 326 337
f 326 452 337
f 327 328 329
f 327 329 330
f 327 330 361
f 329 357 330
f 330 349 356
f 330 356 361
f 330 357 349
f 331 338 339
f 331 339 344
f 331 344 340
f 332 333 334
f 332 340 341
f 332 341 333
f 333 335 336
f 333 336 334
f 333 341 342
f 333 342 335
f 334 336 450
f 335 337 336
f 336 451 450
f 336 337 451
f 337 452 451
f 339 351 344
f 339 343 351
f 340 344 345
f 340 345 341
f 341 345 346
f 341 346 342
f 343 348 351
f 344 353 345
f 344 351 353
f 345 354 346
f 345 353 354
f 347 349 348
f 347 355 356
f 347 356 349
f 348 350 351
f 348 349 350
f 349 357 350
f 350 352 353
f 350 353 351
f 350 357 352
f 352 354 353
f 355 359 360
f 355 360 356
f 356 360 361
f 362 363 364
f 362 364 365
f 362 366 367
f 362 368 366
f 362 365 368
f 362 367 363
f 364 373 365
f 365 373 374
f 365 375 368
f 365 374 375
f 366 368 369
f 366 369 370
f 366 619 367
f 366 370 619
f 368 376 369
f 368 375 376
f 369 371 370
f 369 376 377
f 369 377 371
f 370 371 372
f 370 618 619
f 370 372 618
f 372 617 618
f 374 379 375
f 374 378 379
f 375 380 376
f 375 379 380
f 376 381 377
f 376 380 381
f 378 383 379
f 379 383 385
f 379 385 380
f 380 385 386
f 380 386 381
f 382 384 383
f 382 388 389
f 382 389 384
f 383 384 385
f 384 389 390
f 384 387 385
f 384 390 387
f 385 387 386
f 388 392 393
f 388 393 389
f 389 393 394
f 389 394 390
f 391 399 392
f 391 395 399
f 392 401 393
f 392 399 401
f 393 403 394
f 393 401 403
f 395 396 397
f 395 397 398
f 395 398 399
f 396 404 397
f 397 404 405
f 397 405 406
f 397 406 398
f 398 400 399
f 398 406 407
f 398 407 400
f 399 400 401
f 400 402 401
f 400 407 408
f 400 408 402
f 401 402 403
f 405 409 410
f 405 410 406
f 406 410 411
f 406 411 407
f 407 411 412
f 407 412 408
f 409 414 410
f 410 417 411
f 410 414 417
f 411 416 412
f 411 417 416
f 413 415 414
f 413 419 420
f 413 420 415
f 414 415 417
f 415 420 421
f 415 418 417
f 415 421 418
f 416 417 418
f 419 423 424
f 419 424 420
f 420 424 425
f 420 425 421
f 422 430 423
f 422 426 430
f 423 432 424
f 423 430 432
f 424 434 425
f 424 432 434
f 426 427 428
f 426 428 429
f 426 429 430
f 427 435 428
f 428 435 436
f 428 436 437
f 428 437 429
f 429 431 430
f 429 437 438
f 429 438 431
f 430 431 432
f 431 433 432
f 431 438 439
f 431 439 433
f 432 433 434
f 436 440 441
f 436 441 437
f 437 441 442
f 437 442 438
f 438 442 443
f 438 443 439
f 440 445 441
f 441 448 442
f 441 445 448
f 442 447 443
f 442 448 447
f 444 446 445
f 444 450 451
f 444 451 446
f 445 446 448
f 446 451 452
f 446 449 448
f 446 452 449
f 447 448 449
f 453 454 455
f 453 455 456
f 453 457 458
f 453 459 457
f 453 460 454
f 453 456 459
f 454 460 464
f 457 480 458
f 458 476 475
f 458 480 481
f 458 482 476
f 458 481 482
f 460 461 462
f 460 462 463
f 460 465 461
f 460 463 464
f 461 465 469
f 465 466 467
f 465 467 468
f 465 470 466
f 465 468 469
f 466 470 474
f 470 471 472
f 470 472 473
f 470 475 471
f 470 473 474
f 471 475 479
f 475 476 477
f 475 477 478
f 475 478 479
f 483 484 485
f 484 686 485
f 485 686 687
f 486 487 488
f 487 711 488
f 488 711 712
f 490 492 491
f 491 492 493
f 492 494 493
f 493 494 495
f 494 496 495
f 495 496 497
f 495 497 498
f 497 499 498
f 498 499 500
f 499 501 500
f 500 501 502
f 501 503 502
f 502 503 504
f 502 504 505
f 504 506 505
f 505 506 507
f 506 508 507
f 507 508 509
f 508 510 509
f 509 510 511
f 509 511 512
f 511 513 512
f 512 513 514
f 513 515 514
f 514 515 516
f 515 517 516
f 516 517 518
f 516 518 519
f 518 520 519
f 519 520 521
f 520 522 521
f 521 522 523
f 522 524 523
f 523 524 525
f 523 525 526
f 525 527 526
f 526 527 528
f 527 529 528
f 528 529 530
f 529 531 530
f 530 531 532
f 530 532 533
f 532 534 533
f 533 534 535
f 534 536 535
f 535 536 537
f 536 538 537
f 537 538 539
f 537 539 540
f 539 541 540
f 540 541 542
f 543 544 545
f 543 546 544
f 543 592 546
f 544 547 545
f 546 592 591
f 548 549 550
f 549 551 550
f 550 551 552
f 551 553 552
f 552 553 554
f 553 555 554
f 554 555 556
f 555 557 556
f 556 557 558
f 557 559 558
f 558 559 560
f 559 561 560
f 560 561 562
f 561 563 562
f 562 563 564
f 563 565 564
f 564 565 566
f 565 567 566
f 566 567 568
f 567 569 568
f 568 569 570
f 569 571 570
f 570 571 572
f 571 573 572
f 572 573 574
f 573 575 574
f 574 575 576
f 575 577 576
f 576 577 578
f 577 579 578
f 578 579 580
f 579 581 580
f 580 581 582
f 581 583 582
f 582 583 584
f 583 585 584
f 584 585 586
f 585 587 586
f 586 587 588
f 587 589 588
f 588 589 590
f 589 591 590
f 590 591 592
f 593 594 595
f 594 596 595
f 594 597 596
f 596 597 598
f 597 599 598
f 598 599 600
f 599 601 600
f 600 601 602
f 601 603 602
f 602 603 604
f 603 605 604
f 604 605 606
f 605 607 606
f 606 607 608
f 607 609 608
f 608 609 610
f 609 611 610
f 610 611 612
f 611 613 612
f 612 613 614
f 613 615 614
f 614 615 616
f 620 621 622
f 620 623 621
f 620 685 623
f 621 624 622
f 622 624 625
f 623 685 684
f 624 626 625
f 625 626 627
f 626 628 627
f 627 628 629
f 628 630 629
f 629 630 631
f 630 632 631
f 631 632 633
f 632 634 633
f 633 634 635
f 634 636 635
f 635 636 637
f 636 638 637
f 637 638 639
f 638 640 639
f 639 640 641
f 640 642 641
f 641 642 643
f 642 644 643
f 643 644 645
f 644 646 645
f 645 646 647
f 646 648 647
f 647 648 649
f 648 650 649
f 649 650 651
f 650 652 651
f 651 652 653
f 652 654 653
f 653 654 655
f 654 656 655
f 657 658 659
f 658 660 659
f 659 660 661
f 660 662 661
f 661 662 663
f 662 664 663
f 663 664 665
f 664 666 665
f 665 666 667
f 666 668 667
f 667 668 669
f 668 670 669
f 669 670 671
f 670 672 671
f 671 672 673
f 672 674 673
f 673 674 675
f 674 676 675
f 675 676 677
f 676 678 677
f 677 678 679
f 678 680 679
f 679 680 681
f 680 682 681
f 681 682 683
f 682 684 683
f 683 684 685
f 686 688 687
f 687 688 689
f 690 691 692
f 691 693 692
f 692 693 694
f 693 695 694
f 694 695 696
f 697 698 699
f 698 700 699
f 699 700 701
f 700 702 701
f 701 702 703
f 704 705 706
f 705 707 706
f 706 707 708
f 707 709 708
f 708 709 710
f 711 713 712
f 712 713 714
f 715 716 717
f 716 718 717
f 717 718 719
f 718 720 719
f 719 720 721
f 722 723 724
f 722 725 723
f 724 726 727
f 725 730 733
f 727 764 763
f 728 729 730
f 728 731 732
f 731 734 732
f 734 737 740
f 735 736 737
f 735 738 739
f 738 741 739
f 741 744 747
f 742 743 744
f 742 745 746
f 745 748 746
f 748 751 754
f 749 750 751
f 749 752 753
f 752 755 753
f 756 757 758
f 756 759 760
f 758 761 762
f 759 763 760