# ANSI B18.3.4M - M3 x 0.5 x 8(1)
# Autodesk dbId: 153
# Units: mm
o 153_ANSI_B18.3.4M_-_M3_x_0.5_x_8(1)
v 12.890001 16.044064 -84.417349
v 12.961104 15.995348 -84.360849
v 12.607676 16.103726 -84.498815
v 12.504111 16.142804 -84.543045
v 13.221371 15.886991 -84.217396
v 13.475641 14.693905 -82.698600
v 13.214665 14.505068 -82.463727
v 13.453227 14.699220 -82.710882
v 13.221371 14.489204 -82.438016
v 12.905436 14.353665 -82.270991
v 12.890000 14.332131 -82.238063
v 12.544971 14.254524 -82.144785
v 12.504111 14.233391 -82.112367
v 12.155918 14.213875 -82.093038
v 12.090000 14.199713 -82.069495
v 11.762723 14.234271 -82.119003
v 11.675890 14.233391 -82.112367
v 11.390092 14.314431 -82.221047
v 11.290001 14.332132 -82.238063
v 11.061439 14.449319 -82.392758
v 10.958630 14.489204 -82.438016
v 10.797415 14.630459 -82.623348
v 10.704360 14.693905 -82.698600
v 10.614608 14.846468 -82.898328
v 10.544519 14.932285 -83.002057
v 10.524506 15.083775 -83.200419
v 10.490001 15.188098 -83.327706
v 10.532769 15.327469 -83.510641
v 10.544519 15.443911 -83.653355
v 10.638879 15.562237 -83.809500
v 10.704360 15.682290 -83.956811
v 10.836168 15.773328 -84.078219
v 10.958630 15.886991 -84.217396
v 11.112241 15.947479 -84.299912
v 11.290001 16.044064 -84.417349
v 11.449749 16.073747 -84.460650
v 11.675890 16.142804 -84.543045
v 11.827487 16.144197 -84.550334
v 12.090001 16.176482 -84.585917
v 12.221719 16.154404 -84.563328
v 12.840001 15.911928 -84.411020
v 12.584421 16.006869 -84.489983
v 12.921974 15.903359 -84.358215
v 13.150661 15.764672 -84.223564
v 12.478229 16.004496 -84.528860
v 13.538889 14.869635 -83.084184
v 13.593078 15.110363 -83.348732
v 13.538026 14.880062 -83.055561
v 13.590000 15.109459 -83.389480
v 13.553686 15.341885 -83.643460
v 13.538889 15.349284 -83.694776
v 13.422326 15.560082 -83.921225
v 13.389039 15.572765 -83.979266
v 13.207250 15.751244 -84.164573
v 13.259798 15.836078 -84.158100
v 12.947757 15.975082 -84.351223
v 13.241875 15.818253 -84.151580
v 12.936296 15.951929 -84.347475
v 12.599744 16.081800 -84.487075
v 13.226484 15.797195 -84.150499
v 12.927502 15.927465 -84.349860
v 12.592933 16.057221 -84.481511
v 13.214674 15.774340 -84.154931
v 12.587707 16.031664 -84.482503
v 12.215803 16.055271 -84.551598
v 12.217968 16.106456 -84.544187
v 12.216638 16.080386 -84.544527
v 12.219701 16.131702 -84.550599
v 13.475641 15.682290 -83.956812
v 13.484990 15.635925 -83.903305
v 13.463616 15.621167 -83.900690
v 13.445262 15.602742 -83.902961
v 13.431179 15.581908 -83.909965
v 13.635482 15.443910 -83.653355
v 13.622529 15.407466 -83.612477
v 13.599048 15.396207 -83.614317
v 13.578884 15.380789 -83.620415
v 13.563412 15.362261 -83.630355
v 13.690000 15.188097 -83.327706
v 13.663773 15.165054 -83.303887
v 13.639661 15.157510 -83.310455
v 13.618954 15.145281 -83.320613
v 13.603066 15.129200 -83.333669
v 13.635482 14.932285 -83.002057
v 13.606132 14.923921 -82.996926
v 13.582902 14.920072 -83.008198
v 13.562955 14.911016 -83.022394
v 13.547648 14.897369 -83.038549
v 13.453227 14.699220 -82.710882
v 13.432340 14.698813 -82.726536
v 13.475641 14.693905 -82.698600
v 13.414404 14.692713 -82.744496
v 13.400641 14.681335 -82.763538
v 13.391989 14.665455 -82.782365
v 13.389039 14.646154 -82.799693
v 13.197433 14.507636 -82.483168
v 12.892942 14.358553 -82.293385
v 13.182636 14.504091 -82.504380
v 13.432340 14.698813 -82.726536
v 12.882214 14.356999 -82.317133
v 13.171282 14.494672 -82.525917
v 13.414404 14.692713 -82.744496
v 12.873981 14.349110 -82.340616
v 12.868806 14.335423 -82.362235
v 13.164144 14.480024 -82.546313
v 13.400641 14.681335 -82.763538
v 13.150661 14.454247 -82.555396
v 13.389039 14.646154 -82.799693
v 13.391989 14.665455 -82.782365
v 12.538000 14.260931 -82.169113
v 12.532014 14.260682 -82.194521
v 12.527420 14.253793 -82.219279
v 12.524533 14.240735 -82.241698
v 12.840000 14.306991 -82.367940
v 12.154908 14.220904 -82.118159
v 12.154041 14.221190 -82.144248
v 12.153375 14.214712 -82.169528
v 12.152957 14.201912 -82.192276
v 12.478229 14.214422 -82.250100
v 11.767737 14.240988 -82.143725
v 11.772043 14.241006 -82.169473
v 11.775347 14.234321 -82.194491
v 11.777425 14.221392 -82.217074
v 12.090001 14.182849 -82.209907
v 11.400816 14.319920 -82.244206
v 11.410025 14.318883 -82.268611
v 11.417091 14.311390 -82.292599
v 11.421533 14.297951 -82.314534
v 11.701772 14.214423 -82.250100
v 11.077199 14.452741 -82.413287
v 11.090731 14.449929 -82.435432
v 11.101116 14.441074 -82.457686
v 11.107643 14.426779 -82.478532
v 11.340001 14.306991 -82.367940
v 10.817219 14.631106 -82.640343
v 10.834226 14.625910 -82.659456
v 10.847276 14.615226 -82.679382
v 10.855479 14.599782 -82.698764
v 11.029340 14.454247 -82.555396
v 10.637214 14.843805 -82.911110
v 10.656625 14.835768 -82.926604
v 10.671521 14.822903 -82.943754
v 10.680884 14.806088 -82.961392
v 10.790963 14.646154 -82.799693
v 10.548492 15.077477 -83.208573
v 10.569089 15.066317 -83.220092
v 10.584894 15.051056 -83.234193
v 10.594829 15.032736 -83.249912
v 10.641112 14.869635 -83.084184
v 10.556629 15.317436 -83.514041
v 10.577117 15.303071 -83.521479
v 10.592838 15.285350 -83.532447
v 10.602721 15.265482 -83.546199
v 10.590001 15.109460 -83.389480
v 10.661113 15.548608 -83.808322
v 10.680205 15.531153 -83.811827
v 10.694855 15.511062 -83.819778
v 10.704065 15.489704 -83.831633
v 10.641112 15.349284 -83.694776
v 10.855379 15.756465 -84.072923
v 10.871876 15.736232 -84.072893
v 10.884534 15.714011 -84.078131
v 10.892492 15.691313 -84.088280
v 10.790962 15.572765 -83.979266
v 11.127222 15.927947 -84.291220
v 11.140086 15.905424 -84.288273
v 11.149957 15.881443 -84.291273
v 11.156162 15.857641 -84.300015
v 11.029340 15.764672 -84.223564
v 11.459559 16.052280 -84.449495
v 11.467983 16.028095 -84.444434
v 11.474446 16.002840 -84.445811
v 11.478510 15.978237 -84.453533
v 11.340001 15.911928 -84.411020
v 11.831509 16.121651 -84.537805
v 11.834963 16.096540 -84.531563
v 11.837613 16.070573 -84.532035
v 11.839279 16.045522 -84.539188
v 11.701772 16.004497 -84.528860
v 12.090001 16.036070 -84.569053
v 12.840000 8.367949 -90.337173
v 12.478229 16.004496 -84.528860
v 12.840001 15.911928 -84.411020
v 13.150660 8.220693 -90.149717
v 12.478228 8.460517 -90.455014
v 12.090001 16.036070 -84.569053
v 12.090000 8.492091 -90.495206
v 11.701772 16.004497 -84.528860
v 11.701771 8.460517 -90.455013
v 11.340001 15.911928 -84.411020
v 11.340000 8.367949 -90.337173
v 11.029340 15.764672 -84.223564
v 11.029339 8.220693 -90.149717
v 10.790962 15.572765 -83.979266
v 10.790962 8.028785 -89.905420
v 10.641112 15.349284 -83.694776
v 10.641111 7.805305 -89.620929
v 10.590001 15.109460 -83.389480
v 10.590000 7.565481 -89.315633
v 10.641112 14.869635 -83.084184
v 10.641111 7.325656 -89.010337
v 10.790963 14.646154 -82.799693
v 10.790961 7.102175 -88.725847
v 11.029340 14.454247 -82.555396
v 11.029339 6.910268 -88.481549
v 11.340001 14.306991 -82.367940
v 11.340000 6.763012 -88.294093
v 11.701772 14.214423 -82.250100
v 11.340001 14.306991 -82.367940
v 11.701771 6.670443 -88.176253
v 12.090001 14.182849 -82.209907
v 12.090000 6.638870 -88.136060
v 12.478229 14.214422 -82.250100
v 12.478228 6.670443 -88.176253
v 12.840000 14.306991 -82.367940
v 12.839999 6.763012 -88.294093
v 13.150661 14.454247 -82.555396
v 13.150660 6.910268 -88.481549
v 13.389039 14.646154 -82.799693
v 13.389038 7.102175 -88.725847
v 13.538889 14.869635 -83.084184
v 13.538888 7.325656 -89.010337
v 13.590000 15.109459 -83.389480
v 13.589999 7.565480 -89.315633
v 13.538889 15.349284 -83.694776
v 13.538888 7.805304 -89.620930
v 13.389039 15.572765 -83.979266
v 13.389038 8.028785 -89.905420
v 13.150661 15.764672 -84.223564
v 13.006103 16.855225 -85.449955
v 13.515001 16.712787 -85.268632
v 12.890001 16.044064 -84.417349
v 12.880001 17.330894 -83.384457
v 13.348494 17.338078 -83.463654
v 13.044351 17.472712 -83.635042
v 12.703532 17.568105 -83.756478
v 13.207229 17.175785 -83.187003
v 13.616163 16.738243 -82.630013
v 13.670001 16.485628 -82.308434
v 13.994614 16.528713 -82.433334
v 13.616163 16.233013 -81.986856
v 13.982372 16.297697 -82.139251
v 13.458321 15.997613 -81.687192
v 13.897406 16.072595 -81.852696
v 12.498935 15.542856 -81.108287
v 12.090001 15.509598 -81.065950
v 12.214836 15.275041 -80.837412
v 11.681067 15.542856 -81.108287
v 11.840865 15.282604 -80.847040
v 11.300001 15.640361 -81.232412
v 11.476469 15.335091 -80.913855
v 10.563838 16.233013 -81.986856
v 10.510001 16.485628 -82.308434
v 10.185387 16.374482 -82.236999
v 10.563838 16.738243 -82.630013
v 10.197630 16.605499 -82.531082
v 10.721681 16.973643 -82.929676
v 10.282595 16.830602 -82.817636
v 11.681067 17.428401 -83.508581
v 12.090001 17.461658 -83.550918
v 11.965166 17.628155 -83.832920
v 12.498935 17.428400 -83.508581
v 12.339136 17.620592 -83.823293
v 13.006103 17.154050 -85.215214
v 12.456352 17.464402 -85.078189
v 12.992193 17.387220 -84.979938
v 12.462000 17.232421 -85.314979
v 11.906432 17.475522 -85.092346
v 11.903602 17.243714 -85.329355
v 11.363567 17.420156 -85.021865
v 11.352366 17.187494 -85.257786
v 10.848618 17.300430 -84.869454
v 10.829478 17.065921 -85.103026
v 10.381375 17.120945 -84.640970
v 10.355031 16.883670 -84.871019
v 9.979793 16.888599 -84.345194
v 9.947257 16.647741 -84.570683
v 9.659305 16.612321 -83.993492
v 9.621828 16.367203 -84.213559
v 9.432228 16.302728 -83.599381
v 9.391250 16.052837 -83.813371
v 9.307287 15.971717 -83.178005
v 9.264383 15.716723 -83.385498
v 9.289284 15.632010 -82.745558
v 9.246103 15.371777 -82.946384
v 9.378912 15.296660 -82.318658
v 9.337112 15.031257 -82.512902
v 9.572725 14.978555 -81.913712
v 9.533913 14.708247 -82.101712
v 9.863275 14.689920 -81.546280
v 9.828944 14.415162 -81.728615
v 10.239398 14.441846 -81.230483
v 10.210865 14.163264 -81.407949
v 10.686638 14.243868 -80.978457
v 10.665001 13.962233 -81.152038
v 11.187808 14.103593 -80.799888
v 11.173898 13.819796 -80.970715
v 11.723649 14.026412 -80.701636
v 11.718001 13.741425 -80.870949
v 12.273569 14.015291 -80.687480
v 12.276399 13.730132 -80.856574
v 12.816434 14.070658 -80.757961
v 12.827635 13.786352 -80.928142
v 13.331383 14.190384 -80.910372
v 13.350523 13.907924 -81.082903
v 13.798627 14.369869 -81.138856
v 13.824970 14.090176 -81.314910
v 14.200209 14.602215 -81.434632
v 14.232744 14.326105 -81.615246
v 14.558173 14.606643 -81.972370
v 14.520696 14.878493 -81.786333
v 14.788751 14.921009 -82.372558
v 14.915618 15.257123 -82.800431
v 14.872714 15.519097 -82.601821
v 14.933898 15.602069 -83.239545
v 14.890717 15.858804 -83.034268
v 14.842889 15.942589 -83.673027
v 14.801089 16.194154 -83.461168
v 14.646088 16.265599 -84.084217
v 14.607276 16.512259 -83.866114
v 14.351058 16.558684 -84.457314
v 14.316726 16.800894 -84.233546
v 13.969136 16.810582 -84.777980
v 13.940603 17.048968 -84.549343
v 13.515001 17.011612 -85.033891
v 13.493364 17.246946 -84.801368
v 14.520696 14.878493 -81.786333
v 14.558173 14.606643 -81.972370
v 14.747774 15.188086 -82.180445
v 14.627633 15.454147 -82.023302
v 13.604274 17.169377 -83.248898
v 13.550452 17.380566 -83.723123
v 13.723876 17.344013 -84.003309
v 13.197501 17.536805 -83.922015
v 13.856950 17.230911 -84.285117
v 13.329013 17.518805 -84.225820
v 13.429927 17.419940 -84.525751
v 13.458321 16.973643 -82.929676
v 13.801862 16.973092 -82.999027
v 13.847278 17.184792 -83.473904
v 14.055951 17.124992 -83.724496
v 14.216070 16.994051 -83.983596
v 13.933663 16.756766 -82.723645
v 14.076574 16.957008 -83.183936
v 14.312474 16.870159 -83.400095
v 14.493487 16.718464 -83.632773
v 14.286051 16.173228 -82.186186
v 14.300258 16.441318 -82.527463
v 14.546826 15.993308 -82.283864
v 14.562720 16.293231 -82.665667
v 14.229526 16.705968 -82.864362
v 14.764115 16.094547 -82.838529
v 14.483589 16.589308 -83.042572
v 14.678539 16.414738 -83.246131
v 14.187451 15.912003 -81.853646
v 14.436518 15.701062 -81.911837
v 14.746926 15.770195 -82.425630
v 13.742983 15.862057 -81.584683
v 14.008247 15.667680 -81.542623
v 14.236034 15.427726 -81.563880
v 14.410821 15.158549 -81.647005
v 13.525037 15.674176 -81.345510
v 13.458321 15.997613 -81.687192
v 13.207229 15.795470 -81.429866
v 13.251944 15.516170 -81.144369
v 13.755326 15.449647 -81.265069
v 13.742983 15.862057 -81.584683
v 13.438407 15.266285 -81.031650
v 13.598527 14.978668 -80.992230
v 13.953079 15.183803 -81.253367
v 13.721391 14.672916 -81.028796
v 14.104820 14.894759 -81.311202
v 12.880001 15.640361 -81.232412
v 12.934197 15.394112 -80.988989
v 13.069670 15.124641 -80.851336
v 13.186003 14.820202 -80.790504
v 13.275269 14.501545 -80.810641
v 12.584009 15.312693 -80.885343
v 12.663285 15.030155 -80.731056
v 12.731361 14.714498 -80.655942
v 12.783597 14.387231 -80.665119
v 11.800885 14.995238 -80.686606
v 12.234869 14.986462 -80.675434
v 11.766554 14.675434 -80.606214
v 12.252071 14.665615 -80.593715
v 12.265271 14.334367 -80.597823
v 11.740210 14.344985 -80.611340
v 11.378012 15.056148 -80.764144
v 11.293465 14.743576 -80.692959
v 11.228590 14.418677 -80.705150
v 11.135651 15.430484 -81.035290
v 10.982501 15.166849 -80.905067
v 10.850988 14.867423 -80.850616
v 10.750075 14.552611 -80.875648
v 10.831507 15.565118 -81.206679
v 10.972772 15.795471 -81.429866
v 10.575727 15.733819 -81.421435
v 10.332723 15.518862 -81.353179
v 10.629550 15.323089 -81.103959
v 10.124051 15.261237 -81.351940
v 10.456125 15.042216 -81.073126
v 9.963931 14.978500 -81.417803
v 10.323051 14.741640 -81.116281
v 10.721681 15.997613 -81.687192
v 10.378140 15.930104 -81.671305
v 10.103428 15.746646 -81.643147
v 9.867527 15.516069 -81.676341
v 9.686514 15.254087 -81.768626
v 10.246338 16.146430 -81.946687
v 9.950475 15.997687 -81.962721
v 9.696412 15.796920 -82.033864
v 9.501462 15.557813 -82.155267
v 9.893951 16.530426 -82.640896
v 9.879743 16.262337 -82.299620
v 9.633175 16.392921 -82.792571
v 9.415886 15.878004 -82.562870
v 9.617281 16.092997 -82.410768
v 9.433075 16.202356 -82.975768
v 9.992551 16.791651 -82.973436
v 9.743484 16.685167 -83.164599
v 9.552368 16.518404 -83.378097
v 10.437018 17.041139 -83.085650
v 10.171755 17.035975 -83.284459
v 9.943968 16.958503 -83.512555
v 9.769181 16.814002 -83.754393
v 10.654964 17.229020 -83.324823
v 10.972772 17.175785 -83.187003
v 10.928058 17.387026 -83.525964
v 10.741594 17.437369 -83.795433
v 10.424676 17.254007 -83.562014
v 10.581474 17.407561 -84.084205
v 10.226923 17.202426 -83.823068
v 10.458610 17.299635 -84.372602
v 10.075181 17.077792 -84.090197
v 11.300001 17.330895 -83.384457
v 11.245804 17.509084 -83.681343
v 11.110332 17.579014 -83.975747
v 10.993998 17.566026 -84.285931
v 10.904732 17.471006 -84.590758
v 11.595993 17.590503 -83.784990
v 11.516717 17.673499 -84.096026
v 11.448640 17.671731 -84.420493
v 11.396404 17.585320 -84.736280
v 12.379116 17.708416 -84.140476
v 11.945133 17.717192 -84.151648
v 12.413448 17.710795 -84.470221
v 11.914730 17.638184 -84.803575
v 11.927930 17.720613 -84.482720
v 12.439792 17.627566 -84.790058
v 12.801989 17.647507 -84.062938
v 12.886536 17.642652 -84.383477
v 12.951411 17.553873 -84.696248
v 12.090001 17.198933 -83.216470
v 12.880001 17.330894 -83.384457
v 12.498935 17.428400 -83.508581
v 12.090001 17.461658 -83.550918
v 11.300001 17.330895 -83.384457
v 11.090001 16.842281 -82.762452
v 11.681067 17.428401 -83.508581
v 13.090001 16.842280 -82.762452
v 13.670001 16.485628 -82.308434
v 13.616163 16.738243 -82.630013
v 13.458321 16.973643 -82.929676
v 13.207229 17.175785 -83.187003
v 13.090001 16.128975 -81.854416
v 12.880001 15.640361 -81.232412
v 13.207229 15.795470 -81.429866
v 13.458321 15.997613 -81.687192
v 13.616163 16.233013 -81.986856
v 12.090001 15.772323 -81.400398
v 11.300001 15.640361 -81.232412
v 11.681067 15.542856 -81.108287
v 12.090001 15.509598 -81.065950
v 12.498935 15.542856 -81.108287
v 11.090001 16.128976 -81.854416
v 10.510001 16.485628 -82.308434
v 10.563838 16.233013 -81.986856
v 10.721681 15.997613 -81.687192
v 10.972772 15.795471 -81.429866
v 10.972772 17.175785 -83.187003
v 10.721681 16.973643 -82.929676
v 10.563838 16.738243 -82.630013
v 11.090001 15.311138 -82.496866
v 11.090001 15.445602 -82.778460
v 11.090001 16.128976 -81.854416
v 12.090001 14.954486 -82.042848
v 11.826293 14.994897 -82.204714
v 12.090001 15.772323 -81.400398
v 11.340000 6.763012 -88.294093
v 13.969136 16.511757 -85.012721
v 13.221371 15.886991 -84.217396
v 14.351058 16.259858 -84.692055
v 13.475641 15.682290 -83.956812
v 14.646088 15.966773 -84.318958
v 13.635482 15.443910 -83.653355
v 14.842889 15.643764 -83.907768
v 14.933898 15.303243 -83.474287
v 13.690000 15.188097 -83.327706
v 14.915618 14.958298 -83.035172
v 13.635482 14.932285 -83.002057
v 14.788751 14.622184 -82.607299
v 13.475641 14.693905 -82.698600
v 14.558173 14.307817 -82.207111
v 14.232744 14.027279 -81.849987
v 13.221371 14.489204 -82.438016
v 13.824970 13.791351 -81.549651
v 12.890000 14.332131 -82.238063
v 13.350523 13.609099 -81.317645
v 12.504111 14.233391 -82.112367
v 12.827635 13.487527 -81.162884
v 12.276399 13.431307 -81.091315
v 12.090000 14.199713 -82.069495
v 11.718001 13.442599 -81.105691
v 11.675890 14.233391 -82.112367
v 11.173898 13.520970 -81.205457
v 11.290001 14.332132 -82.238063
v 10.665001 13.663408 -81.386779
v 10.210865 13.864439 -81.642691
v 10.958630 14.489204 -82.438016
v 9.828944 14.116337 -81.963356
v 10.704360 14.693905 -82.698600
v 9.533913 14.409422 -82.336453
v 10.544519 14.932285 -83.002057
v 9.337112 14.732432 -82.747644
v 9.246103 15.072952 -83.181125
v 10.490001 15.188098 -83.327706
v 9.264383 15.417897 -83.620240
v 10.544519 15.443911 -83.653355
v 9.391250 15.754011 -84.048113
v 10.704360 15.682290 -83.956811
v 9.621828 16.068378 -84.448300
v 9.947257 16.348916 -84.805424
v 10.958630 15.886991 -84.217396
v 10.355031 16.584844 -85.105761
v 11.290001 16.044064 -84.417349
v 10.829478 16.767096 -85.337767
v 11.675890 16.142804 -84.543045
v 11.352366 16.888668 -85.492528
v 11.903602 16.944888 -85.564096
v 12.090001 16.176482 -84.585917
v 12.462000 16.933596 -85.549721
v 12.504111 16.142804 -84.543045
v 13.150660 8.220693 -90.149717
v 12.933772 7.845510 -90.168638
v 12.840000 8.367949 -90.337173
v 13.123406 7.692844 -89.974295
v 12.686637 7.962654 -90.317762
v 12.840000 8.367949 -90.337173
v 12.686637 7.962654 -90.317762
v 12.478228 8.460517 -90.455014
v 12.398842 8.036294 -90.411506
v 12.090000 8.492091 -90.495206
v 12.090000 8.061411 -90.443480
v 11.701771 8.460517 -90.455013
v 11.781157 8.036294 -90.411506
v 11.340000 8.367949 -90.337173
v 11.493362 7.962654 -90.317762
v 11.029339 8.220693 -90.149717
v 11.246227 7.845510 -90.168637
v 10.790962 8.028785 -89.905420
v 11.056593 7.692845 -89.974295
v 10.641111 7.805305 -89.620929
v 10.937384 7.515062 -89.747978
v 10.590000 7.565481 -89.315633
v 10.896725 7.324277 -89.505110
v 10.641111 7.325656 -89.010337
v 10.937384 7.133493 -89.262242
v 10.790961 7.102175 -88.725847
v 11.056593 6.955710 -89.035925
v 11.029339 6.910268 -88.481549
v 11.246227 6.803045 -88.841582
v 11.340000 6.763012 -88.294093
v 11.493362 6.685901 -88.692457
v 11.701771 6.670443 -88.176253
v 11.781157 6.612260 -88.598714
v 12.090000 6.638870 -88.136060
v 12.089999 6.587143 -88.566739
v 12.478228 6.670443 -88.176253
v 12.398842 6.612260 -88.598714
v 12.839999 6.763012 -88.294093
v 12.686637 6.685900 -88.692457
v 13.150660 6.910268 -88.481549
v 12.933772 6.803044 -88.841582
v 13.389038 7.102175 -88.725847
v 13.123406 6.955710 -89.035925
v 13.538888 7.325656 -89.010337
v 13.242615 7.133492 -89.262242
v 13.589999 7.565480 -89.315633
v 13.283274 7.324277 -89.505110
v 13.538888 7.805304 -89.620930
v 13.242615 7.515061 -89.747978
v 13.389038 8.028785 -89.905420
v 12.686637 7.962654 -90.317762
v 12.933772 7.845510 -90.168638
v 12.398842 8.036294 -90.411506
v 12.090000 8.061411 -90.443480
v 13.123406 7.692844 -89.974295
v 11.781157 8.036294 -90.411506
v 13.242615 7.515061 -89.747978
v 11.493362 7.962654 -90.317762
v 13.283274 7.324277 -89.505110
v 11.246227 7.845510 -90.168637
v 13.242615 7.133492 -89.262242
v 11.056593 7.692845 -89.974295
v 13.123406 6.955710 -89.035925
v 10.937384 7.515062 -89.747978
v 12.933772 6.803044 -88.841582
v 10.896725 7.324277 -89.505110
v 12.686637 6.685900 -88.692457
v 10.937384 7.133493 -89.262242
v 12.398842 6.612260 -88.598714
v 11.056593 6.955710 -89.035925
v 12.089999 6.587143 -88.566739
v 11.246227 6.803045 -88.841582
v 11.781157 6.612260 -88.598714
v 11.493362 6.685901 -88.692457
v 14.410821 15.158549 -81.647005
v 14.236034 15.427726 -81.563880
v 14.008247 15.667680 -81.542623
v 13.006103 16.855225 -85.449955
v 13.006103 17.154050 -85.215214
v 13.515001 16.712787 -85.268632
v 12.462000 17.232421 -85.314979
v 13.515001 17.011612 -85.033891
v 13.969136 16.511757 -85.012721
v 13.969136 16.810582 -84.777980
v 14.351058 16.259858 -84.692055
v 14.351058 16.558684 -84.457314
v 14.646088 15.966773 -84.318958
v 14.646088 16.265599 -84.084217
v 14.842889 15.643764 -83.907768
v 14.842889 15.942589 -83.673027
v 14.933898 15.303243 -83.474287
v 14.933898 15.602069 -83.239545
v 14.915618 14.958298 -83.035172
v 14.915618 15.257123 -82.800431
v 14.788751 14.622184 -82.607299
v 14.788751 14.921009 -82.372558
v 14.558173 14.307817 -82.207111
v 14.558173 14.606643 -81.972370
v 14.232744 14.027279 -81.849987
v 14.232744 14.326105 -81.615246
v 13.824970 13.791351 -81.549651
v 13.824970 14.090176 -81.314910
v 13.350523 13.609099 -81.317645
v 13.350523 13.907924 -81.082903
v 12.827635 13.487527 -81.162884
v 12.827635 13.786352 -80.928142
v 12.276399 13.431307 -81.091315
v 12.276399 13.730132 -80.856574
v 11.718001 13.442599 -81.105691
v 11.718001 13.741425 -80.870949
v 11.173898 13.520970 -81.205457
v 11.173898 13.819796 -80.970715
v 10.665001 13.663408 -81.386779
v 10.665001 13.962233 -81.152038
v 10.665001 13.663408 -81.386779
v 10.665001 13.962233 -81.152038
v 10.210865 13.864439 -81.642691
v 10.210865 14.163264 -81.407949
v 9.828944 14.116337 -81.963356
v 9.828944 14.415162 -81.728615
v 9.533913 14.409422 -82.336453
v 9.533913 14.708247 -82.101712
v 9.337112 14.732432 -82.747644
v 9.337112 15.031257 -82.512902
v 9.246103 15.072952 -83.181125
v 9.246103 15.371777 -82.946384
v 9.264383 15.417897 -83.620240
v 9.264383 15.716723 -83.385498
v 9.391250 15.754011 -84.048113
v 9.391250 16.052837 -83.813371
v 9.621828 16.068378 -84.448300
v 9.621828 16.367203 -84.213559
v 9.947257 16.348916 -84.805424
v 9.947257 16.647741 -84.570683
v 10.355031 16.584844 -85.105761
v 10.355031 16.883670 -84.871019
v 10.829478 16.767096 -85.337767
v 10.829478 17.065921 -85.103026
v 11.352366 16.888668 -85.492528
v 11.352366 17.187494 -85.257786
v 11.903602 16.944888 -85.564096
v 11.903602 17.243714 -85.329355
v 12.462000 16.933596 -85.549721
v 11.090001 15.597554 -83.006058
v 11.090001 16.842281 -82.762452
v 11.090001 15.782699 -83.207583
v 11.090001 16.024443 -83.404902
v 11.090001 16.024443 -83.404902
v 11.353709 16.064855 -83.566767
v 11.090001 16.842281 -82.762452
v 11.590001 16.132533 -83.687085
v 12.090001 17.198933 -83.216470
v 11.826293 16.233403 -83.781329
v 12.090001 16.381096 -83.858920
v 12.090001 16.381096 -83.858920
v 12.353709 16.233403 -83.781329
v 12.090001 17.198933 -83.216470
v 12.590001 16.132533 -83.687085
v 13.090001 16.842280 -82.762452
v 12.826293 16.064855 -83.566767
v 13.090001 16.024443 -83.404902
v 13.090001 16.024443 -83.404902
v 13.090001 15.782698 -83.207583
v 13.090001 16.842280 -82.762452
v 13.090001 15.597554 -83.006058
v 13.090001 16.128975 -81.854416
v 13.090001 15.445602 -82.778459
v 13.090001 15.311138 -82.496866
v 11.590001 15.062575 -82.325032
v 11.090001 16.128976 -81.854416
v 11.353709 15.163446 -82.419275
v 11.090001 15.311138 -82.496866
v 13.090001 15.311138 -82.496866
v 12.826293 15.163446 -82.419275
v 13.090001 16.128975 -81.854416
v 12.590001 15.062575 -82.325032
v 12.090001 15.772323 -81.400398
v 12.353709 14.994897 -82.204714
v 12.090001 14.954486 -82.042848
v 13.090001 15.445602 -82.778459
v 12.090001 15.143536 -83.362711
v 13.090001 15.311138 -82.496866
v 13.090001 15.597554 -83.006058
v 12.090001 15.143536 -83.362711
v 12.826293 15.163446 -82.419275
v 13.090001 16.024443 -83.404902
v 12.090001 15.143536 -83.362711
v 13.090001 15.782698 -83.207583
v 12.826293 16.064855 -83.566767
v 12.090001 15.143536 -83.362711
v 12.090001 15.143536 -83.362711
v 12.590001 16.132533 -83.687085
v 12.090001 16.381096 -83.858920
v 12.090001 15.143536 -83.362711
v 12.353709 16.233403 -83.781329
v 11.826293 16.233403 -83.781329
v 12.090001 15.143536 -83.362711
v 12.090001 15.143536 -83.362711
v 11.590001 16.132533 -83.687085
v 11.090001 16.024443 -83.404902
v 12.090001 15.143536 -83.362711
v 11.353709 16.064855 -83.566767
v 11.090001 15.782699 -83.207583
v 12.090001 15.143536 -83.362711
v 12.090001 15.143536 -83.362711
v 11.090001 15.597554 -83.006058
v 11.090001 15.311138 -82.496866
v 12.090001 15.143536 -83.362711
v 11.090001 15.445602 -82.778460
v 11.353709 15.163446 -82.419275
v 12.090001 15.143536 -83.362711
v 12.090001 15.143536 -83.362711
v 11.590001 15.062575 -82.325032
v 12.090001 14.954486 -82.042848
v 12.090001 15.143536 -83.362711
v 11.826293 14.994897 -82.204714
v 12.353709 14.994897 -82.204714
v 12.090001 15.143536 -83.362711
v 12.090001 15.143536 -83.362711
v 11.590001 15.062575 -82.325032
v 12.590001 15.062575 -82.325032
v 12.090001 15.143536 -83.362711
f 1 2 3
f 1 3 4
f 1 5 2
f 2 5 55
f 2 56 3
f 2 57 56
f 2 55 57
f 3 40 4
f 3 59 40
f 3 56 59
f 4 40 39
f 5 69 55
f 6 7 8
f 6 9 7
f 7 9 10
f 7 96 8
f 7 97 96
f 7 10 97
f 8 96 99
f 9 11 10
f 10 11 12
f 10 110 97
f 10 12 110
f 11 13 12
f 12 13 14
f 12 115 110
f 12 14 115
f 13 15 14
f 14 15 16
f 14 120 115
f 14 16 120
f 15 17 16
f 16 17 18
f 16 125 120
f 16 18 125
f 17 19 18
f 18 19 20
f 18 130 125
f 18 20 130
f 19 21 20
f 20 21 22
f 20 135 130
f 20 22 135
f 21 23 22
f 22 23 24
f 22 140 135
f 22 24 140
f 23 25 24
f 24 25 26
f 24 145 140
f 24 26 145
f 25 27 26
f 26 27 28
f 26 150 145
f 26 28 150
f 27 29 28
f 28 29 30
f 28 155 150
f 28 30 155
f 29 31 30
f 30 31 32
f 30 160 155
f 30 32 160
f 31 33 32
f 32 33 34
f 32 165 160
f 32 34 165
f 33 35 34
f 34 35 36
f 34 170 165
f 34 36 170
f 35 37 36
f 36 37 38
f 36 175 170
f 36 38 175
f 37 39 38
f 38 39 40
f 38 68 175
f 38 40 68
f 40 59 68
f 41 42 43
f 41 43 44
f 41 45 42
f 42 45 65
f 42 64 43
f 42 67 64
f 42 65 67
f 43 54 44
f 43 64 61
f 43 61 54
f 44 54 53
f 45 180 65
f 46 47 48
f 46 49 47
f 46 48 95
f 47 49 50
f 47 50 78
f 47 78 83
f 47 83 48
f 48 88 94
f 48 94 95
f 48 83 88
f 49 51 50
f 50 51 52
f 50 52 73
f 50 73 78
f 51 53 52
f 52 53 54
f 52 54 63
f 52 63 73
f 54 61 63
f 55 69 70
f 55 71 57
f 55 70 71
f 56 58 59
f 56 60 58
f 56 57 60
f 57 72 60
f 57 71 72
f 58 61 62
f 58 63 61
f 58 62 59
f 58 60 63
f 59 62 68
f 60 73 63
f 60 72 73
f 61 64 62
f 62 64 66
f 62 66 68
f 64 67 66
f 65 178 177
f 65 177 67
f 65 180 178
f 66 176 175
f 66 175 68
f 66 67 176
f 67 177 176
f 69 74 70
f 70 74 75
f 70 76 71
f 70 75 76
f 71 77 72
f 71 76 77
f 72 78 73
f 72 77 78
f 74 79 75
f 75 79 80
f 75 81 76
f 75 80 81
f 76 82 77
f 76 81 82
f 77 83 78
f 77 82 83
f 79 84 80
f 80 84 85
f 80 86 81
f 80 85 86
f 81 87 82
f 81 86 87
f 82 88 83
f 82 87 88
f 84 91 85
f 85 89 90
f 85 90 86
f 85 91 89
f 86 90 92
f 86 92 87
f 87 92 93
f 87 93 88
f 88 93 94
f 96 98 99
f 96 100 98
f 96 97 100
f 97 111 100
f 97 110 111
f 98 101 102
f 98 103 101
f 98 100 103
f 98 102 99
f 100 112 103
f 100 111 112
f 101 104 105
f 101 105 106
f 101 103 104
f 101 106 102
f 103 113 104
f 103 112 113
f 104 114 107
f 104 107 105
f 104 113 114
f 105 107 108
f 105 108 109
f 105 109 106
f 110 116 111
f 110 115 116
f 111 117 112
f 111 116 117
f 112 118 113
f 112 117 118
f 113 119 114
f 113 118 119
f 115 121 116
f 115 120 121
f 116 122 117
f 116 121 122
f 117 123 118
f 117 122 123
f 118 124 119
f 118 123 124
f 120 126 121
f 120 125 126
f 121 127 122
f 121 126 127
f 122 128 123
f 122 127 128
f 123 129 124
f 123 128 129
f 125 131 126
f 125 130 131
f 126 132 127
f 126 131 132
f 127 133 128
f 127 132 133
f 128 134 129
f 128 133 134
f 130 136 131
f 130 135 136
f 131 137 132
f 131 136 137
f 132 138 133
f 132 137 138
f 133 139 134
f 133 138 139
f 135 141 136
f 135 140 141
f 136 142 137
f 136 141 142
f 137 143 138
f 137 142 143
f 138 144 139
f 138 143 144
f 140 146 141
f 140 145 146
f 141 147 142
f 141 146 147
f 142 148 143
f 142 147 148
f 143 149 144
f 143 148 149
f 145 151 146
f 145 150 151
f 146 152 147
f 146 151 152
f 147 153 148
f 147 152 153
f 148 154 149
f 148 153 154
f 150 156 151
f 150 155 156
f 151 157 152
f 151 156 157
f 152 158 153
f 152 157 158
f 153 159 154
f 153 158 159
f 155 161 156
f 155 160 161
f 156 162 157
f 156 161 162
f 157 163 158
f 157 162 163
f 158 164 159
f 158 163 164
f 160 166 161
f 160 165 166
f 161 167 162
f 161 166 167
f 162 168 163
f 162 167 168
f 163 169 164
f 163 168 169
f 165 171 166
f 165 170 171
f 166 172 167
f 166 171 172
f 167 173 168
f 167 172 173
f 168 174 169
f 168 173 174
f 170 176 171
f 170 175 176
f 171 177 172
f 171 176 177
f 172 178 173
f 172 177 178
f 173 179 174
f 173 178 179
f 178 180 179
f 181 182 183
f 181 183 184
f 181 185 182
f 182 185 186
f 183 229 184
f 184 229 228
f 185 187 186
f 186 187 188
f 187 189 188
f 188 189 190
f 189 191 190
f 190 191 192
f 191 193 192
f 192 193 194
f 193 195 194
f 194 195 196
f 195 197 196
f 196 197 198
f 197 199 198
f 198 199 200
f 199 201 200
f 200 201 202
f 201 203 202
f 202 203 204
f 203 205 204
f 204 205 206
f 205 489 206
f 207 208 209
f 207 210 208
f 208 210 211
f 210 212 211
f 211 212 213
f 212 214 213
f 213 214 215
f 214 216 215
f 215 216 217
f 216 218 217
f 217 218 219
f 218 220 219
f 219 220 221
f 220 222 221
f 221 222 223
f 222 224 223
f 223 224 225
f 224 226 225
f 225 226 227
f 226 228 227
f 227 228 229
f 230 231 232
f 230 542 541
f 230 232 542
f 231 490 232
f 232 490 491
f 233 234 235
f 233 235 236
f 233 237 234
f 233 236 262
f 234 237 331
f 234 332 235
f 234 331 340
f 234 340 332
f 235 332 334
f 235 334 236
f 236 263 262
f 236 450 263
f 236 334 450
f 237 338 331
f 238 239 240
f 238 339 338
f 238 343 339
f 238 240 343
f 239 241 242
f 239 242 240
f 240 242 347
f 240 347 348
f 240 348 343
f 241 243 244
f 241 244 242
f 242 244 355
f 242 355 347
f 243 358 244
f 244 358 359
f 244 359 355
f 245 246 247
f 245 374 373
f 245 378 374
f 245 247 378
f 246 248 249
f 246 249 247
f 247 249 382
f 247 382 383
f 247 383 378
f 248 250 251
f 248 251 249
f 249 251 388
f 249 388 382
f 250 391 251
f 250 396 395
f 250 395 391
f 251 391 392
f 251 392 388
f 252 253 254
f 252 405 404
f 252 409 405
f 252 254 409
f 253 255 256
f 253 256 254
f 254 256 413
f 254 413 414
f 254 414 409
f 255 257 258
f 255 258 256
f 256 258 419
f 256 419 413
f 257 422 258
f 257 427 426
f 257 426 422
f 258 422 423
f 258 423 419
f 259 260 261
f 259 436 435
f 259 440 436
f 259 261 440
f 260 262 263
f 260 263 261
f 261 263 444
f 261 444 445
f 261 445 440
f 263 450 444
f 264 265 266
f 264 267 265
f 264 266 325
f 265 267 268
f 265 447 449
f 265 268 447
f 265 449 266
f 266 452 326
f 266 326 325
f 266 449 452
f 267 269 268
f 268 269 270
f 268 270 443
f 268 443 447
f 269 271 270
f 270 271 272
f 270 439 443
f 270 272 439
f 271 273 272
f 272 273 274
f 272 433 439
f 272 274 433
f 273 275 274
f 274 275 276
f 274 434 433
f 274 276 434
f 275 277 276
f 276 277 278
f 276 278 425
f 276 425 434
f 277 279 278
f 278 279 280
f 278 421 425
f 278 280 421
f 279 281 280
f 280 281 282
f 280 282 418
f 280 418 421
f 281 283 282
f 282 283 284
f 282 416 418
f 282 284 416
f 283 285 284
f 284 285 286
f 284 286 412
f 284 412 416
f 285 287 286
f 286 287 288
f 286 408 412
f 286 288 408
f 287 289 288
f 288 289 290
f 288 402 408
f 288 290 402
f 289 291 290
f 290 291 292
f 290 403 402
f 290 292 403
f 291 293 292
f 292 293 294
f 292 294 394
f 292 394 403
f 293 295 294
f 294 295 296
f 294 390 394
f 294 296 390
f 295 297 296
f 296 297 298
f 296 298 387
f 296 387 390
f 297 299 298
f 298 299 300
f 298 386 387
f 298 300 386
f 299 301 300
f 300 301 302
f 300 381 386
f 300 302 381
f 301 303 302
f 302 303 304
f 302 377 381
f 302 304 377
f 303 305 304
f 304 305 306
f 304 371 377
f 304 306 371
f 305 307 306
f 306 307 308
f 306 372 371
f 306 308 372
f 307 309 308
f 308 311 617
f 308 309 311
f 308 617 372
f 309 310 311
f 312 313 314
f 312 314 329
f 312 329 328
f 313 315 316
f 313 316 314
f 314 352 357
f 314 316 352
f 314 357 329
f 315 317 318
f 315 318 316
f 316 354 352
f 316 318 354
f 317 319 320
f 317 320 318
f 318 320 346
f 318 346 354
f 319 321 322
f 319 322 320
f 320 342 346
f 320 322 342
f 321 323 324
f 321 324 322
f 322 335 342
f 322 324 335
f 323 325 326
f 323 326 324
f 324 337 335
f 324 326 337
f 326 452 337
f 327 328 329
f 327 329 330
f 327 330 361
f 329 357 330
f 330 349 356
f 330 356 361
f 330 357 349
f 331 338 339
f 331 339 344
f 331 344 340
f 332 333 334
f 332 340 341
f 332 341 333
f 333 335 336
f 333 336 334
f 333 341 342
f 333 342 335
f 334 336 450
f 335 337 336
f 336 451 450
f 336 337 451
f 337 452 451
f 339 351 344
f 339 343 351
f 340 344 345
f 340 345 341
f 341 345 346
f 341 346 342
f 343 348 351
f 344 353 345
f 344 351 353
f 345 354 346
f 345 353 354
f 347 349 348
f 347 355 356
f 347 356 349
f 348 350 351
f 348 349 350
f 349 357 350
f 350 352 353
f 350 353 351
f 350 357 352
f 352 354 353
f 355 359 360
f 355 360 356
f 356 360 361
f 362 363 364
f 362 364 365
f 362 366 367
f 362 368 366
f 362 365 368
f 362 367 363
f 364 373 365
f 365 373 374
f 365 375 368
f 365 374 375
f 366 368 369
f 366 369 370
f 366 619 367
f 366 370 619
f 368 376 369
f 368 375 376
f 369 371 370
f 369 376 377
f 369 377 371
f 370 371 372
f 370 618 619
f 370 372 618
f 372 617 618
f 374 379 375
f 374 378 379
f 375 380 376
f 375 379 380
f 376 381 377
f 376 380 381
f 378 383 379
f 379 383 385
f 379 385 380
f 380 385 386
f 380 386 381
f 382 384 383
f 382 388 389
f 382 389 384
f 383 384 385
f 384 389 390
f 384 387 385
f 384 390 387
f 385 387 386
f 388 392 393
f 388 393 389
f 389 393 394
f 389 394 390
f 391 399 392
f 391 395 399
f 392 401 393
f 392 399 401
f 393 403 394
f 393 401 403
f 395 396 397
f 395 397 398
f 395 398 399
f 396 404 397
f 397 404 405
f 397 405 406
f 397 406 398
f 398 400 399
f 398 406 407
f 398 407 400
f 399 400 401
f 400 402 401
f 400 407 408
f 400 408 402
f 401 402 403
f 405 409 410
f 405 410 406
f 406 410 411
f 406 411 407
f 407 411 412
f 407 412 408
f 409 414 410
f 410 417 411
f 410 414 417
f 411 416 412
f 411 417 416
f 413 415 414
f 413 419 420
f 413 420 415
f 414 415 417
f 415 420 421
f 415 418 417
f 415 421 418
f 416 417 418
f 419 423 424
f 419 424 420
f 420 424 425
f 420 425 421
f 422 430 423
f 422 426 430
f 423 432 424
f 423 430 432
f 424 434 425
f 424 432 434
f 426 427 428
f 426 428 429
f 426 429 430
f 427 435 428
f 428 435 436
f 428 436 437
f 428 437 429
f 429 431 430
f 429 437 438
f 429 438 431
f 430 431 432
f 431 433 432
f 431 438 439
f 431 439 433
f 432 433 434
f 436 440 441
f 436 441 437
f 437 441 442
f 437 442 438
f 438 442 443
f 438 443 439
f 440 445 441
f 441 448 442
f 441 445 448
f 442 447 443
f 442 448 447
f 444 446 445
f 444 450 451
f 444 451 446
f 445 446 448
f 446 451 452
f 446 449 448
f 446 452 449
f 447 448 449
f 453 454 455
f 453 455 456
f 453 457 458
f 453 459 457
f 453 460 454
f 453 456 459
f 454 460 464
f 457 480 458
f 458 476 475
f 458 480 481
f 458 482 476
f 458 481 482
f 460 461 462
f 460 462 463
f 460 465 461
f 460 463 464
f 461 465 469
f 465 466 467
f 465 467 468
f 465 470 466
f 465 468 469
f 466 470 474
f 470 471 472
f 470 472 473
f 470 475 471
f 470 473 474
f 471 475 479
f 475 476 477
f 475 477 478
f 475 478 479
f 483 484 485
f 484 686 485
f 485 686 687
f 486 487 488
f 487 711 488
f 488 711 712
f 490 492 491
f 491 492 493
f 492 494 493
f 493 494 495
f 494 496 495
f 495 496 497
f 495 497 498
f 497 499 498
f 498 499 500
f 499 501 500
f 500 501 502
f 501 503 502
f 502 503 504
f 502 504 505
f 504 506 505
f 505 506 507
f 506 508 507
f 507 508 509
f 508 510 509
f 509 510 511
f 509 511 512
f 511 513 512
f 512 513 514
f 513 515 514
f 514 515 516
f 515 517 516
f 516 517 518
f 516 518 519
f 518 520 519
f 519 520 521
f 520 522 521
f 521 522 523
f 522 524 523
f 523 524 525
f 523 525 526
f 525 527 526
f 526 527 528
f 527 529 528
f 528 529 530
f 529 531 530
f 530 531 532
f 530 532 533
f 532 534 533
f 533 534 535
f 534 536 535
f 535 536 537
f 536 538 537
f 537 538 539
f 537 539 540
f 539 541 540
f 540 541 542
f 543 544 545
f 543 546 544
f 543 592 546
f 544 547 545
f 546 592 591
f 548 549 550
f 549 551 550
f 550 551 552
f 551 553 552
f 552 553 554
f 553 555 554
f 554 555 556
f 555 557 556
f 556 557 558
f 557 559 558
f 558 559 560
f 559 561 560
f 560 561 562
f 561 563 562
f 562 563 564
f 563 565 564
f 564 565 566
f 565 567 566
f 566 567 568
f 567 569 568
f 568 569 570
f 569 571 570
f 570 571 572
f 571 573 572
f 572 573 574
f 573 575 574
f 574 575 576
f 575 577 576
f 576 577 578
f 577 579 578
f 578 579 580
f 579 581 580
f 580 581 582
f 581 583 582
f 582 583 584
f 583 585 584
f 584 585 586
f 585 587 586
f 586 587 588
f 587 589 588
f 588 589 590
f 589 591 590
f 590 591 592
f 593 594 595
f 594 596 595
f 594 597 596
f 596 597 598
f 597 599 598
f 598 599 600
f 599 601 600
f 600 601 602
f 601 603 602
f 602 603 604
f 603 605 604
f 604 605 606
f 605 607 606
f 606 607 608
f 607 609 608
f 608 609 610
f 609 611 610
f 610 611 612
f 611 613 612
f 612 613 614
f 613 615 614
f 614 615 616
f 620 621 622
f 620 623 621
f 620 685 623
f 621 624 622
f 622 624 625
f 623 685 684
f 624 626 625
f 625 626 627
f 626 628 627
f 627 628 629
f 628 630 629
f 629 630 631
f 630 632 631
f 631 632 633
f 632 634 633
f 633 634 635
f 634 636 635
f 635 636 637
f 636 638 637
f 637 638 639
f 638 640 639
f 639 640 641
f 640 642 641
f 641 642 643
f 642 644 643
f 643 644 645
f 644 646 645
f 645 646 647
f 646 648 647
f 647 648 649
f 648 650 649
f 649 650 651
f 650 652 651
f 651 652 653
f 652 654 653
f 653 654 655
f 654 656 655
f 657 658 659
f 658 660 659
f 659 660 661
f 660 662 661
f 661 662 663
f 662 664 663
f 663 664 665
f 664 666 665
f 665 666 667
f 666 668 667
f 667 668 669
f 668 670 669
f 669 670 671
f 670 672 671
f 671 672 673
f 672 674 673
f 673 674 675
f 674 676 675
f 675 676 677
f 676 678 677
f 677 678 679
f 678 680 679
f 679 680 681
f 680 682 681
f 681 682 683
f 682 684 683
f 683 684 685
f 686 688 687
f 687 688 689
f 690 691 692
f 691 693 692
f 692 693 694
f 693 695 694
f 694 695 696
f 697 698 699
f 698 700 699
f 699 700 701
f 700 702 701
f 701 702 703
f 704 705 706
f 705 707 706
f 706 707 708
f 707 709 708
f 708 709 710
f 711 713 712
f 712 713 714
f 715 716 717
f 716 718 717
f 717 718 719
f 718 720 719
f 719 720 721
f 722 723 724
f 722 725 723
f 724 726 727
f 725 730 733
f 727 764 763
f 728 729 730
f 728 731 732
f 731 734 732
f 734 737 740
f 735 736 737
f 735 738 739
f 738 741 739
f 741 744 747
f 742 743 744
f 742 745 746
f 745 748 746
f 748 751 754
f 749 750 751
f 749 752 753
f 752 755 753
f 756 757 758
f 756 759 760
f 758 761 762
f 759 763 760