# Forged Hexagon Socket Button Head Cap Screw - Metric M3 x 0.5 x 6
# Autodesk dbId: 157
# Units: mm
o 157_Forged_Hexagon_Socket_Button_Head_Cap_Screw_-_Metric_M3_x_0.5_x_6
v 17.626519 0.468442 -94.553660
v 17.966170 0.404591 -94.466861
v 17.638734 0.485217 -94.569499
v 17.348550 0.608832 -94.726860
v 17.972179 0.384354 -94.446617
v 19.089576 2.235385 -96.641094
v 19.385484 2.106990 -96.477647
v 19.368333 2.098826 -96.509152
v 19.623053 1.938580 -96.263261
v 19.596004 1.945627 -96.314130
v 19.788475 1.739943 -96.010397
v 19.762783 1.764974 -96.084159
v 19.872138 1.522622 -95.733748
v 19.860305 1.565924 -95.830769
v 19.869179 1.299249 -95.449394
v 19.883682 1.358460 -95.566668
v 19.779769 1.082803 -95.173860
v 19.831740 1.152984 -95.305097
v 19.609106 0.885865 -94.923158
v 19.367107 0.719880 -94.711859
v 19.515965 0.788594 -94.841229
v 19.067837 0.594494 -94.552243
v 19.267967 0.647952 -94.662193
v 18.728687 0.516994 -94.453586
v 18.975524 0.544926 -94.531041
v 18.369369 0.491884 -94.421621
v 18.653302 0.484682 -94.454351
v 18.010765 0.520623 -94.458206
v 18.317459 0.470241 -94.435968
v 17.673714 0.601542 -94.561216
v 17.984833 0.502328 -94.476814
v 19.769424 0.883578 -95.076611
v 19.748161 0.898466 -95.079391
v 19.569316 0.704320 -94.848416
v 18.314440 0.370995 -94.424094
v 17.972536 0.426817 -94.478984
v 17.978002 0.451654 -94.484876
v 17.650116 0.506208 -94.580049
v 17.982197 0.477410 -94.484136
v 17.659891 0.529985 -94.584590
v 17.667391 0.554926 -94.582814
v 17.672106 0.579333 -94.574842
v 18.339914 0.351777 -94.405145
v 18.666080 0.386115 -94.443341
v 18.315469 0.393736 -94.436872
v 18.316354 0.419015 -94.443326
v 18.317032 0.445110 -94.443018
v 18.709899 0.372465 -94.431481
v 19.003457 0.449192 -94.523638
v 18.661722 0.408624 -94.455824
v 18.657979 0.433704 -94.462025
v 18.655108 0.459646 -94.461523
v 19.062187 0.445303 -94.524204
v 19.309654 0.557063 -94.660959
v 18.993929 0.470735 -94.534891
v 18.985748 0.494985 -94.540036
v 18.979471 0.520290 -94.538722
v 19.377788 0.566366 -94.678317
v 19.295435 0.576953 -94.670107
v 19.283225 0.599785 -94.673445
v 19.273856 0.624001 -94.670746
v 19.639686 0.729126 -94.885510
v 19.551119 0.721954 -94.854692
v 19.535493 0.742848 -94.855564
v 19.523502 0.765577 -94.850972
v 19.899943 1.085849 -95.334101
v 19.833762 0.924809 -95.134613
v 19.949555 1.142865 -95.412199
v 19.954328 1.300989 -95.607975
v 19.876680 1.097637 -95.332936
v 19.769424 0.883578 -95.076611
v 19.856704 1.113511 -95.327418
v 19.748161 0.898466 -95.079391
v 19.841375 1.132389 -95.317922
v 19.729902 0.917001 -95.077261
v 19.715891 0.937921 -95.070365
v 19.707084 0.959799 -95.059174
v 19.980821 1.371540 -95.703301
v 19.929852 1.518212 -95.884498
v 19.930232 1.309482 -95.602613
v 19.909540 1.322525 -95.593491
v 19.893663 1.339230 -95.581231
v 19.925875 1.598505 -95.992227
v 19.827743 1.726623 -96.149805
v 19.906131 1.523375 -95.874900
v 19.805586 1.728594 -96.136142
v 19.885761 1.533561 -95.862140
v 19.870131 1.548073 -95.847088
v 19.787680 1.811525 -96.263400
v 19.653120 1.915773 -96.390593
v 19.633639 1.914846 -96.373240
v 19.786560 1.736037 -96.119891
v 19.616910 1.919801 -96.353822
v 19.771960 1.748445 -96.102161
v 19.573684 1.999115 -96.502202
v 19.414740 2.076177 -96.594787
v 19.398911 2.072792 -96.574306
v 19.385319 2.075636 -96.552201
v 19.604073 1.930299 -96.333660
v 19.374889 2.084516 -96.529978
v 19.295426 2.151162 -96.695758
v 19.124556 2.199792 -96.752148
v 19.113174 2.194513 -96.729256
v 19.103399 2.195731 -96.705080
v 19.095899 2.203362 -96.681269
v 19.091184 2.216888 -96.659444
v 18.967905 2.259470 -96.833634
v 18.797120 2.280419 -96.854786
v 18.790754 2.273904 -96.830321
v 18.785288 2.274061 -96.804795
v 18.781094 2.280879 -96.779947
v 18.778457 2.293893 -96.757471
v 18.608779 2.318200 -96.908397
v 18.448850 2.314015 -96.897553
v 18.447821 2.306986 -96.872433
v 18.446937 2.306700 -96.846345
v 18.446258 2.313179 -96.821065
v 18.445831 2.325979 -96.798318
v 18.752526 2.316304 -96.744103
v 18.237408 2.324186 -96.916017
v 18.097210 2.298895 -96.878306
v 18.101568 2.292097 -96.853481
v 18.105311 2.292011 -96.827645
v 18.108182 2.298642 -96.802560
v 18.109988 2.311539 -96.779935
v 18.393921 2.345043 -96.780688
v 17.873813 2.277104 -96.856082
v 17.759833 2.235818 -96.798009
v 17.769361 2.229987 -96.774414
v 17.777542 2.230730 -96.749635
v 17.783819 2.237998 -96.725360
v 17.787766 2.251295 -96.703245
v 18.034603 2.319933 -96.748723
v 17.537595 2.179493 -96.731824
v 17.453636 2.127946 -96.660689
v 17.467855 2.123768 -96.639198
v 17.480065 2.125931 -96.616226
v 17.489434 2.134288 -96.593337
v 17.495323 2.148269 -96.572093
v 17.695453 2.242433 -96.650066
v 17.246881 2.036616 -96.549942
v 17.193974 1.980689 -96.473231
v 17.212171 1.978767 -96.454612
v 17.227797 1.982868 -96.434106
v 17.239788 1.992711 -96.413111
v 17.247325 2.007627 -96.393056
v 17.396183 2.117047 -96.490450
v 17.017341 1.856174 -96.320240
v 16.993866 1.801431 -96.245036
v 17.015129 1.802255 -96.229914
v 17.033388 1.808714 -96.212410
v 17.047399 1.820368 -96.193718
v 17.056206 1.836421 -96.175112
v 17.154184 1.951061 -96.279151
v 16.861352 1.647896 -96.055103
v 16.863347 1.599160 -95.987546
v 16.886610 1.603084 -95.976369
v 16.906586 1.612204 -95.962253
v 16.921915 1.625900 -95.946161
v 16.931550 1.643237 -95.929188
v 16.983521 1.754123 -96.028449
v 16.787322 1.423010 -95.768823
v 16.808962 1.384020 -95.713673
v 16.833058 1.391240 -95.706692
v 16.853750 1.403191 -95.696179
v 16.869627 1.419058 -95.682852
v 16.879608 1.437761 -95.667618
v 16.894111 1.537678 -95.752915
v 16.799242 1.193639 -95.476835
v 16.833438 1.166798 -95.437149
v 16.857159 1.177346 -95.434405
v 16.877529 1.192155 -95.427531
v 16.893159 1.210215 -95.416995
v 16.902985 1.230296 -95.403516
v 16.891152 1.314304 -95.468560
v 16.896470 0.972150 -95.194879
v 16.935547 0.958386 -95.171842
v 16.957704 0.972128 -95.173163
v 16.976730 0.989679 -95.169779
v 16.991330 1.009843 -95.161922
v 17.000507 1.031247 -95.150127
v 16.974815 1.096984 -95.191912
v 17.073765 0.770481 -94.938155
v 17.110170 0.769236 -94.931054
v 17.129651 0.785876 -94.936064
v 17.146380 0.805915 -94.935849
v 17.159217 0.827989 -94.930423
v 17.167286 0.850593 -94.920155
v 17.140237 0.898347 -94.939048
v 17.321567 0.599506 -94.720505
v 17.364379 0.627929 -94.734999
v 17.377971 0.650079 -94.737470
v 17.388401 0.673773 -94.734105
v 17.394958 0.697395 -94.725134
v 17.377806 0.729937 -94.724662
v 17.673713 4.999993 -91.106023
v 17.377806 0.729937 -94.724662
v 17.673714 0.601542 -94.561216
v 18.010764 4.919074 -91.003014
v 17.377805 5.128388 -91.269470
v 17.140237 0.898347 -94.939048
v 17.140237 5.296798 -91.483856
v 16.974815 1.096984 -95.191912
v 16.974814 5.495435 -91.736720
v 16.891152 1.314304 -95.468560
v 16.891151 5.712755 -92.013368
v 16.894111 1.537678 -95.752915
v 16.894111 5.936129 -92.297723
v 16.983521 1.754123 -96.028449
v 16.983520 6.152575 -92.573257
v 17.154184 1.951061 -96.279151
v 17.154183 6.349512 -92.823959
v 17.396183 2.117047 -96.490450
v 17.396182 6.515498 -93.035257
v 17.695453 2.242433 -96.650066
v 17.695453 6.640884 -93.194874
v 18.034603 2.319933 -96.748723
v 18.034602 6.718384 -93.293531
v 18.393921 2.345043 -96.780688
v 18.393920 6.743494 -93.325496
v 18.752526 2.316304 -96.744103
v 18.752525 6.714755 -93.288911
v 19.089576 2.235385 -96.641094
v 19.089576 6.633836 -93.185901
v 19.385484 2.106990 -96.477647
v 19.089576 2.235385 -96.641094
v 19.385484 6.505441 -93.022455
v 19.623053 1.938580 -96.263261
v 19.623052 6.337031 -92.808069
v 19.788475 1.739943 -96.010397
v 19.788475 6.138394 -92.555205
v 19.872138 1.522622 -95.733748
v 19.872138 5.921074 -92.278556
v 19.869179 1.299249 -95.449394
v 19.869178 5.697700 -91.994202
v 19.779769 1.082803 -95.173860
v 19.779769 5.481254 -91.718668
v 19.609106 0.885865 -94.923158
v 19.609106 5.284316 -91.467966
v 19.367107 0.719880 -94.711859
v 19.367107 5.118331 -91.256667
v 19.067837 0.594494 -94.552243
v 19.067836 4.992945 -91.097051
v 18.728687 0.516994 -94.453586
v 18.728687 4.915445 -90.998394
v 18.369369 0.491884 -94.421621
v 18.369369 4.890335 -90.966429
v 18.010765 0.520623 -94.458206
v 16.620698 -0.044460 -93.900737
v 17.036576 -0.212326 -93.687045
v 17.626519 0.468442 -94.553660
v 17.565381 5.520429 -91.272009
v 17.140237 5.296798 -91.483856
v 17.377805 5.128388 -91.269470
v 17.818474 5.408243 -91.129197
v 17.367915 5.669257 -91.461466
v 16.974814 5.495435 -91.736720
v 17.239533 5.844585 -91.684659
v 16.891151 5.712755 -92.013368
v 17.188984 6.034465 -91.926376
v 16.894111 5.936129 -92.297723
v 17.219713 6.225957 -92.170145
v 16.983520 6.152575 -92.573257
v 17.329626 6.406011 -92.399353
v 17.154183 6.349512 -92.823959
v 17.511232 6.562357 -92.598381
v 17.396182 6.515498 -93.035257
v 17.752155 6.684340 -92.753665
v 17.695453 6.640884 -93.194874
v 18.035977 6.763647 -92.854622
v 18.034602 6.718384 -93.293531
v 18.343355 6.794873 -92.894373
v 18.393920 6.743494 -93.325496
v 18.653343 6.775890 -92.870208
v 18.752525 6.714755 -93.288911
v 18.944816 6.707993 -92.783775
v 19.385484 6.505441 -93.022455
v 19.089576 6.633836 -93.185901
v 19.197908 6.595807 -92.640963
v 19.623052 6.337031 -92.808069
v 19.395374 6.446979 -92.451505
v 19.788475 6.138394 -92.555205
v 19.523756 6.271651 -92.228313
v 19.872138 5.921074 -92.278556
v 19.574305 6.081771 -91.986595
v 19.869178 5.697700 -91.994202
v 19.543576 5.890279 -91.742827
v 19.779769 5.481254 -91.718668
v 19.433663 5.710225 -91.513618
v 19.609106 5.284316 -91.467966
v 19.252057 5.553879 -91.314590
v 19.367107 5.118331 -91.256667
v 19.011134 5.431896 -91.159307
v 19.067836 4.992945 -91.097051
v 18.727312 5.352589 -91.058350
v 18.728687 4.915445 -90.998394
v 18.419934 5.321363 -91.018599
v 18.369369 4.890335 -90.966429
v 18.109946 5.340346 -91.042763
v 18.010764 4.919074 -91.003014
v 17.635958 -0.818196 -95.586798
v 17.786719 -1.044019 -95.229273
v 17.480826 -0.963181 -95.332180
v 17.202305 -0.850758 -95.475294
v 17.977297 -0.901233 -95.481092
v 18.705796 -0.912974 -95.466146
v 19.053681 -0.841046 -95.557710
v 19.091675 -1.018139 -95.262218
v 19.365336 -0.721496 -95.709896
v 19.388544 -0.925347 -95.380342
v 19.623960 -0.560771 -95.914499
v 19.654819 -0.802120 -95.537210
v 19.960832 0.073613 -96.722068
v 19.906573 0.297741 -97.007383
v 20.249745 0.318224 -96.963405
v 19.770104 0.508098 -97.275166
v 20.153366 0.514939 -97.213822
v 19.558784 0.693343 -97.510983
v 20.003154 0.698327 -97.447275
v 18.605940 1.008440 -97.912101
v 18.239211 1.014351 -97.919625
v 18.320400 1.254799 -98.155663
v 17.880161 0.967858 -97.860439
v 17.990059 1.230326 -98.124508
v 17.548146 0.871467 -97.737735
v 17.671616 1.170788 -98.048718
v 16.880356 0.346515 -97.069472
v 16.807251 0.124440 -96.786771
v 16.492275 0.243706 -96.868544
v 16.819022 -0.102064 -96.498433
v 16.473928 0.038491 -96.607306
v 16.915035 -0.320785 -96.220001
v 16.513545 -0.165574 -96.347531
v 16.620698 -0.343285 -94.135478
v 16.290565 -0.374012 -94.628465
v 16.647436 -0.580750 -94.365287
v 16.258325 -0.133359 -94.402714
v 15.997231 -0.132132 -94.936376
v 15.960468 0.112249 -94.715373
v 15.776346 0.137538 -95.279666
v 15.736178 0.386078 -95.063956
v 15.634622 0.426806 -95.647903
v 15.592268 0.679805 -95.437871
v 15.576364 0.726882 -96.029899
v 15.533113 0.984508 -95.825756
v 15.603344 1.028648 -96.414047
v 15.560508 1.290927 -96.215827
v 15.714741 1.322936 -96.788675
v 15.673623 1.589752 -96.596230
v 15.907171 1.600803 -97.142399
v 15.869019 1.871903 -96.955408
v 16.174786 1.853807 -97.464472
v 16.140760 2.128808 -97.282447
v 16.509455 2.074261 -97.745109
v 16.480590 2.352661 -97.567411
v 16.901010 2.255465 -97.975782
v 16.878182 2.536659 -97.801640
v 17.337553 2.391915 -98.149482
v 17.321456 2.675212 -97.978018
v 17.805821 2.479463 -98.260931
v 17.796943 2.764111 -98.091186
v 18.291585 2.515451 -98.306744
v 18.290196 2.800654 -98.137705
v 18.780085 2.498785 -98.285528
v 18.786228 2.783730 -98.116161
v 19.256478 2.429971 -98.197927
v 19.269966 2.713855 -98.027210
v 19.706291 2.311099 -98.046604
v 19.726714 2.593151 -97.873554
v 20.115854 2.145782 -97.836156
v 20.142592 2.425285 -97.659861
v 20.472725 1.939044 -97.572978
v 20.504965 2.215359 -97.392626
v 20.766059 1.697164 -97.265066
v 20.802822 1.969751 -97.079967
v 20.986944 1.427494 -96.921776
v 21.027113 1.695922 -96.731384
v 21.128668 1.138226 -96.553539
v 21.171022 1.402194 -96.357469
v 21.186926 0.838150 -96.171543
v 21.230178 1.097492 -95.969584
v 21.159946 0.536384 -95.787395
v 21.202782 0.791073 -95.579513
v 21.048549 0.242096 -95.412768
v 21.089667 0.492248 -95.199110
v 20.856119 -0.035771 -95.059044
v 20.894271 0.210097 -94.839932
v 20.622530 -0.046808 -94.512892
v 20.588504 -0.288775 -94.736970
v 20.282701 -0.270661 -94.227929
v 20.253835 -0.509229 -94.456334
v 19.885109 -0.454659 -93.993700
v 19.862280 -0.690433 -94.225661
v 19.441834 -0.593212 -93.817322
v 19.425737 -0.826883 -94.051961
v 18.966347 -0.682111 -93.704154
v 18.957469 -0.914431 -93.940511
v 18.473094 -0.718654 -93.657635
v 18.471705 -0.950419 -93.894699
v 17.977062 -0.701731 -93.679178
v 17.983205 -0.933753 -93.915915
v 17.493324 -0.631855 -93.768130
v 17.506812 -0.864938 -94.003516
v 17.036576 -0.511151 -93.921786
v 17.057000 -0.746067 -94.154839
v 18.110688 -1.090816 -95.169701
v 17.691248 -1.124035 -94.922029
v 17.609265 -1.119710 -94.600818
v 17.336267 -1.030225 -95.041450
v 17.546357 -1.031337 -94.287530
v 17.212131 -1.014760 -94.734420
v 17.116878 -0.917839 -94.432013
v 18.340436 -0.933403 -95.440139
v 18.442890 -1.102150 -95.155273
v 18.067206 -1.178342 -94.852897
v 18.029867 -1.180465 -94.523477
v 18.001216 -1.097040 -94.203889
v 18.773231 -1.077676 -95.186428
v 18.452719 -1.191495 -94.836154
v 18.461158 -1.195180 -94.504745
v 18.467634 -1.112953 -94.183632
v 19.550126 -0.986320 -95.097341
v 19.205617 -1.094002 -94.960261
v 19.688881 -0.965641 -94.796948
v 19.303461 -1.086111 -94.643590
v 18.836071 -1.163094 -94.872308
v 19.378540 -0.995001 -94.333786
v 18.890034 -1.163406 -94.545193
v 18.931440 -1.078592 -94.227374
v 19.859132 -0.843318 -95.279382
v 20.034580 -0.805658 -95.000606
v 20.169206 -0.691706 -94.719879
v 19.795350 -0.864719 -94.499634
v 19.882409 -0.652201 -95.728056
v 20.123245 -0.669341 -95.500854
v 20.330056 -0.611022 -95.248377
v 20.488747 -0.481218 -94.987830
v 20.856119 -0.035771 -95.059044
v 20.744265 -0.239650 -95.295345
v 20.566330 -0.387647 -95.532732
v 20.334440 -0.469676 -95.755026
v 20.064399 -0.480147 -95.947080
v 20.195260 -0.291185 -96.187629
v 19.815611 -0.367534 -96.160489
v 19.929956 -0.152203 -96.434605
v 20.271015 -0.091056 -96.442392
v 20.574213 -0.018146 -96.329824
v 20.486301 -0.250390 -96.034177
v 20.834575 0.117502 -96.175785
v 20.736224 -0.142322 -95.845031
v 21.034357 0.306641 -95.990773
v 20.927996 0.025656 -95.633080
v 20.289362 0.114159 -96.703630
v 20.595505 0.220001 -96.632984
v 20.858395 0.383928 -96.514944
v 21.060117 0.594767 -96.357556
v 20.437684 0.685097 -97.225050
v 20.549529 0.456814 -96.934446
v 20.681833 0.904252 -97.177317
v 21.004493 0.881278 -96.722284
v 20.806960 0.648861 -96.852204
v 20.869176 1.157470 -97.073875
v 20.263367 0.897914 -97.495966
v 20.486817 1.142341 -97.480403
v 20.658275 1.414951 -97.401647
v 19.803674 0.862816 -97.656669
v 20.031875 1.088799 -97.738962
v 20.227835 1.355894 -97.752255
v 20.378201 1.645896 -97.695641
v 19.560986 1.003407 -97.835642
v 19.284004 0.843490 -97.702120
v 19.282464 1.115830 -97.978756
v 19.427023 1.382417 -98.112736
v 19.750241 1.251953 -97.946656
v 19.551159 1.684377 -98.170414
v 19.912758 1.538421 -97.984612
v 19.646412 2.001133 -98.147857
v 20.037462 1.843290 -97.946922
v 18.960577 0.950444 -97.838272
v 18.976571 1.196668 -98.081662
v 19.072042 1.476227 -98.232157
v 19.154025 1.789327 -98.304015
v 19.216933 2.114631 -98.292340
v 18.652602 1.243465 -98.141235
v 18.696084 1.530534 -98.301289
v 18.733423 1.850083 -98.381357
v 18.762074 2.180335 -98.375981
v 17.927219 1.515286 -98.281878
v 18.310572 1.543686 -98.318033
v 17.873257 1.833024 -98.359641
v 18.295656 2.196248 -98.396238
v 18.302132 1.864797 -98.400088
v 17.831850 2.161887 -98.352496
v 17.557673 1.446194 -98.193925
v 17.459829 1.755728 -98.261243
v 17.384750 2.078295 -98.246085
v 17.374747 1.077996 -97.930594
v 17.213164 1.338511 -98.056845
v 17.074410 1.635258 -98.107886
v 16.967940 1.948014 -98.080236
v 17.108471 0.954769 -97.773726
v 17.261065 0.730376 -97.558126
v 16.880881 0.804851 -97.582880
v 16.640045 1.021533 -97.653333
v 16.904158 1.195509 -97.874804
v 16.433235 1.280639 -97.656457
v 16.728710 1.475275 -97.904227
v 16.274543 1.564512 -97.592040
v 16.594084 1.775001 -97.859991
v 17.034395 0.552190 -97.331295
v 16.698891 0.632797 -97.363856
v 16.428850 0.821868 -97.399160
v 16.196960 1.057265 -97.372102
v 16.019025 1.322945 -97.284525
v 16.568030 0.443835 -97.123307
v 16.276989 0.602582 -97.120009
v 16.027067 0.811939 -97.059803
v 15.835294 1.057638 -96.946791
v 16.167786 0.132191 -96.521202
v 16.189077 0.370337 -96.824362
v 15.904895 0.285690 -96.389889
v 15.728933 0.776653 -96.589097
v 15.928716 0.552116 -96.729048
v 15.703173 0.488528 -96.222314
v 16.213761 -0.104622 -96.219740
v 15.956330 0.020756 -96.052629
v 15.758797 0.202016 -95.857586
v 16.609924 -0.362289 -96.097114
v 16.325606 -0.332905 -95.929136
v 16.081457 -0.234635 -95.727517
v 15.894114 -0.074175 -95.505995
v 16.760136 -0.545677 -95.863661
v 17.090113 -0.519933 -95.966487
v 16.959616 -0.710166 -95.654267
v 16.731416 -0.736608 -95.415224
v 16.499923 -0.545722 -95.658220
v 16.535455 -0.686276 -95.152578
v 16.276474 -0.472724 -95.424430
v 16.385089 -0.562601 -94.884229
v 16.105015 -0.331656 -95.178222
v 17.334818 -0.688770 -95.751556
v 17.013049 -0.899761 -95.207530
v 16.850532 -0.868804 -94.920222
v 16.725828 -0.759995 -94.632948
v 17.400686 -0.333996 -96.203183
v 17.635958 -0.818196 -95.586798
v 17.334818 -0.688770 -95.751556
v 17.090113 -0.519933 -95.966487
v 16.807251 0.124440 -96.786771
v 17.363634 0.378942 -97.110752
v 16.915035 -0.320785 -96.220001
v 16.819022 -0.102064 -96.498433
v 18.418696 -0.670643 -95.774632
v 19.365336 -0.721496 -95.709896
v 19.053681 -0.841046 -95.557710
v 18.705796 -0.912974 -95.466146
v 18.340436 -0.933403 -95.440139
v 17.977297 -0.901233 -95.481092
v 19.399656 -0.294353 -96.253649
v 19.960832 0.073613 -96.722068
v 19.929956 -0.152203 -96.434605
v 19.815611 -0.367534 -96.160489
v 19.623960 -0.560771 -95.914499
v 19.362605 0.418586 -97.161217
v 19.284004 0.843490 -97.702120
v 19.558784 0.693343 -97.510983
v 19.770104 0.508098 -97.275166
v 19.906573 0.297741 -97.007383
v 18.344594 0.755233 -97.589768
v 17.548146 0.871467 -97.737735
v 17.880161 0.967858 -97.860439
v 18.239211 1.014351 -97.919625
v 18.605940 1.008440 -97.912101
v 18.960577 0.950444 -97.838272
v 16.880356 0.346515 -97.069472
v 17.034395 0.552190 -97.331295
v 17.261065 0.730376 -97.558126
v 18.344594 1.573070 -96.947318
v 18.085907 1.527480 -96.778861
v 18.344594 0.755233 -97.589768
v 19.362604 1.236423 -96.518767
v 19.094147 1.378840 -96.589643
v 19.362605 0.418586 -97.161217
v 19.639686 0.729126 -94.885510
v 19.729902 0.917001 -95.077261
v 19.715891 0.937921 -95.070365
v 19.707084 0.959799 -95.059174
v 19.779769 1.082803 -95.173860
v 19.089576 6.633836 -93.185901
v 17.493324 -0.333030 -93.533388
v 17.972179 0.384354 -94.446617
v 17.977062 -0.402905 -93.444437
v 18.339914 0.351777 -94.405145
v 18.473094 -0.419829 -93.422894
v 18.709899 0.372465 -94.431481
v 18.966347 -0.383286 -93.469413
v 19.441834 -0.294387 -93.582580
v 19.062187 0.445303 -94.524204
v 19.885109 -0.155834 -93.758958
v 19.377788 0.566366 -94.678317
v 20.282700 0.028164 -93.993188
v 19.639686 0.729126 -94.885510
v 20.622530 0.252017 -94.278151
v 20.894271 0.508922 -94.605190
v 19.833762 0.924809 -95.134613
v 21.089667 0.791073 -94.964368
v 19.949555 1.142865 -95.412199
v 21.202782 1.089898 -95.344772
v 19.980821 1.371540 -95.703301
v 21.230178 1.396317 -95.734842
v 21.171022 1.701020 -96.122728
v 19.925875 1.598505 -95.992227
v 21.027113 1.994747 -96.496643
v 19.787680 1.811525 -96.263400
v 20.802822 2.268576 -96.845225
v 19.573684 1.999115 -96.502202
v 20.504965 2.514184 -97.157885
v 20.142592 2.724111 -97.425120
v 19.295426 2.151162 -96.695758
v 19.726714 2.891976 -97.638813
v 18.967905 2.259470 -96.833634
v 19.269967 3.012680 -97.792469
v 18.608779 2.318200 -96.908397
v 18.786228 3.082556 -97.881420
v 18.290196 3.099479 -97.902964
v 18.237408 2.324186 -96.916017
v 17.796943 3.062936 -97.856445
v 17.873813 2.277104 -96.856082
v 17.321456 2.974037 -97.743277
v 17.537595 2.179493 -96.731824
v 16.878182 2.835484 -97.566899
v 16.480589 2.651486 -97.332669
v 17.246881 2.036616 -96.549942
v 16.140760 2.427633 -97.047706
v 17.017341 1.856174 -96.320240
v 15.869019 2.170729 -96.720667
v 16.861352 1.647896 -96.055103
v 15.673623 1.888577 -96.361489
v 15.560508 1.589752 -95.981085
v 16.787322 1.423010 -95.768823
v 15.533113 1.283333 -95.591015
v 16.799242 1.193639 -95.476835
v 15.592268 0.978631 -95.203129
v 16.896470 0.972150 -95.194879
v 15.736177 0.684903 -94.829215
v 15.960468 0.411075 -94.480632
v 17.073765 0.770481 -94.938155
v 16.258325 0.165466 -94.167972
v 17.321567 0.599506 -94.720505
v 17.673713 4.999993 -91.106023
v 17.818474 5.408243 -91.129197
v 17.673713 4.999993 -91.106023
v 17.818474 5.408243 -91.129197
v 18.109946 5.340346 -91.042763
v 17.565381 5.520429 -91.272009
v 17.367915 5.669257 -91.461466
v 18.419934 5.321363 -91.018599
v 17.239533 5.844585 -91.684659
v 18.727312 5.352589 -91.058350
v 17.188984 6.034465 -91.926376
v 19.011134 5.431896 -91.159307
v 17.219713 6.225957 -92.170145
v 19.252057 5.553879 -91.314590
v 17.329626 6.406011 -92.399353
v 19.433663 5.710225 -91.513618
v 17.511232 6.562357 -92.598381
v 19.543576 5.890279 -91.742827
v 17.752155 6.684340 -92.753665
v 19.574305 6.081771 -91.986595
v 18.035977 6.763647 -92.854622
v 19.523756 6.271651 -92.228313
v 18.343355 6.794873 -92.894373
v 19.395374 6.446979 -92.451505
v 18.653343 6.775890 -92.870208
v 19.197908 6.595807 -92.640963
v 18.944816 6.707993 -92.783775
v 20.894271 0.210097 -94.839932
v 20.744265 -0.239650 -95.295345
v 20.566330 -0.387647 -95.532732
v 20.334440 -0.469676 -95.755026
v 20.064399 -0.480147 -95.947080
v 19.623960 -0.560771 -95.914499
v 16.620698 -0.044460 -93.900737
v 16.620698 -0.343285 -94.135478
v 17.036576 -0.212326 -93.687045
v 16.258325 -0.133359 -94.402714
v 17.036576 -0.511151 -93.921786
v 17.493324 -0.333030 -93.533388
v 17.493324 -0.631855 -93.768130
v 17.977062 -0.402905 -93.444437
v 17.977062 -0.701731 -93.679178
v 18.473094 -0.419829 -93.422894
v 18.473094 -0.718654 -93.657635
v 18.966347 -0.383286 -93.469413
v 18.966347 -0.682111 -93.704154
v 19.441834 -0.294387 -93.582580
v 19.441834 -0.593212 -93.817322
v 19.885109 -0.155834 -93.758958
v 19.885109 -0.454659 -93.993700
v 20.282700 0.028164 -93.993188
v 20.282701 -0.270661 -94.227929
v 20.622530 0.252017 -94.278151
v 20.622530 -0.046808 -94.512892
v 20.894271 0.508922 -94.605190
v 20.894271 0.210097 -94.839932
v 21.089667 0.791073 -94.964368
v 21.089667 0.492248 -95.199110
v 21.202782 1.089898 -95.344772
v 21.202782 0.791073 -95.579513
v 21.230178 1.396317 -95.734842
v 21.230178 1.097492 -95.969584
v 21.171022 1.701020 -96.122728
v 21.171022 1.402194 -96.357469
v 21.027113 1.994747 -96.496643
v 21.027113 1.695922 -96.731384
v 20.802822 2.268576 -96.845225
v 20.802822 1.969751 -97.079967
v 20.504965 2.514184 -97.157885
v 20.504965 2.215359 -97.392626
v 20.142592 2.724111 -97.425120
v 20.142592 2.425285 -97.659861
v 19.726714 2.891976 -97.638813
v 19.726714 2.593151 -97.873554
v 19.726714 2.891976 -97.638813
v 19.726714 2.593151 -97.873554
v 19.269967 3.012680 -97.792469
v 19.269966 2.713855 -98.027210
v 18.786228 3.082556 -97.881420
v 18.786228 2.783730 -98.116161
v 18.290196 3.099479 -97.902964
v 18.290196 2.800654 -98.137705
v 17.796943 3.062936 -97.856445
v 17.796943 2.764111 -98.091186
v 17.321456 2.974037 -97.743277
v 17.321456 2.675212 -97.978018
v 16.878182 2.835484 -97.566899
v 16.878182 2.536659 -97.801640
v 16.480589 2.651486 -97.332669
v 16.480590 2.352661 -97.567411
v 16.140760 2.427633 -97.047706
v 16.140760 2.128808 -97.282447
v 15.869019 2.170729 -96.720667
v 15.869019 1.871903 -96.955408
v 15.673623 1.888577 -96.361489
v 15.673623 1.589752 -96.596230
v 15.560508 1.589752 -95.981085
v 15.560508 1.290927 -96.215827
v 15.533113 1.283333 -95.591015
v 15.533113 0.984508 -95.825756
v 15.592268 0.978631 -95.203129
v 15.592268 0.679805 -95.437871
v 15.736177 0.684903 -94.829215
v 15.736178 0.386078 -95.063956
v 15.960468 0.411075 -94.480632
v 15.960468 0.112249 -94.715373
v 16.258325 0.165466 -94.167972
v 17.854114 1.455161 -96.652636
v 17.363634 0.378942 -97.110752
v 17.622321 1.349651 -96.552485
v 17.363634 1.196779 -96.468301
v 17.363634 1.196779 -96.468301
v 17.373405 1.062412 -96.186831
v 17.363634 0.378942 -97.110752
v 17.382160 0.910547 -95.959343
v 17.400686 -0.333996 -96.203183
v 17.390915 0.725489 -95.757929
v 17.400686 0.483841 -95.560733
v 17.400686 0.483841 -95.560733
v 17.669143 0.448705 -95.405584
v 17.400686 -0.333996 -96.203183
v 17.909691 0.385755 -95.291283
v 18.418696 -0.670643 -95.774632
v 18.150239 0.289611 -95.203057
v 18.418696 0.147194 -95.132182
v 18.418696 0.147194 -95.132182
v 18.677383 0.300065 -95.216365
v 18.418696 -0.670643 -95.774632
v 18.909176 0.405576 -95.316516
v 19.399656 -0.294353 -96.253649
v 19.140969 0.477894 -95.442741
v 19.399656 0.523485 -95.611199
v 18.853599 1.474983 -96.677869
v 18.344594 0.755233 -97.589768
v 18.613051 1.537934 -96.792169
v 18.344594 1.573070 -96.947318
v 19.399656 0.523485 -95.611199
v 19.389885 0.765133 -95.808395
v 19.399656 -0.294353 -96.253649
v 19.381130 0.950191 -96.009809
v 19.362605 0.418586 -97.161217
v 19.372375 1.102056 -96.237297
v 19.362604 1.236423 -96.518767
v 19.140969 0.477894 -95.442741
v 18.381645 1.384387 -95.627923
v 19.399656 0.523485 -95.611199
v 18.909176 0.405576 -95.316516
v 18.381645 1.384387 -95.627923
v 19.389885 0.765133 -95.808395
v 18.418696 0.147194 -95.132182
v 18.381645 1.384387 -95.627923
v 18.677383 0.300065 -95.216365
v 18.150239 0.289611 -95.203057
v 18.381645 1.384387 -95.627923
v 18.381645 1.384387 -95.627923
v 17.909691 0.385755 -95.291283
v 17.400686 0.483841 -95.560733
v 18.381645 1.384387 -95.627923
v 17.669143 0.448705 -95.405584
v 17.390915 0.725489 -95.757929
v 18.381645 1.384387 -95.627923
v 18.381645 1.384387 -95.627923
v 17.382160 0.910547 -95.959343
v 17.363634 1.196779 -96.468301
v 18.381645 1.384387 -95.627923
v 17.373405 1.062412 -96.186831
v 17.622321 1.349651 -96.552485
v 18.381645 1.384387 -95.627923
v 18.381645 1.384387 -95.627923
v 17.854114 1.455161 -96.652636
v 18.344594 1.573070 -96.947318
v 18.381645 1.384387 -95.627923
v 18.085907 1.527480 -96.778861
v 18.613051 1.537934 -96.792169
v 18.381645 1.384387 -95.627923
v 18.381645 1.384387 -95.627923
v 18.853599 1.474983 -96.677869
v 19.362604 1.236423 -96.518767
v 18.381645 1.384387 -95.627923
v 19.094147 1.378840 -96.589643
v 19.372375 1.102056 -96.237297
v 18.381645 1.384387 -95.627923
v 18.381645 1.384387 -95.627923
v 18.853599 1.474983 -96.677869
v 19.381130 0.950191 -96.009809
v 18.381645 1.384387 -95.627923
f 1 2 3
f 1 3 4
f 1 5 2
f 1 4 190
f 2 5 35
f 2 36 3
f 2 35 45
f 2 45 36
f 3 36 38
f 3 38 4
f 4 184 190
f 4 38 191
f 4 191 184
f 5 43 35
f 6 7 8
f 6 8 106
f 6 112 119
f 6 106 112
f 7 9 10
f 7 10 8
f 8 99 100
f 8 10 99
f 8 100 106
f 9 11 12
f 9 12 10
f 10 94 99
f 10 12 94
f 11 13 14
f 11 14 12
f 12 88 94
f 12 14 88
f 13 15 16
f 13 16 14
f 14 82 88
f 14 16 82
f 15 17 18
f 15 18 16
f 16 74 82
f 16 18 74
f 17 77 18
f 18 76 74
f 18 77 76
f 19 20 21
f 19 21 587
f 19 587 588
f 20 22 23
f 20 23 21
f 21 61 65
f 21 23 61
f 21 65 587
f 22 24 25
f 22 25 23
f 23 57 61
f 23 25 57
f 24 26 27
f 24 27 25
f 25 52 57
f 25 27 52
f 26 28 29
f 26 29 27
f 27 47 52
f 27 29 47
f 28 30 31
f 28 31 29
f 29 39 47
f 29 31 39
f 30 42 31
f 30 194 42
f 30 195 194
f 31 41 39
f 31 42 41
f 32 33 34
f 32 34 62
f 33 585 63
f 33 63 34
f 34 54 58
f 34 58 62
f 34 63 54
f 35 43 44
f 35 44 50
f 35 50 45
f 36 37 38
f 36 45 46
f 36 46 37
f 37 39 40
f 37 40 38
f 37 46 47
f 37 47 39
f 38 40 191
f 39 41 40
f 40 192 191
f 40 41 192
f 41 193 192
f 41 42 193
f 42 194 193
f 43 48 44
f 44 48 49
f 44 49 55
f 44 55 50
f 45 50 51
f 45 51 46
f 46 51 52
f 46 52 47
f 48 53 49
f 49 53 54
f 49 54 59
f 49 59 55
f 50 55 56
f 50 56 51
f 51 56 57
f 51 57 52
f 53 58 54
f 54 63 59
f 55 59 60
f 55 60 56
f 56 60 61
f 56 61 57
f 59 63 64
f 59 64 60
f 60 64 65
f 60 65 61
f 63 585 64
f 64 585 586
f 64 586 65
f 65 586 587
f 66 67 68
f 66 68 69
f 66 70 71
f 66 69 80
f 66 80 70
f 66 71 67
f 67 71 584
f 68 78 69
f 69 78 79
f 69 79 85
f 69 85 80
f 70 72 73
f 70 73 71
f 70 80 81
f 70 81 72
f 72 74 75
f 72 75 73
f 72 81 82
f 72 82 74
f 74 76 75
f 78 83 79
f 79 83 84
f 79 84 86
f 79 86 85
f 80 85 87
f 80 87 81
f 81 87 88
f 81 88 82
f 83 89 84
f 84 89 90
f 84 90 91
f 84 91 86
f 85 86 92
f 85 92 87
f 86 91 93
f 86 93 92
f 87 92 94
f 87 94 88
f 89 95 90
f 90 95 96
f 90 96 97
f 90 97 91
f 91 97 98
f 91 98 93
f 92 93 99
f 92 99 94
f 93 98 100
f 93 100 99
f 95 101 96
f 96 101 102
f 96 102 103
f 96 103 97
f 97 103 104
f 97 104 98
f 98 104 105
f 98 105 100
f 100 105 106
f 101 107 102
f 102 107 108
f 102 108 109
f 102 109 103
f 103 109 110
f 103 110 104
f 104 110 111
f 104 111 105
f 105 111 112
f 105 112 106
f 107 113 108
f 108 113 114
f 108 114 115
f 108 115 109
f 109 115 116
f 109 116 110
f 110 116 117
f 110 117 111
f 111 117 118
f 111 118 112
f 112 118 119
f 113 120 114
f 114 120 121
f 114 121 122
f 114 122 115
f 115 122 123
f 115 123 116
f 116 123 124
f 116 124 117
f 117 124 125
f 117 125 118
f 118 126 119
f 118 125 126
f 120 127 121
f 121 127 128
f 121 128 129
f 121 129 122
f 122 129 130
f 122 130 123
f 123 130 131
f 123 131 124
f 124 131 132
f 124 132 125
f 125 133 126
f 125 132 133
f 127 134 128
f 128 134 135
f 128 135 136
f 128 136 129
f 129 136 137
f 129 137 130
f 130 137 138
f 130 138 131
f 131 138 139
f 131 139 132
f 132 140 133
f 132 139 140
f 134 141 135
f 135 141 142
f 135 142 143
f 135 143 136
f 136 143 144
f 136 144 137
f 137 144 145
f 137 145 138
f 138 145 146
f 138 146 139
f 139 147 140
f 139 146 147
f 141 148 142
f 142 148 149
f 142 149 150
f 142 150 143
f 143 150 151
f 143 151 144
f 144 151 152
f 144 152 145
f 145 152 153
f 145 153 146
f 146 154 147
f 146 153 154
f 148 155 149
f 149 155 156
f 149 156 157
f 149 157 150
f 150 157 158
f 150 158 151
f 151 158 159
f 151 159 152
f 152 159 160
f 152 160 153
f 153 161 154
f 153 160 161
f 155 162 156
f 156 162 163
f 156 163 164
f 156 164 157
f 157 164 165
f 157 165 158
f 158 165 166
f 158 166 159
f 159 166 167
f 159 167 160
f 160 168 161
f 160 167 168
f 162 169 163
f 163 169 170
f 163 170 171
f 163 171 164
f 164 171 172
f 164 172 165
f 165 172 173
f 165 173 166
f 166 173 174
f 166 174 167
f 167 175 168
f 167 174 175
f 169 176 170
f 170 176 177
f 170 177 178
f 170 178 171
f 171 178 179
f 171 179 172
f 172 179 180
f 172 180 173
f 173 180 181
f 173 181 174
f 174 182 175
f 174 181 182
f 176 183 177
f 177 183 184
f 177 184 185
f 177 185 178
f 178 185 186
f 178 186 179
f 179 186 187
f 179 187 180
f 180 187 188
f 180 188 181
f 181 189 182
f 181 188 189
f 183 190 184
f 184 191 185
f 185 191 192
f 185 192 186
f 186 192 193
f 186 193 187
f 187 193 194
f 187 194 188
f 188 195 189
f 188 194 195
f 196 197 198
f 196 198 199
f 196 200 197
f 197 200 201
f 198 248 199
f 199 248 247
f 200 202 201
f 201 202 203
f 202 204 203
f 203 204 205
f 204 206 205
f 205 206 207
f 206 208 207
f 207 208 209
f 208 210 209
f 209 210 211
f 210 212 211
f 211 212 213
f 212 214 213
f 213 214 215
f 214 216 215
f 215 216 217
f 216 218 217
f 217 218 219
f 218 220 219
f 219 220 221
f 220 222 221
f 221 222 223
f 222 589 223
f 224 225 226
f 224 227 225
f 225 227 228
f 227 229 228
f 228 229 230
f 229 231 230
f 230 231 232
f 231 233 232
f 232 233 234
f 233 235 234
f 234 235 236
f 235 237 236
f 236 237 238
f 237 239 238
f 238 239 240
f 239 241 240
f 240 241 242
f 241 243 242
f 242 243 244
f 243 245 244
f 244 245 246
f 245 247 246
f 246 247 248
f 249 250 251
f 249 649 648
f 249 251 649
f 250 590 251
f 251 590 591
f 252 253 254
f 252 254 255
f 252 256 253
f 253 256 257
f 254 650 255
f 256 258 257
f 257 258 259
f 258 260 259
f 259 260 261
f 260 262 261
f 261 262 263
f 262 264 263
f 263 264 265
f 264 266 265
f 265 266 267
f 266 268 267
f 267 268 269
f 268 270 269
f 269 270 271
f 270 272 271
f 271 272 273
f 272 274 273
f 273 274 275
f 274 276 275
f 275 276 278
f 276 277 278
f 276 279 277
f 277 279 280
f 279 281 280
f 280 281 282
f 281 283 282
f 282 283 284
f 283 285 284
f 284 285 286
f 285 287 286
f 286 287 288
f 287 289 288
f 288 289 290
f 289 291 290
f 290 291 292
f 291 293 292
f 292 293 294
f 293 295 294
f 294 295 296
f 295 297 296
f 296 297 298
f 297 299 298
f 298 299 300
f 299 651 300
f 300 651 652
f 301 302 303
f 301 303 304
f 301 305 302
f 301 304 541
f 302 305 406
f 302 407 303
f 302 406 415
f 302 415 407
f 303 407 409
f 303 409 304
f 304 534 541
f 304 409 542
f 304 542 534
f 305 413 406
f 306 307 308
f 306 414 413
f 306 418 414
f 306 308 418
f 307 309 310
f 307 310 308
f 308 310 422
f 308 422 423
f 308 423 418
f 309 311 312
f 309 312 310
f 310 312 430
f 310 430 422
f 311 434 312
f 311 442 434
f 312 434 435
f 312 435 430
f 313 314 315
f 313 446 445
f 313 453 446
f 313 315 453
f 314 316 317
f 314 317 315
f 315 317 457
f 315 457 458
f 315 458 453
f 316 318 319
f 316 319 317
f 317 319 463
f 317 463 457
f 318 466 319
f 318 471 470
f 318 470 466
f 319 466 467
f 319 467 463
f 320 321 322
f 320 480 479
f 320 484 480
f 320 322 484
f 321 323 324
f 321 324 322
f 322 324 488
f 322 488 489
f 322 489 484
f 323 325 326
f 323 326 324
f 324 326 494
f 324 494 488
f 325 497 326
f 325 502 501
f 325 501 497
f 326 497 498
f 326 498 494
f 327 328 329
f 327 511 510
f 327 515 511
f 327 329 515
f 328 330 331
f 328 331 329
f 329 331 519
f 329 519 520
f 329 520 515
f 330 332 333
f 330 333 331
f 331 333 525
f 331 525 519
f 332 528 333
f 332 533 532
f 332 532 528
f 333 528 529
f 333 529 525
f 334 335 336
f 334 337 335
f 334 336 404
f 335 337 338
f 335 540 539
f 335 338 540
f 335 539 336
f 336 539 544
f 336 544 405
f 336 405 404
f 337 339 338
f 338 339 340
f 338 340 531
f 338 531 540
f 339 341 340
f 340 341 342
f 340 527 531
f 340 342 527
f 341 343 342
f 342 343 344
f 342 344 524
f 342 524 527
f 343 345 344
f 344 345 346
f 344 522 524
f 344 346 522
f 345 347 346
f 346 347 348
f 346 348 518
f 346 518 522
f 347 349 348
f 348 349 350
f 348 514 518
f 348 350 514
f 349 351 350
f 350 351 352
f 350 508 514
f 350 352 508
f 351 353 352
f 352 353 354
f 352 509 508
f 352 354 509
f 353 355 354
f 354 355 356
f 354 356 500
f 354 500 509
f 355 357 356
f 356 357 358
f 356 496 500
f 356 358 496
f 357 359 358
f 358 359 360
f 358 360 493
f 358 493 496
f 359 361 360
f 360 361 362
f 360 491 493
f 360 362 491
f 361 363 362
f 362 363 364
f 362 364 487
f 362 487 491
f 363 365 364
f 364 365 366
f 364 483 487
f 364 366 483
f 365 367 366
f 366 367 368
f 366 477 483
f 366 368 477
f 367 369 368
f 368 369 370
f 368 478 477
f 368 370 478
f 369 371 370
f 370 371 372
f 370 372 469
f 370 469 478
f 371 373 372
f 372 373 374
f 372 465 469
f 372 374 465
f 373 375 374
f 374 375 376
f 374 376 462
f 374 462 465
f 375 377 376
f 376 377 378
f 376 460 462
f 376 378 460
f 377 379 378
f 378 379 380
f 378 380 456
f 378 456 460
f 379 381 380
f 380 381 382
f 380 451 456
f 380 382 451
f 381 383 382
f 382 383 384
f 382 452 451
f 382 384 452
f 383 385 384
f 384 385 386
f 384 386 678
f 384 678 452
f 385 677 386
f 387 388 389
f 387 389 438
f 388 390 391
f 388 391 389
f 389 432 437
f 389 437 438
f 389 391 432
f 390 392 393
f 390 393 391
f 391 433 432
f 391 393 433
f 392 394 395
f 392 395 393
f 393 427 433
f 393 395 427
f 394 396 397
f 394 397 395
f 395 429 427
f 395 397 429
f 396 398 399
f 396 399 397
f 397 399 421
f 397 421 429
f 398 400 401
f 398 401 399
f 399 417 421
f 399 401 417
f 400 402 403
f 400 403 401
f 401 410 417
f 401 403 410
f 402 404 405
f 402 405 403
f 403 412 410
f 403 405 412
f 405 544 412
f 406 413 414
f 406 414 419
f 406 419 415
f 407 408 409
f 407 415 416
f 407 416 408
f 408 410 411
f 408 411 409
f 408 416 417
f 408 417 410
f 409 411 542
f 410 412 411
f 411 543 542
f 411 412 543
f 412 544 543
f 414 426 419
f 414 418 426
f 415 419 420
f 415 420 416
f 416 420 421
f 416 421 417
f 418 423 426
f 419 428 420
f 419 426 428
f 420 429 421
f 420 428 429
f 422 424 423
f 422 430 431
f 422 431 424
f 423 425 426
f 423 424 425
f 424 431 432
f 424 433 425
f 424 432 433
f 425 427 428
f 425 428 426
f 425 433 427
f 427 429 428
f 430 435 436
f 430 436 431
f 431 436 437
f 431 437 432
f 434 441 435
f 434 442 441
f 435 440 436
f 435 441 440
f 436 439 437
f 436 440 439
f 437 439 438
f 443 444 445
f 443 445 446
f 443 446 447
f 443 447 448
f 443 681 444
f 443 448 681
f 444 681 682
f 446 453 454
f 446 454 447
f 447 449 448
f 447 454 455
f 447 455 449
f 448 449 450
f 448 680 681
f 448 450 680
f 449 451 450
f 449 455 456
f 449 456 451
f 450 451 452
f 450 679 680
f 450 452 679
f 452 678 679
f 453 458 454
f 454 461 455
f 454 458 461
f 455 460 456
f 455 461 460
f 457 459 458
f 457 463 464
f 457 464 459
f 458 459 461
f 459 464 465
f 459 462 461
f 459 465 462
f 460 461 462
f 463 467 468
f 463 468 464
f 464 468 469
f 464 469 465
f 466 474 467
f 466 470 474
f 467 476 468
f 467 474 476
f 468 478 469
f 468 476 478
f 470 471 472
f 470 472 473
f 470 473 474
f 471 479 472
f 472 479 480
f 472 480 481
f 472 481 473
f 473 475 474
f 473 481 482
f 473 482 475
f 474 475 476
f 475 477 476
f 475 482 483
f 475 483 477
f 476 477 478
f 480 484 485
f 480 485 481
f 481 485 486
f 481 486 482
f 482 486 487
f 482 487 483
f 484 489 485
f 485 492 486
f 485 489 492
f 486 491 487
f 486 492 491
f 488 490 489
f 488 494 495
f 488 495 490
f 489 490 492
f 490 495 496
f 490 493 492
f 490 496 493
f 491 492 493
f 494 498 499
f 494 499 495
f 495 499 500
f 495 500 496
f 497 505 498
f 497 501 505
f 498 507 499
f 498 505 507
f 499 509 500
f 499 507 509
f 501 502 503
f 501 503 504
f 501 504 505
f 502 510 503
f 503 510 511
f 503 511 512
f 503 512 504
f 504 506 505
f 504 512 513
f 504 513 506
f 505 506 507
f 506 508 507
f 506 513 514
f 506 514 508
f 507 508 509
f 511 515 516
f 511 516 512
f 512 516 517
f 512 517 513
f 513 517 518
f 513 518 514
f 515 520 516
f 516 523 517
f 516 520 523
f 517 522 518
f 517 523 522
f 519 521 520
f 519 525 526
f 519 526 521
f 520 521 523
f 521 526 527
f 521 524 523
f 521 527 524
f 522 523 524
f 525 529 530
f 525 530 526
f 526 530 531
f 526 531 527
f 528 536 529
f 528 532 536
f 529 538 530
f 529 536 538
f 530 540 531
f 530 538 540
f 532 533 534
f 532 534 535
f 532 535 536
f 533 541 534
f 534 542 535
f 535 537 536
f 535 542 543
f 535 543 537
f 536 537 538
f 537 539 538
f 537 543 544
f 537 544 539
f 538 539 540
f 545 546 547
f 545 547 548
f 545 549 550
f 545 551 552
f 545 552 549
f 545 553 546
f 545 548 551
f 546 553 558
f 549 575 550
f 550 570 569
f 550 575 576
f 550 577 570
f 550 576 577
f 553 554 555
f 553 555 556
f 553 557 558
f 553 559 554
f 553 556 557
f 554 559 563
f 559 560 561
f 559 561 562
f 559 564 560
f 559 562 563
f 560 564 568
f 564 565 566
f 564 566 567
f 564 569 565
f 564 567 568
f 565 569 574
f 569 570 571
f 569 571 572
f 569 573 574
f 569 572 573
f 578 579 580
f 579 757 580
f 580 757 758
f 581 582 583
f 582 782 583
f 583 782 783
f 590 592 591
f 591 592 593
f 592 594 593
f 593 594 595
f 594 596 595
f 595 596 597
f 595 597 598
f 597 599 598
f 598 599 600
f 599 601 600
f 600 601 602
f 601 603 602
f 602 603 604
f 602 604 605
f 604 606 605
f 605 606 607
f 606 608 607
f 607 608 609
f 608 610 609
f 609 610 611
f 609 611 612
f 611 613 612
f 612 613 614
f 613 615 614
f 614 615 616
f 615 617 616
f 616 617 618
f 616 618 619
f 618 620 619
f 619 620 621
f 620 622 621
f 621 622 623
f 622 624 623
f 623 624 625
f 623 625 626
f 625 627 626
f 626 627 628
f 627 629 628
f 628 629 630
f 629 631 630
f 630 631 632
f 630 632 633
f 632 634 633
f 633 634 635
f 634 636 635
f 635 636 637
f 636 638 637
f 637 638 639
f 637 639 640
f 639 641 640
f 640 641 642
f 641 643 642
f 642 643 644
f 643 645 644
f 644 645 646
f 644 646 647
f 646 648 647
f 647 648 649
f 653 654 655
f 654 656 655
f 654 657 656
f 656 657 658
f 657 659 658
f 658 659 660
f 659 661 660
f 660 661 662
f 661 663 662
f 662 663 664
f 663 665 664
f 664 665 666
f 665 667 666
f 666 667 668
f 667 669 668
f 668 669 670
f 669 671 670
f 670 671 672
f 671 673 672
f 672 673 674
f 673 675 674
f 674 675 676
f 683 684 685
f 683 686 684
f 683 756 686
f 684 687 685
f 685 687 688
f 686 756 755
f 687 689 688
f 688 689 690
f 689 691 690
f 690 691 692
f 691 693 692
f 692 693 694
f 693 695 694
f 694 695 696
f 695 697 696
f 696 697 698
f 697 699 698
f 698 699 700
f 699 701 700
f 700 701 702
f 701 703 702
f 702 703 704
f 703 705 704
f 704 705 706
f 705 707 706
f 706 707 708
f 707 709 708
f 708 709 710
f 709 711 710
f 710 711 712
f 711 713 712
f 712 713 714
f 713 715 714
f 714 715 716
f 715 717 716
f 716 717 718
f 717 719 718
f 718 719 720
f 719 721 720
f 720 721 722
f 721 723 722
f 724 725 726
f 725 727 726
f 726 727 728
f 727 729 728
f 728 729 730
f 729 731 730
f 730 731 732
f 731 733 732
f 732 733 734
f 733 735 734
f 734 735 736
f 735 737 736
f 736 737 738
f 737 739 738
f 738 739 740
f 739 741 740
f 740 741 742
f 741 743 742
f 742 743 744
f 743 745 744
f 744 745 746
f 745 747 746
f 746 747 748
f 747 749 748
f 748 749 750
f 749 751 750
f 750 751 752
f 751 753 752
f 752 753 754
f 753 755 754
f 754 755 756
f 757 759 758
f 758 759 760
f 761 762 763
f 762 764 763
f 763 764 765
f 764 766 765
f 765 766 767
f 768 769 770
f 769 771 770
f 770 771 772
f 771 773 772
f 772 773 774
f 775 776 777
f 776 778 777
f 777 778 779
f 778 780 779
f 779 780 781
f 782 784 783
f 783 784 785
f 786 787 788
f 787 789 788
f 788 789 790
f 789 791 790
f 790 791 792
f 793 794 795
f 793 796 794
f 795 797 798
f 796 801 804
f 798 835 834
f 799 800 801
f 799 802 803
f 802 805 803
f 805 808 811
f 806 807 808
f 806 809 810
f 809 812 810
f 812 815 818
f 813 814 815
f 813 816 817
f 816 819 817
f 819 822 825
f 820 821 822
f 820 823 824
f 823 826 824
f 827 828 829
f 827 830 831
f 829 832 833
f 830 834 831