# Part7
# Autodesk dbId: 3
# Units: mm
o 003_Part7
v -37.500001 -87.461493 -16.829063
v -40.088190 -84.661493 -16.488324
v -37.500001 -84.661493 -16.829063
v -40.088190 -87.461493 -16.488324
v -42.499999 -84.661493 -15.489319
v -42.499999 -87.461493 -15.489319
v -44.571065 -84.661493 -13.900134
v -44.571065 -87.461493 -13.900134
v -46.160255 -84.661493 -11.829065
v -46.160255 -87.461493 -11.829065
v -47.159257 -84.661493 -9.417253
v -47.159257 -87.461493 -9.417253
v -47.500000 -84.661493 -6.829063
v -47.500000 -87.461493 -6.829063
v 22.804194 -84.661493 45.975131
v 22.545309 -84.661493 46.173780
v 47.500000 -84.661493 117.170936
v 21.295309 -84.661493 46.173780
v 21.036426 -84.661493 45.975131
v -0.000000 -84.661493 58.526277
v 20.712903 -84.661493 45.414771
v 20.670309 -84.661493 45.091248
v 20.837780 -84.661493 44.466247
v 21.036426 -84.661493 44.207364
v 21.596787 -84.661493 43.883841
v 21.920310 -84.661493 43.841247
v 35.355340 -84.661493 23.170934
v 22.545309 -84.661493 44.008716
v 22.804194 -84.661493 44.207364
v 23.127718 -84.661493 44.767724
v 23.170309 -84.661493 45.091248
v -20.837780 -84.661493 1.875624
v -21.036426 -84.661493 2.134506
v -0.000000 -84.661493 -12.184404
v -21.596787 -84.661493 2.458032
v -21.920310 -84.661493 2.500621
v -35.355340 -84.661493 23.170934
v -22.545309 -84.661493 2.333157
v -22.804194 -84.661493 2.134506
v -23.127718 -84.661493 1.574148
v -23.170309 -84.661493 1.250622
v -23.127718 -84.661493 0.927100
v -37.500001 -84.661493 -16.829063
v -22.804194 -84.661493 0.366742
v -22.545309 -84.661493 0.168095
v -21.920310 -84.661493 0.000622
v -21.596787 -84.661493 0.043220
v -21.295309 -84.661493 0.168095
v -20.837780 -84.661493 0.625624
v -20.712903 -84.661493 0.927100
v -20.670309 -84.661493 1.250622
v 23.170309 -84.661493 1.250622
v 37.500001 -84.661493 -16.829063
v 23.127718 -84.661493 0.927100
v 23.127718 -84.661493 1.574148
v 23.002841 -84.661493 1.875624
v 22.545309 -84.661493 2.333157
v 22.243833 -84.661493 2.458032
v 21.596787 -84.661493 2.458032
v 21.295309 -84.661493 2.333157
v 20.712903 -84.661493 1.574148
v 20.670309 -84.661493 1.250622
v 20.837780 -84.661493 0.625624
v 21.036426 -84.661493 0.366742
v 22.243833 -84.661493 0.043220
v 21.920310 -84.661493 0.000622
v 22.545309 -84.661493 0.168095
v 22.804194 -84.661493 0.366742
v 23.002841 -84.661493 0.625624
v -20.837780 -84.661493 45.716247
v -21.036426 -84.661493 45.975131
v -21.596787 -84.661493 46.298655
v -21.920310 -84.661493 46.341247
v -22.243833 -84.661493 46.298655
v -37.500001 -84.661493 127.170937
v -22.545309 -84.661493 46.173780
v -47.500000 -84.661493 117.170936
v -23.002841 -84.661493 45.716247
v -23.127718 -84.661493 45.414771
v -23.170309 -84.661493 45.091248
v -23.002841 -84.661493 44.466247
v -22.804194 -84.661493 44.207364
v -22.243833 -84.661493 43.883841
v -21.920310 -84.661493 43.841247
v -21.295309 -84.661493 44.008716
v -21.036426 -84.661493 44.207364
v -20.712903 -84.661493 44.767724
v -20.670309 -84.661493 45.091248
v -21.295309 -84.661493 2.333157
v -22.243833 -84.661493 2.458032
v -23.002841 -84.661493 1.875624
v -47.500000 -84.661493 -6.829063
v -23.127718 -84.661493 44.767724
v -22.545309 -84.661493 44.008716
v -21.596787 -84.661493 43.883841
v -20.712903 -84.661493 1.574148
v -21.036426 -84.661493 0.366742
v 21.036426 -84.661493 2.134506
v 20.837780 -84.661493 1.875624
v 20.712903 -84.661493 0.927100
v 21.295309 -84.661493 0.168095
v 21.596787 -84.661493 0.043220
v 23.127718 -84.661493 45.414771
v 21.295309 -84.661493 44.008716
v 22.243833 -84.661493 43.883841
v 23.002841 -84.661493 44.466247
v 22.804194 -84.661493 2.134506
v 21.920310 -84.661493 2.500621
v 47.500000 -84.661493 -6.829063
v 21.920310 -84.661493 46.341247
v 21.596787 -84.661493 46.298655
v 20.837780 -84.661493 45.716247
v 20.712903 -84.661493 44.767724
v -20.712903 -84.661493 45.414771
v -21.295309 -84.661493 46.173780
v 37.500001 -84.661493 127.170937
v -20.837780 -84.661493 44.466247
v -22.804194 -84.661493 45.975131
v -46.160255 -84.661493 122.170938
v -47.159257 -84.661493 119.759126
v -44.571065 -84.661493 124.242007
v -42.499999 -84.661493 125.831192
v -40.088190 -84.661493 126.830197
v 22.243833 -84.661493 46.298655
v 40.088190 -84.661493 126.830197
v 44.571065 -84.661493 124.242007
v 46.160255 -84.661493 122.170938
v 23.002841 -84.661493 45.716247
v 42.499999 -84.661493 125.831192
v 47.159257 -84.661493 119.759126
v 46.160255 -84.661493 -11.829065
v 44.571065 -84.661493 -13.900134
v 42.499999 -84.661493 -15.489319
v 40.088190 -84.661493 -16.488324
v 47.159257 -84.661493 -9.417253
v 47.500000 -87.461493 -6.829063
v 47.159257 -84.661493 -9.417253
v 47.500000 -84.661493 -6.829063
v 47.159257 -87.461493 -9.417253
v 46.160255 -84.661493 -11.829065
v 46.160255 -87.461493 -11.829065
v 44.571065 -84.661493 -13.900134
v 44.571065 -87.461493 -13.900134
v 42.499999 -84.661493 -15.489319
v 42.499999 -87.461493 -15.489319
v 40.088190 -84.661493 -16.488324
v 40.088190 -87.461493 -16.488324
v 37.500001 -84.661493 -16.829063
v 37.500001 -87.461493 127.170937
v 40.088190 -84.661493 126.830197
v 37.500001 -84.661493 127.170937
v 40.088190 -87.461493 126.830197
v 42.499999 -84.661493 125.831192
v 42.499999 -87.461493 125.831192
v 44.571065 -84.661493 124.242007
v 44.571065 -87.461493 124.242007
v 46.160255 -84.661493 122.170938
v 46.160255 -87.461493 122.170938
v 47.159257 -84.661493 119.759126
v 47.159257 -87.461493 119.759126
v 47.500000 -84.661493 117.170936
v -47.500000 -87.461493 117.170936
v -47.159257 -84.661493 119.759126
v -47.500000 -84.661493 117.170936
v -47.159257 -87.461493 119.759126
v -46.160255 -84.661493 122.170938
v -46.160255 -87.461493 122.170938
v -44.571065 -84.661493 124.242007
v -44.571065 -87.461493 124.242007
v -42.499999 -84.661493 125.831192
v -42.499999 -87.461493 125.831192
v -40.088190 -84.661493 126.830197
v -40.088190 -87.461493 126.830197
v -37.500001 -84.661493 127.170937
v 20.670309 -87.461493 45.091248
v 20.712903 -84.661493 44.767724
v 20.670309 -84.661493 45.091248
v 20.712903 -87.461493 44.767724
v 20.837780 -84.661493 44.466247
v 20.837780 -87.461493 44.466247
v 21.036426 -84.661493 44.207364
v 21.036426 -87.461493 44.207364
v 21.295309 -84.661493 44.008716
v 21.295309 -87.461493 44.008716
v 21.596787 -84.661493 43.883841
v 21.596787 -87.461493 43.883841
v 21.920310 -84.661493 43.841247
v 21.920310 -87.461493 43.841247
v 22.243833 -84.661493 43.883841
v 22.243833 -87.461493 43.883841
v 22.545309 -84.661493 44.008716
v 22.545309 -87.461493 44.008716
v 22.804194 -84.661493 44.207364
v 22.804194 -87.461493 44.207364
v 23.002841 -84.661493 44.466247
v 23.002841 -87.461493 44.466247
v 23.127718 -84.661493 44.767724
v 23.127718 -87.461493 44.767724
v 23.170309 -84.661493 45.091248
v 23.170309 -87.461493 45.091248
v 23.127718 -84.661493 45.414771
v 23.127718 -87.461493 45.414771
v 23.002841 -84.661493 45.716247
v 23.002841 -87.461493 45.716247
v 22.804194 -84.661493 45.975131
v 22.804194 -87.461493 45.975131
v 22.545309 -84.661493 46.173780
v 22.545309 -87.461493 46.173780
v 22.243833 -84.661493 46.298655
v 22.243833 -87.461493 46.298655
v 21.920310 -84.661493 46.341247
v 21.920310 -87.461493 46.341247
v 21.596787 -84.661493 46.298655
v 21.596787 -87.461493 46.298655
v 21.295309 -84.661493 46.173780
v 21.295309 -87.461493 46.173780
v 21.036426 -84.661493 45.975131
v 21.036426 -87.461493 45.975131
v 20.837780 -84.661493 45.716247
v 20.837780 -87.461493 45.716247
v 20.712903 -84.661493 45.414771
v 20.712903 -87.461493 45.414771
v 20.670309 -84.661493 45.091248
v -23.170309 -87.461493 1.250622
v -23.127718 -84.661493 0.927100
v -23.170309 -84.661493 1.250622
v -23.127718 -87.461493 0.927100
v -23.002841 -84.661493 0.625624
v -23.002841 -87.461493 0.625624
v -22.804194 -84.661493 0.366742
v -22.804194 -87.461493 0.366742
v -22.545309 -84.661493 0.168095
v -22.545309 -87.461493 0.168095
v -22.243833 -84.661493 0.043220
v -22.243833 -87.461493 0.043220
v -21.920310 -84.661493 0.000622
v -21.920310 -87.461493 0.000622
v -21.596787 -84.661493 0.043220
v -21.596787 -87.461493 0.043220
v -21.295309 -84.661493 0.168095
v -21.295309 -87.461493 0.168095
v -21.036426 -84.661493 0.366742
v -21.036426 -87.461493 0.366742
v -20.837780 -84.661493 0.625624
v -20.837780 -87.461493 0.625624
v -20.712903 -84.661493 0.927100
v -20.712903 -87.461493 0.927100
v -20.670309 -84.661493 1.250622
v -20.670309 -87.461493 1.250622
v -20.712903 -84.661493 1.574148
v -20.712903 -87.461493 1.574148
v -20.837780 -84.661493 1.875624
v -20.837780 -87.461493 1.875624
v -21.036426 -84.661493 2.134506
v -21.036426 -87.461493 2.134506
v -21.295309 -84.661493 2.333157
v -21.295309 -87.461493 2.333157
v -21.596787 -84.661493 2.458032
v -21.596787 -87.461493 2.458032
v -21.920310 -84.661493 2.500621
v -21.920310 -87.461493 2.500621
v -22.243833 -84.661493 2.458032
v -22.243833 -87.461493 2.458032
v -22.545309 -84.661493 2.333157
v -22.545309 -87.461493 2.333157
v -22.804194 -84.661493 2.134506
v -22.804194 -87.461493 2.134506
v -23.002841 -84.661493 1.875624
v -23.002841 -87.461493 1.875624
v -23.127718 -84.661493 1.574148
v -23.127718 -87.461493 1.574148
v -23.170309 -84.661493 1.250622
v 20.670309 -87.461493 1.250622
v 20.712903 -84.661493 0.927100
v 20.670309 -84.661493 1.250622
v 20.712903 -87.461493 0.927100
v 20.837780 -84.661493 0.625624
v 20.837780 -87.461493 0.625624
v 21.036426 -84.661493 0.366742
v 21.036426 -87.461493 0.366742
v 21.295309 -84.661493 0.168095
v 21.295309 -87.461493 0.168095
v 21.596787 -84.661493 0.043220
v 21.596787 -87.461493 0.043220
v 21.920310 -84.661493 0.000622
v 21.920310 -87.461493 0.000622
v 22.243833 -84.661493 0.043220
v 22.243833 -87.461493 0.043220
v 22.545309 -84.661493 0.168095
v 22.545309 -87.461493 0.168095
v 22.804194 -84.661493 0.366742
v 22.804194 -87.461493 0.366742
v 23.002841 -84.661493 0.625624
v 23.002841 -87.461493 0.625624
v 23.127718 -84.661493 0.927100
v 23.127718 -87.461493 0.927100
v 23.170309 -84.661493 1.250622
v 23.170309 -87.461493 1.250622
v 23.127718 -84.661493 1.574148
v 23.127718 -87.461493 1.574148
v 23.002841 -84.661493 1.875624
v 23.002841 -87.461493 1.875624
v 22.804194 -84.661493 2.134506
v 22.804194 -87.461493 2.134506
v 22.545309 -84.661493 2.333157
v 22.545309 -87.461493 2.333157
v 22.243833 -84.661493 2.458032
v 22.243833 -87.461493 2.458032
v 21.920310 -84.661493 2.500621
v 21.920310 -87.461493 2.500621
v 21.596787 -84.661493 2.458032
v 21.596787 -87.461493 2.458032
v 21.295309 -84.661493 2.333157
v 21.295309 -87.461493 2.333157
v 21.036426 -84.661493 2.134506
v 21.036426 -87.461493 2.134506
v 20.837780 -84.661493 1.875624
v 20.837780 -87.461493 1.875624
v 20.712903 -84.661493 1.574148
v 20.712903 -87.461493 1.574148
v 20.670309 -84.661493 1.250622
v -23.170309 -87.461493 45.091248
v -23.127718 -84.661493 44.767724
v -23.170309 -84.661493 45.091248
v -23.127718 -87.461493 44.767724
v -23.002841 -84.661493 44.466247
v -23.002841 -87.461493 44.466247
v -22.804194 -84.661493 44.207364
v -22.804194 -87.461493 44.207364
v -22.545309 -84.661493 44.008716
v -22.545309 -87.461493 44.008716
v -22.243833 -84.661493 43.883841
v -22.243833 -87.461493 43.883841
v -21.920310 -84.661493 43.841247
v -21.920310 -87.461493 43.841247
v -21.596787 -84.661493 43.883841
v -21.596787 -87.461493 43.883841
v -21.295309 -84.661493 44.008716
v -21.295309 -87.461493 44.008716
v -21.036426 -84.661493 44.207364
v -21.036426 -87.461493 44.207364
v -20.837780 -84.661493 44.466247
v -20.837780 -87.461493 44.466247
v -20.712903 -84.661493 44.767724
v -20.712903 -87.461493 44.767724
v -20.670309 -84.661493 45.091248
v -20.670309 -87.461493 45.091248
v -20.712903 -84.661493 45.414771
v -20.712903 -87.461493 45.414771
v -20.837780 -84.661493 45.716247
v -20.837780 -87.461493 45.716247
v -21.036426 -84.661493 45.975131
v -21.036426 -87.461493 45.975131
v -21.295309 -84.661493 46.173780
v -21.295309 -87.461493 46.173780
v -21.596787 -84.661493 46.298655
v -21.596787 -87.461493 46.298655
v -21.920310 -84.661493 46.341247
v -21.920310 -87.461493 46.341247
v -22.243833 -84.661493 46.298655
v -22.243833 -87.461493 46.298655
v -22.545309 -84.661493 46.173780
v -22.545309 -87.461493 46.173780
v -22.804194 -84.661493 45.975131
v -22.804194 -87.461493 45.975131
v -23.002841 -84.661493 45.716247
v -23.002841 -87.461493 45.716247
v -23.127718 -84.661493 45.414771
v -23.127718 -87.461493 45.414771
v -23.170309 -84.661493 45.091248
v -35.355340 -87.461493 23.170934
v -0.000000 -87.461493 -12.184404
v -35.355340 -84.661493 23.170934
v -37.500001 -84.661493 -16.829063
v 37.500001 -84.661493 -16.829063
v -37.500001 -87.461493 -16.829063
v 37.500001 -87.461493 -16.829063
v -23.002841 -84.661493 0.625624
v -22.243833 -84.661493 0.043220
v -40.088190 -84.661493 -16.488324
v -42.499999 -84.661493 -15.489319
v -44.571065 -84.661493 -13.900134
v -46.160255 -84.661493 -11.829065
v -47.159257 -84.661493 -9.417253
v 37.500001 -87.461493 -16.829063
v 47.500000 -84.661493 -6.829063
v 47.500000 -84.661493 117.170936
v 47.500000 -87.461493 -6.829063
v 47.500000 -87.461493 117.170936
v 47.500000 -87.461493 117.170936
v 37.500001 -84.661493 127.170937
v -37.500001 -84.661493 127.170937
v 37.500001 -87.461493 127.170937
v -37.500001 -87.461493 127.170937
v -37.500001 -87.461493 127.170937
v 20.670309 -87.461493 45.091248
v -23.170309 -87.461493 1.250622
v 20.670309 -87.461493 1.250622
v -23.170309 -87.461493 45.091248
v -0.000000 -84.661493 -12.184404
v -0.000000 -87.461493 -12.184404
v 35.355340 -87.461493 23.170934
v -0.000000 -84.661493 -12.184404
v 35.355340 -84.661493 23.170934
v 35.355340 -87.461493 23.170934
v -0.000000 -87.461493 58.526277
v 35.355340 -84.661493 23.170934
v -0.000000 -84.661493 58.526277
v -0.000000 -87.461493 58.526277
v -35.355340 -87.461493 23.170934
v -0.000000 -84.661493 58.526277
v -35.355340 -84.661493 23.170934
v -47.500000 -87.461493 -6.829063
v -47.500000 -87.461493 117.170936
v -47.500000 -84.661493 -6.829063
v -47.500000 -84.661493 117.170936
v -47.159257 -87.461493 -9.417253
v -46.160255 -87.461493 -11.829065
v -47.500000 -87.461493 -6.829063
v -44.571065 -87.461493 -13.900134
v -42.499999 -87.461493 -15.489319
v -40.088190 -87.461493 -16.488324
v -37.500001 -87.461493 -16.829063
v -35.355340 -87.461493 23.170934
v -47.500000 -87.461493 117.170936
v -0.000000 -87.461493 -12.184404
v -21.596787 -87.461493 0.043220
v -21.920310 -87.461493 0.000622
v -22.243833 -87.461493 0.043220
v -22.545309 -87.461493 0.168095
v -22.804194 -87.461493 0.366742
v -23.002841 -87.461493 0.625624
v -23.127718 -87.461493 0.927100
v -23.170309 -87.461493 1.250622
v -23.127718 -87.461493 1.574148
v -23.002841 -87.461493 1.875624
v -22.804194 -87.461493 2.134506
v -22.545309 -87.461493 2.333157
v -22.243833 -87.461493 2.458032
v -21.920310 -87.461493 2.500621
v -21.596787 -87.461493 2.458032
v -21.295309 -87.461493 2.333157
v -21.036426 -87.461493 2.134506
v -23.170309 -87.461493 45.091248
v -23.127718 -87.461493 45.414771
v -21.036426 -87.461493 44.207364
v -21.295309 -87.461493 44.008716
v -21.596787 -87.461493 43.883841
v -21.920310 -87.461493 43.841247
v -22.243833 -87.461493 43.883841
v -22.545309 -87.461493 44.008716
v -22.804194 -87.461493 44.207364
v -23.002841 -87.461493 44.466247
v -23.127718 -87.461493 44.767724
v 37.500001 -87.461493 -16.829063
v 47.500000 -87.461493 -6.829063
v 35.355340 -87.461493 23.170934
v 23.170309 -87.461493 1.250622
v -20.837780 -87.461493 1.875624
v -20.712903 -87.461493 1.574148
v -20.670309 -87.461493 1.250622
v -20.712903 -87.461493 0.927100
v -20.837780 -87.461493 0.625624
v -21.036426 -87.461493 0.366742
v -21.295309 -87.461493 0.168095
v 40.088190 -87.461493 -16.488324
v 42.499999 -87.461493 -15.489319
v 44.571065 -87.461493 -13.900134
v 46.160255 -87.461493 -11.829065
v 47.500000 -87.461493 117.170936
v 23.127718 -87.461493 45.414771
v 23.170309 -87.461493 45.091248
v 23.127718 -87.461493 1.574148
v 23.002841 -87.461493 1.875624
v 22.804194 -87.461493 2.134506
v 22.545309 -87.461493 2.333157
v 22.243833 -87.461493 2.458032
v 21.920310 -87.461493 2.500621
v 21.596787 -87.461493 2.458032
v 21.295309 -87.461493 2.333157
v 21.036426 -87.461493 2.134506
v 20.837780 -87.461493 1.875624
v 20.712903 -87.461493 1.574148
v 20.670309 -87.461493 1.250622
v 20.712903 -87.461493 0.927100
v 20.837780 -87.461493 0.625624
v 21.036426 -87.461493 0.366742
v 21.295309 -87.461493 0.168095
v 21.596787 -87.461493 0.043220
v 21.920310 -87.461493 0.000622
v 22.243833 -87.461493 0.043220
v 22.545309 -87.461493 0.168095
v 22.804194 -87.461493 0.366742
v 23.002841 -87.461493 0.625624
v 23.127718 -87.461493 0.927100
v 47.159257 -87.461493 -9.417253
v 46.160255 -87.461493 122.170938
v 44.571065 -87.461493 124.242007
v 42.499999 -87.461493 125.831192
v 40.088190 -87.461493 126.830197
v 37.500001 -87.461493 127.170937
v 22.243833 -87.461493 46.298655
v 22.545309 -87.461493 46.173780
v 22.804194 -87.461493 45.975131
v 23.002841 -87.461493 45.716247
v 47.159257 -87.461493 119.759126
v -37.500001 -87.461493 127.170937
v -0.000000 -87.461493 58.526277
v 21.920310 -87.461493 46.341247
v 21.596787 -87.461493 46.298655
v -21.920310 -87.461493 46.341247
v -21.596787 -87.461493 46.298655
v -21.295309 -87.461493 46.173780
v -21.036426 -87.461493 45.975131
v -20.837780 -87.461493 45.716247
v -20.712903 -87.461493 45.414771
v -20.670309 -87.461493 45.091248
v -20.712903 -87.461493 44.767724
v -20.837780 -87.461493 44.466247
v 21.295309 -87.461493 46.173780
v 21.036426 -87.461493 45.975131
v 20.837780 -87.461493 45.716247
v 20.712903 -87.461493 45.414771
v 20.670309 -87.461493 45.091248
v 20.712903 -87.461493 44.767724
v 20.837780 -87.461493 44.466247
v 21.036426 -87.461493 44.207364
v 21.295309 -87.461493 44.008716
v 21.596787 -87.461493 43.883841
v 21.920310 -87.461493 43.841247
v 22.243833 -87.461493 43.883841
v 22.545309 -87.461493 44.008716
v 22.804194 -87.461493 44.207364
v 23.002841 -87.461493 44.466247
v 23.127718 -87.461493 44.767724
v -22.243833 -87.461493 46.298655
v -40.088190 -87.461493 126.830197
v -42.499999 -87.461493 125.831192
v -44.571065 -87.461493 124.242007
v -46.160255 -87.461493 122.170938
v -23.002841 -87.461493 45.716247
v -22.804194 -87.461493 45.975131
v -22.545309 -87.461493 46.173780
v -47.159257 -87.461493 119.759126
f 1 2 3
f 1 4 2
f 2 4 5
f 4 6 5
f 5 6 7
f 6 8 7
f 7 8 9
f 8 10 9
f 9 10 11
f 10 12 11
f 11 12 13
f 12 14 13
f 15 16 17
f 15 17 128
f 16 124 17
f 17 27 103
f 17 116 125
f 17 126 127
f 17 103 128
f 17 124 116
f 17 125 129
f 17 129 126
f 17 127 130
f 17 109 27
f 18 19 20
f 18 20 111
f 19 112 20
f 20 21 22
f 20 23 24
f 20 70 71
f 20 72 73
f 20 87 88
f 20 37 86
f 20 110 111
f 20 112 21
f 20 22 113
f 20 113 23
f 20 24 27
f 20 88 114
f 20 114 70
f 20 71 115
f 20 115 72
f 20 73 75
f 20 75 116
f 20 86 117
f 20 117 87
f 20 116 110
f 24 104 27
f 25 26 27
f 25 27 104
f 26 105 27
f 27 28 29
f 27 30 31
f 27 53 52
f 27 52 55
f 27 55 56
f 27 57 58
f 27 59 60
f 27 31 103
f 27 105 28
f 27 29 106
f 27 106 30
f 27 56 107
f 27 107 57
f 27 58 108
f 27 108 59
f 27 60 98
f 27 98 34
f 27 109 53
f 32 33 34
f 32 34 96
f 33 89 37
f 33 37 34
f 34 47 48
f 34 49 50
f 34 50 51
f 34 61 62
f 34 63 64
f 34 51 96
f 34 48 97
f 34 97 49
f 34 98 99
f 34 99 61
f 34 62 100
f 34 100 63
f 34 64 101
f 34 101 102
f 34 43 47
f 34 53 43
f 34 102 53
f 35 36 37
f 35 37 89
f 36 90 37
f 37 38 39
f 37 40 41
f 37 79 80
f 37 81 82
f 37 83 84
f 37 85 86
f 37 90 38
f 37 39 91
f 37 91 40
f 37 41 43
f 37 43 92
f 37 80 93
f 37 93 81
f 37 82 94
f 37 94 83
f 37 84 95
f 37 95 85
f 37 77 79
f 37 92 77
f 41 42 43
f 42 378 43
f 43 44 45
f 43 46 47
f 43 378 44
f 43 45 379
f 43 379 46
f 43 380 92
f 52 53 54
f 53 66 65
f 53 65 67
f 53 67 68
f 53 68 69
f 53 69 54
f 53 109 134
f 53 102 66
f 73 74 75
f 74 76 77
f 74 77 75
f 75 77 123
f 76 118 77
f 77 78 79
f 77 118 78
f 77 120 119
f 77 119 121
f 77 121 122
f 77 122 123
f 92 380 381
f 92 382 383
f 92 383 384
f 92 381 382
f 109 131 132
f 109 132 133
f 109 135 131
f 109 133 134
f 110 116 124
f 136 137 138
f 136 139 137
f 137 139 140
f 139 141 140
f 140 141 142
f 141 143 142
f 142 143 144
f 143 145 144
f 144 145 146
f 145 147 146
f 146 147 148
f 147 385 148
f 149 150 151
f 149 152 150
f 150 152 153
f 152 154 153
f 153 154 155
f 154 156 155
f 155 156 157
f 156 158 157
f 157 158 159
f 158 160 159
f 159 160 161
f 160 390 161
f 162 163 164
f 162 165 163
f 163 165 166
f 165 167 166
f 166 167 168
f 167 169 168
f 168 169 170
f 169 171 170
f 170 171 172
f 171 173 172
f 172 173 174
f 173 395 174
f 175 176 177
f 175 178 176
f 176 178 179
f 178 180 179
f 179 180 181
f 180 182 181
f 181 182 183
f 182 184 183
f 183 184 185
f 184 186 185
f 185 186 187
f 186 188 187
f 187 188 189
f 188 190 189
f 189 190 191
f 190 192 191
f 191 192 193
f 192 194 193
f 193 194 195
f 194 196 195
f 195 196 197
f 196 198 197
f 197 198 199
f 198 200 199
f 199 200 201
f 200 202 201
f 201 202 203
f 202 204 203
f 203 204 205
f 204 206 205
f 205 206 207
f 206 208 207
f 207 208 209
f 208 210 209
f 209 210 211
f 210 212 211
f 211 212 213
f 212 214 213
f 213 214 215
f 214 216 215
f 215 216 217
f 216 218 217
f 217 218 219
f 218 220 219
f 219 220 221
f 220 222 221
f 221 222 223
f 222 396 223
f 224 225 226
f 224 227 225
f 225 227 228
f 227 229 228
f 228 229 230
f 229 231 230
f 230 231 232
f 231 233 232
f 232 233 234
f 233 235 234
f 234 235 236
f 235 237 236
f 236 237 238
f 237 239 238
f 238 239 240
f 239 241 240
f 240 241 242
f 241 243 242
f 242 243 244
f 243 245 244
f 244 245 246
f 245 247 246
f 246 247 248
f 247 249 248
f 248 249 250
f 249 251 250
f 250 251 252
f 251 253 252
f 252 253 254
f 253 255 254
f 254 255 256
f 255 257 256
f 256 257 258
f 257 259 258
f 258 259 260
f 259 261 260
f 260 261 262
f 261 263 262
f 262 263 264
f 263 265 264
f 264 265 266
f 265 267 266
f 266 267 268
f 267 269 268
f 268 269 270
f 269 271 270
f 270 271 272
f 271 397 272
f 273 274 275
f 273 276 274
f 274 276 277
f 276 278 277
f 277 278 279
f 278 280 279
f 279 280 281
f 280 282 281
f 281 282 283
f 282 284 283
f 283 284 285
f 284 286 285
f 285 286 287
f 286 288 287
f 287 288 289
f 288 290 289
f 289 290 291
f 290 292 291
f 291 292 293
f 292 294 293
f 293 294 295
f 294 296 295
f 295 296 297
f 296 298 297
f 297 298 299
f 298 300 299
f 299 300 301
f 300 302 301
f 301 302 303
f 302 304 303
f 303 304 305
f 304 306 305
f 305 306 307
f 306 308 307
f 307 308 309
f 308 310 309
f 309 310 311
f 310 312 311
f 311 312 313
f 312 314 313
f 313 314 315
f 314 316 315
f 315 316 317
f 316 318 317
f 317 318 319
f 318 320 319
f 319 320 321
f 320 398 321
f 322 323 324
f 322 325 323
f 323 325 326
f 325 327 326
f 326 327 328
f 327 329 328
f 328 329 330
f 329 331 330
f 330 331 332
f 331 333 332
f 332 333 334
f 333 335 334
f 334 335 336
f 335 337 336
f 336 337 338
f 337 339 338
f 338 339 340
f 339 341 340
f 340 341 342
f 341 343 342
f 342 343 344
f 343 345 344
f 344 345 346
f 345 347 346
f 346 347 348
f 347 349 348
f 348 349 350
f 349 351 350
f 350 351 352
f 351 353 352
f 352 353 354
f 353 355 354
f 354 355 356
f 355 357 356
f 356 357 358
f 357 359 358
f 358 359 360
f 359 361 360
f 360 361 362
f 361 363 362
f 362 363 364
f 363 365 364
f 364 365 366
f 365 367 366
f 366 367 368
f 367 369 368
f 368 369 370
f 369 399 370
f 371 372 373
f 372 400 373
f 374 375 376
f 375 377 376
f 386 387 388
f 387 389 388
f 391 392 393
f 392 394 393
f 401 402 403
f 402 404 403
f 405 406 407
f 406 408 407
f 409 410 411
f 410 412 411
f 413 414 415
f 414 416 415
f 417 418 419
f 418 420 419
f 419 420 421
f 419 422 423
f 419 423 424
f 419 424 425
f 419 421 422
f 423 426 427
f 423 427 428
f 423 429 430
f 423 430 431
f 423 432 433
f 423 433 434
f 423 434 424
f 423 455 426
f 423 428 429
f 423 431 432
f 424 434 435
f 424 436 437
f 424 437 438
f 424 439 440
f 424 440 441
f 424 442 443
f 424 443 426
f 424 444 445
f 424 446 447
f 424 447 448
f 424 449 450
f 424 450 451
f 424 452 453
f 424 453 454
f 424 435 436
f 424 508 446
f 424 445 425
f 424 438 439
f 424 441 442
f 424 454 444
f 424 448 449
f 424 451 452
f 425 536 507
f 425 507 537
f 425 537 538
f 425 538 539
f 425 539 540
f 425 445 541
f 425 542 543
f 425 543 536
f 425 540 544
f 425 541 542
f 426 443 459
f 426 459 460
f 426 461 462
f 426 462 463
f 426 464 465
f 426 465 427
f 426 481 457
f 426 482 481
f 426 483 482
f 426 484 483
f 426 485 484
f 426 486 485
f 426 487 486
f 426 488 487
f 426 489 488
f 426 455 489
f 426 460 461
f 426 463 464
f 446 508 519
f 455 456 457
f 455 457 458
f 455 466 456
f 455 490 489
f 455 491 490
f 455 492 491
f 455 493 492
f 455 494 493
f 455 495 494
f 455 458 495
f 456 466 467
f 456 467 468
f 456 468 469
f 456 470 457
f 456 469 496
f 457 470 471
f 457 471 472
f 457 473 458
f 457 474 473
f 457 475 474
f 457 476 475
f 457 477 476
f 457 478 477
f 457 479 478
f 457 480 479
f 457 481 480
f 457 527 508
f 457 528 527
f 457 529 528
f 457 530 529
f 457 531 530
f 457 532 531
f 457 533 532
f 457 534 533
f 457 535 534
f 457 472 535
f 470 497 498
f 470 498 499
f 470 500 501
f 470 501 502
f 470 503 504
f 470 504 505
f 470 506 497
f 470 499 500
f 470 502 503
f 470 505 471
f 501 507 508
f 501 509 502
f 501 508 509
f 507 511 508
f 507 536 511
f 508 510 509
f 508 511 512
f 508 513 514
f 508 514 515
f 508 516 517
f 508 517 518
f 508 520 510
f 508 521 520
f 508 522 521
f 508 523 522
f 508 524 523
f 508 525 524
f 508 526 525
f 508 527 526
f 508 512 513
f 508 515 516
f 508 518 519