# Part4
# Autodesk dbId: 6
# Units: mm
o 006_Part4
v 15.689999 -13.590987 47.604186
v 18.490000 -14.023748 47.750551
v 18.490000 -13.590987 47.604186
v 15.689999 -14.023748 47.750551
v 18.490000 -14.403880 48.003935
v 15.689999 -14.403880 48.003935
v 18.490000 -14.705479 48.347071
v 15.689999 -14.705479 48.347071
v 18.490000 -14.907993 48.756574
v 15.689999 -14.907993 48.756574
v 18.490000 -14.997615 49.204538
v 15.689999 -14.997615 49.204538
v 18.490000 -14.968250 49.660435
v 15.690000 -14.968250 49.660435
v 18.490000 -14.821880 50.093195
v 15.690000 -14.821880 50.093195
v 18.490000 -14.568499 50.473328
v 15.690000 -14.568498 50.473328
v 18.490000 -14.225362 50.774927
v 15.690000 -14.225362 50.774927
v 18.490000 -13.815859 50.977440
v 15.690000 -13.815859 50.977440
v 18.490000 -13.367895 51.067065
v 15.690000 -13.367895 51.067065
v 18.490000 -12.911998 51.037694
v 15.690000 -12.911998 51.037694
v 18.490000 -12.479239 50.891330
v 15.690000 -12.479239 50.891330
v 18.490000 -12.099104 50.637946
v 15.690000 -12.099104 50.637946
v 18.490000 -11.797505 50.294810
v 15.690000 -11.797505 50.294810
v 18.490000 -11.594994 49.885307
v 15.690000 -11.594994 49.885307
v 18.490000 -11.505367 49.437342
v 15.690000 -11.505367 49.437342
v 18.490000 -11.534740 48.981446
v 15.690000 -11.534740 48.981446
v 18.490000 -11.681102 48.548685
v 15.690000 -11.681102 48.548685
v 18.490000 -11.934489 48.168553
v 15.690000 -11.934488 48.168553
v 18.490000 -12.277623 47.866953
v 15.689999 -12.277623 47.866953
v 18.490000 -12.687126 47.664440
v 15.689999 -12.687125 47.664440
v 18.490000 -13.135092 47.574816
v 15.689999 -13.135092 47.574816
v 18.490000 -13.590987 47.604186
v 15.690000 64.889194 32.084445
v 18.490001 64.456435 32.230809
v 18.490001 64.889194 32.084445
v 15.690000 64.456435 32.230809
v 18.490001 64.076300 32.484193
v 15.690000 64.076300 32.484193
v 18.490001 63.774701 32.827329
v 15.690000 63.774701 32.827329
v 18.490001 63.572190 33.236832
v 15.690000 63.572190 33.236832
v 18.490001 63.482563 33.684797
v 15.690001 63.482563 33.684797
v 18.490001 63.511936 34.140693
v 15.690001 63.511936 34.140693
v 18.490001 63.658298 34.573454
v 15.690001 63.658298 34.573454
v 18.490001 63.911684 34.953586
v 15.690001 63.911684 34.953586
v 18.490001 64.254819 35.255186
v 15.690001 64.254819 35.255186
v 18.490001 64.664321 35.457699
v 15.690001 64.664321 35.457699
v 18.490001 65.112287 35.547323
v 15.690001 65.112287 35.547323
v 18.490001 65.568182 35.517953
v 15.690001 65.568182 35.517953
v 18.490001 66.000944 35.371588
v 15.690001 66.000944 35.371588
v 18.490001 66.381076 35.118204
v 15.690001 66.381076 35.118204
v 18.490001 66.682675 34.775068
v 15.690001 66.682675 34.775068
v 18.490001 66.885189 34.365565
v 15.690001 66.885189 34.365565
v 18.490001 66.974811 33.917601
v 15.690001 66.974811 33.917601
v 18.490001 66.945445 33.461704
v 15.690001 66.945446 33.461704
v 18.490001 66.799075 33.028944
v 15.690001 66.799075 33.028944
v 18.490001 66.545694 32.648811
v 15.690001 66.545694 32.648811
v 18.490001 66.202557 32.347212
v 15.690000 66.202557 32.347212
v 18.490001 65.793055 32.144699
v 15.690000 65.793055 32.144699
v 18.490001 65.345091 32.055074
v 15.690000 65.345091 32.055074
v 18.490001 64.889194 32.084445
v 18.489999 -14.027479 45.396931
v 18.489999 -15.885519 46.310642
v 18.489999 -15.016646 45.731479
v 18.490000 64.452701 29.877190
v 18.490001 64.456435 32.230809
v 18.490001 65.494750 29.810057
v 18.490001 66.518666 30.014914
v 18.490001 66.004675 37.725208
v 18.490001 67.862715 36.811497
v 18.490001 66.993842 37.390660
v 18.490000 -12.475505 53.244949
v 18.490001 65.112287 35.547323
v 18.490000 -12.479239 50.891330
v 18.490000 -14.541470 53.107225
v 18.490000 -13.517554 53.312082
v 18.490000 -15.477479 52.644339
v 18.490000 -12.911998 51.037694
v 18.490000 -16.261792 51.954970
v 18.490000 -13.815859 50.977440
v 18.490000 -13.367895 51.067065
v 18.490000 -16.840953 51.086094
v 18.490000 -14.821880 50.093195
v 18.490000 -14.568499 50.473328
v 18.490000 -14.225362 50.774927
v 18.490000 -17.175503 50.096928
v 18.490000 -14.997615 49.204538
v 18.490000 -14.968250 49.660435
v 18.490000 -17.242633 49.054878
v 18.490000 -14.403880 48.003935
v 18.490000 -14.705479 48.347071
v 18.490000 -14.907993 48.756574
v 18.490000 -17.037779 48.030961
v 15.690000 -12.475505 53.244949
v 15.690000 -14.541470 53.107225
v 15.690000 -13.517554 53.312082
v 15.690001 66.004675 37.725208
v 15.690001 65.112287 35.547323
v 15.690001 67.862715 36.811497
v 15.690001 66.993842 37.390660
v 15.690001 68.552087 36.027187
v 15.690001 65.568182 35.517953
v 15.690001 69.014975 35.091178
v 15.690001 66.381076 35.118204
v 15.690001 66.000944 35.371588
v 15.690001 69.219829 34.067261
v 15.690001 66.974811 33.917601
v 15.690001 66.885189 34.365565
v 15.690001 66.682675 34.775068
v 15.690001 69.152699 33.025211
v 15.690001 66.799075 33.028944
v 15.690001 66.945446 33.461704
v 15.690001 68.818148 32.036045
v 15.690000 65.793055 32.144699
v 15.690000 66.202557 32.347212
v 15.690001 66.545694 32.648811
v 15.690000 68.238988 31.167169
v 15.690000 64.452701 29.877190
v 15.690000 66.518666 30.014914
v 15.690000 65.494750 29.810057
v 15.689999 -14.027479 45.396931
v 15.690000 64.456435 32.230809
v 15.689999 -15.885519 46.310642
v 15.689999 -15.016646 45.731479
v 15.689999 -16.574891 47.094952
v 15.689999 -13.135092 47.574816
v 15.689999 -13.590987 47.604186
v 15.690000 64.889194 32.084445
v 18.490000 -14.023748 47.750551
v 18.490000 -13.590987 47.604186
v 18.490000 -16.574891 47.094952
v 18.490000 -13.135092 47.574816
v 18.490000 -12.099104 50.637946
v 18.490001 64.664321 35.457699
v 18.490001 68.552086 36.027187
v 18.490000 -11.797505 50.294810
v 18.490001 64.254819 35.255186
v 18.490000 -11.594994 49.885307
v 18.490001 63.911684 34.953586
v 18.490001 63.658298 34.573454
v 18.490000 -11.505367 49.437342
v 18.490001 63.511936 34.140693
v 18.490000 -11.534740 48.981446
v 18.490000 -11.681102 48.548685
v 18.490001 63.482563 33.684797
v 18.490000 -11.934489 48.168553
v 18.490001 63.572190 33.236832
v 18.490001 63.774701 32.827329
v 18.490000 -12.277623 47.866953
v 18.490001 64.076300 32.484193
v 18.490000 -12.687126 47.664440
v 18.490001 67.454675 30.477799
v 18.490001 64.889194 32.084445
v 18.490001 68.238988 31.167169
v 18.490001 65.345091 32.055074
v 18.490001 65.793055 32.144699
v 18.490001 68.818148 32.036045
v 18.490001 66.202557 32.347212
v 18.490001 66.545694 32.648811
v 18.490001 66.799075 33.028944
v 18.490001 69.152698 33.025211
v 18.490001 66.945445 33.461704
v 18.490001 66.974811 33.917601
v 18.490001 69.219829 34.067261
v 18.490001 66.885189 34.365565
v 18.490001 66.682675 34.775068
v 18.490001 66.381076 35.118204
v 18.490001 69.014975 35.091178
v 18.490001 66.000944 35.371588
v 18.490001 65.568182 35.517953
v 15.689999 -13.590987 47.604186
v 15.689999 -17.037779 48.030961
v 15.689999 -14.023748 47.750551
v 15.689999 -14.403880 48.003935
v 15.689999 -17.242633 49.054878
v 15.689999 -14.705479 48.347071
v 15.689999 -14.907993 48.756574
v 15.689999 -14.997615 49.204538
v 15.689999 -17.175503 50.096928
v 15.690000 -14.968250 49.660435
v 15.690000 -14.821880 50.093195
v 15.690000 -16.840953 51.086094
v 15.690000 -14.568498 50.473328
v 15.690000 -14.225362 50.774927
v 15.690000 -13.815859 50.977440
v 15.690000 -16.261792 51.954970
v 15.690000 -13.367895 51.067065
v 15.690000 -12.911998 51.037694
v 15.690000 -15.477479 52.644340
v 15.690000 -12.479239 50.891330
v 15.689999 -12.687125 47.664440
v 15.690000 64.076300 32.484193
v 15.690000 67.454675 30.477800
v 15.689999 -12.277623 47.866953
v 15.690000 63.774701 32.827329
v 15.690000 -11.934488 48.168553
v 15.690000 63.572190 33.236832
v 15.690001 63.482563 33.684797
v 15.690000 -11.681102 48.548685
v 15.690001 63.511936 34.140693
v 15.690000 -11.534740 48.981446
v 15.690000 -11.505367 49.437342
v 15.690001 63.658298 34.573454
v 15.690000 -11.594994 49.885307
v 15.690001 63.911684 34.953586
v 15.690001 64.254819 35.255186
v 15.690000 -11.797505 50.294810
v 15.690001 64.664321 35.457699
v 15.690000 -12.099104 50.637946
v 15.690000 65.345091 32.055074
v 15.690000 64.889194 32.084445
v 18.490000 -12.475505 53.244949
v 18.490001 66.004675 37.725208
v 15.690000 -12.475505 53.244949
v 15.690001 66.004675 37.725208
v 15.690001 66.004675 37.725208
v 18.490001 66.004675 37.725208
v 15.690001 66.993842 37.390660
v 18.490001 66.993842 37.390660
v 15.690001 67.862715 36.811497
v 18.490001 67.862715 36.811497
v 15.690001 68.552087 36.027187
v 18.490001 68.552086 36.027187
v 15.690001 69.014975 35.091178
v 18.490001 69.014975 35.091178
v 15.690001 69.219829 34.067261
v 18.490001 69.219829 34.067261
v 15.690001 69.152699 33.025211
v 18.490001 69.152698 33.025211
v 15.690001 68.818148 32.036045
v 18.490001 68.818148 32.036045
v 15.690000 68.238988 31.167169
v 18.490001 68.238988 31.167169
v 15.690000 67.454675 30.477800
v 18.490001 67.454675 30.477799
v 15.690000 66.518666 30.014914
v 18.490001 66.518666 30.014914
v 15.690000 65.494750 29.810057
v 18.490001 65.494750 29.810057
v 15.690000 64.452701 29.877190
v 18.490000 64.452701 29.877190
v 18.490000 64.452701 29.877190
v 18.489999 -14.027479 45.396931
v 15.690000 64.452701 29.877190
v 15.689999 -14.027479 45.396931
v 18.490000 -12.475505 53.244949
v 15.690000 -12.475505 53.244949
v 18.490000 -13.517554 53.312082
v 15.690000 -13.517554 53.312082
v 18.490000 -14.541470 53.107225
v 15.690000 -14.541470 53.107225
v 18.490000 -15.477479 52.644339
v 15.690000 -15.477479 52.644340
v 18.490000 -16.261792 51.954970
v 15.690000 -16.261792 51.954970
v 18.490000 -16.840953 51.086094
v 15.690000 -16.840953 51.086094
v 18.490000 -17.175503 50.096928
v 15.689999 -17.175503 50.096928
v 18.490000 -17.242633 49.054878
v 15.689999 -17.242633 49.054878
v 18.490000 -17.037779 48.030961
v 15.689999 -17.037779 48.030961
v 18.490000 -16.574891 47.094952
v 15.689999 -16.574891 47.094952
v 18.489999 -15.885519 46.310642
v 15.689999 -15.885519 46.310642
v 18.489999 -15.016646 45.731479
v 15.689999 -15.016646 45.731479
v 18.489999 -14.027479 45.396931
v 15.689999 -14.027479 45.396931
f 1 2 3
f 1 4 2
f 2 4 5
f 4 6 5
f 5 6 7
f 6 8 7
f 7 8 9
f 8 10 9
f 9 10 11
f 10 12 11
f 11 12 13
f 12 14 13
f 13 14 15
f 14 16 15
f 15 16 17
f 16 18 17
f 17 18 19
f 18 20 19
f 19 20 21
f 20 22 21
f 21 22 23
f 22 24 23
f 23 24 25
f 24 26 25
f 25 26 27
f 26 28 27
f 27 28 29
f 28 30 29
f 29 30 31
f 30 32 31
f 31 32 33
f 32 34 33
f 33 34 35
f 34 36 35
f 35 36 37
f 36 38 37
f 37 38 39
f 38 40 39
f 39 40 41
f 40 42 41
f 41 42 43
f 42 44 43
f 43 44 45
f 44 46 45
f 45 46 47
f 46 48 47
f 47 48 49
f 48 164 49
f 50 51 52
f 50 53 51
f 51 53 54
f 53 55 54
f 54 55 56
f 55 57 56
f 56 57 58
f 57 59 58
f 58 59 60
f 59 61 60
f 60 61 62
f 61 63 62
f 62 63 64
f 63 65 64
f 64 65 66
f 65 67 66
f 66 67 68
f 67 69 68
f 68 69 70
f 69 71 70
f 70 71 72
f 71 73 72
f 72 73 74
f 73 75 74
f 74 75 76
f 75 77 76
f 76 77 78
f 77 79 78
f 78 79 80
f 79 81 80
f 80 81 82
f 81 83 82
f 82 83 84
f 83 85 84
f 84 85 86
f 85 87 86
f 86 87 88
f 87 89 88
f 88 89 90
f 89 91 90
f 90 91 92
f 91 93 92
f 92 93 94
f 93 95 94
f 94 95 96
f 95 97 96
f 96 97 98
f 97 165 98
f 99 100 101
f 99 102 103
f 99 169 100
f 99 103 169
f 100 169 168
f 102 104 105
f 102 105 103
f 103 187 188
f 103 188 169
f 103 189 190
f 103 105 189
f 106 107 108
f 106 109 110
f 106 110 107
f 107 110 172
f 109 111 110
f 109 112 111
f 109 113 112
f 110 111 170
f 110 170 171
f 110 207 172
f 111 114 115
f 111 112 114
f 114 116 115
f 115 116 118
f 116 117 118
f 116 119 117
f 117 119 122
f 119 120 121
f 119 121 122
f 119 123 120
f 120 123 125
f 123 124 125
f 123 126 124
f 124 126 129
f 126 127 128
f 126 128 129
f 126 130 127
f 127 130 166
f 130 167 166
f 130 168 167
f 131 132 133
f 131 134 135
f 131 227 132
f 131 135 227
f 132 227 226
f 134 136 135
f 134 137 136
f 135 138 139
f 135 136 138
f 135 245 246
f 135 246 227
f 138 140 139
f 139 140 142
f 140 141 142
f 140 143 141
f 141 143 146
f 143 144 145
f 143 145 146
f 143 147 144
f 144 147 149
f 147 148 149
f 147 150 148
f 148 150 153
f 150 151 152
f 150 152 153
f 150 154 151
f 151 154 247
f 154 248 247
f 154 230 248
f 155 156 157
f 155 158 159
f 155 159 156
f 156 159 230
f 158 161 160
f 158 163 159
f 158 160 163
f 159 163 228
f 159 228 229
f 159 248 230
f 160 162 163
f 162 208 163
f 162 209 208
f 167 168 169
f 170 173 171
f 171 173 174
f 172 207 205
f 173 175 174
f 174 175 176
f 175 177 176
f 175 178 177
f 177 178 179
f 178 180 179
f 179 180 181
f 179 181 182
f 181 183 182
f 182 183 184
f 183 185 184
f 183 186 185
f 185 186 187
f 186 188 187
f 189 191 190
f 190 191 192
f 191 193 192
f 191 194 193
f 193 194 195
f 194 196 195
f 194 197 196
f 194 198 197
f 197 198 199
f 198 200 199
f 198 201 200
f 200 201 202
f 201 203 202
f 201 204 203
f 201 205 204
f 204 205 206
f 205 207 206
f 208 209 210
f 209 211 210
f 209 212 211
f 211 212 213
f 212 214 213
f 212 215 214
f 212 216 215
f 215 216 217
f 216 218 217
f 216 219 218
f 218 219 220
f 219 221 220
f 219 222 221
f 219 223 222
f 222 223 224
f 223 225 224
f 223 226 225
f 225 226 227
f 228 231 229
f 229 231 232
f 231 233 232
f 232 233 234
f 233 235 234
f 233 236 235
f 235 236 237
f 236 238 237
f 237 238 239
f 237 239 240
f 239 241 240
f 240 241 242
f 241 243 242
f 241 244 243
f 243 244 245
f 244 246 245
f 249 250 251
f 250 252 251
f 253 254 255
f 254 256 255
f 255 256 257
f 256 258 257
f 257 258 259
f 258 260 259
f 259 260 261
f 260 262 261
f 261 262 263
f 262 264 263
f 263 264 265
f 264 266 265
f 265 266 267
f 266 268 267
f 267 268 269
f 268 270 269
f 269 270 271
f 270 272 271
f 271 272 273
f 272 274 273
f 273 274 275
f 274 276 275
f 275 276 277
f 276 278 277
f 279 280 281
f 280 282 281
f 283 284 285
f 284 286 285
f 285 286 287
f 286 288 287
f 287 288 289
f 288 290 289
f 289 290 291
f 290 292 291
f 291 292 293
f 292 294 293
f 293 294 295
f 294 296 295
f 295 296 297
f 296 298 297
f 297 298 299
f 298 300 299
f 299 300 301
f 300 302 301
f 301 302 303
f 302 304 303
f 303 304 305
f 304 306 305
f 305 306 307
f 306 308 307