# Part4
# Autodesk dbId: 7
# Units: mm
o 007_Part4
v 15.689997 24.851864 -74.046979
v 18.489997 24.545446 -74.385820
v 18.489997 24.851864 -74.046980
v 15.689997 24.545446 -74.385820
v 18.489997 24.161771 -74.633808
v 15.689997 24.161771 -74.633808
v 18.489997 23.726986 -74.774043
v 15.689997 23.726986 -74.774042
v 18.489997 23.270720 -74.796970
v 15.689997 23.270720 -74.796970
v 18.489997 22.824068 -74.701022
v 15.689997 22.824068 -74.701022
v 18.489997 22.417464 -74.492748
v 15.689997 22.417464 -74.492748
v 18.489997 22.078627 -74.186326
v 15.689997 22.078627 -74.186326
v 18.489997 21.830638 -73.802654
v 15.689997 21.830638 -73.802654
v 18.489997 21.690403 -73.367867
v 15.689997 21.690403 -73.367867
v 18.489997 21.667476 -72.911602
v 15.689997 21.667476 -72.911602
v 18.489997 21.763421 -72.464950
v 15.689998 21.763422 -72.464949
v 18.489998 21.971700 -72.058348
v 15.689998 21.971700 -72.058347
v 18.489998 22.278117 -71.719509
v 15.689998 22.278117 -71.719509
v 18.489998 22.661793 -71.471519
v 15.689998 22.661793 -71.471519
v 18.489998 23.096578 -71.331285
v 15.689998 23.096578 -71.331284
v 18.489998 23.552843 -71.308360
v 15.689998 23.552843 -71.308359
v 18.489998 23.999497 -71.404303
v 15.689998 23.999497 -71.404303
v 18.489998 24.406097 -71.612583
v 15.689998 24.406097 -71.612583
v 18.489998 24.744939 -71.918999
v 15.689998 24.744939 -71.918999
v 18.489998 24.992925 -72.302676
v 15.689998 24.992925 -72.302675
v 18.489998 25.133161 -72.737460
v 15.689998 25.133161 -72.737460
v 18.489998 25.156088 -73.193725
v 15.689998 25.156088 -73.193725
v 18.489997 25.060141 -73.640380
v 15.689998 25.060141 -73.640380
v 18.489997 24.851864 -74.046980
v 15.690007 70.306307 -8.214670
v 18.490006 69.999891 -8.553509
v 18.490007 70.306307 -8.214671
v 15.690007 69.999891 -8.553509
v 18.490006 69.616215 -8.801499
v 15.690006 69.616215 -8.801498
v 18.490006 69.181430 -8.941733
v 15.690006 69.181430 -8.941733
v 18.490006 68.725164 -8.964659
v 15.690006 68.725164 -8.964658
v 18.490006 68.278510 -8.868715
v 15.690006 68.278510 -8.868715
v 18.490006 67.871910 -8.660435
v 15.690006 67.871910 -8.660435
v 18.490006 67.533069 -8.354019
v 15.690006 67.533069 -8.354019
v 18.490006 67.285082 -7.970343
v 15.690006 67.285083 -7.970342
v 18.490006 67.144846 -7.535558
v 15.690007 67.144846 -7.535558
v 18.490007 67.121920 -7.079293
v 15.690007 67.121920 -7.079293
v 18.490007 67.217866 -6.632638
v 15.690007 67.217866 -6.632638
v 18.490007 67.426143 -6.226039
v 15.690007 67.426144 -6.226038
v 18.490007 67.732562 -5.887198
v 15.690007 67.732562 -5.887197
v 18.490007 68.116236 -5.639210
v 15.690007 68.116236 -5.639210
v 18.490007 68.551021 -5.498976
v 15.690007 68.551021 -5.498975
v 18.490007 69.007288 -5.476048
v 15.690007 69.007288 -5.476048
v 18.490007 69.453939 -5.571996
v 15.690007 69.453939 -5.571996
v 18.490007 69.860543 -5.780270
v 15.690007 69.860543 -5.780269
v 18.490007 70.199380 -6.086692
v 15.690007 70.199380 -6.086692
v 18.490007 70.447370 -6.470364
v 15.690007 70.447370 -6.470364
v 18.490007 70.587604 -6.905151
v 15.690007 70.587604 -6.905150
v 18.490007 70.610531 -7.361416
v 15.690007 70.610531 -7.361416
v 18.490007 70.514586 -7.808069
v 15.690007 70.514586 -7.808068
v 18.490007 70.306307 -8.214671
v 18.489997 26.703398 -75.325386
v 18.489997 25.126045 -76.666705
v 18.489997 26.003015 -76.099877
v 18.490006 72.157841 -9.493077
v 18.490006 69.999891 -8.553509
v 18.490007 72.633905 -8.563703
v 18.490007 72.853208 -7.542784
v 18.490007 65.574610 -4.947632
v 18.490007 67.151963 -3.606313
v 18.490007 66.274992 -4.173141
v 18.489998 20.120166 -70.779941
v 18.490007 67.217866 -6.632638
v 18.489998 22.278117 -71.719509
v 18.489997 19.424799 -72.730235
v 18.489998 19.644102 -71.709315
v 18.489997 19.477201 -73.773129
v 18.489998 21.971700 -72.058348
v 18.489997 19.797738 -74.766927
v 18.489997 21.667476 -72.911602
v 18.489997 21.763421 -72.464950
v 18.489997 20.364569 -75.643895
v 18.489997 22.078627 -74.186326
v 18.489997 21.830638 -73.802654
v 18.489997 21.690403 -73.367867
v 18.489997 21.139059 -76.344280
v 18.489997 22.824068 -74.701022
v 18.489997 22.417464 -74.492748
v 18.489997 22.068435 -76.820343
v 18.489997 24.161771 -74.633808
v 18.489997 23.726986 -74.774043
v 18.489997 23.270720 -74.796970
v 18.489997 23.089354 -77.039649
v 15.689998 20.120166 -70.779941
v 15.689997 19.424799 -72.730234
v 15.689998 19.644102 -71.709315
v 15.690007 65.574610 -4.947632
v 15.690007 67.217866 -6.632638
v 15.690007 67.151963 -3.606313
v 15.690007 66.274992 -4.173141
v 15.690007 68.145758 -3.285774
v 15.690007 67.426144 -6.226038
v 15.690007 69.188654 -3.233369
v 15.690007 68.116236 -5.639210
v 15.690007 67.732562 -5.887197
v 15.690007 70.209573 -3.452675
v 15.690007 69.453939 -5.571996
v 15.690007 69.007288 -5.476048
v 15.690007 68.551021 -5.498975
v 15.690007 71.138948 -3.928737
v 15.690007 70.199380 -6.086692
v 15.690007 69.860543 -5.780269
v 15.690007 71.913439 -4.629123
v 15.690007 70.610531 -7.361416
v 15.690007 70.587604 -6.905150
v 15.690007 70.447370 -6.470364
v 15.690007 72.480270 -5.506091
v 15.690006 72.157841 -9.493076
v 15.690007 72.853208 -7.542783
v 15.690007 72.633906 -8.563703
v 15.689997 26.703398 -75.325386
v 15.690007 69.999891 -8.553509
v 15.689997 25.126045 -76.666705
v 15.689997 26.003015 -76.099877
v 15.689997 24.132249 -76.987244
v 15.689998 25.060141 -73.640380
v 15.689997 24.851864 -74.046979
v 15.690007 70.306307 -8.214670
v 18.489997 24.545446 -74.385820
v 18.489997 24.851864 -74.046980
v 18.489997 24.132249 -76.987244
v 18.489997 25.060141 -73.640380
v 18.489998 22.661793 -71.471519
v 18.490007 67.121920 -7.079293
v 18.490007 68.145758 -3.285774
v 18.489998 23.096578 -71.331285
v 18.490006 67.144846 -7.535558
v 18.489998 23.552843 -71.308360
v 18.490006 67.285082 -7.970343
v 18.490006 67.533069 -8.354019
v 18.489998 23.999497 -71.404303
v 18.490006 67.871910 -8.660435
v 18.489998 24.406097 -71.612583
v 18.489998 24.744939 -71.918999
v 18.490006 68.278510 -8.868715
v 18.489998 24.992925 -72.302676
v 18.490006 68.725164 -8.964659
v 18.490006 69.181430 -8.941733
v 18.489998 25.133161 -72.737460
v 18.490006 69.616215 -8.801499
v 18.489998 25.156088 -73.193725
v 18.490007 72.800806 -6.499889
v 18.490007 70.306307 -8.214671
v 18.490007 72.480270 -5.506091
v 18.490007 70.514586 -7.808069
v 18.490007 70.610531 -7.361416
v 18.490007 71.913439 -4.629123
v 18.490007 70.587604 -6.905151
v 18.490007 70.447370 -6.470364
v 18.490007 70.199380 -6.086692
v 18.490007 71.138948 -3.928738
v 18.490007 69.860543 -5.780270
v 18.490007 69.453939 -5.571996
v 18.490007 70.209573 -3.452675
v 18.490007 69.007288 -5.476048
v 18.490007 68.551021 -5.498976
v 18.490007 68.116236 -5.639210
v 18.490007 69.188654 -3.233369
v 18.490007 67.732562 -5.887198
v 18.490007 67.426143 -6.226039
v 15.689997 24.851864 -74.046979
v 15.689997 23.089354 -77.039649
v 15.689997 24.545446 -74.385820
v 15.689997 24.161771 -74.633808
v 15.689997 22.068435 -76.820343
v 15.689997 23.726986 -74.774042
v 15.689997 23.270720 -74.796970
v 15.689997 22.824068 -74.701022
v 15.689997 21.139059 -76.344280
v 15.689997 22.417464 -74.492748
v 15.689997 22.078627 -74.186326
v 15.689997 20.364569 -75.643895
v 15.689997 21.830638 -73.802654
v 15.689997 21.690403 -73.367867
v 15.689997 21.667476 -72.911602
v 15.689997 19.797738 -74.766927
v 15.689998 21.763422 -72.464949
v 15.689998 21.971700 -72.058347
v 15.689997 19.477201 -73.773129
v 15.689998 22.278117 -71.719509
v 15.689998 25.156088 -73.193725
v 15.690006 69.616215 -8.801498
v 15.690007 72.800806 -6.499889
v 15.689998 25.133161 -72.737460
v 15.690006 69.181430 -8.941733
v 15.689998 24.992925 -72.302675
v 15.690006 68.725164 -8.964658
v 15.690006 68.278510 -8.868715
v 15.689998 24.744939 -71.918999
v 15.690006 67.871910 -8.660435
v 15.689998 24.406097 -71.612583
v 15.689998 23.999497 -71.404303
v 15.690006 67.533069 -8.354019
v 15.689998 23.552843 -71.308359
v 15.690006 67.285083 -7.970342
v 15.690007 67.144846 -7.535558
v 15.689998 23.096578 -71.331284
v 15.690007 67.121920 -7.079293
v 15.689998 22.661793 -71.471519
v 15.690007 70.514586 -7.808068
v 15.690007 70.306307 -8.214670
v 18.489998 20.120166 -70.779941
v 18.490007 65.574610 -4.947632
v 15.689998 20.120166 -70.779941
v 15.690007 65.574610 -4.947632
v 15.690007 65.574610 -4.947632
v 18.490007 65.574610 -4.947632
v 15.690007 66.274992 -4.173141
v 18.490007 66.274992 -4.173141
v 15.690007 67.151963 -3.606313
v 18.490007 67.151963 -3.606313
v 15.690007 68.145758 -3.285774
v 18.490007 68.145758 -3.285774
v 15.690007 69.188654 -3.233369
v 18.490007 69.188654 -3.233369
v 15.690007 70.209573 -3.452675
v 18.490007 70.209573 -3.452675
v 15.690007 71.138948 -3.928737
v 18.490007 71.138948 -3.928738
v 15.690007 71.913439 -4.629123
v 18.490007 71.913439 -4.629123
v 15.690007 72.480270 -5.506091
v 18.490007 72.480270 -5.506091
v 15.690007 72.800806 -6.499889
v 18.490007 72.800806 -6.499889
v 15.690007 72.853208 -7.542783
v 18.490007 72.853208 -7.542784
v 15.690007 72.633906 -8.563703
v 18.490007 72.633905 -8.563703
v 15.690006 72.157841 -9.493076
v 18.490006 72.157841 -9.493077
v 18.490006 72.157841 -9.493077
v 18.489997 26.703398 -75.325386
v 15.690006 72.157841 -9.493076
v 15.689997 26.703398 -75.325386
v 18.489998 20.120166 -70.779941
v 15.689998 20.120166 -70.779941
v 18.489998 19.644102 -71.709315
v 15.689998 19.644102 -71.709315
v 18.489997 19.424799 -72.730235
v 15.689997 19.424799 -72.730234
v 18.489997 19.477201 -73.773129
v 15.689997 19.477201 -73.773129
v 18.489997 19.797738 -74.766927
v 15.689997 19.797738 -74.766927
v 18.489997 20.364569 -75.643895
v 15.689997 20.364569 -75.643895
v 18.489997 21.139059 -76.344280
v 15.689997 21.139059 -76.344280
v 18.489997 22.068435 -76.820343
v 15.689997 22.068435 -76.820343
v 18.489997 23.089354 -77.039649
v 15.689997 23.089354 -77.039649
v 18.489997 24.132249 -76.987244
v 15.689997 24.132249 -76.987244
v 18.489997 25.126045 -76.666705
v 15.689997 25.126045 -76.666705
v 18.489997 26.003015 -76.099877
v 15.689997 26.003015 -76.099877
v 18.489997 26.703398 -75.325386
v 15.689997 26.703398 -75.325386
f 1 2 3
f 1 4 2
f 2 4 5
f 4 6 5
f 5 6 7
f 6 8 7
f 7 8 9
f 8 10 9
f 9 10 11
f 10 12 11
f 11 12 13
f 12 14 13
f 13 14 15
f 14 16 15
f 15 16 17
f 16 18 17
f 17 18 19
f 18 20 19
f 19 20 21
f 20 22 21
f 21 22 23
f 22 24 23
f 23 24 25
f 24 26 25
f 25 26 27
f 26 28 27
f 27 28 29
f 28 30 29
f 29 30 31
f 30 32 31
f 31 32 33
f 32 34 33
f 33 34 35
f 34 36 35
f 35 36 37
f 36 38 37
f 37 38 39
f 38 40 39
f 39 40 41
f 40 42 41
f 41 42 43
f 42 44 43
f 43 44 45
f 44 46 45
f 45 46 47
f 46 48 47
f 47 48 49
f 48 164 49
f 50 51 52
f 50 53 51
f 51 53 54
f 53 55 54
f 54 55 56
f 55 57 56
f 56 57 58
f 57 59 58
f 58 59 60
f 59 61 60
f 60 61 62
f 61 63 62
f 62 63 64
f 63 65 64
f 64 65 66
f 65 67 66
f 66 67 68
f 67 69 68
f 68 69 70
f 69 71 70
f 70 71 72
f 71 73 72
f 72 73 74
f 73 75 74
f 74 75 76
f 75 77 76
f 76 77 78
f 77 79 78
f 78 79 80
f 79 81 80
f 80 81 82
f 81 83 82
f 82 83 84
f 83 85 84
f 84 85 86
f 85 87 86
f 86 87 88
f 87 89 88
f 88 89 90
f 89 91 90
f 90 91 92
f 91 93 92
f 92 93 94
f 93 95 94
f 94 95 96
f 95 97 96
f 96 97 98
f 97 165 98
f 99 100 101
f 99 102 103
f 99 169 100
f 99 103 169
f 100 169 168
f 102 104 105
f 102 105 103
f 103 187 188
f 103 188 169
f 103 189 190
f 103 105 189
f 106 107 108
f 106 109 110
f 106 110 107
f 107 110 172
f 109 111 110
f 109 112 111
f 109 113 112
f 110 111 170
f 110 170 171
f 110 207 172
f 111 114 115
f 111 112 114
f 114 116 115
f 115 116 118
f 116 117 118
f 116 119 117
f 117 119 122
f 119 120 121
f 119 121 122
f 119 123 120
f 120 123 125
f 123 124 125
f 123 126 124
f 124 126 129
f 126 127 128
f 126 128 129
f 126 130 127
f 127 130 166
f 130 167 166
f 130 168 167
f 131 132 133
f 131 134 135
f 131 227 132
f 131 135 227
f 132 227 226
f 134 136 135
f 134 137 136
f 135 138 139
f 135 136 138
f 135 245 246
f 135 246 227
f 138 140 139
f 139 140 142
f 140 141 142
f 140 143 141
f 141 143 146
f 143 144 145
f 143 145 146
f 143 147 144
f 144 147 149
f 147 148 149
f 147 150 148
f 148 150 153
f 150 151 152
f 150 152 153
f 150 154 151
f 151 154 247
f 154 248 247
f 154 230 248
f 155 156 157
f 155 158 159
f 155 159 156
f 156 159 230
f 158 161 160
f 158 163 159
f 158 160 163
f 159 163 228
f 159 228 229
f 159 248 230
f 160 162 163
f 162 208 163
f 162 209 208
f 167 168 169
f 170 173 171
f 171 173 174
f 172 207 205
f 173 175 174
f 174 175 176
f 175 177 176
f 175 178 177
f 177 178 179
f 178 180 179
f 179 180 181
f 179 181 182
f 181 183 182
f 182 183 184
f 183 185 184
f 183 186 185
f 185 186 187
f 186 188 187
f 189 191 190
f 190 191 192
f 191 193 192
f 191 194 193
f 193 194 195
f 194 196 195
f 194 197 196
f 194 198 197
f 197 198 199
f 198 200 199
f 198 201 200
f 200 201 202
f 201 203 202
f 201 204 203
f 201 205 204
f 204 205 206
f 205 207 206
f 208 209 210
f 209 211 210
f 209 212 211
f 211 212 213
f 212 214 213
f 212 215 214
f 212 216 215
f 215 216 217
f 216 218 217
f 216 219 218
f 218 219 220
f 219 221 220
f 219 222 221
f 219 223 222
f 222 223 224
f 223 225 224
f 223 226 225
f 225 226 227
f 228 231 229
f 229 231 232
f 231 233 232
f 232 233 234
f 233 235 234
f 233 236 235
f 235 236 237
f 236 238 237
f 237 238 239
f 237 239 240
f 239 241 240
f 240 241 242
f 241 243 242
f 241 244 243
f 243 244 245
f 244 246 245
f 249 250 251
f 250 252 251
f 253 254 255
f 254 256 255
f 255 256 257
f 256 258 257
f 257 258 259
f 258 260 259
f 259 260 261
f 260 262 261
f 261 262 263
f 262 264 263
f 263 264 265
f 264 266 265
f 265 266 267
f 266 268 267
f 267 268 269
f 268 270 269
f 269 270 271
f 270 272 271
f 271 272 273
f 272 274 273
f 273 274 275
f 274 276 275
f 275 276 277
f 276 278 277
f 279 280 281
f 280 282 281
f 283 284 285
f 284 286 285
f 285 286 287
f 286 288 287
f 287 288 289
f 288 290 289
f 289 290 291
f 290 292 291
f 291 292 293
f 292 294 293
f 293 294 295
f 294 296 295
f 295 296 297
f 296 298 297
f 297 298 299
f 298 300 299
f 299 300 301
f 300 302 301
f 301 302 303
f 302 304 303
f 303 304 305
f 304 306 305
f 305 306 307
f 306 308 307