# Part16
# Autodesk dbId: 12
# Units: mm
o 012_Part16
v 21.390000 65.838483 35.171661
v 18.589999 65.463006 35.282791
v 18.589999 65.838483 35.171661
v 21.390000 65.463005 35.282791
v 18.589999 65.071558 35.292953
v 21.390000 65.071558 35.292953
v 18.589999 64.690818 35.201456
v 21.390000 64.690818 35.201456
v 18.589999 64.346734 35.014535
v 21.390000 64.346734 35.014535
v 18.589999 64.062755 34.744927
v 21.390000 64.062755 34.744927
v 18.589999 63.858229 34.411005
v 21.390000 63.858229 34.411005
v 18.589999 63.747098 34.035527
v 21.390000 63.747098 34.035527
v 18.589999 63.736935 33.644080
v 21.390000 63.736935 33.644080
v 18.589999 63.828432 33.263341
v 21.390000 63.828432 33.263341
v 18.589999 64.015356 32.919258
v 21.390000 64.015355 32.919258
v 18.589999 64.284963 32.635278
v 21.390000 64.284963 32.635278
v 18.589999 64.618885 32.430754
v 21.390000 64.618885 32.430754
v 18.589999 64.994363 32.319621
v 21.390000 64.994363 32.319621
v 18.589999 65.385810 32.309458
v 21.390000 65.385810 32.309458
v 18.589999 65.766549 32.400956
v 21.390000 65.766548 32.400956
v 18.589999 66.110632 32.587877
v 21.390000 66.110632 32.587877
v 18.589999 66.394614 32.857486
v 21.390000 66.394613 32.857486
v 18.589999 66.599138 33.191406
v 21.390000 66.599138 33.191406
v 18.589999 66.710269 33.566884
v 21.390000 66.710269 33.566884
v 18.589999 66.720432 33.958332
v 21.390000 66.720432 33.958332
v 18.589999 66.628935 34.339071
v 21.390000 66.628934 34.339071
v 18.589999 66.442014 34.683156
v 21.390000 66.442013 34.683156
v 18.589999 66.172404 34.967137
v 21.390000 66.172404 34.967137
v 18.589999 65.838483 35.171661
v 21.390001 69.476025 -5.849904
v 18.590000 69.100547 -5.738772
v 18.590000 69.476025 -5.849904
v 21.390001 69.100547 -5.738772
v 18.590000 68.709101 -5.728610
v 21.390001 68.709100 -5.728610
v 18.590000 68.328361 -5.820107
v 21.390001 68.328361 -5.820107
v 18.590000 67.984277 -6.007029
v 21.390000 67.984277 -6.007029
v 18.590000 67.700296 -6.276638
v 21.390000 67.700296 -6.276638
v 18.590000 67.495772 -6.610558
v 21.390000 67.495772 -6.610558
v 18.590000 67.384641 -6.986037
v 21.390000 67.384641 -6.986037
v 18.590000 67.374478 -7.377484
v 21.390000 67.374478 -7.377484
v 18.590000 67.465976 -7.758222
v 21.390000 67.465976 -7.758222
v 18.590000 67.652898 -8.102306
v 21.390001 67.652897 -8.102306
v 18.590000 67.922505 -8.386287
v 21.390001 67.922505 -8.386287
v 18.590000 68.256426 -8.590811
v 21.390001 68.256426 -8.590811
v 18.590000 68.631905 -8.701943
v 21.390001 68.631905 -8.701943
v 18.590000 69.023351 -8.712105
v 21.390001 69.023351 -8.712105
v 18.590000 69.404091 -8.620608
v 21.390001 69.404090 -8.620608
v 18.590000 69.748175 -8.433687
v 21.390001 69.748175 -8.433687
v 18.590000 70.032156 -8.164078
v 21.390001 70.032155 -8.164078
v 18.590000 70.236680 -7.830157
v 21.390001 70.236680 -7.830157
v 18.590000 70.347810 -7.454679
v 21.390001 70.347810 -7.454679
v 18.590000 70.357974 -7.063233
v 21.390001 70.357973 -7.063233
v 18.590000 70.266477 -6.682494
v 21.390001 70.266477 -6.682494
v 18.590000 70.079555 -6.338409
v 21.390001 70.079555 -6.338409
v 18.590000 69.809947 -6.054428
v 21.390001 69.809947 -6.054427
v 18.590000 69.476025 -5.849904
v 21.389999 47.137969 -6.855610
v 18.589999 46.762493 -6.744478
v 18.589999 47.137969 -6.855610
v 21.389999 46.762492 -6.744478
v 18.589999 46.371046 -6.734315
v 21.389999 46.371046 -6.734315
v 18.589999 45.990305 -6.825814
v 21.389999 45.990305 -6.825814
v 18.589999 45.646222 -7.012735
v 21.389999 45.646222 -7.012734
v 18.589999 45.362242 -7.282343
v 21.389999 45.362242 -7.282343
v 18.589999 45.157716 -7.616264
v 21.389999 45.157716 -7.616264
v 18.589999 45.046586 -7.991743
v 21.389999 45.046586 -7.991743
v 18.589999 45.036424 -8.383188
v 21.389999 45.036424 -8.383187
v 18.589999 45.127921 -8.763926
v 21.389999 45.127921 -8.763926
v 18.589999 45.314843 -9.108011
v 21.389999 45.314842 -9.108011
v 18.589999 45.584451 -9.391992
v 21.389999 45.584451 -9.391992
v 18.589999 45.918371 -9.596518
v 21.389999 45.918371 -9.596518
v 18.589999 46.293850 -9.707648
v 21.389999 46.293849 -9.707648
v 18.589999 46.685297 -9.717810
v 21.389999 46.685297 -9.717810
v 18.589999 47.066036 -9.626314
v 21.389999 47.066035 -9.626314
v 18.589999 47.410119 -9.439393
v 21.389999 47.410119 -9.439393
v 18.589999 47.694101 -9.169784
v 21.389999 47.694101 -9.169784
v 18.589999 47.898626 -8.835862
v 21.389999 47.898626 -8.835862
v 18.589999 48.009756 -8.460385
v 21.389999 48.009756 -8.460385
v 18.589999 48.019919 -8.068937
v 21.389999 48.019919 -8.068937
v 18.589999 47.928422 -7.688199
v 21.389999 47.928422 -7.688199
v 18.589999 47.741501 -7.344114
v 21.389999 47.741500 -7.344114
v 18.589999 47.471892 -7.060133
v 21.389999 47.471892 -7.060133
v 18.589999 47.137969 -6.855610
v 21.389999 62.284647 34.377963
v 21.390000 63.736935 33.644080
v 21.390000 63.747098 34.035527
v 21.390000 63.858229 34.411005
v 21.390000 60.845431 28.107850
v 21.390000 65.385810 32.309458
v 21.390000 64.994363 32.319621
v 21.390000 64.618885 32.430754
v 21.390000 64.284963 32.635278
v 21.390000 64.015355 32.919258
v 21.390000 63.828432 33.263341
v 21.389999 59.006034 21.943255
v 21.390000 67.678348 26.776722
v 21.389999 43.554002 -8.618899
v 21.389999 45.046586 -7.991743
v 21.389999 45.157716 -7.616264
v 21.389999 43.552359 -7.845877
v 21.389999 43.753118 -9.365840
v 21.389999 45.036424 -8.383187
v 21.389999 44.136489 -10.037102
v 21.389999 45.314842 -9.108011
v 21.389999 45.127921 -8.763926
v 21.389999 44.678655 -10.588118
v 21.389999 45.584451 -9.391992
v 21.389999 45.343625 -10.982302
v 21.389999 46.293849 -9.707648
v 21.389999 45.918371 -9.596518
v 21.389999 46.087244 -11.193482
v 21.389999 47.066035 -9.626314
v 21.389999 46.685297 -9.717810
v 21.389999 46.860136 -11.207641
v 21.389999 47.410119 -9.439393
v 21.389999 47.610989 -11.023832
v 21.389999 47.694101 -9.169784
v 21.389999 48.289946 -10.654263
v 21.389999 47.898626 -8.835862
v 21.389999 48.851930 -10.123469
v 21.389999 48.009756 -8.460385
v 21.389999 50.424097 -8.528466
v 21.389999 47.928422 -7.688199
v 21.389999 48.019919 -8.068937
v 21.390000 52.265265 -7.253377
v 21.389999 51.170978 4.334858
v 21.389999 47.823036 -1.158496
v 21.389999 47.741500 -7.344114
v 21.390000 54.311301 -6.342616
v 21.389999 54.158777 10.032111
v 21.390000 56.490940 -5.827908
v 21.390000 67.964617 13.371753
v 21.390000 58.728260 -5.727179
v 21.390000 68.780858 6.713813
v 21.390000 60.945334 -6.043937
v 21.390000 63.064935 -6.767153
v 21.390001 70.041611 0.125573
v 21.390000 65.013236 -7.871633
v 21.390000 67.374478 -7.377484
v 21.390000 67.384641 -6.986037
v 21.390000 67.495772 -6.610558
v 21.390000 67.700296 -6.276638
v 21.390000 66.722373 -9.318904
v 21.390001 67.652897 -8.102306
v 21.390000 67.465976 -7.758222
v 21.390001 67.286494 -9.770742
v 21.390001 68.256426 -8.590811
v 21.390001 67.922505 -8.386287
v 21.390001 67.942309 -10.074543
v 21.390001 68.631905 -8.701943
v 21.390001 68.651749 -10.212681
v 21.390001 69.404090 -8.620608
v 21.390001 69.023351 -8.712105
v 21.390001 69.373639 -10.177135
v 21.390001 69.748175 -8.433687
v 21.390001 70.066077 -9.969968
v 21.390001 70.032155 -8.164078
v 21.390001 70.688871 -9.603205
v 21.390001 70.236680 -7.830157
v 21.390001 71.205875 -9.098135
v 21.390001 71.587077 -8.484071
v 21.390001 71.810352 -7.796658
v 21.390001 71.862741 -7.075796
v 21.390001 70.347810 -7.454679
v 21.390001 71.741203 -6.363324
v 21.390001 69.809947 -6.054427
v 21.390001 70.079555 -6.338409
v 21.390001 70.266477 -6.682494
v 21.390001 70.357973 -7.063233
v 21.390001 69.476025 -5.849904
v 21.390000 67.984277 -6.007029
v 21.390001 68.328361 -5.820107
v 21.390001 68.709100 -5.728610
v 21.389999 56.774071 15.909684
v 21.390000 67.596563 20.069435
v 21.390000 66.110632 32.587877
v 21.390000 65.766548 32.400956
v 21.390000 68.209608 33.463437
v 21.390000 66.599138 33.191406
v 21.390000 66.394613 32.857486
v 21.390000 68.198383 34.226525
v 21.390000 66.710269 33.566884
v 21.390000 67.994974 34.962085
v 21.390000 66.720432 33.958332
v 21.390000 67.612548 35.622521
v 21.390000 66.442013 34.683156
v 21.390000 66.628934 34.339071
v 21.390000 67.075854 36.165095
v 21.390000 66.172404 34.967137
v 21.390000 66.419620 36.554689
v 21.390000 65.838483 35.171661
v 21.390000 65.686317 36.766096
v 21.390000 65.071558 35.292953
v 21.390000 65.463005 35.282791
v 21.390000 64.923399 36.785634
v 21.390000 64.346734 35.014535
v 21.390000 64.690818 35.201456
v 21.390000 64.180237 36.612037
v 21.390000 64.062755 34.744927
v 21.390000 63.504923 36.256538
v 21.389999 62.525434 35.102149
v 21.390000 65.838483 35.171661
v 21.390001 69.476025 -5.849904
v 21.389999 47.137969 -6.855610
v 21.390000 62.941161 35.742145
v 21.390001 69.100547 -5.738772
v 21.389999 47.471892 -7.060133
v 21.389999 47.137969 -6.855610
v 21.389999 46.762492 -6.744478
v 21.389999 46.371046 -6.734315
v 21.389999 45.990305 -6.825814
v 21.389999 45.646222 -7.012734
v 21.389999 44.128810 -6.425212
v 21.389999 45.362242 -7.282343
v 21.389999 43.748298 -7.098098
v 21.389999 44.128810 -6.425212
v 18.589999 44.128810 -6.425212
v 21.389999 43.748298 -7.098098
v 18.589999 43.748298 -7.098099
v 21.389999 43.552359 -7.845877
v 18.589999 43.552359 -7.845878
v 21.389999 43.554002 -8.618899
v 18.589999 43.554003 -8.618899
v 21.389999 43.753118 -9.365840
v 18.589999 43.753118 -9.365840
v 21.389999 44.136489 -10.037102
v 18.589999 44.136489 -10.037102
v 21.389999 44.678655 -10.588118
v 18.589999 44.678655 -10.588118
v 21.389999 45.343625 -10.982302
v 18.589999 45.343625 -10.982302
v 21.389999 46.087244 -11.193482
v 18.589999 46.087244 -11.193482
v 21.389999 46.860136 -11.207641
v 18.589999 46.860136 -11.207641
v 21.389999 47.610989 -11.023832
v 18.589999 47.610989 -11.023832
v 21.389999 48.289946 -10.654263
v 18.589999 48.289946 -10.654263
v 21.389999 48.851930 -10.123469
v 18.589999 48.851930 -10.123469
v 21.389999 48.851930 -10.123469
v 18.589999 48.851930 -10.123469
v 21.389999 50.424097 -8.528466
v 18.589999 50.424097 -8.528466
v 21.390000 52.265265 -7.253377
v 18.589999 52.265265 -7.253377
v 21.390000 54.311301 -6.342616
v 18.589999 54.311302 -6.342616
v 21.390000 56.490940 -5.827908
v 18.589999 56.490940 -5.827908
v 21.390000 58.728260 -5.727179
v 18.589999 58.728261 -5.727179
v 21.390000 60.945334 -6.043937
v 18.590000 60.945334 -6.043937
v 21.390000 63.064935 -6.767153
v 18.590000 63.064935 -6.767153
v 21.390000 65.013236 -7.871633
v 18.590000 65.013236 -7.871633
v 21.390000 66.722373 -9.318904
v 18.590000 66.722373 -9.318904
v 21.390000 66.722373 -9.318904
v 18.590000 66.722373 -9.318904
v 21.390001 67.286494 -9.770742
v 18.590000 67.286495 -9.770742
v 21.390001 67.942309 -10.074543
v 18.590000 67.942309 -10.074543
v 21.390001 68.651749 -10.212681
v 18.590000 68.651749 -10.212681
v 21.390001 69.373639 -10.177135
v 18.590000 69.373639 -10.177135
v 21.390001 70.066077 -9.969968
v 18.590000 70.066077 -9.969968
v 21.390001 70.688871 -9.603205
v 18.590000 70.688871 -9.603205
v 21.390001 71.205875 -9.098135
v 18.590000 71.205875 -9.098135
v 21.390001 71.587077 -8.484071
v 18.590000 71.587077 -8.484071
v 21.390001 71.810352 -7.796658
v 18.590000 71.810352 -7.796658
v 21.390001 71.862741 -7.075796
v 18.590000 71.862742 -7.075796
v 21.390001 71.741203 -6.363324
v 18.590000 71.741203 -6.363324
v 21.390001 71.741203 -6.363324
v 18.590000 71.741203 -6.363324
v 21.390001 70.041611 0.125573
v 18.590000 70.041611 0.125573
v 21.390000 68.780858 6.713813
v 18.590000 68.780858 6.713813
v 21.390000 67.964617 13.371753
v 18.590000 67.964617 13.371753
v 21.390000 67.596563 20.069435
v 18.590000 67.596563 20.069435
v 21.390000 67.678348 26.776722
v 18.590000 67.678349 26.776722
v 21.390000 68.209608 33.463437
v 18.589999 68.209608 33.463437
v 21.390000 68.209608 33.463437
v 18.589999 68.209608 33.463437
v 21.390000 68.198383 34.226525
v 18.589999 68.198383 34.226525
v 21.390000 67.994974 34.962085
v 18.589999 67.994974 34.962085
v 21.390000 67.612548 35.622521
v 18.589999 67.612548 35.622521
v 21.390000 67.075854 36.165095
v 18.589999 67.075854 36.165095
v 21.390000 66.419620 36.554689
v 18.589999 66.419621 36.554689
v 21.390000 65.686317 36.766096
v 18.589999 65.686317 36.766096
v 21.390000 64.923399 36.785634
v 18.589999 64.923399 36.785634
v 21.390000 64.180237 36.612037
v 18.589999 64.180237 36.612036
v 21.390000 63.504923 36.256538
v 18.589999 63.504923 36.256538
v 21.390000 62.941161 35.742145
v 18.589999 62.941161 35.742145
v 21.389999 62.525434 35.102149
v 18.589999 62.525434 35.102149
v 21.389999 62.284647 34.377963
v 18.589999 62.284647 34.377963
v 21.389999 62.284647 34.377963
v 18.589999 62.284647 34.377963
v 21.390000 60.845431 28.107850
v 18.589999 60.845431 28.107850
v 21.389999 59.006034 21.943255
v 18.589999 59.006034 21.943255
v 21.389999 56.774071 15.909684
v 18.589999 56.774071 15.909684
v 21.389999 54.158777 10.032111
v 18.589999 54.158777 10.032111
v 21.389999 51.170978 4.334858
v 18.589999 51.170978 4.334858
v 21.389999 47.823036 -1.158496
v 18.589999 47.823036 -1.158496
v 21.389999 44.128810 -6.425212
v 18.589999 44.128810 -6.425212
v 18.589999 66.172404 34.967137
v 18.589999 65.838483 35.171661
v 18.589999 66.419621 36.554689
v 18.589999 65.463006 35.282791
v 18.589999 65.686317 36.766096
v 18.589999 65.071558 35.292953
v 18.589999 64.923399 36.785634
v 18.589999 64.690818 35.201456
v 18.589999 64.346734 35.014535
v 18.589999 64.180237 36.612036
v 18.589999 64.062755 34.744927
v 18.589999 63.504923 36.256538
v 18.589999 63.858229 34.411005
v 18.589999 62.941161 35.742145
v 18.589999 62.525434 35.102149
v 18.589999 62.284647 34.377963
v 18.589999 63.747098 34.035527
v 18.589999 63.736935 33.644080
v 18.589999 60.845431 28.107850
v 18.589999 63.828432 33.263341
v 18.589999 64.015356 32.919258
v 18.589999 64.284963 32.635278
v 18.589999 64.618885 32.430754
v 18.589999 64.994363 32.319621
v 18.589999 65.385810 32.309458
v 18.590000 67.678349 26.776722
v 18.589999 59.006034 21.943255
v 18.589999 65.766549 32.400956
v 18.589999 66.110632 32.587877
v 18.589999 68.209608 33.463437
v 18.590000 67.596563 20.069435
v 18.589999 56.774071 15.909684
v 18.590000 67.964617 13.371753
v 18.589999 54.158777 10.032111
v 18.589999 56.490940 -5.827908
v 18.589999 54.311302 -6.342616
v 18.589999 58.728261 -5.727179
v 18.589999 51.170978 4.334858
v 18.589999 66.394614 32.857486
v 18.589999 66.599138 33.191406
v 18.589999 68.198383 34.226525
v 18.589999 66.710269 33.566884
v 18.589999 67.994974 34.962085
v 18.589999 66.720432 33.958332
v 18.589999 67.612548 35.622521
v 18.589999 66.628935 34.339071
v 18.589999 66.442014 34.683156
v 18.589999 67.075854 36.165095
v 18.590000 69.809947 -6.054428
v 18.590000 69.476025 -5.849904
v 18.590000 70.041611 0.125573
v 18.590000 69.100547 -5.738772
v 18.590000 68.709101 -5.728610
v 18.590000 68.328361 -5.820107
v 18.590000 67.984277 -6.007029
v 18.590000 67.700296 -6.276638
v 18.590000 65.013236 -7.871633
v 18.590000 67.495772 -6.610558
v 18.590000 67.384641 -6.986037
v 18.590000 67.374478 -7.377484
v 18.590000 66.722373 -9.318904
v 18.590000 67.465976 -7.758222
v 18.590000 67.652898 -8.102306
v 18.590000 67.286495 -9.770742
v 18.590000 67.922505 -8.386287
v 18.590000 68.256426 -8.590811
v 18.590000 67.942309 -10.074543
v 18.590000 68.631905 -8.701943
v 18.590000 68.651749 -10.212681
v 18.590000 69.023351 -8.712105
v 18.590000 69.404091 -8.620608
v 18.590000 69.373639 -10.177135
v 18.590000 69.748175 -8.433687
v 18.590000 70.066077 -9.969968
v 18.590000 70.032156 -8.164078
v 18.590000 70.688871 -9.603205
v 18.590000 70.236680 -7.830157
v 18.590000 71.205875 -9.098135
v 18.590000 71.587077 -8.484071
v 18.590000 71.810352 -7.796658
v 18.590000 71.862742 -7.075796
v 18.590000 70.347810 -7.454679
v 18.590000 71.741203 -6.363324
v 18.590000 70.357974 -7.063233
v 18.590000 70.266477 -6.682494
v 18.590000 70.079555 -6.338409
v 18.589999 47.471892 -7.060133
v 18.589999 47.137969 -6.855610
v 18.589999 47.823036 -1.158496
v 18.589999 46.762493 -6.744478
v 18.589999 46.371046 -6.734315
v 18.589999 45.990305 -6.825814
v 18.589999 45.646222 -7.012735
v 18.589999 44.128810 -6.425212
v 18.589999 45.362242 -7.282343
v 18.589999 45.157716 -7.616264
v 18.589999 43.554003 -8.618899
v 18.589999 43.552359 -7.845878
v 18.589999 43.748298 -7.098099
v 18.589999 45.046586 -7.991743
v 18.589999 43.753118 -9.365840
v 18.589999 45.036424 -8.383188
v 18.589999 44.136489 -10.037102
v 18.589999 45.127921 -8.763926
v 18.589999 45.314843 -9.108011
v 18.589999 44.678655 -10.588118
v 18.589999 45.584451 -9.391992
v 18.589999 45.343625 -10.982302
v 18.589999 45.918371 -9.596518
v 18.589999 46.293850 -9.707648
v 18.589999 46.087244 -11.193482
v 18.589999 46.685297 -9.717810
v 18.589999 47.066036 -9.626314
v 18.589999 46.860136 -11.207641
v 18.589999 47.410119 -9.439393
v 18.589999 47.610989 -11.023832
v 18.589999 47.694101 -9.169784
v 18.589999 48.289946 -10.654263
v 18.589999 47.898626 -8.835862
v 18.589999 48.851930 -10.123469
v 18.589999 48.009756 -8.460385
v 18.589999 50.424097 -8.528466
v 18.589999 48.019919 -8.068937
v 18.589999 47.928422 -7.688199
v 18.589999 47.741501 -7.344114
v 18.589999 52.265265 -7.253377
v 18.590000 68.780858 6.713813
v 18.590000 60.945334 -6.043937
v 18.590000 63.064935 -6.767153
f 1 2 3
f 1 4 2
f 2 4 5
f 4 6 5
f 5 6 7
f 6 8 7
f 7 8 9
f 8 10 9
f 9 10 11
f 10 12 11
f 11 12 13
f 12 14 13
f 13 14 15
f 14 16 15
f 15 16 17
f 16 18 17
f 17 18 19
f 18 20 19
f 19 20 21
f 20 22 21
f 21 22 23
f 22 24 23
f 23 24 25
f 24 26 25
f 25 26 27
f 26 28 27
f 27 28 29
f 28 30 29
f 29 30 31
f 30 32 31
f 31 32 33
f 32 34 33
f 33 34 35
f 34 36 35
f 35 36 37
f 36 38 37
f 37 38 39
f 38 40 39
f 39 40 41
f 40 42 41
f 41 42 43
f 42 44 43
f 43 44 45
f 44 46 45
f 45 46 47
f 46 48 47
f 47 48 49
f 48 266 49
f 50 51 52
f 50 53 51
f 51 53 54
f 53 55 54
f 54 55 56
f 55 57 56
f 56 57 58
f 57 59 58
f 58 59 60
f 59 61 60
f 60 61 62
f 61 63 62
f 62 63 64
f 63 65 64
f 64 65 66
f 65 67 66
f 66 67 68
f 67 69 68
f 68 69 70
f 69 71 70
f 70 71 72
f 71 73 72
f 72 73 74
f 73 75 74
f 74 75 76
f 75 77 76
f 76 77 78
f 77 79 78
f 78 79 80
f 79 81 80
f 80 81 82
f 81 83 82
f 82 83 84
f 83 85 84
f 84 85 86
f 85 87 86
f 86 87 88
f 87 89 88
f 88 89 90
f 89 91 90
f 90 91 92
f 91 93 92
f 92 93 94
f 93 95 94
f 94 95 96
f 95 97 96
f 96 97 98
f 97 267 98
f 99 100 101
f 99 102 100
f 100 102 103
f 102 104 103
f 103 104 105
f 104 106 105
f 105 106 107
f 106 108 107
f 107 108 109
f 108 110 109
f 109 110 111
f 110 112 111
f 111 112 113
f 112 114 113
f 113 114 115
f 114 116 115
f 115 116 117
f 116 118 117
f 117 118 119
f 118 120 119
f 119 120 121
f 120 122 121
f 121 122 123
f 122 124 123
f 123 124 125
f 124 126 125
f 125 126 127
f 126 128 127
f 127 128 129
f 128 130 129
f 129 130 131
f 130 132 131
f 131 132 133
f 132 134 133
f 133 134 135
f 134 136 135
f 135 136 137
f 136 138 137
f 137 138 139
f 138 140 139
f 139 140 141
f 140 142 141
f 141 142 143
f 142 144 143
f 143 144 145
f 144 146 145
f 145 146 147
f 146 268 147
f 148 149 150
f 148 150 151
f 148 152 149
f 148 151 265
f 149 152 158
f 151 264 269
f 151 269 265
f 151 263 264
f 152 153 154
f 152 154 155
f 152 156 157
f 152 157 158
f 152 159 160
f 152 160 153
f 152 155 156
f 153 160 241
f 159 238 239
f 159 239 160
f 160 240 241
f 160 242 240
f 161 162 163
f 161 163 164
f 161 165 162
f 162 165 166
f 163 278 277
f 163 277 279
f 163 279 164
f 165 167 166
f 166 167 169
f 167 168 169
f 167 170 168
f 168 170 171
f 170 172 171
f 171 172 174
f 172 173 174
f 172 175 173
f 173 175 177
f 175 176 177
f 175 178 176
f 176 178 179
f 178 180 179
f 179 180 181
f 180 182 181
f 181 182 183
f 182 184 183
f 183 184 185
f 184 186 185
f 185 186 188
f 186 187 188
f 186 189 187
f 187 189 192
f 189 190 191
f 189 191 192
f 189 193 190
f 190 193 194
f 191 271 192
f 191 272 271
f 191 273 272
f 191 274 273
f 191 275 274
f 191 276 275
f 191 277 276
f 193 195 194
f 194 195 196
f 194 196 238
f 195 197 196
f 196 197 198
f 196 239 238
f 197 199 198
f 198 200 201
f 198 199 200
f 200 202 201
f 201 202 206
f 201 234 230
f 201 230 229
f 201 235 236
f 201 236 237
f 201 270 234
f 201 206 235
f 201 237 270
f 202 203 204
f 202 204 205
f 202 207 203
f 202 205 206
f 203 207 209
f 207 208 209
f 207 210 208
f 208 210 212
f 210 211 212
f 210 213 211
f 211 213 214
f 213 215 214
f 214 215 217
f 215 216 217
f 215 218 216
f 216 218 219
f 218 220 219
f 219 220 221
f 220 222 221
f 221 222 223
f 222 224 223
f 223 224 225
f 223 225 226
f 223 227 228
f 223 226 227
f 227 229 228
f 228 229 233
f 229 230 231
f 229 231 232
f 229 232 233
f 240 242 244
f 242 243 244
f 242 245 243
f 243 245 246
f 245 247 246
f 246 247 248
f 247 249 248
f 248 249 251
f 249 250 251
f 249 252 250
f 250 252 253
f 252 254 253
f 253 254 255
f 254 256 258
f 254 258 255
f 256 257 258
f 256 259 257
f 257 259 261
f 259 260 261
f 259 262 260
f 260 262 263
f 262 264 263
f 276 277 278
f 280 281 282
f 281 283 282
f 282 283 284
f 283 285 284
f 284 285 286
f 285 287 286
f 286 287 288
f 287 289 288
f 288 289 290
f 289 291 290
f 290 291 292
f 291 293 292
f 292 293 294
f 293 295 294
f 294 295 296
f 295 297 296
f 296 297 298
f 297 299 298
f 298 299 300
f 299 301 300
f 300 301 302
f 301 303 302
f 302 303 304
f 303 305 304
f 306 307 308
f 307 309 308
f 308 309 310
f 309 311 310
f 310 311 312
f 311 313 312
f 312 313 314
f 313 315 314
f 314 315 316
f 315 317 316
f 316 317 318
f 317 319 318
f 318 319 320
f 319 321 320
f 320 321 322
f 321 323 322
f 322 323 324
f 323 325 324
f 326 327 328
f 327 329 328
f 328 329 330
f 329 331 330
f 330 331 332
f 331 333 332
f 332 333 334
f 333 335 334
f 334 335 336
f 335 337 336
f 336 337 338
f 337 339 338
f 338 339 340
f 339 341 340
f 340 341 342
f 341 343 342
f 342 343 344
f 343 345 344
f 344 345 346
f 345 347 346
f 346 347 348
f 347 349 348
f 350 351 352
f 351 353 352
f 352 353 354
f 353 355 354
f 354 355 356
f 355 357 356
f 356 357 358
f 357 359 358
f 358 359 360
f 359 361 360
f 360 361 362
f 361 363 362
f 364 365 366
f 365 367 366
f 366 367 368
f 367 369 368
f 368 369 370
f 369 371 370
f 370 371 372
f 371 373 372
f 372 373 374
f 373 375 374
f 374 375 376
f 375 377 376
f 376 377 378
f 377 379 378
f 378 379 380
f 379 381 380
f 380 381 382
f 381 383 382
f 382 383 384
f 383 385 384
f 384 385 386
f 385 387 386
f 386 387 388
f 387 389 388
f 390 391 392
f 391 393 392
f 392 393 394
f 393 395 394
f 394 395 396
f 395 397 396
f 396 397 398
f 397 399 398
f 398 399 400
f 399 401 400
f 400 401 402
f 401 403 402
f 402 403 404
f 403 405 404
f 406 407 408
f 406 453 452
f 406 408 453
f 407 409 408
f 408 409 410
f 409 411 410
f 410 411 412
f 411 413 412
f 412 413 414
f 412 414 415
f 414 416 415
f 415 416 417
f 416 418 417
f 417 418 419
f 418 420 419
f 418 421 420
f 418 422 421
f 421 422 423
f 421 423 424
f 423 425 424
f 424 425 426
f 424 427 428
f 424 428 429
f 424 430 431
f 424 431 432
f 424 426 427
f 424 429 430
f 430 433 431
f 431 433 434
f 431 434 435
f 431 436 432
f 432 436 437
f 434 444 435
f 435 444 445
f 435 445 446
f 436 438 437
f 437 438 439
f 438 440 439
f 438 442 440
f 438 532 442
f 439 440 441
f 439 441 443
f 441 531 443
f 442 532 533
f 443 531 494
f 445 447 446
f 446 447 448
f 447 449 448
f 448 449 450
f 449 451 450
f 450 451 452
f 450 452 453
f 454 455 456
f 454 488 491
f 454 456 488
f 455 457 456
f 456 457 458
f 456 459 460
f 456 460 461
f 456 461 462
f 456 458 459
f 456 534 532
f 456 462 534
f 461 463 462
f 462 463 464
f 462 465 466
f 462 464 465
f 465 467 466
f 466 467 468
f 466 468 469
f 468 470 469
f 469 470 471
f 469 471 472
f 471 473 472
f 472 473 474
f 473 475 474
f 474 475 476
f 474 476 477
f 476 478 477
f 477 478 479
f 478 480 479
f 479 480 481
f 480 482 481
f 481 482 483
f 482 484 483
f 482 485 484
f 482 486 485
f 482 487 486
f 486 487 488
f 487 489 488
f 488 489 490
f 488 490 491
f 492 493 494
f 492 494 530
f 493 495 494
f 494 495 496
f 494 497 498
f 494 498 499
f 494 496 497
f 494 527 530
f 494 531 527
f 498 500 499
f 499 500 501
f 499 501 504
f 501 502 503
f 501 503 504
f 501 505 502
f 502 505 506
f 505 507 506
f 506 507 508
f 507 509 508
f 508 509 510
f 508 510 511
f 510 512 511
f 511 512 513
f 512 514 513
f 513 514 515
f 513 515 516
f 515 517 516
f 516 517 518
f 516 518 519
f 518 520 519
f 519 520 521
f 520 522 521
f 521 522 523
f 522 524 523
f 523 524 525
f 524 526 525
f 525 526 527
f 526 528 527
f 527 528 529
f 527 529 530
f 532 534 533