# Part4
# Autodesk dbId: 14
# Units: mm
o 014_Part4
v 15.689999 4.742669 -76.468527
v 18.489998 4.447597 -76.817293
v 18.489998 4.742668 -76.468527
v 15.689999 4.447597 -76.817293
v 18.489998 4.072313 -77.077804
v 15.689999 4.072314 -77.077805
v 18.489998 3.642392 -77.232308
v 15.689999 3.642393 -77.232308
v 18.489998 3.187130 -77.270277
v 15.689999 3.187131 -77.270277
v 18.489998 2.737557 -77.189118
v 15.689998 2.737557 -77.189119
v 18.489998 2.324302 -76.994373
v 15.689998 2.324303 -76.994374
v 18.489998 1.975539 -76.699298
v 15.689998 1.975540 -76.699298
v 18.489998 1.715026 -76.324017
v 15.689998 1.715027 -76.324017
v 18.489997 1.560523 -75.894094
v 15.689998 1.560523 -75.894094
v 18.489997 1.522554 -75.438833
v 15.689998 1.522555 -75.438834
v 18.489997 1.603710 -74.989258
v 15.689998 1.603711 -74.989259
v 18.489997 1.798460 -74.576006
v 15.689998 1.798461 -74.576007
v 18.489997 2.093530 -74.227242
v 15.689998 2.093531 -74.227243
v 18.489997 2.468815 -73.966728
v 15.689998 2.468816 -73.966729
v 18.489997 2.898736 -73.812225
v 15.689998 2.898737 -73.812225
v 18.489997 3.353997 -73.774258
v 15.689998 3.353997 -73.774259
v 18.489997 3.803573 -73.855412
v 15.689998 3.803574 -73.855413
v 18.489998 4.216823 -74.050163
v 15.689998 4.216824 -74.050164
v 18.489998 4.565590 -74.345232
v 15.689998 4.565591 -74.345233
v 18.489998 4.826101 -74.720518
v 15.689998 4.826101 -74.720519
v 18.489998 4.980606 -75.150439
v 15.689998 4.980606 -75.150439
v 18.489998 5.018574 -75.605699
v 15.689999 5.018575 -75.605700
v 18.489998 4.937417 -76.055276
v 15.689999 4.937417 -76.055277
v 18.489998 4.742668 -76.468527
v 15.689992 48.000277 -9.172338
v 18.489991 47.705206 -9.521102
v 18.489991 48.000276 -9.172338
v 15.689992 47.705206 -9.521103
v 18.489991 47.329921 -9.781616
v 15.689992 47.329922 -9.781616
v 18.489991 46.900000 -9.936119
v 15.689992 46.900000 -9.936120
v 18.489991 46.444739 -9.974086
v 15.689992 46.444740 -9.974086
v 18.489991 45.995163 -9.892932
v 15.689991 45.995164 -9.892932
v 18.489991 45.581913 -9.698180
v 15.689991 45.581913 -9.698181
v 18.489991 45.233146 -9.403111
v 15.689991 45.233146 -9.403112
v 18.489991 44.972635 -9.027826
v 15.689991 44.972636 -9.027826
v 18.489990 44.818130 -8.597905
v 15.689991 44.818131 -8.597906
v 18.489990 44.780162 -8.142645
v 15.689991 44.780163 -8.142645
v 18.489990 44.861319 -7.693068
v 15.689991 44.861320 -7.693068
v 18.489990 45.056068 -7.279817
v 15.689991 45.056068 -7.279818
v 18.489990 45.351139 -6.931051
v 15.689991 45.351140 -6.931052
v 18.489990 45.726423 -6.670540
v 15.689991 45.726423 -6.670540
v 18.489990 46.156344 -6.516036
v 15.689991 46.156345 -6.516037
v 18.489990 46.611606 -6.478067
v 15.689991 46.611606 -6.478068
v 18.489990 47.061179 -6.559226
v 15.689991 47.061180 -6.559226
v 18.489991 47.474434 -6.753970
v 15.689991 47.474435 -6.753971
v 18.489991 47.823196 -7.049046
v 15.689991 47.823197 -7.049047
v 18.489991 48.083710 -7.424327
v 15.689991 48.083710 -7.424328
v 18.489991 48.238213 -7.854250
v 15.689991 48.238214 -7.854251
v 18.489991 48.276182 -8.309511
v 15.689992 48.276182 -8.309511
v 18.489991 48.195026 -8.759085
v 15.689992 48.195026 -8.759086
v 18.489991 48.000276 -9.172338
v 18.489999 6.635373 -77.685147
v 18.489999 5.103135 -79.077779
v 18.489999 5.960926 -78.482325
v 18.489992 49.892981 -10.388958
v 18.489991 47.705206 -9.521102
v 18.489992 50.338122 -9.444383
v 18.489992 50.523621 -8.416784
v 18.489989 43.163363 -6.063197
v 18.489989 44.695601 -4.670565
v 18.489989 43.837810 -5.266019
v 18.489996 -0.094245 -73.359386
v 18.489990 44.861319 -7.693068
v 18.489997 2.093530 -74.227242
v 18.489997 -0.724885 -75.331560
v 18.489997 -0.539386 -74.303960
v 18.489997 -0.638103 -76.372158
v 18.489997 1.798460 -74.576006
v 18.489997 -0.284951 -77.354838
v 18.489997 1.522554 -75.438833
v 18.489997 1.603710 -74.989258
v 18.489998 0.310506 -78.212627
v 18.489998 1.975539 -76.699298
v 18.489998 1.715026 -76.324017
v 18.489997 1.560523 -75.894094
v 18.489998 1.107683 -78.887077
v 18.489998 2.737557 -77.189118
v 18.489998 2.324302 -76.994373
v 18.489998 2.052259 -79.332216
v 18.489998 4.072313 -77.077804
v 18.489998 3.642392 -77.232308
v 18.489998 3.187130 -77.270277
v 18.489999 3.079858 -79.517719
v 15.689997 -0.094245 -73.359386
v 15.689997 -0.724885 -75.331560
v 15.689997 -0.539386 -74.303961
v 15.689990 43.163363 -6.063197
v 15.689991 44.861320 -7.693068
v 15.689990 44.695601 -4.670565
v 15.689990 43.837811 -5.266020
v 15.689990 45.678280 -4.317411
v 15.689991 45.056068 -7.279818
v 15.689990 46.718878 -4.230626
v 15.689991 45.726423 -6.670540
v 15.689991 45.351140 -6.931052
v 15.689991 47.746477 -4.416128
v 15.689991 47.061180 -6.559226
v 15.689991 46.611606 -6.478068
v 15.689991 46.156345 -6.516037
v 15.689991 48.691054 -4.861267
v 15.689991 47.823197 -7.049047
v 15.689991 47.474435 -6.753971
v 15.689991 49.488231 -5.535717
v 15.689992 48.276182 -8.309511
v 15.689991 48.238214 -7.854251
v 15.689991 48.083710 -7.424328
v 15.689991 50.083688 -6.393506
v 15.689992 49.892982 -10.388959
v 15.689992 50.523622 -8.416785
v 15.689992 50.338123 -9.444384
v 15.689999 6.635374 -77.685148
v 15.689992 47.705206 -9.521103
v 15.689999 5.103136 -79.077780
v 15.689999 5.960926 -78.482326
v 15.689999 4.120457 -79.430934
v 15.689999 4.937417 -76.055277
v 15.689999 4.742669 -76.468527
v 15.689992 48.000277 -9.172338
v 18.489998 4.447597 -76.817293
v 18.489998 4.742668 -76.468527
v 18.489999 4.120457 -79.430933
v 18.489998 4.937417 -76.055276
v 18.489997 2.468815 -73.966728
v 18.489990 44.780162 -8.142645
v 18.489990 45.678279 -4.317411
v 18.489997 2.898736 -73.812225
v 18.489990 44.818130 -8.597905
v 18.489997 3.353997 -73.774258
v 18.489991 44.972635 -9.027826
v 18.489991 45.233146 -9.403111
v 18.489997 3.803573 -73.855412
v 18.489991 45.581913 -9.698180
v 18.489998 4.216823 -74.050163
v 18.489998 4.565590 -74.345232
v 18.489991 45.995163 -9.892932
v 18.489998 4.826101 -74.720518
v 18.489991 46.444739 -9.974086
v 18.489991 46.900000 -9.936119
v 18.489998 4.980606 -75.150439
v 18.489991 47.329921 -9.781616
v 18.489998 5.018574 -75.605699
v 18.489991 50.436838 -7.376186
v 18.489991 48.000276 -9.172338
v 18.489991 50.083687 -6.393506
v 18.489991 48.195026 -8.759085
v 18.489991 48.276182 -8.309511
v 18.489991 49.488230 -5.535717
v 18.489991 48.238213 -7.854250
v 18.489991 48.083710 -7.424327
v 18.489991 47.823196 -7.049046
v 18.489990 48.691053 -4.861267
v 18.489991 47.474434 -6.753970
v 18.489990 47.061179 -6.559226
v 18.489990 47.746477 -4.416127
v 18.489990 46.611606 -6.478067
v 18.489990 46.156344 -6.516036
v 18.489990 45.726423 -6.670540
v 18.489990 46.718878 -4.230625
v 18.489990 45.351139 -6.931051
v 18.489990 45.056068 -7.279817
v 15.689999 4.742669 -76.468527
v 15.689999 3.079859 -79.517720
v 15.689999 4.447597 -76.817293
v 15.689999 4.072314 -77.077805
v 15.689999 2.052260 -79.332217
v 15.689999 3.642393 -77.232308
v 15.689999 3.187131 -77.270277
v 15.689998 2.737557 -77.189119
v 15.689999 1.107684 -78.887078
v 15.689998 2.324303 -76.994374
v 15.689998 1.975540 -76.699298
v 15.689998 0.310507 -78.212628
v 15.689998 1.715027 -76.324017
v 15.689998 1.560523 -75.894094
v 15.689998 1.522555 -75.438834
v 15.689998 -0.284950 -77.354839
v 15.689998 1.603711 -74.989259
v 15.689998 1.798461 -74.576007
v 15.689998 -0.638102 -76.372158
v 15.689998 2.093531 -74.227243
v 15.689999 5.018575 -75.605700
v 15.689992 47.329922 -9.781616
v 15.689992 50.436839 -7.376187
v 15.689998 4.980606 -75.150439
v 15.689992 46.900000 -9.936120
v 15.689998 4.826101 -74.720519
v 15.689992 46.444740 -9.974086
v 15.689991 45.995164 -9.892932
v 15.689998 4.565591 -74.345233
v 15.689991 45.581913 -9.698181
v 15.689998 4.216824 -74.050164
v 15.689998 3.803574 -73.855413
v 15.689991 45.233146 -9.403112
v 15.689998 3.353997 -73.774259
v 15.689991 44.972636 -9.027826
v 15.689991 44.818131 -8.597906
v 15.689998 2.898737 -73.812225
v 15.689991 44.780163 -8.142645
v 15.689998 2.468816 -73.966729
v 15.689992 48.195026 -8.759086
v 15.689992 48.000277 -9.172338
v 18.489996 -0.094245 -73.359386
v 18.489989 43.163363 -6.063197
v 15.689997 -0.094245 -73.359386
v 15.689990 43.163363 -6.063197
v 15.689990 43.163363 -6.063197
v 18.489989 43.163363 -6.063197
v 15.689990 43.837811 -5.266020
v 18.489989 43.837810 -5.266019
v 15.689990 44.695601 -4.670565
v 18.489989 44.695601 -4.670565
v 15.689990 45.678280 -4.317411
v 18.489990 45.678279 -4.317411
v 15.689990 46.718878 -4.230626
v 18.489990 46.718878 -4.230625
v 15.689991 47.746477 -4.416128
v 18.489990 47.746477 -4.416127
v 15.689991 48.691054 -4.861267
v 18.489990 48.691053 -4.861267
v 15.689991 49.488231 -5.535717
v 18.489991 49.488230 -5.535717
v 15.689991 50.083688 -6.393506
v 18.489991 50.083687 -6.393506
v 15.689992 50.436839 -7.376187
v 18.489991 50.436838 -7.376186
v 15.689992 50.523622 -8.416785
v 18.489992 50.523621 -8.416784
v 15.689992 50.338123 -9.444384
v 18.489992 50.338122 -9.444383
v 15.689992 49.892982 -10.388959
v 18.489992 49.892981 -10.388958
v 18.489992 49.892981 -10.388958
v 18.489999 6.635373 -77.685147
v 15.689992 49.892982 -10.388959
v 15.689999 6.635374 -77.685148
v 18.489996 -0.094245 -73.359386
v 15.689997 -0.094245 -73.359386
v 18.489997 -0.539386 -74.303960
v 15.689997 -0.539386 -74.303961
v 18.489997 -0.724885 -75.331560
v 15.689997 -0.724885 -75.331560
v 18.489997 -0.638103 -76.372158
v 15.689998 -0.638102 -76.372158
v 18.489997 -0.284951 -77.354838
v 15.689998 -0.284950 -77.354839
v 18.489998 0.310506 -78.212627
v 15.689998 0.310507 -78.212628
v 18.489998 1.107683 -78.887077
v 15.689999 1.107684 -78.887078
v 18.489998 2.052259 -79.332216
v 15.689999 2.052260 -79.332217
v 18.489999 3.079858 -79.517719
v 15.689999 3.079859 -79.517720
v 18.489999 4.120457 -79.430933
v 15.689999 4.120457 -79.430934
v 18.489999 5.103135 -79.077779
v 15.689999 5.103136 -79.077780
v 18.489999 5.960926 -78.482325
v 15.689999 5.960926 -78.482326
v 18.489999 6.635373 -77.685147
v 15.689999 6.635374 -77.685148
f 1 2 3
f 1 4 2
f 2 4 5
f 4 6 5
f 5 6 7
f 6 8 7
f 7 8 9
f 8 10 9
f 9 10 11
f 10 12 11
f 11 12 13
f 12 14 13
f 13 14 15
f 14 16 15
f 15 16 17
f 16 18 17
f 17 18 19
f 18 20 19
f 19 20 21
f 20 22 21
f 21 22 23
f 22 24 23
f 23 24 25
f 24 26 25
f 25 26 27
f 26 28 27
f 27 28 29
f 28 30 29
f 29 30 31
f 30 32 31
f 31 32 33
f 32 34 33
f 33 34 35
f 34 36 35
f 35 36 37
f 36 38 37
f 37 38 39
f 38 40 39
f 39 40 41
f 40 42 41
f 41 42 43
f 42 44 43
f 43 44 45
f 44 46 45
f 45 46 47
f 46 48 47
f 47 48 49
f 48 164 49
f 50 51 52
f 50 53 51
f 51 53 54
f 53 55 54
f 54 55 56
f 55 57 56
f 56 57 58
f 57 59 58
f 58 59 60
f 59 61 60
f 60 61 62
f 61 63 62
f 62 63 64
f 63 65 64
f 64 65 66
f 65 67 66
f 66 67 68
f 67 69 68
f 68 69 70
f 69 71 70
f 70 71 72
f 71 73 72
f 72 73 74
f 73 75 74
f 74 75 76
f 75 77 76
f 76 77 78
f 77 79 78
f 78 79 80
f 79 81 80
f 80 81 82
f 81 83 82
f 82 83 84
f 83 85 84
f 84 85 86
f 85 87 86
f 86 87 88
f 87 89 88
f 88 89 90
f 89 91 90
f 90 91 92
f 91 93 92
f 92 93 94
f 93 95 94
f 94 95 96
f 95 97 96
f 96 97 98
f 97 165 98
f 99 100 101
f 99 102 103
f 99 169 100
f 99 103 169
f 100 169 168
f 102 104 105
f 102 105 103
f 103 187 188
f 103 188 169
f 103 189 190
f 103 105 189
f 106 107 108
f 106 109 110
f 106 110 107
f 107 110 172
f 109 111 110
f 109 112 111
f 109 113 112
f 110 111 170
f 110 170 171
f 110 207 172
f 111 114 115
f 111 112 114
f 114 116 115
f 115 116 118
f 116 117 118
f 116 119 117
f 117 119 122
f 119 120 121
f 119 121 122
f 119 123 120
f 120 123 125
f 123 124 125
f 123 126 124
f 124 126 129
f 126 127 128
f 126 128 129
f 126 130 127
f 127 130 166
f 130 167 166
f 130 168 167
f 131 132 133
f 131 134 135
f 131 227 132
f 131 135 227
f 132 227 226
f 134 136 135
f 134 137 136
f 135 138 139
f 135 136 138
f 135 245 246
f 135 246 227
f 138 140 139
f 139 140 142
f 140 141 142
f 140 143 141
f 141 143 146
f 143 144 145
f 143 145 146
f 143 147 144
f 144 147 149
f 147 148 149
f 147 150 148
f 148 150 153
f 150 151 152
f 150 152 153
f 150 154 151
f 151 154 247
f 154 248 247
f 154 230 248
f 155 156 157
f 155 158 159
f 155 159 156
f 156 159 230
f 158 161 160
f 158 163 159
f 158 160 163
f 159 163 228
f 159 228 229
f 159 248 230
f 160 162 163
f 162 208 163
f 162 209 208
f 167 168 169
f 170 173 171
f 171 173 174
f 172 207 205
f 173 175 174
f 174 175 176
f 175 177 176
f 175 178 177
f 177 178 179
f 178 180 179
f 179 180 181
f 179 181 182
f 181 183 182
f 182 183 184
f 183 185 184
f 183 186 185
f 185 186 187
f 186 188 187
f 189 191 190
f 190 191 192
f 191 193 192
f 191 194 193
f 193 194 195
f 194 196 195
f 194 197 196
f 194 198 197
f 197 198 199
f 198 200 199
f 198 201 200
f 200 201 202
f 201 203 202
f 201 204 203
f 201 205 204
f 204 205 206
f 205 207 206
f 208 209 210
f 209 211 210
f 209 212 211
f 211 212 213
f 212 214 213
f 212 215 214
f 212 216 215
f 215 216 217
f 216 218 217
f 216 219 218
f 218 219 220
f 219 221 220
f 219 222 221
f 219 223 222
f 222 223 224
f 223 225 224
f 223 226 225
f 225 226 227
f 228 231 229
f 229 231 232
f 231 233 232
f 232 233 234
f 233 235 234
f 233 236 235
f 235 236 237
f 236 238 237
f 237 238 239
f 237 239 240
f 239 241 240
f 240 241 242
f 241 243 242
f 241 244 243
f 243 244 245
f 244 246 245
f 249 250 251
f 250 252 251
f 253 254 255
f 254 256 255
f 255 256 257
f 256 258 257
f 257 258 259
f 258 260 259
f 259 260 261
f 260 262 261
f 261 262 263
f 262 264 263
f 263 264 265
f 264 266 265
f 265 266 267
f 266 268 267
f 267 268 269
f 268 270 269
f 269 270 271
f 270 272 271
f 271 272 273
f 272 274 273
f 273 274 275
f 274 276 275
f 275 276 277
f 276 278 277
f 279 280 281
f 280 282 281
f 283 284 285
f 284 286 285
f 285 286 287
f 286 288 287
f 287 288 289
f 288 290 289
f 289 290 291
f 290 292 291
f 291 292 293
f 292 294 293
f 293 294 295
f 294 296 295
f 295 296 297
f 296 298 297
f 297 298 299
f 298 300 299
f 299 300 301
f 300 302 301
f 301 302 303
f 302 304 303
f 303 304 305
f 304 306 305
f 305 306 307
f 306 308 307