# ANSI B18.3.4M - M3 x 0.5 x 8(1)
# Autodesk dbId: 16
# Units: mm
o 016_ANSI_B18.3.4M_-_M3_x_0.5_x_8(1)
v -10.300000 -74.261493 24.556580
v -10.199908 -74.258085 24.580895
v -10.528561 -74.258085 24.362539
v -10.631370 -74.261492 24.302310
v -9.914110 -74.261492 24.716421
v -8.114359 -74.261492 23.970939
v -7.983868 -74.258085 23.594251
v -8.136773 -74.258085 23.957998
v -7.954518 -74.261492 23.585050
v -7.926227 -74.258085 23.203905
v -7.899999 -74.261492 23.170939
v -7.967471 -74.258085 22.811488
v -7.954518 -74.261492 22.756829
v -8.105010 -74.258085 22.441656
v -8.114359 -74.261492 22.370939
v -8.330202 -74.258085 22.117648
v -8.368629 -74.261492 22.039568
v -8.628896 -74.258085 21.859823
v -8.699999 -74.261493 21.785298
v -8.982324 -74.258085 21.684379
v -9.085889 -74.261492 21.625458
v -9.368281 -74.258085 21.602341
v -9.499999 -74.261492 21.570939
v -9.762513 -74.258085 21.618865
v -9.914110 -74.261492 21.625458
v -10.140251 -74.258085 21.732910
v -10.300000 -74.261493 21.785298
v -10.477760 -74.258085 21.937313
v -10.631370 -74.261493 22.039568
v -10.753832 -74.258085 22.219229
v -10.885640 -74.261493 22.370939
v -10.951121 -74.258085 22.560944
v -11.045481 -74.261493 22.756829
v -11.057231 -74.258085 22.940987
v -11.100000 -74.261493 23.170939
v -11.065494 -74.258085 23.335479
v -11.045481 -74.261492 23.585050
v -10.975392 -74.258085 23.719633
v -10.885640 -74.261492 23.970939
v -10.792585 -74.258085 24.069310
v -10.250000 -74.161493 24.469977
v -10.482357 -74.187374 24.309011
v -10.168467 -74.187374 24.517559
v -9.888228 -74.161493 24.619828
v -10.560660 -74.161493 24.231599
v -8.439339 -74.161492 24.231599
v -8.721194 -74.187374 24.456900
v -8.425856 -74.187374 24.222818
v -8.750000 -74.161492 24.469977
v -9.065467 -74.187374 24.610180
v -9.111771 -74.161492 24.619828
v -9.437043 -74.187374 24.673028
v -9.499999 -74.161493 24.670939
v -9.812575 -74.187374 24.641493
v -9.827277 -74.258085 24.710659
v -10.189184 -74.248095 24.559292
v -9.822263 -74.248095 24.687068
v -10.179975 -74.232203 24.540742
v -10.512801 -74.248095 24.344282
v -9.817957 -74.232203 24.666810
v -10.172909 -74.211492 24.526507
v -10.499269 -74.232203 24.328604
v -9.814653 -74.211492 24.651265
v -10.488885 -74.211493 24.316574
v -10.734521 -74.187374 24.028954
v -10.755774 -74.232203 24.043725
v -10.742725 -74.211493 24.034656
v -10.772781 -74.248095 24.055545
v -9.500000 -74.261492 24.770939
v -9.434082 -74.258085 24.743676
v -9.435092 -74.248095 24.719580
v -9.435960 -74.232203 24.698887
v -9.436625 -74.211492 24.683009
v -9.085889 -74.261492 24.716420
v -9.045029 -74.258085 24.677873
v -9.052000 -74.248095 24.654784
v -9.057986 -74.232203 24.634958
v -9.062580 -74.211492 24.619744
v -8.699999 -74.261492 24.556580
v -8.684564 -74.258085 24.517383
v -8.697058 -74.248095 24.496754
v -8.707786 -74.232203 24.479039
v -8.716019 -74.211492 24.465445
v -8.368629 -74.261492 24.302310
v -8.375335 -74.258085 24.272292
v -8.392567 -74.248095 24.255417
v -8.407364 -74.232203 24.240927
v -8.418718 -74.211492 24.229808
v -8.136773 -74.258085 23.957998
v -8.157660 -74.248095 23.945939
v -8.114359 -74.261492 23.970939
v -8.175596 -74.232203 23.935584
v -8.189359 -74.211492 23.927638
v -8.198011 -74.187374 23.922643
v -8.200961 -74.161492 23.920939
v -8.007098 -74.248095 23.587765
v -7.950339 -74.248095 23.203400
v -8.027045 -74.232203 23.582195
v -8.157660 -74.248095 23.945939
v -7.971046 -74.232203 23.202966
v -8.042352 -74.211492 23.577922
v -8.175596 -74.232203 23.935584
v -7.986934 -74.211492 23.202633
v -7.996922 -74.187374 23.202424
v -8.051974 -74.187374 23.575235
v -8.189359 -74.211492 23.927638
v -8.051111 -74.161492 23.559168
v -8.200961 -74.161492 23.920939
v -8.198011 -74.187374 23.922643
v -7.990952 -74.248095 22.816995
v -8.011116 -74.232203 22.821724
v -8.026588 -74.211492 22.825353
v -8.036314 -74.187374 22.827635
v -8.000000 -74.161492 23.170939
v -8.126384 -74.248095 22.452830
v -8.144738 -74.232203 22.462425
v -8.158821 -74.211492 22.469788
v -8.167674 -74.187374 22.474416
v -8.051111 -74.161492 22.782710
v -8.348125 -74.248095 22.133786
v -8.363516 -74.232203 22.147645
v -8.375326 -74.211492 22.158278
v -8.382750 -74.187374 22.164963
v -8.200961 -74.161493 22.420939
v -8.642243 -74.248095 21.879911
v -8.653704 -74.232203 21.897161
v -8.662498 -74.211492 21.910398
v -8.668026 -74.187374 21.918719
v -8.439339 -74.161493 22.110279
v -8.990256 -74.248095 21.707156
v -8.997067 -74.232203 21.726714
v -9.002293 -74.211493 21.741722
v -9.005579 -74.187374 21.751156
v -8.749999 -74.161493 21.871901
v -9.370299 -74.248095 21.626375
v -9.372032 -74.232203 21.647013
v -9.373362 -74.211493 21.662849
v -9.374198 -74.187374 21.672804
v -9.111771 -74.161493 21.722050
v -9.758491 -74.248095 21.642645
v -9.755037 -74.232204 21.663066
v -9.752387 -74.211492 21.678735
v -9.750721 -74.187374 21.688585
v -9.500000 -74.161493 21.670939
v -10.130441 -74.248095 21.754943
v -10.122017 -74.232203 21.773864
v -10.115554 -74.211493 21.788382
v -10.111490 -74.187375 21.797508
v -9.888228 -74.161493 21.722050
v -10.462779 -74.248095 21.956214
v -10.449914 -74.232204 21.972445
v -10.440043 -74.211493 21.984899
v -10.433838 -74.187375 21.992728
v -10.250000 -74.161493 21.871901
v -10.734621 -74.248095 22.233810
v -10.718124 -74.232203 22.246332
v -10.705466 -74.211493 22.255940
v -10.697508 -74.187375 22.261980
v -10.560660 -74.161493 22.110279
v -10.928887 -74.248095 22.570290
v -10.909795 -74.232203 22.578316
v -10.895145 -74.211493 22.584474
v -10.885935 -74.187375 22.588345
v -10.799038 -74.161493 22.420939
v -11.033372 -74.248095 22.944510
v -11.012883 -74.232204 22.947536
v -10.997162 -74.211493 22.949857
v -10.987279 -74.187375 22.951317
v -10.948888 -74.161493 22.782710
v -11.041509 -74.248095 23.332958
v -11.020911 -74.232203 23.330793
v -11.005106 -74.211493 23.329132
v -10.995171 -74.187375 23.328088
v -11.000000 -74.161493 23.170939
v -10.952787 -74.248095 23.711226
v -10.933375 -74.232204 23.704007
v -10.918480 -74.211492 23.698467
v -10.909116 -74.187374 23.694985
v -10.948888 -74.161493 23.559168
v -10.799038 -74.161493 23.920939
v -10.250001 -64.568217 24.469977
v -10.560660 -74.161493 24.231599
v -10.250000 -74.161493 24.469977
v -9.888229 -64.568217 24.619827
v -10.560661 -64.568216 24.231599
v -10.799038 -74.161493 23.920939
v -10.799039 -64.568217 23.920938
v -10.948888 -74.161493 23.559168
v -10.948890 -64.568217 23.559167
v -11.000000 -74.161493 23.170939
v -11.000001 -64.568217 23.170938
v -10.948888 -74.161493 22.782710
v -10.948890 -64.568217 22.782710
v -10.799038 -74.161493 22.420939
v -10.799039 -64.568216 22.420938
v -10.560660 -74.161493 22.110279
v -10.560661 -64.568217 22.110278
v -10.250000 -74.161493 21.871901
v -10.250001 -64.568217 21.871900
v -9.888228 -74.161493 21.722050
v -9.888229 -64.568217 21.722049
v -9.500000 -74.161493 21.670939
v -9.500001 -64.568217 21.670938
v -9.111771 -74.161493 21.722050
v -9.111772 -64.568216 21.722050
v -8.749999 -74.161493 21.871901
v -8.750001 -64.568217 21.871900
v -8.439339 -74.161493 22.110279
v -8.749999 -74.161493 21.871901
v -8.439341 -64.568217 22.110278
v -8.200961 -74.161493 22.420939
v -8.200963 -64.568216 22.420938
v -8.051111 -74.161492 22.782710
v -8.051112 -64.568216 22.782710
v -8.000000 -74.161492 23.170939
v -8.000001 -64.568216 23.170938
v -8.051111 -74.161492 23.559168
v -8.051112 -64.568217 23.559167
v -8.200961 -74.161492 23.920939
v -8.200963 -64.568216 23.920938
v -8.439339 -74.161492 24.231599
v -8.439341 -64.568217 24.231599
v -8.750000 -74.161492 24.469977
v -8.750001 -64.568216 24.469977
v -9.111771 -74.161492 24.619828
v -9.111772 -64.568216 24.619827
v -9.499999 -74.161493 24.670939
v -9.500001 -64.568216 24.670938
v -9.888228 -74.161493 24.619828
v -11.379135 -74.261493 25.313683
v -10.925000 -74.261493 25.639112
v -10.300000 -74.261493 24.556580
v -10.289999 -75.911492 24.539260
v -10.113531 -75.868218 24.978345
v -10.454349 -75.868218 24.823922
v -10.758493 -75.868219 24.605976
v -9.908933 -75.911493 24.697102
v -9.091065 -75.911492 24.697102
v -8.709999 -75.911492 24.539259
v -8.655803 -75.868218 24.882801
v -8.382771 -75.911492 24.288168
v -8.338056 -75.868218 24.685213
v -8.131679 -75.911492 23.960939
v -8.064963 -75.868218 24.429433
v -7.973836 -75.911492 22.762005
v -8.131679 -75.911493 22.380939
v -7.788138 -75.868218 22.326743
v -8.382771 -75.911493 22.053710
v -7.985726 -75.868218 22.008996
v -8.709999 -75.911492 21.802619
v -8.241506 -75.868218 21.735902
v -9.908933 -75.911493 21.644776
v -10.289999 -75.911493 21.802619
v -10.344196 -75.868218 21.459078
v -10.617228 -75.911493 22.053710
v -10.661942 -75.868219 21.656665
v -10.868320 -75.911493 22.380939
v -10.935036 -75.868219 21.912446
v -11.026162 -75.911493 23.579873
v -10.868319 -75.911493 23.960939
v -11.211860 -75.868218 24.015136
v -10.617228 -75.911493 24.288168
v -11.014273 -75.868218 24.332882
v -11.379135 -74.641493 25.313683
v -11.726725 -74.970193 24.879566
v -11.350602 -74.970193 25.281147
v -11.761057 -74.641493 24.905909
v -12.017275 -74.970193 24.412322
v -12.056087 -74.641493 24.431462
v -12.211088 -74.970193 23.897373
v -12.252888 -74.641493 23.908573
v -12.300716 -74.970193 23.354508
v -12.343897 -74.641493 23.357338
v -12.282713 -74.970193 22.804588
v -12.325617 -74.641493 22.798939
v -12.157772 -74.970193 22.268747
v -12.198751 -74.641493 22.254836
v -11.930695 -74.970193 21.767576
v -11.968172 -74.641493 21.745939
v -11.610207 -74.970193 21.320336
v -11.642743 -74.641493 21.291803
v -11.208626 -74.970193 20.944214
v -11.234970 -74.641493 20.909882
v -10.741383 -74.970193 20.653663
v -10.760522 -74.641493 20.614852
v -10.226433 -74.970193 20.459850
v -10.237634 -74.641493 20.418050
v -9.683568 -74.970193 20.370222
v -9.686398 -74.641493 20.327041
v -9.133648 -74.970193 20.388225
v -9.128000 -74.641493 20.345321
v -8.597807 -74.970193 20.513166
v -8.583897 -74.641493 20.472188
v -8.096636 -74.970193 20.740243
v -8.074999 -74.641492 20.702767
v -7.649396 -74.970193 21.060731
v -7.620864 -74.641492 21.028195
v -7.273274 -74.970193 21.462313
v -7.238942 -74.641492 21.435969
v -6.982723 -74.970193 21.929556
v -6.943912 -74.641493 21.910416
v -6.788911 -74.970192 22.444505
v -6.747111 -74.641492 22.433305
v -6.699283 -74.970193 22.987370
v -6.656101 -74.641492 22.984540
v -6.717285 -74.970192 23.537290
v -6.674382 -74.641492 23.542939
v -6.842226 -74.970193 24.073132
v -6.801248 -74.641492 24.087042
v -7.031827 -74.641492 24.595939
v -7.069304 -74.970193 24.574302
v -7.357256 -74.641492 25.050075
v -7.765029 -74.641492 25.431996
v -7.791373 -74.970192 25.397665
v -8.239477 -74.641492 25.727027
v -8.258616 -74.970193 25.688215
v -8.762365 -74.641492 25.923828
v -8.773565 -74.970192 25.882028
v -9.313601 -74.641493 26.014837
v -9.316431 -74.970193 25.971656
v -9.871999 -74.641492 25.996557
v -9.866351 -74.970193 25.953653
v -10.416102 -74.641493 25.869690
v -10.402192 -74.970193 25.828712
v -10.924999 -74.641493 25.639112
v -10.903362 -74.970193 25.601635
v -7.069304 -74.970193 24.574302
v -7.031827 -74.641492 24.595939
v -7.389791 -74.970193 25.021542
v -7.485180 -75.276492 24.937889
v -9.749135 -75.868218 25.063310
v -10.211988 -75.741345 25.268389
v -10.296535 -75.539518 25.517456
v -10.607499 -75.741345 25.089185
v -10.361410 -75.276493 25.708572
v -10.739012 -75.539518 25.316972
v -10.839926 -75.276492 25.491759
v -9.499999 -75.911493 24.750939
v -9.375164 -75.868218 25.075553
v -9.789115 -75.741345 25.366990
v -9.823447 -75.539518 25.627765
v -9.849790 -75.276493 25.827865
v -9.005991 -75.868218 25.014602
v -9.355131 -75.741345 25.381197
v -9.337929 -75.539518 25.643659
v -9.324729 -75.276493 25.845054
v -8.151593 -75.741345 24.928217
v -8.520330 -75.741345 25.157512
v -7.991473 -75.539518 25.136889
v -8.403997 -75.539518 25.393413
v -8.926715 -75.741345 25.310465
v -8.314731 -75.276492 25.574426
v -8.858639 -75.539518 25.564528
v -8.806403 -75.276492 25.759478
v -7.834674 -75.741345 24.631390
v -7.636921 -75.539518 24.804815
v -7.868609 -75.276492 25.297009
v -7.847016 -75.868218 24.125289
v -7.581753 -75.741345 24.278439
v -7.353966 -75.539518 24.409952
v -7.179179 -75.276492 24.510865
v -7.692594 -75.868218 23.784471
v -8.131679 -75.911492 23.960939
v -7.973836 -75.911492 23.579873
v -7.607628 -75.868218 23.420075
v -7.402549 -75.741345 23.882928
v -7.847016 -75.868218 24.125289
v -7.303949 -75.741345 23.460055
v -7.043174 -75.539518 23.494386
v -7.153482 -75.539518 23.967474
v -6.843073 -75.276492 23.520730
v -6.962366 -75.276492 24.032350
v -7.919999 -75.911492 23.170939
v -7.595386 -75.868218 23.046104
v -7.289742 -75.741345 23.026071
v -7.027279 -75.539518 23.008868
v -6.825885 -75.276492 22.995668
v -7.656336 -75.868218 22.676931
v -7.360473 -75.741345 22.597655
v -7.106410 -75.539518 22.529579
v -6.911461 -75.276492 22.477342
v -7.742722 -75.741345 21.822532
v -7.513426 -75.741345 22.191270
v -7.534049 -75.539518 21.662413
v -7.277526 -75.539518 22.074936
v -7.096513 -75.276493 21.985671
v -7.373929 -75.276493 21.539548
v -8.039548 -75.741345 21.505614
v -7.866123 -75.539518 21.307861
v -7.733050 -75.276493 21.156119
v -8.545649 -75.868218 21.517956
v -8.392499 -75.741345 21.252693
v -8.260986 -75.539518 21.024906
v -8.160073 -75.276492 20.850119
v -8.886468 -75.868219 21.363533
v -9.091065 -75.911493 21.644776
v -9.250864 -75.868218 21.278568
v -9.210884 -75.741345 20.974889
v -8.788011 -75.741345 21.073489
v -9.176552 -75.539519 20.714113
v -8.703464 -75.539518 20.824422
v -9.150208 -75.276493 20.514013
v -8.638589 -75.276492 20.633306
v -9.499999 -75.911493 21.590939
v -9.624834 -75.868218 21.266325
v -9.644867 -75.741345 20.960682
v -9.662070 -75.539518 20.698219
v -9.675270 -75.276493 20.496824
v -9.994007 -75.868219 21.327276
v -10.073283 -75.741345 21.031413
v -10.141360 -75.539519 20.777350
v -10.193596 -75.276493 20.582400
v -10.848406 -75.741345 21.413661
v -10.479669 -75.741345 21.184366
v -11.008526 -75.539519 21.204989
v -10.685268 -75.276493 20.767452
v -10.596002 -75.539519 20.948465
v -11.131390 -75.276493 21.044869
v -11.165324 -75.741345 21.710488
v -11.363078 -75.539519 21.537063
v -11.514819 -75.276493 21.403990
v -11.152982 -75.868219 22.216589
v -11.418245 -75.741345 22.063439
v -11.646032 -75.539519 21.931926
v -11.820820 -75.276493 21.831013
v -11.307405 -75.868219 22.557408
v -11.026162 -75.911493 22.762005
v -11.392370 -75.868219 22.921804
v -11.696050 -75.741345 22.881824
v -11.597450 -75.741345 22.458951
v -11.956825 -75.539519 22.847492
v -11.846516 -75.539519 22.374404
v -12.156925 -75.276493 22.821148
v -12.037632 -75.276493 22.309529
v -11.079999 -75.911493 23.170939
v -11.404613 -75.868218 23.295774
v -11.710257 -75.741345 23.315807
v -11.972719 -75.539519 23.333010
v -12.174114 -75.276493 23.346210
v -11.343662 -75.868219 23.664947
v -11.639525 -75.741345 23.744223
v -11.893588 -75.539519 23.812299
v -12.088538 -75.276493 23.864536
v -11.257277 -75.741345 24.519346
v -11.486572 -75.741345 24.150609
v -11.465949 -75.539519 24.679466
v -11.903486 -75.276493 24.356208
v -11.722473 -75.539518 24.266942
v -11.626069 -75.276493 24.802330
v -10.960450 -75.741345 24.836264
v -11.133875 -75.539518 25.034018
v -11.266949 -75.276492 25.185759
v -10.499999 -75.911493 23.748289
v -10.289999 -75.911492 24.539260
v -10.617228 -75.911493 24.288168
v -10.868319 -75.911493 23.960939
v -11.079999 -75.911493 23.170939
v -10.499999 -75.911493 22.593589
v -11.026162 -75.911493 23.579873
v -9.499999 -75.911493 24.325640
v -8.709999 -75.911492 24.539259
v -9.091065 -75.911492 24.697102
v -9.499999 -75.911493 24.750939
v -9.908933 -75.911493 24.697102
v -8.499999 -75.911492 23.748289
v -7.919999 -75.911492 23.170939
v -7.973836 -75.911492 23.579873
v -8.131679 -75.911492 23.960939
v -8.382771 -75.911492 24.288168
v -8.499999 -75.911493 22.593589
v -8.709999 -75.911492 21.802619
v -8.382771 -75.911493 22.053710
v -8.131679 -75.911493 22.380939
v -7.973836 -75.911492 22.762005
v -9.499999 -75.911493 22.016239
v -10.289999 -75.911493 21.802619
v -9.908933 -75.911493 21.644776
v -9.499999 -75.911493 21.590939
v -9.091065 -75.911493 21.644776
v -11.026162 -75.911493 22.762005
v -10.868320 -75.911493 22.380939
v -10.617228 -75.911493 22.053710
v -9.499999 -74.871493 22.016238
v -9.763707 -74.803281 22.168490
v -9.499999 -75.911493 22.016239
v -8.499999 -74.871493 22.593589
v -8.763707 -74.803281 22.441337
v -8.499999 -75.911493 22.593589
v -8.750001 -64.568217 21.871900
v -10.416102 -74.261492 25.869690
v -9.914110 -74.261492 24.716421
v -9.871999 -74.261492 25.996557
v -9.500000 -74.261492 24.770939
v -9.313601 -74.261492 26.014837
v -9.085889 -74.261492 24.716420
v -8.762365 -74.261492 25.923828
v -8.239477 -74.261492 25.727027
v -8.699999 -74.261492 24.556580
v -7.765029 -74.261492 25.431996
v -8.368629 -74.261492 24.302310
v -7.357256 -74.261492 25.050075
v -8.114359 -74.261492 23.970939
v -7.031827 -74.261492 24.595939
v -6.801248 -74.261492 24.087042
v -7.954518 -74.261492 23.585050
v -6.674382 -74.261492 23.542939
v -7.899999 -74.261492 23.170939
v -6.656101 -74.261492 22.984540
v -7.954518 -74.261492 22.756829
v -6.747111 -74.261492 22.433305
v -6.943912 -74.261492 21.910416
v -8.114359 -74.261492 22.370939
v -7.238942 -74.261492 21.435969
v -8.368629 -74.261492 22.039568
v -7.620864 -74.261492 21.028195
v -8.699999 -74.261493 21.785298
v -8.074999 -74.261493 20.702767
v -8.583897 -74.261493 20.472188
v -9.085889 -74.261492 21.625458
v -9.128000 -74.261493 20.345321
v -9.499999 -74.261492 21.570939
v -9.686398 -74.261493 20.327041
v -9.914110 -74.261492 21.625458
v -10.237634 -74.261493 20.418050
v -10.760522 -74.261493 20.614852
v -10.300000 -74.261493 21.785298
v -11.234970 -74.261493 20.909882
v -10.631370 -74.261493 22.039568
v -11.642743 -74.261493 21.291803
v -10.885640 -74.261493 22.370939
v -11.968172 -74.261493 21.745939
v -12.198751 -74.261493 22.254836
v -11.045481 -74.261493 22.756829
v -12.325617 -74.261493 22.798939
v -11.100000 -74.261493 23.170939
v -12.343898 -74.261493 23.357338
v -11.045481 -74.261492 23.585050
v -12.252888 -74.261493 23.908573
v -12.056087 -74.261493 24.431462
v -10.885640 -74.261492 23.970939
v -11.761057 -74.261493 24.905909
v -10.631370 -74.261492 24.302310
v -9.888229 -64.568217 24.619827
v -9.808843 -64.261492 24.323554
v -10.250001 -64.568217 24.469977
v -9.500001 -64.261492 24.364213
v -10.096638 -64.261492 24.204345
v -10.250001 -64.568217 24.469977
v -10.096638 -64.261492 24.204345
v -10.560661 -64.568216 24.231599
v -10.343774 -64.261492 24.014711
v -10.799039 -64.568217 23.920938
v -10.533407 -64.261492 23.767576
v -10.948890 -64.568217 23.559167
v -10.652616 -64.261492 23.479781
v -11.000001 -64.568217 23.170938
v -10.693276 -64.261492 23.170938
v -10.948890 -64.568217 22.782710
v -10.652616 -64.261492 22.862096
v -10.799039 -64.568216 22.420938
v -10.533407 -64.261492 22.574301
v -10.560661 -64.568217 22.110278
v -10.343774 -64.261492 22.327165
v -10.250001 -64.568217 21.871900
v -10.096638 -64.261492 22.137532
v -9.888229 -64.568217 21.722049
v -9.808843 -64.261492 22.018323
v -9.500001 -64.568217 21.670938
v -9.500001 -64.261492 21.977663
v -9.111772 -64.568216 21.722050
v -9.191158 -64.261492 22.018323
v -8.750001 -64.568217 21.871900
v -8.903363 -64.261492 22.137532
v -8.439341 -64.568217 22.110278
v -8.656228 -64.261492 22.327165
v -8.200963 -64.568216 22.420938
v -8.466594 -64.261492 22.574301
v -8.051112 -64.568216 22.782710
v -8.347386 -64.261491 22.862096
v -8.000001 -64.568216 23.170938
v -8.306726 -64.261492 23.170938
v -8.051112 -64.568217 23.559167
v -8.347386 -64.261491 23.479781
v -8.200963 -64.568216 23.920938
v -8.466594 -64.261491 23.767576
v -8.439341 -64.568217 24.231599
v -8.656228 -64.261491 24.014711
v -8.750001 -64.568216 24.469977
v -8.903363 -64.261492 24.204345
v -9.111772 -64.568216 24.619827
v -9.191159 -64.261491 24.323554
v -9.500001 -64.568216 24.670938
v -10.096638 -64.261492 24.204345
v -9.808843 -64.261492 24.323554
v -10.343774 -64.261492 24.014711
v -10.533407 -64.261492 23.767576
v -9.500001 -64.261492 24.364213
v -10.652616 -64.261492 23.479781
v -9.191159 -64.261491 24.323554
v -10.693276 -64.261492 23.170938
v -8.903363 -64.261492 24.204345
v -10.652616 -64.261492 22.862096
v -8.656228 -64.261491 24.014711
v -10.533407 -64.261492 22.574301
v -8.466594 -64.261491 23.767576
v -10.343774 -64.261492 22.327165
v -8.347386 -64.261491 23.479781
v -10.096638 -64.261492 22.137532
v -8.306726 -64.261492 23.170938
v -9.808843 -64.261492 22.018323
v -8.347386 -64.261491 22.862096
v -9.500001 -64.261492 21.977663
v -8.466594 -64.261492 22.574301
v -9.191158 -64.261492 22.018323
v -8.656228 -64.261492 22.327165
v -8.903363 -64.261492 22.137532
v -7.179179 -75.276492 24.510865
v -7.353966 -75.539518 24.409952
v -7.581753 -75.741345 24.278439
v -11.379135 -74.261493 25.313683
v -11.379135 -74.641493 25.313683
v -10.925000 -74.261493 25.639112
v -11.761057 -74.641493 24.905909
v -10.924999 -74.641493 25.639112
v -10.416102 -74.261492 25.869690
v -10.416102 -74.641493 25.869690
v -9.871999 -74.261492 25.996557
v -9.871999 -74.641492 25.996557
v -9.313601 -74.261492 26.014837
v -9.313601 -74.641493 26.014837
v -8.762365 -74.261492 25.923828
v -8.762365 -74.641492 25.923828
v -8.239477 -74.261492 25.727027
v -8.239477 -74.641492 25.727027
v -7.765029 -74.261492 25.431996
v -7.765029 -74.641492 25.431996
v -7.357256 -74.261492 25.050075
v -7.357256 -74.641492 25.050075
v -7.031827 -74.261492 24.595939
v -7.031827 -74.641492 24.595939
v -6.801248 -74.261492 24.087042
v -6.801248 -74.641492 24.087042
v -6.674382 -74.261492 23.542939
v -6.674382 -74.641492 23.542939
v -6.656101 -74.261492 22.984540
v -6.656101 -74.641492 22.984540
v -6.747111 -74.261492 22.433305
v -6.747111 -74.641492 22.433305
v -6.943912 -74.261492 21.910416
v -6.943912 -74.641493 21.910416
v -7.238942 -74.261492 21.435969
v -7.238942 -74.641492 21.435969
v -7.620864 -74.261492 21.028195
v -7.620864 -74.641492 21.028195
v -8.074999 -74.261493 20.702767
v -8.074999 -74.641492 20.702767
v -8.074999 -74.261493 20.702767
v -8.074999 -74.641492 20.702767
v -8.583897 -74.261493 20.472188
v -8.583897 -74.641493 20.472188
v -9.128000 -74.261493 20.345321
v -9.128000 -74.641493 20.345321
v -9.686398 -74.261493 20.327041
v -9.686398 -74.641493 20.327041
v -10.237634 -74.261493 20.418050
v -10.237634 -74.641493 20.418050
v -10.760522 -74.261493 20.614852
v -10.760522 -74.641493 20.614852
v -11.234970 -74.261493 20.909882
v -11.234970 -74.641493 20.909882
v -11.642743 -74.261493 21.291803
v -11.642743 -74.641493 21.291803
v -11.968172 -74.261493 21.745939
v -11.968172 -74.641493 21.745939
v -12.198751 -74.261493 22.254836
v -12.198751 -74.641493 22.254836
v -12.325617 -74.261493 22.798939
v -12.325617 -74.641493 22.798939
v -12.343898 -74.261493 23.357338
v -12.343897 -74.641493 23.357338
v -12.252888 -74.261493 23.908573
v -12.252888 -74.641493 23.908573
v -12.056087 -74.261493 24.431462
v -12.056087 -74.641493 24.431462
v -11.761057 -74.261493 24.905909
v -9.999999 -74.782177 22.304914
v -10.499999 -75.911493 22.593589
v -10.236291 -74.803281 22.441337
v -10.499999 -74.871493 22.593589
v -10.499999 -74.871493 22.593589
v -10.499999 -74.803281 22.898093
v -10.499999 -75.911493 22.593589
v -10.499999 -74.782177 23.170939
v -10.499999 -75.911493 23.748289
v -10.499999 -74.803281 23.443786
v -10.499999 -74.871493 23.748289
v -10.499999 -74.871493 23.748289
v -10.236291 -74.803281 23.900541
v -10.499999 -75.911493 23.748289
v -9.999999 -74.782176 24.036965
v -9.499999 -75.911493 24.325640
v -9.763707 -74.803281 24.173388
v -9.499999 -74.871493 24.325640
v -9.499999 -74.871493 24.325640
v -9.236291 -74.803280 24.173388
v -9.499999 -75.911493 24.325640
v -8.999999 -74.782176 24.036965
v -8.499999 -75.911492 23.748289
v -8.763707 -74.803281 23.900541
v -8.499999 -74.871493 23.748289
v -8.999999 -74.782176 22.304914
v -9.499999 -75.911493 22.016239
v -9.236291 -74.803281 22.168490
v -9.499999 -74.871493 22.016238
v -8.499999 -74.871493 23.748289
v -8.499999 -74.803281 23.443786
v -8.499999 -75.911492 23.748289
v -8.499999 -74.782176 23.170939
v -8.499999 -75.911493 22.593589
v -8.499999 -74.803280 22.898093
v -8.499999 -74.871493 22.593589
v -8.763707 -74.803281 23.900541
v -9.499999 -74.204826 23.170939
v -8.499999 -74.871493 23.748289
v -8.999999 -74.782176 24.036965
v -9.499999 -74.204826 23.170939
v -8.499999 -74.803281 23.443786
v -9.499999 -74.871493 24.325640
v -9.499999 -74.204826 23.170939
v -9.236291 -74.803280 24.173388
v -9.763707 -74.803281 24.173388
v -9.499999 -74.204826 23.170939
v -9.499999 -74.204826 23.170939
v -9.999999 -74.782176 24.036965
v -10.499999 -74.871493 23.748289
v -9.499999 -74.204826 23.170939
v -10.236291 -74.803281 23.900541
v -10.499999 -74.803281 23.443786
v -9.499999 -74.204826 23.170939
v -9.499999 -74.204826 23.170939
v -10.499999 -74.782177 23.170939
v -10.499999 -74.871493 22.593589
v -9.499999 -74.204826 23.170939
v -10.499999 -74.803281 22.898093
v -10.236291 -74.803281 22.441337
v -9.499999 -74.204826 23.170939
v -9.499999 -74.204826 23.170939
v -9.999999 -74.782177 22.304914
v -9.499999 -74.871493 22.016238
v -9.499999 -74.204826 23.170939
v -9.763707 -74.803281 22.168490
v -9.236291 -74.803281 22.168490
v -9.499999 -74.204826 23.170939
v -9.499999 -74.204826 23.170939
v -8.999999 -74.782176 22.304914
v -8.499999 -74.871493 22.593589
v -9.499999 -74.204826 23.170939
v -8.763707 -74.803281 22.441337
v -8.499999 -74.803280 22.898093
v -9.499999 -74.204826 23.170939
v -9.499999 -74.204826 23.170939
v -8.999999 -74.782176 22.304914
v -8.499999 -74.782176 23.170939
v -9.499999 -74.204826 23.170939
f 1 2 3
f 1 3 4
f 1 5 2
f 2 5 55
f 2 56 3
f 2 57 56
f 2 55 57
f 3 40 4
f 3 59 40
f 3 56 59
f 4 40 39
f 5 69 55
f 6 7 8
f 6 9 7
f 7 9 10
f 7 96 8
f 7 97 96
f 7 10 97
f 8 96 99
f 9 11 10
f 10 11 12
f 10 110 97
f 10 12 110
f 11 13 12
f 12 13 14
f 12 115 110
f 12 14 115
f 13 15 14
f 14 15 16
f 14 120 115
f 14 16 120
f 15 17 16
f 16 17 18
f 16 125 120
f 16 18 125
f 17 19 18
f 18 19 20
f 18 130 125
f 18 20 130
f 19 21 20
f 20 21 22
f 20 135 130
f 20 22 135
f 21 23 22
f 22 23 24
f 22 140 135
f 22 24 140
f 23 25 24
f 24 25 26
f 24 145 140
f 24 26 145
f 25 27 26
f 26 27 28
f 26 150 145
f 26 28 150
f 27 29 28
f 28 29 30
f 28 155 150
f 28 30 155
f 29 31 30
f 30 31 32
f 30 160 155
f 30 32 160
f 31 33 32
f 32 33 34
f 32 165 160
f 32 34 165
f 33 35 34
f 34 35 36
f 34 170 165
f 34 36 170
f 35 37 36
f 36 37 38
f 36 175 170
f 36 38 175
f 37 39 38
f 38 39 40
f 38 68 175
f 38 40 68
f 40 59 68
f 41 42 43
f 41 43 44
f 41 45 42
f 42 45 65
f 42 64 43
f 42 67 64
f 42 65 67
f 43 54 44
f 43 64 61
f 43 61 54
f 44 54 53
f 45 180 65
f 46 47 48
f 46 49 47
f 46 48 95
f 47 49 50
f 47 50 78
f 47 78 83
f 47 83 48
f 48 88 94
f 48 94 95
f 48 83 88
f 49 51 50
f 50 51 52
f 50 52 73
f 50 73 78
f 51 53 52
f 52 53 54
f 52 54 63
f 52 63 73
f 54 61 63
f 55 69 70
f 55 71 57
f 55 70 71
f 56 58 59
f 56 60 58
f 56 57 60
f 57 72 60
f 57 71 72
f 58 61 62
f 58 63 61
f 58 62 59
f 58 60 63
f 59 62 68
f 60 73 63
f 60 72 73
f 61 64 62
f 62 64 66
f 62 66 68
f 64 67 66
f 65 178 177
f 65 177 67
f 65 180 178
f 66 176 175
f 66 175 68
f 66 67 176
f 67 177 176
f 69 74 70
f 70 74 75
f 70 76 71
f 70 75 76
f 71 77 72
f 71 76 77
f 72 78 73
f 72 77 78
f 74 79 75
f 75 79 80
f 75 81 76
f 75 80 81
f 76 82 77
f 76 81 82
f 77 83 78
f 77 82 83
f 79 84 80
f 80 84 85
f 80 86 81
f 80 85 86
f 81 87 82
f 81 86 87
f 82 88 83
f 82 87 88
f 84 91 85
f 85 89 90
f 85 90 86
f 85 91 89
f 86 90 92
f 86 92 87
f 87 92 93
f 87 93 88
f 88 93 94
f 96 98 99
f 96 100 98
f 96 97 100
f 97 111 100
f 97 110 111
f 98 101 102
f 98 103 101
f 98 100 103
f 98 102 99
f 100 112 103
f 100 111 112
f 101 104 105
f 101 105 106
f 101 103 104
f 101 106 102
f 103 113 104
f 103 112 113
f 104 114 107
f 104 107 105
f 104 113 114
f 105 107 108
f 105 108 109
f 105 109 106
f 110 116 111
f 110 115 116
f 111 117 112
f 111 116 117
f 112 118 113
f 112 117 118
f 113 119 114
f 113 118 119
f 115 121 116
f 115 120 121
f 116 122 117
f 116 121 122
f 117 123 118
f 117 122 123
f 118 124 119
f 118 123 124
f 120 126 121
f 120 125 126
f 121 127 122
f 121 126 127
f 122 128 123
f 122 127 128
f 123 129 124
f 123 128 129
f 125 131 126
f 125 130 131
f 126 132 127
f 126 131 132
f 127 133 128
f 127 132 133
f 128 134 129
f 128 133 134
f 130 136 131
f 130 135 136
f 131 137 132
f 131 136 137
f 132 138 133
f 132 137 138
f 133 139 134
f 133 138 139
f 135 141 136
f 135 140 141
f 136 142 137
f 136 141 142
f 137 143 138
f 137 142 143
f 138 144 139
f 138 143 144
f 140 146 141
f 140 145 146
f 141 147 142
f 141 146 147
f 142 148 143
f 142 147 148
f 143 149 144
f 143 148 149
f 145 151 146
f 145 150 151
f 146 152 147
f 146 151 152
f 147 153 148
f 147 152 153
f 148 154 149
f 148 153 154
f 150 156 151
f 150 155 156
f 151 157 152
f 151 156 157
f 152 158 153
f 152 157 158
f 153 159 154
f 153 158 159
f 155 161 156
f 155 160 161
f 156 162 157
f 156 161 162
f 157 163 158
f 157 162 163
f 158 164 159
f 158 163 164
f 160 166 161
f 160 165 166
f 161 167 162
f 161 166 167
f 162 168 163
f 162 167 168
f 163 169 164
f 163 168 169
f 165 171 166
f 165 170 171
f 166 172 167
f 166 171 172
f 167 173 168
f 167 172 173
f 168 174 169
f 168 173 174
f 170 176 171
f 170 175 176
f 171 177 172
f 171 176 177
f 172 178 173
f 172 177 178
f 173 179 174
f 173 178 179
f 178 180 179
f 181 182 183
f 181 183 184
f 181 185 182
f 182 185 186
f 183 229 184
f 184 229 228
f 185 187 186
f 186 187 188
f 187 189 188
f 188 189 190
f 189 191 190
f 190 191 192
f 191 193 192
f 192 193 194
f 193 195 194
f 194 195 196
f 195 197 196
f 196 197 198
f 197 199 198
f 198 199 200
f 199 201 200
f 200 201 202
f 201 203 202
f 202 203 204
f 203 205 204
f 204 205 206
f 205 489 206
f 207 208 209
f 207 210 208
f 208 210 211
f 210 212 211
f 211 212 213
f 212 214 213
f 213 214 215
f 214 216 215
f 215 216 217
f 216 218 217
f 217 218 219
f 218 220 219
f 219 220 221
f 220 222 221
f 221 222 223
f 222 224 223
f 223 224 225
f 224 226 225
f 225 226 227
f 226 228 227
f 227 228 229
f 230 231 232
f 230 542 541
f 230 232 542
f 231 490 232
f 232 490 491
f 233 234 235
f 233 235 236
f 233 237 234
f 233 236 262
f 234 237 331
f 234 332 235
f 234 331 340
f 234 340 332
f 235 332 334
f 235 334 236
f 236 263 262
f 236 450 263
f 236 334 450
f 237 338 331
f 238 239 240
f 238 339 338
f 238 343 339
f 238 240 343
f 239 241 242
f 239 242 240
f 240 242 347
f 240 347 348
f 240 348 343
f 241 243 244
f 241 244 242
f 242 244 355
f 242 355 347
f 243 358 244
f 244 358 359
f 244 359 355
f 245 246 247
f 245 374 373
f 245 378 374
f 245 247 378
f 246 248 249
f 246 249 247
f 247 249 382
f 247 382 383
f 247 383 378
f 248 250 251
f 248 251 249
f 249 251 388
f 249 388 382
f 250 391 251
f 250 396 395
f 250 395 391
f 251 391 392
f 251 392 388
f 252 253 254
f 252 405 404
f 252 409 405
f 252 254 409
f 253 255 256
f 253 256 254
f 254 256 413
f 254 413 414
f 254 414 409
f 255 257 258
f 255 258 256
f 256 258 419
f 256 419 413
f 257 422 258
f 257 427 426
f 257 426 422
f 258 422 423
f 258 423 419
f 259 260 261
f 259 436 435
f 259 440 436
f 259 261 440
f 260 262 263
f 260 263 261
f 261 263 444
f 261 444 445
f 261 445 440
f 263 450 444
f 264 265 266
f 264 267 265
f 264 266 325
f 265 267 268
f 265 447 449
f 265 268 447
f 265 449 266
f 266 452 326
f 266 326 325
f 266 449 452
f 267 269 268
f 268 269 270
f 268 270 443
f 268 443 447
f 269 271 270
f 270 271 272
f 270 439 443
f 270 272 439
f 271 273 272
f 272 273 274
f 272 433 439
f 272 274 433
f 273 275 274
f 274 275 276
f 274 434 433
f 274 276 434
f 275 277 276
f 276 277 278
f 276 278 425
f 276 425 434
f 277 279 278
f 278 279 280
f 278 421 425
f 278 280 421
f 279 281 280
f 280 281 282
f 280 282 418
f 280 418 421
f 281 283 282
f 282 283 284
f 282 416 418
f 282 284 416
f 283 285 284
f 284 285 286
f 284 286 412
f 284 412 416
f 285 287 286
f 286 287 288
f 286 408 412
f 286 288 408
f 287 289 288
f 288 289 290
f 288 402 408
f 288 290 402
f 289 291 290
f 290 291 292
f 290 403 402
f 290 292 403
f 291 293 292
f 292 293 294
f 292 294 394
f 292 394 403
f 293 295 294
f 294 295 296
f 294 390 394
f 294 296 390
f 295 297 296
f 296 297 298
f 296 298 387
f 296 387 390
f 297 299 298
f 298 299 300
f 298 386 387
f 298 300 386
f 299 301 300
f 300 301 302
f 300 381 386
f 300 302 381
f 301 303 302
f 302 303 304
f 302 377 381
f 302 304 377
f 303 305 304
f 304 305 306
f 304 371 377
f 304 306 371
f 305 307 306
f 306 307 308
f 306 372 371
f 306 308 372
f 307 309 308
f 308 311 617
f 308 309 311
f 308 617 372
f 309 310 311
f 312 313 314
f 312 314 329
f 312 329 328
f 313 315 316
f 313 316 314
f 314 352 357
f 314 316 352
f 314 357 329
f 315 317 318
f 315 318 316
f 316 354 352
f 316 318 354
f 317 319 320
f 317 320 318
f 318 320 346
f 318 346 354
f 319 321 322
f 319 322 320
f 320 342 346
f 320 322 342
f 321 323 324
f 321 324 322
f 322 335 342
f 322 324 335
f 323 325 326
f 323 326 324
f 324 337 335
f 324 326 337
f 326 452 337
f 327 328 329
f 327 329 330
f 327 330 361
f 329 357 330
f 330 349 356
f 330 356 361
f 330 357 349
f 331 338 339
f 331 339 344
f 331 344 340
f 332 333 334
f 332 340 341
f 332 341 333
f 333 335 336
f 333 336 334
f 333 341 342
f 333 342 335
f 334 336 450
f 335 337 336
f 336 451 450
f 336 337 451
f 337 452 451
f 339 351 344
f 339 343 351
f 340 344 345
f 340 345 341
f 341 345 346
f 341 346 342
f 343 348 351
f 344 353 345
f 344 351 353
f 345 354 346
f 345 353 354
f 347 349 348
f 347 355 356
f 347 356 349
f 348 350 351
f 348 349 350
f 349 357 350
f 350 352 353
f 350 353 351
f 350 357 352
f 352 354 353
f 355 359 360
f 355 360 356
f 356 360 361
f 362 363 364
f 362 364 365
f 362 366 367
f 362 368 366
f 362 365 368
f 362 367 363
f 364 373 365
f 365 373 374
f 365 375 368
f 365 374 375
f 366 368 369
f 366 369 370
f 366 619 367
f 366 370 619
f 368 376 369
f 368 375 376
f 369 371 370
f 369 376 377
f 369 377 371
f 370 371 372
f 370 618 619
f 370 372 618
f 372 617 618
f 374 379 375
f 374 378 379
f 375 380 376
f 375 379 380
f 376 381 377
f 376 380 381
f 378 383 379
f 379 383 385
f 379 385 380
f 380 385 386
f 380 386 381
f 382 384 383
f 382 388 389
f 382 389 384
f 383 384 385
f 384 389 390
f 384 387 385
f 384 390 387
f 385 387 386
f 388 392 393
f 388 393 389
f 389 393 394
f 389 394 390
f 391 399 392
f 391 395 399
f 392 401 393
f 392 399 401
f 393 403 394
f 393 401 403
f 395 396 397
f 395 397 398
f 395 398 399
f 396 404 397
f 397 404 405
f 397 405 406
f 397 406 398
f 398 400 399
f 398 406 407
f 398 407 400
f 399 400 401
f 400 402 401
f 400 407 408
f 400 408 402
f 401 402 403
f 405 409 410
f 405 410 406
f 406 410 411
f 406 411 407
f 407 411 412
f 407 412 408
f 409 414 410
f 410 417 411
f 410 414 417
f 411 416 412
f 411 417 416
f 413 415 414
f 413 419 420
f 413 420 415
f 414 415 417
f 415 420 421
f 415 418 417
f 415 421 418
f 416 417 418
f 419 423 424
f 419 424 420
f 420 424 425
f 420 425 421
f 422 430 423
f 422 426 430
f 423 432 424
f 423 430 432
f 424 434 425
f 424 432 434
f 426 427 428
f 426 428 429
f 426 429 430
f 427 435 428
f 428 435 436
f 428 436 437
f 428 437 429
f 429 431 430
f 429 437 438
f 429 438 431
f 430 431 432
f 431 433 432
f 431 438 439
f 431 439 433
f 432 433 434
f 436 440 441
f 436 441 437
f 437 441 442
f 437 442 438
f 438 442 443
f 438 443 439
f 440 445 441
f 441 448 442
f 441 445 448
f 442 447 443
f 442 448 447
f 444 446 445
f 444 450 451
f 444 451 446
f 445 446 448
f 446 451 452
f 446 449 448
f 446 452 449
f 447 448 449
f 453 454 455
f 453 455 456
f 453 457 458
f 453 459 457
f 453 460 454
f 453 456 459
f 454 460 464
f 457 480 458
f 458 476 475
f 458 480 481
f 458 482 476
f 458 481 482
f 460 461 462
f 460 462 463
f 460 465 461
f 460 463 464
f 461 465 469
f 465 466 467
f 465 467 468
f 465 470 466
f 465 468 469
f 466 470 474
f 470 471 472
f 470 472 473
f 470 475 471
f 470 473 474
f 471 475 479
f 475 476 477
f 475 477 478
f 475 478 479
f 483 484 485
f 484 686 485
f 485 686 687
f 486 487 488
f 487 711 488
f 488 711 712
f 490 492 491
f 491 492 493
f 492 494 493
f 493 494 495
f 494 496 495
f 495 496 497
f 495 497 498
f 497 499 498
f 498 499 500
f 499 501 500
f 500 501 502
f 501 503 502
f 502 503 504
f 502 504 505
f 504 506 505
f 505 506 507
f 506 508 507
f 507 508 509
f 508 510 509
f 509 510 511
f 509 511 512
f 511 513 512
f 512 513 514
f 513 515 514
f 514 515 516
f 515 517 516
f 516 517 518
f 516 518 519
f 518 520 519
f 519 520 521
f 520 522 521
f 521 522 523
f 522 524 523
f 523 524 525
f 523 525 526
f 525 527 526
f 526 527 528
f 527 529 528
f 528 529 530
f 529 531 530
f 530 531 532
f 530 532 533
f 532 534 533
f 533 534 535
f 534 536 535
f 535 536 537
f 536 538 537
f 537 538 539
f 537 539 540
f 539 541 540
f 540 541 542
f 543 544 545
f 543 546 544
f 543 592 546
f 544 547 545
f 546 592 591
f 548 549 550
f 549 551 550
f 550 551 552
f 551 553 552
f 552 553 554
f 553 555 554
f 554 555 556
f 555 557 556
f 556 557 558
f 557 559 558
f 558 559 560
f 559 561 560
f 560 561 562
f 561 563 562
f 562 563 564
f 563 565 564
f 564 565 566
f 565 567 566
f 566 567 568
f 567 569 568
f 568 569 570
f 569 571 570
f 570 571 572
f 571 573 572
f 572 573 574
f 573 575 574
f 574 575 576
f 575 577 576
f 576 577 578
f 577 579 578
f 578 579 580
f 579 581 580
f 580 581 582
f 581 583 582
f 582 583 584
f 583 585 584
f 584 585 586
f 585 587 586
f 586 587 588
f 587 589 588
f 588 589 590
f 589 591 590
f 590 591 592
f 593 594 595
f 594 596 595
f 594 597 596
f 596 597 598
f 597 599 598
f 598 599 600
f 599 601 600
f 600 601 602
f 601 603 602
f 602 603 604
f 603 605 604
f 604 605 606
f 605 607 606
f 606 607 608
f 607 609 608
f 608 609 610
f 609 611 610
f 610 611 612
f 611 613 612
f 612 613 614
f 613 615 614
f 614 615 616
f 620 621 622
f 620 623 621
f 620 685 623
f 621 624 622
f 622 624 625
f 623 685 684
f 624 626 625
f 625 626 627
f 626 628 627
f 627 628 629
f 628 630 629
f 629 630 631
f 630 632 631
f 631 632 633
f 632 634 633
f 633 634 635
f 634 636 635
f 635 636 637
f 636 638 637
f 637 638 639
f 638 640 639
f 639 640 641
f 640 642 641
f 641 642 643
f 642 644 643
f 643 644 645
f 644 646 645
f 645 646 647
f 646 648 647
f 647 648 649
f 648 650 649
f 649 650 651
f 650 652 651
f 651 652 653
f 652 654 653
f 653 654 655
f 654 656 655
f 657 658 659
f 658 660 659
f 659 660 661
f 660 662 661
f 661 662 663
f 662 664 663
f 663 664 665
f 664 666 665
f 665 666 667
f 666 668 667
f 667 668 669
f 668 670 669
f 669 670 671
f 670 672 671
f 671 672 673
f 672 674 673
f 673 674 675
f 674 676 675
f 675 676 677
f 676 678 677
f 677 678 679
f 678 680 679
f 679 680 681
f 680 682 681
f 681 682 683
f 682 684 683
f 683 684 685
f 686 688 687
f 687 688 689
f 690 691 692
f 691 693 692
f 692 693 694
f 693 695 694
f 694 695 696
f 697 698 699
f 698 700 699
f 699 700 701
f 700 702 701
f 701 702 703
f 704 705 706
f 705 707 706
f 706 707 708
f 707 709 708
f 708 709 710
f 711 713 712
f 712 713 714
f 715 716 717
f 716 718 717
f 717 718 719
f 718 720 719
f 719 720 721
f 722 723 724
f 722 725 723
f 724 726 727
f 725 730 733
f 727 764 763
f 728 729 730
f 728 731 732
f 731 734 732
f 734 737 740
f 735 736 737
f 735 738 739
f 738 741 739
f 741 744 747
f 742 743 744
f 742 745 746
f 745 748 746
f 748 751 754
f 749 750 751
f 749 752 753
f 752 755 753
f 756 757 758
f 756 759 760
f 758 761 762
f 759 763 760