# ANSI B 18.2.4.1 M - M3 x 0.5Style 1
# Autodesk dbId: 20
# Units: mm
o 020_ANSI_B_18.2.4.1_M_-_M3_x_0.5Style_1
v 22.789699 -82.417744 44.221859
v 23.178428 -82.261494 44.274216
v 22.981065 -82.261494 44.030493
v 22.966759 -82.417744 44.445789
v 22.737342 -82.261494 43.833130
v 22.565770 -82.417744 44.044799
v 22.789699 -82.417744 44.221859
v 22.457910 -82.261494 43.690752
v 22.307044 -82.417744 43.924153
v 22.154983 -82.261494 43.609583
v 22.027469 -82.417744 43.866426
v 21.841800 -82.261494 43.593170
v 21.742117 -82.417744 43.874729
v 21.532048 -82.261494 43.642230
v 21.466372 -82.417744 43.948615
v 21.239265 -82.261494 43.754619
v 21.215098 -82.417744 44.084100
v 20.976246 -82.261494 43.925425
v 21.001843 -82.417744 44.273881
v 20.754488 -82.261494 44.147183
v 20.838103 -82.417744 44.507727
v 20.583682 -82.261494 44.410202
v 20.732705 -82.417744 44.773030
v 20.471294 -82.261494 44.702985
v 20.422234 -82.261494 45.012737
v 20.691331 -82.417744 45.055488
v 20.438647 -82.261494 45.325920
v 20.716212 -82.417744 45.339874
v 20.519816 -82.261494 45.628847
v 20.806006 -82.417744 45.610857
v 20.662194 -82.261494 45.908279
v 20.955872 -82.417744 45.853827
v 20.859557 -82.261494 46.152002
v 21.157732 -82.417744 46.055687
v 21.103280 -82.261494 46.349365
v 21.400702 -82.417744 46.205553
v 21.382712 -82.261494 46.491743
v 21.671685 -82.417744 46.295347
v 21.685639 -82.261494 46.572912
v 21.956071 -82.417744 46.320228
v 21.998822 -82.261494 46.589325
v 22.238529 -82.417744 46.278853
v 22.308574 -82.261494 46.540265
v 22.601357 -82.261494 46.427876
v 22.503832 -82.417744 46.173455
v 22.864376 -82.261494 46.257070
v 22.737678 -82.417744 46.009715
v 23.086134 -82.261494 46.035312
v 22.927459 -82.417744 45.796460
v 23.256940 -82.261494 45.772293
v 23.062944 -82.417744 45.545186
v 23.369328 -82.261494 45.479510
v 23.136830 -82.417744 45.269441
v 23.418388 -82.261494 45.169758
v 23.145133 -82.417744 44.984089
v 23.401975 -82.261494 44.856575
v 23.087405 -82.417744 44.704514
v 23.320806 -82.261494 44.553648
v 21.050923 -84.505245 45.960636
v 20.955872 -82.417744 45.853827
v 21.157732 -82.417744 46.055687
v 21.274852 -84.505245 46.137696
v 20.873863 -84.505245 45.736707
v 20.806006 -82.417744 45.610857
v 20.753217 -84.505245 45.477981
v 20.716212 -82.417744 45.339874
v 20.695489 -84.505245 45.198406
v 20.691331 -82.417744 45.055488
v 20.703792 -84.505245 44.913054
v 20.732705 -82.417744 44.773030
v 20.777678 -84.505245 44.637309
v 20.838103 -82.417744 44.507727
v 20.913163 -84.505245 44.386035
v 21.001843 -82.417744 44.273881
v 21.102944 -84.505245 44.172780
v 21.215098 -82.417744 44.084100
v 21.336790 -84.505245 44.009040
v 21.466372 -82.417744 43.948615
v 21.602093 -84.505245 43.903642
v 21.742117 -82.417744 43.874729
v 21.884551 -84.505245 43.862268
v 22.027469 -82.417744 43.866426
v 22.168937 -84.505245 43.887148
v 22.307044 -82.417744 43.924153
v 22.439920 -84.505245 43.976942
v 22.565770 -82.417744 44.044799
v 22.884750 -84.505245 44.328668
v 22.966759 -82.417744 44.445789
v 22.789699 -82.417744 44.221859
v 22.682890 -84.505245 44.126808
v 23.034616 -84.505245 44.571638
v 23.087405 -82.417744 44.704514
v 23.124410 -84.505245 44.842621
v 23.145133 -82.417744 44.984089
v 23.149291 -84.505245 45.127007
v 23.136830 -82.417744 45.269441
v 23.107917 -84.505245 45.409465
v 23.062944 -82.417744 45.545186
v 23.002519 -84.505245 45.674769
v 22.927459 -82.417744 45.796460
v 22.838779 -84.505245 45.908614
v 22.737678 -82.417744 46.009715
v 22.625524 -84.505245 46.098395
v 22.503832 -82.417744 46.173455
v 22.374250 -84.505245 46.233880
v 22.238529 -82.417744 46.278853
v 22.098505 -84.505245 46.307766
v 21.956071 -82.417744 46.320228
v 21.813153 -84.505245 46.316069
v 21.671685 -82.417744 46.295347
v 21.533578 -84.505245 46.258342
v 21.400702 -82.417744 46.205553
v 22.228214 -82.261494 47.823956
v 22.632064 -82.261494 47.747544
v 22.308574 -82.261494 46.540265
v 20.662194 -84.661495 45.908279
v 20.873863 -84.505245 45.736707
v 21.050923 -84.505245 45.960636
v 20.519816 -84.661495 45.628848
v 20.753217 -84.505245 45.477981
v 20.438647 -84.661495 45.325920
v 20.695489 -84.505245 45.198406
v 20.422234 -84.661495 45.012737
v 20.703792 -84.505245 44.913054
v 20.471293 -84.661495 44.702985
v 20.777678 -84.505245 44.637309
v 20.583682 -84.661495 44.410202
v 20.913163 -84.505245 44.386035
v 20.754488 -84.661495 44.147184
v 21.102944 -84.505245 44.172780
v 20.976246 -84.661495 43.925425
v 21.336790 -84.505245 44.009040
v 21.239264 -84.661495 43.754619
v 21.602093 -84.505245 43.903642
v 21.532048 -84.661495 43.642230
v 21.841800 -84.661495 43.593170
v 21.884551 -84.505245 43.862268
v 22.154983 -84.661495 43.609583
v 22.168937 -84.505245 43.887148
v 22.457910 -84.661495 43.690753
v 22.439920 -84.505245 43.976942
v 22.737342 -84.661495 43.833130
v 22.682890 -84.505245 44.126808
v 22.981065 -84.661495 44.030493
v 22.884750 -84.505245 44.328668
v 23.178428 -84.661495 44.274216
v 23.034616 -84.505245 44.571638
v 23.320806 -84.661495 44.553648
v 23.124410 -84.505245 44.842621
v 23.401975 -84.661495 44.856575
v 23.149291 -84.505245 45.127007
v 23.418388 -84.661495 45.169758
v 23.107917 -84.505245 45.409465
v 23.369328 -84.661495 45.479510
v 23.256940 -84.661495 45.772294
v 23.002519 -84.505245 45.674769
v 23.086134 -84.661495 46.035312
v 22.838779 -84.505245 45.908614
v 22.864376 -84.661495 46.257070
v 22.625524 -84.505245 46.098395
v 22.601357 -84.661495 46.427876
v 22.374250 -84.505245 46.233880
v 22.308574 -84.661495 46.540265
v 22.098505 -84.505245 46.307766
v 21.998822 -84.661495 46.589325
v 21.813153 -84.505245 46.316069
v 21.685639 -84.661495 46.572912
v 21.533578 -84.505245 46.258342
v 21.382712 -84.661495 46.491743
v 21.274852 -84.505245 46.137696
v 21.103280 -84.661495 46.349365
v 23.020015 -84.661495 47.611794
v 22.632064 -84.661495 47.747544
v 22.308574 -84.661495 46.540265
v 24.165677 -82.459874 47.336613
v 24.004734 -82.261494 46.885038
v 23.714102 -82.261494 47.175670
v 23.755765 -82.371517 47.446449
v 24.275513 -82.371517 46.926701
v 22.999720 -82.273719 47.649031
v 23.020015 -82.261494 47.611794
v 22.632064 -82.261494 47.747544
v 23.370831 -82.310165 47.549591
v 23.383400 -82.261494 47.419739
v 24.987538 -82.459874 44.269386
v 24.515990 -82.261494 44.182979
v 24.622369 -82.261494 44.579990
v 24.877702 -82.371517 44.679298
v 24.687461 -82.371517 43.969309
v 24.675120 -82.273719 45.435344
v 24.653020 -82.261494 45.399149
v 24.576608 -82.261494 45.802999
v 24.774559 -82.310166 45.064232
v 24.668388 -82.261494 44.988421
v 22.742171 -82.459874 42.024020
v 22.431567 -82.261494 42.389189
v 22.828578 -82.261494 42.495568
v 23.042248 -82.371517 42.324097
v 22.332259 -82.371517 42.133856
v 23.595712 -82.273719 42.877561
v 23.553316 -82.261494 42.878603
v 23.864855 -82.261494 43.146703
v 23.324040 -82.310166 42.605888
v 23.205299 -82.261494 42.659930
v 19.674945 -82.459874 42.845882
v 19.835888 -82.261494 43.297457
v 20.126520 -82.261494 43.006825
v 20.084857 -82.371517 42.736046
v 19.565109 -82.371517 43.255794
v 20.840902 -82.273719 42.533464
v 20.820607 -82.261494 42.570701
v 21.208558 -82.261494 42.434951
v 20.469791 -82.310166 42.632904
v 20.457222 -82.261494 42.762756
v 21.098451 -84.463115 48.158475
v 21.012044 -84.661495 47.686927
v 21.409055 -84.661495 47.793306
v 21.508363 -84.551472 48.048639
v 20.798374 -84.551472 47.858398
v 22.264408 -84.649270 47.846057
v 22.228214 -84.661495 47.823957
v 22.632064 -84.661495 47.747544
v 21.893297 -84.612823 47.945496
v 21.817486 -84.661495 47.839325
v 18.853084 -84.463115 45.913109
v 19.218253 -84.661495 45.602505
v 19.324632 -84.661495 45.999516
v 19.153161 -84.551472 46.213186
v 18.962920 -84.551472 45.503197
v 19.706625 -84.649270 46.766650
v 19.707667 -84.661495 46.724254
v 19.975767 -84.661495 47.035792
v 19.434952 -84.612823 46.494977
v 19.488994 -84.661495 46.376237
v 19.674945 -84.463115 42.845882
v 20.126520 -84.661495 43.006825
v 19.835888 -84.661495 43.297457
v 19.565109 -84.551472 43.255794
v 20.084857 -84.551472 42.736047
v 19.362527 -84.649270 44.011840
v 19.399764 -84.661495 43.991545
v 19.264014 -84.661495 44.379496
v 19.461966 -84.612823 43.640729
v 19.591819 -84.661495 43.628160
v 22.981065 -82.261494 44.030493
v 22.682890 -84.505245 44.126808
v 22.789699 -82.417744 44.221859
v 23.020015 -82.261494 47.611794
v 22.601357 -82.261494 46.427876
v 23.383400 -82.261494 47.419739
v 22.864376 -82.261494 46.257070
v 23.714102 -82.261494 47.175670
v 24.004734 -82.261494 46.885038
v 23.086134 -82.261494 46.035312
v 24.248803 -82.261494 46.554335
v 23.256940 -82.261494 45.772293
v 24.440858 -82.261494 46.190950
v 23.369328 -82.261494 45.479510
v 24.576608 -82.261494 45.802999
v 24.653020 -82.261494 45.399149
v 23.418388 -82.261494 45.169758
v 24.668388 -82.261494 44.988421
v 23.401975 -82.261494 44.856575
v 24.622369 -82.261494 44.579990
v 24.515990 -82.261494 44.182979
v 23.320806 -82.261494 44.553648
v 24.351628 -82.261494 43.806258
v 23.178428 -82.261494 44.274216
v 24.132955 -82.261494 43.458241
v 22.981065 -82.261494 44.030493
v 23.864855 -82.261494 43.146703
v 23.553316 -82.261494 42.878603
v 22.737342 -82.261494 43.833130
v 23.205299 -82.261494 42.659930
v 22.457910 -82.261494 43.690752
v 22.828578 -82.261494 42.495568
v 22.154983 -82.261494 43.609583
v 22.431567 -82.261494 42.389189
v 22.023136 -82.261494 42.343170
v 21.841800 -82.261494 43.593170
v 21.612408 -82.261494 42.358539
v 21.532048 -82.261494 43.642230
v 21.208558 -82.261494 42.434951
v 20.820607 -82.261494 42.570701
v 21.239265 -82.261494 43.754619
v 20.457222 -82.261494 42.762756
v 20.976246 -82.261494 43.925425
v 20.126520 -82.261494 43.006825
v 19.835888 -82.261494 43.297457
v 20.754488 -82.261494 44.147183
v 19.591819 -82.261494 43.628160
v 20.583682 -82.261494 44.410202
v 19.399764 -82.261494 43.991545
v 20.471294 -82.261494 44.702985
v 19.264014 -82.261494 44.379496
v 19.187602 -82.261494 44.783346
v 20.422234 -82.261494 45.012737
v 19.172234 -82.261494 45.194074
v 20.438647 -82.261494 45.325920
v 19.218253 -82.261494 45.602505
v 19.324632 -82.261494 45.999516
v 20.519816 -82.261494 45.628847
v 19.488994 -82.261494 46.376237
v 20.662194 -82.261494 45.908279
v 19.707667 -82.261494 46.724254
v 20.859557 -82.261494 46.152002
v 19.975767 -82.261494 47.035792
v 20.287306 -82.261494 47.303892
v 21.103280 -82.261494 46.349365
v 20.635323 -82.261494 47.522566
v 21.382712 -82.261494 46.491743
v 21.012044 -82.261494 47.686927
v 21.685639 -82.261494 46.572912
v 21.409055 -82.261494 47.793306
v 21.817486 -82.261494 47.839325
v 21.998822 -82.261494 46.589325
v 21.050923 -84.505245 45.960636
v 20.859557 -84.661495 46.152002
v 20.859557 -84.661495 46.152002
v 22.228214 -84.661495 47.823957
v 21.998822 -84.661495 46.589325
v 21.817486 -84.661495 47.839325
v 21.685639 -84.661495 46.572912
v 21.409055 -84.661495 47.793306
v 21.012044 -84.661495 47.686927
v 21.382712 -84.661495 46.491743
v 20.635323 -84.661495 47.522566
v 21.103280 -84.661495 46.349365
v 20.287306 -84.661495 47.303892
v 20.859557 -84.661495 46.152002
v 19.975767 -84.661495 47.035792
v 19.707667 -84.661495 46.724254
v 20.662194 -84.661495 45.908279
v 19.488994 -84.661495 46.376237
v 20.519816 -84.661495 45.628848
v 19.324632 -84.661495 45.999516
v 20.438647 -84.661495 45.325920
v 19.218253 -84.661495 45.602505
v 19.172234 -84.661495 45.194074
v 20.422234 -84.661495 45.012737
v 19.187602 -84.661495 44.783346
v 20.471293 -84.661495 44.702985
v 19.264014 -84.661495 44.379496
v 19.399764 -84.661495 43.991545
v 20.583682 -84.661495 44.410202
v 19.591819 -84.661495 43.628160
v 20.754488 -84.661495 44.147184
v 19.835888 -84.661495 43.297457
v 20.126520 -84.661495 43.006825
v 20.976246 -84.661495 43.925425
v 20.457222 -84.661495 42.762756
v 21.239264 -84.661495 43.754619
v 20.820607 -84.661495 42.570701
v 21.532048 -84.661495 43.642230
v 21.208558 -84.661495 42.434951
v 21.612408 -84.661495 42.358539
v 21.841800 -84.661495 43.593170
v 22.023136 -84.661495 42.343170
v 22.154983 -84.661495 43.609583
v 22.431567 -84.661495 42.389189
v 22.828578 -84.661495 42.495568
v 22.457910 -84.661495 43.690753
v 23.205299 -84.661495 42.659930
v 22.737342 -84.661495 43.833130
v 23.553316 -84.661495 42.878603
v 22.981065 -84.661495 44.030493
v 23.864855 -84.661495 43.146703
v 24.132955 -84.661495 43.458241
v 23.178428 -84.661495 44.274216
v 24.351628 -84.661495 43.806258
v 23.320806 -84.661495 44.553648
v 24.515990 -84.661495 44.182979
v 23.401975 -84.661495 44.856575
v 24.622369 -84.661495 44.579990
v 24.668388 -84.661495 44.988421
v 23.418388 -84.661495 45.169758
v 24.653020 -84.661495 45.399149
v 23.369328 -84.661495 45.479510
v 24.576608 -84.661495 45.802999
v 24.440858 -84.661495 46.190950
v 23.256940 -84.661495 45.772294
v 24.248803 -84.661495 46.554336
v 23.086134 -84.661495 46.035312
v 24.004734 -84.661495 46.885038
v 23.714102 -84.661495 47.175670
v 22.864376 -84.661495 46.257070
v 23.383400 -84.661495 47.419739
v 22.601357 -84.661495 46.427876
v 24.248803 -82.261494 46.554335
v 24.378656 -82.310166 46.541766
v 24.440858 -82.261494 46.190950
v 24.478095 -82.273719 46.170655
v 24.576608 -82.261494 45.802999
v 19.975767 -82.261494 47.035792
v 20.244910 -82.273719 47.304934
v 20.287306 -82.261494 47.303892
v 20.516582 -82.310165 47.576607
v 20.635323 -82.261494 47.522566
v 20.798374 -82.371517 47.858398
v 21.012044 -82.261494 47.686927
v 21.098451 -82.459874 48.158475
v 21.409055 -82.261494 47.793306
v 21.508363 -82.371517 48.048639
v 21.817486 -82.261494 47.839325
v 21.893297 -82.310165 47.945496
v 22.228214 -82.261494 47.823956
v 22.264408 -82.273719 47.846057
v 22.632064 -82.261494 47.747544
v 24.351628 -82.261494 43.806258
v 24.405670 -82.310166 43.687518
v 24.132955 -82.261494 43.458241
v 24.133997 -82.273719 43.415846
v 23.864855 -82.261494 43.146703
v 19.264014 -82.261494 44.379496
v 19.165501 -82.273719 44.747151
v 19.187602 -82.261494 44.783346
v 19.066062 -82.310165 45.118263
v 19.172234 -82.261494 45.194074
v 18.962920 -82.371517 45.503197
v 19.218253 -82.261494 45.602505
v 18.853084 -82.459874 45.913109
v 19.324632 -82.261494 45.999516
v 19.153161 -82.371517 46.213186
v 19.488994 -82.261494 46.376237
v 19.434952 -82.310165 46.494977
v 19.707667 -82.261494 46.724254
v 19.706625 -82.273719 46.766649
v 19.975767 -82.261494 47.035792
v 22.023136 -82.261494 42.343170
v 21.947325 -82.310166 42.236999
v 21.612408 -82.261494 42.358539
v 21.576214 -82.273719 42.336438
v 21.208558 -82.261494 42.434951
v 19.591819 -82.261494 43.628160
v 19.461966 -82.310166 43.640729
v 19.399764 -82.261494 43.991545
v 19.362527 -82.273719 44.011840
v 19.264014 -82.261494 44.379496
v 24.576608 -84.661495 45.802999
v 24.478095 -84.649270 46.170655
v 24.440858 -84.661495 46.190950
v 24.378656 -84.612823 46.541766
v 24.248803 -84.661495 46.554336
v 24.275513 -84.551472 46.926701
v 24.004734 -84.661495 46.885038
v 24.165677 -84.463115 47.336613
v 23.714102 -84.661495 47.175670
v 23.755765 -84.551472 47.446449
v 23.383400 -84.661495 47.419739
v 23.370831 -84.612823 47.549592
v 23.020015 -84.661495 47.611794
v 22.999719 -84.649270 47.649031
v 22.632064 -84.661495 47.747544
v 20.635323 -84.661495 47.522566
v 20.516582 -84.612823 47.576607
v 20.287306 -84.661495 47.303892
v 20.244910 -84.649270 47.304935
v 19.975767 -84.661495 47.035792
v 23.864855 -84.661495 43.146703
v 24.133997 -84.649270 43.415846
v 24.132955 -84.661495 43.458241
v 24.405670 -84.612823 43.687518
v 24.351628 -84.661495 43.806258
v 24.687461 -84.551472 43.969310
v 24.515990 -84.661495 44.182979
v 24.987538 -84.463115 44.269386
v 24.622369 -84.661495 44.579990
v 24.877702 -84.551472 44.679298
v 24.668388 -84.661495 44.988421
v 24.774559 -84.612823 45.064233
v 24.653020 -84.661495 45.399149
v 24.675120 -84.649270 45.435344
v 24.576608 -84.661495 45.802999
v 21.208558 -84.661495 42.434951
v 21.576214 -84.649270 42.336438
v 21.612408 -84.661495 42.358539
v 21.947325 -84.612823 42.236999
v 22.023136 -84.661495 42.343170
v 22.332259 -84.551472 42.133856
v 22.431567 -84.661495 42.389189
v 22.742171 -84.463115 42.024020
v 22.828578 -84.661495 42.495568
v 23.042248 -84.551472 42.324097
v 23.205299 -84.661495 42.659930
v 23.324040 -84.612823 42.605888
v 23.553316 -84.661495 42.878603
v 23.595712 -84.649270 42.877561
v 23.864855 -84.661495 43.146703
v 19.172234 -84.661495 45.194074
v 19.066062 -84.612823 45.118263
v 19.187602 -84.661495 44.783346
v 19.165501 -84.649270 44.747151
v 19.264014 -84.661495 44.379496
v 20.457222 -84.661495 42.762756
v 20.469791 -84.612823 42.632904
v 20.820607 -84.661495 42.570701
v 20.840902 -84.649270 42.533465
v 21.208558 -84.661495 42.434951
v 19.674945 -84.463115 42.845882
v 19.674945 -82.459874 42.845882
v 20.084857 -84.551472 42.736047
v 20.084857 -82.371517 42.736046
v 20.469791 -84.612823 42.632904
v 20.469791 -82.310166 42.632904
v 20.840902 -84.649270 42.533465
v 20.840902 -82.273719 42.533464
v 21.208558 -84.661495 42.434951
v 21.208558 -82.261494 42.434951
v 21.576214 -84.649270 42.336438
v 21.576214 -82.273719 42.336438
v 21.947325 -84.612823 42.236999
v 21.947325 -82.310166 42.236999
v 22.332259 -84.551472 42.133856
v 22.332259 -82.371517 42.133856
v 22.742171 -84.463115 42.024020
v 22.742171 -82.459874 42.024020
v 22.742171 -84.463115 42.024020
v 22.742171 -82.459874 42.024020
v 23.042248 -84.551472 42.324097
v 23.042248 -82.371517 42.324097
v 23.324040 -84.612823 42.605888
v 23.324040 -82.310166 42.605888
v 23.595712 -84.649270 42.877561
v 23.595712 -82.273719 42.877561
v 23.864855 -84.661495 43.146703
v 23.864855 -82.261494 43.146703
v 24.133997 -84.649270 43.415846
v 24.133997 -82.273719 43.415846
v 24.405670 -84.612823 43.687518
v 24.405670 -82.310166 43.687518
v 24.687461 -84.551472 43.969310
v 24.687461 -82.371517 43.969309
v 24.987538 -84.463115 44.269386
v 24.987538 -82.459874 44.269386
v 24.987538 -84.463115 44.269386
v 24.987538 -82.459874 44.269386
v 24.877702 -84.551472 44.679298
v 24.877702 -82.371517 44.679298
v 24.774559 -84.612823 45.064233
v 24.774559 -82.310166 45.064232
v 24.675120 -84.649270 45.435344
v 24.675120 -82.273719 45.435344
v 24.576608 -84.661495 45.802999
v 24.576608 -82.261494 45.802999
v 24.478095 -82.273719 46.170655
v 24.478095 -84.649270 46.170655
v 24.378656 -82.310166 46.541766
v 24.378656 -84.612823 46.541766
v 24.275513 -82.371517 46.926701
v 24.275513 -84.551472 46.926701
v 24.165677 -82.459874 47.336613
v 24.165677 -84.463115 47.336613
v 19.165501 -82.273719 44.747151
v 19.264014 -82.261494 44.379496
v 19.264014 -84.661495 44.379496
v 19.165501 -84.649270 44.747151
v 19.066062 -82.310165 45.118263
v 19.362527 -82.273719 44.011840
v 19.362527 -84.649270 44.011840
v 19.461966 -82.310166 43.640729
v 19.461966 -84.612823 43.640729
v 19.565109 -82.371517 43.255794
v 19.565109 -84.551472 43.255794
v 19.674945 -82.459874 42.845882
v 19.674945 -84.463115 42.845882
v 19.066062 -84.612823 45.118263
v 18.962920 -82.371517 45.503197
v 18.962920 -84.551472 45.503197
v 18.853084 -82.459874 45.913109
v 18.853084 -84.463115 45.913109
v 19.706625 -82.273719 46.766649
v 19.706625 -84.649270 46.766650
v 19.975767 -82.261494 47.035792
v 19.434952 -84.612823 46.494977
v 19.975767 -84.661495 47.035792
v 20.244910 -82.273719 47.304934
v 20.244910 -84.649270 47.304935
v 20.516582 -82.310165 47.576607
v 20.516582 -84.612823 47.576607
v 20.798374 -82.371517 47.858398
v 20.798374 -84.551472 47.858398
v 21.098451 -82.459874 48.158475
v 21.098451 -84.463115 48.158475
v 19.434952 -82.310165 46.494977
v 19.153161 -84.551472 46.213186
v 19.153161 -82.371517 46.213186
v 18.853084 -84.463115 45.913109
v 18.853084 -82.459874 45.913109
v 22.264408 -82.273719 47.846057
v 22.264408 -84.649270 47.846057
v 22.632064 -82.261494 47.747544
v 21.893297 -84.612823 47.945496
v 22.632064 -84.661495 47.747544
v 22.999720 -82.273719 47.649031
v 22.999719 -84.649270 47.649031
v 23.370831 -82.310165 47.549591
v 23.370831 -84.612823 47.549592
v 23.755765 -82.371517 47.446449
v 23.755765 -84.551472 47.446449
v 24.165677 -82.459874 47.336613
v 24.165677 -84.463115 47.336613
v 21.893297 -82.310165 47.945496
v 21.508363 -84.551472 48.048639
v 21.508363 -82.371517 48.048639
v 21.098451 -84.463115 48.158475
v 21.098451 -82.459874 48.158475
f 1 2 3
f 1 4 2
f 2 4 58
f 4 57 58
f 5 6 7
f 5 8 6
f 5 7 245
f 6 8 9
f 8 10 9
f 9 10 11
f 10 12 11
f 11 12 13
f 12 14 13
f 13 14 15
f 14 16 15
f 15 16 17
f 16 18 17
f 17 18 19
f 18 20 19
f 19 20 21
f 20 22 21
f 21 22 23
f 22 24 23
f 23 25 26
f 23 24 25
f 25 27 26
f 26 27 28
f 27 29 28
f 28 29 30
f 29 31 30
f 30 31 32
f 31 33 32
f 32 33 34
f 33 35 34
f 34 35 36
f 35 37 36
f 36 37 38
f 37 39 38
f 38 39 40
f 39 41 40
f 40 41 42
f 41 43 42
f 42 44 45
f 42 43 44
f 44 46 45
f 45 46 47
f 46 48 47
f 47 48 49
f 48 50 49
f 49 50 51
f 50 52 51
f 51 52 53
f 52 54 53
f 53 54 55
f 54 56 55
f 55 56 57
f 56 58 57
f 59 60 61
f 59 61 62
f 59 63 60
f 60 63 64
f 61 112 62
f 62 112 111
f 63 65 64
f 64 65 66
f 65 67 66
f 66 67 68
f 67 69 68
f 68 69 70
f 69 71 70
f 70 71 72
f 71 73 72
f 72 73 74
f 73 75 74
f 74 75 76
f 75 77 76
f 76 77 78
f 77 79 78
f 78 79 80
f 79 81 80
f 80 81 82
f 81 83 82
f 82 83 84
f 83 85 84
f 84 85 86
f 85 246 86
f 86 246 247
f 87 88 89
f 87 89 90
f 87 91 88
f 88 91 92
f 91 93 92
f 92 93 94
f 93 95 94
f 94 95 96
f 95 97 96
f 96 97 98
f 97 99 98
f 98 99 100
f 99 101 100
f 100 101 102
f 101 103 102
f 102 103 104
f 103 105 104
f 104 105 106
f 105 107 106
f 106 107 108
f 107 109 108
f 108 109 110
f 109 111 110
f 110 111 112
f 113 114 115
f 113 316 315
f 113 115 316
f 114 248 115
f 115 248 249
f 116 117 118
f 116 119 117
f 116 118 319
f 117 119 120
f 119 121 120
f 120 121 122
f 121 123 122
f 122 123 124
f 123 125 124
f 124 125 126
f 125 127 126
f 126 127 128
f 127 129 128
f 128 129 130
f 129 131 130
f 130 131 132
f 131 133 132
f 132 133 134
f 133 135 134
f 134 136 137
f 134 135 136
f 136 138 137
f 137 138 139
f 138 140 139
f 139 140 141
f 140 142 141
f 141 142 143
f 142 144 143
f 143 144 145
f 144 146 145
f 145 146 147
f 146 148 147
f 147 148 149
f 148 150 149
f 149 150 151
f 150 152 151
f 151 152 153
f 152 154 153
f 153 155 156
f 153 154 155
f 155 157 156
f 156 157 158
f 157 159 158
f 158 159 160
f 159 161 160
f 160 161 162
f 161 163 162
f 162 163 164
f 163 165 164
f 164 165 166
f 165 167 166
f 166 167 168
f 167 169 168
f 168 169 170
f 169 171 170
f 170 171 317
f 171 318 317
f 172 173 174
f 172 388 387
f 172 174 388
f 173 320 174
f 174 320 321
f 175 176 177
f 175 177 178
f 175 179 176
f 176 179 389
f 177 184 178
f 178 184 183
f 179 390 389
f 180 181 182
f 180 183 181
f 181 183 184
f 185 186 187
f 185 187 188
f 185 189 186
f 186 189 409
f 187 194 188
f 188 194 193
f 189 410 409
f 190 191 192
f 190 193 191
f 191 193 194
f 195 196 197
f 195 197 198
f 195 199 196
f 196 199 429
f 197 204 198
f 198 204 203
f 199 430 429
f 200 201 202
f 200 203 201
f 201 203 204
f 205 206 207
f 205 207 208
f 205 209 206
f 206 209 434
f 207 214 208
f 208 214 213
f 209 435 434
f 210 211 212
f 210 213 211
f 211 213 214
f 215 216 217
f 215 217 218
f 215 219 216
f 216 219 454
f 217 224 218
f 218 224 223
f 219 455 454
f 220 221 222
f 220 223 221
f 221 223 224
f 225 226 227
f 225 227 228
f 225 229 226
f 226 229 489
f 227 234 228
f 228 234 233
f 229 490 489
f 230 231 232
f 230 233 231
f 231 233 234
f 235 236 237
f 235 237 238
f 235 239 236
f 236 239 494
f 237 244 238
f 238 244 243
f 239 495 494
f 240 241 242
f 240 243 241
f 241 243 244
f 248 250 249
f 249 250 251
f 250 252 251
f 251 252 253
f 251 253 254
f 253 255 254
f 254 255 256
f 255 257 256
f 256 257 258
f 257 259 258
f 258 259 260
f 258 260 261
f 260 262 261
f 261 262 263
f 262 264 263
f 263 264 265
f 263 265 266
f 265 267 266
f 266 267 268
f 267 269 268
f 268 269 270
f 269 271 270
f 270 271 272
f 270 272 273
f 272 274 273
f 273 274 275
f 274 276 275
f 275 276 277
f 276 278 277
f 277 278 279
f 277 279 280
f 279 281 280
f 280 281 282
f 281 283 282
f 282 283 284
f 282 284 285
f 284 286 285
f 285 286 287
f 286 288 287
f 287 288 289
f 287 289 290
f 289 291 290
f 290 291 292
f 291 293 292
f 292 293 294
f 293 295 294
f 294 295 296
f 294 296 297
f 296 298 297
f 297 298 299
f 298 300 299
f 299 300 301
f 299 301 302
f 301 303 302
f 302 303 304
f 303 305 304
f 304 305 306
f 305 307 306
f 306 307 308
f 306 308 309
f 308 310 309
f 309 310 311
f 310 312 311
f 311 312 313
f 312 314 313
f 313 314 315
f 313 315 316
f 320 322 321
f 321 322 323
f 322 324 323
f 323 324 325
f 323 325 326
f 325 327 326
f 326 327 328
f 327 329 328
f 328 329 330
f 329 331 330
f 330 331 332
f 330 332 333
f 332 334 333
f 333 334 335
f 334 336 335
f 335 336 337
f 336 338 337
f 337 338 339
f 337 339 340
f 339 341 340
f 340 341 342
f 341 343 342
f 342 343 344
f 342 344 345
f 344 346 345
f 345 346 347
f 346 348 347
f 347 348 349
f 347 349 350
f 349 351 350
f 350 351 352
f 351 353 352
f 352 353 354
f 353 355 354
f 354 355 356
f 354 356 357
f 356 358 357
f 357 358 359
f 358 360 359
f 359 360 361
f 359 361 362
f 361 363 362
f 362 363 364
f 363 365 364
f 364 365 366
f 365 367 366
f 366 367 368
f 366 368 369
f 368 370 369
f 369 370 371
f 370 372 371
f 371 372 373
f 372 374 373
f 373 374 375
f 373 375 376
f 375 377 376
f 376 377 378
f 377 379 378
f 378 379 380
f 378 380 381
f 380 382 381
f 381 382 383
f 382 384 383
f 383 384 385
f 383 385 386
f 385 387 386
f 386 387 388
f 389 390 391
f 390 392 391
f 391 392 393
f 394 395 396
f 395 397 396
f 396 397 398
f 397 399 398
f 398 399 400
f 399 401 400
f 400 401 402
f 401 403 402
f 402 403 404
f 403 405 404
f 404 405 406
f 405 407 406
f 406 407 408
f 409 410 411
f 410 412 411
f 411 412 413
f 414 415 416
f 415 417 416
f 416 417 418
f 417 419 418
f 418 419 420
f 419 421 420
f 420 421 422
f 421 423 422
f 422 423 424
f 423 425 424
f 424 425 426
f 425 427 426
f 426 427 428
f 429 430 431
f 430 432 431
f 431 432 433
f 434 435 436
f 435 437 436
f 436 437 438
f 439 440 441
f 440 442 441
f 441 442 443
f 442 444 443
f 443 444 445
f 444 446 445
f 445 446 447
f 446 448 447
f 447 448 449
f 448 450 449
f 449 450 451
f 450 452 451
f 451 452 453
f 454 455 456
f 455 457 456
f 456 457 458
f 459 460 461
f 460 462 461
f 461 462 463
f 462 464 463
f 463 464 465
f 464 466 465
f 465 466 467
f 466 468 467
f 467 468 469
f 468 470 469
f 469 470 471
f 470 472 471
f 471 472 473
f 474 475 476
f 475 477 476
f 476 477 478
f 477 479 478
f 478 479 480
f 479 481 480
f 480 481 482
f 481 483 482
f 482 483 484
f 483 485 484
f 484 485 486
f 485 487 486
f 486 487 488
f 489 490 491
f 490 492 491
f 491 492 493
f 494 495 496
f 495 497 496
f 496 497 498
f 499 500 501
f 500 502 501
f 501 502 503
f 502 504 503
f 503 504 505
f 504 506 505
f 505 506 507
f 506 508 507
f 507 508 509
f 508 510 509
f 509 510 511
f 510 512 511
f 511 512 513
f 512 514 513
f 513 514 515
f 514 516 515
f 517 518 519
f 518 520 519
f 519 520 521
f 520 522 521
f 521 522 523
f 522 524 523
f 523 524 525
f 524 526 525
f 525 526 527
f 526 528 527
f 527 528 529
f 528 530 529
f 529 530 531
f 530 532 531
f 531 532 533
f 532 534 533
f 535 536 537
f 536 538 537
f 537 538 539
f 538 540 539
f 539 540 541
f 540 542 541
f 541 542 543
f 542 544 543
f 543 544 545
f 543 545 546
f 545 547 546
f 546 547 548
f 547 549 548
f 548 549 550
f 549 551 550
f 550 551 552
f 553 554 555
f 553 556 557
f 553 555 556
f 554 558 555
f 555 558 559
f 556 566 557
f 557 566 567
f 558 560 559
f 559 560 561
f 560 562 561
f 561 562 563
f 562 564 563
f 563 564 565
f 566 568 567
f 567 568 569
f 568 570 569
f 571 572 573
f 571 574 572
f 571 584 574
f 572 575 573
f 573 575 576
f 574 584 585
f 575 577 576
f 576 577 578
f 577 579 578
f 578 579 580
f 579 581 580
f 580 581 582
f 581 583 582
f 584 586 585
f 585 586 587
f 586 588 587
f 589 590 591
f 589 592 590
f 589 602 592
f 590 593 591
f 591 593 594
f 592 602 603
f 593 595 594
f 594 595 596
f 595 597 596
f 596 597 598
f 597 599 598
f 598 599 600
f 599 601 600
f 602 604 603
f 603 604 605
f 604 606 605