# ANSI B18.3.4M - M3 x 0.5 x 8(1)
# Autodesk dbId: 27
# Units: mm
o 027_ANSI_B18.3.4M_-_M3_x_0.5_x_8(1)
v -9.510000 65.377094 19.617847
v -9.513408 65.279749 19.651514
v -9.513407 65.674283 19.657487
v -9.510000 65.793333 19.652560
v -9.510000 64.966054 19.692046
v -9.510000 63.855196 21.292309
v -9.513408 63.949109 21.679739
v -9.513408 63.881048 21.291075
v -9.510000 63.929396 21.703349
v -9.513408 64.111689 22.039267
v -9.510000 64.107452 22.081179
v -9.513407 64.358572 22.347067
v -9.510000 64.377231 22.400050
v -9.513408 64.674246 22.583800
v -9.510000 64.720348 22.638233
v -9.513408 65.038875 22.734591
v -9.510000 65.113419 22.779494
v -9.513408 65.429549 22.789965
v -9.510000 65.529658 22.814207
v -9.513407 65.821719 22.746442
v -9.510000 65.940698 22.740008
v -9.513408 66.190746 22.606758
v -9.510000 66.318528 22.561951
v -9.513408 66.513441 22.379689
v -9.510000 66.637400 22.292172
v -9.513407 66.769528 22.079503
v -9.510000 66.875582 21.949055
v -9.513408 66.942917 21.725062
v -9.510000 67.016843 21.555984
v -9.513408 67.022712 21.338636
v -9.510000 67.051557 21.139745
v -9.513408 67.003900 20.944506
v -9.510000 66.977357 20.728705
v -9.513408 66.887663 20.567437
v -9.510000 66.799300 20.350875
v -9.513407 66.681304 20.231121
v -9.510000 66.529521 20.032004
v -9.513408 66.397790 19.956690
v -9.510000 66.186405 19.793821
v -9.513408 66.054936 19.761388
v -9.610000 65.381862 19.717733
v -9.584119 65.664359 19.727498
v -9.584118 65.287549 19.721793
v -9.610000 64.996512 19.787295
v -9.610000 65.772086 19.750277
v -9.610000 63.987626 20.897317
v -9.584118 64.102898 20.555389
v -9.584119 63.981032 20.911995
v -9.610000 64.120058 20.528813
v -9.584119 64.309620 20.240294
v -9.610000 64.343354 20.207141
v -9.584119 64.588208 19.986508
v -9.610000 64.642296 19.954223
v -9.584118 64.921158 19.809977
v -9.513408 64.896125 19.743845
v -9.523398 65.282409 19.675485
v -9.523398 64.904663 19.766401
v -9.539289 65.284694 19.696069
v -9.523398 65.670898 19.681366
v -9.539289 64.911995 19.785771
v -9.560000 65.286447 19.711864
v -9.539289 65.667991 19.701872
v -9.560000 64.917621 19.800634
v -9.560000 65.665761 19.717606
v -9.584118 66.027913 19.826732
v -9.539289 66.037804 19.802814
v -9.560000 66.031731 19.817500
v -9.523397 66.045719 19.783676
v -9.510000 64.588224 19.870103
v -9.513408 64.547516 19.928679
v -9.523398 64.561395 19.948403
v -9.539290 64.573313 19.965341
v -9.560000 64.582459 19.978338
v -9.510000 64.269353 20.139882
v -9.513408 64.255825 20.194402
v -9.523398 64.274173 20.210055
v -9.539289 64.289929 20.223496
v -9.560000 64.302020 20.233811
v -9.510000 64.031170 20.482999
v -9.513408 64.039380 20.524317
v -9.523398 64.061045 20.534915
v -9.539289 64.079649 20.544016
v -9.560000 64.093924 20.550999
v -9.510000 63.889909 20.876070
v -9.513408 63.911782 20.897695
v -9.523398 63.935402 20.902572
v -9.539289 63.955685 20.906761
v -9.560000 63.971248 20.909974
v -9.513408 63.881048 21.291075
v -9.523398 63.905139 21.289925
v -9.510000 63.855196 21.292309
v -9.539290 63.925826 21.288938
v -9.560000 63.941700 21.288180
v -9.584118 63.951679 21.287704
v -9.610000 63.955082 21.287541
v -9.523398 63.972157 21.672634
v -9.523398 64.132246 22.026653
v -9.539289 63.991949 21.666533
v -9.523398 63.905139 21.289925
v -9.539289 64.149899 22.015822
v -9.560000 64.007136 21.661852
v -9.539290 63.925826 21.288938
v -9.560000 64.163444 22.007511
v -9.584118 64.171959 22.002286
v -9.584119 64.016682 21.658909
v -9.560000 63.941700 21.288180
v -9.610000 64.024644 21.672891
v -9.610000 63.955082 21.287541
v -9.584118 63.951679 21.287704
v -9.523398 64.375346 22.329738
v -9.539289 64.389751 22.314857
v -9.560000 64.400804 22.303438
v -9.584119 64.407752 22.296260
v -9.610000 64.191572 22.027107
v -9.523398 64.686183 22.562844
v -9.539289 64.696434 22.544848
v -9.560000 64.704300 22.531039
v -9.584118 64.709245 22.522358
v -9.610000 64.444490 22.326049
v -9.523397 65.045226 22.711324
v -9.539289 65.050679 22.691344
v -9.560000 65.054864 22.676013
v -9.584118 65.057494 22.666376
v -9.610000 64.766162 22.549345
v -9.523398 65.429914 22.765849
v -9.539289 65.430227 22.745141
v -9.560000 65.430468 22.729251
v -9.584118 65.430619 22.719262
v -9.610000 65.134666 22.681777
v -9.523398 65.816076 22.722994
v -9.539289 65.811230 22.702858
v -9.560000 65.807511 22.687407
v -9.584119 65.805173 22.677695
v -9.610000 65.524890 22.714321
v -9.523397 66.179448 22.585450
v -9.539289 66.169747 22.567152
v -9.560000 66.162302 22.553111
v -9.584118 66.157623 22.544285
v -9.610000 65.910241 22.644759
v -9.523398 66.497199 22.361860
v -9.539289 66.483252 22.346550
v -9.560000 66.472550 22.334802
v -9.584119 66.465822 22.327417
v -9.610000 66.264456 22.477831
v -9.523398 66.749363 22.066273
v -9.539289 66.732046 22.054913
v -9.560000 66.718758 22.046195
v -9.584118 66.710406 22.040715
v -9.610000 66.563398 22.224913
v -9.523398 66.920094 21.717263
v -9.539289 66.900496 21.710565
v -9.560000 66.885459 21.705426
v -9.584118 66.876005 21.702196
v -9.610000 66.786694 21.903241
v -9.523398 66.998667 21.336757
v -9.539289 66.978019 21.335144
v -9.560000 66.962176 21.333906
v -9.584118 66.952216 21.333128
v -9.610000 66.919126 21.534737
v -9.523398 66.980143 20.948666
v -9.539289 66.959743 20.952239
v -9.560000 66.944089 20.954980
v -9.584118 66.934249 20.956703
v -9.610000 66.951670 21.144513
v -9.523398 66.865687 20.577374
v -9.539289 66.846816 20.585908
v -9.560000 66.832336 20.592456
v -9.584118 66.823234 20.596572
v -9.610000 66.882108 20.759163
v -9.523398 66.662490 20.246211
v -9.539289 66.646335 20.259170
v -9.560000 66.633938 20.269113
v -9.584118 66.626145 20.275364
v -9.610000 66.715180 20.404947
v -9.523398 66.383320 19.975985
v -9.539289 66.370895 19.992554
v -9.560000 66.361360 20.005268
v -9.584119 66.355367 20.013261
v -9.610000 66.462262 20.106005
v -9.610000 66.140590 19.882709
v -19.203274 65.381862 19.717733
v -9.610000 65.772086 19.750277
v -9.610000 65.381862 19.717733
v -19.203274 64.996512 19.787295
v -19.203275 65.772086 19.750277
v -9.610000 66.140590 19.882709
v -19.203274 66.140591 19.882709
v -9.610000 66.462262 20.106005
v -19.203274 66.462262 20.106005
v -9.610000 66.715180 20.404947
v -19.203274 66.715180 20.404947
v -9.610000 66.882108 20.759163
v -19.203274 66.882108 20.759163
v -9.610000 66.951670 21.144513
v -19.203275 66.951671 21.144513
v -9.610000 66.919126 21.534737
v -19.203274 66.919127 21.534737
v -9.610000 66.786694 21.903241
v -19.203274 66.786694 21.903241
v -9.610000 66.563398 22.224913
v -19.203274 66.563399 22.224913
v -9.610000 66.264456 22.477831
v -19.203274 66.264457 22.477831
v -9.610000 65.910241 22.644759
v -19.203275 65.910241 22.644759
v -9.610000 65.524890 22.714321
v -19.203274 65.524891 22.714321
v -9.610000 65.134666 22.681777
v -9.610000 65.524890 22.714321
v -19.203274 65.134667 22.681777
v -9.610000 64.766162 22.549345
v -19.203275 64.766162 22.549345
v -9.610000 64.444490 22.326049
v -19.203275 64.444491 22.326049
v -9.610000 64.191572 22.027107
v -19.203275 64.191573 22.027107
v -9.610000 64.024644 21.672891
v -19.203274 64.024645 21.672891
v -9.610000 63.955082 21.287541
v -19.203274 63.955082 21.287541
v -9.610000 63.987626 20.897317
v -19.203274 63.987626 20.897317
v -9.610000 64.120058 20.528813
v -19.203275 64.120059 20.528813
v -9.610000 64.343354 20.207141
v -19.203275 64.343354 20.207141
v -9.610000 64.642296 19.954223
v -19.203275 64.642296 19.954223
v -9.610000 64.996512 19.787295
v -9.510000 65.875485 18.397459
v -9.510000 65.317499 18.369268
v -9.510000 65.377094 19.617847
v -7.860001 65.378048 19.637824
v -7.903275 64.992180 19.363884
v -7.903275 65.362377 19.309498
v -7.903275 65.736071 19.328378
v -7.860000 64.972146 19.711096
v -7.860000 64.284153 20.153334
v -7.860000 64.048948 20.492161
v -7.903274 63.817598 20.232479
v -7.860001 63.909453 20.880319
v -7.903274 63.657149 20.570502
v -7.860001 63.875173 21.291355
v -7.903274 63.565727 20.933332
v -7.860000 64.390683 22.385250
v -7.860000 64.729511 22.620455
v -7.903274 64.469828 22.851805
v -7.860000 65.117668 22.759950
v -7.903275 64.807851 23.012255
v -7.860000 65.528704 22.794230
v -7.903275 65.170681 23.103676
v -7.860000 66.622599 22.278720
v -7.860001 66.857804 21.939892
v -7.903275 67.089154 22.199575
v -7.860000 66.997300 21.551735
v -7.903275 67.249604 21.861552
v -7.860000 67.031579 21.140699
v -7.903274 67.341025 21.498722
v -7.860000 66.516069 20.046804
v -7.860001 66.177242 19.811599
v -7.903275 66.436924 19.580249
v -7.860000 65.789084 19.672103
v -7.903275 66.098901 19.419799
v -9.130000 65.875485 18.397459
v -8.801300 66.402614 18.574691
v -8.801300 65.869076 18.440257
v -9.130000 66.417250 18.533967
v -8.801300 66.899674 18.810631
v -9.130000 66.921973 18.773544
v -8.801300 67.341154 19.139009
v -9.130000 67.370259 19.106985
v -8.801300 67.710087 19.547205
v -9.130000 67.744881 19.521475
v -8.801300 67.992295 20.019533
v -9.130000 68.031441 20.001086
v -8.801300 68.176935 20.537842
v -9.130000 68.218927 20.527386
v -8.801300 68.256910 21.082213
v -9.130000 68.300135 21.080150
v -8.801300 68.229146 21.631727
v -9.130000 68.271944 21.638136
v -8.801300 68.094712 22.165265
v -9.130000 68.135436 22.179901
v -8.801300 67.858772 22.662325
v -9.130000 67.895859 22.684624
v -8.801300 67.530395 23.103804
v -9.130000 67.562418 23.132910
v -8.801300 67.122198 23.472737
v -9.130000 67.147928 23.507531
v -8.801300 66.649870 23.754946
v -9.130000 66.668317 23.794091
v -8.801300 66.131561 23.939586
v -9.130000 66.142017 23.981578
v -8.801300 65.587190 24.019561
v -9.130000 65.589253 24.062786
v -8.801300 65.037676 23.991797
v -9.130000 65.031267 24.034595
v -8.801300 64.504138 23.857363
v -9.130000 64.489502 23.898087
v -8.801300 64.007078 23.621423
v -9.130000 63.984779 23.658510
v -8.801300 63.565599 23.293045
v -9.130000 63.536493 23.325069
v -8.801300 63.196666 22.884849
v -9.130000 63.161872 22.910579
v -8.801300 62.914457 22.412521
v -9.130000 62.875312 22.430968
v -8.801300 62.729817 21.894212
v -9.130000 62.687825 21.904668
v -9.130000 62.606617 21.351904
v -8.801300 62.649842 21.349841
v -9.130000 62.634809 20.793918
v -9.130000 62.771316 20.252153
v -8.801300 62.812040 20.266789
v -9.130000 63.010893 19.747430
v -8.801300 63.047980 19.769729
v -9.130000 63.344334 19.299144
v -8.801300 63.376358 19.328250
v -9.130000 63.758824 18.924523
v -8.801300 63.784554 18.959317
v -9.130000 64.238435 18.637962
v -8.801300 64.256882 18.677108
v -9.130000 64.764735 18.450476
v -8.801300 64.775191 18.492468
v -9.130000 65.317499 18.369268
v -8.801300 65.319563 18.412493
v -8.801300 62.649842 21.349841
v -9.130000 62.606617 21.351904
v -8.801300 62.677606 20.800327
v -8.495000 62.803080 20.819118
v -7.903275 64.639706 19.489447
v -8.030148 64.918169 19.066660
v -8.231975 64.854615 18.811428
v -8.030148 65.347774 19.003546
v -8.495000 64.805848 18.615582
v -8.231975 65.335234 18.740820
v -8.495000 65.325611 18.539222
v -7.860000 64.599038 19.886927
v -7.903275 64.318502 19.681362
v -8.030148 64.509132 19.212373
v -8.231975 64.397006 18.974445
v -8.495000 64.310968 18.791875
v -7.903275 64.040910 19.932253
v -8.030148 64.136382 19.435086
v -8.231975 63.979993 19.223604
v -8.495000 63.859991 19.061328
v -8.030148 63.368898 20.466911
v -8.030148 63.555096 20.074644
v -8.231974 63.121371 20.377956
v -8.231975 63.329680 19.939107
v -8.030148 63.814243 19.726239
v -8.495000 63.156712 19.835107
v -8.231974 63.619601 19.549330
v -8.495000 63.470246 19.413584
v -8.030148 63.262805 20.887967
v -8.231974 63.002681 20.849010
v -8.495000 62.931438 20.309698
v -7.903275 63.546847 21.307026
v -8.030148 63.240895 21.321630
v -8.231974 62.978169 21.334170
v -8.495000 62.776572 21.343792
v -7.903274 63.601233 21.677223
v -7.860001 63.875173 21.291355
v -7.860001 63.948445 21.697258
v -7.903274 63.726796 22.029697
v -8.030148 63.304009 21.751234
v -7.903275 63.546847 21.307026
v -8.030148 63.449722 22.160271
v -8.231974 63.211794 22.272397
v -8.231974 63.048778 21.814788
v -8.495000 63.029224 22.358435
v -8.495000 62.852931 21.863556
v -7.860000 64.124276 22.070365
v -7.903274 63.918711 22.350901
v -8.030148 63.672435 22.533021
v -8.231975 63.460953 22.689411
v -8.495000 63.298677 22.809413
v -7.903275 64.169602 22.628493
v -8.030148 63.963588 22.855160
v -8.231974 63.786679 23.049802
v -8.495000 63.650933 23.199157
v -8.030148 64.704260 23.300505
v -8.030148 64.311993 23.114307
v -8.231974 64.615305 23.548032
v -8.231975 64.176457 23.339723
v -8.495000 64.072456 23.512691
v -8.495000 64.547047 23.737966
v -8.030148 65.125316 23.406598
v -8.231975 65.086360 23.666723
v -8.495000 65.056467 23.866323
v -7.903275 65.544375 23.122556
v -8.030148 65.558979 23.428508
v -8.231975 65.571519 23.691234
v -8.495000 65.581141 23.892832
v -7.903274 65.914572 23.068170
v -7.860000 65.934607 22.720958
v -7.903275 66.267046 22.942607
v -8.030148 66.397620 23.219681
v -8.030148 65.988583 23.365394
v -8.231974 66.509746 23.457609
v -8.231974 66.052138 23.620626
v -8.495000 66.595784 23.640179
v -8.495000 66.100905 23.816472
v -7.860000 66.307714 22.545127
v -7.903275 66.588250 22.750692
v -8.030148 66.770370 22.996968
v -8.231975 66.926760 23.208450
v -8.495000 67.046762 23.370726
v -7.903275 66.865842 22.499801
v -8.030148 67.092509 22.705815
v -8.231974 67.287152 22.882724
v -8.495000 67.436506 23.018470
v -8.030148 67.537854 21.965143
v -8.030148 67.351656 22.357410
v -8.231974 67.785381 22.054098
v -8.495000 67.750040 22.596947
v -8.231974 67.577072 22.492947
v -8.495000 67.975315 22.122356
v -8.030148 67.643947 21.544087
v -8.231974 67.904072 21.583044
v -8.495000 68.103673 21.612936
v -7.903275 67.359906 21.125028
v -8.030148 67.665857 21.110424
v -8.231975 67.928584 21.097884
v -8.495000 68.130181 21.088262
v -7.903274 67.305519 20.754831
v -7.860000 66.958307 20.734796
v -7.903275 67.179956 20.402357
v -8.030148 67.457030 20.271783
v -8.030148 67.602743 20.680820
v -8.231974 67.694959 20.159657
v -8.231974 67.857975 20.617265
v -8.495000 67.877528 20.073619
v -8.495000 68.053821 20.568498
v -7.860001 66.782476 20.361689
v -7.903275 66.988041 20.081153
v -8.030148 67.234317 19.899033
v -8.231975 67.445799 19.742643
v -8.495000 67.608076 19.622641
v -7.903275 66.737150 19.803561
v -8.030148 66.943164 19.576894
v -8.231975 67.120073 19.382252
v -8.495000 67.255820 19.232897
v -8.030148 66.202492 19.131549
v -8.030148 66.594760 19.317747
v -8.231974 66.291448 18.884022
v -8.495000 66.834297 18.919363
v -8.231975 66.730296 19.092331
v -8.495000 66.359706 18.694088
v -8.030148 65.781436 19.025456
v -8.231975 65.820393 18.765331
v -8.495001 65.850285 18.565731
v -7.860000 65.982394 20.189638
v -7.860001 65.378048 19.637824
v -7.860000 65.789084 19.672103
v -7.860001 66.177242 19.811599
v -7.860001 66.782476 20.361689
v -7.860000 66.606763 21.160975
v -7.860000 66.516069 20.046804
v -7.860000 64.829006 20.244690
v -7.860000 64.048948 20.492161
v -7.860000 64.284153 20.153334
v -7.860000 64.599038 19.886927
v -7.860000 64.972146 19.711096
v -7.860001 64.299989 21.271079
v -7.860000 64.124276 22.070365
v -7.860001 63.948445 21.697258
v -7.860001 63.875173 21.291355
v -7.860001 63.909453 20.880319
v -7.860000 64.924359 22.242416
v -7.860000 65.528704 22.794230
v -7.860000 65.117668 22.759950
v -7.860000 64.729511 22.620455
v -7.860000 64.390683 22.385250
v -7.860000 66.077746 22.187364
v -7.860001 66.857804 21.939892
v -7.860000 66.622599 22.278720
v -7.860000 66.307714 22.545127
v -7.860000 65.934607 22.720958
v -7.860000 66.958307 20.734796
v -7.860000 67.031579 21.140699
v -7.860000 66.997300 21.551735
v -8.900000 66.077746 22.187364
v -8.968212 66.217252 21.916697
v -7.860000 66.077746 22.187364
v -8.900000 64.924359 22.242416
v -8.968212 65.228516 22.227898
v -7.860000 64.924359 22.242416
v -19.203274 65.524891 22.714321
v -9.510001 64.764735 18.450476
v -9.510000 64.966054 19.692046
v -9.510001 64.238435 18.637962
v -9.510000 64.588224 19.870103
v -9.510000 63.758824 18.924523
v -9.510000 64.269353 20.139882
v -9.510000 63.344334 19.299144
v -9.510000 63.010894 19.747430
v -9.510000 64.031170 20.482999
v -9.510000 62.771316 20.252153
v -9.510000 63.889909 20.876070
v -9.510000 62.634809 20.793918
v -9.510000 63.855196 21.292309
v -9.510000 62.606617 21.351904
v -9.510000 62.687825 21.904668
v -9.510000 63.929396 21.703349
v -9.510000 62.875312 22.430968
v -9.510000 64.107452 22.081179
v -9.510000 63.161872 22.910579
v -9.510000 64.377231 22.400050
v -9.510000 63.536493 23.325069
v -9.510000 63.984779 23.658510
v -9.510000 64.720348 22.638233
v -9.510000 64.489502 23.898087
v -9.510000 65.113419 22.779494
v -9.510000 65.031267 24.034595
v -9.510000 65.529658 22.814207
v -9.510000 65.589253 24.062786
v -9.510000 66.142017 23.981578
v -9.510000 65.940698 22.740008
v -9.510000 66.668317 23.794091
v -9.510000 66.318528 22.561951
v -9.510000 67.147928 23.507531
v -9.510000 66.637400 22.292172
v -9.510000 67.562418 23.132910
v -9.510000 67.895859 22.684624
v -9.510000 66.875582 21.949055
v -9.510000 68.135436 22.179901
v -9.510000 67.016843 21.555984
v -9.510000 68.271944 21.638136
v -9.510000 67.051557 21.139745
v -9.510000 68.300135 21.080150
v -9.510000 68.218927 20.527386
v -9.510000 66.977357 20.728705
v -9.510000 68.031441 20.001086
v -9.510000 66.799300 20.350875
v -9.510000 67.744881 19.521475
v -9.510000 66.529521 20.032004
v -9.510000 67.370259 19.106985
v -9.510000 66.921973 18.773544
v -9.510000 66.186405 19.793821
v -9.510000 66.417250 18.533967
v -9.510000 65.793333 19.652560
v -19.203274 64.996512 19.787295
v -19.510000 65.089933 20.079447
v -19.203274 65.381862 19.717733
v -19.509999 64.808149 20.212241
v -19.509999 65.396486 20.024109
v -19.203274 65.381862 19.717733
v -19.509999 65.396486 20.024109
v -19.203275 65.772086 19.750277
v -19.510000 65.706915 20.049998
v -19.203274 66.140591 19.882709
v -19.509999 66.000067 20.155350
v -19.203274 66.462262 20.106005
v -19.510000 66.255962 20.332986
v -19.203274 66.715180 20.404947
v -19.510000 66.457162 20.570799
v -19.203274 66.882108 20.759163
v -19.509999 66.589957 20.852584
v -19.203275 66.951671 21.144513
v -19.509999 66.645294 21.159136
v -19.203274 66.919127 21.534737
v -19.509999 66.619405 21.469566
v -19.203274 66.786694 21.903241
v -19.510000 66.514053 21.762717
v -19.203274 66.563399 22.224913
v -19.509999 66.336418 22.018612
v -19.203274 66.264457 22.477831
v -19.509999 66.098604 22.219813
v -19.203275 65.910241 22.644759
v -19.509999 65.816820 22.352607
v -19.203274 65.524891 22.714321
v -19.509999 65.510267 22.407945
v -19.203274 65.134667 22.681777
v -19.509999 65.199838 22.382056
v -19.203275 64.766162 22.549345
v -19.509999 64.906686 22.276704
v -19.203275 64.444491 22.326049
v -19.509999 64.650791 22.099068
v -19.203275 64.191573 22.027107
v -19.509999 64.449591 21.861255
v -19.203274 64.024645 21.672891
v -19.510000 64.316796 21.579470
v -19.203274 63.955082 21.287541
v -19.510000 64.261459 21.272918
v -19.203274 63.987626 20.897317
v -19.510000 64.287348 20.962488
v -19.203275 64.120059 20.528813
v -19.509999 64.392700 20.669337
v -19.203275 64.343354 20.207141
v -19.509999 64.570335 20.413441
v -19.203275 64.642296 19.954223
v -19.509999 65.396486 20.024109
v -19.510000 65.089933 20.079447
v -19.510000 65.706915 20.049998
v -19.509999 66.000067 20.155350
v -19.509999 64.808149 20.212241
v -19.510000 66.255962 20.332986
v -19.509999 64.570335 20.413441
v -19.510000 66.457162 20.570799
v -19.509999 64.392700 20.669337
v -19.509999 66.589957 20.852584
v -19.510000 64.287348 20.962488
v -19.509999 66.645294 21.159136
v -19.510000 64.261459 21.272918
v -19.509999 66.619405 21.469566
v -19.510000 64.316796 21.579470
v -19.510000 66.514053 21.762717
v -19.509999 64.449591 21.861255
v -19.509999 66.336418 22.018612
v -19.509999 64.650791 22.099068
v -19.509999 66.098604 22.219813
v -19.509999 64.906686 22.276704
v -19.509999 65.816820 22.352607
v -19.509999 65.199838 22.382056
v -19.509999 65.510267 22.407945
v -8.495000 62.776572 21.343792
v -8.231974 62.978169 21.334170
v -8.030148 63.240895 21.321630
v -9.510000 65.875485 18.397459
v -9.130000 65.875485 18.397459
v -9.510000 65.317499 18.369268
v -9.130000 66.417250 18.533967
v -9.130000 65.317499 18.369268
v -9.510001 64.764735 18.450476
v -9.130000 64.764735 18.450476
v -9.510001 64.238435 18.637962
v -9.130000 64.238435 18.637962
v -9.510000 63.758824 18.924523
v -9.130000 63.758824 18.924523
v -9.510000 63.344334 19.299144
v -9.130000 63.344334 19.299144
v -9.510000 63.010894 19.747430
v -9.130000 63.010893 19.747430
v -9.510000 62.771316 20.252153
v -9.130000 62.771316 20.252153
v -9.510000 62.634809 20.793918
v -9.130000 62.634809 20.793918
v -9.510000 62.606617 21.351904
v -9.130000 62.606617 21.351904
v -9.510000 62.687825 21.904668
v -9.130000 62.687825 21.904668
v -9.510000 62.875312 22.430968
v -9.130000 62.875312 22.430968
v -9.510000 63.161872 22.910579
v -9.130000 63.161872 22.910579
v -9.510000 63.536493 23.325069
v -9.130000 63.536493 23.325069
v -9.510000 63.984779 23.658510
v -9.130000 63.984779 23.658510
v -9.510000 64.489502 23.898087
v -9.130000 64.489502 23.898087
v -9.510000 65.031267 24.034595
v -9.130000 65.031267 24.034595
v -9.510000 65.589253 24.062786
v -9.130000 65.589253 24.062786
v -9.510000 65.589253 24.062786
v -9.130000 65.589253 24.062786
v -9.510000 66.142017 23.981578
v -9.130000 66.142017 23.981578
v -9.510000 66.668317 23.794091
v -9.130000 66.668317 23.794091
v -9.510000 67.147928 23.507531
v -9.130000 67.147928 23.507531
v -9.510000 67.562418 23.132910
v -9.130000 67.562418 23.132910
v -9.510000 67.895859 22.684624
v -9.130000 67.895859 22.684624
v -9.510000 68.135436 22.179901
v -9.130000 68.135436 22.179901
v -9.510000 68.271944 21.638136
v -9.130000 68.271944 21.638136
v -9.510000 68.300135 21.080150
v -9.130000 68.300135 21.080150
v -9.510000 68.218927 20.527386
v -9.130000 68.218927 20.527386
v -9.510000 68.031441 20.001086
v -9.130000 68.031441 20.001086
v -9.510000 67.744881 19.521475
v -9.130000 67.744881 19.521475
v -9.510000 67.370259 19.106985
v -9.130000 67.370259 19.106985
v -9.510000 66.921973 18.773544
v -9.130000 66.921973 18.773544
v -9.510000 66.417250 18.533967
v -8.989316 66.342255 21.674170
v -7.860000 66.606763 21.160975
v -8.968212 66.467257 21.431642
v -8.900000 66.606763 21.160975
v -8.900000 66.606763 21.160975
v -8.968212 66.442112 20.904826
v -7.860000 66.606763 21.160975
v -8.989316 66.294579 20.675307
v -7.860000 65.982394 20.189638
v -8.968212 66.147045 20.445788
v -8.900000 65.982394 20.189638
v -8.900000 65.982394 20.189638
v -8.968212 65.678236 20.204156
v -7.860000 65.982394 20.189638
v -8.989317 65.405700 20.217164
v -7.860000 64.829006 20.244690
v -8.968212 65.133164 20.230172
v -8.900000 64.829006 20.244690
v -8.900000 64.829006 20.244690
v -8.968212 64.689500 20.515357
v -7.860000 64.829006 20.244690
v -8.989317 64.564498 20.757884
v -7.860001 64.299989 21.271079
v -8.968212 64.439495 21.000412
v -8.900000 64.299989 21.271079
v -8.989317 65.501052 22.214890
v -7.860000 66.077746 22.187364
v -8.968212 65.773588 22.201881
v -8.900000 66.077746 22.187364
v -8.900000 64.299989 21.271079
v -8.968212 64.464640 21.527228
v -7.860001 64.299989 21.271079
v -8.989317 64.612174 21.756747
v -7.860000 64.924359 22.242416
v -8.968212 64.759707 21.986266
v -8.900000 64.924359 22.242416
v -8.968212 64.439495 21.000412
v -9.566667 65.453376 21.216027
v -8.900000 64.299989 21.271079
v -8.989317 64.564498 20.757884
v -9.566667 65.453376 21.216027
v -8.968212 64.464640 21.527228
v -8.900000 64.829006 20.244690
v -9.566667 65.453376 21.216027
v -8.968212 64.689500 20.515357
v -8.968212 65.133164 20.230172
v -9.566667 65.453376 21.216027
v -9.566667 65.453376 21.216027
v -8.989317 65.405700 20.217164
v -8.900000 65.982394 20.189638
v -9.566667 65.453376 21.216027
v -8.968212 65.678236 20.204156
v -8.968212 66.147045 20.445788
v -9.566667 65.453376 21.216027
v -9.566667 65.453376 21.216027
v -8.989316 66.294579 20.675307
v -8.900000 66.606763 21.160975
v -9.566667 65.453376 21.216027
v -8.968212 66.442112 20.904826
v -8.968212 66.467257 21.431642
v -9.566667 65.453376 21.216027
v -9.566667 65.453376 21.216027
v -8.989316 66.342255 21.674170
v -8.900000 66.077746 22.187364
v -9.566667 65.453376 21.216027
v -8.968212 66.217252 21.916697
v -8.968212 65.773588 22.201881
v -9.566667 65.453376 21.216027
v -9.566667 65.453376 21.216027
v -8.989317 65.501052 22.214890
v -8.900000 64.924359 22.242416
v -9.566667 65.453376 21.216027
v -8.968212 65.228516 22.227898
v -8.968212 64.759707 21.986266
v -9.566667 65.453376 21.216027
v -9.566667 65.453376 21.216027
v -8.989317 65.501052 22.214890
v -8.989317 64.612174 21.756747
v -9.566667 65.453376 21.216027
f 1 2 3
f 1 3 4
f 1 5 2
f 2 5 55
f 2 56 3
f 2 57 56
f 2 55 57
f 3 40 4
f 3 59 40
f 3 56 59
f 4 40 39
f 5 69 55
f 6 7 8
f 6 9 7
f 7 9 10
f 7 96 8
f 7 97 96
f 7 10 97
f 8 96 99
f 9 11 10
f 10 11 12
f 10 110 97
f 10 12 110
f 11 13 12
f 12 13 14
f 12 115 110
f 12 14 115
f 13 15 14
f 14 15 16
f 14 120 115
f 14 16 120
f 15 17 16
f 16 17 18
f 16 125 120
f 16 18 125
f 17 19 18
f 18 19 20
f 18 130 125
f 18 20 130
f 19 21 20
f 20 21 22
f 20 135 130
f 20 22 135
f 21 23 22
f 22 23 24
f 22 140 135
f 22 24 140
f 23 25 24
f 24 25 26
f 24 145 140
f 24 26 145
f 25 27 26
f 26 27 28
f 26 150 145
f 26 28 150
f 27 29 28
f 28 29 30
f 28 155 150
f 28 30 155
f 29 31 30
f 30 31 32
f 30 160 155
f 30 32 160
f 31 33 32
f 32 33 34
f 32 165 160
f 32 34 165
f 33 35 34
f 34 35 36
f 34 170 165
f 34 36 170
f 35 37 36
f 36 37 38
f 36 175 170
f 36 38 175
f 37 39 38
f 38 39 40
f 38 68 175
f 38 40 68
f 40 59 68
f 41 42 43
f 41 43 44
f 41 45 42
f 42 45 65
f 42 64 43
f 42 67 64
f 42 65 67
f 43 54 44
f 43 64 61
f 43 61 54
f 44 54 53
f 45 180 65
f 46 47 48
f 46 49 47
f 46 48 95
f 47 49 50
f 47 50 78
f 47 78 83
f 47 83 48
f 48 88 94
f 48 94 95
f 48 83 88
f 49 51 50
f 50 51 52
f 50 52 73
f 50 73 78
f 51 53 52
f 52 53 54
f 52 54 63
f 52 63 73
f 54 61 63
f 55 69 70
f 55 71 57
f 55 70 71
f 56 58 59
f 56 60 58
f 56 57 60
f 57 72 60
f 57 71 72
f 58 61 62
f 58 63 61
f 58 62 59
f 58 60 63
f 59 62 68
f 60 73 63
f 60 72 73
f 61 64 62
f 62 64 66
f 62 66 68
f 64 67 66
f 65 178 177
f 65 177 67
f 65 180 178
f 66 176 175
f 66 175 68
f 66 67 176
f 67 177 176
f 69 74 70
f 70 74 75
f 70 76 71
f 70 75 76
f 71 77 72
f 71 76 77
f 72 78 73
f 72 77 78
f 74 79 75
f 75 79 80
f 75 81 76
f 75 80 81
f 76 82 77
f 76 81 82
f 77 83 78
f 77 82 83
f 79 84 80
f 80 84 85
f 80 86 81
f 80 85 86
f 81 87 82
f 81 86 87
f 82 88 83
f 82 87 88
f 84 91 85
f 85 89 90
f 85 90 86
f 85 91 89
f 86 90 92
f 86 92 87
f 87 92 93
f 87 93 88
f 88 93 94
f 96 98 99
f 96 100 98
f 96 97 100
f 97 111 100
f 97 110 111
f 98 101 102
f 98 103 101
f 98 100 103
f 98 102 99
f 100 112 103
f 100 111 112
f 101 104 105
f 101 105 106
f 101 103 104
f 101 106 102
f 103 113 104
f 103 112 113
f 104 114 107
f 104 107 105
f 104 113 114
f 105 107 108
f 105 108 109
f 105 109 106
f 110 116 111
f 110 115 116
f 111 117 112
f 111 116 117
f 112 118 113
f 112 117 118
f 113 119 114
f 113 118 119
f 115 121 116
f 115 120 121
f 116 122 117
f 116 121 122
f 117 123 118
f 117 122 123
f 118 124 119
f 118 123 124
f 120 126 121
f 120 125 126
f 121 127 122
f 121 126 127
f 122 128 123
f 122 127 128
f 123 129 124
f 123 128 129
f 125 131 126
f 125 130 131
f 126 132 127
f 126 131 132
f 127 133 128
f 127 132 133
f 128 134 129
f 128 133 134
f 130 136 131
f 130 135 136
f 131 137 132
f 131 136 137
f 132 138 133
f 132 137 138
f 133 139 134
f 133 138 139
f 135 141 136
f 135 140 141
f 136 142 137
f 136 141 142
f 137 143 138
f 137 142 143
f 138 144 139
f 138 143 144
f 140 146 141
f 140 145 146
f 141 147 142
f 141 146 147
f 142 148 143
f 142 147 148
f 143 149 144
f 143 148 149
f 145 151 146
f 145 150 151
f 146 152 147
f 146 151 152
f 147 153 148
f 147 152 153
f 148 154 149
f 148 153 154
f 150 156 151
f 150 155 156
f 151 157 152
f 151 156 157
f 152 158 153
f 152 157 158
f 153 159 154
f 153 158 159
f 155 161 156
f 155 160 161
f 156 162 157
f 156 161 162
f 157 163 158
f 157 162 163
f 158 164 159
f 158 163 164
f 160 166 161
f 160 165 166
f 161 167 162
f 161 166 167
f 162 168 163
f 162 167 168
f 163 169 164
f 163 168 169
f 165 171 166
f 165 170 171
f 166 172 167
f 166 171 172
f 167 173 168
f 167 172 173
f 168 174 169
f 168 173 174
f 170 176 171
f 170 175 176
f 171 177 172
f 171 176 177
f 172 178 173
f 172 177 178
f 173 179 174
f 173 178 179
f 178 180 179
f 181 182 183
f 181 183 184
f 181 185 182
f 182 185 186
f 183 229 184
f 184 229 228
f 185 187 186
f 186 187 188
f 187 189 188
f 188 189 190
f 189 191 190
f 190 191 192
f 191 193 192
f 192 193 194
f 193 195 194
f 194 195 196
f 195 197 196
f 196 197 198
f 197 199 198
f 198 199 200
f 199 201 200
f 200 201 202
f 201 203 202
f 202 203 204
f 203 205 204
f 204 205 206
f 205 489 206
f 207 208 209
f 207 210 208
f 208 210 211
f 210 212 211
f 211 212 213
f 212 214 213
f 213 214 215
f 214 216 215
f 215 216 217
f 216 218 217
f 217 218 219
f 218 220 219
f 219 220 221
f 220 222 221
f 221 222 223
f 222 224 223
f 223 224 225
f 224 226 225
f 225 226 227
f 226 228 227
f 227 228 229
f 230 231 232
f 230 542 541
f 230 232 542
f 231 490 232
f 232 490 491
f 233 234 235
f 233 235 236
f 233 237 234
f 233 236 262
f 234 237 331
f 234 332 235
f 234 331 340
f 234 340 332
f 235 332 334
f 235 334 236
f 236 263 262
f 236 450 263
f 236 334 450
f 237 338 331
f 238 239 240
f 238 339 338
f 238 343 339
f 238 240 343
f 239 241 242
f 239 242 240
f 240 242 347
f 240 347 348
f 240 348 343
f 241 243 244
f 241 244 242
f 242 244 355
f 242 355 347
f 243 358 244
f 244 358 359
f 244 359 355
f 245 246 247
f 245 374 373
f 245 378 374
f 245 247 378
f 246 248 249
f 246 249 247
f 247 249 382
f 247 382 383
f 247 383 378
f 248 250 251
f 248 251 249
f 249 251 388
f 249 388 382
f 250 391 251
f 250 396 395
f 250 395 391
f 251 391 392
f 251 392 388
f 252 253 254
f 252 405 404
f 252 409 405
f 252 254 409
f 253 255 256
f 253 256 254
f 254 256 413
f 254 413 414
f 254 414 409
f 255 257 258
f 255 258 256
f 256 258 419
f 256 419 413
f 257 422 258
f 257 427 426
f 257 426 422
f 258 422 423
f 258 423 419
f 259 260 261
f 259 436 435
f 259 440 436
f 259 261 440
f 260 262 263
f 260 263 261
f 261 263 444
f 261 444 445
f 261 445 440
f 263 450 444
f 264 265 266
f 264 267 265
f 264 266 325
f 265 267 268
f 265 447 449
f 265 268 447
f 265 449 266
f 266 452 326
f 266 326 325
f 266 449 452
f 267 269 268
f 268 269 270
f 268 270 443
f 268 443 447
f 269 271 270
f 270 271 272
f 270 439 443
f 270 272 439
f 271 273 272
f 272 273 274
f 272 433 439
f 272 274 433
f 273 275 274
f 274 275 276
f 274 434 433
f 274 276 434
f 275 277 276
f 276 277 278
f 276 278 425
f 276 425 434
f 277 279 278
f 278 279 280
f 278 421 425
f 278 280 421
f 279 281 280
f 280 281 282
f 280 282 418
f 280 418 421
f 281 283 282
f 282 283 284
f 282 416 418
f 282 284 416
f 283 285 284
f 284 285 286
f 284 286 412
f 284 412 416
f 285 287 286
f 286 287 288
f 286 408 412
f 286 288 408
f 287 289 288
f 288 289 290
f 288 402 408
f 288 290 402
f 289 291 290
f 290 291 292
f 290 403 402
f 290 292 403
f 291 293 292
f 292 293 294
f 292 294 394
f 292 394 403
f 293 295 294
f 294 295 296
f 294 390 394
f 294 296 390
f 295 297 296
f 296 297 298
f 296 298 387
f 296 387 390
f 297 299 298
f 298 299 300
f 298 386 387
f 298 300 386
f 299 301 300
f 300 301 302
f 300 381 386
f 300 302 381
f 301 303 302
f 302 303 304
f 302 377 381
f 302 304 377
f 303 305 304
f 304 305 306
f 304 371 377
f 304 306 371
f 305 307 306
f 306 307 308
f 306 372 371
f 306 308 372
f 307 309 308
f 308 311 617
f 308 309 311
f 308 617 372
f 309 310 311
f 312 313 314
f 312 314 329
f 312 329 328
f 313 315 316
f 313 316 314
f 314 352 357
f 314 316 352
f 314 357 329
f 315 317 318
f 315 318 316
f 316 354 352
f 316 318 354
f 317 319 320
f 317 320 318
f 318 320 346
f 318 346 354
f 319 321 322
f 319 322 320
f 320 342 346
f 320 322 342
f 321 323 324
f 321 324 322
f 322 335 342
f 322 324 335
f 323 325 326
f 323 326 324
f 324 337 335
f 324 326 337
f 326 452 337
f 327 328 329
f 327 329 330
f 327 330 361
f 329 357 330
f 330 349 356
f 330 356 361
f 330 357 349
f 331 338 339
f 331 339 344
f 331 344 340
f 332 333 334
f 332 340 341
f 332 341 333
f 333 335 336
f 333 336 334
f 333 341 342
f 333 342 335
f 334 336 450
f 335 337 336
f 336 451 450
f 336 337 451
f 337 452 451
f 339 351 344
f 339 343 351
f 340 344 345
f 340 345 341
f 341 345 346
f 341 346 342
f 343 348 351
f 344 353 345
f 344 351 353
f 345 354 346
f 345 353 354
f 347 349 348
f 347 355 356
f 347 356 349
f 348 350 351
f 348 349 350
f 349 357 350
f 350 352 353
f 350 353 351
f 350 357 352
f 352 354 353
f 355 359 360
f 355 360 356
f 356 360 361
f 362 363 364
f 362 364 365
f 362 366 367
f 362 368 366
f 362 365 368
f 362 367 363
f 364 373 365
f 365 373 374
f 365 375 368
f 365 374 375
f 366 368 369
f 366 369 370
f 366 619 367
f 366 370 619
f 368 376 369
f 368 375 376
f 369 371 370
f 369 376 377
f 369 377 371
f 370 371 372
f 370 618 619
f 370 372 618
f 372 617 618
f 374 379 375
f 374 378 379
f 375 380 376
f 375 379 380
f 376 381 377
f 376 380 381
f 378 383 379
f 379 383 385
f 379 385 380
f 380 385 386
f 380 386 381
f 382 384 383
f 382 388 389
f 382 389 384
f 383 384 385
f 384 389 390
f 384 387 385
f 384 390 387
f 385 387 386
f 388 392 393
f 388 393 389
f 389 393 394
f 389 394 390
f 391 399 392
f 391 395 399
f 392 401 393
f 392 399 401
f 393 403 394
f 393 401 403
f 395 396 397
f 395 397 398
f 395 398 399
f 396 404 397
f 397 404 405
f 397 405 406
f 397 406 398
f 398 400 399
f 398 406 407
f 398 407 400
f 399 400 401
f 400 402 401
f 400 407 408
f 400 408 402
f 401 402 403
f 405 409 410
f 405 410 406
f 406 410 411
f 406 411 407
f 407 411 412
f 407 412 408
f 409 414 410
f 410 417 411
f 410 414 417
f 411 416 412
f 411 417 416
f 413 415 414
f 413 419 420
f 413 420 415
f 414 415 417
f 415 420 421
f 415 418 417
f 415 421 418
f 416 417 418
f 419 423 424
f 419 424 420
f 420 424 425
f 420 425 421
f 422 430 423
f 422 426 430
f 423 432 424
f 423 430 432
f 424 434 425
f 424 432 434
f 426 427 428
f 426 428 429
f 426 429 430
f 427 435 428
f 428 435 436
f 428 436 437
f 428 437 429
f 429 431 430
f 429 437 438
f 429 438 431
f 430 431 432
f 431 433 432
f 431 438 439
f 431 439 433
f 432 433 434
f 436 440 441
f 436 441 437
f 437 441 442
f 437 442 438
f 438 442 443
f 438 443 439
f 440 445 441
f 441 448 442
f 441 445 448
f 442 447 443
f 442 448 447
f 444 446 445
f 444 450 451
f 444 451 446
f 445 446 448
f 446 451 452
f 446 449 448
f 446 452 449
f 447 448 449
f 453 454 455
f 453 455 456
f 453 457 458
f 453 459 457
f 453 460 454
f 453 456 459
f 454 460 464
f 457 480 458
f 458 476 475
f 458 480 481
f 458 482 476
f 458 481 482
f 460 461 462
f 460 462 463
f 460 465 461
f 460 463 464
f 461 465 469
f 465 466 467
f 465 467 468
f 465 470 466
f 465 468 469
f 466 470 474
f 470 471 472
f 470 472 473
f 470 475 471
f 470 473 474
f 471 475 479
f 475 476 477
f 475 477 478
f 475 478 479
f 483 484 485
f 484 686 485
f 485 686 687
f 486 487 488
f 487 711 488
f 488 711 712
f 490 492 491
f 491 492 493
f 492 494 493
f 493 494 495
f 494 496 495
f 495 496 497
f 495 497 498
f 497 499 498
f 498 499 500
f 499 501 500
f 500 501 502
f 501 503 502
f 502 503 504
f 502 504 505
f 504 506 505
f 505 506 507
f 506 508 507
f 507 508 509
f 508 510 509
f 509 510 511
f 509 511 512
f 511 513 512
f 512 513 514
f 513 515 514
f 514 515 516
f 515 517 516
f 516 517 518
f 516 518 519
f 518 520 519
f 519 520 521
f 520 522 521
f 521 522 523
f 522 524 523
f 523 524 525
f 523 525 526
f 525 527 526
f 526 527 528
f 527 529 528
f 528 529 530
f 529 531 530
f 530 531 532
f 530 532 533
f 532 534 533
f 533 534 535
f 534 536 535
f 535 536 537
f 536 538 537
f 537 538 539
f 537 539 540
f 539 541 540
f 540 541 542
f 543 544 545
f 543 546 544
f 543 592 546
f 544 547 545
f 546 592 591
f 548 549 550
f 549 551 550
f 550 551 552
f 551 553 552
f 552 553 554
f 553 555 554
f 554 555 556
f 555 557 556
f 556 557 558
f 557 559 558
f 558 559 560
f 559 561 560
f 560 561 562
f 561 563 562
f 562 563 564
f 563 565 564
f 564 565 566
f 565 567 566
f 566 567 568
f 567 569 568
f 568 569 570
f 569 571 570
f 570 571 572
f 571 573 572
f 572 573 574
f 573 575 574
f 574 575 576
f 575 577 576
f 576 577 578
f 577 579 578
f 578 579 580
f 579 581 580
f 580 581 582
f 581 583 582
f 582 583 584
f 583 585 584
f 584 585 586
f 585 587 586
f 586 587 588
f 587 589 588
f 588 589 590
f 589 591 590
f 590 591 592
f 593 594 595
f 594 596 595
f 594 597 596
f 596 597 598
f 597 599 598
f 598 599 600
f 599 601 600
f 600 601 602
f 601 603 602
f 602 603 604
f 603 605 604
f 604 605 606
f 605 607 606
f 606 607 608
f 607 609 608
f 608 609 610
f 609 611 610
f 610 611 612
f 611 613 612
f 612 613 614
f 613 615 614
f 614 615 616
f 620 621 622
f 620 623 621
f 620 685 623
f 621 624 622
f 622 624 625
f 623 685 684
f 624 626 625
f 625 626 627
f 626 628 627
f 627 628 629
f 628 630 629
f 629 630 631
f 630 632 631
f 631 632 633
f 632 634 633
f 633 634 635
f 634 636 635
f 635 636 637
f 636 638 637
f 637 638 639
f 638 640 639
f 639 640 641
f 640 642 641
f 641 642 643
f 642 644 643
f 643 644 645
f 644 646 645
f 645 646 647
f 646 648 647
f 647 648 649
f 648 650 649
f 649 650 651
f 650 652 651
f 651 652 653
f 652 654 653
f 653 654 655
f 654 656 655
f 657 658 659
f 658 660 659
f 659 660 661
f 660 662 661
f 661 662 663
f 662 664 663
f 663 664 665
f 664 666 665
f 665 666 667
f 666 668 667
f 667 668 669
f 668 670 669
f 669 670 671
f 670 672 671
f 671 672 673
f 672 674 673
f 673 674 675
f 674 676 675
f 675 676 677
f 676 678 677
f 677 678 679
f 678 680 679
f 679 680 681
f 680 682 681
f 681 682 683
f 682 684 683
f 683 684 685
f 686 688 687
f 687 688 689
f 690 691 692
f 691 693 692
f 692 693 694
f 693 695 694
f 694 695 696
f 697 698 699
f 698 700 699
f 699 700 701
f 700 702 701
f 701 702 703
f 704 705 706
f 705 707 706
f 706 707 708
f 707 709 708
f 708 709 710
f 711 713 712
f 712 713 714
f 715 716 717
f 716 718 717
f 717 718 719
f 718 720 719
f 719 720 721
f 722 723 724
f 722 725 723
f 724 726 727
f 725 730 733
f 727 764 763
f 728 729 730
f 728 731 732
f 731 734 732
f 734 737 740
f 735 736 737
f 735 738 739
f 738 741 739
f 741 744 747
f 742 743 744
f 742 745 746
f 745 748 746
f 748 751 754
f 749 750 751
f 749 752 753
f 752 755 753
f 756 757 758
f 756 759 760
f 758 761 762
f 759 763 760