# ANSI B18.3.4M - M3 x 0.5 x 8(1)
# Autodesk dbId: 30
# Units: mm
o 030_ANSI_B18.3.4M_-_M3_x_0.5_x_8(1)
v 19.589999 23.282809 -74.647463
v 19.586591 23.186628 -74.610602
v 19.586592 23.581144 -74.617650
v 19.589999 23.699967 -74.626502
v 19.589999 22.874441 -74.559742
v 19.589999 21.816987 -72.923698
v 19.586592 21.923632 -72.539577
v 19.586592 21.842784 -72.925785
v 19.589999 21.904708 -72.515330
v 19.586592 22.097986 -72.185610
v 19.589999 22.095134 -72.143580
v 19.586592 22.354890 -71.886123
v 19.589999 22.375287 -71.833784
v 19.586592 22.678202 -71.659934
v 19.589999 22.726075 -71.607052
v 19.586592 23.047608 -71.521256
v 19.589999 23.123593 -71.478837
v 19.586592 23.439896 -71.478802
v 19.590000 23.540751 -71.457876
v 19.586592 23.830418 -71.535240
v 19.589999 23.949119 -71.545597
v 19.586592 24.194635 -71.687024
v 19.589999 24.320869 -71.736023
v 19.586592 24.509662 -71.924617
v 19.589999 24.630666 -72.016176
v 19.586592 24.755705 -72.233088
v 19.590000 24.857397 -72.366965
v 19.586592 24.917305 -72.593058
v 19.589999 24.985613 -72.764483
v 19.586592 24.984307 -72.981906
v 19.589999 25.006574 -73.181640
v 19.586592 24.952501 -73.375201
v 19.589999 24.918852 -73.590009
v 19.586592 24.823886 -73.748230
v 19.589999 24.728427 -73.961758
v 19.586592 24.606544 -74.077554
v 19.589999 24.448273 -74.271555
v 19.586592 24.314129 -74.342481
v 19.589999 24.097485 -74.498287
v 19.586592 23.965017 -74.526364
v 19.489999 23.290870 -74.547788
v 19.515881 23.573536 -74.547350
v 19.515881 23.196742 -74.540618
v 19.489999 22.908025 -74.465550
v 19.489999 23.681955 -74.528137
v 19.489999 21.936312 -73.322844
v 19.515881 22.040240 -73.668389
v 19.515881 21.930206 -73.307957
v 19.489999 22.056514 -73.695517
v 19.515881 22.236453 -73.990134
v 19.489999 22.269075 -74.024382
v 19.515881 22.506516 -74.252973
v 19.489999 22.559509 -74.287025
v 19.515881 22.833460 -74.440394
v 19.586591 22.806259 -74.505664
v 19.576602 23.190078 -74.586732
v 19.576602 22.815537 -74.483401
v 19.560710 23.193040 -74.566234
v 19.576602 23.578549 -74.593672
v 19.560710 22.823504 -74.464284
v 19.539999 23.195313 -74.550506
v 19.560710 23.576320 -74.573081
v 19.539999 22.829617 -74.449615
v 19.539999 23.574610 -74.557282
v 19.515881 23.940166 -74.460165
v 19.560710 23.949262 -74.484395
v 19.539999 23.943677 -74.469517
v 19.576602 23.956541 -74.503785
v 19.589999 22.502691 -74.369316
v 19.586592 22.463938 -74.309428
v 19.576601 22.478460 -74.290173
v 19.560710 22.490931 -74.273637
v 19.539999 22.500500 -74.260950
v 19.589999 22.192895 -74.089162
v 19.586592 22.181173 -74.034226
v 19.576602 22.200028 -74.019187
v 19.560710 22.216219 -74.006273
v 19.539999 22.228643 -73.996363
v 19.589999 21.966163 -73.738374
v 19.586592 21.975731 -73.697349
v 19.576602 21.997734 -73.687471
v 19.560710 22.016628 -73.678989
v 19.539999 22.031126 -73.672481
v 19.589999 21.837948 -73.340856
v 19.586592 21.860522 -73.319964
v 19.576602 21.884290 -73.315869
v 19.560710 21.904700 -73.312352
v 19.539999 21.920361 -73.309654
v 19.586592 21.842784 -72.925785
v 19.576602 21.866824 -72.927729
v 19.589999 21.816987 -72.923698
v 19.560710 21.887467 -72.929398
v 19.539999 21.903307 -72.930679
v 19.515881 21.913265 -72.931484
v 19.489999 21.916661 -72.931759
v 19.576602 21.946433 -72.547439
v 19.576602 22.118115 -72.198895
v 19.560710 21.966013 -72.554190
v 19.576602 21.866824 -72.927729
v 19.560710 22.135401 -72.210303
v 19.539999 21.981036 -72.559370
v 19.560710 21.887467 -72.929398
v 19.539999 22.148664 -72.219056
v 19.515881 22.157002 -72.224559
v 19.515881 21.990481 -72.562626
v 19.539999 21.903307 -72.930679
v 19.489999 21.998900 -72.548914
v 19.489999 21.916661 -72.931759
v 19.515881 21.913265 -72.931484
v 19.576602 22.371083 -71.903996
v 19.560710 22.384989 -71.919344
v 19.539999 22.395659 -71.931122
v 19.515881 22.402366 -71.938525
v 19.489999 22.177424 -72.200398
v 19.576602 22.689442 -71.681273
v 19.560710 22.699094 -71.699597
v 19.539999 22.706500 -71.713658
v 19.515881 22.711155 -71.722497
v 19.489999 22.440068 -71.909964
v 19.576602 23.053188 -71.544720
v 19.560710 23.057979 -71.564869
v 19.539999 23.061656 -71.580329
v 19.515881 23.063967 -71.590048
v 19.490000 22.768932 -71.697403
v 19.576602 23.439466 -71.502916
v 19.560710 23.439096 -71.523624
v 19.539999 23.438812 -71.539513
v 19.515881 23.438633 -71.549502
v 19.490000 23.141605 -71.577201
v 19.576602 23.824004 -71.558490
v 19.560710 23.818496 -71.578455
v 19.540000 23.814269 -71.593774
v 19.515881 23.811612 -71.603404
v 19.490000 23.532690 -71.557550
v 19.576602 24.182640 -71.707948
v 19.560710 24.172340 -71.725916
v 19.540000 24.164437 -71.739703
v 19.515881 24.159468 -71.748370
v 19.489999 23.915536 -71.639789
v 19.576602 24.492841 -71.941900
v 19.560711 24.478396 -71.956742
v 19.539999 24.467312 -71.968130
v 19.515881 24.460344 -71.975290
v 19.489999 24.264051 -71.818313
v 19.576602 24.735114 -72.245646
v 19.560710 24.717432 -72.256429
v 19.539999 24.703864 -72.264703
v 19.515882 24.695335 -72.269905
v 19.489999 24.554485 -72.080957
v 19.576602 24.894238 -72.600100
v 19.560710 24.874430 -72.606147
v 19.540000 24.859230 -72.610787
v 19.515881 24.849676 -72.613704
v 19.490000 24.767046 -72.409821
v 19.576602 24.960213 -72.982990
v 19.560710 24.939523 -72.983921
v 19.540000 24.923648 -72.984636
v 19.515881 24.913668 -72.985085
v 19.489999 24.887248 -72.782494
v 19.576602 24.928895 -73.370259
v 19.560710 24.908624 -73.366016
v 19.540000 24.893069 -73.362759
v 19.515881 24.883291 -73.360712
v 19.490000 24.906899 -73.173580
v 19.576602 24.802251 -73.737573
v 19.560710 24.783671 -73.728421
v 19.539999 24.769415 -73.721399
v 19.515881 24.760454 -73.716985
v 19.489999 24.824660 -73.556425
v 19.576602 24.588238 -74.061851
v 19.560710 24.572518 -74.048367
v 19.539999 24.560456 -74.038020
v 19.515881 24.552874 -74.031515
v 19.489999 24.646136 -73.904940
v 19.576602 24.300304 -74.322719
v 19.560710 24.288432 -74.305749
v 19.539999 24.279322 -74.292727
v 19.515881 24.273595 -74.284541
v 19.489999 24.383493 -74.195375
v 19.489999 24.054628 -74.407935
v 9.896725 23.290872 -74.547788
v 19.489999 23.681955 -74.528137
v 19.489999 23.290870 -74.547788
v 9.896725 22.908027 -74.465549
v 9.896725 23.681957 -74.528137
v 19.489999 24.054628 -74.407935
v 9.896725 24.054630 -74.407935
v 19.489999 24.383493 -74.195375
v 9.896725 24.383494 -74.195374
v 19.489999 24.646136 -73.904940
v 9.896725 24.646138 -73.904940
v 19.489999 24.824660 -73.556425
v 9.896725 24.824662 -73.556424
v 19.490000 24.906899 -73.173580
v 9.896725 24.906901 -73.173579
v 19.489999 24.887248 -72.782494
v 9.896726 24.887250 -72.782494
v 19.490000 24.767046 -72.409821
v 9.896725 24.767048 -72.409820
v 19.489999 24.554485 -72.080957
v 9.896725 24.554487 -72.080956
v 19.489999 24.264051 -71.818313
v 9.896725 24.264053 -71.818313
v 19.489999 23.915536 -71.639789
v 9.896725 23.915538 -71.639788
v 19.490000 23.532690 -71.557550
v 9.896725 23.532692 -71.557550
v 19.490000 23.141605 -71.577201
v 19.490000 23.532690 -71.557550
v 9.896725 23.141607 -71.577201
v 19.490000 22.768932 -71.697403
v 9.896725 22.768934 -71.697402
v 19.489999 22.440068 -71.909964
v 9.896725 22.440070 -71.909963
v 19.489999 22.177424 -72.200398
v 9.896725 22.177426 -72.200398
v 19.489999 21.998900 -72.548914
v 9.896725 21.998902 -72.548913
v 19.489999 21.916661 -72.931759
v 9.896725 21.916663 -72.931758
v 19.489999 21.936312 -73.322844
v 9.896725 21.936314 -73.322843
v 19.489999 22.056514 -73.695517
v 9.896724 22.056516 -73.695517
v 19.489999 22.269075 -74.024382
v 9.896724 22.269077 -74.024381
v 19.489999 22.559509 -74.287025
v 9.896725 22.559511 -74.287024
v 19.489999 22.908025 -74.465550
v 19.589999 23.740663 -75.883630
v 19.589999 23.182051 -75.893395
v 19.589999 23.282809 -74.647463
v 21.239999 23.284421 -74.627528
v 21.196724 22.889725 -74.888587
v 21.196725 23.257926 -74.955159
v 21.196725 23.632039 -74.948618
v 21.239999 22.881157 -74.540903
v 21.239999 22.208130 -74.076206
v 21.239999 21.984233 -73.729803
v 21.196725 21.744441 -73.981711
v 21.239999 21.857620 -73.337254
v 21.196725 21.595231 -73.638578
v 21.239999 21.836921 -72.925311
v 21.196725 21.515831 -73.272929
v 21.239999 22.388243 -71.849020
v 21.239999 22.734646 -71.625122
v 21.196725 22.482738 -71.385330
v 21.239999 23.127195 -71.498510
v 21.196725 22.825871 -71.236121
v 21.239999 23.539139 -71.477811
v 21.196725 23.191521 -71.156720
v 21.239999 24.615429 -72.029132
v 21.239999 24.839327 -72.375536
v 21.196725 25.079119 -72.123628
v 21.239999 24.965939 -72.768085
v 21.196725 25.228328 -72.466761
v 21.239999 24.986639 -73.180028
v 21.196725 25.307729 -72.832410
v 21.239999 24.435317 -74.256319
v 21.239999 24.088913 -74.480217
v 21.196725 24.340821 -74.720008
v 21.239999 23.696364 -74.606829
v 21.196725 23.997688 -74.869218
v 19.969999 23.740663 -75.883630
v 20.298699 24.273353 -75.723887
v 20.298699 23.735669 -75.840645
v 19.969999 24.286637 -75.765072
v 20.298699 24.777927 -75.504476
v 19.969999 24.798990 -75.542278
v 20.298700 25.230000 -75.190843
v 19.969999 25.258034 -75.223809
v 20.298700 25.612201 -74.795042
v 19.969999 25.646127 -74.821905
v 20.298700 25.909840 -74.332282
v 19.970000 25.948355 -74.352011
v 20.298700 26.111480 -73.820347
v 19.970000 26.153105 -73.832183
v 20.298700 26.209373 -73.278911
v 19.970000 26.252506 -73.282399
v 20.298700 26.199755 -72.728780
v 19.970000 26.242741 -72.723787
v 20.298700 26.082997 -72.191097
v 19.970000 26.124183 -72.177813
v 20.298700 25.863586 -71.686523
v 19.970000 25.901388 -71.665460
v 20.298700 25.549954 -71.234449
v 19.970000 25.582920 -71.206416
v 20.298700 25.154152 -70.852249
v 19.970000 25.181016 -70.818323
v 20.298700 24.691392 -70.554609
v 19.970000 24.711121 -70.516094
v 20.298700 24.179457 -70.352969
v 19.970000 24.191293 -70.311345
v 20.298700 23.638021 -70.255077
v 19.970000 23.641509 -70.211943
v 20.298700 23.087891 -70.264694
v 19.970000 23.082897 -70.221709
v 20.298700 22.550207 -70.381452
v 19.970000 22.536923 -70.340267
v 20.298700 22.045633 -70.600863
v 19.970000 22.024570 -70.563061
v 20.298699 21.593560 -70.914496
v 19.969999 21.565526 -70.881529
v 20.298700 21.211360 -71.310297
v 19.969999 21.177433 -71.283433
v 20.298699 20.913720 -71.773057
v 19.969999 20.875205 -71.753328
v 20.298699 20.712080 -72.284992
v 19.969999 20.670456 -72.273156
v 19.969999 20.571054 -72.822940
v 20.298699 20.614187 -72.826428
v 19.969999 20.580820 -73.381552
v 19.969999 20.699378 -73.927526
v 20.298699 20.740562 -73.914242
v 19.969999 20.922172 -74.439879
v 20.298699 20.959974 -74.418816
v 19.969999 21.240640 -74.898923
v 20.298699 21.273607 -74.870889
v 19.969999 21.642544 -75.287016
v 20.298699 21.669408 -75.253090
v 19.969999 22.112439 -75.589244
v 20.298699 22.132168 -75.550729
v 19.969999 22.632267 -75.793994
v 20.298699 22.644103 -75.752370
v 19.969999 23.182051 -75.893395
v 20.298699 23.185539 -75.850262
v 20.298699 20.614187 -72.826428
v 19.969999 20.571054 -72.822940
v 20.298699 20.623805 -73.376558
v 20.604999 20.749830 -73.361918
v 21.196725 22.541586 -74.751463
v 21.069851 22.805948 -75.183207
v 20.868024 22.734007 -75.436203
v 21.069851 23.233236 -75.260462
v 20.604999 22.678804 -75.630334
v 20.868024 23.212034 -75.522631
v 20.604999 23.195766 -75.723801
v 21.239999 22.514055 -74.352858
v 21.196725 22.226888 -74.549055
v 21.069851 22.401941 -75.024078
v 20.868024 22.282025 -75.258177
v 20.604999 22.190011 -75.437809
v 21.196724 21.957725 -74.289141
v 21.069851 22.036742 -74.789188
v 20.868024 21.873460 -74.995395
v 20.604999 21.748169 -75.153623
v 21.069851 21.303720 -73.732602
v 21.069851 21.476874 -74.130799
v 20.868025 21.053393 -73.813342
v 20.868024 21.247109 -74.258824
v 21.069851 21.724385 -74.487565
v 20.604998 21.070804 -74.357061
v 20.868025 21.524011 -74.657955
v 20.604999 21.370259 -74.788700
v 21.069851 21.211577 -73.308275
v 20.868025 20.950309 -73.338627
v 20.604999 20.861310 -73.875296
v 21.196725 21.509291 -72.898815
v 21.069852 21.203987 -72.874125
v 20.868025 20.941818 -72.852924
v 20.604999 20.740648 -72.836655
v 21.196725 21.575862 -72.530614
v 21.239999 21.836921 -72.925311
v 21.239999 21.923546 -72.522047
v 21.196725 21.712986 -72.182475
v 21.069851 21.281242 -72.446837
v 21.196725 21.509291 -72.898815
v 21.069851 21.440371 -72.042830
v 20.868025 21.206272 -71.922915
v 20.868025 21.028246 -72.374896
v 20.604999 21.026641 -71.830900
v 20.604999 20.834115 -72.319694
v 21.239999 22.111592 -72.154944
v 21.196725 21.915394 -71.867778
v 21.069852 21.675261 -71.677632
v 20.868025 21.469054 -71.514349
v 20.604999 21.310826 -71.389058
v 21.196725 22.175308 -71.598615
v 21.069852 21.976884 -71.365275
v 20.868025 21.806494 -71.164901
v 20.604999 21.675749 -71.011148
v 21.069852 22.731847 -70.944609
v 21.069852 22.333650 -71.117763
v 20.868025 22.651107 -70.694283
v 20.868025 22.205625 -70.887998
v 20.605000 22.107388 -70.711693
v 20.605000 22.589153 -70.502200
v 21.069852 23.156174 -70.852467
v 20.868025 23.125822 -70.591198
v 20.605000 23.102532 -70.390720
v 21.196725 23.565634 -71.150180
v 21.069852 23.590324 -70.844877
v 20.868025 23.611526 -70.582707
v 20.604999 23.627794 -70.381537
v 21.196725 23.933835 -71.216751
v 21.239999 23.942402 -71.564436
v 21.196725 24.281974 -71.353876
v 21.069852 24.421619 -71.081261
v 21.069852 24.017612 -70.922131
v 20.868026 24.541534 -70.847161
v 20.868025 24.089553 -70.669135
v 20.605000 24.633549 -70.667530
v 20.604999 24.144756 -70.475005
v 21.239999 24.309505 -71.752481
v 21.196725 24.596671 -71.556284
v 21.069852 24.786818 -71.316151
v 20.868025 24.950100 -71.109944
v 20.605000 25.075391 -70.951715
v 21.196725 24.865834 -71.816198
v 21.069852 25.099175 -71.617774
v 20.868025 25.299549 -71.447384
v 20.605000 25.453301 -71.316639
v 21.069852 25.519840 -72.372737
v 21.069852 25.346686 -71.974540
v 20.868025 25.770167 -72.291997
v 20.605000 25.752756 -71.748277
v 20.868025 25.576451 -71.846515
v 20.605000 25.962249 -72.230043
v 21.069852 25.611982 -72.797064
v 20.868025 25.873251 -72.766712
v 20.605000 26.073729 -72.743421
v 21.196725 25.314269 -73.206524
v 21.069852 25.619572 -73.231214
v 20.868025 25.881742 -73.252415
v 20.604999 26.082912 -73.268684
v 21.196725 25.247698 -73.574725
v 21.239999 24.900014 -73.583292
v 21.196725 25.110573 -73.922863
v 21.069852 25.383188 -74.062508
v 21.069852 25.542318 -73.658502
v 20.868025 25.617288 -74.182424
v 20.868025 25.795314 -73.730443
v 20.605000 25.796919 -74.274439
v 20.604999 25.989445 -73.785645
v 21.239999 24.711968 -73.950395
v 21.196725 24.908165 -74.237561
v 21.069852 25.148298 -74.427707
v 20.868025 25.354506 -74.590989
v 20.604999 25.512734 -74.716280
v 21.196725 24.648252 -74.506724
v 21.069852 24.846675 -74.740064
v 20.868025 25.017065 -74.940438
v 20.604999 25.147811 -75.094190
v 21.069851 24.091712 -75.160730
v 21.069852 24.489910 -74.987576
v 20.868025 24.172452 -75.411056
v 20.604999 24.716172 -75.393646
v 20.868025 24.617935 -75.217341
v 20.604999 24.234407 -75.603139
v 21.069851 23.667385 -75.252872
v 20.868025 23.697738 -75.514140
v 20.604999 23.721028 -75.714619
v 21.239999 23.906645 -74.095954
v 21.239999 23.284421 -74.627528
v 21.239999 23.696364 -74.606829
v 21.239999 24.088913 -74.480217
v 21.239999 24.711968 -73.950395
v 21.239999 24.562723 -73.145746
v 21.239999 24.435317 -74.256319
v 21.239999 22.755701 -74.002877
v 21.239999 21.984233 -73.729803
v 21.239999 22.208130 -74.076206
v 21.239999 22.514055 -74.352858
v 21.239999 22.881157 -74.540903
v 21.239999 22.260837 -72.959593
v 21.239999 22.111592 -72.154944
v 21.239999 21.923546 -72.522047
v 21.239999 21.836921 -72.925311
v 21.239999 21.857620 -73.337254
v 21.239999 22.916915 -72.009385
v 21.239999 23.539139 -71.477811
v 21.239999 23.127195 -71.498510
v 21.239999 22.734646 -71.625122
v 21.239999 22.388243 -71.849020
v 21.239999 24.067858 -72.102462
v 21.239999 24.839327 -72.375536
v 21.239999 24.615429 -72.029132
v 21.239999 24.309505 -71.752481
v 21.239999 23.942402 -71.564436
v 21.239999 24.900014 -73.583292
v 21.239999 24.986639 -73.180028
v 21.239999 24.965939 -72.768085
v 20.200000 24.067858 -72.102462
v 20.131788 24.198358 -72.377584
v 21.239999 24.067858 -72.102462
v 20.199999 22.916915 -72.009385
v 20.131787 23.220428 -72.033930
v 21.239999 22.916915 -72.009385
v 9.896725 23.532692 -71.557550
v 19.589998 22.632267 -75.793994
v 19.589999 22.874441 -74.559742
v 19.589998 22.112439 -75.589244
v 19.589999 22.502691 -74.369316
v 19.589999 21.642544 -75.287016
v 19.589999 22.192895 -74.089162
v 19.589999 21.240640 -74.898923
v 19.589999 20.922172 -74.439879
v 19.589999 21.966163 -73.738374
v 19.589999 20.699378 -73.927526
v 19.589999 21.837948 -73.340856
v 19.589999 20.580820 -73.381552
v 19.589999 21.816987 -72.923698
v 19.589999 20.571054 -72.822940
v 19.589999 20.670456 -72.273156
v 19.589999 21.904708 -72.515330
v 19.589999 20.875205 -71.753328
v 19.589999 22.095134 -72.143580
v 19.589999 21.177433 -71.283433
v 19.589999 22.375287 -71.833784
v 19.589999 21.565527 -70.881529
v 19.589999 22.024570 -70.563061
v 19.589999 22.726075 -71.607052
v 19.589999 22.536924 -70.340267
v 19.589999 23.123593 -71.478837
v 19.589999 23.082897 -70.221709
v 19.590000 23.540751 -71.457876
v 19.590000 23.641509 -70.211943
v 19.590000 24.191294 -70.311345
v 19.589999 23.949119 -71.545597
v 19.590000 24.711121 -70.516094
v 19.589999 24.320869 -71.736023
v 19.590000 25.181016 -70.818323
v 19.589999 24.630666 -72.016176
v 19.590000 25.582920 -71.206416
v 19.590000 25.901388 -71.665460
v 19.590000 24.857397 -72.366965
v 19.590000 26.124183 -72.177813
v 19.589999 24.985613 -72.764483
v 19.589999 26.242741 -72.723787
v 19.589999 25.006574 -73.181640
v 19.589999 26.252506 -73.282399
v 19.589999 26.153105 -73.832183
v 19.589999 24.918852 -73.590009
v 19.589999 25.948355 -74.352011
v 19.589999 24.728427 -73.961758
v 19.589999 25.646127 -74.821905
v 19.589999 24.448273 -74.271555
v 19.589999 25.258034 -75.223809
v 19.589999 24.798990 -75.542278
v 19.589999 24.097485 -74.498287
v 19.589999 24.286637 -75.765072
v 19.589999 23.699967 -74.626502
v 9.896725 22.908027 -74.465549
v 9.590000 23.011036 -74.176638
v 9.896725 23.290872 -74.547788
v 9.590000 22.733786 -74.034619
v 9.590000 23.315596 -74.242061
v 9.896725 23.290872 -74.547788
v 9.590000 23.315596 -74.242061
v 9.896725 23.681957 -74.528137
v 9.590000 23.626711 -74.226428
v 9.896725 24.054630 -74.407935
v 9.590000 23.923179 -74.130805
v 9.896725 24.383494 -74.195374
v 9.590000 24.184795 -73.961710
v 9.896725 24.646138 -73.904940
v 9.590000 24.393733 -73.730664
v 9.896725 24.824662 -73.556424
v 9.590000 24.535752 -73.453415
v 9.896725 24.906901 -73.173579
v 9.590000 24.601174 -73.148855
v 9.896726 24.887250 -72.782494
v 9.590000 24.585542 -72.837740
v 9.896725 24.767048 -72.409820
v 9.590000 24.489919 -72.541272
v 9.896725 24.554487 -72.080956
v 9.590000 24.320823 -72.279655
v 9.896725 24.264053 -71.818313
v 9.590000 24.089778 -72.070718
v 9.896725 23.915538 -71.639788
v 9.590000 23.812528 -71.928699
v 9.896725 23.532692 -71.557550
v 9.590000 23.507968 -71.863276
v 9.896725 23.141607 -71.577201
v 9.590000 23.196853 -71.878909
v 9.896725 22.768934 -71.697402
v 9.590000 22.900386 -71.974532
v 9.896725 22.440070 -71.909963
v 9.590000 22.638769 -72.143627
v 9.896725 22.177426 -72.200398
v 9.590000 22.429831 -72.374673
v 9.896725 21.998902 -72.548913
v 9.590000 22.287812 -72.651923
v 9.896725 21.916663 -72.931758
v 9.590000 22.222390 -72.956482
v 9.896725 21.936314 -73.322843
v 9.589999 22.238023 -73.267597
v 9.896724 22.056516 -73.695517
v 9.590000 22.333645 -73.564065
v 9.896724 22.269077 -74.024381
v 9.590000 22.502741 -73.825682
v 9.896725 22.559511 -74.287024
v 9.590000 23.315596 -74.242061
v 9.590000 23.011036 -74.176638
v 9.590000 23.626711 -74.226428
v 9.590000 23.923179 -74.130805
v 9.590000 22.733786 -74.034619
v 9.590000 24.184795 -73.961710
v 9.590000 22.502741 -73.825682
v 9.590000 24.393733 -73.730664
v 9.590000 22.333645 -73.564065
v 9.590000 24.535752 -73.453415
v 9.589999 22.238023 -73.267597
v 9.590000 24.601174 -73.148855
v 9.590000 22.222390 -72.956482
v 9.590000 24.585542 -72.837740
v 9.590000 22.287812 -72.651923
v 9.590000 24.489919 -72.541272
v 9.590000 22.429831 -72.374673
v 9.590000 24.320823 -72.279655
v 9.590000 22.638769 -72.143627
v 9.590000 24.089778 -72.070718
v 9.590000 22.900386 -71.974532
v 9.590000 23.812528 -71.928699
v 9.590000 23.196853 -71.878909
v 9.590000 23.507968 -71.863276
v 20.604999 20.740648 -72.836655
v 20.868025 20.941818 -72.852924
v 21.069852 21.203987 -72.874125
v 19.589999 23.740663 -75.883630
v 19.969999 23.740663 -75.883630
v 19.589999 23.182051 -75.893395
v 19.969999 24.286637 -75.765072
v 19.969999 23.182051 -75.893395
v 19.589998 22.632267 -75.793994
v 19.969999 22.632267 -75.793994
v 19.589998 22.112439 -75.589244
v 19.969999 22.112439 -75.589244
v 19.589999 21.642544 -75.287016
v 19.969999 21.642544 -75.287016
v 19.589999 21.240640 -74.898923
v 19.969999 21.240640 -74.898923
v 19.589999 20.922172 -74.439879
v 19.969999 20.922172 -74.439879
v 19.589999 20.699378 -73.927526
v 19.969999 20.699378 -73.927526
v 19.589999 20.580820 -73.381552
v 19.969999 20.580820 -73.381552
v 19.589999 20.571054 -72.822940
v 19.969999 20.571054 -72.822940
v 19.589999 20.670456 -72.273156
v 19.969999 20.670456 -72.273156
v 19.589999 20.875205 -71.753328
v 19.969999 20.875205 -71.753328
v 19.589999 21.177433 -71.283433
v 19.969999 21.177433 -71.283433
v 19.589999 21.565527 -70.881529
v 19.969999 21.565526 -70.881529
v 19.589999 22.024570 -70.563061
v 19.970000 22.024570 -70.563061
v 19.589999 22.536924 -70.340267
v 19.970000 22.536923 -70.340267
v 19.589999 23.082897 -70.221709
v 19.970000 23.082897 -70.221709
v 19.590000 23.641509 -70.211943
v 19.970000 23.641509 -70.211943
v 19.590000 23.641509 -70.211943
v 19.970000 23.641509 -70.211943
v 19.590000 24.191294 -70.311345
v 19.970000 24.191293 -70.311345
v 19.590000 24.711121 -70.516094
v 19.970000 24.711121 -70.516094
v 19.590000 25.181016 -70.818323
v 19.970000 25.181016 -70.818323
v 19.590000 25.582920 -71.206416
v 19.970000 25.582920 -71.206416
v 19.590000 25.901388 -71.665460
v 19.970000 25.901388 -71.665460
v 19.590000 26.124183 -72.177813
v 19.970000 26.124183 -72.177813
v 19.589999 26.242741 -72.723787
v 19.970000 26.242741 -72.723787
v 19.589999 26.252506 -73.282399
v 19.970000 26.252506 -73.282399
v 19.589999 26.153105 -73.832183
v 19.970000 26.153105 -73.832183
v 19.589999 25.948355 -74.352011
v 19.970000 25.948355 -74.352011
v 19.589999 25.646127 -74.821905
v 19.969999 25.646127 -74.821905
v 19.589999 25.258034 -75.223809
v 19.969999 25.258034 -75.223809
v 19.589999 24.798990 -75.542278
v 19.969999 24.798990 -75.542278
v 19.589999 24.286637 -75.765072
v 20.110683 24.315291 -72.624104
v 21.239999 24.562723 -73.145746
v 20.131788 24.432223 -72.870624
v 20.199999 24.562723 -73.145746
v 20.199999 24.562723 -73.145746
v 20.131788 24.389710 -73.396323
v 21.239999 24.562723 -73.145746
v 20.110683 24.234684 -73.620850
v 21.239999 23.906645 -74.095954
v 20.131788 24.079658 -73.845377
v 20.199999 23.906645 -74.095954
v 20.199999 23.906645 -74.095954
v 20.131787 23.603132 -74.071409
v 21.239999 23.906645 -74.095954
v 20.110683 23.331173 -74.049415
v 21.239999 22.755701 -74.002877
v 20.131787 23.059214 -74.027422
v 20.199999 22.755702 -74.002877
v 20.199999 22.755702 -74.002877
v 20.131787 22.625202 -73.727755
v 21.239999 22.755701 -74.002877
v 20.110683 22.508269 -73.481235
v 21.239999 22.260837 -72.959593
v 20.131788 22.391337 -73.234715
v 20.199999 22.260837 -72.959593
v 20.110683 23.492387 -72.055923
v 21.239999 24.067858 -72.102462
v 20.131788 23.764346 -72.077917
v 20.200000 24.067858 -72.102462
v 20.199999 22.260837 -72.959593
v 20.131788 22.433850 -72.709015
v 21.239999 22.260837 -72.959593
v 20.110683 22.588876 -72.484489
v 21.239999 22.916915 -72.009385
v 20.131787 22.743902 -72.259962
v 20.199999 22.916915 -72.009385
v 20.131788 22.391337 -73.234715
v 19.533333 23.411780 -73.052669
v 20.199999 22.260837 -72.959593
v 20.110683 22.508269 -73.481235
v 19.533333 23.411780 -73.052669
v 20.131788 22.433850 -72.709015
v 20.199999 22.755702 -74.002877
v 19.533333 23.411780 -73.052669
v 20.131787 22.625202 -73.727755
v 20.131787 23.059214 -74.027422
v 19.533333 23.411780 -73.052669
v 19.533333 23.411780 -73.052669
v 20.110683 23.331173 -74.049415
v 20.199999 23.906645 -74.095954
v 19.533333 23.411780 -73.052669
v 20.131787 23.603132 -74.071409
v 20.131788 24.079658 -73.845377
v 19.533333 23.411780 -73.052669
v 19.533333 23.411780 -73.052669
v 20.110683 24.234684 -73.620850
v 20.199999 24.562723 -73.145746
v 19.533333 23.411780 -73.052669
v 20.131788 24.389710 -73.396323
v 20.131788 24.432223 -72.870624
v 19.533333 23.411780 -73.052669
v 19.533333 23.411780 -73.052669
v 20.110683 24.315291 -72.624104
v 20.200000 24.067858 -72.102462
v 19.533333 23.411780 -73.052669
v 20.131788 24.198358 -72.377584
v 20.131788 23.764346 -72.077917
v 19.533333 23.411780 -73.052669
v 19.533333 23.411780 -73.052669
v 20.110683 23.492387 -72.055923
v 20.199999 22.916915 -72.009385
v 19.533333 23.411780 -73.052669
v 20.131787 23.220428 -72.033930
v 20.131787 22.743902 -72.259962
v 19.533333 23.411780 -73.052669
v 19.533333 23.411780 -73.052669
v 20.110683 23.492387 -72.055923
v 20.110683 22.588876 -72.484489
v 19.533333 23.411780 -73.052669
f 1 2 3
f 1 3 4
f 1 5 2
f 2 5 55
f 2 56 3
f 2 57 56
f 2 55 57
f 3 40 4
f 3 59 40
f 3 56 59
f 4 40 39
f 5 69 55
f 6 7 8
f 6 9 7
f 7 9 10
f 7 96 8
f 7 97 96
f 7 10 97
f 8 96 99
f 9 11 10
f 10 11 12
f 10 110 97
f 10 12 110
f 11 13 12
f 12 13 14
f 12 115 110
f 12 14 115
f 13 15 14
f 14 15 16
f 14 120 115
f 14 16 120
f 15 17 16
f 16 17 18
f 16 125 120
f 16 18 125
f 17 19 18
f 18 19 20
f 18 130 125
f 18 20 130
f 19 21 20
f 20 21 22
f 20 135 130
f 20 22 135
f 21 23 22
f 22 23 24
f 22 140 135
f 22 24 140
f 23 25 24
f 24 25 26
f 24 145 140
f 24 26 145
f 25 27 26
f 26 27 28
f 26 150 145
f 26 28 150
f 27 29 28
f 28 29 30
f 28 155 150
f 28 30 155
f 29 31 30
f 30 31 32
f 30 160 155
f 30 32 160
f 31 33 32
f 32 33 34
f 32 165 160
f 32 34 165
f 33 35 34
f 34 35 36
f 34 170 165
f 34 36 170
f 35 37 36
f 36 37 38
f 36 175 170
f 36 38 175
f 37 39 38
f 38 39 40
f 38 68 175
f 38 40 68
f 40 59 68
f 41 42 43
f 41 43 44
f 41 45 42
f 42 45 65
f 42 64 43
f 42 67 64
f 42 65 67
f 43 54 44
f 43 64 61
f 43 61 54
f 44 54 53
f 45 180 65
f 46 47 48
f 46 49 47
f 46 48 95
f 47 49 50
f 47 50 78
f 47 78 83
f 47 83 48
f 48 88 94
f 48 94 95
f 48 83 88
f 49 51 50
f 50 51 52
f 50 52 73
f 50 73 78
f 51 53 52
f 52 53 54
f 52 54 63
f 52 63 73
f 54 61 63
f 55 69 70
f 55 71 57
f 55 70 71
f 56 58 59
f 56 60 58
f 56 57 60
f 57 72 60
f 57 71 72
f 58 61 62
f 58 63 61
f 58 62 59
f 58 60 63
f 59 62 68
f 60 73 63
f 60 72 73
f 61 64 62
f 62 64 66
f 62 66 68
f 64 67 66
f 65 178 177
f 65 177 67
f 65 180 178
f 66 176 175
f 66 175 68
f 66 67 176
f 67 177 176
f 69 74 70
f 70 74 75
f 70 76 71
f 70 75 76
f 71 77 72
f 71 76 77
f 72 78 73
f 72 77 78
f 74 79 75
f 75 79 80
f 75 81 76
f 75 80 81
f 76 82 77
f 76 81 82
f 77 83 78
f 77 82 83
f 79 84 80
f 80 84 85
f 80 86 81
f 80 85 86
f 81 87 82
f 81 86 87
f 82 88 83
f 82 87 88
f 84 91 85
f 85 89 90
f 85 90 86
f 85 91 89
f 86 90 92
f 86 92 87
f 87 92 93
f 87 93 88
f 88 93 94
f 96 98 99
f 96 100 98
f 96 97 100
f 97 111 100
f 97 110 111
f 98 101 102
f 98 103 101
f 98 100 103
f 98 102 99
f 100 112 103
f 100 111 112
f 101 104 105
f 101 105 106
f 101 103 104
f 101 106 102
f 103 113 104
f 103 112 113
f 104 114 107
f 104 107 105
f 104 113 114
f 105 107 108
f 105 108 109
f 105 109 106
f 110 116 111
f 110 115 116
f 111 117 112
f 111 116 117
f 112 118 113
f 112 117 118
f 113 119 114
f 113 118 119
f 115 121 116
f 115 120 121
f 116 122 117
f 116 121 122
f 117 123 118
f 117 122 123
f 118 124 119
f 118 123 124
f 120 126 121
f 120 125 126
f 121 127 122
f 121 126 127
f 122 128 123
f 122 127 128
f 123 129 124
f 123 128 129
f 125 131 126
f 125 130 131
f 126 132 127
f 126 131 132
f 127 133 128
f 127 132 133
f 128 134 129
f 128 133 134
f 130 136 131
f 130 135 136
f 131 137 132
f 131 136 137
f 132 138 133
f 132 137 138
f 133 139 134
f 133 138 139
f 135 141 136
f 135 140 141
f 136 142 137
f 136 141 142
f 137 143 138
f 137 142 143
f 138 144 139
f 138 143 144
f 140 146 141
f 140 145 146
f 141 147 142
f 141 146 147
f 142 148 143
f 142 147 148
f 143 149 144
f 143 148 149
f 145 151 146
f 145 150 151
f 146 152 147
f 146 151 152
f 147 153 148
f 147 152 153
f 148 154 149
f 148 153 154
f 150 156 151
f 150 155 156
f 151 157 152
f 151 156 157
f 152 158 153
f 152 157 158
f 153 159 154
f 153 158 159
f 155 161 156
f 155 160 161
f 156 162 157
f 156 161 162
f 157 163 158
f 157 162 163
f 158 164 159
f 158 163 164
f 160 166 161
f 160 165 166
f 161 167 162
f 161 166 167
f 162 168 163
f 162 167 168
f 163 169 164
f 163 168 169
f 165 171 166
f 165 170 171
f 166 172 167
f 166 171 172
f 167 173 168
f 167 172 173
f 168 174 169
f 168 173 174
f 170 176 171
f 170 175 176
f 171 177 172
f 171 176 177
f 172 178 173
f 172 177 178
f 173 179 174
f 173 178 179
f 178 180 179
f 181 182 183
f 181 183 184
f 181 185 182
f 182 185 186
f 183 229 184
f 184 229 228
f 185 187 186
f 186 187 188
f 187 189 188
f 188 189 190
f 189 191 190
f 190 191 192
f 191 193 192
f 192 193 194
f 193 195 194
f 194 195 196
f 195 197 196
f 196 197 198
f 197 199 198
f 198 199 200
f 199 201 200
f 200 201 202
f 201 203 202
f 202 203 204
f 203 205 204
f 204 205 206
f 205 489 206
f 207 208 209
f 207 210 208
f 208 210 211
f 210 212 211
f 211 212 213
f 212 214 213
f 213 214 215
f 214 216 215
f 215 216 217
f 216 218 217
f 217 218 219
f 218 220 219
f 219 220 221
f 220 222 221
f 221 222 223
f 222 224 223
f 223 224 225
f 224 226 225
f 225 226 227
f 226 228 227
f 227 228 229
f 230 231 232
f 230 542 541
f 230 232 542
f 231 490 232
f 232 490 491
f 233 234 235
f 233 235 236
f 233 237 234
f 233 236 262
f 234 237 331
f 234 332 235
f 234 331 340
f 234 340 332
f 235 332 334
f 235 334 236
f 236 263 262
f 236 450 263
f 236 334 450
f 237 338 331
f 238 239 240
f 238 339 338
f 238 343 339
f 238 240 343
f 239 241 242
f 239 242 240
f 240 242 347
f 240 347 348
f 240 348 343
f 241 243 244
f 241 244 242
f 242 244 355
f 242 355 347
f 243 358 244
f 244 358 359
f 244 359 355
f 245 246 247
f 245 374 373
f 245 378 374
f 245 247 378
f 246 248 249
f 246 249 247
f 247 249 382
f 247 382 383
f 247 383 378
f 248 250 251
f 248 251 249
f 249 251 388
f 249 388 382
f 250 391 251
f 250 396 395
f 250 395 391
f 251 391 392
f 251 392 388
f 252 253 254
f 252 405 404
f 252 409 405
f 252 254 409
f 253 255 256
f 253 256 254
f 254 256 413
f 254 413 414
f 254 414 409
f 255 257 258
f 255 258 256
f 256 258 419
f 256 419 413
f 257 422 258
f 257 427 426
f 257 426 422
f 258 422 423
f 258 423 419
f 259 260 261
f 259 436 435
f 259 440 436
f 259 261 440
f 260 262 263
f 260 263 261
f 261 263 444
f 261 444 445
f 261 445 440
f 263 450 444
f 264 265 266
f 264 267 265
f 264 266 325
f 265 267 268
f 265 447 449
f 265 268 447
f 265 449 266
f 266 452 326
f 266 326 325
f 266 449 452
f 267 269 268
f 268 269 270
f 268 270 443
f 268 443 447
f 269 271 270
f 270 271 272
f 270 439 443
f 270 272 439
f 271 273 272
f 272 273 274
f 272 433 439
f 272 274 433
f 273 275 274
f 274 275 276
f 274 434 433
f 274 276 434
f 275 277 276
f 276 277 278
f 276 278 425
f 276 425 434
f 277 279 278
f 278 279 280
f 278 421 425
f 278 280 421
f 279 281 280
f 280 281 282
f 280 282 418
f 280 418 421
f 281 283 282
f 282 283 284
f 282 416 418
f 282 284 416
f 283 285 284
f 284 285 286
f 284 286 412
f 284 412 416
f 285 287 286
f 286 287 288
f 286 408 412
f 286 288 408
f 287 289 288
f 288 289 290
f 288 402 408
f 288 290 402
f 289 291 290
f 290 291 292
f 290 403 402
f 290 292 403
f 291 293 292
f 292 293 294
f 292 294 394
f 292 394 403
f 293 295 294
f 294 295 296
f 294 390 394
f 294 296 390
f 295 297 296
f 296 297 298
f 296 298 387
f 296 387 390
f 297 299 298
f 298 299 300
f 298 386 387
f 298 300 386
f 299 301 300
f 300 301 302
f 300 381 386
f 300 302 381
f 301 303 302
f 302 303 304
f 302 377 381
f 302 304 377
f 303 305 304
f 304 305 306
f 304 371 377
f 304 306 371
f 305 307 306
f 306 307 308
f 306 372 371
f 306 308 372
f 307 309 308
f 308 311 617
f 308 309 311
f 308 617 372
f 309 310 311
f 312 313 314
f 312 314 329
f 312 329 328
f 313 315 316
f 313 316 314
f 314 352 357
f 314 316 352
f 314 357 329
f 315 317 318
f 315 318 316
f 316 354 352
f 316 318 354
f 317 319 320
f 317 320 318
f 318 320 346
f 318 346 354
f 319 321 322
f 319 322 320
f 320 342 346
f 320 322 342
f 321 323 324
f 321 324 322
f 322 335 342
f 322 324 335
f 323 325 326
f 323 326 324
f 324 337 335
f 324 326 337
f 326 452 337
f 327 328 329
f 327 329 330
f 327 330 361
f 329 357 330
f 330 349 356
f 330 356 361
f 330 357 349
f 331 338 339
f 331 339 344
f 331 344 340
f 332 333 334
f 332 340 341
f 332 341 333
f 333 335 336
f 333 336 334
f 333 341 342
f 333 342 335
f 334 336 450
f 335 337 336
f 336 451 450
f 336 337 451
f 337 452 451
f 339 351 344
f 339 343 351
f 340 344 345
f 340 345 341
f 341 345 346
f 341 346 342
f 343 348 351
f 344 353 345
f 344 351 353
f 345 354 346
f 345 353 354
f 347 349 348
f 347 355 356
f 347 356 349
f 348 350 351
f 348 349 350
f 349 357 350
f 350 352 353
f 350 353 351
f 350 357 352
f 352 354 353
f 355 359 360
f 355 360 356
f 356 360 361
f 362 363 364
f 362 364 365
f 362 366 367
f 362 368 366
f 362 365 368
f 362 367 363
f 364 373 365
f 365 373 374
f 365 375 368
f 365 374 375
f 366 368 369
f 366 369 370
f 366 619 367
f 366 370 619
f 368 376 369
f 368 375 376
f 369 371 370
f 369 376 377
f 369 377 371
f 370 371 372
f 370 618 619
f 370 372 618
f 372 617 618
f 374 379 375
f 374 378 379
f 375 380 376
f 375 379 380
f 376 381 377
f 376 380 381
f 378 383 379
f 379 383 385
f 379 385 380
f 380 385 386
f 380 386 381
f 382 384 383
f 382 388 389
f 382 389 384
f 383 384 385
f 384 389 390
f 384 387 385
f 384 390 387
f 385 387 386
f 388 392 393
f 388 393 389
f 389 393 394
f 389 394 390
f 391 399 392
f 391 395 399
f 392 401 393
f 392 399 401
f 393 403 394
f 393 401 403
f 395 396 397
f 395 397 398
f 395 398 399
f 396 404 397
f 397 404 405
f 397 405 406
f 397 406 398
f 398 400 399
f 398 406 407
f 398 407 400
f 399 400 401
f 400 402 401
f 400 407 408
f 400 408 402
f 401 402 403
f 405 409 410
f 405 410 406
f 406 410 411
f 406 411 407
f 407 411 412
f 407 412 408
f 409 414 410
f 410 417 411
f 410 414 417
f 411 416 412
f 411 417 416
f 413 415 414
f 413 419 420
f 413 420 415
f 414 415 417
f 415 420 421
f 415 418 417
f 415 421 418
f 416 417 418
f 419 423 424
f 419 424 420
f 420 424 425
f 420 425 421
f 422 430 423
f 422 426 430
f 423 432 424
f 423 430 432
f 424 434 425
f 424 432 434
f 426 427 428
f 426 428 429
f 426 429 430
f 427 435 428
f 428 435 436
f 428 436 437
f 428 437 429
f 429 431 430
f 429 437 438
f 429 438 431
f 430 431 432
f 431 433 432
f 431 438 439
f 431 439 433
f 432 433 434
f 436 440 441
f 436 441 437
f 437 441 442
f 437 442 438
f 438 442 443
f 438 443 439
f 440 445 441
f 441 448 442
f 441 445 448
f 442 447 443
f 442 448 447
f 444 446 445
f 444 450 451
f 444 451 446
f 445 446 448
f 446 451 452
f 446 449 448
f 446 452 449
f 447 448 449
f 453 454 455
f 453 455 456
f 453 457 458
f 453 459 457
f 453 460 454
f 453 456 459
f 454 460 464
f 457 480 458
f 458 476 475
f 458 480 481
f 458 482 476
f 458 481 482
f 460 461 462
f 460 462 463
f 460 465 461
f 460 463 464
f 461 465 469
f 465 466 467
f 465 467 468
f 465 470 466
f 465 468 469
f 466 470 474
f 470 471 472
f 470 472 473
f 470 475 471
f 470 473 474
f 471 475 479
f 475 476 477
f 475 477 478
f 475 478 479
f 483 484 485
f 484 686 485
f 485 686 687
f 486 487 488
f 487 711 488
f 488 711 712
f 490 492 491
f 491 492 493
f 492 494 493
f 493 494 495
f 494 496 495
f 495 496 497
f 495 497 498
f 497 499 498
f 498 499 500
f 499 501 500
f 500 501 502
f 501 503 502
f 502 503 504
f 502 504 505
f 504 506 505
f 505 506 507
f 506 508 507
f 507 508 509
f 508 510 509
f 509 510 511
f 509 511 512
f 511 513 512
f 512 513 514
f 513 515 514
f 514 515 516
f 515 517 516
f 516 517 518
f 516 518 519
f 518 520 519
f 519 520 521
f 520 522 521
f 521 522 523
f 522 524 523
f 523 524 525
f 523 525 526
f 525 527 526
f 526 527 528
f 527 529 528
f 528 529 530
f 529 531 530
f 530 531 532
f 530 532 533
f 532 534 533
f 533 534 535
f 534 536 535
f 535 536 537
f 536 538 537
f 537 538 539
f 537 539 540
f 539 541 540
f 540 541 542
f 543 544 545
f 543 546 544
f 543 592 546
f 544 547 545
f 546 592 591
f 548 549 550
f 549 551 550
f 550 551 552
f 551 553 552
f 552 553 554
f 553 555 554
f 554 555 556
f 555 557 556
f 556 557 558
f 557 559 558
f 558 559 560
f 559 561 560
f 560 561 562
f 561 563 562
f 562 563 564
f 563 565 564
f 564 565 566
f 565 567 566
f 566 567 568
f 567 569 568
f 568 569 570
f 569 571 570
f 570 571 572
f 571 573 572
f 572 573 574
f 573 575 574
f 574 575 576
f 575 577 576
f 576 577 578
f 577 579 578
f 578 579 580
f 579 581 580
f 580 581 582
f 581 583 582
f 582 583 584
f 583 585 584
f 584 585 586
f 585 587 586
f 586 587 588
f 587 589 588
f 588 589 590
f 589 591 590
f 590 591 592
f 593 594 595
f 594 596 595
f 594 597 596
f 596 597 598
f 597 599 598
f 598 599 600
f 599 601 600
f 600 601 602
f 601 603 602
f 602 603 604
f 603 605 604
f 604 605 606
f 605 607 606
f 606 607 608
f 607 609 608
f 608 609 610
f 609 611 610
f 610 611 612
f 611 613 612
f 612 613 614
f 613 615 614
f 614 615 616
f 620 621 622
f 620 623 621
f 620 685 623
f 621 624 622
f 622 624 625
f 623 685 684
f 624 626 625
f 625 626 627
f 626 628 627
f 627 628 629
f 628 630 629
f 629 630 631
f 630 632 631
f 631 632 633
f 632 634 633
f 633 634 635
f 634 636 635
f 635 636 637
f 636 638 637
f 637 638 639
f 638 640 639
f 639 640 641
f 640 642 641
f 641 642 643
f 642 644 643
f 643 644 645
f 644 646 645
f 645 646 647
f 646 648 647
f 647 648 649
f 648 650 649
f 649 650 651
f 650 652 651
f 651 652 653
f 652 654 653
f 653 654 655
f 654 656 655
f 657 658 659
f 658 660 659
f 659 660 661
f 660 662 661
f 661 662 663
f 662 664 663
f 663 664 665
f 664 666 665
f 665 666 667
f 666 668 667
f 667 668 669
f 668 670 669
f 669 670 671
f 670 672 671
f 671 672 673
f 672 674 673
f 673 674 675
f 674 676 675
f 675 676 677
f 676 678 677
f 677 678 679
f 678 680 679
f 679 680 681
f 680 682 681
f 681 682 683
f 682 684 683
f 683 684 685
f 686 688 687
f 687 688 689
f 690 691 692
f 691 693 692
f 692 693 694
f 693 695 694
f 694 695 696
f 697 698 699
f 698 700 699
f 699 700 701
f 700 702 701
f 701 702 703
f 704 705 706
f 705 707 706
f 706 707 708
f 707 709 708
f 708 709 710
f 711 713 712
f 712 713 714
f 715 716 717
f 716 718 717
f 717 718 719
f 718 720 719
f 719 720 721
f 722 723 724
f 722 725 723
f 724 726 727
f 725 730 733
f 727 764 763
f 728 729 730
f 728 731 732
f 731 734 732
f 734 737 740
f 735 736 737
f 735 738 739
f 738 741 739
f 741 744 747
f 742 743 744
f 742 745 746
f 745 748 746
f 748 751 754
f 749 750 751
f 749 752 753
f 752 755 753
f 756 757 758
f 756 759 760
f 758 761 762
f 759 763 760