# Forged Hexagon Socket Button Head Cap Screw - Metric M3 x 0.5 x 6
# Autodesk dbId: 32
# Units: mm
o 032_Forged_Hexagon_Socket_Button_Head_Cap_Screw_-_Metric_M3_x_0.5_x_6
v 15.690000 64.024564 34.854813
v 15.693407 63.843085 34.548173
v 15.693407 64.044042 34.837769
v 15.693407 64.304401 35.075388
v 15.690000 63.814041 34.548724
v 15.790000 66.357545 32.813441
v 15.790000 66.088355 32.571989
v 15.764118 66.111445 32.584252
v 15.790000 65.769205 32.401975
v 15.764118 65.818516 32.418331
v 15.790000 65.418641 32.313278
v 15.764118 65.496010 32.321752
v 15.790000 65.057038 32.311054
v 15.764118 65.160099 32.299359
v 15.790000 64.705410 32.395433
v 15.764118 64.827627 32.352275
v 15.790000 64.384193 32.561509
v 15.764118 64.515266 32.477846
v 15.790000 64.112055 32.799632
v 15.790000 63.904811 33.095962
v 15.764118 64.011734 32.918439
v 15.790000 63.774505 33.433278
v 15.764118 63.845812 33.211369
v 15.790000 63.728711 33.791977
v 15.764118 63.749234 33.533875
v 15.790000 63.770090 34.151212
v 15.764118 63.726841 33.869785
v 15.790000 63.896237 34.490105
v 15.764118 63.779756 34.202257
v 15.790000 64.099821 34.788962
v 15.764118 63.905327 34.514618
v 15.693407 64.192115 32.616560
v 15.703397 64.207997 32.634711
v 15.693407 63.954496 32.876920
v 15.693407 63.711608 34.221120
v 15.703397 63.864315 34.536728
v 15.719289 63.882545 34.526900
v 15.703397 64.062193 34.821887
v 15.740000 63.896534 34.519359
v 15.719289 64.077779 34.808249
v 15.740000 64.089739 34.797784
v 15.764118 64.097257 34.791206
v 15.690000 63.679783 34.202335
v 15.693407 63.656204 33.873011
v 15.703397 63.734852 34.214686
v 15.719289 63.754812 34.209162
v 15.740000 63.770128 34.204922
v 15.690000 63.629026 33.834322
v 15.693407 63.679650 33.521301
v 15.703397 63.680297 33.871911
v 15.719289 63.700986 33.870966
v 15.740000 63.716861 33.870241
v 15.690000 63.664507 33.464523
v 15.693407 63.780771 33.183627
v 15.703397 63.703384 33.525590
v 15.719289 63.723764 33.529273
v 15.740000 63.739403 33.532098
v 15.690000 63.784313 33.112874
v 15.703397 63.802955 33.193089
v 15.719289 63.822005 33.201214
v 15.740000 63.836623 33.207449
v 15.690000 63.981985 32.798333
v 15.703397 63.974019 32.891081
v 15.719289 63.990784 32.903242
v 15.740000 64.003647 32.912573
v 15.693407 64.481711 32.415604
v 15.690000 64.246867 32.537857
v 15.690000 64.564680 32.345489
v 15.693407 64.808764 32.284127
v 15.703397 64.493156 32.436833
v 15.693407 64.192115 32.616560
v 15.719289 64.502984 32.455064
v 15.703397 64.207997 32.634711
v 15.740000 64.510525 32.469052
v 15.719289 64.221635 32.650297
v 15.740000 64.232100 32.662257
v 15.764118 64.238678 32.669775
v 15.690000 64.918288 32.231598
v 15.693407 65.156873 32.228722
v 15.703397 64.815198 32.307371
v 15.719289 64.820723 32.327331
v 15.740000 64.824962 32.342647
v 15.690000 65.288630 32.202325
v 15.693407 65.508583 32.252168
v 15.703397 65.157973 32.252815
v 15.703397 65.504294 32.275902
v 15.719289 65.158918 32.273504
v 15.740000 65.159643 32.289380
v 15.690000 65.655741 32.259248
v 15.693407 65.846258 32.353289
v 15.703397 65.836795 32.375474
v 15.719289 65.500612 32.296283
v 15.719289 65.828670 32.394524
v 15.740000 65.497786 32.311921
v 15.690000 65.999828 32.399297
v 15.693407 66.152964 32.527015
v 15.703397 66.138803 32.546537
v 15.719289 66.126642 32.563302
v 15.740000 65.822435 32.409142
v 15.740000 66.117311 32.576166
v 15.690000 66.302343 32.614924
v 15.693407 66.413324 32.764633
v 15.703397 66.395173 32.780515
v 15.719289 66.379587 32.794153
v 15.740000 66.367627 32.804618
v 15.764118 66.360109 32.811197
v 15.690000 66.546977 32.894504
v 15.693407 66.614281 33.054230
v 15.703397 66.593051 33.065675
v 15.719289 66.574821 33.075503
v 15.740000 66.560832 33.083044
v 15.764118 66.552038 33.087784
v 15.690000 66.720541 33.222963
v 15.693407 66.745758 33.381282
v 15.703397 66.722514 33.387716
v 15.719289 66.702553 33.393241
v 15.740000 66.687237 33.397480
v 15.764118 66.677609 33.400145
v 15.790000 66.561128 33.112298
v 15.690000 66.813679 33.582596
v 15.693407 66.801162 33.729392
v 15.703397 66.777069 33.730492
v 15.719289 66.756380 33.731437
v 15.740000 66.740505 33.732162
v 15.764118 66.730525 33.732617
v 15.790000 66.687276 33.451191
v 15.690000 66.821369 33.954014
v 15.693407 66.777716 34.081101
v 15.703397 66.753982 34.076813
v 15.719289 66.733602 34.073130
v 15.740000 66.717963 34.070305
v 15.764118 66.708132 34.068528
v 15.790000 66.728654 33.810426
v 15.690000 66.743197 34.317193
v 15.693407 66.676595 34.418776
v 15.703397 66.654410 34.409314
v 15.719289 66.635360 34.401188
v 15.740000 66.620743 34.394954
v 15.764118 66.611553 34.391034
v 15.790000 66.682861 34.169124
v 15.690000 66.583377 34.652556
v 15.693407 66.502869 34.725483
v 15.703397 66.483347 34.711321
v 15.719289 66.466582 34.699161
v 15.740000 66.453718 34.689829
v 15.764118 66.445632 34.683963
v 15.790000 66.552555 34.506441
v 15.690000 66.350525 34.942021
v 15.693407 66.265251 34.985842
v 15.703397 66.249369 34.967692
v 15.719289 66.235731 34.952105
v 15.740000 66.225266 34.940146
v 15.764118 66.218687 34.932627
v 15.790000 66.345311 34.802771
v 15.690000 66.057194 35.169985
v 15.693407 65.975654 35.186799
v 15.703397 65.964210 35.165569
v 15.719289 65.954382 35.147339
v 15.740000 65.946840 35.133350
v 15.764118 65.942100 35.124557
v 15.790000 66.073172 35.040894
v 15.690000 65.719199 35.324157
v 15.693407 65.648602 35.318276
v 15.703397 65.642168 35.295032
v 15.719289 65.636643 35.275072
v 15.740000 65.632404 35.259756
v 15.764118 65.629739 35.250128
v 15.790000 65.751955 35.206970
v 15.690000 65.354759 35.396226
v 15.693407 65.300493 35.373681
v 15.703397 65.299392 35.349588
v 15.719289 65.298448 35.328898
v 15.740000 65.297723 35.313023
v 15.764118 65.297267 35.303044
v 15.790000 65.400327 35.291348
v 15.690000 64.983522 35.382307
v 15.693407 64.948783 35.350234
v 15.703397 64.953071 35.326501
v 15.719289 64.956754 35.306120
v 15.740000 64.959580 35.290481
v 15.764118 64.961356 35.280651
v 15.790000 65.038724 35.289125
v 15.690000 64.625503 35.283150
v 15.693407 64.611108 35.249113
v 15.703397 64.620570 35.226929
v 15.719289 64.628696 35.207879
v 15.740000 64.634931 35.193261
v 15.764118 64.638850 35.184072
v 15.790000 64.688161 35.200428
v 15.690000 64.300000 35.104102
v 15.703397 64.318563 35.055865
v 15.719289 64.330724 35.039101
v 15.740000 64.340055 35.026237
v 15.764118 64.345921 35.018150
v 15.790000 64.369011 35.030414
v 21.383274 64.099821 34.788962
v 15.790000 64.369011 35.030414
v 15.790000 64.099821 34.788962
v 21.383274 63.896237 34.490105
v 21.383274 64.369011 35.030414
v 15.790000 64.688161 35.200428
v 21.383274 64.688161 35.200428
v 15.790000 65.038724 35.289125
v 21.383275 65.038724 35.289125
v 15.790000 65.400327 35.291348
v 21.383274 65.400328 35.291348
v 15.790000 65.751955 35.206970
v 21.383274 65.751955 35.206970
v 15.790000 66.073172 35.040894
v 21.383274 66.073173 35.040894
v 15.790000 66.345311 34.802771
v 21.383274 66.345311 34.802771
v 15.790000 66.552555 34.506441
v 21.383275 66.552555 34.506441
v 15.790000 66.682861 34.169124
v 21.383275 66.682861 34.169124
v 15.790000 66.728654 33.810426
v 21.383274 66.728655 33.810426
v 15.790000 66.687276 33.451191
v 21.383274 66.687276 33.451191
v 15.790000 66.561128 33.112298
v 21.383275 66.561128 33.112298
v 15.790000 66.357545 32.813441
v 21.383275 66.357545 32.813441
v 15.790000 66.088355 32.571989
v 15.790000 66.357545 32.813441
v 21.383275 66.088355 32.571989
v 15.790000 65.769205 32.401975
v 21.383274 65.769205 32.401975
v 15.790000 65.418641 32.313278
v 21.383274 65.418642 32.313278
v 15.790000 65.057038 32.311054
v 21.383275 65.057038 32.311054
v 15.790000 64.705410 32.395433
v 21.383275 64.705411 32.395433
v 15.790000 64.384193 32.561509
v 21.383274 64.384193 32.561509
v 15.790000 64.112055 32.799632
v 21.383274 64.112055 32.799632
v 15.790000 63.904811 33.095962
v 21.383274 63.904811 33.095962
v 15.790000 63.774505 33.433278
v 21.383274 63.774505 33.433278
v 15.790000 63.728711 33.791977
v 21.383275 63.728711 33.791977
v 15.790000 63.770090 34.151212
v 21.383274 63.770090 34.151212
v 15.790000 63.896237 34.490105
v 15.690000 63.442324 36.021882
v 15.690000 63.083846 35.677947
v 15.690000 64.024564 34.854813
v 21.690000 64.564629 34.792634
v 21.383274 64.688161 35.200428
v 21.383274 64.369011 35.030414
v 21.690000 64.330655 34.586981
v 21.690000 64.843858 34.930721
v 21.383275 65.038724 35.289125
v 21.690000 65.149311 34.991834
v 21.383274 65.400328 35.291348
v 21.690000 65.460174 34.971807
v 21.383274 65.751955 35.206970
v 21.690000 65.755261 34.872005
v 21.383274 66.073173 35.040894
v 21.690000 66.014463 34.699230
v 21.383274 66.345311 34.802771
v 21.690000 66.220115 34.465255
v 21.383275 66.552555 34.506441
v 21.690000 66.358203 34.186027
v 21.383275 66.682861 34.169124
v 21.690000 66.419315 33.880573
v 21.383274 66.728655 33.810426
v 21.690000 66.399288 33.569710
v 21.383274 66.687276 33.451191
v 21.690000 66.299486 33.274623
v 21.383275 66.561128 33.112298
v 21.690000 66.126711 33.015421
v 21.383275 66.088355 32.571989
v 21.383275 66.357545 32.813441
v 21.690000 65.892737 32.809769
v 21.383274 65.769205 32.401975
v 21.690000 65.613508 32.671682
v 21.383274 65.418642 32.313278
v 21.690000 65.308054 32.610569
v 21.383275 65.057038 32.311054
v 21.690000 64.997192 32.630596
v 21.383275 64.705411 32.395433
v 21.690000 64.702104 32.730398
v 21.383274 64.384193 32.561509
v 21.690000 64.442903 32.903173
v 21.383274 64.112055 32.799632
v 21.690000 64.237251 33.137147
v 21.383274 63.904811 33.095962
v 21.690000 64.099163 33.416376
v 21.383274 63.774505 33.433278
v 21.690000 64.038051 33.721830
v 21.383275 63.728711 33.791977
v 21.690000 64.058078 34.032693
v 21.383274 63.770090 34.151212
v 21.690000 64.157879 34.327780
v 21.383274 63.896237 34.490105
v 14.040000 64.039615 34.841643
v 14.083274 63.595809 34.789564
v 14.083274 63.792244 35.058094
v 14.083274 64.032324 35.288434
v 14.040000 63.831724 34.539380
v 14.040000 63.649021 33.833908
v 14.040000 63.684059 33.468731
v 14.083274 63.342522 33.508740
v 14.040000 63.802367 33.121478
v 14.083274 63.421963 33.185655
v 14.040000 63.997569 32.810869
v 14.083274 63.556299 32.881273
v 14.040000 64.922168 32.251218
v 14.040000 65.287881 32.222311
v 14.083274 65.189172 31.892910
v 14.040000 65.650403 32.278522
v 14.083274 65.521144 31.915041
v 14.040000 65.990189 32.416821
v 14.083274 65.844229 31.994481
v 14.040000 66.701893 33.230192
v 14.040000 66.793866 33.585329
v 14.083274 67.101122 33.430920
v 14.040000 66.801460 33.952104
v 14.083274 67.136974 33.761691
v 14.040000 66.724265 34.310743
v 14.083274 67.114844 34.093662
v 14.040000 66.046838 35.152875
v 14.040000 65.713067 35.305120
v 14.083274 65.918485 35.580895
v 14.040000 65.353183 35.376289
v 14.083274 65.598964 35.673640
v 14.040000 64.986587 35.362544
v 14.083274 65.268193 35.709492
v 15.310000 63.442324 36.021882
v 14.981300 63.875937 36.260426
v 14.981300 63.469448 35.988163
v 15.310000 63.855080 36.298343
v 14.981300 64.323528 36.457967
v 15.310000 64.309572 36.498929
v 14.981300 64.798621 36.574783
v 15.310000 64.791991 36.617546
v 14.981299 65.286782 36.607326
v 15.310000 65.287678 36.650590
v 14.981300 65.773178 36.554605
v 15.310000 65.781573 36.597057
v 14.981299 66.243030 36.418224
v 15.310000 66.258669 36.458574
v 14.981299 66.682061 36.202326
v 15.310000 66.704469 36.239347
v 14.981300 67.076932 35.913471
v 15.310000 67.105428 35.946038
v 14.981300 67.415644 35.560436
v 15.310000 67.449363 35.587560
v 14.981300 67.687908 35.153948
v 15.310000 67.725824 35.174804
v 14.981299 67.885448 34.706357
v 15.310000 67.926411 34.720312
v 14.981300 68.002265 34.231263
v 15.310000 68.045028 34.237893
v 14.981299 68.034807 33.743102
v 15.310000 68.078072 33.742206
v 14.981300 67.982087 33.256706
v 15.310000 68.024539 33.248311
v 14.981300 67.845706 32.786854
v 15.310000 67.886055 32.771215
v 14.981300 67.629808 32.347823
v 15.310000 67.666828 32.325415
v 14.981299 67.340953 31.952952
v 15.310000 67.373520 31.924456
v 14.981300 66.987918 31.614240
v 15.310000 67.015042 31.580521
v 14.981300 66.581429 31.341976
v 15.310000 66.602286 31.304060
v 14.981300 66.133838 31.144436
v 15.310000 66.147794 31.103474
v 14.981300 65.658744 31.027620
v 15.310000 65.665375 30.984856
v 14.981300 65.170583 30.995077
v 15.310000 65.169687 30.951812
v 14.981300 64.684187 31.047797
v 15.310000 64.675792 31.005345
v 14.981300 64.214336 31.184178
v 15.310000 64.198697 31.143829
v 14.981300 63.775305 31.400076
v 15.310000 63.752897 31.363056
v 14.981300 63.380434 31.688931
v 15.310000 63.351938 31.656364
v 15.310000 63.008003 32.014843
v 14.981300 63.041721 32.041967
v 15.310000 62.731542 32.427598
v 14.981299 62.769458 32.448455
v 15.310000 62.530955 32.882090
v 14.981300 62.571917 32.896046
v 15.310000 62.412338 33.364509
v 14.981299 62.455101 33.371140
v 15.310000 62.379294 33.860197
v 14.981300 62.422559 33.859301
v 15.310000 62.432827 34.354092
v 14.981300 62.475279 34.345697
v 15.310000 62.571310 34.831188
v 14.981300 62.611660 34.815548
v 15.310000 62.790537 35.276988
v 14.981300 62.827558 35.254579
v 15.310000 63.083846 35.677947
v 14.981300 63.116413 35.649450
v 14.083274 63.448989 34.491003
v 14.210148 63.333773 34.948172
v 14.411974 63.108758 35.084372
v 14.210148 63.561730 35.259795
v 14.675000 62.936097 35.188882
v 14.411974 63.363784 35.432999
v 14.675000 63.211895 35.565903
v 14.040000 63.699144 34.197321
v 14.083274 63.356244 34.171483
v 14.210148 63.163392 34.601699
v 14.411974 62.918144 34.696756
v 14.675000 62.729958 34.769696
v 14.083274 63.320392 33.840712
v 14.210148 63.055763 34.230904
v 14.411974 62.797735 34.281930
v 14.675000 62.599742 34.321084
v 14.210148 63.132028 33.086875
v 14.210147 63.039839 33.461807
v 14.411974 62.883055 33.002050
v 14.411974 62.779920 33.421505
v 14.210148 63.014158 33.847052
v 14.675000 62.580476 33.390580
v 14.411974 62.751189 33.852497
v 14.675000 62.549405 33.856675
v 14.210148 63.287922 32.733647
v 14.411974 63.057462 32.606877
v 14.675000 62.880623 32.509604
v 14.675000 62.692012 32.936962
v 14.083274 63.741450 32.604842
v 14.210148 63.502786 32.412856
v 14.411974 63.297840 32.247993
v 14.675000 63.140579 32.121490
v 14.981300 63.380434 31.688931
v 14.675000 63.463981 31.784413
v 14.411974 63.596885 31.936303
v 14.210147 63.770090 32.134249
v 14.083274 63.971790 32.364762
v 14.083274 64.240320 32.168328
v 14.040000 64.259140 32.553649
v 14.040000 64.572979 32.363685
v 14.083274 64.538881 32.021508
v 14.210148 64.428185 31.735910
v 14.210147 64.081712 31.906292
v 14.411974 64.333128 31.490662
v 14.411974 63.945512 31.681276
v 14.675000 64.260188 31.302477
v 14.675000 63.841002 31.508615
v 14.083274 64.858401 31.928762
v 14.210148 64.798980 31.628282
v 14.411974 64.747954 31.370253
v 14.675000 64.708801 31.172261
v 14.210148 65.568077 31.612358
v 14.210148 65.182832 31.586676
v 14.411974 65.608379 31.352438
v 14.675000 65.173209 31.121923
v 14.411974 65.177387 31.323707
v 14.675000 65.639304 31.152995
v 14.210147 65.943009 31.704546
v 14.411974 66.027834 31.455574
v 14.675000 66.092922 31.264531
v 14.083274 66.148611 32.128818
v 14.210147 66.296238 31.860441
v 14.411974 66.423007 31.629980
v 14.675000 66.520281 31.453142
v 14.083274 66.425042 32.313969
v 14.040000 66.288922 32.629753
v 14.083274 66.665122 32.544309
v 14.210147 66.895635 32.342608
v 14.210147 66.617028 32.075304
v 14.411974 67.093582 32.169404
v 14.411974 66.781891 31.870358
v 14.675000 67.245471 32.036500
v 14.675000 66.908394 31.713098
v 14.040000 66.530498 32.905838
v 14.083274 66.861556 32.812839
v 14.210147 67.123592 32.654231
v 14.411974 67.348608 32.518031
v 14.675000 67.521269 32.413521
v 14.083274 67.008377 33.111400
v 14.210147 67.293974 33.000703
v 14.411974 67.539222 32.905646
v 14.675000 67.727408 32.832706
v 14.210148 67.443208 33.755350
v 14.210147 67.401603 33.371499
v 14.411974 67.706177 33.749906
v 14.675000 67.857624 33.281319
v 14.411974 67.659631 33.320472
v 14.675000 67.907961 33.745728
v 14.210148 67.417526 34.140595
v 14.411974 67.677446 34.180897
v 14.675000 67.876889 34.211822
v 14.083274 67.035403 34.416748
v 14.210148 67.325338 34.515528
v 14.411974 67.574310 34.600352
v 14.675000 67.765354 34.665440
v 14.083274 66.901067 34.721130
v 14.040000 66.566443 34.641914
v 14.083274 66.715915 34.997560
v 14.210147 66.954580 35.189547
v 14.210148 67.169443 34.868756
v 14.411974 67.159526 35.354409
v 14.411974 67.399904 34.995525
v 14.675000 67.316787 35.480913
v 14.675000 67.576742 35.092799
v 14.040000 66.336502 34.927761
v 14.083274 66.485575 35.237640
v 14.210147 66.687276 35.468154
v 14.411974 66.860480 35.666100
v 14.675000 66.993385 35.817990
v 14.083274 66.217045 35.434075
v 14.210148 66.375654 35.696111
v 14.411974 66.511853 35.921127
v 14.675000 66.616363 36.093787
v 14.210148 65.658385 35.974121
v 14.210147 66.029181 35.866493
v 14.411974 65.709412 36.232150
v 14.675000 66.197178 36.299926
v 14.411974 66.124238 36.111741
v 14.675000 65.748565 36.430142
v 14.210147 65.274534 36.015727
v 14.411974 65.279978 36.278696
v 14.675000 65.284156 36.480479
v 14.083274 64.936222 35.687362
v 14.210148 64.889289 35.990045
v 14.411974 64.848987 36.249964
v 14.675000 64.818062 36.449408
v 14.083274 64.613136 35.607922
v 14.040000 64.633042 35.264626
v 14.083274 64.308754 35.473585
v 14.210148 64.161128 35.741962
v 14.210148 64.514356 35.897856
v 14.411974 64.034359 35.972422
v 14.411974 64.429532 36.146829
v 14.675000 63.937085 36.149261
v 14.675000 64.364444 36.337872
v 14.040000 64.311609 35.087815
v 14.210148 63.840337 35.527098
v 14.411974 63.675475 35.732044
v 14.675000 63.548971 35.889305
v 14.040000 64.856298 34.894207
v 14.040000 64.039615 34.841643
v 14.040000 64.311609 35.087815
v 14.040000 64.633042 35.264626
v 14.040000 65.713067 35.305120
v 14.039999 65.989061 34.670199
v 14.040000 64.986587 35.362544
v 14.040000 65.353183 35.376289
v 14.040000 64.095919 34.025209
v 14.040000 63.802367 33.121478
v 14.040000 63.684059 33.468731
v 14.040000 63.649021 33.833908
v 14.040000 63.699144 34.197321
v 14.040000 63.831724 34.539380
v 14.039999 64.468304 32.932203
v 14.040000 64.922168 32.251218
v 14.040000 64.572979 32.363685
v 14.040000 64.259140 32.553649
v 14.040000 63.997569 32.810869
v 14.040000 65.601068 32.708195
v 14.040000 66.288922 32.629753
v 14.040000 65.990189 32.416821
v 14.040000 65.650403 32.278522
v 14.040000 65.287881 32.222311
v 14.040000 66.361447 33.577193
v 14.040000 66.724265 34.310743
v 14.040000 66.801460 33.952104
v 14.040000 66.793866 33.585329
v 14.040000 66.701893 33.230192
v 14.040000 66.530498 32.905838
v 14.040000 66.046838 35.152875
v 14.040000 66.336502 34.927761
v 14.040000 66.566443 34.641914
v 15.080000 66.361447 33.577193
v 15.148211 66.263246 33.865428
v 14.040000 66.361447 33.577193
v 15.080000 65.601068 32.708195
v 15.148211 65.801586 32.937357
v 14.040000 65.601068 32.708195
v 15.690000 63.981985 32.798333
v 15.719289 64.221635 32.650297
v 15.740000 64.232100 32.662257
v 15.764118 64.238678 32.669775
v 15.790000 64.384193 32.561509
v 21.383275 66.357545 32.813441
v 15.690000 62.790537 35.276987
v 15.690000 63.814041 34.548724
v 15.690000 62.571311 34.831188
v 15.690000 63.679783 34.202335
v 15.690000 62.432827 34.354092
v 15.690000 63.629026 33.834322
v 15.690000 62.379294 33.860197
v 15.690000 62.412338 33.364509
v 15.690000 63.664507 33.464523
v 15.690000 62.530955 32.882090
v 15.690000 63.784313 33.112874
v 15.690000 62.731542 32.427598
v 15.690000 63.981985 32.798333
v 15.690000 63.008003 32.014843
v 15.690000 63.351938 31.656364
v 15.690000 64.246867 32.537857
v 15.690000 63.752897 31.363056
v 15.690000 64.564680 32.345489
v 15.690000 64.198697 31.143829
v 15.690000 64.918288 32.231598
v 15.690000 64.675792 31.005345
v 15.690000 65.169687 30.951812
v 15.690000 65.288630 32.202325
v 15.690000 65.665375 30.984856
v 15.690000 65.655741 32.259248
v 15.690000 66.147794 31.103474
v 15.690000 65.999828 32.399297
v 15.690000 66.602286 31.304060
v 15.690000 67.015042 31.580521
v 15.690000 66.302343 32.614924
v 15.690000 67.373520 31.924456
v 15.690000 66.546977 32.894504
v 15.690000 67.666828 32.325415
v 15.690000 66.720541 33.222963
v 15.690000 67.886055 32.771215
v 15.690000 68.024539 33.248311
v 15.690000 66.813679 33.582596
v 15.690000 68.078072 33.742206
v 15.690000 66.821369 33.954014
v 15.690000 68.045028 34.237893
v 15.690000 66.743197 34.317193
v 15.690000 67.926411 34.720312
v 15.690000 67.725824 35.174805
v 15.690000 66.583377 34.652556
v 15.690000 67.449363 35.587560
v 15.690000 66.350525 34.942021
v 15.690000 67.105428 35.946039
v 15.690000 66.057194 35.169985
v 15.690000 66.704469 36.239347
v 15.690000 66.258669 36.458574
v 15.690000 65.719199 35.324157
v 15.690000 65.781573 36.597057
v 15.690000 65.354759 35.396226
v 15.690000 65.287678 36.650591
v 15.690000 64.983522 35.382307
v 15.690000 64.791991 36.617546
v 15.690000 64.309572 36.498929
v 15.690000 64.625503 35.283150
v 15.690000 63.855080 36.298343
v 15.690000 64.300000 35.104102
v 21.383274 64.099821 34.788962
v 21.690000 64.330655 34.586981
v 21.383274 64.099821 34.788962
v 21.690000 64.330655 34.586981
v 21.690000 64.157879 34.327780
v 21.690000 64.564629 34.792634
v 21.690000 64.843858 34.930721
v 21.690000 64.058078 34.032693
v 21.690000 65.149311 34.991834
v 21.690000 64.038051 33.721830
v 21.690000 65.460174 34.971807
v 21.690000 64.099163 33.416376
v 21.690000 65.755261 34.872005
v 21.690000 64.237251 33.137147
v 21.690000 66.014463 34.699230
v 21.690000 64.442903 32.903173
v 21.690000 66.220115 34.465255
v 21.690000 64.702104 32.730398
v 21.690000 66.358203 34.186027
v 21.690000 64.997192 32.630596
v 21.690000 66.419315 33.880573
v 21.690000 65.308054 32.610569
v 21.690000 66.399288 33.569710
v 21.690000 65.613508 32.671682
v 21.690000 66.299486 33.274623
v 21.690000 65.892737 32.809769
v 21.690000 66.126711 33.015421
v 15.310000 63.351938 31.656364
v 14.675000 63.463981 31.784413
v 14.411974 63.596885 31.936303
v 14.210147 63.770090 32.134249
v 14.083274 63.971790 32.364762
v 14.040000 63.997569 32.810869
v 15.690000 63.442324 36.021882
v 15.310000 63.442324 36.021882
v 15.690000 63.083846 35.677947
v 15.310000 63.855080 36.298343
v 15.310000 63.083846 35.677947
v 15.690000 62.790537 35.276987
v 15.310000 62.790537 35.276988
v 15.690000 62.571311 34.831188
v 15.310000 62.571310 34.831188
v 15.690000 62.432827 34.354092
v 15.310000 62.432827 34.354092
v 15.690000 62.379294 33.860197
v 15.310000 62.379294 33.860197
v 15.690000 62.412338 33.364509
v 15.310000 62.412338 33.364509
v 15.690000 62.530955 32.882090
v 15.310000 62.530955 32.882090
v 15.690000 62.731542 32.427598
v 15.310000 62.731542 32.427598
v 15.690000 63.008003 32.014843
v 15.310000 63.008003 32.014843
v 15.690000 63.351938 31.656364
v 15.310000 63.351938 31.656364
v 15.690000 63.752897 31.363056
v 15.310000 63.752897 31.363056
v 15.690000 64.198697 31.143829
v 15.310000 64.198697 31.143829
v 15.690000 64.675792 31.005345
v 15.310000 64.675792 31.005345
v 15.690000 65.169687 30.951812
v 15.310000 65.169687 30.951812
v 15.690000 65.665375 30.984856
v 15.310000 65.665375 30.984856
v 15.690000 66.147794 31.103474
v 15.310000 66.147794 31.103474
v 15.690000 66.602286 31.304060
v 15.310000 66.602286 31.304060
v 15.690000 67.015042 31.580521
v 15.310000 67.015042 31.580521
v 15.690000 67.373520 31.924456
v 15.310000 67.373520 31.924456
v 15.690000 67.373520 31.924456
v 15.310000 67.373520 31.924456
v 15.690000 67.666828 32.325415
v 15.310000 67.666828 32.325415
v 15.690000 67.886055 32.771215
v 15.310000 67.886055 32.771215
v 15.690000 68.024539 33.248311
v 15.310000 68.024539 33.248311
v 15.690000 68.078072 33.742206
v 15.310000 68.078072 33.742206
v 15.690000 68.045028 34.237893
v 15.310000 68.045028 34.237893
v 15.690000 67.926411 34.720312
v 15.310000 67.926411 34.720312
v 15.690000 67.725824 35.174805
v 15.310000 67.725824 35.174804
v 15.690000 67.449363 35.587560
v 15.310000 67.449363 35.587560
v 15.690000 67.105428 35.946039
v 15.310000 67.105428 35.946038
v 15.690000 66.704469 36.239347
v 15.310000 66.704469 36.239347
v 15.690000 66.258669 36.458574
v 15.310000 66.258669 36.458574
v 15.690000 65.781573 36.597057
v 15.310000 65.781573 36.597057
v 15.690000 65.287678 36.650591
v 15.310000 65.287678 36.650590
v 15.690000 64.791991 36.617546
v 15.310000 64.791991 36.617546
v 15.690000 64.309572 36.498929
v 15.310000 64.309572 36.498929
v 15.690000 63.855080 36.298343
v 15.169316 66.175254 34.123696
v 14.039999 65.989061 34.670199
v 15.148212 66.087262 34.381965
v 15.080000 65.989061 34.670199
v 15.080000 65.989061 34.670199
v 15.148211 65.690343 34.729272
v 14.039999 65.989061 34.670199
v 15.169316 65.422680 34.782203
v 14.040000 64.856298 34.894207
v 15.148211 65.155016 34.835135
v 15.080000 64.856298 34.894207
v 15.080000 64.856298 34.894207
v 15.148212 64.655780 34.665046
v 14.040000 64.856298 34.894207
v 15.169316 64.476108 34.459708
v 14.040000 64.095919 34.025209
v 15.148212 64.296437 34.254371
v 15.080000 64.095919 34.025209
v 15.080000 64.095919 34.025209
v 15.148211 64.194120 33.736975
v 14.040000 64.095919 34.025209
v 15.169316 64.282112 33.478706
v 14.039999 64.468304 32.932203
v 15.148211 64.370103 33.220438
v 15.080000 64.468304 32.932203
v 15.169316 65.981257 33.142694
v 14.040000 66.361447 33.577193
v 15.148211 66.160929 33.348032
v 15.080000 66.361447 33.577193
v 15.080000 64.468304 32.932203
v 15.148212 64.767023 32.873131
v 14.039999 64.468304 32.932203
v 15.169316 65.034686 32.820199
v 14.040000 65.601068 32.708195
v 15.148211 65.302349 32.767268
v 15.080000 65.601068 32.708195
v 15.148211 64.370103 33.220438
v 15.746666 65.228683 33.801201
v 15.080000 64.468304 32.932203
v 15.169316 64.282112 33.478706
v 15.746666 65.228683 33.801201
v 15.148212 64.767023 32.873131
v 15.080000 64.095919 34.025209
v 15.746666 65.228683 33.801201
v 15.148211 64.194120 33.736975
v 15.148212 64.296437 34.254371
v 15.746666 65.228683 33.801201
v 15.746666 65.228683 33.801201
v 15.169316 64.476108 34.459708
v 15.080000 64.856298 34.894207
v 15.746666 65.228683 33.801201
v 15.148212 64.655780 34.665046
v 15.148211 65.155016 34.835135
v 15.746666 65.228683 33.801201
v 15.746666 65.228683 33.801201
v 15.169316 65.422680 34.782203
v 15.080000 65.989061 34.670199
v 15.746666 65.228683 33.801201
v 15.148211 65.690343 34.729272
v 15.148212 66.087262 34.381965
v 15.746666 65.228683 33.801201
v 15.746666 65.228683 33.801201
v 15.169316 66.175254 34.123696
v 15.080000 66.361447 33.577193
v 15.746666 65.228683 33.801201
v 15.148211 66.263246 33.865428
v 15.148211 66.160929 33.348032
v 15.746666 65.228683 33.801201
v 15.746666 65.228683 33.801201
v 15.169316 65.981257 33.142694
v 15.080000 65.601068 32.708195
v 15.746666 65.228683 33.801201
v 15.148211 65.801586 32.937357
v 15.148211 65.302349 32.767268
v 15.746666 65.228683 33.801201
v 15.746666 65.228683 33.801201
v 15.169316 65.981257 33.142694
v 15.169316 65.034686 32.820199
v 15.746666 65.228683 33.801201
f 1 2 3
f 1 3 4
f 1 5 2
f 1 4 190
f 2 5 35
f 2 36 3
f 2 35 45
f 2 45 36
f 3 36 38
f 3 38 4
f 4 184 190
f 4 38 191
f 4 191 184
f 5 43 35
f 6 7 8
f 6 8 106
f 6 112 119
f 6 106 112
f 7 9 10
f 7 10 8
f 8 99 100
f 8 10 99
f 8 100 106
f 9 11 12
f 9 12 10
f 10 94 99
f 10 12 94
f 11 13 14
f 11 14 12
f 12 88 94
f 12 14 88
f 13 15 16
f 13 16 14
f 14 82 88
f 14 16 82
f 15 17 18
f 15 18 16
f 16 74 82
f 16 18 74
f 17 77 18
f 18 76 74
f 18 77 76
f 19 20 21
f 19 21 587
f 19 587 588
f 20 22 23
f 20 23 21
f 21 61 65
f 21 23 61
f 21 65 587
f 22 24 25
f 22 25 23
f 23 57 61
f 23 25 57
f 24 26 27
f 24 27 25
f 25 52 57
f 25 27 52
f 26 28 29
f 26 29 27
f 27 47 52
f 27 29 47
f 28 30 31
f 28 31 29
f 29 39 47
f 29 31 39
f 30 42 31
f 30 194 42
f 30 195 194
f 31 41 39
f 31 42 41
f 32 33 34
f 32 34 62
f 33 585 63
f 33 63 34
f 34 54 58
f 34 58 62
f 34 63 54
f 35 43 44
f 35 44 50
f 35 50 45
f 36 37 38
f 36 45 46
f 36 46 37
f 37 39 40
f 37 40 38
f 37 46 47
f 37 47 39
f 38 40 191
f 39 41 40
f 40 192 191
f 40 41 192
f 41 193 192
f 41 42 193
f 42 194 193
f 43 48 44
f 44 48 49
f 44 49 55
f 44 55 50
f 45 50 51
f 45 51 46
f 46 51 52
f 46 52 47
f 48 53 49
f 49 53 54
f 49 54 59
f 49 59 55
f 50 55 56
f 50 56 51
f 51 56 57
f 51 57 52
f 53 58 54
f 54 63 59
f 55 59 60
f 55 60 56
f 56 60 61
f 56 61 57
f 59 63 64
f 59 64 60
f 60 64 65
f 60 65 61
f 63 585 64
f 64 585 586
f 64 586 65
f 65 586 587
f 66 67 68
f 66 68 69
f 66 70 71
f 66 69 80
f 66 80 70
f 66 71 67
f 67 71 584
f 68 78 69
f 69 78 79
f 69 79 85
f 69 85 80
f 70 72 73
f 70 73 71
f 70 80 81
f 70 81 72
f 72 74 75
f 72 75 73
f 72 81 82
f 72 82 74
f 74 76 75
f 78 83 79
f 79 83 84
f 79 84 86
f 79 86 85
f 80 85 87
f 80 87 81
f 81 87 88
f 81 88 82
f 83 89 84
f 84 89 90
f 84 90 91
f 84 91 86
f 85 86 92
f 85 92 87
f 86 91 93
f 86 93 92
f 87 92 94
f 87 94 88
f 89 95 90
f 90 95 96
f 90 96 97
f 90 97 91
f 91 97 98
f 91 98 93
f 92 93 99
f 92 99 94
f 93 98 100
f 93 100 99
f 95 101 96
f 96 101 102
f 96 102 103
f 96 103 97
f 97 103 104
f 97 104 98
f 98 104 105
f 98 105 100
f 100 105 106
f 101 107 102
f 102 107 108
f 102 108 109
f 102 109 103
f 103 109 110
f 103 110 104
f 104 110 111
f 104 111 105
f 105 111 112
f 105 112 106
f 107 113 108
f 108 113 114
f 108 114 115
f 108 115 109
f 109 115 116
f 109 116 110
f 110 116 117
f 110 117 111
f 111 117 118
f 111 118 112
f 112 118 119
f 113 120 114
f 114 120 121
f 114 121 122
f 114 122 115
f 115 122 123
f 115 123 116
f 116 123 124
f 116 124 117
f 117 124 125
f 117 125 118
f 118 126 119
f 118 125 126
f 120 127 121
f 121 127 128
f 121 128 129
f 121 129 122
f 122 129 130
f 122 130 123
f 123 130 131
f 123 131 124
f 124 131 132
f 124 132 125
f 125 133 126
f 125 132 133
f 127 134 128
f 128 134 135
f 128 135 136
f 128 136 129
f 129 136 137
f 129 137 130
f 130 137 138
f 130 138 131
f 131 138 139
f 131 139 132
f 132 140 133
f 132 139 140
f 134 141 135
f 135 141 142
f 135 142 143
f 135 143 136
f 136 143 144
f 136 144 137
f 137 144 145
f 137 145 138
f 138 145 146
f 138 146 139
f 139 147 140
f 139 146 147
f 141 148 142
f 142 148 149
f 142 149 150
f 142 150 143
f 143 150 151
f 143 151 144
f 144 151 152
f 144 152 145
f 145 152 153
f 145 153 146
f 146 154 147
f 146 153 154
f 148 155 149
f 149 155 156
f 149 156 157
f 149 157 150
f 150 157 158
f 150 158 151
f 151 158 159
f 151 159 152
f 152 159 160
f 152 160 153
f 153 161 154
f 153 160 161
f 155 162 156
f 156 162 163
f 156 163 164
f 156 164 157
f 157 164 165
f 157 165 158
f 158 165 166
f 158 166 159
f 159 166 167
f 159 167 160
f 160 168 161
f 160 167 168
f 162 169 163
f 163 169 170
f 163 170 171
f 163 171 164
f 164 171 172
f 164 172 165
f 165 172 173
f 165 173 166
f 166 173 174
f 166 174 167
f 167 175 168
f 167 174 175
f 169 176 170
f 170 176 177
f 170 177 178
f 170 178 171
f 171 178 179
f 171 179 172
f 172 179 180
f 172 180 173
f 173 180 181
f 173 181 174
f 174 182 175
f 174 181 182
f 176 183 177
f 177 183 184
f 177 184 185
f 177 185 178
f 178 185 186
f 178 186 179
f 179 186 187
f 179 187 180
f 180 187 188
f 180 188 181
f 181 189 182
f 181 188 189
f 183 190 184
f 184 191 185
f 185 191 192
f 185 192 186
f 186 192 193
f 186 193 187
f 187 193 194
f 187 194 188
f 188 195 189
f 188 194 195
f 196 197 198
f 196 198 199
f 196 200 197
f 197 200 201
f 198 248 199
f 199 248 247
f 200 202 201
f 201 202 203
f 202 204 203
f 203 204 205
f 204 206 205
f 205 206 207
f 206 208 207
f 207 208 209
f 208 210 209
f 209 210 211
f 210 212 211
f 211 212 213
f 212 214 213
f 213 214 215
f 214 216 215
f 215 216 217
f 216 218 217
f 217 218 219
f 218 220 219
f 219 220 221
f 220 222 221
f 221 222 223
f 222 589 223
f 224 225 226
f 224 227 225
f 225 227 228
f 227 229 228
f 228 229 230
f 229 231 230
f 230 231 232
f 231 233 232
f 232 233 234
f 233 235 234
f 234 235 236
f 235 237 236
f 236 237 238
f 237 239 238
f 238 239 240
f 239 241 240
f 240 241 242
f 241 243 242
f 242 243 244
f 243 245 244
f 244 245 246
f 245 247 246
f 246 247 248
f 249 250 251
f 249 649 648
f 249 251 649
f 250 590 251
f 251 590 591
f 252 253 254
f 252 254 255
f 252 256 253
f 253 256 257
f 254 650 255
f 256 258 257
f 257 258 259
f 258 260 259
f 259 260 261
f 260 262 261
f 261 262 263
f 262 264 263
f 263 264 265
f 264 266 265
f 265 266 267
f 266 268 267
f 267 268 269
f 268 270 269
f 269 270 271
f 270 272 271
f 271 272 273
f 272 274 273
f 273 274 275
f 274 276 275
f 275 276 278
f 276 277 278
f 276 279 277
f 277 279 280
f 279 281 280
f 280 281 282
f 281 283 282
f 282 283 284
f 283 285 284
f 284 285 286
f 285 287 286
f 286 287 288
f 287 289 288
f 288 289 290
f 289 291 290
f 290 291 292
f 291 293 292
f 292 293 294
f 293 295 294
f 294 295 296
f 295 297 296
f 296 297 298
f 297 299 298
f 298 299 300
f 299 651 300
f 300 651 652
f 301 302 303
f 301 303 304
f 301 305 302
f 301 304 541
f 302 305 406
f 302 407 303
f 302 406 415
f 302 415 407
f 303 407 409
f 303 409 304
f 304 534 541
f 304 409 542
f 304 542 534
f 305 413 406
f 306 307 308
f 306 414 413
f 306 418 414
f 306 308 418
f 307 309 310
f 307 310 308
f 308 310 422
f 308 422 423
f 308 423 418
f 309 311 312
f 309 312 310
f 310 312 430
f 310 430 422
f 311 434 312
f 311 442 434
f 312 434 435
f 312 435 430
f 313 314 315
f 313 446 445
f 313 453 446
f 313 315 453
f 314 316 317
f 314 317 315
f 315 317 457
f 315 457 458
f 315 458 453
f 316 318 319
f 316 319 317
f 317 319 463
f 317 463 457
f 318 466 319
f 318 471 470
f 318 470 466
f 319 466 467
f 319 467 463
f 320 321 322
f 320 480 479
f 320 484 480
f 320 322 484
f 321 323 324
f 321 324 322
f 322 324 488
f 322 488 489
f 322 489 484
f 323 325 326
f 323 326 324
f 324 326 494
f 324 494 488
f 325 497 326
f 325 502 501
f 325 501 497
f 326 497 498
f 326 498 494
f 327 328 329
f 327 511 510
f 327 515 511
f 327 329 515
f 328 330 331
f 328 331 329
f 329 331 519
f 329 519 520
f 329 520 515
f 330 332 333
f 330 333 331
f 331 333 525
f 331 525 519
f 332 528 333
f 332 533 532
f 332 532 528
f 333 528 529
f 333 529 525
f 334 335 336
f 334 337 335
f 334 336 404
f 335 337 338
f 335 540 539
f 335 338 540
f 335 539 336
f 336 539 544
f 336 544 405
f 336 405 404
f 337 339 338
f 338 339 340
f 338 340 531
f 338 531 540
f 339 341 340
f 340 341 342
f 340 527 531
f 340 342 527
f 341 343 342
f 342 343 344
f 342 344 524
f 342 524 527
f 343 345 344
f 344 345 346
f 344 522 524
f 344 346 522
f 345 347 346
f 346 347 348
f 346 348 518
f 346 518 522
f 347 349 348
f 348 349 350
f 348 514 518
f 348 350 514
f 349 351 350
f 350 351 352
f 350 508 514
f 350 352 508
f 351 353 352
f 352 353 354
f 352 509 508
f 352 354 509
f 353 355 354
f 354 355 356
f 354 356 500
f 354 500 509
f 355 357 356
f 356 357 358
f 356 496 500
f 356 358 496
f 357 359 358
f 358 359 360
f 358 360 493
f 358 493 496
f 359 361 360
f 360 361 362
f 360 491 493
f 360 362 491
f 361 363 362
f 362 363 364
f 362 364 487
f 362 487 491
f 363 365 364
f 364 365 366
f 364 483 487
f 364 366 483
f 365 367 366
f 366 367 368
f 366 477 483
f 366 368 477
f 367 369 368
f 368 369 370
f 368 478 477
f 368 370 478
f 369 371 370
f 370 371 372
f 370 372 469
f 370 469 478
f 371 373 372
f 372 373 374
f 372 465 469
f 372 374 465
f 373 375 374
f 374 375 376
f 374 376 462
f 374 462 465
f 375 377 376
f 376 377 378
f 376 460 462
f 376 378 460
f 377 379 378
f 378 379 380
f 378 380 456
f 378 456 460
f 379 381 380
f 380 381 382
f 380 451 456
f 380 382 451
f 381 383 382
f 382 383 384
f 382 452 451
f 382 384 452
f 383 385 384
f 384 385 386
f 384 386 678
f 384 678 452
f 385 677 386
f 387 388 389
f 387 389 438
f 388 390 391
f 388 391 389
f 389 432 437
f 389 437 438
f 389 391 432
f 390 392 393
f 390 393 391
f 391 433 432
f 391 393 433
f 392 394 395
f 392 395 393
f 393 427 433
f 393 395 427
f 394 396 397
f 394 397 395
f 395 429 427
f 395 397 429
f 396 398 399
f 396 399 397
f 397 399 421
f 397 421 429
f 398 400 401
f 398 401 399
f 399 417 421
f 399 401 417
f 400 402 403
f 400 403 401
f 401 410 417
f 401 403 410
f 402 404 405
f 402 405 403
f 403 412 410
f 403 405 412
f 405 544 412
f 406 413 414
f 406 414 419
f 406 419 415
f 407 408 409
f 407 415 416
f 407 416 408
f 408 410 411
f 408 411 409
f 408 416 417
f 408 417 410
f 409 411 542
f 410 412 411
f 411 543 542
f 411 412 543
f 412 544 543
f 414 426 419
f 414 418 426
f 415 419 420
f 415 420 416
f 416 420 421
f 416 421 417
f 418 423 426
f 419 428 420
f 419 426 428
f 420 429 421
f 420 428 429
f 422 424 423
f 422 430 431
f 422 431 424
f 423 425 426
f 423 424 425
f 424 431 432
f 424 433 425
f 424 432 433
f 425 427 428
f 425 428 426
f 425 433 427
f 427 429 428
f 430 435 436
f 430 436 431
f 431 436 437
f 431 437 432
f 434 441 435
f 434 442 441
f 435 440 436
f 435 441 440
f 436 439 437
f 436 440 439
f 437 439 438
f 443 444 445
f 443 445 446
f 443 446 447
f 443 447 448
f 443 681 444
f 443 448 681
f 444 681 682
f 446 453 454
f 446 454 447
f 447 449 448
f 447 454 455
f 447 455 449
f 448 449 450
f 448 680 681
f 448 450 680
f 449 451 450
f 449 455 456
f 449 456 451
f 450 451 452
f 450 679 680
f 450 452 679
f 452 678 679
f 453 458 454
f 454 461 455
f 454 458 461
f 455 460 456
f 455 461 460
f 457 459 458
f 457 463 464
f 457 464 459
f 458 459 461
f 459 464 465
f 459 462 461
f 459 465 462
f 460 461 462
f 463 467 468
f 463 468 464
f 464 468 469
f 464 469 465
f 466 474 467
f 466 470 474
f 467 476 468
f 467 474 476
f 468 478 469
f 468 476 478
f 470 471 472
f 470 472 473
f 470 473 474
f 471 479 472
f 472 479 480
f 472 480 481
f 472 481 473
f 473 475 474
f 473 481 482
f 473 482 475
f 474 475 476
f 475 477 476
f 475 482 483
f 475 483 477
f 476 477 478
f 480 484 485
f 480 485 481
f 481 485 486
f 481 486 482
f 482 486 487
f 482 487 483
f 484 489 485
f 485 492 486
f 485 489 492
f 486 491 487
f 486 492 491
f 488 490 489
f 488 494 495
f 488 495 490
f 489 490 492
f 490 495 496
f 490 493 492
f 490 496 493
f 491 492 493
f 494 498 499
f 494 499 495
f 495 499 500
f 495 500 496
f 497 505 498
f 497 501 505
f 498 507 499
f 498 505 507
f 499 509 500
f 499 507 509
f 501 502 503
f 501 503 504
f 501 504 505
f 502 510 503
f 503 510 511
f 503 511 512
f 503 512 504
f 504 506 505
f 504 512 513
f 504 513 506
f 505 506 507
f 506 508 507
f 506 513 514
f 506 514 508
f 507 508 509
f 511 515 516
f 511 516 512
f 512 516 517
f 512 517 513
f 513 517 518
f 513 518 514
f 515 520 516
f 516 523 517
f 516 520 523
f 517 522 518
f 517 523 522
f 519 521 520
f 519 525 526
f 519 526 521
f 520 521 523
f 521 526 527
f 521 524 523
f 521 527 524
f 522 523 524
f 525 529 530
f 525 530 526
f 526 530 531
f 526 531 527
f 528 536 529
f 528 532 536
f 529 538 530
f 529 536 538
f 530 540 531
f 530 538 540
f 532 533 534
f 532 534 535
f 532 535 536
f 533 541 534
f 534 542 535
f 535 537 536
f 535 542 543
f 535 543 537
f 536 537 538
f 537 539 538
f 537 543 544
f 537 544 539
f 538 539 540
f 545 546 547
f 545 547 548
f 545 549 550
f 545 551 552
f 545 552 549
f 545 553 546
f 545 548 551
f 546 553 558
f 549 575 550
f 550 570 569
f 550 575 576
f 550 577 570
f 550 576 577
f 553 554 555
f 553 555 556
f 553 557 558
f 553 559 554
f 553 556 557
f 554 559 563
f 559 560 561
f 559 561 562
f 559 564 560
f 559 562 563
f 560 564 568
f 564 565 566
f 564 566 567
f 564 569 565
f 564 567 568
f 565 569 574
f 569 570 571
f 569 571 572
f 569 573 574
f 569 572 573
f 578 579 580
f 579 757 580
f 580 757 758
f 581 582 583
f 582 782 583
f 583 782 783
f 590 592 591
f 591 592 593
f 592 594 593
f 593 594 595
f 594 596 595
f 595 596 597
f 595 597 598
f 597 599 598
f 598 599 600
f 599 601 600
f 600 601 602
f 601 603 602
f 602 603 604
f 602 604 605
f 604 606 605
f 605 606 607
f 606 608 607
f 607 608 609
f 608 610 609
f 609 610 611
f 609 611 612
f 611 613 612
f 612 613 614
f 613 615 614
f 614 615 616
f 615 617 616
f 616 617 618
f 616 618 619
f 618 620 619
f 619 620 621
f 620 622 621
f 621 622 623
f 622 624 623
f 623 624 625
f 623 625 626
f 625 627 626
f 626 627 628
f 627 629 628
f 628 629 630
f 629 631 630
f 630 631 632
f 630 632 633
f 632 634 633
f 633 634 635
f 634 636 635
f 635 636 637
f 636 638 637
f 637 638 639
f 637 639 640
f 639 641 640
f 640 641 642
f 641 643 642
f 642 643 644
f 643 645 644
f 644 645 646
f 644 646 647
f 646 648 647
f 647 648 649
f 653 654 655
f 654 656 655
f 654 657 656
f 656 657 658
f 657 659 658
f 658 659 660
f 659 661 660
f 660 661 662
f 661 663 662
f 662 663 664
f 663 665 664
f 664 665 666
f 665 667 666
f 666 667 668
f 667 669 668
f 668 669 670
f 669 671 670
f 670 671 672
f 671 673 672
f 672 673 674
f 673 675 674
f 674 675 676
f 683 684 685
f 683 686 684
f 683 756 686
f 684 687 685
f 685 687 688
f 686 756 755
f 687 689 688
f 688 689 690
f 689 691 690
f 690 691 692
f 691 693 692
f 692 693 694
f 693 695 694
f 694 695 696
f 695 697 696
f 696 697 698
f 697 699 698
f 698 699 700
f 699 701 700
f 700 701 702
f 701 703 702
f 702 703 704
f 703 705 704
f 704 705 706
f 705 707 706
f 706 707 708
f 707 709 708
f 708 709 710
f 709 711 710
f 710 711 712
f 711 713 712
f 712 713 714
f 713 715 714
f 714 715 716
f 715 717 716
f 716 717 718
f 717 719 718
f 718 719 720
f 719 721 720
f 720 721 722
f 721 723 722
f 724 725 726
f 725 727 726
f 726 727 728
f 727 729 728
f 728 729 730
f 729 731 730
f 730 731 732
f 731 733 732
f 732 733 734
f 733 735 734
f 734 735 736
f 735 737 736
f 736 737 738
f 737 739 738
f 738 739 740
f 739 741 740
f 740 741 742
f 741 743 742
f 742 743 744
f 743 745 744
f 744 745 746
f 745 747 746
f 746 747 748
f 747 749 748
f 748 749 750
f 749 751 750
f 750 751 752
f 751 753 752
f 752 753 754
f 753 755 754
f 754 755 756
f 757 759 758
f 758 759 760
f 761 762 763
f 762 764 763
f 763 764 765
f 764 766 765
f 765 766 767
f 768 769 770
f 769 771 770
f 770 771 772
f 771 773 772
f 772 773 774
f 775 776 777
f 776 778 777
f 777 778 779
f 778 780 779
f 779 780 781
f 782 784 783
f 783 784 785
f 786 787 788
f 787 789 788
f 788 789 790
f 789 791 790
f 790 791 792
f 793 794 795
f 793 796 794
f 795 797 798
f 796 801 804
f 798 835 834
f 799 800 801
f 799 802 803
f 802 805 803
f 805 808 811
f 806 807 808
f 806 809 810
f 809 812 810
f 812 815 818
f 813 814 815
f 813 816 817
f 816 819 817
f 819 822 825
f 820 821 822
f 820 823 824
f 823 826 824
f 827 828 829
f 827 830 831
f 829 832 833
f 830 834 831