# Part14
# Autodesk dbId: 45
# Units: mm
o 045_Part14
v -5.409997 -0.308290 3.451608
v -5.410000 32.463053 -2.828599
v -5.410000 31.707158 -5.524637
v -5.409996 0.447604 6.147646
v -8.409995 -13.547764 7.163590
v -5.409996 -12.791868 9.859627
v -5.409996 -13.547762 7.163589
v -8.409995 -12.791870 9.859628
v -5.409996 -2.922443 7.092514
v -5.409996 -13.547762 7.163589
v -5.409996 -12.791868 9.859627
v -5.409996 -3.678338 4.396476
v 8.658149 -9.404836 8.909996
v 8.857950 -8.940384 8.779777
v 4.590001 -2.922442 7.092513
v 10.590001 -7.977513 8.509815
v 15.590000 -7.977514 8.509815
v 12.589999 0.688323 6.080154
v 9.590001 -8.235514 8.582151
v 10.072363 -8.043132 8.528212
v 15.589998 0.688323 6.080154
v 9.089999 15.323957 1.976728
v 12.589997 16.334972 1.693268
v 9.089998 16.334971 1.693268
v 6.089999 15.323957 1.976728
v 4.590001 0.447605 6.147645
v 6.089999 16.334971 1.693268
v 2.590000 16.334971 1.693268
v 2.589999 19.705017 0.748401
v -5.410000 32.463053 -2.828599
v 6.089999 19.705018 0.748400
v 6.089998 20.716033 0.464940
v 12.589997 19.705018 0.748400
v 9.089998 20.716033 0.464940
v 9.089998 19.705018 0.748400
v 12.589996 29.574444 -2.018713
v 15.589995 37.277408 -4.178411
v 15.589995 29.574444 -2.018714
v -8.410000 37.277407 -4.178410
v -1.909998 1.458618 5.864185
v -5.409996 0.447604 6.147646
v 1.090002 1.458618 5.864185
v 1.090002 0.447604 6.147646
v 9.175787 -8.541550 8.667955
v 8.590002 -20.494833 12.019324
v 8.590001 -9.903255 9.049739
v 1.090002 -2.922443 7.092513
v 1.090002 -3.933458 7.375974
v -5.409996 -12.791868 9.859627
v -1.909997 -3.933458 7.375974
v -5.409996 -2.922443 7.092514
v -1.909998 -2.922444 7.092514
v 15.590000 -8.733408 5.813777
v 10.590001 -7.977513 8.509815
v 10.590000 -8.733408 5.813777
v 8.590001 -10.659149 6.353701
v 8.658149 -9.404836 8.909996
v 8.590001 -9.903255 9.049739
v 8.658149 -10.160730 6.213958
v 8.857950 -8.940384 8.779777
v 8.857950 -9.696278 6.083739
v 9.175787 -8.541550 8.667955
v 9.175787 -9.297444 5.971917
v 9.590001 -8.235514 8.582151
v 9.590001 -8.991409 5.886113
v 10.072363 -8.043132 8.528212
v 10.072363 -8.799027 5.832174
v 10.590001 -7.977513 8.509815
v 12.589997 18.949124 -1.947638
v 12.589996 28.818549 -4.714751
v 12.589997 19.705018 0.748400
v 12.589997 15.579077 -1.002770
v 12.589999 0.688323 6.080154
v 12.589999 -0.067571 3.384116
v 15.589995 28.818550 -4.714752
v 12.589996 29.574444 -2.018713
v 12.589996 28.818549 -4.714751
v 1.090002 -4.689352 4.679936
v 1.090002 -3.678338 4.396475
v 4.590001 -3.678337 4.396475
v 4.590001 -0.308289 3.451607
v 1.090002 0.702724 3.168147
v 2.590000 15.579076 -1.002770
v 6.089999 14.568062 -0.719310
v 9.089998 14.568063 -0.719310
v 12.589999 -0.067571 3.384116
v 1.090002 -0.308290 3.451608
v -1.909998 0.702723 3.168147
v -5.409997 -0.308290 3.451608
v -5.410000 31.707158 -5.524637
v -1.909998 -0.308290 3.451608
v 2.589999 18.949123 -1.947637
v 6.089998 19.960138 -2.231098
v 6.089999 18.949124 -1.947638
v 6.089999 15.579076 -1.002770
v 12.589997 15.579077 -1.002770
v 9.089998 15.579076 -1.002770
v -5.410000 32.463053 -2.828599
v -8.410000 32.463054 -2.828599
v -5.410000 31.707158 -5.524637
v -8.410000 31.707160 -5.524637
v -8.409995 -20.494833 12.019325
v -8.409995 -12.791870 9.859628
v -8.410000 32.463054 -2.828599
v -1.909998 0.447604 6.147646
v -8.409995 -13.547764 7.163590
v -8.409995 -21.250727 9.323287
v -8.409995 -12.791870 9.859628
v -8.409995 -20.494833 12.019325
v 15.590000 -7.977514 8.509815
v 10.590000 -8.733408 5.813777
v 8.590001 -9.903255 9.049739
v 8.590002 -20.494833 12.019324
v 8.590001 -10.659149 6.353701
v 8.590002 -21.250727 9.323286
v 15.590000 -8.733408 5.813777
v 15.589998 -0.067571 3.384116
v 15.590000 -7.977514 8.509815
v 15.589998 0.688323 6.080154
v 12.589996 29.574444 -2.018713
v 12.589997 16.334972 1.693268
v 12.589999 0.688323 6.080154
v 15.589998 0.688323 6.080154
v 12.589999 -0.067571 3.384116
v 15.589998 -0.067571 3.384116
v 15.589995 29.574444 -2.018714
v -5.409996 -3.678338 4.396476
v -1.909997 -4.689352 4.679936
v -5.409996 -13.547762 7.163589
v -1.909998 -3.678338 4.396476
v 8.590002 -21.250727 9.323286
v -8.409995 -21.250727 9.323287
v -8.409995 -13.547764 7.163590
v 8.590001 -10.659149 6.353701
v 8.658149 -10.160730 6.213958
v 8.857950 -9.696278 6.083739
v 9.175787 -9.297444 5.971917
v 9.590001 -8.991409 5.886113
v 10.072363 -8.799027 5.832174
v 10.590000 -8.733408 5.813777
v 15.590000 -8.733408 5.813777
v 15.589998 -0.067571 3.384116
v -8.410000 36.521512 -6.874448
v 15.589995 36.521514 -6.874449
v 12.589996 28.818549 -4.714751
v -8.410000 31.707160 -5.524637
v 15.589995 28.818550 -4.714752
v 9.089998 19.960139 -2.231098
v 12.589997 18.949124 -1.947638
v 9.089998 18.949124 -1.947638
v 9.089998 18.949124 -1.947638
v 12.589997 18.949124 -1.947638
v 9.089998 19.705018 0.748400
v 12.589997 19.705018 0.748400
v 6.089999 19.705018 0.748400
v 2.589999 19.705017 0.748401
v 6.089999 18.949124 -1.947638
v 2.589999 18.949123 -1.947637
v 9.089998 16.334971 1.693268
v 12.589997 16.334972 1.693268
v 9.089998 15.579076 -1.002770
v 12.589997 15.579077 -1.002770
v 2.589999 19.705017 0.748401
v 2.590000 16.334971 1.693268
v 2.589999 18.949123 -1.947637
v 2.590000 15.579076 -1.002770
v 6.089999 15.579076 -1.002770
v 2.590000 15.579076 -1.002770
v 6.089999 16.334971 1.693268
v 2.590000 16.334971 1.693268
v 6.089999 18.949124 -1.947638
v 6.089998 19.960138 -2.231098
v 6.089999 19.705018 0.748400
v 6.089998 20.716033 0.464940
v 9.089998 15.579076 -1.002770
v 9.089998 14.568063 -0.719310
v 9.089998 16.334971 1.693268
v 9.089999 15.323957 1.976728
v -1.909998 0.447604 6.147646
v -5.409996 0.447604 6.147646
v -1.909998 -0.308290 3.451608
v -5.409997 -0.308290 3.451608
v 1.090002 -0.308290 3.451608
v 4.590001 -0.308289 3.451607
v 1.090002 0.447604 6.147646
v 4.590001 0.447605 6.147645
v -1.909998 -3.678338 4.396476
v -5.409996 -3.678338 4.396476
v -1.909998 -2.922444 7.092514
v -5.409996 -2.922443 7.092514
v 1.090002 -2.922443 7.092513
v 4.590001 -2.922442 7.092513
v 1.090002 -3.678338 4.396475
v 4.590001 -3.678337 4.396475
v 4.590001 -2.922442 7.092513
v 4.590001 0.447605 6.147645
v 4.590001 -3.678337 4.396475
v 4.590001 -0.308289 3.451607
v 1.090002 0.447604 6.147646
v 1.090002 1.458618 5.864185
v 1.090002 -0.308290 3.451608
v 1.090002 0.702724 3.168147
v -1.909998 -2.922444 7.092514
v -1.909997 -3.933458 7.375974
v -1.909998 -3.678338 4.396476
v -1.909997 -4.689352 4.679936
v 1.090002 -3.678338 4.396475
v 1.090002 -4.689352 4.679936
v 1.090002 -2.922443 7.092513
v 1.090002 -3.933458 7.375974
v 1.090002 1.458618 5.864185
v -1.909998 1.458618 5.864185
v 1.090002 0.702724 3.168147
v -1.909998 0.702723 3.168147
v -1.909998 -0.308290 3.451608
v -1.909998 0.702723 3.168147
v -1.909998 0.447604 6.147646
v -1.909998 1.458618 5.864185
v -1.909997 -3.933458 7.375974
v 1.090002 -3.933458 7.375974
v -1.909997 -4.689352 4.679936
v 1.090002 -4.689352 4.679936
v 9.089998 20.716033 0.464940
v 6.089998 20.716033 0.464940
v 9.089998 19.960139 -2.231098
v 6.089998 19.960138 -2.231098
v 6.089999 16.334971 1.693268
v 6.089999 15.323957 1.976728
v 6.089999 15.579076 -1.002770
v 6.089999 14.568062 -0.719310
v 6.089999 15.323957 1.976728
v 9.089999 15.323957 1.976728
v 6.089999 14.568062 -0.719310
v 9.089998 14.568063 -0.719310
v 9.089998 19.705018 0.748400
v 9.089998 20.716033 0.464940
v 9.089998 18.949124 -1.947638
v 9.089998 19.960139 -2.231098
v 8.590002 -20.494833 12.019324
v -8.409995 -20.494833 12.019325
v 8.590002 -21.250727 9.323286
v -8.409995 -21.250727 9.323287
v 15.589995 28.818550 -4.714752
v 15.589995 36.521514 -6.874449
v 15.589995 29.574444 -2.018714
v 15.589995 37.277408 -4.178411
v 15.589995 36.521514 -6.874449
v -8.410000 36.521512 -6.874448
v 15.589995 37.277408 -4.178411
v -8.410000 37.277407 -4.178410
v -8.410000 32.463054 -2.828599
v -8.410000 37.277407 -4.178410
v -8.410000 31.707160 -5.524637
v -8.410000 36.521512 -6.874448
f 1 2 3
f 1 4 2
f 5 6 7
f 5 8 6
f 9 10 11
f 9 12 10
f 13 14 15
f 13 15 46
f 14 44 15
f 15 45 46
f 15 44 26
f 15 47 48
f 15 48 45
f 16 17 18
f 16 18 20
f 17 21 18
f 18 19 20
f 18 23 22
f 18 26 19
f 18 22 26
f 19 26 44
f 22 23 24
f 22 25 26
f 25 27 28
f 25 28 26
f 26 42 43
f 26 28 42
f 28 29 30
f 28 30 40
f 28 40 42
f 29 31 32
f 29 32 30
f 30 36 37
f 30 37 39
f 30 41 40
f 30 32 36
f 30 39 104
f 32 34 36
f 33 34 35
f 33 36 34
f 36 38 37
f 40 41 105
f 45 48 49
f 45 49 102
f 48 50 49
f 49 50 51
f 49 103 102
f 50 52 51
f 53 54 55
f 53 110 54
f 56 57 58
f 56 59 57
f 57 59 60
f 59 61 60
f 60 61 62
f 61 63 62
f 62 63 64
f 63 65 64
f 64 65 66
f 65 67 66
f 66 67 68
f 67 111 68
f 69 70 71
f 70 120 71
f 72 73 74
f 72 121 73
f 75 76 77
f 75 126 76
f 78 79 80
f 78 129 128
f 78 131 129
f 78 80 131
f 80 134 131
f 80 135 134
f 80 136 135
f 80 137 136
f 80 81 137
f 81 82 83
f 81 83 84
f 81 85 86
f 81 87 82
f 81 84 85
f 81 138 137
f 81 86 138
f 82 88 83
f 83 88 90
f 83 90 92
f 83 95 84
f 85 96 86
f 85 97 96
f 86 139 138
f 86 140 139
f 86 141 140
f 86 142 141
f 88 89 90
f 88 91 89
f 90 93 92
f 90 143 144
f 90 144 145
f 90 146 143
f 90 145 93
f 92 93 94
f 93 145 148
f 98 99 100
f 99 101 100
f 106 107 108
f 107 109 108
f 112 113 114
f 113 115 114
f 116 117 118
f 117 119 118
f 122 123 124
f 123 125 124
f 127 128 129
f 127 130 128
f 129 132 133
f 129 131 132
f 144 147 145
f 145 149 148
f 148 149 150
f 151 152 153
f 152 154 153
f 155 156 157
f 156 158 157
f 159 160 161
f 160 162 161
f 163 164 165
f 164 166 165
f 167 168 169
f 168 170 169
f 171 172 173
f 172 174 173
f 175 176 177
f 176 178 177
f 179 180 181
f 180 182 181
f 183 184 185
f 184 186 185
f 187 188 189
f 188 190 189
f 191 192 193
f 192 194 193
f 195 196 197
f 196 198 197
f 199 200 201
f 200 202 201
f 203 204 205
f 204 206 205
f 207 208 209
f 208 210 209
f 211 212 213
f 212 214 213
f 215 216 217
f 216 218 217
f 219 220 221
f 220 222 221
f 223 224 225
f 224 226 225
f 227 228 229
f 228 230 229
f 231 232 233
f 232 234 233
f 235 236 237
f 236 238 237
f 239 240 241
f 240 242 241
f 243 244 245
f 244 246 245
f 247 248 249
f 248 250 249
f 251 252 253
f 252 254 253