# Part5
# Autodesk dbId: 46
# Units: mm
o 046_Part5
v -8.410000 -20.564132 12.142617
v -8.410000 -12.668592 9.928924
v -5.610000 -20.564133 12.142617
v -5.610000 -12.668592 9.928924
v -8.410000 -21.374020 9.254004
v -8.410000 -20.564132 12.142617
v -5.610000 -21.374020 9.254004
v -5.610000 -20.564133 12.142617
v -8.410000 -13.478480 7.040312
v -8.410000 -21.374020 9.254004
v -5.610000 -13.478480 7.040311
v -5.610000 -21.374020 9.254004
v -8.409998 46.055737 -9.911086
v -5.609999 45.635716 -9.731394
v -5.609999 46.055737 -9.911086
v -8.409998 45.635716 -9.731394
v -5.609999 45.276516 -9.449118
v -8.409998 45.276516 -9.449118
v -5.609999 45.002614 -9.083491
v -8.409998 45.002615 -9.083491
v -5.609999 44.832680 -8.659434
v -8.409998 44.832680 -8.659434
v -5.609999 44.778284 -8.205841
v -8.409998 44.778284 -8.205841
v -5.609999 44.843144 -7.753627
v -8.409998 44.843144 -7.753627
v -5.609998 45.022834 -7.333608
v -8.409998 45.022834 -7.333608
v -5.609998 45.305114 -6.974410
v -8.409998 45.305114 -6.974409
v -5.609998 45.670738 -6.700508
v -8.409998 45.670738 -6.700508
v -5.609998 46.094797 -6.530570
v -8.409998 46.094797 -6.530570
v -5.609998 46.548389 -6.476178
v -8.409998 46.548389 -6.476178
v -5.609998 47.000606 -6.541038
v -8.409998 47.000606 -6.541038
v -5.609998 47.420625 -6.720729
v -8.409998 47.420625 -6.720729
v -5.609998 47.779824 -7.003006
v -8.409998 47.779824 -7.003006
v -5.609998 48.053724 -7.368631
v -8.409998 48.053724 -7.368631
v -5.609998 48.223664 -7.792691
v -8.409998 48.223664 -7.792691
v -5.609998 48.278054 -8.246282
v -8.409998 48.278054 -8.246282
v -5.609998 48.213196 -8.698497
v -8.409998 48.213197 -8.698497
v -5.609998 48.033504 -9.118515
v -8.409998 48.033504 -9.118515
v -5.609998 47.751229 -9.477715
v -8.409998 47.751229 -9.477715
v -5.609998 47.385600 -9.751615
v -8.409998 47.385601 -9.751615
v -5.609998 46.961544 -9.921553
v -8.409998 46.961544 -9.921553
v -5.609998 46.507952 -9.975945
v -8.409998 46.507952 -9.975945
v -5.609999 46.055737 -9.911086
v -8.410000 -30.973932 11.685915
v -5.610000 -31.393949 11.865605
v -5.610000 -30.973933 11.685915
v -8.410000 -31.393949 11.865605
v -5.610000 -31.753148 12.147882
v -8.410000 -31.753148 12.147882
v -5.610000 -32.027047 12.513508
v -8.410000 -32.027047 12.513508
v -5.610000 -32.196987 12.937567
v -8.410000 -32.196987 12.937567
v -5.610000 -32.251378 13.391159
v -8.410000 -32.251378 13.391159
v -5.610000 -32.186520 13.843373
v -8.410000 -32.186520 13.843373
v -5.610000 -32.006828 14.263391
v -8.410000 -32.006828 14.263391
v -5.610000 -31.724553 14.622591
v -8.410000 -31.724553 14.622591
v -5.610000 -31.358924 14.896492
v -8.410000 -31.358924 14.896492
v -5.610000 -30.934868 15.066430
v -8.410000 -30.934868 15.066430
v -5.610000 -30.481276 15.120822
v -8.410000 -30.481276 15.120822
v -5.610000 -30.029064 15.055963
v -8.410000 -30.029064 15.055963
v -5.610000 -29.609045 14.876272
v -8.410000 -29.609045 14.876272
v -5.610000 -29.249843 14.593995
v -8.410000 -29.249843 14.593995
v -5.610000 -28.975944 14.228369
v -8.410000 -28.975944 14.228369
v -5.610000 -28.806006 13.804311
v -8.410000 -28.806006 13.804311
v -5.610000 -28.751613 13.350718
v -8.410000 -28.751613 13.350719
v -5.610000 -28.816473 12.898505
v -8.410000 -28.816473 12.898505
v -5.610000 -28.996163 12.478486
v -8.410000 -28.996163 12.478486
v -5.610000 -29.278441 12.119287
v -8.410000 -29.278441 12.119287
v -5.610000 -29.644067 11.845385
v -8.410000 -29.644067 11.845386
v -5.610000 -30.068123 11.675447
v -8.410000 -30.068123 11.675448
v -5.610000 -30.521718 11.621056
v -8.410000 -30.521718 11.621056
v -5.610000 -30.973933 11.685915
v -8.409999 -2.087806 3.587040
v -5.610000 -2.507825 3.766731
v -5.610000 -2.087806 3.587040
v -8.410000 -2.507825 3.766731
v -5.610000 -2.867024 4.049007
v -8.410000 -2.867024 4.049007
v -5.610000 -3.140926 4.414633
v -8.410000 -3.140925 4.414634
v -5.610000 -3.310864 4.838692
v -8.410000 -3.310864 4.838692
v -5.610000 -3.365255 5.292284
v -8.410000 -3.365255 5.292284
v -5.610000 -3.300396 5.744498
v -8.409999 -3.300396 5.744498
v -5.610000 -3.120705 6.164517
v -8.409999 -3.120705 6.164517
v -5.610000 -2.838429 6.523716
v -8.409999 -2.838429 6.523716
v -5.610000 -2.472802 6.797617
v -8.409999 -2.472802 6.797617
v -5.609999 -2.048744 6.967555
v -8.409999 -2.048744 6.967555
v -5.609999 -1.595152 7.021947
v -8.409999 -1.595152 7.021947
v -5.609999 -1.142937 6.957088
v -8.409999 -1.142937 6.957088
v -5.609999 -0.722919 6.777397
v -8.409999 -0.722919 6.777397
v -5.609999 -0.363720 6.495120
v -8.409999 -0.363720 6.495120
v -5.609999 -0.089818 6.129494
v -8.409999 -0.089818 6.129494
v -5.609999 0.080119 5.705436
v -8.409999 0.080119 5.705436
v -5.609999 0.134511 5.251843
v -8.409999 0.134511 5.251843
v -5.609999 0.069652 4.799629
v -8.409999 0.069652 4.799629
v -5.609999 -0.110039 4.379611
v -8.409999 -0.110039 4.379611
v -5.609999 -0.392315 4.020411
v -8.409999 -0.392315 4.020412
v -5.610000 -0.757942 3.746510
v -8.409999 -0.757941 3.746510
v -5.610000 -1.182000 3.576573
v -8.409999 -1.182000 3.576573
v -5.610000 -1.635592 3.522180
v -8.409999 -1.635592 3.522180
v -5.610000 -2.087806 3.587040
v -8.409999 32.393762 -2.705321
v -8.409999 37.400691 -4.109126
v -5.609999 32.393762 -2.705321
v -5.609999 37.400691 -4.109126
v -8.409999 31.583875 -5.593934
v -8.409999 32.393762 -2.705321
v -5.609999 31.583875 -5.593934
v -5.609999 32.393762 -2.705321
v -8.409999 36.590803 -6.997739
v -8.409999 31.583875 -5.593934
v -5.609999 36.590803 -6.997739
v -5.609999 31.583875 -5.593934
v -5.610000 -32.121273 7.593714
v -5.610000 -34.792876 9.177603
v -5.610000 -33.561334 8.209796
v -5.609999 48.014020 -14.039174
v -5.609999 44.908397 -14.003288
v -5.609999 46.458845 -14.225662
v -5.609998 49.467931 -13.456531
v -5.609999 36.590803 -6.997739
v -5.609999 31.583875 -5.593934
v -5.609998 50.721506 -12.517441
v -5.609998 51.689314 -11.285900
v -5.609998 47.751229 -9.477715
v -5.609998 47.385600 -9.751615
v -5.609998 46.961544 -9.921553
v -5.609998 46.507952 -9.975945
v -5.609999 46.055737 -9.911086
v -5.609998 52.305395 -9.845837
v -5.609998 48.223664 -7.792691
v -5.609998 48.278054 -8.246282
v -5.609998 48.213196 -8.698497
v -5.609998 48.033504 -9.118515
v -5.609998 52.527771 -8.295389
v -5.609998 47.000606 -6.541038
v -5.609998 47.420625 -6.720729
v -5.609998 47.779824 -7.003006
v -5.609998 48.053724 -7.368631
v -5.609998 52.341281 -6.740215
v -5.609998 48.147947 -2.448837
v -5.609998 50.819552 -4.032726
v -5.609998 49.588010 -3.064919
v -5.610000 -31.987344 19.184050
v -5.610000 -28.881723 19.148165
v -5.610000 -30.432168 19.370538
v -5.610000 -33.441254 18.601407
v -5.610000 -12.668592 9.928924
v -8.410000 -28.881723 19.148165
v -8.410000 -31.987344 19.184050
v -8.410000 -30.432168 19.370538
v -8.409998 50.819552 -4.032726
v -8.409999 32.393762 -2.705321
v -8.409998 48.147947 -2.448837
v -8.409998 49.588010 -3.064919
v -8.409998 51.758638 -5.286300
v -8.409999 37.400691 -4.109126
v -8.409998 52.341281 -6.740215
v -8.409998 47.000606 -6.541038
v -8.409998 52.527771 -8.295389
v -8.409998 48.223664 -7.792691
v -8.409998 48.053724 -7.368631
v -8.409998 47.779824 -7.003006
v -8.409998 47.420625 -6.720729
v -8.409998 52.305395 -9.845837
v -8.409998 47.751229 -9.477715
v -8.409998 48.033504 -9.118515
v -8.409998 48.213197 -8.698497
v -8.409998 48.278054 -8.246282
v -8.409998 51.689314 -11.285900
v -8.409998 46.961544 -9.921553
v -8.409998 47.385601 -9.751615
v -8.409999 44.908397 -14.003288
v -8.409998 48.014020 -14.039174
v -8.409999 46.458845 -14.225662
v -8.410000 -34.792876 9.177603
v -8.410000 -32.121273 7.593714
v -8.410000 -33.561333 8.209796
v -8.410000 -35.731962 10.431177
v -8.410000 -13.478480 7.040312
v -8.410000 -12.668592 9.928924
v -8.410000 -13.478480 7.040312
v -5.610000 -12.668592 9.928924
v -5.610000 -13.478480 7.040311
v -8.409998 46.055737 -9.911086
v -8.410000 -30.973932 11.685915
v -8.409999 -2.087806 3.587040
v -8.409999 37.400691 -4.109126
v -8.409999 36.590803 -6.997739
v -5.609999 37.400691 -4.109126
v -5.609999 36.590803 -6.997739
v -5.610000 -21.374020 9.254004
v -5.610000 -35.731962 10.431177
v -5.610000 -13.478480 7.040311
v -5.610000 -28.816473 12.898505
v -5.610000 -28.996163 12.478486
v -5.610000 -29.278441 12.119287
v -5.610000 -36.314605 11.885092
v -5.610000 -29.644067 11.845385
v -5.610000 -30.068123 11.675447
v -5.610000 -30.521718 11.621056
v -5.610000 -3.300396 5.744498
v -5.610000 -2.867024 4.049007
v -5.610000 -3.140926 4.414633
v -5.610000 -3.310864 4.838692
v -5.610000 -3.365255 5.292284
v -5.610000 -20.564133 12.142617
v -5.610000 -34.694830 17.662317
v -5.610000 -30.029064 15.055963
v -5.610000 -29.609045 14.876272
v -5.610000 -29.249843 14.593995
v -5.610000 -28.975944 14.228369
v -5.610000 -28.806006 13.804311
v -5.610000 -28.751613 13.350718
v -5.610000 -3.120705 6.164517
v -5.610000 -2.838429 6.523716
v -5.610000 -2.472802 6.797617
v -5.609999 -2.048744 6.967555
v -5.609999 -1.595152 7.021947
v -5.609999 -1.142937 6.957088
v -5.610000 -35.662638 16.430777
v -5.610000 -30.481276 15.120822
v -5.610000 -30.934868 15.066430
v -5.610000 -31.358924 14.896492
v -5.610000 -31.724553 14.622591
v -5.610000 -36.278719 14.990713
v -5.610000 -32.006828 14.263391
v -5.610000 -32.186520 13.843373
v -5.610000 -32.251378 13.391159
v -5.610000 -32.196987 12.937567
v -5.610000 -36.501095 13.440265
v -5.610000 -32.027047 12.513508
v -5.610000 -31.753148 12.147882
v -5.610000 -31.393949 11.865605
v -5.610000 -30.973933 11.685915
v -5.609999 45.635716 -9.731394
v -5.609999 45.276516 -9.449118
v -5.609999 45.002614 -9.083491
v -5.609999 44.832680 -8.659434
v -5.609999 44.778284 -8.205841
v -5.609999 44.843144 -7.753627
v -5.609999 37.400691 -4.109126
v -5.609998 45.022834 -7.333608
v -5.609998 45.305114 -6.974410
v -5.609998 45.670738 -6.700508
v -5.609998 46.094797 -6.530570
v -5.609998 46.548389 -6.476178
v -5.609998 51.758638 -5.286300
v -5.609999 32.393762 -2.705321
v -5.610000 -2.507825 3.766731
v -5.610000 -2.087806 3.587040
v -5.609999 -0.722919 6.777397
v -5.609999 -0.363720 6.495120
v -5.609999 -0.089818 6.129494
v -5.609999 0.080119 5.705436
v -5.609999 0.134511 5.251843
v -5.609999 0.069652 4.799629
v -5.609999 -0.110039 4.379611
v -5.609999 -0.392315 4.020411
v -5.610000 -0.757942 3.746510
v -5.610000 -1.182000 3.576573
v -5.610000 -1.635592 3.522180
v -8.410000 -21.374020 9.254004
v -8.409999 -3.300396 5.744498
v -8.410000 -3.365255 5.292284
v -8.410000 -3.310864 4.838692
v -8.410000 -3.140925 4.414634
v -8.410000 -2.867024 4.049007
v -8.410000 -2.507825 3.766731
v -8.409999 -2.087806 3.587040
v -8.410000 -36.314605 11.885092
v -8.410000 -30.973932 11.685915
v -8.410000 -28.816473 12.898505
v -8.410000 -20.564132 12.142617
v -8.410000 -30.521718 11.621056
v -8.410000 -30.068123 11.675448
v -8.410000 -29.644067 11.845386
v -8.410000 -29.278441 12.119287
v -8.410000 -28.996163 12.478486
v -8.410000 -36.501095 13.440265
v -8.410000 -31.393949 11.865605
v -8.410000 -31.753148 12.147882
v -8.410000 -32.027047 12.513508
v -8.410000 -32.196987 12.937567
v -8.410000 -36.278719 14.990713
v -8.410000 -32.251378 13.391159
v -8.410000 -32.186520 13.843373
v -8.410000 -32.006828 14.263391
v -8.410000 -31.724553 14.622591
v -8.410000 -35.662638 16.430777
v -8.410000 -31.358924 14.896492
v -8.410000 -30.934868 15.066430
v -8.410000 -30.481276 15.120822
v -8.410000 -30.029064 15.055963
v -8.410000 -34.694830 17.662317
v -8.410000 -33.441254 18.601407
v -8.410000 -12.668592 9.928924
v -8.410000 -28.751613 13.350719
v -8.410000 -28.806006 13.804311
v -8.410000 -28.975944 14.228369
v -8.410000 -29.249843 14.593995
v -8.410000 -29.609045 14.876272
v -8.409999 -2.048744 6.967555
v -8.409999 -2.472802 6.797617
v -8.409999 -2.838429 6.523716
v -8.409999 -3.120705 6.164517
v -8.409998 46.507952 -9.975945
v -8.409998 46.055737 -9.911086
v -8.409998 50.721506 -12.517441
v -8.409999 36.590803 -6.997739
v -8.409998 49.467931 -13.456531
v -8.409999 31.583875 -5.593934
v -8.409998 44.843144 -7.753627
v -8.409998 44.778284 -8.205841
v -8.409998 44.832680 -8.659434
v -8.409998 45.002615 -9.083491
v -8.409998 45.276516 -9.449118
v -8.409998 45.635716 -9.731394
v -8.409999 -1.182000 3.576573
v -8.409999 -0.757941 3.746510
v -8.409999 -0.392315 4.020412
v -8.409999 -0.110039 4.379611
v -8.409999 0.069652 4.799629
v -8.409998 46.548389 -6.476178
v -8.409998 46.094797 -6.530570
v -8.409998 45.670738 -6.700508
v -8.409998 45.305114 -6.974409
v -8.409998 45.022834 -7.333608
v -8.409999 0.134511 5.251843
v -8.409999 0.080119 5.705436
v -8.409999 -0.089818 6.129494
v -8.409999 -0.363720 6.495120
v -8.409999 -0.722919 6.777397
v -8.409999 -1.142937 6.957088
v -8.409999 -1.635592 3.522180
v -8.409999 -1.595152 7.021947
v -5.610000 -28.881723 19.148165
v -5.609998 48.147947 -2.448837
v -8.410000 -28.881723 19.148165
v -8.409998 48.147947 -2.448837
v -8.409998 48.147947 -2.448837
v -5.609998 48.147947 -2.448837
v -8.409998 49.588010 -3.064919
v -5.609998 49.588010 -3.064919
v -8.409998 50.819552 -4.032726
v -5.609998 50.819552 -4.032726
v -8.409998 51.758638 -5.286300
v -5.609998 51.758638 -5.286300
v -8.409998 52.341281 -6.740215
v -5.609998 52.341281 -6.740215
v -8.409998 52.527771 -8.295389
v -5.609998 52.527771 -8.295389
v -8.409998 52.305395 -9.845837
v -5.609998 52.305395 -9.845837
v -8.409998 51.689314 -11.285900
v -5.609998 51.689314 -11.285900
v -8.409998 50.721506 -12.517441
v -5.609998 50.721506 -12.517441
v -8.409998 49.467931 -13.456531
v -5.609998 49.467931 -13.456531
v -8.409998 48.014020 -14.039174
v -5.609999 48.014020 -14.039174
v -8.409999 46.458845 -14.225662
v -5.609999 46.458845 -14.225662
v -8.409999 44.908397 -14.003288
v -5.609999 44.908397 -14.003288
v -5.609999 44.908397 -14.003288
v -5.610000 -32.121273 7.593714
v -8.409999 44.908397 -14.003288
v -8.410000 -32.121273 7.593714
v -5.610000 -28.881723 19.148165
v -8.410000 -28.881723 19.148165
v -5.610000 -30.432168 19.370538
v -8.410000 -30.432168 19.370538
v -5.610000 -31.987344 19.184050
v -8.410000 -31.987344 19.184050
v -5.610000 -33.441254 18.601407
v -8.410000 -33.441254 18.601407
v -5.610000 -34.694830 17.662317
v -8.410000 -34.694830 17.662317
v -5.610000 -35.662638 16.430777
v -8.410000 -35.662638 16.430777
v -5.610000 -36.278719 14.990713
v -8.410000 -36.278719 14.990713
v -5.610000 -36.501095 13.440265
v -8.410000 -36.501095 13.440265
v -5.610000 -36.314605 11.885092
v -8.410000 -36.314605 11.885092
v -5.610000 -35.731962 10.431177
v -8.410000 -35.731962 10.431177
v -5.610000 -34.792876 9.177603
v -8.410000 -34.792876 9.177603
v -5.610000 -33.561334 8.209796
v -8.410000 -33.561333 8.209796
v -5.610000 -32.121273 7.593714
v -8.410000 -32.121273 7.593714
f 1 2 3
f 2 4 3
f 5 6 7
f 6 8 7
f 9 10 11
f 10 12 11
f 13 14 15
f 13 16 14
f 14 16 17
f 16 18 17
f 17 18 19
f 18 20 19
f 19 20 21
f 20 22 21
f 21 22 23
f 22 24 23
f 23 24 25
f 24 26 25
f 25 26 27
f 26 28 27
f 27 28 29
f 28 30 29
f 29 30 31
f 30 32 31
f 31 32 33
f 32 34 33
f 33 34 35
f 34 36 35
f 35 36 37
f 36 38 37
f 37 38 39
f 38 40 39
f 39 40 41
f 40 42 41
f 41 42 43
f 42 44 43
f 43 44 45
f 44 46 45
f 45 46 47
f 46 48 47
f 47 48 49
f 48 50 49
f 49 50 51
f 50 52 51
f 51 52 53
f 52 54 53
f 53 54 55
f 54 56 55
f 55 56 57
f 56 58 57
f 57 58 59
f 58 60 59
f 59 60 61
f 60 243 61
f 62 63 64
f 62 65 63
f 63 65 66
f 65 67 66
f 66 67 68
f 67 69 68
f 68 69 70
f 69 71 70
f 70 71 72
f 71 73 72
f 72 73 74
f 73 75 74
f 74 75 76
f 75 77 76
f 76 77 78
f 77 79 78
f 78 79 80
f 79 81 80
f 80 81 82
f 81 83 82
f 82 83 84
f 83 85 84
f 84 85 86
f 85 87 86
f 86 87 88
f 87 89 88
f 88 89 90
f 89 91 90
f 90 91 92
f 91 93 92
f 92 93 94
f 93 95 94
f 94 95 96
f 95 97 96
f 96 97 98
f 97 99 98
f 98 99 100
f 99 101 100
f 100 101 102
f 101 103 102
f 102 103 104
f 103 105 104
f 104 105 106
f 105 107 106
f 106 107 108
f 107 109 108
f 108 109 110
f 109 244 110
f 111 112 113
f 111 114 112
f 112 114 115
f 114 116 115
f 115 116 117
f 116 118 117
f 117 118 119
f 118 120 119
f 119 120 121
f 120 122 121
f 121 122 123
f 122 124 123
f 123 124 125
f 124 126 125
f 125 126 127
f 126 128 127
f 127 128 129
f 128 130 129
f 129 130 131
f 130 132 131
f 131 132 133
f 132 134 133
f 133 134 135
f 134 136 135
f 135 136 137
f 136 138 137
f 137 138 139
f 138 140 139
f 139 140 141
f 140 142 141
f 141 142 143
f 142 144 143
f 143 144 145
f 144 146 145
f 145 146 147
f 146 148 147
f 147 148 149
f 148 150 149
f 149 150 151
f 150 152 151
f 151 152 153
f 152 154 153
f 153 154 155
f 154 156 155
f 155 156 157
f 156 158 157
f 157 158 159
f 158 245 159
f 160 161 162
f 161 163 162
f 164 165 166
f 165 167 166
f 168 169 170
f 169 171 170
f 172 173 174
f 172 252 173
f 172 309 252
f 172 176 309
f 173 252 251
f 175 176 177
f 175 178 180
f 175 180 176
f 176 180 309
f 178 179 180
f 178 181 179
f 179 187 294
f 179 294 295
f 179 295 296
f 179 296 297
f 179 298 299
f 179 299 300
f 179 181 187
f 179 297 298
f 180 307 315
f 180 315 316
f 180 316 317
f 180 318 319
f 180 319 320
f 180 317 318
f 180 320 309
f 181 182 187
f 182 183 184
f 182 184 185
f 182 186 187
f 182 188 183
f 182 185 186
f 183 188 192
f 188 189 190
f 188 190 191
f 188 193 189
f 188 191 192
f 189 193 197
f 193 194 195
f 193 195 196
f 193 198 194
f 193 196 197
f 194 198 300
f 194 300 305
f 198 306 300
f 199 200 201
f 199 278 307
f 199 203 278
f 199 307 200
f 200 307 306
f 202 203 204
f 202 205 206
f 202 206 203
f 203 206 278
f 205 266 265
f 205 265 206
f 206 252 260
f 206 260 273
f 206 273 274
f 206 275 276
f 206 276 277
f 206 274 275
f 206 277 278
f 207 208 209
f 207 355 208
f 207 392 355
f 207 212 392
f 208 355 354
f 210 211 212
f 210 212 213
f 210 214 211
f 211 214 215
f 211 370 381
f 211 381 387
f 211 387 388
f 211 389 390
f 211 390 391
f 211 392 212
f 211 388 389
f 211 391 392
f 214 216 215
f 215 216 217
f 215 217 382
f 215 382 383
f 215 383 384
f 215 385 386
f 215 386 371
f 215 371 368
f 215 384 385
f 216 218 217
f 217 218 222
f 218 219 220
f 218 220 221
f 218 223 219
f 218 221 222
f 219 223 227
f 223 224 225
f 223 225 226
f 223 228 224
f 223 226 227
f 224 228 230
f 228 229 230
f 228 366 365
f 228 365 229
f 228 367 366
f 231 232 233
f 231 370 232
f 231 328 370
f 231 235 328
f 232 370 369
f 234 235 236
f 234 237 238
f 234 238 235
f 235 238 328
f 237 321 238
f 237 329 321
f 238 322 323
f 238 323 324
f 238 325 326
f 238 326 327
f 238 355 322
f 238 324 325
f 238 327 328
f 239 240 241
f 240 242 241
f 246 247 248
f 247 249 248
f 250 251 252
f 250 253 254
f 250 254 255
f 250 256 251
f 250 257 258
f 250 258 259
f 250 265 253
f 250 255 257
f 250 293 256
f 250 259 293
f 252 261 262
f 252 262 263
f 252 264 260
f 252 309 308
f 252 308 261
f 252 263 264
f 253 265 272
f 256 293 289
f 265 266 267
f 265 268 269
f 265 269 270
f 265 271 272
f 265 267 268
f 265 270 271
f 266 279 267
f 267 279 280
f 278 310 307
f 279 281 280
f 279 282 281
f 279 283 282
f 279 284 283
f 283 284 285
f 284 286 285
f 284 287 286
f 284 288 287
f 284 289 288
f 288 289 290
f 289 291 290
f 289 292 291
f 289 293 292
f 299 301 300
f 300 301 302
f 300 303 304
f 300 304 305
f 300 306 307
f 300 302 303
f 307 310 311
f 307 311 312
f 307 312 313
f 307 314 315
f 307 313 314
f 321 329 330
f 321 331 332
f 321 333 334
f 321 334 335
f 321 336 337
f 321 337 331
f 321 330 333
f 321 335 336
f 322 355 364
f 328 393 370
f 329 338 330
f 330 338 339
f 331 356 332
f 332 352 353
f 332 353 354
f 332 354 355
f 332 356 357
f 332 358 359
f 332 359 360
f 332 357 358
f 332 360 352
f 338 340 339
f 338 341 340
f 338 342 341
f 338 343 342
f 342 343 344
f 343 345 344
f 343 346 345
f 343 347 346
f 343 348 347
f 347 348 349
f 348 350 349
f 348 351 350
f 348 352 351
f 348 353 352
f 355 361 362
f 355 362 363
f 355 392 394
f 355 394 361
f 355 363 364
f 366 367 368
f 366 368 376
f 367 369 368
f 368 369 370
f 368 371 372
f 368 372 373
f 368 374 375
f 368 375 376
f 368 373 374
f 370 377 378
f 370 378 379
f 370 380 381
f 370 393 377
f 370 379 380
f 395 396 397
f 396 398 397
f 399 400 401
f 400 402 401
f 401 402 403
f 402 404 403
f 403 404 405
f 404 406 405
f 405 406 407
f 406 408 407
f 407 408 409
f 408 410 409
f 409 410 411
f 410 412 411
f 411 412 413
f 412 414 413
f 413 414 415
f 414 416 415
f 415 416 417
f 416 418 417
f 417 418 419
f 418 420 419
f 419 420 421
f 420 422 421
f 421 422 423
f 422 424 423
f 425 426 427
f 426 428 427
f 429 430 431
f 430 432 431
f 431 432 433
f 432 434 433
f 433 434 435
f 434 436 435
f 435 436 437
f 436 438 437
f 437 438 439
f 438 440 439
f 439 440 441
f 440 442 441
f 441 442 443
f 442 444 443
f 443 444 445
f 444 446 445
f 445 446 447
f 446 448 447
f 447 448 449
f 448 450 449
f 449 450 451
f 450 452 451
f 451 452 453
f 452 454 453