# ANSI B18.6.5M - M2.5x0.45 x 8(38)
# Autodesk dbId: 50
# Units: mm
o 050_ANSI_B18.6.5M_-_M2.5x0.45_x_8(38)
v 12.590000 -19.313999 11.423158
v 12.590000 -19.000698 11.427638
v 10.590000 -19.035150 11.119558
v 10.589999 -19.280492 11.114765
v 12.590000 -19.616343 11.340903
v 10.590000 -19.516234 11.046635
v 12.590000 -19.888733 11.186044
v 10.589999 -19.726311 10.919813
v 12.590000 -20.114053 10.968308
v 10.589999 -19.896405 10.742940
v 12.590000 -20.278145 10.701379
v 10.590000 -20.014925 10.528071
v 12.590000 -20.370700 10.402028
v 10.589999 -20.073794 10.289848
v 12.590000 -20.385901 10.089063
v 10.590000 -20.069001 10.044505
v 12.590000 -20.322793 9.782151
v 10.590000 -20.000872 9.808763
v 12.590000 -20.185343 9.500575
v 10.590000 -19.874049 9.598687
v 12.590000 -19.982185 9.262029
v 10.590000 -19.697177 9.428593
v 12.590000 -19.726086 9.081499
v 10.589999 -19.482307 9.310073
v 12.590000 -19.433137 8.970331
v 10.590000 -19.244084 9.251204
v 12.590000 -19.121744 8.935508
v 10.589999 -18.998742 9.255997
v 12.590000 -18.811475 8.979220
v 10.590000 -18.763000 9.324126
v 12.590000 -18.521825 9.098719
v 10.590000 -18.552923 9.450948
v 12.590000 -18.270992 9.286498
v 10.590000 -18.382830 9.627821
v 12.590000 -18.074738 9.530756
v 10.589999 -18.264309 9.842690
v 12.590000 -17.945395 9.816147
v 10.589999 -18.205440 10.080914
v 12.590000 -17.891089 10.124738
v 10.590000 -18.210233 10.326256
v 12.590000 -17.915232 10.437139
v 10.589999 -18.278362 10.561998
v 12.590000 -18.016308 10.733722
v 10.589999 -18.405185 10.772074
v 12.590000 -18.187966 10.995850
v 10.590000 -18.582057 10.942168
v 12.590000 -18.419419 11.207054
v 10.589999 -18.796927 11.060688
v 12.590000 -18.696126 11.354062
v 15.590001 -19.000698 11.427638
v 12.590000 -19.000698 11.427638
v 12.590000 -19.313999 11.423158
v 15.590000 -19.313999 11.423158
v 15.590000 -18.696125 11.354062
v 12.590000 -18.696126 11.354062
v 15.590001 -18.419419 11.207054
v 12.590000 -18.419419 11.207054
v 15.590000 -18.187966 10.995851
v 12.590000 -18.187966 10.995850
v 15.590001 -18.016308 10.733722
v 12.590000 -18.016308 10.733722
v 15.590001 -17.915232 10.437140
v 12.590000 -17.915232 10.437139
v 15.590001 -17.891088 10.124738
v 12.590000 -17.891089 10.124738
v 15.590001 -17.945395 9.816147
v 12.590000 -17.945395 9.816147
v 15.590001 -18.074738 9.530756
v 12.590000 -18.074738 9.530756
v 15.590001 -18.270992 9.286498
v 12.590000 -18.270992 9.286498
v 15.590001 -18.521824 9.098720
v 12.590000 -18.521825 9.098719
v 15.590001 -18.811475 8.979220
v 12.590000 -18.811475 8.979220
v 15.590001 -19.121744 8.935509
v 12.590000 -19.121744 8.935508
v 15.590001 -19.726086 9.081499
v 12.590000 -19.726086 9.081499
v 12.590000 -19.433137 8.970331
v 15.590001 -19.433136 8.970331
v 15.590001 -19.982185 9.262029
v 12.590000 -19.982185 9.262029
v 15.590001 -20.185342 9.500576
v 12.590000 -20.185343 9.500575
v 15.590001 -20.322793 9.782152
v 12.590000 -20.322793 9.782151
v 15.590001 -20.385901 10.089064
v 12.590000 -20.385901 10.089063
v 15.590001 -20.370699 10.402028
v 12.590000 -20.370700 10.402028
v 15.590001 -20.278145 10.701379
v 12.590000 -20.278145 10.701379
v 15.590001 -20.114052 10.968309
v 12.590000 -20.114053 10.968308
v 15.590001 -19.888732 11.186044
v 12.590000 -19.888733 11.186044
v 15.590001 -19.616343 11.340904
v 12.590000 -19.616343 11.340903
v 17.451835 -19.324687 11.532360
v 17.458165 -19.323149 11.507443
v 17.451835 -19.100560 11.544453
v 17.460148 -19.321224 11.482473
v 17.458836 -19.102851 11.477616
v 17.459410 -19.101698 11.511461
v 17.457256 -19.318851 11.457249
v 17.450146 -19.103962 11.444898
v 17.450140 -19.316185 11.432961
v 17.433849 -19.104979 11.415225
v 17.438585 -19.313307 11.410784
v 17.423071 -19.310241 11.390513
v 17.410899 -19.105852 11.390331
v 17.404542 -19.307236 11.374117
v 17.382639 -19.304183 11.360671
v 17.382639 -19.106545 11.371675
v 17.410899 -18.906381 11.368025
v 17.382639 -18.909827 11.349677
v 17.382639 -18.719501 11.295287
v 17.404542 -18.713553 11.307727
v 17.423071 -18.707001 11.323054
v 17.433849 -18.901735 11.392496
v 17.438585 -18.699534 11.342147
v 17.450140 -18.691828 11.363141
v 17.450146 -18.896171 11.421662
v 17.457256 -18.683863 11.386240
v 17.458836 -18.890028 11.453816
v 17.460148 -18.675976 11.410316
v 17.459410 -18.883676 11.487080
v 17.458165 -18.668584 11.434244
v 17.451835 -18.661579 11.458206
v 17.451835 -18.877498 11.519509
v 16.939328 -19.247146 11.145105
v 17.382639 -19.304183 11.360671
v 17.149191 -19.274156 11.247254
v 16.577591 -19.200536 10.968388
v 17.382639 -19.106545 11.371675
v 16.577591 -19.101650 10.969836
v 16.577591 -19.003365 10.958845
v 17.382639 -18.909827 11.349677
v 16.577591 -18.907241 10.935589
v 16.939328 -18.822746 11.097645
v 17.149191 -18.773840 11.191305
v 17.451835 -20.486595 10.000311
v 17.458165 -20.461678 10.001849
v 17.451835 -20.498689 10.224438
v 17.460148 -20.436709 10.003774
v 17.458836 -20.431851 10.222147
v 17.459411 -20.465696 10.223300
v 17.457256 -20.411484 10.006147
v 17.450146 -20.399134 10.221035
v 17.450140 -20.387197 10.008813
v 17.433849 -20.369460 10.220019
v 17.438585 -20.365020 10.011691
v 17.423071 -20.344748 10.014757
v 17.410899 -20.344567 10.219146
v 17.404542 -20.328353 10.017761
v 17.382639 -20.314906 10.020815
v 17.382639 -20.325911 10.218453
v 17.410899 -20.322260 10.418617
v 17.382639 -20.303912 10.415171
v 17.382639 -20.249522 10.605497
v 17.404542 -20.261962 10.611445
v 17.423071 -20.277289 10.617997
v 17.433849 -20.346732 10.423263
v 17.438585 -20.296383 10.625464
v 17.450140 -20.317376 10.633170
v 17.450146 -20.375897 10.428827
v 17.457256 -20.340475 10.641135
v 17.458836 -20.408052 10.434970
v 17.460148 -20.364552 10.649022
v 17.459410 -20.441316 10.441322
v 17.458165 -20.388480 10.656414
v 17.451835 -20.412441 10.663419
v 17.451836 -20.473744 10.447500
v 16.939328 -20.099340 10.077851
v 17.382639 -20.314906 10.020815
v 17.149191 -20.201490 10.050842
v 16.577591 -19.922624 10.124462
v 17.382639 -20.325911 10.218453
v 16.577591 -19.924072 10.223348
v 16.577591 -19.913081 10.321633
v 17.382639 -20.303912 10.415171
v 16.577591 -19.889825 10.417757
v 16.939328 -20.051880 10.502251
v 17.149191 -20.145540 10.551158
v 17.451836 -18.954546 8.838403
v 17.458165 -18.956085 8.863320
v 17.451836 -19.178673 8.826309
v 17.460148 -18.958009 8.888289
v 17.458836 -19.176382 8.893147
v 17.459411 -19.177535 8.859301
v 17.457256 -18.960383 8.913513
v 17.450146 -19.175271 8.925864
v 17.450140 -18.963048 8.937801
v 17.433849 -19.174255 8.955538
v 17.438586 -18.965927 8.959978
v 17.423071 -18.968992 8.980250
v 17.410899 -19.173381 8.980431
v 17.404542 -18.971997 8.996645
v 17.382639 -18.975050 9.010092
v 17.382639 -19.172688 8.999087
v 17.410899 -19.372852 9.002738
v 17.382639 -19.369407 9.021086
v 17.382639 -19.559732 9.075476
v 17.404542 -19.565680 9.063035
v 17.423071 -19.572232 9.047709
v 17.433849 -19.377499 8.978266
v 17.438586 -19.579700 9.028615
v 17.450140 -19.587406 9.007622
v 17.450146 -19.383062 8.949101
v 17.457257 -19.595371 8.984523
v 17.458836 -19.389206 8.916946
v 17.460148 -19.603257 8.960446
v 17.459411 -19.395557 8.883682
v 17.458165 -19.610650 8.936518
v 17.451836 -19.617654 8.912557
v 17.451836 -19.401735 8.851254
v 16.939328 -19.032087 9.225658
v 17.382639 -18.975050 9.010092
v 17.149191 -19.005077 9.123508
v 16.577591 -19.078697 9.402374
v 17.382639 -19.172688 8.999087
v 16.577591 -19.177584 9.400926
v 16.577591 -19.275868 9.411917
v 17.382639 -19.369407 9.021086
v 16.577591 -19.371993 9.435173
v 16.939328 -19.456487 9.273118
v 17.149191 -19.505394 9.179457
v 17.451835 -17.792638 10.370451
v 17.458165 -17.817555 10.368913
v 17.451835 -17.780545 10.146325
v 17.460148 -17.842525 10.366989
v 17.458836 -17.847382 10.148616
v 17.459410 -17.813537 10.147463
v 17.457256 -17.867749 10.364615
v 17.450146 -17.880099 10.149727
v 17.450140 -17.892037 10.361949
v 17.433849 -17.909773 10.150743
v 17.438585 -17.914213 10.359071
v 17.423071 -17.934485 10.356006
v 17.410899 -17.934667 10.151617
v 17.404542 -17.950881 10.353001
v 17.382639 -17.964327 10.349948
v 17.382639 -17.953322 10.152310
v 17.410899 -17.956973 9.952146
v 17.382639 -17.975321 9.955591
v 17.382639 -18.029711 9.765266
v 17.404542 -18.017271 9.759318
v 17.423071 -18.001944 9.752766
v 17.433849 -17.932502 9.947499
v 17.438585 -17.982850 9.745298
v 17.450140 -17.961857 9.737592
v 17.450146 -17.903336 9.941936
v 17.457256 -17.938758 9.729627
v 17.458836 -17.871182 9.935792
v 17.460148 -17.914682 9.721741
v 17.459410 -17.837918 9.929441
v 17.458165 -17.890754 9.714348
v 17.451835 -17.866792 9.707344
v 17.451835 -17.805489 9.923263
v 16.939328 -18.179893 10.292911
v 17.382639 -17.964327 10.349948
v 17.149191 -18.077744 10.319921
v 16.577591 -18.356610 10.246301
v 17.382639 -17.953322 10.152310
v 16.577591 -18.355162 10.147414
v 16.577591 -18.366153 10.049129
v 17.382639 -17.975321 9.955591
v 16.577591 -18.389409 9.953005
v 16.939328 -18.227353 9.868511
v 17.149191 -18.133693 9.819604
v 17.633602 -19.745852 10.469090
v 16.939328 -20.051880 10.502251
v 16.577591 -19.889825 10.417757
v 16.512882 -19.775443 10.375611
v 17.586892 -19.971032 10.536084
v 16.512882 -19.329847 9.549555
v 17.646905 -19.408584 9.665275
v 17.633602 -19.423325 9.579146
v 16.454799 -19.304733 9.655857
v 16.398576 -19.305879 9.768604
v 17.656709 -19.414388 9.749844
v 16.373823 -19.317210 9.824550
v 17.663069 -19.440982 9.833389
v 16.353458 -19.335838 9.878987
v 16.339561 -19.361947 9.931242
v 17.665208 -19.487625 9.908691
v 16.334439 -19.395942 9.980619
v 16.339561 -19.436590 10.024681
v 17.663113 -19.548753 9.968647
v 16.353458 -19.481786 10.061688
v 16.373823 -19.530764 10.091881
v 17.656856 -19.623664 10.012984
v 16.398576 -19.582825 10.115289
v 16.454798 -19.692534 10.141312
v 17.646647 -19.708165 10.038268
v 17.586892 -19.490319 9.353966
v 16.939328 -19.456487 9.273118
v 17.633602 -19.423325 9.579146
v 16.512882 -18.503791 9.995151
v 17.646905 -18.619510 9.916414
v 17.633602 -18.533381 9.901673
v 16.454798 -18.610092 10.020265
v 16.398576 -18.722840 10.019119
v 17.656709 -18.704079 9.910610
v 16.373823 -18.778785 10.007788
v 17.663069 -18.787625 9.884016
v 16.353458 -18.833223 9.989160
v 16.339561 -18.885477 9.963051
v 17.665207 -18.862926 9.837373
v 16.334439 -18.934854 9.929056
v 16.339561 -18.978917 9.888408
v 17.663113 -18.922883 9.776245
v 16.353458 -19.015923 9.843212
v 16.373823 -19.046116 9.794234
v 17.656856 -18.967219 9.701334
v 16.398576 -19.069525 9.742173
v 16.454799 -19.095548 9.632464
v 17.646647 -18.992503 9.616832
v 17.633602 -19.282404 10.839311
v 17.646647 -19.286730 10.753930
v 16.512882 -19.184698 10.847522
v 16.454798 -19.669141 10.350497
v 17.646905 -19.659723 10.454348
v 16.512882 -19.775443 10.375611
v 16.398575 -19.556394 10.351643
v 17.656709 -19.575154 10.460153
v 16.373823 -19.500448 10.362974
v 17.663069 -19.491609 10.486747
v 16.353458 -19.446011 10.381602
v 16.339561 -19.393756 10.407711
v 17.665207 -19.416307 10.533390
v 16.334439 -19.344379 10.441706
v 16.339561 -19.300317 10.482354
v 17.663113 -19.356350 10.594517
v 16.353458 -19.263310 10.527551
v 16.373823 -19.233117 10.576528
v 17.656857 -19.312014 10.669428
v 16.398576 -19.209709 10.628589
v 16.454798 -19.183685 10.738298
v 17.633602 -18.855908 10.791617
v 16.939328 -18.822746 11.097645
v 16.577591 -18.907241 10.935589
v 16.512882 -18.949387 10.821207
v 17.586892 -18.788914 11.016796
v 17.586892 -18.308202 9.834678
v 16.939328 -18.227353 9.868511
v 17.633602 -18.533381 9.901673
v 16.454798 -18.974501 10.714906
v 17.646905 -18.870650 10.705487
v 16.512882 -18.949387 10.821207
v 16.398576 -18.973355 10.602158
v 17.656709 -18.864845 10.620919
v 16.373823 -18.962024 10.546212
v 17.663069 -18.838251 10.537373
v 16.353458 -18.943396 10.491775
v 16.339561 -18.917287 10.439521
v 17.665207 -18.791608 10.462072
v 16.334439 -18.883292 10.390144
v 16.339561 -18.842644 10.346081
v 17.663113 -18.730481 10.402115
v 16.353458 -18.797447 10.309074
v 16.373823 -18.748470 10.278882
v 17.656857 -18.655570 10.357779
v 16.398575 -18.696409 10.255473
v 16.454798 -18.586700 10.229450
v 17.646647 -18.571068 10.332495
v 15.590000 -19.297431 12.680395
v 15.590000 -18.861779 12.669895
v 15.590001 -19.000698 11.427638
v 16.160001 -19.139617 10.185381
v 16.454798 -18.586700 10.229450
v 16.398575 -18.696409 10.255473
v 16.900969 -20.127892 12.356324
v 17.116390 -20.351653 11.855957
v 17.261624 -19.803117 11.859680
v 17.005553 -19.749595 12.338295
v 16.900969 -20.499647 12.144973
v 16.900970 -20.827689 11.870639
v 17.069981 -20.927028 11.360499
v 16.900970 -21.101475 11.542139
v 16.900970 -21.312206 11.170032
v 17.171973 -20.980354 10.883637
v 16.900970 -21.519652 10.343852
v 17.206192 -21.034739 10.397309
v 16.900970 -21.453108 10.766277
v 16.900970 -21.509700 9.916334
v 17.171973 -21.089124 9.910981
v 16.900970 -20.747442 8.423400
v 17.261624 -20.156569 8.699004
v 17.116391 -20.690733 8.823803
v 16.900970 -20.406990 8.164627
v 16.900970 -20.025803 7.970803
v 17.005554 -20.210092 8.220389
v 16.900970 -19.616133 7.848158
v 17.073649 -19.656561 8.115672
v 16.900970 -17.960718 8.111766
v 17.116390 -17.927580 8.514805
v 17.261624 -18.476116 8.511082
v 17.005554 -18.529639 8.032467
v 16.900970 -17.609405 8.355590
v 16.900970 -17.307274 8.658226
v 17.069981 -17.352206 9.010264
v 16.900970 -17.064037 9.009945
v 17.171973 -17.298879 9.487126
v 16.900970 -16.887510 9.399444
v 16.900970 -16.783368 9.814203
v 16.900969 -16.754957 10.240893
v 17.171972 -17.190109 10.459781
v 17.206192 -17.244494 9.973454
v 16.900970 -16.783368 9.814203
v 16.900969 -16.803192 10.665798
v 16.900969 -17.696207 12.084394
v 17.005553 -18.069142 12.150374
v 17.261624 -18.122664 11.671759
v 17.116390 -17.588500 11.546959
v 16.900970 -18.058485 12.311607
v 16.900969 -18.455511 12.470481
v 16.900969 -18.874525 12.555910
v 17.073649 -18.622672 12.255090
v 17.440651 -20.521193 10.339880
v 17.451835 -20.486595 10.000311
v 17.451835 -20.498689 10.224438
v 17.404150 -20.579205 9.821124
v 17.069980 -17.136783 10.936643
v 16.900969 -16.926521 11.075262
v 16.900969 -17.120980 11.456125
v 17.295357 -17.643146 11.058298
v 17.641096 -19.359871 10.768763
v 17.663069 -19.491609 10.486747
v 17.665207 -19.416307 10.533390
v 17.663113 -19.356350 10.594517
v 17.656857 -19.312014 10.669428
v 17.646647 -19.286730 10.753930
v 17.633602 -19.282404 10.839311
v 17.586892 -19.298002 11.073726
v 17.526230 -19.312114 11.305020
v 17.561581 -19.919373 10.820087
v 17.448177 -18.179626 11.162384
v 17.586892 -18.788914 11.016796
v 17.561581 -18.238920 10.632165
v 17.404150 -17.700029 10.549639
v 16.900969 -17.380321 11.796145
v 17.334979 -18.677294 11.766645
v 17.073649 -19.186606 12.318154
v 17.451835 -18.877498 11.519509
v 17.451835 -18.661579 11.458206
v 17.334979 -19.241228 11.829709
v 17.451835 -19.324687 11.532360
v 17.451835 -19.100560 11.544453
v 17.404150 -20.463182 10.858636
v 17.295357 -20.406299 11.367295
v 17.448177 -19.860079 11.350306
v 17.641096 -18.795937 10.705700
v 17.633602 -18.855908 10.791617
v 17.646905 -18.870650 10.705487
v 17.656709 -18.864845 10.620919
v 17.663069 -18.838251 10.537373
v 17.665207 -18.791608 10.462072
v 17.663113 -18.730481 10.402115
v 17.633602 -18.485687 10.328168
v 17.586892 -18.251271 10.343767
v 17.526230 -18.019978 10.357878
v 17.451835 -17.792638 10.370451
v 17.451835 -17.780545 10.146325
v 17.440651 -17.758040 10.030882
v 17.641096 -18.919362 9.601999
v 17.663113 -18.922883 9.776245
v 17.656856 -18.967219 9.701334
v 17.646647 -18.992503 9.616832
v 17.633602 -18.996830 9.531452
v 17.586892 -18.981231 9.297036
v 17.526230 -18.967120 9.065742
v 17.561581 -18.359860 9.550676
v 17.526230 -18.085738 9.769824
v 17.586892 -18.308202 9.834678
v 17.633602 -18.533381 9.901673
v 17.448177 -18.419154 9.020456
v 17.404150 -17.816052 9.512126
v 17.451835 -17.866792 9.707344
v 17.440651 -17.758040 10.030882
v 17.295357 -17.872934 9.003467
v 17.451836 -18.954546 8.838403
v 17.448177 -20.099607 9.208378
v 17.526230 -19.555173 9.131503
v 17.586892 -19.490319 9.353966
v 17.561581 -20.040313 9.738598
v 17.295357 -20.636087 9.312465
v 17.069981 -21.142451 9.434119
v 16.900970 -21.423572 9.497463
v 16.900970 -21.264035 9.100702
v 16.900970 -21.036218 8.738804
v 17.451836 -19.617654 8.912557
v 17.334979 -19.601939 8.604117
v 17.451836 -19.401735 8.851254
v 17.334979 -19.038005 8.541054
v 17.451836 -19.178673 8.826309
v 17.641097 -19.483296 9.665063
v 17.633602 -19.423325 9.579146
v 17.646905 -19.408584 9.665275
v 17.656709 -19.414388 9.749844
v 17.663069 -19.440982 9.833389
v 17.665208 -19.487625 9.908691
v 17.663113 -19.548753 9.968647
v 17.633602 -19.793546 10.042594
v 17.586892 -20.027962 10.026996
v 17.526230 -20.259256 10.012884
v 17.526230 -20.193495 10.600938
v 17.586892 -19.971032 10.536084
v 17.633602 -19.745852 10.469090
v 17.451836 -20.473744 10.447500
v 17.451835 -20.412441 10.663419
v 17.440651 -20.521193 10.339880
v 16.900969 -19.302060 12.565149
v 16.900970 -19.724373 12.497900
v 16.900970 -19.191148 7.800633
v 17.073649 -19.092627 8.052609
v 16.900970 -18.764507 7.829755
v 16.900970 -18.349922 7.934589
v 10.590000 -19.035150 11.119558
v 12.590000 -19.000698 11.427638
v 15.590001 -19.433136 8.970331
v 12.590000 -19.433137 8.970331
v 10.590000 -19.035150 11.119558
v 10.589999 -18.796927 11.060688
v 10.589999 -19.280492 11.114765
v 10.590000 -19.516234 11.046635
v 10.590000 -18.582057 10.942168
v 10.589999 -19.726311 10.919813
v 10.589999 -18.405185 10.772074
v 10.589999 -19.896405 10.742940
v 10.589999 -18.278362 10.561998
v 10.590000 -20.014925 10.528071
v 10.590000 -18.210233 10.326256
v 10.589999 -20.073794 10.289848
v 10.589999 -18.205440 10.080914
v 10.590000 -20.069001 10.044505
v 10.589999 -18.264309 9.842690
v 10.590000 -20.000872 9.808763
v 10.590000 -18.382830 9.627821
v 10.590000 -19.874049 9.598687
v 10.590000 -18.552923 9.450948
v 10.590000 -19.697177 9.428593
v 10.590000 -18.763000 9.324126
v 10.589999 -19.482307 9.310073
v 10.589999 -18.998742 9.255997
v 10.590000 -19.244084 9.251204
v 17.382639 -18.719501 11.295287
v 17.382639 -20.249522 10.605497
v 17.382639 -19.559732 9.075476
v 17.382639 -18.029711 9.765266
v 17.149191 -20.145540 10.551158
v 17.526230 -20.193495 10.600938
v 17.382639 -20.249522 10.605497
v 17.404542 -20.261962 10.611445
v 17.423071 -20.277289 10.617997
v 17.438585 -20.296383 10.625464
v 17.450140 -20.317376 10.633170
v 17.457256 -20.340475 10.641135
v 17.460148 -20.364552 10.649022
v 17.458165 -20.388480 10.656414
v 17.451835 -20.412441 10.663419
v 17.451835 -20.486595 10.000311
v 17.526230 -20.259256 10.012884
v 17.458165 -20.461678 10.001849
v 17.460148 -20.436709 10.003774
v 17.457256 -20.411484 10.006147
v 17.450140 -20.387197 10.008813
v 17.438585 -20.365020 10.011691
v 17.423071 -20.344748 10.014757
v 17.404542 -20.328353 10.017761
v 17.382639 -20.314906 10.020815
v 17.149191 -20.201490 10.050842
v 17.586892 -20.027962 10.026996
v 16.939328 -20.099340 10.077851
v 17.633602 -19.793546 10.042594
v 16.577591 -19.922624 10.124462
v 16.512882 -19.801757 10.140300
v 17.633602 -19.793546 10.042594
v 16.512882 -19.801757 10.140300
v 17.149191 -19.505394 9.179457
v 16.577591 -19.371993 9.435173
v 16.512882 -19.329847 9.549555
v 17.526230 -19.555173 9.131503
v 17.382639 -19.559732 9.075476
v 17.404542 -19.565680 9.063035
v 17.423071 -19.572232 9.047709
v 17.438586 -19.579700 9.028615
v 17.450140 -19.587406 9.007622
v 17.457257 -19.595371 8.984523
v 17.460148 -19.603257 8.960446
v 17.458165 -19.610650 8.936518
v 17.451836 -19.617654 8.912557
v 17.451836 -18.954546 8.838403
v 17.526230 -18.967120 9.065742
v 17.458165 -18.956085 8.863320
v 17.460148 -18.958009 8.888289
v 17.457256 -18.960383 8.913513
v 17.450140 -18.963048 8.937801
v 17.438586 -18.965927 8.959978
v 17.423071 -18.968992 8.980250
v 17.404542 -18.971997 8.996645
v 17.382639 -18.975050 9.010092
v 17.149191 -19.005077 9.123508
v 17.586892 -18.981231 9.297036
v 16.939328 -19.032087 9.225658
v 17.633602 -18.996830 9.531452
v 16.577591 -19.078697 9.402374
v 16.512882 -19.094536 9.523241
v 17.633602 -18.996830 9.531452
v 16.512882 -19.094536 9.523241
v 17.633602 -19.745852 10.469090
v 17.149191 -18.773840 11.191305
v 17.526230 -18.724060 11.239260
v 17.382639 -18.719501 11.295287
v 17.404542 -18.713553 11.307727
v 17.423071 -18.707001 11.323054
v 17.438585 -18.699534 11.342147
v 17.450140 -18.691828 11.363141
v 17.457256 -18.683863 11.386240
v 17.460148 -18.675976 11.410316
v 17.458165 -18.668584 11.434244
v 17.451835 -18.661579 11.458206
v 17.149191 -18.133693 9.819604
v 16.577591 -18.389409 9.953005
v 16.512882 -18.503791 9.995151
v 17.526230 -18.085738 9.769824
v 17.382639 -18.029711 9.765266
v 17.404542 -18.017271 9.759318
v 17.423071 -18.001944 9.752766
v 17.438585 -17.982850 9.745298
v 17.450140 -17.961857 9.737592
v 17.457256 -17.938758 9.729627
v 17.460148 -17.914682 9.721741
v 17.458165 -17.890754 9.714348
v 17.451835 -17.866792 9.707344
v 17.451835 -17.792638 10.370451
v 17.526230 -18.019978 10.357878
v 17.458165 -17.817555 10.368913
v 17.460148 -17.842525 10.366989
v 17.457256 -17.867749 10.364615
v 17.450140 -17.892037 10.361949
v 17.438585 -17.914213 10.359071
v 17.423071 -17.934485 10.356006
v 17.404542 -17.950881 10.353001
v 17.382639 -17.964327 10.349948
v 17.149191 -18.077744 10.319921
v 17.586892 -18.251271 10.343767
v 16.939328 -18.179893 10.292911
v 17.633602 -18.485687 10.328168
v 16.577591 -18.356610 10.246301
v 16.512882 -18.477476 10.230462
v 17.633602 -18.485687 10.328168
v 16.512882 -18.477476 10.230462
v 17.633602 -18.855908 10.791617
v 17.451835 -19.324687 11.532360
v 17.526230 -19.312114 11.305020
v 17.458165 -19.323149 11.507443
v 17.460148 -19.321224 11.482473
v 17.457256 -19.318851 11.457249
v 17.450140 -19.316185 11.432961
v 17.438585 -19.313307 11.410784
v 17.423071 -19.310241 11.390513
v 17.404542 -19.307236 11.374117
v 17.382639 -19.304183 11.360671
v 17.149191 -19.274156 11.247254
v 17.586892 -19.298002 11.073726
v 16.939328 -19.247146 11.145105
v 17.633602 -19.282404 10.839311
v 16.577591 -19.200536 10.968388
v 16.512882 -19.184698 10.847522
v 15.590000 -18.434569 12.583903
v 15.590000 -18.696125 11.354062
v 15.590000 -18.028781 12.425034
v 15.590001 -18.419419 11.207054
v 15.590000 -17.656745 12.198114
v 15.590000 -17.329766 11.910038
v 15.590000 -18.187966 10.995851
v 15.590000 -17.057778 11.569559
v 15.590001 -18.016308 10.733722
v 15.590000 -16.849046 11.187023
v 15.590001 -17.915232 10.437140
v 15.590001 -16.709912 10.774052
v 15.590000 -16.644603 10.343195
v 15.590001 -17.891088 10.124738
v 15.590000 -16.655103 9.907543
v 15.590001 -17.945395 9.816147
v 15.590001 -16.741095 9.480333
v 15.590001 -16.899964 9.074545
v 15.590001 -18.074738 9.530756
v 15.590001 -17.126884 8.702510
v 15.590001 -18.270992 9.286498
v 15.590001 -17.414960 8.375530
v 15.590001 -17.755438 8.103543
v 15.590001 -18.521824 9.098720
v 15.590001 -18.137975 7.894810
v 15.590001 -18.811475 8.979220
v 15.590001 -18.550945 7.755676
v 15.590001 -18.981803 7.690367
v 15.590001 -19.121744 8.935509
v 15.590001 -19.417455 7.700868
v 15.590001 -19.433136 8.970331
v 15.590001 -19.844665 7.786859
v 15.590001 -19.726086 9.081499
v 15.590001 -20.250453 7.945728
v 15.590001 -20.622488 8.172648
v 15.590001 -19.982185 9.262029
v 15.590001 -20.949468 8.460724
v 15.590001 -20.185342 9.500576
v 15.590001 -21.221455 8.801203
v 15.590001 -21.430187 9.183739
v 15.590001 -20.322793 9.782152
v 15.590001 -21.569322 9.596710
v 15.590001 -20.385901 10.089064
v 15.590001 -21.634631 10.027567
v 15.590001 -21.624130 10.463219
v 15.590001 -20.370699 10.402028
v 15.590001 -21.538139 10.890429
v 15.590001 -20.278145 10.701379
v 15.590001 -21.379270 11.296217
v 15.590001 -21.152350 11.668253
v 15.590001 -20.114052 10.968309
v 15.590001 -20.864274 11.995232
v 15.590001 -19.888732 11.186044
v 15.590001 -20.523795 12.267220
v 15.590001 -19.616343 11.340904
v 15.590000 -20.141259 12.475952
v 15.590000 -19.728288 12.615086
v 15.590000 -19.313999 11.423158
v 16.577591 -18.356610 10.246301
v 16.512882 -18.477476 10.230462
v 16.577591 -18.355162 10.147414
v 16.373823 -18.748470 10.278882
v 16.160001 -19.139617 10.185381
v 16.353458 -18.797447 10.309074
v 16.339561 -18.842644 10.346081
v 16.339561 -18.917287 10.439521
v 16.160001 -19.139617 10.185381
v 16.334439 -18.883292 10.390144
v 16.353458 -18.943396 10.491775
v 16.160001 -19.139617 10.185381
v 16.373823 -18.962024 10.546212
v 16.160001 -19.139617 10.185381
v 16.398576 -18.973355 10.602158
v 16.454798 -18.974501 10.714906
v 16.577591 -19.003365 10.958845
v 16.577591 -19.101650 10.969836
v 16.160001 -19.139617 10.185381
v 16.512882 -18.949387 10.821207
v 16.577591 -18.907241 10.935589
v 16.512882 -19.184698 10.847522
v 16.454798 -19.183685 10.738298
v 16.160001 -19.139617 10.185381
v 16.577591 -19.200536 10.968388
v 16.398576 -19.209709 10.628589
v 16.373823 -19.233117 10.576528
v 16.160001 -19.139617 10.185381
v 16.353458 -19.263310 10.527551
v 16.339561 -19.300317 10.482354
v 16.339561 -19.393756 10.407711
v 16.160001 -19.139617 10.185381
v 16.334439 -19.344379 10.441706
v 16.353458 -19.446011 10.381602
v 16.160001 -19.139617 10.185381
v 16.373823 -19.500448 10.362974
v 16.160001 -19.139617 10.185381
v 16.398575 -19.556394 10.351643
v 16.454798 -19.669141 10.350497
v 16.577591 -19.913081 10.321633
v 16.577591 -19.924072 10.223348
v 16.160001 -19.139617 10.185381
v 16.512882 -19.775443 10.375611
v 16.577591 -19.889825 10.417757
v 16.512882 -19.801757 10.140300
v 16.454798 -19.692534 10.141312
v 16.160001 -19.139617 10.185381
v 16.577591 -19.922624 10.124462
v 16.398576 -19.582825 10.115289
v 16.373823 -19.530764 10.091881
v 16.160001 -19.139617 10.185381
v 16.353458 -19.481786 10.061688
v 16.339561 -19.436590 10.024681
v 16.339561 -19.361947 9.931242
v 16.160001 -19.139617 10.185381
v 16.334439 -19.395942 9.980619
v 16.353458 -19.335838 9.878987
v 16.160001 -19.139617 10.185381
v 16.373823 -19.317210 9.824550
v 16.160001 -19.139617 10.185381
v 16.398576 -19.305879 9.768604
v 16.454799 -19.304733 9.655857
v 16.577591 -19.275868 9.411917
v 16.160001 -19.139617 10.185381
v 16.512882 -19.329847 9.549555
v 16.577591 -19.371993 9.435173
v 16.577591 -19.275868 9.411917
v 16.577591 -19.177584 9.400926
v 16.160001 -19.139617 10.185381
v 16.512882 -19.094536 9.523241
v 16.454799 -19.095548 9.632464
v 16.160001 -19.139617 10.185381
v 16.577591 -19.078697 9.402374
v 16.398576 -19.069525 9.742173
v 16.373823 -19.046116 9.794234
v 16.160001 -19.139617 10.185381
v 16.353458 -19.015923 9.843212
v 16.339561 -18.978917 9.888408
v 16.339561 -18.885477 9.963051
v 16.160001 -19.139617 10.185381
v 16.334439 -18.934854 9.929056
v 16.353458 -18.833223 9.989160
v 16.160001 -19.139617 10.185381
v 16.373823 -18.778785 10.007788
v 16.160001 -19.139617 10.185381
v 16.398576 -18.722840 10.019119
v 16.454798 -18.610092 10.020265
v 16.577591 -18.366153 10.049129
v 16.160001 -19.139617 10.185381
v 16.512882 -18.503791 9.995151
v 16.577591 -18.389409 9.953005
v 17.526230 -18.724060 11.239260
v 17.656857 -18.655570 10.357779
v 17.646647 -18.571068 10.332495
v 17.206192 -17.244494 9.973454
v 17.451835 -17.805489 9.923263
v 17.451835 -17.780545 10.146325
v 17.665207 -18.862926 9.837373
v 17.646905 -18.619510 9.916414
v 17.663069 -18.787625 9.884016
v 17.656709 -18.704079 9.910610
v 16.900970 -21.453108 10.766277
v 17.206192 -21.034739 10.397309
v 17.656856 -19.623664 10.012984
v 17.646647 -19.708165 10.038268
v 17.451835 -20.498689 10.224438
v 17.646905 -19.659723 10.454348
v 17.656709 -19.575154 10.460153
v 15.590000 -18.434569 12.583903
v 15.590000 -18.861779 12.669895
v 16.900969 -18.874525 12.555910
v 15.590000 -19.297431 12.680395
v 16.900969 -19.302060 12.565149
v 15.590000 -19.728288 12.615086
v 16.900970 -19.724373 12.497900
v 15.590000 -20.141259 12.475952
v 16.900969 -20.127892 12.356324
v 15.590001 -20.523795 12.267220
v 16.900969 -20.499647 12.144973
v 15.590001 -20.864274 11.995232
v 16.900970 -20.827689 11.870639
v 15.590001 -21.152350 11.668253
v 16.900970 -21.101475 11.542139
v 15.590001 -21.379270 11.296217
v 16.900970 -21.312206 11.170032
v 15.590001 -21.538139 10.890429
v 16.900970 -21.453108 10.766277
v 15.590001 -21.624130 10.463219
v 16.900970 -21.519652 10.343852
v 15.590001 -21.634631 10.027567
v 16.900970 -21.509700 9.916334
v 15.590001 -21.569322 9.596710
v 16.900970 -21.423572 9.497463
v 15.590001 -21.430187 9.183739
v 16.900970 -21.264035 9.100702
v 15.590001 -21.221455 8.801203
v 16.900970 -21.036218 8.738804
v 15.590001 -20.949468 8.460724
v 16.900970 -20.747442 8.423400
v 15.590001 -20.622488 8.172648
v 16.900970 -20.406990 8.164627
v 15.590001 -20.250453 7.945728
v 16.900970 -20.025803 7.970803
v 15.590001 -19.844665 7.786859
v 16.900970 -19.616133 7.848158
v 15.590001 -19.417455 7.700868
v 16.900970 -19.191148 7.800633
v 16.900970 -19.191148 7.800633
v 15.590001 -19.417455 7.700868
v 15.590001 -18.981803 7.690367
v 16.900970 -18.764507 7.829755
v 15.590001 -18.550945 7.755676
v 16.900970 -18.349922 7.934589
v 15.590001 -18.137975 7.894810
v 16.900970 -17.960718 8.111766
v 15.590001 -17.755438 8.103543
v 16.900970 -17.609405 8.355590
v 15.590001 -17.414960 8.375530
v 16.900970 -17.307274 8.658226
v 15.590001 -17.126884 8.702510
v 16.900970 -17.064037 9.009945
v 15.590001 -16.899964 9.074545
v 16.900970 -16.887510 9.399444
v 15.590001 -16.741095 9.480333
v 16.900970 -16.783368 9.814203
v 15.590000 -16.655103 9.907543
v 16.900969 -16.754957 10.240893
v 15.590000 -16.644603 10.343195
v 16.900969 -16.803192 10.665798
v 15.590001 -16.709912 10.774052
v 16.900969 -16.926521 11.075262
v 15.590000 -16.849046 11.187023
v 16.900969 -17.120980 11.456125
v 15.590000 -17.057778 11.569559
v 16.900969 -17.380321 11.796145
v 15.590000 -17.329766 11.910038
v 16.900969 -17.696207 12.084394
v 15.590000 -17.656745 12.198114
v 16.900970 -18.058485 12.311607
v 15.590000 -18.028781 12.425034
v 16.900969 -18.455511 12.470481
f 1 2 3
f 1 4 5
f 1 3 4
f 4 6 5
f 5 6 7
f 6 8 7
f 7 8 9
f 8 10 9
f 9 10 11
f 10 12 11
f 11 12 13
f 12 14 13
f 13 14 15
f 14 16 15
f 15 16 17
f 16 18 17
f 17 18 19
f 18 20 19
f 19 20 21
f 20 22 21
f 21 22 23
f 22 24 23
f 23 24 25
f 24 26 25
f 25 26 27
f 26 28 27
f 27 28 29
f 28 30 29
f 29 30 31
f 30 32 31
f 31 32 33
f 32 34 33
f 33 34 35
f 34 36 35
f 35 36 37
f 36 38 37
f 37 38 39
f 38 40 39
f 39 40 41
f 40 42 41
f 41 42 43
f 42 44 43
f 43 44 45
f 44 46 45
f 45 46 47
f 46 48 47
f 47 48 49
f 48 520 49
f 49 520 521
f 50 51 52
f 50 52 53
f 50 54 51
f 51 54 55
f 52 99 53
f 53 99 98
f 54 56 55
f 55 56 57
f 56 58 57
f 57 58 59
f 58 60 59
f 59 60 61
f 60 62 61
f 61 62 63
f 62 64 63
f 63 64 65
f 64 66 65
f 65 66 67
f 66 68 67
f 67 68 69
f 68 70 69
f 69 70 71
f 70 72 71
f 71 72 73
f 72 74 73
f 73 74 75
f 74 76 75
f 75 76 77
f 76 522 77
f 77 522 523
f 78 79 80
f 78 80 81
f 78 82 79
f 79 82 83
f 82 84 83
f 83 84 85
f 84 86 85
f 85 86 87
f 86 88 87
f 87 88 89
f 88 90 89
f 89 90 91
f 90 92 91
f 91 92 93
f 92 94 93
f 93 94 95
f 94 96 95
f 95 96 97
f 96 98 97
f 97 98 99
f 100 101 102
f 101 103 105
f 101 105 102
f 102 105 131
f 103 104 105
f 103 106 104
f 104 106 107
f 104 107 126
f 104 126 128
f 104 128 105
f 105 128 131
f 106 108 107
f 107 108 109
f 107 109 124
f 107 124 126
f 108 110 109
f 109 111 112
f 109 110 111
f 109 112 121
f 109 121 124
f 111 113 112
f 112 115 116
f 112 113 115
f 112 116 121
f 113 114 115
f 115 117 116
f 116 117 118
f 116 118 119
f 116 120 121
f 116 119 120
f 120 122 121
f 121 123 124
f 121 122 123
f 123 125 124
f 124 125 126
f 125 127 126
f 126 127 128
f 127 129 128
f 128 129 131
f 129 130 131
f 132 133 134
f 132 135 133
f 133 135 136
f 135 137 136
f 136 138 139
f 136 137 138
f 138 140 139
f 139 140 141
f 139 141 142
f 139 142 548
f 143 144 145
f 144 146 148
f 144 148 145
f 145 148 174
f 146 147 148
f 146 149 147
f 147 149 150
f 147 150 169
f 147 169 171
f 147 171 148
f 148 171 174
f 149 151 150
f 150 151 152
f 150 152 167
f 150 167 169
f 151 153 152
f 152 154 155
f 152 153 154
f 152 155 164
f 152 164 167
f 154 156 155
f 155 158 159
f 155 156 158
f 155 159 164
f 156 157 158
f 158 160 159
f 159 160 161
f 159 161 162
f 159 163 164
f 159 162 163
f 163 165 164
f 164 166 167
f 164 165 166
f 166 168 167
f 167 168 169
f 168 170 169
f 169 170 171
f 170 172 171
f 171 172 174
f 172 173 174
f 175 176 177
f 175 178 176
f 176 178 179
f 178 180 179
f 179 181 182
f 179 180 181
f 181 183 182
f 182 183 184
f 182 184 185
f 182 185 549
f 186 187 188
f 187 189 191
f 187 191 188
f 188 191 217
f 189 190 191
f 189 192 190
f 190 192 193
f 190 193 212
f 190 212 214
f 190 214 191
f 191 214 217
f 192 194 193
f 193 194 195
f 193 195 210
f 193 210 212
f 194 196 195
f 195 197 198
f 195 196 197
f 195 198 207
f 195 207 210
f 197 199 198
f 198 201 202
f 198 199 201
f 198 202 207
f 199 200 201
f 201 203 202
f 202 203 204
f 202 204 205
f 202 206 207
f 202 205 206
f 206 208 207
f 207 209 210
f 207 208 209
f 209 211 210
f 210 211 212
f 211 213 212
f 212 213 214
f 213 215 214
f 214 215 217
f 215 216 217
f 218 219 220
f 218 221 219
f 219 221 222
f 221 223 222
f 222 224 225
f 222 223 224
f 224 226 225
f 225 226 227
f 225 227 228
f 225 228 550
f 229 230 231
f 230 232 234
f 230 234 231
f 231 234 260
f 232 233 234
f 232 235 233
f 233 235 236
f 233 236 255
f 233 255 257
f 233 257 234
f 234 257 260
f 235 237 236
f 236 237 238
f 236 238 253
f 236 253 255
f 237 239 238
f 238 240 241
f 238 239 240
f 238 241 250
f 238 250 253
f 240 242 241
f 241 244 245
f 241 242 244
f 241 245 250
f 242 243 244
f 244 246 245
f 245 246 247
f 245 247 248
f 245 249 250
f 245 248 249
f 249 251 250
f 250 252 253
f 250 251 252
f 252 254 253
f 253 254 255
f 254 256 255
f 255 256 257
f 256 258 257
f 257 258 260
f 258 259 260
f 261 262 263
f 261 264 262
f 262 264 265
f 264 266 265
f 265 267 268
f 265 266 267
f 267 269 268
f 268 269 270
f 268 270 271
f 268 271 551
f 272 273 274
f 272 274 275
f 272 276 273
f 273 276 552
f 276 553 552
f 277 278 279
f 277 280 278
f 278 281 282
f 278 280 281
f 281 283 282
f 282 283 284
f 283 285 284
f 284 286 287
f 284 285 286
f 286 288 287
f 287 289 290
f 287 288 289
f 289 291 290
f 290 292 293
f 290 291 292
f 292 294 293
f 293 295 296
f 293 294 295
f 295 580 296
f 296 580 579
f 297 298 299
f 297 581 298
f 297 584 581
f 298 582 299
f 299 582 583
f 300 301 302
f 300 303 301
f 301 304 305
f 301 303 304
f 304 306 305
f 305 306 307
f 306 308 307
f 307 309 310
f 307 308 309
f 309 311 310
f 310 312 313
f 310 311 312
f 312 314 313
f 313 315 316
f 313 314 315
f 315 317 316
f 316 318 319
f 316 317 318
f 318 611 319
f 319 611 610
f 320 321 322
f 321 338 340
f 321 340 322
f 323 324 325
f 323 326 324
f 324 326 327
f 324 612 325
f 326 328 327
f 327 328 329
f 328 330 329
f 329 331 332
f 329 330 331
f 331 333 332
f 332 334 335
f 332 333 334
f 334 336 335
f 335 337 338
f 335 336 337
f 337 339 338
f 338 339 340
f 341 342 343
f 341 343 344
f 341 345 342
f 342 345 613
f 345 614 613
f 346 347 348
f 346 624 347
f 346 627 624
f 347 625 348
f 348 625 626
f 349 350 351
f 349 352 350
f 350 352 353
f 350 655 351
f 352 354 353
f 353 354 355
f 354 356 355
f 355 357 358
f 355 356 357
f 357 359 358
f 358 360 361
f 358 359 360
f 360 362 361
f 361 363 364
f 361 362 363
f 363 365 364
f 364 366 367
f 364 365 366
f 366 654 367
f 367 654 653
f 368 369 370
f 368 729 728
f 368 370 729
f 369 672 370
f 370 672 673
f 371 372 373
f 371 732 372
f 372 732 731
f 373 733 734
f 374 375 376
f 374 376 377
f 374 378 375
f 374 377 515
f 375 379 380
f 375 378 379
f 375 452 453
f 375 380 452
f 375 453 376
f 376 449 448
f 376 453 449
f 376 448 377
f 377 448 445
f 377 514 515
f 377 445 514
f 379 381 380
f 380 382 383
f 380 381 382
f 380 451 452
f 380 383 451
f 382 831 383
f 383 513 451
f 383 831 832
f 383 832 513
f 384 385 386
f 384 387 388
f 384 388 385
f 385 424 421
f 385 388 424
f 387 490 388
f 388 488 424
f 388 489 488
f 388 490 489
f 389 390 391
f 389 391 492
f 389 394 390
f 389 392 394
f 390 493 484
f 390 484 488
f 390 488 391
f 390 494 493
f 390 396 494
f 390 394 396
f 391 489 491
f 391 491 492
f 391 488 489
f 392 393 394
f 393 395 396
f 393 396 394
f 395 516 396
f 396 516 517
f 396 517 494
f 397 398 399
f 397 399 400
f 397 401 398
f 397 400 519
f 398 402 403
f 398 401 402
f 398 482 478
f 398 478 399
f 398 403 482
f 399 478 483
f 399 483 496
f 399 496 400
f 400 517 518
f 400 496 517
f 400 518 519
f 402 404 403
f 403 404 405
f 403 479 482
f 403 405 479
f 404 406 405
f 405 406 407
f 405 481 479
f 405 824 481
f 405 407 824
f 408 409 410
f 408 410 411
f 408 412 409
f 409 425 428
f 409 428 442
f 409 412 425
f 409 442 410
f 410 442 466
f 412 426 425
f 413 414 415
f 413 415 416
f 413 417 414
f 413 416 443
f 414 417 418
f 414 418 420
f 414 420 415
f 415 428 416
f 415 439 428
f 415 420 444
f 415 447 439
f 415 444 447
f 416 425 427
f 416 427 443
f 416 428 425
f 418 419 420
f 419 445 420
f 419 514 445
f 420 445 444
f 421 422 423
f 421 424 422
f 422 424 507
f 424 488 484
f 424 487 507
f 424 484 487
f 425 426 427
f 428 439 442
f 429 430 431
f 429 431 432
f 429 433 434
f 429 434 435
f 429 436 437
f 429 437 438
f 429 438 430
f 429 432 433
f 429 435 436
f 430 438 510
f 430 510 836
f 430 836 837
f 437 453 438
f 437 449 453
f 438 508 509
f 438 509 510
f 438 453 452
f 438 452 451
f 438 451 508
f 439 440 441
f 439 441 442
f 439 447 821
f 439 821 440
f 440 455 454
f 440 454 441
f 441 454 460
f 441 460 461
f 441 462 463
f 441 463 442
f 441 461 462
f 442 463 464
f 442 465 466
f 442 464 465
f 444 446 447
f 444 448 446
f 444 445 448
f 446 448 450
f 448 449 450
f 451 511 512
f 451 512 508
f 451 513 511
f 454 455 456
f 454 457 458
f 454 458 459
f 454 456 457
f 454 459 460
f 460 822 461
f 461 822 823
f 467 468 469
f 467 469 470
f 467 471 472
f 467 472 473
f 467 473 474
f 467 477 827
f 467 474 477
f 467 827 468
f 467 470 471
f 473 478 474
f 473 483 478
f 474 475 476
f 474 476 477
f 474 479 475
f 474 482 479
f 474 478 482
f 475 479 480
f 477 828 827
f 479 481 480
f 480 481 825
f 481 826 825
f 483 497 496
f 484 485 486
f 484 486 487
f 484 493 485
f 486 498 487
f 486 499 498
f 487 498 505
f 487 506 507
f 487 505 506
f 489 490 491
f 493 494 495
f 494 496 495
f 494 517 496
f 495 496 497
f 498 499 500
f 498 500 501
f 498 502 503
f 498 503 504
f 498 833 505
f 498 501 502
f 498 504 833
f 505 833 834
f 511 513 835
f 516 518 517
f 524 525 526
f 525 527 526
f 525 528 527
f 527 528 529
f 528 530 529
f 529 530 531
f 530 532 531
f 531 532 533
f 532 534 533
f 533 534 535
f 534 536 535
f 535 536 537
f 536 538 537
f 537 538 539
f 538 540 539
f 539 540 541
f 540 542 541
f 541 542 543
f 542 544 543
f 543 544 545
f 544 546 545
f 545 546 547
f 552 553 554
f 553 555 554
f 553 556 555
f 553 557 556
f 553 558 557
f 553 559 558
f 553 560 559
f 553 561 560
f 553 562 561
f 563 564 565
f 564 566 565
f 564 567 566
f 564 568 567
f 564 569 568
f 564 570 569
f 564 571 570
f 564 572 571
f 564 573 572
f 564 574 573
f 573 574 575
f 574 576 575
f 575 576 577
f 576 578 577
f 581 584 585
f 584 586 585
f 584 587 586
f 584 588 587
f 584 589 588
f 584 590 589
f 584 591 590
f 584 592 591
f 584 593 592
f 594 595 596
f 595 597 596
f 595 598 597
f 595 599 598
f 595 600 599
f 595 601 600
f 595 602 601
f 595 603 602
f 595 604 603
f 595 605 604
f 604 605 606
f 605 607 606
f 606 607 608
f 607 609 608
f 613 614 615
f 614 616 615
f 614 617 616
f 614 618 617
f 614 619 618
f 614 620 619
f 614 621 620
f 614 622 621
f 614 623 622
f 624 627 628
f 627 629 628
f 627 630 629
f 627 631 630
f 627 632 631
f 627 633 632
f 627 634 633
f 627 635 634
f 627 636 635
f 637 638 639
f 638 640 639
f 638 641 640
f 638 642 641
f 638 643 642
f 638 644 643
f 638 645 644
f 638 646 645
f 638 647 646
f 638 648 647
f 647 648 649
f 648 650 649
f 649 650 651
f 650 652 651
f 656 657 658
f 657 659 658
f 657 660 659
f 657 661 660
f 657 662 661
f 657 663 662
f 657 664 663
f 657 665 664
f 657 666 665
f 657 667 666
f 666 667 668
f 667 669 668
f 668 669 670
f 669 671 670
f 672 674 673
f 673 674 675
f 674 676 675
f 675 676 677
f 675 677 678
f 677 679 678
f 678 679 680
f 679 681 680
f 680 681 682
f 681 683 682
f 682 683 684
f 682 684 685
f 684 686 685
f 685 686 687
f 686 688 687
f 687 688 689
f 687 689 690
f 689 691 690
f 690 691 692
f 691 693 692
f 692 693 694
f 692 694 695
f 694 696 695
f 695 696 697
f 696 698 697
f 697 698 699
f 697 699 700
f 699 701 700
f 700 701 702
f 701 703 702
f 702 703 704
f 703 705 704
f 704 705 706
f 704 706 707
f 706 708 707
f 707 708 709
f 708 710 709
f 709 710 711
f 709 711 712
f 711 713 712
f 712 713 714
f 713 715 714
f 714 715 716
f 714 716 717
f 716 718 717
f 717 718 719
f 718 720 719
f 719 720 721
f 719 721 722
f 721 723 722
f 722 723 724
f 723 725 724
f 724 725 726
f 725 727 726
f 726 727 728
f 726 728 729
f 730 731 732
f 732 816 817
f 732 818 816
f 733 735 734
f 734 735 736
f 736 739 741
f 737 738 739
f 737 740 738
f 740 742 743
f 742 744 743
f 743 744 745
f 745 746 747
f 745 747 748
f 745 749 746
f 746 749 750
f 747 751 752
f 747 752 753
f 747 754 751
f 752 755 753
f 755 756 757
f 756 758 757
f 757 758 759
f 759 762 764
f 760 761 762
f 760 763 761
f 763 765 766
f 765 767 766
f 766 767 768
f 768 769 770
f 768 770 771
f 768 772 769
f 769 772 773
f 770 774 775
f 770 775 776
f 770 777 774
f 775 778 776
f 778 779 780
f 779 781 780
f 780 781 782
f 782 785 787
f 783 784 785
f 783 786 784
f 786 788 789
f 788 790 789
f 789 790 791
f 791 792 793
f 791 794 792
f 792 794 795
f 796 797 798
f 797 799 800
f 797 800 801
f 797 802 799
f 800 803 801
f 803 804 805
f 804 806 805
f 805 806 807
f 807 810 812
f 808 809 810
f 808 811 809
f 811 813 814
f 813 815 814
f 814 815 816
f 816 819 817
f 817 819 820
f 827 828 829
f 828 830 829
f 838 839 840
f 838 910 909
f 838 840 910
f 839 841 840
f 840 841 842
f 841 843 842
f 842 843 844
f 843 845 844
f 844 845 846
f 845 847 846
f 846 847 848
f 847 849 848
f 848 849 850
f 849 851 850
f 850 851 852
f 851 853 852
f 852 853 854
f 853 855 854
f 854 855 856
f 855 857 856
f 856 857 858
f 857 859 858
f 858 859 860
f 859 861 860
f 860 861 862
f 861 863 862
f 862 863 864
f 863 865 864
f 864 865 866
f 865 867 866
f 866 867 868
f 867 869 868
f 868 869 870
f 869 871 870
f 870 871 872
f 871 873 872
f 872 873 874
f 873 875 874
f 874 875 876
f 877 878 879
f 877 879 880
f 879 881 880
f 880 881 882
f 881 883 882
f 882 883 884
f 883 885 884
f 884 885 886
f 885 887 886
f 886 887 888
f 887 889 888
f 888 889 890
f 889 891 890
f 890 891 892
f 891 893 892
f 892 893 894
f 893 895 894
f 894 895 896
f 895 897 896
f 896 897 898
f 897 899 898
f 898 899 900
f 899 901 900
f 900 901 902
f 901 903 902
f 902 903 904
f 903 905 904
f 904 905 906
f 905 907 906
f 906 907 908
f 907 909 908
f 908 909 910