# Part11
# Autodesk dbId: 67
# Units: mm
o 067_Part11
v 24.999997 -11.682042 54.822554
v 22.199997 -10.133360 52.820999
v 22.199997 -11.682043 54.822554
v 24.999997 -10.133360 52.820999
v 22.199997 -9.136746 50.494759
v 24.999997 -9.136746 50.494759
v 22.199997 -8.756021 47.992823
v 24.999997 -8.756021 47.992823
v 22.199997 -9.015577 45.475430
v 24.999997 -9.015576 45.475430
v 24.999997 -19.322561 58.320938
v 24.999998 -41.351494 55.620938
v 24.999998 -35.501495 50.320938
v 24.999997 -26.251493 50.320939
v 24.999999 -59.251494 58.320936
v 24.999999 -60.551495 55.620938
v 24.999999 -54.351495 55.620937
v 24.999998 -51.404427 55.811306
v 24.999999 -60.286770 58.184639
v 24.999999 -61.251494 57.785038
v 24.999999 -62.715596 56.320936
v 24.999999 -63.115198 55.356212
v 25.000000 -62.715596 0.320940
v 25.000000 -62.079924 -0.507488
v 25.000000 -60.551494 1.020939
v 25.000000 -60.286772 -1.542763
v 25.000000 -59.251493 -1.679060
v 24.999999 -41.351495 1.020941
v 25.000000 -47.551492 1.020938
v 25.000000 -50.951493 0.770938
v 24.999999 -27.969629 -1.679060
v 24.999998 -24.251495 6.820939
v 24.999999 -36.751495 6.820940
v 24.999999 -25.752901 -1.430269
v 24.999999 -23.646471 -0.696281
v 24.999998 -20.173053 2.058878
v 24.999998 -18.978895 3.942964
v 25.000000 -60.551495 15.920938
v 25.000000 -63.251493 2.320941
v 25.000000 -60.551495 5.720939
v 25.000000 -57.551495 15.920938
v 25.000000 -54.351495 4.020938
v 25.000000 -51.404427 4.211308
v 25.000000 -50.951496 4.270938
v 24.999999 -41.300532 17.770939
v 24.999999 -41.450383 18.132710
v 24.999999 -41.501495 18.520938
v 25.000000 -57.551496 5.720938
v 25.000000 -60.551493 4.020939
v 24.999999 -60.551494 50.920938
v 24.999999 -63.251495 54.320936
v 24.999999 -60.551495 40.720936
v 24.999999 -57.551495 40.720937
v 24.999999 -41.300532 19.270939
v 24.999998 -36.751494 30.220938
v 24.999997 -26.251494 47.320939
v 24.999998 -35.501494 47.320937
v 24.999998 -41.351493 52.620938
v 24.999999 -38.501495 18.520939
v 24.999998 -47.551493 52.620937
v 24.999999 -41.062154 19.581599
v 24.999999 -40.751494 19.819977
v 24.999999 -40.389723 19.969828
v 24.999999 -40.001495 20.020939
v 24.999999 -39.613266 19.969827
v 24.999999 -39.251494 19.819977
v 24.999999 -38.940834 19.581599
v 24.999999 -38.702456 19.270938
v 24.999999 -38.552606 18.909168
v 24.999998 -24.251495 30.220939
v 24.999999 -21.755153 0.486383
v 24.999998 -18.232096 6.044886
v 24.999998 -21.001494 17.020940
v 24.999999 -38.552606 18.132710
v 24.999999 -38.702456 17.770940
v 24.999999 -40.001494 17.020939
v 24.999999 -40.389723 17.072050
v 24.999999 -38.940834 17.460279
v 24.999999 -39.251494 17.221900
v 24.999999 -39.613266 17.072050
v 24.999998 -47.551494 55.620939
v 25.000000 -54.351494 1.020940
v 25.000000 -51.404426 0.830568
v 25.000000 -51.826495 1.005395
v 25.000000 -52.701493 2.520938
v 25.000000 -52.188931 1.283503
v 25.000000 -52.467039 1.645939
v 25.000000 -52.641864 2.068008
v 25.000000 -63.115198 1.285662
v 25.000000 -61.251495 -1.143162
v 25.000000 -52.641864 2.973873
v 25.000000 -52.467040 3.395939
v 25.000000 -52.188932 3.758376
v 25.000000 -51.826494 4.036483
v 24.999999 -41.351494 4.020937
v 25.000000 -47.551494 4.020938
v 24.999999 -40.751494 17.221900
v 24.999999 -41.062155 17.460279
v 24.999999 -62.079922 57.149364
v 24.999999 -60.551495 52.620937
v 24.999999 -54.351494 52.620937
v 24.999999 -57.551495 50.920937
v 24.999997 -13.251495 47.820939
v 24.999997 -9.015576 45.475430
v 24.999997 -12.863266 47.872050
v 24.999997 -13.639723 47.872050
v 24.999997 -14.001495 48.021901
v 24.999997 -14.312154 48.260279
v 24.999997 -14.550532 48.570940
v 24.999997 -14.700384 48.932712
v 24.999997 -14.751493 49.320938
v 24.999997 -14.700382 49.709167
v 24.999997 -14.550532 50.070939
v 24.999997 -17.371658 58.128791
v 24.999997 -14.312156 50.381600
v 24.999997 -15.495729 57.559734
v 24.999997 -14.001496 50.619976
v 24.999997 -13.766860 56.635633
v 24.999997 -13.639723 50.769826
v 24.999997 -12.251493 55.392007
v 24.999997 -13.251495 50.820939
v 24.999997 -11.682042 54.822554
v 24.999997 -12.863265 50.769826
v 24.999997 -12.190834 50.381600
v 24.999997 -11.952457 50.070938
v 24.999997 -10.133360 52.820999
v 24.999997 -11.952458 48.570939
v 24.999997 -12.190834 48.260279
v 24.999997 -8.756021 47.992823
v 24.999999 -41.450383 18.909167
v 24.999998 -20.613265 17.072051
v 24.999998 -21.389724 17.072050
v 24.999998 -21.751495 17.221901
v 24.999998 -22.062154 17.460279
v 24.999998 -22.300532 17.770940
v 24.999998 -22.450383 18.132711
v 24.999998 -22.501494 18.520939
v 24.999998 -22.450383 18.909168
v 24.999998 -22.300532 19.270939
v 24.999998 -22.062155 19.581600
v 24.999998 -21.751495 19.819977
v 24.999998 -21.389723 19.969828
v 24.999998 -21.001494 20.020940
v 24.999998 -20.613265 19.969828
v 24.999998 -20.251494 19.819978
v 24.999998 -19.940834 19.581600
v 24.999998 -19.702457 19.270940
v 24.999998 -19.552605 18.909169
v 24.999998 -19.501494 18.520940
v 24.999998 -19.552605 18.132711
v 24.999998 -19.702457 17.770941
v 24.999998 -19.940835 17.460279
v 24.999998 -20.251494 17.221902
v 24.999998 -50.951494 52.370937
v 24.999998 -50.498561 52.430567
v 24.999998 -51.404428 52.430568
v 24.999998 -51.826494 52.605394
v 24.999998 -52.188930 52.883500
v 24.999998 -52.467039 53.245938
v 24.999998 -52.641864 53.668002
v 24.999998 -52.701493 54.120935
v 24.999998 -52.641863 54.573868
v 24.999998 -52.467038 54.995936
v 24.999998 -52.188930 55.358373
v 24.999998 -51.826494 55.636482
v 24.999998 -50.951494 55.870937
v 24.999998 -50.498561 55.811307
v 24.999998 -50.076494 55.636482
v 24.999998 -49.714058 55.358375
v 24.999998 -49.435950 54.995938
v 24.999998 -49.261125 54.573871
v 24.999998 -49.201494 54.120937
v 24.999998 -49.261125 53.668004
v 24.999998 -49.435949 53.245938
v 24.999998 -49.714057 52.883499
v 24.999998 -50.076494 52.605392
v 25.000000 -50.498560 0.830569
v 25.000000 -50.498560 4.211307
v 25.000000 -50.076495 4.036483
v 25.000000 -49.714058 3.758374
v 25.000000 -49.435951 3.395939
v 25.000000 -49.261124 2.973873
v 25.000000 -49.201493 2.520941
v 25.000000 -49.261124 2.068007
v 25.000000 -49.435950 1.645939
v 25.000000 -49.714058 1.283502
v 25.000000 -50.076496 1.005395
v 22.199999 -60.551495 55.620938
v 22.199999 -54.351495 55.620937
v 24.999999 -60.551495 55.620938
v 22.199999 -41.351495 1.020941
v 22.200000 -47.551492 1.020938
v 24.999999 -41.351495 1.020941
v 22.200000 -54.351494 1.020940
v 22.200000 -60.551494 1.020939
v 25.000000 -54.351494 1.020940
v 22.199998 -47.551495 55.620939
v 22.199998 -41.351494 55.620938
v 24.999998 -47.551494 55.620939
v 22.199998 -24.251495 30.220939
v 24.999998 -36.751494 30.220938
v 22.199998 -36.751494 30.220938
v 22.199999 -57.551495 50.920937
v 24.999999 -60.551494 50.920938
v 22.199999 -60.551494 50.920938
v 22.200000 -57.551495 15.920937
v 25.000000 -60.551495 15.920938
v 22.200000 -60.551495 15.920938
v 22.199997 -26.251493 50.320939
v 24.999998 -35.501495 50.320938
v 22.199998 -35.501495 50.320938
v 24.999997 -11.751493 49.320938
v 24.999997 -11.802605 48.932712
v 24.999997 -12.501494 48.021901
v 24.999997 -9.136746 50.494759
v 24.999997 -11.802605 49.709167
v 24.999997 -12.501495 50.619976
v 22.199997 -11.682043 54.822554
v 22.199997 -12.251494 55.392007
v 24.999997 -11.682042 54.822554
v 24.999997 -12.251493 55.392007
v 24.999997 -12.251493 55.392007
v 22.199997 -12.251494 55.392007
v 24.999997 -13.766860 56.635633
v 22.199997 -13.766860 56.635633
v 22.199997 -15.495730 57.559734
v 24.999997 -15.495729 57.559734
v 22.199997 -17.371658 58.128791
v 24.999997 -17.371658 58.128791
v 24.999997 -19.322561 58.320938
v 22.199997 -19.322561 58.320938
v 24.999999 -27.969629 -1.679060
v 22.199999 -27.969629 -1.679060
v 24.999999 -25.752901 -1.430269
v 22.199999 -25.752901 -1.430269
v 24.999999 -23.646471 -0.696281
v 22.199999 -23.646471 -0.696281
v 24.999999 -21.755153 0.486383
v 22.199999 -21.755153 0.486383
v 24.999998 -20.173053 2.058878
v 22.199998 -20.173053 2.058877
v 24.999998 -18.978895 3.942964
v 22.199998 -18.978895 3.942964
v 24.999998 -18.232096 6.044886
v 22.199998 -18.232096 6.044886
v 24.999999 -27.969629 -1.679060
v 25.000000 -59.251493 -1.679060
v 22.199999 -27.969629 -1.679060
v 22.200000 -59.251493 -1.679060
v 25.000000 -63.251493 2.320941
v 22.200000 -63.251494 2.320941
v 25.000000 -63.115198 1.285662
v 22.200000 -63.115198 1.285662
v 25.000000 -62.715596 0.320940
v 22.200000 -62.715596 0.320940
v 25.000000 -62.079924 -0.507488
v 22.200000 -62.079924 -0.507488
v 25.000000 -61.251495 -1.143162
v 22.200000 -61.251496 -1.143162
v 25.000000 -60.286772 -1.542763
v 22.200000 -60.286772 -1.542763
v 25.000000 -59.251493 -1.679060
v 22.200000 -59.251493 -1.679060
v 25.000000 -63.251493 2.320941
v 24.999999 -63.251495 54.320936
v 22.200000 -63.251494 2.320941
v 22.199999 -63.251495 54.320936
v 24.999999 -59.251494 58.320936
v 22.199999 -59.251494 58.320935
v 24.999999 -60.286770 58.184639
v 22.199999 -60.286770 58.184639
v 24.999999 -61.251494 57.785038
v 22.199999 -61.251494 57.785038
v 24.999999 -62.079922 57.149364
v 22.199999 -62.079922 57.149364
v 24.999999 -62.715596 56.320936
v 22.199999 -62.715596 56.320936
v 24.999999 -63.115198 55.356212
v 22.199999 -63.115198 55.356212
v 24.999999 -63.251495 54.320936
v 22.199999 -63.251495 54.320936
v 25.000000 -50.498560 0.830569
v 22.200000 -50.498560 0.830569
v 25.000000 -50.951493 0.770938
v 22.200000 -50.076496 1.005394
v 22.200000 -50.951494 0.770938
v 25.000000 -50.951493 0.770938
v 22.200000 -50.951494 0.770938
v 25.000000 -51.404426 0.830568
v 22.200000 -51.404426 0.830568
v 25.000000 -51.826495 1.005395
v 22.200000 -51.826495 1.005395
v 25.000000 -52.188931 1.283503
v 22.200000 -52.188931 1.283503
v 25.000000 -52.467039 1.645939
v 22.200000 -52.467039 1.645939
v 25.000000 -52.641864 2.068008
v 22.200000 -52.641864 2.068007
v 25.000000 -52.701493 2.520938
v 22.200000 -52.701494 2.520938
v 25.000000 -52.641864 2.973873
v 22.200000 -52.641864 2.973873
v 25.000000 -52.467040 3.395939
v 22.200000 -52.467040 3.395939
v 25.000000 -52.188932 3.758376
v 22.200000 -52.188932 3.758376
v 25.000000 -51.826494 4.036483
v 22.200000 -51.826494 4.036483
v 25.000000 -51.404427 4.211308
v 22.200000 -51.404427 4.211308
v 25.000000 -50.951496 4.270938
v 22.200000 -50.951496 4.270938
v 25.000000 -50.498560 4.211307
v 22.200000 -50.498560 4.211307
v 25.000000 -50.076495 4.036483
v 22.200000 -50.076495 4.036483
v 25.000000 -49.714058 3.758374
v 22.200000 -49.714059 3.758374
v 25.000000 -49.435951 3.395939
v 22.200000 -49.435951 3.395939
v 25.000000 -49.261124 2.973873
v 22.200000 -49.261124 2.973873
v 25.000000 -49.201493 2.520941
v 22.200000 -49.201493 2.520941
v 25.000000 -49.261124 2.068007
v 22.200000 -49.261125 2.068007
v 25.000000 -49.435950 1.645939
v 22.200000 -49.435950 1.645939
v 25.000000 -49.714058 1.283502
v 22.200000 -49.714058 1.283502
v 25.000000 -50.076496 1.005395
v 24.999998 -50.498561 52.430567
v 22.199998 -50.498561 52.430567
v 24.999998 -50.951494 52.370937
v 22.199998 -50.076494 52.605392
v 22.199998 -50.951494 52.370937
v 24.999998 -50.951494 52.370937
v 22.199998 -50.951494 52.370937
v 24.999998 -51.404428 52.430568
v 22.199999 -51.404428 52.430568
v 24.999998 -51.826494 52.605394
v 22.199999 -51.826494 52.605394
v 24.999998 -52.188930 52.883500
v 22.199999 -52.188931 52.883500
v 24.999998 -52.467039 53.245938
v 22.199999 -52.467039 53.245938
v 24.999998 -52.641864 53.668002
v 22.199999 -52.641864 53.668002
v 24.999998 -52.701493 54.120935
v 22.199999 -52.701493 54.120935
v 24.999998 -52.641863 54.573868
v 22.199999 -52.641864 54.573868
v 24.999998 -52.467038 54.995936
v 22.199998 -52.467038 54.995936
v 24.999998 -52.188930 55.358373
v 22.199998 -52.188930 55.358373
v 24.999998 -51.826494 55.636482
v 22.199998 -51.826494 55.636482
v 24.999998 -51.404427 55.811306
v 22.199998 -51.404427 55.811306
v 24.999998 -50.951494 55.870937
v 22.199998 -50.951494 55.870937
v 24.999998 -50.498561 55.811307
v 22.199998 -50.498561 55.811307
v 24.999998 -50.076494 55.636482
v 22.199998 -50.076495 55.636482
v 24.999998 -49.714058 55.358375
v 22.199998 -49.714058 55.358375
v 24.999998 -49.435950 54.995938
v 22.199998 -49.435950 54.995938
v 24.999998 -49.261125 54.573871
v 22.199998 -49.261125 54.573871
v 24.999998 -49.201494 54.120937
v 22.199998 -49.201494 54.120937
v 24.999998 -49.261125 53.668004
v 22.199998 -49.261125 53.668004
v 24.999998 -49.435949 53.245938
v 22.199998 -49.435950 53.245938
v 24.999998 -49.714057 52.883499
v 22.199998 -49.714057 52.883499
v 24.999998 -50.076494 52.605392
v 24.999998 -20.613265 17.072051
v 22.199998 -20.613265 17.072051
v 24.999998 -21.001494 17.020940
v 22.199998 -20.251494 17.221902
v 22.199998 -21.001495 17.020940
v 24.999998 -21.001494 17.020940
v 22.199998 -21.001495 17.020940
v 24.999998 -21.389724 17.072050
v 22.199998 -21.389724 17.072050
v 24.999998 -21.751495 17.221901
v 22.199998 -21.751495 17.221901
v 24.999998 -22.062154 17.460279
v 22.199998 -22.062154 17.460279
v 24.999998 -22.300532 17.770940
v 22.199998 -22.300533 17.770940
v 24.999998 -22.450383 18.132711
v 22.199998 -22.450383 18.132711
v 24.999998 -22.501494 18.520939
v 22.199998 -22.501494 18.520939
v 24.999998 -22.450383 18.909168
v 22.199998 -22.450383 18.909168
v 24.999998 -22.300532 19.270939
v 22.199998 -22.300532 19.270939
v 24.999998 -22.062155 19.581600
v 22.199998 -22.062155 19.581600
v 24.999998 -21.751495 19.819977
v 22.199998 -21.751495 19.819977
v 24.999998 -21.389723 19.969828
v 22.199998 -21.389723 19.969828
v 24.999998 -21.001494 20.020940
v 22.199998 -21.001494 20.020940
v 24.999998 -20.613265 19.969828
v 22.199998 -20.613265 19.969828
v 24.999998 -20.251494 19.819978
v 22.199998 -20.251495 19.819978
v 24.999998 -19.940834 19.581600
v 22.199998 -19.940834 19.581600
v 24.999998 -19.702457 19.270940
v 22.199998 -19.702457 19.270940
v 24.999998 -19.552605 18.909169
v 22.199998 -19.552605 18.909169
v 24.999998 -19.501494 18.520940
v 22.199998 -19.501494 18.520939
v 24.999998 -19.552605 18.132711
v 22.199998 -19.552605 18.132711
v 24.999998 -19.702457 17.770941
v 22.199998 -19.702457 17.770941
v 24.999998 -19.940835 17.460279
v 22.199998 -19.940835 17.460279
v 24.999998 -20.251494 17.221902
v 24.999999 -39.613266 17.072050
v 22.199999 -39.613266 17.072050
v 24.999999 -40.001494 17.020939
v 22.199999 -39.251494 17.221900
v 22.199999 -40.001495 17.020939
v 24.999999 -40.001494 17.020939
v 22.199999 -40.001495 17.020939
v 24.999999 -40.389723 17.072050
v 22.199999 -40.389723 17.072050
v 24.999999 -40.751494 17.221900
v 22.199999 -40.751494 17.221900
v 24.999999 -41.062155 17.460279
v 22.199999 -41.062155 17.460279
v 24.999999 -41.300532 17.770939
v 22.199999 -41.300533 17.770939
v 24.999999 -41.450383 18.132710
v 22.199999 -41.450383 18.132710
v 24.999999 -41.501495 18.520938
v 22.199999 -41.501495 18.520938
v 24.999999 -41.450383 18.909167
v 22.199999 -41.450383 18.909167
v 24.999999 -41.300532 19.270939
v 22.199999 -41.300532 19.270939
v 24.999999 -41.062154 19.581599
v 22.199999 -41.062154 19.581599
v 24.999999 -40.751494 19.819977
v 22.199999 -40.751494 19.819977
v 24.999999 -40.389723 19.969828
v 22.199999 -40.389723 19.969828
v 24.999999 -40.001495 20.020939
v 22.199999 -40.001495 20.020939
v 24.999999 -39.613266 19.969827
v 22.199999 -39.613266 19.969827
v 24.999999 -39.251494 19.819977
v 22.199999 -39.251494 19.819977
v 24.999999 -38.940834 19.581599
v 22.199999 -38.940834 19.581599
v 24.999999 -38.702456 19.270938
v 22.199999 -38.702456 19.270938
v 24.999999 -38.552606 18.909168
v 22.199999 -38.552606 18.909168
v 24.999999 -38.501495 18.520939
v 22.199999 -38.501495 18.520939
v 24.999999 -38.552606 18.132710
v 22.199999 -38.552606 18.132710
v 24.999999 -38.702456 17.770940
v 22.199999 -38.702456 17.770940
v 24.999999 -38.940834 17.460279
v 22.199999 -38.940834 17.460279
v 24.999999 -39.251494 17.221900
v 24.999997 -12.863266 47.872050
v 22.199997 -12.863266 47.872050
v 24.999997 -13.251495 47.820939
v 22.199997 -12.501494 48.021901
v 22.199997 -13.251495 47.820939
v 24.999997 -13.251495 47.820939
v 22.199997 -13.251495 47.820939
v 24.999997 -13.639723 47.872050
v 22.199997 -13.639724 47.872050
v 24.999997 -14.001495 48.021901
v 22.199997 -14.001495 48.021901
v 24.999997 -14.312154 48.260279
v 22.199997 -14.312154 48.260279
v 24.999997 -14.550532 48.570940
v 22.199997 -14.550532 48.570940
v 24.999997 -14.700384 48.932712
v 22.199997 -14.700385 48.932711
v 24.999997 -14.751493 49.320938
v 22.199997 -14.751493 49.320938
v 24.999997 -14.700382 49.709167
v 22.199997 -14.700382 49.709167
v 24.999997 -14.550532 50.070939
v 22.199997 -14.550532 50.070939
v 24.999997 -14.312156 50.381600
v 22.199997 -14.312156 50.381600
v 24.999997 -14.001496 50.619976
v 22.199997 -14.001496 50.619976
v 24.999997 -13.639723 50.769826
v 22.199997 -13.639723 50.769826
v 24.999997 -13.251495 50.820939
v 22.199997 -13.251495 50.820939
v 24.999997 -12.863265 50.769826
v 22.199997 -12.863266 50.769826
v 24.999997 -12.501495 50.619976
v 22.199997 -12.501495 50.619976
v 24.999997 -12.190834 50.381600
v 22.199997 -12.190834 50.381600
v 24.999997 -11.952457 50.070938
v 22.199997 -11.952457 50.070938
v 24.999997 -11.802605 49.709167
v 22.199997 -11.802605 49.709167
v 24.999997 -11.751493 49.320938
v 22.199997 -11.751493 49.320938
v 24.999997 -11.802605 48.932712
v 22.199997 -11.802605 48.932711
v 24.999997 -11.952458 48.570939
v 22.199997 -11.952458 48.570939
v 24.999997 -12.190834 48.260279
v 22.199997 -12.190835 48.260279
v 24.999997 -12.501494 48.021901
v 24.999999 -54.351495 55.620937
v 22.199999 -54.351495 55.620937
v 22.199999 -54.351494 52.620937
v 24.999999 -54.351495 55.620937
v 24.999999 -54.351494 52.620937
v 22.199999 -54.351494 52.620937
v 22.199999 -60.551495 52.620937
v 24.999999 -54.351494 52.620937
v 24.999999 -60.551495 52.620937
v 22.199999 -60.551495 52.620937
v 22.199999 -60.551495 55.620938
v 24.999999 -60.551495 52.620937
v 24.999999 -60.551495 55.620938
v 25.000000 -47.551492 1.020938
v 22.200000 -47.551492 1.020938
v 22.200000 -47.551494 4.020938
v 25.000000 -47.551492 1.020938
v 25.000000 -47.551494 4.020938
v 22.200000 -47.551494 4.020938
v 22.199999 -41.351494 4.020937
v 25.000000 -47.551494 4.020938
v 24.999999 -41.351494 4.020937
v 22.199999 -41.351494 4.020937
v 22.199999 -41.351495 1.020941
v 24.999999 -41.351494 4.020937
v 24.999999 -41.351495 1.020941
v 25.000000 -60.551494 1.020939
v 22.200000 -60.551494 1.020939
v 22.200000 -60.551493 4.020939
v 25.000000 -60.551494 1.020939
v 25.000000 -60.551493 4.020939
v 22.200000 -60.551493 4.020939
v 22.200000 -54.351495 4.020938
v 25.000000 -60.551493 4.020939
v 25.000000 -54.351495 4.020938
v 22.200000 -54.351495 4.020938
v 22.200000 -54.351494 1.020940
v 25.000000 -54.351495 4.020938
v 25.000000 -54.351494 1.020940
v 24.999998 -41.351494 55.620938
v 22.199998 -41.351494 55.620938
v 22.199998 -41.351494 52.620938
v 24.999998 -41.351494 55.620938
v 24.999998 -41.351493 52.620938
v 22.199998 -41.351494 52.620938
v 22.199998 -47.551494 52.620936
v 24.999998 -41.351493 52.620938
v 24.999998 -47.551493 52.620937
v 22.199998 -47.551494 52.620936
v 22.199998 -47.551495 55.620939
v 24.999998 -47.551493 52.620937
v 24.999998 -47.551494 55.620939
v 24.999998 -24.251495 30.220939
v 24.999998 -36.751494 30.220938
v 24.999999 -36.751495 6.820940
v 22.199998 -36.751494 30.220938
v 22.199999 -36.751495 6.820940
v 24.999999 -36.751495 6.820940
v 24.999998 -24.251495 6.820939
v 22.199999 -36.751495 6.820940
v 22.199999 -24.251495 6.820939
v 24.999998 -24.251495 6.820939
v 24.999998 -24.251495 30.220939
v 22.199999 -24.251495 6.820939
v 22.199998 -24.251495 30.220939
v 24.999999 -57.551495 50.920937
v 24.999999 -60.551494 50.920938
v 24.999999 -60.551495 40.720936
v 22.199999 -60.551494 50.920938
v 22.199999 -60.551495 40.720936
v 24.999999 -60.551495 40.720936
v 24.999999 -57.551495 40.720937
v 22.199999 -60.551495 40.720936
v 22.199999 -57.551495 40.720937
v 24.999999 -57.551495 40.720937
v 24.999999 -57.551495 50.920937
v 22.199999 -57.551495 40.720937
v 22.199999 -57.551495 50.920937
v 25.000000 -57.551495 15.920938
v 25.000000 -60.551495 15.920938
v 25.000000 -60.551495 5.720939
v 22.200000 -60.551495 15.920938
v 22.200000 -60.551495 5.720939
v 25.000000 -60.551495 5.720939
v 25.000000 -57.551496 5.720938
v 22.200000 -60.551495 5.720939
v 22.200000 -57.551496 5.720938
v 25.000000 -57.551496 5.720938
v 25.000000 -57.551495 15.920938
v 22.200000 -57.551496 5.720938
v 22.200000 -57.551495 15.920937
v 24.999997 -26.251493 50.320939
v 24.999998 -35.501495 50.320938
v 24.999998 -35.501494 47.320937
v 22.199998 -35.501495 50.320938
v 22.199998 -35.501494 47.320937
v 24.999998 -35.501494 47.320937
v 24.999997 -26.251494 47.320939
v 22.199998 -35.501494 47.320937
v 22.199998 -26.251494 47.320939
v 24.999997 -26.251494 47.320939
v 24.999997 -26.251493 50.320939
v 22.199998 -26.251494 47.320939
v 22.199997 -26.251493 50.320939
v 24.999997 -9.015576 45.475430
v 24.999998 -18.232096 6.044886
v 22.199997 -9.015577 45.475430
v 22.199998 -18.232096 6.044886
v 22.199997 -19.322561 58.320938
v 22.199999 -59.251494 58.320935
v 24.999997 -19.322561 58.320938
v 24.999999 -59.251494 58.320936
v 22.199997 -10.133360 52.820999
v 22.199997 -12.863266 50.769826
v 22.199997 -11.682043 54.822554
v 22.199997 -11.952457 50.070938
v 22.199997 -12.190834 50.381600
v 22.199997 -12.501495 50.619976
v 22.199997 -13.251495 50.820939
v 22.199997 -12.251494 55.392007
v 22.199997 -13.639723 50.769826
v 22.199997 -13.766860 56.635633
v 22.199997 -14.001496 50.619976
v 22.199997 -15.495730 57.559734
v 22.199997 -14.312156 50.381600
v 22.199997 -17.371658 58.128791
v 22.199997 -14.550532 50.070939
v 22.199997 -19.322561 58.320938
v 22.199997 -14.700382 49.709167
v 22.199997 -26.251493 50.320939
v 22.199998 -41.351494 55.620938
v 22.199999 -59.251494 58.320935
v 22.199997 -14.751493 49.320938
v 22.199998 -26.251494 47.320939
v 22.199998 -35.501495 50.320938
v 22.199997 -14.700385 48.932711
v 22.199997 -14.550532 48.570940
v 22.199997 -9.136746 50.494759
v 22.199997 -11.751493 49.320938
v 22.199997 -11.802605 49.709167
v 22.199997 -8.756021 47.992823
v 22.199997 -12.190835 48.260279
v 22.199997 -11.952458 48.570939
v 22.199997 -11.802605 48.932711
v 22.199997 -9.015577 45.475430
v 22.199998 -19.501494 18.520939
v 22.199998 -19.552605 18.909169
v 22.199998 -19.702457 19.270940
v 22.199998 -19.940834 19.581600
v 22.199998 -24.251495 30.220939
v 22.199997 -13.639724 47.872050
v 22.199997 -13.251495 47.820939
v 22.199997 -12.863266 47.872050
v 22.199997 -12.501494 48.021901
v 22.199998 -18.232096 6.044886
v 22.199999 -24.251495 6.820939
v 22.199998 -21.001495 17.020940
v 22.199998 -20.613265 17.072051
v 22.199998 -20.251494 17.221902
v 22.199998 -19.940835 17.460279
v 22.199998 -19.702457 17.770941
v 22.199998 -19.552605 18.132711
v 22.199998 -18.978895 3.942964
v 22.199998 -20.173053 2.058877
v 22.199999 -21.755153 0.486383
v 22.199999 -23.646471 -0.696281
v 22.199999 -25.752901 -1.430269
v 22.199999 -27.969629 -1.679060
v 22.199999 -36.751495 6.820940
v 22.199998 -22.501494 18.520939
v 22.199998 -22.450383 18.132711
v 22.199998 -22.300533 17.770940
v 22.199998 -22.062154 17.460279
v 22.199998 -21.751495 17.221901
v 22.199998 -21.389724 17.072050
v 22.200000 -59.251493 -1.679060
v 22.199999 -41.351495 1.020941
v 22.199999 -41.351494 4.020937
v 22.199999 -40.389723 17.072050
v 22.199999 -40.001495 17.020939
v 22.199999 -39.613266 17.072050
v 22.199999 -39.251494 17.221900
v 22.199999 -38.940834 17.460279
v 22.199999 -38.702456 17.770940
v 22.199999 -38.552606 18.132710
v 22.199999 -38.501495 18.520939
v 22.199998 -36.751494 30.220938
v 22.200000 -47.551492 1.020938
v 22.199999 -40.751494 17.221900
v 22.200000 -60.551494 1.020939
v 22.200000 -54.351494 1.020940
v 22.200000 -51.404426 0.830568
v 22.200000 -50.951494 0.770938
v 22.200000 -50.498560 0.830569
v 22.200000 -50.076496 1.005394
v 22.200000 -49.714058 1.283502
v 22.200000 -49.435950 1.645939
v 22.200000 -49.261125 2.068007
v 22.200000 -49.201493 2.520941
v 22.200000 -47.551494 4.020938
v 22.200000 -60.286772 -1.542763
v 22.200000 -61.251496 -1.143162
v 22.200000 -62.079924 -0.507488
v 22.200000 -62.715596 0.320940
v 22.200000 -63.115198 1.285662
v 22.200000 -63.251494 2.320941
v 22.200000 -60.551493 4.020939
v 22.200000 -51.826495 1.005395
v 22.200000 -52.188931 1.283503
v 22.200000 -52.467039 1.645939
v 22.200000 -52.641864 2.068007
v 22.200000 -52.701494 2.520938
v 22.200000 -54.351495 4.020938
v 22.200000 -52.641864 2.973873
v 22.200000 -52.467040 3.395939
v 22.200000 -52.188932 3.758376
v 22.200000 -51.826494 4.036483
v 22.200000 -51.404427 4.211308
v 22.200000 -57.551495 15.920937
v 22.200000 -50.951496 4.270938
v 22.199999 -41.450383 18.909167
v 22.199999 -41.501495 18.520938
v 22.199999 -41.450383 18.132710
v 22.200000 -57.551496 5.720938
v 22.200000 -50.498560 4.211307
v 22.199999 -41.300533 17.770939
v 22.199999 -41.062155 17.460279
v 22.200000 -49.261124 2.973873
v 22.200000 -49.435951 3.395939
v 22.200000 -49.714059 3.758374
v 22.200000 -50.076495 4.036483
v 22.200000 -60.551495 5.720939
v 22.200000 -60.551495 15.920938
v 22.199999 -63.251495 54.320936
v 22.199999 -60.551495 40.720936
v 22.199999 -60.551494 50.920938
v 22.199999 -60.551495 52.620937
v 22.199999 -57.551495 50.920937
v 22.199999 -60.551495 55.620938
v 22.199999 -54.351494 52.620937
v 22.199999 -57.551495 40.720937
v 22.199999 -52.701493 54.120935
v 22.199999 -52.641864 53.668002
v 22.199999 -52.467039 53.245938
v 22.199999 -52.188931 52.883500
v 22.199999 -51.826494 52.605394
v 22.199999 -51.404428 52.430568
v 22.199998 -50.951494 52.370937
v 22.199999 -41.300532 19.270939
v 22.199999 -63.115198 55.356212
v 22.199999 -62.715596 56.320936
v 22.199999 -62.079922 57.149364
v 22.199999 -61.251494 57.785038
v 22.199999 -60.286770 58.184639
v 22.199999 -54.351495 55.620937
v 22.199998 -47.551495 55.620939
v 22.199998 -50.951494 55.870937
v 22.199998 -51.404427 55.811306
v 22.199998 -51.826494 55.636482
v 22.199998 -52.188930 55.358373
v 22.199998 -52.467038 54.995936
v 22.199999 -52.641864 54.573868
v 22.199998 -50.498561 55.811307
v 22.199998 -50.076495 55.636482
v 22.199998 -49.714058 55.358375
v 22.199998 -49.435950 54.995938
v 22.199998 -49.261125 54.573871
v 22.199998 -49.201494 54.120937
v 22.199998 -47.551494 52.620936
v 22.199998 -49.261125 53.668004
v 22.199998 -41.351494 52.620938
v 22.199998 -49.435950 53.245938
v 22.199998 -49.714057 52.883499
v 22.199998 -50.076494 52.605392
v 22.199998 -50.498561 52.430567
v 22.199998 -20.613265 19.969828
v 22.199998 -21.001494 20.020940
v 22.199998 -21.389723 19.969828
v 22.199998 -21.751495 19.819977
v 22.199998 -22.062155 19.581600
v 22.199998 -22.300532 19.270939
v 22.199998 -22.450383 18.909168
v 22.199998 -20.251495 19.819978
v 22.199997 -14.001495 48.021901
v 22.199997 -14.312154 48.260279
v 22.199999 -39.613266 19.969827
v 22.199999 -40.001495 20.020939
v 22.199999 -40.389723 19.969828
v 22.199999 -40.751494 19.819977
v 22.199999 -41.062154 19.581599
v 22.199999 -38.552606 18.909168
v 22.199999 -38.702456 19.270938
v 22.199999 -38.940834 19.581599
v 22.199999 -39.251494 19.819977
v 22.199998 -35.501494 47.320937
f 1 2 3
f 1 4 2
f 2 4 5
f 4 6 5
f 5 6 7
f 6 8 7
f 7 8 9
f 8 10 9
f 11 12 13
f 11 13 14
f 11 15 12
f 11 14 112
f 11 113 114
f 11 112 113
f 12 15 81
f 12 58 13
f 13 58 57
f 14 56 111
f 14 111 112
f 15 16 17
f 15 17 18
f 15 19 16
f 15 166 81
f 15 18 166
f 16 19 20
f 16 21 22
f 16 20 99
f 16 99 21
f 16 22 51
f 16 51 100
f 17 101 161
f 17 161 162
f 17 162 163
f 17 163 164
f 17 164 165
f 17 165 18
f 23 24 25
f 23 25 89
f 24 90 25
f 25 26 27
f 25 39 89
f 25 90 26
f 25 27 82
f 25 49 39
f 27 28 29
f 27 29 30
f 27 31 28
f 27 83 82
f 27 30 83
f 28 31 33
f 28 33 95
f 29 177 30
f 29 96 183
f 29 183 184
f 29 184 185
f 29 185 186
f 29 186 187
f 29 187 177
f 31 32 33
f 31 34 32
f 32 34 35
f 32 36 37
f 32 35 71
f 32 71 36
f 32 37 72
f 32 72 73
f 32 73 132
f 32 132 133
f 32 133 134
f 32 134 135
f 32 135 136
f 32 137 70
f 32 136 137
f 33 55 59
f 33 59 74
f 33 74 75
f 33 76 77
f 33 78 79
f 33 79 80
f 33 77 95
f 33 75 78
f 33 80 76
f 38 39 40
f 38 41 53
f 38 52 39
f 38 53 52
f 39 49 40
f 39 52 51
f 40 49 48
f 41 42 43
f 41 43 44
f 41 45 46
f 41 46 47
f 41 48 42
f 41 54 53
f 41 47 130
f 41 130 54
f 41 44 178
f 41 178 45
f 42 48 49
f 42 82 85
f 42 85 91
f 42 91 92
f 42 93 94
f 42 94 43
f 42 92 93
f 45 96 98
f 45 178 96
f 50 51 52
f 50 100 51
f 50 102 100
f 53 55 60
f 53 61 55
f 53 101 102
f 53 54 61
f 53 155 154
f 53 156 101
f 53 154 156
f 53 60 155
f 55 56 57
f 55 57 58
f 55 62 63
f 55 63 64
f 55 65 66
f 55 66 67
f 55 68 69
f 55 69 59
f 55 70 56
f 55 58 60
f 55 61 62
f 55 64 65
f 55 67 68
f 56 70 108
f 56 108 109
f 56 109 110
f 56 110 111
f 60 81 172
f 60 172 173
f 60 173 174
f 60 174 175
f 60 175 176
f 60 176 155
f 70 104 106
f 70 106 107
f 70 107 108
f 70 137 138
f 70 138 139
f 70 139 140
f 70 140 141
f 70 141 142
f 70 142 143
f 70 143 144
f 70 144 145
f 70 146 104
f 70 145 146
f 72 131 73
f 72 104 149
f 72 149 150
f 72 150 151
f 72 151 152
f 72 152 153
f 72 153 131
f 77 97 95
f 81 166 167
f 81 167 168
f 81 168 169
f 81 169 170
f 81 170 171
f 81 171 172
f 82 83 84
f 82 86 87
f 82 87 88
f 82 84 86
f 82 88 85
f 95 97 96
f 96 97 98
f 96 178 179
f 96 179 180
f 96 180 181
f 96 181 182
f 96 182 183
f 100 102 101
f 101 156 157
f 101 157 158
f 101 158 159
f 101 159 160
f 101 160 161
f 103 104 105
f 103 106 104
f 104 146 147
f 104 147 148
f 104 148 149
f 104 129 128
f 104 128 214
f 104 214 105
f 113 115 114
f 114 115 116
f 115 117 116
f 116 117 118
f 117 119 118
f 118 119 120
f 119 121 120
f 120 121 122
f 121 123 122
f 122 123 126
f 123 217 126
f 124 125 126
f 124 126 217
f 125 216 215
f 125 215 126
f 127 128 129
f 127 129 213
f 129 212 213
f 129 215 212
f 188 189 190
f 189 532 190
f 191 192 193
f 192 545 193
f 194 195 196
f 195 558 196
f 197 198 199
f 198 571 199
f 200 201 202
f 200 584 201
f 203 204 205
f 203 597 204
f 206 207 208
f 206 610 207
f 209 210 211
f 209 623 210
f 212 215 216
f 218 219 220
f 219 221 220
f 222 223 224
f 223 225 224
f 224 225 226
f 224 226 227
f 226 228 227
f 227 228 229
f 228 230 229
f 228 231 230
f 232 233 234
f 233 235 234
f 234 235 236
f 235 237 236
f 236 237 238
f 237 239 238
f 238 239 240
f 239 241 240
f 240 241 242
f 241 243 242
f 242 243 244
f 243 245 244
f 246 247 248
f 247 249 248
f 250 251 252
f 251 253 252
f 252 253 254
f 253 255 254
f 254 255 256
f 255 257 256
f 256 257 258
f 257 259 258
f 258 259 260
f 259 261 260
f 260 261 262
f 261 263 262
f 264 265 266
f 265 267 266
f 268 269 270
f 269 271 270
f 270 271 272
f 271 273 272
f 272 273 274
f 273 275 274
f 274 275 276
f 275 277 276
f 276 277 278
f 277 279 278
f 278 279 280
f 279 281 280
f 282 283 284
f 282 285 283
f 282 331 285
f 283 286 284
f 285 331 330
f 287 288 289
f 288 290 289
f 289 290 291
f 290 292 291
f 291 292 293
f 292 294 293
f 293 294 295
f 294 296 295
f 295 296 297
f 296 298 297
f 297 298 299
f 298 300 299
f 299 300 301
f 300 302 301
f 301 302 303
f 302 304 303
f 303 304 305
f 304 306 305
f 305 306 307
f 306 308 307
f 307 308 309
f 308 310 309
f 309 310 311
f 310 312 311
f 311 312 313
f 312 314 313
f 313 314 315
f 314 316 315
f 315 316 317
f 316 318 317
f 317 318 319
f 318 320 319
f 319 320 321
f 320 322 321
f 321 322 323
f 322 324 323
f 323 324 325
f 324 326 325
f 325 326 327
f 326 328 327
f 327 328 329
f 328 330 329
f 329 330 331
f 332 333 334
f 332 335 333
f 332 381 335
f 333 336 334
f 335 381 380
f 337 338 339
f 338 340 339
f 339 340 341
f 340 342 341
f 341 342 343
f 342 344 343
f 343 344 345
f 344 346 345
f 345 346 347
f 346 348 347
f 347 348 349
f 348 350 349
f 349 350 351
f 350 352 351
f 351 352 353
f 352 354 353
f 353 354 355
f 354 356 355
f 355 356 357
f 356 358 357
f 357 358 359
f 358 360 359
f 359 360 361
f 360 362 361
f 361 362 363
f 362 364 363
f 363 364 365
f 364 366 365
f 365 366 367
f 366 368 367
f 367 368 369
f 368 370 369
f 369 370 371
f 370 372 371
f 371 372 373
f 372 374 373
f 373 374 375
f 374 376 375
f 375 376 377
f 376 378 377
f 377 378 379
f 378 380 379
f 379 380 381
f 382 383 384
f 382 385 383
f 382 431 385
f 383 386 384
f 385 431 430
f 387 388 389
f 388 390 389
f 389 390 391
f 390 392 391
f 391 392 393
f 392 394 393
f 393 394 395
f 394 396 395
f 395 396 397
f 396 398 397
f 397 398 399
f 398 400 399
f 399 400 401
f 400 402 401
f 401 402 403
f 402 404 403
f 403 404 405
f 404 406 405
f 405 406 407
f 406 408 407
f 407 408 409
f 408 410 409
f 409 410 411
f 410 412 411
f 411 412 413
f 412 414 413
f 413 414 415
f 414 416 415
f 415 416 417
f 416 418 417
f 417 418 419
f 418 420 419
f 419 420 421
f 420 422 421
f 421 422 423
f 422 424 423
f 423 424 425
f 424 426 425
f 425 426 427
f 426 428 427
f 427 428 429
f 428 430 429
f 429 430 431
f 432 433 434
f 432 435 433
f 432 481 435
f 433 436 434
f 435 481 480
f 437 438 439
f 438 440 439
f 439 440 441
f 440 442 441
f 441 442 443
f 442 444 443
f 443 444 445
f 444 446 445
f 445 446 447
f 446 448 447
f 447 448 449
f 448 450 449
f 449 450 451
f 450 452 451
f 451 452 453
f 452 454 453
f 453 454 455
f 454 456 455
f 455 456 457
f 456 458 457
f 457 458 459
f 458 460 459
f 459 460 461
f 460 462 461
f 461 462 463
f 462 464 463
f 463 464 465
f 464 466 465
f 465 466 467
f 466 468 467
f 467 468 469
f 468 470 469
f 469 470 471
f 470 472 471
f 471 472 473
f 472 474 473
f 473 474 475
f 474 476 475
f 475 476 477
f 476 478 477
f 477 478 479
f 478 480 479
f 479 480 481
f 482 483 484
f 482 485 483
f 482 531 485
f 483 486 484
f 485 531 530
f 487 488 489
f 488 490 489
f 489 490 491
f 490 492 491
f 491 492 493
f 492 494 493
f 493 494 495
f 494 496 495
f 495 496 497
f 496 498 497
f 497 498 499
f 498 500 499
f 499 500 501
f 500 502 501
f 501 502 503
f 502 504 503
f 503 504 505
f 504 506 505
f 505 506 507
f 506 508 507
f 507 508 509
f 508 510 509
f 509 510 511
f 510 512 511
f 511 512 513
f 512 514 513
f 513 514 515
f 514 516 515
f 515 516 517
f 516 518 517
f 517 518 519
f 518 520 519
f 519 520 521
f 520 522 521
f 521 522 523
f 522 524 523
f 523 524 525
f 524 526 525
f 525 526 527
f 526 528 527
f 527 528 529
f 528 530 529
f 529 530 531
f 533 534 535
f 534 536 535
f 537 538 539
f 538 540 539
f 541 542 543
f 542 544 543
f 546 547 548
f 547 549 548
f 550 551 552
f 551 553 552
f 554 555 556
f 555 557 556
f 559 560 561
f 560 562 561
f 563 564 565
f 564 566 565
f 567 568 569
f 568 570 569
f 572 573 574
f 573 575 574
f 576 577 578
f 577 579 578
f 580 581 582
f 581 583 582
f 585 586 587
f 586 588 587
f 589 590 591
f 590 592 591
f 593 594 595
f 594 596 595
f 598 599 600
f 599 601 600
f 602 603 604
f 603 605 604
f 606 607 608
f 607 609 608
f 611 612 613
f 612 614 613
f 615 616 617
f 616 618 617
f 619 620 621
f 620 622 621
f 624 625 626
f 625 627 626
f 628 629 630
f 629 631 630
f 632 633 634
f 633 635 634
f 636 637 638
f 637 639 638
f 640 641 642
f 641 643 642
f 644 645 646
f 644 647 648
f 644 648 649
f 644 669 647
f 644 649 645
f 645 650 646
f 646 650 651
f 647 669 671
f 650 652 651
f 651 652 653
f 652 654 653
f 653 654 655
f 654 656 655
f 655 656 657
f 656 658 657
f 657 658 659
f 658 660 659
f 659 660 661
f 659 662 663
f 659 661 666
f 659 666 662
f 660 664 661
f 661 664 665
f 662 787 663
f 662 666 802
f 663 786 770
f 663 770 785
f 663 787 788
f 663 789 786
f 663 788 789
f 664 667 665
f 665 667 668
f 665 681 718
f 665 816 681
f 665 668 816
f 665 718 826
f 666 826 802
f 669 670 671
f 669 672 670
f 670 672 675
f 672 673 674
f 672 674 675
f 672 676 673
f 673 676 685
f 676 677 678
f 676 678 679
f 676 680 681
f 676 681 682
f 676 683 684
f 676 684 685
f 676 686 677
f 676 679 680
f 676 682 683
f 677 686 693
f 680 814 681
f 681 807 808
f 681 808 809
f 681 809 810
f 681 811 812
f 681 812 813
f 681 701 687
f 681 814 807
f 681 810 811
f 681 813 701
f 681 815 682
f 681 816 815
f 686 687 688
f 686 688 689
f 686 690 691
f 686 691 692
f 686 694 687
f 686 689 690
f 686 692 693
f 687 694 695
f 687 695 696
f 687 696 697
f 687 698 699
f 687 699 700
f 687 701 702
f 687 702 703
f 687 704 705
f 687 705 706
f 687 697 698
f 687 703 704
f 687 706 688
f 699 707 708
f 699 708 700
f 700 708 709
f 700 710 711
f 700 711 712
f 700 713 714
f 700 714 715
f 700 716 717
f 700 717 718
f 700 709 710
f 700 712 713
f 700 715 716
f 707 719 708
f 707 721 722
f 707 722 723
f 707 724 719
f 707 732 721
f 707 723 724
f 709 720 710
f 709 731 720
f 717 822 718
f 718 800 802
f 718 817 818
f 718 818 819
f 718 819 820
f 718 821 772
f 718 772 800
f 718 822 823
f 718 824 825
f 718 825 817
f 718 802 826
f 718 820 821
f 718 823 824
f 719 724 725
f 719 726 727
f 719 727 728
f 719 729 730
f 719 730 731
f 719 725 726
f 719 728 729
f 720 731 758
f 721 732 733
f 721 733 734
f 721 734 735
f 721 736 737
f 721 737 738
f 721 735 736
f 722 739 723
f 722 740 739
f 722 741 740
f 722 742 741
f 722 743 742
f 722 744 743
f 730 759 731
f 731 756 757
f 731 757 758
f 731 759 760
f 731 761 762
f 731 762 756
f 731 760 761
f 737 763 738
f 737 764 763
f 737 765 764
f 738 763 755
f 738 755 744
f 743 744 745
f 744 746 745
f 744 747 746
f 744 748 747
f 744 749 748
f 744 750 749
f 744 755 750
f 749 750 751
f 750 752 753
f 750 753 754
f 750 756 751
f 750 757 756
f 750 764 766
f 750 772 780
f 750 766 772
f 750 780 752
f 750 754 757
f 764 765 766
f 765 767 766
f 765 768 767
f 765 770 768
f 765 781 770
f 767 768 769
f 768 771 769
f 769 771 772
f 770 781 782
f 770 783 784
f 770 784 785
f 770 782 783
f 771 773 774
f 771 774 775
f 771 776 777
f 771 777 778
f 771 778 772
f 771 786 773
f 771 775 776
f 772 778 779
f 772 806 800
f 772 779 806
f 772 821 780
f 773 786 793
f 786 789 790
f 786 791 792
f 786 792 793
f 786 790 791
f 787 794 788
f 787 795 794
f 787 796 795
f 787 797 796
f 787 798 797
f 787 799 798
f 787 800 799
f 799 800 801
f 800 803 801
f 800 804 803
f 800 805 804
f 800 806 805