# SG90Horn2
# Autodesk dbId: 74
# Units: mm
o 074_SG90Horn2
v 4.650000 -57.651494 28.320938
v 4.655111 -56.251494 28.282115
v 4.650000 -56.251494 28.320938
v 4.655111 -57.651494 28.282115
v 4.670096 -56.251494 28.245938
v 4.670096 -57.651494 28.245938
v 4.693934 -56.251494 28.214872
v 4.693934 -57.651494 28.214872
v 4.725000 -56.251494 28.191034
v 4.725000 -57.651494 28.191034
v 4.761177 -56.251494 28.176049
v 4.761177 -57.651494 28.176049
v 4.800000 -56.251494 28.170938
v 4.800000 -57.651494 28.170938
v 4.838823 -56.251494 28.176049
v 4.838823 -57.651494 28.176049
v 4.875000 -56.251494 28.191034
v 4.875000 -57.651494 28.191034
v 4.906066 -56.251494 28.214872
v 4.906066 -57.651494 28.214872
v 4.929904 -56.251494 28.245938
v 4.929904 -57.651494 28.245938
v 4.944889 -56.251494 28.282115
v 4.944889 -57.651494 28.282115
v 4.950000 -56.251494 28.320938
v 4.950000 -57.651494 28.320938
v 4.944889 -56.251494 28.359761
v 4.944889 -57.651494 28.359761
v 4.929904 -56.251494 28.395938
v 4.929904 -57.651494 28.395938
v 4.906066 -56.251494 28.427004
v 4.906066 -57.651494 28.427004
v 4.875000 -56.251494 28.450842
v 4.875000 -57.651494 28.450842
v 4.838823 -56.251494 28.465827
v 4.838823 -57.651494 28.465827
v 4.800000 -56.251494 28.470938
v 4.800000 -57.651494 28.470938
v 4.761177 -56.251494 28.465827
v 4.761177 -57.651494 28.465827
v 4.725000 -56.251494 28.450842
v 4.725000 -57.651494 28.450842
v 4.693934 -56.251494 28.427004
v 4.693934 -57.651494 28.427004
v 4.670096 -56.251494 28.395938
v 4.670096 -57.651494 28.395938
v 4.655111 -56.251494 28.359761
v 4.655111 -57.651494 28.359761
v 4.650000 -56.251494 28.320938
v 8.150000 -57.651494 28.320938
v 8.155111 -56.251494 28.282115
v 8.150000 -56.251494 28.320938
v 8.155111 -57.651494 28.282115
v 8.170096 -56.251494 28.245938
v 8.170096 -57.651494 28.245938
v 8.193934 -56.251494 28.214872
v 8.193934 -57.651494 28.214872
v 8.224999 -56.251494 28.191034
v 8.224999 -57.651494 28.191034
v 8.261177 -56.251494 28.176049
v 8.261177 -57.651494 28.176049
v 8.299999 -56.251494 28.170938
v 8.299999 -57.651494 28.170938
v 8.338822 -56.251494 28.176049
v 8.338822 -57.651494 28.176049
v 8.374999 -56.251494 28.191034
v 8.374999 -57.651494 28.191034
v 8.406066 -56.251494 28.214872
v 8.406066 -57.651494 28.214872
v 8.429904 -56.251494 28.245938
v 8.429904 -57.651494 28.245938
v 8.444889 -56.251494 28.282115
v 8.444889 -57.651494 28.282115
v 8.450000 -56.251494 28.320938
v 8.450000 -57.651494 28.320938
v 8.444889 -56.251494 28.359761
v 8.444889 -57.651494 28.359761
v 8.429904 -56.251494 28.395938
v 8.429904 -57.651494 28.395938
v 8.406066 -56.251494 28.427004
v 8.406066 -57.651494 28.427004
v 8.374999 -56.251494 28.450842
v 8.374999 -57.651494 28.450842
v 8.338822 -56.251494 28.465827
v 8.338822 -57.651494 28.465827
v 8.299999 -56.251494 28.470938
v 8.299999 -57.651494 28.470938
v 8.261177 -56.251494 28.465827
v 8.261177 -57.651494 28.465827
v 8.224999 -56.251494 28.450842
v 8.224999 -57.651494 28.450842
v 8.193934 -56.251494 28.427004
v 8.193934 -57.651494 28.427004
v 8.170096 -56.251494 28.395938
v 8.170096 -57.651494 28.395938
v 8.155111 -56.251494 28.359761
v 8.155111 -57.651494 28.359761
v 8.150000 -56.251494 28.320938
v 13.400000 -57.651494 28.320938
v 13.405110 -56.251494 28.282115
v 13.400000 -56.251494 28.320938
v 13.405110 -57.651494 28.282115
v 13.420097 -56.251494 28.245938
v 13.420097 -57.651494 28.245938
v 13.443933 -56.251494 28.214872
v 13.443933 -57.651494 28.214872
v 13.475000 -56.251494 28.191034
v 13.475000 -57.651494 28.191034
v 13.511177 -56.251494 28.176049
v 13.511177 -57.651494 28.176049
v 13.550000 -56.251494 28.170938
v 13.550000 -57.651494 28.170938
v 13.588823 -56.251494 28.176049
v 13.588823 -57.651494 28.176049
v 13.625000 -56.251494 28.191034
v 13.625000 -57.651494 28.191034
v 13.656065 -56.251494 28.214872
v 13.656065 -57.651494 28.214872
v 13.679903 -56.251494 28.245938
v 13.679903 -57.651494 28.245938
v 13.694888 -56.251494 28.282115
v 13.694888 -57.651494 28.282115
v 13.700000 -56.251494 28.320938
v 13.700000 -57.651494 28.320938
v 13.694888 -56.251494 28.359761
v 13.694888 -57.651494 28.359761
v 13.679903 -56.251494 28.395938
v 13.679903 -57.651494 28.395938
v 13.656065 -56.251494 28.427004
v 13.656065 -57.651494 28.427004
v 13.625000 -56.251494 28.450842
v 13.625000 -57.651494 28.450842
v 13.588823 -56.251494 28.465827
v 13.588823 -57.651494 28.465827
v 13.550000 -56.251494 28.470938
v 13.550000 -57.651494 28.470938
v 13.511177 -56.251494 28.465827
v 13.511177 -57.651494 28.465827
v 13.475000 -56.251494 28.450842
v 13.475000 -57.651494 28.450842
v 13.443933 -56.251494 28.427004
v 13.443933 -57.651494 28.427004
v 13.420097 -56.251494 28.395938
v 13.420097 -57.651494 28.395938
v 13.405110 -56.251494 28.359761
v 13.405110 -57.651494 28.359761
v 13.400000 -56.251494 28.320938
v 9.900000 -57.651494 28.320938
v 9.905111 -56.251494 28.282115
v 9.900000 -56.251494 28.320938
v 9.905111 -57.651494 28.282115
v 9.920096 -56.251494 28.245938
v 9.920096 -57.651494 28.245938
v 9.943934 -56.251494 28.214872
v 9.943934 -57.651494 28.214872
v 9.975000 -56.251494 28.191034
v 9.975000 -57.651494 28.191034
v 10.011177 -56.251494 28.176049
v 10.011177 -57.651494 28.176049
v 10.050000 -56.251494 28.170938
v 10.050000 -57.651494 28.170938
v 10.088823 -56.251494 28.176049
v 10.088823 -57.651494 28.176049
v 10.125000 -56.251494 28.191034
v 10.125000 -57.651494 28.191034
v 10.156066 -56.251494 28.214872
v 10.156066 -57.651494 28.214872
v 10.179903 -56.251494 28.245938
v 10.179903 -57.651494 28.245938
v 10.194889 -56.251494 28.282115
v 10.194889 -57.651494 28.282115
v 10.200000 -56.251494 28.320938
v 10.200000 -57.651494 28.320938
v 10.194889 -56.251494 28.359761
v 10.194889 -57.651494 28.359761
v 10.179903 -56.251494 28.395938
v 10.179903 -57.651494 28.395938
v 10.156066 -56.251494 28.427004
v 10.156066 -57.651494 28.427004
v 10.125000 -56.251494 28.450842
v 10.125000 -57.651494 28.450842
v 10.088823 -56.251494 28.465827
v 10.088823 -57.651494 28.465827
v 10.050000 -56.251494 28.470938
v 10.050000 -57.651494 28.470938
v 10.011177 -56.251494 28.465827
v 10.011177 -57.651494 28.465827
v 9.975000 -56.251494 28.450842
v 9.975000 -57.651494 28.450842
v 9.943934 -56.251494 28.427004
v 9.943934 -57.651494 28.427004
v 9.920096 -56.251494 28.395938
v 9.920096 -57.651494 28.395938
v 9.905111 -56.251494 28.359761
v 9.905111 -57.651494 28.359761
v 9.900000 -56.251494 28.320938
v 6.400000 -57.651494 28.320938
v 6.405111 -56.251494 28.282115
v 6.400000 -56.251494 28.320938
v 6.405111 -57.651494 28.282115
v 6.420096 -56.251494 28.245938
v 6.420096 -57.651494 28.245938
v 6.443934 -56.251494 28.214872
v 6.443934 -57.651494 28.214872
v 6.475000 -56.251494 28.191034
v 6.475000 -57.651494 28.191034
v 6.511177 -56.251494 28.176049
v 6.511177 -57.651494 28.176049
v 6.549999 -56.251494 28.170938
v 6.549999 -57.651494 28.170938
v 6.588823 -56.251494 28.176049
v 6.588823 -57.651494 28.176049
v 6.625000 -56.251494 28.191034
v 6.625000 -57.651494 28.191034
v 6.656066 -56.251494 28.214872
v 6.656066 -57.651494 28.214872
v 6.679904 -56.251494 28.245938
v 6.679904 -57.651494 28.245938
v 6.694889 -56.251494 28.282115
v 6.694889 -57.651494 28.282115
v 6.700000 -56.251494 28.320938
v 6.700000 -57.651494 28.320938
v 6.694889 -56.251494 28.359761
v 6.694889 -57.651494 28.359761
v 6.679904 -56.251494 28.395938
v 6.679904 -57.651494 28.395938
v 6.656066 -56.251494 28.427004
v 6.656066 -57.651494 28.427004
v 6.625000 -56.251494 28.450842
v 6.625000 -57.651494 28.450842
v 6.588823 -56.251494 28.465827
v 6.588823 -57.651494 28.465827
v 6.549999 -56.251494 28.470938
v 6.549999 -57.651494 28.470938
v 6.511177 -56.251494 28.465827
v 6.511177 -57.651494 28.465827
v 6.475000 -56.251494 28.450842
v 6.475000 -57.651494 28.450842
v 6.443934 -56.251494 28.427004
v 6.443934 -57.651494 28.427004
v 6.420096 -56.251494 28.395938
v 6.420096 -57.651494 28.395938
v 6.405111 -56.251494 28.359761
v 6.405111 -57.651494 28.359761
v 6.400000 -56.251494 28.320938
v 11.650000 -57.651494 28.320938
v 11.655111 -56.251494 28.282115
v 11.650000 -56.251494 28.320938
v 11.655111 -57.651494 28.282115
v 11.670096 -56.251494 28.245938
v 11.670096 -57.651494 28.245938
v 11.693934 -56.251494 28.214872
v 11.693934 -57.651494 28.214872
v 11.725000 -56.251494 28.191034
v 11.725000 -57.651494 28.191034
v 11.761177 -56.251494 28.176049
v 11.761177 -57.651494 28.176049
v 11.799999 -56.251494 28.170938
v 11.799999 -57.651494 28.170938
v 11.838822 -56.251494 28.176049
v 11.838822 -57.651494 28.176049
v 11.875000 -56.251494 28.191034
v 11.875000 -57.651494 28.191034
v 11.906066 -56.251494 28.214872
v 11.906066 -57.651494 28.214872
v 11.929904 -56.251494 28.245938
v 11.929904 -57.651494 28.245938
v 11.944889 -56.251494 28.282115
v 11.944889 -57.651494 28.282115
v 11.950001 -56.251494 28.320938
v 11.950001 -57.651494 28.320938
v 11.944889 -56.251494 28.359761
v 11.944889 -57.651494 28.359761
v 11.929904 -56.251494 28.395938
v 11.929904 -57.651494 28.395938
v 11.906066 -56.251494 28.427004
v 11.906066 -57.651494 28.427004
v 11.875000 -56.251494 28.450842
v 11.875000 -57.651494 28.450842
v 11.838822 -56.251494 28.465827
v 11.838822 -57.651494 28.465827
v 11.799999 -56.251494 28.470938
v 11.799999 -57.651494 28.470938
v 11.761177 -56.251494 28.465827
v 11.761177 -57.651494 28.465827
v 11.725000 -56.251494 28.450842
v 11.725000 -57.651494 28.450842
v 11.693934 -56.251494 28.427004
v 11.693934 -57.651494 28.427004
v 11.670096 -56.251494 28.395938
v 11.670096 -57.651494 28.395938
v 11.655111 -56.251494 28.359761
v 11.655111 -57.651494 28.359761
v 11.650000 -56.251494 28.320938
v 2.509017 -57.651494 25.952957
v 13.616421 -56.251494 26.322041
v 13.616421 -57.651494 26.322041
v 2.509017 -56.251494 25.952957
v 3.020478 -57.651494 29.988035
v 13.616421 -57.651494 30.319835
v 2.509017 -57.651494 30.688919
v 3.340894 -57.651494 29.181709
v 4.725000 -57.651494 28.450842
v 4.761177 -57.651494 28.465827
v 4.800000 -57.651494 28.470938
v 4.838823 -57.651494 28.465827
v 6.511177 -57.651494 28.465827
v 6.549999 -57.651494 28.470938
v 3.450000 -57.651494 28.320938
v 4.650000 -57.651494 28.320938
v 4.655111 -57.651494 28.359761
v 4.670096 -57.651494 28.395938
v 4.693934 -57.651494 28.427004
v 4.725000 -57.651494 28.191034
v 4.693934 -57.651494 28.214872
v 4.670096 -57.651494 28.245938
v 3.340894 -57.651494 27.460168
v 4.838823 -57.651494 28.176049
v 4.800000 -57.651494 28.170938
v 4.761177 -57.651494 28.176049
v 6.549999 -57.651494 28.170938
v 6.511177 -57.651494 28.176049
v 3.020478 -57.651494 26.653841
v 14.588106 -57.651494 26.611454
v 11.799999 -57.651494 28.170938
v 13.616421 -57.651494 26.322041
v 14.120907 -57.651494 26.404153
v 14.987505 -57.651494 26.930406
v 11.838822 -57.651494 28.176049
v 15.293016 -57.651494 27.340177
v 13.550000 -57.651494 28.170938
v 15.484688 -57.651494 27.814003
v 13.656065 -57.651494 28.214872
v 13.625000 -57.651494 28.191034
v 13.588823 -57.651494 28.176049
v 15.549999 -57.651494 28.320938
v 13.656065 -57.651494 28.427004
v 13.679903 -57.651494 28.395938
v 13.694888 -57.651494 28.359761
v 13.700000 -57.651494 28.320938
v 13.694888 -57.651494 28.282115
v 13.679903 -57.651494 28.245938
v 15.484688 -57.651494 28.827873
v 13.625000 -57.651494 28.450842
v 14.588106 -57.651494 30.030422
v 11.799999 -57.651494 28.470938
v 14.120907 -57.651494 30.237723
v 10.050000 -57.651494 28.470938
v 2.509017 -56.251494 30.688919
v 13.616421 -57.651494 30.319835
v 13.616421 -56.251494 30.319835
v 1.895439 -56.251494 25.438264
v 2.509017 -56.251494 25.952957
v 2.439518 -59.951494 25.881420
v 3.450000 -59.951494 28.320938
v 3.340894 -57.651494 27.460168
v 3.450000 -57.651494 28.320938
v 3.332444 -59.951494 27.428012
v 3.020478 -57.651494 26.653841
v 2.987788 -59.951494 26.595938
v 2.509017 -57.651494 25.952957
v 1.725000 -59.951494 25.333150
v 1.179722 -56.251494 25.078908
v 0.892926 -59.951494 24.988494
v 0.400433 -56.251494 24.894255
v 0.000000 -59.951494 24.870938
v -0.400433 -56.251494 24.894255
v -0.892926 -59.951494 24.988494
v -1.179722 -56.251494 25.078908
v -1.725000 -59.951494 25.333150
v -1.895439 -56.251494 25.438264
v -2.439518 -59.951494 25.881420
v -2.509017 -57.651494 25.952957
v -2.509017 -56.251494 25.952957
v -2.987788 -59.951494 26.595938
v -3.020478 -57.651494 26.653841
v -3.332444 -59.951494 27.428012
v -3.340894 -57.651494 27.460168
v -3.450000 -59.951494 28.320938
v -3.340894 -57.651494 29.181709
v -3.450000 -57.651494 28.320938
v -3.332444 -59.951494 29.213864
v -3.020478 -57.651494 29.988035
v -2.987788 -59.951494 30.045938
v -2.509017 -57.651494 30.688919
v -2.439518 -59.951494 30.760456
v -1.895439 -56.251494 31.203612
v -2.509017 -56.251494 30.688919
v -1.725000 -59.951494 31.308726
v -1.179722 -56.251494 31.562968
v -0.892926 -59.951494 31.653382
v -0.400433 -56.251494 31.747621
v 0.000000 -59.951494 31.770938
v 0.400433 -56.251494 31.747621
v 0.892926 -59.951494 31.653382
v 1.179722 -56.251494 31.562968
v 1.725000 -59.951494 31.308726
v 1.895439 -56.251494 31.203612
v 2.439518 -59.951494 30.760456
v 2.509017 -57.651494 30.688919
v 2.509017 -56.251494 30.688919
v 2.987788 -59.951494 30.045938
v 3.020478 -57.651494 29.988035
v 3.332444 -59.951494 29.213864
v 3.340894 -57.651494 29.181709
v -4.650000 -57.651494 28.320938
v -4.655111 -56.251494 28.359761
v -4.650000 -56.251494 28.320938
v -4.655111 -57.651494 28.359761
v -4.670096 -56.251494 28.395938
v -4.670096 -57.651494 28.395938
v -4.693934 -56.251494 28.427004
v -4.693934 -57.651494 28.427004
v -4.725000 -56.251494 28.450842
v -4.725000 -57.651494 28.450842
v -4.761177 -56.251494 28.465827
v -4.761177 -57.651494 28.465827
v -4.800000 -56.251494 28.470938
v -4.800000 -57.651494 28.470938
v -4.838823 -56.251494 28.465827
v -4.838823 -57.651494 28.465827
v -4.875000 -56.251494 28.450842
v -4.875000 -57.651494 28.450842
v -4.906066 -56.251494 28.427004
v -4.906066 -57.651494 28.427004
v -4.929904 -56.251494 28.395938
v -4.929904 -57.651494 28.395938
v -4.944889 -56.251494 28.359761
v -4.944889 -57.651494 28.359761
v -4.950000 -56.251494 28.320938
v -4.950000 -57.651494 28.320938
v -4.944889 -56.251494 28.282115
v -4.944889 -57.651494 28.282115
v -4.929904 -56.251494 28.245938
v -4.929904 -57.651494 28.245938
v -4.906066 -56.251494 28.214872
v -4.906066 -57.651494 28.214872
v -4.875000 -56.251494 28.191034
v -4.875000 -57.651494 28.191034
v -4.838823 -56.251494 28.176049
v -4.838823 -57.651494 28.176049
v -4.800000 -56.251494 28.170938
v -4.800000 -57.651494 28.170938
v -4.761177 -56.251494 28.176049
v -4.761177 -57.651494 28.176049
v -4.725000 -56.251494 28.191034
v -4.725000 -57.651494 28.191034
v -4.693934 -56.251494 28.214872
v -4.693934 -57.651494 28.214872
v -4.670096 -56.251494 28.245938
v -4.670096 -57.651494 28.245938
v -4.655111 -56.251494 28.282115
v -4.655111 -57.651494 28.282115
v -4.650000 -56.251494 28.320938
v -8.150000 -57.651494 28.320938
v -8.155111 -56.251494 28.359761
v -8.150000 -56.251494 28.320938
v -8.155111 -57.651494 28.359761
v -8.170096 -56.251494 28.395938
v -8.170096 -57.651494 28.395938
v -8.193934 -56.251494 28.427004
v -8.193934 -57.651494 28.427004
v -8.224999 -56.251494 28.450842
v -8.224999 -57.651494 28.450842
v -8.261177 -56.251494 28.465827
v -8.261177 -57.651494 28.465827
v -8.299999 -56.251494 28.470938
v -8.299999 -57.651494 28.470938
v -8.338822 -56.251494 28.465827
v -8.338822 -57.651494 28.465827
v -8.374999 -56.251494 28.450842
v -8.374999 -57.651494 28.450842
v -8.406066 -56.251494 28.427004
v -8.406066 -57.651494 28.427004
v -8.429904 -56.251494 28.395938
v -8.429904 -57.651494 28.395938
v -8.444889 -56.251494 28.359761
v -8.444889 -57.651494 28.359761
v -8.450000 -56.251494 28.320938
v -8.450000 -57.651494 28.320938
v -8.444889 -56.251494 28.282115
v -8.444889 -57.651494 28.282115
v -8.429904 -56.251494 28.245938
v -8.429904 -57.651494 28.245938
v -8.406066 -56.251494 28.214872
v -8.406066 -57.651494 28.214872
v -8.374999 -56.251494 28.191034
v -8.374999 -57.651494 28.191034
v -8.338822 -56.251494 28.176049
v -8.338822 -57.651494 28.176049
v -8.299999 -56.251494 28.170938
v -8.299999 -57.651494 28.170938
v -8.261177 -56.251494 28.176049
v -8.261177 -57.651494 28.176049
v -8.224999 -56.251494 28.191034
v -8.224999 -57.651494 28.191034
v -8.193934 -56.251494 28.214872
v -8.193934 -57.651494 28.214872
v -8.170096 -56.251494 28.245938
v -8.170096 -57.651494 28.245938
v -8.155111 -56.251494 28.282115
v -8.155111 -57.651494 28.282115
v -8.150000 -56.251494 28.320938
v -13.400000 -57.651494 28.320938
v -13.405110 -56.251494 28.359761
v -13.400000 -56.251494 28.320938
v -13.405110 -57.651494 28.359761
v -13.420097 -56.251494 28.395938
v -13.420097 -57.651494 28.395938
v -13.443933 -56.251494 28.427004
v -13.443933 -57.651494 28.427004
v -13.475000 -56.251494 28.450842
v -13.475000 -57.651494 28.450842
v -13.511177 -56.251494 28.465827
v -13.511177 -57.651494 28.465827
v -13.550000 -56.251494 28.470938
v -13.550000 -57.651494 28.470938
v -13.588823 -56.251494 28.465827
v -13.588823 -57.651494 28.465827
v -13.625000 -56.251494 28.450842
v -13.625000 -57.651494 28.450842
v -13.656065 -56.251494 28.427004
v -13.656065 -57.651494 28.427004
v -13.679903 -56.251494 28.395938
v -13.679903 -57.651494 28.395938
v -13.694888 -56.251494 28.359761
v -13.694888 -57.651494 28.359761
v -13.700000 -56.251494 28.320938
v -13.700000 -57.651494 28.320938
v -13.694888 -56.251494 28.282115
v -13.694888 -57.651494 28.282115
v -13.679903 -56.251494 28.245938
v -13.679903 -57.651494 28.245938
v -13.656065 -56.251494 28.214872
v -13.656065 -57.651494 28.214872
v -13.625000 -56.251494 28.191034
v -13.625000 -57.651494 28.191034
v -13.588823 -56.251494 28.176049
v -13.588823 -57.651494 28.176049
v -13.550000 -56.251494 28.170938
v -13.550000 -57.651494 28.170938
v -13.511177 -56.251494 28.176049
v -13.511177 -57.651494 28.176049
v -13.475000 -56.251494 28.191034
v -13.475000 -57.651494 28.191034
v -13.443933 -56.251494 28.214872
v -13.443933 -57.651494 28.214872
v -13.420097 -56.251494 28.245938
v -13.420097 -57.651494 28.245938
v -13.405110 -56.251494 28.282115
v -13.405110 -57.651494 28.282115
v -13.400000 -56.251494 28.320938
v -9.900000 -57.651494 28.320938
v -9.905111 -56.251494 28.359761
v -9.900000 -56.251494 28.320938
v -9.905111 -57.651494 28.359761
v -9.920096 -56.251494 28.395938
v -9.920096 -57.651494 28.395938
v -9.943934 -56.251494 28.427004
v -9.943934 -57.651494 28.427004
v -9.975000 -56.251494 28.450842
v -9.975000 -57.651494 28.450842
v -10.011177 -56.251494 28.465827
v -10.011177 -57.651494 28.465827
v -10.050000 -56.251494 28.470938
v -10.050000 -57.651494 28.470938
v -10.088823 -56.251494 28.465827
v -10.088823 -57.651494 28.465827
v -10.125000 -56.251494 28.450842
v -10.125000 -57.651494 28.450842
v -10.156066 -56.251494 28.427004
v -10.156066 -57.651494 28.427004
v -10.179903 -56.251494 28.395938
v -10.179903 -57.651494 28.395938
v -10.194889 -56.251494 28.359761
v -10.194889 -57.651494 28.359761
v -10.200000 -56.251494 28.320938
v -10.200000 -57.651494 28.320938
v -10.194889 -56.251494 28.282115
v -10.194889 -57.651494 28.282115
v -10.179903 -56.251494 28.245938
v -10.179903 -57.651494 28.245938
v -10.156066 -56.251494 28.214872
v -10.156066 -57.651494 28.214872
v -10.125000 -56.251494 28.191034
v -10.125000 -57.651494 28.191034
v -10.088823 -56.251494 28.176049
v -10.088823 -57.651494 28.176049
v -10.050000 -56.251494 28.170938
v -10.050000 -57.651494 28.170938
v -10.011177 -56.251494 28.176049
v -10.011177 -57.651494 28.176049
v -9.975000 -56.251494 28.191034
v -9.975000 -57.651494 28.191034
v -9.943934 -56.251494 28.214872
v -9.943934 -57.651494 28.214872
v -9.920096 -56.251494 28.245938
v -9.920096 -57.651494 28.245938
v -9.905111 -56.251494 28.282115
v -9.905111 -57.651494 28.282115
v -9.900000 -56.251494 28.320938
v -6.400000 -57.651494 28.320938
v -6.405111 -56.251494 28.359761
v -6.400000 -56.251494 28.320938
v -6.405111 -57.651494 28.359761
v -6.420096 -56.251494 28.395938
v -6.420096 -57.651494 28.395938
v -6.443934 -56.251494 28.427004
v -6.443934 -57.651494 28.427004
v -6.475000 -56.251494 28.450842
v -6.475000 -57.651494 28.450842
v -6.511177 -56.251494 28.465827
v -6.511177 -57.651494 28.465827
v -6.549999 -56.251494 28.470938
v -6.549999 -57.651494 28.470938
v -6.588823 -56.251494 28.465827
v -6.588823 -57.651494 28.465827
v -6.625000 -56.251494 28.450842
v -6.625000 -57.651494 28.450842
v -6.656066 -56.251494 28.427004
v -6.656066 -57.651494 28.427004
v -6.679904 -56.251494 28.395938
v -6.679904 -57.651494 28.395938
v -6.694889 -56.251494 28.359761
v -6.694889 -57.651494 28.359761
v -6.700000 -56.251494 28.320938
v -6.700000 -57.651494 28.320938
v -6.694889 -56.251494 28.282115
v -6.694889 -57.651494 28.282115
v -6.679904 -56.251494 28.245938
v -6.679904 -57.651494 28.245938
v -6.656066 -56.251494 28.214872
v -6.656066 -57.651494 28.214872
v -6.625000 -56.251494 28.191034
v -6.625000 -57.651494 28.191034
v -6.588823 -56.251494 28.176049
v -6.588823 -57.651494 28.176049
v -6.549999 -56.251494 28.170938
v -6.549999 -57.651494 28.170938
v -6.511177 -56.251494 28.176049
v -6.511177 -57.651494 28.176049
v -6.475000 -56.251494 28.191034
v -6.475000 -57.651494 28.191034
v -6.443934 -56.251494 28.214872
v -6.443934 -57.651494 28.214872
v -6.420096 -56.251494 28.245938
v -6.420096 -57.651494 28.245938
v -6.405111 -56.251494 28.282115
v -6.405111 -57.651494 28.282115
v -6.400000 -56.251494 28.320938
v -11.650000 -57.651494 28.320938
v -11.655111 -56.251494 28.359761
v -11.650000 -56.251494 28.320938
v -11.655111 -57.651494 28.359761
v -11.670096 -56.251494 28.395938
v -11.670096 -57.651494 28.395938
v -11.693934 -56.251494 28.427004
v -11.693934 -57.651494 28.427004
v -11.725000 -56.251494 28.450842
v -11.725000 -57.651494 28.450842
v -11.761177 -56.251494 28.465827
v -11.761177 -57.651494 28.465827
v -11.799999 -56.251494 28.470938
v -11.799999 -57.651494 28.470938
v -11.838822 -56.251494 28.465827
v -11.838822 -57.651494 28.465827
v -11.875000 -56.251494 28.450842
v -11.875000 -57.651494 28.450842
v -11.906066 -56.251494 28.427004
v -11.906066 -57.651494 28.427004
v -11.929904 -56.251494 28.395938
v -11.929904 -57.651494 28.395938
v -11.944889 -56.251494 28.359761
v -11.944889 -57.651494 28.359761
v -11.950001 -56.251494 28.320938
v -11.950001 -57.651494 28.320938
v -11.944889 -56.251494 28.282115
v -11.944889 -57.651494 28.282115
v -11.929904 -56.251494 28.245938
v -11.929904 -57.651494 28.245938
v -11.906066 -56.251494 28.214872
v -11.906066 -57.651494 28.214872
v -11.875000 -56.251494 28.191034
v -11.875000 -57.651494 28.191034
v -11.838822 -56.251494 28.176049
v -11.838822 -57.651494 28.176049
v -11.799999 -56.251494 28.170938
v -11.799999 -57.651494 28.170938
v -11.761177 -56.251494 28.176049
v -11.761177 -57.651494 28.176049
v -11.725000 -56.251494 28.191034
v -11.725000 -57.651494 28.191034
v -11.693934 -56.251494 28.214872
v -11.693934 -57.651494 28.214872
v -11.670096 -56.251494 28.245938
v -11.670096 -57.651494 28.245938
v -11.655111 -56.251494 28.282115
v -11.655111 -57.651494 28.282115
v -11.650000 -56.251494 28.320938
v -2.350000 -57.251494 28.320938
v -2.269926 -56.251494 27.712713
v -2.350000 -56.251494 28.320938
v -2.269926 -57.251494 27.712713
v -2.035160 -56.251494 27.145938
v -2.035160 -57.251494 27.145938
v -1.661701 -56.251494 26.659237
v -1.661701 -57.251494 26.659237
v -1.175000 -56.251494 26.285778
v -1.175000 -57.251494 26.285778
v -0.608225 -56.251494 26.051012
v -0.608225 -57.251494 26.051012
v 0.000000 -56.251494 25.970938
v 0.000000 -57.251494 25.970938
v 0.608225 -56.251494 26.051012
v 0.608225 -57.251494 26.051012
v 1.175000 -56.251494 26.285778
v 1.175000 -57.251494 26.285778
v 1.661701 -56.251494 26.659237
v 1.661701 -57.251494 26.659237
v 2.035160 -56.251494 27.145938
v 2.035160 -57.251494 27.145938
v 2.269926 -56.251494 27.712713
v 2.269926 -57.251494 27.712713
v 2.350000 -56.251494 28.320938
v 2.350000 -57.251494 28.320938
v 2.269926 -56.251494 28.929163
v 2.269926 -57.251494 28.929163
v 2.035160 -56.251494 29.495938
v 2.035160 -57.251494 29.495938
v 1.661701 -56.251494 29.982639
v 1.661701 -57.251494 29.982639
v 1.175000 -56.251494 30.356098
v 1.175000 -57.251494 30.356098
v 0.608225 -56.251494 30.590864
v 0.608225 -57.251494 30.590864
v 0.000000 -56.251494 30.670938
v 0.000000 -57.251494 30.670938
v -0.608225 -56.251494 30.590864
v -0.608225 -57.251494 30.590864
v -1.175000 -56.251494 30.356098
v -1.175000 -57.251494 30.356098
v -1.661701 -56.251494 29.982639
v -1.661701 -57.251494 29.982639
v -2.035160 -56.251494 29.495938
v -2.035160 -57.251494 29.495938
v -2.269926 -56.251494 28.929163
v -2.269926 -57.251494 28.929163
v -2.350000 -56.251494 28.320938
v 1.200000 -57.251494 28.320938
v 2.269926 -57.251494 28.929163
v 2.350000 -57.251494 28.320938
v 2.269926 -57.251494 27.712713
v 1.159111 -57.251494 28.631521
v -2.300000 -57.951494 28.320938
v -2.221629 -59.951494 28.916222
v -2.300000 -59.951494 28.320938
v -2.221629 -57.951494 28.916222
v -1.991858 -59.951494 29.470938
v -1.991858 -57.951494 29.470938
v -1.626346 -59.951494 29.947284
v -1.626346 -57.951494 29.947284
v -1.150000 -59.951494 30.312797
v -1.150000 -57.951494 30.312797
v -0.595284 -59.951494 30.542568
v -0.595284 -57.951494 30.542568
v 0.000000 -59.951494 30.620938
v 0.000000 -57.951494 30.620938
v 0.595284 -59.951494 30.542568
v 0.595284 -57.951494 30.542568
v 1.150000 -59.951494 30.312797
v 1.150000 -57.951494 30.312797
v 1.626346 -59.951494 29.947284
v 1.626346 -57.951494 29.947284
v 1.991858 -59.951494 29.470938
v 1.991858 -57.951494 29.470938
v 2.221629 -59.951494 28.916222
v 2.221629 -57.951494 28.916222
v 2.300000 -59.951494 28.320938
v 2.300000 -57.951494 28.320938
v 2.221629 -59.951494 27.725654
v 2.221629 -57.951494 27.725654
v 1.991858 -59.951494 27.170938
v 1.991858 -57.951494 27.170938
v 1.626346 -59.951494 26.694592
v 1.626346 -57.951494 26.694592
v 1.150000 -59.951494 26.329080
v 1.150000 -57.951494 26.329080
v 0.595284 -59.951494 26.099309
v 0.595284 -57.951494 26.099309
v 0.000000 -59.951494 26.020938
v 0.000000 -57.951494 26.020938
v -0.595284 -59.951494 26.099309
v -0.595284 -57.951494 26.099309
v -1.150000 -59.951494 26.329080
v -1.150000 -57.951494 26.329080
v -1.626346 -59.951494 26.694592
v -1.626346 -57.951494 26.694592
v -1.991858 -59.951494 27.170938
v -1.991858 -57.951494 27.170938
v -2.221629 -59.951494 27.725654
v -2.221629 -57.951494 27.725654
v -2.300000 -59.951494 28.320938
v 1.200000 -57.951494 28.320938
v 2.221629 -57.951494 27.725654
v 2.300000 -57.951494 28.320938
v 2.221629 -57.951494 28.916222
v 1.159111 -57.951494 28.010355
v -13.616421 -56.251494 26.322041
v -1.661701 -56.251494 26.659237
v -2.509017 -56.251494 25.952957
v -14.588106 -56.251494 26.611454
v -10.050000 -56.251494 28.170938
v -8.299999 -56.251494 28.170938
v -14.120907 -56.251494 26.404153
v -14.987505 -56.251494 26.930406
v -15.293016 -56.251494 27.340177
v -11.799999 -56.251494 28.170938
v -15.484688 -56.251494 27.814003
v -13.550000 -56.251494 28.170938
v -13.616421 -56.251494 30.319835
v -1.661701 -56.251494 29.982639
v -2.035160 -56.251494 29.495938
v -8.299999 -56.251494 28.470938
v -14.588106 -56.251494 30.030422
v -14.120907 -56.251494 30.237723
v -10.050000 -56.251494 28.470938
v -13.616421 -57.651494 30.319835
v -8.299999 -57.651494 28.470938
v -3.020478 -57.651494 29.988035
v -2.509017 -57.651494 30.688919
v -14.588106 -57.651494 30.030422
v -11.799999 -57.651494 28.470938
v -14.120907 -57.651494 30.237723
v -14.987505 -57.651494 29.711470
v -11.838822 -57.651494 28.465827
v -15.293016 -57.651494 29.301700
v -13.550000 -57.651494 28.470938
v -15.484688 -57.651494 28.827873
v -13.656065 -57.651494 28.427004
v -13.625000 -57.651494 28.450842
v -13.588823 -57.651494 28.465827
v -15.549999 -57.651494 28.320938
v -13.656065 -57.651494 28.214872
v -13.679903 -57.651494 28.245938
v -13.694888 -57.651494 28.282115
v -13.700000 -57.651494 28.320938
v -13.694888 -57.651494 28.359761
v -13.679903 -57.651494 28.395938
v -15.484688 -57.651494 27.814003
v -13.625000 -57.651494 28.191034
v -14.588106 -57.651494 26.611454
v -13.616421 -57.651494 26.322041
v -11.799999 -57.651494 28.170938
v -14.120907 -57.651494 26.404153
v 4.650000 -57.651494 28.320938
v 8.150000 -57.651494 28.320938
v 13.400000 -57.651494 28.320938
v 9.900000 -57.651494 28.320938
v 6.400000 -57.651494 28.320938
v 11.650000 -57.651494 28.320938
v 4.655111 -57.651494 28.282115
v 4.875000 -57.651494 28.450842
v 6.475000 -57.651494 28.450842
v 8.299999 -57.651494 28.470938
v 4.906066 -57.651494 28.427004
v 6.443934 -57.651494 28.427004
v 6.420096 -57.651494 28.395938
v 4.929904 -57.651494 28.395938
v 6.405111 -57.651494 28.359761
v 4.944889 -57.651494 28.359761
v 6.400000 -57.651494 28.320938
v 4.950000 -57.651494 28.320938
v 4.944889 -57.651494 28.282115
v 6.405111 -57.651494 28.282115
v 4.929904 -57.651494 28.245938
v 6.420096 -57.651494 28.245938
v 4.906066 -57.651494 28.214872
v 6.443934 -57.651494 28.214872
v 6.475000 -57.651494 28.191034
v 4.875000 -57.651494 28.191034
v 8.155111 -57.651494 28.359761
v 6.694889 -57.651494 28.359761
v 8.150000 -57.651494 28.320938
v 6.679904 -57.651494 28.395938
v 6.700000 -57.651494 28.320938
v 6.694889 -57.651494 28.282115
v 8.155111 -57.651494 28.282115
v 8.170096 -57.651494 28.395938
v 6.656066 -57.651494 28.427004
v 8.193934 -57.651494 28.427004
v 6.625000 -57.651494 28.450842
v 8.224999 -57.651494 28.450842
v 8.261177 -57.651494 28.465827
v 6.588823 -57.651494 28.465827
v 8.338822 -57.651494 28.465827
v 9.975000 -57.651494 28.450842
v 10.011177 -57.651494 28.465827
v 8.374999 -57.651494 28.450842
v 9.943934 -57.651494 28.427004
v 8.406066 -57.651494 28.427004
v 9.920096 -57.651494 28.395938
v 8.429904 -57.651494 28.395938
v 9.905111 -57.651494 28.359761
v 8.444889 -57.651494 28.359761
v 9.900000 -57.651494 28.320938
v 8.450000 -57.651494 28.320938
v 8.444889 -57.651494 28.282115
v 9.905111 -57.651494 28.282115
v 8.429904 -57.651494 28.245938
v 9.920096 -57.651494 28.245938
v 8.406066 -57.651494 28.214872
v 9.943934 -57.651494 28.214872
v 8.374999 -57.651494 28.191034
v 9.975000 -57.651494 28.191034
v 8.338822 -57.651494 28.176049
v 10.011177 -57.651494 28.176049
v 10.050000 -57.651494 28.170938
v 8.299999 -57.651494 28.170938
v 6.588823 -57.651494 28.176049
v 2.509017 -57.651494 25.952957
v 8.261177 -57.651494 28.176049
v 6.625000 -57.651494 28.191034
v 8.224999 -57.651494 28.191034
v 8.193934 -57.651494 28.214872
v 6.656066 -57.651494 28.214872
v 8.170096 -57.651494 28.245938
v 6.679904 -57.651494 28.245938
v 13.405110 -57.651494 28.359761
v 11.944889 -57.651494 28.359761
v 13.400000 -57.651494 28.320938
v 11.929904 -57.651494 28.395938
v 11.950001 -57.651494 28.320938
v 11.944889 -57.651494 28.282115
v 13.405110 -57.651494 28.282115
v 13.420097 -57.651494 28.395938
v 11.906066 -57.651494 28.427004
v 13.443933 -57.651494 28.427004
v 11.875000 -57.651494 28.450842
v 13.475000 -57.651494 28.450842
v 11.838822 -57.651494 28.465827
v 13.511177 -57.651494 28.465827
v 13.550000 -57.651494 28.470938
v 15.293016 -57.651494 29.301700
v 13.588823 -57.651494 28.465827
v 14.987505 -57.651494 29.711470
v 10.088823 -57.651494 28.465827
v 11.761177 -57.651494 28.465827
v 13.511177 -57.651494 28.176049
v 13.475000 -57.651494 28.191034
v 11.875000 -57.651494 28.191034
v 10.088823 -57.651494 28.176049
v 13.443933 -57.651494 28.214872
v 11.906066 -57.651494 28.214872
v 13.420097 -57.651494 28.245938
v 11.929904 -57.651494 28.245938
v 11.725000 -57.651494 28.450842
v 10.125000 -57.651494 28.450842
v 11.693934 -57.651494 28.427004
v 10.156066 -57.651494 28.427004
v 11.670096 -57.651494 28.395938
v 10.179903 -57.651494 28.395938
v 11.655111 -57.651494 28.359761
v 10.194889 -57.651494 28.359761
v 11.650000 -57.651494 28.320938
v 10.200000 -57.651494 28.320938
v 10.194889 -57.651494 28.282115
v 11.655111 -57.651494 28.282115
v 10.179903 -57.651494 28.245938
v 11.670096 -57.651494 28.245938
v 10.156066 -57.651494 28.214872
v 11.693934 -57.651494 28.214872
v 10.125000 -57.651494 28.191034
v 11.725000 -57.651494 28.191034
v 11.761177 -57.651494 28.176049
v 2.509017 -57.651494 30.688919
v 13.616421 -57.651494 26.322041
v 13.616421 -56.251494 26.322041
v 14.120907 -57.651494 26.404153
v 14.120907 -56.251494 26.404153
v 14.588106 -57.651494 26.611454
v 14.588106 -56.251494 26.611454
v 14.987505 -57.651494 26.930406
v 14.987505 -56.251494 26.930406
v 15.293016 -57.651494 27.340177
v 15.293016 -56.251494 27.340177
v 15.484688 -57.651494 27.814003
v 15.484688 -56.251494 27.814003
v 15.549999 -57.651494 28.320938
v 15.549999 -56.251494 28.320938
v 15.484688 -57.651494 28.827873
v 15.484688 -56.251494 28.827873
v 15.293016 -57.651494 29.301700
v 15.293016 -56.251494 29.301700
v 14.987505 -57.651494 29.711470
v 14.987505 -56.251494 29.711470
v 14.588106 -57.651494 30.030422
v 14.588106 -56.251494 30.030422
v 14.120907 -57.651494 30.237723
v 14.120907 -56.251494 30.237723
v 13.616421 -57.651494 30.319835
v 13.616421 -56.251494 30.319835
v 3.450000 -59.951494 28.320938
v 3.450000 -57.651494 28.320938
v -4.650000 -57.651494 28.320938
v -8.150000 -57.651494 28.320938
v -13.400000 -57.651494 28.320938
v -9.900000 -57.651494 28.320938
v -6.400000 -57.651494 28.320938
v -11.650000 -57.651494 28.320938
v -2.350000 -57.251494 28.320938
v 2.035160 -57.251494 29.495938
v 1.159111 -57.251494 28.010355
v 1.039230 -57.251494 28.920938
v 1.661701 -57.251494 29.982639
v 0.848528 -57.251494 29.169466
v 1.175000 -57.251494 30.356098
v 0.600000 -57.251494 29.360169
v 0.608225 -57.251494 30.590864
v 0.310583 -57.251494 29.480049
v 0.000000 -57.251494 30.670938
v 0.000000 -57.251494 29.520938
v -0.310583 -57.251494 29.480049
v -0.608225 -57.251494 30.590864
v -0.600000 -57.251494 29.360169
v -1.175000 -57.251494 30.356098
v -0.848528 -57.251494 29.169466
v -1.661701 -57.251494 29.982639
v -1.039230 -57.251494 28.920938
v -2.035160 -57.251494 29.495938
v -1.159111 -57.251494 28.631521
v -2.269926 -57.251494 28.929163
v -1.200000 -57.251494 28.320938
v -2.350000 -57.251494 28.320938
v -2.269926 -57.251494 27.712713
v -1.159111 -57.251494 28.010355
v -2.035160 -57.251494 27.145938
v -1.039230 -57.251494 27.720938
v -1.661701 -57.251494 26.659237
v -0.848528 -57.251494 27.472410
v -1.175000 -57.251494 26.285778
v -0.600000 -57.251494 27.281708
v -0.608225 -57.251494 26.051012
v -0.310583 -57.251494 27.161827
v 0.000000 -57.251494 25.970938
v 0.000000 -57.251494 27.120938
v 0.608225 -57.251494 26.051012
v 0.310583 -57.251494 27.161827
v 0.600000 -57.251494 27.281708
v 1.175000 -57.251494 26.285778
v 0.848528 -57.251494 27.472410
v 1.661701 -57.251494 26.659237
v 1.039230 -57.251494 27.720938
v 2.035160 -57.251494 27.145938
v -2.300000 -57.951494 28.320938
v 1.991858 -57.951494 27.170938
v 1.159111 -57.951494 28.631521
v 1.039230 -57.951494 27.720938
v 1.626346 -57.951494 26.694592
v 0.848528 -57.951494 27.472410
v 1.150000 -57.951494 26.329080
v 0.600000 -57.951494 27.281708
v 0.595284 -57.951494 26.099309
v 0.310583 -57.951494 27.161827
v 0.000000 -57.951494 26.020938
v 0.000000 -57.951494 27.120938
v -0.310583 -57.951494 27.161827
v -0.595284 -57.951494 26.099309
v -0.600000 -57.951494 27.281708
v -1.150000 -57.951494 26.329080
v -0.848528 -57.951494 27.472410
v -1.626346 -57.951494 26.694592
v -1.039230 -57.951494 27.720938
v -1.991858 -57.951494 27.170938
v -1.159111 -57.951494 28.010355
v -2.221629 -57.951494 27.725654
v -1.200000 -57.951494 28.320938
v -2.300000 -57.951494 28.320938
v -2.221629 -57.951494 28.916222
v -1.159111 -57.951494 28.631521
v -1.991858 -57.951494 29.470938
v -1.039230 -57.951494 28.920938
v -1.626346 -57.951494 29.947284
v -0.848528 -57.951494 29.169466
v -1.150000 -57.951494 30.312797
v -0.600000 -57.951494 29.360169
v -0.595284 -57.951494 30.542568
v -0.310583 -57.951494 29.480049
v 0.000000 -57.951494 30.620938
v 0.000000 -57.951494 29.520938
v 0.595284 -57.951494 30.542568
v 0.310583 -57.951494 29.480049
v 0.600000 -57.951494 29.360169
v 1.150000 -57.951494 30.312797
v 0.848528 -57.951494 29.169466
v 1.626346 -57.951494 29.947284
v 1.039230 -57.951494 28.920938
v 1.991858 -57.951494 29.470938
v -1.159111 -57.251494 28.631521
v -1.159111 -57.951494 28.631521
v -1.200000 -57.251494 28.320938
v -1.039230 -57.951494 28.920938
v -1.200000 -57.951494 28.320938
v -1.200000 -57.251494 28.320938
v -1.200000 -57.951494 28.320938
v -1.159111 -57.251494 28.010355
v -1.159111 -57.951494 28.010355
v -1.039230 -57.251494 27.720938
v -1.039230 -57.951494 27.720938
v -0.848528 -57.251494 27.472410
v -0.848528 -57.951494 27.472410
v -0.600000 -57.251494 27.281708
v -0.600000 -57.951494 27.281708
v -0.310583 -57.251494 27.161827
v -0.310583 -57.951494 27.161827
v 0.000000 -57.251494 27.120938
v 0.000000 -57.951494 27.120938
v 0.310583 -57.251494 27.161827
v 0.310583 -57.951494 27.161827
v 0.600000 -57.251494 27.281708
v 0.600000 -57.951494 27.281708
v 0.848528 -57.251494 27.472410
v 0.848528 -57.951494 27.472410
v 1.039230 -57.251494 27.720938
v 1.039230 -57.951494 27.720938
v 1.159111 -57.251494 28.010355
v 1.159111 -57.951494 28.010355
v 1.200000 -57.251494 28.320938
v 1.200000 -57.951494 28.320938
v 1.159111 -57.251494 28.631521
v 1.159111 -57.951494 28.631521
v 1.039230 -57.251494 28.920938
v 1.039230 -57.951494 28.920938
v 0.848528 -57.251494 29.169466
v 0.848528 -57.951494 29.169466
v 0.600000 -57.251494 29.360169
v 0.600000 -57.951494 29.360169
v 0.310583 -57.251494 29.480049
v 0.310583 -57.951494 29.480049
v 0.000000 -57.251494 29.520938
v 0.000000 -57.951494 29.520938
v -0.310583 -57.251494 29.480049
v -0.310583 -57.951494 29.480049
v -0.600000 -57.251494 29.360169
v -0.600000 -57.951494 29.360169
v -0.848528 -57.251494 29.169466
v -0.848528 -57.951494 29.169466
v -1.039230 -57.251494 28.920938
v -2.221629 -59.951494 28.916222
v -3.332444 -59.951494 29.213864
v -2.300000 -59.951494 28.320938
v -2.987788 -59.951494 30.045938
v -3.450000 -59.951494 28.320938
v -3.332444 -59.951494 27.428012
v -2.221629 -59.951494 27.725654
v -1.991858 -59.951494 29.470938
v -2.439518 -59.951494 30.760456
v -1.626346 -59.951494 29.947284
v -1.725000 -59.951494 31.308726
v -1.150000 -59.951494 30.312797
v -0.892926 -59.951494 31.653382
v -0.595284 -59.951494 30.542568
v 0.000000 -59.951494 31.770938
v 0.000000 -59.951494 30.620938
v 0.892926 -59.951494 31.653382
v 0.595284 -59.951494 30.542568
v 1.150000 -59.951494 30.312797
v 1.725000 -59.951494 31.308726
v 1.626346 -59.951494 29.947284
v 2.439518 -59.951494 30.760456
v 1.991858 -59.951494 29.470938
v 2.987788 -59.951494 30.045938
v 2.221629 -59.951494 28.916222
v 3.332444 -59.951494 29.213864
v 2.300000 -59.951494 28.320938
v 3.450000 -59.951494 28.320938
v 3.332444 -59.951494 27.428012
v 2.221629 -59.951494 27.725654
v 2.987788 -59.951494 26.595938
v 1.991858 -59.951494 27.170938
v 2.439518 -59.951494 25.881420
v 1.626346 -59.951494 26.694592
v 1.725000 -59.951494 25.333150
v 1.150000 -59.951494 26.329080
v 0.892926 -59.951494 24.988494
v 0.595284 -59.951494 26.099309
v 0.000000 -59.951494 24.870938
v 0.000000 -59.951494 26.020938
v -0.595284 -59.951494 26.099309
v -0.892926 -59.951494 24.988494
v -1.150000 -59.951494 26.329080
v -1.725000 -59.951494 25.333150
v -1.626346 -59.951494 26.694592
v -2.439518 -59.951494 25.881420
v -1.991858 -59.951494 27.170938
v -2.987788 -59.951494 26.595938
v 4.944889 -56.251494 28.359761
v 6.405111 -56.251494 28.359761
v 4.950000 -56.251494 28.320938
v 6.420096 -56.251494 28.395938
v 6.400000 -56.251494 28.320938
v 6.405111 -56.251494 28.282115
v 4.944889 -56.251494 28.282115
v 4.929904 -56.251494 28.395938
v 6.443934 -56.251494 28.427004
v 4.906066 -56.251494 28.427004
v 6.475000 -56.251494 28.450842
v 4.875000 -56.251494 28.450842
v 6.511177 -56.251494 28.465827
v 4.838823 -56.251494 28.465827
v 4.800000 -56.251494 28.470938
v 2.269926 -56.251494 28.929163
v 2.035160 -56.251494 29.495938
v 6.549999 -56.251494 28.470938
v 4.761177 -56.251494 28.465827
v 4.725000 -56.251494 28.450842
v 2.350000 -56.251494 28.320938
v 8.299999 -56.251494 28.470938
v 8.261177 -56.251494 28.465827
v 13.616421 -56.251494 30.319835
v 6.625000 -56.251494 28.450842
v 6.588823 -56.251494 28.465827
v 4.693934 -56.251494 28.427004
v 4.670096 -56.251494 28.395938
v 4.655111 -56.251494 28.359761
v 4.650000 -56.251494 28.320938
v 4.655111 -56.251494 28.282115
v 4.670096 -56.251494 28.245938
v 4.693934 -56.251494 28.214872
v 4.725000 -56.251494 28.191034
v 2.269926 -56.251494 27.712713
v 4.761177 -56.251494 28.176049
v 4.800000 -56.251494 28.170938
v 6.511177 -56.251494 28.176049
v 6.549999 -56.251494 28.170938
v 2.035160 -56.251494 27.145938
v 4.838823 -56.251494 28.176049
v 4.875000 -56.251494 28.191034
v 6.475000 -56.251494 28.191034
v 8.261177 -56.251494 28.176049
v 8.299999 -56.251494 28.170938
v 13.616421 -56.251494 26.322041
v 10.050000 -56.251494 28.170938
v 14.588106 -56.251494 26.611454
v 1.661701 -56.251494 26.659237
v 10.011177 -56.251494 28.176049
v 14.987505 -56.251494 26.930406
v 14.120907 -56.251494 26.404153
v 11.799999 -56.251494 28.170938
v 15.293016 -56.251494 27.340177
v 13.511177 -56.251494 28.176049
v 13.550000 -56.251494 28.170938
v 11.761177 -56.251494 28.176049
v 15.484688 -56.251494 27.814003
v 13.588823 -56.251494 28.176049
v 13.625000 -56.251494 28.191034
v 15.549999 -56.251494 28.320938
v 4.906066 -56.251494 28.214872
v 6.443934 -56.251494 28.214872
v 4.929904 -56.251494 28.245938
v 6.420096 -56.251494 28.245938
v 8.444889 -56.251494 28.359761
v 9.905111 -56.251494 28.359761
v 8.450000 -56.251494 28.320938
v 9.920096 -56.251494 28.395938
v 9.900000 -56.251494 28.320938
v 9.905111 -56.251494 28.282115
v 8.444889 -56.251494 28.282115
v 8.429904 -56.251494 28.395938
v 9.943934 -56.251494 28.427004
v 8.406066 -56.251494 28.427004
v 9.975000 -56.251494 28.450842
v 8.374999 -56.251494 28.450842
v 8.338822 -56.251494 28.465827
v 10.011177 -56.251494 28.465827
v 10.050000 -56.251494 28.470938
v 14.588106 -56.251494 30.030422
v 1.661701 -56.251494 29.982639
v 2.509017 -56.251494 30.688919
v 14.120907 -56.251494 30.237723
v 14.987505 -56.251494 29.711470
v 8.224999 -56.251494 28.450842
v 6.656066 -56.251494 28.427004
v 8.193934 -56.251494 28.427004
v 6.679904 -56.251494 28.395938
v 8.170096 -56.251494 28.395938
v 6.694889 -56.251494 28.359761
v 8.155111 -56.251494 28.359761
v 6.700000 -56.251494 28.320938
v 8.150000 -56.251494 28.320938
v 8.155111 -56.251494 28.282115
v 6.694889 -56.251494 28.282115
v 8.170096 -56.251494 28.245938
v 6.679904 -56.251494 28.245938
v 8.193934 -56.251494 28.214872
v 6.656066 -56.251494 28.214872
v 8.224999 -56.251494 28.191034
v 6.625000 -56.251494 28.191034
v 6.588823 -56.251494 28.176049
v 8.338822 -56.251494 28.176049
v 9.975000 -56.251494 28.191034
v 8.374999 -56.251494 28.191034
v 8.406066 -56.251494 28.214872
v 9.943934 -56.251494 28.214872
v 8.429904 -56.251494 28.245938
v 9.920096 -56.251494 28.245938
v 13.694888 -56.251494 28.282115
v 13.700000 -56.251494 28.320938
v 13.694888 -56.251494 28.359761
v 13.679903 -56.251494 28.395938
v 13.656065 -56.251494 28.427004
v 13.625000 -56.251494 28.450842
v 15.484688 -56.251494 28.827873
v 13.656065 -56.251494 28.214872
v 13.679903 -56.251494 28.245938
v 13.588823 -56.251494 28.465827
v 13.550000 -56.251494 28.470938
v 11.799999 -56.251494 28.470938
v 15.293016 -56.251494 29.301700
v 13.511177 -56.251494 28.465827
v 11.838822 -56.251494 28.465827
v 13.475000 -56.251494 28.450842
v 11.875000 -56.251494 28.450842
v 13.443933 -56.251494 28.427004
v 11.906066 -56.251494 28.427004
v 13.420097 -56.251494 28.395938
v 11.929904 -56.251494 28.395938
v 13.405110 -56.251494 28.359761
v 11.944889 -56.251494 28.359761
v 13.400000 -56.251494 28.320938
v 11.950001 -56.251494 28.320938
v 11.944889 -56.251494 28.282115
v 13.405110 -56.251494 28.282115
v 11.929904 -56.251494 28.245938
v 13.420097 -56.251494 28.245938
v 11.906066 -56.251494 28.214872
v 13.443933 -56.251494 28.214872
v 11.875000 -56.251494 28.191034
v 13.475000 -56.251494 28.191034
v 11.838822 -56.251494 28.176049
v 10.194889 -56.251494 28.359761
v 11.655111 -56.251494 28.359761
v 10.200000 -56.251494 28.320938
v 11.670096 -56.251494 28.395938
v 11.650000 -56.251494 28.320938
v 11.655111 -56.251494 28.282115
v 10.194889 -56.251494 28.282115
v 10.179903 -56.251494 28.395938
v 11.693934 -56.251494 28.427004
v 10.156066 -56.251494 28.427004
v 10.125000 -56.251494 28.450842
v 11.725000 -56.251494 28.450842
v 10.088823 -56.251494 28.465827
v 11.761177 -56.251494 28.465827
v 10.088823 -56.251494 28.176049
v 11.725000 -56.251494 28.191034
v 10.125000 -56.251494 28.191034
v 11.693934 -56.251494 28.214872
v 10.156066 -56.251494 28.214872
v 10.179903 -56.251494 28.245938
v 11.670096 -56.251494 28.245938
v -2.269926 -56.251494 27.712713
v -4.725000 -56.251494 28.191034
v -2.350000 -56.251494 28.320938
v -4.800000 -56.251494 28.170938
v -4.761177 -56.251494 28.176049
v -4.693934 -56.251494 28.214872
v -4.670096 -56.251494 28.245938
v -2.035160 -56.251494 27.145938
v -6.549999 -56.251494 28.170938
v -8.338822 -56.251494 28.176049
v -6.588823 -56.251494 28.176049
v -4.838823 -56.251494 28.176049
v -8.261177 -56.251494 28.176049
v -6.625000 -56.251494 28.191034
v -8.224999 -56.251494 28.191034
v -8.193934 -56.251494 28.214872
v -6.656066 -56.251494 28.214872
v -1.175000 -56.251494 26.285778
v -0.608225 -56.251494 26.051012
v -1.895439 -56.251494 25.438264
v 0.000000 -56.251494 25.970938
v 1.895439 -56.251494 25.438264
v 1.179722 -56.251494 25.078908
v -1.179722 -56.251494 25.078908
v 0.608225 -56.251494 26.051012
v 2.509017 -56.251494 25.952957
v 1.175000 -56.251494 26.285778
v 1.175000 -56.251494 30.356098
v 0.608225 -56.251494 30.590864
v 1.895439 -56.251494 31.203612
v 0.000000 -56.251494 30.670938
v -1.895439 -56.251494 31.203612
v 1.179722 -56.251494 31.562968
v -0.608225 -56.251494 30.590864
v -2.509017 -56.251494 30.688919
v -1.175000 -56.251494 30.356098
v -6.549999 -56.251494 28.470938
v -6.588823 -56.251494 28.465827
v -4.800000 -56.251494 28.470938
v -4.838823 -56.251494 28.465827
v -6.511177 -56.251494 28.465827
v -8.261177 -56.251494 28.465827
v -2.269926 -56.251494 28.929163
v -4.761177 -56.251494 28.465827
v -4.725000 -56.251494 28.450842
v -4.693934 -56.251494 28.427004
v -4.670096 -56.251494 28.395938
v -4.655111 -56.251494 28.359761
v -4.650000 -56.251494 28.320938
v -4.655111 -56.251494 28.282115
v -10.088823 -56.251494 28.176049
v -10.011177 -56.251494 28.176049
v -9.975000 -56.251494 28.191034
v -8.374999 -56.251494 28.191034
v -11.838822 -56.251494 28.176049
v -11.761177 -56.251494 28.176049
v -11.725000 -56.251494 28.191034
v -10.125000 -56.251494 28.191034
v -13.588823 -56.251494 28.176049
v -13.511177 -56.251494 28.176049
v -13.475000 -56.251494 28.191034
v -11.875000 -56.251494 28.191034
v -13.625000 -56.251494 28.191034
v -15.549999 -56.251494 28.320938
v -13.656065 -56.251494 28.214872
v -13.679903 -56.251494 28.245938
v -13.694888 -56.251494 28.282115
v -13.700000 -56.251494 28.320938
v -13.694888 -56.251494 28.359761
v -13.679903 -56.251494 28.395938
v -13.656065 -56.251494 28.427004
v -13.625000 -56.251494 28.450842
v -15.484688 -56.251494 28.827873
v -13.588823 -56.251494 28.465827
v -13.550000 -56.251494 28.470938
v -15.293016 -56.251494 29.301700
v -11.799999 -56.251494 28.470938
v -14.987505 -56.251494 29.711470
v -10.088823 -56.251494 28.465827
v -11.761177 -56.251494 28.465827
v -11.838822 -56.251494 28.465827
v -8.338822 -56.251494 28.465827
v -10.011177 -56.251494 28.465827
v -1.179722 -56.251494 31.562968
v 0.400433 -56.251494 31.747621
v -0.400433 -56.251494 31.747621
v 0.400433 -56.251494 24.894255
v -0.400433 -56.251494 24.894255
v -4.944889 -56.251494 28.359761
v -4.950000 -56.251494 28.320938
v -6.400000 -56.251494 28.320938
v -4.944889 -56.251494 28.282115
v -6.405111 -56.251494 28.282115
v -4.929904 -56.251494 28.245938
v -6.420096 -56.251494 28.245938
v -4.906066 -56.251494 28.214872
v -6.443934 -56.251494 28.214872
v -6.475000 -56.251494 28.191034
v -4.875000 -56.251494 28.191034
v -6.511177 -56.251494 28.176049
v -4.875000 -56.251494 28.450842
v -6.475000 -56.251494 28.450842
v -4.906066 -56.251494 28.427004
v -6.443934 -56.251494 28.427004
v -6.420096 -56.251494 28.395938
v -4.929904 -56.251494 28.395938
v -6.405111 -56.251494 28.359761
v -8.444889 -56.251494 28.359761
v -8.450000 -56.251494 28.320938
v -9.900000 -56.251494 28.320938
v -8.444889 -56.251494 28.282115
v -9.905111 -56.251494 28.282115
v -8.429904 -56.251494 28.245938
v -9.920096 -56.251494 28.245938
v -8.406066 -56.251494 28.214872
v -9.943934 -56.251494 28.214872
v -8.170096 -56.251494 28.245938
v -6.679904 -56.251494 28.245938
v -8.155111 -56.251494 28.282115
v -6.694889 -56.251494 28.282115
v -8.150000 -56.251494 28.320938
v -6.700000 -56.251494 28.320938
v -6.694889 -56.251494 28.359761
v -8.155111 -56.251494 28.359761
v -6.679904 -56.251494 28.395938
v -8.170096 -56.251494 28.395938
v -6.656066 -56.251494 28.427004
v -8.193934 -56.251494 28.427004
v -6.625000 -56.251494 28.450842
v -8.224999 -56.251494 28.450842
v -9.975000 -56.251494 28.450842
v -8.374999 -56.251494 28.450842
v -9.943934 -56.251494 28.427004
v -8.406066 -56.251494 28.427004
v -9.920096 -56.251494 28.395938
v -8.429904 -56.251494 28.395938
v -9.905111 -56.251494 28.359761
v -13.443933 -56.251494 28.214872
v -11.906066 -56.251494 28.214872
v -13.420097 -56.251494 28.245938
v -11.929904 -56.251494 28.245938
v -13.405110 -56.251494 28.282115
v -11.944889 -56.251494 28.282115
v -13.400000 -56.251494 28.320938
v -11.950001 -56.251494 28.320938
v -11.944889 -56.251494 28.359761
v -13.405110 -56.251494 28.359761
v -11.929904 -56.251494 28.395938
v -13.420097 -56.251494 28.395938
v -11.906066 -56.251494 28.427004
v -13.443933 -56.251494 28.427004
v -11.875000 -56.251494 28.450842
v -13.475000 -56.251494 28.450842
v -13.511177 -56.251494 28.465827
v -10.194889 -56.251494 28.359761
v -10.200000 -56.251494 28.320938
v -11.650000 -56.251494 28.320938
v -10.194889 -56.251494 28.282115
v -11.655111 -56.251494 28.282115
v -10.179903 -56.251494 28.245938
v -11.670096 -56.251494 28.245938
v -10.156066 -56.251494 28.214872
v -11.693934 -56.251494 28.214872
v -11.725000 -56.251494 28.450842
v -10.125000 -56.251494 28.450842
v -11.693934 -56.251494 28.427004
v -10.156066 -56.251494 28.427004
v -11.670096 -56.251494 28.395938
v -10.179903 -56.251494 28.395938
v -11.655111 -56.251494 28.359761
v -2.509017 -57.651494 25.952957
v -13.616421 -57.651494 26.322041
v -2.509017 -56.251494 25.952957
v -13.616421 -56.251494 26.322041
v -4.655111 -57.651494 28.359761
v -4.650000 -57.651494 28.320938
v -3.450000 -57.651494 28.320938
v -4.655111 -57.651494 28.282115
v -4.670096 -57.651494 28.245938
v -4.693934 -57.651494 28.214872
v -4.725000 -57.651494 28.191034
v -3.340894 -57.651494 27.460168
v -4.725000 -57.651494 28.450842
v -4.693934 -57.651494 28.427004
v -4.670096 -57.651494 28.395938
v -4.761177 -57.651494 28.176049
v -4.800000 -57.651494 28.170938
v -4.838823 -57.651494 28.176049
v -6.511177 -57.651494 28.176049
v -6.549999 -57.651494 28.170938
v -4.875000 -57.651494 28.191034
v -6.475000 -57.651494 28.191034
v -8.299999 -57.651494 28.170938
v -3.020478 -57.651494 26.653841
v -4.906066 -57.651494 28.214872
v -6.443934 -57.651494 28.214872
v -6.420096 -57.651494 28.245938
v -4.929904 -57.651494 28.245938
v -6.405111 -57.651494 28.282115
v -4.944889 -57.651494 28.282115
v -6.400000 -57.651494 28.320938
v -4.950000 -57.651494 28.320938
v -4.944889 -57.651494 28.359761
v -6.405111 -57.651494 28.359761
v -4.929904 -57.651494 28.395938
v -6.420096 -57.651494 28.395938
v -4.906066 -57.651494 28.427004
v -6.443934 -57.651494 28.427004
v -6.475000 -57.651494 28.450842
v -4.875000 -57.651494 28.450842
v -6.511177 -57.651494 28.465827
v -4.838823 -57.651494 28.465827
v -3.340894 -57.651494 29.181709
v -4.800000 -57.651494 28.470938
v -4.761177 -57.651494 28.465827
v -6.549999 -57.651494 28.470938
v -8.155111 -57.651494 28.282115
v -6.694889 -57.651494 28.282115
v -8.150000 -57.651494 28.320938
v -6.679904 -57.651494 28.245938
v -6.700000 -57.651494 28.320938
v -6.694889 -57.651494 28.359761
v -8.155111 -57.651494 28.359761
v -8.170096 -57.651494 28.245938
v -6.656066 -57.651494 28.214872
v -8.193934 -57.651494 28.214872
v -6.625000 -57.651494 28.191034
v -8.224999 -57.651494 28.191034
v -8.261177 -57.651494 28.176049
v -6.588823 -57.651494 28.176049
v -10.050000 -57.651494 28.170938
v -2.509017 -57.651494 25.952957
v -8.338822 -57.651494 28.176049
v -9.975000 -57.651494 28.191034
v -10.011177 -57.651494 28.176049
v -8.374999 -57.651494 28.191034
v -9.943934 -57.651494 28.214872
v -8.406066 -57.651494 28.214872
v -9.920096 -57.651494 28.245938
v -8.429904 -57.651494 28.245938
v -9.905111 -57.651494 28.282115
v -8.444889 -57.651494 28.282115
v -9.900000 -57.651494 28.320938
v -8.450000 -57.651494 28.320938
v -8.444889 -57.651494 28.359761
v -9.905111 -57.651494 28.359761
v -8.429904 -57.651494 28.395938
v -9.920096 -57.651494 28.395938
v -8.406066 -57.651494 28.427004
v -9.943934 -57.651494 28.427004
v -8.374999 -57.651494 28.450842
v -9.975000 -57.651494 28.450842
v -8.338822 -57.651494 28.465827
v -10.011177 -57.651494 28.465827
v -10.050000 -57.651494 28.470938
v -6.588823 -57.651494 28.465827
v -8.261177 -57.651494 28.465827
v -6.625000 -57.651494 28.450842
v -8.224999 -57.651494 28.450842
v -8.193934 -57.651494 28.427004
v -6.656066 -57.651494 28.427004
v -8.170096 -57.651494 28.395938
v -6.679904 -57.651494 28.395938
v -13.405110 -57.651494 28.282115
v -11.944889 -57.651494 28.282115
v -13.400000 -57.651494 28.320938
v -11.929904 -57.651494 28.245938
v -11.950001 -57.651494 28.320938
v -11.944889 -57.651494 28.359761
v -13.405110 -57.651494 28.359761
v -13.420097 -57.651494 28.245938
v -11.906066 -57.651494 28.214872
v -13.443933 -57.651494 28.214872
v -11.875000 -57.651494 28.191034
v -13.475000 -57.651494 28.191034
v -11.838822 -57.651494 28.176049
v -13.511177 -57.651494 28.176049
v -13.550000 -57.651494 28.170938
v -15.293016 -57.651494 27.340177
v -13.588823 -57.651494 28.176049
v -14.987505 -57.651494 26.930406
v -10.088823 -57.651494 28.176049
v -11.761177 -57.651494 28.176049
v -13.511177 -57.651494 28.465827
v -13.475000 -57.651494 28.450842
v -11.875000 -57.651494 28.450842
v -10.088823 -57.651494 28.465827
v -13.443933 -57.651494 28.427004
v -11.906066 -57.651494 28.427004
v -13.420097 -57.651494 28.395938
v -11.929904 -57.651494 28.395938
v -11.725000 -57.651494 28.191034
v -10.125000 -57.651494 28.191034
v -11.693934 -57.651494 28.214872
v -10.156066 -57.651494 28.214872
v -11.670096 -57.651494 28.245938
v -10.179903 -57.651494 28.245938
v -11.655111 -57.651494 28.282115
v -10.194889 -57.651494 28.282115
v -11.650000 -57.651494 28.320938
v -10.200000 -57.651494 28.320938
v -10.194889 -57.651494 28.359761
v -11.655111 -57.651494 28.359761
v -10.179903 -57.651494 28.395938
v -11.670096 -57.651494 28.395938
v -10.156066 -57.651494 28.427004
v -11.693934 -57.651494 28.427004
v -10.125000 -57.651494 28.450842
v -11.725000 -57.651494 28.450842
v -11.761177 -57.651494 28.465827
v -2.509017 -56.251494 30.688919
v -13.616421 -56.251494 30.319835
v -2.509017 -57.651494 30.688919
v -13.616421 -57.651494 30.319835
v -13.616421 -57.651494 30.319835
v -13.616421 -56.251494 30.319835
v -14.120907 -57.651494 30.237723
v -14.120907 -56.251494 30.237723
v -14.588106 -57.651494 30.030422
v -14.588106 -56.251494 30.030422
v -14.987505 -57.651494 29.711470
v -14.987505 -56.251494 29.711470
v -15.293016 -57.651494 29.301700
v -15.293016 -56.251494 29.301700
v -15.484688 -57.651494 28.827873
v -15.484688 -56.251494 28.827873
v -15.549999 -57.651494 28.320938
v -15.549999 -56.251494 28.320938
v -15.484688 -57.651494 27.814003
v -15.484688 -56.251494 27.814003
v -15.293016 -57.651494 27.340177
v -15.293016 -56.251494 27.340177
v -14.987505 -57.651494 26.930406
v -14.987505 -56.251494 26.930406
v -14.588106 -57.651494 26.611454
v -14.588106 -56.251494 26.611454
v -14.120907 -57.651494 26.404153
v -14.120907 -56.251494 26.404153
v -13.616421 -57.651494 26.322041
v -13.616421 -56.251494 26.322041
f 1 2 3
f 1 4 2
f 2 4 5
f 4 6 5
f 5 6 7
f 6 8 7
f 7 8 9
f 8 10 9
f 9 10 11
f 10 12 11
f 11 12 13
f 12 14 13
f 13 14 15
f 14 16 15
f 15 16 17
f 16 18 17
f 17 18 19
f 18 20 19
f 19 20 21
f 20 22 21
f 21 22 23
f 22 24 23
f 23 24 25
f 24 26 25
f 25 26 27
f 26 28 27
f 27 28 29
f 28 30 29
f 29 30 31
f 30 32 31
f 31 32 33
f 32 34 33
f 33 34 35
f 34 36 35
f 35 36 37
f 36 38 37
f 37 38 39
f 38 40 39
f 39 40 41
f 40 42 41
f 41 42 43
f 42 44 43
f 43 44 45
f 44 46 45
f 45 46 47
f 46 48 47
f 47 48 49
f 48 855 49
f 50 51 52
f 50 53 51
f 51 53 54
f 53 55 54
f 54 55 56
f 55 57 56
f 56 57 58
f 57 59 58
f 58 59 60
f 59 61 60
f 60 61 62
f 61 63 62
f 62 63 64
f 63 65 64
f 64 65 66
f 65 67 66
f 66 67 68
f 67 69 68
f 68 69 70
f 69 71 70
f 70 71 72
f 71 73 72
f 72 73 74
f 73 75 74
f 74 75 76
f 75 77 76
f 76 77 78
f 77 79 78
f 78 79 80
f 79 81 80
f 80 81 82
f 81 83 82
f 82 83 84
f 83 85 84
f 84 85 86
f 85 87 86
f 86 87 88
f 87 89 88
f 88 89 90
f 89 91 90
f 90 91 92
f 91 93 92
f 92 93 94
f 93 95 94
f 94 95 96
f 95 97 96
f 96 97 98
f 97 856 98
f 99 100 101
f 99 102 100
f 100 102 103
f 102 104 103
f 103 104 105
f 104 106 105
f 105 106 107
f 106 108 107
f 107 108 109
f 108 110 109
f 109 110 111
f 110 112 111
f 111 112 113
f 112 114 113
f 113 114 115
f 114 116 115
f 115 116 117
f 116 118 117
f 117 118 119
f 118 120 119
f 119 120 121
f 120 122 121
f 121 122 123
f 122 124 123
f 123 124 125
f 124 126 125
f 125 126 127
f 126 128 127
f 127 128 129
f 128 130 129
f 129 130 131
f 130 132 131
f 131 132 133
f 132 134 133
f 133 134 135
f 134 136 135
f 135 136 137
f 136 138 137
f 137 138 139
f 138 140 139
f 139 140 141
f 140 142 141
f 141 142 143
f 142 144 143
f 143 144 145
f 144 146 145
f 145 146 147
f 146 857 147
f 148 149 150
f 148 151 149
f 149 151 152
f 151 153 152
f 152 153 154
f 153 155 154
f 154 155 156
f 155 157 156
f 156 157 158
f 157 159 158
f 158 159 160
f 159 161 160
f 160 161 162
f 161 163 162
f 162 163 164
f 163 165 164
f 164 165 166
f 165 167 166
f 166 167 168
f 167 169 168
f 168 169 170
f 169 171 170
f 170 171 172
f 171 173 172
f 172 173 174
f 173 175 174
f 174 175 176
f 175 177 176
f 176 177 178
f 177 179 178
f 178 179 180
f 179 181 180
f 180 181 182
f 181 183 182
f 182 183 184
f 183 185 184
f 184 185 186
f 185 187 186
f 186 187 188
f 187 189 188
f 188 189 190
f 189 191 190
f 190 191 192
f 191 193 192
f 192 193 194
f 193 195 194
f 194 195 196
f 195 858 196
f 197 198 199
f 197 200 198
f 198 200 201
f 200 202 201
f 201 202 203
f 202 204 203
f 203 204 205
f 204 206 205
f 205 206 207
f 206 208 207
f 207 208 209
f 208 210 209
f 209 210 211
f 210 212 211
f 211 212 213
f 212 214 213
f 213 214 215
f 214 216 215
f 215 216 217
f 216 218 217
f 217 218 219
f 218 220 219
f 219 220 221
f 220 222 221
f 221 222 223
f 222 224 223
f 223 224 225
f 224 226 225
f 225 226 227
f 226 228 227
f 227 228 229
f 228 230 229
f 229 230 231
f 230 232 231
f 231 232 233
f 232 234 233
f 233 234 235
f 234 236 235
f 235 236 237
f 236 238 237
f 237 238 239
f 238 240 239
f 239 240 241
f 240 242 241
f 241 242 243
f 242 244 243
f 243 244 245
f 244 859 245
f 246 247 248
f 246 249 247
f 247 249 250
f 249 251 250
f 250 251 252
f 251 253 252
f 252 253 254
f 253 255 254
f 254 255 256
f 255 257 256
f 256 257 258
f 257 259 258
f 258 259 260
f 259 261 260
f 260 261 262
f 261 263 262
f 262 263 264
f 263 265 264
f 264 265 266
f 265 267 266
f 266 267 268
f 267 269 268
f 268 269 270
f 269 271 270
f 270 271 272
f 271 273 272
f 272 273 274
f 273 275 274
f 274 275 276
f 275 277 276
f 276 277 278
f 277 279 278
f 278 279 280
f 279 281 280
f 280 281 282
f 281 283 282
f 282 283 284
f 283 285 284
f 284 285 286
f 285 287 286
f 286 287 288
f 287 289 288
f 288 289 290
f 289 291 290
f 290 291 292
f 291 293 292
f 292 293 294
f 293 860 294
f 295 296 297
f 295 298 296
f 299 300 301
f 299 308 864
f 299 302 308
f 299 864 300
f 300 346 345
f 300 345 347
f 300 348 346
f 300 864 348
f 302 303 304
f 302 304 305
f 302 306 307
f 302 307 308
f 302 309 303
f 302 305 306
f 303 309 313
f 306 862 307
f 307 862 863
f 308 894 864
f 309 310 311
f 309 311 312
f 309 314 315
f 309 315 316
f 309 317 314
f 309 861 310
f 309 312 313
f 309 316 861
f 314 317 320
f 317 318 319
f 317 319 320
f 317 321 322
f 317 323 321
f 317 322 318
f 318 322 880
f 321 918 919
f 321 323 918
f 322 879 880
f 323 326 918
f 323 920 326
f 324 325 326
f 324 326 327
f 324 328 325
f 325 328 329
f 325 951 917
f 325 917 326
f 325 974 951
f 326 917 918
f 328 330 329
f 329 330 331
f 329 331 948
f 329 948 949
f 329 949 950
f 330 332 331
f 331 332 335
f 332 333 334
f 332 334 335
f 332 336 333
f 333 336 342
f 336 337 338
f 336 338 339
f 336 340 341
f 336 341 342
f 336 343 337
f 336 339 340
f 337 343 344
f 343 943 942
f 343 942 944
f 343 944 344
f 345 346 945
f 346 942 943
f 346 943 945
f 346 348 946
f 346 946 947
f 346 940 942
f 348 864 895
f 348 895 897
f 349 350 351
f 349 975 350
f 352 353 354
f 352 362 363
f 352 354 362
f 353 361 354
f 354 361 360
f 355 356 357
f 355 358 356
f 356 358 359
f 358 360 359
f 359 360 361
f 362 364 363
f 363 364 365
f 364 366 365
f 365 366 367
f 366 368 367
f 367 368 369
f 368 370 369
f 369 370 371
f 370 372 371
f 371 372 374
f 372 373 374
f 372 375 373
f 373 375 376
f 375 377 376
f 376 377 378
f 377 379 378
f 378 379 381
f 379 380 381
f 379 382 380
f 380 382 383
f 382 384 383
f 383 384 385
f 384 386 385
f 385 386 388
f 386 387 388
f 386 389 387
f 387 389 390
f 389 391 390
f 390 391 392
f 391 393 392
f 392 393 394
f 393 395 394
f 394 395 396
f 395 397 396
f 396 397 398
f 397 399 398
f 398 399 401
f 399 400 401
f 399 402 400
f 400 402 403
f 402 404 403
f 403 404 405
f 404 1002 405
f 405 1002 1003
f 406 407 408
f 406 409 407
f 407 409 410
f 409 411 410
f 410 411 412
f 411 413 412
f 412 413 414
f 413 415 414
f 414 415 416
f 415 417 416
f 416 417 418
f 417 419 418
f 418 419 420
f 419 421 420
f 420 421 422
f 421 423 422
f 422 423 424
f 423 425 424
f 424 425 426
f 425 427 426
f 426 427 428
f 427 429 428
f 428 429 430
f 429 431 430
f 430 431 432
f 431 433 432
f 432 433 434
f 433 435 434
f 434 435 436
f 435 437 436
f 436 437 438
f 437 439 438
f 438 439 440
f 439 441 440
f 440 441 442
f 441 443 442
f 442 443 444
f 443 445 444
f 444 445 446
f 445 447 446
f 446 447 448
f 447 449 448
f 448 449 450
f 449 451 450
f 450 451 452
f 451 453 452
f 452 453 454
f 453 1004 454
f 455 456 457
f 455 458 456
f 456 458 459
f 458 460 459
f 459 460 461
f 460 462 461
f 461 462 463
f 462 464 463
f 463 464 465
f 464 466 465
f 465 466 467
f 466 468 467
f 467 468 469
f 468 470 469
f 469 470 471
f 470 472 471
f 471 472 473
f 472 474 473
f 473 474 475
f 474 476 475
f 475 476 477
f 476 478 477
f 477 478 479
f 478 480 479
f 479 480 481
f 480 482 481
f 481 482 483
f 482 484 483
f 483 484 485
f 484 486 485
f 485 486 487
f 486 488 487
f 487 488 489
f 488 490 489
f 489 490 491
f 490 492 491
f 491 492 493
f 492 494 493
f 493 494 495
f 494 496 495
f 495 496 497
f 496 498 497
f 497 498 499
f 498 500 499
f 499 500 501
f 500 502 501
f 501 502 503
f 502 1005 503
f 504 505 506
f 504 507 505
f 505 507 508
f 507 509 508
f 508 509 510
f 509 511 510
f 510 511 512
f 511 513 512
f 512 513 514
f 513 515 514
f 514 515 516
f 515 517 516
f 516 517 518
f 517 519 518
f 518 519 520
f 519 521 520
f 520 521 522
f 521 523 522
f 522 523 524
f 523 525 524
f 524 525 526
f 525 527 526
f 526 527 528
f 527 529 528
f 528 529 530
f 529 531 530
f 530 531 532
f 531 533 532
f 532 533 534
f 533 535 534
f 534 535 536
f 535 537 536
f 536 537 538
f 537 539 538
f 538 539 540
f 539 541 540
f 540 541 542
f 541 543 542
f 542 543 544
f 543 545 544
f 544 545 546
f 545 547 546
f 546 547 548
f 547 549 548
f 548 549 550
f 549 551 550
f 550 551 552
f 551 1006 552
f 553 554 555
f 553 556 554
f 554 556 557
f 556 558 557
f 557 558 559
f 558 560 559
f 559 560 561
f 560 562 561
f 561 562 563
f 562 564 563
f 563 564 565
f 564 566 565
f 565 566 567
f 566 568 567
f 567 568 569
f 568 570 569
f 569 570 571
f 570 572 571
f 571 572 573
f 572 574 573
f 573 574 575
f 574 576 575
f 575 576 577
f 576 578 577
f 577 578 579
f 578 580 579
f 579 580 581
f 580 582 581
f 581 582 583
f 582 584 583
f 583 584 585
f 584 586 585
f 585 586 587
f 586 588 587
f 587 588 589
f 588 590 589
f 589 590 591
f 590 592 591
f 591 592 593
f 592 594 593
f 593 594 595
f 594 596 595
f 595 596 597
f 596 598 597
f 597 598 599
f 598 600 599
f 599 600 601
f 600 1007 601
f 602 603 604
f 602 605 603
f 603 605 606
f 605 607 606
f 606 607 608
f 607 609 608
f 608 609 610
f 609 611 610
f 610 611 612
f 611 613 612
f 612 613 614
f 613 615 614
f 614 615 616
f 615 617 616
f 616 617 618
f 617 619 618
f 618 619 620
f 619 621 620
f 620 621 622
f 621 623 622
f 622 623 624
f 623 625 624
f 624 625 626
f 625 627 626
f 626 627 628
f 627 629 628
f 628 629 630
f 629 631 630
f 630 631 632
f 631 633 632
f 632 633 634
f 633 635 634
f 634 635 636
f 635 637 636
f 636 637 638
f 637 639 638
f 638 639 640
f 639 641 640
f 640 641 642
f 641 643 642
f 642 643 644
f 643 645 644
f 644 645 646
f 645 647 646
f 646 647 648
f 647 649 648
f 648 649 650
f 649 1008 650
f 651 652 653
f 651 654 652
f 652 654 655
f 654 656 655
f 655 656 657
f 656 658 657
f 657 658 659
f 658 660 659
f 659 660 661
f 660 662 661
f 661 662 663
f 662 664 663
f 663 664 665
f 664 666 665
f 665 666 667
f 666 668 667
f 667 668 669
f 668 670 669
f 669 670 671
f 670 672 671
f 671 672 673
f 672 674 673
f 673 674 675
f 674 676 675
f 675 676 677
f 676 678 677
f 677 678 679
f 678 680 679
f 679 680 681
f 680 682 681
f 681 682 683
f 682 684 683
f 683 684 685
f 684 686 685
f 685 686 687
f 686 688 687
f 687 688 689
f 688 690 689
f 689 690 691
f 690 692 691
f 691 692 693
f 692 694 693
f 693 694 695
f 694 696 695
f 695 696 697
f 696 698 697
f 697 698 699
f 698 1009 699
f 700 701 702
f 700 703 701
f 701 703 704
f 703 705 704
f 704 705 706
f 705 707 706
f 706 707 708
f 707 709 708
f 708 709 710
f 709 711 710
f 710 711 712
f 711 713 712
f 712 713 714
f 713 715 714
f 714 715 716
f 715 717 716
f 716 717 718
f 717 719 718
f 718 719 720
f 719 721 720
f 720 721 722
f 721 723 722
f 722 723 724
f 723 725 724
f 724 725 726
f 725 727 726
f 726 727 728
f 727 729 728
f 728 729 730
f 729 731 730
f 730 731 732
f 731 733 732
f 732 733 734
f 733 735 734
f 734 735 736
f 735 737 736
f 736 737 738
f 737 739 738
f 738 739 740
f 739 741 740
f 740 741 742
f 741 743 742
f 742 743 744
f 743 745 744
f 744 745 746
f 745 747 746
f 746 747 748
f 747 1010 748
f 749 750 751
f 749 751 752
f 749 753 750
f 749 752 1012
f 750 753 1011
f 752 1053 1012
f 753 1013 1011
f 754 755 756
f 754 757 755
f 755 757 758
f 757 759 758
f 758 759 760
f 759 761 760
f 760 761 762
f 761 763 762
f 762 763 764
f 763 765 764
f 764 765 766
f 765 767 766
f 766 767 768
f 767 769 768
f 768 769 770
f 769 771 770
f 770 771 772
f 771 773 772
f 772 773 774
f 773 775 774
f 774 775 776
f 775 777 776
f 776 777 778
f 777 779 778
f 778 779 780
f 779 781 780
f 780 781 782
f 781 783 782
f 782 783 784
f 783 785 784
f 784 785 786
f 785 787 786
f 786 787 788
f 787 789 788
f 788 789 790
f 789 791 790
f 790 791 792
f 791 793 792
f 792 793 794
f 793 795 794
f 794 795 796
f 795 797 796
f 796 797 798
f 797 799 798
f 798 799 800
f 799 801 800
f 800 801 802
f 801 1054 802
f 803 804 805
f 803 805 806
f 803 807 804
f 803 806 1056
f 804 807 1055
f 806 1097 1056
f 807 1057 1055
f 808 809 810
f 808 811 812
f 808 812 813
f 808 814 811
f 808 813 1368
f 808 1368 809
f 809 1378 810
f 810 1378 1379
f 810 1379 1380
f 811 815 812
f 812 1370 813
f 812 815 817
f 812 817 1411
f 812 1412 1370
f 813 1369 1368
f 813 1371 1369
f 813 1373 1371
f 815 816 817
f 816 818 819
f 816 819 817
f 817 819 1415
f 817 1416 1411
f 818 1419 819
f 818 1423 1419
f 818 1424 1423
f 819 1420 1415
f 820 821 822
f 820 822 823
f 820 824 825
f 820 823 826
f 820 1395 821
f 820 826 824
f 821 1395 1396
f 822 1397 823
f 822 1399 1397
f 822 1403 1399
f 823 1397 1398
f 823 1398 1402
f 823 1442 826
f 824 826 1438
f 826 1437 1438
f 826 1442 1443
f 826 1439 1437
f 827 828 829
f 827 829 830
f 827 831 832
f 827 833 831
f 827 1615 828
f 827 832 1615
f 828 1615 1613
f 828 1616 1576
f 828 1576 829
f 828 1617 1616
f 829 1576 1573
f 831 834 832
f 832 834 835
f 832 1647 1615
f 832 1670 1647
f 834 836 835
f 835 836 837
f 835 837 1644
f 835 1644 1645
f 835 1645 1646
f 836 838 837
f 837 838 841
f 838 839 840
f 838 840 841
f 838 842 839
f 839 842 848
f 842 843 844
f 842 844 845
f 842 846 847
f 842 847 848
f 842 849 843
f 842 845 846
f 843 849 850
f 849 1639 1638
f 849 1638 1640
f 849 1640 850
f 851 852 853
f 851 854 852
f 851 853 1641
f 852 1553 1591
f 852 1554 1553
f 852 1592 1554
f 852 1591 853
f 853 1638 1639
f 853 1639 1641
f 853 1591 1642
f 853 1642 1643
f 853 1636 1638
f 862 865 863
f 863 865 866
f 864 894 893
f 865 867 866
f 865 868 867
f 867 868 869
f 868 870 869
f 869 870 871
f 870 872 871
f 871 872 873
f 871 873 874
f 873 875 874
f 874 875 876
f 875 877 876
f 876 877 878
f 877 879 878
f 877 880 879
f 881 882 883
f 881 884 882
f 881 888 884
f 882 885 883
f 883 885 886
f 883 886 887
f 884 888 889
f 886 927 887
f 887 927 926
f 888 890 889
f 889 890 891
f 890 892 891
f 891 892 893
f 891 893 894
f 895 896 897
f 895 898 896
f 896 898 899
f 898 900 899
f 899 900 901
f 900 902 901
f 901 902 903
f 902 904 903
f 903 904 905
f 904 906 905
f 905 906 907
f 905 907 908
f 907 909 908
f 908 909 910
f 909 911 910
f 910 911 912
f 911 913 912
f 912 913 914
f 913 915 914
f 914 915 916
f 915 917 916
f 915 918 917
f 918 921 919
f 919 921 922
f 921 923 922
f 922 923 924
f 922 924 925
f 924 926 925
f 925 926 927
f 928 929 930
f 928 931 929
f 928 935 931
f 929 932 930
f 930 932 933
f 930 933 934
f 931 935 936
f 933 955 934
f 934 955 954
f 935 937 936
f 936 937 938
f 937 939 938
f 938 939 940
f 939 941 940
f 940 941 942
f 946 956 947
f 946 957 956
f 949 952 950
f 950 952 953
f 951 973 972
f 951 974 973
f 952 954 953
f 953 954 955
f 956 957 958
f 957 959 958
f 958 959 960
f 959 961 960
f 960 961 962
f 961 963 962
f 962 963 964
f 963 965 964
f 964 965 966
f 964 966 967
f 966 968 967
f 967 968 969
f 968 970 969
f 969 970 971
f 970 972 971
f 971 972 973
f 976 977 978
f 977 979 978
f 978 979 980
f 979 981 980
f 980 981 982
f 981 983 982
f 982 983 984
f 983 985 984
f 984 985 986
f 985 987 986
f 986 987 988
f 987 989 988
f 988 989 990
f 989 991 990
f 990 991 992
f 991 993 992
f 992 993 994
f 993 995 994
f 994 995 996
f 995 997 996
f 996 997 998
f 997 999 998
f 998 999 1000
f 999 1001 1000
f 1011 1013 1014
f 1012 1053 1052
f 1013 1015 1014
f 1014 1015 1016
f 1015 1017 1016
f 1016 1017 1018
f 1017 1019 1018
f 1018 1019 1020
f 1019 1021 1020
f 1020 1021 1022
f 1020 1022 1023
f 1022 1024 1023
f 1023 1024 1025
f 1024 1026 1025
f 1025 1026 1027
f 1026 1028 1027
f 1027 1028 1029
f 1028 1030 1029
f 1029 1030 1031
f 1030 1032 1031
f 1031 1032 1033
f 1032 1034 1033
f 1032 1035 1034
f 1034 1035 1036
f 1035 1037 1036
f 1036 1037 1038
f 1037 1039 1038
f 1038 1039 1040
f 1039 1041 1040
f 1040 1041 1042
f 1041 1043 1042
f 1042 1043 1044
f 1043 1045 1044
f 1044 1045 1046
f 1045 1047 1046
f 1046 1047 1048
f 1046 1048 1049
f 1048 1050 1049
f 1049 1050 1051
f 1050 1052 1051
f 1051 1052 1053
f 1055 1057 1058
f 1056 1097 1096
f 1057 1059 1058
f 1058 1059 1060
f 1059 1061 1060
f 1060 1061 1062
f 1061 1063 1062
f 1062 1063 1064
f 1063 1065 1064
f 1064 1065 1066
f 1064 1066 1067
f 1066 1068 1067
f 1067 1068 1069
f 1068 1070 1069
f 1069 1070 1071
f 1070 1072 1071
f 1071 1072 1073
f 1072 1074 1073
f 1073 1074 1075
f 1074 1076 1075
f 1075 1076 1077
f 1076 1078 1077
f 1076 1079 1078
f 1078 1079 1080
f 1079 1081 1080
f 1080 1081 1082
f 1081 1083 1082
f 1082 1083 1084
f 1083 1085 1084
f 1084 1085 1086
f 1085 1087 1086
f 1086 1087 1088
f 1087 1089 1088
f 1088 1089 1090
f 1089 1091 1090
f 1090 1091 1092
f 1090 1092 1093
f 1092 1094 1093
f 1093 1094 1095
f 1094 1096 1095
f 1095 1096 1097
f 1098 1099 1100
f 1098 1101 1099
f 1098 1147 1101
f 1099 1102 1100
f 1101 1147 1146
f 1103 1104 1105
f 1104 1106 1105
f 1105 1106 1107
f 1106 1108 1107
f 1107 1108 1109
f 1108 1110 1109
f 1109 1110 1111
f 1110 1112 1111
f 1111 1112 1113
f 1112 1114 1113
f 1113 1114 1115
f 1114 1116 1115
f 1115 1116 1117
f 1116 1118 1117
f 1117 1118 1119
f 1118 1120 1119
f 1119 1120 1121
f 1120 1122 1121
f 1121 1122 1123
f 1122 1124 1123
f 1123 1124 1125
f 1124 1126 1125
f 1125 1126 1127
f 1126 1128 1127
f 1127 1128 1129
f 1128 1130 1129
f 1129 1130 1131
f 1130 1132 1131
f 1131 1132 1133
f 1132 1134 1133
f 1133 1134 1135
f 1134 1136 1135
f 1135 1136 1137
f 1136 1138 1137
f 1137 1138 1139
f 1138 1140 1139
f 1139 1140 1141
f 1140 1142 1141
f 1141 1142 1143
f 1142 1144 1143
f 1143 1144 1145
f 1144 1146 1145
f 1145 1146 1147
f 1148 1149 1150
f 1148 1151 1149
f 1148 1155 1151
f 1149 1152 1150
f 1150 1152 1153
f 1150 1153 1154
f 1151 1155 1156
f 1153 1195 1154
f 1154 1195 1194
f 1155 1157 1156
f 1156 1157 1158
f 1157 1159 1158
f 1158 1159 1160
f 1159 1161 1160
f 1160 1161 1162
f 1161 1163 1162
f 1162 1163 1164
f 1163 1165 1164
f 1164 1165 1166
f 1164 1166 1167
f 1166 1168 1167
f 1167 1168 1169
f 1168 1170 1169
f 1169 1170 1171
f 1170 1172 1171
f 1171 1172 1173
f 1172 1174 1173
f 1173 1174 1175
f 1174 1176 1175
f 1174 1177 1176
f 1176 1177 1178
f 1177 1179 1178
f 1178 1179 1180
f 1179 1181 1180
f 1180 1181 1182
f 1181 1183 1182
f 1182 1183 1184
f 1183 1185 1184
f 1184 1185 1186
f 1185 1187 1186
f 1186 1187 1188
f 1186 1188 1189
f 1188 1190 1189
f 1189 1190 1191
f 1190 1192 1191
f 1191 1192 1193
f 1192 1194 1193
f 1193 1194 1195
f 1196 1197 1198
f 1196 1199 1197
f 1196 1203 1199
f 1197 1200 1198
f 1198 1200 1201
f 1198 1201 1202
f 1199 1203 1204
f 1201 1260 1202
f 1202 1260 1259
f 1203 1205 1204
f 1204 1205 1206
f 1205 1207 1206
f 1206 1207 1208
f 1207 1209 1208
f 1208 1209 1210
f 1208 1210 1213
f 1210 1211 1212
f 1210 1212 1213
f 1210 1214 1211
f 1211 1214 1215
f 1211 1215 1216
f 1212 1217 1213
f 1212 1219 1217
f 1212 1277 1219
f 1213 1217 1218
f 1213 1218 1221
f 1215 1222 1216
f 1216 1222 1223
f 1216 1224 1225
f 1216 1225 1226
f 1216 1227 1228
f 1216 1228 1229
f 1216 1229 1230
f 1216 1223 1224
f 1216 1226 1227
f 1217 1274 1273
f 1217 1275 1274
f 1217 1219 1275
f 1218 1220 1221
f 1218 1281 1220
f 1219 1276 1275
f 1219 1277 1278
f 1219 1279 1276
f 1220 1281 1282
f 1229 1231 1230
f 1230 1231 1232
f 1230 1232 1235
f 1232 1233 1234
f 1232 1234 1235
f 1232 1236 1233
f 1233 1236 1237
f 1233 1237 1238
f 1234 1239 1240
f 1234 1240 1235
f 1234 1298 1239
f 1235 1240 1241
f 1235 1241 1244
f 1237 1257 1238
f 1238 1257 1258
f 1239 1297 1296
f 1239 1298 1297
f 1240 1242 1241
f 1240 1245 1242
f 1240 1299 1245
f 1241 1242 1243
f 1241 1243 1247
f 1241 1386 1244
f 1242 1246 1243
f 1242 1248 1246
f 1242 1252 1248
f 1242 1354 1252
f 1244 1386 1387
f 1245 1299 1300
f 1246 1248 1249
f 1248 1250 1251
f 1248 1251 1249
f 1248 1339 1250
f 1249 1251 1253
f 1250 1339 1338
f 1251 1254 1253
f 1252 1354 1355
f 1253 1254 1255
f 1253 1255 1256
f 1255 1313 1256
f 1256 1306 1307
f 1256 1307 1308
f 1256 1308 1309
f 1256 1310 1311
f 1256 1311 1312
f 1256 1313 1314
f 1256 1309 1310
f 1256 1314 1306
f 1257 1259 1258
f 1258 1259 1260
f 1261 1262 1263
f 1261 1264 1262
f 1261 1268 1264
f 1262 1265 1263
f 1263 1265 1266
f 1263 1266 1267
f 1264 1268 1269
f 1266 1305 1267
f 1267 1305 1304
f 1268 1270 1269
f 1269 1270 1271
f 1270 1272 1271
f 1271 1272 1273
f 1271 1273 1274
f 1275 1276 1280
f 1275 1280 1317
f 1275 1353 1352
f 1275 1317 1353
f 1277 1388 1278
f 1278 1388 1389
f 1278 1389 1390
f 1280 1318 1317
f 1281 1283 1282
f 1282 1283 1284
f 1283 1285 1284
f 1284 1285 1286
f 1285 1287 1286
f 1286 1287 1288
f 1287 1289 1288
f 1288 1289 1290
f 1288 1290 1291
f 1290 1292 1291
f 1291 1292 1293
f 1292 1294 1293
f 1293 1294 1295
f 1294 1296 1295
f 1295 1296 1297
f 1299 1301 1300
f 1300 1301 1302
f 1300 1302 1303
f 1302 1304 1303
f 1303 1304 1305
f 1311 1315 1312
f 1312 1315 1316
f 1312 1316 1318
f 1316 1317 1318
f 1316 1319 1317
f 1317 1319 1320
f 1319 1321 1320
f 1320 1321 1322
f 1321 1323 1322
f 1322 1323 1324
f 1323 1325 1324
f 1324 1325 1326
f 1325 1327 1326
f 1326 1327 1328
f 1327 1329 1328
f 1328 1329 1330
f 1329 1331 1330
f 1329 1332 1331
f 1331 1332 1333
f 1332 1334 1333
f 1333 1334 1335
f 1334 1336 1335
f 1335 1336 1337
f 1336 1338 1337
f 1337 1338 1339
f 1340 1341 1342
f 1340 1343 1341
f 1340 1347 1343
f 1341 1344 1342
f 1342 1344 1345
f 1342 1345 1346
f 1343 1347 1348
f 1345 1360 1346
f 1346 1360 1359
f 1347 1349 1348
f 1348 1349 1350
f 1348 1350 1351
f 1350 1352 1351
f 1351 1352 1353
f 1354 1356 1355
f 1355 1356 1357
f 1356 1358 1357
f 1357 1358 1359
f 1357 1359 1360
f 1361 1362 1363
f 1361 1364 1365
f 1361 1365 1362
f 1361 1368 1364
f 1362 1366 1363
f 1363 1366 1367
f 1363 1405 1403
f 1363 1406 1405
f 1363 1407 1406
f 1363 1408 1407
f 1363 1409 1408
f 1363 1410 1409
f 1363 1367 1410
f 1364 1369 1372
f 1364 1368 1369
f 1369 1460 1372
f 1370 1412 1413
f 1370 1413 1414
f 1371 1373 1374
f 1372 1460 1459
f 1373 1375 1374
f 1374 1375 1376
f 1374 1376 1377
f 1376 1477 1377
f 1377 1477 1478
f 1379 1381 1380
f 1380 1381 1382
f 1380 1383 1384
f 1380 1382 1383
f 1381 1385 1382
f 1382 1385 1386
f 1383 1447 1384
f 1384 1447 1448
f 1385 1387 1386
f 1389 1391 1390
f 1390 1391 1392
f 1390 1392 1393
f 1391 1394 1392
f 1392 1394 1395
f 1392 1444 1393
f 1393 1444 1445
f 1394 1396 1395
f 1397 1400 1401
f 1397 1399 1400
f 1398 1489 1402
f 1399 1403 1404
f 1400 1461 1401
f 1401 1461 1462
f 1402 1489 1490
f 1403 1405 1404
f 1411 1416 1417
f 1411 1417 1418
f 1413 1476 1414
f 1414 1476 1475
f 1415 1420 1421
f 1415 1421 1422
f 1417 1523 1418
f 1418 1523 1522
f 1421 1498 1422
f 1422 1498 1499
f 1423 1424 1425
f 1424 1426 1425
f 1424 1427 1426
f 1424 1428 1427
f 1424 1429 1428
f 1424 1430 1429
f 1424 1431 1430
f 1424 1432 1431
f 1424 1433 1432
f 1432 1433 1434
f 1433 1435 1434
f 1433 1436 1435
f 1435 1436 1437
f 1435 1437 1441
f 1435 1441 1514
f 1436 1438 1437
f 1437 1439 1440
f 1439 1524 1440
f 1439 1525 1524
f 1441 1512 1513
f 1441 1513 1514
f 1442 1491 1443
f 1442 1492 1491
f 1444 1446 1445
f 1449 1450 1451
f 1449 1467 1466
f 1449 1451 1467
f 1450 1452 1451
f 1451 1452 1453
f 1452 1454 1453
f 1453 1454 1455
f 1454 1456 1455
f 1455 1456 1457
f 1456 1458 1457
f 1456 1459 1458
f 1458 1459 1460
f 1461 1463 1462
f 1462 1463 1464
f 1463 1465 1464
f 1463 1466 1465
f 1465 1466 1467
f 1468 1469 1470
f 1468 1497 1496
f 1468 1470 1497
f 1469 1471 1470
f 1470 1471 1472
f 1471 1473 1472
f 1472 1473 1474
f 1473 1475 1474
f 1474 1475 1476
f 1477 1479 1478
f 1478 1479 1480
f 1479 1481 1480
f 1480 1481 1482
f 1481 1483 1482
f 1481 1484 1483
f 1483 1484 1485
f 1484 1486 1485
f 1485 1486 1487
f 1486 1488 1487
f 1487 1488 1489
f 1488 1490 1489
f 1491 1492 1493
f 1492 1494 1493
f 1493 1494 1495
f 1494 1496 1495
f 1495 1496 1497
f 1498 1500 1499
f 1499 1500 1501
f 1500 1502 1501
f 1501 1502 1503
f 1502 1504 1503
f 1503 1504 1505
f 1504 1506 1505
f 1504 1507 1506
f 1506 1507 1508
f 1507 1509 1508
f 1508 1509 1510
f 1509 1511 1510
f 1510 1511 1512
f 1511 1513 1512
f 1515 1516 1517
f 1515 1530 1529
f 1515 1517 1530
f 1516 1518 1517
f 1517 1518 1519
f 1518 1520 1519
f 1519 1520 1521
f 1520 1522 1521
f 1521 1522 1523
f 1524 1525 1526
f 1525 1527 1526
f 1526 1527 1528
f 1527 1529 1528
f 1528 1529 1530
f 1531 1532 1533
f 1532 1534 1533
f 1535 1536 1537
f 1535 1537 1545
f 1536 1538 1537
f 1537 1538 1539
f 1537 1540 1541
f 1537 1541 1542
f 1537 1543 1544
f 1537 1544 1545
f 1537 1539 1540
f 1537 1573 1543
f 1541 1546 1542
f 1542 1546 1547
f 1542 1548 1549
f 1542 1549 1550
f 1542 1547 1548
f 1542 1550 1554
f 1543 1573 1575
f 1548 1551 1549
f 1549 1551 1552
f 1550 1553 1554
f 1550 1590 1553
f 1551 1555 1552
f 1552 1555 1556
f 1553 1590 1589
f 1553 1593 1591
f 1555 1557 1556
f 1555 1558 1557
f 1557 1558 1559
f 1558 1560 1559
f 1559 1560 1561
f 1560 1562 1561
f 1561 1562 1563
f 1561 1563 1564
f 1563 1565 1564
f 1564 1565 1566
f 1565 1567 1566
f 1566 1567 1568
f 1567 1569 1568
f 1567 1570 1569
f 1569 1570 1571
f 1570 1572 1571
f 1571 1572 1573
f 1571 1573 1576
f 1572 1574 1573
f 1573 1574 1575
f 1577 1578 1579
f 1577 1580 1578
f 1577 1584 1580
f 1578 1581 1579
f 1579 1581 1582
f 1579 1582 1583
f 1580 1584 1585
f 1582 1623 1583
f 1583 1623 1622
f 1584 1586 1585
f 1585 1586 1587
f 1586 1588 1587
f 1587 1588 1589
f 1587 1589 1590
f 1591 1593 1595
f 1593 1594 1595
f 1593 1596 1594
f 1594 1596 1597
f 1596 1598 1597
f 1597 1598 1599
f 1598 1600 1599
f 1599 1600 1601
f 1600 1602 1601
f 1601 1602 1603
f 1602 1604 1603
f 1603 1604 1605
f 1603 1605 1606
f 1605 1607 1606
f 1606 1607 1608
f 1607 1609 1608
f 1608 1609 1610
f 1609 1611 1610
f 1610 1611 1612
f 1611 1613 1612
f 1612 1613 1614
f 1613 1615 1614
f 1616 1617 1618
f 1617 1619 1618
f 1618 1619 1620
f 1618 1620 1621
f 1620 1622 1621
f 1621 1622 1623
f 1624 1625 1626
f 1624 1627 1625
f 1624 1631 1627
f 1625 1628 1626
f 1626 1628 1629
f 1626 1629 1630
f 1627 1631 1632
f 1629 1651 1630
f 1630 1651 1650
f 1631 1633 1632
f 1632 1633 1634
f 1633 1635 1634
f 1634 1635 1636
f 1635 1637 1636
f 1636 1637 1638
f 1642 1652 1643
f 1642 1653 1652
f 1645 1648 1646
f 1646 1648 1649
f 1647 1669 1668
f 1647 1670 1669
f 1648 1650 1649
f 1649 1650 1651
f 1652 1653 1654
f 1653 1655 1654
f 1654 1655 1656
f 1655 1657 1656
f 1656 1657 1658
f 1657 1659 1658
f 1658 1659 1660
f 1659 1661 1660
f 1660 1661 1662
f 1660 1662 1663
f 1662 1664 1663
f 1663 1664 1665
f 1664 1666 1665
f 1665 1666 1667
f 1666 1668 1667
f 1667 1668 1669
f 1671 1672 1673
f 1672 1674 1673
f 1675 1676 1677
f 1676 1678 1677
f 1677 1678 1679
f 1678 1680 1679
f 1679 1680 1681
f 1680 1682 1681
f 1681 1682 1683
f 1682 1684 1683
f 1683 1684 1685
f 1684 1686 1685
f 1685 1686 1687
f 1686 1688 1687
f 1687 1688 1689
f 1688 1690 1689
f 1689 1690 1691
f 1690 1692 1691
f 1691 1692 1693
f 1692 1694 1693
f 1693 1694 1695
f 1694 1696 1695
f 1695 1696 1697
f 1696 1698 1697
f 1697 1698 1699
f 1698 1700 1699