# ANSI B18.6.5M - M2.5x0.45 x 8(38)
# Autodesk dbId: 76
# Units: mm
o 076_ANSI_B18.6.5M_-_M2.5x0.45_x_8(38)
v -11.297941 -57.451492 27.176196
v -11.598400 -57.451492 27.087303
v -11.648398 -55.451492 27.393244
v -11.413458 -55.451492 27.464093
v -11.029028 -57.451492 27.337017
v -11.204862 -55.451492 27.593334
v -10.808558 -57.451492 27.559662
v -11.036823 -55.451492 27.772160
v -10.650385 -57.451492 27.830141
v -10.920793 -55.451492 27.988385
v -10.564445 -57.451492 28.131458
v -10.864680 -55.451492 28.227272
v -10.556141 -57.451492 28.444681
v -10.872308 -55.451491 28.472543
v -10.625993 -57.451492 28.750129
v -10.943156 -55.451492 28.707482
v -10.769612 -57.451492 29.028609
v -11.072397 -55.451492 28.916079
v -10.977974 -57.451492 29.262624
v -11.251223 -55.451492 29.084118
v -11.237987 -57.451492 29.437469
v -11.467448 -55.451492 29.200147
v -11.533314 -57.451492 29.542159
v -11.706335 -55.451492 29.256260
v -11.845397 -57.451492 29.570114
v -11.951606 -55.451492 29.248633
v -12.154628 -57.451492 29.519579
v -12.186545 -55.451492 29.177784
v -12.441577 -57.451492 29.393730
v -12.395142 -55.451492 29.048543
v -12.688213 -57.451493 29.200473
v -12.563181 -55.451492 28.869717
v -12.879040 -57.451492 28.951951
v -12.679211 -55.451492 28.653492
v -13.002066 -57.451492 28.663781
v -12.735324 -55.451492 28.414605
v -13.049562 -57.451492 28.354068
v -12.727696 -55.451492 28.169334
v -13.018544 -57.451492 28.042274
v -12.656848 -55.451492 27.934395
v -12.910960 -57.451492 27.747990
v -12.527606 -55.451492 27.725798
v -12.733571 -57.451492 27.489706
v -12.348780 -55.451492 27.557759
v -12.497522 -57.451492 27.283651
v -12.132556 -55.451492 27.441730
v -12.217645 -57.451492 27.142773
v -11.893668 -55.451492 27.385617
v -11.911526 -57.451492 27.075923
v -11.598399 -60.451493 27.087302
v -11.598400 -57.451492 27.087303
v -11.297941 -57.451492 27.176196
v -11.297940 -60.451492 27.176196
v -11.911525 -60.451493 27.075923
v -11.911526 -57.451492 27.075923
v -12.217644 -60.451493 27.142773
v -12.217645 -57.451492 27.142773
v -12.497521 -60.451493 27.283651
v -12.497522 -57.451492 27.283651
v -12.733570 -60.451493 27.489705
v -12.733571 -57.451492 27.489706
v -12.910959 -60.451493 27.747990
v -12.910960 -57.451492 27.747990
v -13.018543 -60.451493 28.042274
v -13.018544 -57.451492 28.042274
v -13.049561 -60.451493 28.354068
v -13.049562 -57.451492 28.354068
v -13.002065 -60.451493 28.663781
v -13.002066 -57.451492 28.663781
v -12.879038 -60.451493 28.951951
v -12.879040 -57.451492 28.951951
v -12.688212 -60.451493 29.200472
v -12.688213 -57.451493 29.200473
v -12.441576 -60.451493 29.393730
v -12.441577 -57.451492 29.393730
v -12.154627 -60.451493 29.519579
v -12.154628 -57.451492 29.519579
v -11.533313 -60.451493 29.542158
v -11.533314 -57.451492 29.542159
v -11.845397 -57.451492 29.570114
v -11.845396 -60.451493 29.570114
v -11.237986 -60.451493 29.437469
v -11.237987 -57.451492 29.437469
v -10.977973 -60.451493 29.262624
v -10.977974 -57.451492 29.262624
v -10.769611 -60.451492 29.028609
v -10.769612 -57.451492 29.028609
v -10.625992 -60.451492 28.750129
v -10.625993 -57.451492 28.750129
v -10.556140 -60.451492 28.444681
v -10.556141 -57.451492 28.444681
v -10.564444 -60.451492 28.131458
v -10.564445 -57.451492 28.131458
v -10.650383 -60.451492 27.830141
v -10.650385 -57.451492 27.830141
v -10.808557 -60.451492 27.559662
v -10.808558 -57.451492 27.559662
v -11.029027 -60.451492 27.337017
v -11.029028 -57.451492 27.337017
v -11.258167 -62.313327 27.073934
v -11.266375 -62.319657 27.097510
v -11.470708 -62.313327 27.001784
v -11.274969 -62.321640 27.121033
v -11.486545 -62.320328 27.066758
v -11.478518 -62.320902 27.033858
v -11.284064 -62.318748 27.144680
v -11.494308 -62.311638 27.098561
v -11.293188 -62.311632 27.167346
v -11.501340 -62.295341 27.127407
v -11.301946 -62.300077 27.187923
v -11.310370 -62.284563 27.206614
v -11.507219 -62.272391 27.151612
v -11.317689 -62.266034 27.221590
v -11.324259 -62.244131 27.233713
v -11.511589 -62.244131 27.169762
v -11.705306 -62.272391 27.119240
v -11.706942 -62.244131 27.137837
v -11.904884 -62.244131 27.138827
v -11.907252 -62.266034 27.125243
v -11.909424 -62.284563 27.108717
v -11.703174 -62.295341 27.094423
v -11.911460 -62.300077 27.088316
v -11.913212 -62.311632 27.066022
v -11.700657 -62.311638 27.064839
v -11.914645 -62.318748 27.041630
v -11.697892 -62.320328 27.032220
v -11.915739 -62.321640 27.016318
v -11.695028 -62.320902 26.998476
v -11.916398 -62.319657 26.991283
v -11.916673 -62.313327 26.966320
v -11.692222 -62.313327 26.965584
v -11.437373 -61.800820 27.425878
v -11.324259 -62.244131 27.233713
v -11.383790 -62.010683 27.334812
v -11.529960 -61.439083 27.583450
v -11.511589 -62.244131 27.169762
v -11.624784 -61.439083 27.555360
v -11.722387 -61.439083 27.539410
v -11.706942 -62.244131 27.137837
v -11.821220 -61.439083 27.535852
v -11.858828 -61.800820 27.357003
v -11.880634 -62.010683 27.253618
v -10.552995 -62.313327 28.862770
v -10.576572 -62.319656 28.854563
v -10.480845 -62.313327 28.650230
v -10.600095 -62.321640 28.845969
v -10.545819 -62.320328 28.634393
v -10.512919 -62.320902 28.642419
v -10.623741 -62.318748 28.836874
v -10.577622 -62.311638 28.626630
v -10.646408 -62.311632 28.827750
v -10.606468 -62.295341 28.619598
v -10.666984 -62.300077 28.818992
v -10.685675 -62.284563 28.810568
v -10.630673 -62.272391 28.613719
v -10.700651 -62.266034 28.803248
v -10.712774 -62.244131 28.796679
v -10.648823 -62.244131 28.609349
v -10.598302 -62.272391 28.415632
v -10.616899 -62.244131 28.413996
v -10.617888 -62.244131 28.216054
v -10.604304 -62.266034 28.213685
v -10.587778 -62.284563 28.211514
v -10.573484 -62.295341 28.417764
v -10.567377 -62.300077 28.209478
v -10.545083 -62.311632 28.207726
v -10.543900 -62.311638 28.420281
v -10.520691 -62.318748 28.206293
v -10.511281 -62.320328 28.423046
v -10.495380 -62.321639 28.205198
v -10.477537 -62.320902 28.425910
v -10.470344 -62.319656 28.204540
v -10.445382 -62.313327 28.204265
v -10.444645 -62.313327 28.428716
v -10.904939 -61.800820 28.683565
v -10.712774 -62.244131 28.796679
v -10.813873 -62.010683 28.737148
v -11.062511 -61.439083 28.590978
v -10.648823 -62.244131 28.609349
v -11.034421 -61.439083 28.496154
v -11.018471 -61.439083 28.398552
v -10.616899 -62.244131 28.413996
v -11.014913 -61.439083 28.299718
v -10.836065 -61.800820 28.262110
v -10.732679 -62.010683 28.240304
v -12.341832 -62.313328 29.567943
v -12.333624 -62.319657 29.544366
v -12.129291 -62.313328 29.640093
v -12.325030 -62.321640 29.520843
v -12.113454 -62.320328 29.575119
v -12.121481 -62.320903 29.608019
v -12.315935 -62.318748 29.497196
v -12.105691 -62.311638 29.543316
v -12.306811 -62.311632 29.474530
v -12.098659 -62.295341 29.514470
v -12.298053 -62.300078 29.453954
v -12.289629 -62.284563 29.435262
v -12.092780 -62.272391 29.490265
v -12.282310 -62.266034 29.420287
v -12.275740 -62.244131 29.408164
v -12.088411 -62.244131 29.472115
v -11.894693 -62.272391 29.522636
v -11.893057 -62.244131 29.504039
v -11.695115 -62.244131 29.503050
v -11.692747 -62.266034 29.516633
v -11.690575 -62.284563 29.533160
v -11.896825 -62.295341 29.547454
v -11.688540 -62.300077 29.553561
v -11.686787 -62.311632 29.575855
v -11.899342 -62.311638 29.577038
v -11.685354 -62.318748 29.600246
v -11.902107 -62.320328 29.609657
v -11.684260 -62.321640 29.625558
v -11.904971 -62.320903 29.643401
v -11.683601 -62.319657 29.650593
v -11.683326 -62.313328 29.675556
v -11.907777 -62.313327 29.676293
v -12.162626 -61.800820 29.215999
v -12.275740 -62.244131 29.408164
v -12.216210 -62.010684 29.307065
v -12.070040 -61.439083 29.058427
v -12.088411 -62.244131 29.472115
v -11.975216 -61.439083 29.086517
v -11.877613 -61.439083 29.102467
v -11.893057 -62.244131 29.504039
v -11.778780 -61.439083 29.106025
v -11.741171 -61.800820 29.284873
v -11.719365 -62.010683 29.388259
v -13.047004 -62.313328 27.779106
v -13.023427 -62.319657 27.787314
v -13.119154 -62.313328 27.991646
v -12.999904 -62.321640 27.795908
v -13.054180 -62.320328 28.007484
v -13.087080 -62.320903 27.999457
v -12.976258 -62.318749 27.805003
v -13.022377 -62.311638 28.015247
v -12.953591 -62.311632 27.814126
v -12.993531 -62.295342 28.022279
v -12.933015 -62.300078 27.822885
v -12.914324 -62.284564 27.831309
v -12.969326 -62.272391 28.028158
v -12.899348 -62.266035 27.838628
v -12.887225 -62.244131 27.845198
v -12.951176 -62.244131 28.032527
v -13.001697 -62.272391 28.226245
v -12.983101 -62.244131 28.227880
v -12.982111 -62.244131 28.425823
v -12.995695 -62.266035 28.428191
v -13.012221 -62.284564 28.430362
v -13.026515 -62.295342 28.224112
v -13.032622 -62.300078 28.432398
v -13.054916 -62.311633 28.434151
v -13.056099 -62.311639 28.221596
v -13.079308 -62.318749 28.435584
v -13.088718 -62.320328 28.218831
v -13.104620 -62.321640 28.436678
v -13.122462 -62.320903 28.215967
v -13.129654 -62.319657 28.437336
v -13.154617 -62.313328 28.437612
v -13.155354 -62.313328 28.213161
v -12.695060 -61.800820 27.958312
v -12.887225 -62.244131 27.845198
v -12.786126 -62.010683 27.904728
v -12.537488 -61.439083 28.050898
v -12.951176 -62.244131 28.032527
v -12.565578 -61.439083 28.145723
v -12.581529 -61.439083 28.243325
v -12.983101 -62.244131 28.227880
v -12.585086 -61.439083 28.342158
v -12.763935 -61.800821 28.379767
v -12.867320 -62.010684 28.401573
v -11.139682 -62.495094 28.211424
v -10.836065 -61.800820 28.262110
v -11.014913 -61.439083 28.299718
v -11.136426 -61.374374 28.309420
v -10.904778 -62.448384 28.207707
v -11.788482 -61.374374 28.984512
v -11.681428 -62.508397 28.894344
v -11.690485 -62.495094 28.981255
v -11.783966 -61.316290 28.875377
v -11.752425 -61.260067 28.767125
v -11.653009 -62.518201 28.814482
v -11.726412 -61.235315 28.716316
v -11.604848 -62.524561 28.741219
v -11.693779 -61.214950 28.668929
v -11.654533 -61.201053 28.625663
v -11.539608 -62.526699 28.681305
v -11.608470 -61.195931 28.587296
v -11.557436 -61.201053 28.555843
v -11.464564 -62.524605 28.640076
v -11.503927 -61.214950 28.532412
v -11.448617 -61.235315 28.516562
v -11.380465 -62.518348 28.617609
v -11.392170 -61.260068 28.508077
v -11.279509 -61.316290 28.512638
v -11.292275 -62.508139 28.616076
v -11.686769 -62.448384 29.216160
v -11.741171 -61.800820 29.284873
v -11.690485 -62.495094 28.981255
v -12.463573 -61.374374 28.332456
v -12.373406 -62.508397 28.439510
v -12.460317 -62.495094 28.430452
v -12.354439 -61.316291 28.336972
v -12.246187 -61.260068 28.368513
v -12.293544 -62.518201 28.467929
v -12.195377 -61.235315 28.394526
v -12.220280 -62.524561 28.516090
v -12.147990 -61.214950 28.427159
v -12.104724 -61.201053 28.466405
v -12.160366 -62.526700 28.581329
v -12.066358 -61.195931 28.512468
v -12.034905 -61.201053 28.563502
v -12.119137 -62.524605 28.656374
v -12.011473 -61.214950 28.617011
v -11.995624 -61.235315 28.672321
v -12.096670 -62.518348 28.740472
v -11.987139 -61.260068 28.728768
v -11.991699 -61.316291 28.841429
v -12.095137 -62.508139 28.828662
v -11.485978 -62.495094 27.729836
v -11.504862 -62.508139 27.813214
v -11.577840 -61.374374 27.695553
v -11.245561 -61.316290 28.304905
v -11.226593 -62.508397 28.202367
v -11.136426 -61.374374 28.309420
v -11.353813 -61.260067 28.273363
v -11.306455 -62.518200 28.173948
v -11.404623 -61.235315 28.247350
v -11.379719 -62.524561 28.125787
v -11.452010 -61.214950 28.214718
v -11.495276 -61.201053 28.175471
v -11.439633 -62.526699 28.060547
v -11.533642 -61.195931 28.129409
v -11.565095 -61.201053 28.078375
v -11.480861 -62.524605 27.985503
v -11.588526 -61.214950 28.024866
v -11.604376 -61.235315 27.969556
v -11.503328 -62.518348 27.901404
v -11.612861 -61.260068 27.913108
v -11.608301 -61.316290 27.800447
v -11.909514 -62.495094 27.660621
v -11.858828 -61.800820 27.357003
v -11.821220 -61.439083 27.535852
v -11.811518 -61.374374 27.657365
v -11.913230 -62.448384 27.425717
v -12.695221 -62.448384 28.434169
v -12.763935 -61.800821 28.379767
v -12.460317 -62.495094 28.430452
v -11.816034 -61.316290 27.766500
v -11.918571 -62.508397 27.747532
v -11.811518 -61.374374 27.657365
v -11.847575 -61.260068 27.874751
v -11.946990 -62.518201 27.827394
v -11.873588 -61.235315 27.925561
v -11.995151 -62.524561 27.900658
v -11.906220 -61.214950 27.972948
v -11.945467 -61.201053 28.016214
v -12.060391 -62.526699 27.960572
v -11.991530 -61.195931 28.054580
v -12.042564 -61.201053 28.086033
v -12.135435 -62.524605 28.001800
v -12.096072 -61.214950 28.109465
v -12.151382 -61.235315 28.125314
v -12.219534 -62.518349 28.024267
v -12.207830 -61.260068 28.133800
v -12.320491 -61.316291 28.129239
v -12.307724 -62.508139 28.025800
v -10.974486 -60.451492 25.961165
v -11.396797 -60.451492 25.853667
v -11.598399 -60.451493 27.087302
v -11.800000 -61.021493 28.320938
v -12.320491 -61.316291 28.129239
v -12.207830 -61.260068 28.133800
v -10.262345 -61.762461 26.497397
v -10.181972 -61.977882 27.039594
v -10.709137 -62.123115 26.887924
v -10.631464 -61.867045 26.412631
v -9.961450 -61.762461 26.801261
v -9.719648 -61.762461 27.153969
v -9.761716 -61.931472 27.671985
v -9.544709 -61.762461 27.544184
v -9.442258 -61.762461 27.959364
v -9.839104 -62.033464 28.145538
v -9.465551 -61.762461 28.810871
v -9.918029 -62.067683 28.628491
v -9.415586 -61.762461 28.386166
v -9.590548 -61.762461 29.219829
v -9.996953 -62.033464 29.111444
v -10.727540 -61.762461 30.451551
v -11.222071 -62.123116 30.026667
v -10.674050 -61.977882 30.050705
v -11.125210 -61.762461 30.608807
v -11.544569 -61.762462 30.692528
v -11.299744 -61.867045 30.501960
v -11.972138 -61.762462 30.700025
v -11.860992 -61.935141 30.453356
v -13.494925 -61.762462 29.999304
v -13.418027 -61.977883 29.602283
v -12.890863 -62.123116 29.753952
v -12.968535 -61.867046 30.229246
v -13.767370 -61.762462 29.669691
v -13.976583 -61.762462 29.296729
v -13.838283 -61.931473 28.969891
v -14.115839 -61.762462 28.892403
v -13.760895 -62.033465 28.496339
v -14.180661 -61.762462 28.469711
v -14.168967 -61.762462 28.042236
v -14.081133 -61.762462 27.623720
v -13.603046 -62.033465 27.530433
v -13.681971 -62.067685 28.013386
v -14.168967 -61.762462 28.042236
v -13.919981 -61.762462 27.227612
v -12.677156 -61.762462 26.102768
v -12.300255 -61.867045 26.139916
v -12.377928 -62.123116 26.615210
v -12.925950 -61.977883 26.591171
v -12.266990 -61.762462 25.981793
v -11.841814 -61.762462 25.935999
v -11.415295 -61.762461 25.966860
v -11.739007 -61.935141 26.188520
v -10.428011 -62.302143 28.545149
v -10.552995 -62.313327 28.862770
v -10.480845 -62.313327 28.650230
v -10.512198 -62.265642 29.060306
v -13.525658 -61.931473 27.056880
v -13.690691 -61.762462 26.866645
v -13.400633 -61.762462 26.552420
v -13.005253 -62.156850 27.076442
v -11.430431 -62.502588 27.818677
v -11.379719 -62.524561 28.125787
v -11.439633 -62.526699 28.060547
v -11.480861 -62.524605 27.985503
v -11.503328 -62.518348 27.901404
v -11.504862 -62.508139 27.813214
v -11.485978 -62.495094 27.729836
v -11.407675 -62.448384 27.508335
v -11.331647 -62.387722 27.289438
v -10.877848 -62.423072 27.920304
v -12.460592 -62.309669 27.121049
v -11.913230 -62.448384 27.425717
v -12.546640 -62.423073 27.647589
v -13.087801 -62.265643 27.581571
v -13.059129 -61.762462 26.295037
v -11.818275 -62.196471 26.673575
v -11.178987 -61.935141 26.280039
v -11.692222 -62.313327 26.965584
v -11.916673 -62.313327 26.966320
v -11.258254 -62.196471 26.765094
v -11.258167 -62.313327 27.073934
v -11.470708 -62.313327 27.001784
v -10.343824 -62.265642 28.029993
v -10.261275 -62.156849 27.524864
v -10.791801 -62.309668 27.393764
v -11.990452 -62.502588 27.727158
v -11.909514 -62.495094 27.660621
v -11.918571 -62.508397 27.747532
v -11.946990 -62.518201 27.827394
v -11.995151 -62.524561 27.900658
v -12.060391 -62.526699 27.960572
v -12.135435 -62.524605 28.001800
v -12.391102 -62.495094 28.006916
v -12.612603 -62.448384 27.928614
v -12.831500 -62.387722 27.852586
v -13.047004 -62.313328 27.779106
v -13.119154 -62.313328 27.991646
v -13.171988 -62.302144 28.096727
v -12.169568 -62.502588 28.823200
v -12.119137 -62.524605 28.656374
v -12.096670 -62.518348 28.740472
v -12.095137 -62.508139 28.828662
v -12.114021 -62.495094 28.912041
v -12.192324 -62.448384 29.133542
v -12.268352 -62.387722 29.352439
v -12.722151 -62.423073 28.721573
v -12.926933 -62.387722 28.436559
v -12.695221 -62.448384 28.434169
v -12.460317 -62.495094 28.430452
v -12.808198 -62.309669 29.248113
v -13.256175 -62.265643 28.611883
v -13.154617 -62.313328 28.437612
v -13.171988 -62.302144 28.096727
v -13.338724 -62.156850 29.117012
v -12.341832 -62.313328 29.567943
v -11.139407 -62.309668 29.520828
v -11.684379 -62.387722 29.447872
v -11.686769 -62.448384 29.216160
v -11.053359 -62.423073 28.994288
v -10.594746 -62.156849 29.565435
v -10.074342 -61.931472 29.584997
v -9.786558 -61.762461 29.599897
v -10.047282 -61.762461 29.938857
v -10.364339 -61.762461 30.225816
v -11.683326 -62.313328 29.675556
v -11.781724 -62.196471 29.968301
v -11.907777 -62.313327 29.676293
v -12.341745 -62.196471 29.876782
v -12.129291 -62.313328 29.640093
v -11.609547 -62.502588 28.914718
v -11.690485 -62.495094 28.981255
v -11.681428 -62.508397 28.894344
v -11.653009 -62.518201 28.814482
v -11.604848 -62.524561 28.741219
v -11.539608 -62.526699 28.681305
v -11.464564 -62.524605 28.640076
v -11.208897 -62.495094 28.634960
v -10.987396 -62.448384 28.713263
v -10.768499 -62.387722 28.789291
v -10.673066 -62.387722 28.205318
v -10.904778 -62.448384 28.207707
v -11.139682 -62.495094 28.211424
v -10.444645 -62.313327 28.428716
v -10.445382 -62.313327 28.204265
v -10.428011 -62.302143 28.545149
v -11.001140 -61.762461 26.073383
v -10.612662 -61.762461 26.252144
v -12.394174 -61.762462 30.631055
v -12.421013 -61.935141 30.361837
v -12.797112 -61.762462 30.487837
v -13.168003 -61.762462 30.274973
v -11.648398 -55.451492 27.393244
v -11.598400 -57.451492 27.087303
v -11.845396 -60.451493 29.570114
v -11.845397 -57.451492 29.570114
v -11.648398 -55.451492 27.393244
v -11.893668 -55.451492 27.385617
v -11.413458 -55.451492 27.464093
v -11.204862 -55.451492 27.593334
v -12.132556 -55.451492 27.441730
v -11.036823 -55.451492 27.772160
v -12.348780 -55.451492 27.557759
v -10.920793 -55.451492 27.988385
v -12.527606 -55.451492 27.725798
v -10.864680 -55.451492 28.227272
v -12.656848 -55.451492 27.934395
v -10.872308 -55.451491 28.472543
v -12.727696 -55.451492 28.169334
v -10.943156 -55.451492 28.707482
v -12.735324 -55.451492 28.414605
v -11.072397 -55.451492 28.916079
v -12.679211 -55.451492 28.653492
v -11.251223 -55.451492 29.084118
v -12.563181 -55.451492 28.869717
v -11.467448 -55.451492 29.200147
v -12.395142 -55.451492 29.048543
v -11.706335 -55.451492 29.256260
v -12.186545 -55.451492 29.177784
v -11.951606 -55.451492 29.248633
v -11.904884 -62.244131 27.138827
v -10.617888 -62.244131 28.216054
v -11.695115 -62.244131 29.503050
v -12.982111 -62.244131 28.425823
v -10.732679 -62.010683 28.240304
v -10.673066 -62.387722 28.205318
v -10.617888 -62.244131 28.216054
v -10.604304 -62.266034 28.213685
v -10.587778 -62.284563 28.211514
v -10.567377 -62.300077 28.209478
v -10.545083 -62.311632 28.207726
v -10.520691 -62.318748 28.206293
v -10.495380 -62.321639 28.205198
v -10.470344 -62.319656 28.204540
v -10.445382 -62.313327 28.204265
v -10.552995 -62.313327 28.862770
v -10.768499 -62.387722 28.789291
v -10.576572 -62.319656 28.854563
v -10.600095 -62.321640 28.845969
v -10.623741 -62.318748 28.836874
v -10.646408 -62.311632 28.827750
v -10.666984 -62.300077 28.818992
v -10.685675 -62.284563 28.810568
v -10.700651 -62.266034 28.803248
v -10.712774 -62.244131 28.796679
v -10.813873 -62.010683 28.737148
v -10.987396 -62.448384 28.713263
v -10.904939 -61.800820 28.683565
v -11.208897 -62.495094 28.634960
v -11.062511 -61.439083 28.590978
v -11.174614 -61.374374 28.543099
v -11.208897 -62.495094 28.634960
v -11.174614 -61.374374 28.543099
v -11.719365 -62.010683 29.388259
v -11.778780 -61.439083 29.106025
v -11.788482 -61.374374 28.984512
v -11.684379 -62.387722 29.447872
v -11.695115 -62.244131 29.503050
v -11.692747 -62.266034 29.516633
v -11.690575 -62.284563 29.533160
v -11.688540 -62.300077 29.553561
v -11.686787 -62.311632 29.575855
v -11.685354 -62.318748 29.600246
v -11.684260 -62.321640 29.625558
v -11.683601 -62.319657 29.650593
v -11.683326 -62.313328 29.675556
v -12.341832 -62.313328 29.567943
v -12.268352 -62.387722 29.352439
v -12.333624 -62.319657 29.544366
v -12.325030 -62.321640 29.520843
v -12.315935 -62.318748 29.497196
v -12.306811 -62.311632 29.474530
v -12.298053 -62.300078 29.453954
v -12.289629 -62.284563 29.435262
v -12.282310 -62.266034 29.420287
v -12.275740 -62.244131 29.408164
v -12.216210 -62.010684 29.307065
v -12.192324 -62.448384 29.133542
v -12.162626 -61.800820 29.215999
v -12.114021 -62.495094 28.912041
v -12.070040 -61.439083 29.058427
v -12.022160 -61.374374 28.946324
v -12.114021 -62.495094 28.912041
v -12.022160 -61.374374 28.946324
v -11.139682 -62.495094 28.211424
v -11.880634 -62.010683 27.253618
v -11.915620 -62.387722 27.194005
v -11.904884 -62.244131 27.138827
v -11.907252 -62.266034 27.125243
v -11.909424 -62.284563 27.108717
v -11.911460 -62.300077 27.088316
v -11.913212 -62.311632 27.066022
v -11.914645 -62.318748 27.041630
v -11.915739 -62.321640 27.016318
v -11.916398 -62.319657 26.991283
v -11.916673 -62.313327 26.966320
v -12.867320 -62.010684 28.401573
v -12.585086 -61.439083 28.342158
v -12.463573 -61.374374 28.332456
v -12.926933 -62.387722 28.436559
v -12.982111 -62.244131 28.425823
v -12.995695 -62.266035 28.428191
v -13.012221 -62.284564 28.430362
v -13.032622 -62.300078 28.432398
v -13.054916 -62.311633 28.434151
v -13.079308 -62.318749 28.435584
v -13.104620 -62.321640 28.436678
v -13.129654 -62.319657 28.437336
v -13.154617 -62.313328 28.437612
v -13.047004 -62.313328 27.779106
v -12.831500 -62.387722 27.852586
v -13.023427 -62.319657 27.787314
v -12.999904 -62.321640 27.795908
v -12.976258 -62.318749 27.805003
v -12.953591 -62.311632 27.814126
v -12.933015 -62.300078 27.822885
v -12.914324 -62.284564 27.831309
v -12.899348 -62.266035 27.838628
v -12.887225 -62.244131 27.845198
v -12.786126 -62.010683 27.904728
v -12.612603 -62.448384 27.928614
v -12.695060 -61.800820 27.958312
v -12.391102 -62.495094 28.006916
v -12.537488 -61.439083 28.050898
v -12.425386 -61.374374 28.098778
v -12.391102 -62.495094 28.006916
v -12.425386 -61.374374 28.098778
v -11.909514 -62.495094 27.660621
v -11.258167 -62.313327 27.073934
v -11.331647 -62.387722 27.289438
v -11.266375 -62.319657 27.097510
v -11.274969 -62.321640 27.121033
v -11.284064 -62.318748 27.144680
v -11.293188 -62.311632 27.167346
v -11.301946 -62.300077 27.187923
v -11.310370 -62.284563 27.206614
v -11.317689 -62.266034 27.221590
v -11.324259 -62.244131 27.233713
v -11.383790 -62.010683 27.334812
v -11.407675 -62.448384 27.508335
v -11.437373 -61.800820 27.425878
v -11.485978 -62.495094 27.729836
v -11.529960 -61.439083 27.583450
v -11.577840 -61.374374 27.695553
v -11.831360 -60.451493 25.821135
v -11.911525 -60.451493 27.075923
v -12.264970 -60.451493 25.864558
v -12.217644 -60.451493 27.142773
v -12.684452 -60.451493 25.982617
v -13.077061 -60.451493 26.171725
v -12.497521 -60.451493 27.283651
v -13.430866 -60.451493 26.426135
v -12.733570 -60.451493 27.489705
v -13.735119 -60.451493 26.738119
v -12.910959 -60.451493 27.747990
v -13.980574 -60.451493 27.098195
v -14.159773 -60.451493 27.495424
v -13.018543 -60.451493 28.042274
v -14.267272 -60.451493 27.917736
v -13.049561 -60.451493 28.354068
v -14.299804 -60.451494 28.352298
v -14.256381 -60.451493 28.785908
v -13.002065 -60.451493 28.663781
v -14.138322 -60.451493 29.205390
v -12.879038 -60.451493 28.951951
v -13.949214 -60.451493 29.597999
v -13.694803 -60.451493 29.951804
v -12.688212 -60.451493 29.200472
v -13.382820 -60.451493 30.256057
v -12.441576 -60.451493 29.393730
v -13.022743 -60.451493 30.501512
v -12.625515 -60.451493 30.680711
v -12.154627 -60.451493 29.519579
v -12.203203 -60.451493 30.788210
v -11.845396 -60.451493 29.570114
v -11.768640 -60.451493 30.820742
v -11.533313 -60.451493 29.542158
v -11.335030 -60.451493 30.777319
v -10.915548 -60.451493 30.659260
v -11.237986 -60.451493 29.437469
v -10.522940 -60.451492 30.470152
v -10.977973 -60.451493 29.262624
v -10.169134 -60.451492 30.215741
v -9.864882 -60.451492 29.903758
v -10.769611 -60.451492 29.028609
v -9.619427 -60.451492 29.543682
v -10.625992 -60.451492 28.750129
v -9.440227 -60.451492 29.146453
v -9.332728 -60.451492 28.724141
v -10.556140 -60.451492 28.444681
v -9.300196 -60.451492 28.289578
v -10.564444 -60.451492 28.131458
v -9.343620 -60.451492 27.855968
v -9.461679 -60.451492 27.436486
v -10.650383 -60.451492 27.830141
v -9.650787 -60.451492 27.043878
v -10.808557 -60.451492 27.559662
v -9.905197 -60.451492 26.690072
v -11.029027 -60.451492 27.337017
v -10.217180 -60.451492 26.385820
v -10.577257 -60.451492 26.140365
v -11.297940 -60.451492 27.176196
v -12.537488 -61.439083 28.050898
v -12.425386 -61.374374 28.098778
v -12.565578 -61.439083 28.145723
v -12.151382 -61.235315 28.125314
v -11.800000 -61.021493 28.320938
v -12.096072 -61.214950 28.109465
v -12.042564 -61.201053 28.086033
v -11.945467 -61.201053 28.016214
v -11.800000 -61.021493 28.320938
v -11.991530 -61.195931 28.054580
v -11.906220 -61.214950 27.972948
v -11.800000 -61.021493 28.320938
v -11.873588 -61.235315 27.925561
v -11.800000 -61.021493 28.320938
v -11.847575 -61.260068 27.874751
v -11.816034 -61.316290 27.766500
v -11.722387 -61.439083 27.539410
v -11.624784 -61.439083 27.555360
v -11.800000 -61.021493 28.320938
v -11.811518 -61.374374 27.657365
v -11.821220 -61.439083 27.535852
v -11.577840 -61.374374 27.695553
v -11.608301 -61.316290 27.800447
v -11.800000 -61.021493 28.320938
v -11.529960 -61.439083 27.583450
v -11.612861 -61.260068 27.913108
v -11.604376 -61.235315 27.969556
v -11.800000 -61.021493 28.320938
v -11.588526 -61.214950 28.024866
v -11.565095 -61.201053 28.078375
v -11.495276 -61.201053 28.175471
v -11.800000 -61.021493 28.320938
v -11.533642 -61.195931 28.129409
v -11.452010 -61.214950 28.214718
v -11.800000 -61.021493 28.320938
v -11.404623 -61.235315 28.247350
v -11.800000 -61.021493 28.320938
v -11.353813 -61.260067 28.273363
v -11.245561 -61.316290 28.304905
v -11.018471 -61.439083 28.398552
v -11.034421 -61.439083 28.496154
v -11.800000 -61.021493 28.320938
v -11.136426 -61.374374 28.309420
v -11.014913 -61.439083 28.299718
v -11.174614 -61.374374 28.543099
v -11.279509 -61.316290 28.512638
v -11.800000 -61.021493 28.320938
v -11.062511 -61.439083 28.590978
v -11.392170 -61.260068 28.508077
v -11.448617 -61.235315 28.516562
v -11.800000 -61.021493 28.320938
v -11.503927 -61.214950 28.532412
v -11.557436 -61.201053 28.555843
v -11.654533 -61.201053 28.625663
v -11.800000 -61.021493 28.320938
v -11.608470 -61.195931 28.587296
v -11.693779 -61.214950 28.668929
v -11.800000 -61.021493 28.320938
v -11.726412 -61.235315 28.716316
v -11.800000 -61.021493 28.320938
v -11.752425 -61.260067 28.767125
v -11.783966 -61.316290 28.875377
v -11.877613 -61.439083 29.102467
v -11.800000 -61.021493 28.320938
v -11.788482 -61.374374 28.984512
v -11.778780 -61.439083 29.106025
v -11.877613 -61.439083 29.102467
v -11.975216 -61.439083 29.086517
v -11.800000 -61.021493 28.320938
v -12.022160 -61.374374 28.946324
v -11.991699 -61.316291 28.841429
v -11.800000 -61.021493 28.320938
v -12.070040 -61.439083 29.058427
v -11.987139 -61.260068 28.728768
v -11.995624 -61.235315 28.672321
v -11.800000 -61.021493 28.320938
v -12.011473 -61.214950 28.617011
v -12.034905 -61.201053 28.563502
v -12.104724 -61.201053 28.466405
v -11.800000 -61.021493 28.320938
v -12.066358 -61.195931 28.512468
v -12.147990 -61.214950 28.427159
v -11.800000 -61.021493 28.320938
v -12.195377 -61.235315 28.394526
v -11.800000 -61.021493 28.320938
v -12.246187 -61.260068 28.368513
v -12.354439 -61.316291 28.336972
v -12.581529 -61.439083 28.243325
v -11.800000 -61.021493 28.320938
v -12.463573 -61.374374 28.332456
v -12.585086 -61.439083 28.342158
v -11.915620 -62.387722 27.194005
v -12.219534 -62.518349 28.024267
v -12.307724 -62.508139 28.025800
v -13.681971 -62.067685 28.013386
v -13.155354 -62.313328 28.213161
v -13.119154 -62.313328 27.991646
v -12.160366 -62.526700 28.581329
v -12.373406 -62.508397 28.439510
v -12.220280 -62.524561 28.516090
v -12.293544 -62.518201 28.467929
v -9.415586 -61.762461 28.386166
v -9.918029 -62.067683 28.628491
v -11.380465 -62.518348 28.617609
v -11.292275 -62.508139 28.616076
v -10.480845 -62.313327 28.650230
v -11.226593 -62.508397 28.202367
v -11.306455 -62.518200 28.173948
v -11.831360 -60.451493 25.821135
v -11.396797 -60.451492 25.853667
v -11.415295 -61.762461 25.966860
v -10.974486 -60.451492 25.961165
v -11.001140 -61.762461 26.073383
v -10.577257 -60.451492 26.140365
v -10.612662 -61.762461 26.252144
v -10.217180 -60.451492 26.385820
v -10.262345 -61.762461 26.497397
v -9.905197 -60.451492 26.690072
v -9.961450 -61.762461 26.801261
v -9.650787 -60.451492 27.043878
v -9.719648 -61.762461 27.153969
v -9.461679 -60.451492 27.436486
v -9.544709 -61.762461 27.544184
v -9.343620 -60.451492 27.855968
v -9.442258 -61.762461 27.959364
v -9.300196 -60.451492 28.289578
v -9.415586 -61.762461 28.386166
v -9.332728 -60.451492 28.724141
v -9.465551 -61.762461 28.810871
v -9.440227 -60.451492 29.146453
v -9.590548 -61.762461 29.219829
v -9.619427 -60.451492 29.543682
v -9.786558 -61.762461 29.599897
v -9.864882 -60.451492 29.903758
v -10.047282 -61.762461 29.938857
v -10.169134 -60.451492 30.215741
v -10.364339 -61.762461 30.225816
v -10.522940 -60.451492 30.470152
v -10.727540 -61.762461 30.451551
v -10.915548 -60.451493 30.659260
v -11.125210 -61.762461 30.608807
v -11.335030 -60.451493 30.777319
v -11.544569 -61.762462 30.692528
v -11.768640 -60.451493 30.820742
v -11.972138 -61.762462 30.700025
v -12.203203 -60.451493 30.788210
v -12.394174 -61.762462 30.631055
v -12.394174 -61.762462 30.631055
v -12.203203 -60.451493 30.788210
v -12.625515 -60.451493 30.680711
v -12.797112 -61.762462 30.487837
v -13.022743 -60.451493 30.501512
v -13.168003 -61.762462 30.274973
v -13.382820 -60.451493 30.256057
v -13.494925 -61.762462 29.999304
v -13.694803 -60.451493 29.951804
v -13.767370 -61.762462 29.669691
v -13.949214 -60.451493 29.597999
v -13.976583 -61.762462 29.296729
v -14.138322 -60.451493 29.205390
v -14.115839 -61.762462 28.892403
v -14.256381 -60.451493 28.785908
v -14.180661 -61.762462 28.469711
v -14.299804 -60.451494 28.352298
v -14.168967 -61.762462 28.042236
v -14.267272 -60.451493 27.917736
v -14.081133 -61.762462 27.623720
v -14.159773 -60.451493 27.495424
v -13.919981 -61.762462 27.227612
v -13.980574 -60.451493 27.098195
v -13.690691 -61.762462 26.866645
v -13.735119 -60.451493 26.738119
v -13.400633 -61.762462 26.552420
v -13.430866 -60.451493 26.426135
v -13.059129 -61.762462 26.295037
v -13.077061 -60.451493 26.171725
v -12.677156 -61.762462 26.102768
v -12.684452 -60.451493 25.982617
v -12.266990 -61.762462 25.981793
v -12.264970 -60.451493 25.864558
v -11.841814 -61.762462 25.935999
f 1 2 3
f 1 4 5
f 1 3 4
f 4 6 5
f 5 6 7
f 6 8 7
f 7 8 9
f 8 10 9
f 9 10 11
f 10 12 11
f 11 12 13
f 12 14 13
f 13 14 15
f 14 16 15
f 15 16 17
f 16 18 17
f 17 18 19
f 18 20 19
f 19 20 21
f 20 22 21
f 21 22 23
f 22 24 23
f 23 24 25
f 24 26 25
f 25 26 27
f 26 28 27
f 27 28 29
f 28 30 29
f 29 30 31
f 30 32 31
f 31 32 33
f 32 34 33
f 33 34 35
f 34 36 35
f 35 36 37
f 36 38 37
f 37 38 39
f 38 40 39
f 39 40 41
f 40 42 41
f 41 42 43
f 42 44 43
f 43 44 45
f 44 46 45
f 45 46 47
f 46 48 47
f 47 48 49
f 48 520 49
f 49 520 521
f 50 51 52
f 50 52 53
f 50 54 51
f 51 54 55
f 52 99 53
f 53 99 98
f 54 56 55
f 55 56 57
f 56 58 57
f 57 58 59
f 58 60 59
f 59 60 61
f 60 62 61
f 61 62 63
f 62 64 63
f 63 64 65
f 64 66 65
f 65 66 67
f 66 68 67
f 67 68 69
f 68 70 69
f 69 70 71
f 70 72 71
f 71 72 73
f 72 74 73
f 73 74 75
f 74 76 75
f 75 76 77
f 76 522 77
f 77 522 523
f 78 79 80
f 78 80 81
f 78 82 79
f 79 82 83
f 82 84 83
f 83 84 85
f 84 86 85
f 85 86 87
f 86 88 87
f 87 88 89
f 88 90 89
f 89 90 91
f 90 92 91
f 91 92 93
f 92 94 93
f 93 94 95
f 94 96 95
f 95 96 97
f 96 98 97
f 97 98 99
f 100 101 102
f 101 103 105
f 101 105 102
f 102 105 131
f 103 104 105
f 103 106 104
f 104 106 107
f 104 107 126
f 104 126 128
f 104 128 105
f 105 128 131
f 106 108 107
f 107 108 109
f 107 109 124
f 107 124 126
f 108 110 109
f 109 111 112
f 109 110 111
f 109 112 121
f 109 121 124
f 111 113 112
f 112 115 116
f 112 113 115
f 112 116 121
f 113 114 115
f 115 117 116
f 116 117 118
f 116 118 119
f 116 120 121
f 116 119 120
f 120 122 121
f 121 123 124
f 121 122 123
f 123 125 124
f 124 125 126
f 125 127 126
f 126 127 128
f 127 129 128
f 128 129 131
f 129 130 131
f 132 133 134
f 132 135 133
f 133 135 136
f 135 137 136
f 136 138 139
f 136 137 138
f 138 140 139
f 139 140 141
f 139 141 142
f 139 142 548
f 143 144 145
f 144 146 148
f 144 148 145
f 145 148 174
f 146 147 148
f 146 149 147
f 147 149 150
f 147 150 169
f 147 169 171
f 147 171 148
f 148 171 174
f 149 151 150
f 150 151 152
f 150 152 167
f 150 167 169
f 151 153 152
f 152 154 155
f 152 153 154
f 152 155 164
f 152 164 167
f 154 156 155
f 155 158 159
f 155 156 158
f 155 159 164
f 156 157 158
f 158 160 159
f 159 160 161
f 159 161 162
f 159 163 164
f 159 162 163
f 163 165 164
f 164 166 167
f 164 165 166
f 166 168 167
f 167 168 169
f 168 170 169
f 169 170 171
f 170 172 171
f 171 172 174
f 172 173 174
f 175 176 177
f 175 178 176
f 176 178 179
f 178 180 179
f 179 181 182
f 179 180 181
f 181 183 182
f 182 183 184
f 182 184 185
f 182 185 549
f 186 187 188
f 187 189 191
f 187 191 188
f 188 191 217
f 189 190 191
f 189 192 190
f 190 192 193
f 190 193 212
f 190 212 214
f 190 214 191
f 191 214 217
f 192 194 193
f 193 194 195
f 193 195 210
f 193 210 212
f 194 196 195
f 195 197 198
f 195 196 197
f 195 198 207
f 195 207 210
f 197 199 198
f 198 201 202
f 198 199 201
f 198 202 207
f 199 200 201
f 201 203 202
f 202 203 204
f 202 204 205
f 202 206 207
f 202 205 206
f 206 208 207
f 207 209 210
f 207 208 209
f 209 211 210
f 210 211 212
f 211 213 212
f 212 213 214
f 213 215 214
f 214 215 217
f 215 216 217
f 218 219 220
f 218 221 219
f 219 221 222
f 221 223 222
f 222 224 225
f 222 223 224
f 224 226 225
f 225 226 227
f 225 227 228
f 225 228 550
f 229 230 231
f 230 232 234
f 230 234 231
f 231 234 260
f 232 233 234
f 232 235 233
f 233 235 236
f 233 236 255
f 233 255 257
f 233 257 234
f 234 257 260
f 235 237 236
f 236 237 238
f 236 238 253
f 236 253 255
f 237 239 238
f 238 240 241
f 238 239 240
f 238 241 250
f 238 250 253
f 240 242 241
f 241 244 245
f 241 242 244
f 241 245 250
f 242 243 244
f 244 246 245
f 245 246 247
f 245 247 248
f 245 249 250
f 245 248 249
f 249 251 250
f 250 252 253
f 250 251 252
f 252 254 253
f 253 254 255
f 254 256 255
f 255 256 257
f 256 258 257
f 257 258 260
f 258 259 260
f 261 262 263
f 261 264 262
f 262 264 265
f 264 266 265
f 265 267 268
f 265 266 267
f 267 269 268
f 268 269 270
f 268 270 271
f 268 271 551
f 272 273 274
f 272 274 275
f 272 276 273
f 273 276 552
f 276 553 552
f 277 278 279
f 277 280 278
f 278 281 282
f 278 280 281
f 281 283 282
f 282 283 284
f 283 285 284
f 284 286 287
f 284 285 286
f 286 288 287
f 287 289 290
f 287 288 289
f 289 291 290
f 290 292 293
f 290 291 292
f 292 294 293
f 293 295 296
f 293 294 295
f 295 580 296
f 296 580 579
f 297 298 299
f 297 581 298
f 297 584 581
f 298 582 299
f 299 582 583
f 300 301 302
f 300 303 301
f 301 304 305
f 301 303 304
f 304 306 305
f 305 306 307
f 306 308 307
f 307 309 310
f 307 308 309
f 309 311 310
f 310 312 313
f 310 311 312
f 312 314 313
f 313 315 316
f 313 314 315
f 315 317 316
f 316 318 319
f 316 317 318
f 318 611 319
f 319 611 610
f 320 321 322
f 321 338 340
f 321 340 322
f 323 324 325
f 323 326 324
f 324 326 327
f 324 612 325
f 326 328 327
f 327 328 329
f 328 330 329
f 329 331 332
f 329 330 331
f 331 333 332
f 332 334 335
f 332 333 334
f 334 336 335
f 335 337 338
f 335 336 337
f 337 339 338
f 338 339 340
f 341 342 343
f 341 343 344
f 341 345 342
f 342 345 613
f 345 614 613
f 346 347 348
f 346 624 347
f 346 627 624
f 347 625 348
f 348 625 626
f 349 350 351
f 349 352 350
f 350 352 353
f 350 655 351
f 352 354 353
f 353 354 355
f 354 356 355
f 355 357 358
f 355 356 357
f 357 359 358
f 358 360 361
f 358 359 360
f 360 362 361
f 361 363 364
f 361 362 363
f 363 365 364
f 364 366 367
f 364 365 366
f 366 654 367
f 367 654 653
f 368 369 370
f 368 729 728
f 368 370 729
f 369 672 370
f 370 672 673
f 371 372 373
f 371 732 372
f 372 732 731
f 373 733 734
f 374 375 376
f 374 376 377
f 374 378 375
f 374 377 515
f 375 379 380
f 375 378 379
f 375 452 453
f 375 380 452
f 375 453 376
f 376 449 448
f 376 453 449
f 376 448 377
f 377 448 445
f 377 514 515
f 377 445 514
f 379 381 380
f 380 382 383
f 380 381 382
f 380 451 452
f 380 383 451
f 382 831 383
f 383 513 451
f 383 831 832
f 383 832 513
f 384 385 386
f 384 387 388
f 384 388 385
f 385 424 421
f 385 388 424
f 387 490 388
f 388 488 424
f 388 489 488
f 388 490 489
f 389 390 391
f 389 391 492
f 389 394 390
f 389 392 394
f 390 493 484
f 390 484 488
f 390 488 391
f 390 494 493
f 390 396 494
f 390 394 396
f 391 489 491
f 391 491 492
f 391 488 489
f 392 393 394
f 393 395 396
f 393 396 394
f 395 516 396
f 396 516 517
f 396 517 494
f 397 398 399
f 397 399 400
f 397 401 398
f 397 400 519
f 398 402 403
f 398 401 402
f 398 482 478
f 398 478 399
f 398 403 482
f 399 478 483
f 399 483 496
f 399 496 400
f 400 517 518
f 400 496 517
f 400 518 519
f 402 404 403
f 403 404 405
f 403 479 482
f 403 405 479
f 404 406 405
f 405 406 407
f 405 481 479
f 405 824 481
f 405 407 824
f 408 409 410
f 408 410 411
f 408 412 409
f 409 425 428
f 409 428 442
f 409 412 425
f 409 442 410
f 410 442 466
f 412 426 425
f 413 414 415
f 413 415 416
f 413 417 414
f 413 416 443
f 414 417 418
f 414 418 420
f 414 420 415
f 415 428 416
f 415 439 428
f 415 420 444
f 415 447 439
f 415 444 447
f 416 425 427
f 416 427 443
f 416 428 425
f 418 419 420
f 419 445 420
f 419 514 445
f 420 445 444
f 421 422 423
f 421 424 422
f 422 424 507
f 424 488 484
f 424 487 507
f 424 484 487
f 425 426 427
f 428 439 442
f 429 430 431
f 429 431 432
f 429 433 434
f 429 434 435
f 429 436 437
f 429 437 438
f 429 438 430
f 429 432 433
f 429 435 436
f 430 438 510
f 430 510 836
f 430 836 837
f 437 453 438
f 437 449 453
f 438 508 509
f 438 509 510
f 438 453 452
f 438 452 451
f 438 451 508
f 439 440 441
f 439 441 442
f 439 447 821
f 439 821 440
f 440 455 454
f 440 454 441
f 441 454 460
f 441 460 461
f 441 462 463
f 441 463 442
f 441 461 462
f 442 463 464
f 442 465 466
f 442 464 465
f 444 446 447
f 444 448 446
f 444 445 448
f 446 448 450
f 448 449 450
f 451 511 512
f 451 512 508
f 451 513 511
f 454 455 456
f 454 457 458
f 454 458 459
f 454 456 457
f 454 459 460
f 460 822 461
f 461 822 823
f 467 468 469
f 467 469 470
f 467 471 472
f 467 472 473
f 467 473 474
f 467 477 827
f 467 474 477
f 467 827 468
f 467 470 471
f 473 478 474
f 473 483 478
f 474 475 476
f 474 476 477
f 474 479 475
f 474 482 479
f 474 478 482
f 475 479 480
f 477 828 827
f 479 481 480
f 480 481 825
f 481 826 825
f 483 497 496
f 484 485 486
f 484 486 487
f 484 493 485
f 486 498 487
f 486 499 498
f 487 498 505
f 487 506 507
f 487 505 506
f 489 490 491
f 493 494 495
f 494 496 495
f 494 517 496
f 495 496 497
f 498 499 500
f 498 500 501
f 498 502 503
f 498 503 504
f 498 833 505
f 498 501 502
f 498 504 833
f 505 833 834
f 511 513 835
f 516 518 517
f 524 525 526
f 525 527 526
f 525 528 527
f 527 528 529
f 528 530 529
f 529 530 531
f 530 532 531
f 531 532 533
f 532 534 533
f 533 534 535
f 534 536 535
f 535 536 537
f 536 538 537
f 537 538 539
f 538 540 539
f 539 540 541
f 540 542 541
f 541 542 543
f 542 544 543
f 543 544 545
f 544 546 545
f 545 546 547
f 552 553 554
f 553 555 554
f 553 556 555
f 553 557 556
f 553 558 557
f 553 559 558
f 553 560 559
f 553 561 560
f 553 562 561
f 563 564 565
f 564 566 565
f 564 567 566
f 564 568 567
f 564 569 568
f 564 570 569
f 564 571 570
f 564 572 571
f 564 573 572
f 564 574 573
f 573 574 575
f 574 576 575
f 575 576 577
f 576 578 577
f 581 584 585
f 584 586 585
f 584 587 586
f 584 588 587
f 584 589 588
f 584 590 589
f 584 591 590
f 584 592 591
f 584 593 592
f 594 595 596
f 595 597 596
f 595 598 597
f 595 599 598
f 595 600 599
f 595 601 600
f 595 602 601
f 595 603 602
f 595 604 603
f 595 605 604
f 604 605 606
f 605 607 606
f 606 607 608
f 607 609 608
f 613 614 615
f 614 616 615
f 614 617 616
f 614 618 617
f 614 619 618
f 614 620 619
f 614 621 620
f 614 622 621
f 614 623 622
f 624 627 628
f 627 629 628
f 627 630 629
f 627 631 630
f 627 632 631
f 627 633 632
f 627 634 633
f 627 635 634
f 627 636 635
f 637 638 639
f 638 640 639
f 638 641 640
f 638 642 641
f 638 643 642
f 638 644 643
f 638 645 644
f 638 646 645
f 638 647 646
f 638 648 647
f 647 648 649
f 648 650 649
f 649 650 651
f 650 652 651
f 656 657 658
f 657 659 658
f 657 660 659
f 657 661 660
f 657 662 661
f 657 663 662
f 657 664 663
f 657 665 664
f 657 666 665
f 657 667 666
f 666 667 668
f 667 669 668
f 668 669 670
f 669 671 670
f 672 674 673
f 673 674 675
f 674 676 675
f 675 676 677
f 675 677 678
f 677 679 678
f 678 679 680
f 679 681 680
f 680 681 682
f 681 683 682
f 682 683 684
f 682 684 685
f 684 686 685
f 685 686 687
f 686 688 687
f 687 688 689
f 687 689 690
f 689 691 690
f 690 691 692
f 691 693 692
f 692 693 694
f 692 694 695
f 694 696 695
f 695 696 697
f 696 698 697
f 697 698 699
f 697 699 700
f 699 701 700
f 700 701 702
f 701 703 702
f 702 703 704
f 703 705 704
f 704 705 706
f 704 706 707
f 706 708 707
f 707 708 709
f 708 710 709
f 709 710 711
f 709 711 712
f 711 713 712
f 712 713 714
f 713 715 714
f 714 715 716
f 714 716 717
f 716 718 717
f 717 718 719
f 718 720 719
f 719 720 721
f 719 721 722
f 721 723 722
f 722 723 724
f 723 725 724
f 724 725 726
f 725 727 726
f 726 727 728
f 726 728 729
f 730 731 732
f 732 816 817
f 732 818 816
f 733 735 734
f 734 735 736
f 736 739 741
f 737 738 739
f 737 740 738
f 740 742 743
f 742 744 743
f 743 744 745
f 745 746 747
f 745 747 748
f 745 749 746
f 746 749 750
f 747 751 752
f 747 752 753
f 747 754 751
f 752 755 753
f 755 756 757
f 756 758 757
f 757 758 759
f 759 762 764
f 760 761 762
f 760 763 761
f 763 765 766
f 765 767 766
f 766 767 768
f 768 769 770
f 768 770 771
f 768 772 769
f 769 772 773
f 770 774 775
f 770 775 776
f 770 777 774
f 775 778 776
f 778 779 780
f 779 781 780
f 780 781 782
f 782 785 787
f 783 784 785
f 783 786 784
f 786 788 789
f 788 790 789
f 789 790 791
f 791 792 793
f 791 794 792
f 792 794 795
f 796 797 798
f 797 799 800
f 797 800 801
f 797 802 799
f 800 803 801
f 803 804 805
f 804 806 805
f 805 806 807
f 807 810 812
f 808 809 810
f 808 811 809
f 811 813 814
f 813 815 814
f 814 815 816
f 816 819 817
f 817 819 820
f 827 828 829
f 828 830 829
f 838 839 840
f 838 910 909
f 838 840 910
f 839 841 840
f 840 841 842
f 841 843 842
f 842 843 844
f 843 845 844
f 844 845 846
f 845 847 846
f 846 847 848
f 847 849 848
f 848 849 850
f 849 851 850
f 850 851 852
f 851 853 852
f 852 853 854
f 853 855 854
f 854 855 856
f 855 857 856
f 856 857 858
f 857 859 858
f 858 859 860
f 859 861 860
f 860 861 862
f 861 863 862
f 862 863 864
f 863 865 864
f 864 865 866
f 865 867 866
f 866 867 868
f 867 869 868
f 868 869 870
f 869 871 870
f 870 871 872
f 871 873 872
f 872 873 874
f 873 875 874
f 874 875 876
f 877 878 879
f 877 879 880
f 879 881 880
f 880 881 882
f 881 883 882
f 882 883 884
f 883 885 884
f 884 885 886
f 885 887 886
f 886 887 888
f 887 889 888
f 888 889 890
f 889 891 890
f 890 891 892
f 891 893 892
f 892 893 894
f 893 895 894
f 894 895 896
f 895 897 896
f 896 897 898
f 897 899 898
f 898 899 900
f 899 901 900
f 900 901 902
f 901 903 902
f 902 903 904
f 903 905 904
f 904 905 906
f 905 907 906
f 906 907 908
f 907 909 908
f 908 909 910