# ANSI B18.3.4M - M3 x 0.5 x 8(1)
# Autodesk dbId: 87
# Units: mm
o 087_ANSI_B18.3.4M_-_M3_x_0.5_x_8(1)
v 30.160000 -19.615852 19.320938
v 30.156592 -19.591537 19.220846
v 30.156592 -19.809893 19.549499
v 30.160000 -19.870122 19.652309
v 30.159999 -19.456012 18.935048
v 30.159999 -20.201493 17.135298
v 30.156592 -20.578182 17.004807
v 30.156592 -20.214434 17.157712
v 30.160000 -20.587383 16.975457
v 30.156592 -20.968527 16.947165
v 30.159999 -21.001493 16.920938
v 30.156592 -21.360944 16.988410
v 30.159999 -21.415603 16.975457
v 30.156592 -21.730775 17.125949
v 30.159999 -21.801493 17.135298
v 30.156592 -22.054783 17.351140
v 30.159999 -22.132864 17.389567
v 30.156592 -22.312609 17.649834
v 30.159999 -22.387133 17.720938
v 30.156592 -22.488053 18.003263
v 30.159999 -22.546974 18.106828
v 30.156592 -22.570090 18.389219
v 30.159999 -22.601493 18.520938
v 30.156592 -22.553567 18.783452
v 30.159999 -22.546974 18.935049
v 30.156592 -22.439521 19.161189
v 30.160000 -22.387133 19.320938
v 30.156592 -22.235119 19.498698
v 30.160000 -22.132864 19.652309
v 30.156592 -21.953203 19.774770
v 30.160000 -21.801493 19.906579
v 30.156592 -21.611488 19.972059
v 30.160000 -21.415603 20.066419
v 30.156592 -21.231445 20.078169
v 30.160000 -21.001493 20.120938
v 30.156592 -20.836953 20.086433
v 30.159999 -20.587382 20.066419
v 30.156592 -20.452799 19.996330
v 30.159999 -20.201493 19.906579
v 30.156592 -20.103122 19.813524
v 30.060000 -19.702455 19.270938
v 30.085881 -19.863421 19.503295
v 30.085881 -19.654873 19.189406
v 30.060000 -19.552604 18.909166
v 30.060000 -19.940833 19.581598
v 30.059999 -19.940833 17.460278
v 30.085882 -19.715532 17.742132
v 30.085881 -19.949614 17.446795
v 30.060000 -19.702455 17.770938
v 30.085881 -19.562252 18.086405
v 30.060000 -19.552604 18.132709
v 30.085881 -19.499404 18.457982
v 30.060000 -19.501493 18.520938
v 30.085881 -19.530939 18.833514
v 30.156592 -19.461773 18.848215
v 30.146602 -19.613140 19.210122
v 30.146602 -19.485364 18.843201
v 30.130711 -19.631691 19.200914
v 30.146602 -19.828151 19.533740
v 30.130710 -19.505622 18.838895
v 30.110000 -19.645925 19.193848
v 30.130710 -19.843829 19.520207
v 30.109999 -19.521167 18.835591
v 30.110000 -19.855859 19.509823
v 30.085881 -20.143478 19.755460
v 30.130710 -20.128707 19.776713
v 30.110000 -20.137777 19.763663
v 30.146602 -20.116887 19.793719
v 30.159999 -19.401493 18.520938
v 30.156592 -19.428756 18.455021
v 30.146602 -19.452853 18.456031
v 30.130710 -19.473545 18.456898
v 30.110000 -19.489423 18.457563
v 30.160000 -19.456012 18.106828
v 30.156592 -19.494559 18.065968
v 30.146602 -19.517648 18.072939
v 30.130710 -19.537475 18.078925
v 30.110000 -19.552688 18.083518
v 30.160000 -19.615853 17.720938
v 30.156592 -19.655049 17.705502
v 30.146602 -19.675679 17.717996
v 30.130710 -19.693394 17.728725
v 30.110000 -19.706987 17.736957
v 30.160000 -19.870122 17.389567
v 30.156592 -19.900140 17.396274
v 30.146602 -19.917015 17.413505
v 30.130710 -19.931506 17.428303
v 30.110000 -19.942624 17.439657
v 30.156592 -20.214434 17.157712
v 30.146602 -20.226493 17.178599
v 30.159999 -20.201493 17.135298
v 30.130710 -20.236848 17.196535
v 30.110000 -20.244794 17.210298
v 30.085881 -20.249789 17.218949
v 30.060000 -20.251493 17.221900
v 30.146602 -20.584667 17.028036
v 30.146602 -20.969032 16.971278
v 30.130710 -20.590237 17.047984
v 30.146602 -20.226493 17.178599
v 30.130710 -20.969466 16.991984
v 30.110000 -20.594510 17.063290
v 30.130710 -20.236848 17.196535
v 30.110000 -20.969799 17.007873
v 30.085882 -20.970008 17.017861
v 30.085881 -20.597197 17.072912
v 30.110000 -20.244794 17.210298
v 30.059999 -20.613265 17.072049
v 30.060000 -20.251493 17.221900
v 30.085881 -20.249789 17.218949
v 30.146602 -21.355437 17.011891
v 30.130710 -21.350708 17.032054
v 30.109999 -21.347079 17.047526
v 30.085881 -21.344797 17.057253
v 30.060000 -21.001493 17.020938
v 30.146602 -21.719602 17.147323
v 30.130710 -21.710007 17.165677
v 30.110000 -21.702644 17.179760
v 30.085881 -21.698016 17.188613
v 30.060000 -21.389722 17.072049
v 30.146602 -22.038645 17.369064
v 30.130710 -22.024787 17.384455
v 30.109999 -22.014153 17.396265
v 30.085881 -22.007469 17.403689
v 30.060000 -21.751493 17.221900
v 30.146602 -22.292521 17.663181
v 30.130710 -22.275270 17.674642
v 30.109999 -22.262034 17.683437
v 30.085881 -22.253713 17.688965
v 30.060000 -22.062153 17.460278
v 30.146602 -22.465276 18.011195
v 30.130710 -22.445717 18.018006
v 30.110000 -22.430710 18.023232
v 30.085881 -22.421275 18.026518
v 30.060000 -22.300531 17.770938
v 30.146602 -22.546057 18.391237
v 30.130710 -22.525419 18.392970
v 30.109999 -22.509582 18.394300
v 30.085881 -22.499627 18.395136
v 30.059999 -22.450381 18.132710
v 30.146602 -22.529786 18.779430
v 30.130710 -22.509366 18.775976
v 30.109999 -22.493697 18.773325
v 30.085881 -22.483846 18.771659
v 30.059999 -22.501493 18.520938
v 30.146602 -22.417488 19.151380
v 30.130710 -22.398568 19.142956
v 30.109999 -22.384050 19.136492
v 30.085882 -22.374924 19.132429
v 30.059999 -22.450381 18.909167
v 30.146602 -22.216218 19.483717
v 30.130710 -22.199987 19.470853
v 30.110000 -22.187532 19.460982
v 30.085881 -22.179703 19.454776
v 30.060000 -22.300531 19.270938
v 30.146602 -21.938621 19.755559
v 30.130710 -21.926100 19.739063
v 30.110000 -21.916491 19.726404
v 30.085881 -21.910451 19.718447
v 30.059999 -22.062153 19.581598
v 30.146602 -21.602142 19.949826
v 30.130710 -21.594116 19.930733
v 30.110000 -21.587958 19.916083
v 30.085881 -21.584087 19.906874
v 30.060000 -21.751493 19.819976
v 30.146602 -21.227921 20.054310
v 30.130710 -21.224896 20.033821
v 30.110000 -21.222575 20.018100
v 30.085881 -21.221115 20.008217
v 30.059999 -21.389721 19.969827
v 30.146602 -20.839474 20.062447
v 30.130710 -20.841639 20.041850
v 30.109999 -20.843300 20.026045
v 30.085882 -20.844344 20.016109
v 30.060000 -21.001493 20.020938
v 30.146602 -20.461206 19.973725
v 30.130711 -20.468425 19.954313
v 30.109999 -20.473965 19.939418
v 30.085881 -20.477447 19.930055
v 30.060000 -20.613264 19.969827
v 30.060000 -20.251493 19.819976
v 20.466726 -19.702456 19.270938
v 30.060000 -19.940833 19.581598
v 30.060000 -19.702455 19.270938
v 20.466726 -19.552605 18.909166
v 20.466726 -19.940833 19.581598
v 30.060000 -20.251493 19.819976
v 20.466726 -20.251494 19.819976
v 30.060000 -20.613264 19.969827
v 20.466726 -20.613265 19.969826
v 30.060000 -21.001493 20.020938
v 20.466726 -21.001493 20.020938
v 30.059999 -21.389721 19.969827
v 20.466726 -21.389722 19.969827
v 30.060000 -21.751493 19.819976
v 20.466726 -21.751493 19.819976
v 30.059999 -22.062153 19.581598
v 20.466726 -22.062154 19.581598
v 30.060000 -22.300531 19.270938
v 20.466726 -22.300531 19.270938
v 30.059999 -22.450381 18.909167
v 20.466726 -22.450382 18.909166
v 30.059999 -22.501493 18.520938
v 20.466726 -22.501493 18.520938
v 30.059999 -22.450381 18.132710
v 20.466726 -22.450382 18.132709
v 30.060000 -22.300531 17.770938
v 20.466726 -22.300532 17.770938
v 30.060000 -22.062153 17.460278
v 30.060000 -22.300531 17.770938
v 20.466726 -22.062154 17.460278
v 30.060000 -21.751493 17.221900
v 20.466726 -21.751493 17.221900
v 30.060000 -21.389722 17.072049
v 20.466726 -21.389722 17.072049
v 30.060000 -21.001493 17.020938
v 20.466726 -21.001494 17.020938
v 30.059999 -20.613265 17.072049
v 20.466726 -20.613265 17.072049
v 30.060000 -20.251493 17.221900
v 20.466726 -20.251494 17.221900
v 30.059999 -19.940833 17.460278
v 20.466726 -19.940834 17.460278
v 30.060000 -19.702455 17.770938
v 20.466726 -19.702456 17.770938
v 30.060000 -19.552604 18.132709
v 20.466726 -19.552605 18.132709
v 30.060000 -19.501493 18.520938
v 20.466726 -19.501494 18.520938
v 30.060000 -19.552604 18.909166
v 30.160000 -18.858749 20.400073
v 30.160000 -18.533321 19.945938
v 30.160000 -19.615852 19.320938
v 31.809999 -19.633173 19.310938
v 31.766725 -19.194087 19.134469
v 31.766725 -19.348510 19.475288
v 31.766725 -19.566456 19.779431
v 31.809999 -19.475330 18.929872
v 31.809999 -19.475330 18.112004
v 31.809999 -19.633173 17.730938
v 31.766725 -19.289632 17.676741
v 31.809999 -19.884264 17.403709
v 31.766725 -19.487219 17.358995
v 31.809999 -20.211493 17.152618
v 31.766725 -19.743000 17.085901
v 31.809999 -21.410427 16.994775
v 31.809999 -21.791493 17.152618
v 31.766725 -21.845689 16.809077
v 31.809999 -22.118721 17.403710
v 31.766725 -22.163436 17.006665
v 31.809999 -22.369813 17.730938
v 31.766725 -22.436529 17.262445
v 31.809999 -22.527655 18.929872
v 31.809999 -22.369813 19.310938
v 31.766725 -22.713354 19.365135
v 31.809999 -22.118721 19.638167
v 31.766725 -22.515766 19.682881
v 31.809999 -21.791493 19.889258
v 31.766725 -22.259986 19.955975
v 31.809999 -20.592559 20.047101
v 31.809999 -20.211493 19.889258
v 31.766725 -20.157296 20.232799
v 31.809999 -19.884264 19.638167
v 31.766725 -19.839550 20.035212
v 30.540000 -18.858749 20.400073
v 30.868700 -19.292867 20.747663
v 30.868700 -18.891285 20.371541
v 30.540000 -19.266523 20.781995
v 30.868700 -19.760110 21.038214
v 30.540000 -19.740970 21.077025
v 30.868700 -20.275059 21.232027
v 30.540000 -20.263859 21.273826
v 30.868700 -20.817924 21.321654
v 30.540000 -20.815094 21.364836
v 30.868700 -21.367844 21.303652
v 30.540000 -21.373492 21.346556
v 30.868700 -21.903685 21.178711
v 30.540000 -21.917595 21.219689
v 30.868700 -22.404855 20.951634
v 30.540000 -22.426493 20.989110
v 30.868700 -22.852095 20.631146
v 30.540000 -22.880628 20.663682
v 30.868700 -23.228218 20.229564
v 30.540000 -23.262550 20.255908
v 30.868700 -23.518768 19.762321
v 30.539999 -23.557580 19.781461
v 30.868700 -23.712581 19.247372
v 30.540000 -23.754381 19.258572
v 30.868699 -23.802209 18.704507
v 30.539999 -23.845390 18.707337
v 30.868700 -23.784206 18.154587
v 30.540000 -23.827110 18.148939
v 30.868699 -23.659266 17.618746
v 30.540000 -23.700244 17.604836
v 30.868700 -23.432188 17.117575
v 30.539999 -23.469665 17.095938
v 30.868700 -23.111701 16.670335
v 30.539999 -23.144236 16.641803
v 30.868700 -22.710119 16.294213
v 30.539999 -22.736463 16.259881
v 30.868700 -22.242876 16.003662
v 30.540000 -22.262016 15.964851
v 30.868700 -21.727927 15.809850
v 30.540000 -21.739127 15.768050
v 30.868700 -21.185062 15.720222
v 30.539999 -21.187892 15.677040
v 30.868700 -20.635142 15.738224
v 30.540000 -20.629494 15.695320
v 30.868700 -20.099301 15.863165
v 30.540000 -20.085391 15.822187
v 30.540000 -19.576493 16.052766
v 30.868700 -19.598130 16.090242
v 30.540000 -19.122358 16.378195
v 30.540000 -18.740436 16.785968
v 30.868700 -18.774768 16.812312
v 30.539999 -18.445406 17.260415
v 30.868700 -18.484218 17.279555
v 30.540000 -18.248605 17.783304
v 30.868700 -18.290405 17.794504
v 30.540000 -18.157595 18.334539
v 30.868700 -18.200777 18.337369
v 30.540000 -18.175875 18.892938
v 30.868700 -18.218779 18.887289
v 30.540000 -18.302742 19.437040
v 30.868700 -18.343720 19.423130
v 30.540000 -18.533321 19.945938
v 30.868700 -18.570797 19.924301
v 30.868700 -19.598130 16.090242
v 30.540000 -19.576493 16.052766
v 30.868700 -19.150890 16.410730
v 31.175000 -19.234544 16.506118
v 31.766725 -19.109122 18.770073
v 31.639852 -18.904043 19.232926
v 31.438025 -18.654976 19.317473
v 31.639852 -19.083247 19.628438
v 31.175000 -18.463860 19.382348
v 31.438025 -18.855460 19.759951
v 31.174999 -18.680673 19.860864
v 31.809999 -19.421493 18.520938
v 31.766725 -19.096880 18.396103
v 31.639852 -18.805443 18.810053
v 31.438025 -18.544668 18.844385
v 31.175000 -18.344567 18.870729
v 31.766725 -19.157830 18.026930
v 31.639852 -18.791236 18.376070
v 31.438025 -18.528773 18.358867
v 31.175000 -18.327379 18.345667
v 31.639852 -19.244215 17.172531
v 31.639852 -19.014920 17.541269
v 31.438025 -19.035543 17.012412
v 31.438025 -18.779020 17.424936
v 31.639852 -18.861967 17.947654
v 31.174999 -18.598007 17.335670
v 31.438025 -18.607904 17.879578
v 31.175000 -18.412955 17.827341
v 31.639852 -19.541042 16.855613
v 31.438025 -19.367617 16.657860
v 31.175000 -18.875423 16.889547
v 31.766725 -20.047143 16.867955
v 31.639852 -19.893993 16.602692
v 31.438025 -19.762480 16.374905
v 31.175000 -19.661567 16.200118
v 31.766725 -20.387962 16.713533
v 31.809999 -20.211493 17.152618
v 31.809999 -20.592559 16.994775
v 31.766725 -20.752358 16.628567
v 31.639852 -20.289505 16.423488
v 31.766725 -20.047143 16.867955
v 31.639852 -20.712377 16.324888
v 31.438025 -20.678046 16.064113
v 31.438025 -20.204958 16.174421
v 31.175000 -20.651702 15.864012
v 31.174999 -20.140083 15.983305
v 31.809999 -21.001493 16.940938
v 31.766725 -21.126328 16.616325
v 31.639852 -21.146361 16.310681
v 31.438025 -21.163564 16.048219
v 31.174999 -21.176764 15.846824
v 31.766725 -21.495501 16.677276
v 31.639852 -21.574777 16.381412
v 31.438025 -21.642853 16.127349
v 31.174999 -21.695090 15.932400
v 31.639852 -22.349899 16.763661
v 31.639852 -21.981162 16.534365
v 31.438025 -22.510019 16.554988
v 31.438025 -22.097496 16.298465
v 31.175000 -22.186761 16.117452
v 31.174999 -22.632884 16.394868
v 31.639852 -22.666818 17.060487
v 31.438025 -22.864571 16.887062
v 31.174999 -23.016312 16.753989
v 31.766725 -22.654475 17.566588
v 31.639852 -22.919739 17.413438
v 31.438025 -23.147526 17.281926
v 31.174999 -23.322313 17.181012
v 31.766725 -22.808898 17.907407
v 31.809999 -22.527655 18.112004
v 31.766725 -22.893864 18.271803
v 31.639852 -23.197543 18.231823
v 31.639852 -23.098943 17.808950
v 31.438025 -23.458318 18.197491
v 31.438025 -23.348010 17.724403
v 31.174999 -23.658418 18.171147
v 31.174999 -23.539125 17.659528
v 31.809999 -22.581493 18.520938
v 31.766725 -22.906106 18.645773
v 31.639852 -23.211750 18.665806
v 31.438025 -23.474212 18.683009
v 31.174999 -23.675607 18.696209
v 31.766725 -22.845155 19.014946
v 31.639852 -23.141018 19.094222
v 31.438025 -23.395081 19.162298
v 31.174999 -23.590031 19.214535
v 31.639852 -22.758770 19.869345
v 31.639852 -22.988066 19.500607
v 31.438025 -22.967442 20.029464
v 31.174999 -23.404979 19.706206
v 31.438025 -23.223966 19.616941
v 31.175000 -23.127562 20.152329
v 31.639852 -22.461943 20.186263
v 31.438025 -22.635368 20.384016
v 31.174999 -22.768442 20.535758
v 31.766725 -21.955843 20.173921
v 31.639852 -22.108992 20.439184
v 31.438025 -22.240505 20.666971
v 31.174999 -22.341419 20.841758
v 31.766725 -21.615024 20.328343
v 31.809999 -21.410427 20.047101
v 31.766725 -21.250628 20.413309
v 31.639852 -21.290608 20.716988
v 31.639852 -21.713481 20.618388
v 31.438025 -21.324940 20.977764
v 31.438025 -21.798028 20.867455
v 31.175000 -21.351284 21.177864
v 31.174999 -21.862903 21.058571
v 31.809999 -21.001493 20.100938
v 31.766725 -20.876658 20.425551
v 31.639852 -20.856625 20.731195
v 31.438025 -20.839422 20.993658
v 31.174999 -20.826222 21.195052
v 31.766725 -20.507485 20.364601
v 31.639852 -20.428209 20.660463
v 31.438025 -20.360133 20.914527
v 31.174999 -20.307896 21.109476
v 31.639852 -19.653086 20.278216
v 31.639852 -20.021823 20.507511
v 31.438025 -19.492967 20.486888
v 31.174999 -19.816224 20.924424
v 31.438025 -19.905490 20.743411
v 31.175000 -19.370102 20.647008
v 31.639852 -19.336168 19.981389
v 31.438025 -19.138415 20.154814
v 31.174999 -18.986673 20.287887
v 31.809999 -20.424143 19.520938
v 31.809999 -19.633173 19.310938
v 31.809999 -19.884264 19.638167
v 31.809999 -20.211493 19.889258
v 31.809999 -21.001493 20.100938
v 31.809999 -21.578843 19.520938
v 31.809999 -20.592559 20.047101
v 31.809999 -19.846792 18.520938
v 31.809999 -19.633173 17.730938
v 31.809999 -19.475330 18.112004
v 31.809999 -19.421493 18.520938
v 31.809999 -19.475330 18.929872
v 31.809999 -20.424143 17.520938
v 31.809999 -21.001493 16.940938
v 31.809999 -20.592559 16.994775
v 31.809999 -20.211493 17.152618
v 31.809999 -19.884264 17.403709
v 31.809999 -21.578843 17.520938
v 31.809999 -22.369813 17.730938
v 31.809999 -22.118721 17.403710
v 31.809999 -21.791493 17.152618
v 31.809999 -21.410427 16.994775
v 31.809999 -22.156193 18.520938
v 31.809999 -22.369813 19.310938
v 31.809999 -22.527655 18.929872
v 31.809999 -22.581493 18.520938
v 31.809999 -22.527655 18.112004
v 31.809999 -21.410427 20.047101
v 31.809999 -21.791493 19.889258
v 31.809999 -22.118721 19.638167
v 30.770000 -22.156193 18.520938
v 30.701788 -22.003941 18.784646
v 31.809999 -22.156193 18.520938
v 30.770000 -21.578843 17.520938
v 30.701788 -21.731095 17.784646
v 31.809999 -21.578843 17.520938
v 20.466726 -22.300532 17.770938
v 30.159999 -18.302742 19.437040
v 30.159999 -19.456012 18.935048
v 30.159999 -18.175875 18.892938
v 30.159999 -19.401493 18.520938
v 30.160000 -18.157595 18.334539
v 30.160000 -19.456012 18.106828
v 30.160000 -18.248605 17.783304
v 30.160000 -18.445406 17.260415
v 30.160000 -19.615853 17.720938
v 30.159999 -18.740436 16.785968
v 30.160000 -19.870122 17.389567
v 30.160000 -19.122358 16.378195
v 30.159999 -20.201493 17.135298
v 30.160000 -19.576493 16.052766
v 30.159999 -20.085391 15.822187
v 30.160000 -20.587383 16.975457
v 30.159999 -20.629494 15.695320
v 30.159999 -21.001493 16.920938
v 30.159999 -21.187892 15.677040
v 30.159999 -21.415603 16.975457
v 30.160000 -21.739127 15.768050
v 30.159999 -22.262016 15.964851
v 30.159999 -21.801493 17.135298
v 30.159999 -22.736463 16.259881
v 30.159999 -22.132864 17.389567
v 30.159999 -23.144236 16.641803
v 30.159999 -22.387133 17.720938
v 30.159999 -23.469665 17.095938
v 30.159999 -23.700244 17.604836
v 30.159999 -22.546974 18.106828
v 30.159999 -23.827110 18.148939
v 30.159999 -22.601493 18.520938
v 30.159999 -23.845390 18.707337
v 30.159999 -22.546974 18.935049
v 30.159999 -23.754381 19.258572
v 30.160000 -23.557580 19.781461
v 30.160000 -22.387133 19.320938
v 30.159999 -23.262550 20.255908
v 30.160000 -22.132864 19.652309
v 30.159999 -22.880628 20.663681
v 30.160000 -21.801493 19.906579
v 30.159999 -22.426493 20.989110
v 30.159999 -21.917595 21.219689
v 30.160000 -21.415603 20.066419
v 30.159999 -21.373492 21.346556
v 30.160000 -21.001493 20.120938
v 30.160000 -20.815094 21.364836
v 30.159999 -20.587382 20.066419
v 30.160000 -20.263859 21.273826
v 30.159999 -19.740970 21.077025
v 30.159999 -20.201493 19.906579
v 30.160000 -19.266523 20.781995
v 30.160000 -19.870122 19.652309
v 20.466726 -19.552605 18.909166
v 20.160001 -19.848879 18.829780
v 20.466726 -19.702456 19.270938
v 20.160001 -19.808219 18.520938
v 20.160001 -19.968087 19.117575
v 20.466726 -19.702456 19.270938
v 20.160001 -19.968087 19.117575
v 20.466726 -19.940833 19.581598
v 20.160001 -20.157721 19.364711
v 20.466726 -20.251494 19.819976
v 20.160001 -20.404856 19.554344
v 20.466726 -20.613265 19.969826
v 20.160001 -20.692651 19.673553
v 20.466726 -21.001493 20.020938
v 20.160001 -21.001494 19.714213
v 20.466726 -21.389722 19.969827
v 20.160001 -21.310336 19.673553
v 20.466726 -21.751493 19.819976
v 20.160001 -21.598131 19.554344
v 20.466726 -22.062154 19.581598
v 20.160001 -21.845266 19.364711
v 20.466726 -22.300531 19.270938
v 20.160001 -22.034900 19.117575
v 20.466726 -22.450382 18.909166
v 20.160001 -22.154108 18.829780
v 20.466726 -22.501493 18.520938
v 20.160001 -22.194768 18.520938
v 20.466726 -22.450382 18.132709
v 20.160001 -22.154109 18.212096
v 20.466726 -22.300532 17.770938
v 20.160001 -22.034900 17.924300
v 20.466726 -22.062154 17.460278
v 20.160001 -21.845266 17.677165
v 20.466726 -21.751493 17.221900
v 20.160001 -21.598131 17.487531
v 20.466726 -21.389722 17.072049
v 20.160001 -21.310336 17.368323
v 20.466726 -21.001494 17.020938
v 20.160001 -21.001494 17.327663
v 20.466726 -20.613265 17.072049
v 20.160001 -20.692651 17.368323
v 20.466726 -20.251494 17.221900
v 20.160001 -20.404856 17.487531
v 20.466726 -19.940834 17.460278
v 20.160001 -20.157721 17.677165
v 20.466726 -19.702456 17.770938
v 20.160001 -19.968087 17.924300
v 20.466726 -19.552605 18.132709
v 20.160001 -19.848879 18.212096
v 20.466726 -19.501494 18.520938
v 20.160001 -19.968087 19.117575
v 20.160001 -19.848879 18.829780
v 20.160001 -20.157721 19.364711
v 20.160001 -20.404856 19.554344
v 20.160001 -19.808219 18.520938
v 20.160001 -20.692651 19.673553
v 20.160001 -19.848879 18.212096
v 20.160001 -21.001494 19.714213
v 20.160001 -19.968087 17.924300
v 20.160001 -21.310336 19.673553
v 20.160001 -20.157721 17.677165
v 20.160001 -21.598131 19.554344
v 20.160001 -20.404856 17.487531
v 20.160001 -21.845266 19.364711
v 20.160001 -20.692651 17.368323
v 20.160001 -22.034900 19.117575
v 20.160001 -21.001494 17.327663
v 20.160001 -22.154108 18.829780
v 20.160001 -21.310336 17.368323
v 20.160001 -22.194768 18.520938
v 20.160001 -21.598131 17.487531
v 20.160001 -22.154109 18.212096
v 20.160001 -21.845266 17.677165
v 20.160001 -22.034900 17.924300
v 31.175000 -19.661567 16.200118
v 31.438025 -19.762480 16.374905
v 31.639852 -19.893993 16.602692
v 30.160000 -18.858749 20.400073
v 30.540000 -18.858749 20.400073
v 30.160000 -18.533321 19.945938
v 30.540000 -19.266523 20.781995
v 30.540000 -18.533321 19.945938
v 30.159999 -18.302742 19.437040
v 30.540000 -18.302742 19.437040
v 30.159999 -18.175875 18.892938
v 30.540000 -18.175875 18.892938
v 30.160000 -18.157595 18.334539
v 30.540000 -18.157595 18.334539
v 30.160000 -18.248605 17.783304
v 30.540000 -18.248605 17.783304
v 30.160000 -18.445406 17.260415
v 30.539999 -18.445406 17.260415
v 30.159999 -18.740436 16.785968
v 30.540000 -18.740436 16.785968
v 30.160000 -19.122358 16.378195
v 30.540000 -19.122358 16.378195
v 30.160000 -19.576493 16.052766
v 30.540000 -19.576493 16.052766
v 30.159999 -20.085391 15.822187
v 30.540000 -20.085391 15.822187
v 30.159999 -20.629494 15.695320
v 30.540000 -20.629494 15.695320
v 30.159999 -21.187892 15.677040
v 30.539999 -21.187892 15.677040
v 30.160000 -21.739127 15.768050
v 30.540000 -21.739127 15.768050
v 30.159999 -22.262016 15.964851
v 30.540000 -22.262016 15.964851
v 30.159999 -22.736463 16.259881
v 30.539999 -22.736463 16.259881
v 30.159999 -23.144236 16.641803
v 30.539999 -23.144236 16.641803
v 30.159999 -23.469665 17.095938
v 30.539999 -23.469665 17.095938
v 30.159999 -23.469665 17.095938
v 30.539999 -23.469665 17.095938
v 30.159999 -23.700244 17.604836
v 30.540000 -23.700244 17.604836
v 30.159999 -23.827110 18.148939
v 30.540000 -23.827110 18.148939
v 30.159999 -23.845390 18.707337
v 30.539999 -23.845390 18.707337
v 30.159999 -23.754381 19.258572
v 30.540000 -23.754381 19.258572
v 30.160000 -23.557580 19.781461
v 30.539999 -23.557580 19.781461
v 30.159999 -23.262550 20.255908
v 30.540000 -23.262550 20.255908
v 30.159999 -22.880628 20.663681
v 30.540000 -22.880628 20.663682
v 30.159999 -22.426493 20.989110
v 30.540000 -22.426493 20.989110
v 30.159999 -21.917595 21.219689
v 30.540000 -21.917595 21.219689
v 30.159999 -21.373492 21.346556
v 30.540000 -21.373492 21.346556
v 30.160000 -20.815094 21.364836
v 30.540000 -20.815094 21.364836
v 30.160000 -20.263859 21.273826
v 30.540000 -20.263859 21.273826
v 30.159999 -19.740970 21.077025
v 30.540000 -19.740970 21.077025
v 30.160000 -19.266523 20.781995
v 30.680683 -21.867518 19.020938
v 31.809999 -21.578843 19.520938
v 30.701788 -21.731095 19.257230
v 30.769999 -21.578843 19.520938
v 30.769999 -21.578843 19.520938
v 30.701788 -21.274339 19.520938
v 31.809999 -21.578843 19.520938
v 30.680683 -21.001493 19.520938
v 31.809999 -20.424143 19.520938
v 30.701788 -20.728646 19.520938
v 30.770000 -20.424143 19.520938
v 30.770000 -20.424143 19.520938
v 30.701788 -20.271891 19.257230
v 31.809999 -20.424143 19.520938
v 30.680683 -20.135468 19.020938
v 31.809999 -19.846792 18.520938
v 30.701788 -19.999044 18.784646
v 30.770000 -19.846793 18.520938
v 30.770000 -19.846793 18.520938
v 30.701788 -19.999044 18.257230
v 31.809999 -19.846792 18.520938
v 30.680683 -20.135468 18.020938
v 31.809999 -20.424143 17.520938
v 30.701788 -20.271891 17.784646
v 30.770000 -20.424143 17.520938
v 30.680683 -21.867518 18.020938
v 31.809999 -22.156193 18.520938
v 30.701788 -22.003941 18.257230
v 30.770000 -22.156193 18.520938
v 30.770000 -20.424143 17.520938
v 30.701788 -20.728646 17.520938
v 31.809999 -20.424143 17.520938
v 30.680683 -21.001493 17.520938
v 31.809999 -21.578843 17.520938
v 30.701787 -21.274339 17.520938
v 30.770000 -21.578843 17.520938
v 30.701788 -20.271891 17.784646
v 30.103333 -21.001493 18.520938
v 30.770000 -20.424143 17.520938
v 30.680683 -20.135468 18.020938
v 30.103333 -21.001493 18.520938
v 30.701788 -20.728646 17.520938
v 30.770000 -19.846793 18.520938
v 30.103333 -21.001493 18.520938
v 30.701788 -19.999044 18.257230
v 30.701788 -19.999044 18.784646
v 30.103333 -21.001493 18.520938
v 30.103333 -21.001493 18.520938
v 30.680683 -20.135468 19.020938
v 30.770000 -20.424143 19.520938
v 30.103333 -21.001493 18.520938
v 30.701788 -20.271891 19.257230
v 30.701788 -20.728646 19.520938
v 30.103333 -21.001493 18.520938
v 30.103333 -21.001493 18.520938
v 30.680683 -21.001493 19.520938
v 30.769999 -21.578843 19.520938
v 30.103333 -21.001493 18.520938
v 30.701788 -21.274339 19.520938
v 30.701788 -21.731095 19.257230
v 30.103333 -21.001493 18.520938
v 30.103333 -21.001493 18.520938
v 30.680683 -21.867518 19.020938
v 30.770000 -22.156193 18.520938
v 30.103333 -21.001493 18.520938
v 30.701788 -22.003941 18.784646
v 30.701788 -22.003941 18.257230
v 30.103333 -21.001493 18.520938
v 30.103333 -21.001493 18.520938
v 30.680683 -21.867518 18.020938
v 30.770000 -21.578843 17.520938
v 30.103333 -21.001493 18.520938
v 30.701788 -21.731095 17.784646
v 30.701787 -21.274339 17.520938
v 30.103333 -21.001493 18.520938
v 30.103333 -21.001493 18.520938
v 30.680683 -21.867518 18.020938
v 30.680683 -21.001493 17.520938
v 30.103333 -21.001493 18.520938
f 1 2 3
f 1 3 4
f 1 5 2
f 2 5 55
f 2 56 3
f 2 57 56
f 2 55 57
f 3 40 4
f 3 59 40
f 3 56 59
f 4 40 39
f 5 69 55
f 6 7 8
f 6 9 7
f 7 9 10
f 7 96 8
f 7 97 96
f 7 10 97
f 8 96 99
f 9 11 10
f 10 11 12
f 10 110 97
f 10 12 110
f 11 13 12
f 12 13 14
f 12 115 110
f 12 14 115
f 13 15 14
f 14 15 16
f 14 120 115
f 14 16 120
f 15 17 16
f 16 17 18
f 16 125 120
f 16 18 125
f 17 19 18
f 18 19 20
f 18 130 125
f 18 20 130
f 19 21 20
f 20 21 22
f 20 135 130
f 20 22 135
f 21 23 22
f 22 23 24
f 22 140 135
f 22 24 140
f 23 25 24
f 24 25 26
f 24 145 140
f 24 26 145
f 25 27 26
f 26 27 28
f 26 150 145
f 26 28 150
f 27 29 28
f 28 29 30
f 28 155 150
f 28 30 155
f 29 31 30
f 30 31 32
f 30 160 155
f 30 32 160
f 31 33 32
f 32 33 34
f 32 165 160
f 32 34 165
f 33 35 34
f 34 35 36
f 34 170 165
f 34 36 170
f 35 37 36
f 36 37 38
f 36 175 170
f 36 38 175
f 37 39 38
f 38 39 40
f 38 68 175
f 38 40 68
f 40 59 68
f 41 42 43
f 41 43 44
f 41 45 42
f 42 45 65
f 42 64 43
f 42 67 64
f 42 65 67
f 43 54 44
f 43 64 61
f 43 61 54
f 44 54 53
f 45 180 65
f 46 47 48
f 46 49 47
f 46 48 95
f 47 49 50
f 47 50 78
f 47 78 83
f 47 83 48
f 48 88 94
f 48 94 95
f 48 83 88
f 49 51 50
f 50 51 52
f 50 52 73
f 50 73 78
f 51 53 52
f 52 53 54
f 52 54 63
f 52 63 73
f 54 61 63
f 55 69 70
f 55 71 57
f 55 70 71
f 56 58 59
f 56 60 58
f 56 57 60
f 57 72 60
f 57 71 72
f 58 61 62
f 58 63 61
f 58 62 59
f 58 60 63
f 59 62 68
f 60 73 63
f 60 72 73
f 61 64 62
f 62 64 66
f 62 66 68
f 64 67 66
f 65 178 177
f 65 177 67
f 65 180 178
f 66 176 175
f 66 175 68
f 66 67 176
f 67 177 176
f 69 74 70
f 70 74 75
f 70 76 71
f 70 75 76
f 71 77 72
f 71 76 77
f 72 78 73
f 72 77 78
f 74 79 75
f 75 79 80
f 75 81 76
f 75 80 81
f 76 82 77
f 76 81 82
f 77 83 78
f 77 82 83
f 79 84 80
f 80 84 85
f 80 86 81
f 80 85 86
f 81 87 82
f 81 86 87
f 82 88 83
f 82 87 88
f 84 91 85
f 85 89 90
f 85 90 86
f 85 91 89
f 86 90 92
f 86 92 87
f 87 92 93
f 87 93 88
f 88 93 94
f 96 98 99
f 96 100 98
f 96 97 100
f 97 111 100
f 97 110 111
f 98 101 102
f 98 103 101
f 98 100 103
f 98 102 99
f 100 112 103
f 100 111 112
f 101 104 105
f 101 105 106
f 101 103 104
f 101 106 102
f 103 113 104
f 103 112 113
f 104 114 107
f 104 107 105
f 104 113 114
f 105 107 108
f 105 108 109
f 105 109 106
f 110 116 111
f 110 115 116
f 111 117 112
f 111 116 117
f 112 118 113
f 112 117 118
f 113 119 114
f 113 118 119
f 115 121 116
f 115 120 121
f 116 122 117
f 116 121 122
f 117 123 118
f 117 122 123
f 118 124 119
f 118 123 124
f 120 126 121
f 120 125 126
f 121 127 122
f 121 126 127
f 122 128 123
f 122 127 128
f 123 129 124
f 123 128 129
f 125 131 126
f 125 130 131
f 126 132 127
f 126 131 132
f 127 133 128
f 127 132 133
f 128 134 129
f 128 133 134
f 130 136 131
f 130 135 136
f 131 137 132
f 131 136 137
f 132 138 133
f 132 137 138
f 133 139 134
f 133 138 139
f 135 141 136
f 135 140 141
f 136 142 137
f 136 141 142
f 137 143 138
f 137 142 143
f 138 144 139
f 138 143 144
f 140 146 141
f 140 145 146
f 141 147 142
f 141 146 147
f 142 148 143
f 142 147 148
f 143 149 144
f 143 148 149
f 145 151 146
f 145 150 151
f 146 152 147
f 146 151 152
f 147 153 148
f 147 152 153
f 148 154 149
f 148 153 154
f 150 156 151
f 150 155 156
f 151 157 152
f 151 156 157
f 152 158 153
f 152 157 158
f 153 159 154
f 153 158 159
f 155 161 156
f 155 160 161
f 156 162 157
f 156 161 162
f 157 163 158
f 157 162 163
f 158 164 159
f 158 163 164
f 160 166 161
f 160 165 166
f 161 167 162
f 161 166 167
f 162 168 163
f 162 167 168
f 163 169 164
f 163 168 169
f 165 171 166
f 165 170 171
f 166 172 167
f 166 171 172
f 167 173 168
f 167 172 173
f 168 174 169
f 168 173 174
f 170 176 171
f 170 175 176
f 171 177 172
f 171 176 177
f 172 178 173
f 172 177 178
f 173 179 174
f 173 178 179
f 178 180 179
f 181 182 183
f 181 183 184
f 181 185 182
f 182 185 186
f 183 229 184
f 184 229 228
f 185 187 186
f 186 187 188
f 187 189 188
f 188 189 190
f 189 191 190
f 190 191 192
f 191 193 192
f 192 193 194
f 193 195 194
f 194 195 196
f 195 197 196
f 196 197 198
f 197 199 198
f 198 199 200
f 199 201 200
f 200 201 202
f 201 203 202
f 202 203 204
f 203 205 204
f 204 205 206
f 205 489 206
f 207 208 209
f 207 210 208
f 208 210 211
f 210 212 211
f 211 212 213
f 212 214 213
f 213 214 215
f 214 216 215
f 215 216 217
f 216 218 217
f 217 218 219
f 218 220 219
f 219 220 221
f 220 222 221
f 221 222 223
f 222 224 223
f 223 224 225
f 224 226 225
f 225 226 227
f 226 228 227
f 227 228 229
f 230 231 232
f 230 542 541
f 230 232 542
f 231 490 232
f 232 490 491
f 233 234 235
f 233 235 236
f 233 237 234
f 233 236 262
f 234 237 331
f 234 332 235
f 234 331 340
f 234 340 332
f 235 332 334
f 235 334 236
f 236 263 262
f 236 450 263
f 236 334 450
f 237 338 331
f 238 239 240
f 238 339 338
f 238 343 339
f 238 240 343
f 239 241 242
f 239 242 240
f 240 242 347
f 240 347 348
f 240 348 343
f 241 243 244
f 241 244 242
f 242 244 355
f 242 355 347
f 243 358 244
f 244 358 359
f 244 359 355
f 245 246 247
f 245 374 373
f 245 378 374
f 245 247 378
f 246 248 249
f 246 249 247
f 247 249 382
f 247 382 383
f 247 383 378
f 248 250 251
f 248 251 249
f 249 251 388
f 249 388 382
f 250 391 251
f 250 396 395
f 250 395 391
f 251 391 392
f 251 392 388
f 252 253 254
f 252 405 404
f 252 409 405
f 252 254 409
f 253 255 256
f 253 256 254
f 254 256 413
f 254 413 414
f 254 414 409
f 255 257 258
f 255 258 256
f 256 258 419
f 256 419 413
f 257 422 258
f 257 427 426
f 257 426 422
f 258 422 423
f 258 423 419
f 259 260 261
f 259 436 435
f 259 440 436
f 259 261 440
f 260 262 263
f 260 263 261
f 261 263 444
f 261 444 445
f 261 445 440
f 263 450 444
f 264 265 266
f 264 267 265
f 264 266 325
f 265 267 268
f 265 447 449
f 265 268 447
f 265 449 266
f 266 452 326
f 266 326 325
f 266 449 452
f 267 269 268
f 268 269 270
f 268 270 443
f 268 443 447
f 269 271 270
f 270 271 272
f 270 439 443
f 270 272 439
f 271 273 272
f 272 273 274
f 272 433 439
f 272 274 433
f 273 275 274
f 274 275 276
f 274 434 433
f 274 276 434
f 275 277 276
f 276 277 278
f 276 278 425
f 276 425 434
f 277 279 278
f 278 279 280
f 278 421 425
f 278 280 421
f 279 281 280
f 280 281 282
f 280 282 418
f 280 418 421
f 281 283 282
f 282 283 284
f 282 416 418
f 282 284 416
f 283 285 284
f 284 285 286
f 284 286 412
f 284 412 416
f 285 287 286
f 286 287 288
f 286 408 412
f 286 288 408
f 287 289 288
f 288 289 290
f 288 402 408
f 288 290 402
f 289 291 290
f 290 291 292
f 290 403 402
f 290 292 403
f 291 293 292
f 292 293 294
f 292 294 394
f 292 394 403
f 293 295 294
f 294 295 296
f 294 390 394
f 294 296 390
f 295 297 296
f 296 297 298
f 296 298 387
f 296 387 390
f 297 299 298
f 298 299 300
f 298 386 387
f 298 300 386
f 299 301 300
f 300 301 302
f 300 381 386
f 300 302 381
f 301 303 302
f 302 303 304
f 302 377 381
f 302 304 377
f 303 305 304
f 304 305 306
f 304 371 377
f 304 306 371
f 305 307 306
f 306 307 308
f 306 372 371
f 306 308 372
f 307 309 308
f 308 311 617
f 308 309 311
f 308 617 372
f 309 310 311
f 312 313 314
f 312 314 329
f 312 329 328
f 313 315 316
f 313 316 314
f 314 352 357
f 314 316 352
f 314 357 329
f 315 317 318
f 315 318 316
f 316 354 352
f 316 318 354
f 317 319 320
f 317 320 318
f 318 320 346
f 318 346 354
f 319 321 322
f 319 322 320
f 320 342 346
f 320 322 342
f 321 323 324
f 321 324 322
f 322 335 342
f 322 324 335
f 323 325 326
f 323 326 324
f 324 337 335
f 324 326 337
f 326 452 337
f 327 328 329
f 327 329 330
f 327 330 361
f 329 357 330
f 330 349 356
f 330 356 361
f 330 357 349
f 331 338 339
f 331 339 344
f 331 344 340
f 332 333 334
f 332 340 341
f 332 341 333
f 333 335 336
f 333 336 334
f 333 341 342
f 333 342 335
f 334 336 450
f 335 337 336
f 336 451 450
f 336 337 451
f 337 452 451
f 339 351 344
f 339 343 351
f 340 344 345
f 340 345 341
f 341 345 346
f 341 346 342
f 343 348 351
f 344 353 345
f 344 351 353
f 345 354 346
f 345 353 354
f 347 349 348
f 347 355 356
f 347 356 349
f 348 350 351
f 348 349 350
f 349 357 350
f 350 352 353
f 350 353 351
f 350 357 352
f 352 354 353
f 355 359 360
f 355 360 356
f 356 360 361
f 362 363 364
f 362 364 365
f 362 366 367
f 362 368 366
f 362 365 368
f 362 367 363
f 364 373 365
f 365 373 374
f 365 375 368
f 365 374 375
f 366 368 369
f 366 369 370
f 366 619 367
f 366 370 619
f 368 376 369
f 368 375 376
f 369 371 370
f 369 376 377
f 369 377 371
f 370 371 372
f 370 618 619
f 370 372 618
f 372 617 618
f 374 379 375
f 374 378 379
f 375 380 376
f 375 379 380
f 376 381 377
f 376 380 381
f 378 383 379
f 379 383 385
f 379 385 380
f 380 385 386
f 380 386 381
f 382 384 383
f 382 388 389
f 382 389 384
f 383 384 385
f 384 389 390
f 384 387 385
f 384 390 387
f 385 387 386
f 388 392 393
f 388 393 389
f 389 393 394
f 389 394 390
f 391 399 392
f 391 395 399
f 392 401 393
f 392 399 401
f 393 403 394
f 393 401 403
f 395 396 397
f 395 397 398
f 395 398 399
f 396 404 397
f 397 404 405
f 397 405 406
f 397 406 398
f 398 400 399
f 398 406 407
f 398 407 400
f 399 400 401
f 400 402 401
f 400 407 408
f 400 408 402
f 401 402 403
f 405 409 410
f 405 410 406
f 406 410 411
f 406 411 407
f 407 411 412
f 407 412 408
f 409 414 410
f 410 417 411
f 410 414 417
f 411 416 412
f 411 417 416
f 413 415 414
f 413 419 420
f 413 420 415
f 414 415 417
f 415 420 421
f 415 418 417
f 415 421 418
f 416 417 418
f 419 423 424
f 419 424 420
f 420 424 425
f 420 425 421
f 422 430 423
f 422 426 430
f 423 432 424
f 423 430 432
f 424 434 425
f 424 432 434
f 426 427 428
f 426 428 429
f 426 429 430
f 427 435 428
f 428 435 436
f 428 436 437
f 428 437 429
f 429 431 430
f 429 437 438
f 429 438 431
f 430 431 432
f 431 433 432
f 431 438 439
f 431 439 433
f 432 433 434
f 436 440 441
f 436 441 437
f 437 441 442
f 437 442 438
f 438 442 443
f 438 443 439
f 440 445 441
f 441 448 442
f 441 445 448
f 442 447 443
f 442 448 447
f 444 446 445
f 444 450 451
f 444 451 446
f 445 446 448
f 446 451 452
f 446 449 448
f 446 452 449
f 447 448 449
f 453 454 455
f 453 455 456
f 453 457 458
f 453 459 457
f 453 460 454
f 453 456 459
f 454 460 464
f 457 480 458
f 458 476 475
f 458 480 481
f 458 482 476
f 458 481 482
f 460 461 462
f 460 462 463
f 460 465 461
f 460 463 464
f 461 465 469
f 465 466 467
f 465 467 468
f 465 470 466
f 465 468 469
f 466 470 474
f 470 471 472
f 470 472 473
f 470 475 471
f 470 473 474
f 471 475 479
f 475 476 477
f 475 477 478
f 475 478 479
f 483 484 485
f 484 686 485
f 485 686 687
f 486 487 488
f 487 711 488
f 488 711 712
f 490 492 491
f 491 492 493
f 492 494 493
f 493 494 495
f 494 496 495
f 495 496 497
f 495 497 498
f 497 499 498
f 498 499 500
f 499 501 500
f 500 501 502
f 501 503 502
f 502 503 504
f 502 504 505
f 504 506 505
f 505 506 507
f 506 508 507
f 507 508 509
f 508 510 509
f 509 510 511
f 509 511 512
f 511 513 512
f 512 513 514
f 513 515 514
f 514 515 516
f 515 517 516
f 516 517 518
f 516 518 519
f 518 520 519
f 519 520 521
f 520 522 521
f 521 522 523
f 522 524 523
f 523 524 525
f 523 525 526
f 525 527 526
f 526 527 528
f 527 529 528
f 528 529 530
f 529 531 530
f 530 531 532
f 530 532 533
f 532 534 533
f 533 534 535
f 534 536 535
f 535 536 537
f 536 538 537
f 537 538 539
f 537 539 540
f 539 541 540
f 540 541 542
f 543 544 545
f 543 546 544
f 543 592 546
f 544 547 545
f 546 592 591
f 548 549 550
f 549 551 550
f 550 551 552
f 551 553 552
f 552 553 554
f 553 555 554
f 554 555 556
f 555 557 556
f 556 557 558
f 557 559 558
f 558 559 560
f 559 561 560
f 560 561 562
f 561 563 562
f 562 563 564
f 563 565 564
f 564 565 566
f 565 567 566
f 566 567 568
f 567 569 568
f 568 569 570
f 569 571 570
f 570 571 572
f 571 573 572
f 572 573 574
f 573 575 574
f 574 575 576
f 575 577 576
f 576 577 578
f 577 579 578
f 578 579 580
f 579 581 580
f 580 581 582
f 581 583 582
f 582 583 584
f 583 585 584
f 584 585 586
f 585 587 586
f 586 587 588
f 587 589 588
f 588 589 590
f 589 591 590
f 590 591 592
f 593 594 595
f 594 596 595
f 594 597 596
f 596 597 598
f 597 599 598
f 598 599 600
f 599 601 600
f 600 601 602
f 601 603 602
f 602 603 604
f 603 605 604
f 604 605 606
f 605 607 606
f 606 607 608
f 607 609 608
f 608 609 610
f 609 611 610
f 610 611 612
f 611 613 612
f 612 613 614
f 613 615 614
f 614 615 616
f 620 621 622
f 620 623 621
f 620 685 623
f 621 624 622
f 622 624 625
f 623 685 684
f 624 626 625
f 625 626 627
f 626 628 627
f 627 628 629
f 628 630 629
f 629 630 631
f 630 632 631
f 631 632 633
f 632 634 633
f 633 634 635
f 634 636 635
f 635 636 637
f 636 638 637
f 637 638 639
f 638 640 639
f 639 640 641
f 640 642 641
f 641 642 643
f 642 644 643
f 643 644 645
f 644 646 645
f 645 646 647
f 646 648 647
f 647 648 649
f 648 650 649
f 649 650 651
f 650 652 651
f 651 652 653
f 652 654 653
f 653 654 655
f 654 656 655
f 657 658 659
f 658 660 659
f 659 660 661
f 660 662 661
f 661 662 663
f 662 664 663
f 663 664 665
f 664 666 665
f 665 666 667
f 666 668 667
f 667 668 669
f 668 670 669
f 669 670 671
f 670 672 671
f 671 672 673
f 672 674 673
f 673 674 675
f 674 676 675
f 675 676 677
f 676 678 677
f 677 678 679
f 678 680 679
f 679 680 681
f 680 682 681
f 681 682 683
f 682 684 683
f 683 684 685
f 686 688 687
f 687 688 689
f 690 691 692
f 691 693 692
f 692 693 694
f 693 695 694
f 694 695 696
f 697 698 699
f 698 700 699
f 699 700 701
f 700 702 701
f 701 702 703
f 704 705 706
f 705 707 706
f 706 707 708
f 707 709 708
f 708 709 710
f 711 713 712
f 712 713 714
f 715 716 717
f 716 718 717
f 717 718 719
f 718 720 719
f 719 720 721
f 722 723 724
f 722 725 723
f 724 726 727
f 725 730 733
f 727 764 763
f 728 729 730
f 728 731 732
f 731 734 732
f 734 737 740
f 735 736 737
f 735 738 739
f 738 741 739
f 741 744 747
f 742 743 744
f 742 745 746
f 745 748 746
f 748 751 754
f 749 750 751
f 749 752 753
f 752 755 753
f 756 757 758
f 756 759 760
f 758 761 762
f 759 763 760