# Part17
# Autodesk dbId: 139
# Units: mm
o 139_Part17
v 9.339999 -1.966485 -71.688421
v 9.339999 -7.565926 -69.092995
v 9.339999 -5.364057 -67.363321
v 9.340000 -4.168354 -73.418095
v -3.160000 -4.168354 -73.418096
v -3.160001 -5.364057 -67.363322
v -3.160001 -7.565926 -69.092996
v -3.160001 -1.966485 -71.688422
v 9.340001 3.553403 -83.247869
v 9.340001 9.152845 -85.843296
v 9.340001 6.950976 -87.572970
v 9.340000 5.755272 -81.518195
v -3.160000 5.755272 -81.518196
v -3.159999 6.950976 -87.572971
v -3.159999 9.152846 -85.843297
v -3.159999 3.553403 -83.247870
v -9.410001 -9.419147 -66.733851
v -7.659999 8.032022 -88.949139
v -7.600368 7.752227 -88.592961
v -6.160000 3.553403 -83.247870
v -9.409998 14.981603 -97.795935
v -7.600368 14.489223 -97.169136
v -7.659998 14.209427 -96.812957
v -7.600368 13.929632 -96.456779
v -7.425543 13.668904 -96.124874
v -7.425543 8.572545 -89.637223
v -7.600368 8.311818 -89.305318
v -9.341850 15.301369 -98.202997
v -9.142049 15.599343 -98.582317
v 15.322053 15.599343 -98.582315
v 15.521854 15.301369 -98.202995
v 13.780371 14.489222 -97.169135
v 15.590002 14.981602 -97.795933
v 13.840001 8.032022 -88.949138
v 13.780371 8.311817 -89.305316
v 13.605546 8.572544 -89.637221
v 15.589999 -9.419148 -66.733849
v 13.780368 -8.926767 -67.360648
v 13.839999 -8.646973 -67.716826
v 13.780368 -8.367178 -68.073004
v 13.780371 7.752227 -88.592959
v 13.605544 -8.106450 -68.404910
v 12.340000 -4.168354 -73.418094
v 12.340001 3.553403 -83.247869
v 15.521851 -9.738915 -66.326787
v 15.322050 -10.036889 -65.947467
v -9.142052 -10.036888 -65.947469
v -9.341853 -9.738914 -66.326789
v -7.600370 -8.926767 -67.360650
v -4.159999 14.209427 -96.812957
v 10.399632 14.489222 -97.169135
v 10.340002 14.209427 -96.812956
v -4.219628 13.929632 -96.456779
v -4.219628 14.489223 -97.169136
v -5.034998 15.145640 -98.004754
v -7.409998 16.217083 -99.368698
v 13.590002 16.217083 -99.368696
v 11.215002 15.145640 -98.004753
v -5.457064 15.253637 -98.142233
v -5.909998 15.290474 -98.189127
v -6.362931 15.253637 -98.142233
v -6.784998 15.145640 -98.004754
v -7.147434 14.973842 -97.786055
v -7.927636 16.174986 -99.315109
v -7.425543 14.749950 -97.501041
v -8.409997 16.051560 -99.157988
v -8.824212 15.855220 -98.908047
v -7.147434 13.445012 -95.839859
v 10.399632 13.929632 -96.456778
v -3.159999 6.950976 -87.572971
v -4.159999 8.032022 -88.949139
v -4.219629 7.752227 -88.592960
v -4.219629 8.311818 -89.305318
v -4.394454 8.572545 -89.637223
v -4.394454 13.668904 -96.124873
v -4.672562 8.796437 -89.922236
v -4.672561 13.445012 -95.839859
v -5.034998 8.968236 -90.140936
v -5.034998 13.273214 -95.621160
v -5.457065 9.076232 -90.278415
v -5.457064 13.165217 -95.483681
v -5.909998 9.113068 -90.325307
v -6.362931 13.165217 -95.483681
v -5.909998 13.128381 -95.436789
v -6.362932 9.076232 -90.278415
v -6.784999 13.273214 -95.621160
v -6.784999 8.968236 -90.140936
v -7.147435 8.796437 -89.922237
v -7.147435 7.267607 -87.976041
v -6.784999 7.095809 -87.757342
v -5.909999 6.950976 -87.572971
v -5.457065 6.987812 -87.619862
v -5.034999 7.095809 -87.757342
v -3.159999 3.553403 -83.247870
v -4.672562 7.267607 -87.976041
v -4.394454 7.491499 -88.261054
v 10.340002 8.032022 -88.949138
v 10.399631 7.752227 -88.592959
v 9.340001 6.950976 -87.572970
v 10.852564 7.267607 -87.976039
v 11.215001 7.095809 -87.757341
v 12.090001 6.950976 -87.572969
v 12.542934 6.987811 -87.619861
v 13.327437 7.267607 -87.976039
v 13.605546 7.491499 -88.261053
v 13.840002 14.209426 -96.812956
v 13.780371 13.929632 -96.456778
v 14.590002 16.051560 -99.157986
v 15.004216 15.855220 -98.908045
v 13.605547 14.749949 -97.501039
v 14.107641 16.174986 -99.315107
v 13.327438 14.973841 -97.786054
v 12.965002 15.145640 -98.004753
v 12.542935 15.253636 -98.142232
v 12.090002 15.290473 -98.189125
v 11.637068 15.253636 -98.142232
v -4.672561 14.973842 -97.786055
v 10.852565 14.973841 -97.786054
v -4.394453 14.749949 -97.501041
v 10.574457 14.749949 -97.501040
v 10.574457 8.572545 -89.637221
v 10.399631 8.311817 -89.305316
v 10.574457 13.668904 -96.124872
v 10.852564 8.796436 -89.922235
v 10.852565 13.445012 -95.839858
v 11.215001 8.968235 -90.140935
v 11.215001 13.273213 -95.621159
v 11.637067 9.076232 -90.278414
v 11.637068 13.165217 -95.483680
v 12.090001 9.113067 -90.325305
v 12.090001 13.128381 -95.436787
v 12.542935 13.165217 -95.483680
v 12.542934 9.076232 -90.278414
v 12.965002 13.273213 -95.621159
v 12.965001 8.968235 -90.140934
v 13.327438 13.445012 -95.839858
v 13.327437 8.796436 -89.922235
v 13.605546 13.668904 -96.124872
v -4.394456 -8.106450 -68.404911
v -4.672564 -7.882557 -68.689925
v -3.160001 -7.565926 -69.092996
v -5.035001 -7.710759 -68.908624
v -6.160001 -4.168354 -73.418096
v -3.160000 -4.168354 -73.418096
v -5.457067 -7.602762 -69.046104
v -5.910000 -7.565926 -69.092996
v -6.362934 -7.602762 -69.046104
v -6.785001 -7.710759 -68.908625
v -7.147437 -7.882557 -68.689926
v -7.425546 -8.106449 -68.404911
v -7.600370 -8.367177 -68.073006
v -7.660001 -8.646972 -67.716828
v -8.410001 -10.489105 -65.371798
v -8.824215 -10.292765 -65.621738
v -7.425546 -9.187495 -67.028744
v -7.927640 -10.612531 -65.214676
v -7.147437 -9.411387 -66.743730
v -7.410001 -10.654628 -65.161087
v -6.785001 -9.583185 -66.525031
v -6.362934 -9.691182 -66.387552
v -5.910001 -9.728019 -66.340658
v -5.457067 -9.691182 -66.387552
v -5.035001 -9.583185 -66.525031
v -4.219631 -8.926767 -67.360649
v -4.160002 -8.646972 -67.716827
v 13.327435 -7.882558 -68.689924
v 12.542932 -7.602763 -69.046102
v 12.089999 -7.565927 -69.092994
v 11.214999 -7.710759 -68.908623
v 9.339999 -7.565926 -69.092995
v 9.340000 -4.168354 -73.418095
v 10.852562 -7.882558 -68.689924
v 10.574454 -8.106450 -68.404910
v 10.340000 -8.646972 -67.716826
v 10.399629 -8.926767 -67.360648
v -4.394456 -9.187495 -67.028744
v 10.574454 -9.187495 -67.028743
v -4.672564 -9.411387 -66.743730
v 10.852562 -9.411387 -66.743728
v 11.214999 -9.583186 -66.525029
v 13.589998 -10.654629 -65.161085
v 11.637065 -9.691182 -66.387550
v 12.089998 -9.728019 -66.340657
v 12.542932 -9.691182 -66.387550
v 12.964999 -9.583186 -66.525029
v 13.327435 -9.411387 -66.743728
v 14.107637 -10.612532 -65.214675
v 13.605543 -9.187495 -67.028742
v 14.589998 -10.489106 -65.371796
v 15.004213 -10.292766 -65.621736
v 12.964999 -7.710759 -68.908623
v 11.637065 -7.602763 -69.046102
v 11.637067 6.987811 -87.619861
v 12.965001 7.095809 -87.757341
v 13.839999 -6.445103 -65.987152
v 13.780368 -8.367178 -68.073004
v 13.839999 -8.646973 -67.716826
v 13.780368 -6.165308 -66.343331
v 13.605544 -8.106450 -68.404910
v 13.605544 -5.904581 -66.675236
v 13.327435 -7.882558 -68.689924
v 13.327435 -5.680688 -66.960250
v 12.964999 -7.710759 -68.908623
v 12.964999 -5.508890 -67.178949
v 12.542932 -7.602763 -69.046102
v 12.542932 -5.400894 -67.316429
v 12.089999 -7.565927 -69.092994
v 12.089999 -5.364057 -67.363321
v 11.637065 -7.602763 -69.046102
v 11.637065 -5.400893 -67.316429
v 11.214999 -7.710759 -68.908623
v 11.214999 -5.508890 -67.178950
v 10.852562 -7.882558 -68.689924
v 10.852562 -5.680688 -66.960251
v 10.574454 -8.106450 -68.404910
v 10.574454 -5.904581 -66.675236
v 10.399629 -8.367178 -68.073004
v 10.399629 -6.165308 -66.343331
v 10.340000 -8.646972 -67.716826
v 10.339999 -6.445103 -65.987153
v 10.399629 -8.926767 -67.360648
v 10.399629 -6.724898 -65.630975
v 10.574454 -9.187495 -67.028743
v 10.574454 -6.985626 -65.299069
v 10.852562 -9.411387 -66.743728
v 10.852562 -7.209518 -65.014055
v 11.214999 -9.583186 -66.525029
v 11.214998 -7.381317 -64.795356
v 11.637065 -9.691182 -66.387550
v 11.637065 -7.489313 -64.657877
v 12.089998 -9.728019 -66.340657
v 12.089998 -7.526150 -64.610983
v 12.542932 -9.691182 -66.387550
v 12.542932 -7.489313 -64.657877
v 12.964999 -9.583186 -66.525029
v 12.964999 -7.381317 -64.795356
v 13.327435 -9.411387 -66.743728
v 13.327435 -7.209518 -65.014055
v 13.605543 -9.187495 -67.028742
v 13.605543 -6.985626 -65.299069
v 13.780368 -8.926767 -67.360648
v 13.780368 -6.724898 -65.630974
v 13.839999 -8.646973 -67.716826
v -4.160002 -6.445103 -65.987154
v -4.219631 -8.367177 -68.073006
v -4.160002 -8.646972 -67.716827
v -4.219631 -6.165308 -66.343332
v -4.394456 -8.106450 -68.404911
v -4.394456 -5.904580 -66.675238
v -4.672564 -7.882557 -68.689925
v -4.672564 -5.680688 -66.960252
v -5.035001 -7.710759 -68.908624
v -5.035001 -5.508890 -67.178951
v -5.457067 -7.602762 -69.046104
v -5.457067 -5.400893 -67.316430
v -5.910000 -7.565926 -69.092996
v -5.910001 -5.364057 -67.363322
v -6.362934 -7.602762 -69.046104
v -6.362934 -5.400893 -67.316430
v -6.785001 -7.710759 -68.908625
v -6.785001 -5.508889 -67.178951
v -7.147437 -7.882557 -68.689926
v -7.147437 -5.680688 -66.960252
v -7.425546 -8.106449 -68.404911
v -7.425546 -5.904580 -66.675238
v -7.600370 -8.367177 -68.073006
v -7.600371 -6.165308 -66.343332
v -7.660001 -8.646972 -67.716828
v -7.660001 -6.445103 -65.987154
v -7.600370 -8.926767 -67.360650
v -7.600371 -6.724898 -65.630976
v -7.425546 -9.187495 -67.028744
v -7.425546 -6.985625 -65.299071
v -7.147437 -9.411387 -66.743730
v -7.147437 -7.209518 -65.014056
v -6.785001 -9.583185 -66.525031
v -6.785001 -7.381316 -64.795357
v -6.362934 -9.691182 -66.387552
v -6.362934 -7.489313 -64.657878
v -5.910001 -9.728019 -66.340658
v -5.910001 -7.526150 -64.610985
v -5.457067 -9.691182 -66.387552
v -5.457067 -7.489313 -64.657878
v -5.035001 -9.583185 -66.525031
v -5.035001 -7.381316 -64.795357
v -4.672564 -9.411387 -66.743730
v -4.672564 -7.209518 -65.014056
v -4.394456 -9.187495 -67.028744
v -4.394457 -6.985625 -65.299070
v -4.219631 -8.926767 -67.360649
v -4.219631 -6.724898 -65.630976
v -4.160002 -8.646972 -67.716827
v 13.840002 16.411296 -95.083282
v 13.780371 14.489222 -97.169135
v 13.840002 14.209426 -96.812956
v 13.780371 16.691091 -95.439461
v 13.605547 14.749949 -97.501039
v 13.605546 16.951818 -95.771366
v 13.327438 14.973841 -97.786054
v 13.327438 17.175711 -96.056380
v 12.965002 15.145640 -98.004753
v 12.965002 17.347509 -96.275079
v 12.542935 15.253636 -98.142232
v 12.542935 17.455505 -96.412558
v 12.090002 15.290473 -98.189125
v 12.090002 17.492343 -96.459452
v 11.637068 15.253636 -98.142232
v 11.637068 17.455506 -96.412558
v 11.215002 15.145640 -98.004753
v 11.215002 17.347509 -96.275079
v 10.852565 14.973841 -97.786054
v 10.852565 17.175711 -96.056380
v 10.574457 14.749949 -97.501040
v 10.574457 16.951818 -95.771366
v 10.399632 14.489222 -97.169135
v 10.399632 16.691091 -95.439461
v 10.340002 14.209427 -96.812956
v 10.340002 16.411296 -95.083282
v 10.399632 13.929632 -96.456778
v 10.399632 16.131501 -94.727104
v 10.574457 13.668904 -96.124872
v 10.574457 15.870773 -94.395199
v 10.852565 13.445012 -95.839858
v 10.852565 15.646881 -94.110184
v 11.215001 13.273213 -95.621159
v 11.215001 15.475082 -93.891485
v 11.637068 13.165217 -95.483680
v 11.637068 15.367086 -93.754006
v 12.090001 13.128381 -95.436787
v 12.090001 15.330250 -93.707114
v 12.542935 13.165217 -95.483680
v 12.542935 15.367086 -93.754006
v 12.965002 13.273213 -95.621159
v 12.965002 15.475082 -93.891485
v 13.327438 13.445012 -95.839858
v 13.327438 15.646881 -94.110184
v 13.605546 13.668904 -96.124872
v 13.605546 15.870773 -94.395198
v 13.780371 13.929632 -96.456778
v 13.780371 16.131501 -94.727104
v 13.840002 14.209426 -96.812956
v 13.840001 10.233891 -87.219464
v 13.780371 8.311817 -89.305316
v 13.840001 8.032022 -88.949138
v 13.780371 10.513686 -87.575643
v 13.605546 8.572544 -89.637221
v 13.605546 10.774414 -87.907548
v 13.327437 8.796436 -89.922235
v 13.327437 10.998306 -88.192561
v 12.965001 8.968235 -90.140934
v 12.965001 11.170105 -88.411261
v 12.542934 9.076232 -90.278414
v 12.542934 11.278101 -88.548740
v 12.090001 9.113067 -90.325305
v 12.090001 11.314937 -88.595632
v 11.637067 9.076232 -90.278414
v 11.637067 11.278101 -88.548740
v 11.215001 8.968235 -90.140935
v 11.215001 11.170105 -88.411261
v 10.852564 8.796436 -89.922235
v 10.852564 10.998306 -88.192562
v 10.574457 8.572545 -89.637221
v 10.574456 10.774414 -87.907548
v 10.399631 8.311817 -89.305316
v 10.399631 10.513687 -87.575643
v 10.340002 8.032022 -88.949138
v 10.340002 10.233891 -87.219464
v 10.399631 7.752227 -88.592959
v 10.399631 9.954096 -86.863286
v 10.574456 7.491499 -88.261053
v 10.574456 9.693368 -86.531380
v 10.852564 7.267607 -87.976039
v 10.852564 9.469476 -86.246366
v 11.215001 7.095809 -87.757341
v 11.215001 9.297678 -86.027667
v 11.637067 6.987811 -87.619861
v 11.637067 9.189681 -85.890187
v 12.090001 6.950976 -87.572969
v 12.090000 9.152845 -85.843296
v 12.542934 6.987811 -87.619861
v 12.542934 9.189681 -85.890187
v 12.965001 7.095809 -87.757341
v 12.965001 9.297678 -86.027667
v 13.327437 7.267607 -87.976039
v 13.327437 9.469476 -86.246366
v 13.605546 7.491499 -88.261053
v 13.605546 9.693368 -86.531379
v 13.780371 7.752227 -88.592959
v 13.780370 9.954096 -86.863285
v 13.840001 8.032022 -88.949138
v -4.160000 10.233892 -87.219465
v -4.219629 8.311818 -89.305318
v -4.159999 8.032022 -88.949139
v -4.219629 10.513687 -87.575644
v -4.394454 8.572545 -89.637223
v -4.394454 10.774414 -87.907549
v -4.672562 8.796437 -89.922236
v -4.672562 10.998306 -88.192563
v -5.034998 8.968236 -90.140936
v -5.034999 11.170105 -88.411262
v -5.457065 9.076232 -90.278415
v -5.457065 11.278101 -88.548742
v -5.909998 9.113068 -90.325307
v -5.909998 11.314937 -88.595633
v -6.362932 9.076232 -90.278415
v -6.362932 11.278101 -88.548742
v -6.784999 8.968236 -90.140936
v -6.784999 11.170105 -88.411263
v -7.147435 8.796437 -89.922237
v -7.147435 10.998306 -88.192563
v -7.425543 8.572545 -89.637223
v -7.425543 10.774414 -87.907549
v -7.600368 8.311818 -89.305318
v -7.600368 10.513687 -87.575644
v -7.659999 8.032022 -88.949139
v -7.659999 10.233892 -87.219466
v -7.600368 7.752227 -88.592961
v -7.600368 9.954096 -86.863287
v -7.425544 7.491499 -88.261055
v -7.425544 9.693368 -86.531381
v -7.147435 7.267607 -87.976041
v -7.147435 9.469476 -86.246367
v -6.784999 7.095809 -87.757342
v -6.784999 9.297678 -86.027669
v -6.362932 6.987812 -87.619862
v -6.362932 9.189681 -85.890189
v -5.909999 6.950976 -87.572971
v -5.909999 9.152846 -85.843297
v -5.457065 6.987812 -87.619862
v -5.457065 9.189681 -85.890189
v -5.034999 7.095809 -87.757342
v -5.034999 9.297678 -86.027669
v -4.672562 7.267607 -87.976041
v -4.672562 9.469476 -86.246367
v -4.394454 7.491499 -88.261054
v -4.394454 9.693368 -86.531381
v -4.219629 7.752227 -88.592960
v -4.219629 9.954096 -86.863287
v -4.159999 8.032022 -88.949139
v -4.159999 16.411296 -95.083284
v -4.219628 14.489223 -97.169136
v -4.159999 14.209427 -96.812957
v -4.219628 16.691092 -95.439463
v -4.394453 14.749949 -97.501041
v -4.394454 16.951819 -95.771367
v -4.672561 14.973842 -97.786055
v -4.672561 17.175711 -96.056381
v -5.034998 15.145640 -98.004754
v -5.034998 17.347509 -96.275080
v -5.457064 15.253637 -98.142233
v -5.457064 17.455506 -96.412560
v -5.909998 15.290474 -98.189127
v -5.909998 17.492343 -96.459453
v -6.362931 15.253637 -98.142233
v -6.362931 17.455506 -96.412560
v -6.784998 15.145640 -98.004754
v -6.784998 17.347510 -96.275081
v -7.147434 14.973842 -97.786055
v -7.147434 17.175711 -96.056382
v -7.425543 14.749950 -97.501041
v -7.425543 16.951819 -95.771368
v -7.600368 14.489223 -97.169136
v -7.600368 16.691092 -95.439463
v -7.659998 14.209427 -96.812957
v -7.659998 16.411296 -95.083284
v -7.600368 13.929632 -96.456779
v -7.600368 16.131501 -94.727106
v -7.425543 13.668904 -96.124874
v -7.425543 15.870774 -94.395200
v -7.147434 13.445012 -95.839859
v -7.147434 15.646881 -94.110186
v -6.784999 13.273214 -95.621160
v -6.784999 15.475083 -93.891487
v -6.362931 13.165217 -95.483681
v -6.362931 15.367086 -93.754008
v -5.909998 13.128381 -95.436789
v -5.909998 15.330250 -93.707115
v -5.457064 13.165217 -95.483681
v -5.457064 15.367086 -93.754008
v -5.034998 13.273214 -95.621160
v -5.034998 15.475083 -93.891487
v -4.672561 13.445012 -95.839859
v -4.672562 15.646881 -94.110186
v -4.394454 13.668904 -96.124873
v -4.394454 15.870774 -94.395200
v -4.219628 13.929632 -96.456779
v -4.219628 16.131501 -94.727106
v -4.159999 14.209427 -96.812957
v -9.409998 17.183472 -96.066262
v -9.341850 15.301369 -98.202997
v -9.409998 14.981603 -97.795935
v -9.341850 17.503238 -96.473323
v -9.142049 15.599343 -98.582317
v -9.142049 17.801212 -96.852643
v -8.824212 15.855220 -98.908047
v -8.824212 18.057089 -97.178374
v -8.409997 16.051560 -99.157988
v -8.409997 18.253430 -97.428314
v -7.927636 16.174986 -99.315109
v -7.927636 18.376856 -97.585435
v -7.409998 16.217083 -99.368698
v -7.409998 18.418953 -97.639025
v 13.590002 18.418952 -97.639023
v -7.409998 16.217083 -99.368698
v -7.409998 18.418953 -97.639025
v 14.107640 18.376855 -97.585434
v 14.590002 16.051560 -99.157986
v 14.107641 16.174986 -99.315107
v 13.590002 18.418952 -97.639023
v 14.590001 18.253429 -97.428312
v 15.004216 15.855220 -98.908045
v 15.004216 18.057089 -97.178372
v 15.322053 15.599343 -98.582315
v 15.322053 17.801212 -96.852641
v 15.521854 15.301369 -98.202995
v 15.521854 17.503238 -96.473321
v 15.590002 14.981602 -97.795933
v 15.590002 17.183471 -96.066259
v 15.589999 -7.217278 -65.004176
v 15.590002 14.981602 -97.795933
v 15.590002 17.183471 -96.066259
v 15.521851 -7.537045 -64.597113
v 15.322050 -10.036889 -65.947467
v 15.521851 -9.738915 -66.326787
v 15.589999 -7.217278 -65.004176
v 15.322050 -7.835019 -64.217793
v 15.004213 -10.292766 -65.621736
v 15.004212 -8.090896 -63.892063
v 14.589998 -10.489106 -65.371796
v 14.589998 -8.287237 -63.642122
v 14.107637 -10.612532 -65.214675
v 14.107637 -8.410663 -63.485001
v 13.589998 -10.654629 -65.161085
v 13.589998 -8.452760 -63.431412
v -7.410001 -8.452759 -63.431413
v 13.589998 -10.654629 -65.161085
v 13.589998 -8.452760 -63.431412
v -7.927640 -8.410662 -63.485003
v -8.410001 -10.489105 -65.371798
v -7.927640 -10.612531 -65.214676
v -7.410001 -8.452759 -63.431413
v -8.410001 -8.287236 -63.642124
v -8.824215 -10.292765 -65.621738
v -8.824215 -8.090896 -63.892065
v -9.142052 -10.036888 -65.947469
v -9.142052 -7.835019 -64.217795
v -9.341853 -9.738914 -66.326789
v -9.341853 -7.537045 -64.597115
v -9.410001 -9.419147 -66.733851
v -9.410001 -7.217278 -65.004178
v 9.339999 -7.565926 -69.092995
v -3.160001 -7.565926 -69.092996
v 9.339999 -5.364057 -67.363321
v -3.160001 -5.364057 -67.363322
v -3.159999 6.950976 -87.572971
v 9.340001 6.950976 -87.572970
v -3.159999 9.152846 -85.843297
v 9.340001 9.152845 -85.843296
v -3.160000 5.755272 -81.518196
v -6.160000 5.755273 -81.518197
v -3.159999 3.553403 -83.247870
v -6.160000 3.553403 -83.247870
v -7.425544 7.491499 -88.261055
v -6.362932 6.987812 -87.619862
v -4.219631 -8.367177 -68.073006
v 10.574456 7.491499 -88.261053
v 9.340001 3.553403 -83.247869
v 10.399629 -8.367178 -68.073004
v -3.160000 -4.168354 -73.418096
v -6.160001 -4.168354 -73.418096
v -3.160001 -1.966485 -71.688422
v -6.160001 -1.966484 -71.688422
v -6.160001 -4.168354 -73.418096
v -6.160000 3.553403 -83.247870
v -6.160001 -1.966484 -71.688422
v -6.160000 5.755273 -81.518197
v 9.340001 3.553403 -83.247869
v 12.340001 3.553403 -83.247869
v 9.340000 5.755272 -81.518195
v 12.340001 5.755272 -81.518195
v 12.340001 3.553403 -83.247869
v 12.340000 -4.168354 -73.418094
v 12.340001 5.755272 -81.518195
v 12.340000 -1.966485 -71.688421
v 9.339999 -1.966485 -71.688421
v 12.340000 -1.966485 -71.688421
v 9.340000 -4.168354 -73.418095
v 12.340000 -4.168354 -73.418094
v 13.839999 -6.445103 -65.987152
v -4.160002 -6.445103 -65.987154
v 13.840002 16.411296 -95.083282
v 13.840001 10.233891 -87.219464
v -4.160000 10.233892 -87.219465
v -4.159999 16.411296 -95.083284
v -9.410001 -9.419147 -66.733851
v -9.409998 17.183472 -96.066262
v 13.590002 16.217083 -99.368696
v 15.589999 -9.419148 -66.733849
v -7.410001 -10.654628 -65.161087
v -9.410001 -7.217278 -65.004178
v 9.340000 5.755272 -81.518195
v 11.215001 9.297678 -86.027667
v 9.340001 9.152845 -85.843296
v 12.340001 5.755272 -81.518195
v 11.637067 9.189681 -85.890187
v 10.852564 9.469476 -86.246366
v 10.574456 9.693368 -86.531380
v 12.340000 -1.966485 -71.688421
v 15.589999 -7.217278 -65.004176
v 12.090000 9.152845 -85.843296
v 12.542934 9.189681 -85.890187
v 12.965001 9.297678 -86.027667
v 13.327437 9.469476 -86.246366
v 13.605546 9.693368 -86.531379
v 13.780370 9.954096 -86.863285
v 13.840001 10.233891 -87.219464
v 13.605544 -5.904581 -66.675236
v 13.780368 -6.165308 -66.343331
v 13.839999 -6.445103 -65.987152
v 13.780368 -6.724898 -65.630974
v 15.521851 -7.537045 -64.597113
v 15.590002 17.183471 -96.066259
v 13.780371 10.513686 -87.575643
v 13.840002 16.411296 -95.083282
v 13.780371 16.131501 -94.727104
v 13.605546 15.870773 -94.395198
v 13.605546 10.774414 -87.907548
v 13.327438 15.646881 -94.110184
v 12.965001 11.170105 -88.411261
v 13.327437 10.998306 -88.192561
v 11.214999 -5.508890 -67.178950
v 11.637065 -5.400893 -67.316429
v 12.089999 -5.364057 -67.363321
v 12.542932 -5.400894 -67.316429
v 12.964999 -5.508890 -67.178949
v 13.327435 -5.680688 -66.960250
v 9.339999 -1.966485 -71.688421
v 9.339999 -5.364057 -67.363321
v 10.852562 -5.680688 -66.960251
v 10.574454 -5.904581 -66.675236
v 10.399629 -6.165308 -66.343331
v 10.339999 -6.445103 -65.987153
v 10.399629 -6.724898 -65.630975
v -3.160001 -5.364057 -67.363322
v -4.219631 -6.724898 -65.630976
v -4.160002 -6.445103 -65.987154
v 10.574454 -6.985626 -65.299069
v -4.219631 -6.165308 -66.343332
v -4.394456 -5.904580 -66.675238
v -4.672564 -5.680688 -66.960252
v -5.035001 -5.508890 -67.178951
v -3.160001 -1.966485 -71.688422
v -6.160001 -1.966484 -71.688422
v -9.410001 -7.217278 -65.004178
v -7.425546 -5.904580 -66.675238
v -7.147437 -5.680688 -66.960252
v -6.785001 -5.508889 -67.178951
v -6.362934 -5.400893 -67.316430
v -5.910001 -5.364057 -67.363322
v -5.457067 -5.400893 -67.316430
v -6.160000 5.755273 -81.518197
v -5.034999 9.297678 -86.027669
v -5.457065 9.189681 -85.890189
v -5.909999 9.152846 -85.843297
v -6.362932 9.189681 -85.890189
v -6.784999 9.297678 -86.027669
v -7.147435 9.469476 -86.246367
v -7.425544 9.693368 -86.531381
v -7.600368 9.954096 -86.863287
v -7.600371 -6.724898 -65.630976
v -7.660001 -6.445103 -65.987154
v -7.600371 -6.165308 -66.343332
v -7.659999 10.233892 -87.219466
v -9.409998 17.183472 -96.066262
v -3.160000 5.755272 -81.518196
v -3.159999 9.152846 -85.843297
v -4.672562 9.469476 -86.246367
v -4.219628 16.131501 -94.727106
v -4.394454 9.693368 -86.531381
v -4.219629 9.954096 -86.863287
v -4.160000 10.233892 -87.219465
v -4.219629 10.513687 -87.575644
v -4.394454 10.774414 -87.907549
v 10.399632 16.131501 -94.727104
v -4.159999 16.411296 -95.083284
v -4.394454 15.870774 -94.395200
v -4.672562 10.998306 -88.192563
v -4.672562 15.646881 -94.110186
v -5.034999 11.170105 -88.411262
v -5.034998 15.475083 -93.891487
v -5.457065 11.278101 -88.548742
v -5.457064 15.367086 -93.754008
v -5.909998 11.314937 -88.595633
v -5.909998 15.330250 -93.707115
v -6.362931 15.367086 -93.754008
v -6.362932 11.278101 -88.548742
v 10.340002 16.411296 -95.083282
v -4.219628 16.691092 -95.439463
v 10.399632 16.691091 -95.439461
v -4.394454 16.951819 -95.771367
v 10.574457 16.951818 -95.771366
v -4.672561 17.175711 -96.056381
v 10.852565 17.175711 -96.056380
v -5.034998 17.347509 -96.275080
v 11.215002 17.347509 -96.275079
v -7.409998 18.418953 -97.639025
v 13.590002 18.418952 -97.639023
v -7.147434 17.175711 -96.056382
v -6.784998 17.347510 -96.275081
v -6.362931 17.455506 -96.412560
v -5.909998 17.492343 -96.459453
v -5.457064 17.455506 -96.412560
v 11.637068 17.455506 -96.412558
v 12.090002 17.492343 -96.459452
v 12.542935 17.455505 -96.412558
v 12.965002 17.347509 -96.275079
v 13.327438 17.175711 -96.056380
v 14.107640 18.376855 -97.585434
v 15.322050 -7.835019 -64.217793
v 15.004212 -8.090896 -63.892063
v 14.589998 -8.287237 -63.642122
v 13.605543 -6.985626 -65.299069
v 14.107637 -8.410663 -63.485001
v 13.327435 -7.209518 -65.014055
v 13.589998 -8.452760 -63.431412
v 12.964999 -7.381317 -64.795356
v 12.542932 -7.489313 -64.657877
v 12.089998 -7.526150 -64.610983
v 11.637065 -7.489313 -64.657877
v 11.214998 -7.381317 -64.795356
v -5.035001 -7.381316 -64.795357
v -7.410001 -8.452759 -63.431413
v -4.672564 -7.209518 -65.014056
v 10.852562 -7.209518 -65.014055
v -4.394457 -6.985625 -65.299070
v -5.457067 -7.489313 -64.657878
v -5.910001 -7.526150 -64.610985
v -6.362934 -7.489313 -64.657878
v -6.785001 -7.381316 -64.795357
v -7.147437 -7.209518 -65.014056
v -7.927640 -8.410662 -63.485003
v -7.425546 -6.985625 -65.299071
v -8.410001 -8.287236 -63.642124
v -8.824215 -8.090896 -63.892065
v -9.142052 -7.835019 -64.217795
v -9.341853 -7.537045 -64.597115
v 13.780371 16.691091 -95.439461
v 12.965002 15.475082 -93.891485
v 12.542934 11.278101 -88.548740
v 12.542935 15.367086 -93.754006
v 12.090001 11.314937 -88.595632
v 12.090001 15.330250 -93.707114
v 11.637068 15.367086 -93.754006
v 11.637067 11.278101 -88.548740
v 11.215001 15.475082 -93.891485
v 11.215001 11.170105 -88.411261
v 10.852565 15.646881 -94.110184
v 10.852564 10.998306 -88.192562
v 10.574457 15.870773 -94.395199
v 10.574456 10.774414 -87.907548
v 10.399631 10.513687 -87.575643
v 10.340002 10.233891 -87.219464
v 10.399631 9.954096 -86.863286
v 13.605546 16.951818 -95.771366
v 14.590001 18.253429 -97.428312
v 15.004216 18.057089 -97.178372
v 15.322053 17.801212 -96.852641
v 15.521854 17.503238 -96.473321
v -7.600368 10.513687 -87.575644
v -7.425543 10.774414 -87.907549
v -7.425543 15.870774 -94.395200
v -7.600368 16.131501 -94.727106
v -7.659998 16.411296 -95.083284
v -7.600368 16.691092 -95.439463
v -9.341850 17.503238 -96.473323
v -7.147434 15.646881 -94.110186
v -7.147435 10.998306 -88.192563
v -6.784999 11.170105 -88.411263
v -6.784999 15.475083 -93.891487
v -9.142049 17.801212 -96.852643
v -8.824212 18.057089 -97.178374
v -8.409997 18.253430 -97.428314
v -7.425543 16.951819 -95.771368
v -7.927636 18.376856 -97.585435
f 1 2 3
f 1 4 2
f 5 6 7
f 5 8 6
f 9 10 11
f 9 12 10
f 13 14 15
f 13 16 14
f 17 18 19
f 17 19 20
f 17 21 18
f 17 143 150
f 17 150 151
f 17 151 152
f 17 49 48
f 17 152 49
f 17 20 143
f 18 21 27
f 19 563 20
f 20 89 90
f 20 91 92
f 20 93 94
f 20 563 89
f 20 90 564
f 20 564 91
f 20 92 93
f 21 22 23
f 21 23 24
f 21 25 26
f 21 26 27
f 21 28 22
f 21 24 25
f 22 28 29
f 22 29 67
f 22 67 66
f 22 66 65
f 25 68 26
f 26 68 88
f 30 31 32
f 30 32 109
f 31 33 32
f 32 108 109
f 32 33 106
f 32 110 108
f 33 34 35
f 33 35 36
f 33 37 34
f 33 107 106
f 33 36 138
f 33 138 107
f 34 37 41
f 36 137 136
f 36 136 138
f 37 38 39
f 37 39 40
f 37 42 43
f 37 43 44
f 37 45 38
f 37 40 42
f 37 44 41
f 38 45 46
f 38 46 190
f 38 190 189
f 38 189 188
f 41 44 105
f 42 166 43
f 43 167 168
f 43 169 171
f 43 166 191
f 43 191 167
f 43 168 192
f 43 192 169
f 44 102 103
f 44 104 105
f 44 101 193
f 44 193 102
f 44 103 194
f 44 194 104
f 44 567 101
f 47 48 49
f 47 49 154
f 49 153 154
f 49 155 153
f 50 51 52
f 50 52 53
f 50 54 51
f 51 54 120
f 52 69 53
f 53 69 70
f 53 70 73
f 53 74 75
f 53 73 74
f 54 119 120
f 55 56 57
f 55 57 58
f 55 59 56
f 55 58 117
f 56 59 60
f 56 60 61
f 56 61 62
f 56 63 64
f 56 62 63
f 57 111 112
f 57 112 113
f 57 113 114
f 57 114 115
f 57 115 116
f 57 116 58
f 58 118 117
f 63 65 64
f 64 65 66
f 68 86 87
f 68 87 88
f 69 121 122
f 69 123 121
f 69 99 70
f 69 122 99
f 70 72 71
f 70 71 73
f 70 94 93
f 70 93 95
f 70 95 96
f 70 96 72
f 74 76 75
f 75 76 77
f 76 78 77
f 77 78 79
f 78 80 79
f 79 80 81
f 80 82 81
f 81 82 84
f 82 83 84
f 82 85 83
f 83 85 86
f 85 87 86
f 97 98 99
f 97 99 122
f 98 566 99
f 99 100 101
f 99 566 100
f 99 101 567
f 108 110 111
f 110 112 111
f 117 118 119
f 118 120 119
f 121 123 124
f 123 125 124
f 124 125 126
f 125 127 126
f 126 127 128
f 127 129 128
f 128 129 130
f 129 131 130
f 130 132 133
f 130 131 132
f 132 134 133
f 133 134 135
f 134 136 135
f 135 136 137
f 139 140 141
f 139 141 565
f 140 142 141
f 141 142 144
f 141 164 165
f 141 165 565
f 141 170 164
f 142 143 144
f 142 145 143
f 143 145 146
f 143 146 147
f 143 147 148
f 143 148 149
f 143 149 150
f 153 155 156
f 155 157 156
f 156 157 158
f 157 159 158
f 158 159 160
f 158 160 161
f 158 161 162
f 158 162 163
f 158 180 181
f 158 163 180
f 163 178 179
f 163 179 180
f 164 175 176
f 164 170 175
f 169 170 171
f 169 172 170
f 170 172 173
f 170 174 175
f 170 173 568
f 170 568 174
f 175 177 176
f 176 177 178
f 177 179 178
f 180 182 181
f 181 182 183
f 181 183 184
f 181 184 185
f 181 186 187
f 181 185 186
f 186 188 187
f 187 188 189
f 195 196 197
f 195 198 196
f 196 198 199
f 198 200 199
f 199 200 201
f 200 202 201
f 201 202 203
f 202 204 203
f 203 204 205
f 204 206 205
f 205 206 207
f 206 208 207
f 207 208 209
f 208 210 209
f 209 210 211
f 210 212 211
f 211 212 213
f 212 214 213
f 213 214 215
f 214 216 215
f 215 216 217
f 216 218 217
f 217 218 219
f 218 220 219
f 219 220 221
f 220 222 221
f 221 222 223
f 222 224 223
f 223 224 225
f 224 226 225
f 225 226 227
f 226 228 227
f 227 228 229
f 228 230 229
f 229 230 231
f 230 232 231
f 231 232 233
f 232 234 233
f 233 234 235
f 234 236 235
f 235 236 237
f 236 238 237
f 237 238 239
f 238 240 239
f 239 240 241
f 240 242 241
f 241 242 243
f 242 589 243
f 244 245 246
f 244 247 245
f 245 247 248
f 247 249 248
f 248 249 250
f 249 251 250
f 250 251 252
f 251 253 252
f 252 253 254
f 253 255 254
f 254 255 256
f 255 257 256
f 256 257 258
f 257 259 258
f 258 259 260
f 259 261 260
f 260 261 262
f 261 263 262
f 262 263 264
f 263 265 264
f 264 265 266
f 265 267 266
f 266 267 268
f 267 269 268
f 268 269 270
f 269 271 270
f 270 271 272
f 271 273 272
f 272 273 274
f 273 275 274
f 274 275 276
f 275 277 276
f 276 277 278
f 277 279 278
f 278 279 280
f 279 281 280
f 280 281 282
f 281 283 282
f 282 283 284
f 283 285 284
f 284 285 286
f 285 287 286
f 286 287 288
f 287 289 288
f 288 289 290
f 289 291 290
f 290 291 292
f 291 590 292
f 293 294 295
f 293 296 294
f 294 296 297
f 296 298 297
f 297 298 299
f 298 300 299
f 299 300 301
f 300 302 301
f 301 302 303
f 302 304 303
f 303 304 305
f 304 306 305
f 305 306 307
f 306 308 307
f 307 308 309
f 308 310 309
f 309 310 311
f 310 312 311
f 311 312 313
f 312 314 313
f 313 314 315
f 314 316 315
f 315 316 317
f 316 318 317
f 317 318 319
f 318 320 319
f 319 320 321
f 320 322 321
f 321 322 323
f 322 324 323
f 323 324 325
f 324 326 325
f 325 326 327
f 326 328 327
f 327 328 329
f 328 330 329
f 329 330 331
f 330 332 331
f 331 332 333
f 332 334 333
f 333 334 335
f 334 336 335
f 335 336 337
f 336 338 337
f 337 338 339
f 338 340 339
f 339 340 341
f 340 591 341
f 342 343 344
f 342 345 343
f 343 345 346
f 345 347 346
f 346 347 348
f 347 349 348
f 348 349 350
f 349 351 350
f 350 351 352
f 351 353 352
f 352 353 354
f 353 355 354
f 354 355 356
f 355 357 356
f 356 357 358
f 357 359 358
f 358 359 360
f 359 361 360
f 360 361 362
f 361 363 362
f 362 363 364
f 363 365 364
f 364 365 366
f 365 367 366
f 366 367 368
f 367 369 368
f 368 369 370
f 369 371 370
f 370 371 372
f 371 373 372
f 372 373 374
f 373 375 374
f 374 375 376
f 375 377 376
f 376 377 378
f 377 379 378
f 378 379 380
f 379 381 380
f 380 381 382
f 381 383 382
f 382 383 384
f 383 385 384
f 384 385 386
f 385 387 386
f 386 387 388
f 387 389 388
f 388 389 390
f 389 592 390
f 391 392 393
f 391 394 392
f 392 394 395
f 394 396 395
f 395 396 397
f 396 398 397
f 397 398 399
f 398 400 399
f 399 400 401
f 400 402 401
f 401 402 403
f 402 404 403
f 403 404 405
f 404 406 405
f 405 406 407
f 406 408 407
f 407 408 409
f 408 410 409
f 409 410 411
f 410 412 411
f 411 412 413
f 412 414 413
f 413 414 415
f 414 416 415
f 415 416 417
f 416 418 417
f 417 418 419
f 418 420 419
f 419 420 421
f 420 422 421
f 421 422 423
f 422 424 423
f 423 424 425
f 424 426 425
f 425 426 427
f 426 428 427
f 427 428 429
f 428 430 429
f 429 430 431
f 430 432 431
f 431 432 433
f 432 434 433
f 433 434 435
f 434 436 435
f 435 436 437
f 436 438 437
f 437 438 439
f 438 593 439
f 440 441 442
f 440 443 441
f 441 443 444
f 443 445 444
f 444 445 446
f 445 447 446
f 446 447 448
f 447 449 448
f 448 449 450
f 449 451 450
f 450 451 452
f 451 453 452
f 452 453 454
f 453 455 454
f 454 455 456
f 455 457 456
f 456 457 458
f 457 459 458
f 458 459 460
f 459 461 460
f 460 461 462
f 461 463 462
f 462 463 464
f 463 465 464
f 464 465 466
f 465 467 466
f 466 467 468
f 467 469 468
f 468 469 470
f 469 471 470
f 470 471 472
f 471 473 472
f 472 473 474
f 473 475 474
f 474 475 476
f 475 477 476
f 476 477 478
f 477 479 478
f 478 479 480
f 479 481 480
f 480 481 482
f 481 483 482
f 482 483 484
f 483 485 484
f 484 485 486
f 485 487 486
f 486 487 488
f 487 594 488
f 489 490 491
f 489 492 490
f 490 492 493
f 491 595 596
f 492 494 493
f 493 494 495
f 494 496 495
f 495 496 497
f 496 498 497
f 497 498 499
f 498 500 499
f 499 500 501
f 500 502 501
f 503 504 505
f 503 597 504
f 506 507 508
f 506 508 509
f 506 510 507
f 507 510 511
f 508 597 509
f 510 512 511
f 511 512 513
f 512 514 513
f 513 514 515
f 514 516 515
f 515 516 517
f 516 518 517
f 519 520 521
f 519 598 520
f 522 523 524
f 522 524 525
f 522 526 523
f 523 526 527
f 524 598 525
f 526 528 527
f 527 528 529
f 528 530 529
f 529 530 531
f 530 532 531
f 531 532 533
f 532 534 533
f 535 536 537
f 535 599 536
f 538 539 540
f 538 540 541
f 538 542 539
f 539 542 543
f 540 599 541
f 542 544 543
f 543 544 545
f 544 546 545
f 545 546 547
f 546 548 547
f 547 548 549
f 548 550 549
f 551 552 553
f 552 554 553
f 555 556 557
f 556 558 557
f 559 560 561
f 560 562 561
f 569 570 571
f 570 572 571
f 573 574 575
f 574 576 575
f 577 578 579
f 578 580 579
f 581 582 583
f 582 584 583
f 585 586 587
f 586 588 587
f 595 600 596
f 601 602 603
f 601 604 602
f 602 604 605
f 602 606 603
f 603 606 607
f 603 678 676
f 603 684 678
f 603 761 684
f 603 762 761
f 603 763 762
f 603 607 763
f 604 608 609
f 604 610 605
f 604 611 610
f 604 612 611
f 604 613 612
f 604 614 613
f 604 615 614
f 604 609 615
f 608 617 609
f 608 631 632
f 608 632 633
f 608 634 635
f 608 635 636
f 608 637 631
f 608 633 634
f 608 636 617
f 609 616 615
f 609 617 618
f 609 619 620
f 609 620 621
f 609 622 616
f 609 618 619
f 616 622 623
f 620 719 621
f 620 720 719
f 620 721 720
f 620 722 721
f 622 624 625
f 622 625 626
f 622 627 623
f 622 626 627
f 622 747 624
f 622 768 747
f 626 628 627
f 627 628 630
f 628 629 630
f 628 748 629
f 629 748 749
f 631 637 638
f 631 638 639
f 638 640 639
f 638 641 640
f 638 642 641
f 638 643 642
f 638 644 643
f 643 644 645
f 643 645 647
f 644 646 645
f 644 648 646
f 644 649 648
f 644 650 649
f 644 651 650
f 644 652 651
f 645 735 647
f 647 735 734
f 651 652 653
f 651 653 660
f 653 654 655
f 653 655 656
f 653 657 658
f 653 658 659
f 653 661 654
f 653 656 657
f 653 659 660
f 654 661 669
f 654 670 671
f 654 671 672
f 654 669 673
f 654 673 674
f 654 746 670
f 654 672 655
f 661 662 663
f 661 663 664
f 661 665 666
f 661 666 667
f 661 668 669
f 661 675 662
f 661 664 665
f 661 667 668
f 662 675 676
f 662 676 677
f 670 743 742
f 670 744 743
f 670 745 744
f 670 746 745
f 673 769 674
f 674 769 770
f 674 771 772
f 674 772 773
f 674 774 775
f 674 770 771
f 674 773 774
f 676 679 677
f 676 680 679
f 676 681 680
f 676 682 681
f 676 678 682
f 678 683 682
f 678 684 685
f 678 686 683
f 683 686 687
f 684 697 685
f 684 760 759
f 684 761 760
f 685 697 698
f 686 688 687
f 687 688 689
f 688 690 689
f 689 690 691
f 690 692 691
f 691 692 693
f 692 694 693
f 693 694 695
f 693 695 696
f 695 779 696
f 696 779 778
f 697 699 698
f 698 699 700
f 699 701 700
f 700 701 702
f 701 703 702
f 702 703 704
f 703 705 704
f 704 705 706
f 704 706 712
f 705 707 706
f 705 713 707
f 706 708 709
f 706 709 710
f 706 711 712
f 706 784 708
f 706 710 711
f 707 713 714
f 707 715 716
f 707 716 717
f 707 717 718
f 707 714 715
f 708 784 783
f 717 764 718
f 718 764 765
f 721 722 723
f 722 724 723
f 723 724 725
f 724 726 725
f 725 726 727
f 725 728 729
f 725 729 730
f 725 731 732
f 725 727 728
f 725 730 731
f 730 733 731
f 730 734 733
f 731 736 732
f 732 736 737
f 732 738 739
f 732 739 740
f 732 740 741
f 732 737 738
f 733 734 735
f 740 742 741
f 741 742 743
f 747 765 764
f 747 766 765
f 747 767 766
f 747 768 767
f 748 750 749
f 749 750 751
f 750 752 751
f 751 752 753
f 751 753 754
f 753 755 754
f 754 755 756
f 755 757 756
f 756 757 758
f 757 759 758
f 758 759 760
f 770 776 771
f 770 777 776
f 774 780 775
f 774 781 780
f 774 782 781
f 774 783 782
f 776 777 778
f 776 778 779
f 782 783 784