# Part19
# Autodesk dbId: 140
# Units: mm
o 140_Part19
v -3.360000 4.450136 -74.595659
v -6.160001 4.170119 -74.321937
v -6.160001 4.450136 -74.595659
v -3.360000 4.170119 -74.321937
v -6.160001 3.828798 -74.130015
v -3.360000 3.828798 -74.130015
v -6.160001 3.449434 -74.032973
v -3.360000 3.449434 -74.032973
v -6.160001 3.057881 -74.037425
v -3.360000 3.057881 -74.037424
v -6.160001 2.680821 -74.143066
v -3.360000 2.680822 -74.143065
v -6.160000 2.343952 -74.342697
v -3.360000 2.343952 -74.342697
v -6.160000 2.070229 -74.622715
v -3.360000 2.070230 -74.622714
v -6.160000 1.878308 -74.964035
v -3.360000 1.878308 -74.964035
v -6.160000 1.781266 -75.343399
v -3.360000 1.781266 -75.343399
v -6.160000 1.785717 -75.734952
v -3.360000 1.785717 -75.734952
v -6.160000 1.891358 -76.112012
v -3.360000 1.891358 -76.112011
v -6.160000 2.090990 -76.448881
v -3.360000 2.090990 -76.448881
v -6.160000 2.371007 -76.722604
v -3.360000 2.371007 -76.722603
v -6.160000 2.712328 -76.914526
v -3.360000 2.712328 -76.914525
v -6.160000 3.091691 -77.011567
v -3.360000 3.091691 -77.011567
v -6.160000 3.483245 -77.007116
v -3.360000 3.483245 -77.007116
v -6.160000 3.860304 -76.901475
v -3.360000 3.860304 -76.901475
v -6.160000 4.197174 -76.701844
v -3.360000 4.197174 -76.701843
v -6.160000 4.470896 -76.421826
v -3.360000 4.470896 -76.421826
v -6.160000 4.662818 -76.080505
v -3.360000 4.662818 -76.080505
v -6.160001 4.759860 -75.701142
v -3.360000 4.759860 -75.701141
v -6.160001 4.755409 -75.309588
v -3.360000 4.755409 -75.309588
v -6.160001 4.649768 -74.932529
v -3.360000 4.649768 -74.932529
v -6.160001 4.450136 -74.595659
v -3.360000 5.600838 -81.321609
v -6.160000 8.689541 -85.253520
v -3.359999 8.689541 -85.253520
v -6.160000 5.600838 -81.321609
v -6.160001 0.940288 -69.722931
v -3.360001 3.102839 -68.024144
v -6.160001 3.102839 -68.024145
v -3.360000 0.940288 -69.722931
v -3.360000 -3.974600 -73.583810
v -6.160000 3.438287 -83.020396
v -3.359999 3.438287 -83.020396
v -6.160000 -3.974600 -73.583810
v -3.360000 -1.812049 -71.885023
v -6.160000 -3.974600 -73.583810
v -3.360000 -3.974600 -73.583810
v -6.160000 -1.812050 -71.885023
v -3.360001 -2.148415 -65.791020
v -3.360000 -4.900752 -67.953112
v -3.360000 0.940288 -69.722931
v -6.160001 -2.148415 -65.791021
v -6.160001 -4.900752 -67.953113
v -3.360001 -2.148415 -65.791020
v -3.360000 4.450136 -74.595659
v -6.160000 8.689541 -85.253520
v -6.160000 11.441878 -83.091428
v -3.359999 8.689541 -85.253520
v -3.360000 11.441878 -83.091428
v -6.160000 11.441878 -83.091428
v -6.160000 8.353175 -79.159517
v -3.360000 11.441878 -83.091428
v -3.360000 8.353175 -79.159517
v -3.360000 5.600838 -81.321609
v -3.359999 3.438287 -83.020396
v -6.160000 5.600838 -81.321609
v -6.160000 3.438287 -83.020396
v -6.160000 8.353175 -79.159517
v -6.160001 10.515726 -77.460731
v -3.360000 8.353175 -79.159517
v -3.360000 10.515726 -77.460731
v -6.160001 10.515726 -77.460731
v -6.160001 3.102839 -68.024145
v -3.360000 10.515726 -77.460731
v -3.360001 3.102839 -68.024144
v -3.360000 4.649768 -74.932529
v -3.360000 10.515726 -77.460731
v -3.360000 4.450136 -74.595659
v -3.360000 8.353175 -79.159517
v -3.360001 3.102839 -68.024144
v -3.360000 4.170119 -74.321937
v -3.360000 3.828798 -74.130015
v -3.360000 -1.812049 -71.885023
v -3.360000 3.449434 -74.032973
v -3.360000 3.057881 -74.037424
v -3.360000 2.680822 -74.143065
v -3.360000 2.343952 -74.342697
v -3.360000 2.070230 -74.622714
v -3.360000 1.878308 -74.964035
v -3.360000 1.781266 -75.343399
v -3.360000 1.785717 -75.734952
v -3.360000 1.891358 -76.112011
v -3.360000 -3.974600 -73.583810
v -3.360000 2.090990 -76.448881
v -3.359999 3.438287 -83.020396
v -3.360000 2.371007 -76.722603
v -3.360000 5.600838 -81.321609
v -3.360000 2.712328 -76.914525
v -3.360000 11.441878 -83.091428
v -3.360000 3.091691 -77.011567
v -3.360000 3.483245 -77.007116
v -3.360000 3.860304 -76.901475
v -3.360000 4.197174 -76.701843
v -3.360000 4.470896 -76.421826
v -3.360000 4.662818 -76.080505
v -3.360000 4.759860 -75.701141
v -3.360000 4.755409 -75.309588
v -3.359999 8.689541 -85.253520
v -3.360000 -4.900752 -67.953112
v -6.160001 -4.900752 -67.953113
v -6.160000 -1.812050 -71.885023
v -3.360000 -4.900752 -67.953112
v -3.360000 -1.812049 -71.885023
v -6.160001 0.940288 -69.722931
v -6.160001 -2.148415 -65.791021
v -3.360000 0.940288 -69.722931
v -3.360001 -2.148415 -65.791020
v -6.160001 4.170119 -74.321937
v -6.160001 3.102839 -68.024145
v -6.160001 4.450136 -74.595659
v -6.160001 0.940288 -69.722931
v -6.160001 10.515726 -77.460731
v -6.160001 4.649768 -74.932529
v -6.160000 8.353175 -79.159517
v -6.160001 4.755409 -75.309588
v -6.160000 8.689541 -85.253520
v -6.160000 5.600838 -81.321609
v -6.160001 4.759860 -75.701142
v -6.160000 4.662818 -76.080505
v -6.160000 4.470896 -76.421826
v -6.160000 4.197174 -76.701844
v -6.160000 3.860304 -76.901475
v -6.160000 3.483245 -77.007116
v -6.160000 3.091691 -77.011567
v -6.160000 2.712328 -76.914526
v -6.160000 2.371007 -76.722604
v -6.160000 3.438287 -83.020396
v -6.160000 2.090990 -76.448881
v -6.160000 -3.974600 -73.583810
v -6.160000 1.891358 -76.112012
v -6.160000 -1.812050 -71.885023
v -6.160000 1.785717 -75.734952
v -6.160001 -2.148415 -65.791021
v -6.160000 1.781266 -75.343399
v -6.160000 1.878308 -74.964035
v -6.160000 2.070229 -74.622715
v -6.160000 2.343952 -74.342697
v -6.160001 2.680821 -74.143066
v -6.160001 3.057881 -74.037425
v -6.160001 3.449434 -74.032973
v -6.160001 3.828798 -74.130015
v -6.160001 -4.900752 -67.953113
v -6.160000 11.441878 -83.091428
f 1 2 3
f 1 4 2
f 2 4 5
f 4 6 5
f 5 6 7
f 6 8 7
f 7 8 9
f 8 10 9
f 9 10 11
f 10 12 11
f 11 12 13
f 12 14 13
f 13 14 15
f 14 16 15
f 15 16 17
f 16 18 17
f 17 18 19
f 18 20 19
f 19 20 21
f 20 22 21
f 21 22 23
f 22 24 23
f 23 24 25
f 24 26 25
f 25 26 27
f 26 28 27
f 27 28 29
f 28 30 29
f 29 30 31
f 30 32 31
f 31 32 33
f 32 34 33
f 33 34 35
f 34 36 35
f 35 36 37
f 36 38 37
f 37 38 39
f 38 40 39
f 39 40 41
f 40 42 41
f 41 42 43
f 42 44 43
f 43 44 45
f 44 46 45
f 45 46 47
f 46 48 47
f 47 48 49
f 48 72 49
f 50 51 52
f 50 53 51
f 54 55 56
f 54 57 55
f 58 59 60
f 58 61 59
f 62 63 64
f 62 65 63
f 66 67 68
f 67 100 68
f 68 98 97
f 68 99 98
f 68 101 99
f 68 102 101
f 68 103 102
f 68 104 103
f 68 100 104
f 69 70 71
f 70 126 71
f 73 74 75
f 74 76 75
f 77 78 79
f 78 80 79
f 81 82 83
f 82 84 83
f 85 86 87
f 86 88 87
f 89 90 91
f 90 92 91
f 93 94 95
f 93 96 94
f 93 124 96
f 94 97 95
f 95 97 98
f 96 114 116
f 96 120 114
f 96 121 120
f 96 122 121
f 96 123 122
f 96 124 123
f 100 105 104
f 100 106 105
f 100 107 106
f 100 108 107
f 100 109 108
f 100 110 109
f 109 110 111
f 110 112 111
f 111 112 113
f 112 114 113
f 113 114 115
f 114 117 115
f 114 118 117
f 114 119 118
f 114 120 119
f 114 125 116
f 127 128 129
f 128 130 129
f 131 132 133
f 132 134 133
f 135 136 137
f 135 138 136
f 135 168 138
f 136 139 137
f 137 139 140
f 138 158 160
f 138 164 158
f 138 165 164
f 138 166 165
f 138 167 166
f 138 168 167
f 139 141 140
f 140 141 142
f 141 143 144
f 141 145 142
f 141 146 145
f 141 147 146
f 141 148 147
f 141 144 148
f 141 170 143
f 144 149 148
f 144 150 149
f 144 151 150
f 144 152 151
f 144 153 152
f 144 154 153
f 153 154 155
f 154 156 155
f 155 156 157
f 156 158 157
f 157 158 159
f 158 161 159
f 158 162 161
f 158 163 162
f 158 164 163
f 158 169 160