# Part22
# Autodesk dbId: 144
# Units: mm
o 144_Part22
v 13.742125 18.247652 -102.498608
v 13.699483 16.286238 -104.534381
v 13.742125 16.045782 -104.228282
v 13.699483 18.488107 -102.804707
v 13.557548 16.511682 -104.821371
v 13.557548 18.713552 -103.091697
v 13.325994 16.706751 -105.069694
v 13.325994 18.908621 -103.340020
v 13.020600 16.858153 -105.262427
v 13.020600 19.060022 -103.532753
v 12.662178 16.955568 -105.386436
v 12.662178 19.157437 -103.656762
v 12.275155 16.992358 -105.433270
v 12.275155 19.194227 -103.703596
v 11.885905 16.966015 -105.399736
v 11.885905 19.167885 -103.670062
v 11.520956 16.878337 -105.288121
v 11.520956 19.080206 -103.558447
v 11.205177 16.735296 -105.106031
v 11.205177 18.937166 -103.376357
v 10.960088 16.546642 -104.865875
v 10.960088 18.748512 -103.136201
v 10.802393 16.325230 -104.584019
v 10.802393 18.527100 -102.854345
v 10.742837 16.086151 -104.279671
v 10.742837 18.288020 -102.549997
v 10.785479 15.845695 -103.973572
v 10.785479 18.047565 -102.243898
v 10.927414 15.620251 -103.686582
v 10.927414 17.822121 -101.956908
v 11.158968 15.425181 -103.438259
v 11.158968 17.627051 -101.708585
v 11.464362 15.273780 -103.245526
v 11.464362 17.475650 -101.515852
v 11.822784 15.176365 -103.121517
v 11.822784 17.378235 -101.391843
v 12.209807 15.139575 -103.074683
v 12.209807 17.341445 -101.345009
v 12.599057 15.165917 -103.108216
v 12.599056 17.367787 -101.378542
v 12.964006 15.253596 -103.219831
v 12.964006 17.455466 -101.490157
v 13.279786 15.396637 -103.401922
v 13.279785 17.598507 -101.672248
v 13.524874 15.585291 -103.642078
v 13.524874 17.787161 -101.912404
v 13.682569 15.806703 -103.923934
v 13.682569 18.008572 -102.194260
v 13.742125 16.045782 -104.228282
v 13.589646 13.924493 -96.995239
v 13.547003 11.963079 -99.031012
v 13.589646 11.722623 -98.724913
v 13.547003 14.164949 -97.301338
v 13.405069 12.188523 -99.318002
v 13.405069 14.390393 -97.588329
v 13.173514 12.383593 -99.566326
v 13.173514 14.585463 -97.836652
v 12.868121 12.534994 -99.759059
v 12.868120 14.736864 -98.029385
v 12.509699 12.632408 -99.883067
v 12.509699 14.834278 -98.153393
v 12.122676 12.669199 -99.929902
v 12.122676 14.871069 -98.200228
v 11.733426 12.642857 -99.896368
v 11.733426 14.844726 -98.166694
v 11.368476 12.555178 -99.784754
v 11.368476 14.757048 -98.055080
v 11.052697 12.412138 -99.602664
v 11.052697 14.614008 -97.872990
v 10.807609 12.223483 -99.362507
v 10.807609 14.425353 -97.632833
v 10.649913 12.002071 -99.080650
v 10.649913 14.203941 -97.350976
v 10.590358 11.762992 -98.776303
v 10.590357 13.964862 -97.046629
v 10.633000 11.522537 -98.470204
v 10.633000 13.724406 -96.740530
v 10.774935 11.297092 -98.183214
v 10.774934 13.498962 -96.453540
v 11.006489 11.102023 -97.934891
v 11.006489 13.303892 -96.205217
v 11.311883 10.950622 -97.742158
v 11.311883 13.152492 -96.012484
v 11.670304 10.853206 -97.618148
v 11.670304 13.055076 -95.888474
v 12.057327 10.816416 -97.571314
v 12.057327 13.018286 -95.841641
v 12.446577 10.842758 -97.604848
v 12.446577 13.044628 -95.875174
v 12.811527 10.930437 -97.716463
v 12.811527 13.132307 -95.986789
v 13.127306 11.073478 -97.898553
v 13.127306 13.275347 -96.168879
v 13.372395 11.262132 -98.138709
v 13.372394 13.464002 -96.409035
v 13.530090 11.483544 -98.420566
v 13.530090 13.685414 -96.690892
v 13.589646 11.722623 -98.724913
v 16.375486 27.046459 -113.699463
v 8.208136 26.349059 -112.811675
v 8.338854 26.225240 -112.654054
v 8.418209 26.085783 -112.476525
v 5.075714 35.367972 -124.292726
v 5.049369 32.162828 -120.212586
v 2.470183 33.827071 -122.331163
v 3.644882 29.737438 -117.125073
v 2.355290 30.569560 -118.184361
v 8.441658 25.938672 -112.289254
v 7.341295 18.380351 -102.667534
v 7.107989 18.376250 -102.662313
v 6.117824 16.480521 -100.249056
v 5.757450 18.704663 -103.080382
v 5.640646 18.695550 -103.068781
v 5.377301 17.173661 -101.131421
v 5.433207 18.628894 -102.983928
v 4.951394 17.557389 -101.619906
v 5.108764 17.387998 -101.404272
v 5.190103 17.312738 -101.308466
v 5.279762 17.241175 -101.217367
v 4.804315 18.256969 -102.510470
v 4.710623 17.918178 -102.079189
v 4.818347 17.734559 -101.845443
v 4.733890 18.198688 -102.436278
v 4.687479 18.131850 -102.351193
v 4.675513 17.987596 -102.167558
v 4.667654 18.060162 -102.259934
v 5.985204 18.671960 -103.038752
v 5.874465 18.696652 -103.070184
v 5.530530 18.669818 -103.036024
v 5.889526 16.843143 -100.710672
v 6.448457 18.545050 -102.877196
v 6.220401 18.613478 -102.964305
v 6.016562 16.736123 -100.574437
v 6.879500 18.405669 -102.699764
v 6.668273 18.467006 -102.777846
v 6.094430 16.612440 -100.416988
v 7.771946 18.486406 -102.802541
v 7.566707 18.417748 -102.715141
v 6.085150 16.349357 -100.082084
v 12.122676 14.871069 -98.200228
v 10.927414 17.822121 -101.956908
v 5.998636 16.227886 -99.927452
v 5.864175 16.124386 -99.795698
v 5.690932 16.045911 -99.695799
v 5.490713 15.997809 -99.634565
v 5.277163 15.983357 -99.616168
v 2.483115 15.106558 -98.500005
v 4.353712 16.131567 -99.804838
v 4.211727 16.153831 -99.833181
v 3.921945 16.179722 -99.866140
v 3.606050 16.187723 -99.876325
v 2.976823 16.153034 -99.832166
v 2.860935 16.140213 -99.815845
v 2.659334 16.067039 -99.722695
v 2.533637 15.945241 -99.567647
v 2.584798 16.010743 -99.651030
v 2.290037 15.428900 -98.910346
v 2.290126 15.284456 -98.726469
v 2.276221 15.356674 -98.818403
v 2.330982 15.216247 -98.639640
v 2.396523 15.155833 -98.562732
v 11.733426 14.844726 -98.166694
v 5.064834 16.003541 -99.641862
v 4.067570 16.169909 -99.853649
v 3.290219 16.178804 -99.864972
v 2.753113 16.111008 -99.778667
v 3.523972 14.696048 -97.977427
v 2.983653 14.868474 -98.196926
v 3.257045 14.770384 -98.072056
v 3.388402 14.730330 -98.021068
v 3.663090 14.667705 -97.941347
v 2.725029 14.980813 -98.339933
v 4.374211 14.539679 -97.778370
v 11.368476 14.757048 -98.055080
v 4.570848 14.486235 -97.710336
v 11.052697 14.614008 -97.872990
v 4.738394 14.403174 -97.604600
v 10.807609 14.425353 -97.632833
v 4.865429 14.296154 -97.468364
v 10.649913 14.203941 -97.350976
v 4.943297 14.172471 -97.310915
v 4.847504 13.787917 -96.821379
v 4.713043 13.684417 -96.689624
v 5.139886 12.091237 -94.661510
v 4.339581 13.557840 -96.528492
v 3.987532 11.942422 -94.472069
v 4.097750 11.953411 -94.486059
v 4.206862 11.968014 -94.504649
v 3.620107 13.449068 -96.390026
v 3.525621 11.930461 -94.456844
v 3.876524 11.935077 -94.462720
v 3.479124 13.424496 -96.358746
v 3.341266 13.393894 -96.319790
v 2.660861 13.161496 -96.023948
v 2.410311 13.042379 -95.872312
v 2.401652 12.203133 -94.803954
v 2.250588 12.936886 -95.738020
v 2.204962 12.869843 -95.652674
v 2.194689 12.725540 -95.468976
v 2.320327 12.995482 -95.812613
v 2.185978 12.798067 -95.561304
v 2.518642 12.078069 -94.644748
v 2.448146 12.136317 -94.718897
v 2.609231 12.031618 -94.585616
v 2.714892 11.999540 -94.544781
v 2.829766 11.983613 -94.524506
v 2.927160 13.266770 -96.157961
v 3.175622 11.946690 -94.477503
v 3.207209 13.357412 -96.273348
v 4.926336 12.076785 -94.643113
v 4.539800 13.605942 -96.589726
v 11.670304 13.055076 -95.888474
v 11.311883 13.152492 -96.012484
v 11.006489 13.303892 -96.205217
v 10.774934 13.498962 -96.453540
v 10.633000 13.724406 -96.740530
v 10.590357 13.964862 -97.046629
v 4.966692 14.040552 -97.142983
v 4.934018 13.909387 -96.976010
v 5.843434 11.827528 -94.325810
v 5.921302 11.703845 -94.168361
v 7.984972 10.255421 -92.324522
v 5.003228 10.798844 -93.016298
v 4.933560 10.744951 -92.947693
v 5.109252 9.444013 -91.291602
v 4.399278 9.960649 -91.949278
v 4.437465 10.173496 -92.220232
v 4.397494 10.105088 -92.133149
v 4.384526 10.032803 -92.041130
v 4.440933 9.892626 -91.862685
v 4.507181 9.832504 -91.786151
v 4.572861 10.373530 -92.474874
v 5.156004 10.899369 -93.144266
v 5.077446 10.850365 -93.081884
v 4.738738 10.564604 -92.718111
v 5.203598 9.400508 -91.236221
v 5.311795 9.371838 -91.199724
v 5.427846 9.359592 -91.184134
v 5.545315 9.364447 -91.190315
v 5.657690 9.386135 -91.217923
v 5.691047 11.215792 -93.547071
v 5.954931 9.452681 -91.302637
v 6.241734 9.534869 -91.407262
v 5.825508 11.319291 -93.678825
v 6.515946 9.632083 -91.531015
v 6.637777 9.682330 -91.594979
v 5.912023 11.440762 -93.833458
v 6.753622 9.737715 -91.665484
v 6.862916 9.797970 -91.742188
v 7.397959 10.114392 -92.144992
v 5.944697 11.571927 -94.000430
v 7.571202 10.192867 -92.244891
v 7.771421 10.240969 -92.306125
v 8.197300 10.235237 -92.298828
v 15.931017 10.148473 -92.188377
v 8.789781 9.736110 -91.663440
v 9.687339 7.890842 -89.314420
v 10.209146 8.010114 -89.466253
v 10.412702 8.159553 -89.656488
v 10.594557 8.319317 -89.859867
v 10.753346 8.488200 -90.074855
v 8.757108 9.604946 -91.496469
v 8.521491 9.098955 -90.852344
v 8.498917 9.031412 -90.766362
v 8.851484 8.041323 -89.505981
v 8.459456 8.746861 -90.404129
v 8.470458 8.530150 -90.128258
v 8.583139 8.176902 -89.678573
v 8.515109 8.315096 -89.854494
v 8.535863 8.243509 -89.763364
v 8.654317 8.118971 -89.604827
v 8.745449 8.072928 -89.546215
v 8.549860 9.165657 -90.937256
v 8.482203 8.963222 -90.679556
v 9.804257 7.882306 -89.303553
v 10.031579 7.916134 -89.346617
v 10.129381 7.956621 -89.398157
v 9.921164 7.890896 -89.314488
v 10.818186 8.569346 -90.178153
v 10.873682 8.653092 -90.284762
v 10.919563 8.739032 -90.394162
v 11.126811 9.178320 -90.953375
v 8.766387 9.868029 -91.831373
v 11.213327 9.299791 -91.108007
v 11.347787 9.403291 -91.239763
v 8.688519 9.991712 -91.988821
v 11.521030 9.481766 -91.339661
v 8.561483 10.098731 -92.125056
v 11.721249 9.529868 -91.400895
v 8.393938 10.181794 -92.230794
v 11.934799 9.544319 -91.419291
v 12.981611 8.540228 -90.141086
v 12.892293 8.712480 -90.360362
v 12.932072 8.625388 -90.249495
v 13.040667 8.457416 -90.035666
v 13.187398 8.284419 -89.815441
v 15.090355 9.651309 -91.555488
v 13.550643 7.965140 -89.409000
v 13.721414 7.866472 -89.283396
v 13.829945 7.838287 -89.247516
v 13.946136 7.826560 -89.232588
v 14.063545 7.831941 -89.239439
v 13.626560 7.909553 -89.338238
v 15.264575 8.224253 -89.738851
v 15.111671 8.032059 -89.494188
v 15.186866 8.088020 -89.565426
v 15.238794 8.153293 -89.648518
v 15.324347 8.437902 -90.010825
v 14.909216 7.959790 -89.402190
v 15.017379 7.988512 -89.438753
v 15.350618 8.654110 -90.286058
v 15.343147 8.870880 -90.562004
v 15.331258 8.939454 -90.649299
v 15.313468 9.007540 -90.735972
v 15.289829 9.074942 -90.821776
v 15.113749 9.519390 -91.387556
v 12.716215 9.156928 -90.926143
v 13.357816 8.119914 -89.606027
v 15.123029 9.782473 -91.722460
v 12.511311 9.387631 -91.219827
v 12.638347 9.280611 -91.083592
v 15.209544 9.903945 -91.877093
v 12.343765 9.470692 -91.325564
v 15.344004 10.007443 -92.008846
v 12.147128 9.524136 -91.393598
v 15.517247 10.085919 -92.108746
v 15.717466 10.134022 -92.169980
v 16.143345 10.128290 -92.162683
v 16.339983 10.074845 -92.094649
v 18.290477 11.046213 -93.331197
v 17.019753 9.661265 -91.568163
v 17.124694 9.598129 -91.487790
v 17.621795 9.381702 -91.212280
v 17.902531 9.291875 -91.097930
v 19.348216 10.174665 -92.221719
v 18.305538 9.192703 -90.971685
v 18.422554 9.184693 -90.961487
v 18.649472 9.219537 -91.005843
v 18.746797 9.260462 -91.057941
v 19.492524 9.757505 -91.690675
v 19.504490 9.901759 -91.874310
v 19.469382 9.971178 -91.962680
v 19.512348 9.829193 -91.781934
v 19.375688 9.632385 -91.531397
v 19.446112 9.690667 -91.605590
v 17.236525 9.539679 -91.413383
v 17.354698 9.486202 -91.345308
v 18.194799 9.217394 -91.003116
v 18.539357 9.193805 -90.973087
v 19.014048 10.555439 -92.706443
v 18.948246 10.611154 -92.777368
v 18.877731 10.664623 -92.845434
v 18.802703 10.715695 -92.910448
v 19.195969 10.370021 -92.470407
v 16.507528 9.991783 -91.988911
v 18.163442 11.153231 -93.467431
v 18.085574 11.276916 -93.624881
v 18.062179 11.408834 -93.792812
v 18.094853 11.539998 -93.959784
v 18.181367 11.661469 -94.114416
v 18.315828 11.764969 -94.246171
v 5.716398 11.934547 -94.462045
v 18.489071 11.843444 -94.346069
v 5.548852 12.017609 -94.567782
v 18.689290 11.891546 -94.407303
v 5.352215 12.071053 -94.635817
v 18.902841 11.905997 -94.425700
v 19.115169 11.885814 -94.400006
v 21.595205 11.878612 -94.390838
v 19.934270 11.740264 -94.214721
v 20.043608 11.726319 -94.196970
v 20.504239 11.701942 -94.165938
v 20.855048 11.708739 -94.174590
v 21.319067 11.749141 -94.226022
v 21.426889 11.778347 -94.263202
v 13.127306 13.275347 -96.168879
v 12.811527 13.132307 -95.986789
v 12.446577 13.044628 -95.875174
v 12.057327 13.018286 -95.841641
v 19.826291 11.757789 -94.237031
v 20.153994 11.715994 -94.183826
v 21.203180 11.736322 -94.209703
v 21.520668 11.822316 -94.319174
v 21.454974 12.908542 -95.701936
v 21.196351 13.020881 -95.844943
v 20.922958 13.118972 -95.969813
v 20.791601 13.159026 -96.020801
v 20.656032 13.193308 -96.064442
v 20.516914 13.221651 -96.100522
v 19.805793 13.349676 -96.263499
v 19.609155 13.403120 -96.331532
v 19.441609 13.486182 -96.437270
v 21.646365 11.944114 -94.474222
v 21.889876 12.604899 -95.315399
v 21.889966 12.460456 -95.131523
v 21.903782 12.532680 -95.223465
v 21.849022 12.673107 -95.402227
v 21.783480 12.733523 -95.479137
v 21.696887 12.782796 -95.541862
v 13.372394 13.464002 -96.409035
v 19.314574 13.593201 -96.573505
v 13.530090 13.685414 -96.690892
v 19.236705 13.716884 -96.730953
v 19.840422 14.331516 -97.513378
v 20.192471 15.946934 -99.569800
v 20.082253 15.935944 -99.555810
v 19.973141 15.921341 -99.537220
v 20.559896 14.440286 -97.651842
v 20.654383 15.958894 -99.585024
v 20.303480 15.954278 -99.579149
v 20.667593 14.458461 -97.674978
v 20.773569 14.480156 -97.702595
v 21.490526 14.715560 -98.002265
v 21.769693 14.846975 -98.169555
v 21.778351 15.686222 -99.237914
v 21.929415 14.952468 -98.303847
v 21.975041 15.019512 -98.389194
v 21.985316 15.163816 -98.572893
v 21.859676 14.893873 -98.229257
v 21.994025 15.091288 -98.480565
v 21.661361 15.811286 -99.397121
v 21.731857 15.753038 -99.322971
v 21.570773 15.857737 -99.456252
v 21.465110 15.889815 -99.497087
v 21.350238 15.905742 -99.517362
v 21.192218 14.601320 -97.856838
v 21.004381 15.942665 -99.564365
v 20.877523 14.505310 -97.734616
v 19.253667 15.812570 -99.398755
v 19.466960 14.204938 -97.352244
v 19.640203 14.283413 -97.452143
v 19.040117 15.798119 -99.380359
v 19.332500 14.101439 -97.220490
v 18.827788 15.818302 -99.406052
v 19.245985 13.979968 -97.065858
v 18.631150 15.871746 -99.474086
v 18.463606 15.954808 -99.579823
v 19.213311 13.848803 -96.898886
v 18.336569 16.061827 -99.716058
v 18.258702 16.185510 -99.873507
v 13.589646 13.924493 -96.995239
v 18.235307 16.317429 -100.041439
v 17.379744 18.238000 -102.486321
v 17.146949 18.248374 -102.499527
v 16.924388 18.291801 -102.554809
v 18.267981 16.448593 -100.208411
v 19.176775 17.090511 -101.025571
v 19.246443 17.144403 -101.094175
v 19.070751 18.445343 -102.750267
v 19.780725 17.928707 -102.092591
v 19.742539 17.715859 -101.821637
v 19.782509 17.784267 -101.908720
v 19.795477 17.856552 -102.000739
v 19.739070 17.996730 -102.179184
v 19.672823 18.056851 -102.255718
v 19.607142 17.515825 -101.566994
v 19.023999 16.989986 -100.897603
v 19.102557 17.038990 -100.959985
v 19.441265 17.324751 -101.323757
v 18.976404 18.488847 -102.805647
v 18.868207 18.517517 -102.842144
v 18.752157 18.529764 -102.857735
v 18.634689 18.524909 -102.851554
v 18.522313 18.503221 -102.823945
v 18.488956 16.673564 -100.494798
v 18.283217 18.451122 -102.757624
v 18.050552 18.388895 -102.678409
v 18.354495 16.570064 -100.363043
v 17.825442 18.316839 -102.586682
v 17.610091 18.261244 -102.515910
v 16.724184 18.365915 -102.649156
v 13.547003 14.164949 -97.301338
v 16.557244 18.466679 -102.777428
v 16.432664 18.588602 -102.932636
v 13.682569 18.008572 -102.194260
v 16.609008 26.636072 -113.177041
v 16.506203 26.922641 -113.541843
v 16.585559 26.783183 -113.364313
v 5.075714 33.166103 -126.022400
v 2.470183 31.625201 -124.060837
v 5.075714 35.367972 -124.292726
v 3.525621 9.728592 -96.186518
v 3.876524 11.935077 -94.462720
v 3.525621 11.930461 -94.456844
v 3.175622 11.946690 -94.477503
v 3.876524 9.733207 -96.192394
v 4.572861 8.171660 -94.204548
v 4.437465 10.173496 -92.220232
v 4.572861 10.373530 -92.474874
v 4.738738 10.564604 -92.718111
v 4.437465 7.971626 -93.949906
v 8.470458 6.328281 -91.857932
v 8.515109 8.315096 -89.854494
v 8.470458 8.530150 -90.128258
v 8.459456 8.746861 -90.404129
v 8.515109 6.113227 -91.584168
v 15.350618 6.452241 -92.015732
v 15.343147 8.870880 -90.562004
v 15.350618 8.654110 -90.286058
v 15.324347 8.437902 -90.010825
v 15.343147 6.669010 -92.291678
v 19.195969 8.168152 -94.200081
v 19.014048 10.555439 -92.706443
v 19.195969 10.370021 -92.470407
v 19.348216 10.174665 -92.221719
v 19.014048 8.353569 -94.436117
v 20.855049 9.506869 -95.904264
v 21.203180 11.736322 -94.209703
v 20.855048 11.708739 -94.174590
v 20.504239 11.701942 -94.165938
v 21.203180 9.534452 -95.939377
v 21.490526 12.513691 -99.731939
v 21.769693 14.846975 -98.169555
v 21.490526 14.715560 -98.002265
v 21.192218 14.601320 -97.856838
v 21.769693 12.645105 -99.899229
v 20.654384 13.757024 -101.314698
v 20.303480 15.954278 -99.579149
v 20.654383 15.958894 -99.585024
v 21.004381 15.942665 -99.564365
v 20.303480 13.752409 -101.308823
v 19.607142 15.313956 -103.296668
v 19.742539 17.715859 -101.821637
v 19.607142 17.515825 -101.566994
v 19.441265 17.324751 -101.323757
v 19.742539 15.513990 -103.551311
v 13.742125 18.247652 -102.498608
v 13.589646 13.924493 -96.995239
v 16.357227 18.725045 -103.106327
v 13.742125 18.247652 -102.498608
v 13.405069 14.390393 -97.588329
v 16.335045 18.868573 -103.289038
v 13.699483 18.488107 -102.804707
v 13.557548 18.713552 -103.091697
v 13.325994 18.908621 -103.340020
v 13.020600 19.060022 -103.532753
v 12.662178 19.157437 -103.656762
v 12.275155 19.194227 -103.703596
v 11.885905 19.167885 -103.670062
v 11.520956 19.080206 -103.558447
v 11.205177 18.937166 -103.376357
v 8.196157 18.978116 -103.428487
v 10.960088 18.748512 -103.136201
v 10.802393 18.527100 -102.854345
v 10.742837 18.288020 -102.549997
v 8.163876 18.835321 -103.246709
v 10.785479 18.047565 -102.243898
v 8.078891 18.701038 -103.075767
v 7.945832 18.582581 -102.924973
v 13.524874 17.787161 -101.912404
v 13.173514 14.585463 -97.836652
v 13.279785 17.598507 -101.672248
v 12.868120 14.736864 -98.029385
v 12.964006 17.455466 -101.490157
v 12.509699 14.834278 -98.153393
v 12.599056 17.367787 -101.378542
v 12.209807 17.341445 -101.345009
v 11.822784 17.378235 -101.391843
v 11.464362 17.475650 -101.515852
v 11.158968 17.627051 -101.708585
v 2.470183 33.827071 -122.331163
v 2.470183 31.625201 -124.060837
v 5.049370 29.960958 -121.942260
v 2.470183 33.827071 -122.331163
v 5.049369 32.162828 -120.212586
v 5.049370 29.960958 -121.942260
v 2.355290 28.367690 -119.914035
v 5.049369 32.162828 -120.212586
v 2.355290 30.569560 -118.184361
v 2.355290 28.367690 -119.914035
v 3.644882 27.535568 -118.854747
v 2.355290 30.569560 -118.184361
v 3.644882 29.737438 -117.125073
v 3.644882 27.535568 -118.854747
v 8.208136 24.147189 -114.541349
v 3.644882 29.737438 -117.125073
v 8.208136 26.349059 -112.811675
v 8.208136 26.349059 -112.811675
v 8.208136 24.147189 -114.541349
v 8.338854 26.225240 -112.654054
v 8.338854 24.023370 -114.383728
v 8.418209 26.085783 -112.476525
v 8.418209 23.883913 -114.206199
v 8.441658 25.938672 -112.289254
v 8.441658 23.736802 -114.018928
v 8.441658 23.736802 -114.018928
v 8.196157 16.776246 -105.158161
v 8.441658 25.938672 -112.289254
v 8.196157 18.978116 -103.428487
v 8.196157 18.978116 -103.428487
v 8.196157 16.776246 -105.158161
v 8.163876 18.835321 -103.246709
v 8.163876 16.633451 -104.976383
v 8.078891 16.499168 -104.805441
v 8.078891 18.701038 -103.075767
v 7.945832 16.380712 -104.654647
v 7.945832 18.582581 -102.924973
v 7.771946 16.284536 -104.532215
v 7.771946 18.486406 -102.802541
v 7.566707 16.215879 -104.444815
v 7.566707 18.417748 -102.715141
v 7.341295 16.178481 -104.397208
v 7.341295 18.380351 -102.667534
v 7.107989 16.174380 -104.391987
v 7.107989 18.376250 -102.662313
v 6.879500 16.203800 -104.429438
v 6.879500 18.405669 -102.699764
v 6.668273 18.467006 -102.777846
v 6.668273 16.265136 -104.507520
v 6.668273 18.467006 -102.777846
v 6.668273 16.265136 -104.507520
v 6.448457 18.545050 -102.877196
v 6.448457 16.343180 -104.606870
v 6.220401 18.613478 -102.964305
v 6.220401 16.411609 -104.693979
v 5.985204 18.671960 -103.038752
v 5.985205 16.470091 -104.768426
v 5.985204 18.671960 -103.038752
v 5.985205 16.470091 -104.768426
v 5.874465 18.696652 -103.070184
v 5.874465 16.494782 -104.799858
v 5.757450 18.704663 -103.080382
v 5.757450 16.502793 -104.810056
v 5.640646 18.695550 -103.068781
v 5.640646 16.493680 -104.798455
v 5.530530 18.669818 -103.036024
v 5.530531 16.467948 -104.765698
v 5.433207 18.628894 -102.983928
v 5.433207 16.427024 -104.713602
v 5.433207 16.427024 -104.713602
v 4.804315 16.055100 -104.240144
v 5.433207 18.628894 -102.983928
v 4.804315 18.256969 -102.510470
v 4.804315 18.256969 -102.510470
v 4.804315 16.055100 -104.240144
v 4.733890 18.198688 -102.436278
v 4.733891 15.996818 -104.165952
v 4.687479 18.131850 -102.351193
v 4.687479 15.929980 -104.080867
v 4.667654 18.060162 -102.259934
v 4.667654 15.858292 -103.989608
v 4.675513 17.987596 -102.167558
v 4.675514 15.785726 -103.897232
v 4.710623 17.918178 -102.079189
v 4.710623 15.716308 -103.808863
v 4.710623 17.918178 -102.079189
v 4.710623 15.716308 -103.808863
v 4.818347 17.734559 -101.845443
v 4.818347 15.532690 -103.575117
v 4.951394 17.557389 -101.619906
v 4.951394 15.355520 -103.349580
v 5.108764 17.387998 -101.404272
v 5.108764 15.186128 -103.133946
v 5.108764 17.387998 -101.404272
v 5.108764 15.186128 -103.133946
v 5.190103 17.312738 -101.308466
v 5.190103 15.110868 -103.038140
v 5.279762 17.241175 -101.217367
v 5.279762 15.039305 -102.947041
v 5.377301 17.173661 -101.131421
v 5.377301 14.971791 -102.861095
v 5.377301 14.971791 -102.861095
v 5.889526 14.641273 -102.440346
v 5.377301 17.173661 -101.131421
v 5.889526 16.843143 -100.710672
v 5.889526 16.843143 -100.710672
v 5.889526 14.641273 -102.440346
v 6.016562 16.736123 -100.574437
v 6.016562 14.534254 -102.304111
v 6.094430 16.612440 -100.416988
v 6.094430 14.410570 -102.146662
v 6.117824 16.480521 -100.249056
v 6.117824 14.278651 -101.978730
v 6.085150 16.349357 -100.082084
v 6.085151 14.147487 -101.811758
v 5.998636 16.227886 -99.927452
v 5.998636 14.026016 -101.657126
v 5.864175 16.124386 -99.795698
v 5.864176 13.922517 -101.525372
v 5.690932 16.045911 -99.695799
v 5.690933 13.844042 -101.425473
v 5.490713 15.997809 -99.634565
v 5.490714 13.795939 -101.364239
v 5.277163 15.983357 -99.616168
v 5.277163 13.781488 -101.345842
v 5.064834 16.003541 -99.641862
v 5.064834 13.801671 -101.371536
v 5.064834 13.801671 -101.371536
v 4.353712 13.929697 -101.534512
v 5.064834 16.003541 -99.641862
v 4.353712 16.131567 -99.804838
v 4.353712 16.131567 -99.804838
v 4.353712 13.929697 -101.534512
v 4.211727 16.153831 -99.833181
v 4.211727 13.951962 -101.562855
v 4.067570 16.169909 -99.853649
v 4.067570 13.968040 -101.583323
v 3.921945 16.179722 -99.866140
v 3.921945 13.977852 -101.595814
v 3.921945 16.179722 -99.866140
v 3.921945 13.977852 -101.595814
v 3.606050 16.187723 -99.876325
v 3.606050 13.985853 -101.605999
v 3.290219 16.178804 -99.864972
v 3.290219 13.976934 -101.594646
v 2.976823 16.153034 -99.832166
v 2.976824 13.951164 -101.561840
v 2.976823 16.153034 -99.832166
v 2.976824 13.951164 -101.561840
v 2.860935 16.140213 -99.815845
v 2.860935 13.938343 -101.545519
v 2.753113 16.111008 -99.778667
v 2.753114 13.909138 -101.508341
v 2.659334 16.067039 -99.722695
v 2.659334 13.865169 -101.452369
v 2.584798 16.010743 -99.651030
v 2.584799 13.808873 -101.380704
v 2.533637 15.945241 -99.567647
v 2.533637 13.743372 -101.297321
v 2.533637 13.743372 -101.297321
v 2.290037 13.227030 -100.640020
v 2.533637 15.945241 -99.567647
v 2.290037 15.428900 -98.910346
v 2.290037 15.428900 -98.910346
v 2.290037 13.227030 -100.640020
v 2.276221 15.356674 -98.818403
v 2.276221 13.154805 -100.548077
v 2.290126 15.284456 -98.726469
v 2.290126 13.082586 -100.456143
v 2.330982 15.216247 -98.639640
v 2.330982 13.014377 -100.369314
v 2.396523 15.155833 -98.562732
v 2.396524 12.953963 -100.292406
v 2.483115 15.106558 -98.500005
v 2.483116 12.904688 -100.229679
v 2.483115 15.106558 -98.500005
v 2.483116 12.904688 -100.229679
v 2.725029 14.980813 -98.339933
v 2.725029 12.778943 -100.069607
v 2.983653 14.868474 -98.196926
v 2.983653 12.666605 -99.926600
v 3.257045 14.770384 -98.072056
v 3.257046 12.568514 -99.801730
v 3.257045 14.770384 -98.072056
v 3.257046 12.568514 -99.801730
v 3.388402 14.730330 -98.021068
v 3.388402 12.528460 -99.750742
v 3.523972 14.696048 -97.977427
v 3.523972 12.494178 -99.707101
v 3.663090 14.667705 -97.941347
v 3.663090 12.465835 -99.671021
v 3.663090 12.465835 -99.671021
v 4.374211 12.337809 -99.508044
v 3.663090 14.667705 -97.941347
v 4.374211 14.539679 -97.778370
v 4.374211 14.539679 -97.778370
v 4.374211 12.337809 -99.508044
v 4.570848 14.486235 -97.710336
v 4.570848 12.284365 -99.440010
v 4.738394 14.403174 -97.604600
v 4.738394 12.201304 -99.334274
v 4.865429 14.296154 -97.468364
v 4.865430 12.094285 -99.198038
v 4.943297 14.172471 -97.310915
v 4.943298 11.970601 -99.040589
v 4.966692 14.040552 -97.142983
v 4.966692 11.838682 -98.872657
v 4.934018 13.909387 -96.976010
v 4.934018 11.707517 -98.705684
v 4.847504 13.787917 -96.821379
v 4.847504 11.586047 -98.551053
v 4.713043 13.684417 -96.689624
v 4.713043 11.482547 -98.419298
v 4.539800 13.605942 -96.589726
v 4.539800 11.404072 -98.319400
v 4.339581 13.557840 -96.528492
v 4.339582 11.355970 -98.258166
v 4.339582 11.355970 -98.258166
v 3.620108 11.247199 -98.119700
v 4.339581 13.557840 -96.528492
v 3.620107 13.449068 -96.390026
v 3.620107 13.449068 -96.390026
v 3.620108 11.247199 -98.119700
v 3.479124 13.424496 -96.358746
v 3.479124 11.222627 -98.088420
v 3.341266 13.393894 -96.319790
v 3.341266 11.192025 -98.049464
v 3.207209 13.357412 -96.273348
v 3.207209 11.155543 -98.003022
v 3.207209 13.357412 -96.273348
v 3.207209 11.155543 -98.003022
v 2.927160 13.266770 -96.157961
v 2.927160 11.064901 -97.887635
v 2.660861 13.161496 -96.023948
v 2.660861 10.959627 -97.753622
v 2.410311 13.042379 -95.872312
v 2.410311 10.840509 -97.601986
v 2.410311 13.042379 -95.872312
v 2.410311 10.840509 -97.601986
v 2.320327 12.995482 -95.812613
v 2.320327 10.793613 -97.542287
v 2.250588 12.936886 -95.738020
v 2.250588 10.735017 -97.467694
v 2.204962 12.869843 -95.652674
v 2.204962 10.667974 -97.382348
v 2.185978 12.798067 -95.561304
v 2.185978 10.596197 -97.290978
v 2.194689 12.725540 -95.468976
v 2.194689 10.523670 -97.198650
v 2.194689 10.523670 -97.198650
v 2.401652 10.001263 -96.533628
v 2.194689 12.725540 -95.468976
v 2.401652 12.203133 -94.803954
v 2.401652 12.203133 -94.803954
v 2.401652 10.001263 -96.533628
v 2.448146 12.136317 -94.718897
v 2.448146 9.934447 -96.448571
v 2.518642 12.078069 -94.644748
v 2.518642 9.876199 -96.374422
v 2.609231 12.031618 -94.585616
v 2.609231 9.829748 -96.315290
v 2.714892 11.999540 -94.544781
v 2.714893 9.797670 -96.274455
v 2.829766 11.983613 -94.524506
v 2.829766 9.781744 -96.254180
v 2.829766 11.983613 -94.524506
v 2.829766 9.781744 -96.254180
v 3.175622 9.744821 -96.207177
v 3.876524 11.935077 -94.462720
v 3.876524 9.733207 -96.192394
v 3.987532 11.942422 -94.472069
v 3.987533 9.740552 -96.201743
v 4.097750 11.953411 -94.486059
v 4.097750 9.751542 -96.215733
v 4.206862 11.968014 -94.504649
v 4.206863 9.766145 -96.234323
v 4.206863 9.766145 -96.234323
v 4.926336 9.874915 -96.372787
v 4.206862 11.968014 -94.504649
v 4.926336 12.076785 -94.643113
v 4.926336 12.076785 -94.643113
v 4.926336 9.874915 -96.372787
v 5.139886 12.091237 -94.661510
v 5.139887 9.889367 -96.391184
v 5.352215 12.071053 -94.635817
v 5.352215 9.869183 -96.365491
v 5.548852 12.017609 -94.567782
v 5.548852 9.815739 -96.297456
v 5.716398 11.934547 -94.462045
v 5.716398 9.732677 -96.191719
v 5.843434 11.827528 -94.325810
v 5.843434 9.625659 -96.055484
v 5.921302 11.703845 -94.168361
v 5.921302 9.501975 -95.898035
v 5.944697 11.571927 -94.000430
v 5.944697 9.370057 -95.730104
v 5.912023 11.440762 -93.833458
v 5.912023 9.238892 -95.563132
v 5.825508 11.319291 -93.678825
v 5.825508 9.117421 -95.408499
v 5.691047 11.215792 -93.547071
v 5.691047 9.013922 -95.276745
v 5.691047 9.013922 -95.276745
v 5.156004 8.697499 -94.873940
v 5.691047 11.215792 -93.547071
v 5.156004 10.899369 -93.144266
v 5.156004 10.899369 -93.144266
v 5.156004 8.697499 -94.873940
v 5.077446 10.850365 -93.081884
v 5.077446 8.648495 -94.811558
v 5.003228 10.798844 -93.016298
v 5.003228 8.596974 -94.745972
v 4.933560 10.744951 -92.947693
v 4.933560 8.543082 -94.677367
v 4.933560 10.744951 -92.947693
v 4.933560 8.543082 -94.677367
v 4.738738 8.362734 -94.447785
v 4.437465 10.173496 -92.220232
v 4.437465 7.971626 -93.949906
v 4.397494 10.105088 -92.133149
v 4.397494 7.903218 -93.862823
v 4.384526 10.032803 -92.041130
v 4.384526 7.830933 -93.770804
v 4.399278 9.960649 -91.949278
v 4.399278 7.758779 -93.678952
v 4.440933 9.892626 -91.862685
v 4.440933 7.690756 -93.592359
v 4.507181 9.832504 -91.786151
v 4.507181 7.630635 -93.515825
v 4.507181 7.630635 -93.515825
v 5.109253 7.242143 -93.021276
v 4.507181 9.832504 -91.786151
v 5.109252 9.444013 -91.291602
v 5.109252 9.444013 -91.291602
v 5.109253 7.242143 -93.021276
v 5.203598 9.400508 -91.236221
v 5.203598 7.198638 -92.965895
v 5.311795 9.371838 -91.199724
v 5.311796 7.169969 -92.929398
v 5.427846 9.359592 -91.184134
v 5.427846 7.157722 -92.913808
v 5.545315 9.364447 -91.190315
v 5.545315 7.162577 -92.919989
v 5.657690 9.386135 -91.217923
v 5.657690 7.184265 -92.947597
v 5.657690 9.386135 -91.217923
v 5.657690 7.184265 -92.947597
v 5.954931 9.452681 -91.302637
v 5.954931 7.250812 -93.032311
v 6.241734 9.534869 -91.407262
v 6.241734 7.332999 -93.136936
v 6.515946 9.632083 -91.531015
v 6.515946 7.430214 -93.260689
v 6.515946 9.632083 -91.531015
v 6.515946 7.430214 -93.260689
v 6.637777 9.682330 -91.594979
v 6.637777 7.480460 -93.324653
v 6.753622 9.737715 -91.665484
v 6.753623 7.535846 -93.395158
v 6.862916 9.797970 -91.742188
v 6.862916 7.596100 -93.471862
v 6.862916 7.596100 -93.471862
v 7.397959 7.912522 -93.874666
v 6.862916 9.797970 -91.742188
v 7.397959 10.114392 -92.144992
v 7.397959 10.114392 -92.144992
v 7.397959 7.912522 -93.874666
v 7.571202 10.192867 -92.244891
v 7.571202 7.990997 -93.974565
v 7.771421 10.240969 -92.306125
v 7.771421 8.039099 -94.035799
v 7.984972 10.255421 -92.324522
v 7.984972 8.053551 -94.054196
v 8.197300 10.235237 -92.298828
v 8.197300 8.033367 -94.028502
v 8.393938 10.181794 -92.230794
v 8.393938 7.979924 -93.960468
v 8.561483 10.098731 -92.125056
v 8.561483 7.896861 -93.854730
v 8.688519 9.991712 -91.988821
v 8.688519 7.789843 -93.718495
v 8.766387 9.868029 -91.831373
v 8.766387 7.666159 -93.561047
v 8.789781 9.736110 -91.663440
v 8.789781 7.534240 -93.393114
v 8.757108 9.604946 -91.496469
v 8.757108 7.403076 -93.226143
v 8.757108 7.403076 -93.226143
v 8.549860 6.963788 -92.666930
v 8.757108 9.604946 -91.496469
v 8.549860 9.165657 -90.937256
v 8.549860 9.165657 -90.937256
v 8.549860 6.963788 -92.666930
v 8.521491 9.098955 -90.852344
v 8.521491 6.897085 -92.582018
v 8.498917 9.031412 -90.766362
v 8.498917 6.829542 -92.496036
v 8.482203 8.963222 -90.679556
v 8.482203 6.761352 -92.409230
v 8.482203 8.963222 -90.679556
v 8.482203 6.761352 -92.409230
v 8.459456 6.544991 -92.133803
v 8.515109 8.315096 -89.854494
v 8.515109 6.113227 -91.584168
v 8.535863 8.243509 -89.763364
v 8.535863 6.041639 -91.493038
v 8.583139 8.176902 -89.678573
v 8.583140 5.975032 -91.408247
v 8.654317 8.118971 -89.604827
v 8.654317 5.917101 -91.334501
v 8.745449 8.072928 -89.546215
v 8.745450 5.871059 -91.275889
v 8.851484 8.041323 -89.505981
v 8.851484 5.839453 -91.235655
v 8.851484 5.839453 -91.235655
v 9.687339 5.688972 -91.044094
v 8.851484 8.041323 -89.505981
v 9.687339 7.890842 -89.314420
v 9.687339 7.890842 -89.314420
v 9.687339 5.688972 -91.044094
v 9.804257 7.882306 -89.303553
v 9.804257 5.680436 -91.033227
v 9.921164 7.890896 -89.314488
v 9.921164 5.689026 -91.044162
v 10.031579 7.916134 -89.346617
v 10.031580 5.714264 -91.076291
v 10.129381 7.956621 -89.398157
v 10.129381 5.754752 -91.127831
v 10.209146 8.010114 -89.466253
v 10.209146 5.808245 -91.195927
v 10.209146 8.010114 -89.466253
v 10.209146 5.808245 -91.195927
v 10.412702 8.159553 -89.656488
v 10.412702 5.957683 -91.386162
v 10.594557 8.319317 -89.859867
v 10.594558 6.117447 -91.589541
v 10.753346 8.488200 -90.074855
v 10.753347 6.286331 -91.804529
v 10.753346 8.488200 -90.074855
v 10.753347 6.286331 -91.804529
v 10.818186 8.569346 -90.178153
v 10.818186 6.367476 -91.907827
v 10.873682 8.653092 -90.284762
v 10.873682 6.451222 -92.014436
v 10.919563 8.739032 -90.394162
v 10.919563 6.537162 -92.123836
v 10.919563 6.537162 -92.123836
v 11.126812 6.976450 -92.683049
v 10.919563 8.739032 -90.394162
v 11.126811 9.178320 -90.953375
v 11.126811 9.178320 -90.953375
v 11.126812 6.976450 -92.683049
v 11.213327 9.299791 -91.108007
v 11.213327 7.097921 -92.837681
v 11.347787 9.403291 -91.239763
v 11.347787 7.201421 -92.969437
v 11.521030 9.481766 -91.339661
v 11.521030 7.279896 -93.069335
v 11.721249 9.529868 -91.400895
v 11.721249 7.327998 -93.130569
v 11.934799 9.544319 -91.419291
v 11.934799 7.342450 -93.148965
v 12.147128 9.524136 -91.393598
v 12.147128 7.322266 -93.123272
v 12.343765 9.470692 -91.325564
v 12.343765 7.268822 -93.055238
v 12.511311 9.387631 -91.219827
v 12.511311 7.185761 -92.949501
v 12.638347 9.280611 -91.083592
v 12.638347 7.078742 -92.813266
v 12.716215 9.156928 -90.926143
v 12.716215 6.955058 -92.655817
v 12.716215 6.955058 -92.655817
v 12.892293 6.510610 -92.090036
v 12.716215 9.156928 -90.926143
v 12.892293 8.712480 -90.360362
v 12.892293 8.712480 -90.360362
v 12.892293 6.510610 -92.090036
v 12.932072 8.625388 -90.249495
v 12.932072 6.423518 -91.979168
v 12.981611 8.540228 -90.141086
v 12.981611 6.338359 -91.870760
v 13.040667 8.457416 -90.035666
v 13.040667 6.255546 -91.765340
v 13.040667 8.457416 -90.035666
v 13.040667 6.255546 -91.765340
v 13.187398 8.284419 -89.815441
v 13.187398 6.082549 -91.545115
v 13.357816 8.119914 -89.606027
v 13.357816 5.918044 -91.335701
v 13.550643 7.965140 -89.409000
v 13.550643 5.763270 -91.138674
v 13.550643 7.965140 -89.409000
v 13.550643 5.763270 -91.138674
v 13.626560 7.909553 -89.338238
v 13.626560 5.707683 -91.067912
v 13.721414 7.866472 -89.283396
v 13.721414 5.664602 -91.013070
v 13.829945 7.838287 -89.247516
v 13.829945 5.636417 -90.977190
v 13.946136 7.826560 -89.232588
v 13.946136 5.624690 -90.962262
v 14.063545 7.831941 -89.239439
v 14.063545 5.630072 -90.969113
v 14.063545 5.630072 -90.969113
v 14.909217 5.757920 -91.131864
v 14.063545 7.831941 -89.239439
v 14.909216 7.959790 -89.402190
v 14.909216 7.959790 -89.402190
v 14.909217 5.757920 -91.131864
v 15.017379 7.988512 -89.438753
v 15.017379 5.786642 -91.168427
v 15.111671 8.032059 -89.494188
v 15.111672 5.830190 -91.223862
v 15.186866 8.088020 -89.565426
v 15.186866 5.886150 -91.295100
v 15.238794 8.153293 -89.648518
v 15.238794 5.951423 -91.378192
v 15.264575 8.224253 -89.738851
v 15.264575 6.022384 -91.468525
v 15.264575 8.224253 -89.738851
v 15.264575 6.022384 -91.468525
v 15.324347 6.236033 -91.740499
v 15.343147 8.870880 -90.562004
v 15.343147 6.669010 -92.291678
v 15.331258 8.939454 -90.649299
v 15.331258 6.737584 -92.378973
v 15.313468 9.007540 -90.735972
v 15.313468 6.805670 -92.465646
v 15.289829 9.074942 -90.821776
v 15.289829 6.873073 -92.551450
v 15.289829 6.873073 -92.551450
v 15.113750 7.317520 -93.117230
v 15.289829 9.074942 -90.821776
v 15.113749 9.519390 -91.387556
v 15.113749 9.519390 -91.387556
v 15.113750 7.317520 -93.117230
v 15.090355 9.651309 -91.555488
v 15.090355 7.449439 -93.285162
v 15.123029 9.782473 -91.722460
v 15.123029 7.580603 -93.452134
v 15.209544 9.903945 -91.877093
v 15.209544 7.702075 -93.606767
v 15.344004 10.007443 -92.008846
v 15.344004 7.805573 -93.738520
v 15.517247 10.085919 -92.108746
v 15.517248 7.884050 -93.838420
v 15.717466 10.134022 -92.169980
v 15.717466 7.932152 -93.899654
v 15.931017 10.148473 -92.188377
v 15.931017 7.946603 -93.918051
v 16.143345 10.128290 -92.162683
v 16.143346 7.926420 -93.892357
v 16.339983 10.074845 -92.094649
v 16.339983 7.872976 -93.824323
v 16.507528 9.991783 -91.988911
v 16.507528 7.789913 -93.718585
v 16.507528 7.789913 -93.718585
v 17.019753 7.459396 -93.297837
v 16.507528 9.991783 -91.988911
v 17.019753 9.661265 -91.568163
v 17.019753 9.661265 -91.568163
v 17.019753 7.459396 -93.297837
v 17.124694 9.598129 -91.487790
v 17.124694 7.396259 -93.217464
v 17.236525 9.539679 -91.413383
v 17.236525 7.337809 -93.143057
v 17.354698 9.486202 -91.345308
v 17.354698 7.284333 -93.074982
v 17.354698 9.486202 -91.345308
v 17.354698 7.284333 -93.074982
v 17.621795 9.381702 -91.212280
v 17.621796 7.179833 -92.941954
v 17.902531 9.291875 -91.097930
v 17.902531 7.090006 -92.827604
v 18.194799 9.217394 -91.003116
v 18.194799 7.015525 -92.732790
v 18.194799 9.217394 -91.003116
v 18.194799 7.015525 -92.732790
v 18.305538 9.192703 -90.971685
v 18.305538 6.990834 -92.701359
v 18.422554 9.184693 -90.961487
v 18.422554 6.982823 -92.691161
v 18.539357 9.193805 -90.973087
v 18.539357 6.991935 -92.702761
v 18.649472 9.219537 -91.005843
v 18.649473 7.017667 -92.735517
v 18.746797 9.260462 -91.057941
v 18.746797 7.058592 -92.787615
v 18.746797 7.058592 -92.787615
v 19.375688 7.430515 -93.261071
v 18.746797 9.260462 -91.057941
v 19.375688 9.632385 -91.531397
v 19.375688 9.632385 -91.531397
v 19.375688 7.430515 -93.261071
v 19.446112 9.690667 -91.605590
v 19.446113 7.488797 -93.335264
v 19.492524 9.757505 -91.690675
v 19.492524 7.555635 -93.420349
v 19.512348 9.829193 -91.781934
v 19.512348 7.627324 -93.511608
v 19.504490 9.901759 -91.874310
v 19.504490 7.699889 -93.603984
v 19.469382 9.971178 -91.962680
v 19.469382 7.769308 -93.692354
v 19.469382 9.971178 -91.962680
v 19.469382 7.769308 -93.692354
v 19.348216 7.972795 -93.951393
v 19.014048 10.555439 -92.706443
v 19.014048 8.353569 -94.436117
v 18.948246 10.611154 -92.777368
v 18.948247 8.409284 -94.507042
v 18.877731 10.664623 -92.845434
v 18.877731 8.462754 -94.575108
v 18.802703 10.715695 -92.910448
v 18.802703 8.513825 -94.640122
v 18.802703 8.513825 -94.640122
v 18.290477 8.844344 -95.060871
v 18.802703 10.715695 -92.910448
v 18.290477 11.046213 -93.331197
v 18.290477 11.046213 -93.331197
v 18.290477 8.844344 -95.060871
v 18.163442 11.153231 -93.467431
v 18.163442 8.951362 -95.197105
v 18.085574 11.276916 -93.624881
v 18.085574 9.075046 -95.354555
v 18.062179 11.408834 -93.792812
v 18.062179 9.206964 -95.522486
v 18.094853 11.539998 -93.959784
v 18.094853 9.338129 -95.689458
v 18.181367 11.661469 -94.114416
v 18.181367 9.459599 -95.844090
v 18.315828 11.764969 -94.246171
v 18.315828 9.563099 -95.975845
v 18.489071 11.843444 -94.346069
v 18.489072 9.641574 -96.075743
v 18.689290 11.891546 -94.407303
v 18.689290 9.689676 -96.136977
v 18.902841 11.905997 -94.425700
v 18.902841 9.704128 -96.155374
v 19.115169 11.885814 -94.400006
v 19.115169 9.683944 -96.129680
v 19.115169 9.683944 -96.129680
v 19.826291 9.555919 -95.966705
v 19.115169 11.885814 -94.400006
v 19.826291 11.757789 -94.237031
v 19.826291 11.757789 -94.237031
v 19.826291 9.555919 -95.966705
v 19.934270 11.740264 -94.214721
v 19.934270 9.538394 -95.944395
v 20.043608 11.726319 -94.196970
v 20.043608 9.524449 -95.926644
v 20.153994 11.715994 -94.183826
v 20.153994 9.514124 -95.913500
v 20.153994 11.715994 -94.183826
v 20.153994 9.514124 -95.913500
v 20.504239 9.500073 -95.895612
v 21.203180 11.736322 -94.209703
v 21.203180 9.534452 -95.939377
v 21.319067 11.749141 -94.226022
v 21.319068 9.547272 -95.955696
v 21.426889 11.778347 -94.263202
v 21.426889 9.576478 -95.992876
v 21.520668 11.822316 -94.319174
v 21.520669 9.620446 -96.048847
v 21.595205 11.878612 -94.390838
v 21.595205 9.676742 -96.120512
v 21.646365 11.944114 -94.474222
v 21.646366 9.742244 -96.203896
v 21.646366 9.742244 -96.203896
v 21.889967 10.258586 -96.861197
v 21.646365 11.944114 -94.474222
v 21.889966 12.460456 -95.131523
v 21.889966 12.460456 -95.131523
v 21.889967 10.258586 -96.861197
v 21.903782 12.532680 -95.223465
v 21.903782 10.330811 -96.953139
v 21.889876 12.604899 -95.315399
v 21.889876 10.403029 -97.045073
v 21.849022 12.673107 -95.402227
v 21.849022 10.471237 -97.131901
v 21.783480 12.733523 -95.479137
v 21.783480 10.531653 -97.208811
v 21.696887 12.782796 -95.541862
v 21.696887 10.580927 -97.271536
v 21.696887 12.782796 -95.541862
v 21.696887 10.580927 -97.271536
v 21.454974 12.908542 -95.701936
v 21.454975 10.706673 -97.431610
v 21.196351 13.020881 -95.844943
v 21.196351 10.819011 -97.574617
v 20.922958 13.118972 -95.969813
v 20.922958 10.917102 -97.699487
v 20.922958 13.118972 -95.969813
v 20.922958 10.917102 -97.699487
v 20.791601 13.159026 -96.020801
v 20.791601 10.957156 -97.750475
v 20.656032 13.193308 -96.064442
v 20.656032 10.991438 -97.794116
v 20.516914 13.221651 -96.100522
v 20.516915 11.019781 -97.830196
v 20.516915 11.019781 -97.830196
v 19.805793 11.147807 -97.993173
v 20.516914 13.221651 -96.100522
v 19.805793 13.349676 -96.263499
v 19.805793 13.349676 -96.263499
v 19.805793 11.147807 -97.993173
v 19.609155 13.403120 -96.331532
v 19.609155 11.201250 -98.061206
v 19.441609 13.486182 -96.437270
v 19.441609 11.284312 -98.166944
v 19.314574 13.593201 -96.573505
v 19.314574 11.391331 -98.303179
v 19.236705 13.716884 -96.730953
v 19.236705 11.515014 -98.460627
v 19.213311 13.848803 -96.898886
v 19.213311 11.646933 -98.628559
v 19.245985 13.979968 -97.065858
v 19.245985 11.778098 -98.795532
v 19.332500 14.101439 -97.220490
v 19.332500 11.899569 -98.950164
v 19.466960 14.204938 -97.352244
v 19.466961 12.003068 -99.081918
v 19.640203 14.283413 -97.452143
v 19.640203 12.081543 -99.181817
v 19.840422 14.331516 -97.513378
v 19.840422 12.129646 -99.243051
v 19.840422 12.129646 -99.243051
v 20.559896 12.238417 -99.381516
v 19.840422 14.331516 -97.513378
v 20.559896 14.440286 -97.651842
v 20.559896 14.440286 -97.651842
v 20.559896 12.238417 -99.381516
v 20.667593 14.458461 -97.674978
v 20.667593 12.256591 -99.404652
v 20.773569 14.480156 -97.702595
v 20.773569 12.278286 -99.432269
v 20.877523 14.505310 -97.734616
v 20.877523 12.303440 -99.464290
v 20.877523 14.505310 -97.734616
v 20.877523 12.303440 -99.464290
v 21.192218 12.399450 -99.586512
v 21.769693 14.846975 -98.169555
v 21.769693 12.645105 -99.899229
v 21.859676 14.893873 -98.229257
v 21.859676 12.692003 -99.958931
v 21.929415 14.952468 -98.303847
v 21.929415 12.750598 -100.033521
v 21.975041 15.019512 -98.389194
v 21.975041 12.817642 -100.118868
v 21.994025 15.091288 -98.480565
v 21.994025 12.889418 -100.210239
v 21.985316 15.163816 -98.572893
v 21.985316 12.961946 -100.302567
v 21.985316 12.961946 -100.302567
v 21.778351 13.484352 -100.967588
v 21.985316 15.163816 -98.572893
v 21.778351 15.686222 -99.237914
v 21.778351 15.686222 -99.237914
v 21.778351 13.484352 -100.967588
v 21.731857 15.753038 -99.322971
v 21.731857 13.551168 -101.052645
v 21.661361 15.811286 -99.397121
v 21.661361 13.609416 -101.126795
v 21.570773 15.857737 -99.456252
v 21.570773 13.655867 -101.185926
v 21.465110 15.889815 -99.497087
v 21.465110 13.687945 -101.226761
v 21.350238 15.905742 -99.517362
v 21.350238 13.703872 -101.247036
v 21.350238 15.905742 -99.517362
v 21.350238 13.703872 -101.247036
v 21.004381 13.740795 -101.294039
v 20.303480 15.954278 -99.579149
v 20.303480 13.752409 -101.308823
v 20.192471 15.946934 -99.569800
v 20.192471 13.745064 -101.299474
v 20.082253 15.935944 -99.555810
v 20.082253 13.734074 -101.285484
v 19.973141 15.921341 -99.537220
v 19.973141 13.719471 -101.266894
v 19.973141 13.719471 -101.266894
v 19.253667 13.610700 -101.128429
v 19.973141 15.921341 -99.537220
v 19.253667 15.812570 -99.398755
v 19.253667 15.812570 -99.398755
v 19.253667 13.610700 -101.128429
v 19.040117 15.798119 -99.380359
v 19.040117 13.596249 -101.110033
v 18.827788 15.818302 -99.406052
v 18.827788 13.616432 -101.135726
v 18.631150 15.871746 -99.474086
v 18.631151 13.669876 -101.203760
v 18.463606 15.954808 -99.579823
v 18.463606 13.752938 -101.309497
v 18.336569 16.061827 -99.716058
v 18.336570 13.859957 -101.445732
v 18.258702 16.185510 -99.873507
v 18.258702 13.983641 -101.603181
v 18.235307 16.317429 -100.041439
v 18.235307 14.115559 -101.771113
v 18.267981 16.448593 -100.208411
v 18.267981 14.246723 -101.938085
v 18.354495 16.570064 -100.363043
v 18.354495 14.368195 -102.092717
v 18.488956 16.673564 -100.494798
v 18.488956 14.471694 -102.224472
v 18.488956 14.471694 -102.224472
v 19.024000 14.788117 -102.627277
v 18.488956 16.673564 -100.494798
v 19.023999 16.989986 -100.897603
v 19.023999 16.989986 -100.897603
v 19.024000 14.788117 -102.627277
v 19.102557 17.038990 -100.959985
v 19.102557 14.837121 -102.689659
v 19.176775 17.090511 -101.025571
v 19.176775 14.888642 -102.755245
v 19.246443 17.144403 -101.094175
v 19.246443 14.942534 -102.823849
v 19.246443 17.144403 -101.094175
v 19.246443 14.942534 -102.823849
v 19.441265 15.122881 -103.053431
v 19.742539 17.715859 -101.821637
v 19.742539 15.513990 -103.551311
v 19.782509 17.784267 -101.908720
v 19.782509 15.582398 -103.638394
v 19.795477 17.856552 -102.000739
v 19.795478 15.654683 -103.730413
v 19.780725 17.928707 -102.092591
v 19.780726 15.726837 -103.822265
v 19.739070 17.996730 -102.179184
v 19.739070 15.794860 -103.908858
v 19.672823 18.056851 -102.255718
v 19.672823 15.854981 -103.985392
v 19.672823 15.854981 -103.985392
v 19.070751 16.243473 -104.479941
v 19.672823 18.056851 -102.255718
v 19.070751 18.445343 -102.750267
v 19.070751 18.445343 -102.750267
v 19.070751 16.243473 -104.479941
v 18.976404 18.488847 -102.805647
v 18.976405 16.286977 -104.535321
v 18.868207 18.517517 -102.842144
v 18.868207 16.315647 -104.571818
v 18.752157 18.529764 -102.857735
v 18.752157 16.327894 -104.587409
v 18.634689 18.524909 -102.851554
v 18.634689 16.323039 -104.581228
v 18.522313 18.503221 -102.823945
v 18.522313 16.301351 -104.553619
v 18.522313 18.503221 -102.823945
v 18.522313 16.301351 -104.553619
v 18.283217 18.451122 -102.757624
v 18.283217 16.249252 -104.487298
v 18.050552 18.388895 -102.678409
v 18.050552 16.187025 -104.408083
v 17.825442 18.316839 -102.586682
v 17.825442 16.114969 -104.316356
v 17.825442 18.316839 -102.586682
v 17.825442 16.114969 -104.316356
v 17.610091 18.261244 -102.515910
v 17.610091 16.059374 -104.245584
v 17.379744 16.036130 -104.215995
v 17.379744 18.238000 -102.486321
v 17.146950 16.046505 -104.229201
v 17.146949 18.248374 -102.499527
v 16.924388 16.089931 -104.284483
v 16.924388 18.291801 -102.554809
v 16.724184 16.164045 -104.378830
v 16.724184 18.365915 -102.649156
v 16.557245 16.264809 -104.507102
v 16.557244 18.466679 -102.777428
v 16.432664 16.386733 -104.662310
v 16.432664 18.588602 -102.932636
v 16.357227 16.523175 -104.836001
v 16.357227 18.725045 -103.106327
v 16.335045 18.868573 -103.289038
v 16.335045 16.666703 -105.018712
v 16.335045 16.666703 -105.018712
v 16.609008 24.434202 -114.906715
v 16.335045 18.868573 -103.289038
v 16.609008 26.636072 -113.177041
v 16.609008 26.636072 -113.177041
v 16.609008 24.434202 -114.906715
v 16.585559 26.783183 -113.364313
v 16.585559 24.581313 -115.093987
v 16.506203 26.922641 -113.541843
v 16.506203 24.720771 -115.271517
v 16.375486 27.046459 -113.699463
v 16.375486 24.844589 -115.429137
v 16.375486 24.844589 -115.429137
v 5.075714 33.166103 -126.022400
v 16.375486 27.046459 -113.699463
v 5.075714 35.367972 -124.292726
v 13.699483 16.286238 -104.534381
v 16.335045 16.666703 -105.018712
v 13.742125 16.045782 -104.228282
v 13.557548 16.511682 -104.821371
v 13.325994 16.706751 -105.069694
v 16.609008 24.434202 -114.906715
v 16.357227 16.523175 -104.836001
v 13.682569 15.806703 -103.923934
v 16.432664 16.386733 -104.662310
v 16.557245 16.264809 -104.507102
v 13.524874 15.585291 -103.642078
v 13.020600 16.858153 -105.262427
v 16.375486 24.844589 -115.429137
v 16.506203 24.720771 -115.271517
v 16.585559 24.581313 -115.093987
v 12.662178 16.955568 -105.386436
v 12.275155 16.992358 -105.433270
v 8.441658 23.736802 -114.018928
v 8.208136 24.147189 -114.541349
v 5.075714 33.166103 -126.022400
v 8.418209 23.883913 -114.206199
v 8.338854 24.023370 -114.383728
v 11.885905 16.966015 -105.399736
v 11.520956 16.878337 -105.288121
v 11.205177 16.735296 -105.106031
v 8.196157 16.776246 -105.158161
v 10.960088 16.546642 -104.865875
v 10.802393 16.325230 -104.584019
v 10.742837 16.086151 -104.279671
v 8.163876 16.633451 -104.976383
v 10.785479 15.845695 -103.973572
v 8.078891 16.499168 -104.805441
v 7.945832 16.380712 -104.654647
v 10.649913 12.002071 -99.080650
v 7.771946 16.284536 -104.532215
v 10.807609 12.223483 -99.362507
v 10.590358 11.762992 -98.776303
v 6.085151 14.147487 -101.811758
v 6.117824 14.278651 -101.978730
v 5.998636 14.026016 -101.657126
v 7.107989 16.174380 -104.391987
v 7.341295 16.178481 -104.397208
v 7.566707 16.215879 -104.444815
v 10.927414 15.620251 -103.686582
v 11.052697 12.412138 -99.602664
v 11.158968 15.425181 -103.438259
v 11.368476 12.555178 -99.784754
v 11.464362 15.273780 -103.245526
v 11.733426 12.642857 -99.896368
v 11.822784 15.176365 -103.121517
v 12.122676 12.669199 -99.929902
v 12.209807 15.139575 -103.074683
v 12.599057 15.165917 -103.108216
v 12.964006 15.253596 -103.219831
v 13.279786 15.396637 -103.401922
v 16.724184 16.164045 -104.378830
v 18.258702 13.983641 -101.603181
v 18.235307 14.115559 -101.771113
v 16.924388 16.089931 -104.284483
v 17.146950 16.046505 -104.229201
v 17.379744 16.036130 -104.215995
v 18.267981 14.246723 -101.938085
v 13.547003 11.963079 -99.031012
v 19.245985 11.778098 -98.795532
v 13.589646 11.722623 -98.724913
v 19.332500 11.899569 -98.950164
v 19.213311 11.646933 -98.628559
v 19.236705 11.515014 -98.460627
v 13.530090 11.483544 -98.420566
v 13.405069 12.188523 -99.318002
v 19.466961 12.003068 -99.081918
v 13.173514 12.383593 -99.566326
v 19.640203 12.081543 -99.181817
v 12.868121 12.534994 -99.759059
v 19.840422 12.129646 -99.243051
v 12.509699 12.632408 -99.883067
v 21.769693 12.645105 -99.899229
v 20.559896 12.238417 -99.381516
v 18.827788 13.616432 -101.135726
v 19.040117 13.596249 -101.110033
v 19.253667 13.610700 -101.128429
v 19.973141 13.719471 -101.266894
v 20.082253 13.734074 -101.285484
v 20.192471 13.745064 -101.299474
v 20.303480 13.752409 -101.308823
v 20.654384 13.757024 -101.314698
v 21.004381 13.740795 -101.294039
v 21.350238 13.703872 -101.247036
v 21.465110 13.687945 -101.226761
v 21.570773 13.655867 -101.185926
v 21.661361 13.609416 -101.126795
v 21.985316 12.961946 -100.302567
v 21.859676 12.692003 -99.958931
v 21.490526 12.513691 -99.731939
v 21.192218 12.399450 -99.586512
v 20.773569 12.278286 -99.432269
v 20.667593 12.256591 -99.404652
v 18.631151 13.669876 -101.203760
v 18.463606 13.752938 -101.309497
v 18.336570 13.859957 -101.445732
v 4.966692 11.838682 -98.872657
v 5.864176 13.922517 -101.525372
v 5.139887 9.889367 -96.391184
v 4.943298 11.970601 -99.040589
v 5.690933 13.844042 -101.425473
v 5.490714 13.795939 -101.364239
v 4.865430 12.094285 -99.198038
v 5.277163 13.781488 -101.345842
v 4.738394 12.201304 -99.334274
v 5.064834 13.801671 -101.371536
v 4.570848 12.284365 -99.440010
v 4.374211 12.337809 -99.508044
v 4.211727 13.951962 -101.562855
v 4.353712 13.929697 -101.534512
v 10.633000 11.522537 -98.470204
v 10.774935 11.297092 -98.183214
v 11.006489 11.102023 -97.934891
v 11.311883 10.950622 -97.742158
v 11.670304 10.853206 -97.618148
v 12.057327 10.816416 -97.571314
v 21.595205 9.676742 -96.120512
v 18.902841 9.704128 -96.155374
v 5.352215 9.869183 -96.365491
v 4.713043 11.482547 -98.419298
v 4.847504 11.586047 -98.551053
v 4.934018 11.707517 -98.705684
v 12.446577 10.842758 -97.604848
v 12.811527 10.930437 -97.716463
v 13.127306 11.073478 -97.898553
v 19.441609 11.284312 -98.166944
v 19.609155 11.201250 -98.061206
v 19.805793 11.147807 -97.993173
v 20.516915 11.019781 -97.830196
v 20.656032 10.991438 -97.794116
v 20.791601 10.957156 -97.750475
v 20.922958 10.917102 -97.699487
v 21.196351 10.819011 -97.574617
v 21.454975 10.706673 -97.431610
v 21.646366 9.742244 -96.203896
v 19.115169 9.683944 -96.129680
v 19.826291 9.555919 -95.966705
v 19.934270 9.538394 -95.944395
v 20.043608 9.524449 -95.926644
v 20.153994 9.514124 -95.913500
v 20.504239 9.500073 -95.895612
v 20.855049 9.506869 -95.904264
v 21.203180 9.534452 -95.939377
v 21.319068 9.547272 -95.955696
v 21.426889 9.576478 -95.992876
v 21.520669 9.620446 -96.048847
v 13.372395 11.262132 -98.138709
v 19.314574 11.391331 -98.303179
v 3.644882 27.535568 -118.854747
v 5.049370 29.960958 -121.942260
v 2.470183 31.625201 -124.060837
v 2.355290 28.367690 -119.914035
v 17.610091 16.059374 -104.245584
v 18.354495 14.368195 -102.092717
v 17.825442 16.114969 -104.316356
v 18.050552 16.187025 -104.408083
v 18.488956 14.471694 -102.224472
v 18.283217 16.249252 -104.487298
v 18.522313 16.301351 -104.553619
v 19.024000 14.788117 -102.627277
v 18.634689 16.323039 -104.581228
v 18.752157 16.327894 -104.587409
v 18.868207 16.315647 -104.571818
v 18.976405 16.286977 -104.535321
v 19.070751 16.243473 -104.479941
v 19.607142 15.313956 -103.296668
v 19.441265 15.122881 -103.053431
v 19.246443 14.942534 -102.823849
v 19.176775 14.888642 -102.755245
v 19.102557 14.837121 -102.689659
v 19.672823 15.854981 -103.985392
v 19.742539 15.513990 -103.551311
v 19.739070 15.794860 -103.908858
v 19.780726 15.726837 -103.822265
v 19.782509 15.582398 -103.638394
v 19.795478 15.654683 -103.730413
v 21.778351 13.484352 -100.967588
v 21.731857 13.551168 -101.052645
v 21.929415 12.750598 -100.033521
v 21.975041 12.817642 -100.118868
v 21.994025 12.889418 -100.210239
v 20.877523 12.303440 -99.464290
v 21.696887 10.580927 -97.271536
v 21.889967 10.258586 -96.861197
v 21.783480 10.531653 -97.208811
v 21.849022 10.471237 -97.131901
v 21.889876 10.403029 -97.045073
v 21.903782 10.330811 -96.953139
v 18.689290 9.689676 -96.136977
v 5.548852 9.815739 -96.297456
v 18.489072 9.641574 -96.075743
v 5.716398 9.732677 -96.191719
v 18.315828 9.563099 -95.975845
v 5.843434 9.625659 -96.055484
v 18.181367 9.459599 -95.844090
v 7.984972 8.053551 -94.054196
v 5.921302 9.501975 -95.898035
v 18.094853 9.338129 -95.689458
v 18.062179 9.206964 -95.522486
v 18.085574 9.075046 -95.354555
v 18.163442 8.951362 -95.197105
v 18.290477 8.844344 -95.060871
v 15.931017 7.946603 -93.918051
v 8.197300 8.033367 -94.028502
v 18.802703 8.513825 -94.640122
v 19.348216 7.972795 -93.951393
v 15.717466 7.932152 -93.899654
v 8.393938 7.979924 -93.960468
v 18.877731 8.462754 -94.575108
v 18.948247 8.409284 -94.507042
v 19.014048 8.353569 -94.436117
v 19.195969 8.168152 -94.200081
v 19.375688 7.430515 -93.261071
v 18.746797 7.058592 -92.787615
v 18.649473 7.017667 -92.735517
v 18.539357 6.991935 -92.702761
v 18.422554 6.982823 -92.691161
v 18.305538 6.990834 -92.701359
v 18.194799 7.015525 -92.732790
v 17.902531 7.090006 -92.827604
v 17.621796 7.179833 -92.941954
v 17.354698 7.284333 -93.074982
v 17.236525 7.337809 -93.143057
v 17.124694 7.396259 -93.217464
v 17.019753 7.459396 -93.297837
v 16.507528 7.789913 -93.718585
v 16.339983 7.872976 -93.824323
v 16.143346 7.926420 -93.892357
v 19.469382 7.769308 -93.692354
v 19.492524 7.555635 -93.420349
v 19.446113 7.488797 -93.335264
v 19.504490 7.699889 -93.603984
v 19.512348 7.627324 -93.511608
v 15.517248 7.884050 -93.838420
v 11.934799 7.342450 -93.148965
v 11.721249 7.327998 -93.130569
v 8.561483 7.896861 -93.854730
v 12.147128 7.322266 -93.123272
v 15.344004 7.805573 -93.738520
v 12.343765 7.268822 -93.055238
v 15.209544 7.702075 -93.606767
v 12.511311 7.185761 -92.949501
v 15.123029 7.580603 -93.452134
v 12.638347 7.078742 -92.813266
v 12.716215 6.955058 -92.655817
v 15.090355 7.449439 -93.285162
v 12.892293 6.510610 -92.090036
v 14.063545 5.630072 -90.969113
v 13.550643 5.763270 -91.138674
v 13.357816 5.918044 -91.335701
v 13.187398 6.082549 -91.545115
v 13.040667 6.255546 -91.765340
v 12.981611 6.338359 -91.870760
v 12.932072 6.423518 -91.979168
v 15.113750 7.317520 -93.117230
v 14.909217 5.757920 -91.131864
v 13.946136 5.624690 -90.962262
v 13.829945 5.636417 -90.977190
v 13.721414 5.664602 -91.013070
v 15.289829 6.873073 -92.551450
v 15.313468 6.805670 -92.465646
v 15.331258 6.737584 -92.378973
v 15.343147 6.669010 -92.291678
v 15.350618 6.452241 -92.015732
v 15.324347 6.236033 -91.740499
v 15.017379 5.786642 -91.168427
v 15.111672 5.830190 -91.223862
v 15.264575 6.022384 -91.468525
v 15.186866 5.886150 -91.295100
v 15.238794 5.951423 -91.378192
v 13.626560 5.707683 -91.067912
v 11.521030 7.279896 -93.069335
v 8.688519 7.789843 -93.718495
v 11.347787 7.201421 -92.969437
v 8.766387 7.666159 -93.561047
v 11.213327 7.097921 -92.837681
v 11.126812 6.976450 -92.683049
v 8.789781 7.534240 -93.393114
v 10.919563 6.537162 -92.123836
v 10.753347 6.286331 -91.804529
v 10.594558 6.117447 -91.589541
v 10.412702 5.957683 -91.386162
v 10.209146 5.808245 -91.195927
v 9.687339 5.688972 -91.044094
v 8.757108 7.403076 -93.226143
v 10.818186 6.367476 -91.907827
v 10.873682 6.451222 -92.014436
v 10.031580 5.714264 -91.076291
v 9.921164 5.689026 -91.044162
v 9.804257 5.680436 -91.033227
v 10.129381 5.754752 -91.127831
v 8.851484 5.839453 -91.235655
v 8.549860 6.963788 -92.666930
v 8.521491 6.897085 -92.582018
v 8.498917 6.829542 -92.496036
v 8.482203 6.761352 -92.409230
v 8.459456 6.544991 -92.133803
v 8.470458 6.328281 -91.857932
v 8.745450 5.871059 -91.275889
v 8.654317 5.917101 -91.334501
v 8.515109 6.113227 -91.584168
v 8.583140 5.975032 -91.408247
v 8.535863 6.041639 -91.493038
v 7.771421 8.039099 -94.035799
v 7.571202 7.990997 -93.974565
v 5.944697 9.370057 -95.730104
v 7.397959 7.912522 -93.874666
v 5.912023 9.238892 -95.563132
v 6.862916 7.596100 -93.471862
v 6.753623 7.535846 -93.395158
v 6.637777 7.480460 -93.324653
v 5.825508 9.117421 -95.408499
v 6.515946 7.430214 -93.260689
v 6.241734 7.332999 -93.136936
v 5.691047 9.013922 -95.276745
v 5.954931 7.250812 -93.032311
v 5.657690 7.184265 -92.947597
v 5.156004 8.697499 -94.873940
v 5.545315 7.162577 -92.919989
v 5.427846 7.157722 -92.913808
v 5.311796 7.169969 -92.929398
v 5.203598 7.198638 -92.965895
v 5.109253 7.242143 -93.021276
v 4.572861 8.171660 -94.204548
v 4.738738 8.362734 -94.447785
v 4.933560 8.543082 -94.677367
v 5.003228 8.596974 -94.745972
v 5.077446 8.648495 -94.811558
v 4.507181 7.630635 -93.515825
v 4.437465 7.971626 -93.949906
v 4.440933 7.690756 -93.592359
v 4.399278 7.758779 -93.678952
v 4.397494 7.903218 -93.862823
v 4.384526 7.830933 -93.770804
v 4.926336 9.874915 -96.372787
v 4.339582 11.355970 -98.258166
v 4.539800 11.404072 -98.319400
v 4.206863 9.766145 -96.234323
v 4.097750 9.751542 -96.215733
v 3.987533 9.740552 -96.201743
v 3.620108 11.247199 -98.119700
v 3.876524 9.733207 -96.192394
v 3.525621 9.728592 -96.186518
v 3.341266 11.192025 -98.049464
v 3.479124 11.222627 -98.088420
v 3.175622 9.744821 -96.207177
v 2.927160 11.064901 -97.887635
v 3.207209 11.155543 -98.003022
v 2.829766 9.781744 -96.254180
v 2.660861 10.959627 -97.753622
v 2.714893 9.797670 -96.274455
v 2.609231 9.829748 -96.315290
v 2.518642 9.876199 -96.374422
v 2.401652 10.001263 -96.533628
v 2.410311 10.840509 -97.601986
v 2.448146 9.934447 -96.448571
v 2.194689 10.523670 -97.198650
v 2.320327 10.793613 -97.542287
v 2.250588 10.735017 -97.467694
v 2.204962 10.667974 -97.382348
v 2.185978 10.596197 -97.290978
v 3.663090 12.465835 -99.671021
v 3.606050 13.985853 -101.605999
v 3.921945 13.977852 -101.595814
v 4.067570 13.968040 -101.583323
v 3.523972 12.494178 -99.707101
v 3.388402 12.528460 -99.750742
v 3.257046 12.568514 -99.801730
v 3.290219 13.976934 -101.594646
v 2.983653 12.666605 -99.926600
v 2.976824 13.951164 -101.561840
v 2.725029 12.778943 -100.069607
v 2.860935 13.938343 -101.545519
v 2.483116 12.904688 -100.229679
v 2.533637 13.743372 -101.297321
v 2.753114 13.909138 -101.508341
v 2.659334 13.865169 -101.452369
v 2.584799 13.808873 -101.380704
v 2.290037 13.227030 -100.640020
v 2.396524 12.953963 -100.292406
v 2.330982 13.014377 -100.369314
v 2.290126 13.082586 -100.456143
v 2.276221 13.154805 -100.548077
v 6.094430 14.410570 -102.146662
v 6.879500 16.203800 -104.429438
v 6.016562 14.534254 -102.304111
v 6.668273 16.265136 -104.507520
v 6.448457 16.343180 -104.606870
v 5.889526 14.641273 -102.440346
v 6.220401 16.411609 -104.693979
v 5.985205 16.470091 -104.768426
v 5.377301 14.971791 -102.861095
v 5.874465 16.494782 -104.799858
v 5.757450 16.502793 -104.810056
v 5.640646 16.493680 -104.798455
v 5.530531 16.467948 -104.765698
v 5.433207 16.427024 -104.713602
v 5.279762 15.039305 -102.947041
v 5.190103 15.110868 -103.038140
v 5.108764 15.186128 -103.133946
v 4.951394 15.355520 -103.349580
v 4.804315 16.055100 -104.240144
v 4.818347 15.532690 -103.575117
v 4.710623 15.716308 -103.808863
v 4.687479 15.929980 -104.080867
v 4.733891 15.996818 -104.165952
v 4.675514 15.785726 -103.897232
v 4.667654 15.858292 -103.989608
f 1 2 3
f 1 4 2
f 2 4 5
f 4 6 5
f 5 6 7
f 6 8 7
f 7 8 9
f 8 10 9
f 9 10 11
f 10 12 11
f 11 12 13
f 12 14 13
f 13 14 15
f 14 16 15
f 15 16 17
f 16 18 17
f 17 18 19
f 18 20 19
f 19 20 21
f 20 22 21
f 21 22 23
f 22 24 23
f 23 24 25
f 24 26 25
f 25 26 27
f 26 28 27
f 27 28 29
f 28 30 29
f 29 30 31
f 30 32 31
f 31 32 33
f 32 34 33
f 33 34 35
f 34 36 35
f 35 36 37
f 36 38 37
f 37 38 39
f 38 40 39
f 39 40 41
f 40 42 41
f 41 42 43
f 42 44 43
f 43 44 45
f 44 46 45
f 45 46 47
f 46 48 47
f 47 48 49
f 48 527 49
f 50 51 52
f 50 53 51
f 51 53 54
f 53 55 54
f 54 55 56
f 55 57 56
f 56 57 58
f 57 59 58
f 58 59 60
f 59 61 60
f 60 61 62
f 61 63 62
f 62 63 64
f 63 65 64
f 64 65 66
f 65 67 66
f 66 67 68
f 67 69 68
f 68 69 70
f 69 71 70
f 70 71 72
f 71 73 72
f 72 73 74
f 73 75 74
f 74 75 76
f 75 77 76
f 76 77 78
f 77 79 78
f 78 79 80
f 79 81 80
f 80 81 82
f 81 83 82
f 82 83 84
f 83 85 84
f 84 85 86
f 85 87 86
f 86 87 88
f 87 89 88
f 88 89 90
f 89 91 90
f 90 91 92
f 91 93 92
f 92 93 94
f 93 95 94
f 94 95 96
f 95 97 96
f 96 97 98
f 97 528 98
f 99 100 101
f 99 101 102
f 99 103 100
f 99 102 108
f 99 476 477
f 99 536 476
f 99 537 536
f 99 538 537
f 99 108 538
f 100 103 104
f 100 104 106
f 103 105 104
f 104 107 106
f 108 539 538
f 108 540 539
f 108 541 540
f 108 542 541
f 109 110 111
f 109 111 138
f 110 134 136
f 110 136 111
f 111 137 138
f 111 139 137
f 112 113 114
f 112 114 128
f 113 129 114
f 114 115 119
f 114 127 128
f 114 129 115
f 114 130 127
f 115 116 117
f 115 117 118
f 115 120 116
f 115 118 119
f 116 120 122
f 120 121 122
f 120 123 121
f 121 123 124
f 121 124 125
f 124 126 125
f 127 130 132
f 130 131 132
f 130 133 131
f 131 133 135
f 133 134 135
f 133 136 134
f 137 141 549
f 137 139 141
f 139 140 141
f 139 142 140
f 140 142 143
f 140 143 144
f 140 144 145
f 140 147 162
f 140 145 147
f 140 555 556
f 140 556 557
f 140 557 558
f 140 559 560
f 140 560 141
f 140 558 559
f 141 547 549
f 145 146 147
f 146 163 147
f 147 148 149
f 147 150 151
f 147 152 153
f 147 154 155
f 147 155 157
f 147 163 148
f 147 149 164
f 147 164 150
f 147 151 165
f 147 165 152
f 147 153 166
f 147 166 154
f 147 157 161
f 147 172 171
f 147 173 174
f 147 171 173
f 147 174 162
f 154 156 155
f 157 159 158
f 157 158 160
f 157 160 161
f 167 168 169
f 167 169 170
f 167 171 168
f 168 171 172
f 173 175 174
f 174 175 176
f 175 177 176
f 176 177 178
f 177 179 178
f 178 179 180
f 179 181 180
f 180 181 217
f 181 218 217
f 182 183 184
f 182 184 219
f 183 211 210
f 183 210 184
f 184 212 213
f 184 213 214
f 184 215 216
f 184 216 217
f 184 218 219
f 184 366 367
f 184 369 379
f 184 367 369
f 184 379 212
f 184 214 215
f 184 217 218
f 185 186 187
f 185 187 188
f 185 189 186
f 185 188 210
f 185 210 211
f 186 189 191
f 189 190 191
f 189 192 190
f 190 192 193
f 190 193 208
f 193 209 208
f 194 195 196
f 194 196 202
f 194 202 204
f 194 204 205
f 194 206 207
f 194 205 206
f 195 200 199
f 195 199 196
f 196 203 202
f 197 198 199
f 197 199 200
f 198 201 199
f 206 208 207
f 207 208 209
f 220 221 222
f 220 222 360
f 220 361 362
f 220 360 361
f 221 251 252
f 221 252 253
f 221 253 222
f 222 254 255
f 222 255 330
f 222 330 356
f 222 356 357
f 222 357 358
f 222 358 359
f 222 359 360
f 223 224 225
f 223 225 234
f 224 235 225
f 225 233 234
f 225 235 232
f 225 232 231
f 225 236 233
f 226 227 228
f 226 228 229
f 226 230 227
f 227 231 232
f 227 230 231
f 233 236 237
f 233 237 238
f 233 238 239
f 233 240 241
f 233 239 240
f 240 242 241
f 241 243 244
f 241 242 243
f 243 245 244
f 244 246 247
f 244 245 246
f 246 248 247
f 247 248 249
f 247 250 251
f 247 249 250
f 250 252 251
f 254 290 327
f 254 327 255
f 255 328 330
f 256 257 258
f 256 258 259
f 256 260 261
f 256 262 257
f 256 259 260
f 256 261 281
f 256 282 283
f 256 281 282
f 257 262 265
f 257 275 258
f 258 276 277
f 258 275 278
f 258 278 276
f 261 279 281
f 262 273 265
f 263 264 265
f 263 265 273
f 264 274 265
f 265 266 267
f 265 274 266
f 265 267 272
f 267 269 271
f 267 271 272
f 268 269 270
f 268 271 269
f 279 280 281
f 282 284 283
f 283 285 286
f 283 284 285
f 285 287 286
f 286 287 288
f 287 289 288
f 288 289 290
f 289 291 290
f 290 291 326
f 290 326 327
f 291 325 326
f 292 293 294
f 292 295 293
f 293 297 317
f 293 295 297
f 295 296 297
f 296 318 297
f 297 298 302
f 297 318 298
f 297 302 316
f 297 319 317
f 298 299 300
f 298 300 301
f 298 303 299
f 298 301 302
f 302 309 316
f 304 305 306
f 304 306 307
f 304 308 305
f 305 308 310
f 308 309 310
f 308 311 309
f 309 311 312
f 309 312 313
f 309 313 314
f 309 314 315
f 309 315 316
f 317 319 321
f 319 320 321
f 319 322 320
f 320 322 323
f 322 324 323
f 323 324 325
f 324 326 325
f 328 329 330
f 329 355 330
f 330 331 332
f 330 335 353
f 330 355 331
f 330 332 346
f 330 346 335
f 333 334 335
f 333 335 347
f 334 348 335
f 335 336 337
f 335 338 339
f 335 346 347
f 335 348 336
f 335 337 349
f 335 349 338
f 335 339 344
f 335 344 342
f 335 350 351
f 335 351 352
f 335 354 350
f 335 352 353
f 340 341 342
f 340 343 341
f 340 342 345
f 342 344 345
f 361 363 362
f 362 363 364
f 363 365 364
f 364 365 366
f 365 367 366
f 367 368 369
f 368 380 369
f 369 370 371
f 369 372 373
f 369 374 375
f 369 376 377
f 369 377 378
f 369 380 370
f 369 371 381
f 369 381 372
f 369 373 382
f 369 382 374
f 369 375 383
f 369 384 385
f 369 385 386
f 369 387 388
f 369 388 389
f 369 390 391
f 369 391 392
f 369 393 384
f 369 386 387
f 369 389 390
f 369 392 376
f 369 378 379
f 376 392 400
f 384 393 399
f 392 401 400
f 393 395 399
f 394 395 396
f 394 397 395
f 395 397 398
f 395 398 399
f 400 401 402
f 401 403 402
f 402 403 441
f 403 438 441
f 404 405 406
f 404 406 407
f 404 408 405
f 404 407 429
f 404 429 431
f 405 408 410
f 408 409 410
f 408 411 409
f 409 411 412
f 409 412 428
f 409 428 427
f 413 414 415
f 413 415 421
f 413 421 423
f 413 423 424
f 413 425 426
f 413 424 425
f 414 419 418
f 414 418 415
f 415 422 421
f 416 417 418
f 416 418 419
f 417 420 418
f 425 427 426
f 426 427 428
f 429 430 431
f 429 432 430
f 430 432 433
f 432 434 433
f 433 434 435
f 434 436 435
f 435 437 438
f 435 436 437
f 437 439 438
f 438 439 441
f 439 440 441
f 440 471 472
f 440 442 471
f 440 472 441
f 442 443 444
f 442 444 445
f 442 446 443
f 442 445 471
f 443 446 470
f 446 468 470
f 447 448 449
f 447 449 458
f 448 459 449
f 449 457 458
f 449 459 456
f 449 456 455
f 449 460 457
f 450 451 452
f 450 452 453
f 450 454 451
f 451 455 456
f 451 454 455
f 457 460 461
f 457 461 462
f 457 462 463
f 457 464 465
f 457 463 464
f 464 466 465
f 465 467 468
f 465 466 467
f 467 469 468
f 468 469 470
f 471 473 472
f 472 475 531
f 472 473 475
f 473 474 475
f 474 529 475
f 475 529 530
f 475 550 531
f 476 478 477
f 476 535 532
f 476 536 535
f 479 480 481
f 480 561 481
f 482 483 484
f 482 484 485
f 482 486 483
f 482 485 828
f 485 826 827
f 485 827 828
f 487 488 489
f 487 489 490
f 487 491 488
f 487 490 877
f 490 875 876
f 490 876 877
f 492 493 494
f 492 494 495
f 492 496 493
f 492 495 962
f 495 960 961
f 495 961 962
f 497 498 499
f 497 499 500
f 497 501 498
f 497 500 1083
f 500 1081 1082
f 500 1082 1083
f 502 503 504
f 502 504 505
f 502 506 503
f 502 505 1168
f 505 1166 1167
f 505 1167 1168
f 507 508 509
f 507 509 510
f 507 511 508
f 507 510 1217
f 510 1215 1216
f 510 1216 1217
f 512 513 514
f 512 514 515
f 512 516 513
f 512 515 1302
f 515 1300 1301
f 515 1301 1302
f 517 518 519
f 517 519 520
f 517 521 518
f 517 520 1333
f 520 1331 1332
f 520 1332 1333
f 522 523 524
f 522 524 525
f 522 526 523
f 522 525 1382
f 525 1380 1381
f 525 1381 1382
f 529 532 530
f 530 532 533
f 531 550 551
f 532 534 533
f 532 535 534
f 541 542 543
f 542 544 543
f 542 545 544
f 542 546 545
f 545 546 547
f 546 548 547
f 547 548 549
f 550 552 551
f 551 552 553
f 552 554 553
f 553 554 555
f 554 556 555
f 562 563 564
f 563 565 564
f 566 567 568
f 567 569 568
f 570 571 572
f 571 573 572
f 574 575 576
f 575 577 576
f 578 579 580
f 579 581 580
f 580 581 582
f 581 583 582
f 582 583 584
f 583 585 584
f 586 587 588
f 587 589 588
f 590 591 592
f 591 593 592
f 592 593 594
f 592 594 595
f 594 596 595
f 595 596 597
f 596 598 597
f 597 598 599
f 598 600 599
f 599 600 601
f 600 602 601
f 601 602 603
f 602 604 603
f 603 604 605
f 604 606 605
f 605 606 607
f 606 608 607
f 606 609 608
f 610 611 612
f 611 613 612
f 612 613 614
f 613 615 614
f 614 615 616
f 615 617 616
f 618 619 620
f 619 621 620
f 620 621 622
f 621 623 622
f 622 623 624
f 623 625 624
f 624 625 626
f 625 627 626
f 626 627 628
f 627 629 628
f 630 631 632
f 631 633 632
f 634 635 636
f 635 637 636
f 636 637 638
f 637 639 638
f 638 639 640
f 639 641 640
f 640 641 642
f 641 643 642
f 642 643 644
f 643 645 644
f 646 647 648
f 647 649 648
f 648 649 650
f 649 651 650
f 650 651 652
f 651 653 652
f 654 655 656
f 655 657 656
f 656 657 658
f 657 659 658
f 658 659 660
f 659 661 660
f 662 663 664
f 663 665 664
f 666 667 668
f 667 669 668
f 668 669 670
f 669 671 670
f 670 671 672
f 671 673 672
f 672 673 674
f 673 675 674
f 674 675 676
f 675 677 676
f 676 677 678
f 677 679 678
f 678 679 680
f 679 681 680
f 680 681 682
f 681 683 682
f 682 683 684
f 683 685 684
f 684 685 686
f 685 687 686
f 688 689 690
f 689 691 690
f 692 693 694
f 693 695 694
f 694 695 696
f 695 697 696
f 696 697 698
f 697 699 698
f 700 701 702
f 701 703 702
f 702 703 704
f 703 705 704
f 704 705 706
f 705 707 706
f 708 709 710
f 709 711 710
f 710 711 712
f 711 713 712
f 712 713 714
f 713 715 714
f 714 715 716
f 715 717 716
f 716 717 718
f 717 719 718
f 720 721 722
f 721 723 722
f 724 725 726
f 725 727 726
f 726 727 728
f 727 729 728
f 728 729 730
f 729 731 730
f 730 731 732
f 731 733 732
f 732 733 734
f 733 735 734
f 736 737 738
f 737 739 738
f 738 739 740
f 739 741 740
f 740 741 742
f 741 743 742
f 744 745 746
f 745 747 746
f 746 747 748
f 747 749 748
f 748 749 750
f 749 751 750
f 752 753 754
f 753 755 754
f 756 757 758
f 757 759 758
f 758 759 760
f 759 761 760
f 760 761 762
f 761 763 762
f 762 763 764
f 763 765 764
f 764 765 766
f 765 767 766
f 766 767 768
f 767 769 768
f 768 769 770
f 769 771 770
f 770 771 772
f 771 773 772
f 772 773 774
f 773 775 774
f 774 775 776
f 775 777 776
f 778 779 780
f 779 781 780
f 782 783 784
f 783 785 784
f 784 785 786
f 785 787 786
f 786 787 788
f 787 789 788
f 790 791 792
f 791 793 792
f 792 793 794
f 793 795 794
f 794 795 796
f 795 797 796
f 798 799 800
f 799 801 800
f 800 801 802
f 801 803 802
f 802 803 804
f 803 805 804
f 804 805 806
f 805 807 806
f 806 807 808
f 807 809 808
f 810 811 812
f 811 813 812
f 814 815 816
f 815 817 816
f 816 817 818
f 817 819 818
f 818 819 820
f 819 821 820
f 820 821 822
f 821 823 822
f 822 823 824
f 823 825 824
f 829 830 831
f 830 832 831
f 831 832 833
f 832 834 833
f 833 834 835
f 834 836 835
f 837 838 839
f 838 840 839
f 841 842 843
f 842 844 843
f 843 844 845
f 844 846 845
f 845 846 847
f 846 848 847
f 847 848 849
f 848 850 849
f 849 850 851
f 850 852 851
f 851 852 853
f 852 854 853
f 853 854 855
f 854 856 855
f 855 856 857
f 856 858 857
f 857 858 859
f 858 860 859
f 859 860 861
f 860 862 861
f 863 864 865
f 864 866 865
f 867 868 869
f 868 870 869
f 869 870 871
f 870 872 871
f 871 872 873
f 872 874 873
f 878 879 880
f 879 881 880
f 880 881 882
f 881 883 882
f 882 883 884
f 883 885 884
f 884 885 886
f 885 887 886
f 886 887 888
f 887 889 888
f 890 891 892
f 891 893 892
f 894 895 896
f 895 897 896
f 896 897 898
f 897 899 898
f 898 899 900
f 899 901 900
f 900 901 902
f 901 903 902
f 902 903 904
f 903 905 904
f 906 907 908
f 907 909 908
f 908 909 910
f 909 911 910
f 910 911 912
f 911 913 912
f 914 915 916
f 915 917 916
f 916 917 918
f 917 919 918
f 918 919 920
f 919 921 920
f 922 923 924
f 923 925 924
f 926 927 928
f 927 929 928
f 928 929 930
f 929 931 930
f 930 931 932
f 931 933 932
f 932 933 934
f 933 935 934
f 934 935 936
f 935 937 936
f 936 937 938
f 937 939 938
f 938 939 940
f 939 941 940
f 940 941 942
f 941 943 942
f 942 943 944
f 943 945 944
f 944 945 946
f 945 947 946
f 948 949 950
f 949 951 950
f 952 953 954
f 953 955 954
f 954 955 956
f 955 957 956
f 956 957 958
f 957 959 958
f 963 964 965
f 964 966 965
f 965 966 967
f 966 968 967
f 967 968 969
f 968 970 969
f 969 970 971
f 970 972 971
f 971 972 973
f 972 974 973
f 975 976 977
f 976 978 977
f 979 980 981
f 980 982 981
f 981 982 983
f 982 984 983
f 983 984 985
f 984 986 985
f 985 986 987
f 986 988 987
f 987 988 989
f 988 990 989
f 991 992 993
f 992 994 993
f 993 994 995
f 994 996 995
f 995 996 997
f 996 998 997
f 999 1000 1001
f 1000 1002 1001
f 1001 1002 1003
f 1002 1004 1003
f 1003 1004 1005
f 1004 1006 1005
f 1007 1008 1009
f 1008 1010 1009
f 1011 1012 1013
f 1012 1014 1013
f 1013 1014 1015
f 1014 1016 1015
f 1015 1016 1017
f 1016 1018 1017
f 1017 1018 1019
f 1018 1020 1019
f 1019 1020 1021
f 1020 1022 1021
f 1021 1022 1023
f 1022 1024 1023
f 1023 1024 1025
f 1024 1026 1025
f 1025 1026 1027
f 1026 1028 1027
f 1027 1028 1029
f 1028 1030 1029
f 1029 1030 1031
f 1030 1032 1031
f 1033 1034 1035
f 1034 1036 1035
f 1037 1038 1039
f 1038 1040 1039
f 1039 1040 1041
f 1040 1042 1041
f 1041 1042 1043
f 1042 1044 1043
f 1045 1046 1047
f 1046 1048 1047
f 1047 1048 1049
f 1048 1050 1049
f 1049 1050 1051
f 1050 1052 1051
f 1053 1054 1055
f 1054 1056 1055
f 1055 1056 1057
f 1056 1058 1057
f 1057 1058 1059
f 1058 1060 1059
f 1059 1060 1061
f 1060 1062 1061
f 1061 1062 1063
f 1062 1064 1063
f 1065 1066 1067
f 1066 1068 1067
f 1069 1070 1071
f 1070 1072 1071
f 1071 1072 1073
f 1072 1074 1073
f 1073 1074 1075
f 1074 1076 1075
f 1075 1076 1077
f 1076 1078 1077
f 1077 1078 1079
f 1078 1080 1079
f 1084 1085 1086
f 1085 1087 1086
f 1086 1087 1088
f 1087 1089 1088
f 1088 1089 1090
f 1089 1091 1090
f 1092 1093 1094
f 1093 1095 1094
f 1096 1097 1098
f 1097 1099 1098
f 1098 1099 1100
f 1099 1101 1100
f 1100 1101 1102
f 1101 1103 1102
f 1102 1103 1104
f 1103 1105 1104
f 1104 1105 1106
f 1105 1107 1106
f 1106 1107 1108
f 1107 1109 1108
f 1108 1109 1110
f 1109 1111 1110
f 1110 1111 1112
f 1111 1113 1112
f 1112 1113 1114
f 1113 1115 1114
f 1114 1115 1116
f 1115 1117 1116
f 1118 1119 1120
f 1119 1121 1120
f 1122 1123 1124
f 1123 1125 1124
f 1124 1125 1126
f 1125 1127 1126
f 1126 1127 1128
f 1127 1129 1128
f 1130 1131 1132
f 1131 1133 1132
f 1132 1133 1134
f 1133 1135 1134
f 1134 1135 1136
f 1135 1137 1136
f 1138 1139 1140
f 1139 1141 1140
f 1140 1141 1142
f 1141 1143 1142
f 1142 1143 1144
f 1143 1145 1144
f 1144 1145 1146
f 1145 1147 1146
f 1146 1147 1148
f 1147 1149 1148
f 1150 1151 1152
f 1151 1153 1152
f 1154 1155 1156
f 1155 1157 1156
f 1156 1157 1158
f 1157 1159 1158
f 1158 1159 1160
f 1159 1161 1160
f 1160 1161 1162
f 1161 1163 1162
f 1162 1163 1164
f 1163 1165 1164
f 1169 1170 1171
f 1170 1172 1171
f 1171 1172 1173
f 1172 1174 1173
f 1173 1174 1175
f 1174 1176 1175
f 1177 1178 1179
f 1178 1180 1179
f 1181 1182 1183
f 1182 1184 1183
f 1183 1184 1185
f 1184 1186 1185
f 1185 1186 1187
f 1186 1188 1187
f 1187 1188 1189
f 1188 1190 1189
f 1189 1190 1191
f 1190 1192 1191
f 1191 1192 1193
f 1192 1194 1193
f 1193 1194 1195
f 1194 1196 1195
f 1195 1196 1197
f 1196 1198 1197
f 1197 1198 1199
f 1198 1200 1199
f 1199 1200 1201
f 1200 1202 1201
f 1203 1204 1205
f 1204 1206 1205
f 1207 1208 1209
f 1208 1210 1209
f 1209 1210 1211
f 1210 1212 1211
f 1211 1212 1213
f 1212 1214 1213
f 1218 1219 1220
f 1219 1221 1220
f 1220 1221 1222
f 1221 1223 1222
f 1222 1223 1224
f 1223 1225 1224
f 1224 1225 1226
f 1225 1227 1226
f 1226 1227 1228
f 1227 1229 1228
f 1230 1231 1232
f 1231 1233 1232
f 1234 1235 1236
f 1235 1237 1236
f 1236 1237 1238
f 1237 1239 1238
f 1238 1239 1240
f 1239 1241 1240
f 1240 1241 1242
f 1241 1243 1242
f 1242 1243 1244
f 1243 1245 1244
f 1246 1247 1248
f 1247 1249 1248
f 1248 1249 1250
f 1249 1251 1250
f 1250 1251 1252
f 1251 1253 1252
f 1254 1255 1256
f 1255 1257 1256
f 1256 1257 1258
f 1257 1259 1258
f 1258 1259 1260
f 1259 1261 1260
f 1262 1263 1264
f 1263 1265 1264
f 1266 1267 1268
f 1267 1269 1268
f 1268 1269 1270
f 1269 1271 1270
f 1270 1271 1272
f 1271 1273 1272
f 1272 1273 1274
f 1273 1275 1274
f 1274 1275 1276
f 1275 1277 1276
f 1276 1277 1278
f 1277 1279 1278
f 1278 1279 1280
f 1279 1281 1280
f 1280 1281 1282
f 1281 1283 1282
f 1282 1283 1284
f 1283 1285 1284
f 1284 1285 1286
f 1285 1287 1286
f 1288 1289 1290
f 1289 1291 1290
f 1292 1293 1294
f 1293 1295 1294
f 1294 1295 1296
f 1295 1297 1296
f 1296 1297 1298
f 1297 1299 1298
f 1303 1304 1305
f 1304 1306 1305
f 1305 1306 1307
f 1306 1308 1307
f 1307 1308 1309
f 1308 1310 1309
f 1309 1310 1311
f 1310 1312 1311
f 1311 1312 1313
f 1312 1314 1313
f 1315 1316 1317
f 1316 1318 1317
f 1319 1320 1321
f 1320 1322 1321
f 1321 1322 1323
f 1322 1324 1323
f 1323 1324 1325
f 1324 1326 1325
f 1325 1326 1327
f 1326 1328 1327
f 1327 1328 1329
f 1328 1330 1329
f 1334 1335 1336
f 1335 1337 1336
f 1336 1337 1338
f 1337 1339 1338
f 1338 1339 1340
f 1339 1341 1340
f 1342 1343 1344
f 1343 1345 1344
f 1346 1347 1348
f 1347 1349 1348
f 1348 1349 1350
f 1349 1351 1350
f 1350 1351 1352
f 1351 1353 1352
f 1352 1353 1354
f 1353 1355 1354
f 1354 1355 1356
f 1355 1357 1356
f 1356 1357 1358
f 1357 1359 1358
f 1358 1359 1360
f 1359 1361 1360
f 1360 1361 1362
f 1361 1363 1362
f 1362 1363 1364
f 1363 1365 1364
f 1364 1365 1366
f 1365 1367 1366
f 1368 1369 1370
f 1369 1371 1370
f 1372 1373 1374
f 1373 1375 1374
f 1374 1375 1376
f 1375 1377 1376
f 1376 1377 1378
f 1377 1379 1378
f 1383 1384 1385
f 1384 1386 1385
f 1385 1386 1387
f 1386 1388 1387
f 1387 1388 1389
f 1388 1390 1389
f 1389 1390 1391
f 1390 1392 1391
f 1391 1392 1393
f 1392 1394 1393
f 1395 1396 1397
f 1396 1398 1397
f 1399 1400 1401
f 1400 1402 1401
f 1401 1402 1403
f 1402 1404 1403
f 1403 1404 1405
f 1404 1406 1405
f 1405 1406 1407
f 1406 1408 1407
f 1407 1408 1409
f 1408 1410 1409
f 1411 1412 1413
f 1412 1414 1413
f 1413 1414 1415
f 1414 1416 1415
f 1415 1416 1417
f 1416 1418 1417
f 1419 1420 1421
f 1420 1422 1421
f 1421 1422 1423
f 1421 1423 1424
f 1423 1425 1424
f 1424 1425 1426
f 1425 1427 1426
f 1426 1427 1428
f 1427 1429 1428
f 1428 1429 1430
f 1429 1431 1430
f 1430 1431 1432
f 1431 1433 1432
f 1432 1433 1434
f 1433 1435 1434
f 1434 1435 1436
f 1435 1437 1436
f 1435 1438 1437
f 1439 1440 1441
f 1440 1442 1441
f 1443 1444 1445
f 1444 1446 1445
f 1445 1446 1447
f 1446 1448 1447
f 1447 1448 1449
f 1448 1450 1449
f 1451 1452 1453
f 1452 1454 1453
f 1455 1456 1457
f 1455 1458 1456
f 1456 1458 1459
f 1456 1459 1460
f 1456 1461 1457
f 1457 1461 1462
f 1459 1466 1460
f 1460 1466 1467
f 1460 1468 1469
f 1460 1467 1468
f 1461 1463 1462
f 1462 1463 1464
f 1462 1464 1465
f 1464 1510 1465
f 1465 1505 1509
f 1465 1510 1511
f 1465 1511 1505
f 1466 1470 1467
f 1467 1470 1471
f 1467 1471 1472
f 1467 1473 1474
f 1467 1475 1476
f 1467 1476 1473
f 1467 1472 1475
f 1471 1477 1472
f 1472 1477 1478
f 1472 1479 1480
f 1472 1478 1479
f 1473 1607 1608
f 1473 1608 1474
f 1474 1608 1609
f 1479 1481 1480
f 1480 1481 1482
f 1480 1483 1484
f 1480 1482 1483
f 1483 1485 1484
f 1484 1485 1486
f 1485 1487 1486
f 1485 1488 1487
f 1485 1490 1488
f 1485 1498 1490
f 1487 1488 1489
f 1488 1491 1492
f 1488 1492 1489
f 1489 1492 1493
f 1489 1493 1497
f 1490 1498 1499
f 1491 1494 1492
f 1491 1555 1494
f 1491 1557 1555
f 1491 1569 1557
f 1493 1495 1496
f 1493 1496 1497
f 1493 1842 1495
f 1494 1555 1556
f 1495 1842 1843
f 1498 1500 1499
f 1499 1500 1501
f 1500 1502 1501
f 1501 1502 1503
f 1502 1504 1503
f 1503 1504 1505
f 1504 1506 1505
f 1505 1506 1507
f 1505 1508 1509
f 1505 1507 1508
f 1505 1531 1530
f 1505 1533 1531
f 1505 1552 1533
f 1505 1553 1552
f 1505 1554 1553
f 1505 1511 1554
f 1510 1512 1511
f 1510 1513 1512
f 1512 1513 1514
f 1512 1515 1516
f 1512 1514 1515
f 1515 1611 1516
f 1516 1611 1612
f 1517 1518 1519
f 1517 1520 1518
f 1517 1524 1520
f 1518 1521 1519
f 1519 1521 1522
f 1519 1522 1523
f 1520 1524 1525
f 1522 1606 1523
f 1523 1606 1605
f 1524 1526 1525
f 1525 1526 1527
f 1526 1528 1527
f 1527 1528 1529
f 1528 1530 1531
f 1528 1531 1529
f 1529 1531 1532
f 1531 1534 1535
f 1531 1535 1536
f 1531 1537 1538
f 1531 1538 1539
f 1531 1540 1541
f 1531 1541 1542
f 1531 1543 1544
f 1531 1544 1545
f 1531 1546 1547
f 1531 1548 1532
f 1531 1533 1534
f 1531 1536 1537
f 1531 1539 1540
f 1531 1542 1543
f 1531 1545 1635
f 1531 1635 1546
f 1532 1548 1549
f 1532 1549 1551
f 1545 1636 1635
f 1546 1637 1547
f 1546 1638 1637
f 1546 1639 1638
f 1549 1550 1551
f 1549 1640 1550
f 1555 1558 1556
f 1555 1557 1580
f 1556 1558 1559
f 1557 1569 1570
f 1557 1571 1572
f 1557 1572 1573
f 1557 1574 1575
f 1557 1575 1576
f 1557 1576 1577
f 1557 1578 1579
f 1557 1579 1580
f 1557 1570 1571
f 1557 1573 1574
f 1557 1793 1578
f 1558 1560 1559
f 1558 1561 1560
f 1560 1561 1562
f 1561 1563 1562
f 1562 1563 1564
f 1563 1565 1564
f 1564 1565 1566
f 1564 1566 1568
f 1566 1567 1568
f 1566 1820 1567
f 1567 1820 1823
f 1574 1581 1575
f 1575 1581 1582
f 1575 1582 1583
f 1575 1583 1584
f 1575 1585 1586
f 1575 1586 1587
f 1575 1588 1589
f 1575 1589 1590
f 1575 1591 1592
f 1575 1592 1593
f 1575 1594 1576
f 1575 1595 1594
f 1575 1596 1595
f 1575 1597 1596
f 1575 1598 1597
f 1575 1599 1598
f 1575 1600 1599
f 1575 1601 1600
f 1575 1602 1601
f 1575 1603 1602
f 1575 1604 1603
f 1575 1584 1585
f 1575 1587 1588
f 1575 1590 1591
f 1576 1647 1577
f 1577 1647 1648
f 1578 1793 1795
f 1583 1605 1584
f 1584 1605 1606
f 1592 1641 1593
f 1593 1641 1642
f 1607 1610 1608
f 1611 1613 1612
f 1612 1613 1614
f 1612 1614 1615
f 1614 1616 1615
f 1615 1616 1617
f 1615 1617 1618
f 1617 1619 1618
f 1618 1619 1620
f 1618 1621 1622
f 1618 1622 1623
f 1618 1620 1621
f 1618 1623 1628
f 1623 1624 1625
f 1623 1625 1626
f 1623 1627 1628
f 1623 1629 1624
f 1623 1626 1627
f 1624 1629 1630
f 1629 1631 1630
f 1630 1631 1632
f 1630 1632 1633
f 1632 1634 1633
f 1641 1643 1642
f 1642 1643 1644
f 1642 1645 1646
f 1642 1644 1645
f 1647 1649 1648
f 1648 1649 1650
f 1649 1651 1650
f 1650 1651 1652
f 1651 1653 1652
f 1652 1653 1654
f 1652 1654 1655
f 1653 1656 1654
f 1654 1656 1657
f 1654 1658 1659
f 1654 1659 1660
f 1654 1657 1658
f 1654 1660 1662
f 1654 1762 1655
f 1655 1762 1763
f 1655 1763 1764
f 1660 1661 1662
f 1660 1663 1661
f 1661 1663 1664
f 1661 1665 1662
f 1661 1664 1686
f 1662 1665 1666
f 1663 1667 1664
f 1664 1667 1668
f 1664 1669 1670
f 1664 1671 1672
f 1664 1672 1673
f 1664 1674 1675
f 1664 1675 1676
f 1664 1677 1678
f 1664 1678 1679
f 1664 1680 1681
f 1664 1681 1682
f 1664 1683 1684
f 1664 1684 1685
f 1664 1668 1669
f 1664 1687 1671
f 1664 1673 1674
f 1664 1676 1677
f 1664 1679 1680
f 1664 1682 1683
f 1664 1685 1686
f 1665 1692 1666
f 1666 1692 1693
f 1666 1694 1695
f 1666 1693 1694
f 1671 1687 1689
f 1687 1688 1689
f 1687 1690 1688
f 1688 1690 1691
f 1692 1696 1693
f 1692 1697 1696
f 1694 1730 1695
f 1695 1730 1731
f 1696 1697 1698
f 1697 1699 1698
f 1698 1699 1700
f 1699 1701 1700
f 1700 1701 1702
f 1701 1703 1702
f 1701 1704 1703
f 1703 1704 1705
f 1704 1706 1707
f 1704 1707 1708
f 1704 1709 1710
f 1704 1710 1705
f 1704 1713 1706
f 1704 1708 1709
f 1705 1710 1711
f 1705 1711 1712
f 1706 1713 1714
f 1706 1715 1707
f 1707 1715 1716
f 1707 1716 1717
f 1707 1717 1729
f 1713 1718 1714
f 1714 1718 1719
f 1714 1720 1721
f 1714 1721 1722
f 1714 1723 1724
f 1714 1719 1720
f 1714 1722 1723
f 1723 1725 1724
f 1723 1726 1725
f 1725 1726 1727
f 1726 1728 1727
f 1730 1732 1731
f 1731 1732 1733
f 1732 1734 1733
f 1733 1734 1735
f 1733 1735 1736
f 1735 1737 1736
f 1736 1737 1738
f 1736 1739 1740
f 1736 1740 1741
f 1736 1742 1743
f 1736 1738 1739
f 1736 1741 1742
f 1737 1744 1738
f 1737 1745 1744
f 1741 1746 1747
f 1741 1747 1748
f 1741 1749 1746
f 1741 1748 1742
f 1742 1750 1743
f 1743 1750 1751
f 1750 1752 1751
f 1750 1753 1752
f 1750 1754 1753
f 1750 1755 1754
f 1750 1756 1755
f 1750 1757 1756
f 1756 1757 1758
f 1756 1758 1759
f 1758 1760 1759
f 1759 1760 1761
f 1763 1765 1764
f 1764 1765 1766
f 1765 1767 1766
f 1766 1767 1768
f 1766 1769 1770
f 1766 1768 1769
f 1769 1771 1770
f 1770 1771 1772
f 1770 1772 1773
f 1772 1774 1773
f 1773 1774 1775
f 1773 1775 1776
f 1775 1777 1776
f 1776 1777 1778
f 1776 1779 1780
f 1776 1780 1781
f 1776 1778 1779
f 1776 1781 1786
f 1781 1782 1783
f 1781 1783 1784
f 1781 1785 1786
f 1781 1787 1782
f 1781 1784 1785
f 1782 1787 1788
f 1787 1789 1788
f 1788 1789 1790
f 1788 1790 1791
f 1790 1792 1791
f 1793 1794 1795
f 1793 1796 1794
f 1794 1796 1797
f 1794 1797 1798
f 1794 1798 1799
f 1798 1800 1799
f 1799 1800 1801
f 1799 1801 1803
f 1801 1802 1803
f 1801 1804 1802
f 1802 1804 1806
f 1804 1805 1806
f 1804 1807 1805
f 1805 1807 1808
f 1807 1809 1808
f 1808 1809 1810
f 1808 1811 1812
f 1808 1812 1813
f 1808 1810 1811
f 1811 1814 1812
f 1812 1815 1813
f 1813 1815 1816
f 1815 1817 1816
f 1815 1818 1817
f 1815 1819 1818
f 1820 1821 1822
f 1820 1822 1823
f 1820 1824 1821
f 1821 1824 1825
f 1821 1825 1826
f 1821 1826 1827
f 1826 1828 1827
f 1827 1828 1829
f 1828 1830 1829
f 1829 1830 1831
f 1830 1832 1833
f 1830 1834 1831
f 1830 1835 1834
f 1830 1833 1835
f 1832 1837 1833
f 1832 1838 1837
f 1833 1836 1835
f 1837 1838 1839
f 1837 1840 1841
f 1837 1839 1840
f 1842 1844 1843
f 1843 1844 1845
f 1844 1846 1845
f 1844 1847 1846
f 1846 1847 1848
f 1847 1849 1848
f 1847 1850 1849
f 1849 1850 1851
f 1850 1852 1851
f 1850 1853 1852
f 1850 1854 1853
f 1850 1855 1854
f 1850 1856 1855
f 1855 1856 1857
f 1855 1858 1859
f 1855 1859 1860
f 1855 1857 1858
f 1859 1861 1860
f 1860 1861 1862
f 1860 1862 1864
f 1862 1863 1864
f 1862 1865 1863
f 1863 1865 1866