# Part23
# Autodesk dbId: 145
# Units: mm
o 145_Part23
v 2.166821 -1.405709 -87.635223
v 1.813496 -3.786473 -89.137164
v 2.166822 -3.607579 -89.364896
v 1.813495 -1.584603 -87.407491
v 1.547160 -4.015762 -88.845280
v 1.547160 -1.813893 -87.115607
v 1.385968 -4.279820 -88.509134
v 1.385968 -2.077951 -86.779461
v 1.340902 -4.560654 -88.151634
v 1.340902 -2.358784 -86.421961
v 1.415035 -4.839123 -87.797143
v 1.415035 -2.637253 -86.067470
v 1.603313 -5.096251 -87.469820
v 1.603313 -2.894382 -85.740147
v 1.892908 -5.314515 -87.191971
v 1.892908 -3.112645 -85.462298
v 2.264081 -5.479041 -86.982529
v 2.264081 -3.277171 -85.252856
v 2.691541 -5.578616 -86.855771
v 2.691540 -3.376746 -85.126098
v 3.146154 -5.606455 -86.820331
v 3.146153 -3.404585 -85.090658
v 3.596941 -5.560660 -86.878628
v 3.596940 -3.358790 -85.148955
v 4.013180 -5.444352 -87.026687
v 4.013180 -3.242483 -85.297014
v 4.366507 -5.265458 -87.254419
v 4.366506 -3.063589 -85.524746
v 4.632841 -5.036169 -87.546303
v 4.632841 -2.834300 -85.816630
v 4.794033 -4.772111 -87.882449
v 4.794033 -2.570241 -86.152776
v 4.839099 -4.491278 -88.239949
v 4.839099 -2.289408 -86.510276
v 4.764967 -4.212808 -88.594439
v 4.764967 -2.010939 -86.864766
v 4.576688 -3.955680 -88.921762
v 4.576688 -1.753811 -87.192089
v 4.287094 -3.737416 -89.199612
v 4.287094 -1.535547 -87.469939
v 3.915920 -3.572891 -89.409053
v 3.915920 -1.371021 -87.679380
v 3.488461 -3.473316 -89.535812
v 3.488461 -1.271446 -87.806139
v 3.033848 -3.445476 -89.571251
v 3.033848 -1.243607 -87.841578
v 2.583062 -3.491271 -89.512955
v 2.583061 -1.289402 -87.783282
v 2.166822 -3.607579 -89.364896
v 17.458464 4.460082 -95.102357
v 17.105137 2.079319 -96.604298
v 17.458464 2.258213 -96.832030
v 17.105137 4.281188 -94.874625
v 16.838802 1.850030 -96.312414
v 16.838802 4.051899 -94.582741
v 16.677610 1.585971 -95.976268
v 16.677610 3.787840 -94.246595
v 16.632545 1.305138 -95.618768
v 16.632544 3.507007 -93.889095
v 16.706677 1.026669 -95.264277
v 16.706676 3.228538 -93.534604
v 16.894956 0.769541 -94.936954
v 16.894955 2.971410 -93.207281
v 17.184549 0.551277 -94.659104
v 17.184549 2.753146 -92.929431
v 17.555724 0.386751 -94.449664
v 17.555723 2.588620 -92.719991
v 17.983183 0.287176 -94.322905
v 17.983182 2.489045 -92.593232
v 18.437796 0.259337 -94.287466
v 18.437795 2.461206 -92.557792
v 18.888582 0.305132 -94.345762
v 18.888582 2.507001 -92.616089
v 19.304822 0.421439 -94.493821
v 19.304822 2.623308 -92.764148
v 19.658148 0.600333 -94.721552
v 19.658148 2.802202 -92.991879
v 19.924483 0.829622 -95.013437
v 19.924483 3.031492 -93.283764
v 20.085676 1.093681 -95.349583
v 20.085675 3.295550 -93.619910
v 20.130742 1.374514 -95.707083
v 20.130741 3.576383 -93.977410
v 20.056608 1.652983 -96.061573
v 20.056608 3.854852 -94.331900
v 19.868331 1.910111 -96.388897
v 19.868330 4.111981 -94.659224
v 19.578736 2.128375 -96.666746
v 19.578735 4.330244 -94.937073
v 19.207563 2.292901 -96.876187
v 19.207562 4.494770 -95.146514
v 18.780103 2.392476 -97.002946
v 18.780103 4.594345 -95.273273
v 18.325490 2.420315 -97.038385
v 18.325490 4.622184 -95.308712
v 17.874703 2.374520 -96.980088
v 17.874703 4.576389 -95.250415
v 17.458464 2.258213 -96.832030
v 0.979877 -2.426796 -90.868030
v 3.033848 -3.445476 -89.571251
v 2.583062 -3.491271 -89.512955
v 2.166822 -3.607579 -89.364896
v 16.271519 3.438996 -98.335164
v 16.838802 1.850030 -96.312414
v 17.080582 3.676423 -98.637408
v 17.954886 3.796684 -98.790499
v 19.722777 3.667762 -98.626381
v 17.874703 2.374520 -96.980088
v 17.458464 2.258213 -96.832030
v 18.850589 3.793748 -98.786762
v 20.527715 3.425043 -98.317401
v 18.780103 2.392476 -97.002946
v 18.325490 2.420315 -97.038385
v 21.225040 3.077763 -97.875313
v 19.578736 2.128375 -96.666746
v 19.207563 2.292901 -96.876187
v 21.779785 2.643335 -97.322288
v 20.056608 1.652983 -96.061573
v 19.868331 1.910111 -96.388897
v 22.164133 2.143544 -96.686056
v 20.085676 1.093681 -95.349583
v 20.130742 1.374514 -95.707083
v 22.358812 1.603452 -95.998519
v 19.658148 0.600333 -94.721552
v 19.924483 0.829622 -95.013437
v 22.354058 1.050139 -95.294154
v 21.757197 0.014111 -93.975292
v 20.491767 -0.759344 -92.990687
v 19.304822 0.421439 -94.493821
v 21.195019 -0.416655 -93.426929
v 18.437796 0.259337 -94.287466
v 18.888582 0.305132 -94.345762
v 5.200124 -6.625136 -85.523553
v 4.366507 -5.265458 -87.254419
v 4.632841 -5.036169 -87.546303
v 3.516758 -6.982824 -85.068217
v 4.013180 -5.444352 -87.026687
v 4.391061 -6.862563 -85.221309
v 2.621055 -6.979888 -85.071955
v 1.748867 -6.853901 -85.232336
v 3.596941 -5.560660 -86.878628
v 0.943928 -6.611182 -85.541316
v 2.691541 -5.578616 -86.855771
v 3.146154 -5.606455 -86.820331
v 0.246604 -6.263902 -85.983403
v 1.892908 -5.314515 -87.191971
v 2.264081 -5.479041 -86.982529
v -0.308142 -5.829475 -86.536428
v 1.415035 -4.839123 -87.797143
v 1.603313 -5.096251 -87.469820
v -0.692489 -5.329684 -87.172661
v 1.385968 -4.279820 -88.509134
v 1.340902 -4.560654 -88.151634
v -0.887168 -4.789591 -87.860197
v 1.813496 -3.786473 -89.137164
v 1.547160 -4.015762 -88.845280
v -0.882414 -4.236279 -88.564562
v -0.285553 -3.200250 -89.883424
v 0.276625 -2.769484 -90.431788
v 5.200124 -4.423266 -83.793880
v 4.632841 -2.834300 -85.816630
v 4.366506 -3.063589 -85.524746
v 4.013180 -3.242483 -85.297014
v 20.491766 1.442525 -91.261014
v 18.888582 2.507001 -92.616089
v 18.437795 2.461206 -92.557792
v 21.757197 2.215980 -92.245619
v 19.304822 2.623308 -92.764148
v 21.195019 1.785214 -91.697256
v 22.150111 2.713223 -92.878608
v 22.354058 3.252009 -93.564481
v 19.658148 2.802202 -92.991879
v 22.358812 3.805321 -94.268846
v 20.085675 3.295550 -93.619910
v 19.924483 3.031492 -93.283764
v 22.164133 4.345413 -94.956383
v 20.056608 3.854852 -94.331900
v 20.130741 3.576383 -93.977410
v 21.779785 4.845204 -95.592615
v 19.578735 4.330244 -94.937073
v 19.868330 4.111981 -94.659224
v 21.225040 5.279632 -96.145640
v 18.780103 4.594345 -95.273273
v 19.207562 4.494770 -95.146514
v 20.527715 5.626912 -96.587728
v 17.874703 4.576389 -95.250415
v 18.325490 4.622184 -95.308712
v 19.722777 5.869631 -96.896708
v 17.954885 5.998553 -97.060826
v 16.271519 5.640865 -96.605491
v 17.458464 4.460082 -95.102357
v 17.080582 5.878293 -96.907735
v 16.838802 4.051899 -94.582741
v 17.105137 4.281188 -94.874625
v 0.979877 -0.224926 -89.138357
v 3.033848 -1.243607 -87.841578
v 0.276624 -0.567615 -88.702115
v -0.285554 -0.998381 -88.153751
v -0.882415 -2.034410 -86.834889
v 1.813495 -1.584603 -87.407491
v 2.166821 -1.405709 -87.635223
v -0.678468 -1.495624 -87.520762
v -0.887169 -2.587722 -86.130524
v 1.385968 -2.077951 -86.779461
v 1.547160 -1.813893 -87.115607
v -0.692490 -3.127814 -85.442988
v 1.415035 -2.637253 -86.067470
v 1.340902 -2.358784 -86.421961
v -0.308142 -3.627605 -84.806755
v 1.892908 -3.112645 -85.462298
v 1.603313 -2.894382 -85.740147
v 0.246604 -4.062033 -84.253730
v 2.691540 -3.376746 -85.126098
v 2.264081 -3.277171 -85.252856
v 0.943928 -4.409313 -83.811643
v 3.596940 -3.358790 -85.148955
v 3.146153 -3.404585 -85.090658
v 1.748866 -4.652032 -83.502663
v 3.516758 -4.780954 -83.338544
v 4.391061 -4.660694 -83.491636
v 2.166821 -1.405709 -87.635223
v 17.458464 4.460082 -95.102357
v -0.678468 -3.697493 -89.250435
v 4.794033 -4.772111 -87.882449
v 17.983183 0.287176 -94.322905
v 4.839099 -4.491278 -88.239949
v 17.555724 0.386751 -94.449664
v 17.184549 0.551277 -94.659104
v 4.764967 -4.212808 -88.594439
v 16.894956 0.769541 -94.936954
v 4.576688 -3.955680 -88.921762
v 4.287094 -3.737416 -89.199612
v 16.706677 1.026669 -95.264277
v 3.915920 -3.572891 -89.409053
v 16.632545 1.305138 -95.618768
v 16.677610 1.585971 -95.976268
v 3.488461 -3.473316 -89.535812
v 17.105137 2.079319 -96.604298
v 22.150112 0.511354 -94.608281
v 2.583061 -1.289402 -87.783282
v 3.488461 -1.271446 -87.806139
v 16.677610 3.787840 -94.246595
v 18.850589 5.995617 -97.057088
v 3.915920 -1.371021 -87.679380
v 16.632544 3.507007 -93.889095
v 16.706676 3.228538 -93.534604
v 4.287094 -1.535547 -87.469939
v 16.894955 2.971410 -93.207281
v 4.576688 -1.753811 -87.192089
v 4.764967 -2.010939 -86.864766
v 17.184549 2.753146 -92.929431
v 4.839099 -2.289408 -86.510276
v 17.555723 2.588620 -92.719991
v 17.983182 2.489045 -92.593232
v 4.794033 -2.570241 -86.152776
v 2.621054 -4.778018 -83.342282
v 5.200124 -6.625136 -85.523553
v 20.491767 -0.759344 -92.990687
v 5.200124 -4.423266 -83.793880
v 20.491766 1.442525 -91.261014
v 20.491766 1.442525 -91.261014
v 20.491767 -0.759344 -92.990687
v 21.195019 1.785214 -91.697256
v 21.195019 -0.416655 -93.426929
v 21.757197 2.215980 -92.245619
v 21.757197 0.014111 -93.975292
v 22.150111 2.713223 -92.878608
v 22.150112 0.511354 -94.608281
v 22.354058 3.252009 -93.564481
v 22.354058 1.050139 -95.294154
v 22.358812 3.805321 -94.268846
v 22.358812 1.603452 -95.998519
v 22.164133 4.345413 -94.956383
v 22.164133 2.143544 -96.686056
v 21.779785 4.845204 -95.592615
v 21.779785 2.643335 -97.322288
v 21.225040 5.279632 -96.145640
v 21.225040 3.077763 -97.875313
v 20.527715 5.626912 -96.587728
v 20.527715 3.425043 -98.317401
v 19.722777 5.869631 -96.896708
v 19.722777 3.667762 -98.626381
v 18.850589 5.995617 -97.057088
v 18.850589 3.793748 -98.786762
v 17.954885 5.998553 -97.060826
v 17.954886 3.796684 -98.790499
v 17.080582 5.878293 -96.907735
v 17.080582 3.676423 -98.637408
v 16.271519 5.640865 -96.605491
v 16.271519 3.438996 -98.335164
v 16.271519 3.438996 -98.335164
v 0.979877 -2.426796 -90.868030
v 16.271519 5.640865 -96.605491
v 0.979877 -0.224926 -89.138357
v 5.200124 -6.625136 -85.523553
v 5.200124 -4.423266 -83.793880
v 4.391061 -6.862563 -85.221309
v 4.391061 -4.660694 -83.491636
v 3.516758 -6.982824 -85.068217
v 3.516758 -4.780954 -83.338544
v 2.621055 -6.979888 -85.071955
v 2.621054 -4.778018 -83.342282
v 1.748867 -6.853901 -85.232336
v 1.748866 -4.652032 -83.502663
v 0.943928 -6.611182 -85.541316
v 0.943928 -4.409313 -83.811643
v 0.246604 -6.263902 -85.983403
v 0.246604 -4.062033 -84.253730
v -0.308142 -5.829475 -86.536428
v -0.308142 -3.627605 -84.806755
v -0.692489 -5.329684 -87.172661
v -0.692490 -3.127814 -85.442988
v -0.887168 -4.789591 -87.860197
v -0.887169 -2.587722 -86.130524
v -0.882414 -4.236279 -88.564562
v -0.882415 -2.034410 -86.834889
v -0.678468 -3.697493 -89.250435
v -0.678468 -1.495624 -87.520762
v -0.285553 -3.200250 -89.883424
v -0.285554 -0.998381 -88.153751
v 0.276625 -2.769484 -90.431788
v 0.276624 -0.567615 -88.702115
v 0.979877 -2.426796 -90.868030
v 0.979877 -0.224926 -89.138357
f 1 2 3
f 1 4 2
f 2 4 5
f 4 6 5
f 5 6 7
f 6 8 7
f 7 8 9
f 8 10 9
f 9 10 11
f 10 12 11
f 11 12 13
f 12 14 13
f 13 14 15
f 14 16 15
f 15 16 17
f 16 18 17
f 17 18 19
f 18 20 19
f 19 20 21
f 20 22 21
f 21 22 23
f 22 24 23
f 23 24 25
f 24 26 25
f 25 26 27
f 26 28 27
f 27 28 29
f 28 30 29
f 29 30 31
f 30 32 31
f 31 32 33
f 32 34 33
f 33 34 35
f 34 36 35
f 35 36 37
f 36 38 37
f 37 38 39
f 38 40 39
f 39 40 41
f 40 42 41
f 41 42 43
f 42 44 43
f 43 44 45
f 44 46 45
f 45 46 47
f 46 48 47
f 47 48 49
f 48 221 49
f 50 51 52
f 50 53 51
f 51 53 54
f 53 55 54
f 54 55 56
f 55 57 56
f 56 57 58
f 57 59 58
f 58 59 60
f 59 61 60
f 60 61 62
f 61 63 62
f 62 63 64
f 63 65 64
f 64 65 66
f 65 67 66
f 66 67 68
f 67 69 68
f 68 69 70
f 69 71 70
f 70 71 72
f 71 73 72
f 72 73 74
f 73 75 74
f 74 75 76
f 75 77 76
f 76 77 78
f 77 79 78
f 78 79 80
f 79 81 80
f 80 81 82
f 81 83 82
f 82 83 84
f 83 85 84
f 84 85 86
f 85 87 86
f 86 87 88
f 87 89 88
f 88 89 90
f 89 91 90
f 90 91 92
f 91 93 92
f 92 93 94
f 93 95 94
f 94 95 96
f 95 97 96
f 96 97 98
f 97 222 98
f 99 100 101
f 99 101 102
f 99 103 104
f 99 102 158
f 99 158 159
f 99 104 100
f 100 104 237
f 102 155 157
f 102 157 223
f 102 223 158
f 103 105 106
f 103 109 238
f 103 238 104
f 103 106 109
f 104 236 237
f 106 110 109
f 107 108 109
f 107 109 110
f 107 111 108
f 108 111 113
f 111 112 113
f 111 114 112
f 112 114 116
f 114 115 116
f 114 117 115
f 115 117 119
f 117 118 119
f 117 120 118
f 118 120 122
f 120 121 122
f 120 123 121
f 121 123 125
f 123 124 125
f 123 126 124
f 124 126 129
f 126 239 129
f 127 128 129
f 127 130 128
f 127 129 239
f 128 131 132
f 128 132 129
f 128 133 131
f 131 133 135
f 131 135 224
f 131 224 225
f 133 134 135
f 133 136 137
f 133 138 136
f 133 137 134
f 136 139 137
f 137 140 141
f 137 139 140
f 140 142 141
f 141 142 144
f 142 143 144
f 142 145 143
f 143 145 147
f 145 146 147
f 145 148 146
f 146 148 150
f 148 149 150
f 148 151 149
f 149 151 153
f 151 152 153
f 151 154 152
f 152 154 156
f 154 155 156
f 154 157 155
f 160 161 162
f 160 162 163
f 160 164 166
f 160 163 219
f 160 219 220
f 160 166 161
f 161 166 255
f 163 218 256
f 163 256 219
f 163 216 218
f 164 165 166
f 164 167 168
f 164 169 167
f 164 168 165
f 166 254 255
f 167 170 168
f 168 171 172
f 168 170 171
f 171 173 172
f 172 173 175
f 173 174 175
f 173 176 174
f 174 176 178
f 176 177 178
f 176 179 177
f 177 179 181
f 179 180 181
f 179 182 180
f 180 182 184
f 182 183 184
f 182 185 183
f 183 185 187
f 185 186 187
f 185 188 186
f 186 188 191
f 188 243 191
f 189 190 191
f 189 192 190
f 189 191 243
f 190 193 194
f 190 194 191
f 190 195 193
f 193 195 196
f 193 196 241
f 193 241 242
f 195 197 198
f 195 201 240
f 195 240 196
f 195 198 201
f 198 202 201
f 199 200 201
f 199 201 202
f 199 203 200
f 200 203 205
f 203 204 205
f 203 206 204
f 204 206 208
f 206 207 208
f 206 209 207
f 207 209 211
f 209 210 211
f 209 212 210
f 210 212 214
f 212 213 214
f 212 215 213
f 213 215 217
f 215 216 217
f 215 218 216
f 224 226 225
f 225 226 227
f 226 228 227
f 226 229 228
f 228 229 230
f 229 231 230
f 230 231 232
f 230 232 233
f 232 234 233
f 233 234 235
f 234 236 235
f 234 237 236
f 241 244 242
f 242 244 245
f 244 246 245
f 244 247 246
f 246 247 248
f 247 249 248
f 248 249 250
f 248 250 251
f 250 252 251
f 251 252 253
f 252 254 253
f 252 255 254
f 257 258 259
f 258 260 259
f 261 262 263
f 262 264 263
f 263 264 265
f 264 266 265
f 265 266 267
f 266 268 267
f 267 268 269
f 268 270 269
f 269 270 271
f 270 272 271
f 271 272 273
f 272 274 273
f 273 274 275
f 274 276 275
f 275 276 277
f 276 278 277
f 277 278 279
f 278 280 279
f 279 280 281
f 280 282 281
f 281 282 283
f 282 284 283
f 283 284 285
f 284 286 285
f 285 286 287
f 286 288 287
f 287 288 289
f 288 290 289
f 291 292 293
f 292 294 293
f 295 296 297
f 296 298 297
f 297 298 299
f 298 300 299
f 299 300 301
f 300 302 301
f 301 302 303
f 302 304 303
f 303 304 305
f 304 306 305
f 305 306 307
f 306 308 307
f 307 308 309
f 308 310 309
f 309 310 311
f 310 312 311
f 311 312 313
f 312 314 313
f 313 314 315
f 314 316 315
f 315 316 317
f 316 318 317
f 317 318 319
f 318 320 319
f 319 320 321
f 320 322 321
f 321 322 323
f 322 324 323