# ANSI B18.6.5M - M2.5x0.45 x 8(38)
# Autodesk dbId: 148
# Units: mm
o 148_ANSI_B18.6.5M_-_M2.5x0.45_x_8(38)
v 10.944272 -0.761687 -93.311466
v 11.226011 -0.676985 -93.419292
v 11.325664 -2.431084 -94.423933
v 11.105583 -2.498132 -94.338581
v 10.705484 -0.887011 -93.151929
v 10.921093 -2.598083 -94.211344
v 10.524651 -1.045081 -92.950706
v 10.784766 -2.724124 -94.050894
v 10.413135 -1.225966 -92.720440
v 10.705893 -2.867668 -93.868164
v 10.377942 -1.418299 -92.475600
v 10.689849 -3.018930 -93.675607
v 10.421286 -1.609997 -92.231569
v 10.737727 -3.167604 -93.486346
v 10.540441 -1.789014 -92.003681
v 10.846264 -3.303556 -93.313278
v 10.727921 -1.944101 -91.806256
v 11.008065 -3.417523 -93.168198
v 10.971946 -2.065514 -91.651697
v 11.212101 -3.501738 -93.060994
v 11.257183 -2.145624 -91.549718
v 11.444469 -3.550461 -92.998969
v 11.565709 -2.179397 -91.506724
v 11.689333 -3.560372 -92.986353
v 11.878139 -2.164712 -91.525418
v 11.930007 -3.530796 -93.024003
v 12.174842 -2.102491 -91.604626
v 12.150087 -3.463748 -93.109355
v 12.437174 -1.996644 -91.739369
v 12.334577 -3.363797 -93.236592
v 12.648652 -1.853820 -91.921183
v 12.470904 -3.237756 -93.397042
v 12.795989 -1.682996 -92.138642
v 12.549777 -3.094213 -93.579772
v 12.869926 -1.494903 -92.378083
v 12.565821 -2.942950 -93.772329
v 12.865818 -1.301362 -92.624462
v 12.517943 -2.794277 -93.961590
v 12.783923 -1.114531 -92.862296
v 12.409406 -2.658324 -94.134658
v 12.629387 -0.946152 -93.076643
v 12.247606 -2.544357 -94.279737
v 12.411920 -0.806803 -93.254034
v 12.043569 -2.460142 -94.386942
v 12.145185 -0.705240 -93.383323
v 11.811201 -2.411419 -94.448967
v 11.845944 -0.647846 -93.456385
v 11.566337 -2.401508 -94.461584
v 11.532998 -0.638226 -93.468631
v 11.226012 1.682162 -91.566070
v 11.226011 -0.676985 -93.419292
v 10.944272 -0.761687 -93.311466
v 10.944273 1.597459 -91.458244
v 11.532999 1.720920 -91.615410
v 11.532998 -0.638226 -93.468631
v 11.845944 1.711300 -91.603163
v 11.845944 -0.647846 -93.456385
v 12.145186 1.653906 -91.530101
v 12.145185 -0.705240 -93.383323
v 12.411920 1.552344 -91.400812
v 12.411920 -0.806803 -93.254034
v 12.629387 1.412995 -91.223421
v 12.629387 -0.946152 -93.076643
v 12.783924 1.244615 -91.009075
v 12.783923 -1.114531 -92.862296
v 12.865818 1.057785 -90.771240
v 12.865818 -1.301362 -92.624462
v 12.869926 0.864243 -90.524862
v 12.869926 -1.494903 -92.378083
v 12.795989 0.676150 -90.285420
v 12.795989 -1.682996 -92.138642
v 12.648652 0.505326 -90.067961
v 12.648652 -1.853820 -91.921183
v 12.437174 0.362503 -89.886148
v 12.437174 -1.996644 -91.739369
v 12.174842 0.256655 -89.751404
v 12.174842 -2.102491 -91.604626
v 11.565710 0.179749 -89.653502
v 11.565709 -2.179397 -91.506724
v 11.878139 -2.164712 -91.525418
v 11.878140 0.194434 -89.672197
v 11.257183 0.213522 -89.696496
v 11.257183 -2.145624 -91.549718
v 10.971946 0.293632 -89.798476
v 10.971946 -2.065514 -91.651697
v 10.727921 0.415045 -89.953034
v 10.727921 -1.944101 -91.806256
v 10.540441 0.570133 -90.150460
v 10.540441 -1.789014 -92.003681
v 10.421286 0.749149 -90.378347
v 10.421286 -1.609997 -92.231569
v 10.377943 0.940847 -90.622378
v 10.377942 -1.418299 -92.475600
v 10.413135 1.133181 -90.867218
v 10.413135 -1.225966 -92.720440
v 10.524651 1.314066 -91.097484
v 10.524651 -1.045081 -92.950706
v 10.705485 1.472136 -91.298707
v 10.705484 -0.887011 -93.151929
v 10.888218 3.119841 -90.382289
v 10.900193 3.111287 -90.361153
v 11.085991 3.185405 -90.465752
v 10.912540 3.099386 -90.342794
v 11.112303 3.152930 -90.413078
v 11.098973 3.172612 -90.437204
v 10.925402 3.083628 -90.327415
v 11.125192 3.127507 -90.394783
v 10.938130 3.065148 -90.315410
v 11.136875 3.097830 -90.383385
v 10.950154 3.044414 -90.307721
v 10.961539 3.021682 -90.303896
v 11.146656 3.065631 -90.379548
v 10.971223 2.998730 -90.304673
v 10.979698 2.974786 -90.309650
v 11.153952 3.032793 -90.383492
v 11.336717 3.105488 -90.430286
v 11.341391 3.072100 -90.433530
v 11.536798 3.091615 -90.458373
v 11.536899 3.117357 -90.455685
v 11.536322 3.142219 -90.457339
v 11.330531 3.138441 -90.435083
v 11.534973 3.167056 -90.463843
v 11.533034 3.189905 -90.474225
v 11.323181 3.169027 -90.447638
v 11.530435 3.210509 -90.488934
v 11.315087 3.195455 -90.467213
v 11.527349 3.228317 -90.506923
v 11.306710 3.216177 -90.492662
v 11.523880 3.242079 -90.527652
v 11.520044 3.252340 -90.550960
v 11.298530 3.229977 -90.522492
v 11.122887 2.520581 -90.449081
v 10.979698 2.974786 -90.309650
v 11.055051 2.735656 -90.383143
v 11.240137 2.149515 -90.562296
v 11.153952 3.032793 -90.383492
v 11.329047 2.176269 -90.596353
v 11.422695 2.195908 -90.621353
v 11.341391 3.072100 -90.433530
v 11.519596 2.208120 -90.636901
v 11.527266 2.605383 -90.557033
v 11.531765 2.835627 -90.510406
v 10.486973 1.958192 -88.903513
v 10.508878 1.970567 -88.909020
v 10.380837 2.080364 -89.059038
v 10.530666 1.979753 -88.917504
v 10.442320 2.102123 -89.075404
v 10.411189 2.094340 -89.064567
v 10.552494 1.985424 -88.929404
v 10.472412 2.103252 -89.090908
v 10.573351 1.987691 -88.943810
v 10.499708 2.097653 -89.110163
v 10.592206 1.986033 -88.960403
v 10.609256 1.980866 -88.978940
v 10.522616 2.085648 -89.132032
v 10.622823 1.972277 -88.998001
v 10.633700 1.960288 -89.018196
v 10.539800 2.067932 -89.155227
v 10.458094 2.203056 -89.281492
v 10.476169 2.183720 -89.302625
v 10.444578 2.304431 -89.456289
v 10.430789 2.321718 -89.442839
v 10.414131 2.335932 -89.430939
v 10.433966 2.217283 -89.262450
v 10.393673 2.347299 -89.420294
v 10.371394 2.355188 -89.411631
v 10.405199 2.225558 -89.246603
v 10.347099 2.359178 -89.405191
v 10.373479 2.227391 -89.234870
v 10.321952 2.359546 -89.400979
v 10.340667 2.222668 -89.227928
v 10.297150 2.355843 -89.399475
v 10.272482 2.348496 -89.400369
v 10.308684 2.211658 -89.226175
v 10.804636 1.700130 -89.404648
v 10.633700 1.960288 -89.018196
v 10.723627 1.823257 -89.221662
v 10.944827 1.488096 -89.720311
v 10.539800 2.067932 -89.155227
v 10.901519 1.543020 -89.790229
v 10.869727 1.600870 -89.863872
v 10.476169 2.183720 -89.302625
v 10.849957 1.660730 -89.940073
v 10.667358 1.949931 -89.722645
v 10.561793 2.117743 -89.596542
v 12.367453 1.710326 -88.587981
v 12.355478 1.728835 -88.601296
v 12.169680 1.644762 -88.504517
v 12.343131 1.743854 -88.617205
v 12.143368 1.688248 -88.548542
v 12.156699 1.669468 -88.523706
v 12.330270 1.755064 -88.636157
v 12.130479 1.700003 -88.577573
v 12.317541 1.762352 -88.656954
v 12.118796 1.704049 -88.609106
v 12.305517 1.764913 -88.678919
v 12.294132 1.763246 -88.701911
v 12.109015 1.700153 -88.641298
v 12.284448 1.757056 -88.724026
v 12.275974 1.746551 -88.746110
v 12.101719 1.688545 -88.672268
v 11.918954 1.660295 -88.590559
v 11.914281 1.649237 -88.622230
v 11.718873 1.629722 -88.597387
v 11.718772 1.638429 -88.573014
v 11.719349 1.642709 -88.548467
v 11.925140 1.663438 -88.557408
v 11.720698 1.642271 -88.522796
v 11.722637 1.637596 -88.498139
v 11.932490 1.658483 -88.524718
v 11.725237 1.628184 -88.474638
v 11.940584 1.645722 -88.494407
v 11.728322 1.614923 -88.453076
v 11.948961 1.625904 -88.468249
v 11.731792 1.598043 -88.434797
v 11.735627 1.577827 -88.419309
v 11.957141 1.600190 -88.447778
v 12.132784 1.503533 -89.154381
v 12.275974 1.746551 -88.746110
v 12.200621 1.618523 -88.961037
v 12.015534 1.305672 -89.488085
v 12.101719 1.688545 -88.672268
v 11.926624 1.278918 -89.454028
v 11.832976 1.259279 -89.429028
v 11.914281 1.649237 -88.622230
v 11.736075 1.247066 -89.413481
v 11.728405 1.418731 -89.046429
v 11.723906 1.518552 -88.833774
v 12.768698 2.871975 -90.066756
v 12.746794 2.869555 -90.053430
v 12.874835 2.749803 -89.911231
v 12.725005 2.863487 -90.042495
v 12.813351 2.739054 -89.886215
v 12.844482 2.747740 -89.896344
v 12.703177 2.853268 -90.034167
v 12.783260 2.724258 -89.881448
v 12.682321 2.839809 -90.028554
v 12.755963 2.704226 -89.882328
v 12.663466 2.823295 -90.026236
v 12.646415 2.804062 -90.026867
v 12.733055 2.680136 -89.888814
v 12.632848 2.783509 -90.030698
v 12.621971 2.761050 -90.037564
v 12.715872 2.653405 -89.900533
v 12.797577 2.562727 -89.739353
v 12.779503 2.537617 -89.753135
v 12.811094 2.416906 -89.599470
v 12.824882 2.434068 -89.585860
v 12.841541 2.448996 -89.574868
v 12.821705 2.584596 -89.730041
v 12.861999 2.462028 -89.566345
v 12.884277 2.472313 -89.560732
v 12.850472 2.601952 -89.725753
v 12.908572 2.479515 -89.558380
v 12.882192 2.613786 -89.726750
v 12.933719 2.483695 -89.559020
v 12.915004 2.619413 -89.732983
v 12.958521 2.484279 -89.562974
v 12.983189 2.481670 -89.569900
v 12.946987 2.618508 -89.744094
v 12.451036 2.323984 -90.198814
v 12.621971 2.761050 -90.037564
v 12.532044 2.530922 -90.122518
v 12.310844 1.967091 -90.330070
v 12.715872 2.653405 -89.900533
v 12.354152 1.912167 -90.260153
v 12.385944 1.854317 -90.186509
v 12.779503 2.537617 -89.753135
v 12.405714 1.794457 -90.110308
v 12.588313 2.074183 -89.880817
v 12.693878 2.236436 -89.747638
v 10.958499 2.557638 -89.372362
v 10.667358 1.949931 -89.722645
v 10.849957 1.660730 -89.940073
v 10.971410 1.616282 -89.988243
v 10.726184 2.499296 -89.373707
v 11.725652 1.271207 -89.548963
v 11.605222 2.207042 -88.904520
v 11.628456 2.144545 -88.846496
v 11.703242 1.291570 -89.668911
v 11.654320 1.310112 -89.783529
v 11.564051 2.260525 -88.956733
v 11.620302 1.318962 -89.834865
v 11.504492 2.305273 -89.003401
v 11.580317 1.328505 -89.879980
v 11.534487 1.339951 -89.917047
v 11.430284 2.336831 -89.040112
v 11.482740 1.354619 -89.944010
v 11.427226 1.372625 -89.958640
v 11.349479 2.352678 -89.063676
v 11.370592 1.392392 -89.961307
v 11.313428 1.412442 -89.953865
v 11.262830 2.352900 -89.074087
v 11.256353 1.431341 -89.937852
v 11.145978 1.461324 -89.885007
v 11.175590 2.336842 -89.070172
v 11.663439 1.964303 -88.692662
v 11.728405 1.418731 -89.046429
v 11.628456 2.144545 -88.846496
v 12.284261 1.737133 -90.142085
v 12.212936 2.554513 -89.346850
v 12.297172 2.558404 -89.373338
v 12.177356 1.677613 -90.160343
v 12.075769 1.603180 -90.156603
v 12.138838 2.536790 -89.308417
v 12.029932 1.562700 -90.145142
v 12.074497 2.504999 -89.257652
v 11.988560 1.521985 -90.126280
v 11.952341 1.482746 -90.098824
v 12.026133 2.460840 -89.197975
v 11.922076 1.446751 -90.061295
v 11.899448 1.416486 -90.014476
v 11.997813 2.409276 -89.135725
v 11.885140 1.392429 -89.961355
v 11.878606 1.373131 -89.903822
v 11.989490 2.350830 -89.071451
v 11.879524 1.357339 -89.843649
v 11.902559 1.333369 -89.722121
v 12.002487 2.288909 -89.009153
v 11.220839 2.886277 -89.790718
v 11.253184 2.847651 -89.720429
v 11.305808 2.035189 -90.521510
v 11.078315 1.584450 -90.041746
v 11.042735 2.582452 -89.382415
v 10.971410 1.616282 -89.988243
v 11.179902 1.570458 -90.114949
v 11.116833 2.615595 -89.408735
v 11.225739 1.572008 -90.156991
v 11.181175 2.657388 -89.451642
v 11.267111 1.580693 -90.201014
v 11.303330 1.598076 -90.245639
v 11.229538 2.704911 -89.508677
v 11.333595 1.626015 -90.289496
v 11.356223 1.664335 -90.329987
v 11.257858 2.753180 -89.573514
v 11.370531 1.710249 -90.365939
v 11.377065 1.761576 -90.398311
v 11.266182 2.801787 -89.645518
v 11.376147 1.816299 -90.427903
v 11.353112 1.928694 -90.479969
v 11.627215 2.971498 -89.899204
v 11.527266 2.605383 -90.557033
v 11.519596 2.208120 -90.636901
v 11.530019 2.082208 -90.581365
v 11.592233 3.078276 -90.110747
v 12.529487 2.543283 -89.429702
v 12.588313 2.074183 -89.880817
v 12.297172 2.558404 -89.373338
v 11.552429 1.970493 -90.533178
v 11.650449 2.929923 -89.824745
v 11.530019 2.082208 -90.581365
v 11.601351 1.863526 -90.488023
v 11.691620 2.891859 -89.760419
v 11.635369 1.815745 -90.467268
v 11.751179 2.857114 -89.705893
v 11.675354 1.774173 -90.447314
v 11.721184 1.740871 -90.427417
v 11.825387 2.828920 -89.666540
v 11.772931 1.718147 -90.406781
v 11.828445 1.708197 -90.385823
v 11.906192 2.809779 -89.645564
v 11.885080 1.710286 -90.365987
v 11.942244 1.722265 -90.348268
v 11.992841 2.799717 -89.642883
v 11.999318 1.742297 -90.333699
v 12.109693 1.800739 -90.317082
v 12.080081 2.799717 -89.659411
v 10.425318 2.304929 -92.358851
v 10.824188 2.413353 -92.496874
v 11.226012 1.682162 -91.566070
v 11.627836 1.399208 -90.283153
v 12.109693 1.800739 -90.317082
v 11.999318 1.742297 -90.333699
v 9.811109 2.936734 -91.040937
v 9.821039 2.767596 -90.476901
v 10.316065 3.027800 -90.573036
v 10.161251 3.108143 -91.089840
v 9.564310 2.721001 -90.766310
v 9.383833 2.481513 -90.461441
v 9.510558 2.303057 -89.960672
v 9.275481 2.225966 -90.136131
v 9.242735 1.962575 -89.800835
v 9.664805 2.102581 -89.540362
v 9.405810 1.446100 -89.143364
v 9.822114 1.843238 -89.154825
v 9.286649 1.699804 -89.466329
v 9.596388 1.209617 -88.842322
v 9.979423 1.530076 -88.811565
v 10.920541 0.574662 -88.034026
v 11.338427 1.167428 -88.204787
v 10.801828 0.982873 -88.204953
v 11.338665 0.519261 -87.963500
v 11.766083 0.510870 -87.952818
v 11.493241 0.684346 -88.004353
v 12.189058 0.549759 -88.002324
v 12.038843 0.824555 -88.072604
v 13.575804 1.131494 -88.742872
v 13.434632 1.534995 -88.907804
v 12.939606 1.503209 -88.632236
v 13.094420 1.020128 -88.431802
v 13.790305 1.360025 -89.033791
v 13.935303 1.608543 -89.350153
v 13.745114 1.926543 -89.481371
v 14.006137 1.869060 -89.681792
v 13.590866 2.287428 -89.775672
v 14.000531 2.133205 -90.018047
v 13.918664 2.392486 -90.348111
v 13.763168 2.638570 -90.661376
v 13.276249 2.859932 -90.504469
v 13.433557 2.600590 -90.118932
v 13.918664 2.392486 -90.348111
v 13.539041 2.863548 -90.947772
v 12.128082 3.422624 -91.659474
v 11.762430 3.443924 -91.517289
v 11.917245 3.363581 -91.000485
v 12.453843 3.319718 -91.179752
v 11.703602 3.454649 -91.700241
v 11.276687 3.439338 -91.680751
v 10.861058 3.377184 -91.601629
v 11.216828 3.410815 -91.364907
v 10.311434 2.130227 -89.140618
v 10.486973 1.958192 -88.903513
v 10.380837 2.080364 -89.059038
v 10.479232 1.796184 -88.774470
v 13.122001 3.060408 -90.924779
v 13.253486 3.060189 -91.198095
v 12.915681 3.222172 -91.404300
v 12.611907 3.172829 -90.703050
v 11.180667 2.832392 -89.709991
v 11.181175 2.657388 -89.451642
v 11.229538 2.704911 -89.508677
v 11.257858 2.753180 -89.573514
v 11.266182 2.801787 -89.645518
v 11.253184 2.847651 -89.720429
v 11.220839 2.886277 -89.790718
v 11.107160 2.976552 -89.981253
v 10.996153 3.054500 -90.178680
v 10.652335 2.651776 -89.608788
v 12.082008 3.210466 -90.503577
v 11.592233 3.078276 -90.110747
v 12.253514 2.987558 -90.036237
v 12.776439 2.958985 -90.254713
v 12.536484 3.344292 -91.559758
v 11.374822 3.328821 -90.837488
v 10.679497 3.298131 -91.221461
v 11.298530 3.229977 -90.522492
v 11.520044 3.252340 -90.550960
v 10.837491 3.216138 -90.694043
v 10.888218 3.119841 -90.382289
v 11.085991 3.185405 -90.465752
v 10.143635 2.406863 -89.551863
v 9.979103 2.620707 -90.000199
v 10.480829 2.874684 -90.076128
v 11.717998 2.945075 -89.853436
v 11.627215 2.971498 -89.899204
v 11.650449 2.929923 -89.824745
v 11.691620 2.891859 -89.760419
v 11.751179 2.857114 -89.705893
v 11.825387 2.828920 -89.666540
v 11.906192 2.809779 -89.645564
v 12.159217 2.809440 -89.692905
v 12.364816 2.842932 -89.811155
v 12.568221 2.863802 -89.935922
v 12.768698 2.871975 -90.066756
v 12.874835 2.749803 -89.911231
v 12.944238 2.682349 -89.843469
v 12.075004 2.295438 -89.026450
v 11.997813 2.409276 -89.135725
v 11.989490 2.350830 -89.071451
v 12.002487 2.288909 -89.009153
v 12.034832 2.229766 -88.954981
v 12.148511 2.066027 -88.822157
v 12.259518 1.892672 -88.699676
v 12.603336 2.350994 -89.225893
v 12.758434 2.517674 -89.495302
v 12.529487 2.543283 -89.429702
v 12.297172 2.558404 -89.373338
v 12.774842 1.949728 -88.898662
v 13.112036 2.348306 -89.477321
v 12.983189 2.481670 -89.569900
v 12.944238 2.682349 -89.843469
v 13.276568 1.963357 -89.163396
v 12.367453 1.710326 -88.587981
v 11.173663 1.613947 -88.471213
v 11.699205 1.775170 -88.550095
v 11.663439 1.964303 -88.692662
v 11.002157 2.015213 -88.798444
v 10.643764 1.411235 -88.460545
v 10.133670 1.169191 -88.517264
v 9.852260 0.997956 -88.572877
v 10.165199 0.817919 -88.343691
v 10.525149 0.675293 -88.162128
v 11.735627 1.577827 -88.419309
v 11.880850 1.317558 -88.277155
v 11.957141 1.600190 -88.447778
v 12.418181 1.430241 -88.420600
v 12.169680 1.644762 -88.504517
v 11.537673 2.182755 -88.883004
v 11.628456 2.144545 -88.846496
v 11.605222 2.207042 -88.904520
v 11.564051 2.260525 -88.956733
v 11.504492 2.305273 -89.003401
v 11.430284 2.336831 -89.040112
v 11.349479 2.352678 -89.063676
v 11.096454 2.306603 -89.052795
v 10.890855 2.199647 -88.992255
v 10.687451 2.083370 -88.942434
v 10.497237 2.429498 -89.383054
v 10.726184 2.499296 -89.373707
v 10.958499 2.557638 -89.372362
v 10.308684 2.211658 -89.226175
v 10.272482 2.348496 -89.400369
v 10.311434 2.130227 -89.140618
v 10.470073 3.270184 -91.465418
v 10.116300 3.121778 -91.276497
v 12.593995 0.634677 -88.110426
v 12.576174 0.937238 -88.216050
v 12.967879 0.762897 -88.273649
v 13.298693 0.930296 -88.486747
v 11.325664 -2.431084 -94.423933
v 11.226011 -0.676985 -93.419292
v 11.878140 0.194434 -89.672197
v 11.878139 -2.164712 -91.525418
v 11.325664 -2.431084 -94.423933
v 11.566337 -2.401508 -94.461584
v 11.105583 -2.498132 -94.338581
v 10.921093 -2.598083 -94.211344
v 11.811201 -2.411419 -94.448967
v 10.784766 -2.724124 -94.050894
v 12.043569 -2.460142 -94.386942
v 10.705893 -2.867668 -93.868164
v 12.247606 -2.544357 -94.279737
v 10.689849 -3.018930 -93.675607
v 12.409406 -2.658324 -94.134658
v 10.737727 -3.167604 -93.486346
v 12.517943 -2.794277 -93.961590
v 10.846264 -3.303556 -93.313278
v 12.565821 -2.942950 -93.772329
v 11.008065 -3.417523 -93.168198
v 12.549777 -3.094213 -93.579772
v 11.212101 -3.501738 -93.060994
v 12.470904 -3.237756 -93.397042
v 11.444469 -3.550461 -92.998969
v 12.334577 -3.363797 -93.236592
v 11.689333 -3.560372 -92.986353
v 12.150087 -3.463748 -93.109355
v 11.930007 -3.530796 -93.024003
v 11.536798 3.091615 -90.458373
v 10.444578 2.304431 -89.456289
v 11.718873 1.629722 -88.597387
v 12.811094 2.416906 -89.599470
v 10.561793 2.117743 -89.596542
v 10.497237 2.429498 -89.383054
v 10.444578 2.304431 -89.456289
v 10.430789 2.321718 -89.442839
v 10.414131 2.335932 -89.430939
v 10.393673 2.347299 -89.420294
v 10.371394 2.355188 -89.411631
v 10.347099 2.359178 -89.405191
v 10.321952 2.359546 -89.400979
v 10.297150 2.355843 -89.399475
v 10.272482 2.348496 -89.400369
v 10.486973 1.958192 -88.903513
v 10.687451 2.083370 -88.942434
v 10.508878 1.970567 -88.909020
v 10.530666 1.979753 -88.917504
v 10.552494 1.985424 -88.929404
v 10.573351 1.987691 -88.943810
v 10.592206 1.986033 -88.960403
v 10.609256 1.980866 -88.978940
v 10.622823 1.972277 -88.998001
v 10.633700 1.960288 -89.018196
v 10.723627 1.823257 -89.221662
v 10.890855 2.199647 -88.992255
v 10.804636 1.700130 -89.404648
v 11.096454 2.306603 -89.052795
v 10.944827 1.488096 -89.720311
v 11.047525 1.477778 -89.811927
v 11.096454 2.306603 -89.052795
v 11.047525 1.477778 -89.811927
v 11.723906 1.518552 -88.833774
v 11.736075 1.247066 -89.413481
v 11.725652 1.271207 -89.548963
v 11.699205 1.775170 -88.550095
v 11.718873 1.629722 -88.597387
v 11.718772 1.638429 -88.573014
v 11.719349 1.642709 -88.548467
v 11.720698 1.642271 -88.522796
v 11.722637 1.637596 -88.498139
v 11.725237 1.628184 -88.474638
v 11.728322 1.614923 -88.453076
v 11.731792 1.598043 -88.434797
v 11.735627 1.577827 -88.419309
v 12.367453 1.710326 -88.587981
v 12.259518 1.892672 -88.699676
v 12.355478 1.728835 -88.601296
v 12.343131 1.743854 -88.617205
v 12.330270 1.755064 -88.636157
v 12.317541 1.762352 -88.656954
v 12.305517 1.764913 -88.678919
v 12.294132 1.763246 -88.701911
v 12.284448 1.757056 -88.724026
v 12.275974 1.746551 -88.746110
v 12.200621 1.618523 -88.961037
v 12.148511 2.066027 -88.822157
v 12.132784 1.503533 -89.154381
v 12.034832 2.229766 -88.954981
v 12.015534 1.305672 -89.488085
v 11.949863 1.318226 -89.608818
v 12.034832 2.229766 -88.954981
v 11.949863 1.318226 -89.608818
v 10.958499 2.557638 -89.372362
v 11.531765 2.835627 -90.510406
v 11.556466 3.172003 -90.328260
v 11.536798 3.091615 -90.458373
v 11.536899 3.117357 -90.455685
v 11.536322 3.142219 -90.457339
v 11.534973 3.167056 -90.463843
v 11.533034 3.189905 -90.474225
v 11.530435 3.210509 -90.488934
v 11.527349 3.228317 -90.506923
v 11.523880 3.242079 -90.527652
v 11.520044 3.252340 -90.550960
v 12.693878 2.236436 -89.747638
v 12.405714 1.794457 -90.110308
v 12.284261 1.737133 -90.142085
v 12.758434 2.517674 -89.495302
v 12.811094 2.416906 -89.599470
v 12.824882 2.434068 -89.585860
v 12.841541 2.448996 -89.574868
v 12.861999 2.462028 -89.566345
v 12.884277 2.472313 -89.560732
v 12.908572 2.479515 -89.558380
v 12.933719 2.483695 -89.559020
v 12.958521 2.484279 -89.562974
v 12.983189 2.481670 -89.569900
v 12.768698 2.871975 -90.066756
v 12.568221 2.863802 -89.935922
v 12.746794 2.869555 -90.053430
v 12.725005 2.863487 -90.042495
v 12.703177 2.853268 -90.034167
v 12.682321 2.839809 -90.028554
v 12.663466 2.823295 -90.026236
v 12.646415 2.804062 -90.026867
v 12.632848 2.783509 -90.030698
v 12.621971 2.761050 -90.037564
v 12.532044 2.530922 -90.122518
v 12.364816 2.842932 -89.811155
v 12.451036 2.323984 -90.198814
v 12.159217 2.809440 -89.692905
v 12.310844 1.967091 -90.330070
v 12.208147 1.875637 -90.318401
v 12.159217 2.809440 -89.692905
v 12.208147 1.875637 -90.318401
v 11.627215 2.971498 -89.899204
v 10.888218 3.119841 -90.382289
v 10.996153 3.054500 -90.178680
v 10.900193 3.111287 -90.361153
v 10.912540 3.099386 -90.342794
v 10.925402 3.083628 -90.327415
v 10.938130 3.065148 -90.315410
v 10.950154 3.044414 -90.307721
v 10.961539 3.021682 -90.303896
v 10.971223 2.998730 -90.304673
v 10.979698 2.974786 -90.309650
v 11.055051 2.735656 -90.383143
v 11.107160 2.976552 -89.981253
v 11.122887 2.520581 -90.449081
v 11.220839 2.886277 -89.790718
v 11.240137 2.149515 -90.562296
v 11.305808 2.035189 -90.521510
v 11.247476 2.477343 -92.578333
v 11.532999 1.720920 -91.615410
v 11.682321 2.494955 -92.600754
v 11.845944 1.711300 -91.603163
v 12.115511 2.465654 -92.563453
v 12.533883 2.390329 -92.467566
v 12.145186 1.653906 -91.530101
v 12.924725 2.271271 -92.316005
v 12.411920 1.552344 -91.400812
v 13.276161 2.112096 -92.113376
v 12.629387 1.412995 -91.223421
v 13.577514 1.917641 -91.865835
v 13.819628 1.693814 -91.580903
v 12.783924 1.244615 -91.009075
v 13.995144 1.447416 -91.267239
v 12.865818 1.057785 -90.771240
v 14.098732 1.185934 -90.934373
v 14.127242 0.917312 -90.592419
v 12.869926 0.864243 -90.524862
v 14.079809 0.649713 -90.251766
v 12.795989 0.676150 -90.285420
v 13.957874 0.391268 -89.922766
v 13.765142 0.149829 -89.615415
v 12.648652 0.505326 -90.067961
v 13.507469 -0.067267 -89.339051
v 12.437174 0.362503 -89.886148
v 13.192685 -0.253425 -89.102073
v 12.830353 -0.402989 -88.911679
v 12.174842 0.256655 -89.751404
v 12.431483 -0.511412 -88.773656
v 11.878140 0.194434 -89.672197
v 12.008195 -0.575402 -88.692197
v 11.565710 0.179749 -89.653502
v 11.573350 -0.593014 -88.669777
v 11.140160 -0.563713 -88.707077
v 11.257183 0.213522 -89.696496
v 10.721788 -0.488389 -88.802965
v 10.971946 0.293632 -89.798476
v 10.330947 -0.369331 -88.954525
v 9.979510 -0.210155 -89.157155
v 10.727921 0.415045 -89.953034
v 9.678156 -0.015700 -89.404696
v 10.540441 0.570133 -90.150460
v 9.436043 0.208127 -89.689627
v 9.260526 0.454525 -90.003291
v 10.421286 0.749149 -90.378347
v 9.156939 0.716007 -90.336157
v 10.377943 0.940847 -90.622378
v 9.128429 0.984628 -90.678112
v 9.175862 1.252227 -91.018764
v 10.413135 1.133181 -90.867218
v 9.297797 1.510672 -91.347764
v 10.524651 1.314066 -91.097484
v 9.490529 1.752111 -91.655115
v 10.705485 1.472136 -91.298707
v 9.748202 1.969208 -91.931479
v 10.062986 2.155366 -92.168458
v 10.944273 1.597459 -91.458244
v 12.310844 1.967091 -90.330070
v 12.208147 1.875637 -90.318401
v 12.354152 1.912167 -90.260153
v 11.942244 1.722265 -90.348268
v 11.627836 1.399208 -90.283153
v 11.885080 1.710286 -90.365987
v 11.828445 1.708197 -90.385823
v 11.721184 1.740871 -90.427417
v 11.627836 1.399208 -90.283153
v 11.772931 1.718147 -90.406781
v 11.675354 1.774173 -90.447314
v 11.627836 1.399208 -90.283153
v 11.635369 1.815745 -90.467268
v 11.627836 1.399208 -90.283153
v 11.601351 1.863526 -90.488023
v 11.552429 1.970493 -90.533178
v 11.422695 2.195908 -90.621353
v 11.329047 2.176269 -90.596353
v 11.627836 1.399208 -90.283153
v 11.530019 2.082208 -90.581365
v 11.519596 2.208120 -90.636901
v 11.305808 2.035189 -90.521510
v 11.353112 1.928694 -90.479969
v 11.627836 1.399208 -90.283153
v 11.240137 2.149515 -90.562296
v 11.376147 1.816299 -90.427903
v 11.377065 1.761576 -90.398311
v 11.627836 1.399208 -90.283153
v 11.370531 1.710249 -90.365939
v 11.356223 1.664335 -90.329987
v 11.303330 1.598076 -90.245639
v 11.627836 1.399208 -90.283153
v 11.333595 1.626015 -90.289496
v 11.267111 1.580693 -90.201014
v 11.627836 1.399208 -90.283153
v 11.225739 1.572008 -90.156991
v 11.627836 1.399208 -90.283153
v 11.179902 1.570458 -90.114949
v 11.078315 1.584450 -90.041746
v 10.869727 1.600870 -89.863872
v 10.901519 1.543020 -89.790229
v 11.627836 1.399208 -90.283153
v 10.971410 1.616282 -89.988243
v 10.849957 1.660730 -89.940073
v 11.047525 1.477778 -89.811927
v 11.145978 1.461324 -89.885007
v 11.627836 1.399208 -90.283153
v 10.944827 1.488096 -89.720311
v 11.256353 1.431341 -89.937852
v 11.313428 1.412442 -89.953865
v 11.627836 1.399208 -90.283153
v 11.370592 1.392392 -89.961307
v 11.427226 1.372625 -89.958640
v 11.534487 1.339951 -89.917047
v 11.627836 1.399208 -90.283153
v 11.482740 1.354619 -89.944010
v 11.580317 1.328505 -89.879980
v 11.627836 1.399208 -90.283153
v 11.620302 1.318962 -89.834865
v 11.627836 1.399208 -90.283153
v 11.654320 1.310112 -89.783529
v 11.703242 1.291570 -89.668911
v 11.832976 1.259279 -89.429028
v 11.627836 1.399208 -90.283153
v 11.725652 1.271207 -89.548963
v 11.736075 1.247066 -89.413481
v 11.832976 1.259279 -89.429028
v 11.926624 1.278918 -89.454028
v 11.627836 1.399208 -90.283153
v 11.949863 1.318226 -89.608818
v 11.902559 1.333369 -89.722121
v 11.627836 1.399208 -90.283153
v 12.015534 1.305672 -89.488085
v 11.879524 1.357339 -89.843649
v 11.878606 1.373131 -89.903822
v 11.627836 1.399208 -90.283153
v 11.885140 1.392429 -89.961355
v 11.899448 1.416486 -90.014476
v 11.952341 1.482746 -90.098824
v 11.627836 1.399208 -90.283153
v 11.922076 1.446751 -90.061295
v 11.988560 1.521985 -90.126280
v 11.627836 1.399208 -90.283153
v 12.029932 1.562700 -90.145142
v 11.627836 1.399208 -90.283153
v 12.075769 1.603180 -90.156603
v 12.177356 1.677613 -90.160343
v 12.385944 1.854317 -90.186509
v 11.627836 1.399208 -90.283153
v 12.284261 1.737133 -90.142085
v 12.405714 1.794457 -90.110308
v 11.556466 3.172003 -90.328260
v 11.992841 2.799717 -89.642883
v 12.080081 2.799717 -89.659411
v 13.433557 2.600590 -90.118932
v 12.946987 2.618508 -89.744094
v 12.874835 2.749803 -89.911231
v 12.026133 2.460840 -89.197975
v 12.212936 2.554513 -89.346850
v 12.074497 2.504999 -89.257652
v 12.138838 2.536790 -89.308417
v 9.286649 1.699804 -89.466329
v 9.822114 1.843238 -89.154825
v 11.262830 2.352900 -89.074087
v 11.175590 2.336842 -89.070172
v 10.380837 2.080364 -89.059038
v 11.042735 2.582452 -89.382415
v 11.116833 2.615595 -89.408735
v 11.247476 2.477343 -92.578333
v 10.824188 2.413353 -92.496874
v 10.861058 3.377184 -91.601629
v 10.425318 2.304929 -92.358851
v 10.470073 3.270184 -91.465418
v 10.062986 2.155366 -92.168458
v 10.116300 3.121778 -91.276497
v 9.748202 1.969208 -91.931479
v 9.811109 2.936734 -91.040937
v 9.490529 1.752111 -91.655115
v 9.564310 2.721001 -90.766310
v 9.297797 1.510672 -91.347764
v 9.383833 2.481513 -90.461441
v 9.175862 1.252227 -91.018764
v 9.275481 2.225966 -90.136131
v 9.128429 0.984628 -90.678112
v 9.242735 1.962575 -89.800835
v 9.156939 0.716007 -90.336157
v 9.286649 1.699804 -89.466329
v 9.260526 0.454525 -90.003291
v 9.405810 1.446100 -89.143364
v 9.436043 0.208127 -89.689627
v 9.596388 1.209617 -88.842322
v 9.678156 -0.015700 -89.404696
v 9.852260 0.997956 -88.572877
v 9.979510 -0.210155 -89.157155
v 10.165199 0.817919 -88.343691
v 10.330947 -0.369331 -88.954525
v 10.525149 0.675293 -88.162128
v 10.721788 -0.488389 -88.802965
v 10.920541 0.574662 -88.034026
v 11.140160 -0.563713 -88.707077
v 11.338665 0.519261 -87.963500
v 11.573350 -0.593014 -88.669777
v 11.766083 0.510870 -87.952818
v 12.008195 -0.575402 -88.692197
v 12.189058 0.549759 -88.002324
v 12.431483 -0.511412 -88.773656
v 12.593995 0.634677 -88.110426
v 12.593995 0.634677 -88.110426
v 12.431483 -0.511412 -88.773656
v 12.830353 -0.402989 -88.911679
v 12.967879 0.762897 -88.273649
v 13.192685 -0.253425 -89.102073
v 13.298693 0.930296 -88.486747
v 13.507469 -0.067267 -89.339051
v 13.575804 1.131494 -88.742872
v 13.765142 0.149829 -89.615415
v 13.790305 1.360025 -89.033791
v 13.957874 0.391268 -89.922766
v 13.935303 1.608543 -89.350153
v 14.079809 0.649713 -90.251766
v 14.006137 1.869060 -89.681792
v 14.127242 0.917312 -90.592419
v 14.000531 2.133205 -90.018047
v 14.098732 1.185934 -90.934373
v 13.918664 2.392486 -90.348111
v 13.995144 1.447416 -91.267239
v 13.763168 2.638570 -90.661376
v 13.819628 1.693814 -91.580903
v 13.539041 2.863548 -90.947772
v 13.577514 1.917641 -91.865835
v 13.253486 3.060189 -91.198095
v 13.276161 2.112096 -92.113376
v 12.915681 3.222172 -91.404300
v 12.924725 2.271271 -92.316005
v 12.536484 3.344292 -91.559758
v 12.533883 2.390329 -92.467566
v 12.128082 3.422624 -91.659474
v 12.115511 2.465654 -92.563453
v 11.703602 3.454649 -91.700241
v 11.682321 2.494955 -92.600754
v 11.276687 3.439338 -91.680751
f 1 2 3
f 1 4 5
f 1 3 4
f 4 6 5
f 5 6 7
f 6 8 7
f 7 8 9
f 8 10 9
f 9 10 11
f 10 12 11
f 11 12 13
f 12 14 13
f 13 14 15
f 14 16 15
f 15 16 17
f 16 18 17
f 17 18 19
f 18 20 19
f 19 20 21
f 20 22 21
f 21 22 23
f 22 24 23
f 23 24 25
f 24 26 25
f 25 26 27
f 26 28 27
f 27 28 29
f 28 30 29
f 29 30 31
f 30 32 31
f 31 32 33
f 32 34 33
f 33 34 35
f 34 36 35
f 35 36 37
f 36 38 37
f 37 38 39
f 38 40 39
f 39 40 41
f 40 42 41
f 41 42 43
f 42 44 43
f 43 44 45
f 44 46 45
f 45 46 47
f 46 48 47
f 47 48 49
f 48 520 49
f 49 520 521
f 50 51 52
f 50 52 53
f 50 54 51
f 51 54 55
f 52 99 53
f 53 99 98
f 54 56 55
f 55 56 57
f 56 58 57
f 57 58 59
f 58 60 59
f 59 60 61
f 60 62 61
f 61 62 63
f 62 64 63
f 63 64 65
f 64 66 65
f 65 66 67
f 66 68 67
f 67 68 69
f 68 70 69
f 69 70 71
f 70 72 71
f 71 72 73
f 72 74 73
f 73 74 75
f 74 76 75
f 75 76 77
f 76 522 77
f 77 522 523
f 78 79 80
f 78 80 81
f 78 82 79
f 79 82 83
f 82 84 83
f 83 84 85
f 84 86 85
f 85 86 87
f 86 88 87
f 87 88 89
f 88 90 89
f 89 90 91
f 90 92 91
f 91 92 93
f 92 94 93
f 93 94 95
f 94 96 95
f 95 96 97
f 96 98 97
f 97 98 99
f 100 101 102
f 101 103 105
f 101 105 102
f 102 105 131
f 103 104 105
f 103 106 104
f 104 106 107
f 104 107 126
f 104 126 128
f 104 128 105
f 105 128 131
f 106 108 107
f 107 108 109
f 107 109 124
f 107 124 126
f 108 110 109
f 109 111 112
f 109 110 111
f 109 112 121
f 109 121 124
f 111 113 112
f 112 115 116
f 112 113 115
f 112 116 121
f 113 114 115
f 115 117 116
f 116 117 118
f 116 118 119
f 116 120 121
f 116 119 120
f 120 122 121
f 121 123 124
f 121 122 123
f 123 125 124
f 124 125 126
f 125 127 126
f 126 127 128
f 127 129 128
f 128 129 131
f 129 130 131
f 132 133 134
f 132 135 133
f 133 135 136
f 135 137 136
f 136 138 139
f 136 137 138
f 138 140 139
f 139 140 141
f 139 141 142
f 139 142 548
f 143 144 145
f 144 146 148
f 144 148 145
f 145 148 174
f 146 147 148
f 146 149 147
f 147 149 150
f 147 150 169
f 147 169 171
f 147 171 148
f 148 171 174
f 149 151 150
f 150 151 152
f 150 152 167
f 150 167 169
f 151 153 152
f 152 154 155
f 152 153 154
f 152 155 164
f 152 164 167
f 154 156 155
f 155 158 159
f 155 156 158
f 155 159 164
f 156 157 158
f 158 160 159
f 159 160 161
f 159 161 162
f 159 163 164
f 159 162 163
f 163 165 164
f 164 166 167
f 164 165 166
f 166 168 167
f 167 168 169
f 168 170 169
f 169 170 171
f 170 172 171
f 171 172 174
f 172 173 174
f 175 176 177
f 175 178 176
f 176 178 179
f 178 180 179
f 179 181 182
f 179 180 181
f 181 183 182
f 182 183 184
f 182 184 185
f 182 185 549
f 186 187 188
f 187 189 191
f 187 191 188
f 188 191 217
f 189 190 191
f 189 192 190
f 190 192 193
f 190 193 212
f 190 212 214
f 190 214 191
f 191 214 217
f 192 194 193
f 193 194 195
f 193 195 210
f 193 210 212
f 194 196 195
f 195 197 198
f 195 196 197
f 195 198 207
f 195 207 210
f 197 199 198
f 198 201 202
f 198 199 201
f 198 202 207
f 199 200 201
f 201 203 202
f 202 203 204
f 202 204 205
f 202 206 207
f 202 205 206
f 206 208 207
f 207 209 210
f 207 208 209
f 209 211 210
f 210 211 212
f 211 213 212
f 212 213 214
f 213 215 214
f 214 215 217
f 215 216 217
f 218 219 220
f 218 221 219
f 219 221 222
f 221 223 222
f 222 224 225
f 222 223 224
f 224 226 225
f 225 226 227
f 225 227 228
f 225 228 550
f 229 230 231
f 230 232 234
f 230 234 231
f 231 234 260
f 232 233 234
f 232 235 233
f 233 235 236
f 233 236 255
f 233 255 257
f 233 257 234
f 234 257 260
f 235 237 236
f 236 237 238
f 236 238 253
f 236 253 255
f 237 239 238
f 238 240 241
f 238 239 240
f 238 241 250
f 238 250 253
f 240 242 241
f 241 244 245
f 241 242 244
f 241 245 250
f 242 243 244
f 244 246 245
f 245 246 247
f 245 247 248
f 245 249 250
f 245 248 249
f 249 251 250
f 250 252 253
f 250 251 252
f 252 254 253
f 253 254 255
f 254 256 255
f 255 256 257
f 256 258 257
f 257 258 260
f 258 259 260
f 261 262 263
f 261 264 262
f 262 264 265
f 264 266 265
f 265 267 268
f 265 266 267
f 267 269 268
f 268 269 270
f 268 270 271
f 268 271 551
f 272 273 274
f 272 274 275
f 272 276 273
f 273 276 552
f 276 553 552
f 277 278 279
f 277 280 278
f 278 281 282
f 278 280 281
f 281 283 282
f 282 283 284
f 283 285 284
f 284 286 287
f 284 285 286
f 286 288 287
f 287 289 290
f 287 288 289
f 289 291 290
f 290 292 293
f 290 291 292
f 292 294 293
f 293 295 296
f 293 294 295
f 295 580 296
f 296 580 579
f 297 298 299
f 297 581 298
f 297 584 581
f 298 582 299
f 299 582 583
f 300 301 302
f 300 303 301
f 301 304 305
f 301 303 304
f 304 306 305
f 305 306 307
f 306 308 307
f 307 309 310
f 307 308 309
f 309 311 310
f 310 312 313
f 310 311 312
f 312 314 313
f 313 315 316
f 313 314 315
f 315 317 316
f 316 318 319
f 316 317 318
f 318 611 319
f 319 611 610
f 320 321 322
f 321 338 340
f 321 340 322
f 323 324 325
f 323 326 324
f 324 326 327
f 324 612 325
f 326 328 327
f 327 328 329
f 328 330 329
f 329 331 332
f 329 330 331
f 331 333 332
f 332 334 335
f 332 333 334
f 334 336 335
f 335 337 338
f 335 336 337
f 337 339 338
f 338 339 340
f 341 342 343
f 341 343 344
f 341 345 342
f 342 345 613
f 345 614 613
f 346 347 348
f 346 624 347
f 346 627 624
f 347 625 348
f 348 625 626
f 349 350 351
f 349 352 350
f 350 352 353
f 350 655 351
f 352 354 353
f 353 354 355
f 354 356 355
f 355 357 358
f 355 356 357
f 357 359 358
f 358 360 361
f 358 359 360
f 360 362 361
f 361 363 364
f 361 362 363
f 363 365 364
f 364 366 367
f 364 365 366
f 366 654 367
f 367 654 653
f 368 369 370
f 368 729 728
f 368 370 729
f 369 672 370
f 370 672 673
f 371 372 373
f 371 732 372
f 372 732 731
f 373 733 734
f 374 375 376
f 374 376 377
f 374 378 375
f 374 377 515
f 375 379 380
f 375 378 379
f 375 452 453
f 375 380 452
f 375 453 376
f 376 449 448
f 376 453 449
f 376 448 377
f 377 448 445
f 377 514 515
f 377 445 514
f 379 381 380
f 380 382 383
f 380 381 382
f 380 451 452
f 380 383 451
f 382 831 383
f 383 513 451
f 383 831 832
f 383 832 513
f 384 385 386
f 384 387 388
f 384 388 385
f 385 424 421
f 385 388 424
f 387 490 388
f 388 488 424
f 388 489 488
f 388 490 489
f 389 390 391
f 389 391 492
f 389 394 390
f 389 392 394
f 390 493 484
f 390 484 488
f 390 488 391
f 390 494 493
f 390 396 494
f 390 394 396
f 391 489 491
f 391 491 492
f 391 488 489
f 392 393 394
f 393 395 396
f 393 396 394
f 395 516 396
f 396 516 517
f 396 517 494
f 397 398 399
f 397 399 400
f 397 401 398
f 397 400 519
f 398 402 403
f 398 401 402
f 398 482 478
f 398 478 399
f 398 403 482
f 399 478 483
f 399 483 496
f 399 496 400
f 400 517 518
f 400 496 517
f 400 518 519
f 402 404 403
f 403 404 405
f 403 479 482
f 403 405 479
f 404 406 405
f 405 406 407
f 405 481 479
f 405 824 481
f 405 407 824
f 408 409 410
f 408 410 411
f 408 412 409
f 409 425 428
f 409 428 442
f 409 412 425
f 409 442 410
f 410 442 466
f 412 426 425
f 413 414 415
f 413 415 416
f 413 417 414
f 413 416 443
f 414 417 418
f 414 418 420
f 414 420 415
f 415 428 416
f 415 439 428
f 415 420 444
f 415 447 439
f 415 444 447
f 416 425 427
f 416 427 443
f 416 428 425
f 418 419 420
f 419 445 420
f 419 514 445
f 420 445 444
f 421 422 423
f 421 424 422
f 422 424 507
f 424 488 484
f 424 487 507
f 424 484 487
f 425 426 427
f 428 439 442
f 429 430 431
f 429 431 432
f 429 433 434
f 429 434 435
f 429 436 437
f 429 437 438
f 429 438 430
f 429 432 433
f 429 435 436
f 430 438 510
f 430 510 836
f 430 836 837
f 437 453 438
f 437 449 453
f 438 508 509
f 438 509 510
f 438 453 452
f 438 452 451
f 438 451 508
f 439 440 441
f 439 441 442
f 439 447 821
f 439 821 440
f 440 455 454
f 440 454 441
f 441 454 460
f 441 460 461
f 441 462 463
f 441 463 442
f 441 461 462
f 442 463 464
f 442 465 466
f 442 464 465
f 444 446 447
f 444 448 446
f 444 445 448
f 446 448 450
f 448 449 450
f 451 511 512
f 451 512 508
f 451 513 511
f 454 455 456
f 454 457 458
f 454 458 459
f 454 456 457
f 454 459 460
f 460 822 461
f 461 822 823
f 467 468 469
f 467 469 470
f 467 471 472
f 467 472 473
f 467 473 474
f 467 477 827
f 467 474 477
f 467 827 468
f 467 470 471
f 473 478 474
f 473 483 478
f 474 475 476
f 474 476 477
f 474 479 475
f 474 482 479
f 474 478 482
f 475 479 480
f 477 828 827
f 479 481 480
f 480 481 825
f 481 826 825
f 483 497 496
f 484 485 486
f 484 486 487
f 484 493 485
f 486 498 487
f 486 499 498
f 487 498 505
f 487 506 507
f 487 505 506
f 489 490 491
f 493 494 495
f 494 496 495
f 494 517 496
f 495 496 497
f 498 499 500
f 498 500 501
f 498 502 503
f 498 503 504
f 498 833 505
f 498 501 502
f 498 504 833
f 505 833 834
f 511 513 835
f 516 518 517
f 524 525 526
f 525 527 526
f 525 528 527
f 527 528 529
f 528 530 529
f 529 530 531
f 530 532 531
f 531 532 533
f 532 534 533
f 533 534 535
f 534 536 535
f 535 536 537
f 536 538 537
f 537 538 539
f 538 540 539
f 539 540 541
f 540 542 541
f 541 542 543
f 542 544 543
f 543 544 545
f 544 546 545
f 545 546 547
f 552 553 554
f 553 555 554
f 553 556 555
f 553 557 556
f 553 558 557
f 553 559 558
f 553 560 559
f 553 561 560
f 553 562 561
f 563 564 565
f 564 566 565
f 564 567 566
f 564 568 567
f 564 569 568
f 564 570 569
f 564 571 570
f 564 572 571
f 564 573 572
f 564 574 573
f 573 574 575
f 574 576 575
f 575 576 577
f 576 578 577
f 581 584 585
f 584 586 585
f 584 587 586
f 584 588 587
f 584 589 588
f 584 590 589
f 584 591 590
f 584 592 591
f 584 593 592
f 594 595 596
f 595 597 596
f 595 598 597
f 595 599 598
f 595 600 599
f 595 601 600
f 595 602 601
f 595 603 602
f 595 604 603
f 595 605 604
f 604 605 606
f 605 607 606
f 606 607 608
f 607 609 608
f 613 614 615
f 614 616 615
f 614 617 616
f 614 618 617
f 614 619 618
f 614 620 619
f 614 621 620
f 614 622 621
f 614 623 622
f 624 627 628
f 627 629 628
f 627 630 629
f 627 631 630
f 627 632 631
f 627 633 632
f 627 634 633
f 627 635 634
f 627 636 635
f 637 638 639
f 638 640 639
f 638 641 640
f 638 642 641
f 638 643 642
f 638 644 643
f 638 645 644
f 638 646 645
f 638 647 646
f 638 648 647
f 647 648 649
f 648 650 649
f 649 650 651
f 650 652 651
f 656 657 658
f 657 659 658
f 657 660 659
f 657 661 660
f 657 662 661
f 657 663 662
f 657 664 663
f 657 665 664
f 657 666 665
f 657 667 666
f 666 667 668
f 667 669 668
f 668 669 670
f 669 671 670
f 672 674 673
f 673 674 675
f 674 676 675
f 675 676 677
f 675 677 678
f 677 679 678
f 678 679 680
f 679 681 680
f 680 681 682
f 681 683 682
f 682 683 684
f 682 684 685
f 684 686 685
f 685 686 687
f 686 688 687
f 687 688 689
f 687 689 690
f 689 691 690
f 690 691 692
f 691 693 692
f 692 693 694
f 692 694 695
f 694 696 695
f 695 696 697
f 696 698 697
f 697 698 699
f 697 699 700
f 699 701 700
f 700 701 702
f 701 703 702
f 702 703 704
f 703 705 704
f 704 705 706
f 704 706 707
f 706 708 707
f 707 708 709
f 708 710 709
f 709 710 711
f 709 711 712
f 711 713 712
f 712 713 714
f 713 715 714
f 714 715 716
f 714 716 717
f 716 718 717
f 717 718 719
f 718 720 719
f 719 720 721
f 719 721 722
f 721 723 722
f 722 723 724
f 723 725 724
f 724 725 726
f 725 727 726
f 726 727 728
f 726 728 729
f 730 731 732
f 732 816 817
f 732 818 816
f 733 735 734
f 734 735 736
f 736 739 741
f 737 738 739
f 737 740 738
f 740 742 743
f 742 744 743
f 743 744 745
f 745 746 747
f 745 747 748
f 745 749 746
f 746 749 750
f 747 751 752
f 747 752 753
f 747 754 751
f 752 755 753
f 755 756 757
f 756 758 757
f 757 758 759
f 759 762 764
f 760 761 762
f 760 763 761
f 763 765 766
f 765 767 766
f 766 767 768
f 768 769 770
f 768 770 771
f 768 772 769
f 769 772 773
f 770 774 775
f 770 775 776
f 770 777 774
f 775 778 776
f 778 779 780
f 779 781 780
f 780 781 782
f 782 785 787
f 783 784 785
f 783 786 784
f 786 788 789
f 788 790 789
f 789 790 791
f 791 792 793
f 791 794 792
f 792 794 795
f 796 797 798
f 797 799 800
f 797 800 801
f 797 802 799
f 800 803 801
f 803 804 805
f 804 806 805
f 805 806 807
f 807 810 812
f 808 809 810
f 808 811 809
f 811 813 814
f 813 815 814
f 814 815 816
f 816 819 817
f 817 819 820
f 827 828 829
f 828 830 829
f 838 839 840
f 838 910 909
f 838 840 910
f 839 841 840
f 840 841 842
f 841 843 842
f 842 843 844
f 843 845 844
f 844 845 846
f 845 847 846
f 846 847 848
f 847 849 848
f 848 849 850
f 849 851 850
f 850 851 852
f 851 853 852
f 852 853 854
f 853 855 854
f 854 855 856
f 855 857 856
f 856 857 858
f 857 859 858
f 858 859 860
f 859 861 860
f 860 861 862
f 861 863 862
f 862 863 864
f 863 865 864
f 864 865 866
f 865 867 866
f 866 867 868
f 867 869 868
f 868 869 870
f 869 871 870
f 870 871 872
f 871 873 872
f 872 873 874
f 873 875 874
f 874 875 876
f 877 878 879
f 877 879 880
f 879 881 880
f 880 881 882
f 881 883 882
f 882 883 884
f 883 885 884
f 884 885 886
f 885 887 886
f 886 887 888
f 887 889 888
f 888 889 890
f 889 891 890
f 890 891 892
f 891 893 892
f 892 893 894
f 893 895 894
f 894 895 896
f 895 897 896
f 896 897 898
f 897 899 898
f 898 899 900
f 899 901 900
f 900 901 902
f 901 903 902
f 902 903 904
f 903 905 904
f 904 905 906
f 905 907 906
f 906 907 908
f 907 909 908
f 908 909 910