# Part25
# Autodesk dbId: 149
# Units: mm
o 149_Part25
v 16.749742 5.617917 -91.498631
v 16.968914 3.168436 -92.913097
v 16.749742 3.416047 -93.228306
v 16.968914 5.370306 -91.183423
v 17.284362 2.964304 -92.653237
v 17.284362 5.166174 -90.923563
v 17.674588 2.817562 -92.466436
v 17.674588 5.019432 -90.736761
v 18.112999 2.738210 -92.365421
v 18.112999 4.940080 -90.635747
v 18.569717 2.731658 -92.357079
v 18.569717 4.933528 -90.627405
v 19.013619 2.798349 -92.441978
v 19.013619 5.000219 -90.712303
v 19.414453 2.933741 -92.614331
v 19.414453 5.135611 -90.884657
v 19.744903 3.128606 -92.862393
v 19.744903 5.330476 -91.132719
v 19.982449 3.369665 -93.169260
v 19.982449 5.571535 -91.439586
v 20.110903 3.640489 -93.514018
v 20.110903 5.842359 -91.784344
v 20.121511 3.922622 -93.873173
v 20.121511 6.124492 -92.143499
v 20.013551 4.196838 -94.222250
v 20.013550 6.398708 -92.492575
v 19.794378 4.444450 -94.537458
v 19.794378 6.646320 -92.807784
v 19.478930 4.648582 -94.797318
v 19.478930 6.850452 -93.067644
v 19.088704 4.795324 -94.984120
v 19.088704 6.997194 -93.254446
v 18.650294 4.874675 -95.085134
v 18.650294 7.076545 -93.355460
v 18.193575 4.881228 -95.093476
v 18.193575 7.083098 -93.363802
v 17.749673 4.814536 -95.008578
v 17.749673 7.016406 -93.278903
v 17.348839 4.679145 -94.836225
v 17.348839 6.881015 -93.106551
v 17.018390 4.484280 -94.588162
v 17.018389 6.686150 -92.858488
v 16.780843 4.243222 -94.281296
v 16.780843 6.445091 -92.551622
v 16.652389 3.972397 -93.936537
v 16.652389 6.174267 -92.206863
v 16.641781 3.690264 -93.577382
v 16.641781 5.892134 -91.847708
v 16.749742 3.416047 -93.228306
v 10.610576 15.410826 -103.964976
v 10.829749 12.961344 -105.379441
v 10.610576 13.208956 -105.694650
v 10.829748 15.163214 -103.649767
v 11.145196 12.757212 -105.119582
v 11.145196 14.959082 -103.389907
v 11.535422 12.610470 -104.932779
v 11.535422 14.812340 -103.203105
v 11.973833 12.531119 -104.831766
v 11.973833 14.732989 -103.102091
v 12.430552 12.524566 -104.823423
v 12.430551 14.726436 -103.093749
v 12.874453 12.591258 -104.908322
v 12.874453 14.793128 -103.178648
v 13.275287 12.726649 -105.080675
v 13.275287 14.928519 -103.351000
v 13.605737 12.921515 -105.328738
v 13.605737 15.123385 -103.599063
v 13.843283 13.162573 -105.635604
v 13.843283 15.364443 -103.905930
v 13.971738 13.433397 -105.980362
v 13.971737 15.635267 -104.250688
v 13.982346 13.715530 -106.339517
v 13.982345 15.917400 -104.609843
v 13.874385 13.989747 -106.688594
v 13.874385 16.191617 -104.958920
v 13.655212 14.237358 -107.003803
v 13.655212 16.439228 -105.274128
v 13.339765 14.441490 -107.263662
v 13.339764 16.643360 -105.533988
v 12.949539 14.588232 -107.450464
v 12.949539 16.790102 -105.720790
v 12.511128 14.667584 -107.551479
v 12.511128 16.869454 -105.821805
v 12.054409 14.674136 -107.559820
v 12.054409 16.876006 -105.830146
v 11.610508 14.607445 -107.474922
v 11.610507 16.809315 -105.745248
v 11.209674 14.472053 -107.302569
v 11.209673 16.673923 -105.572894
v 10.879223 14.277188 -107.054507
v 10.879223 16.479058 -105.324833
v 10.641678 14.036129 -106.747640
v 10.641677 16.237999 -105.017965
v 10.513223 13.765306 -106.402882
v 10.513223 15.967176 -104.673207
v 10.502615 13.483172 -106.043726
v 10.502615 15.685042 -104.314052
v 10.610576 13.208956 -105.694650
v 14.651579 2.914110 -92.589342
v 16.652389 3.972397 -93.936537
v 16.641781 3.690264 -93.577382
v 16.749742 3.416047 -93.228306
v 8.512413 12.707019 -105.055686
v 11.145196 12.757212 -105.119582
v 8.284500 13.242127 -105.736877
v 8.255057 13.795148 -106.440871
v 8.787459 14.844498 -107.776691
v 10.502615 13.483172 -106.043726
v 10.610576 13.208956 -105.694650
v 8.425560 14.338351 -107.132367
v 9.322607 15.288208 -108.341532
v 10.641678 14.036129 -106.747640
v 10.513223 13.765306 -106.402882
v 10.004170 15.647231 -108.798567
v 11.209674 14.472053 -107.302569
v 10.879223 14.277188 -107.054507
v 10.797971 15.903565 -109.124879
v 12.054409 14.674136 -107.559820
v 11.610508 14.607445 -107.474922
v 11.664206 16.044356 -109.304106
v 12.949539 14.588232 -107.450464
v 12.511128 14.667584 -107.551479
v 12.559438 16.062545 -109.327260
v 13.655212 14.237358 -107.003803
v 13.339765 14.441490 -107.263662
v 13.438776 15.957218 -109.193180
v 14.976406 15.403076 -108.487757
v 15.972547 14.491684 -107.327558
v 13.874385 13.989747 -106.688594
v 15.557593 14.982047 -107.951789
v 13.971738 13.433397 -105.980362
v 13.982346 13.715530 -106.339517
v 22.111713 4.698775 -94.861214
v 19.794378 4.444450 -94.537458
v 19.478930 4.648582 -94.797318
v 22.369069 3.610646 -93.476028
v 20.013551 4.196838 -94.222250
v 22.339626 4.163667 -94.180022
v 22.198567 3.067443 -92.784532
v 21.836668 2.561296 -92.140209
v 20.121511 3.922622 -93.873173
v 21.301520 2.117587 -91.575368
v 19.982449 3.369665 -93.169260
v 20.110903 3.640489 -93.514018
v 20.619957 1.758563 -91.118333
v 19.414453 2.933741 -92.614331
v 19.744903 3.128606 -92.862393
v 19.826156 1.502229 -90.792020
v 18.569717 2.731658 -92.357079
v 19.013619 2.798349 -92.441978
v 18.959921 1.361438 -90.612794
v 17.674588 2.817562 -92.466436
v 18.112999 2.738210 -92.365421
v 18.064689 1.343249 -90.589640
v 16.968914 3.168436 -92.913097
v 17.284362 2.964304 -92.653237
v 17.185351 1.448576 -90.723720
v 15.647721 2.002718 -91.429142
v 15.066533 2.423747 -91.965111
v 22.111713 6.900645 -93.131539
v 19.478930 6.850452 -93.067644
v 19.794378 6.646320 -92.807784
v 20.013550 6.398708 -92.492575
v 15.972547 16.693554 -105.597884
v 13.982345 15.917400 -104.609843
v 13.971737 15.635267 -104.250688
v 14.976405 17.604946 -106.758083
v 13.874385 16.191617 -104.958920
v 15.557593 17.183917 -106.222115
v 14.258127 17.935528 -107.178914
v 13.438776 18.159088 -107.463505
v 13.655212 16.439228 -105.274128
v 12.559437 18.264415 -107.597586
v 12.949539 16.790102 -105.720790
v 13.339764 16.643360 -105.533988
v 11.664206 18.246226 -107.574432
v 12.054409 16.876006 -105.830146
v 12.511128 16.869454 -105.821805
v 10.797971 18.105435 -107.395205
v 11.209673 16.673923 -105.572894
v 11.610507 16.809315 -105.745248
v 10.004170 17.849101 -107.068893
v 10.641677 16.237999 -105.017965
v 10.879223 16.479058 -105.324833
v 9.322607 17.490078 -106.611857
v 10.502615 15.685042 -104.314052
v 10.513223 15.967176 -104.673207
v 8.787458 17.046368 -106.047016
v 8.255057 15.997018 -104.711197
v 8.512413 14.908889 -103.326012
v 10.610576 15.410826 -103.964976
v 8.284500 15.443997 -104.007203
v 11.145196 14.959082 -103.389907
v 10.829748 15.163214 -103.649767
v 14.651579 5.115980 -90.859667
v 16.652389 6.174267 -92.206863
v 15.066533 4.625617 -90.235437
v 15.647721 4.204588 -89.699468
v 17.185350 3.650446 -88.994046
v 16.968914 5.370306 -91.183423
v 16.749742 5.617917 -91.498631
v 16.365999 3.874006 -89.278637
v 18.064689 3.545119 -88.859966
v 17.674588 5.019432 -90.736761
v 17.284362 5.166174 -90.923563
v 18.959921 3.563308 -88.883120
v 18.569717 4.933528 -90.627405
v 18.112999 4.940080 -90.635747
v 19.826156 3.704099 -89.062346
v 19.414453 5.135611 -90.884657
v 19.013619 5.000219 -90.712303
v 20.619957 3.960433 -89.388659
v 19.982449 5.571535 -91.439586
v 19.744903 5.330476 -91.132719
v 21.301520 4.319456 -89.845694
v 20.121511 6.124492 -92.143499
v 20.110903 5.842359 -91.784344
v 21.836668 4.763166 -90.410535
v 22.369069 5.812516 -91.746354
v 22.339626 6.365537 -92.450348
v 16.749742 5.617917 -91.498631
v 10.610576 15.410826 -103.964976
v 16.365999 1.672136 -91.008311
v 19.088704 4.795324 -94.984120
v 13.843283 13.162573 -105.635604
v 18.650294 4.874675 -95.085134
v 13.605737 12.921515 -105.328738
v 13.275287 12.726649 -105.080675
v 18.193575 4.881228 -95.093476
v 12.874453 12.591258 -104.908322
v 17.749673 4.814536 -95.008578
v 17.348839 4.679145 -94.836225
v 12.430552 12.524566 -104.823423
v 17.018390 4.484280 -94.588162
v 11.973833 12.531119 -104.831766
v 11.535422 12.610470 -104.932779
v 16.780843 4.243222 -94.281296
v 10.829749 12.961344 -105.379441
v 14.258127 15.733659 -108.908588
v 16.641781 5.892134 -91.847708
v 16.780843 6.445091 -92.551622
v 11.535422 14.812340 -103.203105
v 8.425559 16.540221 -105.402693
v 17.018389 6.686150 -92.858488
v 11.973833 14.732989 -103.102091
v 12.430551 14.726436 -103.093749
v 17.348839 6.881015 -93.106551
v 12.874453 14.793128 -103.178648
v 17.749673 7.016406 -93.278903
v 18.193575 7.083098 -93.363802
v 13.275287 14.928519 -103.351000
v 18.650294 7.076545 -93.355460
v 13.605737 15.123385 -103.599063
v 13.843283 15.364443 -103.905930
v 19.088704 6.997194 -93.254446
v 22.198567 5.269313 -91.054858
v 22.111713 4.698775 -94.861214
v 15.972547 14.491684 -107.327558
v 22.111713 6.900645 -93.131539
v 15.972547 16.693554 -105.597884
v 15.972547 16.693554 -105.597884
v 15.972547 14.491684 -107.327558
v 15.557593 17.183917 -106.222115
v 15.557593 14.982047 -107.951789
v 14.976405 17.604946 -106.758083
v 14.976406 15.403076 -108.487757
v 14.258127 17.935528 -107.178914
v 14.258127 15.733659 -108.908588
v 13.438776 18.159088 -107.463505
v 13.438776 15.957218 -109.193180
v 12.559437 18.264415 -107.597586
v 12.559438 16.062545 -109.327260
v 11.664206 18.246226 -107.574432
v 11.664206 16.044356 -109.304106
v 10.797971 18.105435 -107.395205
v 10.797971 15.903565 -109.124879
v 10.004170 17.849101 -107.068893
v 10.004170 15.647231 -108.798567
v 9.322607 17.490078 -106.611857
v 9.322607 15.288208 -108.341532
v 8.787458 17.046368 -106.047016
v 8.787459 14.844498 -107.776691
v 8.425559 16.540221 -105.402693
v 8.425560 14.338351 -107.132367
v 8.255057 15.997018 -104.711197
v 8.255057 13.795148 -106.440871
v 8.284500 15.443997 -104.007203
v 8.284500 13.242127 -105.736877
v 8.512413 14.908889 -103.326012
v 8.512413 12.707019 -105.055686
v 8.512413 12.707019 -105.055686
v 14.651579 2.914110 -92.589342
v 8.512413 14.908889 -103.326012
v 14.651579 5.115980 -90.859667
v 22.111713 4.698775 -94.861214
v 22.111713 6.900645 -93.131539
v 22.339626 4.163667 -94.180022
v 22.339626 6.365537 -92.450348
v 22.369069 3.610646 -93.476028
v 22.369069 5.812516 -91.746354
v 22.198567 3.067443 -92.784532
v 22.198567 5.269313 -91.054858
v 21.836668 2.561296 -92.140209
v 21.836668 4.763166 -90.410535
v 21.301520 2.117587 -91.575368
v 21.301520 4.319456 -89.845694
v 20.619957 1.758563 -91.118333
v 20.619957 3.960433 -89.388659
v 19.826156 1.502229 -90.792020
v 19.826156 3.704099 -89.062346
v 18.959921 1.361438 -90.612794
v 18.959921 3.563308 -88.883120
v 18.064689 1.343249 -90.589640
v 18.064689 3.545119 -88.859966
v 17.185351 1.448576 -90.723720
v 17.185350 3.650446 -88.994046
v 16.365999 1.672136 -91.008311
v 16.365999 3.874006 -89.278637
v 15.647721 2.002718 -91.429142
v 15.647721 4.204588 -89.699468
v 15.066533 2.423747 -91.965111
v 15.066533 4.625617 -90.235437
v 14.651579 2.914110 -92.589342
v 14.651579 5.115980 -90.859667
f 1 2 3
f 1 4 2
f 2 4 5
f 4 6 5
f 5 6 7
f 6 8 7
f 7 8 9
f 8 10 9
f 9 10 11
f 10 12 11
f 11 12 13
f 12 14 13
f 13 14 15
f 14 16 15
f 15 16 17
f 16 18 17
f 17 18 19
f 18 20 19
f 19 20 21
f 20 22 21
f 21 22 23
f 22 24 23
f 23 24 25
f 24 26 25
f 25 26 27
f 26 28 27
f 27 28 29
f 28 30 29
f 29 30 31
f 30 32 31
f 31 32 33
f 32 34 33
f 33 34 35
f 34 36 35
f 35 36 37
f 36 38 37
f 37 38 39
f 38 40 39
f 39 40 41
f 40 42 41
f 41 42 43
f 42 44 43
f 43 44 45
f 44 46 45
f 45 46 47
f 46 48 47
f 47 48 49
f 48 221 49
f 50 51 52
f 50 53 51
f 51 53 54
f 53 55 54
f 54 55 56
f 55 57 56
f 56 57 58
f 57 59 58
f 58 59 60
f 59 61 60
f 60 61 62
f 61 63 62
f 62 63 64
f 63 65 64
f 64 65 66
f 65 67 66
f 66 67 68
f 67 69 68
f 68 69 70
f 69 71 70
f 70 71 72
f 71 73 72
f 72 73 74
f 73 75 74
f 74 75 76
f 75 77 76
f 76 77 78
f 77 79 78
f 78 79 80
f 79 81 80
f 80 81 82
f 81 83 82
f 82 83 84
f 83 85 84
f 84 85 86
f 85 87 86
f 86 87 88
f 87 89 88
f 88 89 90
f 89 91 90
f 90 91 92
f 91 93 92
f 92 93 94
f 93 95 94
f 94 95 96
f 95 97 96
f 96 97 98
f 97 222 98
f 99 100 101
f 99 101 102
f 99 103 104
f 99 102 158
f 99 158 159
f 99 104 100
f 100 104 237
f 102 155 157
f 102 157 223
f 102 223 158
f 103 105 106
f 103 109 238
f 103 238 104
f 103 106 109
f 104 236 237
f 106 110 109
f 107 108 109
f 107 109 110
f 107 111 108
f 108 111 113
f 111 112 113
f 111 114 112
f 112 114 116
f 114 115 116
f 114 117 115
f 115 117 119
f 117 118 119
f 117 120 118
f 118 120 122
f 120 121 122
f 120 123 121
f 121 123 125
f 123 124 125
f 123 126 124
f 124 126 129
f 126 239 129
f 127 128 129
f 127 130 128
f 127 129 239
f 128 131 132
f 128 132 129
f 128 133 131
f 131 133 135
f 131 135 224
f 131 224 225
f 133 134 135
f 133 136 137
f 133 138 136
f 133 137 134
f 136 139 137
f 137 140 141
f 137 139 140
f 140 142 141
f 141 142 144
f 142 143 144
f 142 145 143
f 143 145 147
f 145 146 147
f 145 148 146
f 146 148 150
f 148 149 150
f 148 151 149
f 149 151 153
f 151 152 153
f 151 154 152
f 152 154 156
f 154 155 156
f 154 157 155
f 160 161 162
f 160 162 163
f 160 164 166
f 160 163 219
f 160 219 220
f 160 166 161
f 161 166 255
f 163 218 256
f 163 256 219
f 163 216 218
f 164 165 166
f 164 167 168
f 164 169 167
f 164 168 165
f 166 254 255
f 167 170 168
f 168 171 172
f 168 170 171
f 171 173 172
f 172 173 175
f 173 174 175
f 173 176 174
f 174 176 178
f 176 177 178
f 176 179 177
f 177 179 181
f 179 180 181
f 179 182 180
f 180 182 184
f 182 183 184
f 182 185 183
f 183 185 187
f 185 186 187
f 185 188 186
f 186 188 191
f 188 243 191
f 189 190 191
f 189 192 190
f 189 191 243
f 190 193 194
f 190 194 191
f 190 195 193
f 193 195 196
f 193 196 241
f 193 241 242
f 195 197 198
f 195 201 240
f 195 240 196
f 195 198 201
f 198 202 201
f 199 200 201
f 199 201 202
f 199 203 200
f 200 203 205
f 203 204 205
f 203 206 204
f 204 206 208
f 206 207 208
f 206 209 207
f 207 209 211
f 209 210 211
f 209 212 210
f 210 212 214
f 212 213 214
f 212 215 213
f 213 215 217
f 215 216 217
f 215 218 216
f 224 226 225
f 225 226 227
f 226 228 227
f 226 229 228
f 228 229 230
f 229 231 230
f 230 231 232
f 230 232 233
f 232 234 233
f 233 234 235
f 234 236 235
f 234 237 236
f 241 244 242
f 242 244 245
f 244 246 245
f 244 247 246
f 246 247 248
f 247 249 248
f 248 249 250
f 248 250 251
f 250 252 251
f 251 252 253
f 252 254 253
f 252 255 254
f 257 258 259
f 258 260 259
f 261 262 263
f 262 264 263
f 263 264 265
f 264 266 265
f 265 266 267
f 266 268 267
f 267 268 269
f 268 270 269
f 269 270 271
f 270 272 271
f 271 272 273
f 272 274 273
f 273 274 275
f 274 276 275
f 275 276 277
f 276 278 277
f 277 278 279
f 278 280 279
f 279 280 281
f 280 282 281
f 281 282 283
f 282 284 283
f 283 284 285
f 284 286 285
f 285 286 287
f 286 288 287
f 287 288 289
f 288 290 289
f 291 292 293
f 292 294 293
f 295 296 297
f 296 298 297
f 297 298 299
f 298 300 299
f 299 300 301
f 300 302 301
f 301 302 303
f 302 304 303
f 303 304 305
f 304 306 305
f 305 306 307
f 306 308 307
f 307 308 309
f 308 310 309
f 309 310 311
f 310 312 311
f 311 312 313
f 312 314 313
f 313 314 315
f 314 316 315
f 315 316 317
f 316 318 317
f 317 318 319
f 318 320 319
f 319 320 321
f 320 322 321
f 321 322 323
f 322 324 323