# Forged Hexagon Socket Button Head Cap Screw - Metric M3 x 0.5 x 6
# Autodesk dbId: 154
# Units: mm
o 154_Forged_Hexagon_Socket_Button_Head_Cap_Screw_-_Metric_M3_x_0.5_x_6
v 12.890001 15.555330 -93.993643
v 12.553981 15.479422 -93.902527
v 12.877060 15.566497 -94.013374
v 13.160674 15.695800 -94.177977
v 12.548887 15.464435 -93.877933
v 11.340002 17.135128 -96.166600
v 11.050915 17.000933 -95.995770
v 11.067425 17.033809 -95.995724
v 10.822216 16.827901 -95.775501
v 10.847828 16.876177 -95.795058
v 10.667197 16.626087 -95.518593
v 10.690519 16.692310 -95.560997
v 10.594866 16.407220 -95.239976
v 10.603386 16.491430 -95.305277
v 10.609426 16.184020 -94.955843
v 10.590798 16.283609 -95.040722
v 10.710032 15.969458 -94.682707
v 10.653386 16.079268 -94.780596
v 10.890837 15.776005 -94.436440
v 11.141333 15.614901 -94.231357
v 10.987926 15.721325 -94.324936
v 11.446963 15.495512 -94.079374
v 11.243102 15.585671 -94.152249
v 11.789963 15.424774 -93.989325
v 11.540745 15.488495 -94.028544
v 12.150400 15.406799 -93.966444
v 11.865930 15.434669 -93.960024
v 12.507328 15.442632 -94.012059
v 12.202351 15.426893 -93.950125
v 12.840001 15.530190 -94.123520
v 12.533139 15.465556 -93.999343
v 10.726775 15.922419 -94.466462
v 10.747662 15.922013 -94.482116
v 10.936091 15.747220 -94.243433
v 12.207636 15.438940 -93.850994
v 12.546872 15.485802 -93.926822
v 12.540767 15.485531 -93.952202
v 12.865001 15.571544 -94.035970
v 12.536083 15.478625 -93.976938
v 12.854646 15.570127 -94.059892
v 12.846700 15.562342 -94.083509
v 12.841705 15.548720 -94.105211
v 12.183033 15.424584 -93.827203
v 11.855391 15.447082 -93.861358
v 12.205833 15.445941 -93.876078
v 12.204285 15.446202 -93.902136
v 12.203098 15.439705 -93.927392
v 11.812164 15.437928 -93.844190
v 11.514912 15.503439 -93.933101
v 11.858986 15.453958 -93.886284
v 11.862073 15.454112 -93.912206
v 11.864441 15.447533 -93.937357
v 11.456274 15.503746 -93.927976
v 11.203269 15.605186 -94.062624
v 11.523723 15.509452 -93.956927
v 11.531289 15.508864 -93.981905
v 11.537095 15.501716 -94.006332
v 11.134548 15.618491 -94.074046
v 11.216855 15.609640 -94.084466
v 11.228522 15.607713 -94.107740
v 11.237474 15.599538 -94.130859
v 10.864330 15.775976 -94.274523
v 10.953771 15.749498 -94.262505
v 10.968953 15.745703 -94.283400
v 10.980603 15.736093 -94.304693
v 10.585817 16.121999 -94.720526
v 10.660189 15.967711 -94.518602
v 10.533130 16.183360 -94.793122
v 10.520285 16.335951 -94.992885
v 10.608864 16.118534 -94.732287
v 10.726775 15.922419 -94.466462
v 10.628654 16.109808 -94.746905
v 10.747662 15.922013 -94.482116
v 10.643840 16.096415 -94.763382
v 10.765598 15.915913 -94.500076
v 10.779361 15.904535 -94.519118
v 10.788013 15.888654 -94.537945
v 10.490002 16.411297 -95.083286
v 10.533465 16.553546 -95.269884
v 10.544336 16.329208 -95.000474
v 10.564988 16.317667 -95.011508
v 10.580836 16.302114 -95.025236
v 10.533130 16.639235 -95.373449
v 10.624696 16.763874 -95.537631
v 10.557314 16.543470 -95.273228
v 10.647147 16.750575 -95.536873
v 10.577793 16.529066 -95.280618
v 10.593508 16.511316 -95.291549
v 10.660189 16.854884 -95.647970
v 10.789404 16.956389 -95.782701
v 10.809331 16.940140 -95.778188
v 10.666426 16.733404 -95.540740
v 10.826443 16.920436 -95.778831
v 10.681220 16.713531 -95.548968
v 10.864330 17.046619 -95.892048
v 11.019329 17.121435 -95.992805
v 11.035734 17.102658 -95.985073
v 11.049821 17.080782 -95.982951
v 10.839574 16.898619 -95.784585
v 11.060630 17.057299 -95.986584
v 11.134548 17.204104 -96.092526
v 11.302943 17.250738 -96.157407
v 11.315002 17.229980 -96.147153
v 11.325357 17.206403 -96.142866
v 11.333303 17.181614 -96.144837
v 11.338298 17.157304 -96.152932
v 11.456274 17.318849 -96.238595
v 11.626022 17.337814 -96.268254
v 11.633131 17.315721 -96.256302
v 11.639236 17.290998 -96.250556
v 11.643920 17.265331 -96.251408
v 11.646864 17.240468 -96.258800
v 11.812164 17.384667 -96.322382
v 11.972368 17.378296 -96.319787
v 11.974170 17.355583 -96.307045
v 11.975718 17.330327 -96.300622
v 11.976905 17.304251 -96.300953
v 11.977652 17.279131 -96.308018
v 11.672675 17.222686 -96.278061
v 12.183033 17.398010 -96.339368
v 12.324612 17.370154 -96.309423
v 12.321017 17.347565 -96.296840
v 12.317930 17.322417 -96.290552
v 12.315562 17.296424 -96.290988
v 12.314073 17.271355 -96.298119
v 12.029603 17.258519 -96.323676
v 12.548887 17.358160 -96.288638
v 12.665091 17.313796 -96.237680
v 12.656280 17.292072 -96.226196
v 12.648714 17.267665 -96.220853
v 12.642908 17.242240 -96.222013
v 12.639258 17.217529 -96.229599
v 12.390040 17.240544 -96.300794
v 12.890002 17.267264 -96.172928
v 12.976734 17.212050 -96.108157
v 12.963148 17.191884 -96.098658
v 12.951481 17.168816 -96.095018
v 12.942529 17.144418 -96.097486
v 12.936901 17.120353 -96.105894
v 12.733040 17.169806 -96.210745
v 13.187988 17.130223 -95.998475
v 13.243912 17.070015 -95.927348
v 13.226232 17.052026 -95.920619
v 13.211050 17.030827 -95.919358
v 13.199400 17.007863 -95.923652
v 13.192077 16.984699 -95.933207
v 13.038670 17.050417 -96.058763
v 13.426782 16.954424 -95.774684
v 13.453228 16.894816 -95.704319
v 13.432341 16.879511 -95.701008
v 13.414405 16.860617 -95.702681
v 13.400642 16.839422 -95.709227
v 13.391990 16.817370 -95.720197
v 13.289166 16.889313 -95.853679
v 13.593510 16.749345 -95.513619
v 13.594186 16.695236 -95.450256
v 13.571139 16.682989 -95.450836
v 13.551349 16.666721 -95.455853
v 13.536163 16.647541 -95.464963
v 13.526617 16.626756 -95.477546
v 13.469971 16.695860 -95.607413
v 13.679183 16.526042 -95.229355
v 13.659718 16.481285 -95.177896
v 13.635667 16.472316 -95.182650
v 13.615015 16.458862 -95.191250
v 13.599167 16.441842 -95.203109
v 13.589205 16.422415 -95.217421
v 13.570577 16.481298 -95.334276
v 13.679183 16.296553 -94.937216
v 13.646538 16.263689 -94.900897
v 13.622689 16.258054 -94.909895
v 13.602210 16.247464 -94.922140
v 13.586496 16.232640 -94.936796
v 13.576617 16.214594 -94.952866
v 13.585137 16.258098 -95.050143
v 13.593510 16.073249 -94.652952
v 13.555307 16.053361 -94.633150
v 13.532856 16.050948 -94.646251
v 13.513577 16.043125 -94.662018
v 13.498783 16.030425 -94.679377
v 13.489484 16.013714 -94.697146
v 13.512806 16.039231 -94.771527
v 13.426782 15.868171 -94.391887
v 13.390599 15.860847 -94.388080
v 13.370672 15.861384 -94.404935
v 13.353560 15.856094 -94.423927
v 13.340429 15.845337 -94.443761
v 13.332175 15.829848 -94.463085
v 13.357787 15.837417 -94.514618
v 13.187988 15.692372 -94.168096
v 13.144269 15.698866 -94.198051
v 13.130182 15.695747 -94.219807
v 13.119373 15.686657 -94.241762
v 13.112578 15.672215 -94.262419
v 13.129088 15.664385 -94.294349
v 12.840001 11.131741 -97.578713
v 13.129088 15.664385 -94.294349
v 12.840001 15.530190 -94.123520
v 12.507328 11.044183 -97.467252
v 13.129088 11.265935 -97.749543
v 13.357787 15.837417 -94.514618
v 13.357786 11.438968 -97.969812
v 13.512806 16.039231 -94.771527
v 13.512806 11.640781 -98.226720
v 13.585137 16.258098 -95.050143
v 13.585137 11.859648 -98.505337
v 13.570577 16.481298 -95.334276
v 13.570577 12.082849 -98.789470
v 13.469971 16.695860 -95.607413
v 13.469971 12.297410 -99.062606
v 13.289166 16.889313 -95.853679
v 13.289166 12.490864 -99.308872
v 13.038670 17.050417 -96.058763
v 13.038670 12.651967 -99.513956
v 12.733040 17.169806 -96.210745
v 12.733040 12.771357 -99.665939
v 12.390040 17.240544 -96.300794
v 12.390040 12.842095 -99.755988
v 12.029603 17.258519 -96.323676
v 12.029603 12.860069 -99.778869
v 11.672675 17.222686 -96.278061
v 11.672675 12.824236 -99.733254
v 11.340002 17.135128 -96.166600
v 11.340001 12.736679 -99.621793
v 11.050915 17.000933 -95.995770
v 11.340002 17.135128 -96.166600
v 11.050915 12.602484 -99.450964
v 10.822216 16.827901 -95.775501
v 10.822216 12.429452 -99.230695
v 10.667197 16.626087 -95.518593
v 10.667197 12.227638 -98.973786
v 10.594866 16.407220 -95.239976
v 10.594865 12.008771 -98.695170
v 10.609426 16.184020 -94.955843
v 10.609426 11.785571 -98.411037
v 10.710032 15.969458 -94.682707
v 10.710032 11.571009 -98.137900
v 10.890837 15.776005 -94.436440
v 10.890837 11.377555 -97.891634
v 11.141333 15.614901 -94.231357
v 11.141333 11.216452 -97.686550
v 11.446963 15.495512 -94.079374
v 11.446963 11.097063 -97.534568
v 11.789963 15.424774 -93.989325
v 11.789963 11.026325 -97.444519
v 12.150400 15.406799 -93.966444
v 12.150400 11.008350 -97.421637
v 12.507328 15.442632 -94.012059
v 13.921946 15.062629 -93.366436
v 13.515001 14.886606 -93.142360
v 12.890001 15.555330 -93.993643
v 12.933774 11.171773 -98.126202
v 13.357786 11.438968 -97.969812
v 13.129088 11.265935 -97.749543
v 12.686639 11.054629 -97.977078
v 13.123408 11.324439 -98.320545
v 13.512806 11.640781 -98.226720
v 13.242616 11.502222 -98.546862
v 13.585137 11.859648 -98.505337
v 13.283276 11.693006 -98.789730
v 13.570577 12.082849 -98.789470
v 13.242617 11.883791 -99.032598
v 13.469971 12.297410 -99.062606
v 13.123408 12.061573 -99.258915
v 13.289166 12.490864 -99.308872
v 12.933774 12.214239 -99.453258
v 13.038670 12.651967 -99.513956
v 12.686639 12.331384 -99.602382
v 12.733040 12.771357 -99.665939
v 12.398844 12.405024 -99.696126
v 12.390040 12.842095 -99.755988
v 12.090001 12.430141 -99.728100
v 12.029603 12.860069 -99.778869
v 11.781159 12.405024 -99.696126
v 11.672675 12.824236 -99.733254
v 11.493364 12.331384 -99.602382
v 11.050915 12.602484 -99.450964
v 11.340001 12.736679 -99.621793
v 11.246229 12.214239 -99.453258
v 10.822216 12.429452 -99.230695
v 11.056595 12.061574 -99.258915
v 10.667197 12.227638 -98.973786
v 10.937386 11.883791 -99.032598
v 10.594865 12.008771 -98.695170
v 10.896726 11.693006 -98.789730
v 10.609426 11.785571 -98.411037
v 10.937386 11.502222 -98.546862
v 10.710032 11.571009 -98.137900
v 11.056595 11.324439 -98.320545
v 10.890837 11.377555 -97.891634
v 11.246229 11.171773 -98.126203
v 11.141333 11.216452 -97.686550
v 11.493364 11.054629 -97.977078
v 11.446963 11.097063 -97.534568
v 11.781159 10.980989 -97.883335
v 11.789963 11.026325 -97.444519
v 12.090001 10.955872 -97.851360
v 12.150400 11.008350 -97.421637
v 12.398844 10.980989 -97.883335
v 12.507328 11.044183 -97.467252
v 12.880002 16.863560 -92.987991
v 12.742815 16.566822 -92.680298
v 13.044352 16.653682 -92.790870
v 13.316890 16.771568 -92.940938
v 12.543151 16.773800 -92.873727
v 11.815637 16.747625 -92.840406
v 11.464196 16.812620 -92.923145
v 11.437188 16.566823 -92.680298
v 11.146491 16.925931 -93.067389
v 11.135651 16.653682 -92.790870
v 10.879651 17.081447 -93.265361
v 10.863113 16.771568 -92.940938
v 10.510002 17.708827 -94.064013
v 10.552591 17.933915 -94.350550
v 10.210299 17.879543 -94.351386
v 10.678062 18.146869 -94.621639
v 10.296410 18.078067 -94.604107
v 10.879651 18.336207 -94.862666
v 10.437019 18.264338 -94.841229
v 11.815638 18.670029 -95.287620
v 12.181870 18.683206 -95.304395
v 12.090002 18.853879 -95.591713
v 12.543151 18.643854 -95.254299
v 12.421444 18.835966 -95.568910
v 12.880002 18.554094 -95.140036
v 12.742816 18.782772 -95.501193
v 13.574716 18.042649 -94.488968
v 13.659318 17.822137 -94.208257
v 13.969704 17.879542 -94.351386
v 13.659318 17.595517 -93.919770
v 13.998702 17.674797 -94.090746
v 13.574716 17.375005 -93.639059
v 13.969704 17.470051 -93.830105
v 13.921946 15.361454 -93.131694
v 14.240078 15.854122 -93.226759
v 13.894130 15.640416 -92.954712
v 14.273228 15.578455 -93.407936
v 14.520697 16.101691 -93.541913
v 14.558174 15.829841 -93.727950
v 14.727461 16.375601 -93.890600
v 14.768125 16.107975 -94.082013
v 14.854087 16.667530 -94.262223
v 14.896703 16.404404 -94.459366
v 14.896727 16.968606 -94.645493
v 14.940001 16.710122 -94.848544
v 14.854087 17.269682 -95.028762
v 14.896704 17.015840 -95.237722
v 14.727461 17.561610 -95.400385
v 14.768125 17.312269 -95.615076
v 14.520697 17.835520 -95.749072
v 14.558174 17.590403 -95.969138
v 14.240078 18.083090 -96.064226
v 14.273228 17.841789 -96.289152
v 13.894130 18.296796 -96.336274
v 13.921946 18.058790 -96.565394
v 13.493365 18.470146 -96.556948
v 13.515002 18.234813 -96.789470
v 13.049958 18.597872 -96.719543
v 13.064759 18.364509 -96.954572
v 12.577384 18.676094 -96.819119
v 12.584899 18.443937 -97.055684
v 12.090002 18.702435 -96.852651
v 12.090002 18.470683 -97.089733
v 11.602619 18.676095 -96.819119
v 11.595104 18.443937 -97.055684
v 11.130045 18.597873 -96.719543
v 11.115244 18.364509 -96.954572
v 10.686639 18.470146 -96.556948
v 10.665002 18.234813 -96.789470
v 10.285873 18.296796 -96.336274
v 10.258057 18.058790 -96.565394
v 9.939925 18.083090 -96.064227
v 9.906775 17.841789 -96.289152
v 9.659306 17.835521 -95.749072
v 9.621829 17.590403 -95.969139
v 9.452542 17.561611 -95.400385
v 9.411878 17.312270 -95.615076
v 9.325916 17.269683 -95.028762
v 9.283300 17.015841 -95.237723
v 9.283276 16.968606 -94.645493
v 9.240002 16.710123 -94.848544
v 9.325916 16.667530 -94.262224
v 9.283299 16.404404 -94.459366
v 9.452542 16.375602 -93.890600
v 9.411878 16.107975 -94.082013
v 9.659306 16.101692 -93.541914
v 9.621829 15.829842 -93.727950
v 9.906775 15.578456 -93.407936
v 9.939925 15.854123 -93.226759
v 10.258057 15.361454 -93.131694
v 10.285873 15.640416 -92.954711
v 10.665001 15.185432 -92.907618
v 10.686639 15.467066 -92.734038
v 11.115244 15.055736 -92.742516
v 11.130045 15.339340 -92.571442
v 11.595104 14.976308 -92.641405
v 11.602619 15.261118 -92.471866
v 12.090001 14.949561 -92.607356
v 12.090002 15.234777 -92.438334
v 12.584899 14.976308 -92.641405
v 12.577384 15.261118 -92.471866
v 13.064759 15.055736 -92.742516
v 13.049958 15.339340 -92.571443
v 13.515001 15.185431 -92.907618
v 13.493364 15.467066 -92.734038
v 12.421444 16.513628 -92.612582
v 12.847576 16.289249 -92.532330
v 12.937536 15.977853 -92.462642
v 13.197501 16.390047 -92.660647
v 13.006565 15.653857 -92.475983
v 13.329014 16.090621 -92.606196
v 13.429928 15.775809 -92.631228
v 12.181870 16.734448 -92.823632
v 12.090002 16.495715 -92.589778
v 12.474632 16.227518 -92.453747
v 12.520306 15.908792 -92.374728
v 12.555353 15.579171 -92.380908
v 11.758559 16.513628 -92.612582
v 12.090002 16.206730 -92.427285
v 12.090002 15.885536 -92.345123
v 12.090001 15.554021 -92.348892
v 10.982502 16.390047 -92.660647
v 11.332427 16.289249 -92.532330
v 10.850989 16.090621 -92.606196
v 11.242467 15.977853 -92.462642
v 11.705371 16.227518 -92.453747
v 11.173438 15.653857 -92.475983
v 11.659697 15.908792 -92.374728
v 11.624650 15.579171 -92.380908
v 10.666227 16.526851 -92.834797
v 10.497157 16.243670 -92.801026
v 10.367426 15.941323 -92.841927
v 10.750075 15.775810 -92.631228
v 10.627852 16.916898 -93.125943
v 10.393213 16.695503 -93.049490
v 10.191724 16.432349 -93.041213
v 10.037116 16.145370 -93.101676
v 9.659306 16.101692 -93.541914
v 9.769182 16.381748 -93.402585
v 9.943969 16.650925 -93.319460
v 10.171755 16.890878 -93.298203
v 10.437019 17.085256 -93.340262
v 10.296410 17.271528 -93.577385
v 10.678062 17.270785 -93.506388
v 10.552591 17.483739 -93.777477
v 10.210299 17.470052 -93.830106
v 9.908652 17.337424 -93.866654
v 10.008582 17.107042 -93.573378
v 9.649623 17.150497 -93.955413
v 9.761419 16.892757 -93.627311
v 9.450862 16.922008 -94.090335
v 9.571764 16.643276 -93.735510
v 10.181302 17.674797 -94.090746
v 9.875002 17.575026 -94.169121
v 9.611976 17.416313 -94.293797
v 9.410149 17.209475 -94.456279
v 10.008583 18.043011 -94.764864
v 9.908653 17.812628 -94.471587
v 9.761419 17.939870 -94.960283
v 9.450862 17.496942 -94.822223
v 9.649623 17.682130 -94.632181
v 9.571764 17.775673 -95.177048
v 10.171755 18.259174 -95.040039
v 9.943969 18.181702 -95.268135
v 9.769182 18.037202 -95.509972
v 10.627853 18.432696 -95.055549
v 10.393213 18.454550 -95.288751
v 10.191724 18.400278 -95.546381
v 10.037116 18.273580 -95.810881
v 10.863113 18.578026 -95.240553
v 11.146491 18.491724 -95.060638
v 11.135652 18.695912 -95.390621
v 10.982502 18.760005 -95.677595
v 10.666227 18.623202 -95.503444
v 10.850989 18.742005 -95.981399
v 10.497158 18.588957 -95.786568
v 10.750076 18.643140 -96.281330
v 10.367426 18.477626 -96.070631
v 11.464196 18.605034 -95.204881
v 11.437188 18.782772 -95.501193
v 11.332427 18.860804 -95.805911
v 11.242467 18.854774 -96.124952
v 11.173438 18.765093 -96.436575
v 11.758559 18.835966 -95.568910
v 11.705371 18.922534 -95.884494
v 11.659697 18.923835 -96.212867
v 11.624650 18.839779 -96.531650
v 12.474632 18.922534 -95.884494
v 12.090002 18.943322 -95.910956
v 12.520306 18.923835 -96.212867
v 12.090002 18.864929 -96.563666
v 12.090001 18.947091 -96.242472
v 12.555353 18.839779 -96.531650
v 12.847576 18.860803 -95.805911
v 12.937536 18.854773 -96.124952
v 13.006565 18.765093 -96.436575
v 13.044352 18.695912 -95.390621
v 13.197502 18.760005 -95.677595
v 13.329014 18.742005 -95.981399
v 13.429928 18.643140 -96.281330
v 13.316890 18.578026 -95.240553
v 13.174263 18.418766 -94.967763
v 13.552151 18.432696 -95.055549
v 13.786790 18.454550 -95.288751
v 13.513776 18.623201 -95.503444
v 13.988279 18.400278 -95.546381
v 13.682846 18.588957 -95.786568
v 14.142888 18.273580 -95.810881
v 13.812578 18.477626 -96.070631
v 13.410072 18.245164 -94.746769
v 13.742984 18.264338 -94.841229
v 14.008248 18.259174 -95.040038
v 14.236035 18.181702 -95.268134
v 14.410822 18.037201 -95.509972
v 13.883593 18.078066 -94.604107
v 14.171421 18.043010 -94.764864
v 14.418584 17.939870 -94.960283
v 14.608239 17.775673 -95.177048
v 14.305001 17.575026 -94.169121
v 14.271351 17.812628 -94.471587
v 14.568027 17.416313 -94.293797
v 14.729141 17.496941 -94.822223
v 14.530380 17.682130 -94.632181
v 14.769854 17.209474 -94.456279
v 14.271351 17.337424 -93.866654
v 14.530380 17.150496 -93.955413
v 14.729141 16.922008 -94.090335
v 13.883593 17.271527 -93.577385
v 14.171421 17.107041 -93.573378
v 14.418584 16.892756 -93.627311
v 14.608239 16.643276 -93.735510
v 13.742984 17.085256 -93.340262
v 13.410072 17.172490 -93.381258
v 13.552151 16.916898 -93.125942
v 13.786790 16.695502 -93.049490
v 14.008248 16.890878 -93.298203
v 13.988279 16.432348 -93.041214
v 14.236034 16.650924 -93.319460
v 14.142887 16.145369 -93.101676
v 14.410822 16.381747 -93.402585
v 13.174263 16.998888 -93.160264
v 13.513776 16.526851 -92.834797
v 13.682846 16.243670 -92.801026
v 13.812577 15.941323 -92.841926
v 13.090001 17.352174 -93.609996
v 12.880002 16.863560 -92.987991
v 13.174263 16.998888 -93.160264
v 13.410072 17.172490 -93.381258
v 13.659318 17.822137 -94.208257
v 13.090001 18.065480 -94.518031
v 13.574716 17.375005 -93.639059
v 13.659318 17.595517 -93.919770
v 12.090002 16.995522 -93.155978
v 11.146491 16.925931 -93.067389
v 11.464196 16.812620 -92.923145
v 11.815637 16.747625 -92.840406
v 12.181870 16.734448 -92.823632
v 12.543151 16.773800 -92.873727
v 11.090002 17.352175 -93.609996
v 10.510002 17.708827 -94.064013
v 10.552591 17.483739 -93.777477
v 10.678062 17.270785 -93.506388
v 10.879651 17.081447 -93.265361
v 11.090002 18.065480 -94.518031
v 11.146491 18.491724 -95.060638
v 10.879651 18.336207 -94.862666
v 10.678062 18.146869 -94.621639
v 10.552591 17.933915 -94.350550
v 12.090002 18.422133 -94.972049
v 12.880002 18.554094 -95.140036
v 12.543151 18.643854 -95.254299
v 12.181870 18.683206 -95.304395
v 11.815638 18.670029 -95.287620
v 11.464196 18.605034 -95.204881
v 13.574716 18.042649 -94.488968
v 13.410072 18.245164 -94.746769
v 13.174263 18.418766 -94.967763
v 12.090002 17.604296 -95.614499
v 12.353710 17.456603 -95.536908
v 12.090002 18.422133 -94.972049
v 11.090002 17.247643 -95.160482
v 11.353710 17.288055 -95.322347
v 11.090002 18.065480 -94.518031
v 10.864330 15.775976 -94.274523
v 10.765598 15.915913 -94.500076
v 10.779361 15.904535 -94.519118
v 10.788013 15.888654 -94.537945
v 10.710032 15.969458 -94.682707
v 11.340001 12.736679 -99.621793
v 13.064759 14.756911 -92.977258
v 12.548887 15.464435 -93.877933
v 12.584899 14.677483 -92.876146
v 12.183033 15.424584 -93.827203
v 12.090001 14.650736 -92.842097
v 11.812164 15.437928 -93.844190
v 11.595104 14.677483 -92.876146
v 11.115244 14.756911 -92.977258
v 11.456274 15.503746 -93.927976
v 10.665001 14.886607 -93.142360
v 11.134548 15.618491 -94.074046
v 10.258057 15.062629 -93.366436
v 10.864330 15.775976 -94.274523
v 9.906775 15.279631 -93.642678
v 9.621829 15.531017 -93.962692
v 10.660189 15.967711 -94.518602
v 9.411878 15.809150 -94.316754
v 10.533130 16.183360 -94.793122
v 9.283299 16.105579 -94.694107
v 10.490002 16.411297 -95.083286
v 9.240002 16.411297 -95.083286
v 9.283300 16.717016 -95.472464
v 10.533130 16.639235 -95.373449
v 9.411878 17.013445 -95.849817
v 10.660189 16.854884 -95.647970
v 9.621829 17.291578 -96.203880
v 10.864330 17.046619 -95.892048
v 9.906775 17.542964 -96.523894
v 10.258057 17.759965 -96.800135
v 11.134548 17.204104 -96.092526
v 10.665002 17.935988 -97.024212
v 11.456274 17.318849 -96.238595
v 11.115244 18.065684 -97.189314
v 11.812164 17.384667 -96.322382
v 11.595104 18.145112 -97.290425
v 12.090002 18.171858 -97.324474
v 12.183033 17.398010 -96.339368
v 12.584899 18.145111 -97.290425
v 12.548887 17.358160 -96.288638
v 13.064759 18.065684 -97.189314
v 12.890002 17.267264 -96.172928
v 13.515002 17.935988 -97.024212
v 13.921946 17.759965 -96.800135
v 13.187988 17.130223 -95.998475
v 14.273228 17.542964 -96.523893
v 13.426782 16.954424 -95.774684
v 14.558174 17.291577 -96.203880
v 13.593510 16.749345 -95.513619
v 14.768125 17.013444 -95.849817
v 14.896704 16.717015 -95.472464
v 13.679183 16.526042 -95.229355
v 14.940001 16.411297 -95.083286
v 13.679183 16.296553 -94.937216
v 14.896703 16.105579 -94.694107
v 13.593510 16.073249 -94.652952
v 14.768125 15.809150 -94.316754
v 14.558174 15.531016 -93.962691
v 13.426782 15.868171 -94.391887
v 14.273228 15.279630 -93.642678
v 13.187988 15.692372 -94.168096
v 12.840001 11.131741 -97.578713
v 12.686639 11.054629 -97.977078
v 12.840001 11.131741 -97.578713
v 12.686639 11.054629 -97.977078
v 12.398844 10.980989 -97.883335
v 12.933774 11.171773 -98.126202
v 13.123408 11.324439 -98.320545
v 12.090001 10.955872 -97.851360
v 13.242616 11.502222 -98.546862
v 11.781159 10.980989 -97.883335
v 13.283276 11.693006 -98.789730
v 11.493364 11.054629 -97.977078
v 13.242617 11.883791 -99.032598
v 11.246229 11.171773 -98.126203
v 13.123408 12.061573 -99.258915
v 11.056595 11.324439 -98.320545
v 12.933774 12.214239 -99.453258
v 10.937386 11.502222 -98.546862
v 12.686639 12.331384 -99.602382
v 10.896726 11.693006 -98.789730
v 12.398844 12.405024 -99.696126
v 10.937386 11.883791 -99.032598
v 12.090001 12.430141 -99.728100
v 11.056595 12.061574 -99.258915
v 11.781159 12.405024 -99.696126
v 11.246229 12.214239 -99.453258
v 11.493364 12.331384 -99.602382
v 9.621829 15.829842 -93.727950
v 9.769182 16.381748 -93.402585
v 9.943969 16.650925 -93.319460
v 10.171755 16.890878 -93.298203
v 10.437019 17.085256 -93.340262
v 10.879651 17.081447 -93.265361
v 13.921946 15.062629 -93.366436
v 13.921946 15.361454 -93.131694
v 13.515001 14.886606 -93.142360
v 14.273228 15.578455 -93.407936
v 13.515001 15.185431 -92.907618
v 13.064759 14.756911 -92.977258
v 13.064759 15.055736 -92.742516
v 12.584899 14.677483 -92.876146
v 12.584899 14.976308 -92.641405
v 12.090001 14.650736 -92.842097
v 12.090001 14.949561 -92.607356
v 11.595104 14.677483 -92.876146
v 11.595104 14.976308 -92.641405
v 11.115244 14.756911 -92.977258
v 11.115244 15.055736 -92.742516
v 10.665001 14.886607 -93.142360
v 10.665001 15.185432 -92.907618
v 10.258057 15.062629 -93.366436
v 10.258057 15.361454 -93.131694
v 9.906775 15.279631 -93.642678
v 9.906775 15.578456 -93.407936
v 9.621829 15.531017 -93.962692
v 9.621829 15.829842 -93.727950
v 9.411878 15.809150 -94.316754
v 9.411878 16.107975 -94.082013
v 9.283299 16.105579 -94.694107
v 9.283299 16.404404 -94.459366
v 9.240002 16.411297 -95.083286
v 9.240002 16.710123 -94.848544
v 9.283300 16.717016 -95.472464
v 9.283300 17.015841 -95.237723
v 9.411878 17.013445 -95.849817
v 9.411878 17.312270 -95.615076
v 9.621829 17.291578 -96.203880
v 9.621829 17.590403 -95.969139
v 9.906775 17.542964 -96.523894
v 9.906775 17.841789 -96.289152
v 10.258057 17.759965 -96.800135
v 10.258057 18.058790 -96.565394
v 10.665002 17.935988 -97.024212
v 10.665002 18.234813 -96.789470
v 10.665002 17.935988 -97.024212
v 10.665002 18.234813 -96.789470
v 11.115244 18.065684 -97.189314
v 11.115244 18.364509 -96.954572
v 11.595104 18.145112 -97.290425
v 11.595104 18.443937 -97.055684
v 12.090002 18.171858 -97.324474
v 12.090002 18.470683 -97.089733
v 12.584899 18.145111 -97.290425
v 12.584899 18.443937 -97.055684
v 13.064759 18.065684 -97.189314
v 13.064759 18.364509 -96.954572
v 13.515002 17.935988 -97.024212
v 13.515002 18.234813 -96.789470
v 13.921946 17.759965 -96.800135
v 13.921946 18.058790 -96.565394
v 14.273228 17.542964 -96.523893
v 14.273228 17.841789 -96.289152
v 14.558174 17.291577 -96.203880
v 14.558174 17.590403 -95.969138
v 14.768125 17.013444 -95.849817
v 14.768125 17.312269 -95.615076
v 14.896704 16.717015 -95.472464
v 14.896704 17.015840 -95.237722
v 14.940001 16.411297 -95.083286
v 14.940001 16.710122 -94.848544
v 14.896703 16.105579 -94.694107
v 14.896703 16.404404 -94.459366
v 14.768125 15.809150 -94.316754
v 14.768125 16.107975 -94.082013
v 14.558174 15.531016 -93.962691
v 14.558174 15.829841 -93.727950
v 14.273228 15.279630 -93.642678
v 12.590002 17.355732 -95.442665
v 13.090001 18.065480 -94.518031
v 12.826294 17.288054 -95.322347
v 13.090001 17.247643 -95.160482
v 13.090001 17.247643 -95.160482
v 13.090002 17.005898 -94.963162
v 13.090001 18.065480 -94.518031
v 13.090001 16.820753 -94.761638
v 13.090001 17.352174 -93.609996
v 13.090002 16.668801 -94.534039
v 13.090001 16.534337 -94.252446
v 13.090001 16.534337 -94.252446
v 12.826294 16.386645 -94.174855
v 13.090001 17.352174 -93.609996
v 12.590001 16.285774 -94.080612
v 12.090002 16.995522 -93.155978
v 12.353709 16.218096 -93.960294
v 12.090002 16.177685 -93.798428
v 12.090002 16.177685 -93.798428
v 11.826294 16.218096 -93.960293
v 12.090002 16.995522 -93.155978
v 11.590002 16.285774 -94.080611
v 11.090002 17.352175 -93.609996
v 11.353709 16.386645 -94.174855
v 11.090002 16.534337 -94.252446
v 11.590002 17.355733 -95.442665
v 12.090002 18.422133 -94.972049
v 11.826294 17.456603 -95.536908
v 12.090002 17.604296 -95.614499
v 11.090002 16.534337 -94.252446
v 11.090002 16.668801 -94.534039
v 11.090002 17.352175 -93.609996
v 11.090002 16.820753 -94.761638
v 11.090002 18.065480 -94.518031
v 11.090002 17.005898 -94.963163
v 11.090002 17.247643 -95.160482
v 11.353709 16.386645 -94.174855
v 12.090002 16.366736 -95.118291
v 11.090002 16.534337 -94.252446
v 11.590002 16.285774 -94.080611
v 12.090002 16.366736 -95.118291
v 11.090002 16.668801 -94.534039
v 12.090002 16.177685 -93.798428
v 12.090002 16.366736 -95.118291
v 11.826294 16.218096 -93.960293
v 12.353709 16.218096 -93.960294
v 12.090002 16.366736 -95.118291
v 12.090002 16.366736 -95.118291
v 12.590001 16.285774 -94.080612
v 13.090001 16.534337 -94.252446
v 12.090002 16.366736 -95.118291
v 12.826294 16.386645 -94.174855
v 13.090002 16.668801 -94.534039
v 12.090002 16.366736 -95.118291
v 12.090002 16.366736 -95.118291
v 13.090001 16.820753 -94.761638
v 13.090001 17.247643 -95.160482
v 12.090002 16.366736 -95.118291
v 13.090002 17.005898 -94.963162
v 12.826294 17.288054 -95.322347
v 12.090002 16.366736 -95.118291
v 12.090002 16.366736 -95.118291
v 12.590002 17.355732 -95.442665
v 12.090002 17.604296 -95.614499
v 12.090002 16.366736 -95.118291
v 12.353710 17.456603 -95.536908
v 11.826294 17.456603 -95.536908
v 12.090002 16.366736 -95.118291
v 12.090002 16.366736 -95.118291
v 11.590002 17.355733 -95.442665
v 11.090002 17.247643 -95.160482
v 12.090002 16.366736 -95.118291
v 11.353710 17.288055 -95.322347
v 11.090002 17.005898 -94.963163
v 12.090002 16.366736 -95.118291
v 12.090002 16.366736 -95.118291
v 11.590002 17.355733 -95.442665
v 11.090002 16.820753 -94.761638
v 12.090002 16.366736 -95.118291
f 1 2 3
f 1 3 4
f 1 5 2
f 1 4 190
f 2 5 35
f 2 36 3
f 2 35 45
f 2 45 36
f 3 36 38
f 3 38 4
f 4 184 190
f 4 38 191
f 4 191 184
f 5 43 35
f 6 7 8
f 6 8 106
f 6 112 119
f 6 106 112
f 7 9 10
f 7 10 8
f 8 99 100
f 8 10 99
f 8 100 106
f 9 11 12
f 9 12 10
f 10 94 99
f 10 12 94
f 11 13 14
f 11 14 12
f 12 88 94
f 12 14 88
f 13 15 16
f 13 16 14
f 14 82 88
f 14 16 82
f 15 17 18
f 15 18 16
f 16 74 82
f 16 18 74
f 17 77 18
f 18 76 74
f 18 77 76
f 19 20 21
f 19 21 587
f 19 587 588
f 20 22 23
f 20 23 21
f 21 61 65
f 21 23 61
f 21 65 587
f 22 24 25
f 22 25 23
f 23 57 61
f 23 25 57
f 24 26 27
f 24 27 25
f 25 52 57
f 25 27 52
f 26 28 29
f 26 29 27
f 27 47 52
f 27 29 47
f 28 30 31
f 28 31 29
f 29 39 47
f 29 31 39
f 30 42 31
f 30 194 42
f 30 195 194
f 31 41 39
f 31 42 41
f 32 33 34
f 32 34 62
f 33 585 63
f 33 63 34
f 34 54 58
f 34 58 62
f 34 63 54
f 35 43 44
f 35 44 50
f 35 50 45
f 36 37 38
f 36 45 46
f 36 46 37
f 37 39 40
f 37 40 38
f 37 46 47
f 37 47 39
f 38 40 191
f 39 41 40
f 40 192 191
f 40 41 192
f 41 193 192
f 41 42 193
f 42 194 193
f 43 48 44
f 44 48 49
f 44 49 55
f 44 55 50
f 45 50 51
f 45 51 46
f 46 51 52
f 46 52 47
f 48 53 49
f 49 53 54
f 49 54 59
f 49 59 55
f 50 55 56
f 50 56 51
f 51 56 57
f 51 57 52
f 53 58 54
f 54 63 59
f 55 59 60
f 55 60 56
f 56 60 61
f 56 61 57
f 59 63 64
f 59 64 60
f 60 64 65
f 60 65 61
f 63 585 64
f 64 585 586
f 64 586 65
f 65 586 587
f 66 67 68
f 66 68 69
f 66 70 71
f 66 69 80
f 66 80 70
f 66 71 67
f 67 71 584
f 68 78 69
f 69 78 79
f 69 79 85
f 69 85 80
f 70 72 73
f 70 73 71
f 70 80 81
f 70 81 72
f 72 74 75
f 72 75 73
f 72 81 82
f 72 82 74
f 74 76 75
f 78 83 79
f 79 83 84
f 79 84 86
f 79 86 85
f 80 85 87
f 80 87 81
f 81 87 88
f 81 88 82
f 83 89 84
f 84 89 90
f 84 90 91
f 84 91 86
f 85 86 92
f 85 92 87
f 86 91 93
f 86 93 92
f 87 92 94
f 87 94 88
f 89 95 90
f 90 95 96
f 90 96 97
f 90 97 91
f 91 97 98
f 91 98 93
f 92 93 99
f 92 99 94
f 93 98 100
f 93 100 99
f 95 101 96
f 96 101 102
f 96 102 103
f 96 103 97
f 97 103 104
f 97 104 98
f 98 104 105
f 98 105 100
f 100 105 106
f 101 107 102
f 102 107 108
f 102 108 109
f 102 109 103
f 103 109 110
f 103 110 104
f 104 110 111
f 104 111 105
f 105 111 112
f 105 112 106
f 107 113 108
f 108 113 114
f 108 114 115
f 108 115 109
f 109 115 116
f 109 116 110
f 110 116 117
f 110 117 111
f 111 117 118
f 111 118 112
f 112 118 119
f 113 120 114
f 114 120 121
f 114 121 122
f 114 122 115
f 115 122 123
f 115 123 116
f 116 123 124
f 116 124 117
f 117 124 125
f 117 125 118
f 118 126 119
f 118 125 126
f 120 127 121
f 121 127 128
f 121 128 129
f 121 129 122
f 122 129 130
f 122 130 123
f 123 130 131
f 123 131 124
f 124 131 132
f 124 132 125
f 125 133 126
f 125 132 133
f 127 134 128
f 128 134 135
f 128 135 136
f 128 136 129
f 129 136 137
f 129 137 130
f 130 137 138
f 130 138 131
f 131 138 139
f 131 139 132
f 132 140 133
f 132 139 140
f 134 141 135
f 135 141 142
f 135 142 143
f 135 143 136
f 136 143 144
f 136 144 137
f 137 144 145
f 137 145 138
f 138 145 146
f 138 146 139
f 139 147 140
f 139 146 147
f 141 148 142
f 142 148 149
f 142 149 150
f 142 150 143
f 143 150 151
f 143 151 144
f 144 151 152
f 144 152 145
f 145 152 153
f 145 153 146
f 146 154 147
f 146 153 154
f 148 155 149
f 149 155 156
f 149 156 157
f 149 157 150
f 150 157 158
f 150 158 151
f 151 158 159
f 151 159 152
f 152 159 160
f 152 160 153
f 153 161 154
f 153 160 161
f 155 162 156
f 156 162 163
f 156 163 164
f 156 164 157
f 157 164 165
f 157 165 158
f 158 165 166
f 158 166 159
f 159 166 167
f 159 167 160
f 160 168 161
f 160 167 168
f 162 169 163
f 163 169 170
f 163 170 171
f 163 171 164
f 164 171 172
f 164 172 165
f 165 172 173
f 165 173 166
f 166 173 174
f 166 174 167
f 167 175 168
f 167 174 175
f 169 176 170
f 170 176 177
f 170 177 178
f 170 178 171
f 171 178 179
f 171 179 172
f 172 179 180
f 172 180 173
f 173 180 181
f 173 181 174
f 174 182 175
f 174 181 182
f 176 183 177
f 177 183 184
f 177 184 185
f 177 185 178
f 178 185 186
f 178 186 179
f 179 186 187
f 179 187 180
f 180 187 188
f 180 188 181
f 181 189 182
f 181 188 189
f 183 190 184
f 184 191 185
f 185 191 192
f 185 192 186
f 186 192 193
f 186 193 187
f 187 193 194
f 187 194 188
f 188 195 189
f 188 194 195
f 196 197 198
f 196 198 199
f 196 200 197
f 197 200 201
f 198 248 199
f 199 248 247
f 200 202 201
f 201 202 203
f 202 204 203
f 203 204 205
f 204 206 205
f 205 206 207
f 206 208 207
f 207 208 209
f 208 210 209
f 209 210 211
f 210 212 211
f 211 212 213
f 212 214 213
f 213 214 215
f 214 216 215
f 215 216 217
f 216 218 217
f 217 218 219
f 218 220 219
f 219 220 221
f 220 222 221
f 221 222 223
f 222 589 223
f 224 225 226
f 224 227 225
f 225 227 228
f 227 229 228
f 228 229 230
f 229 231 230
f 230 231 232
f 231 233 232
f 232 233 234
f 233 235 234
f 234 235 236
f 235 237 236
f 236 237 238
f 237 239 238
f 238 239 240
f 239 241 240
f 240 241 242
f 241 243 242
f 242 243 244
f 243 245 244
f 244 245 246
f 245 247 246
f 246 247 248
f 249 250 251
f 249 649 648
f 249 251 649
f 250 590 251
f 251 590 591
f 252 253 254
f 252 254 255
f 252 256 253
f 253 256 257
f 254 650 255
f 256 258 257
f 257 258 259
f 258 260 259
f 259 260 261
f 260 262 261
f 261 262 263
f 262 264 263
f 263 264 265
f 264 266 265
f 265 266 267
f 266 268 267
f 267 268 269
f 268 270 269
f 269 270 271
f 270 272 271
f 271 272 273
f 272 274 273
f 273 274 275
f 274 276 275
f 275 276 278
f 276 277 278
f 276 279 277
f 277 279 280
f 279 281 280
f 280 281 282
f 281 283 282
f 282 283 284
f 283 285 284
f 284 285 286
f 285 287 286
f 286 287 288
f 287 289 288
f 288 289 290
f 289 291 290
f 290 291 292
f 291 293 292
f 292 293 294
f 293 295 294
f 294 295 296
f 295 297 296
f 296 297 298
f 297 299 298
f 298 299 300
f 299 651 300
f 300 651 652
f 301 302 303
f 301 303 304
f 301 305 302
f 301 304 541
f 302 305 406
f 302 407 303
f 302 406 415
f 302 415 407
f 303 407 409
f 303 409 304
f 304 534 541
f 304 409 542
f 304 542 534
f 305 413 406
f 306 307 308
f 306 414 413
f 306 418 414
f 306 308 418
f 307 309 310
f 307 310 308
f 308 310 422
f 308 422 423
f 308 423 418
f 309 311 312
f 309 312 310
f 310 312 430
f 310 430 422
f 311 434 312
f 311 442 434
f 312 434 435
f 312 435 430
f 313 314 315
f 313 446 445
f 313 453 446
f 313 315 453
f 314 316 317
f 314 317 315
f 315 317 457
f 315 457 458
f 315 458 453
f 316 318 319
f 316 319 317
f 317 319 463
f 317 463 457
f 318 466 319
f 318 471 470
f 318 470 466
f 319 466 467
f 319 467 463
f 320 321 322
f 320 480 479
f 320 484 480
f 320 322 484
f 321 323 324
f 321 324 322
f 322 324 488
f 322 488 489
f 322 489 484
f 323 325 326
f 323 326 324
f 324 326 494
f 324 494 488
f 325 497 326
f 325 502 501
f 325 501 497
f 326 497 498
f 326 498 494
f 327 328 329
f 327 511 510
f 327 515 511
f 327 329 515
f 328 330 331
f 328 331 329
f 329 331 519
f 329 519 520
f 329 520 515
f 330 332 333
f 330 333 331
f 331 333 525
f 331 525 519
f 332 528 333
f 332 533 532
f 332 532 528
f 333 528 529
f 333 529 525
f 334 335 336
f 334 337 335
f 334 336 404
f 335 337 338
f 335 540 539
f 335 338 540
f 335 539 336
f 336 539 544
f 336 544 405
f 336 405 404
f 337 339 338
f 338 339 340
f 338 340 531
f 338 531 540
f 339 341 340
f 340 341 342
f 340 527 531
f 340 342 527
f 341 343 342
f 342 343 344
f 342 344 524
f 342 524 527
f 343 345 344
f 344 345 346
f 344 522 524
f 344 346 522
f 345 347 346
f 346 347 348
f 346 348 518
f 346 518 522
f 347 349 348
f 348 349 350
f 348 514 518
f 348 350 514
f 349 351 350
f 350 351 352
f 350 508 514
f 350 352 508
f 351 353 352
f 352 353 354
f 352 509 508
f 352 354 509
f 353 355 354
f 354 355 356
f 354 356 500
f 354 500 509
f 355 357 356
f 356 357 358
f 356 496 500
f 356 358 496
f 357 359 358
f 358 359 360
f 358 360 493
f 358 493 496
f 359 361 360
f 360 361 362
f 360 491 493
f 360 362 491
f 361 363 362
f 362 363 364
f 362 364 487
f 362 487 491
f 363 365 364
f 364 365 366
f 364 483 487
f 364 366 483
f 365 367 366
f 366 367 368
f 366 477 483
f 366 368 477
f 367 369 368
f 368 369 370
f 368 478 477
f 368 370 478
f 369 371 370
f 370 371 372
f 370 372 469
f 370 469 478
f 371 373 372
f 372 373 374
f 372 465 469
f 372 374 465
f 373 375 374
f 374 375 376
f 374 376 462
f 374 462 465
f 375 377 376
f 376 377 378
f 376 460 462
f 376 378 460
f 377 379 378
f 378 379 380
f 378 380 456
f 378 456 460
f 379 381 380
f 380 381 382
f 380 451 456
f 380 382 451
f 381 383 382
f 382 383 384
f 382 452 451
f 382 384 452
f 383 385 384
f 384 385 386
f 384 386 678
f 384 678 452
f 385 677 386
f 387 388 389
f 387 389 438
f 388 390 391
f 388 391 389
f 389 432 437
f 389 437 438
f 389 391 432
f 390 392 393
f 390 393 391
f 391 433 432
f 391 393 433
f 392 394 395
f 392 395 393
f 393 427 433
f 393 395 427
f 394 396 397
f 394 397 395
f 395 429 427
f 395 397 429
f 396 398 399
f 396 399 397
f 397 399 421
f 397 421 429
f 398 400 401
f 398 401 399
f 399 417 421
f 399 401 417
f 400 402 403
f 400 403 401
f 401 410 417
f 401 403 410
f 402 404 405
f 402 405 403
f 403 412 410
f 403 405 412
f 405 544 412
f 406 413 414
f 406 414 419
f 406 419 415
f 407 408 409
f 407 415 416
f 407 416 408
f 408 410 411
f 408 411 409
f 408 416 417
f 408 417 410
f 409 411 542
f 410 412 411
f 411 543 542
f 411 412 543
f 412 544 543
f 414 426 419
f 414 418 426
f 415 419 420
f 415 420 416
f 416 420 421
f 416 421 417
f 418 423 426
f 419 428 420
f 419 426 428
f 420 429 421
f 420 428 429
f 422 424 423
f 422 430 431
f 422 431 424
f 423 425 426
f 423 424 425
f 424 431 432
f 424 433 425
f 424 432 433
f 425 427 428
f 425 428 426
f 425 433 427
f 427 429 428
f 430 435 436
f 430 436 431
f 431 436 437
f 431 437 432
f 434 441 435
f 434 442 441
f 435 440 436
f 435 441 440
f 436 439 437
f 436 440 439
f 437 439 438
f 443 444 445
f 443 445 446
f 443 446 447
f 443 447 448
f 443 681 444
f 443 448 681
f 444 681 682
f 446 453 454
f 446 454 447
f 447 449 448
f 447 454 455
f 447 455 449
f 448 449 450
f 448 680 681
f 448 450 680
f 449 451 450
f 449 455 456
f 449 456 451
f 450 451 452
f 450 679 680
f 450 452 679
f 452 678 679
f 453 458 454
f 454 461 455
f 454 458 461
f 455 460 456
f 455 461 460
f 457 459 458
f 457 463 464
f 457 464 459
f 458 459 461
f 459 464 465
f 459 462 461
f 459 465 462
f 460 461 462
f 463 467 468
f 463 468 464
f 464 468 469
f 464 469 465
f 466 474 467
f 466 470 474
f 467 476 468
f 467 474 476
f 468 478 469
f 468 476 478
f 470 471 472
f 470 472 473
f 470 473 474
f 471 479 472
f 472 479 480
f 472 480 481
f 472 481 473
f 473 475 474
f 473 481 482
f 473 482 475
f 474 475 476
f 475 477 476
f 475 482 483
f 475 483 477
f 476 477 478
f 480 484 485
f 480 485 481
f 481 485 486
f 481 486 482
f 482 486 487
f 482 487 483
f 484 489 485
f 485 492 486
f 485 489 492
f 486 491 487
f 486 492 491
f 488 490 489
f 488 494 495
f 488 495 490
f 489 490 492
f 490 495 496
f 490 493 492
f 490 496 493
f 491 492 493
f 494 498 499
f 494 499 495
f 495 499 500
f 495 500 496
f 497 505 498
f 497 501 505
f 498 507 499
f 498 505 507
f 499 509 500
f 499 507 509
f 501 502 503
f 501 503 504
f 501 504 505
f 502 510 503
f 503 510 511
f 503 511 512
f 503 512 504
f 504 506 505
f 504 512 513
f 504 513 506
f 505 506 507
f 506 508 507
f 506 513 514
f 506 514 508
f 507 508 509
f 511 515 516
f 511 516 512
f 512 516 517
f 512 517 513
f 513 517 518
f 513 518 514
f 515 520 516
f 516 523 517
f 516 520 523
f 517 522 518
f 517 523 522
f 519 521 520
f 519 525 526
f 519 526 521
f 520 521 523
f 521 526 527
f 521 524 523
f 521 527 524
f 522 523 524
f 525 529 530
f 525 530 526
f 526 530 531
f 526 531 527
f 528 536 529
f 528 532 536
f 529 538 530
f 529 536 538
f 530 540 531
f 530 538 540
f 532 533 534
f 532 534 535
f 532 535 536
f 533 541 534
f 534 542 535
f 535 537 536
f 535 542 543
f 535 543 537
f 536 537 538
f 537 539 538
f 537 543 544
f 537 544 539
f 538 539 540
f 545 546 547
f 545 547 548
f 545 549 550
f 545 551 552
f 545 552 549
f 545 553 546
f 545 548 551
f 546 553 558
f 549 575 550
f 550 570 569
f 550 575 576
f 550 577 570
f 550 576 577
f 553 554 555
f 553 555 556
f 553 557 558
f 553 559 554
f 553 556 557
f 554 559 563
f 559 560 561
f 559 561 562
f 559 564 560
f 559 562 563
f 560 564 568
f 564 565 566
f 564 566 567
f 564 569 565
f 564 567 568
f 565 569 574
f 569 570 571
f 569 571 572
f 569 573 574
f 569 572 573
f 578 579 580
f 579 757 580
f 580 757 758
f 581 582 583
f 582 782 583
f 583 782 783
f 590 592 591
f 591 592 593
f 592 594 593
f 593 594 595
f 594 596 595
f 595 596 597
f 595 597 598
f 597 599 598
f 598 599 600
f 599 601 600
f 600 601 602
f 601 603 602
f 602 603 604
f 602 604 605
f 604 606 605
f 605 606 607
f 606 608 607
f 607 608 609
f 608 610 609
f 609 610 611
f 609 611 612
f 611 613 612
f 612 613 614
f 613 615 614
f 614 615 616
f 615 617 616
f 616 617 618
f 616 618 619
f 618 620 619
f 619 620 621
f 620 622 621
f 621 622 623
f 622 624 623
f 623 624 625
f 623 625 626
f 625 627 626
f 626 627 628
f 627 629 628
f 628 629 630
f 629 631 630
f 630 631 632
f 630 632 633
f 632 634 633
f 633 634 635
f 634 636 635
f 635 636 637
f 636 638 637
f 637 638 639
f 637 639 640
f 639 641 640
f 640 641 642
f 641 643 642
f 642 643 644
f 643 645 644
f 644 645 646
f 644 646 647
f 646 648 647
f 647 648 649
f 653 654 655
f 654 656 655
f 654 657 656
f 656 657 658
f 657 659 658
f 658 659 660
f 659 661 660
f 660 661 662
f 661 663 662
f 662 663 664
f 663 665 664
f 664 665 666
f 665 667 666
f 666 667 668
f 667 669 668
f 668 669 670
f 669 671 670
f 670 671 672
f 671 673 672
f 672 673 674
f 673 675 674
f 674 675 676
f 683 684 685
f 683 686 684
f 683 756 686
f 684 687 685
f 685 687 688
f 686 756 755
f 687 689 688
f 688 689 690
f 689 691 690
f 690 691 692
f 691 693 692
f 692 693 694
f 693 695 694
f 694 695 696
f 695 697 696
f 696 697 698
f 697 699 698
f 698 699 700
f 699 701 700
f 700 701 702
f 701 703 702
f 702 703 704
f 703 705 704
f 704 705 706
f 705 707 706
f 706 707 708
f 707 709 708
f 708 709 710
f 709 711 710
f 710 711 712
f 711 713 712
f 712 713 714
f 713 715 714
f 714 715 716
f 715 717 716
f 716 717 718
f 717 719 718
f 718 719 720
f 719 721 720
f 720 721 722
f 721 723 722
f 724 725 726
f 725 727 726
f 726 727 728
f 727 729 728
f 728 729 730
f 729 731 730
f 730 731 732
f 731 733 732
f 732 733 734
f 733 735 734
f 734 735 736
f 735 737 736
f 736 737 738
f 737 739 738
f 738 739 740
f 739 741 740
f 740 741 742
f 741 743 742
f 742 743 744
f 743 745 744
f 744 745 746
f 745 747 746
f 746 747 748
f 747 749 748
f 748 749 750
f 749 751 750
f 750 751 752
f 751 753 752
f 752 753 754
f 753 755 754
f 754 755 756
f 757 759 758
f 758 759 760
f 761 762 763
f 762 764 763
f 763 764 765
f 764 766 765
f 765 766 767
f 768 769 770
f 769 771 770
f 770 771 772
f 771 773 772
f 772 773 774
f 775 776 777
f 776 778 777
f 777 778 779
f 778 780 779
f 779 780 781
f 782 784 783
f 783 784 785
f 786 787 788
f 787 789 788
f 788 789 790
f 789 791 790
f 790 791 792
f 793 794 795
f 793 796 794
f 795 797 798
f 796 801 804
f 798 835 834
f 799 800 801
f 799 802 803
f 802 805 803
f 805 808 811
f 806 807 808
f 806 809 810
f 809 812 810
f 812 815 818
f 813 814 815
f 813 816 817
f 816 819 817
f 819 822 825
f 820 821 822
f 820 823 824
f 823 826 824
f 827 828 829
f 827 830 831
f 829 832 833
f 830 834 831