# Forged Hexagon Socket Button Head Cap Screw - Metric M3 x 0.5 x 6
# Autodesk dbId: 155
# Units: mm
o 155_Forged_Hexagon_Socket_Button_Head_Cap_Screw_-_Metric_M3_x_0.5_x_6
v -5.109999 15.555330 -93.993651
v -5.446019 15.479422 -93.902535
v -5.122940 15.566497 -94.013382
v -4.839326 15.695800 -94.177984
v -5.451113 15.464435 -93.877940
v -6.659998 17.135128 -96.166607
v -6.949085 17.000933 -95.995778
v -6.932575 17.033809 -95.995731
v -7.177784 16.827901 -95.775509
v -7.152172 16.876177 -95.795065
v -7.332803 16.626087 -95.518600
v -7.309481 16.692310 -95.561004
v -7.405134 16.407220 -95.239984
v -7.396614 16.491430 -95.305285
v -7.390574 16.184020 -94.955851
v -7.409202 16.283609 -95.040729
v -7.289968 15.969458 -94.682714
v -7.346614 16.079268 -94.780604
v -7.109163 15.776005 -94.436448
v -6.858667 15.614901 -94.231364
v -7.012074 15.721325 -94.324943
v -6.553037 15.495512 -94.079382
v -6.756898 15.585671 -94.152256
v -6.210037 15.424774 -93.989333
v -6.459255 15.488495 -94.028551
v -5.849600 15.406799 -93.966451
v -6.134070 15.434669 -93.960032
v -5.492672 15.442632 -94.012066
v -5.797649 15.426893 -93.950133
v -5.159999 15.530190 -94.123527
v -5.466861 15.465556 -93.999351
v -7.273225 15.922419 -94.466469
v -7.252338 15.922013 -94.482123
v -7.063909 15.747220 -94.243441
v -5.792364 15.438940 -93.851002
v -5.453128 15.485802 -93.926829
v -5.459233 15.485531 -93.952210
v -5.134999 15.571544 -94.035978
v -5.463917 15.478625 -93.976945
v -5.145354 15.570127 -94.059900
v -5.153300 15.562342 -94.083516
v -5.158295 15.548720 -94.105219
v -5.816967 15.424584 -93.827211
v -6.144609 15.447082 -93.861366
v -5.794167 15.445941 -93.876086
v -5.795715 15.446202 -93.902144
v -5.796902 15.439705 -93.927400
v -6.187836 15.437928 -93.844197
v -6.485088 15.503439 -93.933109
v -6.141014 15.453958 -93.886292
v -6.137927 15.454112 -93.912213
v -6.135559 15.447533 -93.937365
v -6.543726 15.503746 -93.927984
v -6.796731 15.605186 -94.062632
v -6.476277 15.509452 -93.956935
v -6.468711 15.508864 -93.981913
v -6.462905 15.501716 -94.006340
v -6.865452 15.618491 -94.074053
v -6.783145 15.609640 -94.084474
v -6.771478 15.607713 -94.107747
v -6.762526 15.599538 -94.130867
v -7.135670 15.775976 -94.274531
v -7.046229 15.749498 -94.262512
v -7.031047 15.745703 -94.283407
v -7.019397 15.736093 -94.304701
v -7.414183 16.121999 -94.720533
v -7.339811 15.967711 -94.518609
v -7.466870 16.183360 -94.793130
v -7.479715 16.335951 -94.992893
v -7.391136 16.118534 -94.732295
v -7.273225 15.922419 -94.466469
v -7.371346 16.109808 -94.746912
v -7.252338 15.922013 -94.482123
v -7.356160 16.096415 -94.763390
v -7.234402 15.915913 -94.500084
v -7.220639 15.904535 -94.519126
v -7.211987 15.888654 -94.537953
v -7.509998 16.411297 -95.083293
v -7.466535 16.553546 -95.269891
v -7.455664 16.329208 -95.000482
v -7.435012 16.317667 -95.011516
v -7.419164 16.302114 -95.025243
v -7.466870 16.639235 -95.373457
v -7.375304 16.763874 -95.537638
v -7.442686 16.543470 -95.273236
v -7.352853 16.750575 -95.536881
v -7.422207 16.529066 -95.280626
v -7.406492 16.511316 -95.291557
v -7.339811 16.854884 -95.647977
v -7.210596 16.956389 -95.782708
v -7.190669 16.940140 -95.778196
v -7.333574 16.733404 -95.540748
v -7.173557 16.920436 -95.778838
v -7.318780 16.713531 -95.548976
v -7.135670 17.046619 -95.892056
v -6.980671 17.121435 -95.992812
v -6.964266 17.102658 -95.985080
v -6.950179 17.080782 -95.982959
v -7.160426 16.898619 -95.784592
v -6.939370 17.057299 -95.986591
v -6.865452 17.204104 -96.092534
v -6.697057 17.250738 -96.157415
v -6.684998 17.229980 -96.147161
v -6.674643 17.206403 -96.142873
v -6.666697 17.181614 -96.144844
v -6.661702 17.157304 -96.152940
v -6.543726 17.318849 -96.238603
v -6.373978 17.337814 -96.268261
v -6.366869 17.315721 -96.256309
v -6.360764 17.290998 -96.250563
v -6.356080 17.265331 -96.251415
v -6.353136 17.240468 -96.258807
v -6.187836 17.384667 -96.322389
v -6.027632 17.378296 -96.319795
v -6.025830 17.355583 -96.307053
v -6.024282 17.330327 -96.300629
v -6.023095 17.304251 -96.300961
v -6.022348 17.279131 -96.308026
v -6.327325 17.222686 -96.278068
v -5.816967 17.398010 -96.339376
v -5.675388 17.370154 -96.309430
v -5.678983 17.347565 -96.296847
v -5.682070 17.322417 -96.290560
v -5.684438 17.296424 -96.290996
v -5.685927 17.271355 -96.298126
v -5.970397 17.258519 -96.323684
v -5.451113 17.358160 -96.288646
v -5.334909 17.313796 -96.237688
v -5.343720 17.292072 -96.226204
v -5.351286 17.267665 -96.220860
v -5.357092 17.242240 -96.222021
v -5.360742 17.217529 -96.229607
v -5.609960 17.240544 -96.300802
v -5.109998 17.267264 -96.172936
v -5.023266 17.212050 -96.108164
v -5.036852 17.191884 -96.098665
v -5.048519 17.168816 -96.095026
v -5.057471 17.144418 -96.097494
v -5.063099 17.120353 -96.105902
v -5.266960 17.169806 -96.210753
v -4.812012 17.130223 -95.998483
v -4.756088 17.070015 -95.927355
v -4.773768 17.052026 -95.920626
v -4.788950 17.030827 -95.919366
v -4.800600 17.007863 -95.923659
v -4.807923 16.984699 -95.933215
v -4.961330 17.050417 -96.058770
v -4.573218 16.954424 -95.774691
v -4.546772 16.894816 -95.704327
v -4.567659 16.879511 -95.701015
v -4.585595 16.860617 -95.702689
v -4.599358 16.839422 -95.709234
v -4.608010 16.817370 -95.720205
v -4.710834 16.889313 -95.853687
v -4.406490 16.749345 -95.513627
v -4.405814 16.695236 -95.450263
v -4.428861 16.682989 -95.450844
v -4.448651 16.666721 -95.455861
v -4.463837 16.647541 -95.464971
v -4.473383 16.626756 -95.477554
v -4.530029 16.695860 -95.607420
v -4.320817 16.526042 -95.229363
v -4.340282 16.481285 -95.177903
v -4.364333 16.472316 -95.182657
v -4.384985 16.458862 -95.191257
v -4.400833 16.441842 -95.203117
v -4.410795 16.422415 -95.217429
v -4.429423 16.481298 -95.334284
v -4.320817 16.296553 -94.937224
v -4.353462 16.263689 -94.900905
v -4.377311 16.258054 -94.909903
v -4.397790 16.247464 -94.922147
v -4.413504 16.232640 -94.936804
v -4.423383 16.214594 -94.952873
v -4.414863 16.258098 -95.050151
v -4.406490 16.073249 -94.652960
v -4.444693 16.053361 -94.633158
v -4.467144 16.050948 -94.646258
v -4.486423 16.043125 -94.662025
v -4.501217 16.030425 -94.679385
v -4.510516 16.013714 -94.697154
v -4.487194 16.039231 -94.771534
v -4.573218 15.868171 -94.391895
v -4.609401 15.860847 -94.388088
v -4.629328 15.861384 -94.404943
v -4.646440 15.856094 -94.423935
v -4.659571 15.845337 -94.443768
v -4.667825 15.829848 -94.463093
v -4.642213 15.837417 -94.514626
v -4.812012 15.692372 -94.168104
v -4.855731 15.698866 -94.198058
v -4.869818 15.695747 -94.219814
v -4.880627 15.686657 -94.241769
v -4.887422 15.672215 -94.262427
v -4.870912 15.664385 -94.294357
v -5.159999 11.131741 -97.578721
v -4.870912 15.664385 -94.294357
v -5.159999 15.530190 -94.123527
v -5.492672 11.044183 -97.467260
v -4.870912 11.265935 -97.749550
v -4.642213 15.837417 -94.514626
v -4.642214 11.438968 -97.969820
v -4.487194 16.039231 -94.771534
v -4.487194 11.640781 -98.226728
v -4.414863 16.258098 -95.050151
v -4.414863 11.859648 -98.505345
v -4.429423 16.481298 -95.334284
v -4.429423 12.082849 -98.789478
v -4.530029 16.695860 -95.607420
v -4.530029 12.297410 -99.062614
v -4.710834 16.889313 -95.853687
v -4.710834 12.490864 -99.308880
v -4.961330 17.050417 -96.058770
v -4.961330 12.651967 -99.513964
v -5.266960 17.169806 -96.210753
v -5.266960 12.771357 -99.665947
v -5.609960 17.240544 -96.300802
v -5.609960 12.842095 -99.755995
v -5.970397 17.258519 -96.323684
v -5.970397 12.860069 -99.778877
v -6.327325 17.222686 -96.278068
v -6.327325 12.824236 -99.733262
v -6.659998 17.135128 -96.166607
v -6.659999 12.736679 -99.621801
v -6.949085 17.000933 -95.995778
v -6.659998 17.135128 -96.166607
v -6.949085 12.602484 -99.450972
v -7.177784 16.827901 -95.775509
v -7.177784 12.429452 -99.230702
v -7.332803 16.626087 -95.518600
v -7.332803 12.227638 -98.973794
v -7.405134 16.407220 -95.239984
v -7.405135 12.008771 -98.695177
v -7.390574 16.184020 -94.955851
v -7.390574 11.785571 -98.411044
v -7.289968 15.969458 -94.682714
v -7.289968 11.571009 -98.137908
v -7.109163 15.776005 -94.436448
v -7.109163 11.377555 -97.891642
v -6.858667 15.614901 -94.231364
v -6.858667 11.216452 -97.686558
v -6.553037 15.495512 -94.079382
v -6.553037 11.097063 -97.534575
v -6.210037 15.424774 -93.989333
v -6.210037 11.026325 -97.444527
v -5.849600 15.406799 -93.966451
v -5.849600 11.008350 -97.421645
v -5.492672 15.442632 -94.012066
v -4.078054 15.062629 -93.366443
v -4.484999 14.886606 -93.142367
v -5.109999 15.555330 -93.993651
v -5.066226 11.171773 -98.126210
v -4.642214 11.438968 -97.969820
v -4.870912 11.265935 -97.749550
v -5.313361 11.054629 -97.977086
v -4.876592 11.324439 -98.320553
v -4.487194 11.640781 -98.226728
v -4.757384 11.502222 -98.546870
v -4.414863 11.859648 -98.505345
v -4.716724 11.693006 -98.789738
v -4.429423 12.082849 -98.789478
v -4.757383 11.883791 -99.032606
v -4.530029 12.297410 -99.062614
v -4.876592 12.061573 -99.258923
v -4.710834 12.490864 -99.308880
v -5.066226 12.214239 -99.453265
v -4.961330 12.651967 -99.513964
v -5.313361 12.331384 -99.602390
v -5.266960 12.771357 -99.665947
v -5.601156 12.405024 -99.696133
v -5.609960 12.842095 -99.755995
v -5.909999 12.430141 -99.728108
v -5.970397 12.860069 -99.778877
v -6.218841 12.405024 -99.696133
v -6.327325 12.824236 -99.733262
v -6.506636 12.331384 -99.602390
v -6.949085 12.602484 -99.450972
v -6.659999 12.736679 -99.621801
v -6.753771 12.214239 -99.453265
v -7.177784 12.429452 -99.230702
v -6.943405 12.061574 -99.258923
v -7.332803 12.227638 -98.973794
v -7.062614 11.883791 -99.032606
v -7.405135 12.008771 -98.695177
v -7.103274 11.693006 -98.789738
v -7.390574 11.785571 -98.411044
v -7.062614 11.502222 -98.546870
v -7.289968 11.571009 -98.137908
v -6.943405 11.324439 -98.320553
v -7.109163 11.377555 -97.891642
v -6.753771 11.171773 -98.126210
v -6.858667 11.216452 -97.686558
v -6.506636 11.054629 -97.977086
v -6.553037 11.097063 -97.534575
v -6.218841 10.980989 -97.883342
v -6.210037 11.026325 -97.444527
v -5.909999 10.955872 -97.851368
v -5.849600 11.008350 -97.421645
v -5.601156 10.980989 -97.883342
v -5.492672 11.044183 -97.467260
v -5.119998 16.863560 -92.987999
v -5.257185 16.566822 -92.680305
v -4.955648 16.653682 -92.790878
v -4.683110 16.771568 -92.940946
v -5.456849 16.773800 -92.873735
v -6.184363 16.747625 -92.840414
v -6.535804 16.812620 -92.923153
v -6.562812 16.566823 -92.680306
v -6.853509 16.925931 -93.067396
v -6.864349 16.653682 -92.790878
v -7.120349 17.081447 -93.265368
v -7.136887 16.771568 -92.940946
v -7.489998 17.708827 -94.064021
v -7.447409 17.933915 -94.350557
v -7.789701 17.879543 -94.351393
v -7.321938 18.146869 -94.621647
v -7.703590 18.078067 -94.604114
v -7.120349 18.336207 -94.862674
v -7.562981 18.264338 -94.841237
v -6.184362 18.670029 -95.287628
v -5.818130 18.683206 -95.304402
v -5.909998 18.853879 -95.591720
v -5.456849 18.643854 -95.254307
v -5.578556 18.835966 -95.568917
v -5.119998 18.554094 -95.140043
v -5.257184 18.782772 -95.501201
v -4.425284 18.042649 -94.488975
v -4.340682 17.822137 -94.208264
v -4.030296 17.879542 -94.351393
v -4.340682 17.595517 -93.919777
v -4.001298 17.674797 -94.090753
v -4.425284 17.375005 -93.639067
v -4.030296 17.470051 -93.830113
v -4.078054 15.361454 -93.131702
v -3.759922 15.854122 -93.226766
v -4.105870 15.640416 -92.954719
v -3.726772 15.578455 -93.407944
v -3.479303 16.101691 -93.541921
v -3.441826 15.829841 -93.727958
v -3.272539 16.375601 -93.890608
v -3.231875 16.107975 -94.082020
v -3.145913 16.667530 -94.262231
v -3.103297 16.404404 -94.459373
v -3.103273 16.968606 -94.645500
v -3.059999 16.710122 -94.848552
v -3.145913 17.269682 -95.028769
v -3.103296 17.015840 -95.237730
v -3.272539 17.561610 -95.400393
v -3.231875 17.312269 -95.615083
v -3.479303 17.835520 -95.749079
v -3.441826 17.590403 -95.969146
v -3.759922 18.083090 -96.064234
v -3.726772 17.841789 -96.289160
v -4.105870 18.296796 -96.336282
v -4.078054 18.058790 -96.565401
v -4.506635 18.470146 -96.556955
v -4.484998 18.234813 -96.789478
v -4.950042 18.597872 -96.719550
v -4.935241 18.364509 -96.954580
v -5.422616 18.676094 -96.819127
v -5.415101 18.443937 -97.055691
v -5.909998 18.702435 -96.852659
v -5.909998 18.470683 -97.089740
v -6.397381 18.676095 -96.819127
v -6.404896 18.443937 -97.055691
v -6.869955 18.597873 -96.719551
v -6.884756 18.364509 -96.954580
v -7.313361 18.470146 -96.556955
v -7.334998 18.234813 -96.789478
v -7.714127 18.296796 -96.336282
v -7.741943 18.058790 -96.565402
v -8.060075 18.083090 -96.064234
v -8.093225 17.841789 -96.289160
v -8.340694 17.835521 -95.749080
v -8.378171 17.590403 -95.969146
v -8.547458 17.561611 -95.400393
v -8.588122 17.312270 -95.615083
v -8.674084 17.269683 -95.028769
v -8.716700 17.015841 -95.237730
v -8.716724 16.968606 -94.645500
v -8.759998 16.710123 -94.848552
v -8.674084 16.667530 -94.262231
v -8.716701 16.404404 -94.459373
v -8.547458 16.375602 -93.890608
v -8.588122 16.107975 -94.082020
v -8.340694 16.101692 -93.541921
v -8.378171 15.829842 -93.727958
v -8.093225 15.578456 -93.407944
v -8.060075 15.854123 -93.226766
v -7.741943 15.361454 -93.131702
v -7.714127 15.640416 -92.954719
v -7.334999 15.185432 -92.907626
v -7.313361 15.467066 -92.734045
v -6.884756 15.055736 -92.742524
v -6.869955 15.339340 -92.571450
v -6.404896 14.976308 -92.641412
v -6.397381 15.261118 -92.471874
v -5.909999 14.949561 -92.607364
v -5.909998 15.234777 -92.438342
v -5.415101 14.976308 -92.641412
v -5.422616 15.261118 -92.471874
v -4.935241 15.055736 -92.742524
v -4.950042 15.339340 -92.571450
v -4.484999 15.185431 -92.907626
v -4.506636 15.467066 -92.734045
v -5.578556 16.513628 -92.612589
v -5.152424 16.289249 -92.532338
v -5.062464 15.977853 -92.462650
v -4.802499 16.390047 -92.660654
v -4.993435 15.653857 -92.475990
v -4.670986 16.090621 -92.606203
v -4.570072 15.775809 -92.631236
v -5.818130 16.734448 -92.823640
v -5.909998 16.495715 -92.589786
v -5.525368 16.227518 -92.453755
v -5.479694 15.908792 -92.374735
v -5.444647 15.579171 -92.380915
v -6.241441 16.513628 -92.612589
v -5.909998 16.206730 -92.427293
v -5.909998 15.885536 -92.345131
v -5.909999 15.554021 -92.348899
v -7.017498 16.390047 -92.660654
v -6.667573 16.289249 -92.532338
v -7.149011 16.090621 -92.606203
v -6.757533 15.977853 -92.462650
v -6.294629 16.227518 -92.453755
v -6.826562 15.653857 -92.475990
v -6.340303 15.908792 -92.374735
v -6.375350 15.579171 -92.380915
v -7.333773 16.526851 -92.834805
v -7.502843 16.243670 -92.801034
v -7.632574 15.941323 -92.841934
v -7.249925 15.775810 -92.631236
v -7.372148 16.916898 -93.125950
v -7.606787 16.695503 -93.049498
v -7.808276 16.432349 -93.041221
v -7.962884 16.145370 -93.101684
v -8.340694 16.101692 -93.541921
v -8.230818 16.381748 -93.402593
v -8.056031 16.650925 -93.319468
v -7.828245 16.890878 -93.298210
v -7.562981 17.085256 -93.340270
v -7.703590 17.271528 -93.577392
v -7.321938 17.270785 -93.506396
v -7.447409 17.483739 -93.777485
v -7.789701 17.470052 -93.830113
v -8.091348 17.337424 -93.866662
v -7.991418 17.107042 -93.573385
v -8.350377 17.150497 -93.955421
v -8.238581 16.892757 -93.627319
v -8.549138 16.922008 -94.090342
v -8.428236 16.643276 -93.735518
v -7.818698 17.674797 -94.090753
v -8.124998 17.575026 -94.169128
v -8.388024 17.416313 -94.293805
v -8.589851 17.209475 -94.456287
v -7.991417 18.043011 -94.764871
v -8.091347 17.812628 -94.471595
v -8.238581 17.939870 -94.960291
v -8.549138 17.496942 -94.822230
v -8.350377 17.682130 -94.632189
v -8.428236 17.775673 -95.177055
v -7.828245 18.259174 -95.040046
v -8.056031 18.181702 -95.268142
v -8.230818 18.037202 -95.509980
v -7.372147 18.432696 -95.055556
v -7.606787 18.454550 -95.288759
v -7.808276 18.400278 -95.546389
v -7.962884 18.273580 -95.810889
v -7.136887 18.578026 -95.240561
v -6.853509 18.491724 -95.060646
v -6.864348 18.695912 -95.390629
v -7.017498 18.760005 -95.677602
v -7.333773 18.623202 -95.503452
v -7.149011 18.742005 -95.981406
v -7.502842 18.588957 -95.786576
v -7.249924 18.643140 -96.281337
v -7.632574 18.477626 -96.070639
v -6.535804 18.605034 -95.204889
v -6.562812 18.782772 -95.501201
v -6.667573 18.860804 -95.805918
v -6.757533 18.854774 -96.124960
v -6.826562 18.765093 -96.436583
v -6.241441 18.835966 -95.568917
v -6.294629 18.922534 -95.884502
v -6.340303 18.923835 -96.212874
v -6.375350 18.839779 -96.531658
v -5.525368 18.922534 -95.884502
v -5.909998 18.943322 -95.910964
v -5.479694 18.923835 -96.212874
v -5.909998 18.864929 -96.563674
v -5.909999 18.947091 -96.242479
v -5.444647 18.839779 -96.531658
v -5.152424 18.860803 -95.805918
v -5.062464 18.854773 -96.124960
v -4.993435 18.765093 -96.436582
v -4.955648 18.695912 -95.390629
v -4.802498 18.760005 -95.677602
v -4.670986 18.742005 -95.981406
v -4.570072 18.643140 -96.281337
v -4.683110 18.578026 -95.240561
v -4.825737 18.418766 -94.967771
v -4.447849 18.432696 -95.055556
v -4.213210 18.454550 -95.288759
v -4.486224 18.623201 -95.503452
v -4.011721 18.400278 -95.546388
v -4.317154 18.588957 -95.786576
v -3.857112 18.273580 -95.810889
v -4.187422 18.477626 -96.070639
v -4.589928 18.245164 -94.746777
v -4.257016 18.264338 -94.841237
v -3.991752 18.259174 -95.040046
v -3.763965 18.181702 -95.268142
v -3.589178 18.037201 -95.509980
v -4.116407 18.078066 -94.604114
v -3.828579 18.043010 -94.764871
v -3.581416 17.939870 -94.960291
v -3.391761 17.775673 -95.177055
v -3.694999 17.575026 -94.169128
v -3.728649 17.812628 -94.471595
v -3.431973 17.416313 -94.293805
v -3.270859 17.496941 -94.822230
v -3.469620 17.682130 -94.632188
v -3.230146 17.209474 -94.456286
v -3.728649 17.337424 -93.866662
v -3.469620 17.150496 -93.955421
v -3.270859 16.922008 -94.090342
v -4.116407 17.271527 -93.577392
v -3.828579 17.107041 -93.573385
v -3.581416 16.892756 -93.627319
v -3.391761 16.643276 -93.735518
v -4.257016 17.085256 -93.340270
v -4.589928 17.172490 -93.381265
v -4.447849 16.916898 -93.125950
v -4.213210 16.695502 -93.049498
v -3.991752 16.890878 -93.298210
v -4.011721 16.432348 -93.041221
v -3.763966 16.650924 -93.319468
v -3.857113 16.145369 -93.101684
v -3.589178 16.381747 -93.402593
v -4.825737 16.998888 -93.160271
v -4.486224 16.526851 -92.834805
v -4.317154 16.243670 -92.801034
v -4.187423 15.941323 -92.841934
v -4.909999 17.352174 -93.610003
v -5.119998 16.863560 -92.987999
v -4.825737 16.998888 -93.160271
v -4.589928 17.172490 -93.381265
v -4.340682 17.822137 -94.208264
v -4.909999 18.065480 -94.518039
v -4.425284 17.375005 -93.639067
v -4.340682 17.595517 -93.919777
v -5.909998 16.995522 -93.155985
v -6.853509 16.925931 -93.067396
v -6.535804 16.812620 -92.923153
v -6.184363 16.747625 -92.840414
v -5.818130 16.734448 -92.823640
v -5.456849 16.773800 -92.873735
v -6.909998 17.352175 -93.610003
v -7.489998 17.708827 -94.064021
v -7.447409 17.483739 -93.777485
v -7.321938 17.270785 -93.506396
v -7.120349 17.081447 -93.265368
v -6.909998 18.065480 -94.518039
v -6.853509 18.491724 -95.060646
v -7.120349 18.336207 -94.862674
v -7.321938 18.146869 -94.621647
v -7.447409 17.933915 -94.350557
v -5.909998 18.422133 -94.972057
v -5.119998 18.554094 -95.140043
v -5.456849 18.643854 -95.254307
v -5.818130 18.683206 -95.304402
v -6.184362 18.670029 -95.287628
v -6.535804 18.605034 -95.204889
v -4.425284 18.042649 -94.488975
v -4.589928 18.245164 -94.746777
v -4.825737 18.418766 -94.967771
v -5.909998 17.604296 -95.614507
v -5.646290 17.456603 -95.536916
v -5.909998 18.422133 -94.972057
v -6.909998 17.247643 -95.160489
v -6.646290 17.288055 -95.322354
v -6.909998 18.065480 -94.518039
v -7.135670 15.775976 -94.274531
v -7.234402 15.915913 -94.500084
v -7.220639 15.904535 -94.519126
v -7.211987 15.888654 -94.537953
v -7.289968 15.969458 -94.682714
v -6.659999 12.736679 -99.621801
v -4.935241 14.756911 -92.977265
v -5.451113 15.464435 -93.877940
v -5.415101 14.677483 -92.876154
v -5.816967 15.424584 -93.827211
v -5.909999 14.650736 -92.842105
v -6.187836 15.437928 -93.844197
v -6.404896 14.677483 -92.876154
v -6.884756 14.756911 -92.977265
v -6.543726 15.503746 -93.927984
v -7.334999 14.886607 -93.142367
v -6.865452 15.618491 -94.074053
v -7.741943 15.062629 -93.366443
v -7.135670 15.775976 -94.274531
v -8.093225 15.279631 -93.642685
v -8.378171 15.531017 -93.962699
v -7.339811 15.967711 -94.518609
v -8.588122 15.809150 -94.316762
v -7.466870 16.183360 -94.793130
v -8.716701 16.105579 -94.694115
v -7.509998 16.411297 -95.083293
v -8.759998 16.411297 -95.083293
v -8.716700 16.717016 -95.472472
v -7.466870 16.639235 -95.373457
v -8.588122 17.013445 -95.849825
v -7.339811 16.854884 -95.647977
v -8.378171 17.291578 -96.203888
v -7.135670 17.046619 -95.892056
v -8.093225 17.542964 -96.523902
v -7.741943 17.759965 -96.800143
v -6.865452 17.204104 -96.092534
v -7.334998 17.935988 -97.024219
v -6.543726 17.318849 -96.238603
v -6.884756 18.065684 -97.189321
v -6.187836 17.384667 -96.322389
v -6.404896 18.145112 -97.290433
v -5.909998 18.171858 -97.324482
v -5.816967 17.398010 -96.339376
v -5.415101 18.145111 -97.290433
v -5.451113 17.358160 -96.288646
v -4.935241 18.065684 -97.189321
v -5.109998 17.267264 -96.172936
v -4.484998 17.935988 -97.024219
v -4.078054 17.759965 -96.800143
v -4.812012 17.130223 -95.998483
v -3.726772 17.542964 -96.523901
v -4.573218 16.954424 -95.774691
v -3.441826 17.291577 -96.203887
v -4.406490 16.749345 -95.513627
v -3.231875 17.013444 -95.849825
v -3.103296 16.717015 -95.472471
v -4.320817 16.526042 -95.229363
v -3.059999 16.411297 -95.083293
v -4.320817 16.296553 -94.937224
v -3.103297 16.105579 -94.694115
v -4.406490 16.073249 -94.652960
v -3.231875 15.809150 -94.316762
v -3.441826 15.531016 -93.962699
v -4.573218 15.868171 -94.391895
v -3.726772 15.279630 -93.642685
v -4.812012 15.692372 -94.168104
v -5.159999 11.131741 -97.578721
v -5.313361 11.054629 -97.977086
v -5.159999 11.131741 -97.578721
v -5.313361 11.054629 -97.977086
v -5.601156 10.980989 -97.883342
v -5.066226 11.171773 -98.126210
v -4.876592 11.324439 -98.320553
v -5.909999 10.955872 -97.851368
v -4.757384 11.502222 -98.546870
v -6.218841 10.980989 -97.883342
v -4.716724 11.693006 -98.789738
v -6.506636 11.054629 -97.977086
v -4.757383 11.883791 -99.032606
v -6.753771 11.171773 -98.126210
v -4.876592 12.061573 -99.258923
v -6.943405 11.324439 -98.320553
v -5.066226 12.214239 -99.453265
v -7.062614 11.502222 -98.546870
v -5.313361 12.331384 -99.602390
v -7.103274 11.693006 -98.789738
v -5.601156 12.405024 -99.696133
v -7.062614 11.883791 -99.032606
v -5.909999 12.430141 -99.728108
v -6.943405 12.061574 -99.258923
v -6.218841 12.405024 -99.696133
v -6.753771 12.214239 -99.453265
v -6.506636 12.331384 -99.602390
v -8.378171 15.829842 -93.727958
v -8.230818 16.381748 -93.402593
v -8.056031 16.650925 -93.319468
v -7.828245 16.890878 -93.298210
v -7.562981 17.085256 -93.340270
v -7.120349 17.081447 -93.265368
v -4.078054 15.062629 -93.366443
v -4.078054 15.361454 -93.131702
v -4.484999 14.886606 -93.142367
v -3.726772 15.578455 -93.407944
v -4.484999 15.185431 -92.907626
v -4.935241 14.756911 -92.977265
v -4.935241 15.055736 -92.742524
v -5.415101 14.677483 -92.876154
v -5.415101 14.976308 -92.641412
v -5.909999 14.650736 -92.842105
v -5.909999 14.949561 -92.607364
v -6.404896 14.677483 -92.876154
v -6.404896 14.976308 -92.641412
v -6.884756 14.756911 -92.977265
v -6.884756 15.055736 -92.742524
v -7.334999 14.886607 -93.142367
v -7.334999 15.185432 -92.907626
v -7.741943 15.062629 -93.366443
v -7.741943 15.361454 -93.131702
v -8.093225 15.279631 -93.642685
v -8.093225 15.578456 -93.407944
v -8.378171 15.531017 -93.962699
v -8.378171 15.829842 -93.727958
v -8.588122 15.809150 -94.316762
v -8.588122 16.107975 -94.082020
v -8.716701 16.105579 -94.694115
v -8.716701 16.404404 -94.459373
v -8.759998 16.411297 -95.083293
v -8.759998 16.710123 -94.848552
v -8.716700 16.717016 -95.472472
v -8.716700 17.015841 -95.237730
v -8.588122 17.013445 -95.849825
v -8.588122 17.312270 -95.615083
v -8.378171 17.291578 -96.203888
v -8.378171 17.590403 -95.969146
v -8.093225 17.542964 -96.523902
v -8.093225 17.841789 -96.289160
v -7.741943 17.759965 -96.800143
v -7.741943 18.058790 -96.565402
v -7.334998 17.935988 -97.024219
v -7.334998 18.234813 -96.789478
v -7.334998 17.935988 -97.024219
v -7.334998 18.234813 -96.789478
v -6.884756 18.065684 -97.189321
v -6.884756 18.364509 -96.954580
v -6.404896 18.145112 -97.290433
v -6.404896 18.443937 -97.055691
v -5.909998 18.171858 -97.324482
v -5.909998 18.470683 -97.089740
v -5.415101 18.145111 -97.290433
v -5.415101 18.443937 -97.055691
v -4.935241 18.065684 -97.189321
v -4.935241 18.364509 -96.954580
v -4.484998 17.935988 -97.024219
v -4.484998 18.234813 -96.789478
v -4.078054 17.759965 -96.800143
v -4.078054 18.058790 -96.565401
v -3.726772 17.542964 -96.523901
v -3.726772 17.841789 -96.289160
v -3.441826 17.291577 -96.203887
v -3.441826 17.590403 -95.969146
v -3.231875 17.013444 -95.849825
v -3.231875 17.312269 -95.615083
v -3.103296 16.717015 -95.472471
v -3.103296 17.015840 -95.237730
v -3.059999 16.411297 -95.083293
v -3.059999 16.710122 -94.848552
v -3.103297 16.105579 -94.694115
v -3.103297 16.404404 -94.459373
v -3.231875 15.809150 -94.316762
v -3.231875 16.107975 -94.082020
v -3.441826 15.531016 -93.962699
v -3.441826 15.829841 -93.727958
v -3.726772 15.279630 -93.642685
v -5.409998 17.355732 -95.442672
v -4.909999 18.065480 -94.518039
v -5.173706 17.288054 -95.322354
v -4.909999 17.247643 -95.160489
v -4.909999 17.247643 -95.160489
v -4.909998 17.005898 -94.963170
v -4.909999 18.065480 -94.518039
v -4.909999 16.820753 -94.761646
v -4.909999 17.352174 -93.610003
v -4.909998 16.668801 -94.534047
v -4.909999 16.534337 -94.252454
v -4.909999 16.534337 -94.252454
v -5.173706 16.386645 -94.174863
v -4.909999 17.352174 -93.610003
v -5.409999 16.285774 -94.080619
v -5.909998 16.995522 -93.155985
v -5.646291 16.218096 -93.960301
v -5.909998 16.177685 -93.798436
v -5.909998 16.177685 -93.798436
v -6.173706 16.218096 -93.960301
v -5.909998 16.995522 -93.155985
v -6.409998 16.285774 -94.080619
v -6.909998 17.352175 -93.610003
v -6.646291 16.386645 -94.174863
v -6.909998 16.534337 -94.252454
v -6.409998 17.355733 -95.442672
v -5.909998 18.422133 -94.972057
v -6.173706 17.456603 -95.536916
v -5.909998 17.604296 -95.614507
v -6.909998 16.534337 -94.252454
v -6.909998 16.668801 -94.534047
v -6.909998 17.352175 -93.610003
v -6.909998 16.820753 -94.761646
v -6.909998 18.065480 -94.518039
v -6.909998 17.005898 -94.963170
v -6.909998 17.247643 -95.160489
v -6.646291 16.386645 -94.174863
v -5.909998 16.366736 -95.118299
v -6.909998 16.534337 -94.252454
v -6.409998 16.285774 -94.080619
v -5.909998 16.366736 -95.118299
v -6.909998 16.668801 -94.534047
v -5.909998 16.177685 -93.798436
v -5.909998 16.366736 -95.118299
v -6.173706 16.218096 -93.960301
v -5.646291 16.218096 -93.960301
v -5.909998 16.366736 -95.118299
v -5.909998 16.366736 -95.118299
v -5.409999 16.285774 -94.080619
v -4.909999 16.534337 -94.252454
v -5.909998 16.366736 -95.118299
v -5.173706 16.386645 -94.174863
v -4.909998 16.668801 -94.534047
v -5.909998 16.366736 -95.118299
v -5.909998 16.366736 -95.118299
v -4.909999 16.820753 -94.761646
v -4.909999 17.247643 -95.160489
v -5.909998 16.366736 -95.118299
v -4.909998 17.005898 -94.963170
v -5.173706 17.288054 -95.322354
v -5.909998 16.366736 -95.118299
v -5.909998 16.366736 -95.118299
v -5.409998 17.355732 -95.442672
v -5.909998 17.604296 -95.614507
v -5.909998 16.366736 -95.118299
v -5.646290 17.456603 -95.536916
v -6.173706 17.456603 -95.536916
v -5.909998 16.366736 -95.118299
v -5.909998 16.366736 -95.118299
v -6.409998 17.355733 -95.442672
v -6.909998 17.247643 -95.160489
v -5.909998 16.366736 -95.118299
v -6.646290 17.288055 -95.322354
v -6.909998 17.005898 -94.963170
v -5.909998 16.366736 -95.118299
v -5.909998 16.366736 -95.118299
v -6.409998 17.355733 -95.442672
v -6.909998 16.820753 -94.761646
v -5.909998 16.366736 -95.118299
f 1 2 3
f 1 3 4
f 1 5 2
f 1 4 190
f 2 5 35
f 2 36 3
f 2 35 45
f 2 45 36
f 3 36 38
f 3 38 4
f 4 184 190
f 4 38 191
f 4 191 184
f 5 43 35
f 6 7 8
f 6 8 106
f 6 112 119
f 6 106 112
f 7 9 10
f 7 10 8
f 8 99 100
f 8 10 99
f 8 100 106
f 9 11 12
f 9 12 10
f 10 94 99
f 10 12 94
f 11 13 14
f 11 14 12
f 12 88 94
f 12 14 88
f 13 15 16
f 13 16 14
f 14 82 88
f 14 16 82
f 15 17 18
f 15 18 16
f 16 74 82
f 16 18 74
f 17 77 18
f 18 76 74
f 18 77 76
f 19 20 21
f 19 21 587
f 19 587 588
f 20 22 23
f 20 23 21
f 21 61 65
f 21 23 61
f 21 65 587
f 22 24 25
f 22 25 23
f 23 57 61
f 23 25 57
f 24 26 27
f 24 27 25
f 25 52 57
f 25 27 52
f 26 28 29
f 26 29 27
f 27 47 52
f 27 29 47
f 28 30 31
f 28 31 29
f 29 39 47
f 29 31 39
f 30 42 31
f 30 194 42
f 30 195 194
f 31 41 39
f 31 42 41
f 32 33 34
f 32 34 62
f 33 585 63
f 33 63 34
f 34 54 58
f 34 58 62
f 34 63 54
f 35 43 44
f 35 44 50
f 35 50 45
f 36 37 38
f 36 45 46
f 36 46 37
f 37 39 40
f 37 40 38
f 37 46 47
f 37 47 39
f 38 40 191
f 39 41 40
f 40 192 191
f 40 41 192
f 41 193 192
f 41 42 193
f 42 194 193
f 43 48 44
f 44 48 49
f 44 49 55
f 44 55 50
f 45 50 51
f 45 51 46
f 46 51 52
f 46 52 47
f 48 53 49
f 49 53 54
f 49 54 59
f 49 59 55
f 50 55 56
f 50 56 51
f 51 56 57
f 51 57 52
f 53 58 54
f 54 63 59
f 55 59 60
f 55 60 56
f 56 60 61
f 56 61 57
f 59 63 64
f 59 64 60
f 60 64 65
f 60 65 61
f 63 585 64
f 64 585 586
f 64 586 65
f 65 586 587
f 66 67 68
f 66 68 69
f 66 70 71
f 66 69 80
f 66 80 70
f 66 71 67
f 67 71 584
f 68 78 69
f 69 78 79
f 69 79 85
f 69 85 80
f 70 72 73
f 70 73 71
f 70 80 81
f 70 81 72
f 72 74 75
f 72 75 73
f 72 81 82
f 72 82 74
f 74 76 75
f 78 83 79
f 79 83 84
f 79 84 86
f 79 86 85
f 80 85 87
f 80 87 81
f 81 87 88
f 81 88 82
f 83 89 84
f 84 89 90
f 84 90 91
f 84 91 86
f 85 86 92
f 85 92 87
f 86 91 93
f 86 93 92
f 87 92 94
f 87 94 88
f 89 95 90
f 90 95 96
f 90 96 97
f 90 97 91
f 91 97 98
f 91 98 93
f 92 93 99
f 92 99 94
f 93 98 100
f 93 100 99
f 95 101 96
f 96 101 102
f 96 102 103
f 96 103 97
f 97 103 104
f 97 104 98
f 98 104 105
f 98 105 100
f 100 105 106
f 101 107 102
f 102 107 108
f 102 108 109
f 102 109 103
f 103 109 110
f 103 110 104
f 104 110 111
f 104 111 105
f 105 111 112
f 105 112 106
f 107 113 108
f 108 113 114
f 108 114 115
f 108 115 109
f 109 115 116
f 109 116 110
f 110 116 117
f 110 117 111
f 111 117 118
f 111 118 112
f 112 118 119
f 113 120 114
f 114 120 121
f 114 121 122
f 114 122 115
f 115 122 123
f 115 123 116
f 116 123 124
f 116 124 117
f 117 124 125
f 117 125 118
f 118 126 119
f 118 125 126
f 120 127 121
f 121 127 128
f 121 128 129
f 121 129 122
f 122 129 130
f 122 130 123
f 123 130 131
f 123 131 124
f 124 131 132
f 124 132 125
f 125 133 126
f 125 132 133
f 127 134 128
f 128 134 135
f 128 135 136
f 128 136 129
f 129 136 137
f 129 137 130
f 130 137 138
f 130 138 131
f 131 138 139
f 131 139 132
f 132 140 133
f 132 139 140
f 134 141 135
f 135 141 142
f 135 142 143
f 135 143 136
f 136 143 144
f 136 144 137
f 137 144 145
f 137 145 138
f 138 145 146
f 138 146 139
f 139 147 140
f 139 146 147
f 141 148 142
f 142 148 149
f 142 149 150
f 142 150 143
f 143 150 151
f 143 151 144
f 144 151 152
f 144 152 145
f 145 152 153
f 145 153 146
f 146 154 147
f 146 153 154
f 148 155 149
f 149 155 156
f 149 156 157
f 149 157 150
f 150 157 158
f 150 158 151
f 151 158 159
f 151 159 152
f 152 159 160
f 152 160 153
f 153 161 154
f 153 160 161
f 155 162 156
f 156 162 163
f 156 163 164
f 156 164 157
f 157 164 165
f 157 165 158
f 158 165 166
f 158 166 159
f 159 166 167
f 159 167 160
f 160 168 161
f 160 167 168
f 162 169 163
f 163 169 170
f 163 170 171
f 163 171 164
f 164 171 172
f 164 172 165
f 165 172 173
f 165 173 166
f 166 173 174
f 166 174 167
f 167 175 168
f 167 174 175
f 169 176 170
f 170 176 177
f 170 177 178
f 170 178 171
f 171 178 179
f 171 179 172
f 172 179 180
f 172 180 173
f 173 180 181
f 173 181 174
f 174 182 175
f 174 181 182
f 176 183 177
f 177 183 184
f 177 184 185
f 177 185 178
f 178 185 186
f 178 186 179
f 179 186 187
f 179 187 180
f 180 187 188
f 180 188 181
f 181 189 182
f 181 188 189
f 183 190 184
f 184 191 185
f 185 191 192
f 185 192 186
f 186 192 193
f 186 193 187
f 187 193 194
f 187 194 188
f 188 195 189
f 188 194 195
f 196 197 198
f 196 198 199
f 196 200 197
f 197 200 201
f 198 248 199
f 199 248 247
f 200 202 201
f 201 202 203
f 202 204 203
f 203 204 205
f 204 206 205
f 205 206 207
f 206 208 207
f 207 208 209
f 208 210 209
f 209 210 211
f 210 212 211
f 211 212 213
f 212 214 213
f 213 214 215
f 214 216 215
f 215 216 217
f 216 218 217
f 217 218 219
f 218 220 219
f 219 220 221
f 220 222 221
f 221 222 223
f 222 589 223
f 224 225 226
f 224 227 225
f 225 227 228
f 227 229 228
f 228 229 230
f 229 231 230
f 230 231 232
f 231 233 232
f 232 233 234
f 233 235 234
f 234 235 236
f 235 237 236
f 236 237 238
f 237 239 238
f 238 239 240
f 239 241 240
f 240 241 242
f 241 243 242
f 242 243 244
f 243 245 244
f 244 245 246
f 245 247 246
f 246 247 248
f 249 250 251
f 249 649 648
f 249 251 649
f 250 590 251
f 251 590 591
f 252 253 254
f 252 254 255
f 252 256 253
f 253 256 257
f 254 650 255
f 256 258 257
f 257 258 259
f 258 260 259
f 259 260 261
f 260 262 261
f 261 262 263
f 262 264 263
f 263 264 265
f 264 266 265
f 265 266 267
f 266 268 267
f 267 268 269
f 268 270 269
f 269 270 271
f 270 272 271
f 271 272 273
f 272 274 273
f 273 274 275
f 274 276 275
f 275 276 278
f 276 277 278
f 276 279 277
f 277 279 280
f 279 281 280
f 280 281 282
f 281 283 282
f 282 283 284
f 283 285 284
f 284 285 286
f 285 287 286
f 286 287 288
f 287 289 288
f 288 289 290
f 289 291 290
f 290 291 292
f 291 293 292
f 292 293 294
f 293 295 294
f 294 295 296
f 295 297 296
f 296 297 298
f 297 299 298
f 298 299 300
f 299 651 300
f 300 651 652
f 301 302 303
f 301 303 304
f 301 305 302
f 301 304 541
f 302 305 406
f 302 407 303
f 302 406 415
f 302 415 407
f 303 407 409
f 303 409 304
f 304 534 541
f 304 409 542
f 304 542 534
f 305 413 406
f 306 307 308
f 306 414 413
f 306 418 414
f 306 308 418
f 307 309 310
f 307 310 308
f 308 310 422
f 308 422 423
f 308 423 418
f 309 311 312
f 309 312 310
f 310 312 430
f 310 430 422
f 311 434 312
f 311 442 434
f 312 434 435
f 312 435 430
f 313 314 315
f 313 446 445
f 313 453 446
f 313 315 453
f 314 316 317
f 314 317 315
f 315 317 457
f 315 457 458
f 315 458 453
f 316 318 319
f 316 319 317
f 317 319 463
f 317 463 457
f 318 466 319
f 318 471 470
f 318 470 466
f 319 466 467
f 319 467 463
f 320 321 322
f 320 480 479
f 320 484 480
f 320 322 484
f 321 323 324
f 321 324 322
f 322 324 488
f 322 488 489
f 322 489 484
f 323 325 326
f 323 326 324
f 324 326 494
f 324 494 488
f 325 497 326
f 325 502 501
f 325 501 497
f 326 497 498
f 326 498 494
f 327 328 329
f 327 511 510
f 327 515 511
f 327 329 515
f 328 330 331
f 328 331 329
f 329 331 519
f 329 519 520
f 329 520 515
f 330 332 333
f 330 333 331
f 331 333 525
f 331 525 519
f 332 528 333
f 332 533 532
f 332 532 528
f 333 528 529
f 333 529 525
f 334 335 336
f 334 337 335
f 334 336 404
f 335 337 338
f 335 540 539
f 335 338 540
f 335 539 336
f 336 539 544
f 336 544 405
f 336 405 404
f 337 339 338
f 338 339 340
f 338 340 531
f 338 531 540
f 339 341 340
f 340 341 342
f 340 527 531
f 340 342 527
f 341 343 342
f 342 343 344
f 342 344 524
f 342 524 527
f 343 345 344
f 344 345 346
f 344 522 524
f 344 346 522
f 345 347 346
f 346 347 348
f 346 348 518
f 346 518 522
f 347 349 348
f 348 349 350
f 348 514 518
f 348 350 514
f 349 351 350
f 350 351 352
f 350 508 514
f 350 352 508
f 351 353 352
f 352 353 354
f 352 509 508
f 352 354 509
f 353 355 354
f 354 355 356
f 354 356 500
f 354 500 509
f 355 357 356
f 356 357 358
f 356 496 500
f 356 358 496
f 357 359 358
f 358 359 360
f 358 360 493
f 358 493 496
f 359 361 360
f 360 361 362
f 360 491 493
f 360 362 491
f 361 363 362
f 362 363 364
f 362 364 487
f 362 487 491
f 363 365 364
f 364 365 366
f 364 483 487
f 364 366 483
f 365 367 366
f 366 367 368
f 366 477 483
f 366 368 477
f 367 369 368
f 368 369 370
f 368 478 477
f 368 370 478
f 369 371 370
f 370 371 372
f 370 372 469
f 370 469 478
f 371 373 372
f 372 373 374
f 372 465 469
f 372 374 465
f 373 375 374
f 374 375 376
f 374 376 462
f 374 462 465
f 375 377 376
f 376 377 378
f 376 460 462
f 376 378 460
f 377 379 378
f 378 379 380
f 378 380 456
f 378 456 460
f 379 381 380
f 380 381 382
f 380 451 456
f 380 382 451
f 381 383 382
f 382 383 384
f 382 452 451
f 382 384 452
f 383 385 384
f 384 385 386
f 384 386 678
f 384 678 452
f 385 677 386
f 387 388 389
f 387 389 438
f 388 390 391
f 388 391 389
f 389 432 437
f 389 437 438
f 389 391 432
f 390 392 393
f 390 393 391
f 391 433 432
f 391 393 433
f 392 394 395
f 392 395 393
f 393 427 433
f 393 395 427
f 394 396 397
f 394 397 395
f 395 429 427
f 395 397 429
f 396 398 399
f 396 399 397
f 397 399 421
f 397 421 429
f 398 400 401
f 398 401 399
f 399 417 421
f 399 401 417
f 400 402 403
f 400 403 401
f 401 410 417
f 401 403 410
f 402 404 405
f 402 405 403
f 403 412 410
f 403 405 412
f 405 544 412
f 406 413 414
f 406 414 419
f 406 419 415
f 407 408 409
f 407 415 416
f 407 416 408
f 408 410 411
f 408 411 409
f 408 416 417
f 408 417 410
f 409 411 542
f 410 412 411
f 411 543 542
f 411 412 543
f 412 544 543
f 414 426 419
f 414 418 426
f 415 419 420
f 415 420 416
f 416 420 421
f 416 421 417
f 418 423 426
f 419 428 420
f 419 426 428
f 420 429 421
f 420 428 429
f 422 424 423
f 422 430 431
f 422 431 424
f 423 425 426
f 423 424 425
f 424 431 432
f 424 433 425
f 424 432 433
f 425 427 428
f 425 428 426
f 425 433 427
f 427 429 428
f 430 435 436
f 430 436 431
f 431 436 437
f 431 437 432
f 434 441 435
f 434 442 441
f 435 440 436
f 435 441 440
f 436 439 437
f 436 440 439
f 437 439 438
f 443 444 445
f 443 445 446
f 443 446 447
f 443 447 448
f 443 681 444
f 443 448 681
f 444 681 682
f 446 453 454
f 446 454 447
f 447 449 448
f 447 454 455
f 447 455 449
f 448 449 450
f 448 680 681
f 448 450 680
f 449 451 450
f 449 455 456
f 449 456 451
f 450 451 452
f 450 679 680
f 450 452 679
f 452 678 679
f 453 458 454
f 454 461 455
f 454 458 461
f 455 460 456
f 455 461 460
f 457 459 458
f 457 463 464
f 457 464 459
f 458 459 461
f 459 464 465
f 459 462 461
f 459 465 462
f 460 461 462
f 463 467 468
f 463 468 464
f 464 468 469
f 464 469 465
f 466 474 467
f 466 470 474
f 467 476 468
f 467 474 476
f 468 478 469
f 468 476 478
f 470 471 472
f 470 472 473
f 470 473 474
f 471 479 472
f 472 479 480
f 472 480 481
f 472 481 473
f 473 475 474
f 473 481 482
f 473 482 475
f 474 475 476
f 475 477 476
f 475 482 483
f 475 483 477
f 476 477 478
f 480 484 485
f 480 485 481
f 481 485 486
f 481 486 482
f 482 486 487
f 482 487 483
f 484 489 485
f 485 492 486
f 485 489 492
f 486 491 487
f 486 492 491
f 488 490 489
f 488 494 495
f 488 495 490
f 489 490 492
f 490 495 496
f 490 493 492
f 490 496 493
f 491 492 493
f 494 498 499
f 494 499 495
f 495 499 500
f 495 500 496
f 497 505 498
f 497 501 505
f 498 507 499
f 498 505 507
f 499 509 500
f 499 507 509
f 501 502 503
f 501 503 504
f 501 504 505
f 502 510 503
f 503 510 511
f 503 511 512
f 503 512 504
f 504 506 505
f 504 512 513
f 504 513 506
f 505 506 507
f 506 508 507
f 506 513 514
f 506 514 508
f 507 508 509
f 511 515 516
f 511 516 512
f 512 516 517
f 512 517 513
f 513 517 518
f 513 518 514
f 515 520 516
f 516 523 517
f 516 520 523
f 517 522 518
f 517 523 522
f 519 521 520
f 519 525 526
f 519 526 521
f 520 521 523
f 521 526 527
f 521 524 523
f 521 527 524
f 522 523 524
f 525 529 530
f 525 530 526
f 526 530 531
f 526 531 527
f 528 536 529
f 528 532 536
f 529 538 530
f 529 536 538
f 530 540 531
f 530 538 540
f 532 533 534
f 532 534 535
f 532 535 536
f 533 541 534
f 534 542 535
f 535 537 536
f 535 542 543
f 535 543 537
f 536 537 538
f 537 539 538
f 537 543 544
f 537 544 539
f 538 539 540
f 545 546 547
f 545 547 548
f 545 549 550
f 545 551 552
f 545 552 549
f 545 553 546
f 545 548 551
f 546 553 558
f 549 575 550
f 550 570 569
f 550 575 576
f 550 577 570
f 550 576 577
f 553 554 555
f 553 555 556
f 553 557 558
f 553 559 554
f 553 556 557
f 554 559 563
f 559 560 561
f 559 561 562
f 559 564 560
f 559 562 563
f 560 564 568
f 564 565 566
f 564 566 567
f 564 569 565
f 564 567 568
f 565 569 574
f 569 570 571
f 569 571 572
f 569 573 574
f 569 572 573
f 578 579 580
f 579 757 580
f 580 757 758
f 581 582 583
f 582 782 583
f 583 782 783
f 590 592 591
f 591 592 593
f 592 594 593
f 593 594 595
f 594 596 595
f 595 596 597
f 595 597 598
f 597 599 598
f 598 599 600
f 599 601 600
f 600 601 602
f 601 603 602
f 602 603 604
f 602 604 605
f 604 606 605
f 605 606 607
f 606 608 607
f 607 608 609
f 608 610 609
f 609 610 611
f 609 611 612
f 611 613 612
f 612 613 614
f 613 615 614
f 614 615 616
f 615 617 616
f 616 617 618
f 616 618 619
f 618 620 619
f 619 620 621
f 620 622 621
f 621 622 623
f 622 624 623
f 623 624 625
f 623 625 626
f 625 627 626
f 626 627 628
f 627 629 628
f 628 629 630
f 629 631 630
f 630 631 632
f 630 632 633
f 632 634 633
f 633 634 635
f 634 636 635
f 635 636 637
f 636 638 637
f 637 638 639
f 637 639 640
f 639 641 640
f 640 641 642
f 641 643 642
f 642 643 644
f 643 645 644
f 644 645 646
f 644 646 647
f 646 648 647
f 647 648 649
f 653 654 655
f 654 656 655
f 654 657 656
f 656 657 658
f 657 659 658
f 658 659 660
f 659 661 660
f 660 661 662
f 661 663 662
f 662 663 664
f 663 665 664
f 664 665 666
f 665 667 666
f 666 667 668
f 667 669 668
f 668 669 670
f 669 671 670
f 670 671 672
f 671 673 672
f 672 673 674
f 673 675 674
f 674 675 676
f 683 684 685
f 683 686 684
f 683 756 686
f 684 687 685
f 685 687 688
f 686 756 755
f 687 689 688
f 688 689 690
f 689 691 690
f 690 691 692
f 691 693 692
f 692 693 694
f 693 695 694
f 694 695 696
f 695 697 696
f 696 697 698
f 697 699 698
f 698 699 700
f 699 701 700
f 700 701 702
f 701 703 702
f 702 703 704
f 703 705 704
f 704 705 706
f 705 707 706
f 706 707 708
f 707 709 708
f 708 709 710
f 709 711 710
f 710 711 712
f 711 713 712
f 712 713 714
f 713 715 714
f 714 715 716
f 715 717 716
f 716 717 718
f 717 719 718
f 718 719 720
f 719 721 720
f 720 721 722
f 721 723 722
f 724 725 726
f 725 727 726
f 726 727 728
f 727 729 728
f 728 729 730
f 729 731 730
f 730 731 732
f 731 733 732
f 732 733 734
f 733 735 734
f 734 735 736
f 735 737 736
f 736 737 738
f 737 739 738
f 738 739 740
f 739 741 740
f 740 741 742
f 741 743 742
f 742 743 744
f 743 745 744
f 744 745 746
f 745 747 746
f 746 747 748
f 747 749 748
f 748 749 750
f 749 751 750
f 750 751 752
f 751 753 752
f 752 753 754
f 753 755 754
f 754 755 756
f 757 759 758
f 758 759 760
f 761 762 763
f 762 764 763
f 763 764 765
f 764 766 765
f 765 766 767
f 768 769 770
f 769 771 770
f 770 771 772
f 771 773 772
f 772 773 774
f 775 776 777
f 776 778 777
f 777 778 779
f 778 780 779
f 779 780 781
f 782 784 783
f 783 784 785
f 786 787 788
f 787 789 788
f 788 789 790
f 789 791 790
f 790 791 792
f 793 794 795
f 793 796 794
f 795 797 798
f 796 801 804
f 798 835 834
f 799 800 801
f 799 802 803
f 802 805 803
f 805 808 811
f 806 807 808
f 806 809 810
f 809 812 810
f 812 815 818
f 813 814 815
f 813 816 817
f 816 819 817
f 819 822 825
f 820 821 822
f 820 823 824
f 823 826 824
f 827 828 829
f 827 830 831
f 829 832 833
f 830 834 831