# Forged Hexagon Socket Button Head Cap Screw - Metric M3 x 0.5 x 6
# Autodesk dbId: 156
# Units: mm
o 156_Forged_Hexagon_Socket_Button_Head_Cap_Screw_-_Metric_M3_x_0.5_x_6
v 10.750455 13.242416 -105.737248
v 10.937887 13.057897 -105.496840
v 10.774590 13.250870 -105.742493
v 10.684900 13.461451 -106.010562
v 10.923923 13.039482 -105.478914
v 13.641256 14.012611 -106.555825
v 13.730245 13.796100 -106.280206
v 13.730095 13.791897 -106.316753
v 13.732771 13.572724 -105.995849
v 13.741161 13.584043 -106.052156
v 13.648686 13.355466 -105.719280
v 13.677077 13.379879 -105.792256
v 13.482878 13.156951 -105.466572
v 13.541057 13.189643 -105.550086
v 13.244983 12.988718 -105.252411
v 13.339921 13.022874 -105.337790
v 12.948826 12.860542 -105.089243
v 13.083754 12.887935 -105.166012
v 12.611619 12.779873 -104.986552
v 12.252959 12.751399 -104.950304
v 12.459827 12.738675 -104.976004
v 11.893690 12.776775 -104.982608
v 12.123352 12.731839 -104.967302
v 11.554691 12.854526 -105.081585
v 11.792851 12.771426 -105.017696
v 11.255664 12.980134 -105.241484
v 11.484897 12.855451 -105.124660
v 11.013988 13.146299 -105.453011
v 11.214931 12.979701 -105.282830
v 10.843707 13.343363 -105.703873
v 10.996491 13.137946 -105.484275
v 12.810938 12.695253 -105.035195
v 12.802228 12.717002 -105.046710
v 12.470049 12.639847 -104.964664
v 11.166601 12.892210 -105.285921
v 10.957876 13.074090 -105.501282
v 10.975040 13.093747 -105.500579
v 10.797081 13.264106 -105.743171
v 10.988211 13.115527 -105.494778
v 10.816394 13.281223 -105.739236
v 10.831213 13.301055 -105.730955
v 10.840529 13.322250 -105.718893
v 11.168476 12.866731 -105.259002
v 11.449265 12.762116 -105.120311
v 11.183086 12.910942 -105.293594
v 11.197241 12.932778 -105.295666
v 11.208103 12.956231 -105.291994
v 11.470928 12.733475 -105.089367
v 11.771704 12.674139 -105.008317
v 11.461418 12.782841 -105.130522
v 11.471855 12.806389 -105.134773
v 11.479863 12.831155 -105.132773
v 11.814975 12.646899 -104.979156
v 12.117749 12.632690 -104.955552
v 11.778917 12.696211 -105.020243
v 11.785111 12.720917 -105.025967
v 11.789864 12.746571 -105.025099
v 12.182068 12.611669 -104.934309
v 12.119660 12.655397 -104.968287
v 12.121301 12.680648 -104.974705
v 12.122561 12.706721 -104.974369
v 12.552419 12.629685 -104.957244
v 12.466562 12.662445 -104.977259
v 12.463568 12.687602 -104.983558
v 12.461271 12.713602 -104.983130
v 13.123322 12.796128 -105.163608
v 12.906061 12.699977 -105.046725
v 13.223929 12.818754 -105.197927
v 13.391537 12.937414 -105.343465
v 13.109826 12.816331 -105.173156
v 12.810938 12.695253 -105.035195
v 13.098237 12.839432 -105.176837
v 12.802228 12.717002 -105.046710
v 13.089344 12.863854 -105.174400
v 12.794749 12.741429 -105.052080
v 12.789010 12.766870 -105.050940
v 12.785402 12.791591 -105.043367
v 13.488887 12.979612 -105.402700
v 13.602134 13.112026 -105.565747
v 13.373932 12.955453 -105.350257
v 13.358813 12.976694 -105.351571
v 13.347213 12.999690 -105.347319
v 13.686651 13.173881 -105.650004
v 13.744551 13.311210 -105.819307
v 13.581301 13.127390 -105.569133
v 13.721537 13.323521 -105.818808
v 13.563413 13.146334 -105.567523
v 13.549686 13.167567 -105.561026
v 13.806559 13.391087 -105.926507
v 13.811649 13.524976 -106.091431
v 13.787607 13.534013 -106.086762
v 13.701775 13.339845 -105.813862
v 13.766962 13.547524 -106.078236
v 13.686610 13.359067 -105.804805
v 13.842148 13.619521 -106.217302
v 13.800062 13.742606 -106.368473
v 13.776198 13.748308 -106.359560
v 13.755705 13.758956 -106.347388
v 13.751120 13.564588 -106.066432
v 13.739980 13.773823 -106.332788
v 13.791498 13.846867 -106.506713
v 13.710372 13.953187 -106.636542
v 13.687882 13.955663 -106.623522
v 13.668569 13.963540 -106.607823
v 13.653749 13.976281 -106.590516
v 13.644433 13.993018 -106.572781
v 13.657340 14.060869 -106.779137
v 13.547075 14.146159 -106.882195
v 13.527087 14.145678 -106.865411
v 13.509922 14.151016 -106.846480
v 13.496751 14.161809 -106.826694
v 13.488472 14.177322 -106.807399
v 13.446907 14.249990 -107.019888
v 13.318361 14.311846 -107.093115
v 13.301877 14.308827 -107.073099
v 13.287721 14.311985 -107.051393
v 13.276860 14.321105 -107.029477
v 13.270032 14.335566 -107.008844
v 13.470975 14.209675 -106.806687
v 13.171543 14.404036 -107.215987
v 13.035697 14.441941 -107.258724
v 13.023544 14.436928 -107.236171
v 13.013108 14.438374 -107.212286
v 13.005100 14.446181 -107.188698
v 13.000065 14.459817 -107.167014
v 13.229298 14.375840 -107.018214
v 12.846093 14.514700 -107.356863
v 12.713259 14.529918 -107.370719
v 12.706046 14.523557 -107.346450
v 12.699852 14.523846 -107.321092
v 12.695099 14.530765 -107.296373
v 12.692111 14.543842 -107.273978
v 12.930271 14.501447 -107.178112
v 12.488102 14.576018 -107.434920
v 12.367213 14.571367 -107.423484
v 12.365302 14.564371 -107.398406
v 12.363661 14.564114 -107.372354
v 12.362402 14.570615 -107.347102
v 12.361610 14.583429 -107.324372
v 12.591273 14.579199 -107.277089
v 12.116869 14.584683 -107.445950
v 12.014913 14.564209 -107.414372
v 12.018400 14.557323 -107.389434
v 12.021394 14.557161 -107.363501
v 12.023692 14.563733 -107.338342
v 12.025136 14.576593 -107.315670
v 12.232004 14.604575 -107.309393
v 11.752409 14.540228 -107.389360
v 11.674024 14.508804 -107.343841
v 11.682734 14.502767 -107.319984
v 11.690213 14.503333 -107.294979
v 11.695952 14.510465 -107.270532
v 11.699560 14.523676 -107.248307
v 11.873344 14.576101 -107.273146
v 11.414368 14.445051 -107.268199
v 11.361640 14.407929 -107.215427
v 11.375136 14.403437 -107.193537
v 11.386726 14.405331 -107.170222
v 11.395618 14.413481 -107.147071
v 11.401208 14.427333 -107.125662
v 11.536136 14.495432 -107.170454
v 11.120971 14.304281 -107.089000
v 11.093425 14.266643 -107.035570
v 11.111031 14.264316 -107.016436
v 11.126149 14.268069 -106.995488
v 11.137749 14.277645 -106.974152
v 11.145042 14.292393 -106.953884
v 11.239979 14.367256 -107.007286
v 10.888035 14.125508 -106.861422
v 10.882829 14.092030 -106.813289
v 10.903661 14.092379 -106.797560
v 10.921550 14.098429 -106.779536
v 10.935277 14.109768 -106.760445
v 10.943906 14.125625 -106.741588
v 11.002084 14.199022 -106.793125
v 10.728118 13.918370 -106.597736
v 10.740411 13.892847 -106.559729
v 10.763425 13.896247 -106.547885
v 10.783188 13.904918 -106.533197
v 10.798352 13.918268 -106.516666
v 10.807885 13.935389 -106.499418
v 10.836276 14.000508 -106.540417
v 10.649840 13.694034 -106.312156
v 10.673313 13.679080 -106.287605
v 10.697355 13.685756 -106.279931
v 10.718001 13.697239 -106.268823
v 10.733843 13.712748 -106.255039
v 10.743801 13.731225 -106.239518
v 10.752192 13.783250 -106.263848
v 10.657422 13.464593 -106.020078
v 10.708765 13.471460 -106.007133
v 10.729258 13.485807 -105.999671
v 10.744983 13.503513 -105.988683
v 10.754868 13.523371 -105.974920
v 10.754718 13.559874 -105.979491
v 10.843707 17.741813 -102.248681
v 10.754718 13.559874 -105.979491
v 10.843707 13.343363 -105.703873
v 11.013988 17.544749 -101.997819
v 10.754718 17.958324 -102.524300
v 10.752192 13.783250 -106.263848
v 10.752192 18.181700 -102.808657
v 10.836276 14.000508 -106.540417
v 10.836277 18.398958 -103.085226
v 11.002084 14.199022 -106.793125
v 11.002085 18.597472 -103.337934
v 11.239979 14.367256 -107.007286
v 11.239980 18.765706 -103.552095
v 11.536136 14.495432 -107.170454
v 11.536137 18.893882 -103.715263
v 11.873344 14.576101 -107.273146
v 11.873344 18.974551 -103.817955
v 12.232004 14.604575 -107.309393
v 12.232004 19.003025 -103.854201
v 12.591273 14.579199 -107.277089
v 12.591274 18.977649 -103.821898
v 12.930271 14.501447 -107.178112
v 12.930272 18.899898 -103.722921
v 13.229298 14.375840 -107.018214
v 13.229299 18.774290 -103.563023
v 13.470975 14.209675 -106.806687
v 13.470975 18.608125 -103.351496
v 13.641256 14.012611 -106.555825
v 13.641256 18.411061 -103.100633
v 13.730245 13.796100 -106.280206
v 13.641256 14.012611 -106.555825
v 13.730246 18.194550 -102.825015
v 13.732771 13.572724 -105.995849
v 13.732771 17.971174 -102.540658
v 13.648686 13.355466 -105.719280
v 13.648687 17.753916 -102.264089
v 13.482878 13.156951 -105.466572
v 13.482879 17.555402 -102.011381
v 13.244983 12.988718 -105.252411
v 13.244984 17.387168 -101.797219
v 12.948826 12.860542 -105.089243
v 12.948827 17.258992 -101.634052
v 12.611619 12.779873 -104.986552
v 12.611620 17.178323 -101.531360
v 12.252959 12.751399 -104.950304
v 12.252959 17.149849 -101.495113
v 11.893690 12.776775 -104.982608
v 11.893690 17.175225 -101.527417
v 11.554691 12.854526 -105.081585
v 11.554692 17.252976 -101.626394
v 11.255664 12.980134 -105.241484
v 11.255665 17.378584 -101.786292
v 11.013988 13.146299 -105.453011
v 9.446465 13.258309 -105.757480
v 9.584810 12.963563 -105.382268
v 10.750455 13.242416 -105.737248
v 11.056118 18.238421 -102.384335
v 10.752192 18.181700 -102.808657
v 10.754718 17.958324 -102.524300
v 11.129734 18.051441 -102.146310
v 11.063352 18.430800 -102.629233
v 10.836277 18.398958 -103.085226
v 11.150941 18.615467 -102.864313
v 11.002085 18.597472 -103.337934
v 11.312917 18.779838 -103.073557
v 11.239980 18.765706 -103.552095
v 11.538241 18.912711 -103.242703
v 11.536137 18.893882 -103.715263
v 11.811558 19.005030 -103.360226
v 11.873344 18.974551 -103.817955
v 12.114242 19.050505 -103.418116
v 12.232004 19.003025 -103.854201
v 12.425665 19.046037 -103.412428
v 12.591274 18.977649 -103.821898
v 12.724605 18.991929 -103.343549
v 12.930272 18.899898 -103.722921
v 12.990688 18.891870 -103.216174
v 13.229299 18.774290 -103.563023
v 13.205783 18.752678 -103.038983
v 13.470975 18.608125 -103.351496
v 13.355230 18.583839 -102.824052
v 13.730246 18.194550 -102.825015
v 13.641256 18.411061 -103.100633
v 13.428846 18.396859 -102.586027
v 13.732771 17.971174 -102.540658
v 13.421612 18.204481 -102.341129
v 13.648687 17.753916 -102.264089
v 13.334023 18.019814 -102.106048
v 13.482879 17.555402 -102.011381
v 13.172047 17.855443 -101.896804
v 13.244984 17.387168 -101.797219
v 12.946723 17.722570 -101.727658
v 12.948827 17.258992 -101.634052
v 12.673406 17.630251 -101.610135
v 12.611620 17.178323 -101.531360
v 12.370722 17.584775 -101.552245
v 12.252959 17.149849 -101.495113
v 12.059299 17.589244 -101.557934
v 11.893690 17.175225 -101.527417
v 11.760359 17.643351 -101.626812
v 11.554692 17.252976 -101.626394
v 11.494276 17.743410 -101.754187
v 11.255665 17.378584 -101.786292
v 11.279181 17.882602 -101.931378
v 11.013988 17.544749 -101.997819
v 10.769105 11.949348 -106.762199
v 10.609320 11.725591 -106.407305
v 10.462587 11.910051 -106.642122
v 10.369935 12.107448 -106.893408
v 10.940405 11.748951 -106.507094
v 11.480572 11.446768 -106.122417
v 11.820318 11.361274 -106.013583
v 11.626409 11.219875 -105.763530
v 12.182823 11.326485 -105.969297
v 11.949471 11.170744 -105.700986
v 12.548545 11.344276 -105.991945
v 12.281436 11.157013 -105.683507
v 13.473307 11.689829 -106.431833
v 13.668598 11.881670 -106.676046
v 13.914597 11.767271 -106.460364
v 13.787008 12.096160 -106.949092
v 14.049022 11.955276 -106.699694
v 13.822151 12.321738 -107.236252
v 14.128556 12.154844 -106.953744
v 13.431851 12.944327 -108.028806
v 13.159929 13.096447 -108.222454
v 13.439273 13.254357 -108.353421
v 12.838547 13.205728 -108.361569
v 13.162896 13.368782 -108.499084
v 12.485031 13.266279 -108.438650
v 12.858553 13.451822 -108.604793
v 11.424719 13.136949 -108.274013
v 11.134990 12.997939 -108.097054
v 10.986007 13.223421 -108.314039
v 10.904966 12.821401 -107.872322
v 10.755597 13.075156 -108.125298
v 10.747047 12.616852 -107.611931
v 10.570365 12.904427 -107.907960
v 9.446465 12.959484 -105.992221
v 9.436341 13.006654 -106.584369
v 9.488919 12.706178 -106.201864
v 9.393075 13.264592 -106.380623
v 9.469025 13.308205 -106.968242
v 9.426264 13.570793 -106.770415
v 9.585980 13.601669 -107.341821
v 9.545022 13.868781 -107.149754
v 9.783651 13.878128 -107.693753
v 9.745740 14.149503 -107.507112
v 10.056032 14.129184 -108.013346
v 10.022321 14.404429 -107.831633
v 10.394847 14.347207 -108.290890
v 10.366361 14.625814 -108.113455
v 10.789802 14.525573 -108.517949
v 10.767405 14.806930 -108.344015
v 11.228896 14.658863 -108.687627
v 11.213269 14.942275 -108.516309
v 11.698787 14.743026 -108.794767
v 11.690405 15.027736 -108.625101
v 12.185198 14.775507 -108.836114
v 12.184315 15.060717 -108.667086
v 12.673349 14.755316 -108.810412
v 12.679993 15.040215 -108.640987
v 13.148409 14.683068 -108.718441
v 13.162377 14.966853 -108.547598
v 13.595943 14.560959 -108.562996
v 13.616811 14.842861 -108.389756
v 14.002352 14.392698 -108.348800
v 14.029486 14.672006 -108.172258
v 14.355289 14.183398 -108.082362
v 14.387864 14.459479 -107.901712
v 14.644029 13.939418 -107.771776
v 14.681056 14.211738 -107.586338
v 14.859799 13.668172 -107.426481
v 14.900153 13.936309 -107.235718
v 14.996043 13.377901 -107.056967
v 15.038497 13.641563 -106.860507
v 15.048622 13.077425 -106.674462
v 15.091887 13.336455 -106.472105
v 15.015937 12.775875 -106.290588
v 15.058699 13.030255 -106.082313
v 14.898982 12.482411 -105.917010
v 14.939941 12.732266 -105.702974
v 14.701311 12.205951 -105.565077
v 14.739222 12.451544 -105.345616
v 14.428930 11.954896 -105.245484
v 14.462641 12.196618 -105.021095
v 14.090115 11.736873 -104.967941
v 14.118602 11.975233 -104.739273
v 13.695160 11.558507 -104.740881
v 13.717557 11.794117 -104.508713
v 13.256066 11.425217 -104.571204
v 13.271694 11.658772 -104.336419
v 12.794558 11.573311 -104.227627
v 12.786175 11.341053 -104.464064
v 12.300647 11.540330 -104.185642
v 12.299764 11.308573 -104.422717
v 11.804970 11.560832 -104.211741
v 11.811613 11.328764 -104.448419
v 11.322585 11.634194 -104.305130
v 11.336553 11.401011 -104.540390
v 10.868152 11.758186 -104.462972
v 10.889019 11.523121 -104.695835
v 10.455476 11.929041 -104.680470
v 10.482610 11.691382 -104.910031
v 10.097098 12.141568 -104.951016
v 10.129674 11.900682 -105.176469
v 9.803907 12.389310 -105.266390
v 9.840934 12.144662 -105.487055
v 9.584810 12.664738 -105.617010
v 9.625164 12.415908 -105.832350
v 10.805676 11.559674 -106.196093
v 10.347238 11.727431 -106.204264
v 10.122183 11.802048 -105.972534
v 10.176957 11.941491 -106.476763
v 9.949492 11.944357 -105.727907
v 9.931682 12.041528 -106.277391
v 9.743475 12.203342 -106.057594
v 11.181901 11.578358 -106.289931
v 11.045689 11.417340 -106.014903
v 10.575104 11.534888 -105.959157
v 10.377108 11.586641 -105.698321
v 10.225180 11.711407 -105.431361
v 11.322066 11.302915 -105.869240
v 10.853633 11.369713 -105.748890
v 10.688711 11.401852 -105.463086
v 10.562162 11.511568 -105.176967
v 11.902450 11.083544 -105.384598
v 11.527544 11.140560 -105.457179
v 11.862072 11.081701 -105.055534
v 11.442648 11.145488 -105.136735
v 11.174362 11.236926 -105.579852
v 11.377504 11.234323 -104.824035
v 11.047526 11.253297 -105.273975
v 10.950200 11.350912 -104.972453
v 12.287687 11.067610 -105.364314
v 12.293055 11.063875 -105.032842
v 12.297175 11.146063 -104.711680
v 11.831089 11.165341 -104.736221
v 12.612217 11.179101 -105.711625
v 12.671551 11.093242 -105.396944
v 12.722502 11.092551 -105.069347
v 12.761598 11.177075 -104.751159
v 13.256066 11.425217 -104.571204
v 13.210249 11.257434 -104.853456
v 13.137363 11.166858 -105.163939
v 13.042378 11.159662 -105.481496
v 12.931764 11.236336 -105.784485
v 13.230368 11.326979 -105.899874
v 12.897766 11.413689 -106.080307
v 13.211661 11.530981 -106.229620
v 13.498955 11.448276 -106.054284
v 13.700589 11.405614 -105.794592
v 13.388900 11.264851 -105.615402
v 13.873735 11.442016 -105.514214
v 13.525034 11.284538 -105.313746
v 14.006595 11.555002 -105.232259
v 13.629494 11.384698 -105.015463
v 13.729365 11.596542 -106.243026
v 13.967974 11.577672 -106.013622
v 14.172872 11.634506 -105.759254
v 14.330095 11.763170 -105.497256
v 14.338928 11.993974 -106.543574
v 14.182930 11.775799 -106.265837
v 14.587875 12.100243 -106.352136
v 14.590164 12.002877 -105.802403
v 14.413354 11.856160 -106.041419
v 14.778900 12.266839 -106.138426
v 14.431225 12.225569 -106.838393
v 14.691133 12.359338 -106.681964
v 14.890567 12.547038 -106.495118
v 14.150783 12.359912 -107.214796
v 14.457019 12.463545 -107.141337
v 14.719990 12.625574 -107.020882
v 14.921775 12.834957 -106.861639
v 14.115027 12.564250 -107.474916
v 13.772135 12.546242 -107.522046
v 14.022375 12.761647 -107.726202
v 14.308005 12.929748 -107.734812
v 14.415525 12.700673 -107.443200
v 14.553280 13.147137 -107.684830
v 14.673569 12.890861 -107.358591
v 14.741487 13.399000 -107.579664
v 14.871573 13.121850 -107.226854
v 13.639654 12.757570 -107.791064
v 13.875642 12.946106 -107.961019
v 14.137724 13.143809 -108.007310
v 14.362779 13.386617 -107.989688
v 14.535470 13.657985 -107.909351
v 13.679285 13.112024 -108.172231
v 13.909858 13.336352 -108.252417
v 14.107854 13.602024 -108.263900
v 14.259783 13.890936 -108.205897
v 13.310600 13.634314 -108.631722
v 13.631329 13.501526 -108.462684
v 13.437437 13.935368 -108.688246
v 13.922800 14.090775 -108.460291
v 13.796251 13.786813 -108.499135
v 13.534762 14.251430 -108.664805
v 12.957418 13.730680 -108.754395
v 13.042315 14.043178 -108.825487
v 13.107458 14.368019 -108.813223
v 12.535491 13.500954 -108.667338
v 12.582512 13.787696 -108.826976
v 12.622890 14.106964 -108.906687
v 12.653873 14.437001 -108.901037
v 12.203526 13.514684 -108.684817
v 12.118439 13.274836 -108.449543
v 11.872745 13.492596 -108.656699
v 11.813411 13.777997 -108.814630
v 12.197275 13.803630 -108.847260
v 11.762460 14.096114 -108.892875
v 12.191906 14.124790 -108.929379
v 11.723364 14.425267 -108.886100
v 12.187787 14.456279 -108.925578
v 11.758535 13.230937 -108.393660
v 11.553198 13.435361 -108.583839
v 11.442584 13.711577 -108.730078
v 11.347599 14.021807 -108.798282
v 11.274714 14.344908 -108.783803
v 11.254594 13.344718 -108.468450
v 11.096062 13.606388 -108.596172
v 10.959928 13.904127 -108.648475
v 10.855468 14.217644 -108.621795
v 10.516988 13.293567 -108.197952
v 10.784373 13.465626 -108.416982
v 10.312090 13.554159 -108.202967
v 10.478367 14.047340 -108.404999
v 10.611227 13.746649 -108.448007
v 10.154867 13.839172 -108.140002
v 10.302032 13.095440 -107.945737
v 10.071608 13.332505 -107.920802
v 9.894798 13.599465 -107.834856
v 10.435940 12.716421 -107.668630
v 10.146034 12.877265 -107.668000
v 9.897087 13.088422 -107.610085
v 9.706062 13.335503 -107.498832
v 10.356406 12.516853 -107.414580
v 10.669748 12.395320 -107.329921
v 10.334179 12.311785 -107.153528
v 10.027943 12.407694 -107.070237
v 10.053737 12.645671 -107.373181
v 9.764972 12.563091 -106.941340
v 9.793829 12.829327 -107.280257
v 9.563188 12.767385 -106.775619
v 9.594395 13.055305 -107.142140
v 10.677235 12.168747 -107.041494
v 10.069437 12.170566 -106.768374
v 9.811393 12.297804 -106.603631
v 9.613390 12.480492 -106.410405
v 11.101468 12.411320 -107.350289
v 10.769105 11.949348 -106.762199
v 10.677235 12.168747 -107.041494
v 10.669748 12.395320 -107.329921
v 11.134990 12.997939 -108.097054
v 11.825487 12.966987 -108.057653
v 10.747047 12.616852 -107.611931
v 10.904966 12.821401 -107.872322
v 11.518462 11.746151 -106.503531
v 12.182823 11.326485 -105.969297
v 11.820318 11.361274 -106.013583
v 11.480572 11.446768 -106.122417
v 11.181901 11.578358 -106.289931
v 10.940405 11.748951 -106.507094
v 12.659475 11.636650 -106.364136
v 13.473307 11.689829 -106.431833
v 13.211661 11.530981 -106.229620
v 12.897766 11.413689 -106.080307
v 12.548545 11.344276 -105.991945
v 13.383494 12.192317 -107.071499
v 13.772135 12.546242 -107.522046
v 13.822151 12.321738 -107.236252
v 13.787008 12.096160 -106.949092
v 13.668598 11.881670 -106.676046
v 12.966500 12.857486 -107.918257
v 12.485031 13.266279 -108.438650
v 12.838547 13.205728 -108.361569
v 13.159929 13.096447 -108.222454
v 13.431851 12.944327 -108.028806
v 13.639654 12.757570 -107.791064
v 11.424719 13.136949 -108.274013
v 11.758535 13.230937 -108.393660
v 12.118439 13.274836 -108.449543
v 12.966501 13.675323 -107.275807
v 12.665606 13.757840 -107.270430
v 12.966500 12.857486 -107.918257
v 13.383494 13.010154 -106.429049
v 13.273530 13.239205 -106.610209
v 13.383494 12.192317 -107.071499
v 12.552419 12.629685 -104.957244
v 12.794749 12.741429 -105.052080
v 12.789010 12.766870 -105.050940
v 12.785402 12.791591 -105.043367
v 12.948826 12.860542 -105.089243
v 13.641256 18.411061 -103.100633
v 9.803907 12.688135 -105.031649
v 10.923923 13.039482 -105.478914
v 10.097098 12.440393 -104.716275
v 11.168476 12.866731 -105.259002
v 10.455476 12.227866 -104.445729
v 11.470928 12.733475 -105.089367
v 10.868152 12.057011 -104.228230
v 11.322585 11.933019 -104.070389
v 11.814975 12.646899 -104.979156
v 11.804970 11.859657 -103.977000
v 12.182068 12.611669 -104.934309
v 12.300647 11.839155 -103.950901
v 12.552419 12.629685 -104.957244
v 12.794558 11.872136 -103.992885
v 13.271694 11.957597 -104.101677
v 12.906061 12.699977 -105.046725
v 13.717557 12.092942 -104.273971
v 13.223929 12.818754 -105.197927
v 14.118602 12.274059 -104.504532
v 13.488887 12.979612 -105.402700
v 14.462641 12.495443 -104.786354
v 14.739222 12.750369 -105.110875
v 13.686651 13.173881 -105.650004
v 14.939941 13.031092 -105.468233
v 13.806559 13.391087 -105.926507
v 15.058699 13.329080 -105.847571
v 13.842148 13.619521 -106.217302
v 15.091887 13.635280 -106.237364
v 15.038497 13.940388 -106.625766
v 13.791498 13.846867 -106.506713
v 14.900153 14.235135 -107.000977
v 13.657340 14.060869 -106.779137
v 14.681056 14.510563 -107.351596
v 13.446907 14.249990 -107.019888
v 14.387864 14.758304 -107.666970
v 14.029486 14.970831 -107.937517
v 13.171543 14.404036 -107.215987
v 13.616811 15.141687 -108.155015
v 12.846093 14.514700 -107.356863
v 13.162377 15.265679 -108.312857
v 12.488102 14.576018 -107.434920
v 12.679993 15.339040 -108.406246
v 12.184315 15.359542 -108.432344
v 12.116869 14.584683 -107.445950
v 11.690405 15.326561 -108.390360
v 11.752409 14.540228 -107.389360
v 11.213269 15.241100 -108.281568
v 11.414368 14.445051 -107.268199
v 10.767405 15.105755 -108.109274
v 10.366361 14.924639 -107.878714
v 11.120971 14.304281 -107.089000
v 10.022321 14.703254 -107.596891
v 10.888035 14.125508 -106.861422
v 9.745740 14.448328 -107.272371
v 10.728118 13.918370 -106.597736
v 9.545022 14.167606 -106.915012
v 9.426264 13.869618 -106.535674
v 10.649840 13.694034 -106.312156
v 9.393075 13.563418 -106.145882
v 10.657422 13.464593 -106.020078
v 10.843707 17.741813 -102.248681
v 11.129734 18.051441 -102.146310
v 10.843707 17.741813 -102.248681
v 11.129734 18.051441 -102.146310
v 11.279181 17.882602 -101.931378
v 11.056118 18.238421 -102.384335
v 11.063352 18.430800 -102.629233
v 11.494276 17.743410 -101.754187
v 11.150941 18.615467 -102.864313
v 11.760359 17.643351 -101.626812
v 11.312917 18.779838 -103.073557
v 12.059299 17.589244 -101.557934
v 11.538241 18.912711 -103.242703
v 12.370722 17.584775 -101.552245
v 11.811558 19.005030 -103.360226
v 12.673406 17.630251 -101.610135
v 12.114242 19.050505 -103.418116
v 12.946723 17.722570 -101.727658
v 12.425665 19.046037 -103.412428
v 13.172047 17.855443 -101.896804
v 12.724605 18.991929 -103.343549
v 13.334023 18.019814 -102.106048
v 12.990688 18.891870 -103.216174
v 13.421612 18.204481 -102.341129
v 13.205783 18.752678 -103.038983
v 13.428846 18.396859 -102.586027
v 13.355230 18.583839 -102.824052
v 13.271694 11.658772 -104.336419
v 13.210249 11.257434 -104.853456
v 13.137363 11.166858 -105.163939
v 13.042378 11.159662 -105.481496
v 12.931764 11.236336 -105.784485
v 12.548545 11.344276 -105.991945
v 9.446465 13.258309 -105.757480
v 9.446465 12.959484 -105.992221
v 9.584810 12.963563 -105.382268
v 9.393075 13.264592 -106.380623
v 9.584810 12.664738 -105.617010
v 9.803907 12.688135 -105.031649
v 9.803907 12.389310 -105.266390
v 10.097098 12.440393 -104.716275
v 10.097098 12.141568 -104.951016
v 10.455476 12.227866 -104.445729
v 10.455476 11.929041 -104.680470
v 10.868152 12.057011 -104.228230
v 10.868152 11.758186 -104.462972
v 11.322585 11.933019 -104.070389
v 11.322585 11.634194 -104.305130
v 11.804970 11.859657 -103.977000
v 11.804970 11.560832 -104.211741
v 12.300647 11.839155 -103.950901
v 12.300647 11.540330 -104.185642
v 12.794558 11.872136 -103.992885
v 12.794558 11.573311 -104.227627
v 13.271694 11.957597 -104.101677
v 13.271694 11.658772 -104.336419
v 13.717557 12.092942 -104.273971
v 13.717557 11.794117 -104.508713
v 14.118602 12.274059 -104.504532
v 14.118602 11.975233 -104.739273
v 14.462641 12.495443 -104.786354
v 14.462641 12.196618 -105.021095
v 14.739222 12.750369 -105.110875
v 14.739222 12.451544 -105.345616
v 14.939941 13.031092 -105.468233
v 14.939941 12.732266 -105.702974
v 15.058699 13.329080 -105.847571
v 15.058699 13.030255 -106.082313
v 15.091887 13.635280 -106.237364
v 15.091887 13.336455 -106.472105
v 15.038497 13.940388 -106.625766
v 15.038497 13.641563 -106.860507
v 14.900153 14.235135 -107.000977
v 14.900153 13.936309 -107.235718
v 14.900153 14.235135 -107.000977
v 14.900153 13.936309 -107.235718
v 14.681056 14.510563 -107.351596
v 14.681056 14.211738 -107.586338
v 14.387864 14.758304 -107.666970
v 14.387864 14.459479 -107.901712
v 14.029486 14.970831 -107.937517
v 14.029486 14.672006 -108.172258
v 13.616811 15.141687 -108.155015
v 13.616811 14.842861 -108.389756
v 13.162377 15.265679 -108.312857
v 13.162377 14.966853 -108.547598
v 12.679993 15.339040 -108.406246
v 12.679993 15.040215 -108.640987
v 12.184315 15.359542 -108.432344
v 12.184315 15.060717 -108.667086
v 11.690405 15.326561 -108.390360
v 11.690405 15.027736 -108.625101
v 11.213269 15.241100 -108.281568
v 11.213269 14.942275 -108.516309
v 10.767405 15.105755 -108.109274
v 10.767405 14.806930 -108.344015
v 10.366361 14.924639 -107.878714
v 10.366361 14.625814 -108.113455
v 10.022321 14.703254 -107.596891
v 10.022321 14.404429 -107.831633
v 9.745740 14.448328 -107.272371
v 9.745740 14.149503 -107.507112
v 9.545022 14.167606 -106.915012
v 9.545022 13.868781 -107.149754
v 9.426264 13.869618 -106.535674
v 9.426264 13.570793 -106.770415
v 9.393075 13.563418 -106.145882
v 12.395994 13.800311 -107.290331
v 11.825487 12.966987 -108.057653
v 12.126382 13.809589 -107.336306
v 11.825487 13.784825 -107.415202
v 11.825487 13.784825 -107.415202
v 11.634558 13.691931 -107.186528
v 11.825487 12.966987 -108.057653
v 11.463478 13.577228 -107.006347
v 11.101468 12.411320 -107.350289
v 11.292398 13.429332 -106.852240
v 11.101468 13.229157 -106.707839
v 11.101468 13.229157 -106.707839
v 11.211433 13.107388 -106.442405
v 11.101468 12.411320 -107.350289
v 11.309965 12.966810 -106.229286
v 11.518462 11.746151 -106.503531
v 11.408497 12.793039 -106.042241
v 11.518462 12.563989 -105.861081
v 11.518462 12.563989 -105.861081
v 11.819356 12.588753 -105.782184
v 11.518462 11.746151 -106.503531
v 12.088968 12.579474 -105.736209
v 12.659475 11.636650 -106.364136
v 12.358581 12.537004 -105.716309
v 12.659475 12.454487 -105.721686
v 13.174997 13.412975 -106.797254
v 12.966500 12.857486 -107.918257
v 13.076465 13.553553 -107.010373
v 12.966501 13.675323 -107.275807
v 12.659475 12.454487 -105.721686
v 12.850405 12.654661 -105.866086
v 12.659475 11.636650 -106.364136
v 13.021485 12.802557 -106.020193
v 13.383494 12.192317 -107.071499
v 13.192565 12.917261 -106.200375
v 13.383494 13.010154 -106.429049
v 12.358581 12.537004 -105.716309
v 12.242481 13.643910 -106.156617
v 12.659475 12.454487 -105.721686
v 12.088968 12.579474 -105.736209
v 12.242481 13.643910 -106.156617
v 12.850405 12.654661 -105.866086
v 11.518462 12.563989 -105.861081
v 12.242481 13.643910 -106.156617
v 11.819356 12.588753 -105.782184
v 11.408497 12.793039 -106.042241
v 12.242481 13.643910 -106.156617
v 12.242481 13.643910 -106.156617
v 11.309965 12.966810 -106.229286
v 11.101468 13.229157 -106.707839
v 12.242481 13.643910 -106.156617
v 11.211433 13.107388 -106.442405
v 11.292398 13.429332 -106.852240
v 12.242481 13.643910 -106.156617
v 12.242481 13.643910 -106.156617
v 11.463478 13.577228 -107.006347
v 11.825487 13.784825 -107.415202
v 12.242481 13.643910 -106.156617
v 11.634558 13.691931 -107.186528
v 12.126382 13.809589 -107.336306
v 12.242481 13.643910 -106.156617
v 12.242481 13.643910 -106.156617
v 12.395994 13.800311 -107.290331
v 12.966501 13.675323 -107.275807
v 12.242481 13.643910 -106.156617
v 12.665606 13.757840 -107.270430
v 13.076465 13.553553 -107.010373
v 12.242481 13.643910 -106.156617
v 12.242481 13.643910 -106.156617
v 13.174997 13.412975 -106.797254
v 13.383494 13.010154 -106.429049
v 12.242481 13.643910 -106.156617
v 13.273530 13.239205 -106.610209
v 13.192565 12.917261 -106.200375
v 12.242481 13.643910 -106.156617
v 12.242481 13.643910 -106.156617
v 13.174997 13.412975 -106.797254
v 13.021485 12.802557 -106.020193
v 12.242481 13.643910 -106.156617
f 1 2 3
f 1 3 4
f 1 5 2
f 1 4 190
f 2 5 35
f 2 36 3
f 2 35 45
f 2 45 36
f 3 36 38
f 3 38 4
f 4 184 190
f 4 38 191
f 4 191 184
f 5 43 35
f 6 7 8
f 6 8 106
f 6 112 119
f 6 106 112
f 7 9 10
f 7 10 8
f 8 99 100
f 8 10 99
f 8 100 106
f 9 11 12
f 9 12 10
f 10 94 99
f 10 12 94
f 11 13 14
f 11 14 12
f 12 88 94
f 12 14 88
f 13 15 16
f 13 16 14
f 14 82 88
f 14 16 82
f 15 17 18
f 15 18 16
f 16 74 82
f 16 18 74
f 17 77 18
f 18 76 74
f 18 77 76
f 19 20 21
f 19 21 587
f 19 587 588
f 20 22 23
f 20 23 21
f 21 61 65
f 21 23 61
f 21 65 587
f 22 24 25
f 22 25 23
f 23 57 61
f 23 25 57
f 24 26 27
f 24 27 25
f 25 52 57
f 25 27 52
f 26 28 29
f 26 29 27
f 27 47 52
f 27 29 47
f 28 30 31
f 28 31 29
f 29 39 47
f 29 31 39
f 30 42 31
f 30 194 42
f 30 195 194
f 31 41 39
f 31 42 41
f 32 33 34
f 32 34 62
f 33 585 63
f 33 63 34
f 34 54 58
f 34 58 62
f 34 63 54
f 35 43 44
f 35 44 50
f 35 50 45
f 36 37 38
f 36 45 46
f 36 46 37
f 37 39 40
f 37 40 38
f 37 46 47
f 37 47 39
f 38 40 191
f 39 41 40
f 40 192 191
f 40 41 192
f 41 193 192
f 41 42 193
f 42 194 193
f 43 48 44
f 44 48 49
f 44 49 55
f 44 55 50
f 45 50 51
f 45 51 46
f 46 51 52
f 46 52 47
f 48 53 49
f 49 53 54
f 49 54 59
f 49 59 55
f 50 55 56
f 50 56 51
f 51 56 57
f 51 57 52
f 53 58 54
f 54 63 59
f 55 59 60
f 55 60 56
f 56 60 61
f 56 61 57
f 59 63 64
f 59 64 60
f 60 64 65
f 60 65 61
f 63 585 64
f 64 585 586
f 64 586 65
f 65 586 587
f 66 67 68
f 66 68 69
f 66 70 71
f 66 69 80
f 66 80 70
f 66 71 67
f 67 71 584
f 68 78 69
f 69 78 79
f 69 79 85
f 69 85 80
f 70 72 73
f 70 73 71
f 70 80 81
f 70 81 72
f 72 74 75
f 72 75 73
f 72 81 82
f 72 82 74
f 74 76 75
f 78 83 79
f 79 83 84
f 79 84 86
f 79 86 85
f 80 85 87
f 80 87 81
f 81 87 88
f 81 88 82
f 83 89 84
f 84 89 90
f 84 90 91
f 84 91 86
f 85 86 92
f 85 92 87
f 86 91 93
f 86 93 92
f 87 92 94
f 87 94 88
f 89 95 90
f 90 95 96
f 90 96 97
f 90 97 91
f 91 97 98
f 91 98 93
f 92 93 99
f 92 99 94
f 93 98 100
f 93 100 99
f 95 101 96
f 96 101 102
f 96 102 103
f 96 103 97
f 97 103 104
f 97 104 98
f 98 104 105
f 98 105 100
f 100 105 106
f 101 107 102
f 102 107 108
f 102 108 109
f 102 109 103
f 103 109 110
f 103 110 104
f 104 110 111
f 104 111 105
f 105 111 112
f 105 112 106
f 107 113 108
f 108 113 114
f 108 114 115
f 108 115 109
f 109 115 116
f 109 116 110
f 110 116 117
f 110 117 111
f 111 117 118
f 111 118 112
f 112 118 119
f 113 120 114
f 114 120 121
f 114 121 122
f 114 122 115
f 115 122 123
f 115 123 116
f 116 123 124
f 116 124 117
f 117 124 125
f 117 125 118
f 118 126 119
f 118 125 126
f 120 127 121
f 121 127 128
f 121 128 129
f 121 129 122
f 122 129 130
f 122 130 123
f 123 130 131
f 123 131 124
f 124 131 132
f 124 132 125
f 125 133 126
f 125 132 133
f 127 134 128
f 128 134 135
f 128 135 136
f 128 136 129
f 129 136 137
f 129 137 130
f 130 137 138
f 130 138 131
f 131 138 139
f 131 139 132
f 132 140 133
f 132 139 140
f 134 141 135
f 135 141 142
f 135 142 143
f 135 143 136
f 136 143 144
f 136 144 137
f 137 144 145
f 137 145 138
f 138 145 146
f 138 146 139
f 139 147 140
f 139 146 147
f 141 148 142
f 142 148 149
f 142 149 150
f 142 150 143
f 143 150 151
f 143 151 144
f 144 151 152
f 144 152 145
f 145 152 153
f 145 153 146
f 146 154 147
f 146 153 154
f 148 155 149
f 149 155 156
f 149 156 157
f 149 157 150
f 150 157 158
f 150 158 151
f 151 158 159
f 151 159 152
f 152 159 160
f 152 160 153
f 153 161 154
f 153 160 161
f 155 162 156
f 156 162 163
f 156 163 164
f 156 164 157
f 157 164 165
f 157 165 158
f 158 165 166
f 158 166 159
f 159 166 167
f 159 167 160
f 160 168 161
f 160 167 168
f 162 169 163
f 163 169 170
f 163 170 171
f 163 171 164
f 164 171 172
f 164 172 165
f 165 172 173
f 165 173 166
f 166 173 174
f 166 174 167
f 167 175 168
f 167 174 175
f 169 176 170
f 170 176 177
f 170 177 178
f 170 178 171
f 171 178 179
f 171 179 172
f 172 179 180
f 172 180 173
f 173 180 181
f 173 181 174
f 174 182 175
f 174 181 182
f 176 183 177
f 177 183 184
f 177 184 185
f 177 185 178
f 178 185 186
f 178 186 179
f 179 186 187
f 179 187 180
f 180 187 188
f 180 188 181
f 181 189 182
f 181 188 189
f 183 190 184
f 184 191 185
f 185 191 192
f 185 192 186
f 186 192 193
f 186 193 187
f 187 193 194
f 187 194 188
f 188 195 189
f 188 194 195
f 196 197 198
f 196 198 199
f 196 200 197
f 197 200 201
f 198 248 199
f 199 248 247
f 200 202 201
f 201 202 203
f 202 204 203
f 203 204 205
f 204 206 205
f 205 206 207
f 206 208 207
f 207 208 209
f 208 210 209
f 209 210 211
f 210 212 211
f 211 212 213
f 212 214 213
f 213 214 215
f 214 216 215
f 215 216 217
f 216 218 217
f 217 218 219
f 218 220 219
f 219 220 221
f 220 222 221
f 221 222 223
f 222 589 223
f 224 225 226
f 224 227 225
f 225 227 228
f 227 229 228
f 228 229 230
f 229 231 230
f 230 231 232
f 231 233 232
f 232 233 234
f 233 235 234
f 234 235 236
f 235 237 236
f 236 237 238
f 237 239 238
f 238 239 240
f 239 241 240
f 240 241 242
f 241 243 242
f 242 243 244
f 243 245 244
f 244 245 246
f 245 247 246
f 246 247 248
f 249 250 251
f 249 649 648
f 249 251 649
f 250 590 251
f 251 590 591
f 252 253 254
f 252 254 255
f 252 256 253
f 253 256 257
f 254 650 255
f 256 258 257
f 257 258 259
f 258 260 259
f 259 260 261
f 260 262 261
f 261 262 263
f 262 264 263
f 263 264 265
f 264 266 265
f 265 266 267
f 266 268 267
f 267 268 269
f 268 270 269
f 269 270 271
f 270 272 271
f 271 272 273
f 272 274 273
f 273 274 275
f 274 276 275
f 275 276 278
f 276 277 278
f 276 279 277
f 277 279 280
f 279 281 280
f 280 281 282
f 281 283 282
f 282 283 284
f 283 285 284
f 284 285 286
f 285 287 286
f 286 287 288
f 287 289 288
f 288 289 290
f 289 291 290
f 290 291 292
f 291 293 292
f 292 293 294
f 293 295 294
f 294 295 296
f 295 297 296
f 296 297 298
f 297 299 298
f 298 299 300
f 299 651 300
f 300 651 652
f 301 302 303
f 301 303 304
f 301 305 302
f 301 304 541
f 302 305 406
f 302 407 303
f 302 406 415
f 302 415 407
f 303 407 409
f 303 409 304
f 304 534 541
f 304 409 542
f 304 542 534
f 305 413 406
f 306 307 308
f 306 414 413
f 306 418 414
f 306 308 418
f 307 309 310
f 307 310 308
f 308 310 422
f 308 422 423
f 308 423 418
f 309 311 312
f 309 312 310
f 310 312 430
f 310 430 422
f 311 434 312
f 311 442 434
f 312 434 435
f 312 435 430
f 313 314 315
f 313 446 445
f 313 453 446
f 313 315 453
f 314 316 317
f 314 317 315
f 315 317 457
f 315 457 458
f 315 458 453
f 316 318 319
f 316 319 317
f 317 319 463
f 317 463 457
f 318 466 319
f 318 471 470
f 318 470 466
f 319 466 467
f 319 467 463
f 320 321 322
f 320 480 479
f 320 484 480
f 320 322 484
f 321 323 324
f 321 324 322
f 322 324 488
f 322 488 489
f 322 489 484
f 323 325 326
f 323 326 324
f 324 326 494
f 324 494 488
f 325 497 326
f 325 502 501
f 325 501 497
f 326 497 498
f 326 498 494
f 327 328 329
f 327 511 510
f 327 515 511
f 327 329 515
f 328 330 331
f 328 331 329
f 329 331 519
f 329 519 520
f 329 520 515
f 330 332 333
f 330 333 331
f 331 333 525
f 331 525 519
f 332 528 333
f 332 533 532
f 332 532 528
f 333 528 529
f 333 529 525
f 334 335 336
f 334 337 335
f 334 336 404
f 335 337 338
f 335 540 539
f 335 338 540
f 335 539 336
f 336 539 544
f 336 544 405
f 336 405 404
f 337 339 338
f 338 339 340
f 338 340 531
f 338 531 540
f 339 341 340
f 340 341 342
f 340 527 531
f 340 342 527
f 341 343 342
f 342 343 344
f 342 344 524
f 342 524 527
f 343 345 344
f 344 345 346
f 344 522 524
f 344 346 522
f 345 347 346
f 346 347 348
f 346 348 518
f 346 518 522
f 347 349 348
f 348 349 350
f 348 514 518
f 348 350 514
f 349 351 350
f 350 351 352
f 350 508 514
f 350 352 508
f 351 353 352
f 352 353 354
f 352 509 508
f 352 354 509
f 353 355 354
f 354 355 356
f 354 356 500
f 354 500 509
f 355 357 356
f 356 357 358
f 356 496 500
f 356 358 496
f 357 359 358
f 358 359 360
f 358 360 493
f 358 493 496
f 359 361 360
f 360 361 362
f 360 491 493
f 360 362 491
f 361 363 362
f 362 363 364
f 362 364 487
f 362 487 491
f 363 365 364
f 364 365 366
f 364 483 487
f 364 366 483
f 365 367 366
f 366 367 368
f 366 477 483
f 366 368 477
f 367 369 368
f 368 369 370
f 368 478 477
f 368 370 478
f 369 371 370
f 370 371 372
f 370 372 469
f 370 469 478
f 371 373 372
f 372 373 374
f 372 465 469
f 372 374 465
f 373 375 374
f 374 375 376
f 374 376 462
f 374 462 465
f 375 377 376
f 376 377 378
f 376 460 462
f 376 378 460
f 377 379 378
f 378 379 380
f 378 380 456
f 378 456 460
f 379 381 380
f 380 381 382
f 380 451 456
f 380 382 451
f 381 383 382
f 382 383 384
f 382 452 451
f 382 384 452
f 383 385 384
f 384 385 386
f 384 386 678
f 384 678 452
f 385 677 386
f 387 388 389
f 387 389 438
f 388 390 391
f 388 391 389
f 389 432 437
f 389 437 438
f 389 391 432
f 390 392 393
f 390 393 391
f 391 433 432
f 391 393 433
f 392 394 395
f 392 395 393
f 393 427 433
f 393 395 427
f 394 396 397
f 394 397 395
f 395 429 427
f 395 397 429
f 396 398 399
f 396 399 397
f 397 399 421
f 397 421 429
f 398 400 401
f 398 401 399
f 399 417 421
f 399 401 417
f 400 402 403
f 400 403 401
f 401 410 417
f 401 403 410
f 402 404 405
f 402 405 403
f 403 412 410
f 403 405 412
f 405 544 412
f 406 413 414
f 406 414 419
f 406 419 415
f 407 408 409
f 407 415 416
f 407 416 408
f 408 410 411
f 408 411 409
f 408 416 417
f 408 417 410
f 409 411 542
f 410 412 411
f 411 543 542
f 411 412 543
f 412 544 543
f 414 426 419
f 414 418 426
f 415 419 420
f 415 420 416
f 416 420 421
f 416 421 417
f 418 423 426
f 419 428 420
f 419 426 428
f 420 429 421
f 420 428 429
f 422 424 423
f 422 430 431
f 422 431 424
f 423 425 426
f 423 424 425
f 424 431 432
f 424 433 425
f 424 432 433
f 425 427 428
f 425 428 426
f 425 433 427
f 427 429 428
f 430 435 436
f 430 436 431
f 431 436 437
f 431 437 432
f 434 441 435
f 434 442 441
f 435 440 436
f 435 441 440
f 436 439 437
f 436 440 439
f 437 439 438
f 443 444 445
f 443 445 446
f 443 446 447
f 443 447 448
f 443 681 444
f 443 448 681
f 444 681 682
f 446 453 454
f 446 454 447
f 447 449 448
f 447 454 455
f 447 455 449
f 448 449 450
f 448 680 681
f 448 450 680
f 449 451 450
f 449 455 456
f 449 456 451
f 450 451 452
f 450 679 680
f 450 452 679
f 452 678 679
f 453 458 454
f 454 461 455
f 454 458 461
f 455 460 456
f 455 461 460
f 457 459 458
f 457 463 464
f 457 464 459
f 458 459 461
f 459 464 465
f 459 462 461
f 459 465 462
f 460 461 462
f 463 467 468
f 463 468 464
f 464 468 469
f 464 469 465
f 466 474 467
f 466 470 474
f 467 476 468
f 467 474 476
f 468 478 469
f 468 476 478
f 470 471 472
f 470 472 473
f 470 473 474
f 471 479 472
f 472 479 480
f 472 480 481
f 472 481 473
f 473 475 474
f 473 481 482
f 473 482 475
f 474 475 476
f 475 477 476
f 475 482 483
f 475 483 477
f 476 477 478
f 480 484 485
f 480 485 481
f 481 485 486
f 481 486 482
f 482 486 487
f 482 487 483
f 484 489 485
f 485 492 486
f 485 489 492
f 486 491 487
f 486 492 491
f 488 490 489
f 488 494 495
f 488 495 490
f 489 490 492
f 490 495 496
f 490 493 492
f 490 496 493
f 491 492 493
f 494 498 499
f 494 499 495
f 495 499 500
f 495 500 496
f 497 505 498
f 497 501 505
f 498 507 499
f 498 505 507
f 499 509 500
f 499 507 509
f 501 502 503
f 501 503 504
f 501 504 505
f 502 510 503
f 503 510 511
f 503 511 512
f 503 512 504
f 504 506 505
f 504 512 513
f 504 513 506
f 505 506 507
f 506 508 507
f 506 513 514
f 506 514 508
f 507 508 509
f 511 515 516
f 511 516 512
f 512 516 517
f 512 517 513
f 513 517 518
f 513 518 514
f 515 520 516
f 516 523 517
f 516 520 523
f 517 522 518
f 517 523 522
f 519 521 520
f 519 525 526
f 519 526 521
f 520 521 523
f 521 526 527
f 521 524 523
f 521 527 524
f 522 523 524
f 525 529 530
f 525 530 526
f 526 530 531
f 526 531 527
f 528 536 529
f 528 532 536
f 529 538 530
f 529 536 538
f 530 540 531
f 530 538 540
f 532 533 534
f 532 534 535
f 532 535 536
f 533 541 534
f 534 542 535
f 535 537 536
f 535 542 543
f 535 543 537
f 536 537 538
f 537 539 538
f 537 543 544
f 537 544 539
f 538 539 540
f 545 546 547
f 545 547 548
f 545 549 550
f 545 551 552
f 545 552 549
f 545 553 546
f 545 548 551
f 546 553 558
f 549 575 550
f 550 570 569
f 550 575 576
f 550 577 570
f 550 576 577
f 553 554 555
f 553 555 556
f 553 557 558
f 553 559 554
f 553 556 557
f 554 559 563
f 559 560 561
f 559 561 562
f 559 564 560
f 559 562 563
f 560 564 568
f 564 565 566
f 564 566 567
f 564 569 565
f 564 567 568
f 565 569 574
f 569 570 571
f 569 571 572
f 569 573 574
f 569 572 573
f 578 579 580
f 579 757 580
f 580 757 758
f 581 582 583
f 582 782 583
f 583 782 783
f 590 592 591
f 591 592 593
f 592 594 593
f 593 594 595
f 594 596 595
f 595 596 597
f 595 597 598
f 597 599 598
f 598 599 600
f 599 601 600
f 600 601 602
f 601 603 602
f 602 603 604
f 602 604 605
f 604 606 605
f 605 606 607
f 606 608 607
f 607 608 609
f 608 610 609
f 609 610 611
f 609 611 612
f 611 613 612
f 612 613 614
f 613 615 614
f 614 615 616
f 615 617 616
f 616 617 618
f 616 618 619
f 618 620 619
f 619 620 621
f 620 622 621
f 621 622 623
f 622 624 623
f 623 624 625
f 623 625 626
f 625 627 626
f 626 627 628
f 627 629 628
f 628 629 630
f 629 631 630
f 630 631 632
f 630 632 633
f 632 634 633
f 633 634 635
f 634 636 635
f 635 636 637
f 636 638 637
f 637 638 639
f 637 639 640
f 639 641 640
f 640 641 642
f 641 643 642
f 642 643 644
f 643 645 644
f 644 645 646
f 644 646 647
f 646 648 647
f 647 648 649
f 653 654 655
f 654 656 655
f 654 657 656
f 656 657 658
f 657 659 658
f 658 659 660
f 659 661 660
f 660 661 662
f 661 663 662
f 662 663 664
f 663 665 664
f 664 665 666
f 665 667 666
f 666 667 668
f 667 669 668
f 668 669 670
f 669 671 670
f 670 671 672
f 671 673 672
f 672 673 674
f 673 675 674
f 674 675 676
f 683 684 685
f 683 686 684
f 683 756 686
f 684 687 685
f 685 687 688
f 686 756 755
f 687 689 688
f 688 689 690
f 689 691 690
f 690 691 692
f 691 693 692
f 692 693 694
f 693 695 694
f 694 695 696
f 695 697 696
f 696 697 698
f 697 699 698
f 698 699 700
f 699 701 700
f 700 701 702
f 701 703 702
f 702 703 704
f 703 705 704
f 704 705 706
f 705 707 706
f 706 707 708
f 707 709 708
f 708 709 710
f 709 711 710
f 710 711 712
f 711 713 712
f 712 713 714
f 713 715 714
f 714 715 716
f 715 717 716
f 716 717 718
f 717 719 718
f 718 719 720
f 719 721 720
f 720 721 722
f 721 723 722
f 724 725 726
f 725 727 726
f 726 727 728
f 727 729 728
f 728 729 730
f 729 731 730
f 730 731 732
f 731 733 732
f 732 733 734
f 733 735 734
f 734 735 736
f 735 737 736
f 736 737 738
f 737 739 738
f 738 739 740
f 739 741 740
f 740 741 742
f 741 743 742
f 742 743 744
f 743 745 744
f 744 745 746
f 745 747 746
f 746 747 748
f 747 749 748
f 748 749 750
f 749 751 750
f 750 751 752
f 751 753 752
f 752 753 754
f 753 755 754
f 754 755 756
f 757 759 758
f 758 759 760
f 761 762 763
f 762 764 763
f 763 764 765
f 764 766 765
f 765 766 767
f 768 769 770
f 769 771 770
f 770 771 772
f 771 773 772
f 772 773 774
f 775 776 777
f 776 778 777
f 777 778 779
f 778 780 779
f 779 780 781
f 782 784 783
f 783 784 785
f 786 787 788
f 787 789 788
f 788 789 790
f 789 791 790
f 790 791 792
f 793 794 795
f 793 796 794
f 795 797 798
f 796 801 804
f 798 835 834
f 799 800 801
f 799 802 803
f 802 805 803
f 805 808 811
f 806 807 808
f 806 809 810
f 809 812 810
f 812 815 818
f 813 814 815
f 813 816 817
f 816 819 817
f 819 822 825
f 820 821 822
f 820 823 824
f 823 826 824
f 827 828 829
f 827 830 831
f 829 832 833
f 830 834 831